<?xml version="1.0" encoding="UTF-8" standalone="no"?>
<!DOCTYPE svg PUBLIC "-//W3C//DTD SVG 1.1//EN"
 "http://www.w3.org/Graphics/SVG/1.1/DTD/svg11.dtd">
<!-- Generated by graphviz version 14.0.0 (20250921.2048)
 -->
<!-- Title: Main.cpp Pages: 1 -->
<svg width="226pt" height="83pt"
 viewBox="0.00 0.00 226.00 83.00" xmlns="http://www.w3.org/2000/svg" xmlns:xlink="http://www.w3.org/1999/xlink">
<g id="graph0" class="graph" transform="scale(1 1) rotate(0) translate(4 78.5)">
<title>Main.cpp</title>
<!-- Node1 -->
<g id="Node000001" class="node">
<title>Node1</title>
<g id="a_Node000001"><a xlink:title=" ">
<polygon fill="#999999" stroke="none" points="135,-74.5 71,-74.5 71,-55.25 135,-55.25 135,-74.5"/>
<text xml:space="preserve" text-anchor="start" x="79" y="-61.05" font-family="Consolas" font-weight="bold" font-size="11.00">Main.cpp</text>
</a>
</g>
</g>
<!-- Node2 -->
<g id="Node000002" class="node">
<title>Node2</title>
<g id="a_Node000002"><a xlink:title=" ">
<polygon fill="#e0e0e0" stroke="none" points="88,-19.25 0,-19.25 0,0 88,0 88,-19.25"/>
<text xml:space="preserve" text-anchor="middle" x="44" y="-4.8" font-family="Consolas" font-size="11.00">QApplication</text>
</a>
</g>
</g>
<!-- Node1&#45;&gt;Node2 -->
<g id="edge1_Node000001_Node000002" class="edge">
<title>Node1&#45;&gt;Node2</title>
<g id="a_edge1_Node000001_Node000002"><a xlink:title=" ">
<path fill="none" stroke="#63b8ff" d="M93.52,-55.32C83.83,-46.57 68.68,-32.9 57.69,-22.98"/>
<polygon fill="#63b8ff" stroke="#63b8ff" points="54.17,-19.8 59.39,-21.48 55.12,-20.66 57.88,-23.15 57.88,-23.15 57.88,-23.15 55.12,-20.66 56.37,-24.82 54.17,-19.8"/>
</a>
</g>
</g>
<!-- Node3 -->
<g id="Node000003" class="node">
<title>Node3</title>
<g id="a_Node000003"><a xlink:title=" ">
<polygon fill="#e0e0e0" stroke="none" points="218,-19.25 106,-19.25 106,0 218,0 218,-19.25"/>
<text xml:space="preserve" text-anchor="middle" x="162" y="-4.8" font-family="Consolas" font-size="11.00">npi/MainWindow.h</text>
</a>
</g>
</g>
<!-- Node1&#45;&gt;Node3 -->
<g id="edge2_Node000001_Node000003" class="edge">
<title>Node1&#45;&gt;Node3</title>
<g id="a_edge2_Node000001_Node000003"><a xlink:title=" ">
<path fill="none" stroke="#63b8ff" d="M112.48,-55.32C122.17,-46.57 137.32,-32.9 148.31,-22.98"/>
<polygon fill="#63b8ff" stroke="#63b8ff" points="151.83,-19.8 149.63,-24.82 150.88,-20.66 148.12,-23.15 148.12,-23.15 148.12,-23.15 150.88,-20.66 146.61,-21.48 151.83,-19.8"/>
</a>
</g>
</g>
</g>
</svg>
