<?xml version="1.0" encoding="UTF-8" standalone="no"?>
<!DOCTYPE svg PUBLIC "-//W3C//DTD SVG 1.1//EN"
 "http://www.w3.org/Graphics/SVG/1.1/DTD/svg11.dtd">
<!-- Generated by graphviz version 14.0.0 (20250921.2048)
 -->
<!-- Title: npiImpLog.cpp Pages: 1 -->
<svg width="230pt" height="83pt"
 viewBox="0.00 0.00 230.00 83.00" xmlns="http://www.w3.org/2000/svg" xmlns:xlink="http://www.w3.org/1999/xlink">
<g id="graph0" class="graph" transform="scale(1 1) rotate(0) translate(4 78.5)">
<title>npiImpLog.cpp</title>
<!-- Node1 -->
<g id="Node000001" class="node">
<title>Node1</title>
<g id="a_Node000001"><a xlink:title=" ">
<polygon fill="#999999" stroke="none" points="167,-74.5 73,-74.5 73,-55.25 167,-55.25 167,-74.5"/>
<text xml:space="preserve" text-anchor="start" x="81" y="-61.05" font-family="Consolas" font-weight="bold" font-size="11.00">npiImpLog.cpp</text>
</a>
</g>
</g>
<!-- Node2 -->
<g id="Node000002" class="node">
<title>Node2</title>
<g id="a_Node000002"><a xlink:title=" ">
<polygon fill="#e0e0e0" stroke="none" points="70,-19.25 0,-19.25 0,0 70,0 70,-19.25"/>
<text xml:space="preserve" text-anchor="middle" x="35" y="-4.8" font-family="Consolas" font-size="11.00">windows.h</text>
</a>
</g>
</g>
<!-- Node1&#45;&gt;Node2 -->
<g id="edge1_Node000001_Node000002" class="edge">
<title>Node1&#45;&gt;Node2</title>
<g id="a_edge1_Node000001_Node000002"><a xlink:title=" ">
<path fill="none" stroke="#63b8ff" d="M106.34,-55.32C92.09,-46.39 69.65,-32.33 53.74,-22.37"/>
<polygon fill="#63b8ff" stroke="#63b8ff" points="49.66,-19.81 55.09,-20.55 50.74,-20.49 53.89,-22.46 53.89,-22.46 53.89,-22.46 50.74,-20.49 52.7,-24.37 49.66,-19.81"/>
</a>
</g>
</g>
<!-- Node3 -->
<g id="Node000003" class="node">
<title>Node3</title>
<g id="a_Node000003"><a xlink:title=" ">
<polygon fill="#e0e0e0" stroke="none" points="152,-19.25 88,-19.25 88,0 152,0 152,-19.25"/>
<text xml:space="preserve" text-anchor="middle" x="120" y="-4.8" font-family="Consolas" font-size="11.00">shlobj.h</text>
</a>
</g>
</g>
<!-- Node1&#45;&gt;Node3 -->
<g id="edge2_Node000001_Node000003" class="edge">
<title>Node1&#45;&gt;Node3</title>
<g id="a_edge2_Node000001_Node000003"><a xlink:title=" ">
<path fill="none" stroke="#63b8ff" d="M120,-55.55C120,-47.4 120,-34.79 120,-25.01"/>
<polygon fill="#63b8ff" stroke="#63b8ff" points="120,-20.28 122.25,-25.28 120,-21.56 120,-25.28 120,-25.28 120,-25.28 120,-21.56 117.75,-25.28 120,-20.28"/>
</a>
</g>
</g>
<!-- Node4 -->
<g id="Node000004" class="node">
<title>Node4</title>
<g id="a_Node000004"><a xlink:title=" ">
<polygon fill="#e0e0e0" stroke="none" points="222,-19.25 170,-19.25 170,0 222,0 222,-19.25"/>
<text xml:space="preserve" text-anchor="middle" x="196" y="-4.8" font-family="Consolas" font-size="11.00">string</text>
</a>
</g>
</g>
<!-- Node1&#45;&gt;Node4 -->
<g id="edge3_Node000001_Node000004" class="edge">
<title>Node1&#45;&gt;Node4</title>
<g id="a_edge3_Node000001_Node000004"><a xlink:title=" ">
<path fill="none" stroke="#63b8ff" d="M132.21,-55.32C144.92,-46.42 164.91,-32.41 179.12,-22.45"/>
<polygon fill="#63b8ff" stroke="#63b8ff" points="183.07,-19.68 180.27,-24.39 182.02,-20.42 178.98,-22.55 178.98,-22.55 178.98,-22.55 182.02,-20.42 177.69,-20.71 183.07,-19.68"/>
</a>
</g>
</g>
</g>
</svg>
