<?xml version="1.0" encoding="UTF-8" standalone="no"?>
<!DOCTYPE svg PUBLIC "-//W3C//DTD SVG 1.1//EN"
 "http://www.w3.org/Graphics/SVG/1.1/DTD/svg11.dtd">
<!-- Generated by graphviz version 14.1.5 (20260411.2331)
 -->
<!-- Title: anonymous_namespace{Log::cpp}::TextBuffer::appendRawText_ Pages: 1 -->
<svg width="550pt" height="50pt"
 viewBox="0.00 0.00 550.00 50.00" xmlns="http://www.w3.org/2000/svg" xmlns:xlink="http://www.w3.org/1999/xlink">
<g id="graph0" class="graph" transform="scale(1 1) rotate(0) translate(4 45.75)">
<title>anonymous_namespace{Log::cpp}::TextBuffer::appendRawText_</title>
<!-- Node1 -->
<g id="Node000001" class="node">
<title>Node1</title>
<g id="a_Node000001"><a xlink:title="Appends a bounded byte sequence without sanitization.">
<polygon fill="#999999" stroke="none" points="358,-30.5 0,-30.5 0,-11.25 358,-11.25 358,-30.5"/>
<text xml:space="preserve" text-anchor="start" x="8" y="-17.05" font-family="Consolas" font-weight="bold" font-size="11.00">anonymous_namespace{Log::cpp}::TextBuffer::appendRawText_</text>
</a>
</g>
</g>
<!-- Node2 -->
<g id="Node000002" class="node">
<title>Node2</title>
<g id="a_Node000002"><a xlink:href="../../d1/dd4/classanonymous__namespace_02_log_8cpp_03_1_1_text_buffer.html#a55bcfada4f8f9e501746cff658700e40" target="_top" xlink:title="Checks whether the current line has room for the requested bytes and its terminator.">
<polygon fill="white" stroke="none" points="542,-41.75 394,-41.75 394,0 542,0 542,-41.75"/>
<text xml:space="preserve" text-anchor="start" x="402" y="-27.3" font-family="Consolas" font-size="11.00">anonymous_namespace</text>
<text xml:space="preserve" text-anchor="start" x="402" y="-16.05" font-family="Consolas" font-size="11.00">{Log::cpp}::TextBuffer</text>
<text xml:space="preserve" text-anchor="middle" x="468" y="-4.8" font-family="Consolas" font-size="11.00">::canAppend_</text>
</a>
</g>
</g>
<!-- Node1&#45;&gt;Node2 -->
<g id="edge1_Node000001_Node000002" class="edge">
<title>Node1&#45;&gt;Node2</title>
<g id="a_edge1_Node000001_Node000002"><a xlink:title=" ">
<path fill="none" stroke="#63b8ff" d="M357.68,-20.88C368.22,-20.88 378.5,-20.88 388.27,-20.88"/>
<polygon fill="#63b8ff" stroke="#63b8ff" points="393.07,-20.88 388.07,-23.13 391.79,-20.88 388.07,-20.88 388.07,-20.88 388.07,-20.88 391.79,-20.88 388.07,-18.63 393.07,-20.88"/>
</a>
</g>
</g>
</g>
</svg>
