<?xml version="1.0" encoding="UTF-8" standalone="no"?>
<!DOCTYPE svg PUBLIC "-//W3C//DTD SVG 1.1//EN"
 "http://www.w3.org/Graphics/SVG/1.1/DTD/svg11.dtd">
<!-- Generated by graphviz version 14.0.0 (20250921.2048)
 -->
<!-- Title: npi::win::abortMsgBox Pages: 1 -->
<svg width="626pt" height="125pt"
 viewBox="0.00 0.00 626.00 125.00" xmlns="http://www.w3.org/2000/svg" xmlns:xlink="http://www.w3.org/1999/xlink">
<g id="graph0" class="graph" transform="scale(1 1) rotate(0) translate(4 120.64)">
<title>npi::win::abortMsgBox</title>
<!-- Node1 -->
<g id="Node000001" class="node">
<title>Node1</title>
<g id="a_Node000001"><a xlink:title="Show a fatal error box and terminate the process.">
<polygon fill="#999999" stroke="none" points="618,-76.25 476,-76.25 476,-57 618,-57 618,-76.25"/>
<text xml:space="preserve" text-anchor="start" x="484" y="-62.8" font-family="Consolas" font-weight="bold" font-size="11.00">npi::win::abortMsgBox</text>
</a>
</g>
</g>
<!-- Node2 -->
<g id="Node000002" class="node">
<title>Node2</title>
<g id="a_Node000002"><a xlink:href="../../dc/dba/namespacenpi_1_1app.html#a40a2a28831f2f410c995f0657baf6544" target="_top" xlink:title="Absolute application&#45;level ProgramData path.">
<polygon fill="white" stroke="none" points="190,-114.25 12,-114.25 12,-95 190,-95 190,-114.25"/>
<text xml:space="preserve" text-anchor="middle" x="101" y="-99.8" font-family="Consolas" font-size="11.00">npi::app::appProgramDataDir</text>
</a>
</g>
</g>
<!-- Node1&#45;&gt;Node2 -->
<g id="edge1_Node000001_Node000002" class="edge">
<title>Node1&#45;&gt;Node2</title>
<g id="a_edge1_Node000001_Node000002"><a xlink:title=" ">
<path fill="none" stroke="#63b8ff" d="M520.18,-78.72C499.13,-87.88 468.34,-99.7 440,-104.62 356.03,-119.22 258.53,-117.25 189.89,-112.82"/>
<polygon fill="#63b8ff" stroke="#63b8ff" points="524.74,-76.71 521.07,-80.78 523.57,-77.22 520.17,-78.73 520.17,-78.73 520.17,-78.73 523.57,-77.22 519.26,-76.67 524.74,-76.71"/>
</a>
</g>
</g>
<!-- Node3 -->
<g id="Node000003" class="node">
<title>Node3</title>
<g id="a_Node000003"><a xlink:href="../../dc/dba/namespacenpi_1_1app.html#aff4c7482e4417f59ede04e359548a542" target="_top" xlink:title="Absolute application&#45;level Public/Documents path.">
<polygon fill="white" stroke="none" points="202,-38.25 0,-38.25 0,-19 202,-19 202,-38.25"/>
<text xml:space="preserve" text-anchor="middle" x="101" y="-23.8" font-family="Consolas" font-size="11.00">npi::app::appPublicDocumentsDir</text>
</a>
</g>
</g>
<!-- Node1&#45;&gt;Node3 -->
<g id="edge2_Node000001_Node000003" class="edge">
<title>Node1&#45;&gt;Node3</title>
<g id="a_edge2_Node000001_Node000003"><a xlink:title=" ">
<path fill="none" stroke="#63b8ff" d="M469.99,-60.12C396.02,-53.79 283.19,-44.13 201.97,-37.18"/>
<polygon fill="#63b8ff" stroke="#63b8ff" points="474.92,-60.54 469.75,-62.36 473.65,-60.43 469.94,-60.12 469.94,-60.12 469.94,-60.12 473.65,-60.43 470.13,-57.87 474.92,-60.54"/>
</a>
</g>
</g>
<!-- Node4 -->
<g id="Node000004" class="node">
<title>Node4</title>
<g id="a_Node000004"><a xlink:href="../../dc/dba/namespacenpi_1_1app.html#a30836be8b9337a64733a6e05594b23c8" target="_top" xlink:title="Absolute organization&#45;level ProgramData path.">
<polygon fill="white" stroke="none" points="428,-95.25 250,-95.25 250,-76 428,-76 428,-95.25"/>
<text xml:space="preserve" text-anchor="middle" x="339" y="-80.8" font-family="Consolas" font-size="11.00">npi::app::orgProgramDataDir</text>
</a>
</g>
</g>
<!-- Node1&#45;&gt;Node4 -->
<g id="edge3_Node000001_Node000004" class="edge">
<title>Node1&#45;&gt;Node4</title>
<g id="a_edge3_Node000001_Node000004"><a xlink:title=" ">
<path fill="none" stroke="#63b8ff" d="M470.39,-73.6C456.58,-74.87 442.06,-76.21 427.93,-77.51"/>
<polygon fill="#63b8ff" stroke="#63b8ff" points="475.04,-73.17 470.27,-75.87 473.77,-73.29 470.07,-73.63 470.07,-73.63 470.07,-73.63 473.77,-73.29 469.86,-71.39 475.04,-73.17"/>
</a>
</g>
</g>
<!-- Node5 -->
<g id="Node000005" class="node">
<title>Node5</title>
<g id="a_Node000005"><a xlink:href="../../dc/dba/namespacenpi_1_1app.html#ac0dca24602a75822c6f7fcf63f8781d9" target="_top" xlink:title="Absolute organization&#45;level Public/Documents path.">
<polygon fill="white" stroke="none" points="440,-19.25 238,-19.25 238,0 440,0 440,-19.25"/>
<text xml:space="preserve" text-anchor="middle" x="339" y="-4.8" font-family="Consolas" font-size="11.00">npi::app::orgPublicDocumentsDir</text>
</a>
</g>
</g>
<!-- Node1&#45;&gt;Node5 -->
<g id="edge5_Node000001_Node000005" class="edge">
<title>Node1&#45;&gt;Node5</title>
<g id="a_edge5_Node000001_Node000005"><a xlink:title=" ">
<path fill="none" stroke="#63b8ff" d="M511.7,-55.31C491.03,-48.66 464.12,-40.27 440,-33.62 421.24,-28.46 400.32,-23.34 382.49,-19.17"/>
<polygon fill="#63b8ff" stroke="#63b8ff" points="516.2,-56.77 510.75,-57.37 514.98,-56.37 511.44,-55.23 511.44,-55.23 511.44,-55.23 514.98,-56.37 512.13,-53.09 516.2,-56.77"/>
</a>
</g>
</g>
<!-- Node4&#45;&gt;Node2 -->
<g id="edge4_Node000004_Node000002" class="edge">
<title>Node4&#45;&gt;Node2</title>
<g id="a_edge4_Node000004_Node000002"><a xlink:title=" ">
<path fill="none" stroke="#63b8ff" d="M244.1,-93.18C226.24,-94.62 207.61,-96.12 189.95,-97.54"/>
<polygon fill="#63b8ff" stroke="#63b8ff" points="248.91,-92.8 244.1,-95.44 247.63,-92.9 243.92,-93.2 243.92,-93.2 243.92,-93.2 247.63,-92.9 243.74,-90.96 248.91,-92.8"/>
</a>
</g>
</g>
<!-- Node5&#45;&gt;Node3 -->
<g id="edge6_Node000005_Node000003" class="edge">
<title>Node5&#45;&gt;Node3</title>
<g id="a_edge6_Node000005_Node000003"><a xlink:title=" ">
<path fill="none" stroke="#63b8ff" d="M232.29,-18.14C222.14,-18.95 211.86,-19.78 201.76,-20.59"/>
<polygon fill="#63b8ff" stroke="#63b8ff" points="237.04,-17.75 232.24,-20.4 235.76,-17.86 232.06,-18.15 232.06,-18.15 232.06,-18.15 235.76,-17.86 231.88,-15.91 237.04,-17.75"/>
</a>
</g>
</g>
</g>
</svg>
