<?xml version="1.0" encoding="UTF-8" standalone="no"?>
<!DOCTYPE svg PUBLIC "-//W3C//DTD SVG 1.1//EN"
 "http://www.w3.org/Graphics/SVG/1.1/DTD/svg11.dtd">
<!-- Generated by graphviz version 14.0.0 (20250921.2048)
 -->
<!-- Title: npi::win::msgBox Pages: 1 -->
<svg width="298pt" height="138pt"
 viewBox="0.00 0.00 298.00 138.00" xmlns="http://www.w3.org/2000/svg" xmlns:xlink="http://www.w3.org/1999/xlink">

<svg id="main" version="1.1" xmlns="http://www.w3.org/2000/svg" xmlns:xlink="http://www.w3.org/1999/xlink" xml:space="preserve">

<style type="text/css"><![CDATA[
.node, .edge {opacity: 0.7;}
.node.selected, .edge.selected {opacity: 1;}
.edge:hover path { stroke: red; }
.edge:hover polygon { stroke: red; fill: red; }
]]></style>
<script type="application/ecmascript" xlink:href="../../svg.min.js"/>
<svg id="graph" class="graph">
<g id="graph0" class="graph" transform="scale(1 1) rotate(0) translate(4 134.25)">
<title>npi::win::msgBox</title>
<!-- Node1 -->
<g id="Node000001" class="node">
<title>Node1</title>
<g id="a_Node000001"><a xlink:title="Show a Windows message box, parented to an optional QWidget.">
<polygon fill="#999999" stroke="none" points="290,-74.25 178,-74.25 178,-55 290,-55 290,-74.25"/>
<text xml:space="preserve" text-anchor="start" x="186" y="-60.8" font-family="Consolas" font-weight="bold" font-size="11.00">npi::win::msgBox</text>
</a>
</g>
</g>
<!-- Node2 -->
<g id="Node000002" class="node">
<title>Node2</title>
<g id="a_Node000002"><a xlink:href="../../d8/d8e/namespacenpi_1_1win.html#a6dad9ee35b225c0a7e268e7fe1ec8136" target="_top" xlink:title="Show an error message box and then terminate the process.">
<polygon fill="white" stroke="none" points="142,-130.25 0,-130.25 0,-111 142,-111 142,-130.25"/>
<text xml:space="preserve" text-anchor="middle" x="71" y="-115.8" font-family="Consolas" font-size="11.00">npi::win::abortMsgBox</text>
</a>
</g>
</g>
<!-- Node1&#45;&gt;Node2 -->
<g id="edge1_Node000001_Node000002" class="edge">
<title>Node1&#45;&gt;Node2</title>
<g id="a_edge1_Node000001_Node000002"><a xlink:title=" ">
<path fill="none" stroke="#63b8ff" d="M207,-76.66C189,-84.69 164.36,-95.13 142,-102.62 132.84,-105.7 122.86,-108.55 113.38,-111.04"/>
<polygon fill="#63b8ff" stroke="#63b8ff" points="211.25,-74.75 207.61,-78.85 210.08,-75.27 206.69,-76.8 206.69,-76.8 206.69,-76.8 210.08,-75.27 205.77,-74.74 211.25,-74.75"/>
</a>
</g>
</g>
<!-- Node3 -->
<g id="Node000003" class="node">
<title>Node3</title>
<g id="a_Node000003"><a xlink:href="../../d8/d8e/namespacenpi_1_1win.html#aafb47eb36e449bc98316ec02b0da6b62" target="_top" xlink:title="Show an error message box (OK + error icon).">
<polygon fill="white" stroke="none" points="142,-93.25 0,-93.25 0,-74 142,-74 142,-93.25"/>
<text xml:space="preserve" text-anchor="middle" x="71" y="-78.8" font-family="Consolas" font-size="11.00">npi::win::errorMsgBox</text>
</a>
</g>
</g>
<!-- Node1&#45;&gt;Node3 -->
<g id="edge2_Node000001_Node000003" class="edge">
<title>Node1&#45;&gt;Node3</title>
<g id="a_edge2_Node000001_Node000003"><a xlink:title=" ">
<path fill="none" stroke="#63b8ff" d="M171.97,-71.83C162.11,-72.99 151.84,-74.2 141.8,-75.39"/>
<polygon fill="#63b8ff" stroke="#63b8ff" points="176.83,-71.25 172.13,-74.07 175.56,-71.4 171.87,-71.84 171.87,-71.84 171.87,-71.84 175.56,-71.4 171.6,-69.6 176.83,-71.25"/>
</a>
</g>
</g>
<!-- Node4 -->
<g id="Node000004" class="node">
<title>Node4</title>
<g id="a_Node000004"><a xlink:href="../../d8/d8e/namespacenpi_1_1win.html#a825c06cad5b1b337a13882a0ecfde0dc" target="_top" xlink:title="Show an information message box (OK + information icon).">
<polygon fill="white" stroke="none" points="139,-56.25 3,-56.25 3,-37 139,-37 139,-56.25"/>
<text xml:space="preserve" text-anchor="middle" x="71" y="-41.8" font-family="Consolas" font-size="11.00">npi::win::infoMsgBox</text>
</a>
</g>
</g>
<!-- Node1&#45;&gt;Node4 -->
<g id="edge3_Node000001_Node000004" class="edge">
<title>Node1&#45;&gt;Node4</title>
<g id="a_edge3_Node000001_Node000004"><a xlink:title=" ">
<path fill="none" stroke="#63b8ff" d="M172.09,-57.81C161.27,-56.61 149.94,-55.34 138.96,-54.11"/>
<polygon fill="#63b8ff" stroke="#63b8ff" points="176.83,-58.35 171.61,-60.03 175.56,-58.2 171.86,-57.79 171.86,-57.79 171.86,-57.79 175.56,-58.2 172.11,-55.55 176.83,-58.35"/>
</a>
</g>
</g>
<!-- Node5 -->
<g id="Node000005" class="node">
<title>Node5</title>
<g id="a_Node000005"><a xlink:href="../../d8/d8e/namespacenpi_1_1win.html#a2e98512b244f22a2bee2c1ed3fb8abeb" target="_top" xlink:title="Show a warning message box (OK + warning icon).">
<polygon fill="white" stroke="none" points="139,-19.25 3,-19.25 3,0 139,0 139,-19.25"/>
<text xml:space="preserve" text-anchor="middle" x="71" y="-4.8" font-family="Consolas" font-size="11.00">npi::win::warnMsgBox</text>
</a>
</g>
</g>
<!-- Node1&#45;&gt;Node5 -->
<g id="edge4_Node000001_Node000005" class="edge">
<title>Node1&#45;&gt;Node5</title>
<g id="a_edge4_Node000001_Node000005"><a xlink:title=" ">
<path fill="none" stroke="#63b8ff" d="M206.61,-52.8C188.63,-45.01 164.16,-34.94 142,-27.62 132.71,-24.56 122.58,-21.69 112.98,-19.18"/>
<polygon fill="#63b8ff" stroke="#63b8ff" points="210.86,-54.65 205.37,-54.71 209.68,-54.13 206.27,-52.65 206.27,-52.65 206.27,-52.65 209.68,-54.13 207.17,-50.59 210.86,-54.65"/>
</a>
</g>
</g>
</g>
</svg>
</svg>

<style type='text/css'>
<![CDATA[
[data-mouse-over-selected='false'] { opacity: 0.7; }
[data-mouse-over-selected='true']  { opacity: 1.0; }
]]>
</style>
<script type="application/ecmascript"><![CDATA[
document.addEventListener('DOMContentLoaded', (event) => {
  highlightEdges();
  highlightAdjacentNodes();
});
]]></script>
</svg>
