<?xml version="1.0" encoding="UTF-8" standalone="no"?>
<!DOCTYPE svg PUBLIC "-//W3C//DTD SVG 1.1//EN"
 "http://www.w3.org/Graphics/SVG/1.1/DTD/svg11.dtd">
<!-- Generated by graphviz version 14.0.0 (20250921.2048)
 -->
<!-- Title: npi::win::msgBox Pages: 1 -->
<!--zoomable 179 -->

<svg id="main" version="1.1" xmlns="http://www.w3.org/2000/svg" xmlns:xlink="http://www.w3.org/1999/xlink" xml:space="preserve" onload="init(evt)">

<style type="text/css"><![CDATA[
.node, .edge {opacity: 0.7;}
.node.selected, .edge.selected {opacity: 1;}
.edge:hover path { stroke: red; }
.edge:hover polygon { stroke: red; fill: red; }
]]></style>

<defs>
  <circle id="rim" cx="0" cy="0" r="7"/>
  <circle id="rim2" cx="0" cy="0" r="3.5"/>
  <g id="zoomPlus">
    <use xlink:href="#rim" fill="#404040"><set attributeName="fill" to="#808080" begin="zoomplus.mouseover" end="zoomplus.mouseout"/></use>
    <path d="M-4,0h8M0,-4v8" fill="none" stroke="white" stroke-width="1.5" pointer-events="none"/>
  </g>
  <g id="zoomMin">
    <use xlink:href="#rim" fill="#404040"><set attributeName="fill" to="#808080" begin="zoomminus.mouseover" end="zoomminus.mouseout"/></use>
    <path d="M-4,0h8" fill="none" stroke="white" stroke-width="1.5" pointer-events="none"/>
  </g>
  <g id="arrowUp" transform="translate(30 24)">
    <use xlink:href="#rim"/>
    <path pointer-events="none" fill="none" stroke="white" stroke-width="1.5" d="M0,-3.0v7 M-2.5,-0.5L0,-3.0L2.5,-0.5"/>
  </g>
  <g id="arrowRight" transform="rotate(90) translate(36 -43)">
    <use xlink:href="#rim"/>
    <path pointer-events="none" fill="none" stroke="white" stroke-width="1.5" d="M0,-3.0v7 M-2.5,-0.5L0,-3.0L2.5,-0.5"/>
  </g>
  <g id="arrowDown" transform="rotate(180) translate(-30 -48)">
    <use xlink:href="#rim"/>
    <path pointer-events="none" fill="none" stroke="white" stroke-width="1.5" d="M0,-3.0v7 M-2.5,-0.5L0,-3.0L2.5,-0.5"/>
  </g>
  <g id="arrowLeft" transform="rotate(270) translate(-36 17)">
    <use xlink:href="#rim"/>
    <path pointer-events="none" fill="none" stroke="white" stroke-width="1.5" d="M0,-3.0v7 M-2.5,-0.5L0,-3.0L2.5,-0.5"/>
  </g>
  <g id="resetDef">
    <use xlink:href="#rim2" fill="#404040"><set attributeName="fill" to="#808080" begin="reset.mouseover" end="reset.mouseout"/></use>
  </g>
</defs>
<script type="application/ecmascript">
var viewWidth = 774;
var viewHeight = 179;
var sectionId = 'dynsection-4';
</script>
<script type="application/ecmascript" xlink:href="../../svg.min.js"/>
<svg id="graph" class="graph">
<g id="viewport">
<title>npi::win::msgBox</title>
<!-- Node1 -->
<g id="Node000001" class="node">
<title>Node1</title>
<g id="a_Node000001"><a xlink:title="Show a Windows message box with custom flags.">
<polygon fill="#999999" stroke="none" points="766,-74.25 654,-74.25 654,-55 766,-55 766,-74.25"/>
<text xml:space="preserve" text-anchor="start" x="662" y="-60.8" font-family="Consolas" font-weight="bold" font-size="11.00">npi::win::msgBox</text>
</a>
</g>
</g>
<!-- Node2 -->
<g id="Node000002" class="node">
<title>Node2</title>
<g id="a_Node000002"><a xlink:href="../../d8/d8e/namespacenpi_1_1win.html#a7eb3918ab23ee7b9bd2d01911ee9913f" target="_top" xlink:title="Show a fatal error box and terminate the process.">
<polygon fill="white" stroke="none" points="618,-130.25 476,-130.25 476,-111 618,-111 618,-130.25"/>
<text xml:space="preserve" text-anchor="middle" x="547" y="-115.8" font-family="Consolas" font-size="11.00">npi::win::abortMsgBox</text>
</a>
</g>
</g>
<!-- Node1&#45;&gt;Node2 -->
<g id="edge1_Node000001_Node000002" class="edge">
<title>Node1&#45;&gt;Node2</title>
<g id="a_edge1_Node000001_Node000002"><a xlink:title=" ">
<path fill="none" stroke="#63b8ff" d="M683,-76.66C665,-84.69 640.36,-95.13 618,-102.62 608.84,-105.7 598.86,-108.55 589.38,-111.04"/>
<polygon fill="#63b8ff" stroke="#63b8ff" points="687.25,-74.75 683.61,-78.85 686.08,-75.27 682.69,-76.8 682.69,-76.8 682.69,-76.8 686.08,-75.27 681.77,-74.74 687.25,-74.75"/>
</a>
</g>
</g>
<!-- Node7 -->
<g id="Node000007" class="node">
<title>Node7</title>
<g id="a_Node000007"><a xlink:href="../../d8/d8e/namespacenpi_1_1win.html#a639bd096bc4de3946461923b002f80e8" target="_top" xlink:title="Show an error message box (OK + error icon).">
<polygon fill="white" stroke="none" points="618,-93.25 476,-93.25 476,-74 618,-74 618,-93.25"/>
<text xml:space="preserve" text-anchor="middle" x="547" y="-78.8" font-family="Consolas" font-size="11.00">npi::win::errorMsgBox</text>
</a>
</g>
</g>
<!-- Node1&#45;&gt;Node7 -->
<g id="edge8_Node000001_Node000007" class="edge">
<title>Node1&#45;&gt;Node7</title>
<g id="a_edge8_Node000001_Node000007"><a xlink:title=" ">
<path fill="none" stroke="#63b8ff" d="M647.97,-71.83C638.11,-72.99 627.84,-74.2 617.8,-75.39"/>
<polygon fill="#63b8ff" stroke="#63b8ff" points="652.83,-71.25 648.13,-74.07 651.56,-71.4 647.87,-71.84 647.87,-71.84 647.87,-71.84 651.56,-71.4 647.6,-69.6 652.83,-71.25"/>
</a>
</g>
</g>
<!-- Node8 -->
<g id="Node000008" class="node">
<title>Node8</title>
<g id="a_Node000008"><a xlink:href="../../d8/d8e/namespacenpi_1_1win.html#aff5e851b451208adfb11d4e5cb503c69" target="_top" xlink:title="Show an informational message box (OK + information icon).">
<polygon fill="white" stroke="none" points="615,-56.25 479,-56.25 479,-37 615,-37 615,-56.25"/>
<text xml:space="preserve" text-anchor="middle" x="547" y="-41.8" font-family="Consolas" font-size="11.00">npi::win::infoMsgBox</text>
</a>
</g>
</g>
<!-- Node1&#45;&gt;Node8 -->
<g id="edge9_Node000001_Node000008" class="edge">
<title>Node1&#45;&gt;Node8</title>
<g id="a_edge9_Node000001_Node000008"><a xlink:title=" ">
<path fill="none" stroke="#63b8ff" d="M648.09,-57.81C637.27,-56.61 625.94,-55.34 614.96,-54.11"/>
<polygon fill="#63b8ff" stroke="#63b8ff" points="652.83,-58.35 647.61,-60.03 651.56,-58.2 647.86,-57.79 647.86,-57.79 647.86,-57.79 651.56,-58.2 648.11,-55.55 652.83,-58.35"/>
</a>
</g>
</g>
<!-- Node9 -->
<g id="Node000009" class="node">
<title>Node9</title>
<g id="a_Node000009"><a xlink:href="../../d8/d8e/namespacenpi_1_1win.html#abfb36eaebc54f2b748681c8d4acf2d57" target="_top" xlink:title="Show a warning message box (OK + warning icon).">
<polygon fill="white" stroke="none" points="615,-19.25 479,-19.25 479,0 615,0 615,-19.25"/>
<text xml:space="preserve" text-anchor="middle" x="547" y="-4.8" font-family="Consolas" font-size="11.00">npi::win::warnMsgBox</text>
</a>
</g>
</g>
<!-- Node1&#45;&gt;Node9 -->
<g id="edge10_Node000001_Node000009" class="edge">
<title>Node1&#45;&gt;Node9</title>
<g id="a_edge10_Node000001_Node000009"><a xlink:title=" ">
<path fill="none" stroke="#63b8ff" d="M682.61,-52.8C664.63,-45.01 640.16,-34.94 618,-27.62 608.71,-24.56 598.58,-21.69 588.98,-19.18"/>
<polygon fill="#63b8ff" stroke="#63b8ff" points="686.86,-54.65 681.37,-54.71 685.68,-54.13 682.27,-52.65 682.27,-52.65 682.27,-52.65 685.68,-54.13 683.17,-50.59 686.86,-54.65"/>
</a>
</g>
</g>
<!-- Node3 -->
<g id="Node000003" class="node">
<title>Node3</title>
<g id="a_Node000003"><a xlink:href="../../dc/dba/namespacenpi_1_1app.html#a40a2a28831f2f410c995f0657baf6544" target="_top" xlink:title="Absolute application&#45;level ProgramData path.">
<polygon fill="white" stroke="none" points="190,-168.25 12,-168.25 12,-149 190,-149 190,-168.25"/>
<text xml:space="preserve" text-anchor="middle" x="101" y="-153.8" font-family="Consolas" font-size="11.00">npi::app::appProgramDataDir</text>
</a>
</g>
</g>
<!-- Node2&#45;&gt;Node3 -->
<g id="edge2_Node000002_Node000003" class="edge">
<title>Node2&#45;&gt;Node3</title>
<g id="a_edge2_Node000002_Node000003"><a xlink:title=" ">
<path fill="none" stroke="#63b8ff" d="M520.18,-132.72C499.13,-141.88 468.34,-153.7 440,-158.62 356.03,-173.22 258.53,-171.25 189.89,-166.82"/>
<polygon fill="#63b8ff" stroke="#63b8ff" points="524.74,-130.71 521.07,-134.78 523.57,-131.22 520.17,-132.73 520.17,-132.73 520.17,-132.73 523.57,-131.22 519.26,-130.67 524.74,-130.71"/>
</a>
</g>
</g>
<!-- Node4 -->
<g id="Node000004" class="node">
<title>Node4</title>
<g id="a_Node000004"><a xlink:href="../../dc/dba/namespacenpi_1_1app.html#aff4c7482e4417f59ede04e359548a542" target="_top" xlink:title="Absolute application&#45;level Public/Documents path.">
<polygon fill="white" stroke="none" points="202,-92.25 0,-92.25 0,-73 202,-73 202,-92.25"/>
<text xml:space="preserve" text-anchor="middle" x="101" y="-77.8" font-family="Consolas" font-size="11.00">npi::app::appPublicDocumentsDir</text>
</a>
</g>
</g>
<!-- Node2&#45;&gt;Node4 -->
<g id="edge3_Node000002_Node000004" class="edge">
<title>Node2&#45;&gt;Node4</title>
<g id="a_edge3_Node000002_Node000004"><a xlink:title=" ">
<path fill="none" stroke="#63b8ff" d="M469.99,-114.12C396.02,-107.79 283.19,-98.13 201.97,-91.18"/>
<polygon fill="#63b8ff" stroke="#63b8ff" points="474.92,-114.54 469.75,-116.36 473.65,-114.43 469.94,-114.12 469.94,-114.12 469.94,-114.12 473.65,-114.43 470.13,-111.87 474.92,-114.54"/>
</a>
</g>
</g>
<!-- Node5 -->
<g id="Node000005" class="node">
<title>Node5</title>
<g id="a_Node000005"><a xlink:href="../../dc/dba/namespacenpi_1_1app.html#a30836be8b9337a64733a6e05594b23c8" target="_top" xlink:title="Absolute organization&#45;level ProgramData path.">
<polygon fill="white" stroke="none" points="428,-149.25 250,-149.25 250,-130 428,-130 428,-149.25"/>
<text xml:space="preserve" text-anchor="middle" x="339" y="-134.8" font-family="Consolas" font-size="11.00">npi::app::orgProgramDataDir</text>
</a>
</g>
</g>
<!-- Node2&#45;&gt;Node5 -->
<g id="edge4_Node000002_Node000005" class="edge">
<title>Node2&#45;&gt;Node5</title>
<g id="a_edge4_Node000002_Node000005"><a xlink:title=" ">
<path fill="none" stroke="#63b8ff" d="M470.39,-127.6C456.58,-128.87 442.06,-130.21 427.93,-131.51"/>
<polygon fill="#63b8ff" stroke="#63b8ff" points="475.04,-127.17 470.27,-129.87 473.77,-127.29 470.07,-127.63 470.07,-127.63 470.07,-127.63 473.77,-127.29 469.86,-125.39 475.04,-127.17"/>
</a>
</g>
</g>
<!-- Node6 -->
<g id="Node000006" class="node">
<title>Node6</title>
<g id="a_Node000006"><a xlink:href="../../dc/dba/namespacenpi_1_1app.html#ac0dca24602a75822c6f7fcf63f8781d9" target="_top" xlink:title="Absolute organization&#45;level Public/Documents path.">
<polygon fill="white" stroke="none" points="440,-73.25 238,-73.25 238,-54 440,-54 440,-73.25"/>
<text xml:space="preserve" text-anchor="middle" x="339" y="-58.8" font-family="Consolas" font-size="11.00">npi::app::orgPublicDocumentsDir</text>
</a>
</g>
</g>
<!-- Node2&#45;&gt;Node6 -->
<g id="edge6_Node000002_Node000006" class="edge">
<title>Node2&#45;&gt;Node6</title>
<g id="a_edge6_Node000002_Node000006"><a xlink:title=" ">
<path fill="none" stroke="#63b8ff" d="M498.8,-109.47C491.12,-107.38 483.3,-105.07 476,-102.62 459.56,-97.12 456.48,-93 440,-87.62 422.86,-82.04 403.67,-77.12 386.73,-73.22"/>
<polygon fill="#63b8ff" stroke="#63b8ff" points="503.45,-110.72 498.04,-111.6 502.21,-110.39 498.62,-109.43 498.62,-109.43 498.62,-109.43 502.21,-110.39 499.2,-107.25 503.45,-110.72"/>
</a>
</g>
</g>
<!-- Node5&#45;&gt;Node3 -->
<g id="edge5_Node000005_Node000003" class="edge">
<title>Node5&#45;&gt;Node3</title>
<g id="a_edge5_Node000005_Node000003"><a xlink:title=" ">
<path fill="none" stroke="#63b8ff" d="M244.1,-147.18C226.24,-148.62 207.61,-150.12 189.95,-151.54"/>
<polygon fill="#63b8ff" stroke="#63b8ff" points="248.91,-146.8 244.1,-149.44 247.63,-146.9 243.92,-147.2 243.92,-147.2 243.92,-147.2 247.63,-146.9 243.74,-144.96 248.91,-146.8"/>
</a>
</g>
</g>
<!-- Node6&#45;&gt;Node4 -->
<g id="edge7_Node000006_Node000004" class="edge">
<title>Node6&#45;&gt;Node4</title>
<g id="a_edge7_Node000006_Node000004"><a xlink:title=" ">
<path fill="none" stroke="#63b8ff" d="M232.29,-72.14C222.14,-72.95 211.86,-73.78 201.76,-74.59"/>
<polygon fill="#63b8ff" stroke="#63b8ff" points="237.04,-71.75 232.24,-74.4 235.76,-71.86 232.06,-72.15 232.06,-72.15 232.06,-72.15 235.76,-71.86 231.88,-69.91 237.04,-71.75"/>
</a>
</g>
</g>
</g>
</svg>

<g id="navigator" transform="translate(0 0)" fill="#404254">
  <rect fill="#f2f5e9" fill-opacity="0.5" stroke="#606060" stroke-width=".5" x="0" y="0" width="60" height="60"/>
  <use id="zoomplus" xlink:href="#zoomPlus" x="17" y="9" onmousedown="handleZoom(evt,'in')"/>
  <use id="zoomminus" xlink:href="#zoomMin" x="42" y="9" onmousedown="handleZoom(evt,'out')"/>
  <use id="reset" xlink:href="#resetDef" x="30" y="36" onmousedown="handleReset()"/>
   <use id="arrowup" xlink:href="#arrowUp" x="0" y="0" onmousedown="handlePan(0,-1)"/>
  <use id="arrowright" xlink:href="#arrowRight" x="0" y="0" onmousedown="handlePan(1,0)"/>
  <use id="arrowdown" xlink:href="#arrowDown" x="0" y="0" onmousedown="handlePan(0,1)"/>
  <use id="arrowleft" xlink:href="#arrowLeft" x="0" y="0" onmousedown="handlePan(-1,0)"/>
</g>
<svg viewBox="0 0 15 15" width="100%" height="30px" preserveAspectRatio="xMaxYMin meet">
 <g id="arrow_out" transform="scale(0.3 0.3)">
  <a xlink:href="namespacenpi_1_1win_aa203e14a9085aa2fa437ea050b780b15_icgraph_org.svg" target="_base">
   <rect id="button" ry="5" rx="5" y="6" x="6" height="38" width="38"
        fill="#f2f5e9" fill-opacity="0.5" stroke="#606060" stroke-width="1.0"/>
   <path id="arrow"
     d="M 11.500037,31.436501 C 11.940474,20.09759 22.043105,11.32322 32.158766,21.979434 L 37.068811,17.246167 C 37.068811,17.246167 37.088388,32 37.088388,32 L 22.160133,31.978069 C 22.160133,31.978069 26.997745,27.140456 26.997745,27.140456 C 18.528582,18.264221 13.291696,25.230495 11.500037,31.436501 z"
     style="fill:#404040;"/>
  </a>
 </g>
</svg>

<style type='text/css'>
<![CDATA[
[data-mouse-over-selected='false'] { opacity: 0.7; }
[data-mouse-over-selected='true']  { opacity: 1.0; }
]]>
</style>
<script type="application/ecmascript"><![CDATA[
document.addEventListener('DOMContentLoaded', (event) => {
  highlightEdges();
  highlightAdjacentNodes();
});
]]></script>
</svg>
