<?xml version="1.0" encoding="UTF-8" standalone="no"?>
<!DOCTYPE svg PUBLIC "-//W3C//DTD SVG 1.1//EN"
 "http://www.w3.org/Graphics/SVG/1.1/DTD/svg11.dtd">
<!-- Generated by graphviz version 14.1.5 (20260411.2331)
 -->
<!-- Title: npi::gui::palette Pages: 1 -->
<svg width="566pt" height="201pt"
 viewBox="0.00 0.00 566.00 201.00" xmlns="http://www.w3.org/2000/svg" xmlns:xlink="http://www.w3.org/1999/xlink">
<g id="graph0" class="graph" transform="scale(1 1) rotate(0) translate(4 196.5)">
<title>npi::gui::palette</title>
<!-- Node1 -->
<g id="Node000001" class="node">
<title>Node1</title>
<g id="a_Node000001"><a xlink:title="Returns the GUI palette for the effective application background.">
<polygon fill="#999999" stroke="none" points="118,-96.88 0,-96.88 0,-77.62 118,-77.62 118,-96.88"/>
<text xml:space="preserve" text-anchor="start" x="8" y="-83.42" font-family="Consolas" font-weight="bold" font-size="11.00">npi::gui::palette</text>
</a>
</g>
</g>
<!-- Node2 -->
<g id="Node000002" class="node">
<title>Node2</title>
<g id="a_Node000002"><a xlink:href="../../db/d17/namespaceanonymous__namespace_02_gui_8cpp_03.html#ac38bf26de3b0963dbcc0f8ecfd14dc3d" target="_top" xlink:title="Returns the shared style, creating it when application lifetime permits.">
<polygon fill="white" stroke="none" points="320,-174.5 184,-174.5 184,-144 320,-144 320,-174.5"/>
<text xml:space="preserve" text-anchor="start" x="192" y="-160.05" font-family="Consolas" font-size="11.00">anonymous_namespace</text>
<text xml:space="preserve" text-anchor="middle" x="252" y="-148.8" font-family="Consolas" font-size="11.00">{Gui::cpp}::guiStyle</text>
</a>
</g>
</g>
<!-- Node1&#45;&gt;Node2 -->
<g id="edge1_Node000001_Node000002" class="edge">
<title>Node1&#45;&gt;Node2</title>
<g id="a_edge1_Node000001_Node000002"><a xlink:title=" ">
<path fill="none" stroke="#63b8ff" d="M75.79,-96.74C94.06,-107.38 125.33,-124.55 154,-135.25 161.79,-138.16 170.07,-140.82 178.37,-143.22"/>
<polygon fill="#63b8ff" stroke="#63b8ff" points="182.94,-144.52 177.52,-145.32 181.71,-144.17 178.13,-143.16 178.13,-143.16 178.13,-143.16 181.71,-144.17 178.74,-140.99 182.94,-144.52"/>
</a>
</g>
</g>
<!-- Node4 -->
<g id="Node000004" class="node">
<title>Node4</title>
<g id="a_Node000004"><a xlink:href="../../d3/d01/namespaceanonymous__namespace_02_gui_8cpp_03_1_1util.html#a21a700efc0bcd2eeb14cb41c77fa3237" target="_top" xlink:title="Returns whether Windows uses a dark application theme.">
<polygon fill="white" stroke="none" points="350,-108.12 154,-108.12 154,-66.38 350,-66.38 350,-108.12"/>
<text xml:space="preserve" text-anchor="start" x="162" y="-93.67" font-family="Consolas" font-size="11.00">anonymous_namespace</text>
<text xml:space="preserve" text-anchor="start" x="162" y="-82.42" font-family="Consolas" font-size="11.00">{Gui::cpp}::util::isDarkSystem</text>
<text xml:space="preserve" text-anchor="middle" x="252" y="-71.17" font-family="Consolas" font-size="11.00">Background</text>
</a>
</g>
</g>
<!-- Node1&#45;&gt;Node4 -->
<g id="edge4_Node000001_Node000004" class="edge">
<title>Node1&#45;&gt;Node4</title>
<g id="a_edge4_Node000001_Node000004"><a xlink:title=" ">
<path fill="none" stroke="#63b8ff" d="M117.82,-87.25C127.46,-87.25 137.71,-87.25 148.07,-87.25"/>
<polygon fill="#63b8ff" stroke="#63b8ff" points="152.97,-87.25 147.97,-89.5 151.69,-87.25 147.97,-87.25 147.97,-87.25 147.97,-87.25 151.69,-87.25 147.97,-85 152.97,-87.25"/>
</a>
</g>
</g>
<!-- Node5 -->
<g id="Node000005" class="node">
<title>Node5</title>
<g id="a_Node000005"><a xlink:href="../../d3/d7e/namespaceanonymous__namespace_02_gui_8cpp_03_1_1make.html#a250906c4c6bd7ae06482b3e9c60e4882" target="_top" xlink:title="Creates the colors, palette and pens for a dark or light theme.">
<polygon fill="white" stroke="none" points="329,-30.5 175,-30.5 175,0 329,0 329,-30.5"/>
<text xml:space="preserve" text-anchor="start" x="183" y="-16.05" font-family="Consolas" font-size="11.00">anonymous_namespace</text>
<text xml:space="preserve" text-anchor="middle" x="252" y="-4.8" font-family="Consolas" font-size="11.00">{Gui::cpp}::make::theme</text>
</a>
</g>
</g>
<!-- Node1&#45;&gt;Node5 -->
<g id="edge6_Node000001_Node000005" class="edge">
<title>Node1&#45;&gt;Node5</title>
<g id="a_edge6_Node000001_Node000005"><a xlink:title=" ">
<path fill="none" stroke="#63b8ff" d="M85.36,-77.69C115.93,-66.17 167.85,-46.59 205.43,-32.43"/>
<polygon fill="#63b8ff" stroke="#63b8ff" points="209.72,-30.81 205.84,-34.68 208.52,-31.26 205.04,-32.57 205.04,-32.57 205.04,-32.57 208.52,-31.26 204.25,-30.47 209.72,-30.81"/>
</a>
</g>
</g>
<!-- Node3 -->
<g id="Node000003" class="node">
<title>Node3</title>
<g id="a_Node000003"><a xlink:href="../../d3/d01/namespaceanonymous__namespace_02_gui_8cpp_03_1_1util.html#ab683b79bf2e2ea36a70f70f415c2ec35" target="_top" xlink:title="Loads the bundled JetBrains Mono fonts once.">
<polygon fill="white" stroke="none" points="558,-174.5 386,-174.5 386,-144 558,-144 558,-174.5"/>
<text xml:space="preserve" text-anchor="start" x="394" y="-160.05" font-family="Consolas" font-size="11.00">anonymous_namespace</text>
<text xml:space="preserve" text-anchor="middle" x="472" y="-148.8" font-family="Consolas" font-size="11.00">{Gui::cpp}::util::initFont</text>
</a>
</g>
</g>
<!-- Node2&#45;&gt;Node3 -->
<g id="edge2_Node000002_Node000003" class="edge">
<title>Node2&#45;&gt;Node3</title>
<g id="a_edge2_Node000002_Node000003"><a xlink:title=" ">
<path fill="none" stroke="#63b8ff" d="M319.89,-159.25C338.83,-159.25 359.78,-159.25 379.89,-159.25"/>
<polygon fill="#63b8ff" stroke="#63b8ff" points="384.88,-159.25 379.88,-161.5 383.6,-159.25 379.88,-159.25 379.88,-159.25 379.88,-159.25 383.6,-159.25 379.88,-157 384.88,-159.25"/>
</a>
</g>
</g>
<!-- Node3&#45;&gt;Node3 -->
<g id="edge3_Node000003_Node000003" class="edge">
<title>Node3&#45;&gt;Node3</title>
<g id="a_edge3_Node000003_Node000003"><a xlink:title=" ">
<path fill="none" stroke="#63b8ff" d="M433.66,-174.3C424.42,-183.62 437.2,-192.5 472,-192.5 500.28,-192.5 514.02,-186.64 513.22,-179.44"/>
<polygon fill="#63b8ff" stroke="#63b8ff" points="510.93,-175.36 515.34,-178.62 511.56,-176.48 513.38,-179.72 513.38,-179.72 513.38,-179.72 511.56,-176.48 511.41,-180.82 510.93,-175.36"/>
</a>
</g>
</g>
<!-- Node4&#45;&gt;Node4 -->
<g id="edge5_Node000004_Node000004" class="edge">
<title>Node4&#45;&gt;Node4</title>
<g id="a_edge5_Node000004_Node000004"><a xlink:title=" ">
<path fill="none" stroke="#63b8ff" d="M216.53,-108.05C212.66,-117.7 224.48,-126.12 252,-126.12 273.5,-126.12 285.42,-120.98 287.76,-114.13"/>
<polygon fill="#63b8ff" stroke="#63b8ff" points="287.53,-109.26 290.01,-114.15 287.59,-110.54 287.76,-114.26 287.76,-114.26 287.76,-114.26 287.59,-110.54 285.52,-114.37 287.53,-109.26"/>
</a>
</g>
</g>
<!-- Node5&#45;&gt;Node5 -->
<g id="edge7_Node000005_Node000005" class="edge">
<title>Node5&#45;&gt;Node5</title>
<g id="a_edge7_Node000005_Node000005"><a xlink:title=" ">
<path fill="none" stroke="#63b8ff" d="M218.37,-30.3C210.26,-39.62 221.47,-48.5 252,-48.5 276.33,-48.5 288.39,-42.86 288.18,-35.85"/>
<polygon fill="#63b8ff" stroke="#63b8ff" points="286.14,-31.4 290.27,-35.01 286.68,-32.57 288.23,-35.95 288.23,-35.95 288.23,-35.95 286.68,-32.57 286.18,-36.89 286.14,-31.4"/>
</a>
</g>
</g>
</g>
</svg>
