<?xml version="1.0" encoding="UTF-8" standalone="no"?>
<!DOCTYPE svg PUBLIC "-//W3C//DTD SVG 1.1//EN"
 "http://www.w3.org/Graphics/SVG/1.1/DTD/svg11.dtd">
<!-- Generated by graphviz version 14.1.5 (20260411.2331)
 -->
<!-- Title: anonymous_namespace{Log::cpp}::LeakedState::LeakedState Pages: 1 -->
<!--zoomable 520 -->

<svg id="main" version="1.1" xmlns="http://www.w3.org/2000/svg" xmlns:xlink="http://www.w3.org/1999/xlink" xml:space="preserve" onload="init(evt)">

<style type="text/css"><![CDATA[
.node, .edge {opacity: 0.7;}
.node.selected, .edge.selected {opacity: 1;}
.edge:hover path { stroke: red; }
.edge:hover polygon { stroke: red; fill: red; }
]]></style>

<defs>
  <circle id="rim" cx="0" cy="0" r="7"/>
  <circle id="rim2" cx="0" cy="0" r="3.5"/>
  <g id="zoomPlus">
    <use xlink:href="#rim" fill="#404040"><set attributeName="fill" to="#808080" begin="zoomplus.mouseover" end="zoomplus.mouseout"/></use>
    <path d="M-4,0h8M0,-4v8" fill="none" stroke="white" stroke-width="1.5" pointer-events="none"/>
  </g>
  <g id="zoomMin">
    <use xlink:href="#rim" fill="#404040"><set attributeName="fill" to="#808080" begin="zoomminus.mouseover" end="zoomminus.mouseout"/></use>
    <path d="M-4,0h8" fill="none" stroke="white" stroke-width="1.5" pointer-events="none"/>
  </g>
  <g id="arrowUp" transform="translate(30 24)">
    <use xlink:href="#rim"/>
    <path pointer-events="none" fill="none" stroke="white" stroke-width="1.5" d="M0,-3.0v7 M-2.5,-0.5L0,-3.0L2.5,-0.5"/>
  </g>
  <g id="arrowRight" transform="rotate(90) translate(36 -43)">
    <use xlink:href="#rim"/>
    <path pointer-events="none" fill="none" stroke="white" stroke-width="1.5" d="M0,-3.0v7 M-2.5,-0.5L0,-3.0L2.5,-0.5"/>
  </g>
  <g id="arrowDown" transform="rotate(180) translate(-30 -48)">
    <use xlink:href="#rim"/>
    <path pointer-events="none" fill="none" stroke="white" stroke-width="1.5" d="M0,-3.0v7 M-2.5,-0.5L0,-3.0L2.5,-0.5"/>
  </g>
  <g id="arrowLeft" transform="rotate(270) translate(-36 17)">
    <use xlink:href="#rim"/>
    <path pointer-events="none" fill="none" stroke="white" stroke-width="1.5" d="M0,-3.0v7 M-2.5,-0.5L0,-3.0L2.5,-0.5"/>
  </g>
  <g id="resetDef">
    <use xlink:href="#rim2" fill="#404040"><set attributeName="fill" to="#808080" begin="reset.mouseover" end="reset.mouseout"/></use>
  </g>
</defs>
<script type="application/ecmascript">
var viewWidth = 580;
var viewHeight = 520;
var sectionId = 'dynsection-12';
</script>
<script type="application/ecmascript" xlink:href="../../svg.min.js"/>
<svg id="graph" class="graph">
<g id="viewport">
<title>anonymous_namespace{Log::cpp}::LeakedState::LeakedState</title>
<!-- Node1 -->
<g id="Node000001" class="node">
<title>Node1</title>
<g id="a_Node000001"><a xlink:title="Private constructor so that only one instance of this class can be created using the static Inst_() f...">
<polygon fill="#999999" stroke="none" points="572,-270.88 226,-270.88 226,-251.62 572,-251.62 572,-270.88"/>
<text xml:space="preserve" text-anchor="start" x="234" y="-257.43" font-family="Consolas" font-weight="bold" font-size="11.00">anonymous_namespace{Log::cpp}::LeakedState::LeakedState</text>
</a>
</g>
</g>
<!-- Node2 -->
<g id="Node000002" class="node">
<title>Node2</title>
<g id="a_Node000002"><a xlink:href="../../d5/ddd/namespacenpi_1_1log.html#ac0dd546fc6a4f2a6452da15ee952369d" target="_top" xlink:title="Adds the custom Qt logging category filter rule.">
<polygon fill="white" stroke="none" points="172,-511.88 18,-511.88 18,-492.62 172,-492.62 172,-511.88"/>
<text xml:space="preserve" text-anchor="middle" x="95" y="-497.43" font-family="Consolas" font-size="11.00">npi::log::addFilterRule</text>
</a>
</g>
</g>
<!-- Node1&#45;&gt;Node2 -->
<g id="edge1_Node000001_Node000002" class="edge">
<title>Node1&#45;&gt;Node2</title>
<g id="a_edge1_Node000001_Node000002"><a xlink:title=" ">
<path fill="none" stroke="#63b8ff" d="M389.2,-275.84C363.93,-316.37 286.68,-430.84 190,-484.25 183.75,-487.7 176.94,-490.51 169.95,-492.78"/>
<polygon fill="#63b8ff" stroke="#63b8ff" points="391.65,-271.88 390.94,-277.32 390.98,-272.97 389.02,-276.13 389.02,-276.13 389.02,-276.13 390.98,-272.97 387.11,-274.95 391.65,-271.88"/>
</a>
</g>
</g>
<!-- Node3 -->
<g id="Node000003" class="node">
<title>Node3</title>
<g id="a_Node000003"><a xlink:href="../../d5/ddd/namespacenpi_1_1log.html#ab26e1ac5aef4345c9676101f3cd9877f" target="_top" xlink:title="Restores the default log directory.">
<polygon fill="white" stroke="none" points="175,-474.88 15,-474.88 15,-455.62 175,-455.62 175,-474.88"/>
<text xml:space="preserve" text-anchor="middle" x="95" y="-460.43" font-family="Consolas" font-size="11.00">npi::log::resetDirectory</text>
</a>
</g>
</g>
<!-- Node1&#45;&gt;Node3 -->
<g id="edge2_Node000001_Node000003" class="edge">
<title>Node1&#45;&gt;Node3</title>
<g id="a_edge2_Node000001_Node000003"><a xlink:title=" ">
<path fill="none" stroke="#63b8ff" d="M387.09,-275.25C358.79,-310.5 278.98,-403.23 190,-447.25 183.15,-450.64 175.73,-453.39 168.16,-455.63"/>
<polygon fill="#63b8ff" stroke="#63b8ff" points="390.13,-271.43 388.78,-276.75 389.33,-272.44 387.01,-275.35 387.01,-275.35 387.01,-275.35 389.33,-272.44 385.25,-273.95 390.13,-271.43"/>
</a>
</g>
</g>
<!-- Node4 -->
<g id="Node000004" class="node">
<title>Node4</title>
<g id="a_Node000004"><a xlink:href="../../d5/ddd/namespacenpi_1_1log.html#ae641f0801f76d9024013c1d201b7d4fa" target="_top" xlink:title="Restores the default displayed log fields.">
<polygon fill="white" stroke="none" points="187,-437.88 3,-437.88 3,-418.62 187,-418.62 187,-437.88"/>
<text xml:space="preserve" text-anchor="middle" x="95" y="-423.43" font-family="Consolas" font-size="11.00">npi::log::resetDisplayFields</text>
</a>
</g>
</g>
<!-- Node1&#45;&gt;Node4 -->
<g id="edge3_Node000001_Node000004" class="edge">
<title>Node1&#45;&gt;Node4</title>
<g id="a_edge3_Node000001_Node000004"><a xlink:title=" ">
<path fill="none" stroke="#63b8ff" d="M383.84,-274.84C352.02,-304.55 271.31,-375.35 190,-410.25 182.06,-413.66 173.47,-416.42 164.81,-418.67"/>
<polygon fill="#63b8ff" stroke="#63b8ff" points="387.28,-271.6 385.18,-276.67 386.35,-272.48 383.64,-275.03 383.64,-275.03 383.64,-275.03 386.35,-272.48 382.1,-273.39 387.28,-271.6"/>
</a>
</g>
</g>
<!-- Node5 -->
<g id="Node000005" class="node">
<title>Node5</title>
<g id="a_Node000005"><a xlink:href="../../d5/ddd/namespacenpi_1_1log.html#a015e6cf2735c059ebad3d94c4f69d884" target="_top" xlink:title="Restores the default normal log file fields.">
<polygon fill="white" stroke="none" points="178,-400.88 12,-400.88 12,-381.62 178,-381.62 178,-400.88"/>
<text xml:space="preserve" text-anchor="middle" x="95" y="-386.43" font-family="Consolas" font-size="11.00">npi::log::resetFileFields</text>
</a>
</g>
</g>
<!-- Node1&#45;&gt;Node5 -->
<g id="edge4_Node000001_Node000005" class="edge">
<title>Node1&#45;&gt;Node5</title>
<g id="a_edge4_Node000001_Node000005"><a xlink:title=" ">
<path fill="none" stroke="#63b8ff" d="M379.18,-273.96C343.75,-297.28 264.03,-346.93 190,-373.25 180.61,-376.59 170.45,-379.35 160.41,-381.63"/>
<polygon fill="#63b8ff" stroke="#63b8ff" points="383.06,-271.39 380.14,-276.02 381.99,-272.09 378.89,-274.15 378.89,-274.15 378.89,-274.15 381.99,-272.09 377.65,-272.27 383.06,-271.39"/>
</a>
</g>
</g>
<!-- Node6 -->
<g id="Node000006" class="node">
<title>Node6</title>
<g id="a_Node000006"><a xlink:href="../../d5/ddd/namespacenpi_1_1log.html#a4a5b29dcb269f47a4ef69ee7fe39bfb6" target="_top" xlink:title="Removes all custom category filter rules.">
<polygon fill="white" stroke="none" points="181,-363.88 9,-363.88 9,-344.62 181,-344.62 181,-363.88"/>
<text xml:space="preserve" text-anchor="middle" x="95" y="-349.43" font-family="Consolas" font-size="11.00">npi::log::resetFilterRules</text>
</a>
</g>
</g>
<!-- Node1&#45;&gt;Node6 -->
<g id="edge5_Node000001_Node000006" class="edge">
<title>Node1&#45;&gt;Node6</title>
<g id="a_edge5_Node000001_Node000006"><a xlink:title=" ">
<path fill="none" stroke="#63b8ff" d="M369.71,-273.06C330.11,-289.22 255.63,-318.25 190,-336.25 178.3,-339.46 165.63,-342.3 153.5,-344.72"/>
<polygon fill="#63b8ff" stroke="#63b8ff" points="374.17,-271.23 370.39,-275.21 372.98,-271.72 369.54,-273.13 369.54,-273.13 369.54,-273.13 372.98,-271.72 368.69,-271.05 374.17,-271.23"/>
</a>
</g>
</g>
<!-- Node7 -->
<g id="Node000007" class="node">
<title>Node7</title>
<g id="a_Node000007"><a xlink:href="../../d5/ddd/namespacenpi_1_1log.html#af093553629bec17031b18b4835c2fbb2" target="_top" xlink:title="Enables or disables console colors based on log level.">
<polygon fill="white" stroke="none" points="184,-326.88 6,-326.88 6,-307.62 184,-307.62 184,-326.88"/>
<text xml:space="preserve" text-anchor="middle" x="95" y="-312.43" font-family="Consolas" font-size="11.00">npi::log::setColoredConsole</text>
</a>
</g>
</g>
<!-- Node1&#45;&gt;Node7 -->
<g id="edge6_Node000001_Node000007" class="edge">
<title>Node1&#45;&gt;Node7</title>
<g id="a_edge6_Node000001_Node000007"><a xlink:title=" ">
<path fill="none" stroke="#63b8ff" d="M340.47,-271.92C284.88,-282.23 201.45,-297.7 147.87,-307.63"/>
<polygon fill="#63b8ff" stroke="#63b8ff" points="345.23,-271.04 340.72,-274.16 343.97,-271.27 340.31,-271.95 340.31,-271.95 340.31,-271.95 343.97,-271.27 339.9,-269.73 345.23,-271.04"/>
</a>
</g>
</g>
<!-- Node8 -->
<g id="Node000008" class="node">
<title>Node8</title>
<g id="a_Node000008"><a xlink:href="../../d5/ddd/namespacenpi_1_1log.html#ac894ac9b7f01f578c3b8696c765fb3aa" target="_top" xlink:title="Changes the directory used for log files.">
<polygon fill="white" stroke="none" points="169,-289.88 21,-289.88 21,-270.62 169,-270.62 169,-289.88"/>
<text xml:space="preserve" text-anchor="middle" x="95" y="-275.43" font-family="Consolas" font-size="11.00">npi::log::setDirectory</text>
</a>
</g>
</g>
<!-- Node1&#45;&gt;Node8 -->
<g id="edge7_Node000001_Node000008" class="edge">
<title>Node1&#45;&gt;Node8</title>
<g id="a_edge7_Node000001_Node000008"><a xlink:title=" ">
<path fill="none" stroke="#63b8ff" d="M239.3,-271.23C214.68,-272.78 190.33,-274.32 168.88,-275.66"/>
<polygon fill="#63b8ff" stroke="#63b8ff" points="244.01,-270.94 239.17,-273.5 242.74,-271.02 239.02,-271.25 239.02,-271.25 239.02,-271.25 242.74,-271.02 238.88,-269.01 244.01,-270.94"/>
</a>
</g>
</g>
<!-- Node9 -->
<g id="Node000009" class="node">
<title>Node9</title>
<g id="a_Node000009"><a xlink:href="../../d5/ddd/namespacenpi_1_1log.html#a1c8be170c09e71630d3e61964c5681dc" target="_top" xlink:title="Changes the fields included in displayed logs.">
<polygon fill="white" stroke="none" points="181,-252.88 9,-252.88 9,-233.62 181,-233.62 181,-252.88"/>
<text xml:space="preserve" text-anchor="middle" x="95" y="-238.43" font-family="Consolas" font-size="11.00">npi::log::setDisplayFields</text>
</a>
</g>
</g>
<!-- Node1&#45;&gt;Node9 -->
<g id="edge8_Node000001_Node000009" class="edge">
<title>Node1&#45;&gt;Node9</title>
<g id="a_edge8_Node000001_Node000009"><a xlink:title=" ">
<path fill="none" stroke="#63b8ff" d="M230.97,-251.29C213.73,-250.27 196.76,-249.26 180.99,-248.32"/>
<polygon fill="#63b8ff" stroke="#63b8ff" points="235.62,-251.57 230.49,-253.52 234.34,-251.5 230.62,-251.27 230.62,-251.27 230.62,-251.27 234.34,-251.5 230.76,-249.03 235.62,-251.57"/>
</a>
</g>
</g>
<!-- Node10 -->
<g id="Node000010" class="node">
<title>Node10</title>
<g id="a_Node000010"><a xlink:href="../../d5/ddd/namespacenpi_1_1log.html#a314e1bbd60d0d23d037fdb863ad706fd" target="_top" xlink:title="Changes the fields included in normal log files.">
<polygon fill="white" stroke="none" points="172,-215.88 18,-215.88 18,-196.62 172,-196.62 172,-215.88"/>
<text xml:space="preserve" text-anchor="middle" x="95" y="-201.43" font-family="Consolas" font-size="11.00">npi::log::setFileFields</text>
</a>
</g>
</g>
<!-- Node1&#45;&gt;Node10 -->
<g id="edge9_Node000001_Node000010" class="edge">
<title>Node1&#45;&gt;Node10</title>
<g id="a_edge9_Node000001_Node000010"><a xlink:title=" ">
<path fill="none" stroke="#63b8ff" d="M339.46,-250.59C284.19,-240.52 202.05,-225.56 148.76,-215.86"/>
<polygon fill="#63b8ff" stroke="#63b8ff" points="344.2,-251.45 338.87,-252.77 342.94,-251.22 339.28,-250.56 339.28,-250.56 339.28,-250.56 342.94,-251.22 339.68,-248.34 344.2,-251.45"/>
</a>
</g>
</g>
<!-- Node11 -->
<g id="Node000011" class="node">
<title>Node11</title>
<g id="a_Node000011"><a xlink:href="../../d5/ddd/namespacenpi_1_1log.html#a204797419f5e1681a159d1eef6f401bc" target="_top" xlink:title="Changes the custom Qt logging category filter rules.">
<polygon fill="white" stroke="none" points="175,-178.88 15,-178.88 15,-159.62 175,-159.62 175,-178.88"/>
<text xml:space="preserve" text-anchor="middle" x="95" y="-164.43" font-family="Consolas" font-size="11.00">npi::log::setFilterRules</text>
</a>
</g>
</g>
<!-- Node1&#45;&gt;Node11 -->
<g id="edge10_Node000001_Node000011" class="edge">
<title>Node1&#45;&gt;Node11</title>
<g id="a_edge10_Node000001_Node000011"><a xlink:title=" ">
<path fill="none" stroke="#63b8ff" d="M369.37,-249.49C329.67,-233.55 255.39,-205.03 190,-187.25 178.3,-184.07 165.62,-181.24 153.49,-178.81"/>
<polygon fill="#63b8ff" stroke="#63b8ff" points="373.84,-251.29 368.37,-251.51 372.66,-250.81 369.21,-249.42 369.21,-249.42 369.21,-249.42 372.66,-250.81 370.05,-247.34 373.84,-251.29"/>
</a>
</g>
</g>
<!-- Node12 -->
<g id="Node000012" class="node">
<title>Node12</title>
<g id="a_Node000012"><a xlink:href="../../d5/ddd/namespacenpi_1_1log.html#a7cef00f1da1eed6bc0afca56fe9cfb0e" target="_top" xlink:title="Enables or disables debug log display.">
<polygon fill="white" stroke="none" points="178,-141.88 12,-141.88 12,-122.62 178,-122.62 178,-141.88"/>
<text xml:space="preserve" text-anchor="middle" x="95" y="-127.42" font-family="Consolas" font-size="11.00">npi::log::setShowDebugLog</text>
</a>
</g>
</g>
<!-- Node1&#45;&gt;Node12 -->
<g id="edge11_Node000001_Node000012" class="edge">
<title>Node1&#45;&gt;Node12</title>
<g id="a_edge11_Node000001_Node000012"><a xlink:title=" ">
<path fill="none" stroke="#63b8ff" d="M379.16,-248.66C343.7,-225.56 263.93,-176.38 190,-150.25 180.52,-146.9 170.27,-144.13 160.15,-141.85"/>
<polygon fill="#63b8ff" stroke="#63b8ff" points="383.05,-251.21 377.63,-250.35 381.97,-250.51 378.86,-248.47 378.86,-248.47 378.86,-248.47 381.97,-250.51 380.1,-246.59 383.05,-251.21"/>
</a>
</g>
</g>
<!-- Node13 -->
<g id="Node000013" class="node">
<title>Node13</title>
<g id="a_Node000013"><a xlink:href="../../d5/ddd/namespacenpi_1_1log.html#a462603ec8bccd8b4cb3abc387fd6cc33" target="_top" xlink:title="Enables or disables information log display.">
<polygon fill="white" stroke="none" points="175,-104.88 15,-104.88 15,-85.62 175,-85.62 175,-104.88"/>
<text xml:space="preserve" text-anchor="middle" x="95" y="-90.42" font-family="Consolas" font-size="11.00">npi::log::setShowInfoLog</text>
</a>
</g>
</g>
<!-- Node1&#45;&gt;Node13 -->
<g id="edge12_Node000001_Node000013" class="edge">
<title>Node1&#45;&gt;Node13</title>
<g id="a_edge12_Node000001_Node000013"><a xlink:title=" ">
<path fill="none" stroke="#63b8ff" d="M383.82,-247.75C351.97,-218.26 271.18,-147.94 190,-113.25 182.05,-109.85 173.46,-107.1 164.8,-104.86"/>
<polygon fill="#63b8ff" stroke="#63b8ff" points="387.26,-250.97 382.07,-249.2 386.33,-250.09 383.61,-247.55 383.61,-247.55 383.61,-247.55 386.33,-250.09 385.14,-245.91 387.26,-250.97"/>
</a>
</g>
</g>
<!-- Node14 -->
<g id="Node000014" class="node">
<title>Node14</title>
<g id="a_Node000014"><a xlink:href="../../d5/ddd/namespacenpi_1_1log.html#aa8f2d23ad1c757d005b28864d17b6ba7" target="_top" xlink:title="Enables or disables warning log display.">
<polygon fill="white" stroke="none" points="175,-67.88 15,-67.88 15,-48.62 175,-48.62 175,-67.88"/>
<text xml:space="preserve" text-anchor="middle" x="95" y="-53.42" font-family="Consolas" font-size="11.00">npi::log::setShowWarnLog</text>
</a>
</g>
</g>
<!-- Node1&#45;&gt;Node14 -->
<g id="edge13_Node000001_Node000014" class="edge">
<title>Node1&#45;&gt;Node14</title>
<g id="a_edge13_Node000001_Node000014"><a xlink:title=" ">
<path fill="none" stroke="#63b8ff" d="M386.67,-246.83C357.98,-211.41 278.41,-119.84 190,-76.25 183,-72.8 175.39,-70 167.65,-67.75"/>
<polygon fill="#63b8ff" stroke="#63b8ff" points="389.77,-250.69 384.88,-248.2 388.97,-249.69 386.64,-246.79 386.64,-246.79 386.64,-246.79 388.97,-249.69 388.39,-245.38 389.77,-250.69"/>
</a>
</g>
</g>
<!-- Node15 -->
<g id="Node000015" class="node">
<title>Node15</title>
<g id="a_Node000015"><a xlink:href="../../d5/ddd/namespacenpi_1_1log.html#a780d5155d9059b348224270ef35f1af1" target="_top" xlink:title="Enables or disables important&#45;log forwarding for warning logs.">
<polygon fill="white" stroke="none" points="190,-30.5 0,-30.5 0,0 190,0 190,-30.5"/>
<text xml:space="preserve" text-anchor="start" x="8" y="-16.05" font-family="Consolas" font-size="11.00">npi::log::setWarnLogImportant</text>
<text xml:space="preserve" text-anchor="middle" x="95" y="-4.8" font-family="Consolas" font-size="11.00">State</text>
</a>
</g>
</g>
<!-- Node1&#45;&gt;Node15 -->
<g id="edge14_Node000001_Node000015" class="edge">
<title>Node1&#45;&gt;Node15</title>
<g id="a_edge14_Node000001_Node000015"><a xlink:title=" ">
<path fill="none" stroke="#63b8ff" d="M389.01,-247.02C363.25,-207.45 284.85,-95.33 190,-39.25 184.2,-35.82 177.92,-32.88 171.45,-30.35"/>
<polygon fill="#63b8ff" stroke="#63b8ff" points="391.5,-250.88 386.9,-247.9 390.81,-249.8 388.79,-246.68 388.79,-246.68 388.79,-246.68 390.81,-249.8 390.68,-245.46 391.5,-250.88"/>
</a>
</g>
</g>
</g>
</svg>

<g id="navigator" transform="translate(0 0)" fill="#404254">
  <rect fill="#f2f5e9" fill-opacity="0.5" stroke="#606060" stroke-width=".5" x="0" y="0" width="60" height="60"/>
  <use id="zoomplus" xlink:href="#zoomPlus" x="17" y="9" onmousedown="handleZoom(evt,'in')"/>
  <use id="zoomminus" xlink:href="#zoomMin" x="42" y="9" onmousedown="handleZoom(evt,'out')"/>
  <use id="reset" xlink:href="#resetDef" x="30" y="36" onmousedown="handleReset()"/>
   <use id="arrowup" xlink:href="#arrowUp" x="0" y="0" onmousedown="handlePan(0,-1)"/>
  <use id="arrowright" xlink:href="#arrowRight" x="0" y="0" onmousedown="handlePan(1,0)"/>
  <use id="arrowdown" xlink:href="#arrowDown" x="0" y="0" onmousedown="handlePan(0,1)"/>
  <use id="arrowleft" xlink:href="#arrowLeft" x="0" y="0" onmousedown="handlePan(-1,0)"/>
</g>
<svg viewBox="0 0 15 15" width="100%" height="30px" preserveAspectRatio="xMaxYMin meet">
 <g id="arrow_out" transform="scale(0.3 0.3)">
  <a xlink:href="structanonymous__namespace_02_log_8cpp_03_1_1_leaked_state_a7a843782348b647c13a98ef04223d7b2_icgraph_org.svg" target="_base">
   <rect id="button" ry="5" rx="5" y="6" x="6" height="38" width="38"
        fill="#f2f5e9" fill-opacity="0.5" stroke="#606060" stroke-width="1.0"/>
   <path id="arrow"
     d="M 11.500037,31.436501 C 11.940474,20.09759 22.043105,11.32322 32.158766,21.979434 L 37.068811,17.246167 C 37.068811,17.246167 37.088388,32 37.088388,32 L 22.160133,31.978069 C 22.160133,31.978069 26.997745,27.140456 26.997745,27.140456 C 18.528582,18.264221 13.291696,25.230495 11.500037,31.436501 z"
     style="fill:#404040;"/>
  </a>
 </g>
</svg>

<style type='text/css'>
<![CDATA[
[data-mouse-over-selected='false'] { opacity: 0.7; }
[data-mouse-over-selected='true']  { opacity: 1.0; }
]]>
</style>
<script type="application/ecmascript"><![CDATA[
document.addEventListener('DOMContentLoaded', (event) => {
  highlightEdges();
  highlightAdjacentNodes();
});
]]></script>
</svg>
