<?xml version="1.0" encoding="UTF-8" standalone="no"?>
<!DOCTYPE svg PUBLIC "-//W3C//DTD SVG 1.1//EN"
 "http://www.w3.org/Graphics/SVG/1.1/DTD/svg11.dtd">
<!-- Generated by graphviz version 14.0.0 (20250921.2048)
 -->
<!-- Title: npi::Show::OpacityGuard::OpacityGuard Pages: 1 -->
<svg width="436pt" height="186pt"
 viewBox="0.00 0.00 436.00 186.00" xmlns="http://www.w3.org/2000/svg" xmlns:xlink="http://www.w3.org/1999/xlink">

<svg id="main" version="1.1" xmlns="http://www.w3.org/2000/svg" xmlns:xlink="http://www.w3.org/1999/xlink" xml:space="preserve">

<style type="text/css"><![CDATA[
.node, .edge {opacity: 0.7;}
.node.selected, .edge.selected {opacity: 1;}
.edge:hover path { stroke: red; }
.edge:hover polygon { stroke: red; fill: red; }
]]></style>
<script type="application/ecmascript" xlink:href="../../svg.min.js"/>
<svg id="graph" class="graph">
<g id="graph0" class="graph" transform="scale(1 1) rotate(0) translate(4 181.5)">
<title>npi::Show::OpacityGuard::OpacityGuard</title>
<!-- Node1 -->
<g id="Node000001" class="node">
<title>Node1</title>
<g id="a_Node000001"><a xlink:title="Construct a guard for the given widget.">
<polygon fill="#999999" stroke="none" points="428,-97.88 190,-97.88 190,-78.62 428,-78.62 428,-97.88"/>
<text xml:space="preserve" text-anchor="start" x="198" y="-84.42" font-family="Consolas" font-weight="bold" font-size="11.00">npi::Show::OpacityGuard::OpacityGuard</text>
</a>
</g>
</g>
<!-- Node2 -->
<g id="Node000002" class="node">
<title>Node2</title>
<g id="a_Node000002"><a xlink:href="../../dd/d13/structnpi_1_1_show_1_1_opacity_guard.html#a34e06d0b1d0ecb14fec00519383dff47" target="_top" xlink:title="deleted copy constructor">
<polygon fill="white" stroke="none" points="154,-177.5 0,-177.5 0,-147 154,-147 154,-177.5"/>
<text xml:space="preserve" text-anchor="start" x="8" y="-163.05" font-family="Consolas" font-size="11.00">npi::Show::OpacityGuard</text>
<text xml:space="preserve" text-anchor="middle" x="77" y="-151.8" font-family="Consolas" font-size="11.00">::OpacityGuard</text>
</a>
</g>
</g>
<!-- Node1&#45;&gt;Node2 -->
<g id="edge1_Node000001_Node000002" class="edge">
<title>Node1&#45;&gt;Node2</title>
<g id="a_edge1_Node000001_Node000002"><a xlink:title=" ">
<path fill="none" stroke="#63b8ff" d="M272.75,-99.59C233.2,-112.32 168.85,-133.02 125.03,-147.12"/>
<polygon fill="#63b8ff" stroke="#63b8ff" points="277.24,-98.15 273.17,-101.82 276.02,-98.54 272.48,-99.68 272.48,-99.68 272.48,-99.68 276.02,-98.54 271.79,-97.54 277.24,-98.15"/>
</a>
</g>
</g>
<!-- Node3 -->
<g id="Node000003" class="node">
<title>Node3</title>
<g id="a_Node000003"><a xlink:href="../../dd/d13/structnpi_1_1_show_1_1_opacity_guard.html#ac26149640fd2b57bef0e97314a082eb3" target="_top" xlink:title="deleted move constructor">
<polygon fill="white" stroke="none" points="154,-128.5 0,-128.5 0,-98 154,-98 154,-128.5"/>
<text xml:space="preserve" text-anchor="start" x="8" y="-114.05" font-family="Consolas" font-size="11.00">npi::Show::OpacityGuard</text>
<text xml:space="preserve" text-anchor="middle" x="77" y="-102.8" font-family="Consolas" font-size="11.00">::OpacityGuard</text>
</a>
</g>
</g>
<!-- Node1&#45;&gt;Node3 -->
<g id="edge2_Node000001_Node000003" class="edge">
<title>Node1&#45;&gt;Node3</title>
<g id="a_edge2_Node000001_Node000003"><a xlink:title=" ">
<path fill="none" stroke="#63b8ff" d="M213.57,-98.51C193.62,-100.68 172.82,-102.94 153.67,-105.03"/>
<polygon fill="#63b8ff" stroke="#63b8ff" points="218.52,-97.98 213.79,-100.75 217.25,-98.11 213.55,-98.52 213.55,-98.52 213.55,-98.52 217.25,-98.11 213.31,-96.28 218.52,-97.98"/>
</a>
</g>
</g>
<!-- Node4 -->
<g id="Node000004" class="node">
<title>Node4</title>
<g id="a_Node000004"><a xlink:href="../../dd/d13/structnpi_1_1_show_1_1_opacity_guard.html#ac3a36f8f4edf8b459f6ef56554de19b0" target="_top" xlink:title="deleted copy assignment">
<polygon fill="white" stroke="none" points="154,-79.5 0,-79.5 0,-49 154,-49 154,-79.5"/>
<text xml:space="preserve" text-anchor="start" x="8" y="-65.05" font-family="Consolas" font-size="11.00">npi::Show::OpacityGuard</text>
<text xml:space="preserve" text-anchor="middle" x="77" y="-53.8" font-family="Consolas" font-size="11.00">::operator=</text>
</a>
</g>
</g>
<!-- Node1&#45;&gt;Node4 -->
<g id="edge3_Node000001_Node000004" class="edge">
<title>Node1&#45;&gt;Node4</title>
<g id="a_edge3_Node000001_Node000004"><a xlink:title=" ">
<path fill="none" stroke="#63b8ff" d="M209.95,-78.02C191.11,-76.05 171.65,-74.02 153.66,-72.14"/>
<polygon fill="#63b8ff" stroke="#63b8ff" points="214.56,-78.5 209.36,-80.22 213.29,-78.37 209.59,-77.98 209.59,-77.98 209.59,-77.98 213.29,-78.37 209.82,-75.74 214.56,-78.5"/>
</a>
</g>
</g>
<!-- Node5 -->
<g id="Node000005" class="node">
<title>Node5</title>
<g id="a_Node000005"><a xlink:href="../../dd/d13/structnpi_1_1_show_1_1_opacity_guard.html#a2593584a0c1ce2bdd2a6bd7f4b204d4d" target="_top" xlink:title="deleted move assignment">
<polygon fill="white" stroke="none" points="154,-30.5 0,-30.5 0,0 154,0 154,-30.5"/>
<text xml:space="preserve" text-anchor="start" x="8" y="-16.05" font-family="Consolas" font-size="11.00">npi::Show::OpacityGuard</text>
<text xml:space="preserve" text-anchor="middle" x="77" y="-4.8" font-family="Consolas" font-size="11.00">::operator=</text>
</a>
</g>
</g>
<!-- Node1&#45;&gt;Node5 -->
<g id="edge4_Node000001_Node000005" class="edge">
<title>Node1&#45;&gt;Node5</title>
<g id="a_edge4_Node000001_Node000005"><a xlink:title=" ">
<path fill="none" stroke="#63b8ff" d="M272.3,-76.92C232.91,-64.42 169.32,-44.23 125.68,-30.38"/>
<polygon fill="#63b8ff" stroke="#63b8ff" points="276.77,-78.34 271.32,-78.97 275.55,-77.95 272,-76.83 272,-76.83 272,-76.83 275.55,-77.95 272.69,-74.68 276.77,-78.34"/>
</a>
</g>
</g>
</g>
</svg>
</svg>

<style type='text/css'>
<![CDATA[
[data-mouse-over-selected='false'] { opacity: 0.7; }
[data-mouse-over-selected='true']  { opacity: 1.0; }
]]>
</style>
<script type="application/ecmascript"><![CDATA[
document.addEventListener('DOMContentLoaded', (event) => {
  highlightEdges();
  highlightAdjacentNodes();
});
]]></script>
</svg>
