<?xml version="1.0" encoding="UTF-8" standalone="no"?>
<!DOCTYPE svg PUBLIC "-//W3C//DTD SVG 1.1//EN"
 "http://www.w3.org/Graphics/SVG/1.1/DTD/svg11.dtd">
<!-- Generated by graphviz version 14.0.0 (20250921.2048)
 -->
<!-- Title: npi::RefPtrHost&lt; T &gt; Pages: 1 -->
<svg width="310pt" height="125pt"
 viewBox="0.00 0.00 310.00 125.00" xmlns="http://www.w3.org/2000/svg" xmlns:xlink="http://www.w3.org/1999/xlink">
<g id="graph0" class="graph" transform="scale(1 1) rotate(0) translate(4 120.75)">
<title>npi::RefPtrHost&lt; T &gt;</title>
<!-- Node1 -->
<g id="Node000001" class="node">
<title>Node1</title>
<g id="a_Node000001"><a xlink:title="A thread&#45;safe, owning host that manages an object of type T and notifies RefPtr objects upon destruct...">
<polygon fill="#999999" stroke="none" points="201,-19.25 65,-19.25 65,0 201,0 201,-19.25"/>
<text xml:space="preserve" text-anchor="start" x="73" y="-5.8" font-family="Consolas" font-weight="bold" font-size="11.00">npi::RefPtrHost&lt; T &gt;</text>
</a>
</g>
</g>
<!-- Node2 -->
<g id="Node000002" class="node">
<title>Node2</title>
<g id="a_Node000002"><a xlink:title=" ">
<polygon fill="white" stroke="none" points="106,-111.12 0,-111.12 0,-91.88 106,-91.88 106,-111.12"/>
<text xml:space="preserve" text-anchor="middle" x="53" y="-96.67" font-family="Consolas" font-size="11.00">shared_ptr&lt; T &gt;</text>
</a>
</g>
</g>
<!-- Node2&#45;&gt;Node1 -->
<g id="edge1_Node000001_Node000002" class="edge">
<title>Node2&#45;&gt;Node1</title>
<g id="a_edge1_Node000001_Node000002"><a xlink:title=" ">
<path fill="none" stroke="#9a32cd" stroke-dasharray="5,2" d="M64.59,-87.48C81.24,-68.78 111.44,-34.84 125.47,-19.09"/>
<polygon fill="#9a32cd" stroke="#9a32cd" points="61.48,-90.97 63.12,-85.74 62.33,-90.02 64.81,-87.24 64.81,-87.24 64.81,-87.24 62.33,-90.02 66.49,-88.73 61.48,-90.97"/>
</a>
</g>
<text xml:space="preserve" text-anchor="start" x="110.12" y="-48.5" font-family="Consolas" font-size="10.00" fill="grey">obj_</text>
</g>
<!-- Node3 -->
<g id="Node000003" class="node">
<title>Node3</title>
<g id="a_Node000003"><a xlink:title=" ">
<polygon fill="white" stroke="none" points="302,-116.75 124,-116.75 124,-86.25 302,-86.25 302,-116.75"/>
<text xml:space="preserve" text-anchor="start" x="132" y="-102.3" font-family="Consolas" font-size="11.00">shared_ptr&lt; npi::RefPtrHost</text>
<text xml:space="preserve" text-anchor="middle" x="213" y="-91.05" font-family="Consolas" font-size="11.00">::Obs &gt;</text>
</a>
</g>
</g>
<!-- Node3&#45;&gt;Node1 -->
<g id="edge2_Node000001_Node000003" class="edge">
<title>Node3&#45;&gt;Node1</title>
<g id="a_edge2_Node000001_Node000003"><a xlink:title=" ">
<path fill="none" stroke="#9a32cd" stroke-dasharray="5,2" d="M196.76,-82.26C179.55,-62.92 153.13,-33.24 140.38,-18.92"/>
<polygon fill="#9a32cd" stroke="#9a32cd" points="199.69,-85.55 194.68,-83.31 198.84,-84.59 196.37,-81.81 196.37,-81.81 196.37,-81.81 198.84,-84.59 198.05,-80.32 199.69,-85.55"/>
</a>
</g>
<text xml:space="preserve" text-anchor="start" x="185.52" y="-55.75" font-family="Consolas" font-size="10.00" fill="grey">loc_</text>
<text xml:space="preserve" text-anchor="start" x="185.52" y="-41.25" font-family="Consolas" font-size="10.00" fill="grey">uni_</text>
</g>
</g>
</svg>
