<?xml version="1.0" encoding="UTF-8" standalone="no"?>
<!DOCTYPE svg PUBLIC "-//W3C//DTD SVG 1.1//EN"
 "http://www.w3.org/Graphics/SVG/1.1/DTD/svg11.dtd">
<!-- Generated by graphviz version 14.0.0 (20250921.2048)
 -->
<!-- Title: npi::RefPtrFromThis::RefPtrFromThis Pages: 1 -->
<svg width="566pt" height="327pt"
 viewBox="0.00 0.00 566.00 327.00" xmlns="http://www.w3.org/2000/svg" xmlns:xlink="http://www.w3.org/1999/xlink">
<g id="graph0" class="graph" transform="scale(1 1) rotate(0) translate(4 322.83)">
<title>npi::RefPtrFromThis::RefPtrFromThis</title>
<!-- Node1 -->
<g id="Node000001" class="node">
<title>Node1</title>
<g id="a_Node000001"><a xlink:title="Default constructor.">
<polygon fill="#999999" stroke="none" points="558,-166.2 332,-166.2 332,-146.95 558,-146.95 558,-166.2"/>
<text xml:space="preserve" text-anchor="start" x="340" y="-152.75" font-family="Consolas" font-weight="bold" font-size="11.00">npi::RefPtrFromThis::RefPtrFromThis</text>
</a>
</g>
</g>
<!-- Node2 -->
<g id="Node000002" class="node">
<title>Node2</title>
<g id="a_Node000002"><a xlink:href="../../d8/d8d/classnpi_1_1_ref_ptr_from_this.html#ac6b15a020ba3c9b45bb9c290cf0450bf" target="_top" xlink:title="Default copy constructor.">
<polygon fill="white" stroke="none" points="296,-318.83 166,-318.83 166,-288.33 296,-288.33 296,-318.83"/>
<text xml:space="preserve" text-anchor="start" x="174" y="-304.38" font-family="Consolas" font-size="11.00">npi::RefPtrFromThis</text>
<text xml:space="preserve" text-anchor="middle" x="231" y="-293.13" font-family="Consolas" font-size="11.00">::RefPtrFromThis</text>
</a>
</g>
</g>
<!-- Node1&#45;&gt;Node2 -->
<g id="edge1_Node000001_Node000002" class="edge">
<title>Node1&#45;&gt;Node2</title>
<g id="a_edge1_Node000001_Node000002"><a xlink:title=" ">
<path fill="none" stroke="#63b8ff" d="M430.5,-170.27C405.75,-194.77 350.61,-246.52 296,-278.58 289.83,-282.2 283.03,-285.5 276.25,-288.43"/>
<polygon fill="#63b8ff" stroke="#63b8ff" points="433.9,-166.89 431.95,-172.01 432.99,-167.79 430.36,-170.41 430.36,-170.41 430.36,-170.41 432.99,-167.79 428.77,-168.82 433.9,-166.89"/>
</a>
</g>
</g>
<!-- Node3 -->
<g id="Node000003" class="node">
<title>Node3</title>
<g id="a_Node000003"><a xlink:href="../../d8/d8d/classnpi_1_1_ref_ptr_from_this.html#aee2ed8499aee2cad2924dbe4727f2748" target="_top" xlink:title="Default move constructor.">
<polygon fill="white" stroke="none" points="296,-269.83 166,-269.83 166,-239.33 296,-239.33 296,-269.83"/>
<text xml:space="preserve" text-anchor="start" x="174" y="-255.38" font-family="Consolas" font-size="11.00">npi::RefPtrFromThis</text>
<text xml:space="preserve" text-anchor="middle" x="231" y="-244.13" font-family="Consolas" font-size="11.00">::RefPtrFromThis</text>
</a>
</g>
</g>
<!-- Node1&#45;&gt;Node3 -->
<g id="edge2_Node000001_Node000003" class="edge">
<title>Node1&#45;&gt;Node3</title>
<g id="a_edge2_Node000001_Node000003"><a xlink:title=" ">
<path fill="none" stroke="#63b8ff" d="M420.52,-168.94C391.58,-183.99 340.73,-209.85 296,-229.58 288.47,-232.9 280.35,-236.24 272.5,-239.36"/>
<polygon fill="#63b8ff" stroke="#63b8ff" points="424.93,-166.64 421.54,-170.95 423.79,-167.23 420.5,-168.95 420.5,-168.95 420.5,-168.95 423.79,-167.23 419.46,-166.96 424.93,-166.64"/>
</a>
</g>
</g>
<!-- Node4 -->
<g id="Node000004" class="node">
<title>Node4</title>
<g id="a_Node000004"><a xlink:href="../../d8/d8d/classnpi_1_1_ref_ptr_from_this.html#a54f01c02479cfb6a446f9df076791452" target="_top" xlink:title="Default destructor.">
<polygon fill="white" stroke="none" points="296,-220.83 166,-220.83 166,-190.33 296,-190.33 296,-220.83"/>
<text xml:space="preserve" text-anchor="start" x="174" y="-206.38" font-family="Consolas" font-size="11.00">npi::RefPtrFromThis</text>
<text xml:space="preserve" text-anchor="middle" x="231" y="-195.13" font-family="Consolas" font-size="11.00">::~RefPtrFromThis</text>
</a>
</g>
</g>
<!-- Node1&#45;&gt;Node4 -->
<g id="edge3_Node000001_Node000004" class="edge">
<title>Node1&#45;&gt;Node4</title>
<g id="a_edge3_Node000001_Node000004"><a xlink:title=" ">
<path fill="none" stroke="#63b8ff" d="M396.54,-167.55C366.79,-174.42 328.07,-183.37 295.67,-190.86"/>
<polygon fill="#63b8ff" stroke="#63b8ff" points="401.18,-166.47 396.82,-169.79 399.93,-166.76 396.31,-167.6 396.31,-167.6 396.31,-167.6 399.93,-166.76 395.8,-165.41 401.18,-166.47"/>
</a>
</g>
</g>
<!-- Node5 -->
<g id="Node000005" class="node">
<title>Node5</title>
<g id="a_Node000005"><a xlink:href="../../d8/d8d/classnpi_1_1_ref_ptr_from_this.html#a9c4f1e219b4a5955faa229ff2ee6ab4d" target="_top" xlink:title="Default copy assignment operator.">
<polygon fill="white" stroke="none" points="296,-171.83 166,-171.83 166,-141.33 296,-141.33 296,-171.83"/>
<text xml:space="preserve" text-anchor="start" x="174" y="-157.38" font-family="Consolas" font-size="11.00">npi::RefPtrFromThis</text>
<text xml:space="preserve" text-anchor="middle" x="231" y="-146.13" font-family="Consolas" font-size="11.00">::operator=</text>
</a>
</g>
</g>
<!-- Node1&#45;&gt;Node5 -->
<g id="edge4_Node000001_Node000005" class="edge">
<title>Node1&#45;&gt;Node5</title>
<g id="a_edge4_Node000001_Node000005"><a xlink:title=" ">
<path fill="none" stroke="#63b8ff" d="M325.99,-156.58C315.63,-156.58 305.43,-156.58 295.79,-156.58"/>
<polygon fill="#63b8ff" stroke="#63b8ff" points="330.88,-156.58 325.88,-158.83 329.6,-156.58 325.88,-156.58 325.88,-156.58 325.88,-156.58 329.6,-156.58 325.88,-154.33 330.88,-156.58"/>
</a>
</g>
</g>
<!-- Node6 -->
<g id="Node000006" class="node">
<title>Node6</title>
<g id="a_Node000006"><a xlink:href="../../d8/d8d/classnpi_1_1_ref_ptr_from_this.html#a8c6b8a2f9208fb505f202d75f5f06068" target="_top" xlink:title="Default move assignment operator.">
<polygon fill="white" stroke="none" points="296,-122.83 166,-122.83 166,-92.33 296,-92.33 296,-122.83"/>
<text xml:space="preserve" text-anchor="start" x="174" y="-108.38" font-family="Consolas" font-size="11.00">npi::RefPtrFromThis</text>
<text xml:space="preserve" text-anchor="middle" x="231" y="-97.13" font-family="Consolas" font-size="11.00">::operator=</text>
</a>
</g>
</g>
<!-- Node1&#45;&gt;Node6 -->
<g id="edge5_Node000001_Node000006" class="edge">
<title>Node1&#45;&gt;Node6</title>
<g id="a_edge5_Node000001_Node000006"><a xlink:title=" ">
<path fill="none" stroke="#63b8ff" d="M396.54,-145.61C366.79,-138.73 328.07,-129.78 295.67,-122.29"/>
<polygon fill="#63b8ff" stroke="#63b8ff" points="401.18,-146.68 395.8,-147.75 399.93,-146.39 396.31,-145.55 396.31,-145.55 396.31,-145.55 399.93,-146.39 396.82,-143.36 401.18,-146.68"/>
</a>
</g>
</g>
<!-- Node7 -->
<g id="Node000007" class="node">
<title>Node7</title>
<g id="a_Node000007"><a xlink:href="../../d8/d8d/classnpi_1_1_ref_ptr_from_this.html#a559269952c68a83e865a2c8a15f8c110" target="_top" xlink:title="Friend swap to exchange two RefPtrFromThis instances.">
<polygon fill="white" stroke="none" points="296,-55.83 166,-55.83 166,-25.33 296,-25.33 296,-55.83"/>
<text xml:space="preserve" text-anchor="start" x="174" y="-41.38" font-family="Consolas" font-size="11.00">npi::RefPtrFromThis</text>
<text xml:space="preserve" text-anchor="middle" x="231" y="-30.13" font-family="Consolas" font-size="11.00">::swap</text>
</a>
</g>
</g>
<!-- Node1&#45;&gt;Node7 -->
<g id="edge6_Node000001_Node000007" class="edge">
<title>Node1&#45;&gt;Node7</title>
<g id="a_edge6_Node000001_Node000007"><a xlink:title=" ">
<path fill="none" stroke="#63b8ff" d="M421.66,-144.35C382.67,-123.02 302.33,-79.06 259.81,-55.79"/>
<polygon fill="#63b8ff" stroke="#63b8ff" points="425.58,-146.5 420.12,-146.07 424.46,-145.88 421.2,-144.1 421.2,-144.1 421.2,-144.1 424.46,-145.88 422.28,-142.13 425.58,-146.5"/>
</a>
</g>
</g>
<!-- Node8 -->
<g id="Node000008" class="node">
<title>Node8</title>
<g id="a_Node000008"><a xlink:href="../../d8/d8d/classnpi_1_1_ref_ptr_from_this.html#abd102a680bbea83ca28f2fa8cc6acee1" target="_top" xlink:title="Member swap function.">
<polygon fill="white" stroke="none" points="130,-33.83 0,-33.83 0,-3.33 130,-3.33 130,-33.83"/>
<text xml:space="preserve" text-anchor="start" x="8" y="-19.38" font-family="Consolas" font-size="11.00">npi::RefPtrFromThis</text>
<text xml:space="preserve" text-anchor="middle" x="65" y="-8.13" font-family="Consolas" font-size="11.00">::swap_</text>
</a>
</g>
</g>
<!-- Node1&#45;&gt;Node8 -->
<g id="edge9_Node000001_Node000008" class="edge">
<title>Node1&#45;&gt;Node8</title>
<g id="a_edge9_Node000001_Node000008"><a xlink:title=" ">
<path fill="none" stroke="#63b8ff" d="M434.83,-142.5C414.29,-112.42 361.24,-42.54 296,-16.58 242.95,4.54 177.4,1.44 129.87,-5.41"/>
<polygon fill="#63b8ff" stroke="#63b8ff" points="437.39,-146.29 432.73,-143.4 436.67,-145.23 434.59,-142.14 434.59,-142.14 434.59,-142.14 436.67,-145.23 436.46,-140.89 437.39,-146.29"/>
</a>
</g>
</g>
<!-- Node7&#45;&gt;Node7 -->
<g id="edge7_Node000007_Node000007" class="edge">
<title>Node7&#45;&gt;Node7</title>
<g id="a_edge7_Node000007_Node000007"><a xlink:title=" ">
<path fill="none" stroke="#63b8ff" d="M262.12,-61.18C262.3,-68.19 251.93,-73.83 231,-73.83 204.74,-73.83 195.1,-64.95 202.07,-55.62"/>
<polygon fill="#63b8ff" stroke="#63b8ff" points="260.38,-56.76 264.31,-60.58 260.85,-57.95 262.21,-61.41 262.21,-61.41 262.21,-61.41 260.85,-57.95 260.12,-62.23 260.38,-56.76"/>
</a>
</g>
</g>
<!-- Node7&#45;&gt;Node8 -->
<g id="edge8_Node000007_Node000008" class="edge">
<title>Node7&#45;&gt;Node8</title>
<g id="a_edge8_Node000007_Node000008"><a xlink:title=" ">
<path fill="none" stroke="#63b8ff" d="M160.24,-31.22C150.2,-29.87 139.9,-28.49 129.97,-27.16"/>
<polygon fill="#63b8ff" stroke="#63b8ff" points="164.92,-31.85 159.66,-33.41 163.65,-31.68 159.96,-31.18 159.96,-31.18 159.96,-31.18 163.65,-31.68 160.26,-28.95 164.92,-31.85"/>
</a>
</g>
</g>
</g>
</svg>
