<?xml version="1.0" encoding="UTF-8" standalone="no"?>
<!DOCTYPE svg PUBLIC "-//W3C//DTD SVG 1.1//EN"
 "http://www.w3.org/Graphics/SVG/1.1/DTD/svg11.dtd">
<!-- Generated by graphviz version 14.0.0 (20250921.2048)
 -->
<!-- Title: npi::RefPtrFromThis::swap_ Pages: 1 -->
<!--zoomable 69 -->

<svg id="main" version="1.1" xmlns="http://www.w3.org/2000/svg" xmlns:xlink="http://www.w3.org/1999/xlink" xml:space="preserve" onload="init(evt)">

<style type="text/css"><![CDATA[
.node, .edge {opacity: 0.7;}
.node.selected, .edge.selected {opacity: 1;}
.edge:hover path { stroke: red; }
.edge:hover polygon { stroke: red; fill: red; }
]]></style>

<defs>
  <circle id="rim" cx="0" cy="0" r="7"/>
  <circle id="rim2" cx="0" cy="0" r="3.5"/>
  <g id="zoomPlus">
    <use xlink:href="#rim" fill="#404040"><set attributeName="fill" to="#808080" begin="zoomplus.mouseover" end="zoomplus.mouseout"/></use>
    <path d="M-4,0h8M0,-4v8" fill="none" stroke="white" stroke-width="1.5" pointer-events="none"/>
  </g>
  <g id="zoomMin">
    <use xlink:href="#rim" fill="#404040"><set attributeName="fill" to="#808080" begin="zoomminus.mouseover" end="zoomminus.mouseout"/></use>
    <path d="M-4,0h8" fill="none" stroke="white" stroke-width="1.5" pointer-events="none"/>
  </g>
  <g id="arrowUp" transform="translate(30 24)">
    <use xlink:href="#rim"/>
    <path pointer-events="none" fill="none" stroke="white" stroke-width="1.5" d="M0,-3.0v7 M-2.5,-0.5L0,-3.0L2.5,-0.5"/>
  </g>
  <g id="arrowRight" transform="rotate(90) translate(36 -43)">
    <use xlink:href="#rim"/>
    <path pointer-events="none" fill="none" stroke="white" stroke-width="1.5" d="M0,-3.0v7 M-2.5,-0.5L0,-3.0L2.5,-0.5"/>
  </g>
  <g id="arrowDown" transform="rotate(180) translate(-30 -48)">
    <use xlink:href="#rim"/>
    <path pointer-events="none" fill="none" stroke="white" stroke-width="1.5" d="M0,-3.0v7 M-2.5,-0.5L0,-3.0L2.5,-0.5"/>
  </g>
  <g id="arrowLeft" transform="rotate(270) translate(-36 17)">
    <use xlink:href="#rim"/>
    <path pointer-events="none" fill="none" stroke="white" stroke-width="1.5" d="M0,-3.0v7 M-2.5,-0.5L0,-3.0L2.5,-0.5"/>
  </g>
  <g id="resetDef">
    <use xlink:href="#rim2" fill="#404040"><set attributeName="fill" to="#808080" begin="reset.mouseover" end="reset.mouseout"/></use>
  </g>
</defs>
<script type="application/ecmascript">
var viewWidth = 512;
var viewHeight = 69;
var sectionId = 'dynsection-9';
</script>
<script type="application/ecmascript" xlink:href="../../svg.min.js"/>
<svg id="graph" class="graph">
<g id="viewport">
<title>npi::RefPtrFromThis::swap_</title>
<!-- Node1 -->
<g id="Node000001" class="node">
<title>Node1</title>
<g id="a_Node000001"><a xlink:title="Member swap function.">
<polygon fill="#999999" stroke="none" points="172,-54.88 0,-54.88 0,-35.62 172,-35.62 172,-54.88"/>
<text xml:space="preserve" text-anchor="start" x="8" y="-41.42" font-family="Consolas" font-weight="bold" font-size="11.00">npi::RefPtrFromThis::swap_</text>
</a>
</g>
</g>
<!-- Node2 -->
<g id="Node000002" class="node">
<title>Node2</title>
<g id="a_Node000002"><a xlink:href="../../d8/d8d/classnpi_1_1_ref_ptr_from_this.html#a5e2fdcaec422ec8b9950dc98589d3c4f" target="_top" xlink:title="Default constructor.">
<polygon fill="white" stroke="none" points="504,-60.5 374,-60.5 374,-30 504,-30 504,-60.5"/>
<text xml:space="preserve" text-anchor="start" x="382" y="-46.05" font-family="Consolas" font-size="11.00">npi::RefPtrFromThis</text>
<text xml:space="preserve" text-anchor="middle" x="439" y="-34.8" font-family="Consolas" font-size="11.00">::RefPtrFromThis</text>
</a>
</g>
</g>
<!-- Node1&#45;&gt;Node2 -->
<g id="edge1_Node000001_Node000002" class="edge">
<title>Node1&#45;&gt;Node2</title>
<g id="a_edge1_Node000001_Node000002"><a xlink:title=" ">
<path fill="none" stroke="#63b8ff" d="M171.87,-54.74C183.98,-55.78 196.3,-56.67 208,-57.25 265.71,-60.1 280.33,-60.7 338,-57.25 347.78,-56.67 358.06,-55.76 368.16,-54.71"/>
<polygon fill="#63b8ff" stroke="#63b8ff" points="372.87,-54.2 368.14,-56.97 371.6,-54.34 367.9,-54.74 367.9,-54.74 367.9,-54.74 371.6,-54.34 367.66,-52.5 372.87,-54.2"/>
</a>
</g>
</g>
<!-- Node3 -->
<g id="Node000003" class="node">
<title>Node3</title>
<g id="a_Node000003"><a xlink:href="../../d8/d8d/classnpi_1_1_ref_ptr_from_this.html#a559269952c68a83e865a2c8a15f8c110" target="_top" xlink:title="Friend swap to exchange two RefPtrFromThis instances.">
<polygon fill="white" stroke="none" points="338,-30.5 208,-30.5 208,0 338,0 338,-30.5"/>
<text xml:space="preserve" text-anchor="start" x="216" y="-16.05" font-family="Consolas" font-size="11.00">npi::RefPtrFromThis</text>
<text xml:space="preserve" text-anchor="middle" x="273" y="-4.8" font-family="Consolas" font-size="11.00">::swap</text>
</a>
</g>
</g>
<!-- Node1&#45;&gt;Node3 -->
<g id="edge2_Node000001_Node000003" class="edge">
<title>Node1&#45;&gt;Node3</title>
<g id="a_edge2_Node000001_Node000003"><a xlink:title=" ">
<path fill="none" stroke="#63b8ff" d="M146.3,-35.63C164.21,-32.73 184.03,-29.51 202.55,-26.51"/>
<polygon fill="#63b8ff" stroke="#63b8ff" points="207.04,-25.78 202.47,-28.81 205.78,-25.99 202.11,-26.58 202.11,-26.58 202.11,-26.58 205.78,-25.99 201.75,-24.36 207.04,-25.78"/>
</a>
</g>
</g>
<!-- Node3&#45;&gt;Node2 -->
<g id="edge3_Node000003_Node000002" class="edge">
<title>Node3&#45;&gt;Node2</title>
<g id="a_edge3_Node000003_Node000002"><a xlink:title=" ">
<path fill="none" stroke="#63b8ff" d="M337.88,-26.93C347.8,-28.75 358.1,-30.63 368.15,-32.47"/>
<polygon fill="#63b8ff" stroke="#63b8ff" points="372.83,-33.33 367.51,-34.64 371.57,-33.1 367.91,-32.43 367.91,-32.43 367.91,-32.43 371.57,-33.1 368.32,-30.22 372.83,-33.33"/>
</a>
</g>
</g>
<!-- Node3&#45;&gt;Node3 -->
<g id="edge4_Node000003_Node000003" class="edge">
<title>Node3&#45;&gt;Node3</title>
<g id="a_edge4_Node000003_Node000003"><a xlink:title=" ">
<path fill="none" stroke="#63b8ff" d="M244.07,-30.3C237.1,-39.62 246.74,-48.5 273,-48.5 293.93,-48.5 304.3,-42.86 304.12,-35.85"/>
<polygon fill="#63b8ff" stroke="#63b8ff" points="302.38,-31.43 306.31,-35.25 302.85,-32.62 304.21,-36.08 304.21,-36.08 304.21,-36.08 302.85,-32.62 302.12,-36.91 302.38,-31.43"/>
</a>
</g>
</g>
</g>
</svg>

<g id="navigator" transform="translate(0 0)" fill="#404254">
  <rect fill="#f2f5e9" fill-opacity="0.5" stroke="#606060" stroke-width=".5" x="0" y="0" width="60" height="60"/>
  <use id="zoomplus" xlink:href="#zoomPlus" x="17" y="9" onmousedown="handleZoom(evt,'in')"/>
  <use id="zoomminus" xlink:href="#zoomMin" x="42" y="9" onmousedown="handleZoom(evt,'out')"/>
  <use id="reset" xlink:href="#resetDef" x="30" y="36" onmousedown="handleReset()"/>
   <use id="arrowup" xlink:href="#arrowUp" x="0" y="0" onmousedown="handlePan(0,-1)"/>
  <use id="arrowright" xlink:href="#arrowRight" x="0" y="0" onmousedown="handlePan(1,0)"/>
  <use id="arrowdown" xlink:href="#arrowDown" x="0" y="0" onmousedown="handlePan(0,1)"/>
  <use id="arrowleft" xlink:href="#arrowLeft" x="0" y="0" onmousedown="handlePan(-1,0)"/>
</g>
<svg viewBox="0 0 15 15" width="100%" height="30px" preserveAspectRatio="xMaxYMin meet">
 <g id="arrow_out" transform="scale(0.3 0.3)">
  <a xlink:href="classnpi_1_1_ref_ptr_from_this_abd102a680bbea83ca28f2fa8cc6acee1_cgraph_org.svg" target="_base">
   <rect id="button" ry="5" rx="5" y="6" x="6" height="38" width="38"
        fill="#f2f5e9" fill-opacity="0.5" stroke="#606060" stroke-width="1.0"/>
   <path id="arrow"
     d="M 11.500037,31.436501 C 11.940474,20.09759 22.043105,11.32322 32.158766,21.979434 L 37.068811,17.246167 C 37.068811,17.246167 37.088388,32 37.088388,32 L 22.160133,31.978069 C 22.160133,31.978069 26.997745,27.140456 26.997745,27.140456 C 18.528582,18.264221 13.291696,25.230495 11.500037,31.436501 z"
     style="fill:#404040;"/>
  </a>
 </g>
</svg>

<style type='text/css'>
<![CDATA[
[data-mouse-over-selected='false'] { opacity: 0.7; }
[data-mouse-over-selected='true']  { opacity: 1.0; }
]]>
</style>
<script type="application/ecmascript"><![CDATA[
document.addEventListener('DOMContentLoaded', (event) => {
  highlightEdges();
  highlightAdjacentNodes();
});
]]></script>
</svg>
