<?xml version="1.0" encoding="UTF-8" standalone="no"?>
<!DOCTYPE svg PUBLIC "-//W3C//DTD SVG 1.1//EN"
 "http://www.w3.org/Graphics/SVG/1.1/DTD/svg11.dtd">
<!-- Generated by graphviz version 14.0.0 (20250921.2048)
 -->
<!-- Title: MainWindow.cpp Pages: 1 -->
<svg width="982pt" height="83pt"
 viewBox="0.00 0.00 982.00 83.00" xmlns="http://www.w3.org/2000/svg" xmlns:xlink="http://www.w3.org/1999/xlink">
<g id="graph0" class="graph" transform="scale(1 1) rotate(0) translate(4 78.5)">
<title>MainWindow.cpp</title>
<!-- Node1 -->
<g id="Node000001" class="node">
<title>Node1</title>
<g id="a_Node000001"><a xlink:title=" ">
<polygon fill="#999999" stroke="none" points="618,-74.5 518,-74.5 518,-55.25 618,-55.25 618,-74.5"/>
<text xml:space="preserve" text-anchor="start" x="526" y="-61.05" font-family="Consolas" font-weight="bold" font-size="11.00">MainWindow.cpp</text>
</a>
</g>
</g>
<!-- Node2 -->
<g id="Node000002" class="node">
<title>Node2</title>
<g id="a_Node000002"><a xlink:title=" ">
<polygon fill="#e0e0e0" stroke="none" points="112,-19.25 0,-19.25 0,0 112,0 112,-19.25"/>
<text xml:space="preserve" text-anchor="middle" x="56" y="-4.8" font-family="Consolas" font-size="11.00">npi/MainWindow.h</text>
</a>
</g>
</g>
<!-- Node1&#45;&gt;Node2 -->
<g id="edge1_Node000001_Node000002" class="edge">
<title>Node1&#45;&gt;Node2</title>
<g id="a_edge1_Node000001_Node000002"><a xlink:title=" ">
<path fill="none" stroke="#63b8ff" d="M518,-59.42C435.31,-51.92 264.9,-35.98 121,-19.25 119.95,-19.13 118.89,-19 117.83,-18.88"/>
<polygon fill="#63b8ff" stroke="#63b8ff" points="112.86,-18.28 118.1,-16.64 114.14,-18.43 117.83,-18.88 117.83,-18.88 117.83,-18.88 114.14,-18.43 117.56,-21.11 112.86,-18.28"/>
</a>
</g>
</g>
<!-- Node3 -->
<g id="Node000003" class="node">
<title>Node3</title>
<g id="a_Node000003"><a xlink:title=" ">
<polygon fill="#e0e0e0" stroke="none" points="200,-19.25 130,-19.25 130,0 200,0 200,-19.25"/>
<text xml:space="preserve" text-anchor="middle" x="165" y="-4.8" font-family="Consolas" font-size="11.00">npi/Log.h</text>
</a>
</g>
</g>
<!-- Node1&#45;&gt;Node3 -->
<g id="edge2_Node000001_Node000003" class="edge">
<title>Node1&#45;&gt;Node3</title>
<g id="a_edge2_Node000001_Node000003"><a xlink:title=" ">
<path fill="none" stroke="#63b8ff" d="M518.19,-58.8C448.73,-51.46 318.93,-36.83 209,-19.25 207.85,-19.07 206.68,-18.87 205.5,-18.67"/>
<polygon fill="#63b8ff" stroke="#63b8ff" points="200.75,-17.84 206.06,-16.49 202.01,-18.06 205.67,-18.7 205.67,-18.7 205.67,-18.7 202.01,-18.06 205.28,-20.92 200.75,-17.84"/>
</a>
</g>
</g>
<!-- Node4 -->
<g id="Node000004" class="node">
<title>Node4</title>
<g id="a_Node000004"><a xlink:title=" ">
<polygon fill="#e0e0e0" stroke="none" points="288,-19.25 218,-19.25 218,0 288,0 288,-19.25"/>
<text xml:space="preserve" text-anchor="middle" x="253" y="-4.8" font-family="Consolas" font-size="11.00">Windows.h</text>
</a>
</g>
</g>
<!-- Node1&#45;&gt;Node4 -->
<g id="edge3_Node000001_Node000004" class="edge">
<title>Node1&#45;&gt;Node4</title>
<g id="a_edge3_Node000001_Node000004"><a xlink:title=" ">
<path fill="none" stroke="#63b8ff" d="M518.47,-56.18C464.08,-47.63 374.19,-33.17 297,-19.25 295.85,-19.04 294.69,-18.83 293.51,-18.61"/>
<polygon fill="#63b8ff" stroke="#63b8ff" points="288.77,-17.73 294.09,-16.43 290.03,-17.96 293.68,-18.65 293.68,-18.65 293.68,-18.65 290.03,-17.96 293.27,-20.86 288.77,-17.73"/>
</a>
</g>
</g>
<!-- Node5 -->
<g id="Node000005" class="node">
<title>Node5</title>
<g id="a_Node000005"><a xlink:title=" ">
<polygon fill="#e0e0e0" stroke="none" points="388,-19.25 306,-19.25 306,0 388,0 388,-19.25"/>
<text xml:space="preserve" text-anchor="middle" x="347" y="-4.8" font-family="Consolas" font-size="11.00">QFileDialog</text>
</a>
</g>
</g>
<!-- Node1&#45;&gt;Node5 -->
<g id="edge4_Node000001_Node000005" class="edge">
<title>Node1&#45;&gt;Node5</title>
<g id="a_edge4_Node000001_Node000005"><a xlink:title=" ">
<path fill="none" stroke="#63b8ff" d="M532.49,-55.32C493.3,-45.88 430.28,-30.69 388.75,-20.69"/>
<polygon fill="#63b8ff" stroke="#63b8ff" points="383.97,-19.53 389.36,-18.52 385.22,-19.83 388.83,-20.7 388.83,-20.7 388.83,-20.7 385.22,-19.83 388.3,-22.89 383.97,-19.53"/>
</a>
</g>
</g>
<!-- Node6 -->
<g id="Node000006" class="node">
<title>Node6</title>
<g id="a_Node000006"><a xlink:title=" ">
<polygon fill="#e0e0e0" stroke="none" points="500,-19.25 406,-19.25 406,0 500,0 500,-19.25"/>
<text xml:space="preserve" text-anchor="middle" x="453" y="-4.8" font-family="Consolas" font-size="11.00">QtCore/QTimer</text>
</a>
</g>
</g>
<!-- Node1&#45;&gt;Node6 -->
<g id="edge5_Node000001_Node000006" class="edge">
<title>Node1&#45;&gt;Node6</title>
<g id="a_edge5_Node000001_Node000006"><a xlink:title=" ">
<path fill="none" stroke="#63b8ff" d="M549.52,-55.32C529.82,-46.2 498.55,-31.72 476.97,-21.72"/>
<polygon fill="#63b8ff" stroke="#63b8ff" points="472.54,-19.67 478.02,-19.73 473.7,-20.21 477.07,-21.77 477.07,-21.77 477.07,-21.77 473.7,-20.21 476.13,-23.81 472.54,-19.67"/>
</a>
</g>
</g>
<!-- Node7 -->
<g id="Node000007" class="node">
<title>Node7</title>
<g id="a_Node000007"><a xlink:title=" ">
<polygon fill="#e0e0e0" stroke="none" points="618,-19.25 518,-19.25 518,0 618,0 618,-19.25"/>
<text xml:space="preserve" text-anchor="middle" x="568" y="-4.8" font-family="Consolas" font-size="11.00">QtCore/QString</text>
</a>
</g>
</g>
<!-- Node1&#45;&gt;Node7 -->
<g id="edge6_Node000001_Node000007" class="edge">
<title>Node1&#45;&gt;Node7</title>
<g id="a_edge6_Node000001_Node000007"><a xlink:title=" ">
<path fill="none" stroke="#63b8ff" d="M568,-55.55C568,-47.4 568,-34.79 568,-25.01"/>
<polygon fill="#63b8ff" stroke="#63b8ff" points="568,-20.28 570.25,-25.28 568,-21.56 568,-25.28 568,-25.28 568,-25.28 568,-21.56 565.75,-25.28 568,-20.28"/>
</a>
</g>
</g>
<!-- Node8 -->
<g id="Node000008" class="node">
<title>Node8</title>
<g id="a_Node000008"><a xlink:title=" ">
<polygon fill="#e0e0e0" stroke="none" points="688,-19.25 636,-19.25 636,0 688,0 688,-19.25"/>
<text xml:space="preserve" text-anchor="middle" x="662" y="-4.8" font-family="Consolas" font-size="11.00">atomic</text>
</a>
</g>
</g>
<!-- Node1&#45;&gt;Node8 -->
<g id="edge7_Node000001_Node000008" class="edge">
<title>Node1&#45;&gt;Node8</title>
<g id="a_edge7_Node000001_Node000008"><a xlink:title=" ">
<path fill="none" stroke="#63b8ff" d="M583.1,-55.32C599,-46.31 624.11,-32.09 641.73,-22.11"/>
<polygon fill="#63b8ff" stroke="#63b8ff" points="645.87,-19.76 642.63,-24.18 644.76,-20.39 641.52,-22.22 641.52,-22.22 641.52,-22.22 644.76,-20.39 640.42,-20.27 645.87,-19.76"/>
</a>
</g>
</g>
<!-- Node9 -->
<g id="Node000009" class="node">
<title>Node9</title>
<g id="a_Node000009"><a xlink:title=" ">
<polygon fill="#e0e0e0" stroke="none" points="758,-19.25 706,-19.25 706,0 758,0 758,-19.25"/>
<text xml:space="preserve" text-anchor="middle" x="732" y="-4.8" font-family="Consolas" font-size="11.00">chrono</text>
</a>
</g>
</g>
<!-- Node1&#45;&gt;Node9 -->
<g id="edge8_Node000001_Node000009" class="edge">
<title>Node1&#45;&gt;Node9</title>
<g id="a_edge8_Node000001_Node000009"><a xlink:title=" ">
<path fill="none" stroke="#63b8ff" d="M594.35,-55.32C623.33,-45.91 669.87,-30.8 700.69,-20.79"/>
<polygon fill="#63b8ff" stroke="#63b8ff" points="705.1,-19.36 701.04,-23.04 703.88,-19.76 700.34,-20.9 700.34,-20.9 700.34,-20.9 703.88,-19.76 699.65,-18.76 705.1,-19.36"/>
</a>
</g>
</g>
<!-- Node10 -->
<g id="Node000010" class="node">
<title>Node10</title>
<g id="a_Node000010"><a xlink:title=" ">
<polygon fill="#e0e0e0" stroke="none" points="834,-19.25 776,-19.25 776,0 834,0 834,-19.25"/>
<text xml:space="preserve" text-anchor="middle" x="805" y="-4.8" font-family="Consolas" font-size="11.00">cstdint</text>
</a>
</g>
</g>
<!-- Node1&#45;&gt;Node10 -->
<g id="edge9_Node000001_Node000010" class="edge">
<title>Node1&#45;&gt;Node10</title>
<g id="a_edge9_Node000001_Node000010"><a xlink:title=" ">
<path fill="none" stroke="#63b8ff" d="M606.53,-55.27C646.62,-46.3 711.22,-31.83 767,-19.25 768.14,-18.99 769.3,-18.73 770.46,-18.47"/>
<polygon fill="#63b8ff" stroke="#63b8ff" points="775.18,-17.4 770.8,-20.7 773.93,-17.68 770.3,-18.5 770.3,-18.5 770.3,-18.5 773.93,-17.68 769.81,-16.31 775.18,-17.4"/>
</a>
</g>
</g>
<!-- Node11 -->
<g id="Node000011" class="node">
<title>Node11</title>
<g id="a_Node000011"><a xlink:title=" ">
<polygon fill="#e0e0e0" stroke="none" points="904,-19.25 852,-19.25 852,0 904,0 904,-19.25"/>
<text xml:space="preserve" text-anchor="middle" x="878" y="-4.8" font-family="Consolas" font-size="11.00">cstdio</text>
</a>
</g>
</g>
<!-- Node1&#45;&gt;Node11 -->
<g id="edge10_Node000001_Node000011" class="edge">
<title>Node1&#45;&gt;Node11</title>
<g id="a_edge10_Node000001_Node000011"><a xlink:title=" ">
<path fill="none" stroke="#63b8ff" d="M617.9,-57.01C673.17,-49.13 764.8,-35.2 843,-19.25 844.01,-19.04 845.04,-18.83 846.07,-18.61"/>
<polygon fill="#63b8ff" stroke="#63b8ff" points="850.87,-17.53 846.48,-20.82 849.62,-17.81 845.99,-18.62 845.99,-18.62 845.99,-18.62 849.62,-17.81 845.5,-16.43 850.87,-17.53"/>
</a>
</g>
</g>
<!-- Node12 -->
<g id="Node000012" class="node">
<title>Node12</title>
<g id="a_Node000012"><a xlink:title=" ">
<polygon fill="#e0e0e0" stroke="none" points="974,-19.25 922,-19.25 922,0 974,0 974,-19.25"/>
<text xml:space="preserve" text-anchor="middle" x="948" y="-4.8" font-family="Consolas" font-size="11.00">limits</text>
</a>
</g>
</g>
<!-- Node1&#45;&gt;Node12 -->
<g id="edge11_Node000001_Node000012" class="edge">
<title>Node1&#45;&gt;Node12</title>
<g id="a_edge11_Node000001_Node000012"><a xlink:title=" ">
<path fill="none" stroke="#63b8ff" d="M617.98,-59.2C685.34,-52.49 808.82,-38.76 913,-19.25 914.01,-19.06 915.04,-18.86 916.08,-18.65"/>
<polygon fill="#63b8ff" stroke="#63b8ff" points="920.89,-17.62 916.47,-20.87 919.63,-17.88 916,-18.67 916,-18.67 916,-18.67 919.63,-17.88 915.53,-16.47 920.89,-17.62"/>
</a>
</g>
</g>
</g>
</svg>
