<?xml version="1.0" encoding="UTF-8" standalone="no"?>
<!DOCTYPE svg PUBLIC "-//W3C//DTD SVG 1.1//EN"
 "http://www.w3.org/Graphics/SVG/1.1/DTD/svg11.dtd">
<!-- Generated by graphviz version 14.0.0 (20250921.2048)
 -->
<!-- Title: npi::log::setMaxFolderSize Pages: 1 -->
<svg width="1066pt" height="112pt"
 viewBox="0.00 0.00 1066.00 112.00" xmlns="http://www.w3.org/2000/svg" xmlns:xlink="http://www.w3.org/1999/xlink">
<g id="graph0" class="graph" transform="scale(1 1) rotate(0) translate(4 107.5)">
<title>npi::log::setMaxFolderSize</title>
<!-- Node1 -->
<g id="Node000001" class="node">
<title>Node1</title>
<g id="a_Node000001"><a xlink:title=" ">
<polygon fill="#999999" stroke="none" points="172,-75.88 0,-75.88 0,-56.62 172,-56.62 172,-75.88"/>
<text xml:space="preserve" text-anchor="start" x="8" y="-62.42" font-family="Consolas" font-weight="bold" font-size="11.00">npi::log::setMaxFolderSize</text>
</a>
</g>
</g>
<!-- Node2 -->
<g id="Node000002" class="node">
<title>Node2</title>
<g id="a_Node000002"><a xlink:href="../../dc/d8e/namespaceanonymous__namespace_02_log_8cpp_03.html#a4fd28b9a729792528c3707da82453049" target="_top" xlink:title=" ">
<polygon fill="white" stroke="none" points="386,-103.5 208,-103.5 208,-73 386,-73 386,-103.5"/>
<text xml:space="preserve" text-anchor="start" x="216" y="-89.05" font-family="Consolas" font-size="11.00">anonymous_namespace</text>
<text xml:space="preserve" text-anchor="middle" x="297" y="-77.8" font-family="Consolas" font-size="11.00">{Log::cpp}::aConfigLockName</text>
</a>
</g>
</g>
<!-- Node1&#45;&gt;Node2 -->
<g id="edge1_Node000001_Node000002" class="edge">
<title>Node1&#45;&gt;Node2</title>
<g id="a_edge1_Node000001_Node000002"><a xlink:title=" ">
<path fill="none" stroke="#63b8ff" d="M171.71,-75.17C181.73,-76.22 192.01,-77.3 202.16,-78.37"/>
<polygon fill="#63b8ff" stroke="#63b8ff" points="206.9,-78.87 201.69,-80.58 205.62,-78.74 201.93,-78.35 201.93,-78.35 201.93,-78.35 205.62,-78.74 202.16,-76.11 206.9,-78.87"/>
</a>
</g>
</g>
<!-- Node3 -->
<g id="Node000003" class="node">
<title>Node3</title>
<g id="a_Node000003"><a xlink:href="../../dc/dba/namespacenpi_1_1app.html#a40a2a28831f2f410c995f0657baf6544" target="_top" xlink:title="Absolute application&#45;level ProgramData path.">
<polygon fill="white" stroke="none" points="386,-54.88 208,-54.88 208,-35.62 386,-35.62 386,-54.88"/>
<text xml:space="preserve" text-anchor="middle" x="297" y="-40.42" font-family="Consolas" font-size="11.00">npi::app::appProgramDataDir</text>
</a>
</g>
</g>
<!-- Node1&#45;&gt;Node3 -->
<g id="edge2_Node000001_Node000003" class="edge">
<title>Node1&#45;&gt;Node3</title>
<g id="a_edge2_Node000001_Node000003"><a xlink:title=" ">
<path fill="none" stroke="#63b8ff" d="M171.71,-57.74C181.73,-56.73 192.01,-55.7 202.16,-54.68"/>
<polygon fill="#63b8ff" stroke="#63b8ff" points="206.9,-54.2 202.15,-56.94 205.62,-54.33 201.92,-54.7 201.92,-54.7 201.92,-54.7 205.62,-54.33 201.7,-52.46 206.9,-54.2"/>
</a>
</g>
</g>
<!-- Node4 -->
<g id="Node000004" class="node">
<title>Node4</title>
<g id="a_Node000004"><a xlink:href="../../df/d40/namespaceanonymous__namespace_02_meta_paths_8cpp_03.html#a1554aad28987c554d0ff1c379ce0567e" target="_top" xlink:title="Create subdirectory under base path.">
<polygon fill="white" stroke="none" points="838,-79.5 636,-79.5 636,-49 838,-49 838,-79.5"/>
<text xml:space="preserve" text-anchor="start" x="644" y="-65.05" font-family="Consolas" font-size="11.00">anonymous_namespace</text>
<text xml:space="preserve" text-anchor="middle" x="737" y="-53.8" font-family="Consolas" font-size="11.00">{MetaPaths::cpp}::aCreateSubDir</text>
</a>
</g>
</g>
<!-- Node3&#45;&gt;Node4 -->
<g id="edge3_Node000003_Node000004" class="edge">
<title>Node3&#45;&gt;Node4</title>
<g id="a_edge3_Node000003_Node000004"><a xlink:title=" ">
<path fill="none" stroke="#63b8ff" d="M385.85,-49.06C456.31,-52.12 555.44,-56.42 630.26,-59.66"/>
<polygon fill="#63b8ff" stroke="#63b8ff" points="634.84,-59.86 629.74,-61.89 633.55,-59.81 629.84,-59.64 629.84,-59.64 629.84,-59.64 633.55,-59.81 629.94,-57.4 634.84,-59.86"/>
</a>
</g>
</g>
<!-- Node6 -->
<g id="Node000006" class="node">
<title>Node6</title>
<g id="a_Node000006"><a xlink:href="../../dc/dba/namespacenpi_1_1app.html#a30836be8b9337a64733a6e05594b23c8" target="_top" xlink:title="Absolute organization&#45;level ProgramData path.">
<polygon fill="white" stroke="none" points="600,-35.88 422,-35.88 422,-16.62 600,-16.62 600,-35.88"/>
<text xml:space="preserve" text-anchor="middle" x="511" y="-21.43" font-family="Consolas" font-size="11.00">npi::app::orgProgramDataDir</text>
</a>
</g>
</g>
<!-- Node3&#45;&gt;Node6 -->
<g id="edge5_Node000003_Node000006" class="edge">
<title>Node3&#45;&gt;Node6</title>
<g id="a_edge5_Node000003_Node000006"><a xlink:title=" ">
<path fill="none" stroke="#63b8ff" d="M385.76,-37.38C395.85,-36.48 406.17,-35.56 416.34,-34.64"/>
<polygon fill="#63b8ff" stroke="#63b8ff" points="421.09,-34.22 416.31,-36.91 419.82,-34.33 416.11,-34.66 416.11,-34.66 416.11,-34.66 419.82,-34.33 415.91,-32.42 421.09,-34.22"/>
</a>
</g>
</g>
<!-- Node5 -->
<g id="Node000005" class="node">
<title>Node5</title>
<g id="a_Node000005"><a xlink:href="../../dc/dba/namespacenpi_1_1app.html#a30b5245afa890e98f19f43c58f29e633" target="_top" xlink:title="Windows native fatal error message box.">
<polygon fill="white" stroke="none" points="1058,-48.88 874,-48.88 874,-29.62 1058,-29.62 1058,-48.88"/>
<text xml:space="preserve" text-anchor="middle" x="966" y="-34.42" font-family="Consolas" font-size="11.00">npi::app::nativeFatalMessage</text>
</a>
</g>
</g>
<!-- Node4&#45;&gt;Node5 -->
<g id="edge4_Node000004_Node000005" class="edge">
<title>Node4&#45;&gt;Node5</title>
<g id="a_edge4_Node000004_Node000005"><a xlink:title=" ">
<path fill="none" stroke="#63b8ff" d="M837.9,-53.25C849.14,-52.01 860.56,-50.75 871.71,-49.52"/>
<polygon fill="#63b8ff" stroke="#63b8ff" points="876.66,-48.98 871.94,-51.76 875.39,-49.12 871.69,-49.53 871.69,-49.53 871.69,-49.53 875.39,-49.12 871.45,-47.29 876.66,-48.98"/>
</a>
</g>
</g>
<!-- Node6&#45;&gt;Node4 -->
<g id="edge8_Node000006_Node000004" class="edge">
<title>Node6&#45;&gt;Node4</title>
<g id="a_edge8_Node000006_Node000004"><a xlink:title=" ">
<path fill="none" stroke="#63b8ff" d="M568.52,-35.84C590.36,-39.54 615.96,-43.89 640.49,-48.05"/>
<polygon fill="#63b8ff" stroke="#63b8ff" points="645.16,-48.84 639.86,-50.22 643.9,-48.63 640.23,-48 640.23,-48 640.23,-48 643.9,-48.63 640.61,-45.79 645.16,-48.84"/>
</a>
</g>
</g>
<!-- Node7 -->
<g id="Node000007" class="node">
<title>Node7</title>
<g id="a_Node000007"><a xlink:href="../../df/d40/namespaceanonymous__namespace_02_meta_paths_8cpp_03.html#a1ba3938f670cc7526df2081bf6f6c0ce" target="_top" xlink:title="Resolve base path using Known Folder ID or environment variable fallback.">
<polygon fill="white" stroke="none" points="826,-30.5 648,-30.5 648,0 826,0 826,-30.5"/>
<text xml:space="preserve" text-anchor="start" x="656" y="-16.05" font-family="Consolas" font-size="11.00">anonymous_namespace</text>
<text xml:space="preserve" text-anchor="middle" x="737" y="-4.8" font-family="Consolas" font-size="11.00">{MetaPaths::cpp}::aBasePath</text>
</a>
</g>
</g>
<!-- Node6&#45;&gt;Node7 -->
<g id="edge6_Node000006_Node000007" class="edge">
<title>Node6&#45;&gt;Node7</title>
<g id="a_edge6_Node000006_Node000007"><a xlink:title=" ">
<path fill="none" stroke="#63b8ff" d="M599.89,-21.93C613.83,-21.25 628.3,-20.54 642.36,-19.85"/>
<polygon fill="#63b8ff" stroke="#63b8ff" points="647.15,-19.61 642.27,-22.11 645.87,-19.68 642.15,-19.86 642.15,-19.86 642.15,-19.86 645.87,-19.68 642.04,-17.61 647.15,-19.61"/>
</a>
</g>
</g>
<!-- Node7&#45;&gt;Node5 -->
<g id="edge7_Node000007_Node000005" class="edge">
<title>Node7&#45;&gt;Node5</title>
<g id="a_edge7_Node000007_Node000005"><a xlink:title=" ">
<path fill="none" stroke="#63b8ff" d="M825.76,-24.53C839.63,-25.99 854.03,-27.52 868.09,-29"/>
<polygon fill="#63b8ff" stroke="#63b8ff" points="872.88,-29.51 867.67,-31.22 871.61,-29.38 867.91,-28.98 867.91,-28.98 867.91,-28.98 871.61,-29.38 868.14,-26.75 872.88,-29.51"/>
</a>
</g>
</g>
</g>
</svg>
