<?xml version="1.0" encoding="UTF-8" standalone="no"?>
<!DOCTYPE svg PUBLIC "-//W3C//DTD SVG 1.1//EN"
 "http://www.w3.org/Graphics/SVG/1.1/DTD/svg11.dtd">
<!-- Generated by graphviz version 14.0.0 (20250921.2048)
 -->
<!-- Title: npi::log::setColoredConsole Pages: 1 -->
<svg width="1380pt" height="128pt"
 viewBox="0.00 0.00 1380.00 128.00" xmlns="http://www.w3.org/2000/svg" xmlns:xlink="http://www.w3.org/1999/xlink">
<g id="graph0" class="graph" transform="scale(1 1) rotate(0) translate(4 123.75)">
<title>npi::log::setColoredConsole</title>
<!-- Node1 -->
<g id="Node000001" class="node">
<title>Node1</title>
<g id="a_Node000001"><a xlink:title=" ">
<polygon fill="#999999" stroke="none" points="178,-60.5 0,-60.5 0,-41.25 178,-41.25 178,-60.5"/>
<text xml:space="preserve" text-anchor="start" x="8" y="-47.05" font-family="Consolas" font-weight="bold" font-size="11.00">npi::log::setColoredConsole</text>
</a>
</g>
</g>
<!-- Node2 -->
<g id="Node000002" class="node">
<title>Node2</title>
<g id="a_Node000002"><a xlink:href="../../d0/d61/classanonymous__namespace_02_log_8cpp_03_1_1_log_core.html#af85854d22c95e86c8802d7d864fcd350" target="_top" xlink:title=" ">
<polygon fill="white" stroke="none" points="347,-101.75 217,-101.75 217,-60 347,-60 347,-101.75"/>
<text xml:space="preserve" text-anchor="start" x="225" y="-87.3" font-family="Consolas" font-size="11.00">anonymous_namespace</text>
<text xml:space="preserve" text-anchor="start" x="225" y="-76.05" font-family="Consolas" font-size="11.00">{Log::cpp}::LogCore</text>
<text xml:space="preserve" text-anchor="middle" x="282" y="-64.8" font-family="Consolas" font-size="11.00">::Inst_</text>
</a>
</g>
</g>
<!-- Node1&#45;&gt;Node2 -->
<g id="edge1_Node000001_Node000002" class="edge">
<title>Node1&#45;&gt;Node2</title>
<g id="a_edge1_Node000001_Node000002"><a xlink:title=" ">
<path fill="none" stroke="#63b8ff" d="M151.22,-60.49C170.31,-63.49 191.5,-66.82 211.13,-69.9"/>
<polygon fill="#63b8ff" stroke="#63b8ff" points="215.96,-70.66 210.67,-72.11 214.7,-70.46 211.02,-69.88 211.02,-69.88 211.02,-69.88 214.7,-70.46 211.37,-67.66 215.96,-70.66"/>
</a>
</g>
</g>
<!-- Node4 -->
<g id="Node000004" class="node">
<title>Node4</title>
<g id="a_Node000004"><a xlink:href="../../d0/d61/classanonymous__namespace_02_log_8cpp_03_1_1_log_core.html#a18c3c555110a16327bd67014b95739eb" target="_top" xlink:title=" ">
<polygon fill="white" stroke="none" points="350,-41.75 214,-41.75 214,0 350,0 350,-41.75"/>
<text xml:space="preserve" text-anchor="start" x="222" y="-27.3" font-family="Consolas" font-size="11.00">anonymous_namespace</text>
<text xml:space="preserve" text-anchor="start" x="222" y="-16.05" font-family="Consolas" font-size="11.00">{Log::cpp}::LogCore</text>
<text xml:space="preserve" text-anchor="middle" x="282" y="-4.8" font-family="Consolas" font-size="11.00">::setColoredConsole_</text>
</a>
</g>
</g>
<!-- Node1&#45;&gt;Node4 -->
<g id="edge4_Node000001_Node000004" class="edge">
<title>Node1&#45;&gt;Node4</title>
<g id="a_edge4_Node000001_Node000004"><a xlink:title=" ">
<path fill="none" stroke="#63b8ff" d="M151.22,-41.26C169.42,-38.4 189.53,-35.24 208.37,-32.28"/>
<polygon fill="#63b8ff" stroke="#63b8ff" points="212.97,-31.56 208.38,-34.56 211.71,-31.76 208.03,-32.34 208.03,-32.34 208.03,-32.34 211.71,-31.76 207.68,-30.11 212.97,-31.56"/>
</a>
</g>
</g>
<!-- Node3 -->
<g id="Node000003" class="node">
<title>Node3</title>
<g id="a_Node000003"><a xlink:href="../../d0/d61/classanonymous__namespace_02_log_8cpp_03_1_1_log_core.html#a730f0868e0c404fa25a887a023b70138" target="_top" xlink:title=" ">
<polygon fill="white" stroke="none" points="516,-101.75 386,-101.75 386,-60 516,-60 516,-101.75"/>
<text xml:space="preserve" text-anchor="start" x="394" y="-87.3" font-family="Consolas" font-size="11.00">anonymous_namespace</text>
<text xml:space="preserve" text-anchor="start" x="394" y="-76.05" font-family="Consolas" font-size="11.00">{Log::cpp}::LogCore</text>
<text xml:space="preserve" text-anchor="middle" x="451" y="-64.8" font-family="Consolas" font-size="11.00">::LogCore</text>
</a>
</g>
</g>
<!-- Node2&#45;&gt;Node3 -->
<g id="edge2_Node000002_Node000003" class="edge">
<title>Node2&#45;&gt;Node3</title>
<g id="a_edge2_Node000002_Node000003"><a xlink:title=" ">
<path fill="none" stroke="#63b8ff" d="M346.61,-80.88C357.5,-80.88 368.87,-80.88 379.91,-80.88"/>
<polygon fill="#63b8ff" stroke="#63b8ff" points="384.79,-80.88 379.79,-83.13 383.51,-80.88 379.79,-80.88 379.79,-80.88 379.79,-80.88 383.51,-80.88 379.79,-78.63 384.79,-80.88"/>
</a>
</g>
</g>
<!-- Node3&#45;&gt;Node3 -->
<g id="edge3_Node000003_Node000003" class="edge">
<title>Node3&#45;&gt;Node3</title>
<g id="a_edge3_Node000003_Node000003"><a xlink:title=" ">
<path fill="none" stroke="#63b8ff" d="M419.94,-101.67C416.55,-111.32 426.9,-119.75 451,-119.75 469.82,-119.75 480.26,-114.61 482.31,-107.75"/>
<polygon fill="#63b8ff" stroke="#63b8ff" points="482.11,-102.89 484.57,-107.79 482.16,-104.17 482.32,-107.89 482.32,-107.89 482.32,-107.89 482.16,-104.17 480.07,-107.98 482.11,-102.89"/>
</a>
</g>
</g>
<!-- Node5 -->
<g id="Node000005" class="node">
<title>Node5</title>
<g id="a_Node000005"><a xlink:href="../../d0/d61/classanonymous__namespace_02_log_8cpp_03_1_1_log_core.html#a5fa684811c33eea49f63593fea332de4" target="_top" xlink:title=" ">
<polygon fill="white" stroke="none" points="516,-41.75 386,-41.75 386,0 516,0 516,-41.75"/>
<text xml:space="preserve" text-anchor="start" x="394" y="-27.3" font-family="Consolas" font-size="11.00">anonymous_namespace</text>
<text xml:space="preserve" text-anchor="start" x="394" y="-16.05" font-family="Consolas" font-size="11.00">{Log::cpp}::LogCore</text>
<text xml:space="preserve" text-anchor="middle" x="451" y="-4.8" font-family="Consolas" font-size="11.00">::saveSettings_</text>
</a>
</g>
</g>
<!-- Node4&#45;&gt;Node5 -->
<g id="edge5_Node000004_Node000005" class="edge">
<title>Node4&#45;&gt;Node5</title>
<g id="a_edge5_Node000004_Node000005"><a xlink:title=" ">
<path fill="none" stroke="#63b8ff" d="M349.96,-20.88C359.81,-20.88 369.97,-20.88 379.88,-20.88"/>
<polygon fill="#63b8ff" stroke="#63b8ff" points="384.79,-20.88 379.79,-23.13 383.51,-20.88 379.79,-20.88 379.79,-20.88 379.79,-20.88 383.51,-20.88 379.79,-18.63 384.79,-20.88"/>
</a>
</g>
</g>
<!-- Node6 -->
<g id="Node000006" class="node">
<title>Node6</title>
<g id="a_Node000006"><a xlink:href="../../dc/dba/namespacenpi_1_1app.html#a40a2a28831f2f410c995f0657baf6544" target="_top" xlink:title="Absolute application&#45;level ProgramData path.">
<polygon fill="white" stroke="none" points="730,-30.5 552,-30.5 552,-11.25 730,-11.25 730,-30.5"/>
<text xml:space="preserve" text-anchor="middle" x="641" y="-16.05" font-family="Consolas" font-size="11.00">npi::app::appProgramDataDir</text>
</a>
</g>
</g>
<!-- Node5&#45;&gt;Node6 -->
<g id="edge6_Node000005_Node000006" class="edge">
<title>Node5&#45;&gt;Node6</title>
<g id="a_edge6_Node000005_Node000006"><a xlink:title=" ">
<path fill="none" stroke="#63b8ff" d="M515.91,-20.88C525.7,-20.88 535.97,-20.88 546.24,-20.88"/>
<polygon fill="#63b8ff" stroke="#63b8ff" points="551.07,-20.88 546.07,-23.13 549.79,-20.88 546.07,-20.88 546.07,-20.88 546.07,-20.88 549.79,-20.88 546.07,-18.63 551.07,-20.88"/>
</a>
</g>
</g>
<!-- Node7 -->
<g id="Node000007" class="node">
<title>Node7</title>
<g id="a_Node000007"><a xlink:href="../../dc/dba/namespacenpi_1_1app.html#a30836be8b9337a64733a6e05594b23c8" target="_top" xlink:title="Absolute organization&#45;level ProgramData path.">
<polygon fill="white" stroke="none" points="944,-30.5 766,-30.5 766,-11.25 944,-11.25 944,-30.5"/>
<text xml:space="preserve" text-anchor="middle" x="855" y="-16.05" font-family="Consolas" font-size="11.00">npi::app::orgProgramDataDir</text>
</a>
</g>
</g>
<!-- Node6&#45;&gt;Node7 -->
<g id="edge7_Node000006_Node000007" class="edge">
<title>Node6&#45;&gt;Node7</title>
<g id="a_edge7_Node000006_Node000007"><a xlink:title=" ">
<path fill="none" stroke="#63b8ff" d="M729.76,-20.88C739.85,-20.88 750.17,-20.88 760.34,-20.88"/>
<polygon fill="#63b8ff" stroke="#63b8ff" points="765.09,-20.88 760.09,-23.13 763.81,-20.88 760.09,-20.88 760.09,-20.88 760.09,-20.88 763.81,-20.88 760.09,-18.63 765.09,-20.88"/>
</a>
</g>
</g>
<!-- Node8 -->
<g id="Node000008" class="node">
<title>Node8</title>
<g id="a_Node000008"><a xlink:href="../../df/d40/namespaceanonymous__namespace_02_meta_paths_8cpp_03.html#a6b23c92ed8a542082d8cddde4bd55b47" target="_top" xlink:title="Resolve base path using Known Folder ID or environment variable fallback.">
<polygon fill="white" stroke="none" points="1152,-36.12 980,-36.12 980,-5.63 1152,-5.63 1152,-36.12"/>
<text xml:space="preserve" text-anchor="start" x="988" y="-21.68" font-family="Consolas" font-size="11.00">anonymous_namespace</text>
<text xml:space="preserve" text-anchor="middle" x="1066" y="-10.43" font-family="Consolas" font-size="11.00">{MetaPaths::cpp}::basePath</text>
</a>
</g>
</g>
<!-- Node7&#45;&gt;Node8 -->
<g id="edge8_Node000007_Node000008" class="edge">
<title>Node7&#45;&gt;Node8</title>
<g id="a_edge8_Node000007_Node000008"><a xlink:title=" ">
<path fill="none" stroke="#63b8ff" d="M943.73,-20.88C953.81,-20.88 964.11,-20.88 974.24,-20.88"/>
<polygon fill="#63b8ff" stroke="#63b8ff" points="978.95,-20.88 973.95,-23.13 977.67,-20.88 973.95,-20.88 973.95,-20.88 973.95,-20.88 977.67,-20.88 973.95,-18.63 978.95,-20.88"/>
</a>
</g>
</g>
<!-- Node9 -->
<g id="Node000009" class="node">
<title>Node9</title>
<g id="a_Node000009"><a xlink:href="../../dc/dba/namespacenpi_1_1app.html#a30b5245afa890e98f19f43c58f29e633" target="_top" xlink:title="Windows native fatal error message box.">
<polygon fill="white" stroke="none" points="1372,-30.5 1188,-30.5 1188,-11.25 1372,-11.25 1372,-30.5"/>
<text xml:space="preserve" text-anchor="middle" x="1280" y="-16.05" font-family="Consolas" font-size="11.00">npi::app::nativeFatalMessage</text>
</a>
</g>
</g>
<!-- Node8&#45;&gt;Node9 -->
<g id="edge9_Node000008_Node000009" class="edge">
<title>Node8&#45;&gt;Node9</title>
<g id="a_edge9_Node000008_Node000009"><a xlink:title=" ">
<path fill="none" stroke="#63b8ff" d="M1151.7,-20.88C1161.73,-20.88 1172.02,-20.88 1182.2,-20.88"/>
<polygon fill="#63b8ff" stroke="#63b8ff" points="1186.96,-20.88 1181.96,-23.13 1185.68,-20.88 1181.96,-20.88 1181.96,-20.88 1181.96,-20.88 1185.68,-20.88 1181.96,-18.63 1186.96,-20.88"/>
</a>
</g>
</g>
</g>
</svg>
