<?xml version="1.0" encoding="UTF-8" standalone="no"?>
<!DOCTYPE svg PUBLIC "-//W3C//DTD SVG 1.1//EN"
 "http://www.w3.org/Graphics/SVG/1.1/DTD/svg11.dtd">
<!-- Generated by graphviz version 14.0.0 (20250921.2048)
 -->
<!-- Title: npi::log::getConfig Pages: 1 -->
<!--zoomable 185 -->

<svg id="main" version="1.1" xmlns="http://www.w3.org/2000/svg" xmlns:xlink="http://www.w3.org/1999/xlink" xml:space="preserve" onload="init(evt)">

<style type="text/css"><![CDATA[
.node, .edge {opacity: 0.7;}
.node.selected, .edge.selected {opacity: 1;}
.edge:hover path { stroke: red; }
.edge:hover polygon { stroke: red; fill: red; }
]]></style>

<defs>
  <circle id="rim" cx="0" cy="0" r="7"/>
  <circle id="rim2" cx="0" cy="0" r="3.5"/>
  <g id="zoomPlus">
    <use xlink:href="#rim" fill="#404040"><set attributeName="fill" to="#808080" begin="zoomplus.mouseover" end="zoomplus.mouseout"/></use>
    <path d="M-4,0h8M0,-4v8" fill="none" stroke="white" stroke-width="1.5" pointer-events="none"/>
  </g>
  <g id="zoomMin">
    <use xlink:href="#rim" fill="#404040"><set attributeName="fill" to="#808080" begin="zoomminus.mouseover" end="zoomminus.mouseout"/></use>
    <path d="M-4,0h8" fill="none" stroke="white" stroke-width="1.5" pointer-events="none"/>
  </g>
  <g id="arrowUp" transform="translate(30 24)">
    <use xlink:href="#rim"/>
    <path pointer-events="none" fill="none" stroke="white" stroke-width="1.5" d="M0,-3.0v7 M-2.5,-0.5L0,-3.0L2.5,-0.5"/>
  </g>
  <g id="arrowRight" transform="rotate(90) translate(36 -43)">
    <use xlink:href="#rim"/>
    <path pointer-events="none" fill="none" stroke="white" stroke-width="1.5" d="M0,-3.0v7 M-2.5,-0.5L0,-3.0L2.5,-0.5"/>
  </g>
  <g id="arrowDown" transform="rotate(180) translate(-30 -48)">
    <use xlink:href="#rim"/>
    <path pointer-events="none" fill="none" stroke="white" stroke-width="1.5" d="M0,-3.0v7 M-2.5,-0.5L0,-3.0L2.5,-0.5"/>
  </g>
  <g id="arrowLeft" transform="rotate(270) translate(-36 17)">
    <use xlink:href="#rim"/>
    <path pointer-events="none" fill="none" stroke="white" stroke-width="1.5" d="M0,-3.0v7 M-2.5,-0.5L0,-3.0L2.5,-0.5"/>
  </g>
  <g id="resetDef">
    <use xlink:href="#rim2" fill="#404040"><set attributeName="fill" to="#808080" begin="reset.mouseover" end="reset.mouseout"/></use>
  </g>
</defs>
<script type="application/ecmascript">
var viewWidth = 1286;
var viewHeight = 185;
var sectionId = 'dynsection-2';
</script>
<script type="application/ecmascript" xlink:href="../../svg.min.js"/>
<svg id="graph" class="graph">
<g id="viewport">
<title>npi::log::getConfig</title>
<!-- Node1 -->
<g id="Node000001" class="node">
<title>Node1</title>
<g id="a_Node000001"><a xlink:title=" ">
<polygon fill="#999999" stroke="none" points="130,-86.88 0,-86.88 0,-67.62 130,-67.62 130,-86.88"/>
<text xml:space="preserve" text-anchor="start" x="8" y="-73.42" font-family="Consolas" font-weight="bold" font-size="11.00">npi::log::getConfig</text>
</a>
</g>
</g>
<!-- Node2 -->
<g id="Node000002" class="node">
<title>Node2</title>
<g id="a_Node000002"><a xlink:href="../../dc/d8e/namespaceanonymous__namespace_02_log_8cpp_03.html#aeff2e7bab0c6e2ea92dca005b93c47c4" target="_top" xlink:title=" ">
<polygon fill="white" stroke="none" points="570,-111.5 392,-111.5 392,-81 570,-81 570,-111.5"/>
<text xml:space="preserve" text-anchor="start" x="400" y="-97.05" font-family="Consolas" font-size="11.00">anonymous_namespace</text>
<text xml:space="preserve" text-anchor="middle" x="481" y="-85.8" font-family="Consolas" font-size="11.00">{Log::cpp}::aCleanedDirPath</text>
</a>
</g>
</g>
<!-- Node1&#45;&gt;Node2 -->
<g id="edge1_Node000001_Node000002" class="edge">
<title>Node1&#45;&gt;Node2</title>
<g id="a_edge1_Node000001_Node000002"><a xlink:title=" ">
<path fill="none" stroke="#63b8ff" d="M129.78,-80.18C198.31,-83.32 307.91,-88.35 386.25,-91.95"/>
<polygon fill="#63b8ff" stroke="#63b8ff" points="391.09,-92.17 385.99,-94.19 389.81,-92.11 386.1,-91.94 386.1,-91.94 386.1,-91.94 389.81,-92.11 386.2,-89.69 391.09,-92.17"/>
</a>
</g>
</g>
<!-- Node3 -->
<g id="Node000003" class="node">
<title>Node3</title>
<g id="a_Node000003"><a xlink:href="../../dc/d8e/namespaceanonymous__namespace_02_log_8cpp_03.html#a4fd28b9a729792528c3707da82453049" target="_top" xlink:title=" ">
<polygon fill="white" stroke="none" points="344,-30.5 166,-30.5 166,0 344,0 344,-30.5"/>
<text xml:space="preserve" text-anchor="start" x="174" y="-16.05" font-family="Consolas" font-size="11.00">anonymous_namespace</text>
<text xml:space="preserve" text-anchor="middle" x="255" y="-4.8" font-family="Consolas" font-size="11.00">{Log::cpp}::aConfigLockName</text>
</a>
</g>
</g>
<!-- Node1&#45;&gt;Node3 -->
<g id="edge2_Node000001_Node000003" class="edge">
<title>Node1&#45;&gt;Node3</title>
<g id="a_edge2_Node000001_Node000003"><a xlink:title=" ">
<path fill="none" stroke="#63b8ff" d="M89.21,-67.7C109.33,-59.59 139.33,-47.93 166,-39.25 173.44,-36.83 181.29,-34.45 189.1,-32.18"/>
<polygon fill="#63b8ff" stroke="#63b8ff" points="193.9,-30.81 189.71,-34.35 192.67,-31.16 189.09,-32.19 189.09,-32.19 189.09,-32.19 192.67,-31.16 188.47,-30.02 193.9,-30.81"/>
</a>
</g>
</g>
<!-- Node4 -->
<g id="Node000004" class="node">
<title>Node4</title>
<g id="a_Node000004"><a xlink:href="../../dc/dba/namespacenpi_1_1app.html#a40a2a28831f2f410c995f0657baf6544" target="_top" xlink:title="Absolute application&#45;level ProgramData path.">
<polygon fill="white" stroke="none" points="570,-148.88 392,-148.88 392,-129.62 570,-129.62 570,-148.88"/>
<text xml:space="preserve" text-anchor="middle" x="481" y="-134.43" font-family="Consolas" font-size="11.00">npi::app::appProgramDataDir</text>
</a>
</g>
</g>
<!-- Node1&#45;&gt;Node4 -->
<g id="edge3_Node000001_Node000004" class="edge">
<title>Node1&#45;&gt;Node4</title>
<g id="a_edge3_Node000001_Node000004"><a xlink:title=" ">
<path fill="none" stroke="#63b8ff" d="M105.74,-86.85C124.02,-91.05 146.03,-95.79 166,-99.25 239.57,-112 323.49,-122.49 386.06,-129.52"/>
<polygon fill="#63b8ff" stroke="#63b8ff" points="390.83,-130.05 385.62,-131.73 389.56,-129.91 385.87,-129.49 385.87,-129.49 385.87,-129.49 389.56,-129.91 386.12,-127.26 390.83,-130.05"/>
</a>
</g>
</g>
<!-- Node9 -->
<g id="Node000009" class="node">
<title>Node9</title>
<g id="a_Node000009"><a xlink:href="../../d5/ddd/namespacenpi_1_1log.html#adc43e95b1d6b8f65bb04565dfda8a776" target="_top" xlink:title=" ">
<polygon fill="white" stroke="none" points="323,-67.88 187,-67.88 187,-48.62 323,-48.62 323,-67.88"/>
<text xml:space="preserve" text-anchor="middle" x="255" y="-53.42" font-family="Consolas" font-size="11.00">npi::log::defaultDir</text>
</a>
</g>
</g>
<!-- Node1&#45;&gt;Node9 -->
<g id="edge10_Node000001_Node000009" class="edge">
<title>Node1&#45;&gt;Node9</title>
<g id="a_edge10_Node000001_Node000009"><a xlink:title=" ">
<path fill="none" stroke="#63b8ff" d="M129.91,-70.79C146.31,-69.13 164.08,-67.34 180.91,-65.64"/>
<polygon fill="#63b8ff" stroke="#63b8ff" points="185.85,-65.14 181.1,-67.88 184.57,-65.27 180.87,-65.64 180.87,-65.64 180.87,-65.64 184.57,-65.27 180.64,-63.4 185.85,-65.14"/>
</a>
</g>
</g>
<!-- Node5 -->
<g id="Node000005" class="node">
<title>Node5</title>
<g id="a_Node000005"><a xlink:href="../../df/d40/namespaceanonymous__namespace_02_meta_paths_8cpp_03.html#a1554aad28987c554d0ff1c379ce0567e" target="_top" xlink:title="Create subdirectory under base path.">
<polygon fill="white" stroke="none" points="1058,-106.5 856,-106.5 856,-76 1058,-76 1058,-106.5"/>
<text xml:space="preserve" text-anchor="start" x="864" y="-92.05" font-family="Consolas" font-size="11.00">anonymous_namespace</text>
<text xml:space="preserve" text-anchor="middle" x="957" y="-80.8" font-family="Consolas" font-size="11.00">{MetaPaths::cpp}::aCreateSubDir</text>
</a>
</g>
</g>
<!-- Node4&#45;&gt;Node5 -->
<g id="edge4_Node000004_Node000005" class="edge">
<title>Node4&#45;&gt;Node5</title>
<g id="a_edge4_Node000004_Node000005"><a xlink:title=" ">
<path fill="none" stroke="#63b8ff" d="M569.67,-133.01C637.97,-127.85 735.14,-119.81 820,-110.25 829.8,-109.15 839.99,-107.9 850.18,-106.59"/>
<polygon fill="#63b8ff" stroke="#63b8ff" points="854.97,-105.97 850.3,-108.85 853.7,-106.14 850.01,-106.61 850.01,-106.61 850.01,-106.61 853.7,-106.14 849.72,-104.38 854.97,-105.97"/>
</a>
</g>
</g>
<!-- Node7 -->
<g id="Node000007" class="node">
<title>Node7</title>
<g id="a_Node000007"><a xlink:href="../../dc/dba/namespacenpi_1_1app.html#a30836be8b9337a64733a6e05594b23c8" target="_top" xlink:title="Absolute organization&#45;level ProgramData path.">
<polygon fill="white" stroke="none" points="808,-176.88 630,-176.88 630,-157.62 808,-157.62 808,-176.88"/>
<text xml:space="preserve" text-anchor="middle" x="719" y="-162.43" font-family="Consolas" font-size="11.00">npi::app::orgProgramDataDir</text>
</a>
</g>
</g>
<!-- Node4&#45;&gt;Node7 -->
<g id="edge6_Node000004_Node000007" class="edge">
<title>Node4&#45;&gt;Node7</title>
<g id="a_edge6_Node000004_Node000007"><a xlink:title=" ">
<path fill="none" stroke="#63b8ff" d="M562.89,-148.85C584.94,-151.46 608.91,-154.31 631.27,-156.96"/>
<polygon fill="#63b8ff" stroke="#63b8ff" points="636.01,-157.52 630.78,-159.17 634.74,-157.37 631.04,-156.93 631.04,-156.93 631.04,-156.93 634.74,-157.37 631.31,-154.7 636.01,-157.52"/>
</a>
</g>
</g>
<!-- Node6 -->
<g id="Node000006" class="node">
<title>Node6</title>
<g id="a_Node000006"><a xlink:href="../../dc/dba/namespacenpi_1_1app.html#a30b5245afa890e98f19f43c58f29e633" target="_top" xlink:title="Windows native fatal error message box.">
<polygon fill="white" stroke="none" points="1278,-100.88 1094,-100.88 1094,-81.62 1278,-81.62 1278,-100.88"/>
<text xml:space="preserve" text-anchor="middle" x="1186" y="-86.42" font-family="Consolas" font-size="11.00">npi::app::nativeFatalMessage</text>
</a>
</g>
</g>
<!-- Node5&#45;&gt;Node6 -->
<g id="edge5_Node000005_Node000006" class="edge">
<title>Node5&#45;&gt;Node6</title>
<g id="a_edge5_Node000005_Node000006"><a xlink:title=" ">
<path fill="none" stroke="#63b8ff" d="M1057.9,-91.25C1067.84,-91.25 1077.94,-91.25 1087.86,-91.25"/>
<polygon fill="#63b8ff" stroke="#63b8ff" points="1092.79,-91.25 1087.79,-93.5 1091.51,-91.25 1087.79,-91.25 1087.79,-91.25 1087.79,-91.25 1091.51,-91.25 1087.79,-89 1092.79,-91.25"/>
</a>
</g>
</g>
<!-- Node7&#45;&gt;Node5 -->
<g id="edge9_Node000007_Node000005" class="edge">
<title>Node7&#45;&gt;Node5</title>
<g id="a_edge9_Node000007_Node000005"><a xlink:title=" ">
<path fill="none" stroke="#63b8ff" d="M777.69,-157.63C791.91,-154.12 806.83,-149.44 820,-143.25 838.1,-134.74 837.94,-124.85 856,-116.25 862.19,-113.31 868.76,-110.68 875.46,-108.35"/>
<polygon fill="#63b8ff" stroke="#63b8ff" points="879.96,-106.85 875.93,-110.57 878.75,-107.25 875.22,-108.43 875.22,-108.43 875.22,-108.43 878.75,-107.25 874.51,-106.3 879.96,-106.85"/>
</a>
</g>
</g>
<!-- Node8 -->
<g id="Node000008" class="node">
<title>Node8</title>
<g id="a_Node000008"><a xlink:href="../../df/d40/namespaceanonymous__namespace_02_meta_paths_8cpp_03.html#a1ba3938f670cc7526df2081bf6f6c0ce" target="_top" xlink:title="Resolve base path using Known Folder ID or environment variable fallback.">
<polygon fill="white" stroke="none" points="1046,-155.5 868,-155.5 868,-125 1046,-125 1046,-155.5"/>
<text xml:space="preserve" text-anchor="start" x="876" y="-141.05" font-family="Consolas" font-size="11.00">anonymous_namespace</text>
<text xml:space="preserve" text-anchor="middle" x="957" y="-129.8" font-family="Consolas" font-size="11.00">{MetaPaths::cpp}::aBasePath</text>
</a>
</g>
</g>
<!-- Node7&#45;&gt;Node8 -->
<g id="edge7_Node000007_Node000008" class="edge">
<title>Node7&#45;&gt;Node8</title>
<g id="a_edge7_Node000007_Node000008"><a xlink:title=" ">
<path fill="none" stroke="#63b8ff" d="M803.87,-157.65C822.72,-155.5 842.84,-153.2 862.07,-151"/>
<polygon fill="#63b8ff" stroke="#63b8ff" points="866.8,-150.46 862.09,-153.26 865.53,-150.6 861.83,-151.02 861.83,-151.02 861.83,-151.02 865.53,-150.6 861.58,-148.79 866.8,-150.46"/>
</a>
</g>
</g>
<!-- Node8&#45;&gt;Node6 -->
<g id="edge8_Node000008_Node000006" class="edge">
<title>Node8&#45;&gt;Node6</title>
<g id="a_edge8_Node000008_Node000006"><a xlink:title=" ">
<path fill="none" stroke="#63b8ff" d="M1028.58,-125.01C1063.01,-117.58 1103.62,-108.82 1134.83,-102.08"/>
<polygon fill="#63b8ff" stroke="#63b8ff" points="1139.35,-101.1 1134.94,-104.36 1138.1,-101.37 1134.46,-102.16 1134.46,-102.16 1134.46,-102.16 1138.1,-101.37 1133.99,-99.96 1139.35,-101.1"/>
</a>
</g>
</g>
<!-- Node9&#45;&gt;Node2 -->
<g id="edge11_Node000009_Node000002" class="edge">
<title>Node9&#45;&gt;Node2</title>
<g id="a_edge11_Node000009_Node000002"><a xlink:title=" ">
<path fill="none" stroke="#63b8ff" d="M312.52,-67.84C334.84,-71.63 361.09,-76.08 386.1,-80.32"/>
<polygon fill="#63b8ff" stroke="#63b8ff" points="390.89,-81.13 385.58,-82.52 389.63,-80.92 385.96,-80.3 385.96,-80.3 385.96,-80.3 389.63,-80.92 386.34,-78.08 390.89,-81.13"/>
</a>
</g>
</g>
<!-- Node9&#45;&gt;Node6 -->
<g id="edge17_Node000009_Node000006" class="edge">
<title>Node9&#45;&gt;Node6</title>
<g id="a_edge17_Node000009_Node000006"><a xlink:title=" ">
<path fill="none" stroke="#63b8ff" d="M300.84,-48.64C329.83,-42.61 364.88,-35.7 380,-34.25 680.31,-5.45 758.78,-28.74 1058,-67.25 1083.65,-70.55 1111.94,-75.74 1135.29,-80.45"/>
<polygon fill="#63b8ff" stroke="#63b8ff" points="1139.93,-81.4 1134.58,-82.61 1138.67,-81.14 1135.03,-80.4 1135.03,-80.4 1135.03,-80.4 1138.67,-81.14 1135.48,-78.2 1139.93,-81.4"/>
</a>
</g>
</g>
<!-- Node10 -->
<g id="Node000010" class="node">
<title>Node10</title>
<g id="a_Node000010"><a xlink:href="../../dc/dba/namespacenpi_1_1app.html#aff4c7482e4417f59ede04e359548a542" target="_top" xlink:title="Absolute application&#45;level Public/Documents path.">
<polygon fill="white" stroke="none" points="582,-62.88 380,-62.88 380,-43.62 582,-43.62 582,-62.88"/>
<text xml:space="preserve" text-anchor="middle" x="481" y="-48.42" font-family="Consolas" font-size="11.00">npi::app::appPublicDocumentsDir</text>
</a>
</g>
</g>
<!-- Node9&#45;&gt;Node10 -->
<g id="edge12_Node000009_Node000010" class="edge">
<title>Node9&#45;&gt;Node10</title>
<g id="a_edge12_Node000009_Node000010"><a xlink:title=" ">
<path fill="none" stroke="#63b8ff" d="M322.9,-56.76C339.12,-56.39 356.85,-56 374.37,-55.61"/>
<polygon fill="#63b8ff" stroke="#63b8ff" points="379.08,-55.5 374.13,-57.86 377.8,-55.53 374.08,-55.61 374.08,-55.61 374.08,-55.61 377.8,-55.53 374.03,-53.36 379.08,-55.5"/>
</a>
</g>
</g>
<!-- Node10&#45;&gt;Node5 -->
<g id="edge13_Node000010_Node000005" class="edge">
<title>Node10&#45;&gt;Node5</title>
<g id="a_edge13_Node000010_Node000005"><a xlink:title=" ">
<path fill="none" stroke="#63b8ff" d="M582,-56.7C649.36,-59.56 740.16,-64.44 820,-72.25 829.82,-73.21 840.02,-74.36 850.21,-75.6"/>
<polygon fill="#63b8ff" stroke="#63b8ff" points="855.01,-76.2 849.77,-77.81 853.73,-76.04 850.04,-75.58 850.04,-75.58 850.04,-75.58 853.73,-76.04 850.32,-73.35 855.01,-76.2"/>
</a>
</g>
</g>
<!-- Node11 -->
<g id="Node000011" class="node">
<title>Node11</title>
<g id="a_Node000011"><a xlink:href="../../dc/dba/namespacenpi_1_1app.html#ac0dca24602a75822c6f7fcf63f8781d9" target="_top" xlink:title="Absolute organization&#45;level Public/Documents path.">
<polygon fill="white" stroke="none" points="820,-100.88 618,-100.88 618,-81.62 820,-81.62 820,-100.88"/>
<text xml:space="preserve" text-anchor="middle" x="719" y="-86.42" font-family="Consolas" font-size="11.00">npi::app::orgPublicDocumentsDir</text>
</a>
</g>
</g>
<!-- Node10&#45;&gt;Node11 -->
<g id="edge14_Node000010_Node000011" class="edge">
<title>Node10&#45;&gt;Node11</title>
<g id="a_edge14_Node000010_Node000011"><a xlink:title=" ">
<path fill="none" stroke="#63b8ff" d="M541.55,-62.84C575.37,-68.28 617.76,-75.11 652.51,-80.71"/>
<polygon fill="#63b8ff" stroke="#63b8ff" points="657.26,-81.47 651.97,-82.9 656,-81.27 652.33,-80.68 652.33,-80.68 652.33,-80.68 656,-81.27 652.68,-78.45 657.26,-81.47"/>
</a>
</g>
</g>
<!-- Node11&#45;&gt;Node5 -->
<g id="edge16_Node000011_Node000005" class="edge">
<title>Node11&#45;&gt;Node5</title>
<g id="a_edge16_Node000011_Node000005"><a xlink:title=" ">
<path fill="none" stroke="#63b8ff" d="M819.74,-91.25C829.84,-91.25 840.12,-91.25 850.27,-91.25"/>
<polygon fill="#63b8ff" stroke="#63b8ff" points="855.02,-91.25 850.02,-93.5 853.74,-91.25 850.02,-91.25 850.02,-91.25 850.02,-91.25 853.74,-91.25 850.02,-89 855.02,-91.25"/>
</a>
</g>
</g>
<!-- Node11&#45;&gt;Node8 -->
<g id="edge15_Node000011_Node000008" class="edge">
<title>Node11&#45;&gt;Node8</title>
<g id="a_edge15_Node000011_Node000008"><a xlink:title=" ">
<path fill="none" stroke="#63b8ff" d="M766.34,-100.87C797.82,-107.41 840.24,-116.21 876.98,-123.84"/>
<polygon fill="#63b8ff" stroke="#63b8ff" points="881.63,-124.81 876.27,-125.99 880.37,-124.55 876.73,-123.79 876.73,-123.79 876.73,-123.79 880.37,-124.55 877.19,-121.59 881.63,-124.81"/>
</a>
</g>
</g>
</g>
</svg>

<g id="navigator" transform="translate(0 0)" fill="#404254">
  <rect fill="#f2f5e9" fill-opacity="0.5" stroke="#606060" stroke-width=".5" x="0" y="0" width="60" height="60"/>
  <use id="zoomplus" xlink:href="#zoomPlus" x="17" y="9" onmousedown="handleZoom(evt,'in')"/>
  <use id="zoomminus" xlink:href="#zoomMin" x="42" y="9" onmousedown="handleZoom(evt,'out')"/>
  <use id="reset" xlink:href="#resetDef" x="30" y="36" onmousedown="handleReset()"/>
   <use id="arrowup" xlink:href="#arrowUp" x="0" y="0" onmousedown="handlePan(0,-1)"/>
  <use id="arrowright" xlink:href="#arrowRight" x="0" y="0" onmousedown="handlePan(1,0)"/>
  <use id="arrowdown" xlink:href="#arrowDown" x="0" y="0" onmousedown="handlePan(0,1)"/>
  <use id="arrowleft" xlink:href="#arrowLeft" x="0" y="0" onmousedown="handlePan(-1,0)"/>
</g>
<svg viewBox="0 0 15 15" width="100%" height="30px" preserveAspectRatio="xMaxYMin meet">
 <g id="arrow_out" transform="scale(0.3 0.3)">
  <a xlink:href="namespacenpi_1_1log_ad3a49953f000d2b255f2e32166048605_cgraph_org.svg" target="_base">
   <rect id="button" ry="5" rx="5" y="6" x="6" height="38" width="38"
        fill="#f2f5e9" fill-opacity="0.5" stroke="#606060" stroke-width="1.0"/>
   <path id="arrow"
     d="M 11.500037,31.436501 C 11.940474,20.09759 22.043105,11.32322 32.158766,21.979434 L 37.068811,17.246167 C 37.068811,17.246167 37.088388,32 37.088388,32 L 22.160133,31.978069 C 22.160133,31.978069 26.997745,27.140456 26.997745,27.140456 C 18.528582,18.264221 13.291696,25.230495 11.500037,31.436501 z"
     style="fill:#404040;"/>
  </a>
 </g>
</svg>

<style type='text/css'>
<![CDATA[
[data-mouse-over-selected='false'] { opacity: 0.7; }
[data-mouse-over-selected='true']  { opacity: 1.0; }
]]>
</style>
<script type="application/ecmascript"><![CDATA[
document.addEventListener('DOMContentLoaded', (event) => {
  highlightEdges();
  highlightAdjacentNodes();
});
]]></script>
</svg>
