<?xml version="1.0" encoding="UTF-8" standalone="no"?>
<!DOCTYPE svg PUBLIC "-//W3C//DTD SVG 1.1//EN"
 "http://www.w3.org/Graphics/SVG/1.1/DTD/svg11.dtd">
<!-- Generated by graphviz version 14.0.0 (20250921.2048)
 -->
<!-- Title: npi::log::setMaxFolderSize Pages: 1 -->
<!--zoomable 112 -->

<svg id="main" version="1.1" xmlns="http://www.w3.org/2000/svg" xmlns:xlink="http://www.w3.org/1999/xlink" xml:space="preserve" onload="init(evt)">

<style type="text/css"><![CDATA[
.node, .edge {opacity: 0.7;}
.node.selected, .edge.selected {opacity: 1;}
.edge:hover path { stroke: red; }
.edge:hover polygon { stroke: red; fill: red; }
]]></style>

<defs>
  <circle id="rim" cx="0" cy="0" r="7"/>
  <circle id="rim2" cx="0" cy="0" r="3.5"/>
  <g id="zoomPlus">
    <use xlink:href="#rim" fill="#404040"><set attributeName="fill" to="#808080" begin="zoomplus.mouseover" end="zoomplus.mouseout"/></use>
    <path d="M-4,0h8M0,-4v8" fill="none" stroke="white" stroke-width="1.5" pointer-events="none"/>
  </g>
  <g id="zoomMin">
    <use xlink:href="#rim" fill="#404040"><set attributeName="fill" to="#808080" begin="zoomminus.mouseover" end="zoomminus.mouseout"/></use>
    <path d="M-4,0h8" fill="none" stroke="white" stroke-width="1.5" pointer-events="none"/>
  </g>
  <g id="arrowUp" transform="translate(30 24)">
    <use xlink:href="#rim"/>
    <path pointer-events="none" fill="none" stroke="white" stroke-width="1.5" d="M0,-3.0v7 M-2.5,-0.5L0,-3.0L2.5,-0.5"/>
  </g>
  <g id="arrowRight" transform="rotate(90) translate(36 -43)">
    <use xlink:href="#rim"/>
    <path pointer-events="none" fill="none" stroke="white" stroke-width="1.5" d="M0,-3.0v7 M-2.5,-0.5L0,-3.0L2.5,-0.5"/>
  </g>
  <g id="arrowDown" transform="rotate(180) translate(-30 -48)">
    <use xlink:href="#rim"/>
    <path pointer-events="none" fill="none" stroke="white" stroke-width="1.5" d="M0,-3.0v7 M-2.5,-0.5L0,-3.0L2.5,-0.5"/>
  </g>
  <g id="arrowLeft" transform="rotate(270) translate(-36 17)">
    <use xlink:href="#rim"/>
    <path pointer-events="none" fill="none" stroke="white" stroke-width="1.5" d="M0,-3.0v7 M-2.5,-0.5L0,-3.0L2.5,-0.5"/>
  </g>
  <g id="resetDef">
    <use xlink:href="#rim2" fill="#404040"><set attributeName="fill" to="#808080" begin="reset.mouseover" end="reset.mouseout"/></use>
  </g>
</defs>
<script type="application/ecmascript">
var viewWidth = 1066;
var viewHeight = 112;
var sectionId = 'dynsection-6';
</script>
<script type="application/ecmascript" xlink:href="../../svg.min.js"/>
<svg id="graph" class="graph">
<g id="viewport">
<title>npi::log::setMaxFolderSize</title>
<!-- Node1 -->
<g id="Node000001" class="node">
<title>Node1</title>
<g id="a_Node000001"><a xlink:title=" ">
<polygon fill="#999999" stroke="none" points="172,-75.88 0,-75.88 0,-56.62 172,-56.62 172,-75.88"/>
<text xml:space="preserve" text-anchor="start" x="8" y="-62.42" font-family="Consolas" font-weight="bold" font-size="11.00">npi::log::setMaxFolderSize</text>
</a>
</g>
</g>
<!-- Node2 -->
<g id="Node000002" class="node">
<title>Node2</title>
<g id="a_Node000002"><a xlink:href="../../dc/d8e/namespaceanonymous__namespace_02_log_8cpp_03.html#a4fd28b9a729792528c3707da82453049" target="_top" xlink:title=" ">
<polygon fill="white" stroke="none" points="386,-103.5 208,-103.5 208,-73 386,-73 386,-103.5"/>
<text xml:space="preserve" text-anchor="start" x="216" y="-89.05" font-family="Consolas" font-size="11.00">anonymous_namespace</text>
<text xml:space="preserve" text-anchor="middle" x="297" y="-77.8" font-family="Consolas" font-size="11.00">{Log::cpp}::aConfigLockName</text>
</a>
</g>
</g>
<!-- Node1&#45;&gt;Node2 -->
<g id="edge1_Node000001_Node000002" class="edge">
<title>Node1&#45;&gt;Node2</title>
<g id="a_edge1_Node000001_Node000002"><a xlink:title=" ">
<path fill="none" stroke="#63b8ff" d="M171.71,-75.17C181.73,-76.22 192.01,-77.3 202.16,-78.37"/>
<polygon fill="#63b8ff" stroke="#63b8ff" points="206.9,-78.87 201.69,-80.58 205.62,-78.74 201.93,-78.35 201.93,-78.35 201.93,-78.35 205.62,-78.74 202.16,-76.11 206.9,-78.87"/>
</a>
</g>
</g>
<!-- Node3 -->
<g id="Node000003" class="node">
<title>Node3</title>
<g id="a_Node000003"><a xlink:href="../../dc/dba/namespacenpi_1_1app.html#a40a2a28831f2f410c995f0657baf6544" target="_top" xlink:title="Absolute application&#45;level ProgramData path.">
<polygon fill="white" stroke="none" points="386,-54.88 208,-54.88 208,-35.62 386,-35.62 386,-54.88"/>
<text xml:space="preserve" text-anchor="middle" x="297" y="-40.42" font-family="Consolas" font-size="11.00">npi::app::appProgramDataDir</text>
</a>
</g>
</g>
<!-- Node1&#45;&gt;Node3 -->
<g id="edge2_Node000001_Node000003" class="edge">
<title>Node1&#45;&gt;Node3</title>
<g id="a_edge2_Node000001_Node000003"><a xlink:title=" ">
<path fill="none" stroke="#63b8ff" d="M171.71,-57.74C181.73,-56.73 192.01,-55.7 202.16,-54.68"/>
<polygon fill="#63b8ff" stroke="#63b8ff" points="206.9,-54.2 202.15,-56.94 205.62,-54.33 201.92,-54.7 201.92,-54.7 201.92,-54.7 205.62,-54.33 201.7,-52.46 206.9,-54.2"/>
</a>
</g>
</g>
<!-- Node4 -->
<g id="Node000004" class="node">
<title>Node4</title>
<g id="a_Node000004"><a xlink:href="../../df/d40/namespaceanonymous__namespace_02_meta_paths_8cpp_03.html#a1554aad28987c554d0ff1c379ce0567e" target="_top" xlink:title="Create subdirectory under base path.">
<polygon fill="white" stroke="none" points="838,-79.5 636,-79.5 636,-49 838,-49 838,-79.5"/>
<text xml:space="preserve" text-anchor="start" x="644" y="-65.05" font-family="Consolas" font-size="11.00">anonymous_namespace</text>
<text xml:space="preserve" text-anchor="middle" x="737" y="-53.8" font-family="Consolas" font-size="11.00">{MetaPaths::cpp}::aCreateSubDir</text>
</a>
</g>
</g>
<!-- Node3&#45;&gt;Node4 -->
<g id="edge3_Node000003_Node000004" class="edge">
<title>Node3&#45;&gt;Node4</title>
<g id="a_edge3_Node000003_Node000004"><a xlink:title=" ">
<path fill="none" stroke="#63b8ff" d="M385.85,-49.06C456.31,-52.12 555.44,-56.42 630.26,-59.66"/>
<polygon fill="#63b8ff" stroke="#63b8ff" points="634.84,-59.86 629.74,-61.89 633.55,-59.81 629.84,-59.64 629.84,-59.64 629.84,-59.64 633.55,-59.81 629.94,-57.4 634.84,-59.86"/>
</a>
</g>
</g>
<!-- Node6 -->
<g id="Node000006" class="node">
<title>Node6</title>
<g id="a_Node000006"><a xlink:href="../../dc/dba/namespacenpi_1_1app.html#a30836be8b9337a64733a6e05594b23c8" target="_top" xlink:title="Absolute organization&#45;level ProgramData path.">
<polygon fill="white" stroke="none" points="600,-35.88 422,-35.88 422,-16.62 600,-16.62 600,-35.88"/>
<text xml:space="preserve" text-anchor="middle" x="511" y="-21.43" font-family="Consolas" font-size="11.00">npi::app::orgProgramDataDir</text>
</a>
</g>
</g>
<!-- Node3&#45;&gt;Node6 -->
<g id="edge5_Node000003_Node000006" class="edge">
<title>Node3&#45;&gt;Node6</title>
<g id="a_edge5_Node000003_Node000006"><a xlink:title=" ">
<path fill="none" stroke="#63b8ff" d="M385.76,-37.38C395.85,-36.48 406.17,-35.56 416.34,-34.64"/>
<polygon fill="#63b8ff" stroke="#63b8ff" points="421.09,-34.22 416.31,-36.91 419.82,-34.33 416.11,-34.66 416.11,-34.66 416.11,-34.66 419.82,-34.33 415.91,-32.42 421.09,-34.22"/>
</a>
</g>
</g>
<!-- Node5 -->
<g id="Node000005" class="node">
<title>Node5</title>
<g id="a_Node000005"><a xlink:href="../../dc/dba/namespacenpi_1_1app.html#a30b5245afa890e98f19f43c58f29e633" target="_top" xlink:title="Windows native fatal error message box.">
<polygon fill="white" stroke="none" points="1058,-48.88 874,-48.88 874,-29.62 1058,-29.62 1058,-48.88"/>
<text xml:space="preserve" text-anchor="middle" x="966" y="-34.42" font-family="Consolas" font-size="11.00">npi::app::nativeFatalMessage</text>
</a>
</g>
</g>
<!-- Node4&#45;&gt;Node5 -->
<g id="edge4_Node000004_Node000005" class="edge">
<title>Node4&#45;&gt;Node5</title>
<g id="a_edge4_Node000004_Node000005"><a xlink:title=" ">
<path fill="none" stroke="#63b8ff" d="M837.9,-53.25C849.14,-52.01 860.56,-50.75 871.71,-49.52"/>
<polygon fill="#63b8ff" stroke="#63b8ff" points="876.66,-48.98 871.94,-51.76 875.39,-49.12 871.69,-49.53 871.69,-49.53 871.69,-49.53 875.39,-49.12 871.45,-47.29 876.66,-48.98"/>
</a>
</g>
</g>
<!-- Node6&#45;&gt;Node4 -->
<g id="edge8_Node000006_Node000004" class="edge">
<title>Node6&#45;&gt;Node4</title>
<g id="a_edge8_Node000006_Node000004"><a xlink:title=" ">
<path fill="none" stroke="#63b8ff" d="M568.52,-35.84C590.36,-39.54 615.96,-43.89 640.49,-48.05"/>
<polygon fill="#63b8ff" stroke="#63b8ff" points="645.16,-48.84 639.86,-50.22 643.9,-48.63 640.23,-48 640.23,-48 640.23,-48 643.9,-48.63 640.61,-45.79 645.16,-48.84"/>
</a>
</g>
</g>
<!-- Node7 -->
<g id="Node000007" class="node">
<title>Node7</title>
<g id="a_Node000007"><a xlink:href="../../df/d40/namespaceanonymous__namespace_02_meta_paths_8cpp_03.html#a1ba3938f670cc7526df2081bf6f6c0ce" target="_top" xlink:title="Resolve base path using Known Folder ID or environment variable fallback.">
<polygon fill="white" stroke="none" points="826,-30.5 648,-30.5 648,0 826,0 826,-30.5"/>
<text xml:space="preserve" text-anchor="start" x="656" y="-16.05" font-family="Consolas" font-size="11.00">anonymous_namespace</text>
<text xml:space="preserve" text-anchor="middle" x="737" y="-4.8" font-family="Consolas" font-size="11.00">{MetaPaths::cpp}::aBasePath</text>
</a>
</g>
</g>
<!-- Node6&#45;&gt;Node7 -->
<g id="edge6_Node000006_Node000007" class="edge">
<title>Node6&#45;&gt;Node7</title>
<g id="a_edge6_Node000006_Node000007"><a xlink:title=" ">
<path fill="none" stroke="#63b8ff" d="M599.89,-21.93C613.83,-21.25 628.3,-20.54 642.36,-19.85"/>
<polygon fill="#63b8ff" stroke="#63b8ff" points="647.15,-19.61 642.27,-22.11 645.87,-19.68 642.15,-19.86 642.15,-19.86 642.15,-19.86 645.87,-19.68 642.04,-17.61 647.15,-19.61"/>
</a>
</g>
</g>
<!-- Node7&#45;&gt;Node5 -->
<g id="edge7_Node000007_Node000005" class="edge">
<title>Node7&#45;&gt;Node5</title>
<g id="a_edge7_Node000007_Node000005"><a xlink:title=" ">
<path fill="none" stroke="#63b8ff" d="M825.76,-24.53C839.63,-25.99 854.03,-27.52 868.09,-29"/>
<polygon fill="#63b8ff" stroke="#63b8ff" points="872.88,-29.51 867.67,-31.22 871.61,-29.38 867.91,-28.98 867.91,-28.98 867.91,-28.98 871.61,-29.38 868.14,-26.75 872.88,-29.51"/>
</a>
</g>
</g>
</g>
</svg>

<g id="navigator" transform="translate(0 0)" fill="#404254">
  <rect fill="#f2f5e9" fill-opacity="0.5" stroke="#606060" stroke-width=".5" x="0" y="0" width="60" height="60"/>
  <use id="zoomplus" xlink:href="#zoomPlus" x="17" y="9" onmousedown="handleZoom(evt,'in')"/>
  <use id="zoomminus" xlink:href="#zoomMin" x="42" y="9" onmousedown="handleZoom(evt,'out')"/>
  <use id="reset" xlink:href="#resetDef" x="30" y="36" onmousedown="handleReset()"/>
   <use id="arrowup" xlink:href="#arrowUp" x="0" y="0" onmousedown="handlePan(0,-1)"/>
  <use id="arrowright" xlink:href="#arrowRight" x="0" y="0" onmousedown="handlePan(1,0)"/>
  <use id="arrowdown" xlink:href="#arrowDown" x="0" y="0" onmousedown="handlePan(0,1)"/>
  <use id="arrowleft" xlink:href="#arrowLeft" x="0" y="0" onmousedown="handlePan(-1,0)"/>
</g>
<svg viewBox="0 0 15 15" width="100%" height="30px" preserveAspectRatio="xMaxYMin meet">
 <g id="arrow_out" transform="scale(0.3 0.3)">
  <a xlink:href="namespacenpi_1_1log_a9844dab9537c8747fbab8490418d2dda_cgraph_org.svg" target="_base">
   <rect id="button" ry="5" rx="5" y="6" x="6" height="38" width="38"
        fill="#f2f5e9" fill-opacity="0.5" stroke="#606060" stroke-width="1.0"/>
   <path id="arrow"
     d="M 11.500037,31.436501 C 11.940474,20.09759 22.043105,11.32322 32.158766,21.979434 L 37.068811,17.246167 C 37.068811,17.246167 37.088388,32 37.088388,32 L 22.160133,31.978069 C 22.160133,31.978069 26.997745,27.140456 26.997745,27.140456 C 18.528582,18.264221 13.291696,25.230495 11.500037,31.436501 z"
     style="fill:#404040;"/>
  </a>
 </g>
</svg>

<style type='text/css'>
<![CDATA[
[data-mouse-over-selected='false'] { opacity: 0.7; }
[data-mouse-over-selected='true']  { opacity: 1.0; }
]]>
</style>
<script type="application/ecmascript"><![CDATA[
document.addEventListener('DOMContentLoaded', (event) => {
  highlightEdges();
  highlightAdjacentNodes();
});
]]></script>
</svg>
