<?xml version="1.0" encoding="UTF-8" standalone="no"?>
<!DOCTYPE svg PUBLIC "-//W3C//DTD SVG 1.1//EN"
 "http://www.w3.org/Graphics/SVG/1.1/DTD/svg11.dtd">
<!-- Generated by graphviz version 14.0.0 (20250921.2048)
 -->
<!-- Title: npi::log::dir Pages: 1 -->
<svg width="286pt" height="76pt"
 viewBox="0.00 0.00 286.00 76.00" xmlns="http://www.w3.org/2000/svg" xmlns:xlink="http://www.w3.org/1999/xlink">
<g id="graph0" class="graph" transform="scale(1 1) rotate(0) translate(4 71.88)">
<title>npi::log::dir</title>
<!-- Node1 -->
<g id="Node000001" class="node">
<title>Node1</title>
<g id="a_Node000001"><a xlink:title=" ">
<polygon fill="#999999" stroke="none" points="278,-45.88 184,-45.88 184,-26.62 278,-26.62 278,-45.88"/>
<text xml:space="preserve" text-anchor="start" x="192" y="-32.42" font-family="Consolas" font-weight="bold" font-size="11.00">npi::log::dir</text>
</a>
</g>
</g>
<!-- Node2 -->
<g id="Node000002" class="node">
<title>Node2</title>
<g id="a_Node000002"><a xlink:href="../../d9/dc6/class_main_window.html#a996c5a2b6f77944776856f08ec30858d" target="_top" xlink:title=" ">
<polygon fill="white" stroke="none" points="148,-67.88 0,-67.88 0,-48.62 148,-48.62 148,-67.88"/>
<text xml:space="preserve" text-anchor="middle" x="74" y="-53.42" font-family="Consolas" font-size="11.00">MainWindow::MainWindow</text>
</a>
</g>
</g>
<!-- Node1&#45;&gt;Node2 -->
<g id="edge1_Node000001_Node000002" class="edge">
<title>Node1&#45;&gt;Node2</title>
<g id="a_edge1_Node000001_Node000002"><a xlink:title=" ">
<path fill="none" stroke="#63b8ff" d="M178.44,-43.57C167,-45.19 154.72,-46.94 142.75,-48.63"/>
<polygon fill="#63b8ff" stroke="#63b8ff" points="183.13,-42.9 178.49,-45.83 181.86,-43.08 178.18,-43.61 178.18,-43.61 178.18,-43.61 181.86,-43.08 177.86,-41.38 183.13,-42.9"/>
</a>
</g>
</g>
<!-- Node3 -->
<g id="Node000003" class="node">
<title>Node3</title>
<g id="a_Node000003"><a xlink:href="../../d9/dc6/class_main_window.html#a1932a7ea599cd9a796966844c7ba1f09" target="_top" xlink:title=" ">
<polygon fill="white" stroke="none" points="145,-30.5 3,-30.5 3,0 145,0 145,-30.5"/>
<text xml:space="preserve" text-anchor="start" x="11" y="-16.05" font-family="Consolas" font-size="11.00">MainWindow::on_newDir</text>
<text xml:space="preserve" text-anchor="middle" x="74" y="-4.8" font-family="Consolas" font-size="11.00">_btn_clicked</text>
</a>
</g>
</g>
<!-- Node1&#45;&gt;Node3 -->
<g id="edge2_Node000001_Node000003" class="edge">
<title>Node1&#45;&gt;Node3</title>
<g id="a_edge2_Node000001_Node000003"><a xlink:title=" ">
<path fill="none" stroke="#63b8ff" d="M178.42,-29.26C167.64,-27.8 156.09,-26.24 144.77,-24.7"/>
<polygon fill="#63b8ff" stroke="#63b8ff" points="183.13,-29.9 177.87,-31.46 181.86,-29.73 178.17,-29.23 178.17,-29.23 178.17,-29.23 181.86,-29.73 178.47,-27 183.13,-29.9"/>
</a>
</g>
</g>
</g>
</svg>
