<?xml version="1.0" encoding="UTF-8" standalone="no"?>
<!DOCTYPE svg PUBLIC "-//W3C//DTD SVG 1.1//EN"
 "http://www.w3.org/Graphics/SVG/1.1/DTD/svg11.dtd">
<!-- Generated by graphviz version 14.0.0 (20250921.2048)
 -->
<!-- Title: npi::log::isConsoleOpen Pages: 1 -->
<svg width="376pt" height="76pt"
 viewBox="0.00 0.00 376.00 76.00" xmlns="http://www.w3.org/2000/svg" xmlns:xlink="http://www.w3.org/1999/xlink">

<svg id="main" version="1.1" xmlns="http://www.w3.org/2000/svg" xmlns:xlink="http://www.w3.org/1999/xlink" xml:space="preserve">

<style type="text/css"><![CDATA[
.node, .edge {opacity: 0.7;}
.node.selected, .edge.selected {opacity: 1;}
.edge:hover path { stroke: red; }
.edge:hover polygon { stroke: red; fill: red; }
]]></style>
<script type="application/ecmascript" xlink:href="../../svg.min.js"/>
<svg id="graph" class="graph">
<g id="graph0" class="graph" transform="scale(1 1) rotate(0) translate(4 71.88)">
<title>npi::log::isConsoleOpen</title>
<!-- Node1 -->
<g id="Node000001" class="node">
<title>Node1</title>
<g id="a_Node000001"><a xlink:title=" ">
<polygon fill="#999999" stroke="none" points="368,-45.88 214,-45.88 214,-26.62 368,-26.62 368,-45.88"/>
<text xml:space="preserve" text-anchor="start" x="222" y="-32.42" font-family="Consolas" font-weight="bold" font-size="11.00">npi::log::isConsoleOpen</text>
</a>
</g>
</g>
<!-- Node2 -->
<g id="Node000002" class="node">
<title>Node2</title>
<g id="a_Node000002"><a xlink:href="../../d9/dc6/class_main_window.html#a996c5a2b6f77944776856f08ec30858d" target="_top" xlink:title=" ">
<polygon fill="white" stroke="none" points="163,-67.88 15,-67.88 15,-48.62 163,-48.62 163,-67.88"/>
<text xml:space="preserve" text-anchor="middle" x="89" y="-53.42" font-family="Consolas" font-size="11.00">MainWindow::MainWindow</text>
</a>
</g>
</g>
<!-- Node1&#45;&gt;Node2 -->
<g id="edge1_Node000001_Node000002" class="edge">
<title>Node1&#45;&gt;Node2</title>
<g id="a_edge1_Node000001_Node000002"><a xlink:title=" ">
<path fill="none" stroke="#63b8ff" d="M208.16,-45.25C193.16,-46.9 177.59,-48.61 162.87,-50.23"/>
<polygon fill="#63b8ff" stroke="#63b8ff" points="212.89,-44.73 208.17,-47.52 211.62,-44.87 207.92,-45.28 207.92,-45.28 207.92,-45.28 211.62,-44.87 207.68,-43.04 212.89,-44.73"/>
</a>
</g>
</g>
<!-- Node3 -->
<g id="Node000003" class="node">
<title>Node3</title>
<g id="a_Node000003"><a xlink:href="../../d9/dc6/class_main_window.html#a56502a9aef4caa8d6f5afec050f338d6" target="_top" xlink:title=" ">
<polygon fill="white" stroke="none" points="178,-30.5 0,-30.5 0,0 178,0 178,-30.5"/>
<text xml:space="preserve" text-anchor="start" x="8" y="-16.05" font-family="Consolas" font-size="11.00">MainWindow::on_debugConsole</text>
<text xml:space="preserve" text-anchor="middle" x="89" y="-4.8" font-family="Consolas" font-size="11.00">_btn_clicked</text>
</a>
</g>
</g>
<!-- Node1&#45;&gt;Node3 -->
<g id="edge2_Node000001_Node000003" class="edge">
<title>Node1&#45;&gt;Node3</title>
<g id="a_edge2_Node000001_Node000003"><a xlink:title=" ">
<path fill="none" stroke="#63b8ff" d="M207.97,-27.64C198.06,-26.6 187.9,-25.53 177.91,-24.48"/>
<polygon fill="#63b8ff" stroke="#63b8ff" points="212.89,-28.15 207.68,-29.87 211.62,-28.02 207.92,-27.63 207.92,-27.63 207.92,-27.63 211.62,-28.02 208.15,-25.39 212.89,-28.15"/>
</a>
</g>
</g>
</g>
</svg>
</svg>

<style type='text/css'>
<![CDATA[
[data-mouse-over-selected='false'] { opacity: 0.7; }
[data-mouse-over-selected='true']  { opacity: 1.0; }
]]>
</style>
<script type="application/ecmascript"><![CDATA[
document.addEventListener('DOMContentLoaded', (event) => {
  highlightEdges();
  highlightAdjacentNodes();
});
]]></script>
</svg>
