<?xml version="1.0" encoding="UTF-8" standalone="no"?>
<!DOCTYPE svg PUBLIC "-//W3C//DTD SVG 1.1//EN"
 "http://www.w3.org/Graphics/SVG/1.1/DTD/svg11.dtd">
<!-- Generated by graphviz version 14.0.0 (20250921.2048)
 -->
<!-- Title: npi::log::clearFilterRules Pages: 1 -->
<svg width="512pt" height="128pt"
 viewBox="0.00 0.00 512.00 128.00" xmlns="http://www.w3.org/2000/svg" xmlns:xlink="http://www.w3.org/1999/xlink">
<g id="graph0" class="graph" transform="scale(1 1) rotate(0) translate(4 123.75)">
<title>npi::log::clearFilterRules</title>
<!-- Node1 -->
<g id="Node000001" class="node">
<title>Node1</title>
<g id="a_Node000001"><a xlink:title=" ">
<polygon fill="#999999" stroke="none" points="172,-60.5 0,-60.5 0,-41.25 172,-41.25 172,-60.5"/>
<text xml:space="preserve" text-anchor="start" x="8" y="-47.05" font-family="Consolas" font-weight="bold" font-size="11.00">npi::log::clearFilterRules</text>
</a>
</g>
</g>
<!-- Node2 -->
<g id="Node000002" class="node">
<title>Node2</title>
<g id="a_Node000002"><a xlink:href="../../d0/d61/classanonymous__namespace_02_log_8cpp_03_1_1_log_core.html#af85854d22c95e86c8802d7d864fcd350" target="_top" xlink:title=" ">
<polygon fill="white" stroke="none" points="338,-101.75 208,-101.75 208,-60 338,-60 338,-101.75"/>
<text xml:space="preserve" text-anchor="start" x="216" y="-87.3" font-family="Consolas" font-size="11.00">anonymous_namespace</text>
<text xml:space="preserve" text-anchor="start" x="216" y="-76.05" font-family="Consolas" font-size="11.00">{Log::cpp}::LogCore</text>
<text xml:space="preserve" text-anchor="middle" x="273" y="-64.8" font-family="Consolas" font-size="11.00">::Inst_</text>
</a>
</g>
</g>
<!-- Node1&#45;&gt;Node2 -->
<g id="edge1_Node000001_Node000002" class="edge">
<title>Node1&#45;&gt;Node2</title>
<g id="a_edge1_Node000001_Node000002"><a xlink:title=" ">
<path fill="none" stroke="#63b8ff" d="M146.3,-60.49C164.21,-63.4 184.03,-66.61 202.55,-69.61"/>
<polygon fill="#63b8ff" stroke="#63b8ff" points="207.04,-70.34 201.75,-71.76 205.78,-70.14 202.11,-69.54 202.11,-69.54 202.11,-69.54 205.78,-70.14 202.47,-67.32 207.04,-70.34"/>
</a>
</g>
</g>
<!-- Node4 -->
<g id="Node000004" class="node">
<title>Node4</title>
<g id="a_Node000004"><a xlink:href="../../d0/d61/classanonymous__namespace_02_log_8cpp_03_1_1_log_core.html#a1d197fc15e8c228ff494a6e9974503b5" target="_top" xlink:title=" ">
<polygon fill="white" stroke="none" points="338,-41.75 208,-41.75 208,0 338,0 338,-41.75"/>
<text xml:space="preserve" text-anchor="start" x="216" y="-27.3" font-family="Consolas" font-size="11.00">anonymous_namespace</text>
<text xml:space="preserve" text-anchor="start" x="216" y="-16.05" font-family="Consolas" font-size="11.00">{Log::cpp}::LogCore</text>
<text xml:space="preserve" text-anchor="middle" x="273" y="-4.8" font-family="Consolas" font-size="11.00">::setFilterRules_</text>
</a>
</g>
</g>
<!-- Node1&#45;&gt;Node4 -->
<g id="edge4_Node000001_Node000004" class="edge">
<title>Node1&#45;&gt;Node4</title>
<g id="a_edge4_Node000001_Node000004"><a xlink:title=" ">
<path fill="none" stroke="#63b8ff" d="M146.3,-41.26C164.21,-38.35 184.03,-35.14 202.55,-32.14"/>
<polygon fill="#63b8ff" stroke="#63b8ff" points="207.04,-31.41 202.47,-34.43 205.78,-31.61 202.11,-32.21 202.11,-32.21 202.11,-32.21 205.78,-31.61 201.75,-29.99 207.04,-31.41"/>
</a>
</g>
</g>
<!-- Node3 -->
<g id="Node000003" class="node">
<title>Node3</title>
<g id="a_Node000003"><a xlink:href="../../d0/d61/classanonymous__namespace_02_log_8cpp_03_1_1_log_core.html#a730f0868e0c404fa25a887a023b70138" target="_top" xlink:title=" ">
<polygon fill="white" stroke="none" points="504,-101.75 374,-101.75 374,-60 504,-60 504,-101.75"/>
<text xml:space="preserve" text-anchor="start" x="382" y="-87.3" font-family="Consolas" font-size="11.00">anonymous_namespace</text>
<text xml:space="preserve" text-anchor="start" x="382" y="-76.05" font-family="Consolas" font-size="11.00">{Log::cpp}::LogCore</text>
<text xml:space="preserve" text-anchor="middle" x="439" y="-64.8" font-family="Consolas" font-size="11.00">::LogCore</text>
</a>
</g>
</g>
<!-- Node2&#45;&gt;Node3 -->
<g id="edge2_Node000002_Node000003" class="edge">
<title>Node2&#45;&gt;Node3</title>
<g id="a_edge2_Node000002_Node000003"><a xlink:title=" ">
<path fill="none" stroke="#63b8ff" d="M337.88,-80.88C347.71,-80.88 357.9,-80.88 367.86,-80.88"/>
<polygon fill="#63b8ff" stroke="#63b8ff" points="372.81,-80.88 367.81,-83.13 371.53,-80.88 367.81,-80.88 367.81,-80.88 367.81,-80.88 371.53,-80.88 367.81,-78.63 372.81,-80.88"/>
</a>
</g>
</g>
<!-- Node3&#45;&gt;Node3 -->
<g id="edge3_Node000003_Node000003" class="edge">
<title>Node3&#45;&gt;Node3</title>
<g id="a_edge3_Node000003_Node000003"><a xlink:title=" ">
<path fill="none" stroke="#63b8ff" d="M408.49,-101.67C405.16,-111.32 415.33,-119.75 439,-119.75 457.49,-119.75 467.74,-114.61 469.76,-107.75"/>
<polygon fill="#63b8ff" stroke="#63b8ff" points="469.56,-102.89 472.01,-107.79 469.61,-104.17 469.76,-107.89 469.76,-107.89 469.76,-107.89 469.61,-104.17 467.51,-107.98 469.56,-102.89"/>
</a>
</g>
</g>
</g>
</svg>
