<?xml version="1.0" encoding="UTF-8" standalone="no"?>
<!DOCTYPE svg PUBLIC "-//W3C//DTD SVG 1.1//EN"
 "http://www.w3.org/Graphics/SVG/1.1/DTD/svg11.dtd">
<!-- Generated by graphviz version 14.1.5 (20260411.2331)
 -->
<!-- Title: npi::log::setShowWarnLog Pages: 1 -->
<!--zoomable 477 -->

<svg id="main" version="1.1" xmlns="http://www.w3.org/2000/svg" xmlns:xlink="http://www.w3.org/1999/xlink" xml:space="preserve" onload="init(evt)">

<style type="text/css"><![CDATA[
.node, .edge {opacity: 0.7;}
.node.selected, .edge.selected {opacity: 1;}
.edge:hover path { stroke: red; }
.edge:hover polygon { stroke: red; fill: red; }
]]></style>

<defs>
  <circle id="rim" cx="0" cy="0" r="7"/>
  <circle id="rim2" cx="0" cy="0" r="3.5"/>
  <g id="zoomPlus">
    <use xlink:href="#rim" fill="#404040"><set attributeName="fill" to="#808080" begin="zoomplus.mouseover" end="zoomplus.mouseout"/></use>
    <path d="M-4,0h8M0,-4v8" fill="none" stroke="white" stroke-width="1.5" pointer-events="none"/>
  </g>
  <g id="zoomMin">
    <use xlink:href="#rim" fill="#404040"><set attributeName="fill" to="#808080" begin="zoomminus.mouseover" end="zoomminus.mouseout"/></use>
    <path d="M-4,0h8" fill="none" stroke="white" stroke-width="1.5" pointer-events="none"/>
  </g>
  <g id="arrowUp" transform="translate(30 24)">
    <use xlink:href="#rim"/>
    <path pointer-events="none" fill="none" stroke="white" stroke-width="1.5" d="M0,-3.0v7 M-2.5,-0.5L0,-3.0L2.5,-0.5"/>
  </g>
  <g id="arrowRight" transform="rotate(90) translate(36 -43)">
    <use xlink:href="#rim"/>
    <path pointer-events="none" fill="none" stroke="white" stroke-width="1.5" d="M0,-3.0v7 M-2.5,-0.5L0,-3.0L2.5,-0.5"/>
  </g>
  <g id="arrowDown" transform="rotate(180) translate(-30 -48)">
    <use xlink:href="#rim"/>
    <path pointer-events="none" fill="none" stroke="white" stroke-width="1.5" d="M0,-3.0v7 M-2.5,-0.5L0,-3.0L2.5,-0.5"/>
  </g>
  <g id="arrowLeft" transform="rotate(270) translate(-36 17)">
    <use xlink:href="#rim"/>
    <path pointer-events="none" fill="none" stroke="white" stroke-width="1.5" d="M0,-3.0v7 M-2.5,-0.5L0,-3.0L2.5,-0.5"/>
  </g>
  <g id="resetDef">
    <use xlink:href="#rim2" fill="#404040"><set attributeName="fill" to="#808080" begin="reset.mouseover" end="reset.mouseout"/></use>
  </g>
</defs>
<script type="application/ecmascript">
var viewWidth = 1754;
var viewHeight = 477;
var sectionId = 'dynsection-32';
</script>
<script type="application/ecmascript" xlink:href="../../svg.min.js"/>
<svg id="graph" class="graph">
<g id="viewport">
<title>npi::log::setShowWarnLog</title>
<!-- Node1 -->
<g id="Node000001" class="node">
<title>Node1</title>
<g id="a_Node000001"><a xlink:title="Enables or disables warning log display.">
<polygon fill="#999999" stroke="none" points="160,-176.5 0,-176.5 0,-157.25 160,-157.25 160,-176.5"/>
<text xml:space="preserve" text-anchor="start" x="8" y="-163.05" font-family="Consolas" font-weight="bold" font-size="11.00">npi::log::setShowWarnLog</text>
</a>
</g>
</g>
<!-- Node2 -->
<g id="Node000002" class="node">
<title>Node2</title>
<g id="a_Node000002"><a xlink:href="../../d8/d47/structanonymous__namespace_02_log_8cpp_03_1_1_leaked_state.html#a7a843782348b647c13a98ef04223d7b2" target="_top" xlink:title=" ">
<polygon fill="white" stroke="none" points="350,-378.75 196,-378.75 196,-337 350,-337 350,-378.75"/>
<text xml:space="preserve" text-anchor="start" x="204" y="-364.3" font-family="Consolas" font-size="11.00">anonymous_namespace</text>
<text xml:space="preserve" text-anchor="start" x="204" y="-353.05" font-family="Consolas" font-size="11.00">{Log::cpp}::LeakedState</text>
<text xml:space="preserve" text-anchor="middle" x="273" y="-341.8" font-family="Consolas" font-size="11.00">::LeakedState</text>
</a>
</g>
</g>
<!-- Node1&#45;&gt;Node2 -->
<g id="edge1_Node000001_Node000002" class="edge">
<title>Node1&#45;&gt;Node2</title>
<g id="a_edge1_Node000001_Node000002"><a xlink:title=" ">
<path fill="none" stroke="#63b8ff" d="M90.47,-176.35C118.93,-204.8 204.32,-290.19 247.06,-332.93"/>
<polygon fill="#63b8ff" stroke="#63b8ff" points="250.45,-336.32 245.32,-334.38 249.54,-335.42 246.91,-332.79 246.91,-332.79 246.91,-332.79 249.54,-335.42 248.5,-331.19 250.45,-336.32"/>
</a>
</g>
</g>
<!-- Node18 -->
<g id="Node000018" class="node">
<title>Node18</title>
<g id="a_Node000018"><a xlink:href="../../d8/d47/structanonymous__namespace_02_log_8cpp_03_1_1_leaked_state.html#ae28ae1e0989c84468f1c7dd17981e5e4" target="_top" xlink:title="Returns the intentionally leaked process&#45;wide logging state.">
<polygon fill="white" stroke="none" points="552,-94.75 398,-94.75 398,-53 552,-53 552,-94.75"/>
<text xml:space="preserve" text-anchor="start" x="406" y="-80.3" font-family="Consolas" font-size="11.00">anonymous_namespace</text>
<text xml:space="preserve" text-anchor="start" x="406" y="-69.05" font-family="Consolas" font-size="11.00">{Log::cpp}::LeakedState</text>
<text xml:space="preserve" text-anchor="middle" x="475" y="-57.8" font-family="Consolas" font-size="11.00">::Inst_</text>
</a>
</g>
</g>
<!-- Node1&#45;&gt;Node18 -->
<g id="edge17_Node000001_Node000018" class="edge">
<title>Node1&#45;&gt;Node18</title>
<g id="a_edge17_Node000001_Node000018"><a xlink:title=" ">
<path fill="none" stroke="#63b8ff" d="M92.53,-157.46C112.31,-141.93 154.58,-111.29 196,-97.88 259.7,-77.24 335.65,-71.89 392.05,-71.34"/>
<polygon fill="#63b8ff" stroke="#63b8ff" points="396.92,-71.3 391.94,-73.59 395.64,-71.31 391.92,-71.34 391.92,-71.34 391.92,-71.34 395.64,-71.31 391.91,-69.09 396.92,-71.3"/>
</a>
</g>
</g>
<!-- Node20 -->
<g id="Node000020" class="node">
<title>Node20</title>
<g id="a_Node000020"><a xlink:href="../../d3/d55/namespaceanonymous__namespace_02_log_8cpp_03_1_1control.html#aaa3ef86b0bde2d695263c99035301b1c" target="_top" xlink:title="Removes one persistent logging setting under the cross&#45;process lock.">
<polygon fill="white" stroke="none" points="338,-226.75 208,-226.75 208,-185 338,-185 338,-226.75"/>
<text xml:space="preserve" text-anchor="start" x="216" y="-212.3" font-family="Consolas" font-size="11.00">anonymous_namespace</text>
<text xml:space="preserve" text-anchor="start" x="216" y="-201.05" font-family="Consolas" font-size="11.00">{Log::cpp}::control</text>
<text xml:space="preserve" text-anchor="middle" x="273" y="-189.8" font-family="Consolas" font-size="11.00">::removeSettings</text>
</a>
</g>
</g>
<!-- Node1&#45;&gt;Node20 -->
<g id="edge20_Node000001_Node000020" class="edge">
<title>Node1&#45;&gt;Node20</title>
<g id="a_edge20_Node000001_Node000020"><a xlink:title=" ">
<path fill="none" stroke="#63b8ff" d="M127.72,-176.42C150.12,-180.99 177.4,-186.56 202.18,-191.62"/>
<polygon fill="#63b8ff" stroke="#63b8ff" points="206.9,-192.58 201.55,-193.79 205.64,-192.33 202,-191.58 202,-191.58 202,-191.58 205.64,-192.33 202.45,-189.38 206.9,-192.58"/>
</a>
</g>
</g>
<!-- Node27 -->
<g id="Node000027" class="node">
<title>Node27</title>
<g id="a_Node000027"><a xlink:href="../../d3/d55/namespaceanonymous__namespace_02_log_8cpp_03_1_1control.html#a07969a1c7e4498118828e463456c5d1e" target="_top" xlink:title="Writes one persistent logging setting under the cross&#45;process lock.">
<polygon fill="white" stroke="none" points="338,-148.75 208,-148.75 208,-107 338,-107 338,-148.75"/>
<text xml:space="preserve" text-anchor="start" x="216" y="-134.3" font-family="Consolas" font-size="11.00">anonymous_namespace</text>
<text xml:space="preserve" text-anchor="start" x="216" y="-123.05" font-family="Consolas" font-size="11.00">{Log::cpp}::control</text>
<text xml:space="preserve" text-anchor="middle" x="273" y="-111.8" font-family="Consolas" font-size="11.00">::saveSettings</text>
</a>
</g>
</g>
<!-- Node1&#45;&gt;Node27 -->
<g id="edge36_Node000001_Node000027" class="edge">
<title>Node1&#45;&gt;Node27</title>
<g id="a_edge36_Node000001_Node000027"><a xlink:title=" ">
<path fill="none" stroke="#63b8ff" d="M127.72,-157.33C150.12,-152.76 177.4,-147.19 202.18,-142.13"/>
<polygon fill="#63b8ff" stroke="#63b8ff" points="206.9,-141.17 202.45,-144.37 205.64,-141.42 202,-142.17 202,-142.17 202,-142.17 205.64,-141.42 201.55,-139.96 206.9,-141.17"/>
</a>
</g>
</g>
<!-- Node3 -->
<g id="Node000003" class="node">
<title>Node3</title>
<g id="a_Node000003"><a xlink:href="../../d8/d47/structanonymous__namespace_02_log_8cpp_03_1_1_leaked_state.html#af445fc06eca56a41e21e49cd943a261b" target="_top" xlink:title="Generates the space&#45;separated list of every supported output field.">
<polygon fill="white" stroke="none" points="552,-468.75 398,-468.75 398,-427 552,-427 552,-468.75"/>
<text xml:space="preserve" text-anchor="start" x="406" y="-454.3" font-family="Consolas" font-size="11.00">anonymous_namespace</text>
<text xml:space="preserve" text-anchor="start" x="406" y="-443.05" font-family="Consolas" font-size="11.00">{Log::cpp}::LeakedState</text>
<text xml:space="preserve" text-anchor="middle" x="475" y="-431.8" font-family="Consolas" font-size="11.00">::GenAllFieldsText_</text>
</a>
</g>
</g>
<!-- Node2&#45;&gt;Node3 -->
<g id="edge2_Node000002_Node000003" class="edge">
<title>Node2&#45;&gt;Node3</title>
<g id="a_edge2_Node000002_Node000003"><a xlink:title=" ">
<path fill="none" stroke="#63b8ff" d="M309.08,-378.58C330.79,-390.91 359.5,-406.35 386,-417.88 391.67,-420.34 397.61,-422.74 403.61,-425.03"/>
<polygon fill="#63b8ff" stroke="#63b8ff" points="408,-426.68 402.52,-427.03 406.8,-426.23 403.32,-424.92 403.32,-424.92 403.32,-424.92 406.8,-426.23 404.11,-422.82 408,-426.68"/>
</a>
</g>
</g>
<!-- Node4 -->
<g id="Node000004" class="node">
<title>Node4</title>
<g id="a_Node000004"><a xlink:href="../../d8/d47/structanonymous__namespace_02_log_8cpp_03_1_1_leaked_state.html#afa860e5f805566dfb6d3b74cadbf826d" target="_top" xlink:title="Converts an ordered field list to normalized field text.">
<polygon fill="white" stroke="none" points="555,-408.75 395,-408.75 395,-367 555,-367 555,-408.75"/>
<text xml:space="preserve" text-anchor="start" x="403" y="-394.3" font-family="Consolas" font-size="11.00">anonymous_namespace</text>
<text xml:space="preserve" text-anchor="start" x="403" y="-383.05" font-family="Consolas" font-size="11.00">{Log::cpp}::LeakedState</text>
<text xml:space="preserve" text-anchor="middle" x="475" y="-371.8" font-family="Consolas" font-size="11.00">::GenTextFromFieldsList_</text>
</a>
</g>
</g>
<!-- Node2&#45;&gt;Node4 -->
<g id="edge3_Node000002_Node000004" class="edge">
<title>Node2&#45;&gt;Node4</title>
<g id="a_edge3_Node000002_Node000004"><a xlink:title=" ">
<path fill="none" stroke="#63b8ff" d="M349.9,-369.26C362.74,-371.19 376.14,-373.2 389.19,-375.15"/>
<polygon fill="#63b8ff" stroke="#63b8ff" points="393.96,-375.87 388.68,-377.35 392.69,-375.68 389.01,-375.13 389.01,-375.13 389.01,-375.13 392.69,-375.68 389.35,-372.9 393.96,-375.87"/>
</a>
</g>
</g>
<!-- Node5 -->
<g id="Node000005" class="node">
<title>Node5</title>
<g id="a_Node000005"><a xlink:href="../../d8/d47/structanonymous__namespace_02_log_8cpp_03_1_1_leaked_state.html#ae0f74e4fc893caff483e47bcc8f799c1" target="_top" xlink:title="Detects and configures the console attached during initialization.">
<polygon fill="white" stroke="none" points="552,-348.75 398,-348.75 398,-307 552,-307 552,-348.75"/>
<text xml:space="preserve" text-anchor="start" x="406" y="-334.3" font-family="Consolas" font-size="11.00">anonymous_namespace</text>
<text xml:space="preserve" text-anchor="start" x="406" y="-323.05" font-family="Consolas" font-size="11.00">{Log::cpp}::LeakedState</text>
<text xml:space="preserve" text-anchor="middle" x="475" y="-311.8" font-family="Consolas" font-size="11.00">::PermConsoleHandle_</text>
</a>
</g>
</g>
<!-- Node2&#45;&gt;Node5 -->
<g id="edge4_Node000002_Node000005" class="edge">
<title>Node2&#45;&gt;Node5</title>
<g id="a_edge4_Node000002_Node000005"><a xlink:title=" ">
<path fill="none" stroke="#63b8ff" d="M349.9,-346.49C363.72,-344.42 378.2,-342.24 392.19,-340.15"/>
<polygon fill="#63b8ff" stroke="#63b8ff" points="396.95,-339.43 392.34,-342.4 395.68,-339.62 392.01,-340.17 392.01,-340.17 392.01,-340.17 395.68,-339.62 391.67,-337.95 396.95,-339.43"/>
</a>
</g>
</g>
<!-- Node6 -->
<g id="Node000006" class="node">
<title>Node6</title>
<g id="a_Node000006"><a xlink:href="../../da/d14/namespacenpi_1_1ind.html#a36235e7ddba2a265d60b240df5134019" target="_top" xlink:title="Converts Windows DWORD error code into format &quot;&lt;text&gt; (Code &lt;number&gt;).&quot;.">
<polygon fill="white" stroke="none" points="763,-337.5 615,-337.5 615,-318.25 763,-318.25 763,-337.5"/>
<text xml:space="preserve" text-anchor="middle" x="689" y="-323.05" font-family="Consolas" font-size="11.00">npi::ind::winErrorText</text>
</a>
</g>
</g>
<!-- Node5&#45;&gt;Node6 -->
<g id="edge5_Node000005_Node000006" class="edge">
<title>Node5&#45;&gt;Node6</title>
<g id="a_edge5_Node000005_Node000006"><a xlink:title=" ">
<path fill="none" stroke="#63b8ff" d="M551.94,-327.88C570.57,-327.88 590.54,-327.88 609.3,-327.88"/>
<polygon fill="#63b8ff" stroke="#63b8ff" points="613.86,-327.88 608.86,-330.13 612.58,-327.88 608.86,-327.88 608.86,-327.88 608.86,-327.88 612.58,-327.88 608.86,-325.63 613.86,-327.88"/>
</a>
</g>
</g>
<!-- Node7 -->
<g id="Node000007" class="node">
<title>Node7</title>
<g id="a_Node000007"><a xlink:href="../../dc/dba/namespacenpi_1_1app.html#ab43cdd42223150fbfc70f9a9f02a9019" target="_top" xlink:title="Launches npiMsgBox.exe to show a stop/error message box and terminates this process.">
<polygon fill="white" stroke="none" points="1170,-210.5 1016,-210.5 1016,-191.25 1170,-191.25 1170,-210.5"/>
<text xml:space="preserve" text-anchor="middle" x="1093" y="-196.05" font-family="Consolas" font-size="11.00">npi::app::winStopMsgExe</text>
</a>
</g>
</g>
<!-- Node5&#45;&gt;Node7 -->
<g id="edge6_Node000005_Node000007" class="edge">
<title>Node5&#45;&gt;Node7</title>
<g id="a_edge6_Node000005_Node000007"><a xlink:title=" ">
<path fill="none" stroke="#63b8ff" d="M551.61,-312.66C650.24,-292.75 828.12,-256.67 980,-224.88 1000.2,-220.65 1022.42,-215.9 1041.71,-211.76"/>
<polygon fill="#63b8ff" stroke="#63b8ff" points="1046.41,-210.75 1041.99,-214 1045.16,-211.02 1041.52,-211.8 1041.52,-211.8 1041.52,-211.8 1045.16,-211.02 1041.05,-209.6 1046.41,-210.75"/>
</a>
</g>
</g>
<!-- Node8 -->
<g id="Node000008" class="node">
<title>Node8</title>
<g id="a_Node000008"><a xlink:href="../../d4/dbe/namespaceanonymous__namespace_02_win_msg_box_exe_8cpp_03.html#aaa8ea5249bc78f802a58761c2cbe5f17" target="_top" xlink:title="Appends a null&#45;terminated ASCII message to the command line.">
<polygon fill="white" stroke="none" points="1339,-281.75 1209,-281.75 1209,-240 1339,-240 1339,-281.75"/>
<text xml:space="preserve" text-anchor="start" x="1217" y="-267.3" font-family="Consolas" font-size="11.00">anonymous_namespace</text>
<text xml:space="preserve" text-anchor="start" x="1217" y="-256.05" font-family="Consolas" font-size="11.00">{WinMsgBoxExe::cpp}</text>
<text xml:space="preserve" text-anchor="middle" x="1274" y="-244.8" font-family="Consolas" font-size="11.00">::bufAppendMsg</text>
</a>
</g>
</g>
<!-- Node7&#45;&gt;Node8 -->
<g id="edge7_Node000007_Node000008" class="edge">
<title>Node7&#45;&gt;Node8</title>
<g id="a_edge7_Node000007_Node000008"><a xlink:title=" ">
<path fill="none" stroke="#63b8ff" d="M1122.36,-210.38C1144.64,-217.85 1176.59,-228.56 1205.33,-238.19"/>
<polygon fill="#63b8ff" stroke="#63b8ff" points="1209.88,-239.72 1204.43,-240.26 1208.67,-239.31 1205.14,-238.13 1205.14,-238.13 1205.14,-238.13 1208.67,-239.31 1205.86,-236 1209.88,-239.72"/>
</a>
</g>
</g>
<!-- Node10 -->
<g id="Node000010" class="node">
<title>Node10</title>
<g id="a_Node000010"><a xlink:href="../../d4/dbe/namespaceanonymous__namespace_02_win_msg_box_exe_8cpp_03.html#a86d417acf3a64e3477e64493dc92a88c" target="_top" xlink:title=" ">
<polygon fill="white" stroke="none" points="1342,-341.75 1206,-341.75 1206,-300 1342,-300 1342,-341.75"/>
<text xml:space="preserve" text-anchor="start" x="1214" y="-327.3" font-family="Consolas" font-size="11.00">anonymous_namespace</text>
<text xml:space="preserve" text-anchor="start" x="1214" y="-316.05" font-family="Consolas" font-size="11.00">{WinMsgBoxExe::cpp}</text>
<text xml:space="preserve" text-anchor="middle" x="1274" y="-304.8" font-family="Consolas" font-size="11.00">::claimStopOwnership</text>
</a>
</g>
</g>
<!-- Node7&#45;&gt;Node10 -->
<g id="edge9_Node000007_Node000010" class="edge">
<title>Node7&#45;&gt;Node10</title>
<g id="a_edge9_Node000007_Node000010"><a xlink:title=" ">
<path fill="none" stroke="#63b8ff" d="M1103.84,-210.25C1122.57,-227.75 1165.14,-265.88 1206,-290.88 1209.66,-293.12 1213.52,-295.29 1217.46,-297.37"/>
<polygon fill="#63b8ff" stroke="#63b8ff" points="1221.79,-299.59 1216.31,-299.31 1220.65,-299 1217.34,-297.3 1217.34,-297.3 1217.34,-297.3 1220.65,-299 1218.37,-295.3 1221.79,-299.59"/>
</a>
</g>
</g>
<!-- Node11 -->
<g id="Node000011" class="node">
<title>Node11</title>
<g id="a_Node000011"><a xlink:href="../../d4/dbe/namespaceanonymous__namespace_02_win_msg_box_exe_8cpp_03.html#a1130800899b07b3e7b42ae60f3397c03" target="_top" xlink:title="Copies the prepared command&#45;line prefix into a per&#45;call buffer.">
<polygon fill="white" stroke="none" points="1339,-221.75 1209,-221.75 1209,-180 1339,-180 1339,-221.75"/>
<text xml:space="preserve" text-anchor="start" x="1217" y="-207.3" font-family="Consolas" font-size="11.00">anonymous_namespace</text>
<text xml:space="preserve" text-anchor="start" x="1217" y="-196.05" font-family="Consolas" font-size="11.00">{WinMsgBoxExe::cpp}</text>
<text xml:space="preserve" text-anchor="middle" x="1274" y="-184.8" font-family="Consolas" font-size="11.00">::copyCmdLineBuf</text>
</a>
</g>
</g>
<!-- Node7&#45;&gt;Node11 -->
<g id="edge10_Node000007_Node000011" class="edge">
<title>Node7&#45;&gt;Node11</title>
<g id="a_edge10_Node000007_Node000011"><a xlink:title=" ">
<path fill="none" stroke="#63b8ff" d="M1169.91,-200.88C1180.93,-200.88 1192.22,-200.88 1203.11,-200.88"/>
<polygon fill="#63b8ff" stroke="#63b8ff" points="1207.89,-200.88 1202.89,-203.13 1206.61,-200.88 1202.89,-200.88 1202.89,-200.88 1202.89,-200.88 1206.61,-200.88 1202.89,-198.63 1207.89,-200.88"/>
</a>
</g>
</g>
<!-- Node12 -->
<g id="Node000012" class="node">
<title>Node12</title>
<g id="a_Node000012"><a xlink:href="../../d4/dbe/namespaceanonymous__namespace_02_win_msg_box_exe_8cpp_03.html#a2e29a8fedb4d4bc0661873c8d4883c64" target="_top" xlink:title="Finalizes the command line and launches npiMsgBox.exe.">
<polygon fill="white" stroke="none" points="1339,-161.75 1209,-161.75 1209,-120 1339,-120 1339,-161.75"/>
<text xml:space="preserve" text-anchor="start" x="1217" y="-147.3" font-family="Consolas" font-size="11.00">anonymous_namespace</text>
<text xml:space="preserve" text-anchor="start" x="1217" y="-136.05" font-family="Consolas" font-size="11.00">{WinMsgBoxExe::cpp}</text>
<text xml:space="preserve" text-anchor="middle" x="1274" y="-124.8" font-family="Consolas" font-size="11.00">::launch</text>
</a>
</g>
</g>
<!-- Node7&#45;&gt;Node12 -->
<g id="edge11_Node000007_Node000012" class="edge">
<title>Node7&#45;&gt;Node12</title>
<g id="a_edge11_Node000007_Node000012"><a xlink:title=" ">
<path fill="none" stroke="#63b8ff" d="M1122.36,-191.37C1144.64,-183.9 1176.59,-173.19 1205.33,-163.56"/>
<polygon fill="#63b8ff" stroke="#63b8ff" points="1209.88,-162.03 1205.86,-165.75 1208.67,-162.44 1205.14,-163.62 1205.14,-163.62 1205.14,-163.62 1208.67,-162.44 1204.43,-161.49 1209.88,-162.03"/>
</a>
</g>
</g>
<!-- Node13 -->
<g id="Node000013" class="node">
<title>Node13</title>
<g id="a_Node000013"><a xlink:href="../../d4/dbe/namespaceanonymous__namespace_02_win_msg_box_exe_8cpp_03.html#a58ddc58a8755566f9fa235e49d764761" target="_top" xlink:title="Builds the helper executable path and reusable command&#45;line prefix. The command&#45;line prefix buffer is...">
<polygon fill="white" stroke="none" points="1339,-101.75 1209,-101.75 1209,-60 1339,-60 1339,-101.75"/>
<text xml:space="preserve" text-anchor="start" x="1217" y="-87.3" font-family="Consolas" font-size="11.00">anonymous_namespace</text>
<text xml:space="preserve" text-anchor="start" x="1217" y="-76.05" font-family="Consolas" font-size="11.00">{WinMsgBoxExe::cpp}</text>
<text xml:space="preserve" text-anchor="middle" x="1274" y="-64.8" font-family="Consolas" font-size="11.00">::prepare</text>
</a>
</g>
</g>
<!-- Node7&#45;&gt;Node13 -->
<g id="edge12_Node000007_Node000013" class="edge">
<title>Node7&#45;&gt;Node13</title>
<g id="a_edge12_Node000007_Node000013"><a xlink:title=" ">
<path fill="none" stroke="#63b8ff" d="M1117.95,-191.27C1133.83,-184.15 1154.5,-173.36 1170,-159.88 1190.39,-142.14 1184.97,-127.85 1206,-110.88 1208.6,-108.77 1211.38,-106.79 1214.26,-104.92"/>
<polygon fill="#63b8ff" stroke="#63b8ff" points="1218.51,-102.31 1215.43,-106.84 1217.42,-102.98 1214.25,-104.92 1214.25,-104.92 1214.25,-104.92 1217.42,-102.98 1213.07,-103 1218.51,-102.31"/>
</a>
</g>
</g>
<!-- Node9 -->
<g id="Node000009" class="node">
<title>Node9</title>
<g id="a_Node000009"><a xlink:href="../../d4/dbe/namespaceanonymous__namespace_02_win_msg_box_exe_8cpp_03.html#a587867f118701093b97cc8ccaf37a239" target="_top" xlink:title="Sanitizes and appends one message character.">
<polygon fill="white" stroke="none" points="1520,-281.75 1390,-281.75 1390,-240 1520,-240 1520,-281.75"/>
<text xml:space="preserve" text-anchor="start" x="1398" y="-267.3" font-family="Consolas" font-size="11.00">anonymous_namespace</text>
<text xml:space="preserve" text-anchor="start" x="1398" y="-256.05" font-family="Consolas" font-size="11.00">{WinMsgBoxExe::cpp}</text>
<text xml:space="preserve" text-anchor="middle" x="1455" y="-244.8" font-family="Consolas" font-size="11.00">::bufAppendMsgChar</text>
</a>
</g>
</g>
<!-- Node8&#45;&gt;Node9 -->
<g id="edge8_Node000008_Node000009" class="edge">
<title>Node8&#45;&gt;Node9</title>
<g id="a_edge8_Node000008_Node000009"><a xlink:title=" ">
<path fill="none" stroke="#63b8ff" d="M1338.87,-260.88C1353.58,-260.88 1369.3,-260.88 1384.25,-260.88"/>
<polygon fill="#63b8ff" stroke="#63b8ff" points="1388.94,-260.88 1383.94,-263.13 1387.66,-260.88 1383.94,-260.88 1383.94,-260.88 1383.94,-260.88 1387.66,-260.88 1383.94,-258.63 1388.94,-260.88"/>
</a>
</g>
</g>
<!-- Node14 -->
<g id="Node000014" class="node">
<title>Node14</title>
<g id="a_Node000014"><a xlink:href="../../d4/dbe/namespaceanonymous__namespace_02_win_msg_box_exe_8cpp_03.html#a7c36613e6219d885c2b5c949ce285c60" target="_top" xlink:title="Appends one character to the prepared command&#45;line prefix buffer.">
<polygon fill="white" stroke="none" points="1520,-161.75 1390,-161.75 1390,-120 1520,-120 1520,-161.75"/>
<text xml:space="preserve" text-anchor="start" x="1398" y="-147.3" font-family="Consolas" font-size="11.00">anonymous_namespace</text>
<text xml:space="preserve" text-anchor="start" x="1398" y="-136.05" font-family="Consolas" font-size="11.00">{WinMsgBoxExe::cpp}</text>
<text xml:space="preserve" text-anchor="middle" x="1455" y="-124.8" font-family="Consolas" font-size="11.00">::cmdLineBufAppend</text>
</a>
</g>
</g>
<!-- Node13&#45;&gt;Node14 -->
<g id="edge13_Node000013_Node000014" class="edge">
<title>Node13&#45;&gt;Node14</title>
<g id="a_edge13_Node000013_Node000014"><a xlink:title=" ">
<path fill="none" stroke="#63b8ff" d="M1337.1,-101.69C1352.93,-107 1370.02,-112.73 1386.12,-118.12"/>
<polygon fill="#63b8ff" stroke="#63b8ff" points="1390.85,-119.71 1385.4,-120.25 1389.64,-119.3 1386.11,-118.12 1386.11,-118.12 1386.11,-118.12 1389.64,-119.3 1386.83,-115.99 1390.85,-119.71"/>
</a>
</g>
</g>
<!-- Node15 -->
<g id="Node000015" class="node">
<title>Node15</title>
<g id="a_Node000015"><a xlink:href="../../d4/dbe/namespaceanonymous__namespace_02_win_msg_box_exe_8cpp_03.html#a59f9ee4de5e70beaf819165aec928b60" target="_top" xlink:title="Appends the application title used as the message&#45;box title to the command&#45;line prefix.">
<polygon fill="white" stroke="none" points="1532,-101.75 1378,-101.75 1378,-60 1532,-60 1532,-101.75"/>
<text xml:space="preserve" text-anchor="start" x="1386" y="-87.3" font-family="Consolas" font-size="11.00">anonymous_namespace</text>
<text xml:space="preserve" text-anchor="start" x="1386" y="-76.05" font-family="Consolas" font-size="11.00">{WinMsgBoxExe::cpp}</text>
<text xml:space="preserve" text-anchor="middle" x="1455" y="-64.8" font-family="Consolas" font-size="11.00">::cmdLineBufAppendTitle</text>
</a>
</g>
</g>
<!-- Node13&#45;&gt;Node15 -->
<g id="edge14_Node000013_Node000015" class="edge">
<title>Node13&#45;&gt;Node15</title>
<g id="a_edge14_Node000013_Node000015"><a xlink:title=" ">
<path fill="none" stroke="#63b8ff" d="M1338.87,-80.88C1349.62,-80.88 1360.92,-80.88 1372.06,-80.88"/>
<polygon fill="#63b8ff" stroke="#63b8ff" points="1377.01,-80.88 1372.01,-83.13 1375.73,-80.88 1372.01,-80.88 1372.01,-80.88 1372.01,-80.88 1375.73,-80.88 1372.01,-78.63 1377.01,-80.88"/>
</a>
</g>
</g>
<!-- Node17 -->
<g id="Node000017" class="node">
<title>Node17</title>
<g id="a_Node000017"><a xlink:href="../../d4/dbe/namespaceanonymous__namespace_02_win_msg_box_exe_8cpp_03.html#ae9382129e5c68748dfb4d7ca8056cd94" target="_top" xlink:title="Appends one character to the prepared executable path buffer.">
<polygon fill="white" stroke="none" points="1520,-41.75 1390,-41.75 1390,0 1520,0 1520,-41.75"/>
<text xml:space="preserve" text-anchor="start" x="1398" y="-27.3" font-family="Consolas" font-size="11.00">anonymous_namespace</text>
<text xml:space="preserve" text-anchor="start" x="1398" y="-16.05" font-family="Consolas" font-size="11.00">{WinMsgBoxExe::cpp}</text>
<text xml:space="preserve" text-anchor="middle" x="1455" y="-4.8" font-family="Consolas" font-size="11.00">::exePathBufAppend</text>
</a>
</g>
</g>
<!-- Node13&#45;&gt;Node17 -->
<g id="edge16_Node000013_Node000017" class="edge">
<title>Node13&#45;&gt;Node17</title>
<g id="a_edge16_Node000013_Node000017"><a xlink:title=" ">
<path fill="none" stroke="#63b8ff" d="M1337.1,-60.06C1352.93,-54.75 1370.02,-49.02 1386.12,-43.63"/>
<polygon fill="#63b8ff" stroke="#63b8ff" points="1390.85,-42.04 1386.83,-45.76 1389.64,-42.45 1386.11,-43.63 1386.11,-43.63 1386.11,-43.63 1389.64,-42.45 1385.4,-41.5 1390.85,-42.04"/>
</a>
</g>
</g>
<!-- Node16 -->
<g id="Node000016" class="node">
<title>Node16</title>
<g id="a_Node000016"><a xlink:href="../../d4/dbe/namespaceanonymous__namespace_02_win_msg_box_exe_8cpp_03.html#aa8940d19449f89ab180165a36e11b4a2" target="_top" xlink:title="Sanitizes and appends one title character to the command&#45;line prefix.">
<polygon fill="white" stroke="none" points="1746,-101.75 1568,-101.75 1568,-60 1746,-60 1746,-101.75"/>
<text xml:space="preserve" text-anchor="start" x="1576" y="-87.3" font-family="Consolas" font-size="11.00">anonymous_namespace</text>
<text xml:space="preserve" text-anchor="start" x="1576" y="-76.05" font-family="Consolas" font-size="11.00">{WinMsgBoxExe::cpp}</text>
<text xml:space="preserve" text-anchor="middle" x="1657" y="-64.8" font-family="Consolas" font-size="11.00">::cmdLineBufAppendTitleChar</text>
</a>
</g>
</g>
<!-- Node15&#45;&gt;Node16 -->
<g id="edge15_Node000015_Node000016" class="edge">
<title>Node15&#45;&gt;Node16</title>
<g id="a_edge15_Node000015_Node000016"><a xlink:title=" ">
<path fill="none" stroke="#63b8ff" d="M1531.9,-80.88C1541.78,-80.88 1552,-80.88 1562.13,-80.88"/>
<polygon fill="#63b8ff" stroke="#63b8ff" points="1566.87,-80.88 1561.87,-83.13 1565.59,-80.88 1561.87,-80.88 1561.87,-80.88 1561.87,-80.88 1565.59,-80.88 1561.87,-78.63 1566.87,-80.88"/>
</a>
</g>
</g>
<!-- Node19 -->
<g id="Node000019" class="node">
<title>Node19</title>
<g id="a_Node000019"><a xlink:href="../../d8/d47/structanonymous__namespace_02_log_8cpp_03_1_1_leaked_state.html#aa17c6f240dd55f157216265327935ac5" target="_top" xlink:title=" ">
<polygon fill="white" stroke="none" points="766,-94.75 612,-94.75 612,-53 766,-53 766,-94.75"/>
<text xml:space="preserve" text-anchor="start" x="620" y="-80.3" font-family="Consolas" font-size="11.00">anonymous_namespace</text>
<text xml:space="preserve" text-anchor="start" x="620" y="-69.05" font-family="Consolas" font-size="11.00">{Log::cpp}::LeakedState</text>
<text xml:space="preserve" text-anchor="middle" x="689" y="-57.8" font-family="Consolas" font-size="11.00">::LeakedState</text>
</a>
</g>
</g>
<!-- Node18&#45;&gt;Node19 -->
<g id="edge18_Node000018_Node000019" class="edge">
<title>Node18&#45;&gt;Node19</title>
<g id="a_edge18_Node000018_Node000019"><a xlink:title=" ">
<path fill="none" stroke="#63b8ff" d="M551.94,-73.88C569.55,-73.88 588.37,-73.88 606.22,-73.88"/>
<polygon fill="#63b8ff" stroke="#63b8ff" points="611.02,-73.88 606.02,-76.13 609.74,-73.88 606.02,-73.88 606.02,-73.88 606.02,-73.88 609.74,-73.88 606.02,-71.63 611.02,-73.88"/>
</a>
</g>
</g>
<!-- Node19&#45;&gt;Node19 -->
<g id="edge19_Node000019_Node000019" class="edge">
<title>Node19&#45;&gt;Node19</title>
<g id="a_edge19_Node000019_Node000019"><a xlink:title=" ">
<path fill="none" stroke="#63b8ff" d="M650.77,-94.67C646.6,-104.32 659.34,-112.75 689,-112.75 712.17,-112.75 725.01,-107.61 727.54,-100.75"/>
<polygon fill="#63b8ff" stroke="#63b8ff" points="727.29,-95.89 729.79,-100.77 727.36,-97.17 727.54,-100.88 727.54,-100.88 727.54,-100.88 727.36,-97.17 725.3,-101 727.29,-95.89"/>
</a>
</g>
</g>
<!-- Node20&#45;&gt;Node18 -->
<g id="edge25_Node000020_Node000018" class="edge">
<title>Node20&#45;&gt;Node18</title>
<g id="a_edge25_Node000020_Node000018"><a xlink:title=" ">
<path fill="none" stroke="#63b8ff" d="M337.57,-185.13C342.02,-182.4 346.23,-179.32 350,-175.88 376.38,-151.71 359.05,-127.41 386,-103.88 388.51,-101.69 391.18,-99.65 393.98,-97.77"/>
<polygon fill="#63b8ff" stroke="#63b8ff" points="398.11,-95.18 395.07,-99.74 397.02,-95.86 393.87,-97.84 393.87,-97.84 393.87,-97.84 397.02,-95.86 392.68,-95.93 398.11,-95.18"/>
</a>
</g>
</g>
<!-- Node20&#45;&gt;Node20 -->
<g id="edge26_Node000020_Node000020" class="edge">
<title>Node20&#45;&gt;Node20</title>
<g id="a_edge26_Node000020_Node000020"><a xlink:title=" ">
<path fill="none" stroke="#63b8ff" d="M237.53,-226.67C233.66,-236.32 245.48,-244.75 273,-244.75 294.5,-244.75 306.42,-239.61 308.76,-232.75"/>
<polygon fill="#63b8ff" stroke="#63b8ff" points="308.53,-227.89 311.01,-232.78 308.59,-229.17 308.76,-232.88 308.76,-232.88 308.76,-232.88 308.59,-229.17 306.52,-232.99 308.53,-227.89"/>
</a>
</g>
</g>
<!-- Node21 -->
<g id="Node000021" class="node">
<title>Node21</title>
<g id="a_Node000021"><a xlink:href="../../dc/dba/namespacenpi_1_1app.html#a40a2a28831f2f410c995f0657baf6544" target="_top" xlink:title="Application ProgramData path: C:/ProgramData/[organization]/[Application].">
<polygon fill="white" stroke="none" points="564,-210.5 386,-210.5 386,-191.25 564,-191.25 564,-210.5"/>
<text xml:space="preserve" text-anchor="middle" x="475" y="-196.05" font-family="Consolas" font-size="11.00">npi::app::appProgramDataDir</text>
</a>
</g>
</g>
<!-- Node20&#45;&gt;Node21 -->
<g id="edge21_Node000020_Node000021" class="edge">
<title>Node20&#45;&gt;Node21</title>
<g id="a_edge21_Node000020_Node000021"><a xlink:title=" ">
<path fill="none" stroke="#63b8ff" d="M337.83,-204.28C351.34,-203.94 365.86,-203.58 380.21,-203.22"/>
<polygon fill="#63b8ff" stroke="#63b8ff" points="385.12,-203.1 380.18,-205.47 383.84,-203.13 380.13,-203.22 380.13,-203.22 380.13,-203.22 383.84,-203.13 380.07,-200.97 385.12,-203.1"/>
</a>
</g>
</g>
<!-- Node24 -->
<g id="Node000024" class="node">
<title>Node24</title>
<g id="a_Node000024"><a xlink:href="../../d3/d55/namespaceanonymous__namespace_02_log_8cpp_03_1_1control.html#a3a8077999c13c0cee65f995122e46196" target="_top" xlink:title="Converts a QSettings status to explanatory user&#45;facing text.">
<polygon fill="white" stroke="none" points="543,-270.75 407,-270.75 407,-229 543,-229 543,-270.75"/>
<text xml:space="preserve" text-anchor="start" x="415" y="-256.3" font-family="Consolas" font-size="11.00">anonymous_namespace</text>
<text xml:space="preserve" text-anchor="start" x="415" y="-245.05" font-family="Consolas" font-size="11.00">{Log::cpp}::control</text>
<text xml:space="preserve" text-anchor="middle" x="475" y="-233.8" font-family="Consolas" font-size="11.00">::settingsStatusText</text>
</a>
</g>
</g>
<!-- Node20&#45;&gt;Node24 -->
<g id="edge27_Node000020_Node000024" class="edge">
<title>Node20&#45;&gt;Node24</title>
<g id="a_edge27_Node000020_Node000024"><a xlink:title=" ">
<path fill="none" stroke="#63b8ff" d="M337.83,-219.92C358.1,-224.38 380.67,-229.34 401.5,-233.93"/>
<polygon fill="#63b8ff" stroke="#63b8ff" points="406.14,-234.95 400.77,-236.07 404.89,-234.67 401.26,-233.87 401.26,-233.87 401.26,-233.87 404.89,-234.67 401.74,-231.67 406.14,-234.95"/>
</a>
</g>
</g>
<!-- Node25 -->
<g id="Node000025" class="node">
<title>Node25</title>
<g id="a_Node000025"><a xlink:href="../../d3/d55/namespaceanonymous__namespace_02_log_8cpp_03_1_1control.html#ac2b824ac899ce94ad3251f16688adfd6" target="_top" xlink:title="Displays a warning message through Qt or the executable fallback.">
<polygon fill="white" stroke="none" points="540,-154.75 410,-154.75 410,-113 540,-113 540,-154.75"/>
<text xml:space="preserve" text-anchor="start" x="418" y="-140.3" font-family="Consolas" font-size="11.00">anonymous_namespace</text>
<text xml:space="preserve" text-anchor="start" x="418" y="-129.05" font-family="Consolas" font-size="11.00">{Log::cpp}::control</text>
<text xml:space="preserve" text-anchor="middle" x="475" y="-117.8" font-family="Consolas" font-size="11.00">::showWarnMsg</text>
</a>
</g>
</g>
<!-- Node20&#45;&gt;Node25 -->
<g id="edge29_Node000020_Node000025" class="edge">
<title>Node20&#45;&gt;Node25</title>
<g id="a_edge29_Node000020_Node000025"><a xlink:title=" ">
<path fill="none" stroke="#63b8ff" d="M331.85,-185.05C356.52,-176.17 385.37,-165.78 410.62,-156.69"/>
<polygon fill="#63b8ff" stroke="#63b8ff" points="415.14,-155.07 411.19,-158.88 413.93,-155.5 410.43,-156.76 410.43,-156.76 410.43,-156.76 413.93,-155.5 409.67,-154.64 415.14,-155.07"/>
</a>
</g>
</g>
<!-- Node22 -->
<g id="Node000022" class="node">
<title>Node22</title>
<g id="a_Node000022"><a xlink:href="../../dc/dba/namespacenpi_1_1app.html#a30836be8b9337a64733a6e05594b23c8" target="_top" xlink:title="Organization ProgramData path: C:/ProgramData/[organization].">
<polygon fill="white" stroke="none" points="778,-210.5 600,-210.5 600,-191.25 778,-191.25 778,-210.5"/>
<text xml:space="preserve" text-anchor="middle" x="689" y="-196.05" font-family="Consolas" font-size="11.00">npi::app::orgProgramDataDir</text>
</a>
</g>
</g>
<!-- Node21&#45;&gt;Node22 -->
<g id="edge22_Node000021_Node000022" class="edge">
<title>Node21&#45;&gt;Node22</title>
<g id="a_edge22_Node000021_Node000022"><a xlink:title=" ">
<path fill="none" stroke="#63b8ff" d="M563.76,-200.88C573.85,-200.88 584.17,-200.88 594.34,-200.88"/>
<polygon fill="#63b8ff" stroke="#63b8ff" points="599.09,-200.88 594.09,-203.13 597.81,-200.88 594.09,-200.88 594.09,-200.88 594.09,-200.88 597.81,-200.88 594.09,-198.63 599.09,-200.88"/>
</a>
</g>
</g>
<!-- Node23 -->
<g id="Node000023" class="node">
<title>Node23</title>
<g id="a_Node000023"><a xlink:href="../../d9/dee/namespaceanonymous__namespace_02_meta_info_8cpp_03.html#a83a890c0d741a2d9697ff6eb4744f8c1" target="_top" xlink:title="Resolve base path using Known Folder ID or environment variable fallback.">
<polygon fill="white" stroke="none" points="980,-216.12 814,-216.12 814,-185.62 980,-185.62 980,-216.12"/>
<text xml:space="preserve" text-anchor="start" x="822" y="-201.68" font-family="Consolas" font-size="11.00">anonymous_namespace</text>
<text xml:space="preserve" text-anchor="middle" x="897" y="-190.43" font-family="Consolas" font-size="11.00">{MetaInfo::cpp}::basePath</text>
</a>
</g>
</g>
<!-- Node22&#45;&gt;Node23 -->
<g id="edge23_Node000022_Node000023" class="edge">
<title>Node22&#45;&gt;Node23</title>
<g id="a_edge23_Node000022_Node000023"><a xlink:title=" ">
<path fill="none" stroke="#63b8ff" d="M777.96,-200.88C787.92,-200.88 798.08,-200.88 808.04,-200.88"/>
<polygon fill="#63b8ff" stroke="#63b8ff" points="812.99,-200.88 807.99,-203.13 811.71,-200.88 807.99,-200.88 807.99,-200.88 807.99,-200.88 811.71,-200.88 807.99,-198.63 812.99,-200.88"/>
</a>
</g>
</g>
<!-- Node23&#45;&gt;Node7 -->
<g id="edge24_Node000023_Node000007" class="edge">
<title>Node23&#45;&gt;Node7</title>
<g id="a_edge24_Node000023_Node000007"><a xlink:title=" ">
<path fill="none" stroke="#63b8ff" d="M979.99,-200.88C989.93,-200.88 1000.08,-200.88 1010.01,-200.88"/>
<polygon fill="#63b8ff" stroke="#63b8ff" points="1014.94,-200.88 1009.94,-203.13 1013.66,-200.88 1009.94,-200.88 1009.94,-200.88 1009.94,-200.88 1013.66,-200.88 1009.94,-198.63 1014.94,-200.88"/>
</a>
</g>
</g>
<!-- Node24&#45;&gt;Node24 -->
<g id="edge28_Node000024_Node000024" class="edge">
<title>Node24&#45;&gt;Node24</title>
<g id="a_edge28_Node000024_Node000024"><a xlink:title=" ">
<path fill="none" stroke="#63b8ff" d="M437.87,-270.67C433.82,-280.32 446.2,-288.75 475,-288.75 497.5,-288.75 509.98,-283.61 512.43,-276.75"/>
<polygon fill="#63b8ff" stroke="#63b8ff" points="512.19,-271.89 514.68,-276.77 512.25,-273.17 512.43,-276.88 512.43,-276.88 512.43,-276.88 512.25,-273.17 510.19,-276.99 512.19,-271.89"/>
</a>
</g>
</g>
<!-- Node25&#45;&gt;Node25 -->
<g id="edge30_Node000025_Node000025" class="edge">
<title>Node25&#45;&gt;Node25</title>
<g id="a_edge30_Node000025_Node000025"><a xlink:title=" ">
<path fill="none" stroke="#63b8ff" d="M437.87,-154.67C433.82,-164.32 446.2,-172.75 475,-172.75 497.5,-172.75 509.98,-167.61 512.43,-160.75"/>
<polygon fill="#63b8ff" stroke="#63b8ff" points="512.19,-155.89 514.68,-160.77 512.25,-157.17 512.43,-160.88 512.43,-160.88 512.43,-160.88 512.25,-157.17 510.19,-160.99 512.19,-155.89"/>
</a>
</g>
</g>
<!-- Node26 -->
<g id="Node000026" class="node">
<title>Node26</title>
<g id="a_Node000026"><a xlink:href="../../dc/dba/namespacenpi_1_1app.html#a8a8a5a1bb6702937ac0df7ce82143606" target="_top" xlink:title="Launches npiMsgBox.exe to show a warning message box.">
<polygon fill="white" stroke="none" points="1170,-150.5 1016,-150.5 1016,-131.25 1170,-131.25 1170,-150.5"/>
<text xml:space="preserve" text-anchor="middle" x="1093" y="-136.05" font-family="Consolas" font-size="11.00">npi::app::winWarnMsgExe</text>
</a>
</g>
</g>
<!-- Node25&#45;&gt;Node26 -->
<g id="edge31_Node000025_Node000026" class="edge">
<title>Node25&#45;&gt;Node26</title>
<g id="a_edge31_Node000025_Node000026"><a xlink:title=" ">
<path fill="none" stroke="#63b8ff" d="M539.89,-134.6C652.48,-135.88 886.04,-138.53 1010.22,-139.95"/>
<polygon fill="#63b8ff" stroke="#63b8ff" points="1015.2,-140 1010.17,-142.2 1013.92,-139.99 1010.2,-139.95 1010.2,-139.95 1010.2,-139.95 1013.92,-139.99 1010.22,-137.7 1015.2,-140"/>
</a>
</g>
</g>
<!-- Node26&#45;&gt;Node8 -->
<g id="edge32_Node000026_Node000008" class="edge">
<title>Node26&#45;&gt;Node8</title>
<g id="a_edge32_Node000026_Node000008"><a xlink:title=" ">
<path fill="none" stroke="#63b8ff" d="M1117.95,-150.48C1133.83,-157.6 1154.5,-168.39 1170,-181.88 1190.39,-199.61 1184.97,-213.9 1206,-230.88 1208.6,-232.98 1211.38,-234.96 1214.26,-236.83"/>
<polygon fill="#63b8ff" stroke="#63b8ff" points="1218.51,-239.44 1213.07,-238.75 1217.42,-238.77 1214.25,-236.83 1214.25,-236.83 1214.25,-236.83 1217.42,-238.77 1215.43,-234.91 1218.51,-239.44"/>
</a>
</g>
</g>
<!-- Node26&#45;&gt;Node11 -->
<g id="edge33_Node000026_Node000011" class="edge">
<title>Node26&#45;&gt;Node11</title>
<g id="a_edge33_Node000026_Node000011"><a xlink:title=" ">
<path fill="none" stroke="#63b8ff" d="M1122.36,-150.38C1144.64,-157.85 1176.59,-168.56 1205.33,-178.19"/>
<polygon fill="#63b8ff" stroke="#63b8ff" points="1209.88,-179.72 1204.43,-180.26 1208.67,-179.31 1205.14,-178.13 1205.14,-178.13 1205.14,-178.13 1208.67,-179.31 1205.86,-176 1209.88,-179.72"/>
</a>
</g>
</g>
<!-- Node26&#45;&gt;Node12 -->
<g id="edge34_Node000026_Node000012" class="edge">
<title>Node26&#45;&gt;Node12</title>
<g id="a_edge34_Node000026_Node000012"><a xlink:title=" ">
<path fill="none" stroke="#63b8ff" d="M1169.91,-140.88C1180.93,-140.88 1192.22,-140.88 1203.11,-140.88"/>
<polygon fill="#63b8ff" stroke="#63b8ff" points="1207.89,-140.88 1202.89,-143.13 1206.61,-140.88 1202.89,-140.88 1202.89,-140.88 1202.89,-140.88 1206.61,-140.88 1202.89,-138.63 1207.89,-140.88"/>
</a>
</g>
</g>
<!-- Node26&#45;&gt;Node13 -->
<g id="edge35_Node000026_Node000013" class="edge">
<title>Node26&#45;&gt;Node13</title>
<g id="a_edge35_Node000026_Node000013"><a xlink:title=" ">
<path fill="none" stroke="#63b8ff" d="M1122.36,-131.37C1144.64,-123.9 1176.59,-113.19 1205.33,-103.56"/>
<polygon fill="#63b8ff" stroke="#63b8ff" points="1209.88,-102.03 1205.86,-105.75 1208.67,-102.44 1205.14,-103.62 1205.14,-103.62 1205.14,-103.62 1208.67,-102.44 1204.43,-101.49 1209.88,-102.03"/>
</a>
</g>
</g>
<!-- Node27&#45;&gt;Node18 -->
<g id="edge38_Node000027_Node000018" class="edge">
<title>Node27&#45;&gt;Node18</title>
<g id="a_edge38_Node000027_Node000018"><a xlink:title=" ">
<path fill="none" stroke="#63b8ff" d="M337.83,-110.64C355.24,-105.94 374.33,-100.79 392.57,-95.86"/>
<polygon fill="#63b8ff" stroke="#63b8ff" points="397.03,-94.66 392.78,-98.13 395.79,-94.99 392.2,-95.96 392.2,-95.96 392.2,-95.96 395.79,-94.99 391.61,-93.79 397.03,-94.66"/>
</a>
</g>
</g>
<!-- Node27&#45;&gt;Node21 -->
<g id="edge37_Node000027_Node000021" class="edge">
<title>Node27&#45;&gt;Node21</title>
<g id="a_edge37_Node000027_Node000021"><a xlink:title=" ">
<path fill="none" stroke="#63b8ff" d="M311.41,-148.67C332.74,-159.82 360.28,-173.04 386,-181.88 394.94,-184.95 404.56,-187.63 414.05,-189.93"/>
<polygon fill="#63b8ff" stroke="#63b8ff" points="418.74,-191.03 413.36,-192.08 417.49,-190.74 413.88,-189.89 413.88,-189.89 413.88,-189.89 417.49,-190.74 414.39,-187.7 418.74,-191.03"/>
</a>
</g>
</g>
<!-- Node27&#45;&gt;Node24 -->
<g id="edge40_Node000027_Node000024" class="edge">
<title>Node27&#45;&gt;Node24</title>
<g id="a_edge40_Node000027_Node000024"><a xlink:title=" ">
<path fill="none" stroke="#63b8ff" d="M312.02,-148.58C324.72,-156.33 338.54,-165.74 350,-175.88 368.93,-192.62 365.24,-205.47 386,-219.88 390.87,-223.26 396.16,-226.29 401.64,-229"/>
<polygon fill="#63b8ff" stroke="#63b8ff" points="406.08,-231.08 400.6,-230.99 404.92,-230.54 401.55,-228.95 401.55,-228.95 401.55,-228.95 404.92,-230.54 402.51,-226.92 406.08,-231.08"/>
</a>
</g>
</g>
<!-- Node27&#45;&gt;Node25 -->
<g id="edge41_Node000027_Node000025" class="edge">
<title>Node27&#45;&gt;Node25</title>
<g id="a_edge41_Node000027_Node000025"><a xlink:title=" ">
<path fill="none" stroke="#63b8ff" d="M337.83,-129.79C358.94,-130.42 382.53,-131.13 404.07,-131.78"/>
<polygon fill="#63b8ff" stroke="#63b8ff" points="408.87,-131.92 403.81,-134.02 407.59,-131.88 403.87,-131.77 403.87,-131.77 403.87,-131.77 407.59,-131.88 403.94,-129.52 408.87,-131.92"/>
</a>
</g>
</g>
<!-- Node27&#45;&gt;Node27 -->
<g id="edge39_Node000027_Node000027" class="edge">
<title>Node27&#45;&gt;Node27</title>
<g id="a_edge39_Node000027_Node000027"><a xlink:title=" ">
<path fill="none" stroke="#63b8ff" d="M237.53,-148.67C233.66,-158.32 245.48,-166.75 273,-166.75 294.5,-166.75 306.42,-161.61 308.76,-154.75"/>
<polygon fill="#63b8ff" stroke="#63b8ff" points="308.53,-149.89 311.01,-154.78 308.59,-151.17 308.76,-154.88 308.76,-154.88 308.76,-154.88 308.59,-151.17 306.52,-154.99 308.53,-149.89"/>
</a>
</g>
</g>
</g>
</svg>

<g id="navigator" transform="translate(0 0)" fill="#404254">
  <rect fill="#f2f5e9" fill-opacity="0.5" stroke="#606060" stroke-width=".5" x="0" y="0" width="60" height="60"/>
  <use id="zoomplus" xlink:href="#zoomPlus" x="17" y="9" onmousedown="handleZoom(evt,'in')"/>
  <use id="zoomminus" xlink:href="#zoomMin" x="42" y="9" onmousedown="handleZoom(evt,'out')"/>
  <use id="reset" xlink:href="#resetDef" x="30" y="36" onmousedown="handleReset()"/>
   <use id="arrowup" xlink:href="#arrowUp" x="0" y="0" onmousedown="handlePan(0,-1)"/>
  <use id="arrowright" xlink:href="#arrowRight" x="0" y="0" onmousedown="handlePan(1,0)"/>
  <use id="arrowdown" xlink:href="#arrowDown" x="0" y="0" onmousedown="handlePan(0,1)"/>
  <use id="arrowleft" xlink:href="#arrowLeft" x="0" y="0" onmousedown="handlePan(-1,0)"/>
</g>
<svg viewBox="0 0 15 15" width="100%" height="30px" preserveAspectRatio="xMaxYMin meet">
 <g id="arrow_out" transform="scale(0.3 0.3)">
  <a xlink:href="namespacenpi_1_1log_aa8f2d23ad1c757d005b28864d17b6ba7_cgraph_org.svg" target="_base">
   <rect id="button" ry="5" rx="5" y="6" x="6" height="38" width="38"
        fill="#f2f5e9" fill-opacity="0.5" stroke="#606060" stroke-width="1.0"/>
   <path id="arrow"
     d="M 11.500037,31.436501 C 11.940474,20.09759 22.043105,11.32322 32.158766,21.979434 L 37.068811,17.246167 C 37.068811,17.246167 37.088388,32 37.088388,32 L 22.160133,31.978069 C 22.160133,31.978069 26.997745,27.140456 26.997745,27.140456 C 18.528582,18.264221 13.291696,25.230495 11.500037,31.436501 z"
     style="fill:#404040;"/>
  </a>
 </g>
</svg>

<style type='text/css'>
<![CDATA[
[data-mouse-over-selected='false'] { opacity: 0.7; }
[data-mouse-over-selected='true']  { opacity: 1.0; }
]]>
</style>
<script type="application/ecmascript"><![CDATA[
document.addEventListener('DOMContentLoaded', (event) => {
  highlightEdges();
  highlightAdjacentNodes();
});
]]></script>
</svg>
