<?xml version="1.0" encoding="UTF-8" standalone="no"?>
<!DOCTYPE svg PUBLIC "-//W3C//DTD SVG 1.1//EN"
 "http://www.w3.org/Graphics/SVG/1.1/DTD/svg11.dtd">
<!-- Generated by graphviz version 14.0.0 (20250921.2048)
 -->
<!-- Title: npi::log::defaultDir Pages: 1 -->
<svg width="560pt" height="107pt"
 viewBox="0.00 0.00 560.00 107.00" xmlns="http://www.w3.org/2000/svg" xmlns:xlink="http://www.w3.org/1999/xlink">
<g id="graph0" class="graph" transform="scale(1 1) rotate(0) translate(4 102.88)">
<title>npi::log::defaultDir</title>
<!-- Node1 -->
<g id="Node000001" class="node">
<title>Node1</title>
<g id="a_Node000001"><a xlink:title=" ">
<polygon fill="#999999" stroke="none" points="552,-56.25 416,-56.25 416,-37 552,-37 552,-56.25"/>
<text xml:space="preserve" text-anchor="start" x="424" y="-42.8" font-family="Consolas" font-weight="bold" font-size="11.00">npi::log::defaultDir</text>
</a>
</g>
</g>
<!-- Node2 -->
<g id="Node000002" class="node">
<title>Node2</title>
<g id="a_Node000002"><a xlink:href="../../d5/ddd/namespacenpi_1_1log.html#ad3a49953f000d2b255f2e32166048605" target="_top" xlink:title=" ">
<polygon fill="white" stroke="none" points="356,-93.25 226,-93.25 226,-74 356,-74 356,-93.25"/>
<text xml:space="preserve" text-anchor="middle" x="291" y="-78.8" font-family="Consolas" font-size="11.00">npi::log::getConfig</text>
</a>
</g>
</g>
<!-- Node1&#45;&gt;Node2 -->
<g id="edge1_Node000001_Node000002" class="edge">
<title>Node1&#45;&gt;Node2</title>
<g id="a_edge1_Node000001_Node000002"><a xlink:title=" ">
<path fill="none" stroke="#63b8ff" d="M427.25,-57.43C400.09,-62.69 367.7,-68.96 341.44,-74.05"/>
<polygon fill="#63b8ff" stroke="#63b8ff" points="432.12,-56.48 427.64,-59.64 430.86,-56.73 427.21,-57.43 427.21,-57.43 427.21,-57.43 430.86,-56.73 426.78,-55.22 432.12,-56.48"/>
</a>
</g>
</g>
<!-- Node4 -->
<g id="Node000004" class="node">
<title>Node4</title>
<g id="a_Node000004"><a xlink:href="../../d5/ddd/namespacenpi_1_1log.html#ae0762e568cebcd885346fb347ffb9579" target="_top" xlink:title=" ">
<polygon fill="white" stroke="none" points="380,-56.25 202,-56.25 202,-37 380,-37 380,-56.25"/>
<text xml:space="preserve" text-anchor="middle" x="291" y="-41.8" font-family="Consolas" font-size="11.00">npi::log::restoreDefaultDir</text>
</a>
</g>
</g>
<!-- Node1&#45;&gt;Node4 -->
<g id="edge3_Node000001_Node000004" class="edge">
<title>Node1&#45;&gt;Node4</title>
<g id="a_edge3_Node000001_Node000004"><a xlink:title=" ">
<path fill="none" stroke="#63b8ff" d="M410.1,-46.62C400.23,-46.62 390.01,-46.62 379.91,-46.62"/>
<polygon fill="#63b8ff" stroke="#63b8ff" points="414.98,-46.63 409.98,-48.88 413.7,-46.63 409.98,-46.63 409.98,-46.63 409.98,-46.63 413.7,-46.63 409.98,-44.38 414.98,-46.63"/>
</a>
</g>
</g>
<!-- Node5 -->
<g id="Node000005" class="node">
<title>Node5</title>
<g id="a_Node000005"><a xlink:href="../../d5/ddd/namespacenpi_1_1log.html#a8f3b90122377e77601b8b4e55362ec34" target="_top" xlink:title=" ">
<polygon fill="white" stroke="none" points="347,-19.25 235,-19.25 235,0 347,0 347,-19.25"/>
<text xml:space="preserve" text-anchor="middle" x="291" y="-4.8" font-family="Consolas" font-size="11.00">npi::log::setDir</text>
</a>
</g>
</g>
<!-- Node1&#45;&gt;Node5 -->
<g id="edge4_Node000001_Node000005" class="edge">
<title>Node1&#45;&gt;Node5</title>
<g id="a_edge4_Node000001_Node000005"><a xlink:title=" ">
<path fill="none" stroke="#63b8ff" d="M427.25,-35.82C400.09,-30.56 367.7,-24.29 341.44,-19.2"/>
<polygon fill="#63b8ff" stroke="#63b8ff" points="432.12,-36.77 426.78,-38.03 430.86,-36.52 427.21,-35.82 427.21,-35.82 427.21,-35.82 430.86,-36.52 427.64,-33.61 432.12,-36.77"/>
</a>
</g>
</g>
<!-- Node3 -->
<g id="Node000003" class="node">
<title>Node3</title>
<g id="a_Node000003"><a xlink:href="../../dc/d8e/namespaceanonymous__namespace_02_log_8cpp_03.html#a474bf1d9b97572fbc7245fa612f19a5d" target="_top" xlink:title=" ">
<polygon fill="white" stroke="none" points="166,-98.88 0,-98.88 0,-68.38 166,-68.38 166,-98.88"/>
<text xml:space="preserve" text-anchor="start" x="8" y="-84.42" font-family="Consolas" font-size="11.00">anonymous_namespace</text>
<text xml:space="preserve" text-anchor="middle" x="83" y="-73.17" font-family="Consolas" font-size="11.00">{Log::cpp}::aScheduleInit</text>
</a>
</g>
</g>
<!-- Node2&#45;&gt;Node3 -->
<g id="edge2_Node000002_Node000003" class="edge">
<title>Node2&#45;&gt;Node3</title>
<g id="a_edge2_Node000002_Node000003"><a xlink:title=" ">
<path fill="none" stroke="#63b8ff" d="M220.34,-83.62C202.78,-83.62 183.78,-83.62 165.69,-83.62"/>
<polygon fill="#63b8ff" stroke="#63b8ff" points="225.01,-83.63 220.01,-85.88 223.73,-83.63 220.01,-83.63 220.01,-83.63 220.01,-83.63 223.73,-83.63 220.01,-81.38 225.01,-83.63"/>
</a>
</g>
</g>
</g>
</svg>
