<?xml version="1.0" encoding="UTF-8" standalone="no"?>
<!DOCTYPE svg PUBLIC "-//W3C//DTD SVG 1.1//EN"
 "http://www.w3.org/Graphics/SVG/1.1/DTD/svg11.dtd">
<!-- Generated by graphviz version 14.0.0 (20250921.2048)
 -->
<!-- Title: npi::log::defaultDir Pages: 1 -->
<!--zoomable 115 -->

<svg id="main" version="1.1" xmlns="http://www.w3.org/2000/svg" xmlns:xlink="http://www.w3.org/1999/xlink" xml:space="preserve" onload="init(evt)">

<style type="text/css"><![CDATA[
.node, .edge {opacity: 0.7;}
.node.selected, .edge.selected {opacity: 1;}
.edge:hover path { stroke: red; }
.edge:hover polygon { stroke: red; fill: red; }
]]></style>

<defs>
  <circle id="rim" cx="0" cy="0" r="7"/>
  <circle id="rim2" cx="0" cy="0" r="3.5"/>
  <g id="zoomPlus">
    <use xlink:href="#rim" fill="#404040"><set attributeName="fill" to="#808080" begin="zoomplus.mouseover" end="zoomplus.mouseout"/></use>
    <path d="M-4,0h8M0,-4v8" fill="none" stroke="white" stroke-width="1.5" pointer-events="none"/>
  </g>
  <g id="zoomMin">
    <use xlink:href="#rim" fill="#404040"><set attributeName="fill" to="#808080" begin="zoomminus.mouseover" end="zoomminus.mouseout"/></use>
    <path d="M-4,0h8" fill="none" stroke="white" stroke-width="1.5" pointer-events="none"/>
  </g>
  <g id="arrowUp" transform="translate(30 24)">
    <use xlink:href="#rim"/>
    <path pointer-events="none" fill="none" stroke="white" stroke-width="1.5" d="M0,-3.0v7 M-2.5,-0.5L0,-3.0L2.5,-0.5"/>
  </g>
  <g id="arrowRight" transform="rotate(90) translate(36 -43)">
    <use xlink:href="#rim"/>
    <path pointer-events="none" fill="none" stroke="white" stroke-width="1.5" d="M0,-3.0v7 M-2.5,-0.5L0,-3.0L2.5,-0.5"/>
  </g>
  <g id="arrowDown" transform="rotate(180) translate(-30 -48)">
    <use xlink:href="#rim"/>
    <path pointer-events="none" fill="none" stroke="white" stroke-width="1.5" d="M0,-3.0v7 M-2.5,-0.5L0,-3.0L2.5,-0.5"/>
  </g>
  <g id="arrowLeft" transform="rotate(270) translate(-36 17)">
    <use xlink:href="#rim"/>
    <path pointer-events="none" fill="none" stroke="white" stroke-width="1.5" d="M0,-3.0v7 M-2.5,-0.5L0,-3.0L2.5,-0.5"/>
  </g>
  <g id="resetDef">
    <use xlink:href="#rim2" fill="#404040"><set attributeName="fill" to="#808080" begin="reset.mouseover" end="reset.mouseout"/></use>
  </g>
</defs>
<script type="application/ecmascript">
var viewWidth = 1078;
var viewHeight = 115;
var sectionId = 'dynsection-0';
</script>
<script type="application/ecmascript" xlink:href="../../svg.min.js"/>
<svg id="graph" class="graph">
<g id="viewport">
<title>npi::log::defaultDir</title>
<!-- Node1 -->
<g id="Node000001" class="node">
<title>Node1</title>
<g id="a_Node000001"><a xlink:title=" ">
<polygon fill="#999999" stroke="none" points="136,-55.28 0,-55.28 0,-36.03 136,-36.03 136,-55.28"/>
<text xml:space="preserve" text-anchor="start" x="8" y="-41.83" font-family="Consolas" font-weight="bold" font-size="11.00">npi::log::defaultDir</text>
</a>
</g>
</g>
<!-- Node2 -->
<g id="Node000002" class="node">
<title>Node2</title>
<g id="a_Node000002"><a xlink:href="../../dc/d8e/namespaceanonymous__namespace_02_log_8cpp_03.html#aeff2e7bab0c6e2ea92dca005b93c47c4" target="_top" xlink:title=" ">
<polygon fill="white" stroke="none" points="362,-103.91 184,-103.91 184,-73.41 362,-73.41 362,-103.91"/>
<text xml:space="preserve" text-anchor="start" x="192" y="-89.46" font-family="Consolas" font-size="11.00">anonymous_namespace</text>
<text xml:space="preserve" text-anchor="middle" x="273" y="-78.21" font-family="Consolas" font-size="11.00">{Log::cpp}::aCleanedDirPath</text>
</a>
</g>
</g>
<!-- Node1&#45;&gt;Node2 -->
<g id="edge1_Node000001_Node000002" class="edge">
<title>Node1&#45;&gt;Node2</title>
<g id="a_edge1_Node000001_Node000002"><a xlink:title=" ">
<path fill="none" stroke="#63b8ff" d="M114.3,-55.26C137.77,-60.23 167.09,-66.44 194.06,-72.15"/>
<polygon fill="#63b8ff" stroke="#63b8ff" points="198.94,-73.18 193.58,-74.35 197.68,-72.92 194.05,-72.15 194.05,-72.15 194.05,-72.15 197.68,-72.92 194.51,-69.95 198.94,-73.18"/>
</a>
</g>
</g>
<!-- Node3 -->
<g id="Node000003" class="node">
<title>Node3</title>
<g id="a_Node000003"><a xlink:href="../../dc/dba/namespacenpi_1_1app.html#aff4c7482e4417f59ede04e359548a542" target="_top" xlink:title="Absolute application&#45;level Public/Documents path.">
<polygon fill="white" stroke="none" points="374,-55.28 172,-55.28 172,-36.03 374,-36.03 374,-55.28"/>
<text xml:space="preserve" text-anchor="middle" x="273" y="-40.83" font-family="Consolas" font-size="11.00">npi::app::appPublicDocumentsDir</text>
</a>
</g>
</g>
<!-- Node1&#45;&gt;Node3 -->
<g id="edge2_Node000001_Node000003" class="edge">
<title>Node1&#45;&gt;Node3</title>
<g id="a_edge2_Node000001_Node000003"><a xlink:title=" ">
<path fill="none" stroke="#63b8ff" d="M135.75,-45.66C145.51,-45.66 155.75,-45.66 166.06,-45.66"/>
<polygon fill="#63b8ff" stroke="#63b8ff" points="170.91,-45.66 165.91,-47.91 169.63,-45.66 165.91,-45.66 165.91,-45.66 165.91,-45.66 169.63,-45.66 165.91,-43.41 170.91,-45.66"/>
</a>
</g>
</g>
<!-- Node5 -->
<g id="Node000005" class="node">
<title>Node5</title>
<g id="a_Node000005"><a xlink:href="../../dc/dba/namespacenpi_1_1app.html#a30b5245afa890e98f19f43c58f29e633" target="_top" xlink:title="Windows native fatal error message box.">
<polygon fill="white" stroke="none" points="1070,-52.28 886,-52.28 886,-33.03 1070,-33.03 1070,-52.28"/>
<text xml:space="preserve" text-anchor="middle" x="978" y="-37.83" font-family="Consolas" font-size="11.00">npi::app::nativeFatalMessage</text>
</a>
</g>
</g>
<!-- Node1&#45;&gt;Node5 -->
<g id="edge9_Node000001_Node000005" class="edge">
<title>Node1&#45;&gt;Node5</title>
<g id="a_edge9_Node000001_Node000005"><a xlink:title=" ">
<path fill="none" stroke="#63b8ff" d="M112.12,-36.06C130.48,-32.4 152.19,-28.64 172,-26.66 471.86,3.31 549.96,9.44 850,-18.66 876.98,-21.19 906.77,-26.67 930.71,-31.76"/>
<polygon fill="#63b8ff" stroke="#63b8ff" points="935.47,-32.79 930.11,-33.93 934.22,-32.52 930.59,-31.73 930.59,-31.73 930.59,-31.73 934.22,-32.52 931.06,-29.53 935.47,-32.79"/>
</a>
</g>
</g>
<!-- Node4 -->
<g id="Node000004" class="node">
<title>Node4</title>
<g id="a_Node000004"><a xlink:href="../../df/d40/namespaceanonymous__namespace_02_meta_paths_8cpp_03.html#a1554aad28987c554d0ff1c379ce0567e" target="_top" xlink:title="Create subdirectory under base path.">
<polygon fill="white" stroke="none" points="850,-106.91 648,-106.91 648,-76.41 850,-76.41 850,-106.91"/>
<text xml:space="preserve" text-anchor="start" x="656" y="-92.46" font-family="Consolas" font-size="11.00">anonymous_namespace</text>
<text xml:space="preserve" text-anchor="middle" x="749" y="-81.21" font-family="Consolas" font-size="11.00">{MetaPaths::cpp}::aCreateSubDir</text>
</a>
</g>
</g>
<!-- Node3&#45;&gt;Node4 -->
<g id="edge3_Node000003_Node000004" class="edge">
<title>Node3&#45;&gt;Node4</title>
<g id="a_edge3_Node000003_Node000004"><a xlink:title=" ">
<path fill="none" stroke="#63b8ff" d="M337.21,-55.28C360.11,-58.56 386.18,-62.05 410,-64.66 487.53,-73.16 575.36,-80.1 642.04,-84.81"/>
<polygon fill="#63b8ff" stroke="#63b8ff" points="646.81,-85.14 641.66,-87.04 645.53,-85.05 641.82,-84.79 641.82,-84.79 641.82,-84.79 645.53,-85.05 641.98,-82.55 646.81,-85.14"/>
</a>
</g>
</g>
<!-- Node6 -->
<g id="Node000006" class="node">
<title>Node6</title>
<g id="a_Node000006"><a xlink:href="../../dc/dba/namespacenpi_1_1app.html#ac0dca24602a75822c6f7fcf63f8781d9" target="_top" xlink:title="Absolute organization&#45;level Public/Documents path.">
<polygon fill="white" stroke="none" points="612,-55.28 410,-55.28 410,-36.03 612,-36.03 612,-55.28"/>
<text xml:space="preserve" text-anchor="middle" x="511" y="-40.83" font-family="Consolas" font-size="11.00">npi::app::orgPublicDocumentsDir</text>
</a>
</g>
</g>
<!-- Node3&#45;&gt;Node6 -->
<g id="edge5_Node000003_Node000006" class="edge">
<title>Node3&#45;&gt;Node6</title>
<g id="a_edge5_Node000003_Node000006"><a xlink:title=" ">
<path fill="none" stroke="#63b8ff" d="M373.74,-45.66C383.84,-45.66 394.12,-45.66 404.27,-45.66"/>
<polygon fill="#63b8ff" stroke="#63b8ff" points="409.02,-45.66 404.02,-47.91 407.74,-45.66 404.02,-45.66 404.02,-45.66 404.02,-45.66 407.74,-45.66 404.02,-43.41 409.02,-45.66"/>
</a>
</g>
</g>
<!-- Node4&#45;&gt;Node5 -->
<g id="edge4_Node000004_Node000005" class="edge">
<title>Node4&#45;&gt;Node5</title>
<g id="a_edge4_Node000004_Node000005"><a xlink:title=" ">
<path fill="none" stroke="#63b8ff" d="M820.58,-76.42C855.01,-68.99 895.62,-60.23 926.83,-53.49"/>
<polygon fill="#63b8ff" stroke="#63b8ff" points="931.35,-52.51 926.94,-55.77 930.1,-52.78 926.46,-53.57 926.46,-53.57 926.46,-53.57 930.1,-52.78 925.99,-51.37 931.35,-52.51"/>
</a>
</g>
</g>
<!-- Node6&#45;&gt;Node4 -->
<g id="edge8_Node000006_Node000004" class="edge">
<title>Node6&#45;&gt;Node4</title>
<g id="a_edge8_Node000006_Node000004"><a xlink:title=" ">
<path fill="none" stroke="#63b8ff" d="M561.19,-55.25C590.94,-61.05 629.67,-68.59 664.14,-75.31"/>
<polygon fill="#63b8ff" stroke="#63b8ff" points="668.88,-76.24 663.54,-77.49 667.62,-75.99 663.97,-75.28 663.97,-75.28 663.97,-75.28 667.62,-75.99 664.4,-73.07 668.88,-76.24"/>
</a>
</g>
</g>
<!-- Node7 -->
<g id="Node000007" class="node">
<title>Node7</title>
<g id="a_Node000007"><a xlink:href="../../df/d40/namespaceanonymous__namespace_02_meta_paths_8cpp_03.html#a1ba3938f670cc7526df2081bf6f6c0ce" target="_top" xlink:title="Resolve base path using Known Folder ID or environment variable fallback.">
<polygon fill="white" stroke="none" points="838,-57.91 660,-57.91 660,-27.41 838,-27.41 838,-57.91"/>
<text xml:space="preserve" text-anchor="start" x="668" y="-43.46" font-family="Consolas" font-size="11.00">anonymous_namespace</text>
<text xml:space="preserve" text-anchor="middle" x="749" y="-32.21" font-family="Consolas" font-size="11.00">{MetaPaths::cpp}::aBasePath</text>
</a>
</g>
</g>
<!-- Node6&#45;&gt;Node7 -->
<g id="edge6_Node000006_Node000007" class="edge">
<title>Node6&#45;&gt;Node7</title>
<g id="a_edge6_Node000006_Node000007"><a xlink:title=" ">
<path fill="none" stroke="#63b8ff" d="M611.74,-44.39C625.83,-44.21 640.28,-44.03 654.25,-43.85"/>
<polygon fill="#63b8ff" stroke="#63b8ff" points="658.99,-43.79 654.02,-46.1 657.71,-43.81 653.99,-43.85 653.99,-43.85 653.99,-43.85 657.71,-43.81 653.96,-41.6 658.99,-43.79"/>
</a>
</g>
</g>
<!-- Node7&#45;&gt;Node5 -->
<g id="edge7_Node000007_Node000005" class="edge">
<title>Node7&#45;&gt;Node5</title>
<g id="a_edge7_Node000007_Node000005"><a xlink:title=" ">
<path fill="none" stroke="#63b8ff" d="M837.76,-42.66C851.63,-42.66 866.03,-42.66 880.09,-42.66"/>
<polygon fill="#63b8ff" stroke="#63b8ff" points="884.87,-42.66 879.87,-44.91 883.59,-42.66 879.87,-42.66 879.87,-42.66 879.87,-42.66 883.59,-42.66 879.87,-40.41 884.87,-42.66"/>
</a>
</g>
</g>
</g>
</svg>

<g id="navigator" transform="translate(0 0)" fill="#404254">
  <rect fill="#f2f5e9" fill-opacity="0.5" stroke="#606060" stroke-width=".5" x="0" y="0" width="60" height="60"/>
  <use id="zoomplus" xlink:href="#zoomPlus" x="17" y="9" onmousedown="handleZoom(evt,'in')"/>
  <use id="zoomminus" xlink:href="#zoomMin" x="42" y="9" onmousedown="handleZoom(evt,'out')"/>
  <use id="reset" xlink:href="#resetDef" x="30" y="36" onmousedown="handleReset()"/>
   <use id="arrowup" xlink:href="#arrowUp" x="0" y="0" onmousedown="handlePan(0,-1)"/>
  <use id="arrowright" xlink:href="#arrowRight" x="0" y="0" onmousedown="handlePan(1,0)"/>
  <use id="arrowdown" xlink:href="#arrowDown" x="0" y="0" onmousedown="handlePan(0,1)"/>
  <use id="arrowleft" xlink:href="#arrowLeft" x="0" y="0" onmousedown="handlePan(-1,0)"/>
</g>
<svg viewBox="0 0 15 15" width="100%" height="30px" preserveAspectRatio="xMaxYMin meet">
 <g id="arrow_out" transform="scale(0.3 0.3)">
  <a xlink:href="namespacenpi_1_1log_adc43e95b1d6b8f65bb04565dfda8a776_cgraph_org.svg" target="_base">
   <rect id="button" ry="5" rx="5" y="6" x="6" height="38" width="38"
        fill="#f2f5e9" fill-opacity="0.5" stroke="#606060" stroke-width="1.0"/>
   <path id="arrow"
     d="M 11.500037,31.436501 C 11.940474,20.09759 22.043105,11.32322 32.158766,21.979434 L 37.068811,17.246167 C 37.068811,17.246167 37.088388,32 37.088388,32 L 22.160133,31.978069 C 22.160133,31.978069 26.997745,27.140456 26.997745,27.140456 C 18.528582,18.264221 13.291696,25.230495 11.500037,31.436501 z"
     style="fill:#404040;"/>
  </a>
 </g>
</svg>

<style type='text/css'>
<![CDATA[
[data-mouse-over-selected='false'] { opacity: 0.7; }
[data-mouse-over-selected='true']  { opacity: 1.0; }
]]>
</style>
<script type="application/ecmascript"><![CDATA[
document.addEventListener('DOMContentLoaded', (event) => {
  highlightEdges();
  highlightAdjacentNodes();
});
]]></script>
</svg>
