<?xml version="1.0" encoding="UTF-8" standalone="no"?>
<!DOCTYPE svg PUBLIC "-//W3C//DTD SVG 1.1//EN"
 "http://www.w3.org/Graphics/SVG/1.1/DTD/svg11.dtd">
<!-- Generated by graphviz version 14.0.0 (20250921.2048)
 -->
<!-- Title: npi::log::setWarnAsImpLog Pages: 1 -->
<svg width="1362pt" height="128pt"
 viewBox="0.00 0.00 1362.00 128.00" xmlns="http://www.w3.org/2000/svg" xmlns:xlink="http://www.w3.org/1999/xlink">
<g id="graph0" class="graph" transform="scale(1 1) rotate(0) translate(4 123.75)">
<title>npi::log::setWarnAsImpLog</title>
<!-- Node1 -->
<g id="Node000001" class="node">
<title>Node1</title>
<g id="a_Node000001"><a xlink:title=" ">
<polygon fill="#999999" stroke="none" points="166,-60.5 0,-60.5 0,-41.25 166,-41.25 166,-60.5"/>
<text xml:space="preserve" text-anchor="start" x="8" y="-47.05" font-family="Consolas" font-weight="bold" font-size="11.00">npi::log::setWarnAsImpLog</text>
</a>
</g>
</g>
<!-- Node2 -->
<g id="Node000002" class="node">
<title>Node2</title>
<g id="a_Node000002"><a xlink:href="../../d0/d61/classanonymous__namespace_02_log_8cpp_03_1_1_log_core.html#af85854d22c95e86c8802d7d864fcd350" target="_top" xlink:title=" ">
<polygon fill="white" stroke="none" points="332,-101.75 202,-101.75 202,-60 332,-60 332,-101.75"/>
<text xml:space="preserve" text-anchor="start" x="210" y="-87.3" font-family="Consolas" font-size="11.00">anonymous_namespace</text>
<text xml:space="preserve" text-anchor="start" x="210" y="-76.05" font-family="Consolas" font-size="11.00">{Log::cpp}::LogCore</text>
<text xml:space="preserve" text-anchor="middle" x="267" y="-64.8" font-family="Consolas" font-size="11.00">::Inst_</text>
</a>
</g>
</g>
<!-- Node1&#45;&gt;Node2 -->
<g id="edge1_Node000001_Node000002" class="edge">
<title>Node1&#45;&gt;Node2</title>
<g id="a_edge1_Node000001_Node000002"><a xlink:title=" ">
<path fill="none" stroke="#63b8ff" d="M142.34,-60.49C159.43,-63.31 178.3,-66.42 196.04,-69.34"/>
<polygon fill="#63b8ff" stroke="#63b8ff" points="200.8,-70.13 195.51,-71.54 199.54,-69.92 195.87,-69.32 195.87,-69.32 195.87,-69.32 199.54,-69.92 196.24,-67.1 200.8,-70.13"/>
</a>
</g>
</g>
<!-- Node4 -->
<g id="Node000004" class="node">
<title>Node4</title>
<g id="a_Node000004"><a xlink:href="../../d0/d61/classanonymous__namespace_02_log_8cpp_03_1_1_log_core.html#a59eebbde2d3d36263a0d7a96e595573b" target="_top" xlink:title=" ">
<polygon fill="white" stroke="none" points="332,-41.75 202,-41.75 202,0 332,0 332,-41.75"/>
<text xml:space="preserve" text-anchor="start" x="210" y="-27.3" font-family="Consolas" font-size="11.00">anonymous_namespace</text>
<text xml:space="preserve" text-anchor="start" x="210" y="-16.05" font-family="Consolas" font-size="11.00">{Log::cpp}::LogCore</text>
<text xml:space="preserve" text-anchor="middle" x="267" y="-4.8" font-family="Consolas" font-size="11.00">::setWarnIsImp_</text>
</a>
</g>
</g>
<!-- Node1&#45;&gt;Node4 -->
<g id="edge4_Node000001_Node000004" class="edge">
<title>Node1&#45;&gt;Node4</title>
<g id="a_edge4_Node000001_Node000004"><a xlink:title=" ">
<path fill="none" stroke="#63b8ff" d="M142.34,-41.26C159.43,-38.44 178.3,-35.33 196.04,-32.41"/>
<polygon fill="#63b8ff" stroke="#63b8ff" points="200.8,-31.62 196.24,-34.65 199.54,-31.83 195.87,-32.43 195.87,-32.43 195.87,-32.43 199.54,-31.83 195.51,-30.21 200.8,-31.62"/>
</a>
</g>
</g>
<!-- Node3 -->
<g id="Node000003" class="node">
<title>Node3</title>
<g id="a_Node000003"><a xlink:href="../../d0/d61/classanonymous__namespace_02_log_8cpp_03_1_1_log_core.html#a730f0868e0c404fa25a887a023b70138" target="_top" xlink:title=" ">
<polygon fill="white" stroke="none" points="498,-101.75 368,-101.75 368,-60 498,-60 498,-101.75"/>
<text xml:space="preserve" text-anchor="start" x="376" y="-87.3" font-family="Consolas" font-size="11.00">anonymous_namespace</text>
<text xml:space="preserve" text-anchor="start" x="376" y="-76.05" font-family="Consolas" font-size="11.00">{Log::cpp}::LogCore</text>
<text xml:space="preserve" text-anchor="middle" x="433" y="-64.8" font-family="Consolas" font-size="11.00">::LogCore</text>
</a>
</g>
</g>
<!-- Node2&#45;&gt;Node3 -->
<g id="edge2_Node000002_Node000003" class="edge">
<title>Node2&#45;&gt;Node3</title>
<g id="a_edge2_Node000002_Node000003"><a xlink:title=" ">
<path fill="none" stroke="#63b8ff" d="M331.88,-80.88C341.71,-80.88 351.9,-80.88 361.86,-80.88"/>
<polygon fill="#63b8ff" stroke="#63b8ff" points="366.81,-80.88 361.81,-83.13 365.53,-80.88 361.81,-80.88 361.81,-80.88 361.81,-80.88 365.53,-80.88 361.81,-78.63 366.81,-80.88"/>
</a>
</g>
</g>
<!-- Node3&#45;&gt;Node3 -->
<g id="edge3_Node000003_Node000003" class="edge">
<title>Node3&#45;&gt;Node3</title>
<g id="a_edge3_Node000003_Node000003"><a xlink:title=" ">
<path fill="none" stroke="#63b8ff" d="M402.49,-101.67C399.16,-111.32 409.33,-119.75 433,-119.75 451.49,-119.75 461.74,-114.61 463.76,-107.75"/>
<polygon fill="#63b8ff" stroke="#63b8ff" points="463.56,-102.89 466.01,-107.79 463.61,-104.17 463.76,-107.89 463.76,-107.89 463.76,-107.89 463.61,-104.17 461.51,-107.98 463.56,-102.89"/>
</a>
</g>
</g>
<!-- Node5 -->
<g id="Node000005" class="node">
<title>Node5</title>
<g id="a_Node000005"><a xlink:href="../../d0/d61/classanonymous__namespace_02_log_8cpp_03_1_1_log_core.html#a5fa684811c33eea49f63593fea332de4" target="_top" xlink:title=" ">
<polygon fill="white" stroke="none" points="498,-41.75 368,-41.75 368,0 498,0 498,-41.75"/>
<text xml:space="preserve" text-anchor="start" x="376" y="-27.3" font-family="Consolas" font-size="11.00">anonymous_namespace</text>
<text xml:space="preserve" text-anchor="start" x="376" y="-16.05" font-family="Consolas" font-size="11.00">{Log::cpp}::LogCore</text>
<text xml:space="preserve" text-anchor="middle" x="433" y="-4.8" font-family="Consolas" font-size="11.00">::saveSettings_</text>
</a>
</g>
</g>
<!-- Node4&#45;&gt;Node5 -->
<g id="edge5_Node000004_Node000005" class="edge">
<title>Node4&#45;&gt;Node5</title>
<g id="a_edge5_Node000004_Node000005"><a xlink:title=" ">
<path fill="none" stroke="#63b8ff" d="M331.88,-20.88C341.71,-20.88 351.9,-20.88 361.86,-20.88"/>
<polygon fill="#63b8ff" stroke="#63b8ff" points="366.81,-20.88 361.81,-23.13 365.53,-20.88 361.81,-20.88 361.81,-20.88 361.81,-20.88 365.53,-20.88 361.81,-18.63 366.81,-20.88"/>
</a>
</g>
</g>
<!-- Node6 -->
<g id="Node000006" class="node">
<title>Node6</title>
<g id="a_Node000006"><a xlink:href="../../dc/dba/namespacenpi_1_1app.html#a40a2a28831f2f410c995f0657baf6544" target="_top" xlink:title="Absolute application&#45;level ProgramData path.">
<polygon fill="white" stroke="none" points="712,-30.5 534,-30.5 534,-11.25 712,-11.25 712,-30.5"/>
<text xml:space="preserve" text-anchor="middle" x="623" y="-16.05" font-family="Consolas" font-size="11.00">npi::app::appProgramDataDir</text>
</a>
</g>
</g>
<!-- Node5&#45;&gt;Node6 -->
<g id="edge6_Node000005_Node000006" class="edge">
<title>Node5&#45;&gt;Node6</title>
<g id="a_edge6_Node000005_Node000006"><a xlink:title=" ">
<path fill="none" stroke="#63b8ff" d="M497.91,-20.88C507.7,-20.88 517.97,-20.88 528.24,-20.88"/>
<polygon fill="#63b8ff" stroke="#63b8ff" points="533.07,-20.88 528.07,-23.13 531.79,-20.88 528.07,-20.88 528.07,-20.88 528.07,-20.88 531.79,-20.88 528.07,-18.63 533.07,-20.88"/>
</a>
</g>
</g>
<!-- Node7 -->
<g id="Node000007" class="node">
<title>Node7</title>
<g id="a_Node000007"><a xlink:href="../../dc/dba/namespacenpi_1_1app.html#a30836be8b9337a64733a6e05594b23c8" target="_top" xlink:title="Absolute organization&#45;level ProgramData path.">
<polygon fill="white" stroke="none" points="926,-30.5 748,-30.5 748,-11.25 926,-11.25 926,-30.5"/>
<text xml:space="preserve" text-anchor="middle" x="837" y="-16.05" font-family="Consolas" font-size="11.00">npi::app::orgProgramDataDir</text>
</a>
</g>
</g>
<!-- Node6&#45;&gt;Node7 -->
<g id="edge7_Node000006_Node000007" class="edge">
<title>Node6&#45;&gt;Node7</title>
<g id="a_edge7_Node000006_Node000007"><a xlink:title=" ">
<path fill="none" stroke="#63b8ff" d="M711.76,-20.88C721.85,-20.88 732.17,-20.88 742.34,-20.88"/>
<polygon fill="#63b8ff" stroke="#63b8ff" points="747.09,-20.88 742.09,-23.13 745.81,-20.88 742.09,-20.88 742.09,-20.88 742.09,-20.88 745.81,-20.88 742.09,-18.63 747.09,-20.88"/>
</a>
</g>
</g>
<!-- Node8 -->
<g id="Node000008" class="node">
<title>Node8</title>
<g id="a_Node000008"><a xlink:href="../../df/d40/namespaceanonymous__namespace_02_meta_paths_8cpp_03.html#a6b23c92ed8a542082d8cddde4bd55b47" target="_top" xlink:title="Resolve base path using Known Folder ID or environment variable fallback.">
<polygon fill="white" stroke="none" points="1134,-36.12 962,-36.12 962,-5.63 1134,-5.63 1134,-36.12"/>
<text xml:space="preserve" text-anchor="start" x="970" y="-21.68" font-family="Consolas" font-size="11.00">anonymous_namespace</text>
<text xml:space="preserve" text-anchor="middle" x="1048" y="-10.43" font-family="Consolas" font-size="11.00">{MetaPaths::cpp}::basePath</text>
</a>
</g>
</g>
<!-- Node7&#45;&gt;Node8 -->
<g id="edge8_Node000007_Node000008" class="edge">
<title>Node7&#45;&gt;Node8</title>
<g id="a_edge8_Node000007_Node000008"><a xlink:title=" ">
<path fill="none" stroke="#63b8ff" d="M925.73,-20.88C935.81,-20.88 946.11,-20.88 956.24,-20.88"/>
<polygon fill="#63b8ff" stroke="#63b8ff" points="960.95,-20.88 955.95,-23.13 959.67,-20.88 955.95,-20.88 955.95,-20.88 955.95,-20.88 959.67,-20.88 955.95,-18.63 960.95,-20.88"/>
</a>
</g>
</g>
<!-- Node9 -->
<g id="Node000009" class="node">
<title>Node9</title>
<g id="a_Node000009"><a xlink:href="../../dc/dba/namespacenpi_1_1app.html#a30b5245afa890e98f19f43c58f29e633" target="_top" xlink:title="Windows native fatal error message box.">
<polygon fill="white" stroke="none" points="1354,-30.5 1170,-30.5 1170,-11.25 1354,-11.25 1354,-30.5"/>
<text xml:space="preserve" text-anchor="middle" x="1262" y="-16.05" font-family="Consolas" font-size="11.00">npi::app::nativeFatalMessage</text>
</a>
</g>
</g>
<!-- Node8&#45;&gt;Node9 -->
<g id="edge9_Node000008_Node000009" class="edge">
<title>Node8&#45;&gt;Node9</title>
<g id="a_edge9_Node000008_Node000009"><a xlink:title=" ">
<path fill="none" stroke="#63b8ff" d="M1133.7,-20.88C1143.73,-20.88 1154.02,-20.88 1164.2,-20.88"/>
<polygon fill="#63b8ff" stroke="#63b8ff" points="1168.96,-20.88 1163.96,-23.13 1167.68,-20.88 1163.96,-20.88 1163.96,-20.88 1163.96,-20.88 1167.68,-20.88 1163.96,-18.63 1168.96,-20.88"/>
</a>
</g>
</g>
</g>
</svg>
