<?xml version="1.0" encoding="UTF-8" standalone="no"?>
<!DOCTYPE svg PUBLIC "-//W3C//DTD SVG 1.1//EN"
 "http://www.w3.org/Graphics/SVG/1.1/DTD/svg11.dtd">
<!-- Generated by graphviz version 14.0.0 (20250921.2048)
 -->
<!-- Title: npi::log::restoreDefaultDir Pages: 1 -->
<!--zoomable 185 -->

<svg id="main" version="1.1" xmlns="http://www.w3.org/2000/svg" xmlns:xlink="http://www.w3.org/1999/xlink" xml:space="preserve" onload="init(evt)">

<style type="text/css"><![CDATA[
.node, .edge {opacity: 0.7;}
.node.selected, .edge.selected {opacity: 1;}
.edge:hover path { stroke: red; }
.edge:hover polygon { stroke: red; fill: red; }
]]></style>

<defs>
  <circle id="rim" cx="0" cy="0" r="7"/>
  <circle id="rim2" cx="0" cy="0" r="3.5"/>
  <g id="zoomPlus">
    <use xlink:href="#rim" fill="#404040"><set attributeName="fill" to="#808080" begin="zoomplus.mouseover" end="zoomplus.mouseout"/></use>
    <path d="M-4,0h8M0,-4v8" fill="none" stroke="white" stroke-width="1.5" pointer-events="none"/>
  </g>
  <g id="zoomMin">
    <use xlink:href="#rim" fill="#404040"><set attributeName="fill" to="#808080" begin="zoomminus.mouseover" end="zoomminus.mouseout"/></use>
    <path d="M-4,0h8" fill="none" stroke="white" stroke-width="1.5" pointer-events="none"/>
  </g>
  <g id="arrowUp" transform="translate(30 24)">
    <use xlink:href="#rim"/>
    <path pointer-events="none" fill="none" stroke="white" stroke-width="1.5" d="M0,-3.0v7 M-2.5,-0.5L0,-3.0L2.5,-0.5"/>
  </g>
  <g id="arrowRight" transform="rotate(90) translate(36 -43)">
    <use xlink:href="#rim"/>
    <path pointer-events="none" fill="none" stroke="white" stroke-width="1.5" d="M0,-3.0v7 M-2.5,-0.5L0,-3.0L2.5,-0.5"/>
  </g>
  <g id="arrowDown" transform="rotate(180) translate(-30 -48)">
    <use xlink:href="#rim"/>
    <path pointer-events="none" fill="none" stroke="white" stroke-width="1.5" d="M0,-3.0v7 M-2.5,-0.5L0,-3.0L2.5,-0.5"/>
  </g>
  <g id="arrowLeft" transform="rotate(270) translate(-36 17)">
    <use xlink:href="#rim"/>
    <path pointer-events="none" fill="none" stroke="white" stroke-width="1.5" d="M0,-3.0v7 M-2.5,-0.5L0,-3.0L2.5,-0.5"/>
  </g>
  <g id="resetDef">
    <use xlink:href="#rim2" fill="#404040"><set attributeName="fill" to="#808080" begin="reset.mouseover" end="reset.mouseout"/></use>
  </g>
</defs>
<script type="application/ecmascript">
var viewWidth = 1334;
var viewHeight = 185;
var sectionId = 'dynsection-4';
</script>
<script type="application/ecmascript" xlink:href="../../svg.min.js"/>
<svg id="graph" class="graph">
<g id="viewport">
<title>npi::log::restoreDefaultDir</title>
<!-- Node1 -->
<g id="Node000001" class="node">
<title>Node1</title>
<g id="a_Node000001"><a xlink:title=" ">
<polygon fill="#999999" stroke="none" points="178,-86.88 0,-86.88 0,-67.62 178,-67.62 178,-86.88"/>
<text xml:space="preserve" text-anchor="start" x="8" y="-73.42" font-family="Consolas" font-weight="bold" font-size="11.00">npi::log::restoreDefaultDir</text>
</a>
</g>
</g>
<!-- Node2 -->
<g id="Node000002" class="node">
<title>Node2</title>
<g id="a_Node000002"><a xlink:href="../../dc/d8e/namespaceanonymous__namespace_02_log_8cpp_03.html#aeff2e7bab0c6e2ea92dca005b93c47c4" target="_top" xlink:title=" ">
<polygon fill="white" stroke="none" points="618,-111.5 440,-111.5 440,-81 618,-81 618,-111.5"/>
<text xml:space="preserve" text-anchor="start" x="448" y="-97.05" font-family="Consolas" font-size="11.00">anonymous_namespace</text>
<text xml:space="preserve" text-anchor="middle" x="529" y="-85.8" font-family="Consolas" font-size="11.00">{Log::cpp}::aCleanedDirPath</text>
</a>
</g>
</g>
<!-- Node1&#45;&gt;Node2 -->
<g id="edge1_Node000001_Node000002" class="edge">
<title>Node1&#45;&gt;Node2</title>
<g id="a_edge1_Node000001_Node000002"><a xlink:title=" ">
<path fill="none" stroke="#63b8ff" d="M177.85,-81.06C252.2,-84.29 358.49,-88.9 434.43,-92.19"/>
<polygon fill="#63b8ff" stroke="#63b8ff" points="439.08,-92.39 433.99,-94.42 437.8,-92.34 434.09,-92.18 434.09,-92.18 434.09,-92.18 437.8,-92.34 434.19,-89.93 439.08,-92.39"/>
</a>
</g>
</g>
<!-- Node3 -->
<g id="Node000003" class="node">
<title>Node3</title>
<g id="a_Node000003"><a xlink:href="../../dc/d8e/namespaceanonymous__namespace_02_log_8cpp_03.html#a4fd28b9a729792528c3707da82453049" target="_top" xlink:title=" ">
<polygon fill="white" stroke="none" points="392,-30.5 214,-30.5 214,0 392,0 392,-30.5"/>
<text xml:space="preserve" text-anchor="start" x="222" y="-16.05" font-family="Consolas" font-size="11.00">anonymous_namespace</text>
<text xml:space="preserve" text-anchor="middle" x="303" y="-4.8" font-family="Consolas" font-size="11.00">{Log::cpp}::aConfigLockName</text>
</a>
</g>
</g>
<!-- Node1&#45;&gt;Node3 -->
<g id="edge2_Node000001_Node000003" class="edge">
<title>Node1&#45;&gt;Node3</title>
<g id="a_edge2_Node000001_Node000003"><a xlink:title=" ">
<path fill="none" stroke="#63b8ff" d="M120.24,-67.69C145.3,-59.85 181.88,-48.55 214,-39.25 222.16,-36.89 230.76,-34.46 239.26,-32.1"/>
<polygon fill="#63b8ff" stroke="#63b8ff" points="243.95,-30.81 239.73,-34.31 242.71,-31.15 239.13,-32.14 239.13,-32.14 239.13,-32.14 242.71,-31.15 238.53,-29.97 243.95,-30.81"/>
</a>
</g>
</g>
<!-- Node4 -->
<g id="Node000004" class="node">
<title>Node4</title>
<g id="a_Node000004"><a xlink:href="../../dc/dba/namespacenpi_1_1app.html#a40a2a28831f2f410c995f0657baf6544" target="_top" xlink:title="Absolute application&#45;level ProgramData path.">
<polygon fill="white" stroke="none" points="618,-148.88 440,-148.88 440,-129.62 618,-129.62 618,-148.88"/>
<text xml:space="preserve" text-anchor="middle" x="529" y="-134.43" font-family="Consolas" font-size="11.00">npi::app::appProgramDataDir</text>
</a>
</g>
</g>
<!-- Node1&#45;&gt;Node4 -->
<g id="edge3_Node000001_Node000004" class="edge">
<title>Node1&#45;&gt;Node4</title>
<g id="a_edge3_Node000001_Node000004"><a xlink:title=" ">
<path fill="none" stroke="#63b8ff" d="M137.88,-86.82C160.85,-91.24 188.79,-96.35 214,-100.25 287.76,-111.66 371.67,-121.94 434.18,-129.08"/>
<polygon fill="#63b8ff" stroke="#63b8ff" points="438.95,-129.63 433.73,-131.3 437.68,-129.48 433.99,-129.06 433.99,-129.06 433.99,-129.06 437.68,-129.48 434.24,-126.83 438.95,-129.63"/>
</a>
</g>
</g>
<!-- Node9 -->
<g id="Node000009" class="node">
<title>Node9</title>
<g id="a_Node000009"><a xlink:href="../../d5/ddd/namespacenpi_1_1log.html#adc43e95b1d6b8f65bb04565dfda8a776" target="_top" xlink:title=" ">
<polygon fill="white" stroke="none" points="371,-67.88 235,-67.88 235,-48.62 371,-48.62 371,-67.88"/>
<text xml:space="preserve" text-anchor="middle" x="303" y="-53.42" font-family="Consolas" font-size="11.00">npi::log::defaultDir</text>
</a>
</g>
</g>
<!-- Node1&#45;&gt;Node9 -->
<g id="edge10_Node000001_Node000009" class="edge">
<title>Node1&#45;&gt;Node9</title>
<g id="a_edge10_Node000001_Node000009"><a xlink:title=" ">
<path fill="none" stroke="#63b8ff" d="M177.76,-69.38C194.8,-67.86 212.5,-66.27 229,-64.79"/>
<polygon fill="#63b8ff" stroke="#63b8ff" points="233.81,-64.36 229.03,-67.05 232.54,-64.48 228.83,-64.81 228.83,-64.81 228.83,-64.81 232.54,-64.48 228.63,-62.57 233.81,-64.36"/>
</a>
</g>
</g>
<!-- Node5 -->
<g id="Node000005" class="node">
<title>Node5</title>
<g id="a_Node000005"><a xlink:href="../../df/d40/namespaceanonymous__namespace_02_meta_paths_8cpp_03.html#a1554aad28987c554d0ff1c379ce0567e" target="_top" xlink:title="Create subdirectory under base path.">
<polygon fill="white" stroke="none" points="1106,-106.5 904,-106.5 904,-76 1106,-76 1106,-106.5"/>
<text xml:space="preserve" text-anchor="start" x="912" y="-92.05" font-family="Consolas" font-size="11.00">anonymous_namespace</text>
<text xml:space="preserve" text-anchor="middle" x="1005" y="-80.8" font-family="Consolas" font-size="11.00">{MetaPaths::cpp}::aCreateSubDir</text>
</a>
</g>
</g>
<!-- Node4&#45;&gt;Node5 -->
<g id="edge4_Node000004_Node000005" class="edge">
<title>Node4&#45;&gt;Node5</title>
<g id="a_edge4_Node000004_Node000005"><a xlink:title=" ">
<path fill="none" stroke="#63b8ff" d="M617.67,-133.01C685.97,-127.85 783.14,-119.81 868,-110.25 877.8,-109.15 887.99,-107.9 898.18,-106.59"/>
<polygon fill="#63b8ff" stroke="#63b8ff" points="902.97,-105.97 898.3,-108.85 901.7,-106.14 898.01,-106.61 898.01,-106.61 898.01,-106.61 901.7,-106.14 897.72,-104.38 902.97,-105.97"/>
</a>
</g>
</g>
<!-- Node7 -->
<g id="Node000007" class="node">
<title>Node7</title>
<g id="a_Node000007"><a xlink:href="../../dc/dba/namespacenpi_1_1app.html#a30836be8b9337a64733a6e05594b23c8" target="_top" xlink:title="Absolute organization&#45;level ProgramData path.">
<polygon fill="white" stroke="none" points="856,-176.88 678,-176.88 678,-157.62 856,-157.62 856,-176.88"/>
<text xml:space="preserve" text-anchor="middle" x="767" y="-162.43" font-family="Consolas" font-size="11.00">npi::app::orgProgramDataDir</text>
</a>
</g>
</g>
<!-- Node4&#45;&gt;Node7 -->
<g id="edge6_Node000004_Node000007" class="edge">
<title>Node4&#45;&gt;Node7</title>
<g id="a_edge6_Node000004_Node000007"><a xlink:title=" ">
<path fill="none" stroke="#63b8ff" d="M610.89,-148.85C632.94,-151.46 656.91,-154.31 679.27,-156.96"/>
<polygon fill="#63b8ff" stroke="#63b8ff" points="684.01,-157.52 678.78,-159.17 682.74,-157.37 679.04,-156.93 679.04,-156.93 679.04,-156.93 682.74,-157.37 679.31,-154.7 684.01,-157.52"/>
</a>
</g>
</g>
<!-- Node6 -->
<g id="Node000006" class="node">
<title>Node6</title>
<g id="a_Node000006"><a xlink:href="../../dc/dba/namespacenpi_1_1app.html#a30b5245afa890e98f19f43c58f29e633" target="_top" xlink:title="Windows native fatal error message box.">
<polygon fill="white" stroke="none" points="1326,-100.88 1142,-100.88 1142,-81.62 1326,-81.62 1326,-100.88"/>
<text xml:space="preserve" text-anchor="middle" x="1234" y="-86.42" font-family="Consolas" font-size="11.00">npi::app::nativeFatalMessage</text>
</a>
</g>
</g>
<!-- Node5&#45;&gt;Node6 -->
<g id="edge5_Node000005_Node000006" class="edge">
<title>Node5&#45;&gt;Node6</title>
<g id="a_edge5_Node000005_Node000006"><a xlink:title=" ">
<path fill="none" stroke="#63b8ff" d="M1105.9,-91.25C1115.84,-91.25 1125.94,-91.25 1135.86,-91.25"/>
<polygon fill="#63b8ff" stroke="#63b8ff" points="1140.79,-91.25 1135.79,-93.5 1139.51,-91.25 1135.79,-91.25 1135.79,-91.25 1135.79,-91.25 1139.51,-91.25 1135.79,-89 1140.79,-91.25"/>
</a>
</g>
</g>
<!-- Node7&#45;&gt;Node5 -->
<g id="edge9_Node000007_Node000005" class="edge">
<title>Node7&#45;&gt;Node5</title>
<g id="a_edge9_Node000007_Node000005"><a xlink:title=" ">
<path fill="none" stroke="#63b8ff" d="M825.69,-157.63C839.91,-154.12 854.83,-149.44 868,-143.25 886.1,-134.74 885.94,-124.85 904,-116.25 910.19,-113.31 916.76,-110.68 923.46,-108.35"/>
<polygon fill="#63b8ff" stroke="#63b8ff" points="927.96,-106.85 923.93,-110.57 926.75,-107.25 923.22,-108.43 923.22,-108.43 923.22,-108.43 926.75,-107.25 922.51,-106.3 927.96,-106.85"/>
</a>
</g>
</g>
<!-- Node8 -->
<g id="Node000008" class="node">
<title>Node8</title>
<g id="a_Node000008"><a xlink:href="../../df/d40/namespaceanonymous__namespace_02_meta_paths_8cpp_03.html#a1ba3938f670cc7526df2081bf6f6c0ce" target="_top" xlink:title="Resolve base path using Known Folder ID or environment variable fallback.">
<polygon fill="white" stroke="none" points="1094,-155.5 916,-155.5 916,-125 1094,-125 1094,-155.5"/>
<text xml:space="preserve" text-anchor="start" x="924" y="-141.05" font-family="Consolas" font-size="11.00">anonymous_namespace</text>
<text xml:space="preserve" text-anchor="middle" x="1005" y="-129.8" font-family="Consolas" font-size="11.00">{MetaPaths::cpp}::aBasePath</text>
</a>
</g>
</g>
<!-- Node7&#45;&gt;Node8 -->
<g id="edge7_Node000007_Node000008" class="edge">
<title>Node7&#45;&gt;Node8</title>
<g id="a_edge7_Node000007_Node000008"><a xlink:title=" ">
<path fill="none" stroke="#63b8ff" d="M851.87,-157.65C870.72,-155.5 890.84,-153.2 910.07,-151"/>
<polygon fill="#63b8ff" stroke="#63b8ff" points="914.8,-150.46 910.09,-153.26 913.53,-150.6 909.83,-151.02 909.83,-151.02 909.83,-151.02 913.53,-150.6 909.58,-148.79 914.8,-150.46"/>
</a>
</g>
</g>
<!-- Node8&#45;&gt;Node6 -->
<g id="edge8_Node000008_Node000006" class="edge">
<title>Node8&#45;&gt;Node6</title>
<g id="a_edge8_Node000008_Node000006"><a xlink:title=" ">
<path fill="none" stroke="#63b8ff" d="M1076.58,-125.01C1111.01,-117.58 1151.62,-108.82 1182.83,-102.08"/>
<polygon fill="#63b8ff" stroke="#63b8ff" points="1187.35,-101.1 1182.94,-104.36 1186.1,-101.37 1182.46,-102.16 1182.46,-102.16 1182.46,-102.16 1186.1,-101.37 1181.99,-99.96 1187.35,-101.1"/>
</a>
</g>
</g>
<!-- Node9&#45;&gt;Node2 -->
<g id="edge11_Node000009_Node000002" class="edge">
<title>Node9&#45;&gt;Node2</title>
<g id="a_edge11_Node000009_Node000002"><a xlink:title=" ">
<path fill="none" stroke="#63b8ff" d="M360.52,-67.84C382.84,-71.63 409.09,-76.08 434.1,-80.32"/>
<polygon fill="#63b8ff" stroke="#63b8ff" points="438.89,-81.13 433.58,-82.52 437.63,-80.92 433.96,-80.3 433.96,-80.3 433.96,-80.3 437.63,-80.92 434.34,-78.08 438.89,-81.13"/>
</a>
</g>
</g>
<!-- Node9&#45;&gt;Node6 -->
<g id="edge17_Node000009_Node000006" class="edge">
<title>Node9&#45;&gt;Node6</title>
<g id="a_edge17_Node000009_Node000006"><a xlink:title=" ">
<path fill="none" stroke="#63b8ff" d="M348.84,-48.64C377.83,-42.61 412.88,-35.7 428,-34.25 728.31,-5.45 806.78,-28.74 1106,-67.25 1131.65,-70.55 1159.94,-75.74 1183.29,-80.45"/>
<polygon fill="#63b8ff" stroke="#63b8ff" points="1187.93,-81.4 1182.58,-82.61 1186.67,-81.14 1183.03,-80.4 1183.03,-80.4 1183.03,-80.4 1186.67,-81.14 1183.48,-78.2 1187.93,-81.4"/>
</a>
</g>
</g>
<!-- Node10 -->
<g id="Node000010" class="node">
<title>Node10</title>
<g id="a_Node000010"><a xlink:href="../../dc/dba/namespacenpi_1_1app.html#aff4c7482e4417f59ede04e359548a542" target="_top" xlink:title="Absolute application&#45;level Public/Documents path.">
<polygon fill="white" stroke="none" points="630,-62.88 428,-62.88 428,-43.62 630,-43.62 630,-62.88"/>
<text xml:space="preserve" text-anchor="middle" x="529" y="-48.42" font-family="Consolas" font-size="11.00">npi::app::appPublicDocumentsDir</text>
</a>
</g>
</g>
<!-- Node9&#45;&gt;Node10 -->
<g id="edge12_Node000009_Node000010" class="edge">
<title>Node9&#45;&gt;Node10</title>
<g id="a_edge12_Node000009_Node000010"><a xlink:title=" ">
<path fill="none" stroke="#63b8ff" d="M370.9,-56.76C387.12,-56.39 404.85,-56 422.37,-55.61"/>
<polygon fill="#63b8ff" stroke="#63b8ff" points="427.08,-55.5 422.13,-57.86 425.8,-55.53 422.08,-55.61 422.08,-55.61 422.08,-55.61 425.8,-55.53 422.03,-53.36 427.08,-55.5"/>
</a>
</g>
</g>
<!-- Node10&#45;&gt;Node5 -->
<g id="edge13_Node000010_Node000005" class="edge">
<title>Node10&#45;&gt;Node5</title>
<g id="a_edge13_Node000010_Node000005"><a xlink:title=" ">
<path fill="none" stroke="#63b8ff" d="M630,-56.7C697.36,-59.56 788.16,-64.44 868,-72.25 877.82,-73.21 888.02,-74.36 898.21,-75.6"/>
<polygon fill="#63b8ff" stroke="#63b8ff" points="903.01,-76.2 897.77,-77.81 901.73,-76.04 898.04,-75.58 898.04,-75.58 898.04,-75.58 901.73,-76.04 898.32,-73.35 903.01,-76.2"/>
</a>
</g>
</g>
<!-- Node11 -->
<g id="Node000011" class="node">
<title>Node11</title>
<g id="a_Node000011"><a xlink:href="../../dc/dba/namespacenpi_1_1app.html#ac0dca24602a75822c6f7fcf63f8781d9" target="_top" xlink:title="Absolute organization&#45;level Public/Documents path.">
<polygon fill="white" stroke="none" points="868,-100.88 666,-100.88 666,-81.62 868,-81.62 868,-100.88"/>
<text xml:space="preserve" text-anchor="middle" x="767" y="-86.42" font-family="Consolas" font-size="11.00">npi::app::orgPublicDocumentsDir</text>
</a>
</g>
</g>
<!-- Node10&#45;&gt;Node11 -->
<g id="edge14_Node000010_Node000011" class="edge">
<title>Node10&#45;&gt;Node11</title>
<g id="a_edge14_Node000010_Node000011"><a xlink:title=" ">
<path fill="none" stroke="#63b8ff" d="M589.55,-62.84C623.37,-68.28 665.76,-75.11 700.51,-80.71"/>
<polygon fill="#63b8ff" stroke="#63b8ff" points="705.26,-81.47 699.97,-82.9 704,-81.27 700.33,-80.68 700.33,-80.68 700.33,-80.68 704,-81.27 700.68,-78.45 705.26,-81.47"/>
</a>
</g>
</g>
<!-- Node11&#45;&gt;Node5 -->
<g id="edge16_Node000011_Node000005" class="edge">
<title>Node11&#45;&gt;Node5</title>
<g id="a_edge16_Node000011_Node000005"><a xlink:title=" ">
<path fill="none" stroke="#63b8ff" d="M867.74,-91.25C877.84,-91.25 888.12,-91.25 898.27,-91.25"/>
<polygon fill="#63b8ff" stroke="#63b8ff" points="903.02,-91.25 898.02,-93.5 901.74,-91.25 898.02,-91.25 898.02,-91.25 898.02,-91.25 901.74,-91.25 898.02,-89 903.02,-91.25"/>
</a>
</g>
</g>
<!-- Node11&#45;&gt;Node8 -->
<g id="edge15_Node000011_Node000008" class="edge">
<title>Node11&#45;&gt;Node8</title>
<g id="a_edge15_Node000011_Node000008"><a xlink:title=" ">
<path fill="none" stroke="#63b8ff" d="M814.34,-100.87C845.82,-107.41 888.24,-116.21 924.98,-123.84"/>
<polygon fill="#63b8ff" stroke="#63b8ff" points="929.63,-124.81 924.27,-125.99 928.37,-124.55 924.73,-123.79 924.73,-123.79 924.73,-123.79 928.37,-124.55 925.19,-121.59 929.63,-124.81"/>
</a>
</g>
</g>
</g>
</svg>

<g id="navigator" transform="translate(0 0)" fill="#404254">
  <rect fill="#f2f5e9" fill-opacity="0.5" stroke="#606060" stroke-width=".5" x="0" y="0" width="60" height="60"/>
  <use id="zoomplus" xlink:href="#zoomPlus" x="17" y="9" onmousedown="handleZoom(evt,'in')"/>
  <use id="zoomminus" xlink:href="#zoomMin" x="42" y="9" onmousedown="handleZoom(evt,'out')"/>
  <use id="reset" xlink:href="#resetDef" x="30" y="36" onmousedown="handleReset()"/>
   <use id="arrowup" xlink:href="#arrowUp" x="0" y="0" onmousedown="handlePan(0,-1)"/>
  <use id="arrowright" xlink:href="#arrowRight" x="0" y="0" onmousedown="handlePan(1,0)"/>
  <use id="arrowdown" xlink:href="#arrowDown" x="0" y="0" onmousedown="handlePan(0,1)"/>
  <use id="arrowleft" xlink:href="#arrowLeft" x="0" y="0" onmousedown="handlePan(-1,0)"/>
</g>
<svg viewBox="0 0 15 15" width="100%" height="30px" preserveAspectRatio="xMaxYMin meet">
 <g id="arrow_out" transform="scale(0.3 0.3)">
  <a xlink:href="namespacenpi_1_1log_ae0762e568cebcd885346fb347ffb9579_cgraph_org.svg" target="_base">
   <rect id="button" ry="5" rx="5" y="6" x="6" height="38" width="38"
        fill="#f2f5e9" fill-opacity="0.5" stroke="#606060" stroke-width="1.0"/>
   <path id="arrow"
     d="M 11.500037,31.436501 C 11.940474,20.09759 22.043105,11.32322 32.158766,21.979434 L 37.068811,17.246167 C 37.068811,17.246167 37.088388,32 37.088388,32 L 22.160133,31.978069 C 22.160133,31.978069 26.997745,27.140456 26.997745,27.140456 C 18.528582,18.264221 13.291696,25.230495 11.500037,31.436501 z"
     style="fill:#404040;"/>
  </a>
 </g>
</svg>

<style type='text/css'>
<![CDATA[
[data-mouse-over-selected='false'] { opacity: 0.7; }
[data-mouse-over-selected='true']  { opacity: 1.0; }
]]>
</style>
<script type="application/ecmascript"><![CDATA[
document.addEventListener('DOMContentLoaded', (event) => {
  highlightEdges();
  highlightAdjacentNodes();
});
]]></script>
</svg>
