<?xml version="1.0" encoding="UTF-8" standalone="no"?>
<!DOCTYPE svg PUBLIC "-//W3C//DTD SVG 1.1//EN"
 "http://www.w3.org/Graphics/SVG/1.1/DTD/svg11.dtd">
<!-- Generated by graphviz version 14.0.0 (20250921.2048)
 -->
<!-- Title: npi::log::setDir Pages: 1 -->
<svg width="1268pt" height="234pt"
 viewBox="0.00 0.00 1268.00 234.00" xmlns="http://www.w3.org/2000/svg" xmlns:xlink="http://www.w3.org/1999/xlink">
<g id="graph0" class="graph" transform="scale(1 1) rotate(0) translate(4 229.88)">
<title>npi::log::setDir</title>
<!-- Node1 -->
<g id="Node000001" class="node">
<title>Node1</title>
<g id="a_Node000001"><a xlink:title=" ">
<polygon fill="#999999" stroke="none" points="112,-116.88 0,-116.88 0,-97.62 112,-97.62 112,-116.88"/>
<text xml:space="preserve" text-anchor="start" x="8" y="-103.42" font-family="Consolas" font-weight="bold" font-size="11.00">npi::log::setDir</text>
</a>
</g>
</g>
<!-- Node2 -->
<g id="Node000002" class="node">
<title>Node2</title>
<g id="a_Node000002"><a xlink:href="../../dc/d8e/namespaceanonymous__namespace_02_log_8cpp_03.html#aeff2e7bab0c6e2ea92dca005b93c47c4" target="_top" xlink:title=" ">
<polygon fill="white" stroke="none" points="552,-160.5 374,-160.5 374,-130 552,-130 552,-160.5"/>
<text xml:space="preserve" text-anchor="start" x="382" y="-146.05" font-family="Consolas" font-size="11.00">anonymous_namespace</text>
<text xml:space="preserve" text-anchor="middle" x="463" y="-134.8" font-family="Consolas" font-size="11.00">{Log::cpp}::aCleanedDirPath</text>
</a>
</g>
</g>
<!-- Node1&#45;&gt;Node2 -->
<g id="edge1_Node000001_Node000002" class="edge">
<title>Node1&#45;&gt;Node2</title>
<g id="a_edge1_Node000001_Node000002"><a xlink:title=" ">
<path fill="none" stroke="#63b8ff" d="M96.65,-116.84C112.53,-120.33 131.04,-123.98 148,-126.25 221.55,-136.1 305.47,-140.85 368.04,-143.13"/>
<polygon fill="#63b8ff" stroke="#63b8ff" points="372.81,-143.3 367.74,-145.37 371.53,-143.26 367.82,-143.12 367.82,-143.12 367.82,-143.12 371.53,-143.26 367.9,-140.88 372.81,-143.3"/>
</a>
</g>
</g>
<!-- Node3 -->
<g id="Node000003" class="node">
<title>Node3</title>
<g id="a_Node000003"><a xlink:href="../../dc/d8e/namespaceanonymous__namespace_02_log_8cpp_03.html#a4fd28b9a729792528c3707da82453049" target="_top" xlink:title=" ">
<polygon fill="white" stroke="none" points="326,-79.5 148,-79.5 148,-49 326,-49 326,-79.5"/>
<text xml:space="preserve" text-anchor="start" x="156" y="-65.05" font-family="Consolas" font-size="11.00">anonymous_namespace</text>
<text xml:space="preserve" text-anchor="middle" x="237" y="-53.8" font-family="Consolas" font-size="11.00">{Log::cpp}::aConfigLockName</text>
</a>
</g>
</g>
<!-- Node1&#45;&gt;Node3 -->
<g id="edge2_Node000001_Node000003" class="edge">
<title>Node1&#45;&gt;Node3</title>
<g id="a_edge2_Node000001_Node000003"><a xlink:title=" ">
<path fill="none" stroke="#63b8ff" d="M96.73,-97.71C117.33,-92.76 143.1,-86.57 166.84,-80.86"/>
<polygon fill="#63b8ff" stroke="#63b8ff" points="171.65,-79.71 167.31,-83.06 170.4,-80.01 166.79,-80.88 166.79,-80.88 166.79,-80.88 170.4,-80.01 166.26,-78.69 171.65,-79.71"/>
</a>
</g>
</g>
<!-- Node4 -->
<g id="Node000004" class="node">
<title>Node4</title>
<g id="a_Node000004"><a xlink:href="../../dc/d8e/namespaceanonymous__namespace_02_log_8cpp_03.html#aa59dbb7e42becab97731031cf22a99b1" target="_top" xlink:title=" ">
<polygon fill="white" stroke="none" points="326,-30.5 148,-30.5 148,0 326,0 326,-30.5"/>
<text xml:space="preserve" text-anchor="start" x="156" y="-16.05" font-family="Consolas" font-size="11.00">anonymous_namespace</text>
<text xml:space="preserve" text-anchor="middle" x="237" y="-4.8" font-family="Consolas" font-size="11.00">{Log::cpp}::aIsDirReadWrite</text>
</a>
</g>
</g>
<!-- Node1&#45;&gt;Node4 -->
<g id="edge3_Node000001_Node000004" class="edge">
<title>Node1&#45;&gt;Node4</title>
<g id="a_edge3_Node000001_Node000004"><a xlink:title=" ">
<path fill="none" stroke="#63b8ff" d="M67.38,-97.63C83.47,-83.2 115.94,-55.96 148,-40.25 153.79,-37.41 159.95,-34.85 166.23,-32.54"/>
<polygon fill="#63b8ff" stroke="#63b8ff" points="170.86,-30.9 166.9,-34.69 169.66,-31.32 166.15,-32.57 166.15,-32.57 166.15,-32.57 169.66,-31.32 165.4,-30.44 170.86,-30.9"/>
</a>
</g>
</g>
<!-- Node5 -->
<g id="Node000005" class="node">
<title>Node5</title>
<g id="a_Node000005"><a xlink:href="../../dc/dba/namespacenpi_1_1app.html#a40a2a28831f2f410c995f0657baf6544" target="_top" xlink:title="Absolute application&#45;level ProgramData path.">
<polygon fill="white" stroke="none" points="552,-197.88 374,-197.88 374,-178.62 552,-178.62 552,-197.88"/>
<text xml:space="preserve" text-anchor="middle" x="463" y="-183.43" font-family="Consolas" font-size="11.00">npi::app::appProgramDataDir</text>
</a>
</g>
</g>
<!-- Node1&#45;&gt;Node5 -->
<g id="edge4_Node000001_Node000005" class="edge">
<title>Node1&#45;&gt;Node5</title>
<g id="a_edge4_Node000001_Node000005"><a xlink:title=" ">
<path fill="none" stroke="#63b8ff" d="M74.57,-116.78C92.51,-126.06 121.4,-139.83 148,-147.25 220.33,-167.42 304.87,-177.74 368,-182.98"/>
<polygon fill="#63b8ff" stroke="#63b8ff" points="372.82,-183.37 367.66,-185.21 371.55,-183.27 367.84,-182.97 367.84,-182.97 367.84,-182.97 371.55,-183.27 368.02,-180.72 372.82,-183.37"/>
</a>
</g>
</g>
<!-- Node10 -->
<g id="Node000010" class="node">
<title>Node10</title>
<g id="a_Node000010"><a xlink:href="../../d5/ddd/namespacenpi_1_1log.html#adc43e95b1d6b8f65bb04565dfda8a776" target="_top" xlink:title=" ">
<polygon fill="white" stroke="none" points="305,-116.88 169,-116.88 169,-97.62 305,-97.62 305,-116.88"/>
<text xml:space="preserve" text-anchor="middle" x="237" y="-102.42" font-family="Consolas" font-size="11.00">npi::log::defaultDir</text>
</a>
</g>
</g>
<!-- Node1&#45;&gt;Node10 -->
<g id="edge11_Node000001_Node000010" class="edge">
<title>Node1&#45;&gt;Node10</title>
<g id="a_edge11_Node000001_Node000010"><a xlink:title=" ">
<path fill="none" stroke="#63b8ff" d="M111.68,-107.25C127.94,-107.25 146.01,-107.25 163.23,-107.25"/>
<polygon fill="#63b8ff" stroke="#63b8ff" points="167.81,-107.25 162.81,-109.5 166.53,-107.25 162.81,-107.25 162.81,-107.25 162.81,-107.25 166.53,-107.25 162.81,-105 167.81,-107.25"/>
</a>
</g>
</g>
<!-- Node6 -->
<g id="Node000006" class="node">
<title>Node6</title>
<g id="a_Node000006"><a xlink:href="../../df/d40/namespaceanonymous__namespace_02_meta_paths_8cpp_03.html#a1554aad28987c554d0ff1c379ce0567e" target="_top" xlink:title="Create subdirectory under base path.">
<polygon fill="white" stroke="none" points="1040,-155.5 838,-155.5 838,-125 1040,-125 1040,-155.5"/>
<text xml:space="preserve" text-anchor="start" x="846" y="-141.05" font-family="Consolas" font-size="11.00">anonymous_namespace</text>
<text xml:space="preserve" text-anchor="middle" x="939" y="-129.8" font-family="Consolas" font-size="11.00">{MetaPaths::cpp}::aCreateSubDir</text>
</a>
</g>
</g>
<!-- Node5&#45;&gt;Node6 -->
<g id="edge5_Node000005_Node000006" class="edge">
<title>Node5&#45;&gt;Node6</title>
<g id="a_edge5_Node000005_Node000006"><a xlink:title=" ">
<path fill="none" stroke="#63b8ff" d="M551.67,-182.01C619.97,-176.85 717.14,-168.81 802,-159.25 811.8,-158.15 821.99,-156.9 832.18,-155.59"/>
<polygon fill="#63b8ff" stroke="#63b8ff" points="836.97,-154.97 832.3,-157.85 835.7,-155.14 832.01,-155.61 832.01,-155.61 832.01,-155.61 835.7,-155.14 831.72,-153.38 836.97,-154.97"/>
</a>
</g>
</g>
<!-- Node8 -->
<g id="Node000008" class="node">
<title>Node8</title>
<g id="a_Node000008"><a xlink:href="../../dc/dba/namespacenpi_1_1app.html#a30836be8b9337a64733a6e05594b23c8" target="_top" xlink:title="Absolute organization&#45;level ProgramData path.">
<polygon fill="white" stroke="none" points="790,-225.88 612,-225.88 612,-206.62 790,-206.62 790,-225.88"/>
<text xml:space="preserve" text-anchor="middle" x="701" y="-211.43" font-family="Consolas" font-size="11.00">npi::app::orgProgramDataDir</text>
</a>
</g>
</g>
<!-- Node5&#45;&gt;Node8 -->
<g id="edge7_Node000005_Node000008" class="edge">
<title>Node5&#45;&gt;Node8</title>
<g id="a_edge7_Node000005_Node000008"><a xlink:title=" ">
<path fill="none" stroke="#63b8ff" d="M544.89,-197.85C566.94,-200.46 590.91,-203.31 613.27,-205.96"/>
<polygon fill="#63b8ff" stroke="#63b8ff" points="618.01,-206.52 612.78,-208.17 616.74,-206.37 613.04,-205.93 613.04,-205.93 613.04,-205.93 616.74,-206.37 613.31,-203.7 618.01,-206.52"/>
</a>
</g>
</g>
<!-- Node7 -->
<g id="Node000007" class="node">
<title>Node7</title>
<g id="a_Node000007"><a xlink:href="../../dc/dba/namespacenpi_1_1app.html#a30b5245afa890e98f19f43c58f29e633" target="_top" xlink:title="Windows native fatal error message box.">
<polygon fill="white" stroke="none" points="1260,-149.88 1076,-149.88 1076,-130.62 1260,-130.62 1260,-149.88"/>
<text xml:space="preserve" text-anchor="middle" x="1168" y="-135.43" font-family="Consolas" font-size="11.00">npi::app::nativeFatalMessage</text>
</a>
</g>
</g>
<!-- Node6&#45;&gt;Node7 -->
<g id="edge6_Node000006_Node000007" class="edge">
<title>Node6&#45;&gt;Node7</title>
<g id="a_edge6_Node000006_Node000007"><a xlink:title=" ">
<path fill="none" stroke="#63b8ff" d="M1039.9,-140.25C1049.84,-140.25 1059.94,-140.25 1069.86,-140.25"/>
<polygon fill="#63b8ff" stroke="#63b8ff" points="1074.79,-140.25 1069.79,-142.5 1073.51,-140.25 1069.79,-140.25 1069.79,-140.25 1069.79,-140.25 1073.51,-140.25 1069.79,-138 1074.79,-140.25"/>
</a>
</g>
</g>
<!-- Node8&#45;&gt;Node6 -->
<g id="edge10_Node000008_Node000006" class="edge">
<title>Node8&#45;&gt;Node6</title>
<g id="a_edge10_Node000008_Node000006"><a xlink:title=" ">
<path fill="none" stroke="#63b8ff" d="M759.69,-206.63C773.91,-203.12 788.83,-198.44 802,-192.25 820.1,-183.74 819.94,-173.85 838,-165.25 844.19,-162.31 850.76,-159.68 857.46,-157.35"/>
<polygon fill="#63b8ff" stroke="#63b8ff" points="861.96,-155.85 857.93,-159.57 860.75,-156.25 857.22,-157.43 857.22,-157.43 857.22,-157.43 860.75,-156.25 856.51,-155.3 861.96,-155.85"/>
</a>
</g>
</g>
<!-- Node9 -->
<g id="Node000009" class="node">
<title>Node9</title>
<g id="a_Node000009"><a xlink:href="../../df/d40/namespaceanonymous__namespace_02_meta_paths_8cpp_03.html#a1ba3938f670cc7526df2081bf6f6c0ce" target="_top" xlink:title="Resolve base path using Known Folder ID or environment variable fallback.">
<polygon fill="white" stroke="none" points="1028,-204.5 850,-204.5 850,-174 1028,-174 1028,-204.5"/>
<text xml:space="preserve" text-anchor="start" x="858" y="-190.05" font-family="Consolas" font-size="11.00">anonymous_namespace</text>
<text xml:space="preserve" text-anchor="middle" x="939" y="-178.8" font-family="Consolas" font-size="11.00">{MetaPaths::cpp}::aBasePath</text>
</a>
</g>
</g>
<!-- Node8&#45;&gt;Node9 -->
<g id="edge8_Node000008_Node000009" class="edge">
<title>Node8&#45;&gt;Node9</title>
<g id="a_edge8_Node000008_Node000009"><a xlink:title=" ">
<path fill="none" stroke="#63b8ff" d="M785.87,-206.65C804.72,-204.5 824.84,-202.2 844.07,-200"/>
<polygon fill="#63b8ff" stroke="#63b8ff" points="848.8,-199.46 844.09,-202.26 847.53,-199.6 843.83,-200.02 843.83,-200.02 843.83,-200.02 847.53,-199.6 843.58,-197.79 848.8,-199.46"/>
</a>
</g>
</g>
<!-- Node9&#45;&gt;Node7 -->
<g id="edge9_Node000009_Node000007" class="edge">
<title>Node9&#45;&gt;Node7</title>
<g id="a_edge9_Node000009_Node000007"><a xlink:title=" ">
<path fill="none" stroke="#63b8ff" d="M1010.58,-174.01C1045.01,-166.58 1085.62,-157.82 1116.83,-151.08"/>
<polygon fill="#63b8ff" stroke="#63b8ff" points="1121.35,-150.1 1116.94,-153.36 1120.1,-150.37 1116.46,-151.16 1116.46,-151.16 1116.46,-151.16 1120.1,-150.37 1115.99,-148.96 1121.35,-150.1"/>
</a>
</g>
</g>
<!-- Node10&#45;&gt;Node2 -->
<g id="edge12_Node000010_Node000002" class="edge">
<title>Node10&#45;&gt;Node2</title>
<g id="a_edge12_Node000010_Node000002"><a xlink:title=" ">
<path fill="none" stroke="#63b8ff" d="M294.52,-116.84C316.84,-120.63 343.09,-125.08 368.1,-129.32"/>
<polygon fill="#63b8ff" stroke="#63b8ff" points="372.89,-130.13 367.58,-131.52 371.63,-129.92 367.96,-129.3 367.96,-129.3 367.96,-129.3 371.63,-129.92 368.34,-127.08 372.89,-130.13"/>
</a>
</g>
</g>
<!-- Node10&#45;&gt;Node7 -->
<g id="edge18_Node000010_Node000007" class="edge">
<title>Node10&#45;&gt;Node7</title>
<g id="a_edge18_Node000010_Node000007"><a xlink:title=" ">
<path fill="none" stroke="#63b8ff" d="M282.84,-97.64C311.83,-91.61 346.88,-84.7 362,-83.25 662.31,-54.45 740.78,-77.74 1040,-116.25 1065.65,-119.55 1093.94,-124.74 1117.29,-129.45"/>
<polygon fill="#63b8ff" stroke="#63b8ff" points="1121.93,-130.4 1116.58,-131.61 1120.67,-130.14 1117.03,-129.4 1117.03,-129.4 1117.03,-129.4 1120.67,-130.14 1117.48,-127.2 1121.93,-130.4"/>
</a>
</g>
</g>
<!-- Node11 -->
<g id="Node000011" class="node">
<title>Node11</title>
<g id="a_Node000011"><a xlink:href="../../dc/dba/namespacenpi_1_1app.html#aff4c7482e4417f59ede04e359548a542" target="_top" xlink:title="Absolute application&#45;level Public/Documents path.">
<polygon fill="white" stroke="none" points="564,-111.88 362,-111.88 362,-92.62 564,-92.62 564,-111.88"/>
<text xml:space="preserve" text-anchor="middle" x="463" y="-97.42" font-family="Consolas" font-size="11.00">npi::app::appPublicDocumentsDir</text>
</a>
</g>
</g>
<!-- Node10&#45;&gt;Node11 -->
<g id="edge13_Node000010_Node000011" class="edge">
<title>Node10&#45;&gt;Node11</title>
<g id="a_edge13_Node000010_Node000011"><a xlink:title=" ">
<path fill="none" stroke="#63b8ff" d="M304.9,-105.76C321.12,-105.39 338.85,-105 356.37,-104.61"/>
<polygon fill="#63b8ff" stroke="#63b8ff" points="361.08,-104.5 356.13,-106.86 359.8,-104.53 356.08,-104.61 356.08,-104.61 356.08,-104.61 359.8,-104.53 356.03,-102.36 361.08,-104.5"/>
</a>
</g>
</g>
<!-- Node11&#45;&gt;Node6 -->
<g id="edge14_Node000011_Node000006" class="edge">
<title>Node11&#45;&gt;Node6</title>
<g id="a_edge14_Node000011_Node000006"><a xlink:title=" ">
<path fill="none" stroke="#63b8ff" d="M564,-105.7C631.36,-108.56 722.16,-113.44 802,-121.25 811.82,-122.21 822.02,-123.36 832.21,-124.6"/>
<polygon fill="#63b8ff" stroke="#63b8ff" points="837.01,-125.2 831.77,-126.81 835.73,-125.04 832.04,-124.58 832.04,-124.58 832.04,-124.58 835.73,-125.04 832.32,-122.35 837.01,-125.2"/>
</a>
</g>
</g>
<!-- Node12 -->
<g id="Node000012" class="node">
<title>Node12</title>
<g id="a_Node000012"><a xlink:href="../../dc/dba/namespacenpi_1_1app.html#ac0dca24602a75822c6f7fcf63f8781d9" target="_top" xlink:title="Absolute organization&#45;level Public/Documents path.">
<polygon fill="white" stroke="none" points="802,-149.88 600,-149.88 600,-130.62 802,-130.62 802,-149.88"/>
<text xml:space="preserve" text-anchor="middle" x="701" y="-135.43" font-family="Consolas" font-size="11.00">npi::app::orgPublicDocumentsDir</text>
</a>
</g>
</g>
<!-- Node11&#45;&gt;Node12 -->
<g id="edge15_Node000011_Node000012" class="edge">
<title>Node11&#45;&gt;Node12</title>
<g id="a_edge15_Node000011_Node000012"><a xlink:title=" ">
<path fill="none" stroke="#63b8ff" d="M523.55,-111.84C557.37,-117.28 599.76,-124.11 634.51,-129.71"/>
<polygon fill="#63b8ff" stroke="#63b8ff" points="639.26,-130.47 633.97,-131.9 638,-130.27 634.33,-129.68 634.33,-129.68 634.33,-129.68 638,-130.27 634.68,-127.45 639.26,-130.47"/>
</a>
</g>
</g>
<!-- Node12&#45;&gt;Node6 -->
<g id="edge17_Node000012_Node000006" class="edge">
<title>Node12&#45;&gt;Node6</title>
<g id="a_edge17_Node000012_Node000006"><a xlink:title=" ">
<path fill="none" stroke="#63b8ff" d="M801.74,-140.25C811.84,-140.25 822.12,-140.25 832.27,-140.25"/>
<polygon fill="#63b8ff" stroke="#63b8ff" points="837.02,-140.25 832.02,-142.5 835.74,-140.25 832.02,-140.25 832.02,-140.25 832.02,-140.25 835.74,-140.25 832.02,-138 837.02,-140.25"/>
</a>
</g>
</g>
<!-- Node12&#45;&gt;Node9 -->
<g id="edge16_Node000012_Node000009" class="edge">
<title>Node12&#45;&gt;Node9</title>
<g id="a_edge16_Node000012_Node000009"><a xlink:title=" ">
<path fill="none" stroke="#63b8ff" d="M748.34,-149.87C779.82,-156.41 822.24,-165.21 858.98,-172.84"/>
<polygon fill="#63b8ff" stroke="#63b8ff" points="863.63,-173.81 858.27,-174.99 862.37,-173.55 858.73,-172.79 858.73,-172.79 858.73,-172.79 862.37,-173.55 859.19,-170.59 863.63,-173.81"/>
</a>
</g>
</g>
</g>
</svg>
