<?xml version="1.0" encoding="UTF-8" standalone="no"?>
<!DOCTYPE svg PUBLIC "-//W3C//DTD SVG 1.1//EN"
 "http://www.w3.org/Graphics/SVG/1.1/DTD/svg11.dtd">
<!-- Generated by graphviz version 14.0.0 (20250921.2048)
 -->
<!-- Title: anonymous_namespace{MetaPaths::cpp}::aBasePath Pages: 1 -->
<!--zoomable 187 -->

<svg id="main" version="1.1" xmlns="http://www.w3.org/2000/svg" xmlns:xlink="http://www.w3.org/1999/xlink" xml:space="preserve" onload="init(evt)">

<style type="text/css"><![CDATA[
.node, .edge {opacity: 0.7;}
.node.selected, .edge.selected {opacity: 1;}
.edge:hover path { stroke: red; }
.edge:hover polygon { stroke: red; fill: red; }
]]></style>

<defs>
  <circle id="rim" cx="0" cy="0" r="7"/>
  <circle id="rim2" cx="0" cy="0" r="3.5"/>
  <g id="zoomPlus">
    <use xlink:href="#rim" fill="#404040"><set attributeName="fill" to="#808080" begin="zoomplus.mouseover" end="zoomplus.mouseout"/></use>
    <path d="M-4,0h8M0,-4v8" fill="none" stroke="white" stroke-width="1.5" pointer-events="none"/>
  </g>
  <g id="zoomMin">
    <use xlink:href="#rim" fill="#404040"><set attributeName="fill" to="#808080" begin="zoomminus.mouseover" end="zoomminus.mouseout"/></use>
    <path d="M-4,0h8" fill="none" stroke="white" stroke-width="1.5" pointer-events="none"/>
  </g>
  <g id="arrowUp" transform="translate(30 24)">
    <use xlink:href="#rim"/>
    <path pointer-events="none" fill="none" stroke="white" stroke-width="1.5" d="M0,-3.0v7 M-2.5,-0.5L0,-3.0L2.5,-0.5"/>
  </g>
  <g id="arrowRight" transform="rotate(90) translate(36 -43)">
    <use xlink:href="#rim"/>
    <path pointer-events="none" fill="none" stroke="white" stroke-width="1.5" d="M0,-3.0v7 M-2.5,-0.5L0,-3.0L2.5,-0.5"/>
  </g>
  <g id="arrowDown" transform="rotate(180) translate(-30 -48)">
    <use xlink:href="#rim"/>
    <path pointer-events="none" fill="none" stroke="white" stroke-width="1.5" d="M0,-3.0v7 M-2.5,-0.5L0,-3.0L2.5,-0.5"/>
  </g>
  <g id="arrowLeft" transform="rotate(270) translate(-36 17)">
    <use xlink:href="#rim"/>
    <path pointer-events="none" fill="none" stroke="white" stroke-width="1.5" d="M0,-3.0v7 M-2.5,-0.5L0,-3.0L2.5,-0.5"/>
  </g>
  <g id="resetDef">
    <use xlink:href="#rim2" fill="#404040"><set attributeName="fill" to="#808080" begin="reset.mouseover" end="reset.mouseout"/></use>
  </g>
</defs>
<script type="application/ecmascript">
var viewWidth = 1430;
var viewHeight = 187;
var sectionId = 'dynsection-1';
</script>
<script type="application/ecmascript" xlink:href="../../svg.min.js"/>
<svg id="graph" class="graph">
<g id="viewport">
<title>anonymous_namespace{MetaPaths::cpp}::aBasePath</title>
<!-- Node1 -->
<g id="Node000001" class="node">
<title>Node1</title>
<g id="a_Node000001"><a xlink:title="Resolve base path using Known Folder ID or environment variable fallback.">
<polygon fill="#999999" stroke="none" points="1422,-74.25 1130,-74.25 1130,-55 1422,-55 1422,-74.25"/>
<text xml:space="preserve" text-anchor="start" x="1138" y="-60.8" font-family="Consolas" font-weight="bold" font-size="11.00">anonymous_namespace{MetaPaths::cpp}::aBasePath</text>
</a>
</g>
</g>
<!-- Node2 -->
<g id="Node000002" class="node">
<title>Node2</title>
<g id="a_Node000002"><a xlink:href="../../dc/dba/namespacenpi_1_1app.html#a30836be8b9337a64733a6e05594b23c8" target="_top" xlink:title="Absolute organization&#45;level ProgramData path.">
<polygon fill="white" stroke="none" points="1082,-93.25 904,-93.25 904,-74 1082,-74 1082,-93.25"/>
<text xml:space="preserve" text-anchor="middle" x="993" y="-78.8" font-family="Consolas" font-size="11.00">npi::app::orgProgramDataDir</text>
</a>
</g>
</g>
<!-- Node1&#45;&gt;Node2 -->
<g id="edge1_Node000001_Node000002" class="edge">
<title>Node1&#45;&gt;Node2</title>
<g id="a_edge1_Node000001_Node000002"><a xlink:title=" ">
<path fill="none" stroke="#63b8ff" d="M1126.73,-74.65C1111.37,-75.69 1096.13,-76.72 1081.75,-77.69"/>
<polygon fill="#63b8ff" stroke="#63b8ff" points="1131.64,-74.32 1126.8,-76.9 1130.36,-74.41 1126.65,-74.66 1126.65,-74.66 1126.65,-74.66 1130.36,-74.41 1126.5,-72.41 1131.64,-74.32"/>
</a>
</g>
</g>
<!-- Node10 -->
<g id="Node000010" class="node">
<title>Node10</title>
<g id="a_Node000010"><a xlink:href="../../dc/dba/namespacenpi_1_1app.html#ac0dca24602a75822c6f7fcf63f8781d9" target="_top" xlink:title="Absolute organization&#45;level Public/Documents path.">
<polygon fill="white" stroke="none" points="1094,-56.25 892,-56.25 892,-37 1094,-37 1094,-56.25"/>
<text xml:space="preserve" text-anchor="middle" x="993" y="-41.8" font-family="Consolas" font-size="11.00">npi::app::orgPublicDocumentsDir</text>
</a>
</g>
</g>
<!-- Node1&#45;&gt;Node10 -->
<g id="edge9_Node000001_Node000010" class="edge">
<title>Node1&#45;&gt;Node10</title>
<g id="a_edge9_Node000001_Node000010"><a xlink:title=" ">
<path fill="none" stroke="#63b8ff" d="M1124.3,-54.97C1113.98,-54.31 1103.73,-53.65 1093.78,-53.02"/>
<polygon fill="#63b8ff" stroke="#63b8ff" points="1129.17,-55.28 1124.03,-57.21 1127.89,-55.2 1124.18,-54.96 1124.18,-54.96 1124.18,-54.96 1127.89,-55.2 1124.32,-52.72 1129.17,-55.28"/>
</a>
</g>
</g>
<!-- Node3 -->
<g id="Node000003" class="node">
<title>Node3</title>
<g id="a_Node000003"><a xlink:href="../../dc/dba/namespacenpi_1_1app.html#a40a2a28831f2f410c995f0657baf6544" target="_top" xlink:title="Absolute application&#45;level ProgramData path.">
<polygon fill="white" stroke="none" points="618,-93.25 440,-93.25 440,-74 618,-74 618,-93.25"/>
<text xml:space="preserve" text-anchor="middle" x="529" y="-78.8" font-family="Consolas" font-size="11.00">npi::app::appProgramDataDir</text>
</a>
</g>
</g>
<!-- Node2&#45;&gt;Node3 -->
<g id="edge2_Node000002_Node000003" class="edge">
<title>Node2&#45;&gt;Node3</title>
<g id="a_edge2_Node000002_Node000003"><a xlink:title=" ">
<path fill="none" stroke="#63b8ff" d="M898.17,-83.62C816.11,-83.62 697.84,-83.62 617.66,-83.62"/>
<polygon fill="#63b8ff" stroke="#63b8ff" points="902.8,-83.63 897.8,-85.88 901.51,-83.63 897.8,-83.63 897.8,-83.63 897.8,-83.63 901.51,-83.63 897.8,-81.38 902.8,-83.63"/>
</a>
</g>
</g>
<!-- Node4 -->
<g id="Node000004" class="node">
<title>Node4</title>
<g id="a_Node000004"><a xlink:href="../../df/d40/namespaceanonymous__namespace_02_meta_paths_8cpp_03.html#ac93f5837a3f4726d287eb4537159fd42" target="_top" xlink:title="Schedules the initialization of application meta paths.">
<polygon fill="white" stroke="none" points="404,-178.88 202,-178.88 202,-148.38 404,-148.38 404,-178.88"/>
<text xml:space="preserve" text-anchor="start" x="210" y="-164.43" font-family="Consolas" font-size="11.00">anonymous_namespace</text>
<text xml:space="preserve" text-anchor="middle" x="303" y="-153.18" font-family="Consolas" font-size="11.00">{MetaPaths::cpp}::aScheduleInit</text>
</a>
</g>
</g>
<!-- Node3&#45;&gt;Node4 -->
<g id="edge3_Node000003_Node000004" class="edge">
<title>Node3&#45;&gt;Node4</title>
<g id="a_edge3_Node000003_Node000004"><a xlink:title=" ">
<path fill="none" stroke="#63b8ff" d="M504.66,-95.77C480.13,-108.15 440.15,-127.25 404,-139.62 394.63,-142.83 384.62,-145.78 374.69,-148.43"/>
<polygon fill="#63b8ff" stroke="#63b8ff" points="508.87,-93.63 505.43,-97.91 507.72,-94.22 504.41,-95.9 504.41,-95.9 504.41,-95.9 507.72,-94.22 503.39,-93.89 508.87,-93.63"/>
</a>
</g>
</g>
<!-- Node5 -->
<g id="Node000005" class="node">
<title>Node5</title>
<g id="a_Node000005"><a xlink:href="../../d5/ddd/namespacenpi_1_1log.html#ad3a49953f000d2b255f2e32166048605" target="_top" xlink:title=" ">
<polygon fill="white" stroke="none" points="368,-93.25 238,-93.25 238,-74 368,-74 368,-93.25"/>
<text xml:space="preserve" text-anchor="middle" x="303" y="-78.8" font-family="Consolas" font-size="11.00">npi::log::getConfig</text>
</a>
</g>
</g>
<!-- Node3&#45;&gt;Node5 -->
<g id="edge4_Node000003_Node000005" class="edge">
<title>Node3&#45;&gt;Node5</title>
<g id="a_edge4_Node000003_Node000005"><a xlink:title=" ">
<path fill="none" stroke="#63b8ff" d="M434.14,-83.62C411.77,-83.62 388.4,-83.62 367.75,-83.62"/>
<polygon fill="#63b8ff" stroke="#63b8ff" points="438.89,-83.63 433.89,-85.88 437.61,-83.63 433.89,-83.63 433.89,-83.63 433.89,-83.63 437.61,-83.63 433.89,-81.38 438.89,-83.63"/>
</a>
</g>
</g>
<!-- Node7 -->
<g id="Node000007" class="node">
<title>Node7</title>
<g id="a_Node000007"><a xlink:href="../../d5/ddd/namespacenpi_1_1log.html#ae0762e568cebcd885346fb347ffb9579" target="_top" xlink:title=" ">
<polygon fill="white" stroke="none" points="392,-56.25 214,-56.25 214,-37 392,-37 392,-56.25"/>
<text xml:space="preserve" text-anchor="middle" x="303" y="-41.8" font-family="Consolas" font-size="11.00">npi::log::restoreDefaultDir</text>
</a>
</g>
</g>
<!-- Node3&#45;&gt;Node7 -->
<g id="edge6_Node000003_Node000007" class="edge">
<title>Node3&#45;&gt;Node7</title>
<g id="a_edge6_Node000003_Node000007"><a xlink:title=" ">
<path fill="none" stroke="#63b8ff" d="M463.82,-73.02C431.72,-67.72 393.17,-61.35 361.98,-56.2"/>
<polygon fill="#63b8ff" stroke="#63b8ff" points="468.53,-73.8 463.23,-75.21 467.26,-73.59 463.6,-72.99 463.6,-72.99 463.6,-72.99 467.26,-73.59 463.96,-70.77 468.53,-73.8"/>
</a>
</g>
</g>
<!-- Node8 -->
<g id="Node000008" class="node">
<title>Node8</title>
<g id="a_Node000008"><a xlink:href="../../d5/ddd/namespacenpi_1_1log.html#a8f3b90122377e77601b8b4e55362ec34" target="_top" xlink:title=" ">
<polygon fill="white" stroke="none" points="359,-19.25 247,-19.25 247,0 359,0 359,-19.25"/>
<text xml:space="preserve" text-anchor="middle" x="303" y="-4.8" font-family="Consolas" font-size="11.00">npi::log::setDir</text>
</a>
</g>
</g>
<!-- Node3&#45;&gt;Node8 -->
<g id="edge7_Node000003_Node000008" class="edge">
<title>Node3&#45;&gt;Node8</title>
<g id="a_edge7_Node000003_Node000008"><a xlink:title=" ">
<path fill="none" stroke="#63b8ff" d="M453.96,-72.02C449.11,-70.19 444.41,-68.07 440,-65.62 419.66,-54.33 424.47,-38.68 404,-27.62 390.26,-20.21 374.07,-15.76 358.77,-13.13"/>
<polygon fill="#63b8ff" stroke="#63b8ff" points="458.55,-73.64 453.09,-74.1 457.34,-73.21 453.84,-71.98 453.84,-71.98 453.84,-71.98 457.34,-73.21 454.58,-69.86 458.55,-73.64"/>
</a>
</g>
</g>
<!-- Node9 -->
<g id="Node000009" class="node">
<title>Node9</title>
<g id="a_Node000009"><a xlink:href="../../d5/ddd/namespacenpi_1_1log.html#a9844dab9537c8747fbab8490418d2dda" target="_top" xlink:title=" ">
<polygon fill="white" stroke="none" points="389,-130.25 217,-130.25 217,-111 389,-111 389,-130.25"/>
<text xml:space="preserve" text-anchor="middle" x="303" y="-115.8" font-family="Consolas" font-size="11.00">npi::log::setMaxFolderSize</text>
</a>
</g>
</g>
<!-- Node3&#45;&gt;Node9 -->
<g id="edge8_Node000003_Node000009" class="edge">
<title>Node3&#45;&gt;Node9</title>
<g id="a_edge8_Node000003_Node000009"><a xlink:title=" ">
<path fill="none" stroke="#63b8ff" d="M463.82,-94.23C431.72,-99.53 393.17,-105.9 361.98,-111.05"/>
<polygon fill="#63b8ff" stroke="#63b8ff" points="468.53,-93.45 463.96,-96.48 467.26,-93.66 463.6,-94.26 463.6,-94.26 463.6,-94.26 467.26,-93.66 463.23,-92.04 468.53,-93.45"/>
</a>
</g>
</g>
<!-- Node6 -->
<g id="Node000006" class="node">
<title>Node6</title>
<g id="a_Node000006"><a xlink:href="../../dc/d8e/namespaceanonymous__namespace_02_log_8cpp_03.html#a474bf1d9b97572fbc7245fa612f19a5d" target="_top" xlink:title=" ">
<polygon fill="white" stroke="none" points="166,-98.88 0,-98.88 0,-68.38 166,-68.38 166,-98.88"/>
<text xml:space="preserve" text-anchor="start" x="8" y="-84.42" font-family="Consolas" font-size="11.00">anonymous_namespace</text>
<text xml:space="preserve" text-anchor="middle" x="83" y="-73.17" font-family="Consolas" font-size="11.00">{Log::cpp}::aScheduleInit</text>
</a>
</g>
</g>
<!-- Node5&#45;&gt;Node6 -->
<g id="edge5_Node000005_Node000006" class="edge">
<title>Node5&#45;&gt;Node6</title>
<g id="a_edge5_Node000005_Node000006"><a xlink:title=" ">
<path fill="none" stroke="#63b8ff" d="M231.9,-83.62C210.84,-83.62 187.55,-83.62 165.8,-83.62"/>
<polygon fill="#63b8ff" stroke="#63b8ff" points="236.85,-83.63 231.85,-85.88 235.57,-83.63 231.85,-83.63 231.85,-83.63 231.85,-83.63 235.57,-83.63 231.85,-81.38 236.85,-83.63"/>
</a>
</g>
</g>
<!-- Node11 -->
<g id="Node000011" class="node">
<title>Node11</title>
<g id="a_Node000011"><a xlink:href="../../dc/dba/namespacenpi_1_1app.html#aff4c7482e4417f59ede04e359548a542" target="_top" xlink:title="Absolute application&#45;level Public/Documents path.">
<polygon fill="white" stroke="none" points="856,-56.25 654,-56.25 654,-37 856,-37 856,-56.25"/>
<text xml:space="preserve" text-anchor="middle" x="755" y="-41.8" font-family="Consolas" font-size="11.00">npi::app::appPublicDocumentsDir</text>
</a>
</g>
</g>
<!-- Node10&#45;&gt;Node11 -->
<g id="edge10_Node000010_Node000011" class="edge">
<title>Node10&#45;&gt;Node11</title>
<g id="a_edge10_Node000010_Node000011"><a xlink:title=" ">
<path fill="none" stroke="#63b8ff" d="M886.29,-46.62C876.14,-46.62 865.86,-46.62 855.76,-46.62"/>
<polygon fill="#63b8ff" stroke="#63b8ff" points="891.04,-46.63 886.04,-48.88 889.76,-46.63 886.04,-46.63 886.04,-46.63 886.04,-46.63 889.76,-46.63 886.04,-44.38 891.04,-46.63"/>
</a>
</g>
</g>
<!-- Node11&#45;&gt;Node4 -->
<g id="edge11_Node000011_Node000004" class="edge">
<title>Node11&#45;&gt;Node4</title>
<g id="a_edge11_Node000011_Node000004"><a xlink:title=" ">
<path fill="none" stroke="#63b8ff" d="M729.17,-58.61C702.31,-71.15 657.96,-90.65 618,-102.62 547.65,-123.71 466.19,-139.29 403.87,-149.43"/>
<polygon fill="#63b8ff" stroke="#63b8ff" points="733.52,-56.56 729.95,-60.72 732.36,-57.11 729,-58.69 729,-58.69 729,-58.69 732.36,-57.11 728.04,-56.65 733.52,-56.56"/>
</a>
</g>
</g>
<!-- Node12 -->
<g id="Node000012" class="node">
<title>Node12</title>
<g id="a_Node000012"><a xlink:href="../../d5/ddd/namespacenpi_1_1log.html#adc43e95b1d6b8f65bb04565dfda8a776" target="_top" xlink:title=" ">
<polygon fill="white" stroke="none" points="597,-56.25 461,-56.25 461,-37 597,-37 597,-56.25"/>
<text xml:space="preserve" text-anchor="middle" x="529" y="-41.8" font-family="Consolas" font-size="11.00">npi::log::defaultDir</text>
</a>
</g>
</g>
<!-- Node11&#45;&gt;Node12 -->
<g id="edge12_Node000011_Node000012" class="edge">
<title>Node11&#45;&gt;Node12</title>
<g id="a_edge12_Node000011_Node000012"><a xlink:title=" ">
<path fill="none" stroke="#63b8ff" d="M648.21,-46.62C630.74,-46.62 613.07,-46.62 596.91,-46.62"/>
<polygon fill="#63b8ff" stroke="#63b8ff" points="652.9,-46.63 647.9,-48.88 651.62,-46.63 647.9,-46.63 647.9,-46.63 647.9,-46.63 651.62,-46.63 647.9,-44.38 652.9,-46.63"/>
</a>
</g>
</g>
<!-- Node12&#45;&gt;Node5 -->
<g id="edge13_Node000012_Node000005" class="edge">
<title>Node12&#45;&gt;Node5</title>
<g id="a_edge13_Node000012_Node000005"><a xlink:title=" ">
<path fill="none" stroke="#63b8ff" d="M463.82,-57.23C431.72,-62.53 393.17,-68.9 361.98,-74.05"/>
<polygon fill="#63b8ff" stroke="#63b8ff" points="468.53,-56.45 463.96,-59.48 467.26,-56.66 463.6,-57.26 463.6,-57.26 463.6,-57.26 467.26,-56.66 463.23,-55.04 468.53,-56.45"/>
</a>
</g>
</g>
<!-- Node12&#45;&gt;Node7 -->
<g id="edge14_Node000012_Node000007" class="edge">
<title>Node12&#45;&gt;Node7</title>
<g id="a_edge14_Node000012_Node000007"><a xlink:title=" ">
<path fill="none" stroke="#63b8ff" d="M454.9,-46.62C434.72,-46.62 412.63,-46.62 391.71,-46.62"/>
<polygon fill="#63b8ff" stroke="#63b8ff" points="459.88,-46.63 454.88,-48.88 458.6,-46.63 454.88,-46.63 454.88,-46.63 454.88,-46.63 458.6,-46.63 454.88,-44.38 459.88,-46.63"/>
</a>
</g>
</g>
<!-- Node12&#45;&gt;Node8 -->
<g id="edge15_Node000012_Node000008" class="edge">
<title>Node12&#45;&gt;Node8</title>
<g id="a_edge15_Node000012_Node000008"><a xlink:title=" ">
<path fill="none" stroke="#63b8ff" d="M463.63,-35.99C430.5,-30.52 390.55,-23.92 358.9,-18.69"/>
<polygon fill="#63b8ff" stroke="#63b8ff" points="468.53,-36.8 463.23,-38.21 467.26,-36.59 463.6,-35.99 463.6,-35.99 463.6,-35.99 467.26,-36.59 463.96,-33.77 468.53,-36.8"/>
</a>
</g>
</g>
</g>
</svg>

<g id="navigator" transform="translate(0 0)" fill="#404254">
  <rect fill="#f2f5e9" fill-opacity="0.5" stroke="#606060" stroke-width=".5" x="0" y="0" width="60" height="60"/>
  <use id="zoomplus" xlink:href="#zoomPlus" x="17" y="9" onmousedown="handleZoom(evt,'in')"/>
  <use id="zoomminus" xlink:href="#zoomMin" x="42" y="9" onmousedown="handleZoom(evt,'out')"/>
  <use id="reset" xlink:href="#resetDef" x="30" y="36" onmousedown="handleReset()"/>
   <use id="arrowup" xlink:href="#arrowUp" x="0" y="0" onmousedown="handlePan(0,-1)"/>
  <use id="arrowright" xlink:href="#arrowRight" x="0" y="0" onmousedown="handlePan(1,0)"/>
  <use id="arrowdown" xlink:href="#arrowDown" x="0" y="0" onmousedown="handlePan(0,1)"/>
  <use id="arrowleft" xlink:href="#arrowLeft" x="0" y="0" onmousedown="handlePan(-1,0)"/>
</g>
<svg viewBox="0 0 15 15" width="100%" height="30px" preserveAspectRatio="xMaxYMin meet">
 <g id="arrow_out" transform="scale(0.3 0.3)">
  <a xlink:href="namespaceanonymous__namespace_02_meta_paths_8cpp_03_a1ba3938f670cc7526df2081bf6f6c0ce_icgraph_org.svg" target="_base">
   <rect id="button" ry="5" rx="5" y="6" x="6" height="38" width="38"
        fill="#f2f5e9" fill-opacity="0.5" stroke="#606060" stroke-width="1.0"/>
   <path id="arrow"
     d="M 11.500037,31.436501 C 11.940474,20.09759 22.043105,11.32322 32.158766,21.979434 L 37.068811,17.246167 C 37.068811,17.246167 37.088388,32 37.088388,32 L 22.160133,31.978069 C 22.160133,31.978069 26.997745,27.140456 26.997745,27.140456 C 18.528582,18.264221 13.291696,25.230495 11.500037,31.436501 z"
     style="fill:#404040;"/>
  </a>
 </g>
</svg>

<style type='text/css'>
<![CDATA[
[data-mouse-over-selected='false'] { opacity: 0.7; }
[data-mouse-over-selected='true']  { opacity: 1.0; }
]]>
</style>
<script type="application/ecmascript"><![CDATA[
document.addEventListener('DOMContentLoaded', (event) => {
  highlightEdges();
  highlightAdjacentNodes();
});
]]></script>
</svg>
