<?xml version="1.0" encoding="UTF-8" standalone="no"?>
<!DOCTYPE svg PUBLIC "-//W3C//DTD SVG 1.1//EN"
 "http://www.w3.org/Graphics/SVG/1.1/DTD/svg11.dtd">
<!-- Generated by graphviz version 14.0.0 (20250921.2048)
 -->
<!-- Title: anonymous_namespace{MetaPaths::cpp}::aCreateSubDir Pages: 1 -->
<svg width="1454pt" height="228pt"
 viewBox="0.00 0.00 1454.00 228.00" xmlns="http://www.w3.org/2000/svg" xmlns:xlink="http://www.w3.org/1999/xlink">
<g id="graph0" class="graph" transform="scale(1 1) rotate(0) translate(4 223.88)">
<title>anonymous_namespace{MetaPaths::cpp}::aCreateSubDir</title>
<!-- Node1 -->
<g id="Node000001" class="node">
<title>Node1</title>
<g id="a_Node000001"><a xlink:title="Create subdirectory under base path.">
<polygon fill="#999999" stroke="none" points="1446,-105.88 1130,-105.88 1130,-86.62 1446,-86.62 1446,-105.88"/>
<text xml:space="preserve" text-anchor="start" x="1138" y="-92.42" font-family="Consolas" font-weight="bold" font-size="11.00">anonymous_namespace{MetaPaths::cpp}::aCreateSubDir</text>
</a>
</g>
</g>
<!-- Node2 -->
<g id="Node000002" class="node">
<title>Node2</title>
<g id="a_Node000002"><a xlink:href="../../dc/dba/namespacenpi_1_1app.html#a40a2a28831f2f410c995f0657baf6544" target="_top" xlink:title="Absolute application&#45;level ProgramData path.">
<polygon fill="white" stroke="none" points="844,-143.88 666,-143.88 666,-124.62 844,-124.62 844,-143.88"/>
<text xml:space="preserve" text-anchor="middle" x="755" y="-129.43" font-family="Consolas" font-size="11.00">npi::app::appProgramDataDir</text>
</a>
</g>
</g>
<!-- Node1&#45;&gt;Node2 -->
<g id="edge1_Node000001_Node000002" class="edge">
<title>Node1&#45;&gt;Node2</title>
<g id="a_edge1_Node000001_Node000002"><a xlink:title=" ">
<path fill="none" stroke="#63b8ff" d="M1244.01,-107.21C1205.13,-116.52 1146.16,-129.16 1094,-134.25 1009.31,-142.51 912.13,-141.41 843.77,-138.91"/>
<polygon fill="#63b8ff" stroke="#63b8ff" points="1248.41,-106.15 1244.08,-109.51 1247.17,-106.45 1243.55,-107.32 1243.55,-107.32 1243.55,-107.32 1247.17,-106.45 1243.03,-105.13 1248.41,-106.15"/>
</a>
</g>
</g>
<!-- Node9 -->
<g id="Node000009" class="node">
<title>Node9</title>
<g id="a_Node000009"><a xlink:href="../../dc/dba/namespacenpi_1_1app.html#aff4c7482e4417f59ede04e359548a542" target="_top" xlink:title="Absolute application&#45;level Public/Documents path.">
<polygon fill="white" stroke="none" points="856,-67.88 654,-67.88 654,-48.62 856,-48.62 856,-67.88"/>
<text xml:space="preserve" text-anchor="middle" x="755" y="-53.42" font-family="Consolas" font-size="11.00">npi::app::appPublicDocumentsDir</text>
</a>
</g>
</g>
<!-- Node1&#45;&gt;Node9 -->
<g id="edge8_Node000001_Node000009" class="edge">
<title>Node1&#45;&gt;Node9</title>
<g id="a_edge8_Node000001_Node000009"><a xlink:title=" ">
<path fill="none" stroke="#63b8ff" d="M1146.67,-86.21C1055.17,-79.66 937.95,-71.27 855.87,-65.4"/>
<polygon fill="#63b8ff" stroke="#63b8ff" points="1151.45,-86.55 1146.3,-88.44 1150.17,-86.46 1146.46,-86.19 1146.46,-86.19 1146.46,-86.19 1150.17,-86.46 1146.62,-83.95 1151.45,-86.55"/>
</a>
</g>
</g>
<!-- Node11 -->
<g id="Node000011" class="node">
<title>Node11</title>
<g id="a_Node000011"><a xlink:href="../../dc/dba/namespacenpi_1_1app.html#a30836be8b9337a64733a6e05594b23c8" target="_top" xlink:title="Absolute organization&#45;level ProgramData path.">
<polygon fill="white" stroke="none" points="1082,-124.88 904,-124.88 904,-105.62 1082,-105.62 1082,-124.88"/>
<text xml:space="preserve" text-anchor="middle" x="993" y="-110.42" font-family="Consolas" font-size="11.00">npi::app::orgProgramDataDir</text>
</a>
</g>
</g>
<!-- Node1&#45;&gt;Node11 -->
<g id="edge14_Node000001_Node000011" class="edge">
<title>Node1&#45;&gt;Node11</title>
<g id="a_edge14_Node000001_Node000011"><a xlink:title=" ">
<path fill="none" stroke="#63b8ff" d="M1132.86,-106.25C1115.41,-107.38 1098.1,-108.5 1081.94,-109.55"/>
<polygon fill="#63b8ff" stroke="#63b8ff" points="1137.57,-105.94 1132.72,-108.51 1136.29,-106.02 1132.58,-106.26 1132.58,-106.26 1132.58,-106.26 1136.29,-106.02 1132.43,-104.02 1137.57,-105.94"/>
</a>
</g>
</g>
<!-- Node12 -->
<g id="Node000012" class="node">
<title>Node12</title>
<g id="a_Node000012"><a xlink:href="../../dc/dba/namespacenpi_1_1app.html#ac0dca24602a75822c6f7fcf63f8781d9" target="_top" xlink:title="Absolute organization&#45;level Public/Documents path.">
<polygon fill="white" stroke="none" points="1094,-48.88 892,-48.88 892,-29.62 1094,-29.62 1094,-48.88"/>
<text xml:space="preserve" text-anchor="middle" x="993" y="-34.42" font-family="Consolas" font-size="11.00">npi::app::orgPublicDocumentsDir</text>
</a>
</g>
</g>
<!-- Node1&#45;&gt;Node12 -->
<g id="edge16_Node000001_Node000012" class="edge">
<title>Node1&#45;&gt;Node12</title>
<g id="a_edge16_Node000001_Node000012"><a xlink:title=" ">
<path fill="none" stroke="#63b8ff" d="M1231.8,-85.51C1177.45,-74.94 1095.22,-58.94 1043.09,-48.8"/>
<polygon fill="#63b8ff" stroke="#63b8ff" points="1236.43,-86.41 1231.09,-87.67 1235.17,-86.17 1231.52,-85.46 1231.52,-85.46 1231.52,-85.46 1235.17,-86.17 1231.95,-83.25 1236.43,-86.41"/>
</a>
</g>
</g>
<!-- Node3 -->
<g id="Node000003" class="node">
<title>Node3</title>
<g id="a_Node000003"><a xlink:href="../../df/d40/namespaceanonymous__namespace_02_meta_paths_8cpp_03.html#ac93f5837a3f4726d287eb4537159fd42" target="_top" xlink:title="Schedules the initialization of application meta paths.">
<polygon fill="white" stroke="none" points="618,-30.5 416,-30.5 416,0 618,0 618,-30.5"/>
<text xml:space="preserve" text-anchor="start" x="424" y="-16.05" font-family="Consolas" font-size="11.00">anonymous_namespace</text>
<text xml:space="preserve" text-anchor="middle" x="517" y="-4.8" font-family="Consolas" font-size="11.00">{MetaPaths::cpp}::aScheduleInit</text>
</a>
</g>
</g>
<!-- Node2&#45;&gt;Node3 -->
<g id="edge2_Node000002_Node000003" class="edge">
<title>Node2&#45;&gt;Node3</title>
<g id="a_edge2_Node000002_Node000003"><a xlink:title=" ">
<path fill="none" stroke="#63b8ff" d="M729.07,-122.03C708.24,-111.36 678.16,-94.87 654,-77.25 636.46,-64.46 636.92,-54.89 618,-44.25 608.15,-38.71 597.15,-34.15 586.15,-30.42"/>
<polygon fill="#63b8ff" stroke="#63b8ff" points="733.33,-124.19 727.85,-123.94 732.19,-123.61 728.87,-121.93 728.87,-121.93 728.87,-121.93 732.19,-123.61 729.89,-119.92 733.33,-124.19"/>
</a>
</g>
</g>
<!-- Node4 -->
<g id="Node000004" class="node">
<title>Node4</title>
<g id="a_Node000004"><a xlink:href="../../d5/ddd/namespacenpi_1_1log.html#ad3a49953f000d2b255f2e32166048605" target="_top" xlink:title=" ">
<polygon fill="white" stroke="none" points="356,-171.88 226,-171.88 226,-152.62 356,-152.62 356,-171.88"/>
<text xml:space="preserve" text-anchor="middle" x="291" y="-157.43" font-family="Consolas" font-size="11.00">npi::log::getConfig</text>
</a>
</g>
</g>
<!-- Node2&#45;&gt;Node4 -->
<g id="edge3_Node000002_Node000004" class="edge">
<title>Node2&#45;&gt;Node4</title>
<g id="a_edge3_Node000002_Node000004"><a xlink:title=" ">
<path fill="none" stroke="#63b8ff" d="M662.56,-144.42C647.68,-145.86 632.42,-147.2 618,-148.25 527.04,-154.88 421.55,-158.71 355.78,-160.64"/>
<polygon fill="#63b8ff" stroke="#63b8ff" points="667.25,-143.96 662.49,-146.69 665.97,-144.08 662.27,-144.45 662.27,-144.45 662.27,-144.45 665.97,-144.08 662.05,-142.21 667.25,-143.96"/>
</a>
</g>
</g>
<!-- Node6 -->
<g id="Node000006" class="node">
<title>Node6</title>
<g id="a_Node000006"><a xlink:href="../../d5/ddd/namespacenpi_1_1log.html#ae0762e568cebcd885346fb347ffb9579" target="_top" xlink:title=" ">
<polygon fill="white" stroke="none" points="380,-78.88 202,-78.88 202,-59.62 380,-59.62 380,-78.88"/>
<text xml:space="preserve" text-anchor="middle" x="291" y="-64.42" font-family="Consolas" font-size="11.00">npi::log::restoreDefaultDir</text>
</a>
</g>
</g>
<!-- Node2&#45;&gt;Node6 -->
<g id="edge5_Node000002_Node000006" class="edge">
<title>Node2&#45;&gt;Node6</title>
<g id="a_edge5_Node000002_Node000006"><a xlink:title=" ">
<path fill="none" stroke="#63b8ff" d="M731.77,-121.87C705.51,-107.99 660.07,-86.25 618,-77.25 538.69,-60.29 446.07,-59.8 379.86,-62.67"/>
<polygon fill="#63b8ff" stroke="#63b8ff" points="736,-124.14 730.53,-123.76 734.87,-123.53 731.59,-121.78 731.59,-121.78 731.59,-121.78 734.87,-123.53 732.65,-119.79 736,-124.14"/>
</a>
</g>
</g>
<!-- Node7 -->
<g id="Node000007" class="node">
<title>Node7</title>
<g id="a_Node000007"><a xlink:href="../../d5/ddd/namespacenpi_1_1log.html#a8f3b90122377e77601b8b4e55362ec34" target="_top" xlink:title=" ">
<polygon fill="white" stroke="none" points="347,-115.88 235,-115.88 235,-96.62 347,-96.62 347,-115.88"/>
<text xml:space="preserve" text-anchor="middle" x="291" y="-101.42" font-family="Consolas" font-size="11.00">npi::log::setDir</text>
</a>
</g>
</g>
<!-- Node2&#45;&gt;Node7 -->
<g id="edge6_Node000002_Node000007" class="edge">
<title>Node2&#45;&gt;Node7</title>
<g id="a_edge6_Node000002_Node000007"><a xlink:title=" ">
<path fill="none" stroke="#63b8ff" d="M660.01,-129.38C592.18,-125.76 498.41,-120.56 416,-115.25 393.38,-113.79 368.46,-112.02 346.92,-110.43"/>
<polygon fill="#63b8ff" stroke="#63b8ff" points="664.87,-129.64 659.75,-131.62 663.59,-129.57 659.87,-129.37 659.87,-129.37 659.87,-129.37 663.59,-129.57 659.99,-127.12 664.87,-129.64"/>
</a>
</g>
</g>
<!-- Node8 -->
<g id="Node000008" class="node">
<title>Node8</title>
<g id="a_Node000008"><a xlink:href="../../d5/ddd/namespacenpi_1_1log.html#a9844dab9537c8747fbab8490418d2dda" target="_top" xlink:title=" ">
<polygon fill="white" stroke="none" points="603,-219.88 431,-219.88 431,-200.62 603,-200.62 603,-219.88"/>
<text xml:space="preserve" text-anchor="middle" x="517" y="-205.43" font-family="Consolas" font-size="11.00">npi::log::setMaxFolderSize</text>
</a>
</g>
</g>
<!-- Node2&#45;&gt;Node8 -->
<g id="edge7_Node000002_Node000008" class="edge">
<title>Node2&#45;&gt;Node8</title>
<g id="a_edge7_Node000002_Node000008"><a xlink:title=" ">
<path fill="none" stroke="#63b8ff" d="M726.13,-146.13C698.89,-157.44 656.1,-174.45 618,-186.25 600.35,-191.72 580.62,-196.69 563.39,-200.67"/>
<polygon fill="#63b8ff" stroke="#63b8ff" points="730.57,-144.27 726.82,-148.28 729.39,-144.77 725.95,-146.2 725.95,-146.2 725.95,-146.2 729.39,-144.77 725.09,-144.12 730.57,-144.27"/>
</a>
</g>
</g>
<!-- Node5 -->
<g id="Node000005" class="node">
<title>Node5</title>
<g id="a_Node000005"><a xlink:href="../../dc/d8e/namespaceanonymous__namespace_02_log_8cpp_03.html#a474bf1d9b97572fbc7245fa612f19a5d" target="_top" xlink:title=" ">
<polygon fill="white" stroke="none" points="166,-177.5 0,-177.5 0,-147 166,-147 166,-177.5"/>
<text xml:space="preserve" text-anchor="start" x="8" y="-163.05" font-family="Consolas" font-size="11.00">anonymous_namespace</text>
<text xml:space="preserve" text-anchor="middle" x="83" y="-151.8" font-family="Consolas" font-size="11.00">{Log::cpp}::aScheduleInit</text>
</a>
</g>
</g>
<!-- Node4&#45;&gt;Node5 -->
<g id="edge4_Node000004_Node000005" class="edge">
<title>Node4&#45;&gt;Node5</title>
<g id="a_edge4_Node000004_Node000005"><a xlink:title=" ">
<path fill="none" stroke="#63b8ff" d="M220.34,-162.25C202.78,-162.25 183.78,-162.25 165.69,-162.25"/>
<polygon fill="#63b8ff" stroke="#63b8ff" points="225.01,-162.25 220.01,-164.5 223.73,-162.25 220.01,-162.25 220.01,-162.25 220.01,-162.25 223.73,-162.25 220.01,-160 225.01,-162.25"/>
</a>
</g>
</g>
<!-- Node9&#45;&gt;Node3 -->
<g id="edge9_Node000009_Node000003" class="edge">
<title>Node9&#45;&gt;Node3</title>
<g id="a_edge9_Node000009_Node000003"><a xlink:title=" ">
<path fill="none" stroke="#63b8ff" d="M695.38,-47.57C667.06,-42.41 632.57,-36.12 601.55,-30.47"/>
<polygon fill="#63b8ff" stroke="#63b8ff" points="700.13,-48.44 694.81,-49.75 698.87,-48.21 695.21,-47.54 695.21,-47.54 695.21,-47.54 698.87,-48.21 695.62,-45.33 700.13,-48.44"/>
</a>
</g>
</g>
<!-- Node10 -->
<g id="Node000010" class="node">
<title>Node10</title>
<g id="a_Node000010"><a xlink:href="../../d5/ddd/namespacenpi_1_1log.html#adc43e95b1d6b8f65bb04565dfda8a776" target="_top" xlink:title=" ">
<polygon fill="white" stroke="none" points="585,-105.88 449,-105.88 449,-86.62 585,-86.62 585,-105.88"/>
<text xml:space="preserve" text-anchor="middle" x="517" y="-91.42" font-family="Consolas" font-size="11.00">npi::log::defaultDir</text>
</a>
</g>
</g>
<!-- Node9&#45;&gt;Node10 -->
<g id="edge10_Node000009_Node000010" class="edge">
<title>Node9&#45;&gt;Node10</title>
<g id="a_edge10_Node000009_Node000010"><a xlink:title=" ">
<path fill="none" stroke="#63b8ff" d="M688.49,-68.8C653.74,-74.39 611.35,-81.22 577.53,-86.66"/>
<polygon fill="#63b8ff" stroke="#63b8ff" points="693.24,-68.03 688.67,-71.05 691.98,-68.24 688.31,-68.83 688.31,-68.83 688.31,-68.83 691.98,-68.24 687.95,-66.61 693.24,-68.03"/>
</a>
</g>
</g>
<!-- Node10&#45;&gt;Node4 -->
<g id="edge11_Node000010_Node000004" class="edge">
<title>Node10&#45;&gt;Node4</title>
<g id="a_edge11_Node000010_Node000004"><a xlink:title=" ">
<path fill="none" stroke="#63b8ff" d="M477.52,-107.59C434.39,-120.3 365.19,-140.68 324.61,-152.64"/>
<polygon fill="#63b8ff" stroke="#63b8ff" points="482.26,-106.19 478.1,-109.76 481.03,-106.55 477.46,-107.6 477.46,-107.6 477.46,-107.6 481.03,-106.55 476.83,-105.45 482.26,-106.19"/>
</a>
</g>
</g>
<!-- Node10&#45;&gt;Node6 -->
<g id="edge12_Node000010_Node000006" class="edge">
<title>Node10&#45;&gt;Node6</title>
<g id="a_edge12_Node000010_Node000006"><a xlink:title=" ">
<path fill="none" stroke="#63b8ff" d="M443.03,-87.46C420.19,-84.7 394.87,-81.65 371.59,-78.84"/>
<polygon fill="#63b8ff" stroke="#63b8ff" points="447.89,-88.04 442.65,-89.68 446.61,-87.89 442.92,-87.44 442.92,-87.44 442.92,-87.44 446.61,-87.89 443.19,-85.21 447.89,-88.04"/>
</a>
</g>
</g>
<!-- Node10&#45;&gt;Node7 -->
<g id="edge13_Node000010_Node000007" class="edge">
<title>Node10&#45;&gt;Node7</title>
<g id="a_edge13_Node000010_Node000007"><a xlink:title=" ">
<path fill="none" stroke="#63b8ff" d="M442.91,-99.51C411.67,-100.91 375.81,-102.51 346.89,-103.8"/>
<polygon fill="#63b8ff" stroke="#63b8ff" points="447.88,-99.29 442.98,-101.76 446.6,-99.35 442.88,-99.51 442.88,-99.51 442.88,-99.51 446.6,-99.35 442.78,-97.27 447.88,-99.29"/>
</a>
</g>
</g>
<!-- Node11&#45;&gt;Node2 -->
<g id="edge15_Node000011_Node000002" class="edge">
<title>Node11&#45;&gt;Node2</title>
<g id="a_edge15_Node000011_Node000002"><a xlink:title=" ">
<path fill="none" stroke="#63b8ff" d="M898.1,-122.81C880.24,-124.25 861.61,-125.75 843.95,-127.17"/>
<polygon fill="#63b8ff" stroke="#63b8ff" points="902.91,-122.42 898.1,-125.07 901.63,-122.53 897.92,-122.82 897.92,-122.82 897.92,-122.82 901.63,-122.53 897.74,-120.58 902.91,-122.42"/>
</a>
</g>
</g>
<!-- Node12&#45;&gt;Node9 -->
<g id="edge17_Node000012_Node000009" class="edge">
<title>Node12&#45;&gt;Node9</title>
<g id="a_edge17_Node000012_Node000009"><a xlink:title=" ">
<path fill="none" stroke="#63b8ff" d="M886.29,-47.76C876.14,-48.58 865.86,-49.41 855.76,-50.22"/>
<polygon fill="#63b8ff" stroke="#63b8ff" points="891.04,-47.38 886.24,-50.02 889.76,-47.48 886.06,-47.78 886.06,-47.78 886.06,-47.78 889.76,-47.48 885.88,-45.54 891.04,-47.38"/>
</a>
</g>
</g>
</g>
</svg>
