<?xml version="1.0" encoding="UTF-8" standalone="no"?>
<!DOCTYPE svg PUBLIC "-//W3C//DTD SVG 1.1//EN"
 "http://www.w3.org/Graphics/SVG/1.1/DTD/svg11.dtd">
<!-- Generated by graphviz version 14.0.0 (20250921.2048)
 -->
<!-- Title: anonymous_namespace{MetaPaths::cpp}::basePath Pages: 1 -->
<!--zoomable 350 -->

<svg id="main" version="1.1" xmlns="http://www.w3.org/2000/svg" xmlns:xlink="http://www.w3.org/1999/xlink" xml:space="preserve" onload="init(evt)">

<style type="text/css"><![CDATA[
.node, .edge {opacity: 0.7;}
.node.selected, .edge.selected {opacity: 1;}
.edge:hover path { stroke: red; }
.edge:hover polygon { stroke: red; fill: red; }
]]></style>

<defs>
  <circle id="rim" cx="0" cy="0" r="7"/>
  <circle id="rim2" cx="0" cy="0" r="3.5"/>
  <g id="zoomPlus">
    <use xlink:href="#rim" fill="#404040"><set attributeName="fill" to="#808080" begin="zoomplus.mouseover" end="zoomplus.mouseout"/></use>
    <path d="M-4,0h8M0,-4v8" fill="none" stroke="white" stroke-width="1.5" pointer-events="none"/>
  </g>
  <g id="zoomMin">
    <use xlink:href="#rim" fill="#404040"><set attributeName="fill" to="#808080" begin="zoomminus.mouseover" end="zoomminus.mouseout"/></use>
    <path d="M-4,0h8" fill="none" stroke="white" stroke-width="1.5" pointer-events="none"/>
  </g>
  <g id="arrowUp" transform="translate(30 24)">
    <use xlink:href="#rim"/>
    <path pointer-events="none" fill="none" stroke="white" stroke-width="1.5" d="M0,-3.0v7 M-2.5,-0.5L0,-3.0L2.5,-0.5"/>
  </g>
  <g id="arrowRight" transform="rotate(90) translate(36 -43)">
    <use xlink:href="#rim"/>
    <path pointer-events="none" fill="none" stroke="white" stroke-width="1.5" d="M0,-3.0v7 M-2.5,-0.5L0,-3.0L2.5,-0.5"/>
  </g>
  <g id="arrowDown" transform="rotate(180) translate(-30 -48)">
    <use xlink:href="#rim"/>
    <path pointer-events="none" fill="none" stroke="white" stroke-width="1.5" d="M0,-3.0v7 M-2.5,-0.5L0,-3.0L2.5,-0.5"/>
  </g>
  <g id="arrowLeft" transform="rotate(270) translate(-36 17)">
    <use xlink:href="#rim"/>
    <path pointer-events="none" fill="none" stroke="white" stroke-width="1.5" d="M0,-3.0v7 M-2.5,-0.5L0,-3.0L2.5,-0.5"/>
  </g>
  <g id="resetDef">
    <use xlink:href="#rim2" fill="#404040"><set attributeName="fill" to="#808080" begin="reset.mouseover" end="reset.mouseout"/></use>
  </g>
</defs>
<script type="application/ecmascript">
var viewWidth = 1614;
var viewHeight = 350;
var sectionId = 'dynsection-1';
</script>
<script type="application/ecmascript" xlink:href="../../svg.min.js"/>
<svg id="graph" class="graph">
<g id="viewport">
<title>anonymous_namespace{MetaPaths::cpp}::basePath</title>
<!-- Node1 -->
<g id="Node000001" class="node">
<title>Node1</title>
<g id="a_Node000001"><a xlink:title="Resolve base path using Known Folder ID or environment variable fallback.">
<polygon fill="#999999" stroke="none" points="1606,-93.5 1320,-93.5 1320,-74.25 1606,-74.25 1606,-93.5"/>
<text xml:space="preserve" text-anchor="start" x="1328" y="-80.05" font-family="Consolas" font-weight="bold" font-size="11.00">anonymous_namespace{MetaPaths::cpp}::basePath</text>
</a>
</g>
</g>
<!-- Node2 -->
<g id="Node000002" class="node">
<title>Node2</title>
<g id="a_Node000002"><a xlink:href="../../dc/dba/namespacenpi_1_1app.html#a30836be8b9337a64733a6e05594b23c8" target="_top" xlink:title="Absolute organization&#45;level ProgramData path.">
<polygon fill="white" stroke="none" points="1272,-112.5 1094,-112.5 1094,-93.25 1272,-93.25 1272,-112.5"/>
<text xml:space="preserve" text-anchor="middle" x="1183" y="-98.05" font-family="Consolas" font-size="11.00">npi::app::orgProgramDataDir</text>
</a>
</g>
</g>
<!-- Node1&#45;&gt;Node2 -->
<g id="edge1_Node000001_Node000002" class="edge">
<title>Node1&#45;&gt;Node2</title>
<g id="a_edge1_Node000001_Node000002"><a xlink:title=" ">
<path fill="none" stroke="#63b8ff" d="M1315.46,-93.89C1300.61,-94.91 1285.89,-95.91 1271.95,-96.86"/>
<polygon fill="#63b8ff" stroke="#63b8ff" points="1320.16,-93.57 1315.32,-96.16 1318.88,-93.66 1315.17,-93.91 1315.17,-93.91 1315.17,-93.91 1318.88,-93.66 1315.01,-91.67 1320.16,-93.57"/>
</a>
</g>
</g>
<!-- Node16 -->
<g id="Node000016" class="node">
<title>Node16</title>
<g id="a_Node000016"><a xlink:href="../../dc/dba/namespacenpi_1_1app.html#ac0dca24602a75822c6f7fcf63f8781d9" target="_top" xlink:title="Absolute organization&#45;level Public/Documents path.">
<polygon fill="white" stroke="none" points="1284,-75.5 1082,-75.5 1082,-56.25 1284,-56.25 1284,-75.5"/>
<text xml:space="preserve" text-anchor="middle" x="1183" y="-61.05" font-family="Consolas" font-size="11.00">npi::app::orgPublicDocumentsDir</text>
</a>
</g>
</g>
<!-- Node1&#45;&gt;Node16 -->
<g id="edge17_Node000001_Node000016" class="edge">
<title>Node1&#45;&gt;Node16</title>
<g id="a_edge17_Node000001_Node000016"><a xlink:title=" ">
<path fill="none" stroke="#63b8ff" d="M1314.09,-74.3C1303.81,-73.63 1293.6,-72.97 1283.68,-72.33"/>
<polygon fill="#63b8ff" stroke="#63b8ff" points="1318.93,-74.61 1313.8,-76.53 1317.65,-74.53 1313.94,-74.29 1313.94,-74.29 1313.94,-74.29 1317.65,-74.53 1314.09,-72.04 1318.93,-74.61"/>
</a>
</g>
</g>
<!-- Node3 -->
<g id="Node000003" class="node">
<title>Node3</title>
<g id="a_Node000003"><a xlink:href="../../dc/dba/namespacenpi_1_1app.html#a40a2a28831f2f410c995f0657baf6544" target="_top" xlink:title="Absolute application&#45;level ProgramData path.">
<polygon fill="white" stroke="none" points="1034,-150.5 856,-150.5 856,-131.25 1034,-131.25 1034,-150.5"/>
<text xml:space="preserve" text-anchor="middle" x="945" y="-136.05" font-family="Consolas" font-size="11.00">npi::app::appProgramDataDir</text>
</a>
</g>
</g>
<!-- Node2&#45;&gt;Node3 -->
<g id="edge2_Node000002_Node000003" class="edge">
<title>Node2&#45;&gt;Node3</title>
<g id="a_edge2_Node000002_Node000003"><a xlink:title=" ">
<path fill="none" stroke="#63b8ff" d="M1116.49,-113.42C1081.74,-119.02 1039.35,-125.84 1005.53,-131.29"/>
<polygon fill="#63b8ff" stroke="#63b8ff" points="1121.24,-112.66 1116.67,-115.67 1119.98,-112.86 1116.31,-113.45 1116.31,-113.45 1116.31,-113.45 1119.98,-112.86 1115.95,-111.23 1121.24,-112.66"/>
</a>
</g>
</g>
<!-- Node4 -->
<g id="Node000004" class="node">
<title>Node4</title>
<g id="a_Node000004"><a xlink:href="../../d0/d61/classanonymous__namespace_02_log_8cpp_03_1_1_log_core.html#aec0c49d654f69ba240eded5dee4bbc8b" target="_top" xlink:title=" ">
<polygon fill="white" stroke="none" points="775,-341.75 645,-341.75 645,-300 775,-300 775,-341.75"/>
<text xml:space="preserve" text-anchor="start" x="653" y="-327.3" font-family="Consolas" font-size="11.00">anonymous_namespace</text>
<text xml:space="preserve" text-anchor="start" x="653" y="-316.05" font-family="Consolas" font-size="11.00">{Log::cpp}::LogCore</text>
<text xml:space="preserve" text-anchor="middle" x="710" y="-304.8" font-family="Consolas" font-size="11.00">::getFutureDir_</text>
</a>
</g>
</g>
<!-- Node3&#45;&gt;Node4 -->
<g id="edge3_Node000003_Node000004" class="edge">
<title>Node3&#45;&gt;Node4</title>
<g id="a_edge3_Node000003_Node000004"><a xlink:title=" ">
<path fill="none" stroke="#63b8ff" d="M934.89,-155.29C915.34,-185.07 866.34,-253.72 808,-290.88 797.89,-297.31 786.31,-302.45 774.75,-306.52"/>
<polygon fill="#63b8ff" stroke="#63b8ff" points="937.53,-151.22 936.7,-156.64 936.84,-152.29 934.81,-155.41 934.81,-155.41 934.81,-155.41 936.84,-152.29 932.92,-154.19 937.53,-151.22"/>
</a>
</g>
</g>
<!-- Node5 -->
<g id="Node000005" class="node">
<title>Node5</title>
<g id="a_Node000005"><a xlink:href="../../d0/d61/classanonymous__namespace_02_log_8cpp_03_1_1_log_core.html#a953bdf43ab1e0d48f1225fe1dcccfbd4" target="_top" xlink:title=" ">
<polygon fill="white" stroke="none" points="781,-281.75 639,-281.75 639,-240 781,-240 781,-281.75"/>
<text xml:space="preserve" text-anchor="start" x="647" y="-267.3" font-family="Consolas" font-size="11.00">anonymous_namespace</text>
<text xml:space="preserve" text-anchor="start" x="647" y="-256.05" font-family="Consolas" font-size="11.00">{Log::cpp}::LogCore</text>
<text xml:space="preserve" text-anchor="middle" x="710" y="-244.8" font-family="Consolas" font-size="11.00">::getMaxFolderSizeMb_</text>
</a>
</g>
</g>
<!-- Node3&#45;&gt;Node5 -->
<g id="edge4_Node000003_Node000005" class="edge">
<title>Node3&#45;&gt;Node5</title>
<g id="a_edge4_Node000003_Node000005"><a xlink:title=" ">
<path fill="none" stroke="#63b8ff" d="M927.72,-153.9C903.09,-173.06 854.3,-208.95 808,-230.88 799.4,-234.95 790.11,-238.64 780.8,-241.93"/>
<polygon fill="#63b8ff" stroke="#63b8ff" points="931.36,-151.05 928.81,-155.9 930.35,-151.84 927.42,-154.13 927.42,-154.13 927.42,-154.13 930.35,-151.84 926.03,-152.36 931.36,-151.05"/>
</a>
</g>
</g>
<!-- Node6 -->
<g id="Node000006" class="node">
<title>Node6</title>
<g id="a_Node000006"><a xlink:href="../../d0/d61/classanonymous__namespace_02_log_8cpp_03_1_1_log_core.html#af4273441409e88d841adc86974b49c75" target="_top" xlink:title=" ">
<polygon fill="white" stroke="none" points="781,-221.75 639,-221.75 639,-180 781,-180 781,-221.75"/>
<text xml:space="preserve" text-anchor="start" x="647" y="-207.3" font-family="Consolas" font-size="11.00">anonymous_namespace</text>
<text xml:space="preserve" text-anchor="start" x="647" y="-196.05" font-family="Consolas" font-size="11.00">{Log::cpp}::LogCore</text>
<text xml:space="preserve" text-anchor="middle" x="710" y="-184.8" font-family="Consolas" font-size="11.00">::getStartupSettings_</text>
</a>
</g>
</g>
<!-- Node3&#45;&gt;Node6 -->
<g id="edge5_Node000003_Node000006" class="edge">
<title>Node3&#45;&gt;Node6</title>
<g id="a_edge5_Node000003_Node000006"><a xlink:title=" ">
<path fill="none" stroke="#63b8ff" d="M901.13,-151.91C867.51,-160.57 820.02,-172.8 780.92,-182.87"/>
<polygon fill="#63b8ff" stroke="#63b8ff" points="905.64,-150.75 901.36,-154.18 904.4,-151.07 900.8,-152 900.8,-152 900.8,-152 904.4,-151.07 900.24,-149.82 905.64,-150.75"/>
</a>
</g>
</g>
<!-- Node8 -->
<g id="Node000008" class="node">
<title>Node8</title>
<g id="a_Node000008"><a xlink:href="../../d0/d61/classanonymous__namespace_02_log_8cpp_03_1_1_log_core.html#a5fa684811c33eea49f63593fea332de4" target="_top" xlink:title=" ">
<polygon fill="white" stroke="none" points="775,-101.75 645,-101.75 645,-60 775,-60 775,-101.75"/>
<text xml:space="preserve" text-anchor="start" x="653" y="-87.3" font-family="Consolas" font-size="11.00">anonymous_namespace</text>
<text xml:space="preserve" text-anchor="start" x="653" y="-76.05" font-family="Consolas" font-size="11.00">{Log::cpp}::LogCore</text>
<text xml:space="preserve" text-anchor="middle" x="710" y="-64.8" font-family="Consolas" font-size="11.00">::saveSettings_</text>
</a>
</g>
</g>
<!-- Node3&#45;&gt;Node8 -->
<g id="edge7_Node000003_Node000008" class="edge">
<title>Node3&#45;&gt;Node8</title>
<g id="a_edge7_Node000003_Node000008"><a xlink:title=" ">
<path fill="none" stroke="#63b8ff" d="M900.84,-129.76C865.48,-120.65 814.91,-107.63 774.86,-97.32"/>
<polygon fill="#63b8ff" stroke="#63b8ff" points="905.64,-131 900.24,-131.93 904.4,-130.68 900.8,-129.75 900.8,-129.75 900.8,-129.75 904.4,-130.68 901.36,-127.57 905.64,-131"/>
</a>
</g>
</g>
<!-- Node14 -->
<g id="Node000014" class="node">
<title>Node14</title>
<g id="a_Node000014"><a xlink:href="../../df/d40/namespaceanonymous__namespace_02_meta_paths_8cpp_03.html#a71f0c349fdc17bb538a0b720816e7bcd" target="_top" xlink:title="Schedules the initialization of application meta paths.">
<polygon fill="white" stroke="none" points="808,-42.12 612,-42.12 612,-11.63 808,-11.63 808,-42.12"/>
<text xml:space="preserve" text-anchor="start" x="620" y="-27.68" font-family="Consolas" font-size="11.00">anonymous_namespace</text>
<text xml:space="preserve" text-anchor="middle" x="710" y="-16.43" font-family="Consolas" font-size="11.00">{MetaPaths::cpp}::scheduleInit</text>
</a>
</g>
</g>
<!-- Node3&#45;&gt;Node14 -->
<g id="edge14_Node000003_Node000014" class="edge">
<title>Node3&#45;&gt;Node14</title>
<g id="a_edge14_Node000003_Node000014"><a xlink:title=" ">
<path fill="none" stroke="#63b8ff" d="M918.21,-128.65C897.36,-118.26 867.7,-102.29 844,-84.88 826.26,-71.84 827.32,-61.42 808,-50.88 801.83,-47.51 795.19,-44.61 788.37,-42.11"/>
<polygon fill="#63b8ff" stroke="#63b8ff" points="922.48,-130.76 917,-130.56 921.33,-130.19 918,-128.55 918,-128.55 918,-128.55 921.33,-130.19 918.99,-126.53 922.48,-130.76"/>
</a>
</g>
</g>
<!-- Node15 -->
<g id="Node000015" class="node">
<title>Node15</title>
<g id="a_Node000015"><a xlink:href="../../d0/d61/classanonymous__namespace_02_log_8cpp_03_1_1_log_core.html#a78f2c370e9ec632af877fe1dd49ef478" target="_top" xlink:title=" ">
<polygon fill="white" stroke="none" points="781,-161.75 639,-161.75 639,-120 781,-120 781,-161.75"/>
<text xml:space="preserve" text-anchor="start" x="647" y="-147.3" font-family="Consolas" font-size="11.00">anonymous_namespace</text>
<text xml:space="preserve" text-anchor="start" x="647" y="-136.05" font-family="Consolas" font-size="11.00">{Log::cpp}::LogCore</text>
<text xml:space="preserve" text-anchor="middle" x="710" y="-124.8" font-family="Consolas" font-size="11.00">::startImpLogProcess_</text>
</a>
</g>
</g>
<!-- Node3&#45;&gt;Node15 -->
<g id="edge15_Node000003_Node000015" class="edge">
<title>Node3&#45;&gt;Node15</title>
<g id="a_edge15_Node000003_Node000015"><a xlink:title=" ">
<path fill="none" stroke="#63b8ff" d="M850.08,-140.88C826.98,-140.88 802.64,-140.88 780.89,-140.88"/>
<polygon fill="#63b8ff" stroke="#63b8ff" points="855.03,-140.88 850.03,-143.13 853.74,-140.88 850.03,-140.88 850.03,-140.88 850.03,-140.88 853.74,-140.88 850.03,-138.63 855.03,-140.88"/>
</a>
</g>
</g>
<!-- Node7 -->
<g id="Node000007" class="node">
<title>Node7</title>
<g id="a_Node000007"><a xlink:href="../../d0/d61/classanonymous__namespace_02_log_8cpp_03_1_1_log_core.html#ac81e3393bfb7545e17c9fd8ea4cb4aa6" target="_top" xlink:title=" ">
<polygon fill="white" stroke="none" points="573,-161.75 443,-161.75 443,-120 573,-120 573,-161.75"/>
<text xml:space="preserve" text-anchor="start" x="451" y="-147.3" font-family="Consolas" font-size="11.00">anonymous_namespace</text>
<text xml:space="preserve" text-anchor="start" x="451" y="-136.05" font-family="Consolas" font-size="11.00">{Log::cpp}::LogCore</text>
<text xml:space="preserve" text-anchor="middle" x="508" y="-124.8" font-family="Consolas" font-size="11.00">::LogCore</text>
</a>
</g>
</g>
<!-- Node6&#45;&gt;Node7 -->
<g id="edge6_Node000006_Node000007" class="edge">
<title>Node6&#45;&gt;Node7</title>
<g id="a_edge6_Node000006_Node000007"><a xlink:title=" ">
<path fill="none" stroke="#63b8ff" d="M633.72,-178.29C613.7,-172.28 592.26,-165.85 572.9,-160.04"/>
<polygon fill="#63b8ff" stroke="#63b8ff" points="638.44,-179.71 633.01,-180.43 637.22,-179.34 633.65,-178.27 633.65,-178.27 633.65,-178.27 637.22,-179.34 634.3,-176.12 638.44,-179.71"/>
</a>
</g>
</g>
<!-- Node8&#45;&gt;Node7 -->
<g id="edge8_Node000008_Node000007" class="edge">
<title>Node8&#45;&gt;Node7</title>
<g id="a_edge8_Node000008_Node000007"><a xlink:title=" ">
<path fill="none" stroke="#63b8ff" d="M639.43,-101.75C617.82,-108.23 594.12,-115.34 572.91,-121.7"/>
<polygon fill="#63b8ff" stroke="#63b8ff" points="644,-100.37 639.86,-103.97 642.77,-100.74 639.21,-101.81 639.21,-101.81 639.21,-101.81 642.77,-100.74 638.57,-99.66 644,-100.37"/>
</a>
</g>
</g>
<!-- Node9 -->
<g id="Node000009" class="node">
<title>Node9</title>
<g id="a_Node000009"><a xlink:href="../../d0/d61/classanonymous__namespace_02_log_8cpp_03_1_1_log_core.html#a18c3c555110a16327bd67014b95739eb" target="_top" xlink:title=" ">
<polygon fill="white" stroke="none" points="576,-101.75 440,-101.75 440,-60 576,-60 576,-101.75"/>
<text xml:space="preserve" text-anchor="start" x="448" y="-87.3" font-family="Consolas" font-size="11.00">anonymous_namespace</text>
<text xml:space="preserve" text-anchor="start" x="448" y="-76.05" font-family="Consolas" font-size="11.00">{Log::cpp}::LogCore</text>
<text xml:space="preserve" text-anchor="middle" x="508" y="-64.8" font-family="Consolas" font-size="11.00">::setColoredConsole_</text>
</a>
</g>
</g>
<!-- Node8&#45;&gt;Node9 -->
<g id="edge9_Node000008_Node000009" class="edge">
<title>Node8&#45;&gt;Node9</title>
<g id="a_edge9_Node000008_Node000009"><a xlink:title=" ">
<path fill="none" stroke="#63b8ff" d="M639.13,-80.88C618.53,-80.88 596.06,-80.88 575.67,-80.88"/>
<polygon fill="#63b8ff" stroke="#63b8ff" points="643.95,-80.88 638.95,-83.13 642.67,-80.88 638.95,-80.88 638.95,-80.88 638.95,-80.88 642.67,-80.88 638.95,-78.63 643.95,-80.88"/>
</a>
</g>
</g>
<!-- Node12 -->
<g id="Node000012" class="node">
<title>Node12</title>
<g id="a_Node000012"><a xlink:href="../../d0/d61/classanonymous__namespace_02_log_8cpp_03_1_1_log_core.html#a59eebbde2d3d36263a0d7a96e595573b" target="_top" xlink:title=" ">
<polygon fill="white" stroke="none" points="573,-41.75 443,-41.75 443,0 573,0 573,-41.75"/>
<text xml:space="preserve" text-anchor="start" x="451" y="-27.3" font-family="Consolas" font-size="11.00">anonymous_namespace</text>
<text xml:space="preserve" text-anchor="start" x="451" y="-16.05" font-family="Consolas" font-size="11.00">{Log::cpp}::LogCore</text>
<text xml:space="preserve" text-anchor="middle" x="508" y="-4.8" font-family="Consolas" font-size="11.00">::setWarnIsImp_</text>
</a>
</g>
</g>
<!-- Node8&#45;&gt;Node12 -->
<g id="edge12_Node000008_Node000012" class="edge">
<title>Node8&#45;&gt;Node12</title>
<g id="a_edge12_Node000008_Node000012"><a xlink:title=" ">
<path fill="none" stroke="#63b8ff" d="M639.43,-60C617.82,-53.52 594.12,-46.41 572.91,-40.05"/>
<polygon fill="#63b8ff" stroke="#63b8ff" points="644,-61.38 638.57,-62.09 642.77,-61.01 639.21,-59.94 639.21,-59.94 639.21,-59.94 642.77,-61.01 639.86,-57.78 644,-61.38"/>
</a>
</g>
</g>
<!-- Node10 -->
<g id="Node000010" class="node">
<title>Node10</title>
<g id="a_Node000010"><a xlink:href="../../d5/ddd/namespacenpi_1_1log.html#aa9c7f1de08a88a0dcac316127c1d384b" target="_top" xlink:title=" ">
<polygon fill="white" stroke="none" points="404,-90.5 226,-90.5 226,-71.25 404,-71.25 404,-90.5"/>
<text xml:space="preserve" text-anchor="middle" x="315" y="-76.05" font-family="Consolas" font-size="11.00">npi::log::setColoredConsole</text>
</a>
</g>
</g>
<!-- Node9&#45;&gt;Node10 -->
<g id="edge10_Node000009_Node000010" class="edge">
<title>Node9&#45;&gt;Node10</title>
<g id="a_edge10_Node000009_Node000010"><a xlink:title=" ">
<path fill="none" stroke="#63b8ff" d="M434.1,-80.88C424.23,-80.88 414.01,-80.88 403.91,-80.88"/>
<polygon fill="#63b8ff" stroke="#63b8ff" points="438.98,-80.88 433.98,-83.13 437.7,-80.88 433.98,-80.88 433.98,-80.88 433.98,-80.88 437.7,-80.88 433.98,-78.63 438.98,-80.88"/>
</a>
</g>
</g>
<!-- Node11 -->
<g id="Node000011" class="node">
<title>Node11</title>
<g id="a_Node000011"><a xlink:href="../../d9/dc6/class_main_window.html#a4b31735a0ab8596f2c8a452d47694572" target="_top" xlink:title=" ">
<polygon fill="white" stroke="none" points="190,-96.12 0,-96.12 0,-65.62 190,-65.62 190,-96.12"/>
<text xml:space="preserve" text-anchor="start" x="8" y="-81.67" font-family="Consolas" font-size="11.00">MainWindow::on_coloredConsole</text>
<text xml:space="preserve" text-anchor="middle" x="95" y="-70.42" font-family="Consolas" font-size="11.00">_chk_checkStateChanged</text>
</a>
</g>
</g>
<!-- Node10&#45;&gt;Node11 -->
<g id="edge11_Node000010_Node000011" class="edge">
<title>Node10&#45;&gt;Node11</title>
<g id="a_edge11_Node000010_Node000011"><a xlink:title=" ">
<path fill="none" stroke="#63b8ff" d="M220.08,-80.88C210.1,-80.88 199.95,-80.88 189.96,-80.88"/>
<polygon fill="#63b8ff" stroke="#63b8ff" points="225.05,-80.88 220.05,-83.13 223.77,-80.88 220.05,-80.88 220.05,-80.88 220.05,-80.88 223.77,-80.88 220.05,-78.63 225.05,-80.88"/>
</a>
</g>
</g>
<!-- Node13 -->
<g id="Node000013" class="node">
<title>Node13</title>
<g id="a_Node000013"><a xlink:href="../../d5/ddd/namespacenpi_1_1log.html#a9be9faae3670cc6af86285afecfb3e58" target="_top" xlink:title=" ">
<polygon fill="white" stroke="none" points="398,-30.5 232,-30.5 232,-11.25 398,-11.25 398,-30.5"/>
<text xml:space="preserve" text-anchor="middle" x="315" y="-16.05" font-family="Consolas" font-size="11.00">npi::log::setWarnAsImpLog</text>
</a>
</g>
</g>
<!-- Node12&#45;&gt;Node13 -->
<g id="edge13_Node000012_Node000013" class="edge">
<title>Node12&#45;&gt;Node13</title>
<g id="a_edge13_Node000012_Node000013"><a xlink:title=" ">
<path fill="none" stroke="#63b8ff" d="M436.94,-20.88C424.21,-20.88 410.84,-20.88 397.81,-20.88"/>
<polygon fill="#63b8ff" stroke="#63b8ff" points="441.92,-20.88 436.92,-23.13 440.63,-20.88 436.92,-20.88 436.92,-20.88 436.92,-20.88 440.63,-20.88 436.92,-18.63 441.92,-20.88"/>
</a>
</g>
</g>
<!-- Node15&#45;&gt;Node7 -->
<g id="edge16_Node000015_Node000007" class="edge">
<title>Node15&#45;&gt;Node7</title>
<g id="a_edge16_Node000015_Node000007"><a xlink:title=" ">
<path fill="none" stroke="#63b8ff" d="M632.95,-140.88C613.14,-140.88 592,-140.88 572.89,-140.88"/>
<polygon fill="#63b8ff" stroke="#63b8ff" points="637.83,-140.88 632.83,-143.13 636.55,-140.88 632.83,-140.88 632.83,-140.88 632.83,-140.88 636.55,-140.88 632.83,-138.63 637.83,-140.88"/>
</a>
</g>
</g>
<!-- Node17 -->
<g id="Node000017" class="node">
<title>Node17</title>
<g id="a_Node000017"><a xlink:href="../../dc/dba/namespacenpi_1_1app.html#aff4c7482e4417f59ede04e359548a542" target="_top" xlink:title="Absolute application&#45;level Public/Documents path.">
<polygon fill="white" stroke="none" points="1046,-75.5 844,-75.5 844,-56.25 1046,-56.25 1046,-75.5"/>
<text xml:space="preserve" text-anchor="middle" x="945" y="-61.05" font-family="Consolas" font-size="11.00">npi::app::appPublicDocumentsDir</text>
</a>
</g>
</g>
<!-- Node16&#45;&gt;Node17 -->
<g id="edge18_Node000016_Node000017" class="edge">
<title>Node16&#45;&gt;Node17</title>
<g id="a_edge18_Node000016_Node000017"><a xlink:title=" ">
<path fill="none" stroke="#63b8ff" d="M1076.29,-65.88C1066.14,-65.88 1055.86,-65.88 1045.76,-65.88"/>
<polygon fill="#63b8ff" stroke="#63b8ff" points="1081.04,-65.88 1076.04,-68.13 1079.76,-65.88 1076.04,-65.88 1076.04,-65.88 1076.04,-65.88 1079.76,-65.88 1076.04,-63.63 1081.04,-65.88"/>
</a>
</g>
</g>
<!-- Node17&#45;&gt;Node14 -->
<g id="edge19_Node000017_Node000014" class="edge">
<title>Node17&#45;&gt;Node14</title>
<g id="a_edge19_Node000017_Node000014"><a xlink:title=" ">
<path fill="none" stroke="#63b8ff" d="M880.61,-55.26C856.3,-51.2 828.07,-46.47 801.69,-42.06"/>
<polygon fill="#63b8ff" stroke="#63b8ff" points="885.5,-56.08 880.2,-57.48 884.24,-55.87 880.57,-55.26 880.57,-55.26 880.57,-55.26 884.24,-55.87 880.94,-53.04 885.5,-56.08"/>
</a>
</g>
</g>
</g>
</svg>

<g id="navigator" transform="translate(0 0)" fill="#404254">
  <rect fill="#f2f5e9" fill-opacity="0.5" stroke="#606060" stroke-width=".5" x="0" y="0" width="60" height="60"/>
  <use id="zoomplus" xlink:href="#zoomPlus" x="17" y="9" onmousedown="handleZoom(evt,'in')"/>
  <use id="zoomminus" xlink:href="#zoomMin" x="42" y="9" onmousedown="handleZoom(evt,'out')"/>
  <use id="reset" xlink:href="#resetDef" x="30" y="36" onmousedown="handleReset()"/>
   <use id="arrowup" xlink:href="#arrowUp" x="0" y="0" onmousedown="handlePan(0,-1)"/>
  <use id="arrowright" xlink:href="#arrowRight" x="0" y="0" onmousedown="handlePan(1,0)"/>
  <use id="arrowdown" xlink:href="#arrowDown" x="0" y="0" onmousedown="handlePan(0,1)"/>
  <use id="arrowleft" xlink:href="#arrowLeft" x="0" y="0" onmousedown="handlePan(-1,0)"/>
</g>
<svg viewBox="0 0 15 15" width="100%" height="30px" preserveAspectRatio="xMaxYMin meet">
 <g id="arrow_out" transform="scale(0.3 0.3)">
  <a xlink:href="namespaceanonymous__namespace_02_meta_paths_8cpp_03_a6b23c92ed8a542082d8cddde4bd55b47_icgraph_org.svg" target="_base">
   <rect id="button" ry="5" rx="5" y="6" x="6" height="38" width="38"
        fill="#f2f5e9" fill-opacity="0.5" stroke="#606060" stroke-width="1.0"/>
   <path id="arrow"
     d="M 11.500037,31.436501 C 11.940474,20.09759 22.043105,11.32322 32.158766,21.979434 L 37.068811,17.246167 C 37.068811,17.246167 37.088388,32 37.088388,32 L 22.160133,31.978069 C 22.160133,31.978069 26.997745,27.140456 26.997745,27.140456 C 18.528582,18.264221 13.291696,25.230495 11.500037,31.436501 z"
     style="fill:#404040;"/>
  </a>
 </g>
</svg>

<style type='text/css'>
<![CDATA[
[data-mouse-over-selected='false'] { opacity: 0.7; }
[data-mouse-over-selected='true']  { opacity: 1.0; }
]]>
</style>
<script type="application/ecmascript"><![CDATA[
document.addEventListener('DOMContentLoaded', (event) => {
  highlightEdges();
  highlightAdjacentNodes();
});
]]></script>
</svg>
