<?xml version="1.0" encoding="UTF-8" standalone="no"?>
<!DOCTYPE svg PUBLIC "-//W3C//DTD SVG 1.1//EN"
 "http://www.w3.org/Graphics/SVG/1.1/DTD/svg11.dtd">
<!-- Generated by graphviz version 14.0.0 (20250921.2048)
 -->
<!-- Title: anonymous_namespace{MetaPaths::cpp}::scheduleInit Pages: 1 -->
<svg width="1222pt" height="64pt"
 viewBox="0.00 0.00 1222.00 64.00" xmlns="http://www.w3.org/2000/svg" xmlns:xlink="http://www.w3.org/1999/xlink">
<g id="graph0" class="graph" transform="scale(1 1) rotate(0) translate(4 60.25)">
<title>anonymous_namespace{MetaPaths::cpp}::scheduleInit</title>
<!-- Node1 -->
<g id="Node000001" class="node">
<title>Node1</title>
<g id="a_Node000001"><a xlink:title="Schedules the initialization of application meta paths.">
<polygon fill="#999999" stroke="none" points="310,-37.25 0,-37.25 0,-18 310,-18 310,-37.25"/>
<text xml:space="preserve" text-anchor="start" x="8" y="-23.8" font-family="Consolas" font-weight="bold" font-size="11.00">anonymous_namespace{MetaPaths::cpp}::scheduleInit</text>
</a>
</g>
</g>
<!-- Node2 -->
<g id="Node000002" class="node">
<title>Node2</title>
<g id="a_Node000002"><a xlink:href="../../dc/dba/namespacenpi_1_1app.html#a40a2a28831f2f410c995f0657baf6544" target="_top" xlink:title="Absolute application&#45;level ProgramData path.">
<polygon fill="white" stroke="none" points="536,-56.25 358,-56.25 358,-37 536,-37 536,-56.25"/>
<text xml:space="preserve" text-anchor="middle" x="447" y="-41.8" font-family="Consolas" font-size="11.00">npi::app::appProgramDataDir</text>
</a>
</g>
</g>
<!-- Node1&#45;&gt;Node2 -->
<g id="edge1_Node000001_Node000002" class="edge">
<title>Node1&#45;&gt;Node2</title>
<g id="a_edge1_Node000001_Node000002"><a xlink:title=" ">
<path fill="none" stroke="#63b8ff" d="M302.7,-37.24C319.59,-38.34 336.45,-39.45 352.36,-40.49"/>
<polygon fill="#63b8ff" stroke="#63b8ff" points="356.97,-40.79 351.83,-42.71 355.69,-40.71 351.98,-40.46 351.98,-40.46 351.98,-40.46 355.69,-40.71 352.12,-38.22 356.97,-40.79"/>
</a>
</g>
</g>
<!-- Node6 -->
<g id="Node000006" class="node">
<title>Node6</title>
<g id="a_Node000006"><a xlink:href="../../dc/dba/namespacenpi_1_1app.html#aff4c7482e4417f59ede04e359548a542" target="_top" xlink:title="Absolute application&#45;level Public/Documents path.">
<polygon fill="white" stroke="none" points="548,-19.25 346,-19.25 346,0 548,0 548,-19.25"/>
<text xml:space="preserve" text-anchor="middle" x="447" y="-4.8" font-family="Consolas" font-size="11.00">npi::app::appPublicDocumentsDir</text>
</a>
</g>
</g>
<!-- Node1&#45;&gt;Node6 -->
<g id="edge5_Node000001_Node000006" class="edge">
<title>Node1&#45;&gt;Node6</title>
<g id="a_edge5_Node000001_Node000006"><a xlink:title=" ">
<path fill="none" stroke="#63b8ff" d="M309.92,-18.07C320.13,-17.44 330.29,-16.81 340.18,-16.19"/>
<polygon fill="#63b8ff" stroke="#63b8ff" points="345.09,-15.89 340.24,-18.44 343.81,-15.97 340.1,-16.2 340.1,-16.2 340.1,-16.2 343.81,-15.97 339.96,-13.95 345.09,-15.89"/>
</a>
</g>
</g>
<!-- Node3 -->
<g id="Node000003" class="node">
<title>Node3</title>
<g id="a_Node000003"><a xlink:href="../../dc/dba/namespacenpi_1_1app.html#a30836be8b9337a64733a6e05594b23c8" target="_top" xlink:title="Absolute organization&#45;level ProgramData path.">
<polygon fill="white" stroke="none" points="774,-56.25 596,-56.25 596,-37 774,-37 774,-56.25"/>
<text xml:space="preserve" text-anchor="middle" x="685" y="-41.8" font-family="Consolas" font-size="11.00">npi::app::orgProgramDataDir</text>
</a>
</g>
</g>
<!-- Node2&#45;&gt;Node3 -->
<g id="edge2_Node000002_Node000003" class="edge">
<title>Node2&#45;&gt;Node3</title>
<g id="a_edge2_Node000002_Node000003"><a xlink:title=" ">
<path fill="none" stroke="#63b8ff" d="M535.88,-46.62C553.54,-46.62 572.16,-46.62 590.02,-46.62"/>
<polygon fill="#63b8ff" stroke="#63b8ff" points="594.83,-46.63 589.83,-48.88 593.55,-46.63 589.83,-46.63 589.83,-46.63 589.83,-46.63 593.55,-46.63 589.83,-44.38 594.83,-46.63"/>
</a>
</g>
</g>
<!-- Node4 -->
<g id="Node000004" class="node">
<title>Node4</title>
<g id="a_Node000004"><a xlink:href="../../df/d40/namespaceanonymous__namespace_02_meta_paths_8cpp_03.html#a6b23c92ed8a542082d8cddde4bd55b47" target="_top" xlink:title="Resolve base path using Known Folder ID or environment variable fallback.">
<polygon fill="white" stroke="none" points="994,-42.88 822,-42.88 822,-12.38 994,-12.38 994,-42.88"/>
<text xml:space="preserve" text-anchor="start" x="830" y="-28.43" font-family="Consolas" font-size="11.00">anonymous_namespace</text>
<text xml:space="preserve" text-anchor="middle" x="908" y="-17.18" font-family="Consolas" font-size="11.00">{MetaPaths::cpp}::basePath</text>
</a>
</g>
</g>
<!-- Node3&#45;&gt;Node4 -->
<g id="edge3_Node000003_Node000004" class="edge">
<title>Node3&#45;&gt;Node4</title>
<g id="a_edge3_Node000003_Node000004"><a xlink:title=" ">
<path fill="none" stroke="#63b8ff" d="M773.98,-39.06C787.88,-37.87 802.28,-36.63 816.25,-35.43"/>
<polygon fill="#63b8ff" stroke="#63b8ff" points="820.99,-35.02 816.2,-37.69 819.71,-35.13 816.01,-35.45 816.01,-35.45 816.01,-35.45 819.71,-35.13 815.81,-33.21 820.99,-35.02"/>
</a>
</g>
</g>
<!-- Node5 -->
<g id="Node000005" class="node">
<title>Node5</title>
<g id="a_Node000005"><a xlink:href="../../dc/dba/namespacenpi_1_1app.html#a30b5245afa890e98f19f43c58f29e633" target="_top" xlink:title="Windows native fatal error message box.">
<polygon fill="white" stroke="none" points="1214,-37.25 1030,-37.25 1030,-18 1214,-18 1214,-37.25"/>
<text xml:space="preserve" text-anchor="middle" x="1122" y="-22.8" font-family="Consolas" font-size="11.00">npi::app::nativeFatalMessage</text>
</a>
</g>
</g>
<!-- Node4&#45;&gt;Node5 -->
<g id="edge4_Node000004_Node000005" class="edge">
<title>Node4&#45;&gt;Node5</title>
<g id="a_edge4_Node000004_Node000005"><a xlink:title=" ">
<path fill="none" stroke="#63b8ff" d="M993.7,-27.62C1003.73,-27.62 1014.02,-27.62 1024.2,-27.62"/>
<polygon fill="#63b8ff" stroke="#63b8ff" points="1028.96,-27.63 1023.96,-29.88 1027.68,-27.63 1023.96,-27.63 1023.96,-27.63 1023.96,-27.63 1027.68,-27.63 1023.96,-25.38 1028.96,-27.63"/>
</a>
</g>
</g>
<!-- Node7 -->
<g id="Node000007" class="node">
<title>Node7</title>
<g id="a_Node000007"><a xlink:href="../../dc/dba/namespacenpi_1_1app.html#ac0dca24602a75822c6f7fcf63f8781d9" target="_top" xlink:title="Absolute organization&#45;level Public/Documents path.">
<polygon fill="white" stroke="none" points="786,-19.25 584,-19.25 584,0 786,0 786,-19.25"/>
<text xml:space="preserve" text-anchor="middle" x="685" y="-4.8" font-family="Consolas" font-size="11.00">npi::app::orgPublicDocumentsDir</text>
</a>
</g>
</g>
<!-- Node6&#45;&gt;Node7 -->
<g id="edge6_Node000006_Node000007" class="edge">
<title>Node6&#45;&gt;Node7</title>
<g id="a_edge6_Node000006_Node000007"><a xlink:title=" ">
<path fill="none" stroke="#63b8ff" d="M547.74,-9.62C557.84,-9.62 568.12,-9.62 578.27,-9.62"/>
<polygon fill="#63b8ff" stroke="#63b8ff" points="583.02,-9.63 578.02,-11.88 581.74,-9.63 578.02,-9.63 578.02,-9.63 578.02,-9.63 581.74,-9.63 578.02,-7.38 583.02,-9.63"/>
</a>
</g>
</g>
<!-- Node7&#45;&gt;Node4 -->
<g id="edge7_Node000007_Node000004" class="edge">
<title>Node7&#45;&gt;Node4</title>
<g id="a_edge7_Node000007_Node000004"><a xlink:title=" ">
<path fill="none" stroke="#63b8ff" d="M785.83,-17.76C795.87,-18.57 806.03,-19.4 815.98,-20.21"/>
<polygon fill="#63b8ff" stroke="#63b8ff" points="820.92,-20.61 815.75,-22.45 819.64,-20.51 815.94,-20.21 815.94,-20.21 815.94,-20.21 819.64,-20.51 816.12,-17.97 820.92,-20.61"/>
</a>
</g>
</g>
</g>
</svg>
