<?xml version="1.0" encoding="UTF-8" standalone="no"?>
<!DOCTYPE svg PUBLIC "-//W3C//DTD SVG 1.1//EN"
 "http://www.w3.org/Graphics/SVG/1.1/DTD/svg11.dtd">
<!-- Generated by graphviz version 14.0.0 (20250921.2048)
 -->
<!-- Title: anonymous_namespace{MetaPaths::cpp}::createSubDir Pages: 1 -->
<svg width="794pt" height="122pt"
 viewBox="0.00 0.00 794.00 122.00" xmlns="http://www.w3.org/2000/svg" xmlns:xlink="http://www.w3.org/1999/xlink">
<g id="graph0" class="graph" transform="scale(1 1) rotate(0) translate(4 118.25)">
<title>anonymous_namespace{MetaPaths::cpp}::createSubDir</title>
<!-- Node1 -->
<g id="Node000001" class="node">
<title>Node1</title>
<g id="a_Node000001"><a xlink:title="Create subdirectory under base path.">
<polygon fill="#999999" stroke="none" points="786,-76.25 476,-76.25 476,-57 786,-57 786,-76.25"/>
<text xml:space="preserve" text-anchor="start" x="484" y="-62.8" font-family="Consolas" font-weight="bold" font-size="11.00">anonymous_namespace{MetaPaths::cpp}::createSubDir</text>
</a>
</g>
</g>
<!-- Node2 -->
<g id="Node000002" class="node">
<title>Node2</title>
<g id="a_Node000002"><a xlink:href="../../dc/dba/namespacenpi_1_1app.html#a40a2a28831f2f410c995f0657baf6544" target="_top" xlink:title="Absolute application&#45;level ProgramData path.">
<polygon fill="white" stroke="none" points="190,-114.25 12,-114.25 12,-95 190,-95 190,-114.25"/>
<text xml:space="preserve" text-anchor="middle" x="101" y="-99.8" font-family="Consolas" font-size="11.00">npi::app::appProgramDataDir</text>
</a>
</g>
</g>
<!-- Node1&#45;&gt;Node2 -->
<g id="edge1_Node000001_Node000002" class="edge">
<title>Node1&#45;&gt;Node2</title>
<g id="a_edge1_Node000001_Node000002"><a xlink:title=" ">
<path fill="none" stroke="#63b8ff" d="M587.22,-77.7C548.95,-87 491.16,-99.56 440,-104.62 355.33,-113.01 258.14,-111.9 189.77,-109.35"/>
<polygon fill="#63b8ff" stroke="#63b8ff" points="592.01,-76.53 587.69,-79.9 590.76,-76.83 587.15,-77.72 587.15,-77.72 587.15,-77.72 590.76,-76.83 586.62,-75.53 592.01,-76.53"/>
</a>
</g>
</g>
<!-- Node3 -->
<g id="Node000003" class="node">
<title>Node3</title>
<g id="a_Node000003"><a xlink:href="../../dc/dba/namespacenpi_1_1app.html#aff4c7482e4417f59ede04e359548a542" target="_top" xlink:title="Absolute application&#45;level Public/Documents path.">
<polygon fill="white" stroke="none" points="202,-38.25 0,-38.25 0,-19 202,-19 202,-38.25"/>
<text xml:space="preserve" text-anchor="middle" x="101" y="-23.8" font-family="Consolas" font-size="11.00">npi::app::appPublicDocumentsDir</text>
</a>
</g>
</g>
<!-- Node1&#45;&gt;Node3 -->
<g id="edge2_Node000001_Node000003" class="edge">
<title>Node1&#45;&gt;Node3</title>
<g id="a_edge2_Node000001_Node000003"><a xlink:title=" ">
<path fill="none" stroke="#63b8ff" d="M490.48,-56.58C399.64,-50.05 283.32,-41.67 201.73,-35.8"/>
<polygon fill="#63b8ff" stroke="#63b8ff" points="495.21,-56.92 490.06,-58.81 493.93,-56.83 490.22,-56.56 490.22,-56.56 490.22,-56.56 493.93,-56.83 490.38,-54.32 495.21,-56.92"/>
</a>
</g>
</g>
<!-- Node4 -->
<g id="Node000004" class="node">
<title>Node4</title>
<g id="a_Node000004"><a xlink:href="../../dc/dba/namespacenpi_1_1app.html#a30836be8b9337a64733a6e05594b23c8" target="_top" xlink:title="Absolute organization&#45;level ProgramData path.">
<polygon fill="white" stroke="none" points="428,-95.25 250,-95.25 250,-76 428,-76 428,-95.25"/>
<text xml:space="preserve" text-anchor="middle" x="339" y="-80.8" font-family="Consolas" font-size="11.00">npi::app::orgProgramDataDir</text>
</a>
</g>
</g>
<!-- Node1&#45;&gt;Node4 -->
<g id="edge3_Node000001_Node000004" class="edge">
<title>Node1&#45;&gt;Node4</title>
<g id="a_edge3_Node000001_Node000004"><a xlink:title=" ">
<path fill="none" stroke="#63b8ff" d="M477.52,-76.61C460.5,-77.73 443.62,-78.84 427.82,-79.87"/>
<polygon fill="#63b8ff" stroke="#63b8ff" points="482.08,-76.32 477.24,-78.89 480.81,-76.4 477.1,-76.64 477.1,-76.64 477.1,-76.64 480.81,-76.4 476.95,-74.4 482.08,-76.32"/>
</a>
</g>
</g>
<!-- Node5 -->
<g id="Node000005" class="node">
<title>Node5</title>
<g id="a_Node000005"><a xlink:href="../../dc/dba/namespacenpi_1_1app.html#ac0dca24602a75822c6f7fcf63f8781d9" target="_top" xlink:title="Absolute organization&#45;level Public/Documents path.">
<polygon fill="white" stroke="none" points="440,-19.25 238,-19.25 238,0 440,0 440,-19.25"/>
<text xml:space="preserve" text-anchor="middle" x="339" y="-4.8" font-family="Consolas" font-size="11.00">npi::app::orgPublicDocumentsDir</text>
</a>
</g>
</g>
<!-- Node1&#45;&gt;Node5 -->
<g id="edge5_Node000001_Node000005" class="edge">
<title>Node1&#45;&gt;Node5</title>
<g id="a_edge5_Node000001_Node000005"><a xlink:title=" ">
<path fill="none" stroke="#63b8ff" d="M575.04,-55.82C521.24,-45.25 440.08,-29.3 388.58,-19.17"/>
<polygon fill="#63b8ff" stroke="#63b8ff" points="579.94,-56.79 574.6,-58.03 578.68,-56.54 575.03,-55.82 575.03,-55.82 575.03,-55.82 578.68,-56.54 575.47,-53.61 579.94,-56.79"/>
</a>
</g>
</g>
<!-- Node4&#45;&gt;Node2 -->
<g id="edge4_Node000004_Node000002" class="edge">
<title>Node4&#45;&gt;Node2</title>
<g id="a_edge4_Node000004_Node000002"><a xlink:title=" ">
<path fill="none" stroke="#63b8ff" d="M244.1,-93.18C226.24,-94.62 207.61,-96.12 189.95,-97.54"/>
<polygon fill="#63b8ff" stroke="#63b8ff" points="248.91,-92.8 244.1,-95.44 247.63,-92.9 243.92,-93.2 243.92,-93.2 243.92,-93.2 247.63,-92.9 243.74,-90.96 248.91,-92.8"/>
</a>
</g>
</g>
<!-- Node5&#45;&gt;Node3 -->
<g id="edge6_Node000005_Node000003" class="edge">
<title>Node5&#45;&gt;Node3</title>
<g id="a_edge6_Node000005_Node000003"><a xlink:title=" ">
<path fill="none" stroke="#63b8ff" d="M232.29,-18.14C222.14,-18.95 211.86,-19.78 201.76,-20.59"/>
<polygon fill="#63b8ff" stroke="#63b8ff" points="237.04,-17.75 232.24,-20.4 235.76,-17.86 232.06,-18.15 232.06,-18.15 232.06,-18.15 235.76,-17.86 231.88,-15.91 237.04,-17.75"/>
</a>
</g>
</g>
</g>
</svg>
