<?xml version="1.0" encoding="UTF-8" standalone="no"?>
<!DOCTYPE svg PUBLIC "-//W3C//DTD SVG 1.1//EN"
 "http://www.w3.org/Graphics/SVG/1.1/DTD/svg11.dtd">
<!-- Generated by graphviz version 14.0.0 (20250921.2048)
 -->
<!-- Title: anonymous_namespace{MetaPaths::cpp}::aScheduleInit Pages: 1 -->
<svg width="1258pt" height="119pt"
 viewBox="0.00 0.00 1258.00 119.00" xmlns="http://www.w3.org/2000/svg" xmlns:xlink="http://www.w3.org/1999/xlink">
<g id="graph0" class="graph" transform="scale(1 1) rotate(0) translate(4 115.23)">
<title>anonymous_namespace{MetaPaths::cpp}::aScheduleInit</title>
<!-- Node1 -->
<g id="Node000001" class="node">
<title>Node1</title>
<g id="a_Node000001"><a xlink:title="Schedules the initialization of application meta paths.">
<polygon fill="#999999" stroke="none" points="316,-76.25 0,-76.25 0,-57 316,-57 316,-76.25"/>
<text xml:space="preserve" text-anchor="start" x="8" y="-62.8" font-family="Consolas" font-weight="bold" font-size="11.00">anonymous_namespace{MetaPaths::cpp}::aScheduleInit</text>
</a>
</g>
</g>
<!-- Node2 -->
<g id="Node000002" class="node">
<title>Node2</title>
<g id="a_Node000002"><a xlink:href="../../dc/dba/namespacenpi_1_1app.html#a40a2a28831f2f410c995f0657baf6544" target="_top" xlink:title="Absolute application&#45;level ProgramData path.">
<polygon fill="white" stroke="none" points="542,-95.25 364,-95.25 364,-76 542,-76 542,-95.25"/>
<text xml:space="preserve" text-anchor="middle" x="453" y="-80.8" font-family="Consolas" font-size="11.00">npi::app::appProgramDataDir</text>
</a>
</g>
</g>
<!-- Node1&#45;&gt;Node2 -->
<g id="edge1_Node000001_Node000002" class="edge">
<title>Node1&#45;&gt;Node2</title>
<g id="a_edge1_Node000001_Node000002"><a xlink:title=" ">
<path fill="none" stroke="#63b8ff" d="M307.22,-76.24C324.54,-77.36 341.82,-78.48 358.11,-79.54"/>
<polygon fill="#63b8ff" stroke="#63b8ff" points="362.85,-79.84 357.71,-81.77 361.57,-79.76 357.86,-79.52 357.86,-79.52 357.86,-79.52 361.57,-79.76 358,-77.27 362.85,-79.84"/>
</a>
</g>
</g>
<!-- Node7 -->
<g id="Node000007" class="node">
<title>Node7</title>
<g id="a_Node000007"><a xlink:href="../../dc/dba/namespacenpi_1_1app.html#aff4c7482e4417f59ede04e359548a542" target="_top" xlink:title="Absolute application&#45;level Public/Documents path.">
<polygon fill="white" stroke="none" points="554,-57.25 352,-57.25 352,-38 554,-38 554,-57.25"/>
<text xml:space="preserve" text-anchor="middle" x="453" y="-42.8" font-family="Consolas" font-size="11.00">npi::app::appPublicDocumentsDir</text>
</a>
</g>
</g>
<!-- Node1&#45;&gt;Node7 -->
<g id="edge8_Node000001_Node000007" class="edge">
<title>Node1&#45;&gt;Node7</title>
<g id="a_edge8_Node000001_Node000007"><a xlink:title=" ">
<path fill="none" stroke="#63b8ff" d="M307.22,-57.01C320.27,-56.17 333.3,-55.32 345.9,-54.5"/>
<polygon fill="#63b8ff" stroke="#63b8ff" points="350.84,-54.19 345.99,-56.75 349.56,-54.27 345.85,-54.51 345.85,-54.51 345.85,-54.51 349.56,-54.27 345.7,-52.26 350.84,-54.19"/>
</a>
</g>
</g>
<!-- Node3 -->
<g id="Node000003" class="node">
<title>Node3</title>
<g id="a_Node000003"><a xlink:href="../../df/d40/namespaceanonymous__namespace_02_meta_paths_8cpp_03.html#a1554aad28987c554d0ff1c379ce0567e" target="_top" xlink:title="Create subdirectory under base path.">
<polygon fill="white" stroke="none" points="1030,-86.88 828,-86.88 828,-56.38 1030,-56.38 1030,-86.88"/>
<text xml:space="preserve" text-anchor="start" x="836" y="-72.42" font-family="Consolas" font-size="11.00">anonymous_namespace</text>
<text xml:space="preserve" text-anchor="middle" x="929" y="-61.17" font-family="Consolas" font-size="11.00">{MetaPaths::cpp}::aCreateSubDir</text>
</a>
</g>
</g>
<!-- Node2&#45;&gt;Node3 -->
<g id="edge2_Node000002_Node000003" class="edge">
<title>Node2&#45;&gt;Node3</title>
<g id="a_edge2_Node000002_Node000003"><a xlink:title=" ">
<path fill="none" stroke="#63b8ff" d="M510.06,-95.24C534.53,-98.97 563.6,-102.79 590,-104.62 679.56,-110.85 702.86,-115.29 792,-104.62 818.69,-101.43 847.71,-94.84 872.06,-88.38"/>
<polygon fill="#63b8ff" stroke="#63b8ff" points="876.65,-87.14 872.4,-90.61 875.41,-87.47 871.82,-88.44 871.82,-88.44 871.82,-88.44 875.41,-87.47 871.24,-86.27 876.65,-87.14"/>
</a>
</g>
</g>
<!-- Node5 -->
<g id="Node000005" class="node">
<title>Node5</title>
<g id="a_Node000005"><a xlink:href="../../dc/dba/namespacenpi_1_1app.html#a30836be8b9337a64733a6e05594b23c8" target="_top" xlink:title="Absolute organization&#45;level ProgramData path.">
<polygon fill="white" stroke="none" points="780,-95.25 602,-95.25 602,-76 780,-76 780,-95.25"/>
<text xml:space="preserve" text-anchor="middle" x="691" y="-80.8" font-family="Consolas" font-size="11.00">npi::app::orgProgramDataDir</text>
</a>
</g>
</g>
<!-- Node2&#45;&gt;Node5 -->
<g id="edge4_Node000002_Node000005" class="edge">
<title>Node2&#45;&gt;Node5</title>
<g id="a_edge4_Node000002_Node000005"><a xlink:title=" ">
<path fill="none" stroke="#63b8ff" d="M541.88,-85.62C559.54,-85.62 578.16,-85.62 596.02,-85.62"/>
<polygon fill="#63b8ff" stroke="#63b8ff" points="600.83,-85.63 595.83,-87.88 599.55,-85.63 595.83,-85.63 595.83,-85.63 595.83,-85.63 599.55,-85.63 595.83,-83.38 600.83,-85.63"/>
</a>
</g>
</g>
<!-- Node4 -->
<g id="Node000004" class="node">
<title>Node4</title>
<g id="a_Node000004"><a xlink:href="../../dc/dba/namespacenpi_1_1app.html#a30b5245afa890e98f19f43c58f29e633" target="_top" xlink:title="Windows native fatal error message box.">
<polygon fill="white" stroke="none" points="1250,-56.25 1066,-56.25 1066,-37 1250,-37 1250,-56.25"/>
<text xml:space="preserve" text-anchor="middle" x="1158" y="-41.8" font-family="Consolas" font-size="11.00">npi::app::nativeFatalMessage</text>
</a>
</g>
</g>
<!-- Node3&#45;&gt;Node4 -->
<g id="edge3_Node000003_Node000004" class="edge">
<title>Node3&#45;&gt;Node4</title>
<g id="a_edge3_Node000003_Node000004"><a xlink:title=" ">
<path fill="none" stroke="#63b8ff" d="M1029.9,-60.62C1041.14,-59.39 1052.56,-58.13 1063.71,-56.9"/>
<polygon fill="#63b8ff" stroke="#63b8ff" points="1068.66,-56.35 1063.94,-59.14 1067.39,-56.49 1063.69,-56.9 1063.69,-56.9 1063.69,-56.9 1067.39,-56.49 1063.45,-54.66 1068.66,-56.35"/>
</a>
</g>
</g>
<!-- Node5&#45;&gt;Node3 -->
<g id="edge7_Node000005_Node000003" class="edge">
<title>Node5&#45;&gt;Node3</title>
<g id="a_edge7_Node000005_Node000003"><a xlink:title=" ">
<path fill="none" stroke="#63b8ff" d="M779.88,-80.41C793.64,-79.6 807.98,-78.74 822.1,-77.91"/>
<polygon fill="#63b8ff" stroke="#63b8ff" points="826.91,-77.62 822.05,-80.16 825.63,-77.7 821.92,-77.92 821.92,-77.92 821.92,-77.92 825.63,-77.7 821.79,-75.67 826.91,-77.62"/>
</a>
</g>
</g>
<!-- Node6 -->
<g id="Node000006" class="node">
<title>Node6</title>
<g id="a_Node000006"><a xlink:href="../../df/d40/namespaceanonymous__namespace_02_meta_paths_8cpp_03.html#a1ba3938f670cc7526df2081bf6f6c0ce" target="_top" xlink:title="Resolve base path using Known Folder ID or environment variable fallback.">
<polygon fill="white" stroke="none" points="1018,-37.88 840,-37.88 840,-7.38 1018,-7.38 1018,-37.88"/>
<text xml:space="preserve" text-anchor="start" x="848" y="-23.43" font-family="Consolas" font-size="11.00">anonymous_namespace</text>
<text xml:space="preserve" text-anchor="middle" x="929" y="-12.18" font-family="Consolas" font-size="11.00">{MetaPaths::cpp}::aBasePath</text>
</a>
</g>
</g>
<!-- Node5&#45;&gt;Node6 -->
<g id="edge5_Node000005_Node000006" class="edge">
<title>Node5&#45;&gt;Node6</title>
<g id="a_edge5_Node000005_Node000006"><a xlink:title=" ">
<path fill="none" stroke="#63b8ff" d="M725.19,-76.08C752.68,-68.23 792.81,-56.94 828,-47.62 838.36,-44.88 849.35,-42.05 860.11,-39.33"/>
<polygon fill="#63b8ff" stroke="#63b8ff" points="864.87,-38.13 860.57,-41.53 863.63,-38.44 860.02,-39.35 860.02,-39.35 860.02,-39.35 863.63,-38.44 859.47,-37.17 864.87,-38.13"/>
</a>
</g>
</g>
<!-- Node6&#45;&gt;Node4 -->
<g id="edge6_Node000006_Node000004" class="edge">
<title>Node6&#45;&gt;Node4</title>
<g id="a_edge6_Node000006_Node000004"><a xlink:title=" ">
<path fill="none" stroke="#63b8ff" d="M1017.76,-31.9C1031.63,-33.37 1046.03,-34.89 1060.09,-36.38"/>
<polygon fill="#63b8ff" stroke="#63b8ff" points="1064.88,-36.89 1059.67,-38.6 1063.61,-36.75 1059.91,-36.36 1059.91,-36.36 1059.91,-36.36 1063.61,-36.75 1060.14,-34.12 1064.88,-36.89"/>
</a>
</g>
</g>
<!-- Node7&#45;&gt;Node3 -->
<g id="edge9_Node000007_Node000003" class="edge">
<title>Node7&#45;&gt;Node3</title>
<g id="a_edge9_Node000007_Node000003"><a xlink:title=" ">
<path fill="none" stroke="#63b8ff" d="M553.94,-52.69C632.57,-56.67 741.85,-62.2 821.99,-66.26"/>
<polygon fill="#63b8ff" stroke="#63b8ff" points="826.98,-66.51 821.87,-68.5 825.7,-66.45 821.98,-66.26 821.98,-66.26 821.98,-66.26 825.7,-66.45 822.1,-64.01 826.98,-66.51"/>
</a>
</g>
</g>
<!-- Node8 -->
<g id="Node000008" class="node">
<title>Node8</title>
<g id="a_Node000008"><a xlink:href="../../dc/dba/namespacenpi_1_1app.html#ac0dca24602a75822c6f7fcf63f8781d9" target="_top" xlink:title="Absolute organization&#45;level Public/Documents path.">
<polygon fill="white" stroke="none" points="792,-19.25 590,-19.25 590,0 792,0 792,-19.25"/>
<text xml:space="preserve" text-anchor="middle" x="691" y="-4.8" font-family="Consolas" font-size="11.00">npi::app::orgPublicDocumentsDir</text>
</a>
</g>
</g>
<!-- Node7&#45;&gt;Node8 -->
<g id="edge10_Node000007_Node000008" class="edge">
<title>Node7&#45;&gt;Node8</title>
<g id="a_edge10_Node000007_Node000008"><a xlink:title=" ">
<path fill="none" stroke="#63b8ff" d="M513.55,-38.04C547.37,-32.59 589.76,-25.77 624.51,-20.17"/>
<polygon fill="#63b8ff" stroke="#63b8ff" points="629.26,-19.4 624.68,-22.42 628,-19.61 624.33,-20.2 624.33,-20.2 624.33,-20.2 628,-19.61 623.97,-17.98 629.26,-19.4"/>
</a>
</g>
</g>
<!-- Node8&#45;&gt;Node3 -->
<g id="edge12_Node000008_Node000003" class="edge">
<title>Node8&#45;&gt;Node3</title>
<g id="a_edge12_Node000008_Node000003"><a xlink:title=" ">
<path fill="none" stroke="#63b8ff" d="M736.59,-19.21C753.99,-23.24 774.04,-28.25 792,-33.62 808.3,-38.51 811.73,-41.67 828,-46.62 837.44,-49.5 847.46,-52.3 857.37,-54.92"/>
<polygon fill="#63b8ff" stroke="#63b8ff" points="862,-56.13 856.6,-57.04 860.76,-55.81 857.17,-54.87 857.17,-54.87 857.17,-54.87 860.76,-55.81 857.74,-52.69 862,-56.13"/>
</a>
</g>
</g>
<!-- Node8&#45;&gt;Node6 -->
<g id="edge11_Node000008_Node000006" class="edge">
<title>Node8&#45;&gt;Node6</title>
<g id="a_edge11_Node000008_Node000006"><a xlink:title=" ">
<path fill="none" stroke="#63b8ff" d="M791.74,-15.12C805.83,-15.9 820.28,-16.69 834.25,-17.46"/>
<polygon fill="#63b8ff" stroke="#63b8ff" points="838.99,-17.72 833.87,-19.69 837.71,-17.65 834,-17.45 834,-17.45 834,-17.45 837.71,-17.65 834.12,-15.2 838.99,-17.72"/>
</a>
</g>
</g>
</g>
</svg>
