<?xml version="1.0" encoding="UTF-8" standalone="no"?>
<!DOCTYPE svg PUBLIC "-//W3C//DTD SVG 1.1//EN"
 "http://www.w3.org/Graphics/SVG/1.1/DTD/svg11.dtd">
<!-- Generated by graphviz version 14.0.0 (20250921.2048)
 -->
<!-- Title: anonymous_namespace{MetaPaths::cpp}::basePath Pages: 1 -->
<svg width="770pt" height="64pt"
 viewBox="0.00 0.00 770.00 64.00" xmlns="http://www.w3.org/2000/svg" xmlns:xlink="http://www.w3.org/1999/xlink">
<g id="graph0" class="graph" transform="scale(1 1) rotate(0) translate(4 60.25)">
<title>anonymous_namespace{MetaPaths::cpp}::basePath</title>
<!-- Node1 -->
<g id="Node000001" class="node">
<title>Node1</title>
<g id="a_Node000001"><a xlink:title="Resolve base path using Known Folder ID or environment variable fallback.">
<polygon fill="#999999" stroke="none" points="762,-37.25 476,-37.25 476,-18 762,-18 762,-37.25"/>
<text xml:space="preserve" text-anchor="start" x="484" y="-23.8" font-family="Consolas" font-weight="bold" font-size="11.00">anonymous_namespace{MetaPaths::cpp}::basePath</text>
</a>
</g>
</g>
<!-- Node2 -->
<g id="Node000002" class="node">
<title>Node2</title>
<g id="a_Node000002"><a xlink:href="../../dc/dba/namespacenpi_1_1app.html#a30836be8b9337a64733a6e05594b23c8" target="_top" xlink:title="Absolute organization&#45;level ProgramData path.">
<polygon fill="white" stroke="none" points="428,-56.25 250,-56.25 250,-37 428,-37 428,-56.25"/>
<text xml:space="preserve" text-anchor="middle" x="339" y="-41.8" font-family="Consolas" font-size="11.00">npi::app::orgProgramDataDir</text>
</a>
</g>
</g>
<!-- Node1&#45;&gt;Node2 -->
<g id="edge1_Node000001_Node000002" class="edge">
<title>Node1&#45;&gt;Node2</title>
<g id="a_edge1_Node000001_Node000002"><a xlink:title=" ">
<path fill="none" stroke="#63b8ff" d="M471.46,-37.64C456.61,-38.66 441.89,-39.66 427.95,-40.61"/>
<polygon fill="#63b8ff" stroke="#63b8ff" points="476.16,-37.32 471.32,-39.91 474.88,-37.41 471.17,-37.66 471.17,-37.66 471.17,-37.66 474.88,-37.41 471.01,-35.42 476.16,-37.32"/>
</a>
</g>
</g>
<!-- Node4 -->
<g id="Node000004" class="node">
<title>Node4</title>
<g id="a_Node000004"><a xlink:href="../../dc/dba/namespacenpi_1_1app.html#ac0dca24602a75822c6f7fcf63f8781d9" target="_top" xlink:title="Absolute organization&#45;level Public/Documents path.">
<polygon fill="white" stroke="none" points="440,-19.25 238,-19.25 238,0 440,0 440,-19.25"/>
<text xml:space="preserve" text-anchor="middle" x="339" y="-4.8" font-family="Consolas" font-size="11.00">npi::app::orgPublicDocumentsDir</text>
</a>
</g>
</g>
<!-- Node1&#45;&gt;Node4 -->
<g id="edge3_Node000001_Node000004" class="edge">
<title>Node1&#45;&gt;Node4</title>
<g id="a_edge3_Node000001_Node000004"><a xlink:title=" ">
<path fill="none" stroke="#63b8ff" d="M470.09,-18.05C459.81,-17.38 449.6,-16.72 439.68,-16.08"/>
<polygon fill="#63b8ff" stroke="#63b8ff" points="474.93,-18.36 469.8,-20.28 473.65,-18.28 469.94,-18.04 469.94,-18.04 469.94,-18.04 473.65,-18.28 470.09,-15.79 474.93,-18.36"/>
</a>
</g>
</g>
<!-- Node3 -->
<g id="Node000003" class="node">
<title>Node3</title>
<g id="a_Node000003"><a xlink:href="../../dc/dba/namespacenpi_1_1app.html#a40a2a28831f2f410c995f0657baf6544" target="_top" xlink:title="Absolute application&#45;level ProgramData path.">
<polygon fill="white" stroke="none" points="190,-56.25 12,-56.25 12,-37 190,-37 190,-56.25"/>
<text xml:space="preserve" text-anchor="middle" x="101" y="-41.8" font-family="Consolas" font-size="11.00">npi::app::appProgramDataDir</text>
</a>
</g>
</g>
<!-- Node2&#45;&gt;Node3 -->
<g id="edge2_Node000002_Node000003" class="edge">
<title>Node2&#45;&gt;Node3</title>
<g id="a_edge2_Node000002_Node000003"><a xlink:title=" ">
<path fill="none" stroke="#63b8ff" d="M244.1,-46.62C226.24,-46.62 207.61,-46.62 189.95,-46.62"/>
<polygon fill="#63b8ff" stroke="#63b8ff" points="248.9,-46.63 243.9,-48.88 247.62,-46.63 243.9,-46.63 243.9,-46.63 243.9,-46.63 247.62,-46.63 243.9,-44.38 248.9,-46.63"/>
</a>
</g>
</g>
<!-- Node5 -->
<g id="Node000005" class="node">
<title>Node5</title>
<g id="a_Node000005"><a xlink:href="../../dc/dba/namespacenpi_1_1app.html#aff4c7482e4417f59ede04e359548a542" target="_top" xlink:title="Absolute application&#45;level Public/Documents path.">
<polygon fill="white" stroke="none" points="202,-19.25 0,-19.25 0,0 202,0 202,-19.25"/>
<text xml:space="preserve" text-anchor="middle" x="101" y="-4.8" font-family="Consolas" font-size="11.00">npi::app::appPublicDocumentsDir</text>
</a>
</g>
</g>
<!-- Node4&#45;&gt;Node5 -->
<g id="edge4_Node000004_Node000005" class="edge">
<title>Node4&#45;&gt;Node5</title>
<g id="a_edge4_Node000004_Node000005"><a xlink:title=" ">
<path fill="none" stroke="#63b8ff" d="M232.29,-9.62C222.14,-9.62 211.86,-9.62 201.76,-9.62"/>
<polygon fill="#63b8ff" stroke="#63b8ff" points="237.04,-9.63 232.04,-11.88 235.76,-9.63 232.04,-9.63 232.04,-9.63 232.04,-9.63 235.76,-9.63 232.04,-7.38 237.04,-9.63"/>
</a>
</g>
</g>
</g>
</svg>
