<?xml version="1.0" encoding="UTF-8" standalone="no"?>
<!DOCTYPE svg PUBLIC "-//W3C//DTD SVG 1.1//EN"
 "http://www.w3.org/Graphics/SVG/1.1/DTD/svg11.dtd">
<!-- Generated by graphviz version 14.0.0 (20250921.2048)
 -->
<!-- Title: anonymous_namespace{MetaPaths::cpp}::basePath Pages: 1 -->
<svg width="1388pt" height="350pt"
 viewBox="0.00 0.00 1388.00 350.00" xmlns="http://www.w3.org/2000/svg" xmlns:xlink="http://www.w3.org/1999/xlink">
<g id="graph0" class="graph" transform="scale(1 1) rotate(0) translate(4 345.75)">
<title>anonymous_namespace{MetaPaths::cpp}::basePath</title>
<!-- Node1 -->
<g id="Node000001" class="node">
<title>Node1</title>
<g id="a_Node000001"><a xlink:title="Resolve base path using Known Folder ID or environment variable fallback.">
<polygon fill="#999999" stroke="none" points="1380,-93.5 1094,-93.5 1094,-74.25 1380,-74.25 1380,-93.5"/>
<text xml:space="preserve" text-anchor="start" x="1102" y="-80.05" font-family="Consolas" font-weight="bold" font-size="11.00">anonymous_namespace{MetaPaths::cpp}::basePath</text>
</a>
</g>
</g>
<!-- Node2 -->
<g id="Node000002" class="node">
<title>Node2</title>
<g id="a_Node000002"><a xlink:href="../../dc/dba/namespacenpi_1_1app.html#a30836be8b9337a64733a6e05594b23c8" target="_top" xlink:title="Absolute organization&#45;level ProgramData path.">
<polygon fill="white" stroke="none" points="1046,-112.5 868,-112.5 868,-93.25 1046,-93.25 1046,-112.5"/>
<text xml:space="preserve" text-anchor="middle" x="957" y="-98.05" font-family="Consolas" font-size="11.00">npi::app::orgProgramDataDir</text>
</a>
</g>
</g>
<!-- Node1&#45;&gt;Node2 -->
<g id="edge1_Node000001_Node000002" class="edge">
<title>Node1&#45;&gt;Node2</title>
<g id="a_edge1_Node000001_Node000002"><a xlink:title=" ">
<path fill="none" stroke="#63b8ff" d="M1089.46,-93.89C1074.61,-94.91 1059.89,-95.91 1045.95,-96.86"/>
<polygon fill="#63b8ff" stroke="#63b8ff" points="1094.16,-93.57 1089.32,-96.16 1092.88,-93.66 1089.17,-93.91 1089.17,-93.91 1089.17,-93.91 1092.88,-93.66 1089.01,-91.67 1094.16,-93.57"/>
</a>
</g>
</g>
<!-- Node15 -->
<g id="Node000015" class="node">
<title>Node15</title>
<g id="a_Node000015"><a xlink:href="../../dc/dba/namespacenpi_1_1app.html#ac0dca24602a75822c6f7fcf63f8781d9" target="_top" xlink:title="Absolute organization&#45;level Public/Documents path.">
<polygon fill="white" stroke="none" points="1058,-75.5 856,-75.5 856,-56.25 1058,-56.25 1058,-75.5"/>
<text xml:space="preserve" text-anchor="middle" x="957" y="-61.05" font-family="Consolas" font-size="11.00">npi::app::orgPublicDocumentsDir</text>
</a>
</g>
</g>
<!-- Node1&#45;&gt;Node15 -->
<g id="edge16_Node000001_Node000015" class="edge">
<title>Node1&#45;&gt;Node15</title>
<g id="a_edge16_Node000001_Node000015"><a xlink:title=" ">
<path fill="none" stroke="#63b8ff" d="M1088.09,-74.3C1077.81,-73.63 1067.6,-72.97 1057.68,-72.33"/>
<polygon fill="#63b8ff" stroke="#63b8ff" points="1092.93,-74.61 1087.8,-76.53 1091.65,-74.53 1087.94,-74.29 1087.94,-74.29 1087.94,-74.29 1091.65,-74.53 1088.09,-72.04 1092.93,-74.61"/>
</a>
</g>
</g>
<!-- Node3 -->
<g id="Node000003" class="node">
<title>Node3</title>
<g id="a_Node000003"><a xlink:href="../../dc/dba/namespacenpi_1_1app.html#a40a2a28831f2f410c995f0657baf6544" target="_top" xlink:title="Absolute application&#45;level ProgramData path.">
<polygon fill="white" stroke="none" points="808,-150.5 630,-150.5 630,-131.25 808,-131.25 808,-150.5"/>
<text xml:space="preserve" text-anchor="middle" x="719" y="-136.05" font-family="Consolas" font-size="11.00">npi::app::appProgramDataDir</text>
</a>
</g>
</g>
<!-- Node2&#45;&gt;Node3 -->
<g id="edge2_Node000002_Node000003" class="edge">
<title>Node2&#45;&gt;Node3</title>
<g id="a_edge2_Node000002_Node000003"><a xlink:title=" ">
<path fill="none" stroke="#63b8ff" d="M890.49,-113.42C855.74,-119.02 813.35,-125.84 779.53,-131.29"/>
<polygon fill="#63b8ff" stroke="#63b8ff" points="895.24,-112.66 890.67,-115.67 893.98,-112.86 890.31,-113.45 890.31,-113.45 890.31,-113.45 893.98,-112.86 889.95,-111.23 895.24,-112.66"/>
</a>
</g>
</g>
<!-- Node4 -->
<g id="Node000004" class="node">
<title>Node4</title>
<g id="a_Node000004"><a xlink:href="../../d0/d61/classanonymous__namespace_02_log_8cpp_03_1_1_log_core.html#aec0c49d654f69ba240eded5dee4bbc8b" target="_top" xlink:title=" ">
<polygon fill="white" stroke="none" points="549,-341.75 419,-341.75 419,-300 549,-300 549,-341.75"/>
<text xml:space="preserve" text-anchor="start" x="427" y="-327.3" font-family="Consolas" font-size="11.00">anonymous_namespace</text>
<text xml:space="preserve" text-anchor="start" x="427" y="-316.05" font-family="Consolas" font-size="11.00">{Log::cpp}::LogCore</text>
<text xml:space="preserve" text-anchor="middle" x="484" y="-304.8" font-family="Consolas" font-size="11.00">::getFutureDir_</text>
</a>
</g>
</g>
<!-- Node3&#45;&gt;Node4 -->
<g id="edge3_Node000003_Node000004" class="edge">
<title>Node3&#45;&gt;Node4</title>
<g id="a_edge3_Node000003_Node000004"><a xlink:title=" ">
<path fill="none" stroke="#63b8ff" d="M708.89,-155.29C689.34,-185.07 640.34,-253.72 582,-290.88 571.89,-297.31 560.31,-302.45 548.75,-306.52"/>
<polygon fill="#63b8ff" stroke="#63b8ff" points="711.53,-151.22 710.7,-156.64 710.84,-152.29 708.81,-155.41 708.81,-155.41 708.81,-155.41 710.84,-152.29 706.92,-154.19 711.53,-151.22"/>
</a>
</g>
</g>
<!-- Node5 -->
<g id="Node000005" class="node">
<title>Node5</title>
<g id="a_Node000005"><a xlink:href="../../d0/d61/classanonymous__namespace_02_log_8cpp_03_1_1_log_core.html#a953bdf43ab1e0d48f1225fe1dcccfbd4" target="_top" xlink:title=" ">
<polygon fill="white" stroke="none" points="555,-281.75 413,-281.75 413,-240 555,-240 555,-281.75"/>
<text xml:space="preserve" text-anchor="start" x="421" y="-267.3" font-family="Consolas" font-size="11.00">anonymous_namespace</text>
<text xml:space="preserve" text-anchor="start" x="421" y="-256.05" font-family="Consolas" font-size="11.00">{Log::cpp}::LogCore</text>
<text xml:space="preserve" text-anchor="middle" x="484" y="-244.8" font-family="Consolas" font-size="11.00">::getMaxFolderSizeMb_</text>
</a>
</g>
</g>
<!-- Node3&#45;&gt;Node5 -->
<g id="edge4_Node000003_Node000005" class="edge">
<title>Node3&#45;&gt;Node5</title>
<g id="a_edge4_Node000003_Node000005"><a xlink:title=" ">
<path fill="none" stroke="#63b8ff" d="M701.72,-153.9C677.09,-173.06 628.3,-208.95 582,-230.88 573.4,-234.95 564.11,-238.64 554.8,-241.93"/>
<polygon fill="#63b8ff" stroke="#63b8ff" points="705.36,-151.05 702.81,-155.9 704.35,-151.84 701.42,-154.13 701.42,-154.13 701.42,-154.13 704.35,-151.84 700.03,-152.36 705.36,-151.05"/>
</a>
</g>
</g>
<!-- Node6 -->
<g id="Node000006" class="node">
<title>Node6</title>
<g id="a_Node000006"><a xlink:href="../../d0/d61/classanonymous__namespace_02_log_8cpp_03_1_1_log_core.html#af4273441409e88d841adc86974b49c75" target="_top" xlink:title=" ">
<polygon fill="white" stroke="none" points="555,-221.75 413,-221.75 413,-180 555,-180 555,-221.75"/>
<text xml:space="preserve" text-anchor="start" x="421" y="-207.3" font-family="Consolas" font-size="11.00">anonymous_namespace</text>
<text xml:space="preserve" text-anchor="start" x="421" y="-196.05" font-family="Consolas" font-size="11.00">{Log::cpp}::LogCore</text>
<text xml:space="preserve" text-anchor="middle" x="484" y="-184.8" font-family="Consolas" font-size="11.00">::getStartupSettings_</text>
</a>
</g>
</g>
<!-- Node3&#45;&gt;Node6 -->
<g id="edge5_Node000003_Node000006" class="edge">
<title>Node3&#45;&gt;Node6</title>
<g id="a_edge5_Node000003_Node000006"><a xlink:title=" ">
<path fill="none" stroke="#63b8ff" d="M675.13,-151.91C641.51,-160.57 594.02,-172.8 554.92,-182.87"/>
<polygon fill="#63b8ff" stroke="#63b8ff" points="679.64,-150.75 675.36,-154.18 678.4,-151.07 674.8,-152 674.8,-152 674.8,-152 678.4,-151.07 674.24,-149.82 679.64,-150.75"/>
</a>
</g>
</g>
<!-- Node8 -->
<g id="Node000008" class="node">
<title>Node8</title>
<g id="a_Node000008"><a xlink:href="../../d0/d61/classanonymous__namespace_02_log_8cpp_03_1_1_log_core.html#a5fa684811c33eea49f63593fea332de4" target="_top" xlink:title=" ">
<polygon fill="white" stroke="none" points="549,-101.75 419,-101.75 419,-60 549,-60 549,-101.75"/>
<text xml:space="preserve" text-anchor="start" x="427" y="-87.3" font-family="Consolas" font-size="11.00">anonymous_namespace</text>
<text xml:space="preserve" text-anchor="start" x="427" y="-76.05" font-family="Consolas" font-size="11.00">{Log::cpp}::LogCore</text>
<text xml:space="preserve" text-anchor="middle" x="484" y="-64.8" font-family="Consolas" font-size="11.00">::saveSettings_</text>
</a>
</g>
</g>
<!-- Node3&#45;&gt;Node8 -->
<g id="edge7_Node000003_Node000008" class="edge">
<title>Node3&#45;&gt;Node8</title>
<g id="a_edge7_Node000003_Node000008"><a xlink:title=" ">
<path fill="none" stroke="#63b8ff" d="M674.84,-129.76C639.48,-120.65 588.91,-107.63 548.86,-97.32"/>
<polygon fill="#63b8ff" stroke="#63b8ff" points="679.64,-131 674.24,-131.93 678.4,-130.68 674.8,-129.75 674.8,-129.75 674.8,-129.75 678.4,-130.68 675.36,-127.57 679.64,-131"/>
</a>
</g>
</g>
<!-- Node13 -->
<g id="Node000013" class="node">
<title>Node13</title>
<g id="a_Node000013"><a xlink:href="../../df/d40/namespaceanonymous__namespace_02_meta_paths_8cpp_03.html#a71f0c349fdc17bb538a0b720816e7bcd" target="_top" xlink:title="Schedules the initialization of application meta paths.">
<polygon fill="white" stroke="none" points="582,-42.12 386,-42.12 386,-11.63 582,-11.63 582,-42.12"/>
<text xml:space="preserve" text-anchor="start" x="394" y="-27.68" font-family="Consolas" font-size="11.00">anonymous_namespace</text>
<text xml:space="preserve" text-anchor="middle" x="484" y="-16.43" font-family="Consolas" font-size="11.00">{MetaPaths::cpp}::scheduleInit</text>
</a>
</g>
</g>
<!-- Node3&#45;&gt;Node13 -->
<g id="edge13_Node000003_Node000013" class="edge">
<title>Node3&#45;&gt;Node13</title>
<g id="a_edge13_Node000003_Node000013"><a xlink:title=" ">
<path fill="none" stroke="#63b8ff" d="M692.21,-128.65C671.36,-118.26 641.7,-102.29 618,-84.88 600.26,-71.84 601.32,-61.42 582,-50.88 575.83,-47.51 569.19,-44.61 562.37,-42.11"/>
<polygon fill="#63b8ff" stroke="#63b8ff" points="696.48,-130.76 691,-130.56 695.33,-130.19 692,-128.55 692,-128.55 692,-128.55 695.33,-130.19 692.99,-126.53 696.48,-130.76"/>
</a>
</g>
</g>
<!-- Node14 -->
<g id="Node000014" class="node">
<title>Node14</title>
<g id="a_Node000014"><a xlink:href="../../d0/d61/classanonymous__namespace_02_log_8cpp_03_1_1_log_core.html#a78f2c370e9ec632af877fe1dd49ef478" target="_top" xlink:title=" ">
<polygon fill="white" stroke="none" points="555,-161.75 413,-161.75 413,-120 555,-120 555,-161.75"/>
<text xml:space="preserve" text-anchor="start" x="421" y="-147.3" font-family="Consolas" font-size="11.00">anonymous_namespace</text>
<text xml:space="preserve" text-anchor="start" x="421" y="-136.05" font-family="Consolas" font-size="11.00">{Log::cpp}::LogCore</text>
<text xml:space="preserve" text-anchor="middle" x="484" y="-124.8" font-family="Consolas" font-size="11.00">::startImpLogProcess_</text>
</a>
</g>
</g>
<!-- Node3&#45;&gt;Node14 -->
<g id="edge14_Node000003_Node000014" class="edge">
<title>Node3&#45;&gt;Node14</title>
<g id="a_edge14_Node000003_Node000014"><a xlink:title=" ">
<path fill="none" stroke="#63b8ff" d="M624.08,-140.88C600.98,-140.88 576.64,-140.88 554.89,-140.88"/>
<polygon fill="#63b8ff" stroke="#63b8ff" points="629.03,-140.88 624.03,-143.13 627.74,-140.88 624.03,-140.88 624.03,-140.88 624.03,-140.88 627.74,-140.88 624.03,-138.63 629.03,-140.88"/>
</a>
</g>
</g>
<!-- Node7 -->
<g id="Node000007" class="node">
<title>Node7</title>
<g id="a_Node000007"><a xlink:href="../../d0/d61/classanonymous__namespace_02_log_8cpp_03_1_1_log_core.html#ac81e3393bfb7545e17c9fd8ea4cb4aa6" target="_top" xlink:title=" ">
<polygon fill="white" stroke="none" points="347,-161.75 217,-161.75 217,-120 347,-120 347,-161.75"/>
<text xml:space="preserve" text-anchor="start" x="225" y="-147.3" font-family="Consolas" font-size="11.00">anonymous_namespace</text>
<text xml:space="preserve" text-anchor="start" x="225" y="-136.05" font-family="Consolas" font-size="11.00">{Log::cpp}::LogCore</text>
<text xml:space="preserve" text-anchor="middle" x="282" y="-124.8" font-family="Consolas" font-size="11.00">::LogCore</text>
</a>
</g>
</g>
<!-- Node6&#45;&gt;Node7 -->
<g id="edge6_Node000006_Node000007" class="edge">
<title>Node6&#45;&gt;Node7</title>
<g id="a_edge6_Node000006_Node000007"><a xlink:title=" ">
<path fill="none" stroke="#63b8ff" d="M407.72,-178.29C387.7,-172.28 366.26,-165.85 346.9,-160.04"/>
<polygon fill="#63b8ff" stroke="#63b8ff" points="412.44,-179.71 407.01,-180.43 411.22,-179.34 407.65,-178.27 407.65,-178.27 407.65,-178.27 411.22,-179.34 408.3,-176.12 412.44,-179.71"/>
</a>
</g>
</g>
<!-- Node8&#45;&gt;Node7 -->
<g id="edge8_Node000008_Node000007" class="edge">
<title>Node8&#45;&gt;Node7</title>
<g id="a_edge8_Node000008_Node000007"><a xlink:title=" ">
<path fill="none" stroke="#63b8ff" d="M413.43,-101.75C391.82,-108.23 368.12,-115.34 346.91,-121.7"/>
<polygon fill="#63b8ff" stroke="#63b8ff" points="418,-100.37 413.86,-103.97 416.77,-100.74 413.21,-101.81 413.21,-101.81 413.21,-101.81 416.77,-100.74 412.57,-99.66 418,-100.37"/>
</a>
</g>
</g>
<!-- Node9 -->
<g id="Node000009" class="node">
<title>Node9</title>
<g id="a_Node000009"><a xlink:href="../../d0/d61/classanonymous__namespace_02_log_8cpp_03_1_1_log_core.html#a18c3c555110a16327bd67014b95739eb" target="_top" xlink:title=" ">
<polygon fill="white" stroke="none" points="350,-101.75 214,-101.75 214,-60 350,-60 350,-101.75"/>
<text xml:space="preserve" text-anchor="start" x="222" y="-87.3" font-family="Consolas" font-size="11.00">anonymous_namespace</text>
<text xml:space="preserve" text-anchor="start" x="222" y="-76.05" font-family="Consolas" font-size="11.00">{Log::cpp}::LogCore</text>
<text xml:space="preserve" text-anchor="middle" x="282" y="-64.8" font-family="Consolas" font-size="11.00">::setColoredConsole_</text>
</a>
</g>
</g>
<!-- Node8&#45;&gt;Node9 -->
<g id="edge9_Node000008_Node000009" class="edge">
<title>Node8&#45;&gt;Node9</title>
<g id="a_edge9_Node000008_Node000009"><a xlink:title=" ">
<path fill="none" stroke="#63b8ff" d="M413.13,-80.88C392.53,-80.88 370.06,-80.88 349.67,-80.88"/>
<polygon fill="#63b8ff" stroke="#63b8ff" points="417.95,-80.88 412.95,-83.13 416.67,-80.88 412.95,-80.88 412.95,-80.88 412.95,-80.88 416.67,-80.88 412.95,-78.63 417.95,-80.88"/>
</a>
</g>
</g>
<!-- Node11 -->
<g id="Node000011" class="node">
<title>Node11</title>
<g id="a_Node000011"><a xlink:href="../../d0/d61/classanonymous__namespace_02_log_8cpp_03_1_1_log_core.html#a59eebbde2d3d36263a0d7a96e595573b" target="_top" xlink:title=" ">
<polygon fill="white" stroke="none" points="347,-41.75 217,-41.75 217,0 347,0 347,-41.75"/>
<text xml:space="preserve" text-anchor="start" x="225" y="-27.3" font-family="Consolas" font-size="11.00">anonymous_namespace</text>
<text xml:space="preserve" text-anchor="start" x="225" y="-16.05" font-family="Consolas" font-size="11.00">{Log::cpp}::LogCore</text>
<text xml:space="preserve" text-anchor="middle" x="282" y="-4.8" font-family="Consolas" font-size="11.00">::setWarnIsImp_</text>
</a>
</g>
</g>
<!-- Node8&#45;&gt;Node11 -->
<g id="edge11_Node000008_Node000011" class="edge">
<title>Node8&#45;&gt;Node11</title>
<g id="a_edge11_Node000008_Node000011"><a xlink:title=" ">
<path fill="none" stroke="#63b8ff" d="M413.43,-60C391.82,-53.52 368.12,-46.41 346.91,-40.05"/>
<polygon fill="#63b8ff" stroke="#63b8ff" points="418,-61.38 412.57,-62.09 416.77,-61.01 413.21,-59.94 413.21,-59.94 413.21,-59.94 416.77,-61.01 413.86,-57.78 418,-61.38"/>
</a>
</g>
</g>
<!-- Node10 -->
<g id="Node000010" class="node">
<title>Node10</title>
<g id="a_Node000010"><a xlink:href="../../d5/ddd/namespacenpi_1_1log.html#aa9c7f1de08a88a0dcac316127c1d384b" target="_top" xlink:title=" ">
<polygon fill="white" stroke="none" points="178,-90.5 0,-90.5 0,-71.25 178,-71.25 178,-90.5"/>
<text xml:space="preserve" text-anchor="middle" x="89" y="-76.05" font-family="Consolas" font-size="11.00">npi::log::setColoredConsole</text>
</a>
</g>
</g>
<!-- Node9&#45;&gt;Node10 -->
<g id="edge10_Node000009_Node000010" class="edge">
<title>Node9&#45;&gt;Node10</title>
<g id="a_edge10_Node000009_Node000010"><a xlink:title=" ">
<path fill="none" stroke="#63b8ff" d="M208.1,-80.88C198.23,-80.88 188.01,-80.88 177.91,-80.88"/>
<polygon fill="#63b8ff" stroke="#63b8ff" points="212.98,-80.88 207.98,-83.13 211.7,-80.88 207.98,-80.88 207.98,-80.88 207.98,-80.88 211.7,-80.88 207.98,-78.63 212.98,-80.88"/>
</a>
</g>
</g>
<!-- Node12 -->
<g id="Node000012" class="node">
<title>Node12</title>
<g id="a_Node000012"><a xlink:href="../../d5/ddd/namespacenpi_1_1log.html#a9be9faae3670cc6af86285afecfb3e58" target="_top" xlink:title=" ">
<polygon fill="white" stroke="none" points="172,-30.5 6,-30.5 6,-11.25 172,-11.25 172,-30.5"/>
<text xml:space="preserve" text-anchor="middle" x="89" y="-16.05" font-family="Consolas" font-size="11.00">npi::log::setWarnAsImpLog</text>
</a>
</g>
</g>
<!-- Node11&#45;&gt;Node12 -->
<g id="edge12_Node000011_Node000012" class="edge">
<title>Node11&#45;&gt;Node12</title>
<g id="a_edge12_Node000011_Node000012"><a xlink:title=" ">
<path fill="none" stroke="#63b8ff" d="M210.94,-20.88C198.21,-20.88 184.84,-20.88 171.81,-20.88"/>
<polygon fill="#63b8ff" stroke="#63b8ff" points="215.92,-20.88 210.92,-23.13 214.63,-20.88 210.92,-20.88 210.92,-20.88 210.92,-20.88 214.63,-20.88 210.92,-18.63 215.92,-20.88"/>
</a>
</g>
</g>
<!-- Node14&#45;&gt;Node7 -->
<g id="edge15_Node000014_Node000007" class="edge">
<title>Node14&#45;&gt;Node7</title>
<g id="a_edge15_Node000014_Node000007"><a xlink:title=" ">
<path fill="none" stroke="#63b8ff" d="M406.95,-140.88C387.14,-140.88 366,-140.88 346.89,-140.88"/>
<polygon fill="#63b8ff" stroke="#63b8ff" points="411.83,-140.88 406.83,-143.13 410.55,-140.88 406.83,-140.88 406.83,-140.88 406.83,-140.88 410.55,-140.88 406.83,-138.63 411.83,-140.88"/>
</a>
</g>
</g>
<!-- Node16 -->
<g id="Node000016" class="node">
<title>Node16</title>
<g id="a_Node000016"><a xlink:href="../../dc/dba/namespacenpi_1_1app.html#aff4c7482e4417f59ede04e359548a542" target="_top" xlink:title="Absolute application&#45;level Public/Documents path.">
<polygon fill="white" stroke="none" points="820,-75.5 618,-75.5 618,-56.25 820,-56.25 820,-75.5"/>
<text xml:space="preserve" text-anchor="middle" x="719" y="-61.05" font-family="Consolas" font-size="11.00">npi::app::appPublicDocumentsDir</text>
</a>
</g>
</g>
<!-- Node15&#45;&gt;Node16 -->
<g id="edge17_Node000015_Node000016" class="edge">
<title>Node15&#45;&gt;Node16</title>
<g id="a_edge17_Node000015_Node000016"><a xlink:title=" ">
<path fill="none" stroke="#63b8ff" d="M850.29,-65.88C840.14,-65.88 829.86,-65.88 819.76,-65.88"/>
<polygon fill="#63b8ff" stroke="#63b8ff" points="855.04,-65.88 850.04,-68.13 853.76,-65.88 850.04,-65.88 850.04,-65.88 850.04,-65.88 853.76,-65.88 850.04,-63.63 855.04,-65.88"/>
</a>
</g>
</g>
<!-- Node16&#45;&gt;Node13 -->
<g id="edge18_Node000016_Node000013" class="edge">
<title>Node16&#45;&gt;Node13</title>
<g id="a_edge18_Node000016_Node000013"><a xlink:title=" ">
<path fill="none" stroke="#63b8ff" d="M654.61,-55.26C630.3,-51.2 602.07,-46.47 575.69,-42.06"/>
<polygon fill="#63b8ff" stroke="#63b8ff" points="659.5,-56.08 654.2,-57.48 658.24,-55.87 654.57,-55.26 654.57,-55.26 654.57,-55.26 658.24,-55.87 654.94,-53.04 659.5,-56.08"/>
</a>
</g>
</g>
</g>
</svg>
