<?xml version="1.0" encoding="UTF-8" standalone="no"?>
<!DOCTYPE svg PUBLIC "-//W3C//DTD SVG 1.1//EN"
 "http://www.w3.org/Graphics/SVG/1.1/DTD/svg11.dtd">
<!-- Generated by graphviz version 14.0.0 (20250921.2048)
 -->
<!-- Title: anonymous_namespace{Log::cpp}::ALogger::fileNamePrefix_ Pages: 1 -->
<svg width="722pt" height="110pt"
 viewBox="0.00 0.00 722.00 110.00" xmlns="http://www.w3.org/2000/svg" xmlns:xlink="http://www.w3.org/1999/xlink">
<g id="graph0" class="graph" transform="scale(1 1) rotate(0) translate(4 105.75)">
<title>anonymous_namespace{Log::cpp}::ALogger::fileNamePrefix_</title>
<!-- Node1 -->
<g id="Node000001" class="node">
<title>Node1</title>
<g id="a_Node000001"><a xlink:title=" ">
<polygon fill="#999999" stroke="none" points="714,-60.5 368,-60.5 368,-41.25 714,-41.25 714,-60.5"/>
<text xml:space="preserve" text-anchor="start" x="376" y="-47.05" font-family="Consolas" font-weight="bold" font-size="11.00">anonymous_namespace{Log::cpp}::ALogger::fileNamePrefix_</text>
</a>
</g>
</g>
<!-- Node2 -->
<g id="Node000002" class="node">
<title>Node2</title>
<g id="a_Node000002"><a xlink:href="../../df/d72/classanonymous__namespace_02_log_8cpp_03_1_1_a_logger.html#ade79be97b82ac1cc816b85254426ac83" target="_top" xlink:title=" ">
<polygon fill="white" stroke="none" points="332,-101.75 202,-101.75 202,-60 332,-60 332,-101.75"/>
<text xml:space="preserve" text-anchor="start" x="210" y="-87.3" font-family="Consolas" font-size="11.00">anonymous_namespace</text>
<text xml:space="preserve" text-anchor="start" x="210" y="-76.05" font-family="Consolas" font-size="11.00">{Log::cpp}::ALogger</text>
<text xml:space="preserve" text-anchor="middle" x="267" y="-64.8" font-family="Consolas" font-size="11.00">::ALogger</text>
</a>
</g>
</g>
<!-- Node1&#45;&gt;Node2 -->
<g id="edge1_Node000001_Node000002" class="edge">
<title>Node1&#45;&gt;Node2</title>
<g id="a_edge1_Node000001_Node000002"><a xlink:title=" ">
<path fill="none" stroke="#63b8ff" d="M446.78,-61.16C408.9,-65.33 366.08,-70.06 331.85,-73.83"/>
<polygon fill="#63b8ff" stroke="#63b8ff" points="451.6,-60.62 446.88,-63.41 450.33,-60.77 446.63,-61.17 446.63,-61.17 446.63,-61.17 450.33,-60.77 446.39,-58.94 451.6,-60.62"/>
</a>
</g>
</g>
<!-- Node4 -->
<g id="Node000004" class="node">
<title>Node4</title>
<g id="a_Node000004"><a xlink:href="../../df/d72/classanonymous__namespace_02_log_8cpp_03_1_1_a_logger.html#a4343fc556cde1739182adfb44e5fb42e" target="_top" xlink:title=" ">
<polygon fill="white" stroke="none" points="332,-41.75 202,-41.75 202,0 332,0 332,-41.75"/>
<text xml:space="preserve" text-anchor="start" x="210" y="-27.3" font-family="Consolas" font-size="11.00">anonymous_namespace</text>
<text xml:space="preserve" text-anchor="start" x="210" y="-16.05" font-family="Consolas" font-size="11.00">{Log::cpp}::ALogger</text>
<text xml:space="preserve" text-anchor="middle" x="267" y="-4.8" font-family="Consolas" font-size="11.00">::~ALogger</text>
</a>
</g>
</g>
<!-- Node1&#45;&gt;Node4 -->
<g id="edge3_Node000001_Node000004" class="edge">
<title>Node1&#45;&gt;Node4</title>
<g id="a_edge3_Node000001_Node000004"><a xlink:title=" ">
<path fill="none" stroke="#63b8ff" d="M446.78,-40.59C408.9,-36.42 366.08,-31.69 331.85,-27.92"/>
<polygon fill="#63b8ff" stroke="#63b8ff" points="451.6,-41.13 446.39,-42.81 450.33,-40.98 446.63,-40.58 446.63,-40.58 446.63,-40.58 450.33,-40.98 446.88,-38.34 451.6,-41.13"/>
</a>
</g>
</g>
<!-- Node3 -->
<g id="Node000003" class="node">
<title>Node3</title>
<g id="a_Node000003"><a xlink:href="../../dc/d8e/namespaceanonymous__namespace_02_log_8cpp_03.html#a474bf1d9b97572fbc7245fa612f19a5d" target="_top" xlink:title=" ">
<polygon fill="white" stroke="none" points="166,-96.12 0,-96.12 0,-65.62 166,-65.62 166,-96.12"/>
<text xml:space="preserve" text-anchor="start" x="8" y="-81.67" font-family="Consolas" font-size="11.00">anonymous_namespace</text>
<text xml:space="preserve" text-anchor="middle" x="83" y="-70.42" font-family="Consolas" font-size="11.00">{Log::cpp}::aScheduleInit</text>
</a>
</g>
</g>
<!-- Node2&#45;&gt;Node3 -->
<g id="edge2_Node000002_Node000003" class="edge">
<title>Node2&#45;&gt;Node3</title>
<g id="a_edge2_Node000002_Node000003"><a xlink:title=" ">
<path fill="none" stroke="#63b8ff" d="M196.02,-80.88C186.18,-80.88 176,-80.88 165.97,-80.88"/>
<polygon fill="#63b8ff" stroke="#63b8ff" points="200.87,-80.88 195.87,-83.13 199.59,-80.88 195.87,-80.88 195.87,-80.88 195.87,-80.88 199.59,-80.88 195.87,-78.63 200.87,-80.88"/>
</a>
</g>
</g>
</g>
</svg>
