<?xml version="1.0" encoding="UTF-8" standalone="no"?>
<!DOCTYPE svg PUBLIC "-//W3C//DTD SVG 1.1//EN"
 "http://www.w3.org/Graphics/SVG/1.1/DTD/svg11.dtd">
<!-- Generated by graphviz version 14.0.0 (20250921.2048)
 -->
<!-- Title: anonymous_namespace{Log::cpp}::safe::appendChr Pages: 1 -->
<svg width="526pt" height="57pt"
 viewBox="0.00 0.00 526.00 57.00" xmlns="http://www.w3.org/2000/svg" xmlns:xlink="http://www.w3.org/1999/xlink">
<g id="graph0" class="graph" transform="scale(1 1) rotate(0) translate(4 52.5)">
<title>anonymous_namespace{Log::cpp}::safe::appendChr</title>
<!-- Node1 -->
<g id="Node000001" class="node">
<title>Node1</title>
<g id="a_Node000001"><a xlink:title=" ">
<polygon fill="#999999" stroke="none" points="292,-24.88 0,-24.88 0,-5.62 292,-5.62 292,-24.88"/>
<text xml:space="preserve" text-anchor="start" x="8" y="-11.43" font-family="Consolas" font-weight="bold" font-size="11.00">anonymous_namespace{Log::cpp}::safe::appendChr</text>
</a>
</g>
</g>
<!-- Node1&#45;&gt;Node1 -->
<g id="edge1_Node000001_Node000001" class="edge">
<title>Node1&#45;&gt;Node1</title>
<g id="a_edge1_Node000001_Node000001"><a xlink:title=" ">
<path fill="none" stroke="#63b8ff" d="M103.65,-24.73C82.38,-33.46 96.5,-42.88 146,-42.88 190.48,-42.88 206.39,-35.28 193.73,-27.4"/>
<polygon fill="#63b8ff" stroke="#63b8ff" points="189.44,-25.27 194.92,-25.48 190.59,-25.84 193.92,-27.5 193.92,-27.5 193.92,-27.5 190.59,-25.84 192.92,-29.51 189.44,-25.27"/>
</a>
</g>
</g>
<!-- Node2 -->
<g id="Node000002" class="node">
<title>Node2</title>
<g id="a_Node000002"><a xlink:href="../../dd/df2/namespaceanonymous__namespace_02_log_8cpp_03_1_1safe.html#a1e4219749cab61533a6faf773fe7cddb" target="_top" xlink:title=" ">
<polygon fill="white" stroke="none" points="518,-30.5 328,-30.5 328,0 518,0 518,-30.5"/>
<text xml:space="preserve" text-anchor="start" x="336" y="-16.05" font-family="Consolas" font-size="11.00">anonymous_namespace</text>
<text xml:space="preserve" text-anchor="middle" x="423" y="-4.8" font-family="Consolas" font-size="11.00">{Log::cpp}::safe::isSpaceChar</text>
</a>
</g>
</g>
<!-- Node1&#45;&gt;Node2 -->
<g id="edge2_Node000001_Node000002" class="edge">
<title>Node1&#45;&gt;Node2</title>
<g id="a_edge2_Node000001_Node000002"><a xlink:title=" ">
<path fill="none" stroke="#63b8ff" d="M291.75,-15.25C302.04,-15.25 312.27,-15.25 322.22,-15.25"/>
<polygon fill="#63b8ff" stroke="#63b8ff" points="327.15,-15.25 322.15,-17.5 325.87,-15.25 322.15,-15.25 322.15,-15.25 322.15,-15.25 325.87,-15.25 322.15,-13 327.15,-15.25"/>
</a>
</g>
</g>
<!-- Node2&#45;&gt;Node2 -->
<g id="edge3_Node000002_Node000002" class="edge">
<title>Node2&#45;&gt;Node2</title>
<g id="a_edge3_Node000002_Node000002"><a xlink:title=" ">
<path fill="none" stroke="#63b8ff" d="M374.73,-30.3C363.09,-39.62 379.18,-48.5 423,-48.5 459.29,-48.5 476.56,-42.41 474.82,-35.02"/>
<polygon fill="#63b8ff" stroke="#63b8ff" points="472,-31.27 476.8,-33.92 472.77,-32.3 475,-35.27 475,-35.27 475,-35.27 472.77,-32.3 473.2,-36.62 472,-31.27"/>
</a>
</g>
</g>
</g>
</svg>
