<?xml version="1.0" encoding="UTF-8" standalone="no"?>
<!DOCTYPE svg PUBLIC "-//W3C//DTD SVG 1.1//EN"
 "http://www.w3.org/Graphics/SVG/1.1/DTD/svg11.dtd">
<!-- Generated by graphviz version 14.0.0 (20250921.2048)
 -->
<!-- Title: anonymous_namespace{Log::cpp}::safe::reraiseDefault Pages: 1 -->
<svg width="562pt" height="57pt"
 viewBox="0.00 0.00 562.00 57.00" xmlns="http://www.w3.org/2000/svg" xmlns:xlink="http://www.w3.org/1999/xlink">
<g id="graph0" class="graph" transform="scale(1 1) rotate(0) translate(4 52.5)">
<title>anonymous_namespace{Log::cpp}::safe::reraiseDefault</title>
<!-- Node1 -->
<g id="Node000001" class="node">
<title>Node1</title>
<g id="a_Node000001"><a xlink:title=" ">
<polygon fill="#999999" stroke="none" points="322,-24.88 0,-24.88 0,-5.62 322,-5.62 322,-24.88"/>
<text xml:space="preserve" text-anchor="start" x="8" y="-11.43" font-family="Consolas" font-weight="bold" font-size="11.00">anonymous_namespace{Log::cpp}::safe::reraiseDefault</text>
</a>
</g>
</g>
<!-- Node1&#45;&gt;Node1 -->
<g id="edge3_Node000001_Node000001" class="edge">
<title>Node1&#45;&gt;Node1</title>
<g id="a_edge3_Node000001_Node000001"><a xlink:title=" ">
<path fill="none" stroke="#63b8ff" d="M115.9,-24.73C93.25,-33.46 108.28,-42.88 161,-42.88 208.78,-42.88 225.6,-35.15 211.48,-27.2"/>
<polygon fill="#63b8ff" stroke="#63b8ff" points="207.21,-25.24 212.69,-25.28 208.37,-25.78 211.75,-27.32 211.75,-27.32 211.75,-27.32 208.37,-25.78 210.82,-29.37 207.21,-25.24"/>
</a>
</g>
</g>
<!-- Node2 -->
<g id="Node000002" class="node">
<title>Node2</title>
<g id="a_Node000002"><a xlink:href="../../dd/df2/namespaceanonymous__namespace_02_log_8cpp_03_1_1safe.html#aee2abc51c02c7af63c137ba0ea58c71a" target="_top" xlink:title=" ">
<polygon fill="white" stroke="none" points="554,-30.5 358,-30.5 358,0 554,0 554,-30.5"/>
<text xml:space="preserve" text-anchor="start" x="366" y="-16.05" font-family="Consolas" font-size="11.00">anonymous_namespace</text>
<text xml:space="preserve" text-anchor="middle" x="456" y="-4.8" font-family="Consolas" font-size="11.00">{Log::cpp}::safe::hardFailFast</text>
</a>
</g>
</g>
<!-- Node1&#45;&gt;Node2 -->
<g id="edge1_Node000001_Node000002" class="edge">
<title>Node1&#45;&gt;Node2</title>
<g id="a_edge1_Node000001_Node000002"><a xlink:title=" ">
<path fill="none" stroke="#63b8ff" d="M321.79,-15.25C331.99,-15.25 342.11,-15.25 351.94,-15.25"/>
<polygon fill="#63b8ff" stroke="#63b8ff" points="356.8,-15.25 351.8,-17.5 355.52,-15.25 351.8,-15.25 351.8,-15.25 351.8,-15.25 355.52,-15.25 351.8,-13 356.8,-15.25"/>
</a>
</g>
</g>
<!-- Node2&#45;&gt;Node2 -->
<g id="edge2_Node000002_Node000002" class="edge">
<title>Node2&#45;&gt;Node2</title>
<g id="a_edge2_Node000002_Node000002"><a xlink:title=" ">
<path fill="none" stroke="#63b8ff" d="M404.59,-30.3C392.19,-39.62 409.33,-48.5 456,-48.5 494.65,-48.5 513.04,-42.41 511.18,-35.02"/>
<polygon fill="#63b8ff" stroke="#63b8ff" points="508.17,-31.25 513.05,-33.75 508.97,-32.25 511.29,-35.16 511.29,-35.16 511.29,-35.16 508.97,-32.25 509.53,-36.56 508.17,-31.25"/>
</a>
</g>
</g>
</g>
</svg>
