<?xml version="1.0" encoding="UTF-8" standalone="no"?>
<!DOCTYPE svg PUBLIC "-//W3C//DTD SVG 1.1//EN"
 "http://www.w3.org/Graphics/SVG/1.1/DTD/svg11.dtd">
<!-- Generated by graphviz version 14.0.0 (20250921.2048)
 -->
<!-- Title: anonymous_namespace{Log::cpp}::safe::invalidParamHandler Pages: 1 -->
<svg width="782pt" height="68pt"
 viewBox="0.00 0.00 782.00 68.00" xmlns="http://www.w3.org/2000/svg" xmlns:xlink="http://www.w3.org/1999/xlink">
<g id="graph0" class="graph" transform="scale(1 1) rotate(0) translate(4 63.75)">
<title>anonymous_namespace{Log::cpp}::safe::invalidParamHandler</title>
<!-- Node1 -->
<g id="Node000001" class="node">
<title>Node1</title>
<g id="a_Node000001"><a xlink:title=" ">
<polygon fill="#999999" stroke="none" points="774,-30.5 422,-30.5 422,-11.25 774,-11.25 774,-30.5"/>
<text xml:space="preserve" text-anchor="start" x="430" y="-17.05" font-family="Consolas" font-weight="bold" font-size="11.00">anonymous_namespace{Log::cpp}::safe::invalidParamHandler</text>
</a>
</g>
</g>
<!-- Node1&#45;&gt;Node1 -->
<g id="edge4_Node000001_Node000001" class="edge">
<title>Node1&#45;&gt;Node1</title>
<g id="a_edge4_Node000001_Node000001"><a xlink:title=" ">
<path fill="none" stroke="#63b8ff" d="M651.04,-32.82C665.89,-40.77 648.21,-48.5 598,-48.5 542.6,-48.5 526.8,-39.09 550.61,-30.36"/>
<polygon fill="#63b8ff" stroke="#63b8ff" points="646.51,-30.85 651.99,-30.78 647.68,-31.36 651.09,-32.84 651.09,-32.84 651.09,-32.84 647.68,-31.36 650.19,-34.91 646.51,-30.85"/>
</a>
</g>
</g>
<!-- Node2 -->
<g id="Node000002" class="node">
<title>Node2</title>
<g id="a_Node000002"><a xlink:href="../../dd/df2/namespaceanonymous__namespace_02_log_8cpp_03_1_1safe.html#a5383dc98204ed88af64a0de8fb17de7f" target="_top" xlink:title=" ">
<polygon fill="white" stroke="none" points="386,-41.75 190,-41.75 190,0 386,0 386,-41.75"/>
<text xml:space="preserve" text-anchor="start" x="198" y="-27.3" font-family="Consolas" font-size="11.00">anonymous_namespace</text>
<text xml:space="preserve" text-anchor="start" x="198" y="-16.05" font-family="Consolas" font-size="11.00">{Log::cpp}::safe::installCrash</text>
<text xml:space="preserve" text-anchor="middle" x="288" y="-4.8" font-family="Consolas" font-size="11.00">Handlers</text>
</a>
</g>
</g>
<!-- Node1&#45;&gt;Node2 -->
<g id="edge1_Node000001_Node000002" class="edge">
<title>Node1&#45;&gt;Node2</title>
<g id="a_edge1_Node000001_Node000002"><a xlink:title=" ">
<path fill="none" stroke="#63b8ff" d="M416.17,-20.88C405.79,-20.88 395.57,-20.88 385.72,-20.88"/>
<polygon fill="#63b8ff" stroke="#63b8ff" points="421.08,-20.88 416.08,-23.13 419.8,-20.88 416.08,-20.88 416.08,-20.88 416.08,-20.88 419.8,-20.88 416.08,-18.63 421.08,-20.88"/>
</a>
</g>
</g>
<!-- Node2&#45;&gt;Node2 -->
<g id="edge3_Node000002_Node000002" class="edge">
<title>Node2&#45;&gt;Node2</title>
<g id="a_edge3_Node000002_Node000002"><a xlink:title=" ">
<path fill="none" stroke="#63b8ff" d="M327.09,-47.75C324.53,-54.61 311.5,-59.75 288,-59.75 257.92,-59.75 244.99,-51.32 249.22,-41.67"/>
<polygon fill="#63b8ff" stroke="#63b8ff" points="326.84,-42.89 329.35,-47.77 326.91,-44.17 327.1,-47.88 327.1,-47.88 327.1,-47.88 326.91,-44.17 324.85,-48 326.84,-42.89"/>
</a>
</g>
</g>
<!-- Node3 -->
<g id="Node000003" class="node">
<title>Node3</title>
<g id="a_Node000003"><a xlink:href="../../dc/d8e/namespaceanonymous__namespace_02_log_8cpp_03.html#a7a82c11accb191c2f06849f6d13db39a" target="_top" xlink:title=" ">
<polygon fill="white" stroke="none" points="154,-36.12 0,-36.12 0,-5.63 154,-5.63 154,-36.12"/>
<text xml:space="preserve" text-anchor="start" x="8" y="-21.68" font-family="Consolas" font-size="11.00">anonymous_namespace</text>
<text xml:space="preserve" text-anchor="middle" x="77" y="-10.43" font-family="Consolas" font-size="11.00">{Log::cpp}::initLogging</text>
</a>
</g>
</g>
<!-- Node2&#45;&gt;Node3 -->
<g id="edge2_Node000002_Node000003" class="edge">
<title>Node2&#45;&gt;Node3</title>
<g id="a_edge2_Node000002_Node000003"><a xlink:title=" ">
<path fill="none" stroke="#63b8ff" d="M184.15,-20.88C173.95,-20.88 163.73,-20.88 153.88,-20.88"/>
<polygon fill="#63b8ff" stroke="#63b8ff" points="188.93,-20.88 183.93,-23.13 187.65,-20.88 183.93,-20.88 183.93,-20.88 183.93,-20.88 187.65,-20.88 183.93,-18.63 188.93,-20.88"/>
</a>
</g>
</g>
</g>
</svg>
