<?xml version="1.0" encoding="UTF-8" standalone="no"?>
<!DOCTYPE svg PUBLIC "-//W3C//DTD SVG 1.1//EN"
 "http://www.w3.org/Graphics/SVG/1.1/DTD/svg11.dtd">
<!-- Generated by graphviz version 14.0.0 (20250921.2048)
 -->
<!-- Title: anonymous_namespace{Log::cpp}::safe::impLogWrite Pages: 1 -->
<!--zoomable 434 -->

<svg id="main" version="1.1" xmlns="http://www.w3.org/2000/svg" xmlns:xlink="http://www.w3.org/1999/xlink" xml:space="preserve" onload="init(evt)">

<style type="text/css"><![CDATA[
.node, .edge {opacity: 0.7;}
.node.selected, .edge.selected {opacity: 1;}
.edge:hover path { stroke: red; }
.edge:hover polygon { stroke: red; fill: red; }
]]></style>

<defs>
  <circle id="rim" cx="0" cy="0" r="7"/>
  <circle id="rim2" cx="0" cy="0" r="3.5"/>
  <g id="zoomPlus">
    <use xlink:href="#rim" fill="#404040"><set attributeName="fill" to="#808080" begin="zoomplus.mouseover" end="zoomplus.mouseout"/></use>
    <path d="M-4,0h8M0,-4v8" fill="none" stroke="white" stroke-width="1.5" pointer-events="none"/>
  </g>
  <g id="zoomMin">
    <use xlink:href="#rim" fill="#404040"><set attributeName="fill" to="#808080" begin="zoomminus.mouseover" end="zoomminus.mouseout"/></use>
    <path d="M-4,0h8" fill="none" stroke="white" stroke-width="1.5" pointer-events="none"/>
  </g>
  <g id="arrowUp" transform="translate(30 24)">
    <use xlink:href="#rim"/>
    <path pointer-events="none" fill="none" stroke="white" stroke-width="1.5" d="M0,-3.0v7 M-2.5,-0.5L0,-3.0L2.5,-0.5"/>
  </g>
  <g id="arrowRight" transform="rotate(90) translate(36 -43)">
    <use xlink:href="#rim"/>
    <path pointer-events="none" fill="none" stroke="white" stroke-width="1.5" d="M0,-3.0v7 M-2.5,-0.5L0,-3.0L2.5,-0.5"/>
  </g>
  <g id="arrowDown" transform="rotate(180) translate(-30 -48)">
    <use xlink:href="#rim"/>
    <path pointer-events="none" fill="none" stroke="white" stroke-width="1.5" d="M0,-3.0v7 M-2.5,-0.5L0,-3.0L2.5,-0.5"/>
  </g>
  <g id="arrowLeft" transform="rotate(270) translate(-36 17)">
    <use xlink:href="#rim"/>
    <path pointer-events="none" fill="none" stroke="white" stroke-width="1.5" d="M0,-3.0v7 M-2.5,-0.5L0,-3.0L2.5,-0.5"/>
  </g>
  <g id="resetDef">
    <use xlink:href="#rim2" fill="#404040"><set attributeName="fill" to="#808080" begin="reset.mouseover" end="reset.mouseout"/></use>
  </g>
</defs>
<script type="application/ecmascript">
var viewWidth = 1174;
var viewHeight = 434;
var sectionId = 'dynsection-29';
</script>
<script type="application/ecmascript" xlink:href="../../svg.min.js"/>
<svg id="graph" class="graph">
<g id="viewport">
<title>anonymous_namespace{Log::cpp}::safe::impLogWrite</title>
<!-- Node1 -->
<g id="Node000001" class="node">
<title>Node1</title>
<g id="a_Node000001"><a xlink:title=" ">
<polygon fill="#999999" stroke="none" points="1166,-210.88 862,-210.88 862,-191.62 1166,-191.62 1166,-210.88"/>
<text xml:space="preserve" text-anchor="start" x="870" y="-197.43" font-family="Consolas" font-weight="bold" font-size="11.00">anonymous_namespace{Log::cpp}::safe::impLogWrite</text>
</a>
</g>
</g>
<!-- Node1&#45;&gt;Node1 -->
<g id="edge1_Node000001_Node000001" class="edge">
<title>Node1&#45;&gt;Node1</title>
<g id="a_edge1_Node000001_Node000001"><a xlink:title=" ">
<path fill="none" stroke="#63b8ff" d="M1064.99,-213.2C1079.26,-221.15 1062.26,-228.88 1014,-228.88 960.74,-228.88 945.56,-219.46 968.44,-210.73"/>
<polygon fill="#63b8ff" stroke="#63b8ff" points="1060.67,-211.24 1066.15,-211.25 1061.84,-211.77 1065.22,-213.3 1065.22,-213.3 1065.22,-213.3 1061.84,-211.77 1064.29,-215.35 1060.67,-211.24"/>
</a>
</g>
</g>
<!-- Node2 -->
<g id="Node000002" class="node">
<title>Node2</title>
<g id="a_Node000002"><a xlink:href="../../dd/df2/namespaceanonymous__namespace_02_log_8cpp_03_1_1safe.html#a110b11e90b5bb8ae5c8a1521e33eec21" target="_top" xlink:title=" ">
<polygon fill="white" stroke="none" points="814,-408.12 618,-408.12 618,-366.38 814,-366.38 814,-408.12"/>
<text xml:space="preserve" text-anchor="start" x="626" y="-393.68" font-family="Consolas" font-size="11.00">anonymous_namespace</text>
<text xml:space="preserve" text-anchor="start" x="626" y="-382.43" font-family="Consolas" font-size="11.00">{Log::cpp}::safe::invalidParam</text>
<text xml:space="preserve" text-anchor="middle" x="716" y="-371.18" font-family="Consolas" font-size="11.00">Handler</text>
</a>
</g>
</g>
<!-- Node1&#45;&gt;Node2 -->
<g id="edge2_Node000001_Node000002" class="edge">
<title>Node1&#45;&gt;Node2</title>
<g id="a_edge2_Node000001_Node000002"><a xlink:title=" ">
<path fill="none" stroke="#63b8ff" d="M1000.55,-215.05C972.44,-245.37 900.68,-318.19 826,-357.25 819.48,-360.66 812.53,-363.72 805.42,-366.45"/>
<polygon fill="#63b8ff" stroke="#63b8ff" points="1003.85,-211.46 1002.12,-216.66 1002.98,-212.4 1000.47,-215.14 1000.47,-215.14 1000.47,-215.14 1002.98,-212.4 998.81,-213.62 1003.85,-211.46"/>
</a>
</g>
</g>
<!-- Node5 -->
<g id="Node000005" class="node">
<title>Node5</title>
<g id="a_Node000005"><a xlink:href="../../dd/df2/namespaceanonymous__namespace_02_log_8cpp_03_1_1safe.html#a460f691136cced36ea40b2595c18d0a8" target="_top" xlink:title=" ">
<polygon fill="white" stroke="none" points="808,-30.5 624,-30.5 624,0 808,0 808,-30.5"/>
<text xml:space="preserve" text-anchor="start" x="632" y="-16.05" font-family="Consolas" font-size="11.00">anonymous_namespace</text>
<text xml:space="preserve" text-anchor="middle" x="716" y="-4.8" font-family="Consolas" font-size="11.00">{Log::cpp}::safe::msgHandler</text>
</a>
</g>
</g>
<!-- Node1&#45;&gt;Node5 -->
<g id="edge7_Node000001_Node000005" class="edge">
<title>Node1&#45;&gt;Node5</title>
<g id="a_edge7_Node000001_Node000005"><a xlink:title=" ">
<path fill="none" stroke="#63b8ff" d="M998.32,-187.52C968.09,-159.81 895.85,-96.5 826,-57.25 806.99,-46.57 784.73,-37.45 765.3,-30.47"/>
<polygon fill="#63b8ff" stroke="#63b8ff" points="1001.91,-190.82 996.71,-189.09 1000.97,-189.95 998.23,-187.43 998.23,-187.43 998.23,-187.43 1000.97,-189.95 999.76,-185.78 1001.91,-190.82"/>
</a>
</g>
</g>
<!-- Node8 -->
<g id="Node000008" class="node">
<title>Node8</title>
<g id="a_Node000008"><a xlink:href="../../dd/df2/namespaceanonymous__namespace_02_log_8cpp_03_1_1safe.html#a2ccdd616a9266b8ac0b03f18feb92c0a" target="_top" xlink:title=" ">
<polygon fill="white" stroke="none" points="802,-330.12 630,-330.12 630,-288.38 802,-288.38 802,-330.12"/>
<text xml:space="preserve" text-anchor="start" x="638" y="-315.68" font-family="Consolas" font-size="11.00">anonymous_namespace</text>
<text xml:space="preserve" text-anchor="start" x="638" y="-304.43" font-family="Consolas" font-size="11.00">{Log::cpp}::safe::pureCall</text>
<text xml:space="preserve" text-anchor="middle" x="716" y="-293.18" font-family="Consolas" font-size="11.00">Handler</text>
</a>
</g>
</g>
<!-- Node1&#45;&gt;Node8 -->
<g id="edge12_Node000001_Node000008" class="edge">
<title>Node1&#45;&gt;Node8</title>
<g id="a_edge12_Node000001_Node000008"><a xlink:title=" ">
<path fill="none" stroke="#63b8ff" d="M987.11,-213.28C951.39,-229.59 884.72,-259.02 826,-279.25 816.72,-282.45 806.91,-285.54 797.13,-288.45"/>
<polygon fill="#63b8ff" stroke="#63b8ff" points="991.47,-211.28 987.86,-215.41 990.3,-211.82 986.92,-213.36 986.92,-213.36 986.92,-213.36 990.3,-211.82 985.99,-211.32 991.47,-211.28"/>
</a>
</g>
</g>
<!-- Node9 -->
<g id="Node000009" class="node">
<title>Node9</title>
<g id="a_Node000009"><a xlink:href="../../dd/df2/namespaceanonymous__namespace_02_log_8cpp_03_1_1safe.html#a05dd8955535418321e297dbbc885a56d" target="_top" xlink:title=" ">
<polygon fill="white" stroke="none" points="817,-252.5 615,-252.5 615,-222 817,-222 817,-252.5"/>
<text xml:space="preserve" text-anchor="start" x="623" y="-238.05" font-family="Consolas" font-size="11.00">anonymous_namespace</text>
<text xml:space="preserve" text-anchor="middle" x="716" y="-226.8" font-family="Consolas" font-size="11.00">{Log::cpp}::safe::signalHandler</text>
</a>
</g>
</g>
<!-- Node1&#45;&gt;Node9 -->
<g id="edge15_Node000001_Node000009" class="edge">
<title>Node1&#45;&gt;Node9</title>
<g id="a_edge15_Node000001_Node000009"><a xlink:title=" ">
<path fill="none" stroke="#63b8ff" d="M928.1,-211.58C893.41,-215.79 853.03,-220.71 816.93,-225.1"/>
<polygon fill="#63b8ff" stroke="#63b8ff" points="932.86,-211 928.17,-213.83 931.58,-211.15 927.89,-211.6 927.89,-211.6 927.89,-211.6 931.58,-211.15 927.62,-209.37 932.86,-211"/>
</a>
</g>
</g>
<!-- Node10 -->
<g id="Node000010" class="node">
<title>Node10</title>
<g id="a_Node000010"><a xlink:href="../../dd/df2/namespaceanonymous__namespace_02_log_8cpp_03_1_1safe.html#ad3395aac6f72b3cacf47edce1bffd16d" target="_top" xlink:title=" ">
<polygon fill="white" stroke="none" points="805,-186.12 627,-186.12 627,-144.38 805,-144.38 805,-186.12"/>
<text xml:space="preserve" text-anchor="start" x="635" y="-171.68" font-family="Consolas" font-size="11.00">anonymous_namespace</text>
<text xml:space="preserve" text-anchor="start" x="635" y="-160.43" font-family="Consolas" font-size="11.00">{Log::cpp}::safe::terminate</text>
<text xml:space="preserve" text-anchor="middle" x="716" y="-149.18" font-family="Consolas" font-size="11.00">Handler</text>
</a>
</g>
</g>
<!-- Node1&#45;&gt;Node10 -->
<g id="edge18_Node000001_Node000010" class="edge">
<title>Node1&#45;&gt;Node10</title>
<g id="a_edge18_Node000001_Node000010"><a xlink:title=" ">
<path fill="none" stroke="#63b8ff" d="M927.94,-190.9C889.35,-186.21 843.75,-180.67 804.84,-175.93"/>
<polygon fill="#63b8ff" stroke="#63b8ff" points="932.86,-191.5 927.62,-193.13 931.58,-191.35 927.89,-190.9 927.89,-190.9 927.89,-190.9 931.58,-191.35 928.17,-188.67 932.86,-191.5"/>
</a>
</g>
</g>
<!-- Node11 -->
<g id="Node000011" class="node">
<title>Node11</title>
<g id="a_Node000011"><a xlink:href="../../dd/df2/namespaceanonymous__namespace_02_log_8cpp_03_1_1safe.html#a2fc634cd009955d042c53cb5f5eebcb5" target="_top" xlink:title=" ">
<polygon fill="white" stroke="none" points="826,-108.12 606,-108.12 606,-66.38 826,-66.38 826,-108.12"/>
<text xml:space="preserve" text-anchor="start" x="614" y="-93.67" font-family="Consolas" font-size="11.00">anonymous_namespace</text>
<text xml:space="preserve" text-anchor="start" x="614" y="-82.42" font-family="Consolas" font-size="11.00">{Log::cpp}::safe::windowsException</text>
<text xml:space="preserve" text-anchor="middle" x="716" y="-71.17" font-family="Consolas" font-size="11.00">Filter</text>
</a>
</g>
</g>
<!-- Node1&#45;&gt;Node11 -->
<g id="edge21_Node000001_Node000011" class="edge">
<title>Node1&#45;&gt;Node11</title>
<g id="a_edge21_Node000001_Node000011"><a xlink:title=" ">
<path fill="none" stroke="#63b8ff" d="M982.48,-189.5C932.62,-170.29 833.05,-131.95 771.03,-108.06"/>
<polygon fill="#63b8ff" stroke="#63b8ff" points="986.88,-191.19 981.41,-191.49 985.69,-190.73 982.22,-189.39 982.22,-189.39 982.22,-189.39 985.69,-190.73 983.02,-187.29 986.88,-191.19"/>
</a>
</g>
</g>
<!-- Node2&#45;&gt;Node2 -->
<g id="edge6_Node000002_Node000002" class="edge">
<title>Node2&#45;&gt;Node2</title>
<g id="a_edge6_Node000002_Node000002"><a xlink:title=" ">
<path fill="none" stroke="#63b8ff" d="M761.21,-414.13C758.25,-420.98 743.18,-426.12 716,-426.12 681.21,-426.12 666.26,-417.7 671.15,-408.05"/>
<polygon fill="#63b8ff" stroke="#63b8ff" points="760.92,-409.26 763.46,-414.12 760.99,-410.54 761.22,-414.25 761.22,-414.25 761.22,-414.25 760.99,-410.54 758.97,-414.39 760.92,-409.26"/>
</a>
</g>
</g>
<!-- Node3 -->
<g id="Node000003" class="node">
<title>Node3</title>
<g id="a_Node000003"><a xlink:href="../../dd/df2/namespaceanonymous__namespace_02_log_8cpp_03_1_1safe.html#a5383dc98204ed88af64a0de8fb17de7f" target="_top" xlink:title=" ">
<polygon fill="white" stroke="none" points="570,-222.12 374,-222.12 374,-180.38 570,-180.38 570,-222.12"/>
<text xml:space="preserve" text-anchor="start" x="382" y="-207.68" font-family="Consolas" font-size="11.00">anonymous_namespace</text>
<text xml:space="preserve" text-anchor="start" x="382" y="-196.43" font-family="Consolas" font-size="11.00">{Log::cpp}::safe::installCrash</text>
<text xml:space="preserve" text-anchor="middle" x="472" y="-185.18" font-family="Consolas" font-size="11.00">Handlers</text>
</a>
</g>
</g>
<!-- Node2&#45;&gt;Node3 -->
<g id="edge3_Node000002_Node000003" class="edge">
<title>Node2&#45;&gt;Node3</title>
<g id="a_edge3_Node000002_Node000003"><a xlink:title=" ">
<path fill="none" stroke="#63b8ff" d="M617.59,-363.78C613.58,-361.78 609.7,-359.6 606,-357.25 550.15,-321.71 505.25,-255.46 484.87,-221.89"/>
<polygon fill="#63b8ff" stroke="#63b8ff" points="622.03,-365.89 616.55,-365.77 620.87,-365.34 617.51,-363.74 617.51,-363.74 617.51,-363.74 620.87,-365.34 618.48,-361.71 622.03,-365.89"/>
</a>
</g>
</g>
<!-- Node3&#45;&gt;Node3 -->
<g id="edge5_Node000003_Node000003" class="edge">
<title>Node3&#45;&gt;Node3</title>
<g id="a_edge5_Node000003_Node000003"><a xlink:title=" ">
<path fill="none" stroke="#63b8ff" d="M510.54,-228.13C508.01,-234.98 495.17,-240.12 472,-240.12 442.34,-240.12 429.6,-231.7 433.77,-222.05"/>
<polygon fill="#63b8ff" stroke="#63b8ff" points="510.29,-223.26 512.79,-228.14 510.36,-224.54 510.54,-228.26 510.54,-228.26 510.54,-228.26 510.36,-224.54 508.3,-228.37 510.29,-223.26"/>
</a>
</g>
</g>
<!-- Node4 -->
<g id="Node000004" class="node">
<title>Node4</title>
<g id="a_Node000004"><a xlink:href="../../dc/d8e/namespaceanonymous__namespace_02_log_8cpp_03.html#a7a82c11accb191c2f06849f6d13db39a" target="_top" xlink:title=" ">
<polygon fill="white" stroke="none" points="154,-140.5 0,-140.5 0,-110 154,-110 154,-140.5"/>
<text xml:space="preserve" text-anchor="start" x="8" y="-126.05" font-family="Consolas" font-size="11.00">anonymous_namespace</text>
<text xml:space="preserve" text-anchor="middle" x="77" y="-114.8" font-family="Consolas" font-size="11.00">{Log::cpp}::initLogging</text>
</a>
</g>
</g>
<!-- Node3&#45;&gt;Node4 -->
<g id="edge4_Node000003_Node000004" class="edge">
<title>Node3&#45;&gt;Node4</title>
<g id="a_edge4_Node000003_Node000004"><a xlink:title=" ">
<path fill="none" stroke="#63b8ff" d="M368.08,-181.35C300.92,-168.36 214.74,-151.69 153.82,-139.91"/>
<polygon fill="#63b8ff" stroke="#63b8ff" points="372.91,-182.28 367.57,-183.54 371.65,-182.04 368,-181.33 368,-181.33 368,-181.33 371.65,-182.04 368.43,-179.12 372.91,-182.28"/>
</a>
</g>
</g>
<!-- Node5&#45;&gt;Node5 -->
<g id="edge8_Node000005_Node000005" class="edge">
<title>Node5&#45;&gt;Node5</title>
<g id="a_edge8_Node000005_Node000005"><a xlink:title=" ">
<path fill="none" stroke="#63b8ff" d="M761.71,-35.44C762.6,-42.64 747.36,-48.5 716,-48.5 677.4,-48.5 663.22,-39.62 673.48,-30.3"/>
<polygon fill="#63b8ff" stroke="#63b8ff" points="759.16,-31.33 763.71,-34.39 759.84,-32.42 761.8,-35.58 761.8,-35.58 761.8,-35.58 759.84,-32.42 759.89,-36.77 759.16,-31.33"/>
</a>
</g>
</g>
<!-- Node6 -->
<g id="Node000006" class="node">
<title>Node6</title>
<g id="a_Node000006"><a xlink:href="../../d0/d61/classanonymous__namespace_02_log_8cpp_03_1_1_log_core.html#ac83f155438d4a0447ac048d50c7b1a47" target="_top" xlink:title=" ">
<polygon fill="white" stroke="none" points="537,-117.12 407,-117.12 407,-75.38 537,-75.38 537,-117.12"/>
<text xml:space="preserve" text-anchor="start" x="415" y="-102.67" font-family="Consolas" font-size="11.00">anonymous_namespace</text>
<text xml:space="preserve" text-anchor="start" x="415" y="-91.42" font-family="Consolas" font-size="11.00">{Log::cpp}::LogCore</text>
<text xml:space="preserve" text-anchor="middle" x="472" y="-80.17" font-family="Consolas" font-size="11.00">::msgHandler_</text>
</a>
</g>
</g>
<!-- Node5&#45;&gt;Node6 -->
<g id="edge9_Node000005_Node000006" class="edge">
<title>Node5&#45;&gt;Node6</title>
<g id="a_edge9_Node000005_Node000006"><a xlink:title=" ">
<path fill="none" stroke="#63b8ff" d="M664.04,-32.31C626.48,-44.88 575.19,-62.05 535.21,-75.43"/>
<polygon fill="#63b8ff" stroke="#63b8ff" points="668.33,-30.87 664.3,-34.59 667.11,-31.28 663.58,-32.46 663.58,-32.46 663.58,-32.46 667.11,-31.28 662.87,-30.33 668.33,-30.87"/>
</a>
</g>
</g>
<!-- Node7 -->
<g id="Node000007" class="node">
<title>Node7</title>
<g id="a_Node000007"><a xlink:href="../../dc/d8e/namespaceanonymous__namespace_02_log_8cpp_03.html#a0c2edb98e44610adcc75724bbf4edfb8" target="_top" xlink:title=" ">
<polygon fill="white" stroke="none" points="338,-119.5 190,-119.5 190,-89 338,-89 338,-119.5"/>
<text xml:space="preserve" text-anchor="start" x="198" y="-105.05" font-family="Consolas" font-size="11.00">anonymous_namespace</text>
<text xml:space="preserve" text-anchor="middle" x="264" y="-93.8" font-family="Consolas" font-size="11.00">{Log::cpp}::msgHandler</text>
</a>
</g>
</g>
<!-- Node6&#45;&gt;Node7 -->
<g id="edge10_Node000006_Node000007" class="edge">
<title>Node6&#45;&gt;Node7</title>
<g id="a_edge10_Node000006_Node000007"><a xlink:title=" ">
<path fill="none" stroke="#63b8ff" d="M401.24,-98.96C380.82,-99.75 358.44,-100.62 337.83,-101.42"/>
<polygon fill="#63b8ff" stroke="#63b8ff" points="406.01,-98.77 401.1,-101.22 404.73,-98.82 401.02,-98.97 401.02,-98.97 401.02,-98.97 404.73,-98.82 400.93,-96.72 406.01,-98.77"/>
</a>
</g>
</g>
<!-- Node7&#45;&gt;Node4 -->
<g id="edge11_Node000007_Node000004" class="edge">
<title>Node7&#45;&gt;Node4</title>
<g id="a_edge11_Node000007_Node000004"><a xlink:title=" ">
<path fill="none" stroke="#63b8ff" d="M184.24,-113.19C174.16,-114.33 163.86,-115.5 153.83,-116.64"/>
<polygon fill="#63b8ff" stroke="#63b8ff" points="188.94,-112.66 184.22,-115.46 187.66,-112.8 183.97,-113.22 183.97,-113.22 183.97,-113.22 187.66,-112.8 183.72,-110.99 188.94,-112.66"/>
</a>
</g>
</g>
<!-- Node8&#45;&gt;Node3 -->
<g id="edge13_Node000008_Node000003" class="edge">
<title>Node8&#45;&gt;Node3</title>
<g id="a_edge13_Node000008_Node000003"><a xlink:title=" ">
<path fill="none" stroke="#63b8ff" d="M625.12,-286.55C618.58,-284.28 612.14,-281.84 606,-279.25 568.89,-263.58 529.44,-239.38 503.24,-222.09"/>
<polygon fill="#63b8ff" stroke="#63b8ff" points="629.48,-288.03 624.02,-288.55 628.26,-287.62 624.74,-286.42 624.74,-286.42 624.74,-286.42 628.26,-287.62 625.46,-284.29 629.48,-288.03"/>
</a>
</g>
</g>
<!-- Node8&#45;&gt;Node8 -->
<g id="edge14_Node000008_Node000008" class="edge">
<title>Node8&#45;&gt;Node8</title>
<g id="a_edge14_Node000008_Node000008"><a xlink:title=" ">
<path fill="none" stroke="#63b8ff" d="M761.21,-336.13C758.25,-342.98 743.18,-348.12 716,-348.12 681.21,-348.12 666.26,-339.7 671.15,-330.05"/>
<polygon fill="#63b8ff" stroke="#63b8ff" points="760.92,-331.26 763.46,-336.12 760.99,-332.54 761.22,-336.25 761.22,-336.25 761.22,-336.25 760.99,-332.54 758.97,-336.39 760.92,-331.26"/>
</a>
</g>
</g>
<!-- Node9&#45;&gt;Node3 -->
<g id="edge16_Node000009_Node000003" class="edge">
<title>Node9&#45;&gt;Node3</title>
<g id="a_edge16_Node000009_Node000003"><a xlink:title=" ">
<path fill="none" stroke="#63b8ff" d="M609.19,-221.51C596.11,-219.56 582.8,-217.58 569.87,-215.66"/>
<polygon fill="#63b8ff" stroke="#63b8ff" points="613.97,-222.22 608.69,-223.71 612.7,-222.03 609.02,-221.48 609.02,-221.48 609.02,-221.48 612.7,-222.03 609.35,-219.26 613.97,-222.22"/>
</a>
</g>
</g>
<!-- Node9&#45;&gt;Node9 -->
<g id="edge17_Node000009_Node000009" class="edge">
<title>Node9&#45;&gt;Node9</title>
<g id="a_edge17_Node000009_Node000009"><a xlink:title=" ">
<path fill="none" stroke="#63b8ff" d="M761.71,-257.44C762.6,-264.64 747.36,-270.5 716,-270.5 677.4,-270.5 663.22,-261.62 673.48,-252.3"/>
<polygon fill="#63b8ff" stroke="#63b8ff" points="759.16,-253.33 763.71,-256.39 759.84,-254.42 761.8,-257.58 761.8,-257.58 761.8,-257.58 759.84,-254.42 759.89,-258.77 759.16,-253.33"/>
</a>
</g>
</g>
<!-- Node10&#45;&gt;Node3 -->
<g id="edge19_Node000010_Node000003" class="edge">
<title>Node10&#45;&gt;Node3</title>
<g id="a_edge19_Node000010_Node000003"><a xlink:title=" ">
<path fill="none" stroke="#63b8ff" d="M621.57,-179.15C604.61,-181.67 586.88,-184.31 569.83,-186.85"/>
<polygon fill="#63b8ff" stroke="#63b8ff" points="626.09,-178.48 621.47,-181.44 624.82,-178.67 621.14,-179.21 621.14,-179.21 621.14,-179.21 624.82,-178.67 620.81,-176.99 626.09,-178.48"/>
</a>
</g>
</g>
<!-- Node10&#45;&gt;Node10 -->
<g id="edge20_Node000010_Node000010" class="edge">
<title>Node10&#45;&gt;Node10</title>
<g id="a_edge20_Node000010_Node000010"><a xlink:title=" ">
<path fill="none" stroke="#63b8ff" d="M761.21,-192.13C758.25,-198.98 743.18,-204.12 716,-204.12 681.21,-204.12 666.26,-195.7 671.15,-186.05"/>
<polygon fill="#63b8ff" stroke="#63b8ff" points="760.92,-187.26 763.46,-192.12 760.99,-188.54 761.22,-192.25 761.22,-192.25 761.22,-192.25 760.99,-188.54 758.97,-192.39 760.92,-187.26"/>
</a>
</g>
</g>
<!-- Node11&#45;&gt;Node3 -->
<g id="edge22_Node000011_Node000003" class="edge">
<title>Node11&#45;&gt;Node3</title>
<g id="a_edge22_Node000011_Node000003"><a xlink:title=" ">
<path fill="none" stroke="#63b8ff" d="M661.09,-110.41C643.45,-118.14 623.82,-126.91 606,-135.25 574.83,-149.84 540,-167.16 513.81,-180.4"/>
<polygon fill="#63b8ff" stroke="#63b8ff" points="665.38,-108.53 661.7,-112.6 664.2,-109.05 660.8,-110.54 660.8,-110.54 660.8,-110.54 664.2,-109.05 659.89,-108.47 665.38,-108.53"/>
</a>
</g>
</g>
<!-- Node11&#45;&gt;Node11 -->
<g id="edge23_Node000011_Node000011" class="edge">
<title>Node11&#45;&gt;Node11</title>
<g id="a_edge23_Node000011_Node000011"><a xlink:title=" ">
<path fill="none" stroke="#63b8ff" d="M761.21,-114.13C758.25,-120.98 743.18,-126.12 716,-126.12 681.21,-126.12 666.26,-117.7 671.15,-108.05"/>
<polygon fill="#63b8ff" stroke="#63b8ff" points="760.92,-109.26 763.46,-114.12 760.99,-110.54 761.22,-114.25 761.22,-114.25 761.22,-114.25 760.99,-110.54 758.97,-114.39 760.92,-109.26"/>
</a>
</g>
</g>
</g>
</svg>

<g id="navigator" transform="translate(0 0)" fill="#404254">
  <rect fill="#f2f5e9" fill-opacity="0.5" stroke="#606060" stroke-width=".5" x="0" y="0" width="60" height="60"/>
  <use id="zoomplus" xlink:href="#zoomPlus" x="17" y="9" onmousedown="handleZoom(evt,'in')"/>
  <use id="zoomminus" xlink:href="#zoomMin" x="42" y="9" onmousedown="handleZoom(evt,'out')"/>
  <use id="reset" xlink:href="#resetDef" x="30" y="36" onmousedown="handleReset()"/>
   <use id="arrowup" xlink:href="#arrowUp" x="0" y="0" onmousedown="handlePan(0,-1)"/>
  <use id="arrowright" xlink:href="#arrowRight" x="0" y="0" onmousedown="handlePan(1,0)"/>
  <use id="arrowdown" xlink:href="#arrowDown" x="0" y="0" onmousedown="handlePan(0,1)"/>
  <use id="arrowleft" xlink:href="#arrowLeft" x="0" y="0" onmousedown="handlePan(-1,0)"/>
</g>
<svg viewBox="0 0 15 15" width="100%" height="30px" preserveAspectRatio="xMaxYMin meet">
 <g id="arrow_out" transform="scale(0.3 0.3)">
  <a xlink:href="namespaceanonymous__namespace_02_log_8cpp_03_1_1safe_a97522aab6ec53ce2693cf4a5432927bf_icgraph_org.svg" target="_base">
   <rect id="button" ry="5" rx="5" y="6" x="6" height="38" width="38"
        fill="#f2f5e9" fill-opacity="0.5" stroke="#606060" stroke-width="1.0"/>
   <path id="arrow"
     d="M 11.500037,31.436501 C 11.940474,20.09759 22.043105,11.32322 32.158766,21.979434 L 37.068811,17.246167 C 37.068811,17.246167 37.088388,32 37.088388,32 L 22.160133,31.978069 C 22.160133,31.978069 26.997745,27.140456 26.997745,27.140456 C 18.528582,18.264221 13.291696,25.230495 11.500037,31.436501 z"
     style="fill:#404040;"/>
  </a>
 </g>
</svg>

<style type='text/css'>
<![CDATA[
[data-mouse-over-selected='false'] { opacity: 0.7; }
[data-mouse-over-selected='true']  { opacity: 1.0; }
]]>
</style>
<script type="application/ecmascript"><![CDATA[
document.addEventListener('DOMContentLoaded', (event) => {
  highlightEdges();
  highlightAdjacentNodes();
});
]]></script>
</svg>
