<?xml version="1.0" encoding="UTF-8" standalone="no"?>
<!DOCTYPE svg PUBLIC "-//W3C//DTD SVG 1.1//EN"
 "http://www.w3.org/Graphics/SVG/1.1/DTD/svg11.dtd">
<!-- Generated by graphviz version 14.0.0 (20250921.2048)
 -->
<!-- Title: anonymous_namespace{Log::cpp}::safe::appendFileName Pages: 1 -->
<svg width="770pt" height="57pt"
 viewBox="0.00 0.00 770.00 57.00" xmlns="http://www.w3.org/2000/svg" xmlns:xlink="http://www.w3.org/1999/xlink">
<g id="graph0" class="graph" transform="scale(1 1) rotate(0) translate(4 52.5)">
<title>anonymous_namespace{Log::cpp}::safe::appendFileName</title>
<!-- Node1 -->
<g id="Node000001" class="node">
<title>Node1</title>
<g id="a_Node000001"><a xlink:title=" ">
<polygon fill="#999999" stroke="none" points="322,-24.88 0,-24.88 0,-5.62 322,-5.62 322,-24.88"/>
<text xml:space="preserve" text-anchor="start" x="8" y="-11.43" font-family="Consolas" font-weight="bold" font-size="11.00">anonymous_namespace{Log::cpp}::safe::appendFileName</text>
</a>
</g>
</g>
<!-- Node1&#45;&gt;Node1 -->
<g id="edge5_Node000001_Node000001" class="edge">
<title>Node1&#45;&gt;Node1</title>
<g id="a_edge5_Node000001_Node000001"><a xlink:title=" ">
<path fill="none" stroke="#63b8ff" d="M117.28,-24.73C95.31,-33.46 109.89,-42.88 161,-42.88 206.92,-42.88 223.35,-35.28 210.29,-27.4"/>
<polygon fill="#63b8ff" stroke="#63b8ff" points="205.82,-25.26 211.3,-25.4 206.98,-25.82 210.33,-27.43 210.33,-27.43 210.33,-27.43 206.98,-25.82 209.36,-29.45 205.82,-25.26"/>
</a>
</g>
</g>
<!-- Node2 -->
<g id="Node000002" class="node">
<title>Node2</title>
<g id="a_Node000002"><a xlink:href="../../dd/df2/namespaceanonymous__namespace_02_log_8cpp_03_1_1safe.html#a65353ac3c8d675a9a827bed9e11acc17" target="_top" xlink:title=" ">
<polygon fill="white" stroke="none" points="536,-30.5 358,-30.5 358,0 536,0 536,-30.5"/>
<text xml:space="preserve" text-anchor="start" x="366" y="-16.05" font-family="Consolas" font-size="11.00">anonymous_namespace</text>
<text xml:space="preserve" text-anchor="middle" x="447" y="-4.8" font-family="Consolas" font-size="11.00">{Log::cpp}::safe::appendChr</text>
</a>
</g>
</g>
<!-- Node1&#45;&gt;Node2 -->
<g id="edge1_Node000001_Node000002" class="edge">
<title>Node1&#45;&gt;Node2</title>
<g id="a_edge1_Node000001_Node000002"><a xlink:title=" ">
<path fill="none" stroke="#63b8ff" d="M321.85,-15.25C332.19,-15.25 342.4,-15.25 352.26,-15.25"/>
<polygon fill="#63b8ff" stroke="#63b8ff" points="357.13,-15.25 352.13,-17.5 355.85,-15.25 352.13,-15.25 352.13,-15.25 352.13,-15.25 355.85,-15.25 352.13,-13 357.13,-15.25"/>
</a>
</g>
</g>
<!-- Node2&#45;&gt;Node2 -->
<g id="edge2_Node000002_Node000002" class="edge">
<title>Node2&#45;&gt;Node2</title>
<g id="a_edge2_Node000002_Node000002"><a xlink:title=" ">
<path fill="none" stroke="#63b8ff" d="M408.66,-30.3C399.42,-39.62 412.2,-48.5 447,-48.5 475.28,-48.5 489.02,-42.64 488.22,-35.44"/>
<polygon fill="#63b8ff" stroke="#63b8ff" points="485.93,-31.36 490.34,-34.62 486.56,-32.48 488.38,-35.72 488.38,-35.72 488.38,-35.72 486.56,-32.48 486.41,-36.82 485.93,-31.36"/>
</a>
</g>
</g>
<!-- Node3 -->
<g id="Node000003" class="node">
<title>Node3</title>
<g id="a_Node000003"><a xlink:href="../../dd/df2/namespaceanonymous__namespace_02_log_8cpp_03_1_1safe.html#a1e4219749cab61533a6faf773fe7cddb" target="_top" xlink:title=" ">
<polygon fill="white" stroke="none" points="762,-30.5 572,-30.5 572,0 762,0 762,-30.5"/>
<text xml:space="preserve" text-anchor="start" x="580" y="-16.05" font-family="Consolas" font-size="11.00">anonymous_namespace</text>
<text xml:space="preserve" text-anchor="middle" x="667" y="-4.8" font-family="Consolas" font-size="11.00">{Log::cpp}::safe::isSpaceChar</text>
</a>
</g>
</g>
<!-- Node2&#45;&gt;Node3 -->
<g id="edge3_Node000002_Node000003" class="edge">
<title>Node2&#45;&gt;Node3</title>
<g id="a_edge3_Node000002_Node000003"><a xlink:title=" ">
<path fill="none" stroke="#63b8ff" d="M535.73,-15.25C545.72,-15.25 555.95,-15.25 566.08,-15.25"/>
<polygon fill="#63b8ff" stroke="#63b8ff" points="570.82,-15.25 565.82,-17.5 569.54,-15.25 565.82,-15.25 565.82,-15.25 565.82,-15.25 569.54,-15.25 565.82,-13 570.82,-15.25"/>
</a>
</g>
</g>
<!-- Node3&#45;&gt;Node3 -->
<g id="edge4_Node000003_Node000003" class="edge">
<title>Node3&#45;&gt;Node3</title>
<g id="a_edge4_Node000003_Node000003"><a xlink:title=" ">
<path fill="none" stroke="#63b8ff" d="M628.66,-30.3C619.42,-39.62 632.2,-48.5 667,-48.5 695.28,-48.5 709.02,-42.64 708.22,-35.44"/>
<polygon fill="#63b8ff" stroke="#63b8ff" points="705.93,-31.36 710.34,-34.62 706.56,-32.48 708.38,-35.72 708.38,-35.72 708.38,-35.72 706.56,-32.48 706.41,-36.82 705.93,-31.36"/>
</a>
</g>
</g>
</g>
</svg>
