<?xml version="1.0" encoding="UTF-8" standalone="no"?>
<!DOCTYPE svg PUBLIC "-//W3C//DTD SVG 1.1//EN"
 "http://www.w3.org/Graphics/SVG/1.1/DTD/svg11.dtd">
<!-- Generated by graphviz version 14.0.0 (20250921.2048)
 -->
<!-- Title: anonymous_namespace{Log::cpp}::safe::signalHandler Pages: 1 -->
<!--zoomable 340 -->

<svg id="main" version="1.1" xmlns="http://www.w3.org/2000/svg" xmlns:xlink="http://www.w3.org/1999/xlink" xml:space="preserve" onload="init(evt)">

<style type="text/css"><![CDATA[
.node, .edge {opacity: 0.7;}
.node.selected, .edge.selected {opacity: 1;}
.edge:hover path { stroke: red; }
.edge:hover polygon { stroke: red; fill: red; }
]]></style>

<defs>
  <circle id="rim" cx="0" cy="0" r="7"/>
  <circle id="rim2" cx="0" cy="0" r="3.5"/>
  <g id="zoomPlus">
    <use xlink:href="#rim" fill="#404040"><set attributeName="fill" to="#808080" begin="zoomplus.mouseover" end="zoomplus.mouseout"/></use>
    <path d="M-4,0h8M0,-4v8" fill="none" stroke="white" stroke-width="1.5" pointer-events="none"/>
  </g>
  <g id="zoomMin">
    <use xlink:href="#rim" fill="#404040"><set attributeName="fill" to="#808080" begin="zoomminus.mouseover" end="zoomminus.mouseout"/></use>
    <path d="M-4,0h8" fill="none" stroke="white" stroke-width="1.5" pointer-events="none"/>
  </g>
  <g id="arrowUp" transform="translate(30 24)">
    <use xlink:href="#rim"/>
    <path pointer-events="none" fill="none" stroke="white" stroke-width="1.5" d="M0,-3.0v7 M-2.5,-0.5L0,-3.0L2.5,-0.5"/>
  </g>
  <g id="arrowRight" transform="rotate(90) translate(36 -43)">
    <use xlink:href="#rim"/>
    <path pointer-events="none" fill="none" stroke="white" stroke-width="1.5" d="M0,-3.0v7 M-2.5,-0.5L0,-3.0L2.5,-0.5"/>
  </g>
  <g id="arrowDown" transform="rotate(180) translate(-30 -48)">
    <use xlink:href="#rim"/>
    <path pointer-events="none" fill="none" stroke="white" stroke-width="1.5" d="M0,-3.0v7 M-2.5,-0.5L0,-3.0L2.5,-0.5"/>
  </g>
  <g id="arrowLeft" transform="rotate(270) translate(-36 17)">
    <use xlink:href="#rim"/>
    <path pointer-events="none" fill="none" stroke="white" stroke-width="1.5" d="M0,-3.0v7 M-2.5,-0.5L0,-3.0L2.5,-0.5"/>
  </g>
  <g id="resetDef">
    <use xlink:href="#rim2" fill="#404040"><set attributeName="fill" to="#808080" begin="reset.mouseover" end="reset.mouseout"/></use>
  </g>
</defs>
<script type="application/ecmascript">
var viewWidth = 1038;
var viewHeight = 340;
var sectionId = 'dynsection-44';
</script>
<script type="application/ecmascript" xlink:href="../../svg.min.js"/>
<svg id="graph" class="graph">
<g id="viewport">
<title>anonymous_namespace{Log::cpp}::safe::signalHandler</title>
<!-- Node1 -->
<g id="Node000001" class="node">
<title>Node1</title>
<g id="a_Node000001"><a xlink:title=" ">
<polygon fill="#999999" stroke="none" points="316,-197.88 0,-197.88 0,-178.62 316,-178.62 316,-197.88"/>
<text xml:space="preserve" text-anchor="start" x="8" y="-184.43" font-family="Consolas" font-weight="bold" font-size="11.00">anonymous_namespace{Log::cpp}::safe::signalHandler</text>
</a>
</g>
</g>
<!-- Node1&#45;&gt;Node1 -->
<g id="edge21_Node000001_Node000001" class="edge">
<title>Node1&#45;&gt;Node1</title>
<g id="a_edge21_Node000001_Node000001"><a xlink:title=" ">
<path fill="none" stroke="#63b8ff" d="M112.44,-197.73C89.56,-206.46 104.74,-215.88 158,-215.88 206.26,-215.88 223.26,-208.15 208.99,-200.2"/>
<polygon fill="#63b8ff" stroke="#63b8ff" points="204.67,-198.24 210.15,-198.25 205.84,-198.77 209.22,-200.3 209.22,-200.3 209.22,-200.3 205.84,-198.77 208.29,-202.35 204.67,-198.24"/>
</a>
</g>
</g>
<!-- Node2 -->
<g id="Node000002" class="node">
<title>Node2</title>
<g id="a_Node000002"><a xlink:href="../../dd/df2/namespaceanonymous__namespace_02_log_8cpp_03_1_1safe.html#a0b4f620e950ef2e9f44027327f4bd27f" target="_top" xlink:title=" ">
<polygon fill="white" stroke="none" points="545,-313.5 367,-313.5 367,-283 545,-283 545,-313.5"/>
<text xml:space="preserve" text-anchor="start" x="375" y="-299.05" font-family="Consolas" font-size="11.00">anonymous_namespace</text>
<text xml:space="preserve" text-anchor="middle" x="456" y="-287.8" font-family="Consolas" font-size="11.00">{Log::cpp}::safe::appendDec</text>
</a>
</g>
</g>
<!-- Node1&#45;&gt;Node2 -->
<g id="edge1_Node000001_Node000002" class="edge">
<title>Node1&#45;&gt;Node2</title>
<g id="a_edge1_Node000001_Node000002"><a xlink:title=" ">
<path fill="none" stroke="#63b8ff" d="M177.73,-197.84C211.71,-214.92 286.11,-250.94 352,-273.25 360.73,-276.21 369.99,-278.96 379.24,-281.49"/>
<polygon fill="#63b8ff" stroke="#63b8ff" points="383.81,-282.71 378.4,-283.59 382.57,-282.38 378.98,-281.42 378.98,-281.42 378.98,-281.42 382.57,-282.38 379.56,-279.24 383.81,-282.71"/>
</a>
</g>
</g>
<!-- Node4 -->
<g id="Node000004" class="node">
<title>Node4</title>
<g id="a_Node000004"><a xlink:href="../../dd/df2/namespaceanonymous__namespace_02_log_8cpp_03_1_1safe.html#aa8d11c260254c761c7437280b4284d17" target="_top" xlink:title=" ">
<polygon fill="white" stroke="none" points="545,-246.5 367,-246.5 367,-216 545,-216 545,-246.5"/>
<text xml:space="preserve" text-anchor="start" x="375" y="-232.05" font-family="Consolas" font-size="11.00">anonymous_namespace</text>
<text xml:space="preserve" text-anchor="middle" x="456" y="-220.8" font-family="Consolas" font-size="11.00">{Log::cpp}::safe::appendTxt</text>
</a>
</g>
</g>
<!-- Node1&#45;&gt;Node4 -->
<g id="edge5_Node000001_Node000004" class="edge">
<title>Node1&#45;&gt;Node4</title>
<g id="a_edge5_Node000001_Node000004"><a xlink:title=" ">
<path fill="none" stroke="#63b8ff" d="M225.06,-197.85C265.17,-203.67 317.02,-211.2 361.32,-217.64"/>
<polygon fill="#63b8ff" stroke="#63b8ff" points="366.03,-218.33 360.76,-219.83 364.76,-218.14 361.08,-217.61 361.08,-217.61 361.08,-217.61 364.76,-218.14 361.41,-215.38 366.03,-218.33"/>
</a>
</g>
</g>
<!-- Node7 -->
<g id="Node000007" class="node">
<title>Node7</title>
<g id="a_Node000007"><a xlink:href="../../dd/df2/namespaceanonymous__namespace_02_log_8cpp_03_1_1safe.html#aee2abc51c02c7af63c137ba0ea58c71a" target="_top" xlink:title=" ">
<polygon fill="white" stroke="none" points="798,-164.5 602,-164.5 602,-134 798,-134 798,-164.5"/>
<text xml:space="preserve" text-anchor="start" x="610" y="-150.05" font-family="Consolas" font-size="11.00">anonymous_namespace</text>
<text xml:space="preserve" text-anchor="middle" x="700" y="-138.8" font-family="Consolas" font-size="11.00">{Log::cpp}::safe::hardFailFast</text>
</a>
</g>
</g>
<!-- Node1&#45;&gt;Node7 -->
<g id="edge11_Node000001_Node000007" class="edge">
<title>Node1&#45;&gt;Node7</title>
<g id="a_edge11_Node000001_Node000007"><a xlink:title=" ">
<path fill="none" stroke="#63b8ff" d="M315.88,-184.29C390.03,-181.53 479.69,-176.91 560,-169.25 571.78,-168.13 584.1,-166.71 596.32,-165.15"/>
<polygon fill="#63b8ff" stroke="#63b8ff" points="601.1,-164.53 596.43,-167.4 599.83,-164.69 596.14,-165.17 596.14,-165.17 596.14,-165.17 599.83,-164.69 595.85,-162.94 601.1,-164.53"/>
</a>
</g>
</g>
<!-- Node8 -->
<g id="Node000008" class="node">
<title>Node8</title>
<g id="a_Node000008"><a xlink:href="../../dd/df2/namespaceanonymous__namespace_02_log_8cpp_03_1_1safe.html#a97522aab6ec53ce2693cf4a5432927bf" target="_top" xlink:title=" ">
<polygon fill="white" stroke="none" points="551,-75.5 361,-75.5 361,-45 551,-45 551,-75.5"/>
<text xml:space="preserve" text-anchor="start" x="369" y="-61.05" font-family="Consolas" font-size="11.00">anonymous_namespace</text>
<text xml:space="preserve" text-anchor="middle" x="456" y="-49.8" font-family="Consolas" font-size="11.00">{Log::cpp}::safe::impLogWrite</text>
</a>
</g>
</g>
<!-- Node1&#45;&gt;Node8 -->
<g id="edge13_Node000001_Node000008" class="edge">
<title>Node1&#45;&gt;Node8</title>
<g id="a_edge13_Node000001_Node000008"><a xlink:title=" ">
<path fill="none" stroke="#63b8ff" d="M180.36,-178.68C215.89,-162.8 289.41,-130.09 352,-103.25 371.85,-94.74 393.94,-85.48 412.56,-77.75"/>
<polygon fill="#63b8ff" stroke="#63b8ff" points="417.1,-75.87 413.34,-79.86 415.91,-76.36 412.48,-77.79 412.48,-77.79 412.48,-77.79 415.91,-76.36 411.62,-75.71 417.1,-75.87"/>
</a>
</g>
</g>
<!-- Node11 -->
<g id="Node000011" class="node">
<title>Node11</title>
<g id="a_Node000011"><a xlink:href="../../dd/df2/namespaceanonymous__namespace_02_log_8cpp_03_1_1safe.html#aace4c2e1632cdc24f1bf5e597c0f6be6" target="_top" xlink:title=" ">
<polygon fill="white" stroke="none" points="560,-142.5 352,-142.5 352,-112 560,-112 560,-142.5"/>
<text xml:space="preserve" text-anchor="start" x="360" y="-128.05" font-family="Consolas" font-size="11.00">anonymous_namespace</text>
<text xml:space="preserve" text-anchor="middle" x="456" y="-116.8" font-family="Consolas" font-size="11.00">{Log::cpp}::safe::reraiseDefault</text>
</a>
</g>
</g>
<!-- Node1&#45;&gt;Node11 -->
<g id="edge18_Node000001_Node000011" class="edge">
<title>Node1&#45;&gt;Node11</title>
<g id="a_edge18_Node000001_Node000011"><a xlink:title=" ">
<path fill="none" stroke="#63b8ff" d="M205.58,-178.65C250.97,-169.3 320.9,-154.89 375.18,-143.7"/>
<polygon fill="#63b8ff" stroke="#63b8ff" points="379.85,-142.74 375.41,-145.95 378.6,-143 374.96,-143.75 374.96,-143.75 374.96,-143.75 378.6,-143 374.5,-141.54 379.85,-142.74"/>
</a>
</g>
</g>
<!-- Node2&#45;&gt;Node2 -->
<g id="edge2_Node000002_Node000002" class="edge">
<title>Node2&#45;&gt;Node2</title>
<g id="a_edge2_Node000002_Node000002"><a xlink:title=" ">
<path fill="none" stroke="#63b8ff" d="M413.48,-313.3C403.22,-322.62 417.4,-331.5 456,-331.5 487.36,-331.5 502.6,-325.64 501.71,-318.44"/>
<polygon fill="#63b8ff" stroke="#63b8ff" points="499.16,-314.33 503.71,-317.39 499.84,-315.42 501.8,-318.58 501.8,-318.58 501.8,-318.58 499.84,-315.42 499.89,-319.77 499.16,-314.33"/>
</a>
</g>
</g>
<!-- Node3 -->
<g id="Node000003" class="node">
<title>Node3</title>
<g id="a_Node000003"><a xlink:href="../../dd/df2/namespaceanonymous__namespace_02_log_8cpp_03_1_1safe.html#ab261e5125e925c910ea977d0ac217ab6" target="_top" xlink:title=" ">
<polygon fill="white" stroke="none" points="789,-313.5 611,-313.5 611,-283 789,-283 789,-313.5"/>
<text xml:space="preserve" text-anchor="start" x="619" y="-299.05" font-family="Consolas" font-size="11.00">anonymous_namespace</text>
<text xml:space="preserve" text-anchor="middle" x="700" y="-287.8" font-family="Consolas" font-size="11.00">{Log::cpp}::safe::decDigits</text>
</a>
</g>
</g>
<!-- Node2&#45;&gt;Node3 -->
<g id="edge3_Node000002_Node000003" class="edge">
<title>Node2&#45;&gt;Node3</title>
<g id="a_edge3_Node000002_Node000003"><a xlink:title=" ">
<path fill="none" stroke="#63b8ff" d="M544.71,-298.25C564.32,-298.25 585.2,-298.25 605.06,-298.25"/>
<polygon fill="#63b8ff" stroke="#63b8ff" points="609.96,-298.25 604.96,-300.5 608.68,-298.25 604.96,-298.25 604.96,-298.25 604.96,-298.25 608.68,-298.25 604.96,-296 609.96,-298.25"/>
</a>
</g>
</g>
<!-- Node3&#45;&gt;Node3 -->
<g id="edge4_Node000003_Node000003" class="edge">
<title>Node3&#45;&gt;Node3</title>
<g id="a_edge4_Node000003_Node000003"><a xlink:title=" ">
<path fill="none" stroke="#63b8ff" d="M659.05,-313.3C649.17,-322.62 662.82,-331.5 700,-331.5 730.21,-331.5 744.88,-325.64 744.03,-318.44"/>
<polygon fill="#63b8ff" stroke="#63b8ff" points="741.58,-314.34 746.07,-317.48 742.24,-315.44 744.14,-318.63 744.14,-318.63 744.14,-318.63 742.24,-315.44 742.21,-319.79 741.58,-314.34"/>
</a>
</g>
</g>
<!-- Node4&#45;&gt;Node4 -->
<g id="edge10_Node000004_Node000004" class="edge">
<title>Node4&#45;&gt;Node4</title>
<g id="a_edge10_Node000004_Node000004"><a xlink:title=" ">
<path fill="none" stroke="#63b8ff" d="M413.48,-246.3C403.22,-255.62 417.4,-264.5 456,-264.5 487.36,-264.5 502.6,-258.64 501.71,-251.44"/>
<polygon fill="#63b8ff" stroke="#63b8ff" points="499.16,-247.33 503.71,-250.39 499.84,-248.42 501.8,-251.58 501.8,-251.58 501.8,-251.58 499.84,-248.42 499.89,-252.77 499.16,-247.33"/>
</a>
</g>
</g>
<!-- Node5 -->
<g id="Node000005" class="node">
<title>Node5</title>
<g id="a_Node000005"><a xlink:href="../../dd/df2/namespaceanonymous__namespace_02_log_8cpp_03_1_1safe.html#a65353ac3c8d675a9a827bed9e11acc17" target="_top" xlink:title=" ">
<polygon fill="white" stroke="none" points="789,-246.5 611,-246.5 611,-216 789,-216 789,-246.5"/>
<text xml:space="preserve" text-anchor="start" x="619" y="-232.05" font-family="Consolas" font-size="11.00">anonymous_namespace</text>
<text xml:space="preserve" text-anchor="middle" x="700" y="-220.8" font-family="Consolas" font-size="11.00">{Log::cpp}::safe::appendChr</text>
</a>
</g>
</g>
<!-- Node4&#45;&gt;Node5 -->
<g id="edge6_Node000004_Node000005" class="edge">
<title>Node4&#45;&gt;Node5</title>
<g id="a_edge6_Node000004_Node000005"><a xlink:title=" ">
<path fill="none" stroke="#63b8ff" d="M544.71,-231.25C564.32,-231.25 585.2,-231.25 605.06,-231.25"/>
<polygon fill="#63b8ff" stroke="#63b8ff" points="609.96,-231.25 604.96,-233.5 608.68,-231.25 604.96,-231.25 604.96,-231.25 604.96,-231.25 608.68,-231.25 604.96,-229 609.96,-231.25"/>
</a>
</g>
</g>
<!-- Node5&#45;&gt;Node5 -->
<g id="edge7_Node000005_Node000005" class="edge">
<title>Node5&#45;&gt;Node5</title>
<g id="a_edge7_Node000005_Node000005"><a xlink:title=" ">
<path fill="none" stroke="#63b8ff" d="M659.05,-246.3C649.17,-255.62 662.82,-264.5 700,-264.5 730.21,-264.5 744.88,-258.64 744.03,-251.44"/>
<polygon fill="#63b8ff" stroke="#63b8ff" points="741.58,-247.34 746.07,-250.48 742.24,-248.44 744.14,-251.63 744.14,-251.63 744.14,-251.63 742.24,-248.44 742.21,-252.79 741.58,-247.34"/>
</a>
</g>
</g>
<!-- Node6 -->
<g id="Node000006" class="node">
<title>Node6</title>
<g id="a_Node000006"><a xlink:href="../../dd/df2/namespaceanonymous__namespace_02_log_8cpp_03_1_1safe.html#a1e4219749cab61533a6faf773fe7cddb" target="_top" xlink:title=" ">
<polygon fill="white" stroke="none" points="1030,-246.5 840,-246.5 840,-216 1030,-216 1030,-246.5"/>
<text xml:space="preserve" text-anchor="start" x="848" y="-232.05" font-family="Consolas" font-size="11.00">anonymous_namespace</text>
<text xml:space="preserve" text-anchor="middle" x="935" y="-220.8" font-family="Consolas" font-size="11.00">{Log::cpp}::safe::isSpaceChar</text>
</a>
</g>
</g>
<!-- Node5&#45;&gt;Node6 -->
<g id="edge8_Node000005_Node000006" class="edge">
<title>Node5&#45;&gt;Node6</title>
<g id="a_edge8_Node000005_Node000006"><a xlink:title=" ">
<path fill="none" stroke="#63b8ff" d="M788.76,-231.25C803.56,-231.25 819.03,-231.25 834.11,-231.25"/>
<polygon fill="#63b8ff" stroke="#63b8ff" points="838.88,-231.25 833.88,-233.5 837.6,-231.25 833.88,-231.25 833.88,-231.25 833.88,-231.25 837.6,-231.25 833.88,-229 838.88,-231.25"/>
</a>
</g>
</g>
<!-- Node6&#45;&gt;Node6 -->
<g id="edge9_Node000006_Node000006" class="edge">
<title>Node6&#45;&gt;Node6</title>
<g id="a_edge9_Node000006_Node000006"><a xlink:title=" ">
<path fill="none" stroke="#63b8ff" d="M894.05,-246.3C884.17,-255.62 897.82,-264.5 935,-264.5 965.21,-264.5 979.88,-258.64 979.03,-251.44"/>
<polygon fill="#63b8ff" stroke="#63b8ff" points="976.58,-247.34 981.07,-250.48 977.24,-248.44 979.14,-251.63 979.14,-251.63 979.14,-251.63 977.24,-248.44 977.21,-252.79 976.58,-247.34"/>
</a>
</g>
</g>
<!-- Node7&#45;&gt;Node7 -->
<g id="edge12_Node000007_Node000007" class="edge">
<title>Node7&#45;&gt;Node7</title>
<g id="a_edge12_Node000007_Node000007"><a xlink:title=" ">
<path fill="none" stroke="#63b8ff" d="M659.05,-164.3C649.17,-173.62 662.82,-182.5 700,-182.5 730.21,-182.5 744.88,-176.64 744.03,-169.44"/>
<polygon fill="#63b8ff" stroke="#63b8ff" points="741.58,-165.34 746.07,-168.48 742.24,-166.44 744.14,-169.63 744.14,-169.63 744.14,-169.63 742.24,-166.44 742.21,-170.79 741.58,-165.34"/>
</a>
</g>
</g>
<!-- Node8&#45;&gt;Node8 -->
<g id="edge14_Node000008_Node000008" class="edge">
<title>Node8&#45;&gt;Node8</title>
<g id="a_edge14_Node000008_Node000008"><a xlink:title=" ">
<path fill="none" stroke="#63b8ff" d="M413.48,-75.3C403.22,-84.62 417.4,-93.5 456,-93.5 487.36,-93.5 502.6,-87.64 501.71,-80.44"/>
<polygon fill="#63b8ff" stroke="#63b8ff" points="499.16,-76.33 503.71,-79.39 499.84,-77.42 501.8,-80.58 501.8,-80.58 501.8,-80.58 499.84,-77.42 499.89,-81.77 499.16,-76.33"/>
</a>
</g>
</g>
<!-- Node9 -->
<g id="Node000009" class="node">
<title>Node9</title>
<g id="a_Node000009"><a xlink:href="../../dc/dba/namespacenpi_1_1app.html#a30b5245afa890e98f19f43c58f29e633" target="_top" xlink:title="Windows native fatal error message box.">
<polygon fill="white" stroke="none" points="792,-85.88 608,-85.88 608,-66.62 792,-66.62 792,-85.88"/>
<text xml:space="preserve" text-anchor="middle" x="700" y="-71.42" font-family="Consolas" font-size="11.00">npi::app::nativeFatalMessage</text>
</a>
</g>
</g>
<!-- Node8&#45;&gt;Node9 -->
<g id="edge15_Node000008_Node000009" class="edge">
<title>Node8&#45;&gt;Node9</title>
<g id="a_edge15_Node000008_Node000009"><a xlink:title=" ">
<path fill="none" stroke="#63b8ff" d="M550.91,-66.46C567.71,-67.57 585.25,-68.73 602.13,-69.85"/>
<polygon fill="#63b8ff" stroke="#63b8ff" points="607.11,-70.17 601.97,-72.09 605.83,-70.09 602.12,-69.84 602.12,-69.84 602.12,-69.84 605.83,-70.09 602.27,-67.6 607.11,-70.17"/>
</a>
</g>
</g>
<!-- Node10 -->
<g id="Node000010" class="node">
<title>Node10</title>
<g id="a_Node000010"><a xlink:href="../../dd/df2/namespaceanonymous__namespace_02_log_8cpp_03_1_1safe.html#abc25ab769b48a34eb27ff7c789822b7e" target="_top" xlink:title=" ">
<polygon fill="white" stroke="none" points="804,-30.5 596,-30.5 596,0 804,0 804,-30.5"/>
<text xml:space="preserve" text-anchor="start" x="604" y="-16.05" font-family="Consolas" font-size="11.00">anonymous_namespace</text>
<text xml:space="preserve" text-anchor="middle" x="700" y="-4.8" font-family="Consolas" font-size="11.00">{Log::cpp}::safe::win32ErrorText</text>
</a>
</g>
</g>
<!-- Node8&#45;&gt;Node10 -->
<g id="edge16_Node000008_Node000010" class="edge">
<title>Node8&#45;&gt;Node10</title>
<g id="a_edge16_Node000008_Node000010"><a xlink:title=" ">
<path fill="none" stroke="#63b8ff" d="M538.93,-45.02C562.19,-40.69 587.61,-35.96 611.2,-31.58"/>
<polygon fill="#63b8ff" stroke="#63b8ff" points="615.96,-30.69 611.45,-33.82 614.7,-30.93 611.04,-31.61 611.04,-31.61 611.04,-31.61 614.7,-30.93 610.63,-29.39 615.96,-30.69"/>
</a>
</g>
</g>
<!-- Node10&#45;&gt;Node10 -->
<g id="edge17_Node000010_Node000010" class="edge">
<title>Node10&#45;&gt;Node10</title>
<g id="a_edge17_Node000010_Node000010"><a xlink:title=" ">
<path fill="none" stroke="#63b8ff" d="M659.05,-30.3C649.17,-39.62 662.82,-48.5 700,-48.5 730.21,-48.5 744.88,-42.64 744.03,-35.44"/>
<polygon fill="#63b8ff" stroke="#63b8ff" points="741.58,-31.34 746.07,-34.48 742.24,-32.44 744.14,-35.63 744.14,-35.63 744.14,-35.63 742.24,-32.44 742.21,-36.79 741.58,-31.34"/>
</a>
</g>
</g>
<!-- Node11&#45;&gt;Node7 -->
<g id="edge19_Node000011_Node000007" class="edge">
<title>Node11&#45;&gt;Node7</title>
<g id="a_edge19_Node000011_Node000007"><a xlink:title=" ">
<path fill="none" stroke="#63b8ff" d="M559.98,-136.61C572.03,-137.71 584.33,-138.83 596.37,-139.92"/>
<polygon fill="#63b8ff" stroke="#63b8ff" points="601.05,-140.35 595.87,-142.13 599.77,-140.23 596.07,-139.89 596.07,-139.89 596.07,-139.89 599.77,-140.23 596.27,-137.65 601.05,-140.35"/>
</a>
</g>
</g>
<!-- Node11&#45;&gt;Node11 -->
<g id="edge20_Node000011_Node000011" class="edge">
<title>Node11&#45;&gt;Node11</title>
<g id="a_edge20_Node000011_Node000011"><a xlink:title=" ">
<path fill="none" stroke="#63b8ff" d="M413.48,-142.3C403.22,-151.62 417.4,-160.5 456,-160.5 487.36,-160.5 502.6,-154.64 501.71,-147.44"/>
<polygon fill="#63b8ff" stroke="#63b8ff" points="499.16,-143.33 503.71,-146.39 499.84,-144.42 501.8,-147.58 501.8,-147.58 501.8,-147.58 499.84,-144.42 499.89,-148.77 499.16,-143.33"/>
</a>
</g>
</g>
</g>
</svg>

<g id="navigator" transform="translate(0 0)" fill="#404254">
  <rect fill="#f2f5e9" fill-opacity="0.5" stroke="#606060" stroke-width=".5" x="0" y="0" width="60" height="60"/>
  <use id="zoomplus" xlink:href="#zoomPlus" x="17" y="9" onmousedown="handleZoom(evt,'in')"/>
  <use id="zoomminus" xlink:href="#zoomMin" x="42" y="9" onmousedown="handleZoom(evt,'out')"/>
  <use id="reset" xlink:href="#resetDef" x="30" y="36" onmousedown="handleReset()"/>
   <use id="arrowup" xlink:href="#arrowUp" x="0" y="0" onmousedown="handlePan(0,-1)"/>
  <use id="arrowright" xlink:href="#arrowRight" x="0" y="0" onmousedown="handlePan(1,0)"/>
  <use id="arrowdown" xlink:href="#arrowDown" x="0" y="0" onmousedown="handlePan(0,1)"/>
  <use id="arrowleft" xlink:href="#arrowLeft" x="0" y="0" onmousedown="handlePan(-1,0)"/>
</g>
<svg viewBox="0 0 15 15" width="100%" height="30px" preserveAspectRatio="xMaxYMin meet">
 <g id="arrow_out" transform="scale(0.3 0.3)">
  <a xlink:href="namespaceanonymous__namespace_02_log_8cpp_03_1_1safe_a05dd8955535418321e297dbbc885a56d_cgraph_org.svg" target="_base">
   <rect id="button" ry="5" rx="5" y="6" x="6" height="38" width="38"
        fill="#f2f5e9" fill-opacity="0.5" stroke="#606060" stroke-width="1.0"/>
   <path id="arrow"
     d="M 11.500037,31.436501 C 11.940474,20.09759 22.043105,11.32322 32.158766,21.979434 L 37.068811,17.246167 C 37.068811,17.246167 37.088388,32 37.088388,32 L 22.160133,31.978069 C 22.160133,31.978069 26.997745,27.140456 26.997745,27.140456 C 18.528582,18.264221 13.291696,25.230495 11.500037,31.436501 z"
     style="fill:#404040;"/>
  </a>
 </g>
</svg>

<style type='text/css'>
<![CDATA[
[data-mouse-over-selected='false'] { opacity: 0.7; }
[data-mouse-over-selected='true']  { opacity: 1.0; }
]]>
</style>
<script type="application/ecmascript"><![CDATA[
document.addEventListener('DOMContentLoaded', (event) => {
  highlightEdges();
  highlightAdjacentNodes();
});
]]></script>
</svg>
