<?xml version="1.0" encoding="UTF-8" standalone="no"?>
<!DOCTYPE svg PUBLIC "-//W3C//DTD SVG 1.1//EN"
 "http://www.w3.org/Graphics/SVG/1.1/DTD/svg11.dtd">
<!-- Generated by graphviz version 14.0.0 (20250921.2048)
 -->
<!-- Title: anonymous_namespace{Log::cpp}::safe::win32LastError Pages: 1 -->
<svg width="574pt" height="57pt"
 viewBox="0.00 0.00 574.00 57.00" xmlns="http://www.w3.org/2000/svg" xmlns:xlink="http://www.w3.org/1999/xlink">
<g id="graph0" class="graph" transform="scale(1 1) rotate(0) translate(4 52.5)">
<title>anonymous_namespace{Log::cpp}::safe::win32LastError</title>
<!-- Node1 -->
<g id="Node000001" class="node">
<title>Node1</title>
<g id="a_Node000001"><a xlink:title=" ">
<polygon fill="#999999" stroke="none" points="322,-24.88 0,-24.88 0,-5.62 322,-5.62 322,-24.88"/>
<text xml:space="preserve" text-anchor="start" x="8" y="-11.43" font-family="Consolas" font-weight="bold" font-size="11.00">anonymous_namespace{Log::cpp}::safe::win32LastError</text>
</a>
</g>
</g>
<!-- Node1&#45;&gt;Node1 -->
<g id="edge3_Node000001_Node000001" class="edge">
<title>Node1&#45;&gt;Node1</title>
<g id="a_edge3_Node000001_Node000001"><a xlink:title=" ">
<path fill="none" stroke="#63b8ff" d="M114.98,-24.73C91.87,-33.46 107.21,-42.88 161,-42.88 209.75,-42.88 226.92,-35.15 212.5,-27.2"/>
<polygon fill="#63b8ff" stroke="#63b8ff" points="208.13,-25.23 213.61,-25.23 209.3,-25.76 212.69,-27.28 212.69,-27.28 212.69,-27.28 209.3,-25.76 211.77,-29.33 208.13,-25.23"/>
</a>
</g>
</g>
<!-- Node2 -->
<g id="Node000002" class="node">
<title>Node2</title>
<g id="a_Node000002"><a xlink:href="../../dd/df2/namespaceanonymous__namespace_02_log_8cpp_03_1_1safe.html#abc25ab769b48a34eb27ff7c789822b7e" target="_top" xlink:title=" ">
<polygon fill="white" stroke="none" points="566,-30.5 358,-30.5 358,0 566,0 566,-30.5"/>
<text xml:space="preserve" text-anchor="start" x="366" y="-16.05" font-family="Consolas" font-size="11.00">anonymous_namespace</text>
<text xml:space="preserve" text-anchor="middle" x="462" y="-4.8" font-family="Consolas" font-size="11.00">{Log::cpp}::safe::win32ErrorText</text>
</a>
</g>
</g>
<!-- Node1&#45;&gt;Node2 -->
<g id="edge1_Node000001_Node000002" class="edge">
<title>Node1&#45;&gt;Node2</title>
<g id="a_edge1_Node000001_Node000002"><a xlink:title=" ">
<path fill="none" stroke="#63b8ff" d="M321.57,-15.25C331.82,-15.25 342.02,-15.25 351.95,-15.25"/>
<polygon fill="#63b8ff" stroke="#63b8ff" points="356.88,-15.25 351.88,-17.5 355.6,-15.25 351.88,-15.25 351.88,-15.25 351.88,-15.25 355.6,-15.25 351.88,-13 356.88,-15.25"/>
</a>
</g>
</g>
<!-- Node2&#45;&gt;Node2 -->
<g id="edge2_Node000002_Node000002" class="edge">
<title>Node2&#45;&gt;Node2</title>
<g id="a_edge2_Node000002_Node000002"><a xlink:title=" ">
<path fill="none" stroke="#63b8ff" d="M409.54,-30.3C396.9,-39.62 414.38,-48.5 462,-48.5 501.43,-48.5 520.2,-42.41 518.31,-35.02"/>
<polygon fill="#63b8ff" stroke="#63b8ff" points="515.23,-31.24 520.13,-33.7 516.03,-32.23 518.38,-35.12 518.38,-35.12 518.38,-35.12 516.03,-32.23 516.64,-36.54 515.23,-31.24"/>
</a>
</g>
</g>
</g>
</svg>
