<?xml version="1.0" encoding="UTF-8" standalone="no"?>
<!DOCTYPE svg PUBLIC "-//W3C//DTD SVG 1.1//EN"
 "http://www.w3.org/Graphics/SVG/1.1/DTD/svg11.dtd">
<!-- Generated by graphviz version 14.0.0 (20250921.2048)
 -->
<!-- Title: anonymous_namespace{Log::cpp}::safe::appendLvl Pages: 1 -->
<svg width="1060pt" height="62pt"
 viewBox="0.00 0.00 1060.00 62.00" xmlns="http://www.w3.org/2000/svg" xmlns:xlink="http://www.w3.org/1999/xlink">
<g id="graph0" class="graph" transform="scale(1 1) rotate(0) translate(4 58.12)">
<title>anonymous_namespace{Log::cpp}::safe::appendLvl</title>
<!-- Node1 -->
<g id="Node000001" class="node">
<title>Node1</title>
<g id="a_Node000001"><a xlink:title=" ">
<polygon fill="#999999" stroke="none" points="1052,-30.5 760,-30.5 760,-11.25 1052,-11.25 1052,-30.5"/>
<text xml:space="preserve" text-anchor="start" x="768" y="-17.05" font-family="Consolas" font-weight="bold" font-size="11.00">anonymous_namespace{Log::cpp}::safe::appendLvl</text>
</a>
</g>
</g>
<!-- Node1&#45;&gt;Node1 -->
<g id="edge1_Node000001_Node000001" class="edge">
<title>Node1&#45;&gt;Node1</title>
<g id="a_edge1_Node000001_Node000001"><a xlink:title=" ">
<path fill="none" stroke="#63b8ff" d="M953.22,-33.03C965.73,-40.9 949.99,-48.5 906,-48.5 857.03,-48.5 843.07,-39.09 864.11,-30.36"/>
<polygon fill="#63b8ff" stroke="#63b8ff" points="948.98,-30.9 954.46,-31.13 950.12,-31.48 953.45,-33.14 953.45,-33.14 953.45,-33.14 950.12,-31.48 952.44,-35.16 948.98,-30.9"/>
</a>
</g>
</g>
<!-- Node2 -->
<g id="Node000002" class="node">
<title>Node2</title>
<g id="a_Node000002"><a xlink:href="../../dd/df2/namespaceanonymous__namespace_02_log_8cpp_03_1_1safe.html#a460f691136cced36ea40b2595c18d0a8" target="_top" xlink:title=" ">
<polygon fill="white" stroke="none" points="724,-36.12 540,-36.12 540,-5.63 724,-5.63 724,-36.12"/>
<text xml:space="preserve" text-anchor="start" x="548" y="-21.68" font-family="Consolas" font-size="11.00">anonymous_namespace</text>
<text xml:space="preserve" text-anchor="middle" x="632" y="-10.43" font-family="Consolas" font-size="11.00">{Log::cpp}::safe::msgHandler</text>
</a>
</g>
</g>
<!-- Node1&#45;&gt;Node2 -->
<g id="edge2_Node000001_Node000002" class="edge">
<title>Node1&#45;&gt;Node2</title>
<g id="a_edge2_Node000001_Node000002"><a xlink:title=" ">
<path fill="none" stroke="#63b8ff" d="M754.13,-20.88C743.77,-20.88 733.53,-20.88 723.65,-20.88"/>
<polygon fill="#63b8ff" stroke="#63b8ff" points="759.02,-20.88 754.02,-23.13 757.74,-20.88 754.02,-20.88 754.02,-20.88 754.02,-20.88 757.74,-20.88 754.02,-18.63 759.02,-20.88"/>
</a>
</g>
</g>
<!-- Node2&#45;&gt;Node2 -->
<g id="edge3_Node000002_Node000002" class="edge">
<title>Node2&#45;&gt;Node2</title>
<g id="a_edge3_Node000002_Node000002"><a xlink:title=" ">
<path fill="none" stroke="#63b8ff" d="M668.18,-41.48C668.39,-48.49 656.33,-54.12 632,-54.12 601.47,-54.12 590.26,-45.25 598.37,-35.92"/>
<polygon fill="#63b8ff" stroke="#63b8ff" points="666.14,-37.03 670.27,-40.63 666.68,-38.19 668.23,-41.57 668.23,-41.57 668.23,-41.57 666.68,-38.19 666.18,-42.51 666.14,-37.03"/>
</a>
</g>
</g>
<!-- Node3 -->
<g id="Node000003" class="node">
<title>Node3</title>
<g id="a_Node000003"><a xlink:href="../../d0/d61/classanonymous__namespace_02_log_8cpp_03_1_1_log_core.html#ac83f155438d4a0447ac048d50c7b1a47" target="_top" xlink:title=" ">
<polygon fill="white" stroke="none" points="504,-41.75 374,-41.75 374,0 504,0 504,-41.75"/>
<text xml:space="preserve" text-anchor="start" x="382" y="-27.3" font-family="Consolas" font-size="11.00">anonymous_namespace</text>
<text xml:space="preserve" text-anchor="start" x="382" y="-16.05" font-family="Consolas" font-size="11.00">{Log::cpp}::LogCore</text>
<text xml:space="preserve" text-anchor="middle" x="439" y="-4.8" font-family="Consolas" font-size="11.00">::msgHandler_</text>
</a>
</g>
</g>
<!-- Node2&#45;&gt;Node3 -->
<g id="edge4_Node000002_Node000003" class="edge">
<title>Node2&#45;&gt;Node3</title>
<g id="a_edge4_Node000002_Node000003"><a xlink:title=" ">
<path fill="none" stroke="#63b8ff" d="M534.19,-20.88C523.88,-20.88 513.59,-20.88 503.8,-20.88"/>
<polygon fill="#63b8ff" stroke="#63b8ff" points="539.04,-20.88 534.04,-23.13 537.75,-20.88 534.04,-20.88 534.04,-20.88 534.04,-20.88 537.75,-20.88 534.04,-18.63 539.04,-20.88"/>
</a>
</g>
</g>
<!-- Node4 -->
<g id="Node000004" class="node">
<title>Node4</title>
<g id="a_Node000004"><a xlink:href="../../dc/d8e/namespaceanonymous__namespace_02_log_8cpp_03.html#a0c2edb98e44610adcc75724bbf4edfb8" target="_top" xlink:title=" ">
<polygon fill="white" stroke="none" points="338,-36.12 190,-36.12 190,-5.63 338,-5.63 338,-36.12"/>
<text xml:space="preserve" text-anchor="start" x="198" y="-21.68" font-family="Consolas" font-size="11.00">anonymous_namespace</text>
<text xml:space="preserve" text-anchor="middle" x="264" y="-10.43" font-family="Consolas" font-size="11.00">{Log::cpp}::msgHandler</text>
</a>
</g>
</g>
<!-- Node3&#45;&gt;Node4 -->
<g id="edge5_Node000003_Node000004" class="edge">
<title>Node3&#45;&gt;Node4</title>
<g id="a_edge5_Node000003_Node000004"><a xlink:title=" ">
<path fill="none" stroke="#63b8ff" d="M367.92,-20.88C357.97,-20.88 347.71,-20.88 337.71,-20.88"/>
<polygon fill="#63b8ff" stroke="#63b8ff" points="372.85,-20.88 367.85,-23.13 371.57,-20.88 367.85,-20.88 367.85,-20.88 367.85,-20.88 371.57,-20.88 367.85,-18.63 372.85,-20.88"/>
</a>
</g>
</g>
<!-- Node5 -->
<g id="Node000005" class="node">
<title>Node5</title>
<g id="a_Node000005"><a xlink:href="../../dc/d8e/namespaceanonymous__namespace_02_log_8cpp_03.html#a7a82c11accb191c2f06849f6d13db39a" target="_top" xlink:title=" ">
<polygon fill="white" stroke="none" points="154,-36.12 0,-36.12 0,-5.63 154,-5.63 154,-36.12"/>
<text xml:space="preserve" text-anchor="start" x="8" y="-21.68" font-family="Consolas" font-size="11.00">anonymous_namespace</text>
<text xml:space="preserve" text-anchor="middle" x="77" y="-10.43" font-family="Consolas" font-size="11.00">{Log::cpp}::initLogging</text>
</a>
</g>
</g>
<!-- Node4&#45;&gt;Node5 -->
<g id="edge6_Node000004_Node000005" class="edge">
<title>Node4&#45;&gt;Node5</title>
<g id="a_edge6_Node000004_Node000005"><a xlink:title=" ">
<path fill="none" stroke="#63b8ff" d="M183.96,-20.88C173.97,-20.88 163.77,-20.88 153.83,-20.88"/>
<polygon fill="#63b8ff" stroke="#63b8ff" points="188.93,-20.88 183.93,-23.13 187.65,-20.88 183.93,-20.88 183.93,-20.88 183.93,-20.88 187.65,-20.88 183.93,-18.63 188.93,-20.88"/>
</a>
</g>
</g>
</g>
</svg>
