<?xml version="1.0" encoding="UTF-8" standalone="no"?>
<!DOCTYPE svg PUBLIC "-//W3C//DTD SVG 1.1//EN"
 "http://www.w3.org/Graphics/SVG/1.1/DTD/svg11.dtd">
<!-- Generated by graphviz version 14.0.0 (20250921.2048)
 -->
<!-- Title: anonymous_namespace{Log::cpp}::safe::installCrashHandlers Pages: 1 -->
<svg width="1336pt" height="536pt"
 viewBox="0.00 0.00 1336.00 536.00" xmlns="http://www.w3.org/2000/svg" xmlns:xlink="http://www.w3.org/1999/xlink">
<g id="graph0" class="graph" transform="scale(1 1) rotate(0) translate(4 531.5)">
<title>anonymous_namespace{Log::cpp}::safe::installCrashHandlers</title>
<!-- Node1 -->
<g id="Node000001" class="node">
<title>Node1</title>
<g id="a_Node000001"><a xlink:title=" ">
<polygon fill="#999999" stroke="none" points="358,-230.88 0,-230.88 0,-211.62 358,-211.62 358,-230.88"/>
<text xml:space="preserve" text-anchor="start" x="8" y="-217.43" font-family="Consolas" font-weight="bold" font-size="11.00">anonymous_namespace{Log::cpp}::safe::installCrashHandlers</text>
</a>
</g>
</g>
<!-- Node1&#45;&gt;Node1 -->
<g id="edge1_Node000001_Node000001" class="edge">
<title>Node1&#45;&gt;Node1</title>
<g id="a_edge1_Node000001_Node000001"><a xlink:title=" ">
<path fill="none" stroke="#63b8ff" d="M129.31,-230.73C104.36,-239.46 120.92,-248.88 179,-248.88 232.09,-248.88 250.49,-241.01 234.2,-232.99"/>
<polygon fill="#63b8ff" stroke="#63b8ff" points="229.81,-231.2 235.29,-231.01 231,-231.68 234.44,-233.09 234.44,-233.09 234.44,-233.09 231,-231.68 233.59,-235.17 229.81,-231.2"/>
</a>
</g>
</g>
<!-- Node2 -->
<g id="Node000002" class="node">
<title>Node2</title>
<g id="a_Node000002"><a xlink:href="../../dd/df2/namespaceanonymous__namespace_02_log_8cpp_03_1_1safe.html#a110b11e90b5bb8ae5c8a1521e33eec21" target="_top" xlink:title=" ">
<polygon fill="white" stroke="none" points="602,-398.12 406,-398.12 406,-356.38 602,-356.38 602,-398.12"/>
<text xml:space="preserve" text-anchor="start" x="414" y="-383.68" font-family="Consolas" font-size="11.00">anonymous_namespace</text>
<text xml:space="preserve" text-anchor="start" x="414" y="-372.43" font-family="Consolas" font-size="11.00">{Log::cpp}::safe::invalidParam</text>
<text xml:space="preserve" text-anchor="middle" x="504" y="-361.18" font-family="Consolas" font-size="11.00">Handler</text>
</a>
</g>
</g>
<!-- Node1&#45;&gt;Node2 -->
<g id="edge2_Node000001_Node000002" class="edge">
<title>Node1&#45;&gt;Node2</title>
<g id="a_edge2_Node000001_Node000002"><a xlink:title=" ">
<path fill="none" stroke="#63b8ff" d="M196.3,-230.82C231.63,-251.36 318.19,-300.61 394,-335.25 408.54,-341.89 424.46,-348.43 439.53,-354.29"/>
<polygon fill="#63b8ff" stroke="#63b8ff" points="443.9,-355.98 438.43,-356.28 442.71,-355.52 439.24,-354.18 439.24,-354.18 439.24,-354.18 442.71,-355.52 440.05,-352.08 443.9,-355.98"/>
</a>
</g>
</g>
<!-- Node12 -->
<g id="Node000012" class="node">
<title>Node12</title>
<g id="a_Node000012"><a xlink:href="../../dd/df2/namespaceanonymous__namespace_02_log_8cpp_03_1_1safe.html#a2ccdd616a9266b8ac0b03f18feb92c0a" target="_top" xlink:title=" ">
<polygon fill="white" stroke="none" points="590,-164.12 418,-164.12 418,-122.38 590,-122.38 590,-164.12"/>
<text xml:space="preserve" text-anchor="start" x="426" y="-149.68" font-family="Consolas" font-size="11.00">anonymous_namespace</text>
<text xml:space="preserve" text-anchor="start" x="426" y="-138.43" font-family="Consolas" font-size="11.00">{Log::cpp}::safe::pureCall</text>
<text xml:space="preserve" text-anchor="middle" x="504" y="-127.17" font-family="Consolas" font-size="11.00">Handler</text>
</a>
</g>
</g>
<!-- Node1&#45;&gt;Node12 -->
<g id="edge22_Node000001_Node000012" class="edge">
<title>Node1&#45;&gt;Node12</title>
<g id="a_edge22_Node000001_Node000012"><a xlink:title=" ">
<path fill="none" stroke="#63b8ff" d="M219.61,-211.69C267.35,-200.16 349.09,-180.42 412.55,-165.09"/>
<polygon fill="#63b8ff" stroke="#63b8ff" points="417.06,-164 412.72,-167.37 415.81,-164.3 412.2,-165.18 412.2,-165.18 412.2,-165.18 415.81,-164.3 411.67,-162.99 417.06,-164"/>
</a>
</g>
</g>
<!-- Node13 -->
<g id="Node000013" class="node">
<title>Node13</title>
<g id="a_Node000013"><a xlink:href="../../dd/df2/namespaceanonymous__namespace_02_log_8cpp_03_1_1safe.html#a05dd8955535418321e297dbbc885a56d" target="_top" xlink:title=" ">
<polygon fill="white" stroke="none" points="605,-308.5 403,-308.5 403,-278 605,-278 605,-308.5"/>
<text xml:space="preserve" text-anchor="start" x="411" y="-294.05" font-family="Consolas" font-size="11.00">anonymous_namespace</text>
<text xml:space="preserve" text-anchor="middle" x="504" y="-282.8" font-family="Consolas" font-size="11.00">{Log::cpp}::safe::signalHandler</text>
</a>
</g>
</g>
<!-- Node1&#45;&gt;Node13 -->
<g id="edge27_Node000001_Node000013" class="edge">
<title>Node1&#45;&gt;Node13</title>
<g id="a_edge27_Node000001_Node000013"><a xlink:title=" ">
<path fill="none" stroke="#63b8ff" d="M222.62,-230.86C265.8,-240.59 334.53,-256.03 394,-269.25 404.95,-271.68 416.53,-274.25 427.88,-276.75"/>
<polygon fill="#63b8ff" stroke="#63b8ff" points="432.61,-277.79 427.24,-278.91 431.36,-277.52 427.72,-276.72 427.72,-276.72 427.72,-276.72 431.36,-277.52 428.21,-274.52 432.61,-277.79"/>
</a>
</g>
</g>
<!-- Node15 -->
<g id="Node000015" class="node">
<title>Node15</title>
<g id="a_Node000015"><a xlink:href="../../dd/df2/namespaceanonymous__namespace_02_log_8cpp_03_1_1safe.html#ad3395aac6f72b3cacf47edce1bffd16d" target="_top" xlink:title=" ">
<polygon fill="white" stroke="none" points="593,-242.12 415,-242.12 415,-200.38 593,-200.38 593,-242.12"/>
<text xml:space="preserve" text-anchor="start" x="423" y="-227.68" font-family="Consolas" font-size="11.00">anonymous_namespace</text>
<text xml:space="preserve" text-anchor="start" x="423" y="-216.43" font-family="Consolas" font-size="11.00">{Log::cpp}::safe::terminate</text>
<text xml:space="preserve" text-anchor="middle" x="504" y="-205.18" font-family="Consolas" font-size="11.00">Handler</text>
</a>
</g>
</g>
<!-- Node1&#45;&gt;Node15 -->
<g id="edge36_Node000001_Node000015" class="edge">
<title>Node1&#45;&gt;Node15</title>
<g id="a_edge36_Node000001_Node000015"><a xlink:title=" ">
<path fill="none" stroke="#63b8ff" d="M357.56,-221.25C375.32,-221.25 392.81,-221.25 409.18,-221.25"/>
<polygon fill="#63b8ff" stroke="#63b8ff" points="413.93,-221.25 408.93,-223.5 412.65,-221.25 408.93,-221.25 408.93,-221.25 408.93,-221.25 412.65,-221.25 408.93,-219 413.93,-221.25"/>
</a>
</g>
</g>
<!-- Node16 -->
<g id="Node000016" class="node">
<title>Node16</title>
<g id="a_Node000016"><a xlink:href="../../dd/df2/namespaceanonymous__namespace_02_log_8cpp_03_1_1safe.html#a2fc634cd009955d042c53cb5f5eebcb5" target="_top" xlink:title=" ">
<polygon fill="white" stroke="none" points="614,-86.12 394,-86.12 394,-44.38 614,-44.38 614,-86.12"/>
<text xml:space="preserve" text-anchor="start" x="402" y="-71.67" font-family="Consolas" font-size="11.00">anonymous_namespace</text>
<text xml:space="preserve" text-anchor="start" x="402" y="-60.42" font-family="Consolas" font-size="11.00">{Log::cpp}::safe::windowsException</text>
<text xml:space="preserve" text-anchor="middle" x="504" y="-49.17" font-family="Consolas" font-size="11.00">Filter</text>
</a>
</g>
</g>
<!-- Node1&#45;&gt;Node16 -->
<g id="edge41_Node000001_Node000016" class="edge">
<title>Node1&#45;&gt;Node16</title>
<g id="a_edge41_Node000001_Node000016"><a xlink:title=" ">
<path fill="none" stroke="#63b8ff" d="M198.16,-211.68C234.86,-192.42 320.62,-147.9 394,-113.25 411.71,-104.89 431.23,-96.15 448.8,-88.45"/>
<polygon fill="#63b8ff" stroke="#63b8ff" points="453.07,-86.58 449.39,-90.64 451.9,-87.09 448.49,-88.58 448.49,-88.58 448.49,-88.58 451.9,-87.09 447.59,-86.52 453.07,-86.58"/>
</a>
</g>
</g>
<!-- Node2&#45;&gt;Node2 -->
<g id="edge21_Node000002_Node000002" class="edge">
<title>Node2&#45;&gt;Node2</title>
<g id="a_edge21_Node000002_Node000002"><a xlink:title=" ">
<path fill="none" stroke="#63b8ff" d="M458.05,-398.05C453.04,-407.7 468.36,-416.12 504,-416.12 531.85,-416.12 547.29,-410.98 550.32,-404.13"/>
<polygon fill="#63b8ff" stroke="#63b8ff" points="550.02,-399.26 552.57,-404.12 550.1,-400.54 550.33,-404.25 550.33,-404.25 550.33,-404.25 550.1,-400.54 548.08,-404.39 550.02,-399.26"/>
</a>
</g>
</g>
<!-- Node3 -->
<g id="Node000003" class="node">
<title>Node3</title>
<g id="a_Node000003"><a xlink:href="../../dd/df2/namespaceanonymous__namespace_02_log_8cpp_03_1_1safe.html#a65353ac3c8d675a9a827bed9e11acc17" target="_top" xlink:title=" ">
<polygon fill="white" stroke="none" points="1087,-509.5 909,-509.5 909,-479 1087,-479 1087,-509.5"/>
<text xml:space="preserve" text-anchor="start" x="917" y="-495.05" font-family="Consolas" font-size="11.00">anonymous_namespace</text>
<text xml:space="preserve" text-anchor="middle" x="998" y="-483.8" font-family="Consolas" font-size="11.00">{Log::cpp}::safe::appendChr</text>
</a>
</g>
</g>
<!-- Node2&#45;&gt;Node3 -->
<g id="edge3_Node000002_Node000003" class="edge">
<title>Node2&#45;&gt;Node3</title>
<g id="a_edge3_Node000002_Node000003"><a xlink:title=" ">
<path fill="none" stroke="#63b8ff" d="M526.99,-397.84C553.73,-421.41 601.33,-458.88 650,-475.25 732.32,-502.94 831.78,-505.5 903.08,-502.43"/>
<polygon fill="#63b8ff" stroke="#63b8ff" points="907.8,-502.22 902.91,-504.69 906.52,-502.27 902.81,-502.44 902.81,-502.44 902.81,-502.44 906.52,-502.27 902.71,-500.2 907.8,-502.22"/>
</a>
</g>
</g>
<!-- Node5 -->
<g id="Node000005" class="node">
<title>Node5</title>
<g id="a_Node000005"><a xlink:href="../../dd/df2/namespaceanonymous__namespace_02_log_8cpp_03_1_1safe.html#a0b4f620e950ef2e9f44027327f4bd27f" target="_top" xlink:title=" ">
<polygon fill="white" stroke="none" points="843,-448.5 665,-448.5 665,-418 843,-418 843,-448.5"/>
<text xml:space="preserve" text-anchor="start" x="673" y="-434.05" font-family="Consolas" font-size="11.00">anonymous_namespace</text>
<text xml:space="preserve" text-anchor="middle" x="754" y="-422.8" font-family="Consolas" font-size="11.00">{Log::cpp}::safe::appendDec</text>
</a>
</g>
</g>
<!-- Node2&#45;&gt;Node5 -->
<g id="edge7_Node000002_Node000005" class="edge">
<title>Node2&#45;&gt;Node5</title>
<g id="a_edge7_Node000002_Node000005"><a xlink:title=" ">
<path fill="none" stroke="#63b8ff" d="M597.35,-398.1C624.62,-404.26 654.08,-410.91 679.95,-416.76"/>
<polygon fill="#63b8ff" stroke="#63b8ff" points="684.57,-417.8 679.2,-418.89 683.32,-417.52 679.69,-416.7 679.69,-416.7 679.69,-416.7 683.32,-417.52 680.19,-414.5 684.57,-417.8"/>
</a>
</g>
</g>
<!-- Node7 -->
<g id="Node000007" class="node">
<title>Node7</title>
<g id="a_Node000007"><a xlink:href="../../dd/df2/namespaceanonymous__namespace_02_log_8cpp_03_1_1safe.html#aa8d11c260254c761c7437280b4284d17" target="_top" xlink:title=" ">
<polygon fill="white" stroke="none" points="843,-239.5 665,-239.5 665,-209 843,-209 843,-239.5"/>
<text xml:space="preserve" text-anchor="start" x="673" y="-225.05" font-family="Consolas" font-size="11.00">anonymous_namespace</text>
<text xml:space="preserve" text-anchor="middle" x="754" y="-213.8" font-family="Consolas" font-size="11.00">{Log::cpp}::safe::appendTxt</text>
</a>
</g>
</g>
<!-- Node2&#45;&gt;Node7 -->
<g id="edge11_Node000002_Node000007" class="edge">
<title>Node2&#45;&gt;Node7</title>
<g id="a_edge11_Node000002_Node000007"><a xlink:title=" ">
<path fill="none" stroke="#63b8ff" d="M580.3,-356.48C592.44,-350.91 604.22,-343.93 614,-335.25 639.58,-312.55 624.74,-290.3 650,-267.25 661.92,-256.37 676.98,-248.02 691.88,-241.71"/>
<polygon fill="#63b8ff" stroke="#63b8ff" points="696.23,-239.93 692.45,-243.9 695.05,-240.41 691.6,-241.82 691.6,-241.82 691.6,-241.82 695.05,-240.41 690.75,-239.74 696.23,-239.93"/>
</a>
</g>
</g>
<!-- Node8 -->
<g id="Node000008" class="node">
<title>Node8</title>
<g id="a_Node000008"><a xlink:href="../../dd/df2/namespaceanonymous__namespace_02_log_8cpp_03_1_1safe.html#aee2abc51c02c7af63c137ba0ea58c71a" target="_top" xlink:title=" ">
<polygon fill="white" stroke="none" points="1096,-306.5 900,-306.5 900,-276 1096,-276 1096,-306.5"/>
<text xml:space="preserve" text-anchor="start" x="908" y="-292.05" font-family="Consolas" font-size="11.00">anonymous_namespace</text>
<text xml:space="preserve" text-anchor="middle" x="998" y="-280.8" font-family="Consolas" font-size="11.00">{Log::cpp}::safe::hardFailFast</text>
</a>
</g>
</g>
<!-- Node2&#45;&gt;Node8 -->
<g id="edge14_Node000002_Node000008" class="edge">
<title>Node2&#45;&gt;Node8</title>
<g id="a_edge14_Node000002_Node000008"><a xlink:title=" ">
<path fill="none" stroke="#63b8ff" d="M601.89,-379.24C673.61,-378.59 773.15,-373.2 858,-352.25 896.26,-342.8 937.25,-323.58 964.72,-309.22"/>
<polygon fill="#63b8ff" stroke="#63b8ff" points="968.96,-306.99 965.58,-311.31 967.82,-307.59 964.53,-309.32 964.53,-309.32 964.53,-309.32 967.82,-307.59 963.48,-307.33 968.96,-306.99"/>
</a>
</g>
</g>
<!-- Node9 -->
<g id="Node000009" class="node">
<title>Node9</title>
<g id="a_Node000009"><a xlink:href="../../dd/df2/namespaceanonymous__namespace_02_log_8cpp_03_1_1safe.html#a97522aab6ec53ce2693cf4a5432927bf" target="_top" xlink:title=" ">
<polygon fill="white" stroke="none" points="849,-97.5 659,-97.5 659,-67 849,-67 849,-97.5"/>
<text xml:space="preserve" text-anchor="start" x="667" y="-83.05" font-family="Consolas" font-size="11.00">anonymous_namespace</text>
<text xml:space="preserve" text-anchor="middle" x="754" y="-71.8" font-family="Consolas" font-size="11.00">{Log::cpp}::safe::impLogWrite</text>
</a>
</g>
</g>
<!-- Node2&#45;&gt;Node9 -->
<g id="edge16_Node000002_Node000009" class="edge">
<title>Node2&#45;&gt;Node9</title>
<g id="a_edge16_Node000002_Node000009"><a xlink:title=" ">
<path fill="none" stroke="#63b8ff" d="M585.64,-356.45C596.25,-350.94 606.14,-344 614,-335.25 655.49,-289.05 620.82,-255.07 650,-200.25 671.08,-160.64 707.78,-123.07 731.2,-101.37"/>
<polygon fill="#63b8ff" stroke="#63b8ff" points="734.8,-98.06 732.64,-103.1 733.86,-98.93 731.12,-101.44 731.12,-101.44 731.12,-101.44 733.86,-98.93 729.59,-99.79 734.8,-98.06"/>
</a>
</g>
</g>
<!-- Node3&#45;&gt;Node3 -->
<g id="edge4_Node000003_Node000003" class="edge">
<title>Node3&#45;&gt;Node3</title>
<g id="a_edge4_Node000003_Node000003"><a xlink:title=" ">
<path fill="none" stroke="#63b8ff" d="M957.05,-509.3C947.17,-518.62 960.82,-527.5 998,-527.5 1028.21,-527.5 1042.88,-521.64 1042.03,-514.44"/>
<polygon fill="#63b8ff" stroke="#63b8ff" points="1039.58,-510.34 1044.07,-513.48 1040.24,-511.44 1042.14,-514.63 1042.14,-514.63 1042.14,-514.63 1040.24,-511.44 1040.21,-515.79 1039.58,-510.34"/>
</a>
</g>
</g>
<!-- Node4 -->
<g id="Node000004" class="node">
<title>Node4</title>
<g id="a_Node000004"><a xlink:href="../../dd/df2/namespaceanonymous__namespace_02_log_8cpp_03_1_1safe.html#a1e4219749cab61533a6faf773fe7cddb" target="_top" xlink:title=" ">
<polygon fill="white" stroke="none" points="1328,-509.5 1138,-509.5 1138,-479 1328,-479 1328,-509.5"/>
<text xml:space="preserve" text-anchor="start" x="1146" y="-495.05" font-family="Consolas" font-size="11.00">anonymous_namespace</text>
<text xml:space="preserve" text-anchor="middle" x="1233" y="-483.8" font-family="Consolas" font-size="11.00">{Log::cpp}::safe::isSpaceChar</text>
</a>
</g>
</g>
<!-- Node3&#45;&gt;Node4 -->
<g id="edge5_Node000003_Node000004" class="edge">
<title>Node3&#45;&gt;Node4</title>
<g id="a_edge5_Node000003_Node000004"><a xlink:title=" ">
<path fill="none" stroke="#63b8ff" d="M1086.76,-494.25C1101.56,-494.25 1117.03,-494.25 1132.11,-494.25"/>
<polygon fill="#63b8ff" stroke="#63b8ff" points="1136.88,-494.25 1131.88,-496.5 1135.6,-494.25 1131.88,-494.25 1131.88,-494.25 1131.88,-494.25 1135.6,-494.25 1131.88,-492 1136.88,-494.25"/>
</a>
</g>
</g>
<!-- Node4&#45;&gt;Node4 -->
<g id="edge6_Node000004_Node000004" class="edge">
<title>Node4&#45;&gt;Node4</title>
<g id="a_edge6_Node000004_Node000004"><a xlink:title=" ">
<path fill="none" stroke="#63b8ff" d="M1192.05,-509.3C1182.17,-518.62 1195.82,-527.5 1233,-527.5 1263.21,-527.5 1277.88,-521.64 1277.03,-514.44"/>
<polygon fill="#63b8ff" stroke="#63b8ff" points="1274.58,-510.34 1279.07,-513.48 1275.24,-511.44 1277.14,-514.63 1277.14,-514.63 1277.14,-514.63 1275.24,-511.44 1275.21,-515.79 1274.58,-510.34"/>
</a>
</g>
</g>
<!-- Node5&#45;&gt;Node5 -->
<g id="edge8_Node000005_Node000005" class="edge">
<title>Node5&#45;&gt;Node5</title>
<g id="a_edge8_Node000005_Node000005"><a xlink:title=" ">
<path fill="none" stroke="#63b8ff" d="M711.48,-448.3C701.22,-457.62 715.4,-466.5 754,-466.5 785.36,-466.5 800.6,-460.64 799.71,-453.44"/>
<polygon fill="#63b8ff" stroke="#63b8ff" points="797.16,-449.33 801.71,-452.39 797.84,-450.42 799.8,-453.58 799.8,-453.58 799.8,-453.58 797.84,-450.42 797.89,-454.77 797.16,-449.33"/>
</a>
</g>
</g>
<!-- Node6 -->
<g id="Node000006" class="node">
<title>Node6</title>
<g id="a_Node000006"><a xlink:href="../../dd/df2/namespaceanonymous__namespace_02_log_8cpp_03_1_1safe.html#ab261e5125e925c910ea977d0ac217ab6" target="_top" xlink:title=" ">
<polygon fill="white" stroke="none" points="1087,-442.5 909,-442.5 909,-412 1087,-412 1087,-442.5"/>
<text xml:space="preserve" text-anchor="start" x="917" y="-428.05" font-family="Consolas" font-size="11.00">anonymous_namespace</text>
<text xml:space="preserve" text-anchor="middle" x="998" y="-416.8" font-family="Consolas" font-size="11.00">{Log::cpp}::safe::decDigits</text>
</a>
</g>
</g>
<!-- Node5&#45;&gt;Node6 -->
<g id="edge9_Node000005_Node000006" class="edge">
<title>Node5&#45;&gt;Node6</title>
<g id="a_edge9_Node000005_Node000006"><a xlink:title=" ">
<path fill="none" stroke="#63b8ff" d="M842.71,-431.08C862.32,-430.59 883.2,-430.07 903.06,-429.58"/>
<polygon fill="#63b8ff" stroke="#63b8ff" points="907.97,-429.46 903.02,-431.83 906.68,-429.49 902.97,-429.58 902.97,-429.58 902.97,-429.58 906.68,-429.49 902.91,-427.33 907.97,-429.46"/>
</a>
</g>
</g>
<!-- Node6&#45;&gt;Node6 -->
<g id="edge10_Node000006_Node000006" class="edge">
<title>Node6&#45;&gt;Node6</title>
<g id="a_edge10_Node000006_Node000006"><a xlink:title=" ">
<path fill="none" stroke="#63b8ff" d="M957.05,-442.3C947.17,-451.62 960.82,-460.5 998,-460.5 1028.21,-460.5 1042.88,-454.64 1042.03,-447.44"/>
<polygon fill="#63b8ff" stroke="#63b8ff" points="1039.58,-443.34 1044.07,-446.48 1040.24,-444.44 1042.14,-447.63 1042.14,-447.63 1042.14,-447.63 1040.24,-444.44 1040.21,-448.79 1039.58,-443.34"/>
</a>
</g>
</g>
<!-- Node7&#45;&gt;Node3 -->
<g id="edge12_Node000007_Node000003" class="edge">
<title>Node7&#45;&gt;Node3</title>
<g id="a_edge12_Node000007_Node000003"><a xlink:title=" ">
<path fill="none" stroke="#63b8ff" d="M818.76,-239.43C833.57,-245.77 847.94,-254.7 858,-267.25 915.05,-338.4 831.54,-402.81 894,-469.25 897.03,-472.48 900.41,-475.32 904.03,-477.82"/>
<polygon fill="#63b8ff" stroke="#63b8ff" points="908.08,-480.37 902.65,-479.61 907,-479.68 903.85,-477.7 903.85,-477.7 903.85,-477.7 907,-479.68 905.05,-475.8 908.08,-480.37"/>
</a>
</g>
</g>
<!-- Node7&#45;&gt;Node7 -->
<g id="edge13_Node000007_Node000007" class="edge">
<title>Node7&#45;&gt;Node7</title>
<g id="a_edge13_Node000007_Node000007"><a xlink:title=" ">
<path fill="none" stroke="#63b8ff" d="M711.48,-239.3C701.22,-248.62 715.4,-257.5 754,-257.5 785.36,-257.5 800.6,-251.64 799.71,-244.44"/>
<polygon fill="#63b8ff" stroke="#63b8ff" points="797.16,-240.33 801.71,-243.39 797.84,-241.42 799.8,-244.58 799.8,-244.58 799.8,-244.58 797.84,-241.42 797.89,-245.77 797.16,-240.33"/>
</a>
</g>
</g>
<!-- Node8&#45;&gt;Node8 -->
<g id="edge15_Node000008_Node000008" class="edge">
<title>Node8&#45;&gt;Node8</title>
<g id="a_edge15_Node000008_Node000008"><a xlink:title=" ">
<path fill="none" stroke="#63b8ff" d="M957.05,-306.3C947.17,-315.62 960.82,-324.5 998,-324.5 1028.21,-324.5 1042.88,-318.64 1042.03,-311.44"/>
<polygon fill="#63b8ff" stroke="#63b8ff" points="1039.58,-307.34 1044.07,-310.48 1040.24,-308.44 1042.14,-311.63 1042.14,-311.63 1042.14,-311.63 1040.24,-308.44 1040.21,-312.79 1039.58,-307.34"/>
</a>
</g>
</g>
<!-- Node9&#45;&gt;Node9 -->
<g id="edge17_Node000009_Node000009" class="edge">
<title>Node9&#45;&gt;Node9</title>
<g id="a_edge17_Node000009_Node000009"><a xlink:title=" ">
<path fill="none" stroke="#63b8ff" d="M711.48,-97.3C701.22,-106.62 715.4,-115.5 754,-115.5 785.36,-115.5 800.6,-109.64 799.71,-102.44"/>
<polygon fill="#63b8ff" stroke="#63b8ff" points="797.16,-98.33 801.71,-101.39 797.84,-99.42 799.8,-102.58 799.8,-102.58 799.8,-102.58 797.84,-99.42 797.89,-103.77 797.16,-98.33"/>
</a>
</g>
</g>
<!-- Node10 -->
<g id="Node000010" class="node">
<title>Node10</title>
<g id="a_Node000010"><a xlink:href="../../dc/dba/namespacenpi_1_1app.html#a30b5245afa890e98f19f43c58f29e633" target="_top" xlink:title="Windows native fatal error message box.">
<polygon fill="white" stroke="none" points="1090,-121.88 906,-121.88 906,-102.62 1090,-102.62 1090,-121.88"/>
<text xml:space="preserve" text-anchor="middle" x="998" y="-107.42" font-family="Consolas" font-size="11.00">npi::app::nativeFatalMessage</text>
</a>
</g>
</g>
<!-- Node9&#45;&gt;Node10 -->
<g id="edge18_Node000009_Node000010" class="edge">
<title>Node9&#45;&gt;Node10</title>
<g id="a_edge18_Node000009_Node000010"><a xlink:title=" ">
<path fill="none" stroke="#63b8ff" d="M848.91,-93.89C870.19,-96.53 892.65,-99.31 913.47,-101.9"/>
<polygon fill="#63b8ff" stroke="#63b8ff" points="918.38,-102.5 913.14,-104.12 917.11,-102.35 913.42,-101.89 913.42,-101.89 913.42,-101.89 917.11,-102.35 913.69,-99.66 918.38,-102.5"/>
</a>
</g>
</g>
<!-- Node11 -->
<g id="Node000011" class="node">
<title>Node11</title>
<g id="a_Node000011"><a xlink:href="../../dd/df2/namespaceanonymous__namespace_02_log_8cpp_03_1_1safe.html#abc25ab769b48a34eb27ff7c789822b7e" target="_top" xlink:title=" ">
<polygon fill="white" stroke="none" points="1102,-66.5 894,-66.5 894,-36 1102,-36 1102,-66.5"/>
<text xml:space="preserve" text-anchor="start" x="902" y="-52.05" font-family="Consolas" font-size="11.00">anonymous_namespace</text>
<text xml:space="preserve" text-anchor="middle" x="998" y="-40.8" font-family="Consolas" font-size="11.00">{Log::cpp}::safe::win32ErrorText</text>
</a>
</g>
</g>
<!-- Node9&#45;&gt;Node11 -->
<g id="edge19_Node000009_Node000011" class="edge">
<title>Node9&#45;&gt;Node11</title>
<g id="a_edge19_Node000009_Node000011"><a xlink:title=" ">
<path fill="none" stroke="#63b8ff" d="M848.91,-70.22C861.81,-68.57 875.15,-66.86 888.29,-65.18"/>
<polygon fill="#63b8ff" stroke="#63b8ff" points="893.11,-64.56 888.43,-67.43 891.84,-64.72 888.15,-65.19 888.15,-65.19 888.15,-65.19 891.84,-64.72 887.86,-62.96 893.11,-64.56"/>
</a>
</g>
</g>
<!-- Node11&#45;&gt;Node11 -->
<g id="edge20_Node000011_Node000011" class="edge">
<title>Node11&#45;&gt;Node11</title>
<g id="a_edge20_Node000011_Node000011"><a xlink:title=" ">
<path fill="none" stroke="#63b8ff" d="M957.05,-66.3C947.17,-75.62 960.82,-84.5 998,-84.5 1028.21,-84.5 1042.88,-78.64 1042.03,-71.44"/>
<polygon fill="#63b8ff" stroke="#63b8ff" points="1039.58,-67.34 1044.07,-70.48 1040.24,-68.44 1042.14,-71.63 1042.14,-71.63 1042.14,-71.63 1040.24,-68.44 1040.21,-72.79 1039.58,-67.34"/>
</a>
</g>
</g>
<!-- Node12&#45;&gt;Node7 -->
<g id="edge23_Node000012_Node000007" class="edge">
<title>Node12&#45;&gt;Node7</title>
<g id="a_edge23_Node000012_Node000007"><a xlink:title=" ">
<path fill="none" stroke="#63b8ff" d="M568.87,-164.11C609.9,-177.51 662.53,-194.7 701.01,-207.27"/>
<polygon fill="#63b8ff" stroke="#63b8ff" points="705.42,-208.71 699.97,-209.3 704.2,-208.31 700.67,-207.16 700.67,-207.16 700.67,-207.16 704.2,-208.31 701.37,-205.02 705.42,-208.71"/>
</a>
</g>
</g>
<!-- Node12&#45;&gt;Node8 -->
<g id="edge24_Node000012_Node000008" class="edge">
<title>Node12&#45;&gt;Node8</title>
<g id="a_edge24_Node000012_Node000008"><a xlink:title=" ">
<path fill="none" stroke="#63b8ff" d="M589.9,-139.01C663.5,-138.35 771.48,-144.77 858,-180.25 908.51,-200.96 955.54,-246 979.81,-271.89"/>
<polygon fill="#63b8ff" stroke="#63b8ff" points="982.97,-275.29 977.92,-273.15 982.09,-274.35 979.57,-271.62 979.57,-271.62 979.57,-271.62 982.09,-274.35 981.22,-270.09 982.97,-275.29"/>
</a>
</g>
</g>
<!-- Node12&#45;&gt;Node9 -->
<g id="edge25_Node000012_Node000009" class="edge">
<title>Node12&#45;&gt;Node9</title>
<g id="a_edge25_Node000012_Node000009"><a xlink:title=" ">
<path fill="none" stroke="#63b8ff" d="M589.65,-122.43C620.83,-114.76 655.71,-106.18 685.21,-98.92"/>
<polygon fill="#63b8ff" stroke="#63b8ff" points="689.85,-97.78 685.53,-101.16 688.61,-98.09 684.99,-98.98 684.99,-98.98 684.99,-98.98 688.61,-98.09 684.46,-96.79 689.85,-97.78"/>
</a>
</g>
</g>
<!-- Node12&#45;&gt;Node12 -->
<g id="edge26_Node000012_Node000012" class="edge">
<title>Node12&#45;&gt;Node12</title>
<g id="a_edge26_Node000012_Node000012"><a xlink:title=" ">
<path fill="none" stroke="#63b8ff" d="M458.05,-164.05C453.04,-173.7 468.36,-182.12 504,-182.12 531.85,-182.12 547.29,-176.98 550.32,-170.13"/>
<polygon fill="#63b8ff" stroke="#63b8ff" points="550.02,-165.26 552.57,-170.12 550.1,-166.54 550.33,-170.25 550.33,-170.25 550.33,-170.25 550.1,-166.54 548.08,-170.39 550.02,-165.26"/>
</a>
</g>
</g>
<!-- Node13&#45;&gt;Node5 -->
<g id="edge28_Node000013_Node000005" class="edge">
<title>Node13&#45;&gt;Node5</title>
<g id="a_edge28_Node000013_Node000005"><a xlink:title=" ">
<path fill="none" stroke="#63b8ff" d="M537.37,-308.3C559.27,-318.72 588.71,-333.2 614,-347.25 653.47,-369.17 697.57,-397.06 725.29,-415.04"/>
<polygon fill="#63b8ff" stroke="#63b8ff" points="729.25,-417.61 723.84,-416.77 728.18,-416.91 725.06,-414.88 725.06,-414.88 725.06,-414.88 728.18,-416.91 726.29,-413 729.25,-417.61"/>
</a>
</g>
</g>
<!-- Node13&#45;&gt;Node7 -->
<g id="edge29_Node000013_Node000007" class="edge">
<title>Node13&#45;&gt;Node7</title>
<g id="a_edge29_Node000013_Node000007"><a xlink:title=" ">
<path fill="none" stroke="#63b8ff" d="M578.82,-278.01C590.63,-275.28 602.69,-272.32 614,-269.25 644.16,-261.07 677.47,-250.34 703.93,-241.41"/>
<polygon fill="#63b8ff" stroke="#63b8ff" points="708.66,-239.81 704.64,-243.55 707.44,-240.22 703.92,-241.42 703.92,-241.42 703.92,-241.42 707.44,-240.22 703.2,-239.29 708.66,-239.81"/>
</a>
</g>
</g>
<!-- Node13&#45;&gt;Node8 -->
<g id="edge30_Node000013_Node000008" class="edge">
<title>Node13&#45;&gt;Node8</title>
<g id="a_edge30_Node000013_Node000008"><a xlink:title=" ">
<path fill="none" stroke="#63b8ff" d="M548.14,-308.44C576.65,-317.65 615.07,-328.52 650,-333.25 741.61,-345.65 766.55,-346.76 858,-333.25 890.25,-328.48 925.38,-317.82 952.26,-308.43"/>
<polygon fill="#63b8ff" stroke="#63b8ff" points="956.71,-306.85 952.75,-310.64 955.5,-307.28 952,-308.52 952,-308.52 952,-308.52 955.5,-307.28 951.25,-306.4 956.71,-306.85"/>
</a>
</g>
</g>
<!-- Node13&#45;&gt;Node9 -->
<g id="edge31_Node000013_Node000009" class="edge">
<title>Node13&#45;&gt;Node9</title>
<g id="a_edge31_Node000013_Node000009"><a xlink:title=" ">
<path fill="none" stroke="#63b8ff" d="M599.86,-278.03C604.86,-275.51 609.61,-272.61 614,-269.25 641.47,-248.23 630.49,-228.81 650,-200.25 675.59,-162.78 711.59,-124.02 733.55,-101.57"/>
<polygon fill="#63b8ff" stroke="#63b8ff" points="736.89,-98.18 734.99,-103.32 735.99,-99.09 733.38,-101.74 733.38,-101.74 733.38,-101.74 735.99,-99.09 731.78,-100.16 736.89,-98.18"/>
</a>
</g>
</g>
<!-- Node13&#45;&gt;Node13 -->
<g id="edge35_Node000013_Node000013" class="edge">
<title>Node13&#45;&gt;Node13</title>
<g id="a_edge35_Node000013_Node000013"><a xlink:title=" ">
<path fill="none" stroke="#63b8ff" d="M460.43,-308.3C449.93,-317.62 464.45,-326.5 504,-326.5 536.14,-326.5 551.75,-320.64 550.84,-313.44"/>
<polygon fill="#63b8ff" stroke="#63b8ff" points="548.22,-309.32 552.8,-312.34 548.91,-310.41 550.9,-313.54 550.9,-313.54 550.9,-313.54 548.91,-310.41 549,-314.75 548.22,-309.32"/>
</a>
</g>
</g>
<!-- Node14 -->
<g id="Node000014" class="node">
<title>Node14</title>
<g id="a_Node000014"><a xlink:href="../../dd/df2/namespaceanonymous__namespace_02_log_8cpp_03_1_1safe.html#aace4c2e1632cdc24f1bf5e597c0f6be6" target="_top" xlink:title=" ">
<polygon fill="white" stroke="none" points="858,-306.5 650,-306.5 650,-276 858,-276 858,-306.5"/>
<text xml:space="preserve" text-anchor="start" x="658" y="-292.05" font-family="Consolas" font-size="11.00">anonymous_namespace</text>
<text xml:space="preserve" text-anchor="middle" x="754" y="-280.8" font-family="Consolas" font-size="11.00">{Log::cpp}::safe::reraiseDefault</text>
</a>
</g>
</g>
<!-- Node13&#45;&gt;Node14 -->
<g id="edge32_Node000013_Node000014" class="edge">
<title>Node13&#45;&gt;Node14</title>
<g id="a_edge32_Node000013_Node000014"><a xlink:title=" ">
<path fill="none" stroke="#63b8ff" d="M604.8,-292.45C617.75,-292.34 631.08,-292.23 644.17,-292.13"/>
<polygon fill="#63b8ff" stroke="#63b8ff" points="648.95,-292.09 643.97,-294.38 647.67,-292.1 643.95,-292.13 643.95,-292.13 643.95,-292.13 647.67,-292.1 643.93,-289.88 648.95,-292.09"/>
</a>
</g>
</g>
<!-- Node14&#45;&gt;Node8 -->
<g id="edge33_Node000014_Node000008" class="edge">
<title>Node14&#45;&gt;Node8</title>
<g id="a_edge33_Node000014_Node000008"><a xlink:title=" ">
<path fill="none" stroke="#63b8ff" d="M857.98,-291.25C870.03,-291.25 882.33,-291.25 894.37,-291.25"/>
<polygon fill="#63b8ff" stroke="#63b8ff" points="899.04,-291.25 894.04,-293.5 897.76,-291.25 894.04,-291.25 894.04,-291.25 894.04,-291.25 897.76,-291.25 894.04,-289 899.04,-291.25"/>
</a>
</g>
</g>
<!-- Node14&#45;&gt;Node14 -->
<g id="edge34_Node000014_Node000014" class="edge">
<title>Node14&#45;&gt;Node14</title>
<g id="a_edge34_Node000014_Node000014"><a xlink:title=" ">
<path fill="none" stroke="#63b8ff" d="M711.48,-306.3C701.22,-315.62 715.4,-324.5 754,-324.5 785.36,-324.5 800.6,-318.64 799.71,-311.44"/>
<polygon fill="#63b8ff" stroke="#63b8ff" points="797.16,-307.33 801.71,-310.39 797.84,-308.42 799.8,-311.58 799.8,-311.58 799.8,-311.58 797.84,-308.42 797.89,-312.77 797.16,-307.33"/>
</a>
</g>
</g>
<!-- Node15&#45;&gt;Node7 -->
<g id="edge37_Node000015_Node000007" class="edge">
<title>Node15&#45;&gt;Node7</title>
<g id="a_edge37_Node000015_Node000007"><a xlink:title=" ">
<path fill="none" stroke="#63b8ff" d="M592.78,-222.31C614.31,-222.57 637.43,-222.85 659.22,-223.12"/>
<polygon fill="#63b8ff" stroke="#63b8ff" points="664.12,-223.17 659.09,-225.36 662.83,-223.16 659.12,-223.11 659.12,-223.11 659.12,-223.11 662.83,-223.16 659.14,-220.86 664.12,-223.17"/>
</a>
</g>
</g>
<!-- Node15&#45;&gt;Node8 -->
<g id="edge38_Node000015_Node000008" class="edge">
<title>Node15&#45;&gt;Node8</title>
<g id="a_edge38_Node000015_Node000008"><a xlink:title=" ">
<path fill="none" stroke="#63b8ff" d="M588.52,-200.39C661.25,-185.94 768.72,-173.62 858,-200.25 905.1,-214.3 951.08,-249.96 976.57,-272.24"/>
<polygon fill="#63b8ff" stroke="#63b8ff" points="980.17,-275.43 974.93,-273.8 979.21,-274.58 976.42,-272.12 976.42,-272.12 976.42,-272.12 979.21,-274.58 977.92,-270.43 980.17,-275.43"/>
</a>
</g>
</g>
<!-- Node15&#45;&gt;Node9 -->
<g id="edge39_Node000015_Node000009" class="edge">
<title>Node15&#45;&gt;Node9</title>
<g id="a_edge39_Node000015_Node000009"><a xlink:title=" ">
<path fill="none" stroke="#63b8ff" d="M592.73,-200.45C600.07,-197.71 607.25,-194.65 614,-191.25 638.93,-178.69 698.69,-128.87 731.14,-101.14"/>
<polygon fill="#63b8ff" stroke="#63b8ff" points="734.8,-98.01 732.47,-102.97 733.83,-98.84 731,-101.26 731,-101.26 731,-101.26 733.83,-98.84 729.54,-99.55 734.8,-98.01"/>
</a>
</g>
</g>
<!-- Node15&#45;&gt;Node15 -->
<g id="edge40_Node000015_Node000015" class="edge">
<title>Node15&#45;&gt;Node15</title>
<g id="a_edge40_Node000015_Node000015"><a xlink:title=" ">
<path fill="none" stroke="#63b8ff" d="M458.05,-242.05C453.04,-251.7 468.36,-260.12 504,-260.12 531.85,-260.12 547.29,-254.98 550.32,-248.13"/>
<polygon fill="#63b8ff" stroke="#63b8ff" points="550.02,-243.26 552.57,-248.12 550.1,-244.54 550.33,-248.25 550.33,-248.25 550.33,-248.25 550.1,-244.54 548.08,-248.39 550.02,-243.26"/>
</a>
</g>
</g>
<!-- Node16&#45;&gt;Node7 -->
<g id="edge44_Node000016_Node000007" class="edge">
<title>Node16&#45;&gt;Node7</title>
<g id="a_edge44_Node000016_Node000007"><a xlink:title=" ">
<path fill="none" stroke="#63b8ff" d="M559.61,-86.02C577.45,-93.65 597.02,-102.97 614,-113.25 659.45,-140.76 706.59,-181.43 732.62,-205.14"/>
<polygon fill="#63b8ff" stroke="#63b8ff" points="736.03,-208.26 730.82,-206.54 735.08,-207.4 732.34,-204.88 732.34,-204.88 732.34,-204.88 735.08,-207.4 733.86,-203.22 736.03,-208.26"/>
</a>
</g>
</g>
<!-- Node16&#45;&gt;Node9 -->
<g id="edge45_Node000016_Node000009" class="edge">
<title>Node16&#45;&gt;Node9</title>
<g id="a_edge45_Node000016_Node000009"><a xlink:title=" ">
<path fill="none" stroke="#63b8ff" d="M613.78,-72.71C626.87,-73.6 640.19,-74.52 653.15,-75.41"/>
<polygon fill="#63b8ff" stroke="#63b8ff" points="657.86,-75.73 652.71,-77.63 656.58,-75.64 652.87,-75.39 652.87,-75.39 652.87,-75.39 656.58,-75.64 653.02,-73.14 657.86,-75.73"/>
</a>
</g>
</g>
<!-- Node16&#45;&gt;Node16 -->
<g id="edge46_Node000016_Node000016" class="edge">
<title>Node16&#45;&gt;Node16</title>
<g id="a_edge46_Node000016_Node000016"><a xlink:title=" ">
<path fill="none" stroke="#63b8ff" d="M458.05,-86.05C453.04,-95.7 468.36,-104.12 504,-104.12 531.85,-104.12 547.29,-98.98 550.32,-92.13"/>
<polygon fill="#63b8ff" stroke="#63b8ff" points="550.02,-87.26 552.57,-92.12 550.1,-88.54 550.33,-92.25 550.33,-92.25 550.33,-92.25 550.1,-88.54 548.08,-92.39 550.02,-87.26"/>
</a>
</g>
</g>
<!-- Node17 -->
<g id="Node000017" class="node">
<title>Node17</title>
<g id="a_Node000017"><a xlink:href="../../dd/df2/namespaceanonymous__namespace_02_log_8cpp_03_1_1safe.html#a75a945c8f2e5d069f7c6f13667c2ee57" target="_top" xlink:title=" ">
<polygon fill="white" stroke="none" points="843,-30.5 665,-30.5 665,0 843,0 843,-30.5"/>
<text xml:space="preserve" text-anchor="start" x="673" y="-16.05" font-family="Consolas" font-size="11.00">anonymous_namespace</text>
<text xml:space="preserve" text-anchor="middle" x="754" y="-4.8" font-family="Consolas" font-size="11.00">{Log::cpp}::safe::appendHex</text>
</a>
</g>
</g>
<!-- Node16&#45;&gt;Node17 -->
<g id="edge42_Node000016_Node000017" class="edge">
<title>Node16&#45;&gt;Node17</title>
<g id="a_edge42_Node000016_Node000017"><a xlink:title=" ">
<path fill="none" stroke="#63b8ff" d="M608.38,-44.41C629.43,-40.16 651.29,-35.76 671.45,-31.69"/>
<polygon fill="#63b8ff" stroke="#63b8ff" points="676.18,-30.74 671.72,-33.93 674.92,-30.99 671.27,-31.73 671.27,-31.73 671.27,-31.73 674.92,-30.99 670.83,-29.52 676.18,-30.74"/>
</a>
</g>
</g>
<!-- Node17&#45;&gt;Node17 -->
<g id="edge43_Node000017_Node000017" class="edge">
<title>Node17&#45;&gt;Node17</title>
<g id="a_edge43_Node000017_Node000017"><a xlink:title=" ">
<path fill="none" stroke="#63b8ff" d="M711.48,-30.3C701.22,-39.62 715.4,-48.5 754,-48.5 785.36,-48.5 800.6,-42.64 799.71,-35.44"/>
<polygon fill="#63b8ff" stroke="#63b8ff" points="797.16,-31.33 801.71,-34.39 797.84,-32.42 799.8,-35.58 799.8,-35.58 799.8,-35.58 797.84,-32.42 797.89,-36.77 797.16,-31.33"/>
</a>
</g>
</g>
</g>
</svg>
