<?xml version="1.0" encoding="UTF-8" standalone="no"?>
<!DOCTYPE svg PUBLIC "-//W3C//DTD SVG 1.1//EN"
 "http://www.w3.org/Graphics/SVG/1.1/DTD/svg11.dtd">
<!-- Generated by graphviz version 14.0.0 (20250921.2048)
 -->
<!-- Title: anonymous_namespace{Log::cpp}::safe::win32LastError Pages: 1 -->
<svg width="882pt" height="68pt"
 viewBox="0.00 0.00 882.00 68.00" xmlns="http://www.w3.org/2000/svg" xmlns:xlink="http://www.w3.org/1999/xlink">
<g id="graph0" class="graph" transform="scale(1 1) rotate(0) translate(4 63.75)">
<title>anonymous_namespace{Log::cpp}::safe::win32LastError</title>
<!-- Node1 -->
<g id="Node000001" class="node">
<title>Node1</title>
<g id="a_Node000001"><a xlink:title=" ">
<polygon fill="#999999" stroke="none" points="874,-30.5 552,-30.5 552,-11.25 874,-11.25 874,-30.5"/>
<text xml:space="preserve" text-anchor="start" x="560" y="-17.05" font-family="Consolas" font-weight="bold" font-size="11.00">anonymous_namespace{Log::cpp}::safe::win32LastError</text>
</a>
</g>
</g>
<!-- Node1&#45;&gt;Node1 -->
<g id="edge5_Node000001_Node000001" class="edge">
<title>Node1&#45;&gt;Node1</title>
<g id="a_edge5_Node000001_Node000001"><a xlink:title=" ">
<path fill="none" stroke="#63b8ff" d="M761.77,-33.03C774.69,-40.9 758.44,-48.5 713,-48.5 662.42,-48.5 648,-39.09 669.73,-30.36"/>
<polygon fill="#63b8ff" stroke="#63b8ff" points="757.36,-30.89 762.84,-31.05 758.51,-31.45 761.86,-33.07 761.86,-33.07 761.86,-33.07 758.51,-31.45 760.88,-35.1 757.36,-30.89"/>
</a>
</g>
</g>
<!-- Node2 -->
<g id="Node000002" class="node">
<title>Node2</title>
<g id="a_Node000002"><a xlink:href="../../dd/df2/namespaceanonymous__namespace_02_log_8cpp_03_1_1safe.html#a79b9de042466028e5c2c32bdf0635cb5" target="_top" xlink:title=" ">
<polygon fill="white" stroke="none" points="516,-41.75 344,-41.75 344,0 516,0 516,-41.75"/>
<text xml:space="preserve" text-anchor="start" x="352" y="-27.3" font-family="Consolas" font-size="11.00">anonymous_namespace</text>
<text xml:space="preserve" text-anchor="start" x="352" y="-16.05" font-family="Consolas" font-size="11.00">{Log::cpp}::safe::startImp</text>
<text xml:space="preserve" text-anchor="middle" x="430" y="-4.8" font-family="Consolas" font-size="11.00">LogProcess</text>
</a>
</g>
</g>
<!-- Node1&#45;&gt;Node2 -->
<g id="edge1_Node000001_Node000002" class="edge">
<title>Node1&#45;&gt;Node2</title>
<g id="a_edge1_Node000001_Node000002"><a xlink:title=" ">
<path fill="none" stroke="#63b8ff" d="M546.08,-20.88C535.72,-20.88 525.54,-20.88 515.79,-20.88"/>
<polygon fill="#63b8ff" stroke="#63b8ff" points="550.99,-20.88 545.99,-23.13 549.71,-20.88 545.99,-20.88 545.99,-20.88 545.99,-20.88 549.71,-20.88 545.99,-18.63 550.99,-20.88"/>
</a>
</g>
</g>
<!-- Node2&#45;&gt;Node2 -->
<g id="edge2_Node000002_Node000002" class="edge">
<title>Node2&#45;&gt;Node2</title>
<g id="a_edge2_Node000002_Node000002"><a xlink:title=" ">
<path fill="none" stroke="#63b8ff" d="M465.76,-47.75C463.42,-54.61 451.5,-59.75 430,-59.75 402.48,-59.75 390.66,-51.32 394.53,-41.67"/>
<polygon fill="#63b8ff" stroke="#63b8ff" points="465.53,-42.89 468.01,-47.78 465.59,-44.17 465.76,-47.88 465.76,-47.88 465.76,-47.88 465.59,-44.17 463.52,-47.99 465.53,-42.89"/>
</a>
</g>
</g>
<!-- Node3 -->
<g id="Node000003" class="node">
<title>Node3</title>
<g id="a_Node000003"><a xlink:href="../../d0/d61/classanonymous__namespace_02_log_8cpp_03_1_1_log_core.html#a78f2c370e9ec632af877fe1dd49ef478" target="_top" xlink:title=" ">
<polygon fill="white" stroke="none" points="308,-41.75 166,-41.75 166,0 308,0 308,-41.75"/>
<text xml:space="preserve" text-anchor="start" x="174" y="-27.3" font-family="Consolas" font-size="11.00">anonymous_namespace</text>
<text xml:space="preserve" text-anchor="start" x="174" y="-16.05" font-family="Consolas" font-size="11.00">{Log::cpp}::LogCore</text>
<text xml:space="preserve" text-anchor="middle" x="237" y="-4.8" font-family="Consolas" font-size="11.00">::startImpLogProcess_</text>
</a>
</g>
</g>
<!-- Node2&#45;&gt;Node3 -->
<g id="edge3_Node000002_Node000003" class="edge">
<title>Node2&#45;&gt;Node3</title>
<g id="a_edge3_Node000002_Node000003"><a xlink:title=" ">
<path fill="none" stroke="#63b8ff" d="M338.11,-20.88C327.91,-20.88 317.63,-20.88 307.75,-20.88"/>
<polygon fill="#63b8ff" stroke="#63b8ff" points="342.89,-20.88 337.89,-23.13 341.61,-20.88 337.89,-20.88 337.89,-20.88 337.89,-20.88 341.61,-20.88 337.89,-18.63 342.89,-20.88"/>
</a>
</g>
</g>
<!-- Node4 -->
<g id="Node000004" class="node">
<title>Node4</title>
<g id="a_Node000004"><a xlink:href="../../d0/d61/classanonymous__namespace_02_log_8cpp_03_1_1_log_core.html#ac81e3393bfb7545e17c9fd8ea4cb4aa6" target="_top" xlink:title=" ">
<polygon fill="white" stroke="none" points="130,-41.75 0,-41.75 0,0 130,0 130,-41.75"/>
<text xml:space="preserve" text-anchor="start" x="8" y="-27.3" font-family="Consolas" font-size="11.00">anonymous_namespace</text>
<text xml:space="preserve" text-anchor="start" x="8" y="-16.05" font-family="Consolas" font-size="11.00">{Log::cpp}::LogCore</text>
<text xml:space="preserve" text-anchor="middle" x="65" y="-4.8" font-family="Consolas" font-size="11.00">::LogCore</text>
</a>
</g>
</g>
<!-- Node3&#45;&gt;Node4 -->
<g id="edge4_Node000003_Node000004" class="edge">
<title>Node3&#45;&gt;Node4</title>
<g id="a_edge4_Node000003_Node000004"><a xlink:title=" ">
<path fill="none" stroke="#63b8ff" d="M160.38,-20.88C150.16,-20.88 139.77,-20.88 129.79,-20.88"/>
<polygon fill="#63b8ff" stroke="#63b8ff" points="165.15,-20.88 160.15,-23.13 163.86,-20.88 160.15,-20.88 160.15,-20.88 160.15,-20.88 163.86,-20.88 160.15,-18.63 165.15,-20.88"/>
</a>
</g>
</g>
</g>
</svg>
