<?xml version="1.0" encoding="UTF-8" standalone="no"?>
<!DOCTYPE svg PUBLIC "-//W3C//DTD SVG 1.1//EN"
 "http://www.w3.org/Graphics/SVG/1.1/DTD/svg11.dtd">
<!-- Generated by graphviz version 14.0.0 (20250921.2048)
 -->
<!-- Title: anonymous_namespace{Log::cpp}::safe::msgHandler Pages: 1 -->
<!--zoomable 813 -->

<svg id="main" version="1.1" xmlns="http://www.w3.org/2000/svg" xmlns:xlink="http://www.w3.org/1999/xlink" xml:space="preserve" onload="init(evt)">

<style type="text/css"><![CDATA[
.node, .edge {opacity: 0.7;}
.node.selected, .edge.selected {opacity: 1;}
.edge:hover path { stroke: red; }
.edge:hover polygon { stroke: red; fill: red; }
]]></style>

<defs>
  <circle id="rim" cx="0" cy="0" r="7"/>
  <circle id="rim2" cx="0" cy="0" r="3.5"/>
  <g id="zoomPlus">
    <use xlink:href="#rim" fill="#404040"><set attributeName="fill" to="#808080" begin="zoomplus.mouseover" end="zoomplus.mouseout"/></use>
    <path d="M-4,0h8M0,-4v8" fill="none" stroke="white" stroke-width="1.5" pointer-events="none"/>
  </g>
  <g id="zoomMin">
    <use xlink:href="#rim" fill="#404040"><set attributeName="fill" to="#808080" begin="zoomminus.mouseover" end="zoomminus.mouseout"/></use>
    <path d="M-4,0h8" fill="none" stroke="white" stroke-width="1.5" pointer-events="none"/>
  </g>
  <g id="arrowUp" transform="translate(30 24)">
    <use xlink:href="#rim"/>
    <path pointer-events="none" fill="none" stroke="white" stroke-width="1.5" d="M0,-3.0v7 M-2.5,-0.5L0,-3.0L2.5,-0.5"/>
  </g>
  <g id="arrowRight" transform="rotate(90) translate(36 -43)">
    <use xlink:href="#rim"/>
    <path pointer-events="none" fill="none" stroke="white" stroke-width="1.5" d="M0,-3.0v7 M-2.5,-0.5L0,-3.0L2.5,-0.5"/>
  </g>
  <g id="arrowDown" transform="rotate(180) translate(-30 -48)">
    <use xlink:href="#rim"/>
    <path pointer-events="none" fill="none" stroke="white" stroke-width="1.5" d="M0,-3.0v7 M-2.5,-0.5L0,-3.0L2.5,-0.5"/>
  </g>
  <g id="arrowLeft" transform="rotate(270) translate(-36 17)">
    <use xlink:href="#rim"/>
    <path pointer-events="none" fill="none" stroke="white" stroke-width="1.5" d="M0,-3.0v7 M-2.5,-0.5L0,-3.0L2.5,-0.5"/>
  </g>
  <g id="resetDef">
    <use xlink:href="#rim2" fill="#404040"><set attributeName="fill" to="#808080" begin="reset.mouseover" end="reset.mouseout"/></use>
  </g>
</defs>
<script type="application/ecmascript">
var viewWidth = 1032;
var viewHeight = 813;
var sectionId = 'dynsection-38';
</script>
<script type="application/ecmascript" xlink:href="../../svg.min.js"/>
<svg id="graph" class="graph">
<g id="viewport">
<title>anonymous_namespace{Log::cpp}::safe::msgHandler</title>
<!-- Node1 -->
<g id="Node000001" class="node">
<title>Node1</title>
<g id="a_Node000001"><a xlink:title=" ">
<polygon fill="#999999" stroke="none" points="298,-441.88 0,-441.88 0,-422.62 298,-422.62 298,-441.88"/>
<text xml:space="preserve" text-anchor="start" x="8" y="-428.43" font-family="Consolas" font-weight="bold" font-size="11.00">anonymous_namespace{Log::cpp}::safe::msgHandler</text>
</a>
</g>
</g>
<!-- Node1&#45;&gt;Node1 -->
<g id="edge39_Node000001_Node000001" class="edge">
<title>Node1&#45;&gt;Node1</title>
<g id="a_edge39_Node000001_Node000001"><a xlink:title=" ">
<path fill="none" stroke="#63b8ff" d="M104.82,-441.73C82.62,-450.46 97.35,-459.88 149,-459.88 195.81,-459.88 212.29,-452.15 198.45,-444.2"/>
<polygon fill="#63b8ff" stroke="#63b8ff" points="194.29,-442.25 199.77,-442.33 195.45,-442.79 198.82,-444.37 198.82,-444.37 198.82,-444.37 195.45,-442.79 197.86,-446.41 194.29,-442.25"/>
</a>
</g>
</g>
<!-- Node2 -->
<g id="Node000002" class="node">
<title>Node2</title>
<g id="a_Node000002"><a xlink:href="../../dd/df2/namespaceanonymous__namespace_02_log_8cpp_03_1_1safe.html#ac8e06193aa953194d78cd55baf2151d8" target="_top" xlink:title=" ">
<polygon fill="white" stroke="none" points="539,-786.5 337,-786.5 337,-756 539,-756 539,-786.5"/>
<text xml:space="preserve" text-anchor="start" x="345" y="-772.05" font-family="Consolas" font-size="11.00">anonymous_namespace</text>
<text xml:space="preserve" text-anchor="middle" x="438" y="-760.8" font-family="Consolas" font-size="11.00">{Log::cpp}::safe::append2Digits</text>
</a>
</g>
</g>
<!-- Node1&#45;&gt;Node2 -->
<g id="edge1_Node000001_Node000002" class="edge">
<title>Node1&#45;&gt;Node2</title>
<g id="a_edge1_Node000001_Node000002"><a xlink:title=" ">
<path fill="none" stroke="#63b8ff" d="M152.58,-441.78C164.73,-484.73 220.43,-661.79 334,-746.25 337.55,-748.89 341.35,-751.26 345.31,-753.38"/>
<polygon fill="#63b8ff" stroke="#63b8ff" points="349.71,-755.57 344.23,-755.36 348.57,-755 345.24,-753.34 345.24,-753.34 345.24,-753.34 348.57,-755 346.24,-751.33 349.71,-755.57"/>
</a>
</g>
</g>
<!-- Node3 -->
<g id="Node000003" class="node">
<title>Node3</title>
<g id="a_Node000003"><a xlink:href="../../dd/df2/namespaceanonymous__namespace_02_log_8cpp_03_1_1safe.html#a1138ca08d0d8b5a0482ee827987b024f" target="_top" xlink:title=" ">
<polygon fill="white" stroke="none" points="539,-719.5 337,-719.5 337,-689 539,-689 539,-719.5"/>
<text xml:space="preserve" text-anchor="start" x="345" y="-705.05" font-family="Consolas" font-size="11.00">anonymous_namespace</text>
<text xml:space="preserve" text-anchor="middle" x="438" y="-693.8" font-family="Consolas" font-size="11.00">{Log::cpp}::safe::append3Digits</text>
</a>
</g>
</g>
<!-- Node1&#45;&gt;Node3 -->
<g id="edge3_Node000001_Node000003" class="edge">
<title>Node1&#45;&gt;Node3</title>
<g id="a_edge3_Node000001_Node000003"><a xlink:title=" ">
<path fill="none" stroke="#63b8ff" d="M154.07,-441.68C170.51,-478.58 235.88,-614.36 334,-679.25 338.14,-681.99 342.54,-684.42 347.12,-686.59"/>
<polygon fill="#63b8ff" stroke="#63b8ff" points="351.45,-688.52 345.97,-688.54 350.28,-688 346.88,-686.49 346.88,-686.49 346.88,-686.49 350.28,-688 347.8,-684.43 351.45,-688.52"/>
</a>
</g>
</g>
<!-- Node4 -->
<g id="Node000004" class="node">
<title>Node4</title>
<g id="a_Node000004"><a xlink:href="../../dd/df2/namespaceanonymous__namespace_02_log_8cpp_03_1_1safe.html#a99008cbbcf5923943b42b8788667114a" target="_top" xlink:title=" ">
<polygon fill="white" stroke="none" points="539,-652.5 337,-652.5 337,-622 539,-622 539,-652.5"/>
<text xml:space="preserve" text-anchor="start" x="345" y="-638.05" font-family="Consolas" font-size="11.00">anonymous_namespace</text>
<text xml:space="preserve" text-anchor="middle" x="438" y="-626.8" font-family="Consolas" font-size="11.00">{Log::cpp}::safe::append4Digits</text>
</a>
</g>
</g>
<!-- Node1&#45;&gt;Node4 -->
<g id="edge5_Node000001_Node000004" class="edge">
<title>Node1&#45;&gt;Node4</title>
<g id="a_edge5_Node000001_Node000004"><a xlink:title=" ">
<path fill="none" stroke="#63b8ff" d="M156.78,-441.87C178.66,-472.13 250.75,-566.09 334,-612.25 339.13,-615.09 344.58,-617.62 350.19,-619.86"/>
<polygon fill="#63b8ff" stroke="#63b8ff" points="354.71,-621.57 349.23,-621.9 353.51,-621.11 350.03,-619.8 350.03,-619.8 350.03,-619.8 353.51,-621.11 350.83,-617.69 354.71,-621.57"/>
</a>
</g>
</g>
<!-- Node5 -->
<g id="Node000005" class="node">
<title>Node5</title>
<g id="a_Node000005"><a xlink:href="../../dd/df2/namespaceanonymous__namespace_02_log_8cpp_03_1_1safe.html#a65353ac3c8d675a9a827bed9e11acc17" target="_top" xlink:title=" ">
<polygon fill="white" stroke="none" points="777,-332.5 599,-332.5 599,-302 777,-302 777,-332.5"/>
<text xml:space="preserve" text-anchor="start" x="607" y="-318.05" font-family="Consolas" font-size="11.00">anonymous_namespace</text>
<text xml:space="preserve" text-anchor="middle" x="688" y="-306.8" font-family="Consolas" font-size="11.00">{Log::cpp}::safe::appendChr</text>
</a>
</g>
</g>
<!-- Node1&#45;&gt;Node5 -->
<g id="edge7_Node000001_Node000005" class="edge">
<title>Node1&#45;&gt;Node5</title>
<g id="a_edge7_Node000001_Node000005"><a xlink:title=" ">
<path fill="none" stroke="#63b8ff" d="M165.14,-441.66C219.28,-474.02 407.26,-575.13 542,-508.25 615.01,-472.01 661.16,-379.48 678.83,-337.96"/>
<polygon fill="#63b8ff" stroke="#63b8ff" points="680.66,-333.58 680.81,-339.06 680.17,-334.76 678.73,-338.19 678.73,-338.19 678.73,-338.19 680.17,-334.76 676.66,-337.32 680.66,-333.58"/>
</a>
</g>
</g>
<!-- Node7 -->
<g id="Node000007" class="node">
<title>Node7</title>
<g id="a_Node000007"><a xlink:href="../../dd/df2/namespaceanonymous__namespace_02_log_8cpp_03_1_1safe.html#a0b4f620e950ef2e9f44027327f4bd27f" target="_top" xlink:title=" ">
<polygon fill="white" stroke="none" points="527,-585.5 349,-585.5 349,-555 527,-555 527,-585.5"/>
<text xml:space="preserve" text-anchor="start" x="357" y="-571.05" font-family="Consolas" font-size="11.00">anonymous_namespace</text>
<text xml:space="preserve" text-anchor="middle" x="438" y="-559.8" font-family="Consolas" font-size="11.00">{Log::cpp}::safe::appendDec</text>
</a>
</g>
</g>
<!-- Node1&#45;&gt;Node7 -->
<g id="edge11_Node000001_Node000007" class="edge">
<title>Node1&#45;&gt;Node7</title>
<g id="a_edge11_Node000001_Node000007"><a xlink:title=" ">
<path fill="none" stroke="#63b8ff" d="M163.2,-441.73C192.57,-462.43 266.08,-512.16 334,-541.25 344.47,-545.73 355.83,-549.73 367.06,-553.22"/>
<polygon fill="#63b8ff" stroke="#63b8ff" points="371.75,-554.65 366.31,-555.35 370.52,-554.28 366.97,-553.19 366.97,-553.19 366.97,-553.19 370.52,-554.28 367.62,-551.04 371.75,-554.65"/>
</a>
</g>
</g>
<!-- Node9 -->
<g id="Node000009" class="node">
<title>Node9</title>
<g id="a_Node000009"><a xlink:href="../../dd/df2/namespaceanonymous__namespace_02_log_8cpp_03_1_1safe.html#aa526b57e73a9ee9e95150b61a18d6489" target="_top" xlink:title=" ">
<polygon fill="white" stroke="none" points="542,-481.5 334,-481.5 334,-451 542,-451 542,-481.5"/>
<text xml:space="preserve" text-anchor="start" x="342" y="-467.05" font-family="Consolas" font-size="11.00">anonymous_namespace</text>
<text xml:space="preserve" text-anchor="middle" x="438" y="-455.8" font-family="Consolas" font-size="11.00">{Log::cpp}::safe::appendFileName</text>
</a>
</g>
</g>
<!-- Node1&#45;&gt;Node9 -->
<g id="edge15_Node000001_Node000009" class="edge">
<title>Node1&#45;&gt;Node9</title>
<g id="a_edge15_Node000001_Node000009"><a xlink:title=" ">
<path fill="none" stroke="#63b8ff" d="M231.09,-441.86C261.21,-445.42 295.88,-449.53 328.08,-453.35"/>
<polygon fill="#63b8ff" stroke="#63b8ff" points="332.85,-453.91 327.62,-455.56 331.58,-453.76 327.89,-453.32 327.89,-453.32 327.89,-453.32 331.58,-453.76 328.15,-451.09 332.85,-453.91"/>
</a>
</g>
</g>
<!-- Node10 -->
<g id="Node000010" class="node">
<title>Node10</title>
<g id="a_Node000010"><a xlink:href="../../dd/df2/namespaceanonymous__namespace_02_log_8cpp_03_1_1safe.html#a0007f4a1265f5b0c790d25e74cd93713" target="_top" xlink:title=" ">
<polygon fill="white" stroke="none" points="542,-146.5 334,-146.5 334,-116 542,-116 542,-146.5"/>
<text xml:space="preserve" text-anchor="start" x="342" y="-132.05" font-family="Consolas" font-size="11.00">anonymous_namespace</text>
<text xml:space="preserve" text-anchor="middle" x="438" y="-120.8" font-family="Consolas" font-size="11.00">{Log::cpp}::safe::appendFuncName</text>
</a>
</g>
</g>
<!-- Node1&#45;&gt;Node10 -->
<g id="edge18_Node000001_Node000010" class="edge">
<title>Node1&#45;&gt;Node10</title>
<g id="a_edge18_Node000001_Node000010"><a xlink:title=" ">
<path fill="none" stroke="#63b8ff" d="M154.28,-422.86C171.5,-386.02 239.38,-249.73 334,-174.25 347.36,-163.59 363.73,-155.18 379.46,-148.72"/>
<polygon fill="#63b8ff" stroke="#63b8ff" points="384.09,-146.88 380.27,-150.82 382.9,-147.36 379.44,-148.73 379.44,-148.73 379.44,-148.73 382.9,-147.36 378.61,-146.64 384.09,-146.88"/>
</a>
</g>
</g>
<!-- Node12 -->
<g id="Node000012" class="node">
<title>Node12</title>
<g id="a_Node000012"><a xlink:href="../../dd/df2/namespaceanonymous__namespace_02_log_8cpp_03_1_1safe.html#a75a945c8f2e5d069f7c6f13667c2ee57" target="_top" xlink:title=" ">
<polygon fill="white" stroke="none" points="527,-347.5 349,-347.5 349,-317 527,-317 527,-347.5"/>
<text xml:space="preserve" text-anchor="start" x="357" y="-333.05" font-family="Consolas" font-size="11.00">anonymous_namespace</text>
<text xml:space="preserve" text-anchor="middle" x="438" y="-321.8" font-family="Consolas" font-size="11.00">{Log::cpp}::safe::appendHex</text>
</a>
</g>
</g>
<!-- Node1&#45;&gt;Node12 -->
<g id="edge24_Node000001_Node000012" class="edge">
<title>Node1&#45;&gt;Node12</title>
<g id="a_edge24_Node000001_Node000012"><a xlink:title=" ">
<path fill="none" stroke="#63b8ff" d="M177.52,-422.66C225.9,-405.8 326.84,-370.63 387.57,-349.47"/>
<polygon fill="#63b8ff" stroke="#63b8ff" points="392.17,-347.87 388.19,-351.64 390.96,-348.29 387.45,-349.51 387.45,-349.51 387.45,-349.51 390.96,-348.29 386.71,-347.39 392.17,-347.87"/>
</a>
</g>
</g>
<!-- Node13 -->
<g id="Node000013" class="node">
<title>Node13</title>
<g id="a_Node000013"><a xlink:href="../../dd/df2/namespaceanonymous__namespace_02_log_8cpp_03_1_1safe.html#a7927803dc42a56944e7bf39eae31f330" target="_top" xlink:title=" ">
<polygon fill="white" stroke="none" points="527,-280.5 349,-280.5 349,-250 527,-250 527,-280.5"/>
<text xml:space="preserve" text-anchor="start" x="357" y="-266.05" font-family="Consolas" font-size="11.00">anonymous_namespace</text>
<text xml:space="preserve" text-anchor="middle" x="438" y="-254.8" font-family="Consolas" font-size="11.00">{Log::cpp}::safe::appendLvl</text>
</a>
</g>
</g>
<!-- Node1&#45;&gt;Node13 -->
<g id="edge26_Node000001_Node000013" class="edge">
<title>Node1&#45;&gt;Node13</title>
<g id="a_edge26_Node000001_Node000013"><a xlink:title=" ">
<path fill="none" stroke="#63b8ff" d="M161.96,-422.95C190.54,-401.03 265.5,-345.16 334,-308.25 351.7,-298.71 371.97,-289.84 389.83,-282.66"/>
<polygon fill="#63b8ff" stroke="#63b8ff" points="394.15,-280.94 390.34,-284.88 392.96,-281.42 389.51,-282.79 389.51,-282.79 389.51,-282.79 392.96,-281.42 388.68,-280.7 394.15,-280.94"/>
</a>
</g>
</g>
<!-- Node14 -->
<g id="Node000014" class="node">
<title>Node14</title>
<g id="a_Node000014"><a xlink:href="../../dd/df2/namespaceanonymous__namespace_02_log_8cpp_03_1_1safe.html#a70f8ae638e66e98804ee3dbd8772433a" target="_top" xlink:title=" ">
<polygon fill="white" stroke="none" points="527,-414.5 349,-414.5 349,-384 527,-384 527,-414.5"/>
<text xml:space="preserve" text-anchor="start" x="357" y="-400.05" font-family="Consolas" font-size="11.00">anonymous_namespace</text>
<text xml:space="preserve" text-anchor="middle" x="438" y="-388.8" font-family="Consolas" font-size="11.00">{Log::cpp}::safe::appendMsg</text>
</a>
</g>
</g>
<!-- Node1&#45;&gt;Node14 -->
<g id="edge28_Node000001_Node000014" class="edge">
<title>Node1&#45;&gt;Node14</title>
<g id="a_edge28_Node000001_Node000014"><a xlink:title=" ">
<path fill="none" stroke="#63b8ff" d="M233.4,-422.66C267.74,-418.71 307.69,-414.12 343.05,-410.05"/>
<polygon fill="#63b8ff" stroke="#63b8ff" points="347.93,-409.49 343.22,-412.3 346.66,-409.64 342.97,-410.06 342.97,-410.06 342.97,-410.06 346.66,-409.64 342.71,-407.83 347.93,-409.49"/>
</a>
</g>
</g>
<!-- Node15 -->
<g id="Node000015" class="node">
<title>Node15</title>
<g id="a_Node000015"><a xlink:href="../../dd/df2/namespaceanonymous__namespace_02_log_8cpp_03_1_1safe.html#aa8d11c260254c761c7437280b4284d17" target="_top" xlink:title=" ">
<polygon fill="white" stroke="none" points="527,-213.5 349,-213.5 349,-183 527,-183 527,-213.5"/>
<text xml:space="preserve" text-anchor="start" x="357" y="-199.05" font-family="Consolas" font-size="11.00">anonymous_namespace</text>
<text xml:space="preserve" text-anchor="middle" x="438" y="-187.8" font-family="Consolas" font-size="11.00">{Log::cpp}::safe::appendTxt</text>
</a>
</g>
</g>
<!-- Node1&#45;&gt;Node15 -->
<g id="edge31_Node000001_Node000015" class="edge">
<title>Node1&#45;&gt;Node15</title>
<g id="a_edge31_Node000001_Node000015"><a xlink:title=" ">
<path fill="none" stroke="#63b8ff" d="M156.67,-423C178.73,-392.97 252.66,-296.87 334,-241.25 349.09,-230.93 367.04,-222.38 383.7,-215.69"/>
<polygon fill="#63b8ff" stroke="#63b8ff" points="388.16,-213.94 384.33,-217.86 386.97,-214.41 383.51,-215.77 383.51,-215.77 383.51,-215.77 386.97,-214.41 382.69,-213.67 388.16,-213.94"/>
</a>
</g>
</g>
<!-- Node16 -->
<g id="Node000016" class="node">
<title>Node16</title>
<g id="a_Node000016"><a xlink:href="../../dd/df2/namespaceanonymous__namespace_02_log_8cpp_03_1_1safe.html#a97522aab6ec53ce2693cf4a5432927bf" target="_top" xlink:title=" ">
<polygon fill="white" stroke="none" points="533,-79.5 343,-79.5 343,-49 533,-49 533,-79.5"/>
<text xml:space="preserve" text-anchor="start" x="351" y="-65.05" font-family="Consolas" font-size="11.00">anonymous_namespace</text>
<text xml:space="preserve" text-anchor="middle" x="438" y="-53.8" font-family="Consolas" font-size="11.00">{Log::cpp}::safe::impLogWrite</text>
</a>
</g>
</g>
<!-- Node1&#45;&gt;Node16 -->
<g id="edge34_Node000001_Node000016" class="edge">
<title>Node1&#45;&gt;Node16</title>
<g id="a_edge34_Node000001_Node000016"><a xlink:title=" ">
<path fill="none" stroke="#63b8ff" d="M152.81,-422.8C165.96,-380.17 225.34,-203.62 334,-107.25 346.2,-96.43 361.51,-88.07 376.57,-81.74"/>
<polygon fill="#63b8ff" stroke="#63b8ff" points="380.97,-79.95 377.19,-83.91 379.78,-80.43 376.34,-81.83 376.34,-81.83 376.34,-81.83 379.78,-80.43 375.49,-79.74 380.97,-79.95"/>
</a>
</g>
</g>
<!-- Node2&#45;&gt;Node2 -->
<g id="edge2_Node000002_Node000002" class="edge">
<title>Node2&#45;&gt;Node2</title>
<g id="a_edge2_Node000002_Node000002"><a xlink:title=" ">
<path fill="none" stroke="#63b8ff" d="M394.43,-786.3C383.93,-795.62 398.45,-804.5 438,-804.5 470.14,-804.5 485.75,-798.64 484.84,-791.44"/>
<polygon fill="#63b8ff" stroke="#63b8ff" points="482.22,-787.32 486.8,-790.34 482.91,-788.41 484.9,-791.54 484.9,-791.54 484.9,-791.54 482.91,-788.41 483,-792.75 482.22,-787.32"/>
</a>
</g>
</g>
<!-- Node3&#45;&gt;Node3 -->
<g id="edge4_Node000003_Node000003" class="edge">
<title>Node3&#45;&gt;Node3</title>
<g id="a_edge4_Node000003_Node000003"><a xlink:title=" ">
<path fill="none" stroke="#63b8ff" d="M394.43,-719.3C383.93,-728.62 398.45,-737.5 438,-737.5 470.14,-737.5 485.75,-731.64 484.84,-724.44"/>
<polygon fill="#63b8ff" stroke="#63b8ff" points="482.22,-720.32 486.8,-723.34 482.91,-721.41 484.9,-724.54 484.9,-724.54 484.9,-724.54 482.91,-721.41 483,-725.75 482.22,-720.32"/>
</a>
</g>
</g>
<!-- Node4&#45;&gt;Node4 -->
<g id="edge6_Node000004_Node000004" class="edge">
<title>Node4&#45;&gt;Node4</title>
<g id="a_edge6_Node000004_Node000004"><a xlink:title=" ">
<path fill="none" stroke="#63b8ff" d="M394.43,-652.3C383.93,-661.62 398.45,-670.5 438,-670.5 470.14,-670.5 485.75,-664.64 484.84,-657.44"/>
<polygon fill="#63b8ff" stroke="#63b8ff" points="482.22,-653.32 486.8,-656.34 482.91,-654.41 484.9,-657.54 484.9,-657.54 484.9,-657.54 482.91,-654.41 483,-658.75 482.22,-653.32"/>
</a>
</g>
</g>
<!-- Node5&#45;&gt;Node5 -->
<g id="edge8_Node000005_Node000005" class="edge">
<title>Node5&#45;&gt;Node5</title>
<g id="a_edge8_Node000005_Node000005"><a xlink:title=" ">
<path fill="none" stroke="#63b8ff" d="M646,-332.3C635.87,-341.62 649.87,-350.5 688,-350.5 718.98,-350.5 734.03,-344.64 733.15,-337.44"/>
<polygon fill="#63b8ff" stroke="#63b8ff" points="730.64,-333.33 735.17,-336.42 731.31,-334.43 733.25,-337.6 733.25,-337.6 733.25,-337.6 731.31,-334.43 731.33,-338.77 730.64,-333.33"/>
</a>
</g>
</g>
<!-- Node6 -->
<g id="Node000006" class="node">
<title>Node6</title>
<g id="a_Node000006"><a xlink:href="../../dd/df2/namespaceanonymous__namespace_02_log_8cpp_03_1_1safe.html#a1e4219749cab61533a6faf773fe7cddb" target="_top" xlink:title=" ">
<polygon fill="white" stroke="none" points="1024,-290.5 834,-290.5 834,-260 1024,-260 1024,-290.5"/>
<text xml:space="preserve" text-anchor="start" x="842" y="-276.05" font-family="Consolas" font-size="11.00">anonymous_namespace</text>
<text xml:space="preserve" text-anchor="middle" x="929" y="-264.8" font-family="Consolas" font-size="11.00">{Log::cpp}::safe::isSpaceChar</text>
</a>
</g>
</g>
<!-- Node5&#45;&gt;Node6 -->
<g id="edge9_Node000005_Node000006" class="edge">
<title>Node5&#45;&gt;Node6</title>
<g id="a_edge9_Node000005_Node000006"><a xlink:title=" ">
<path fill="none" stroke="#63b8ff" d="M775.62,-302.03C794.99,-298.62 815.61,-295 835.22,-291.55"/>
<polygon fill="#63b8ff" stroke="#63b8ff" points="840.07,-290.7 835.54,-293.78 838.81,-290.92 835.15,-291.57 835.15,-291.57 835.15,-291.57 838.81,-290.92 834.76,-289.35 840.07,-290.7"/>
</a>
</g>
</g>
<!-- Node6&#45;&gt;Node6 -->
<g id="edge10_Node000006_Node000006" class="edge">
<title>Node6&#45;&gt;Node6</title>
<g id="a_edge10_Node000006_Node000006"><a xlink:title=" ">
<path fill="none" stroke="#63b8ff" d="M887,-290.3C876.87,-299.62 890.87,-308.5 929,-308.5 959.98,-308.5 975.03,-302.64 974.15,-295.44"/>
<polygon fill="#63b8ff" stroke="#63b8ff" points="971.64,-291.33 976.17,-294.42 972.31,-292.43 974.25,-295.6 974.25,-295.6 974.25,-295.6 972.31,-292.43 972.33,-296.77 971.64,-291.33"/>
</a>
</g>
</g>
<!-- Node7&#45;&gt;Node7 -->
<g id="edge12_Node000007_Node000007" class="edge">
<title>Node7&#45;&gt;Node7</title>
<g id="a_edge12_Node000007_Node000007"><a xlink:title=" ">
<path fill="none" stroke="#63b8ff" d="M394.43,-585.3C383.93,-594.62 398.45,-603.5 438,-603.5 470.14,-603.5 485.75,-597.64 484.84,-590.44"/>
<polygon fill="#63b8ff" stroke="#63b8ff" points="482.22,-586.32 486.8,-589.34 482.91,-587.41 484.9,-590.54 484.9,-590.54 484.9,-590.54 482.91,-587.41 483,-591.75 482.22,-586.32"/>
</a>
</g>
</g>
<!-- Node8 -->
<g id="Node000008" class="node">
<title>Node8</title>
<g id="a_Node000008"><a xlink:href="../../dd/df2/namespaceanonymous__namespace_02_log_8cpp_03_1_1safe.html#ab261e5125e925c910ea977d0ac217ab6" target="_top" xlink:title=" ">
<polygon fill="white" stroke="none" points="777,-585.5 599,-585.5 599,-555 777,-555 777,-585.5"/>
<text xml:space="preserve" text-anchor="start" x="607" y="-571.05" font-family="Consolas" font-size="11.00">anonymous_namespace</text>
<text xml:space="preserve" text-anchor="middle" x="688" y="-559.8" font-family="Consolas" font-size="11.00">{Log::cpp}::safe::decDigits</text>
</a>
</g>
</g>
<!-- Node7&#45;&gt;Node8 -->
<g id="edge13_Node000007_Node000008" class="edge">
<title>Node7&#45;&gt;Node8</title>
<g id="a_edge13_Node000007_Node000008"><a xlink:title=" ">
<path fill="none" stroke="#63b8ff" d="M526.78,-570.25C548.31,-570.25 571.43,-570.25 593.22,-570.25"/>
<polygon fill="#63b8ff" stroke="#63b8ff" points="598.12,-570.25 593.12,-572.5 596.83,-570.25 593.12,-570.25 593.12,-570.25 593.12,-570.25 596.83,-570.25 593.11,-568 598.12,-570.25"/>
</a>
</g>
</g>
<!-- Node8&#45;&gt;Node8 -->
<g id="edge14_Node000008_Node000008" class="edge">
<title>Node8&#45;&gt;Node8</title>
<g id="a_edge14_Node000008_Node000008"><a xlink:title=" ">
<path fill="none" stroke="#63b8ff" d="M646,-585.3C635.87,-594.62 649.87,-603.5 688,-603.5 718.98,-603.5 734.03,-597.64 733.15,-590.44"/>
<polygon fill="#63b8ff" stroke="#63b8ff" points="730.64,-586.33 735.17,-589.42 731.31,-587.43 733.25,-590.6 733.25,-590.6 733.25,-590.6 731.31,-587.43 731.33,-591.77 730.64,-586.33"/>
</a>
</g>
</g>
<!-- Node9&#45;&gt;Node5 -->
<g id="edge16_Node000009_Node000005" class="edge">
<title>Node9&#45;&gt;Node5</title>
<g id="a_edge16_Node000009_Node000005"><a xlink:title=" ">
<path fill="none" stroke="#63b8ff" d="M518.28,-451.07C526.49,-448.31 534.55,-445.06 542,-441.25 594.69,-414.3 644.46,-364.57 669.72,-336.98"/>
<polygon fill="#63b8ff" stroke="#63b8ff" points="673.04,-333.33 671.34,-338.54 672.18,-334.28 669.68,-337.03 669.68,-337.03 669.68,-337.03 672.18,-334.28 668.01,-335.52 673.04,-333.33"/>
</a>
</g>
</g>
<!-- Node9&#45;&gt;Node9 -->
<g id="edge17_Node000009_Node000009" class="edge">
<title>Node9&#45;&gt;Node9</title>
<g id="a_edge17_Node000009_Node000009"><a xlink:title=" ">
<path fill="none" stroke="#63b8ff" d="M394.43,-481.3C383.93,-490.62 398.45,-499.5 438,-499.5 470.14,-499.5 485.75,-493.64 484.84,-486.44"/>
<polygon fill="#63b8ff" stroke="#63b8ff" points="482.22,-482.32 486.8,-485.34 482.91,-483.41 484.9,-486.54 484.9,-486.54 484.9,-486.54 482.91,-483.41 483,-487.75 482.22,-482.32"/>
</a>
</g>
</g>
<!-- Node10&#45;&gt;Node5 -->
<g id="edge19_Node000010_Node000005" class="edge">
<title>Node10&#45;&gt;Node5</title>
<g id="a_edge19_Node000010_Node000005"><a xlink:title=" ">
<path fill="none" stroke="#63b8ff" d="M495.39,-146.45C511.86,-152.96 528.93,-161.98 542,-174.25 568.37,-199.02 553.9,-220.27 578,-247.25 597.7,-269.3 625.91,-287.16 648.69,-299.32"/>
<polygon fill="#63b8ff" stroke="#63b8ff" points="652.98,-301.57 647.51,-301.24 651.85,-300.98 648.55,-299.25 648.55,-299.25 648.55,-299.25 651.85,-300.98 649.6,-297.26 652.98,-301.57"/>
</a>
</g>
</g>
<!-- Node10&#45;&gt;Node6 -->
<g id="edge23_Node000010_Node000006" class="edge">
<title>Node10&#45;&gt;Node6</title>
<g id="a_edge23_Node000010_Node000006"><a xlink:title=" ">
<path fill="none" stroke="#63b8ff" d="M488.82,-146.43C515.29,-154.47 548.39,-164.46 578,-173.25 680.39,-203.64 799.88,-238.29 869.43,-258.37"/>
<polygon fill="#63b8ff" stroke="#63b8ff" points="874.01,-259.69 868.58,-260.47 872.78,-259.34 869.21,-258.31 869.21,-258.31 869.21,-258.31 872.78,-259.34 869.83,-256.15 874.01,-259.69"/>
</a>
</g>
</g>
<!-- Node10&#45;&gt;Node10 -->
<g id="edge20_Node000010_Node000010" class="edge">
<title>Node10&#45;&gt;Node10</title>
<g id="a_edge20_Node000010_Node000010"><a xlink:title=" ">
<path fill="none" stroke="#63b8ff" d="M394.43,-146.3C383.93,-155.62 398.45,-164.5 438,-164.5 470.14,-164.5 485.75,-158.64 484.84,-151.44"/>
<polygon fill="#63b8ff" stroke="#63b8ff" points="482.22,-147.32 486.8,-150.34 482.91,-148.41 484.9,-151.54 484.9,-151.54 484.9,-151.54 482.91,-148.41 483,-152.75 482.22,-147.32"/>
</a>
</g>
</g>
<!-- Node11 -->
<g id="Node000011" class="node">
<title>Node11</title>
<g id="a_Node000011"><a xlink:href="../../dd/df2/namespaceanonymous__namespace_02_log_8cpp_03_1_1safe.html#a0fe54293fedacd10e31e2ee3542c331e" target="_top" xlink:title=" ">
<polygon fill="white" stroke="none" points="798,-146.5 578,-146.5 578,-116 798,-116 798,-146.5"/>
<text xml:space="preserve" text-anchor="start" x="586" y="-132.05" font-family="Consolas" font-size="11.00">anonymous_namespace</text>
<text xml:space="preserve" text-anchor="middle" x="688" y="-120.8" font-family="Consolas" font-size="11.00">{Log::cpp}::safe::isIdentifierChar</text>
</a>
</g>
</g>
<!-- Node10&#45;&gt;Node11 -->
<g id="edge21_Node000010_Node000011" class="edge">
<title>Node10&#45;&gt;Node11</title>
<g id="a_edge21_Node000010_Node000011"><a xlink:title=" ">
<path fill="none" stroke="#63b8ff" d="M541.66,-131.25C551.8,-131.25 562.13,-131.25 572.38,-131.25"/>
<polygon fill="#63b8ff" stroke="#63b8ff" points="577.18,-131.25 572.18,-133.5 575.9,-131.25 572.18,-131.25 572.18,-131.25 572.18,-131.25 575.9,-131.25 572.18,-129 577.18,-131.25"/>
</a>
</g>
</g>
<!-- Node11&#45;&gt;Node11 -->
<g id="edge22_Node000011_Node000011" class="edge">
<title>Node11&#45;&gt;Node11</title>
<g id="a_edge22_Node000011_Node000011"><a xlink:title=" ">
<path fill="none" stroke="#63b8ff" d="M646,-146.3C635.87,-155.62 649.87,-164.5 688,-164.5 718.98,-164.5 734.03,-158.64 733.15,-151.44"/>
<polygon fill="#63b8ff" stroke="#63b8ff" points="730.64,-147.33 735.17,-150.42 731.31,-148.43 733.25,-151.6 733.25,-151.6 733.25,-151.6 731.31,-148.43 731.33,-152.77 730.64,-147.33"/>
</a>
</g>
</g>
<!-- Node12&#45;&gt;Node12 -->
<g id="edge25_Node000012_Node000012" class="edge">
<title>Node12&#45;&gt;Node12</title>
<g id="a_edge25_Node000012_Node000012"><a xlink:title=" ">
<path fill="none" stroke="#63b8ff" d="M394.43,-347.3C383.93,-356.62 398.45,-365.5 438,-365.5 470.14,-365.5 485.75,-359.64 484.84,-352.44"/>
<polygon fill="#63b8ff" stroke="#63b8ff" points="482.22,-348.32 486.8,-351.34 482.91,-349.41 484.9,-352.54 484.9,-352.54 484.9,-352.54 482.91,-349.41 483,-353.75 482.22,-348.32"/>
</a>
</g>
</g>
<!-- Node13&#45;&gt;Node13 -->
<g id="edge27_Node000013_Node000013" class="edge">
<title>Node13&#45;&gt;Node13</title>
<g id="a_edge27_Node000013_Node000013"><a xlink:title=" ">
<path fill="none" stroke="#63b8ff" d="M394.43,-280.3C383.93,-289.62 398.45,-298.5 438,-298.5 470.14,-298.5 485.75,-292.64 484.84,-285.44"/>
<polygon fill="#63b8ff" stroke="#63b8ff" points="482.22,-281.32 486.8,-284.34 482.91,-282.41 484.9,-285.54 484.9,-285.54 484.9,-285.54 482.91,-282.41 483,-286.75 482.22,-281.32"/>
</a>
</g>
</g>
<!-- Node14&#45;&gt;Node5 -->
<g id="edge29_Node000014_Node000005" class="edge">
<title>Node14&#45;&gt;Node5</title>
<g id="a_edge29_Node000014_Node000005"><a xlink:title=" ">
<path fill="none" stroke="#63b8ff" d="M507.51,-384.01C519.1,-381.04 530.95,-377.75 542,-374.25 578.02,-362.86 617.91,-346.93 646.71,-334.8"/>
<polygon fill="#63b8ff" stroke="#63b8ff" points="651.2,-332.9 647.47,-336.92 650.02,-333.4 646.59,-334.85 646.59,-334.85 646.59,-334.85 650.02,-333.4 645.72,-332.78 651.2,-332.9"/>
</a>
</g>
</g>
<!-- Node14&#45;&gt;Node14 -->
<g id="edge30_Node000014_Node000014" class="edge">
<title>Node14&#45;&gt;Node14</title>
<g id="a_edge30_Node000014_Node000014"><a xlink:title=" ">
<path fill="none" stroke="#63b8ff" d="M394.43,-414.3C383.93,-423.62 398.45,-432.5 438,-432.5 470.14,-432.5 485.75,-426.64 484.84,-419.44"/>
<polygon fill="#63b8ff" stroke="#63b8ff" points="482.22,-415.32 486.8,-418.34 482.91,-416.41 484.9,-419.54 484.9,-419.54 484.9,-419.54 482.91,-416.41 483,-420.75 482.22,-415.32"/>
</a>
</g>
</g>
<!-- Node15&#45;&gt;Node5 -->
<g id="edge32_Node000015_Node000005" class="edge">
<title>Node15&#45;&gt;Node5</title>
<g id="a_edge32_Node000015_Node000005"><a xlink:title=" ">
<path fill="none" stroke="#63b8ff" d="M477.5,-213.39C497.01,-221.3 520.95,-231.36 542,-241.25 581.35,-259.74 625.45,-283.27 654.57,-299.21"/>
<polygon fill="#63b8ff" stroke="#63b8ff" points="658.76,-301.51 653.3,-301.08 657.64,-300.9 654.38,-299.11 654.38,-299.11 654.38,-299.11 657.64,-300.9 655.46,-297.13 658.76,-301.51"/>
</a>
</g>
</g>
<!-- Node15&#45;&gt;Node15 -->
<g id="edge33_Node000015_Node000015" class="edge">
<title>Node15&#45;&gt;Node15</title>
<g id="a_edge33_Node000015_Node000015"><a xlink:title=" ">
<path fill="none" stroke="#63b8ff" d="M394.43,-213.3C383.93,-222.62 398.45,-231.5 438,-231.5 470.14,-231.5 485.75,-225.64 484.84,-218.44"/>
<polygon fill="#63b8ff" stroke="#63b8ff" points="482.22,-214.32 486.8,-217.34 482.91,-215.41 484.9,-218.54 484.9,-218.54 484.9,-218.54 482.91,-215.41 483,-219.75 482.22,-214.32"/>
</a>
</g>
</g>
<!-- Node16&#45;&gt;Node16 -->
<g id="edge35_Node000016_Node000016" class="edge">
<title>Node16&#45;&gt;Node16</title>
<g id="a_edge35_Node000016_Node000016"><a xlink:title=" ">
<path fill="none" stroke="#63b8ff" d="M394.43,-79.3C383.93,-88.62 398.45,-97.5 438,-97.5 470.14,-97.5 485.75,-91.64 484.84,-84.44"/>
<polygon fill="#63b8ff" stroke="#63b8ff" points="482.22,-80.32 486.8,-83.34 482.91,-81.41 484.9,-84.54 484.9,-84.54 484.9,-84.54 482.91,-81.41 483,-85.75 482.22,-80.32"/>
</a>
</g>
</g>
<!-- Node17 -->
<g id="Node000017" class="node">
<title>Node17</title>
<g id="a_Node000017"><a xlink:href="../../dc/dba/namespacenpi_1_1app.html#a30b5245afa890e98f19f43c58f29e633" target="_top" xlink:title="Windows native fatal error message box.">
<polygon fill="white" stroke="none" points="780,-85.88 596,-85.88 596,-66.62 780,-66.62 780,-85.88"/>
<text xml:space="preserve" text-anchor="middle" x="688" y="-71.42" font-family="Consolas" font-size="11.00">npi::app::nativeFatalMessage</text>
</a>
</g>
</g>
<!-- Node16&#45;&gt;Node17 -->
<g id="edge36_Node000016_Node000017" class="edge">
<title>Node16&#45;&gt;Node17</title>
<g id="a_edge36_Node000016_Node000017"><a xlink:title=" ">
<path fill="none" stroke="#63b8ff" d="M532.76,-68.79C551.65,-69.7 571.55,-70.66 590.53,-71.58"/>
<polygon fill="#63b8ff" stroke="#63b8ff" points="595.17,-71.81 590.07,-73.81 593.89,-71.74 590.18,-71.57 590.18,-71.57 590.18,-71.57 593.89,-71.74 590.29,-69.32 595.17,-71.81"/>
</a>
</g>
</g>
<!-- Node18 -->
<g id="Node000018" class="node">
<title>Node18</title>
<g id="a_Node000018"><a xlink:href="../../dd/df2/namespaceanonymous__namespace_02_log_8cpp_03_1_1safe.html#abc25ab769b48a34eb27ff7c789822b7e" target="_top" xlink:title=" ">
<polygon fill="white" stroke="none" points="792,-30.5 584,-30.5 584,0 792,0 792,-30.5"/>
<text xml:space="preserve" text-anchor="start" x="592" y="-16.05" font-family="Consolas" font-size="11.00">anonymous_namespace</text>
<text xml:space="preserve" text-anchor="middle" x="688" y="-4.8" font-family="Consolas" font-size="11.00">{Log::cpp}::safe::win32ErrorText</text>
</a>
</g>
</g>
<!-- Node16&#45;&gt;Node18 -->
<g id="edge37_Node000016_Node000018" class="edge">
<title>Node16&#45;&gt;Node18</title>
<g id="a_edge37_Node000016_Node000018"><a xlink:title=" ">
<path fill="none" stroke="#63b8ff" d="M516.11,-49.01C543.99,-43.51 575.57,-37.27 603.94,-31.66"/>
<polygon fill="#63b8ff" stroke="#63b8ff" points="608.74,-30.71 604.27,-33.89 607.49,-30.96 603.84,-31.68 603.84,-31.68 603.84,-31.68 607.49,-30.96 603.4,-29.47 608.74,-30.71"/>
</a>
</g>
</g>
<!-- Node18&#45;&gt;Node18 -->
<g id="edge38_Node000018_Node000018" class="edge">
<title>Node18&#45;&gt;Node18</title>
<g id="a_edge38_Node000018_Node000018"><a xlink:title=" ">
<path fill="none" stroke="#63b8ff" d="M646,-30.3C635.87,-39.62 649.87,-48.5 688,-48.5 718.98,-48.5 734.03,-42.64 733.15,-35.44"/>
<polygon fill="#63b8ff" stroke="#63b8ff" points="730.64,-31.33 735.17,-34.42 731.31,-32.43 733.25,-35.6 733.25,-35.6 733.25,-35.6 731.31,-32.43 731.33,-36.77 730.64,-31.33"/>
</a>
</g>
</g>
</g>
</svg>

<g id="navigator" transform="translate(0 0)" fill="#404254">
  <rect fill="#f2f5e9" fill-opacity="0.5" stroke="#606060" stroke-width=".5" x="0" y="0" width="60" height="60"/>
  <use id="zoomplus" xlink:href="#zoomPlus" x="17" y="9" onmousedown="handleZoom(evt,'in')"/>
  <use id="zoomminus" xlink:href="#zoomMin" x="42" y="9" onmousedown="handleZoom(evt,'out')"/>
  <use id="reset" xlink:href="#resetDef" x="30" y="36" onmousedown="handleReset()"/>
   <use id="arrowup" xlink:href="#arrowUp" x="0" y="0" onmousedown="handlePan(0,-1)"/>
  <use id="arrowright" xlink:href="#arrowRight" x="0" y="0" onmousedown="handlePan(1,0)"/>
  <use id="arrowdown" xlink:href="#arrowDown" x="0" y="0" onmousedown="handlePan(0,1)"/>
  <use id="arrowleft" xlink:href="#arrowLeft" x="0" y="0" onmousedown="handlePan(-1,0)"/>
</g>
<svg viewBox="0 0 15 15" width="100%" height="30px" preserveAspectRatio="xMaxYMin meet">
 <g id="arrow_out" transform="scale(0.3 0.3)">
  <a xlink:href="namespaceanonymous__namespace_02_log_8cpp_03_1_1safe_a460f691136cced36ea40b2595c18d0a8_cgraph_org.svg" target="_base">
   <rect id="button" ry="5" rx="5" y="6" x="6" height="38" width="38"
        fill="#f2f5e9" fill-opacity="0.5" stroke="#606060" stroke-width="1.0"/>
   <path id="arrow"
     d="M 11.500037,31.436501 C 11.940474,20.09759 22.043105,11.32322 32.158766,21.979434 L 37.068811,17.246167 C 37.068811,17.246167 37.088388,32 37.088388,32 L 22.160133,31.978069 C 22.160133,31.978069 26.997745,27.140456 26.997745,27.140456 C 18.528582,18.264221 13.291696,25.230495 11.500037,31.436501 z"
     style="fill:#404040;"/>
  </a>
 </g>
</svg>

<style type='text/css'>
<![CDATA[
[data-mouse-over-selected='false'] { opacity: 0.7; }
[data-mouse-over-selected='true']  { opacity: 1.0; }
]]>
</style>
<script type="application/ecmascript"><![CDATA[
document.addEventListener('DOMContentLoaded', (event) => {
  highlightEdges();
  highlightAdjacentNodes();
});
]]></script>
</svg>
