<?xml version="1.0" encoding="UTF-8" standalone="no"?>
<!DOCTYPE svg PUBLIC "-//W3C//DTD SVG 1.1//EN"
 "http://www.w3.org/Graphics/SVG/1.1/DTD/svg11.dtd">
<!-- Generated by graphviz version 14.0.0 (20250921.2048)
 -->
<!-- Title: anonymous_namespace{Log::cpp}::safe::impLogWrite Pages: 1 -->
<svg width="556pt" height="94pt"
 viewBox="0.00 0.00 556.00 94.00" xmlns="http://www.w3.org/2000/svg" xmlns:xlink="http://www.w3.org/1999/xlink">
<g id="graph0" class="graph" transform="scale(1 1) rotate(0) translate(4 89.88)">
<title>anonymous_namespace{Log::cpp}::safe::impLogWrite</title>
<!-- Node1 -->
<g id="Node000001" class="node">
<title>Node1</title>
<g id="a_Node000001"><a xlink:title=" ">
<polygon fill="#999999" stroke="none" points="304,-54.88 0,-54.88 0,-35.62 304,-35.62 304,-54.88"/>
<text xml:space="preserve" text-anchor="start" x="8" y="-41.42" font-family="Consolas" font-weight="bold" font-size="11.00">anonymous_namespace{Log::cpp}::safe::impLogWrite</text>
</a>
</g>
</g>
<!-- Node1&#45;&gt;Node1 -->
<g id="edge1_Node000001_Node000001" class="edge">
<title>Node1&#45;&gt;Node1</title>
<g id="a_edge1_Node000001_Node000001"><a xlink:title=" ">
<path fill="none" stroke="#63b8ff" d="M107.36,-54.73C84.94,-63.46 99.82,-72.88 152,-72.88 199.29,-72.88 215.95,-65.15 201.96,-57.2"/>
<polygon fill="#63b8ff" stroke="#63b8ff" points="197.75,-55.25 203.23,-55.3 198.91,-55.78 202.28,-57.35 202.28,-57.35 202.28,-57.35 198.91,-55.78 201.34,-59.39 197.75,-55.25"/>
</a>
</g>
</g>
<!-- Node2 -->
<g id="Node000002" class="node">
<title>Node2</title>
<g id="a_Node000002"><a xlink:href="../../dc/dba/namespacenpi_1_1app.html#a30b5245afa890e98f19f43c58f29e633" target="_top" xlink:title="Windows native fatal error message box.">
<polygon fill="white" stroke="none" points="536,-85.88 352,-85.88 352,-66.62 536,-66.62 536,-85.88"/>
<text xml:space="preserve" text-anchor="middle" x="444" y="-71.42" font-family="Consolas" font-size="11.00">npi::app::nativeFatalMessage</text>
</a>
</g>
</g>
<!-- Node1&#45;&gt;Node2 -->
<g id="edge2_Node000001_Node000002" class="edge">
<title>Node1&#45;&gt;Node2</title>
<g id="a_edge2_Node000001_Node000002"><a xlink:title=" ">
<path fill="none" stroke="#63b8ff" d="M242.77,-54.85C275.95,-58.39 313.67,-62.42 347.35,-66.03"/>
<polygon fill="#63b8ff" stroke="#63b8ff" points="351.94,-66.52 346.73,-68.22 350.67,-66.38 346.97,-65.98 346.97,-65.98 346.97,-65.98 350.67,-66.38 347.21,-63.75 351.94,-66.52"/>
</a>
</g>
</g>
<!-- Node3 -->
<g id="Node000003" class="node">
<title>Node3</title>
<g id="a_Node000003"><a xlink:href="../../dd/df2/namespaceanonymous__namespace_02_log_8cpp_03_1_1safe.html#abc25ab769b48a34eb27ff7c789822b7e" target="_top" xlink:title=" ">
<polygon fill="white" stroke="none" points="548,-30.5 340,-30.5 340,0 548,0 548,-30.5"/>
<text xml:space="preserve" text-anchor="start" x="348" y="-16.05" font-family="Consolas" font-size="11.00">anonymous_namespace</text>
<text xml:space="preserve" text-anchor="middle" x="444" y="-4.8" font-family="Consolas" font-size="11.00">{Log::cpp}::safe::win32ErrorText</text>
</a>
</g>
</g>
<!-- Node1&#45;&gt;Node3 -->
<g id="edge3_Node000001_Node000003" class="edge">
<title>Node1&#45;&gt;Node3</title>
<g id="a_edge3_Node000001_Node000003"><a xlink:title=" ">
<path fill="none" stroke="#63b8ff" d="M245.95,-35.63C273.95,-32.74 304.93,-29.53 333.87,-26.54"/>
<polygon fill="#63b8ff" stroke="#63b8ff" points="338.81,-26.03 334.06,-28.78 337.53,-26.16 333.83,-26.54 333.83,-26.54 333.83,-26.54 337.53,-26.16 333.6,-24.31 338.81,-26.03"/>
</a>
</g>
</g>
<!-- Node3&#45;&gt;Node3 -->
<g id="edge4_Node000003_Node000003" class="edge">
<title>Node3&#45;&gt;Node3</title>
<g id="a_edge4_Node000003_Node000003"><a xlink:title=" ">
<path fill="none" stroke="#63b8ff" d="M393.11,-30.3C380.84,-39.62 397.8,-48.5 444,-48.5 482.26,-48.5 500.46,-42.41 498.62,-35.02"/>
<polygon fill="#63b8ff" stroke="#63b8ff" points="495.64,-31.25 500.51,-33.78 496.44,-32.26 498.74,-35.17 498.74,-35.17 498.74,-35.17 496.44,-32.26 496.98,-36.57 495.64,-31.25"/>
</a>
</g>
</g>
</g>
</svg>
