<?xml version="1.0" encoding="UTF-8" standalone="no"?>
<!DOCTYPE svg PUBLIC "-//W3C//DTD SVG 1.1//EN"
 "http://www.w3.org/Graphics/SVG/1.1/DTD/svg11.dtd">
<!-- Generated by graphviz version 14.0.0 (20250921.2048)
 -->
<!-- Title: anonymous_namespace{Log::cpp}::safe::pureCallHandler Pages: 1 -->
<svg width="1038pt" height="221pt"
 viewBox="0.00 0.00 1038.00 221.00" xmlns="http://www.w3.org/2000/svg" xmlns:xlink="http://www.w3.org/1999/xlink">
<g id="graph0" class="graph" transform="scale(1 1) rotate(0) translate(4 216.5)">
<title>anonymous_namespace{Log::cpp}::safe::pureCallHandler</title>
<!-- Node1 -->
<g id="Node000001" class="node">
<title>Node1</title>
<g id="a_Node000001"><a xlink:title=" ">
<polygon fill="#999999" stroke="none" points="328,-121.88 0,-121.88 0,-102.62 328,-102.62 328,-121.88"/>
<text xml:space="preserve" text-anchor="start" x="8" y="-108.42" font-family="Consolas" font-weight="bold" font-size="11.00">anonymous_namespace{Log::cpp}::safe::pureCallHandler</text>
</a>
</g>
</g>
<!-- Node1&#45;&gt;Node1 -->
<g id="edge14_Node000001_Node000001" class="edge">
<title>Node1&#45;&gt;Node1</title>
<g id="a_edge14_Node000001_Node000001"><a xlink:title=" ">
<path fill="none" stroke="#63b8ff" d="M118.44,-121.73C95.56,-130.46 110.74,-139.88 164,-139.88 212.26,-139.88 229.26,-132.15 214.99,-124.2"/>
<polygon fill="#63b8ff" stroke="#63b8ff" points="210.67,-122.24 216.15,-122.25 211.84,-122.77 215.22,-124.3 215.22,-124.3 215.22,-124.3 211.84,-122.77 214.29,-126.35 210.67,-122.24"/>
</a>
</g>
</g>
<!-- Node2 -->
<g id="Node000002" class="node">
<title>Node2</title>
<g id="a_Node000002"><a xlink:href="../../dd/df2/namespaceanonymous__namespace_02_log_8cpp_03_1_1safe.html#aa8d11c260254c761c7437280b4284d17" target="_top" xlink:title=" ">
<polygon fill="white" stroke="none" points="551,-194.5 373,-194.5 373,-164 551,-164 551,-194.5"/>
<text xml:space="preserve" text-anchor="start" x="381" y="-180.05" font-family="Consolas" font-size="11.00">anonymous_namespace</text>
<text xml:space="preserve" text-anchor="middle" x="462" y="-168.8" font-family="Consolas" font-size="11.00">{Log::cpp}::safe::appendTxt</text>
</a>
</g>
</g>
<!-- Node1&#45;&gt;Node2 -->
<g id="edge1_Node000001_Node000002" class="edge">
<title>Node1&#45;&gt;Node2</title>
<g id="a_edge1_Node000001_Node000002"><a xlink:title=" ">
<path fill="none" stroke="#63b8ff" d="M207.41,-121.85C254.47,-132.5 331.25,-149.88 388.02,-162.73"/>
<polygon fill="#63b8ff" stroke="#63b8ff" points="392.6,-163.77 387.23,-164.86 391.35,-163.49 387.73,-162.66 387.73,-162.66 387.73,-162.66 391.35,-163.49 388.22,-160.47 392.6,-163.77"/>
</a>
</g>
</g>
<!-- Node5 -->
<g id="Node000005" class="node">
<title>Node5</title>
<g id="a_Node000005"><a xlink:href="../../dd/df2/namespaceanonymous__namespace_02_log_8cpp_03_1_1safe.html#aee2abc51c02c7af63c137ba0ea58c71a" target="_top" xlink:title=" ">
<polygon fill="white" stroke="none" points="560,-127.5 364,-127.5 364,-97 560,-97 560,-127.5"/>
<text xml:space="preserve" text-anchor="start" x="372" y="-113.05" font-family="Consolas" font-size="11.00">anonymous_namespace</text>
<text xml:space="preserve" text-anchor="middle" x="462" y="-101.8" font-family="Consolas" font-size="11.00">{Log::cpp}::safe::hardFailFast</text>
</a>
</g>
</g>
<!-- Node1&#45;&gt;Node5 -->
<g id="edge7_Node000001_Node000005" class="edge">
<title>Node1&#45;&gt;Node5</title>
<g id="a_edge7_Node000001_Node000005"><a xlink:title=" ">
<path fill="none" stroke="#63b8ff" d="M327.72,-112.25C337.96,-112.25 348.1,-112.25 357.94,-112.25"/>
<polygon fill="#63b8ff" stroke="#63b8ff" points="362.82,-112.25 357.82,-114.5 361.53,-112.25 357.82,-112.25 357.82,-112.25 357.82,-112.25 361.53,-112.25 357.82,-110 362.82,-112.25"/>
</a>
</g>
</g>
<!-- Node6 -->
<g id="Node000006" class="node">
<title>Node6</title>
<g id="a_Node000006"><a xlink:href="../../dd/df2/namespaceanonymous__namespace_02_log_8cpp_03_1_1safe.html#a97522aab6ec53ce2693cf4a5432927bf" target="_top" xlink:title=" ">
<polygon fill="white" stroke="none" points="557,-60.5 367,-60.5 367,-30 557,-30 557,-60.5"/>
<text xml:space="preserve" text-anchor="start" x="375" y="-46.05" font-family="Consolas" font-size="11.00">anonymous_namespace</text>
<text xml:space="preserve" text-anchor="middle" x="462" y="-34.8" font-family="Consolas" font-size="11.00">{Log::cpp}::safe::impLogWrite</text>
</a>
</g>
</g>
<!-- Node1&#45;&gt;Node6 -->
<g id="edge9_Node000001_Node000006" class="edge">
<title>Node1&#45;&gt;Node6</title>
<g id="a_edge9_Node000001_Node000006"><a xlink:title=" ">
<path fill="none" stroke="#63b8ff" d="M207.41,-102.65C254.47,-92 331.25,-74.62 388.02,-61.77"/>
<polygon fill="#63b8ff" stroke="#63b8ff" points="392.6,-60.73 388.22,-64.03 391.35,-61.01 387.73,-61.84 387.73,-61.84 387.73,-61.84 391.35,-61.01 387.23,-59.64 392.6,-60.73"/>
</a>
</g>
</g>
<!-- Node2&#45;&gt;Node2 -->
<g id="edge6_Node000002_Node000002" class="edge">
<title>Node2&#45;&gt;Node2</title>
<g id="a_edge6_Node000002_Node000002"><a xlink:title=" ">
<path fill="none" stroke="#63b8ff" d="M420.52,-194.3C410.52,-203.62 424.35,-212.5 462,-212.5 492.59,-212.5 507.46,-206.64 506.59,-199.44"/>
<polygon fill="#63b8ff" stroke="#63b8ff" points="504.11,-195.34 508.62,-198.45 504.77,-196.43 506.7,-199.62 506.7,-199.62 506.7,-199.62 504.77,-196.43 504.77,-200.78 504.11,-195.34"/>
</a>
</g>
</g>
<!-- Node3 -->
<g id="Node000003" class="node">
<title>Node3</title>
<g id="a_Node000003"><a xlink:href="../../dd/df2/namespaceanonymous__namespace_02_log_8cpp_03_1_1safe.html#a65353ac3c8d675a9a827bed9e11acc17" target="_top" xlink:title=" ">
<polygon fill="white" stroke="none" points="789,-194.5 611,-194.5 611,-164 789,-164 789,-194.5"/>
<text xml:space="preserve" text-anchor="start" x="619" y="-180.05" font-family="Consolas" font-size="11.00">anonymous_namespace</text>
<text xml:space="preserve" text-anchor="middle" x="700" y="-168.8" font-family="Consolas" font-size="11.00">{Log::cpp}::safe::appendChr</text>
</a>
</g>
</g>
<!-- Node2&#45;&gt;Node3 -->
<g id="edge2_Node000002_Node000003" class="edge">
<title>Node2&#45;&gt;Node3</title>
<g id="a_edge2_Node000002_Node000003"><a xlink:title=" ">
<path fill="none" stroke="#63b8ff" d="M550.88,-179.25C568.54,-179.25 587.16,-179.25 605.02,-179.25"/>
<polygon fill="#63b8ff" stroke="#63b8ff" points="609.83,-179.25 604.83,-181.5 608.55,-179.25 604.83,-179.25 604.83,-179.25 604.83,-179.25 608.55,-179.25 604.83,-177 609.83,-179.25"/>
</a>
</g>
</g>
<!-- Node3&#45;&gt;Node3 -->
<g id="edge3_Node000003_Node000003" class="edge">
<title>Node3&#45;&gt;Node3</title>
<g id="a_edge3_Node000003_Node000003"><a xlink:title=" ">
<path fill="none" stroke="#63b8ff" d="M659.05,-194.3C649.17,-203.62 662.82,-212.5 700,-212.5 730.21,-212.5 744.88,-206.64 744.03,-199.44"/>
<polygon fill="#63b8ff" stroke="#63b8ff" points="741.58,-195.34 746.07,-198.48 742.24,-196.44 744.14,-199.63 744.14,-199.63 744.14,-199.63 742.24,-196.44 742.21,-200.79 741.58,-195.34"/>
</a>
</g>
</g>
<!-- Node4 -->
<g id="Node000004" class="node">
<title>Node4</title>
<g id="a_Node000004"><a xlink:href="../../dd/df2/namespaceanonymous__namespace_02_log_8cpp_03_1_1safe.html#a1e4219749cab61533a6faf773fe7cddb" target="_top" xlink:title=" ">
<polygon fill="white" stroke="none" points="1030,-194.5 840,-194.5 840,-164 1030,-164 1030,-194.5"/>
<text xml:space="preserve" text-anchor="start" x="848" y="-180.05" font-family="Consolas" font-size="11.00">anonymous_namespace</text>
<text xml:space="preserve" text-anchor="middle" x="935" y="-168.8" font-family="Consolas" font-size="11.00">{Log::cpp}::safe::isSpaceChar</text>
</a>
</g>
</g>
<!-- Node3&#45;&gt;Node4 -->
<g id="edge4_Node000003_Node000004" class="edge">
<title>Node3&#45;&gt;Node4</title>
<g id="a_edge4_Node000003_Node000004"><a xlink:title=" ">
<path fill="none" stroke="#63b8ff" d="M788.76,-179.25C803.56,-179.25 819.03,-179.25 834.11,-179.25"/>
<polygon fill="#63b8ff" stroke="#63b8ff" points="838.88,-179.25 833.88,-181.5 837.6,-179.25 833.88,-179.25 833.88,-179.25 833.88,-179.25 837.6,-179.25 833.88,-177 838.88,-179.25"/>
</a>
</g>
</g>
<!-- Node4&#45;&gt;Node4 -->
<g id="edge5_Node000004_Node000004" class="edge">
<title>Node4&#45;&gt;Node4</title>
<g id="a_edge5_Node000004_Node000004"><a xlink:title=" ">
<path fill="none" stroke="#63b8ff" d="M894.05,-194.3C884.17,-203.62 897.82,-212.5 935,-212.5 965.21,-212.5 979.88,-206.64 979.03,-199.44"/>
<polygon fill="#63b8ff" stroke="#63b8ff" points="976.58,-195.34 981.07,-198.48 977.24,-196.44 979.14,-199.63 979.14,-199.63 979.14,-199.63 977.24,-196.44 977.21,-200.79 976.58,-195.34"/>
</a>
</g>
</g>
<!-- Node5&#45;&gt;Node5 -->
<g id="edge8_Node000005_Node000005" class="edge">
<title>Node5&#45;&gt;Node5</title>
<g id="a_edge8_Node000005_Node000005"><a xlink:title=" ">
<path fill="none" stroke="#63b8ff" d="M420.52,-127.3C410.52,-136.62 424.35,-145.5 462,-145.5 492.59,-145.5 507.46,-139.64 506.59,-132.44"/>
<polygon fill="#63b8ff" stroke="#63b8ff" points="504.11,-128.34 508.62,-131.45 504.77,-129.43 506.7,-132.62 506.7,-132.62 506.7,-132.62 504.77,-129.43 504.77,-133.78 504.11,-128.34"/>
</a>
</g>
</g>
<!-- Node6&#45;&gt;Node6 -->
<g id="edge10_Node000006_Node000006" class="edge">
<title>Node6&#45;&gt;Node6</title>
<g id="a_edge10_Node000006_Node000006"><a xlink:title=" ">
<path fill="none" stroke="#63b8ff" d="M420.52,-60.3C410.52,-69.62 424.35,-78.5 462,-78.5 492.59,-78.5 507.46,-72.64 506.59,-65.44"/>
<polygon fill="#63b8ff" stroke="#63b8ff" points="504.11,-61.34 508.62,-64.45 504.77,-62.43 506.7,-65.62 506.7,-65.62 506.7,-65.62 504.77,-62.43 504.77,-66.78 504.11,-61.34"/>
</a>
</g>
</g>
<!-- Node7 -->
<g id="Node000007" class="node">
<title>Node7</title>
<g id="a_Node000007"><a xlink:href="../../dc/dba/namespacenpi_1_1app.html#a30b5245afa890e98f19f43c58f29e633" target="_top" xlink:title="Windows native fatal error message box.">
<polygon fill="white" stroke="none" points="792,-85.88 608,-85.88 608,-66.62 792,-66.62 792,-85.88"/>
<text xml:space="preserve" text-anchor="middle" x="700" y="-71.42" font-family="Consolas" font-size="11.00">npi::app::nativeFatalMessage</text>
</a>
</g>
</g>
<!-- Node6&#45;&gt;Node7 -->
<g id="edge11_Node000006_Node000007" class="edge">
<title>Node6&#45;&gt;Node7</title>
<g id="a_edge11_Node000006_Node000007"><a xlink:title=" ">
<path fill="none" stroke="#63b8ff" d="M556.95,-57.59C577.78,-60.33 599.64,-63.2 619.81,-65.85"/>
<polygon fill="#63b8ff" stroke="#63b8ff" points="624.52,-66.47 619.27,-68.05 623.25,-66.3 619.56,-65.82 619.56,-65.82 619.56,-65.82 623.25,-66.3 619.86,-63.58 624.52,-66.47"/>
</a>
</g>
</g>
<!-- Node8 -->
<g id="Node000008" class="node">
<title>Node8</title>
<g id="a_Node000008"><a xlink:href="../../dd/df2/namespaceanonymous__namespace_02_log_8cpp_03_1_1safe.html#abc25ab769b48a34eb27ff7c789822b7e" target="_top" xlink:title=" ">
<polygon fill="white" stroke="none" points="804,-30.5 596,-30.5 596,0 804,0 804,-30.5"/>
<text xml:space="preserve" text-anchor="start" x="604" y="-16.05" font-family="Consolas" font-size="11.00">anonymous_namespace</text>
<text xml:space="preserve" text-anchor="middle" x="700" y="-4.8" font-family="Consolas" font-size="11.00">{Log::cpp}::safe::win32ErrorText</text>
</a>
</g>
</g>
<!-- Node6&#45;&gt;Node8 -->
<g id="edge12_Node000006_Node000008" class="edge">
<title>Node6&#45;&gt;Node8</title>
<g id="a_edge12_Node000006_Node000008"><a xlink:title=" ">
<path fill="none" stroke="#63b8ff" d="M556.95,-33.31C567.8,-31.93 578.93,-30.51 589.95,-29.11"/>
<polygon fill="#63b8ff" stroke="#63b8ff" points="594.85,-28.49 590.18,-31.35 593.58,-28.65 589.89,-29.12 589.89,-29.12 589.89,-29.12 593.58,-28.65 589.61,-26.89 594.85,-28.49"/>
</a>
</g>
</g>
<!-- Node8&#45;&gt;Node8 -->
<g id="edge13_Node000008_Node000008" class="edge">
<title>Node8&#45;&gt;Node8</title>
<g id="a_edge13_Node000008_Node000008"><a xlink:title=" ">
<path fill="none" stroke="#63b8ff" d="M659.05,-30.3C649.17,-39.62 662.82,-48.5 700,-48.5 730.21,-48.5 744.88,-42.64 744.03,-35.44"/>
<polygon fill="#63b8ff" stroke="#63b8ff" points="741.58,-31.34 746.07,-34.48 742.24,-32.44 744.14,-35.63 744.14,-35.63 744.14,-35.63 742.24,-32.44 742.21,-36.79 741.58,-31.34"/>
</a>
</g>
</g>
</g>
</svg>
