<?xml version="1.0" encoding="UTF-8" standalone="no"?>
<!DOCTYPE svg PUBLIC "-//W3C//DTD SVG 1.1//EN"
 "http://www.w3.org/Graphics/SVG/1.1/DTD/svg11.dtd">
<!-- Generated by graphviz version 14.0.0 (20250921.2048)
 -->
<!-- Title: anonymous_namespace{Log::cpp}::safe::msgHandler Pages: 1 -->
<svg width="846pt" height="57pt"
 viewBox="0.00 0.00 846.00 57.00" xmlns="http://www.w3.org/2000/svg" xmlns:xlink="http://www.w3.org/1999/xlink">
<g id="graph0" class="graph" transform="scale(1 1) rotate(0) translate(4 52.5)">
<title>anonymous_namespace{Log::cpp}::safe::msgHandler</title>
<!-- Node1 -->
<g id="Node000001" class="node">
<title>Node1</title>
<g id="a_Node000001"><a xlink:title=" ">
<polygon fill="#999999" stroke="none" points="838,-30.5 540,-30.5 540,-11.25 838,-11.25 838,-30.5"/>
<text xml:space="preserve" text-anchor="start" x="548" y="-17.05" font-family="Consolas" font-weight="bold" font-size="11.00">anonymous_namespace{Log::cpp}::safe::msgHandler</text>
</a>
</g>
</g>
<!-- Node1&#45;&gt;Node1 -->
<g id="edge1_Node000001_Node000001" class="edge">
<title>Node1&#45;&gt;Node1</title>
<g id="a_edge1_Node000001_Node000001"><a xlink:title=" ">
<path fill="none" stroke="#63b8ff" d="M732.37,-33.23C743.25,-41.04 728.79,-48.5 689,-48.5 644.32,-48.5 631.58,-39.09 650.78,-30.36"/>
<polygon fill="#63b8ff" stroke="#63b8ff" points="728.28,-30.95 733.75,-31.42 729.4,-31.58 732.65,-33.39 732.65,-33.39 732.65,-33.39 729.4,-31.58 731.55,-35.35 728.28,-30.95"/>
</a>
</g>
</g>
<!-- Node2 -->
<g id="Node000002" class="node">
<title>Node2</title>
<g id="a_Node000002"><a xlink:href="../../d0/d61/classanonymous__namespace_02_log_8cpp_03_1_1_log_core.html#ac83f155438d4a0447ac048d50c7b1a47" target="_top" xlink:title=" ">
<polygon fill="white" stroke="none" points="504,-41.75 374,-41.75 374,0 504,0 504,-41.75"/>
<text xml:space="preserve" text-anchor="start" x="382" y="-27.3" font-family="Consolas" font-size="11.00">anonymous_namespace</text>
<text xml:space="preserve" text-anchor="start" x="382" y="-16.05" font-family="Consolas" font-size="11.00">{Log::cpp}::LogCore</text>
<text xml:space="preserve" text-anchor="middle" x="439" y="-4.8" font-family="Consolas" font-size="11.00">::msgHandler_</text>
</a>
</g>
</g>
<!-- Node1&#45;&gt;Node2 -->
<g id="edge2_Node000001_Node000002" class="edge">
<title>Node1&#45;&gt;Node2</title>
<g id="a_edge2_Node000001_Node000002"><a xlink:title=" ">
<path fill="none" stroke="#63b8ff" d="M533.96,-20.88C523.49,-20.88 513.32,-20.88 503.78,-20.88"/>
<polygon fill="#63b8ff" stroke="#63b8ff" points="538.94,-20.88 533.94,-23.13 537.66,-20.88 533.94,-20.88 533.94,-20.88 533.94,-20.88 537.66,-20.88 533.94,-18.63 538.94,-20.88"/>
</a>
</g>
</g>
<!-- Node3 -->
<g id="Node000003" class="node">
<title>Node3</title>
<g id="a_Node000003"><a xlink:href="../../dc/d8e/namespaceanonymous__namespace_02_log_8cpp_03.html#a0c2edb98e44610adcc75724bbf4edfb8" target="_top" xlink:title=" ">
<polygon fill="white" stroke="none" points="338,-36.12 190,-36.12 190,-5.63 338,-5.63 338,-36.12"/>
<text xml:space="preserve" text-anchor="start" x="198" y="-21.68" font-family="Consolas" font-size="11.00">anonymous_namespace</text>
<text xml:space="preserve" text-anchor="middle" x="264" y="-10.43" font-family="Consolas" font-size="11.00">{Log::cpp}::msgHandler</text>
</a>
</g>
</g>
<!-- Node2&#45;&gt;Node3 -->
<g id="edge3_Node000002_Node000003" class="edge">
<title>Node2&#45;&gt;Node3</title>
<g id="a_edge3_Node000002_Node000003"><a xlink:title=" ">
<path fill="none" stroke="#63b8ff" d="M367.92,-20.88C357.97,-20.88 347.71,-20.88 337.71,-20.88"/>
<polygon fill="#63b8ff" stroke="#63b8ff" points="372.85,-20.88 367.85,-23.13 371.57,-20.88 367.85,-20.88 367.85,-20.88 367.85,-20.88 371.57,-20.88 367.85,-18.63 372.85,-20.88"/>
</a>
</g>
</g>
<!-- Node4 -->
<g id="Node000004" class="node">
<title>Node4</title>
<g id="a_Node000004"><a xlink:href="../../dc/d8e/namespaceanonymous__namespace_02_log_8cpp_03.html#a7a82c11accb191c2f06849f6d13db39a" target="_top" xlink:title=" ">
<polygon fill="white" stroke="none" points="154,-36.12 0,-36.12 0,-5.63 154,-5.63 154,-36.12"/>
<text xml:space="preserve" text-anchor="start" x="8" y="-21.68" font-family="Consolas" font-size="11.00">anonymous_namespace</text>
<text xml:space="preserve" text-anchor="middle" x="77" y="-10.43" font-family="Consolas" font-size="11.00">{Log::cpp}::initLogging</text>
</a>
</g>
</g>
<!-- Node3&#45;&gt;Node4 -->
<g id="edge4_Node000003_Node000004" class="edge">
<title>Node3&#45;&gt;Node4</title>
<g id="a_edge4_Node000003_Node000004"><a xlink:title=" ">
<path fill="none" stroke="#63b8ff" d="M183.96,-20.88C173.97,-20.88 163.77,-20.88 153.83,-20.88"/>
<polygon fill="#63b8ff" stroke="#63b8ff" points="188.93,-20.88 183.93,-23.13 187.65,-20.88 183.93,-20.88 183.93,-20.88 183.93,-20.88 187.65,-20.88 183.93,-18.63 188.93,-20.88"/>
</a>
</g>
</g>
</g>
</svg>
