<?xml version="1.0" encoding="UTF-8" standalone="no"?>
<!DOCTYPE svg PUBLIC "-//W3C//DTD SVG 1.1//EN"
 "http://www.w3.org/Graphics/SVG/1.1/DTD/svg11.dtd">
<!-- Generated by graphviz version 14.0.0 (20250921.2048)
 -->
<!-- Title: anonymous_namespace{Log::cpp}::safe::decDigits Pages: 1 -->
<svg width="1358pt" height="203pt"
 viewBox="0.00 0.00 1358.00 203.00" xmlns="http://www.w3.org/2000/svg" xmlns:xlink="http://www.w3.org/1999/xlink">
<g id="graph0" class="graph" transform="scale(1 1) rotate(0) translate(4 198.75)">
<title>anonymous_namespace{Log::cpp}::safe::decDigits</title>
<!-- Node1 -->
<g id="Node000001" class="node">
<title>Node1</title>
<g id="a_Node000001"><a xlink:title=" ">
<polygon fill="#999999" stroke="none" points="1350,-93.5 1058,-93.5 1058,-74.25 1350,-74.25 1350,-93.5"/>
<text xml:space="preserve" text-anchor="start" x="1066" y="-80.05" font-family="Consolas" font-weight="bold" font-size="11.00">anonymous_namespace{Log::cpp}::safe::decDigits</text>
</a>
</g>
</g>
<!-- Node1&#45;&gt;Node1 -->
<g id="edge16_Node000001_Node000001" class="edge">
<title>Node1&#45;&gt;Node1</title>
<g id="a_edge16_Node000001_Node000001"><a xlink:title=" ">
<path fill="none" stroke="#63b8ff" d="M1250.7,-96.03C1263.08,-103.9 1247.51,-111.5 1204,-111.5 1155.57,-111.5 1141.76,-102.09 1162.57,-93.36"/>
<polygon fill="#63b8ff" stroke="#63b8ff" points="1246.52,-93.91 1251.99,-94.16 1247.66,-94.49 1250.98,-96.17 1250.98,-96.17 1250.98,-96.17 1247.66,-94.49 1249.96,-98.18 1246.52,-93.91"/>
</a>
</g>
</g>
<!-- Node2 -->
<g id="Node000002" class="node">
<title>Node2</title>
<g id="a_Node000002"><a xlink:href="../../dd/df2/namespaceanonymous__namespace_02_log_8cpp_03_1_1safe.html#a0b4f620e950ef2e9f44027327f4bd27f" target="_top" xlink:title=" ">
<polygon fill="white" stroke="none" points="1022,-99.12 844,-99.12 844,-68.62 1022,-68.62 1022,-99.12"/>
<text xml:space="preserve" text-anchor="start" x="852" y="-84.67" font-family="Consolas" font-size="11.00">anonymous_namespace</text>
<text xml:space="preserve" text-anchor="middle" x="933" y="-73.42" font-family="Consolas" font-size="11.00">{Log::cpp}::safe::appendDec</text>
</a>
</g>
</g>
<!-- Node1&#45;&gt;Node2 -->
<g id="edge1_Node000001_Node000002" class="edge">
<title>Node1&#45;&gt;Node2</title>
<g id="a_edge1_Node000001_Node000002"><a xlink:title=" ">
<path fill="none" stroke="#63b8ff" d="M1052.15,-83.88C1041.8,-83.88 1031.58,-83.88 1021.74,-83.88"/>
<polygon fill="#63b8ff" stroke="#63b8ff" points="1057.05,-83.88 1052.05,-86.13 1055.76,-83.88 1052.05,-83.88 1052.05,-83.88 1052.05,-83.88 1055.76,-83.88 1052.05,-81.63 1057.05,-83.88"/>
</a>
</g>
</g>
<!-- Node2&#45;&gt;Node2 -->
<g id="edge2_Node000002_Node000002" class="edge">
<title>Node2&#45;&gt;Node2</title>
<g id="a_edge2_Node000002_Node000002"><a xlink:title=" ">
<path fill="none" stroke="#63b8ff" d="M975.34,-104.06C976.16,-111.27 962.05,-117.12 933,-117.12 897.25,-117.12 884.12,-108.25 893.61,-98.92"/>
<polygon fill="#63b8ff" stroke="#63b8ff" points="972.99,-99.98 977.43,-103.19 973.63,-101.09 975.48,-104.31 975.48,-104.31 975.48,-104.31 973.63,-101.09 973.53,-105.43 972.99,-99.98"/>
</a>
</g>
</g>
<!-- Node3 -->
<g id="Node000003" class="node">
<title>Node3</title>
<g id="a_Node000003"><a xlink:href="../../dd/df2/namespaceanonymous__namespace_02_log_8cpp_03_1_1safe.html#a110b11e90b5bb8ae5c8a1521e33eec21" target="_top" xlink:title=" ">
<polygon fill="white" stroke="none" points="805,-176.75 609,-176.75 609,-135 805,-135 805,-176.75"/>
<text xml:space="preserve" text-anchor="start" x="617" y="-162.3" font-family="Consolas" font-size="11.00">anonymous_namespace</text>
<text xml:space="preserve" text-anchor="start" x="617" y="-151.05" font-family="Consolas" font-size="11.00">{Log::cpp}::safe::invalidParam</text>
<text xml:space="preserve" text-anchor="middle" x="707" y="-139.8" font-family="Consolas" font-size="11.00">Handler</text>
</a>
</g>
</g>
<!-- Node2&#45;&gt;Node3 -->
<g id="edge3_Node000002_Node000003" class="edge">
<title>Node2&#45;&gt;Node3</title>
<g id="a_edge3_Node000002_Node000003"><a xlink:title=" ">
<path fill="none" stroke="#63b8ff" d="M882.56,-101.06C859.9,-108.83 832.65,-118.01 808,-125.88 798.5,-128.91 788.47,-132.02 778.57,-135.04"/>
<polygon fill="#63b8ff" stroke="#63b8ff" points="887.07,-99.52 883.07,-103.27 885.86,-99.93 882.34,-101.14 882.34,-101.14 882.34,-101.14 885.86,-99.93 881.61,-99.01 887.07,-99.52"/>
</a>
</g>
</g>
<!-- Node6 -->
<g id="Node000006" class="node">
<title>Node6</title>
<g id="a_Node000006"><a xlink:href="../../dd/df2/namespaceanonymous__namespace_02_log_8cpp_03_1_1safe.html#a460f691136cced36ea40b2595c18d0a8" target="_top" xlink:title=" ">
<polygon fill="white" stroke="none" points="799,-32.12 615,-32.12 615,-1.63 799,-1.63 799,-32.12"/>
<text xml:space="preserve" text-anchor="start" x="623" y="-17.68" font-family="Consolas" font-size="11.00">anonymous_namespace</text>
<text xml:space="preserve" text-anchor="middle" x="707" y="-6.42" font-family="Consolas" font-size="11.00">{Log::cpp}::safe::msgHandler</text>
</a>
</g>
</g>
<!-- Node2&#45;&gt;Node6 -->
<g id="edge8_Node000002_Node000006" class="edge">
<title>Node2&#45;&gt;Node6</title>
<g id="a_edge8_Node000002_Node000006"><a xlink:title=" ">
<path fill="none" stroke="#63b8ff" d="M875.49,-66.97C839.54,-56.22 793.38,-42.41 758.63,-32.02"/>
<polygon fill="#63b8ff" stroke="#63b8ff" points="880,-68.32 874.57,-69.05 878.78,-67.96 875.21,-66.89 875.21,-66.89 875.21,-66.89 878.78,-67.96 875.86,-64.73 880,-68.32"/>
</a>
</g>
</g>
<!-- Node9 -->
<g id="Node000009" class="node">
<title>Node9</title>
<g id="a_Node000009"><a xlink:href="../../dd/df2/namespaceanonymous__namespace_02_log_8cpp_03_1_1safe.html#a05dd8955535418321e297dbbc885a56d" target="_top" xlink:title=" ">
<polygon fill="white" stroke="none" points="808,-99.12 606,-99.12 606,-68.62 808,-68.62 808,-99.12"/>
<text xml:space="preserve" text-anchor="start" x="614" y="-84.67" font-family="Consolas" font-size="11.00">anonymous_namespace</text>
<text xml:space="preserve" text-anchor="middle" x="707" y="-73.42" font-family="Consolas" font-size="11.00">{Log::cpp}::safe::signalHandler</text>
</a>
</g>
</g>
<!-- Node2&#45;&gt;Node9 -->
<g id="edge13_Node000002_Node000009" class="edge">
<title>Node2&#45;&gt;Node9</title>
<g id="a_edge13_Node000002_Node000009"><a xlink:title=" ">
<path fill="none" stroke="#63b8ff" d="M837.95,-83.88C828.01,-83.88 817.88,-83.88 807.87,-83.88"/>
<polygon fill="#63b8ff" stroke="#63b8ff" points="842.89,-83.88 837.89,-86.13 841.61,-83.88 837.89,-83.88 837.89,-83.88 837.89,-83.88 841.61,-83.88 837.89,-81.63 842.89,-83.88"/>
</a>
</g>
</g>
<!-- Node3&#45;&gt;Node3 -->
<g id="edge7_Node000003_Node000003" class="edge">
<title>Node3&#45;&gt;Node3</title>
<g id="a_edge7_Node000003_Node000003"><a xlink:title=" ">
<path fill="none" stroke="#63b8ff" d="M748.87,-182.75C746.13,-189.61 732.17,-194.75 707,-194.75 674.78,-194.75 660.93,-186.32 665.46,-176.67"/>
<polygon fill="#63b8ff" stroke="#63b8ff" points="748.6,-177.89 751.13,-182.76 748.67,-179.17 748.88,-182.88 748.88,-182.88 748.88,-182.88 748.67,-179.17 746.63,-183.01 748.6,-177.89"/>
</a>
</g>
</g>
<!-- Node4 -->
<g id="Node000004" class="node">
<title>Node4</title>
<g id="a_Node000004"><a xlink:href="../../dd/df2/namespaceanonymous__namespace_02_log_8cpp_03_1_1safe.html#a5383dc98204ed88af64a0de8fb17de7f" target="_top" xlink:title=" ">
<polygon fill="white" stroke="none" points="570,-104.75 374,-104.75 374,-63 570,-63 570,-104.75"/>
<text xml:space="preserve" text-anchor="start" x="382" y="-90.3" font-family="Consolas" font-size="11.00">anonymous_namespace</text>
<text xml:space="preserve" text-anchor="start" x="382" y="-79.05" font-family="Consolas" font-size="11.00">{Log::cpp}::safe::installCrash</text>
<text xml:space="preserve" text-anchor="middle" x="472" y="-67.8" font-family="Consolas" font-size="11.00">Handlers</text>
</a>
</g>
</g>
<!-- Node3&#45;&gt;Node4 -->
<g id="edge4_Node000003_Node000004" class="edge">
<title>Node3&#45;&gt;Node4</title>
<g id="a_edge4_Node000003_Node000004"><a xlink:title=" ">
<path fill="none" stroke="#63b8ff" d="M630.34,-133.3C622.12,-130.81 613.88,-128.3 606,-125.88 583.9,-119.07 559.78,-111.5 538.22,-104.68"/>
<polygon fill="#63b8ff" stroke="#63b8ff" points="634.86,-134.67 629.42,-135.38 633.63,-134.3 630.07,-133.22 630.07,-133.22 630.07,-133.22 633.63,-134.3 630.72,-131.07 634.86,-134.67"/>
</a>
</g>
</g>
<!-- Node4&#45;&gt;Node4 -->
<g id="edge6_Node000004_Node000004" class="edge">
<title>Node4&#45;&gt;Node4</title>
<g id="a_edge6_Node000004_Node000004"><a xlink:title=" ">
<path fill="none" stroke="#63b8ff" d="M510.54,-110.75C508.01,-117.61 495.17,-122.75 472,-122.75 442.34,-122.75 429.6,-114.32 433.77,-104.67"/>
<polygon fill="#63b8ff" stroke="#63b8ff" points="510.29,-105.89 512.79,-110.77 510.36,-107.17 510.54,-110.88 510.54,-110.88 510.54,-110.88 510.36,-107.17 508.3,-111 510.29,-105.89"/>
</a>
</g>
</g>
<!-- Node5 -->
<g id="Node000005" class="node">
<title>Node5</title>
<g id="a_Node000005"><a xlink:href="../../dc/d8e/namespaceanonymous__namespace_02_log_8cpp_03.html#a7a82c11accb191c2f06849f6d13db39a" target="_top" xlink:title=" ">
<polygon fill="white" stroke="none" points="154,-65.12 0,-65.12 0,-34.62 154,-34.62 154,-65.12"/>
<text xml:space="preserve" text-anchor="start" x="8" y="-50.67" font-family="Consolas" font-size="11.00">anonymous_namespace</text>
<text xml:space="preserve" text-anchor="middle" x="77" y="-39.42" font-family="Consolas" font-size="11.00">{Log::cpp}::initLogging</text>
</a>
</g>
</g>
<!-- Node4&#45;&gt;Node5 -->
<g id="edge5_Node000004_Node000005" class="edge">
<title>Node4&#45;&gt;Node5</title>
<g id="a_edge5_Node000004_Node000005"><a xlink:title=" ">
<path fill="none" stroke="#63b8ff" d="M368.08,-74.97C300.92,-69.16 214.74,-61.7 153.82,-56.43"/>
<polygon fill="#63b8ff" stroke="#63b8ff" points="372.89,-75.39 367.72,-77.2 371.62,-75.28 367.91,-74.96 367.91,-74.96 367.91,-74.96 371.62,-75.28 368.1,-72.71 372.89,-75.39"/>
</a>
</g>
</g>
<!-- Node6&#45;&gt;Node6 -->
<g id="edge9_Node000006_Node000006" class="edge">
<title>Node6&#45;&gt;Node6</title>
<g id="a_edge9_Node000006_Node000006"><a xlink:title=" ">
<path fill="none" stroke="#63b8ff" d="M749.34,-37.06C750.16,-44.27 736.05,-50.12 707,-50.12 671.25,-50.12 658.12,-41.25 667.61,-31.92"/>
<polygon fill="#63b8ff" stroke="#63b8ff" points="746.99,-32.98 751.43,-36.19 747.63,-34.09 749.48,-37.31 749.48,-37.31 749.48,-37.31 747.63,-34.09 747.53,-38.43 746.99,-32.98"/>
</a>
</g>
</g>
<!-- Node7 -->
<g id="Node000007" class="node">
<title>Node7</title>
<g id="a_Node000007"><a xlink:href="../../d0/d61/classanonymous__namespace_02_log_8cpp_03_1_1_log_core.html#ac83f155438d4a0447ac048d50c7b1a47" target="_top" xlink:title=" ">
<polygon fill="white" stroke="none" points="537,-41.75 407,-41.75 407,0 537,0 537,-41.75"/>
<text xml:space="preserve" text-anchor="start" x="415" y="-27.3" font-family="Consolas" font-size="11.00">anonymous_namespace</text>
<text xml:space="preserve" text-anchor="start" x="415" y="-16.05" font-family="Consolas" font-size="11.00">{Log::cpp}::LogCore</text>
<text xml:space="preserve" text-anchor="middle" x="472" y="-4.8" font-family="Consolas" font-size="11.00">::msgHandler_</text>
</a>
</g>
</g>
<!-- Node6&#45;&gt;Node7 -->
<g id="edge10_Node000006_Node000007" class="edge">
<title>Node6&#45;&gt;Node7</title>
<g id="a_edge10_Node000006_Node000007"><a xlink:title=" ">
<path fill="none" stroke="#63b8ff" d="M609.08,-18.54C584.7,-18.96 559.14,-19.4 536.84,-19.78"/>
<polygon fill="#63b8ff" stroke="#63b8ff" points="614.03,-18.45 609.07,-20.79 612.75,-18.48 609.03,-18.54 609.03,-18.54 609.03,-18.54 612.75,-18.48 608.99,-16.29 614.03,-18.45"/>
</a>
</g>
</g>
<!-- Node8 -->
<g id="Node000008" class="node">
<title>Node8</title>
<g id="a_Node000008"><a xlink:href="../../dc/d8e/namespaceanonymous__namespace_02_log_8cpp_03.html#a0c2edb98e44610adcc75724bbf4edfb8" target="_top" xlink:title=" ">
<polygon fill="white" stroke="none" points="338,-44.12 190,-44.12 190,-13.63 338,-13.63 338,-44.12"/>
<text xml:space="preserve" text-anchor="start" x="198" y="-29.68" font-family="Consolas" font-size="11.00">anonymous_namespace</text>
<text xml:space="preserve" text-anchor="middle" x="264" y="-18.43" font-family="Consolas" font-size="11.00">{Log::cpp}::msgHandler</text>
</a>
</g>
</g>
<!-- Node7&#45;&gt;Node8 -->
<g id="edge11_Node000007_Node000008" class="edge">
<title>Node7&#45;&gt;Node8</title>
<g id="a_edge11_Node000007_Node000008"><a xlink:title=" ">
<path fill="none" stroke="#63b8ff" d="M401.24,-23.58C380.82,-24.38 358.44,-25.25 337.83,-26.05"/>
<polygon fill="#63b8ff" stroke="#63b8ff" points="406.01,-23.4 401.1,-25.84 404.73,-23.45 401.02,-23.59 401.02,-23.59 401.02,-23.59 404.73,-23.45 400.93,-21.34 406.01,-23.4"/>
</a>
</g>
</g>
<!-- Node8&#45;&gt;Node5 -->
<g id="edge12_Node000008_Node000005" class="edge">
<title>Node8&#45;&gt;Node5</title>
<g id="a_edge12_Node000008_Node000005"><a xlink:title=" ">
<path fill="none" stroke="#63b8ff" d="M184.24,-37.81C174.16,-38.96 163.86,-40.13 153.83,-41.27"/>
<polygon fill="#63b8ff" stroke="#63b8ff" points="188.94,-37.28 184.22,-40.08 187.66,-37.43 183.97,-37.85 183.97,-37.85 183.97,-37.85 187.66,-37.43 183.72,-35.61 188.94,-37.28"/>
</a>
</g>
</g>
<!-- Node9&#45;&gt;Node4 -->
<g id="edge14_Node000009_Node000004" class="edge">
<title>Node9&#45;&gt;Node4</title>
<g id="a_edge14_Node000009_Node000004"><a xlink:title=" ">
<path fill="none" stroke="#63b8ff" d="M600.2,-83.88C590.02,-83.88 579.74,-83.88 569.66,-83.88"/>
<polygon fill="#63b8ff" stroke="#63b8ff" points="604.95,-83.88 599.95,-86.13 603.67,-83.88 599.95,-83.88 599.95,-83.88 599.95,-83.88 603.67,-83.88 599.95,-81.63 604.95,-83.88"/>
</a>
</g>
</g>
<!-- Node9&#45;&gt;Node9 -->
<g id="edge15_Node000009_Node000009" class="edge">
<title>Node9&#45;&gt;Node9</title>
<g id="a_edge15_Node000009_Node000009"><a xlink:title=" ">
<path fill="none" stroke="#63b8ff" d="M749.34,-104.06C750.16,-111.27 736.05,-117.12 707,-117.12 671.25,-117.12 658.12,-108.25 667.61,-98.92"/>
<polygon fill="#63b8ff" stroke="#63b8ff" points="746.99,-99.98 751.43,-103.19 747.63,-101.09 749.48,-104.31 749.48,-104.31 749.48,-104.31 747.63,-101.09 747.53,-105.43 746.99,-99.98"/>
</a>
</g>
</g>
</g>
</svg>
