<?xml version="1.0" encoding="UTF-8" standalone="no"?>
<!DOCTYPE svg PUBLIC "-//W3C//DTD SVG 1.1//EN"
 "http://www.w3.org/Graphics/SVG/1.1/DTD/svg11.dtd">
<!-- Generated by graphviz version 14.0.0 (20250921.2048)
 -->
<!-- Title: anonymous_namespace{Log::cpp}::safe::appendHex Pages: 1 -->
<svg width="1144pt" height="134pt"
 viewBox="0.00 0.00 1144.00 134.00" xmlns="http://www.w3.org/2000/svg" xmlns:xlink="http://www.w3.org/1999/xlink">
<g id="graph0" class="graph" transform="scale(1 1) rotate(0) translate(4 130.12)">
<title>anonymous_namespace{Log::cpp}::safe::appendHex</title>
<!-- Node1 -->
<g id="Node000001" class="node">
<title>Node1</title>
<g id="a_Node000001"><a xlink:title=" ">
<polygon fill="#999999" stroke="none" points="1136,-66.5 844,-66.5 844,-47.25 1136,-47.25 1136,-66.5"/>
<text xml:space="preserve" text-anchor="start" x="852" y="-53.05" font-family="Consolas" font-weight="bold" font-size="11.00">anonymous_namespace{Log::cpp}::safe::appendHex</text>
</a>
</g>
</g>
<!-- Node1&#45;&gt;Node1 -->
<g id="edge1_Node000001_Node000001" class="edge">
<title>Node1&#45;&gt;Node1</title>
<g id="a_edge1_Node000001_Node000001"><a xlink:title=" ">
<path fill="none" stroke="#63b8ff" d="M1039.96,-68.82C1053.95,-76.77 1037.29,-84.5 990,-84.5 937.82,-84.5 922.94,-75.09 945.36,-66.36"/>
<polygon fill="#63b8ff" stroke="#63b8ff" points="1035.75,-66.87 1041.23,-66.93 1036.91,-67.41 1040.28,-68.97 1040.28,-68.97 1040.28,-68.97 1036.91,-67.41 1039.34,-71.01 1035.75,-66.87"/>
</a>
</g>
</g>
<!-- Node2 -->
<g id="Node000002" class="node">
<title>Node2</title>
<g id="a_Node000002"><a xlink:href="../../dd/df2/namespaceanonymous__namespace_02_log_8cpp_03_1_1safe.html#a460f691136cced36ea40b2595c18d0a8" target="_top" xlink:title=" ">
<polygon fill="white" stroke="none" points="790,-108.12 606,-108.12 606,-77.62 790,-77.62 790,-108.12"/>
<text xml:space="preserve" text-anchor="start" x="614" y="-93.67" font-family="Consolas" font-size="11.00">anonymous_namespace</text>
<text xml:space="preserve" text-anchor="middle" x="698" y="-82.42" font-family="Consolas" font-size="11.00">{Log::cpp}::safe::msgHandler</text>
</a>
</g>
</g>
<!-- Node1&#45;&gt;Node2 -->
<g id="edge2_Node000001_Node000002" class="edge">
<title>Node1&#45;&gt;Node2</title>
<g id="a_edge2_Node000001_Node000002"><a xlink:title=" ">
<path fill="none" stroke="#63b8ff" d="M905.89,-67.19C869.58,-71.7 826.89,-77 789.75,-81.61"/>
<polygon fill="#63b8ff" stroke="#63b8ff" points="910.46,-66.63 905.77,-69.47 909.19,-66.78 905.5,-67.24 905.5,-67.24 905.5,-67.24 909.19,-66.78 905.22,-65.01 910.46,-66.63"/>
</a>
</g>
</g>
<!-- Node6 -->
<g id="Node000006" class="node">
<title>Node6</title>
<g id="a_Node000006"><a xlink:href="../../dd/df2/namespaceanonymous__namespace_02_log_8cpp_03_1_1safe.html#a2fc634cd009955d042c53cb5f5eebcb5" target="_top" xlink:title=" ">
<polygon fill="white" stroke="none" points="808,-41.75 588,-41.75 588,0 808,0 808,-41.75"/>
<text xml:space="preserve" text-anchor="start" x="596" y="-27.3" font-family="Consolas" font-size="11.00">anonymous_namespace</text>
<text xml:space="preserve" text-anchor="start" x="596" y="-16.05" font-family="Consolas" font-size="11.00">{Log::cpp}::safe::windowsException</text>
<text xml:space="preserve" text-anchor="middle" x="698" y="-4.8" font-family="Consolas" font-size="11.00">Filter</text>
</a>
</g>
</g>
<!-- Node1&#45;&gt;Node6 -->
<g id="edge7_Node000001_Node000006" class="edge">
<title>Node1&#45;&gt;Node6</title>
<g id="a_edge7_Node000001_Node000006"><a xlink:title=" ">
<path fill="none" stroke="#63b8ff" d="M905.64,-46.53C875.21,-42.75 840.32,-38.42 807.99,-34.4"/>
<polygon fill="#63b8ff" stroke="#63b8ff" points="910.46,-47.12 905.22,-48.74 909.19,-46.97 905.5,-46.51 905.5,-46.51 905.5,-46.51 909.19,-46.97 905.77,-44.28 910.46,-47.12"/>
</a>
</g>
</g>
<!-- Node2&#45;&gt;Node2 -->
<g id="edge3_Node000002_Node000002" class="edge">
<title>Node2&#45;&gt;Node2</title>
<g id="a_edge3_Node000002_Node000002"><a xlink:title=" ">
<path fill="none" stroke="#63b8ff" d="M737.56,-113.48C737.79,-120.49 724.6,-126.12 698,-126.12 664.62,-126.12 652.36,-117.25 661.23,-107.92"/>
<polygon fill="#63b8ff" stroke="#63b8ff" points="735.32,-109.01 739.57,-112.47 735.89,-110.16 737.56,-113.48 737.56,-113.48 737.56,-113.48 735.89,-110.16 735.55,-114.49 735.32,-109.01"/>
</a>
</g>
</g>
<!-- Node3 -->
<g id="Node000003" class="node">
<title>Node3</title>
<g id="a_Node000003"><a xlink:href="../../d0/d61/classanonymous__namespace_02_log_8cpp_03_1_1_log_core.html#ac83f155438d4a0447ac048d50c7b1a47" target="_top" xlink:title=" ">
<polygon fill="white" stroke="none" points="552,-113.75 422,-113.75 422,-72 552,-72 552,-113.75"/>
<text xml:space="preserve" text-anchor="start" x="430" y="-99.3" font-family="Consolas" font-size="11.00">anonymous_namespace</text>
<text xml:space="preserve" text-anchor="start" x="430" y="-88.05" font-family="Consolas" font-size="11.00">{Log::cpp}::LogCore</text>
<text xml:space="preserve" text-anchor="middle" x="487" y="-76.8" font-family="Consolas" font-size="11.00">::msgHandler_</text>
</a>
</g>
</g>
<!-- Node2&#45;&gt;Node3 -->
<g id="edge4_Node000002_Node000003" class="edge">
<title>Node2&#45;&gt;Node3</title>
<g id="a_edge4_Node000002_Node000003"><a xlink:title=" ">
<path fill="none" stroke="#63b8ff" d="M600.22,-92.88C583.85,-92.88 567.22,-92.88 551.96,-92.88"/>
<polygon fill="#63b8ff" stroke="#63b8ff" points="605.02,-92.88 600.02,-95.13 603.74,-92.88 600.02,-92.88 600.02,-92.88 600.02,-92.88 603.74,-92.88 600.02,-90.63 605.02,-92.88"/>
</a>
</g>
</g>
<!-- Node4 -->
<g id="Node000004" class="node">
<title>Node4</title>
<g id="a_Node000004"><a xlink:href="../../dc/d8e/namespaceanonymous__namespace_02_log_8cpp_03.html#a0c2edb98e44610adcc75724bbf4edfb8" target="_top" xlink:title=" ">
<polygon fill="white" stroke="none" points="362,-108.12 214,-108.12 214,-77.62 362,-77.62 362,-108.12"/>
<text xml:space="preserve" text-anchor="start" x="222" y="-93.67" font-family="Consolas" font-size="11.00">anonymous_namespace</text>
<text xml:space="preserve" text-anchor="middle" x="288" y="-82.42" font-family="Consolas" font-size="11.00">{Log::cpp}::msgHandler</text>
</a>
</g>
</g>
<!-- Node3&#45;&gt;Node4 -->
<g id="edge5_Node000003_Node000004" class="edge">
<title>Node3&#45;&gt;Node4</title>
<g id="a_edge5_Node000003_Node000004"><a xlink:title=" ">
<path fill="none" stroke="#63b8ff" d="M416.13,-92.88C398.53,-92.88 379.6,-92.88 361.87,-92.88"/>
<polygon fill="#63b8ff" stroke="#63b8ff" points="420.82,-92.88 415.82,-95.13 419.54,-92.88 415.82,-92.88 415.82,-92.88 415.82,-92.88 419.54,-92.88 415.82,-90.63 420.82,-92.88"/>
</a>
</g>
</g>
<!-- Node5 -->
<g id="Node000005" class="node">
<title>Node5</title>
<g id="a_Node000005"><a xlink:href="../../dc/d8e/namespaceanonymous__namespace_02_log_8cpp_03.html#a7a82c11accb191c2f06849f6d13db39a" target="_top" xlink:title=" ">
<polygon fill="white" stroke="none" points="154,-72.12 0,-72.12 0,-41.62 154,-41.62 154,-72.12"/>
<text xml:space="preserve" text-anchor="start" x="8" y="-57.67" font-family="Consolas" font-size="11.00">anonymous_namespace</text>
<text xml:space="preserve" text-anchor="middle" x="77" y="-46.42" font-family="Consolas" font-size="11.00">{Log::cpp}::initLogging</text>
</a>
</g>
</g>
<!-- Node4&#45;&gt;Node5 -->
<g id="edge6_Node000004_Node000005" class="edge">
<title>Node4&#45;&gt;Node5</title>
<g id="a_edge6_Node000004_Node000005"><a xlink:title=" ">
<path fill="none" stroke="#63b8ff" d="M208.19,-79.3C190.35,-76.23 171.45,-72.97 153.74,-69.92"/>
<polygon fill="#63b8ff" stroke="#63b8ff" points="212.99,-80.13 207.69,-81.5 211.73,-79.91 208.07,-79.28 208.07,-79.28 208.07,-79.28 211.73,-79.91 208.45,-77.06 212.99,-80.13"/>
</a>
</g>
</g>
<!-- Node6&#45;&gt;Node6 -->
<g id="edge11_Node000006_Node000006" class="edge">
<title>Node6&#45;&gt;Node6</title>
<g id="a_edge11_Node000006_Node000006"><a xlink:title=" ">
<path fill="none" stroke="#63b8ff" d="M737.09,-47.75C734.53,-54.61 721.5,-59.75 698,-59.75 667.92,-59.75 654.99,-51.32 659.22,-41.67"/>
<polygon fill="#63b8ff" stroke="#63b8ff" points="736.84,-42.89 739.35,-47.77 736.91,-44.17 737.1,-47.88 737.1,-47.88 737.1,-47.88 736.91,-44.17 734.85,-48 736.84,-42.89"/>
</a>
</g>
</g>
<!-- Node7 -->
<g id="Node000007" class="node">
<title>Node7</title>
<g id="a_Node000007"><a xlink:href="../../dd/df2/namespaceanonymous__namespace_02_log_8cpp_03_1_1safe.html#a5383dc98204ed88af64a0de8fb17de7f" target="_top" xlink:title=" ">
<polygon fill="white" stroke="none" points="386,-41.75 190,-41.75 190,0 386,0 386,-41.75"/>
<text xml:space="preserve" text-anchor="start" x="198" y="-27.3" font-family="Consolas" font-size="11.00">anonymous_namespace</text>
<text xml:space="preserve" text-anchor="start" x="198" y="-16.05" font-family="Consolas" font-size="11.00">{Log::cpp}::safe::installCrash</text>
<text xml:space="preserve" text-anchor="middle" x="288" y="-4.8" font-family="Consolas" font-size="11.00">Handlers</text>
</a>
</g>
</g>
<!-- Node6&#45;&gt;Node7 -->
<g id="edge8_Node000006_Node000007" class="edge">
<title>Node6&#45;&gt;Node7</title>
<g id="a_edge8_Node000006_Node000007"><a xlink:title=" ">
<path fill="none" stroke="#63b8ff" d="M582.25,-20.88C520.27,-20.88 444.61,-20.88 385.67,-20.88"/>
<polygon fill="#63b8ff" stroke="#63b8ff" points="586.98,-20.88 581.98,-23.13 585.7,-20.88 581.98,-20.88 581.98,-20.88 581.98,-20.88 585.7,-20.88 581.98,-18.63 586.98,-20.88"/>
</a>
</g>
</g>
<!-- Node7&#45;&gt;Node5 -->
<g id="edge9_Node000007_Node000005" class="edge">
<title>Node7&#45;&gt;Node5</title>
<g id="a_edge9_Node000007_Node000005"><a xlink:title=" ">
<path fill="none" stroke="#63b8ff" d="M184.15,-38.59C173.95,-40.35 163.73,-42.11 153.88,-43.81"/>
<polygon fill="#63b8ff" stroke="#63b8ff" points="188.95,-37.76 184.4,-40.83 187.68,-37.98 184.02,-38.61 184.02,-38.61 184.02,-38.61 187.68,-37.98 183.64,-36.4 188.95,-37.76"/>
</a>
</g>
</g>
<!-- Node7&#45;&gt;Node7 -->
<g id="edge10_Node000007_Node000007" class="edge">
<title>Node7&#45;&gt;Node7</title>
<g id="a_edge10_Node000007_Node000007"><a xlink:title=" ">
<path fill="none" stroke="#63b8ff" d="M324.87,-47.75C322.46,-54.61 310.17,-59.75 288,-59.75 259.63,-59.75 247.44,-51.32 251.43,-41.67"/>
<polygon fill="#63b8ff" stroke="#63b8ff" points="324.63,-42.89 327.12,-47.77 324.7,-44.17 324.88,-47.88 324.88,-47.88 324.88,-47.88 324.7,-44.17 322.63,-47.99 324.63,-42.89"/>
</a>
</g>
</g>
</g>
</svg>
