<?xml version="1.0" encoding="UTF-8" standalone="no"?>
<!DOCTYPE svg PUBLIC "-//W3C//DTD SVG 1.1//EN"
 "http://www.w3.org/Graphics/SVG/1.1/DTD/svg11.dtd">
<!-- Generated by graphviz version 14.0.0 (20250921.2048)
 -->
<!-- Title: anonymous_namespace{Log::cpp}::safe::appendTxt Pages: 1 -->
<svg width="954pt" height="87pt"
 viewBox="0.00 0.00 954.00 87.00" xmlns="http://www.w3.org/2000/svg" xmlns:xlink="http://www.w3.org/1999/xlink">
<g id="graph0" class="graph" transform="scale(1 1) rotate(0) translate(4 82.5)">
<title>anonymous_namespace{Log::cpp}::safe::appendTxt</title>
<!-- Node1 -->
<g id="Node000001" class="node">
<title>Node1</title>
<g id="a_Node000001"><a xlink:title=" ">
<polygon fill="#999999" stroke="none" points="292,-54.88 0,-54.88 0,-35.62 292,-35.62 292,-54.88"/>
<text xml:space="preserve" text-anchor="start" x="8" y="-41.42" font-family="Consolas" font-weight="bold" font-size="11.00">anonymous_namespace{Log::cpp}::safe::appendTxt</text>
</a>
</g>
</g>
<!-- Node2 -->
<g id="Node000002" class="node">
<title>Node2</title>
<g id="a_Node000002"><a xlink:href="../../dd/df2/namespaceanonymous__namespace_02_log_8cpp_03_1_1safe.html#a65353ac3c8d675a9a827bed9e11acc17" target="_top" xlink:title=" ">
<polygon fill="white" stroke="none" points="720,-60.5 542,-60.5 542,-30 720,-30 720,-60.5"/>
<text xml:space="preserve" text-anchor="start" x="550" y="-46.05" font-family="Consolas" font-size="11.00">anonymous_namespace</text>
<text xml:space="preserve" text-anchor="middle" x="631" y="-34.8" font-family="Consolas" font-size="11.00">{Log::cpp}::safe::appendChr</text>
</a>
</g>
</g>
<!-- Node1&#45;&gt;Node2 -->
<g id="edge1_Node000001_Node000002" class="edge">
<title>Node1&#45;&gt;Node2</title>
<g id="a_edge1_Node000001_Node000002"><a xlink:title=" ">
<path fill="none" stroke="#63b8ff" d="M275.98,-54.85C293.45,-55.84 311.16,-56.69 328,-57.25 407.07,-59.87 426.98,-61.06 506,-57.25 515.75,-56.78 525.92,-56.1 536.05,-55.3"/>
<polygon fill="#63b8ff" stroke="#63b8ff" points="540.8,-54.92 536,-57.57 539.52,-55.02 535.82,-55.32 535.82,-55.32 535.82,-55.32 539.52,-55.02 535.63,-53.08 540.8,-54.92"/>
</a>
</g>
</g>
<!-- Node4 -->
<g id="Node000004" class="node">
<title>Node4</title>
<g id="a_Node000004"><a xlink:href="../../dd/df2/namespaceanonymous__namespace_02_log_8cpp_03_1_1safe.html#aa8d11c260254c761c7437280b4284d17" target="_top" xlink:title=" ">
<polygon fill="white" stroke="none" points="506,-30.5 328,-30.5 328,0 506,0 506,-30.5"/>
<text xml:space="preserve" text-anchor="start" x="336" y="-16.05" font-family="Consolas" font-size="11.00">anonymous_namespace</text>
<text xml:space="preserve" text-anchor="middle" x="417" y="-4.8" font-family="Consolas" font-size="11.00">{Log::cpp}::safe::appendTxt</text>
</a>
</g>
</g>
<!-- Node1&#45;&gt;Node4 -->
<g id="edge5_Node000001_Node000004" class="edge">
<title>Node1&#45;&gt;Node4</title>
<g id="a_edge5_Node000001_Node000004"><a xlink:title=" ">
<path fill="none" stroke="#63b8ff" d="M233.22,-35.63C261.63,-32.47 293.35,-28.93 322.29,-25.7"/>
<polygon fill="#63b8ff" stroke="#63b8ff" points="327.21,-25.15 322.49,-27.94 325.93,-25.29 322.24,-25.71 322.24,-25.71 322.24,-25.71 325.93,-25.29 321.99,-23.47 327.21,-25.15"/>
</a>
</g>
</g>
<!-- Node2&#45;&gt;Node2 -->
<g id="edge2_Node000002_Node000002" class="edge">
<title>Node2&#45;&gt;Node2</title>
<g id="a_edge2_Node000002_Node000002"><a xlink:title=" ">
<path fill="none" stroke="#63b8ff" d="M593.71,-60.3C584.71,-69.62 597.14,-78.5 631,-78.5 658.51,-78.5 671.87,-72.64 671.09,-65.44"/>
<polygon fill="#63b8ff" stroke="#63b8ff" points="668.88,-61.37 673.24,-64.68 669.49,-62.49 671.27,-65.76 671.27,-65.76 671.27,-65.76 669.49,-62.49 669.29,-66.83 668.88,-61.37"/>
</a>
</g>
</g>
<!-- Node3 -->
<g id="Node000003" class="node">
<title>Node3</title>
<g id="a_Node000003"><a xlink:href="../../dd/df2/namespaceanonymous__namespace_02_log_8cpp_03_1_1safe.html#a1e4219749cab61533a6faf773fe7cddb" target="_top" xlink:title=" ">
<polygon fill="white" stroke="none" points="946,-60.5 756,-60.5 756,-30 946,-30 946,-60.5"/>
<text xml:space="preserve" text-anchor="start" x="764" y="-46.05" font-family="Consolas" font-size="11.00">anonymous_namespace</text>
<text xml:space="preserve" text-anchor="middle" x="851" y="-34.8" font-family="Consolas" font-size="11.00">{Log::cpp}::safe::isSpaceChar</text>
</a>
</g>
</g>
<!-- Node2&#45;&gt;Node3 -->
<g id="edge3_Node000002_Node000003" class="edge">
<title>Node2&#45;&gt;Node3</title>
<g id="a_edge3_Node000002_Node000003"><a xlink:title=" ">
<path fill="none" stroke="#63b8ff" d="M719.73,-45.25C729.72,-45.25 739.95,-45.25 750.08,-45.25"/>
<polygon fill="#63b8ff" stroke="#63b8ff" points="754.82,-45.25 749.82,-47.5 753.54,-45.25 749.82,-45.25 749.82,-45.25 749.82,-45.25 753.54,-45.25 749.82,-43 754.82,-45.25"/>
</a>
</g>
</g>
<!-- Node3&#45;&gt;Node3 -->
<g id="edge4_Node000003_Node000003" class="edge">
<title>Node3&#45;&gt;Node3</title>
<g id="a_edge4_Node000003_Node000003"><a xlink:title=" ">
<path fill="none" stroke="#63b8ff" d="M812.66,-60.3C803.42,-69.62 816.2,-78.5 851,-78.5 879.28,-78.5 893.02,-72.64 892.22,-65.44"/>
<polygon fill="#63b8ff" stroke="#63b8ff" points="889.93,-61.36 894.34,-64.62 890.56,-62.48 892.38,-65.72 892.38,-65.72 892.38,-65.72 890.56,-62.48 890.41,-66.82 889.93,-61.36"/>
</a>
</g>
</g>
<!-- Node4&#45;&gt;Node2 -->
<g id="edge6_Node000004_Node000002" class="edge">
<title>Node4&#45;&gt;Node2</title>
<g id="a_edge6_Node000004_Node000002"><a xlink:title=" ">
<path fill="none" stroke="#63b8ff" d="M505.76,-27.67C515.85,-29.1 526.17,-30.56 536.34,-32"/>
<polygon fill="#63b8ff" stroke="#63b8ff" points="541.1,-32.67 535.83,-34.2 539.83,-32.49 536.15,-31.97 536.15,-31.97 536.15,-31.97 539.83,-32.49 536.47,-29.74 541.1,-32.67"/>
</a>
</g>
</g>
<!-- Node4&#45;&gt;Node4 -->
<g id="edge7_Node000004_Node000004" class="edge">
<title>Node4&#45;&gt;Node4</title>
<g id="a_edge7_Node000004_Node000004"><a xlink:title=" ">
<path fill="none" stroke="#63b8ff" d="M379.71,-30.3C370.71,-39.62 383.14,-48.5 417,-48.5 444.51,-48.5 457.87,-42.64 457.09,-35.44"/>
<polygon fill="#63b8ff" stroke="#63b8ff" points="454.88,-31.37 459.24,-34.68 455.49,-32.49 457.27,-35.76 457.27,-35.76 457.27,-35.76 455.49,-32.49 455.29,-36.83 454.88,-31.37"/>
</a>
</g>
</g>
</g>
</svg>
