<?xml version="1.0" encoding="UTF-8" standalone="no"?>
<!DOCTYPE svg PUBLIC "-//W3C//DTD SVG 1.1//EN"
 "http://www.w3.org/Graphics/SVG/1.1/DTD/svg11.dtd">
<!-- Generated by graphviz version 14.0.0 (20250921.2048)
 -->
<!-- Title: anonymous_namespace{Log::cpp}::safe::appendDec Pages: 1 -->
<svg width="514pt" height="57pt"
 viewBox="0.00 0.00 514.00 57.00" xmlns="http://www.w3.org/2000/svg" xmlns:xlink="http://www.w3.org/1999/xlink">
<g id="graph0" class="graph" transform="scale(1 1) rotate(0) translate(4 52.5)">
<title>anonymous_namespace{Log::cpp}::safe::appendDec</title>
<!-- Node1 -->
<g id="Node000001" class="node">
<title>Node1</title>
<g id="a_Node000001"><a xlink:title=" ">
<polygon fill="#999999" stroke="none" points="292,-24.88 0,-24.88 0,-5.62 292,-5.62 292,-24.88"/>
<text xml:space="preserve" text-anchor="start" x="8" y="-11.43" font-family="Consolas" font-weight="bold" font-size="11.00">anonymous_namespace{Log::cpp}::safe::appendDec</text>
</a>
</g>
</g>
<!-- Node1&#45;&gt;Node1 -->
<g id="edge1_Node000001_Node000001" class="edge">
<title>Node1&#45;&gt;Node1</title>
<g id="a_edge1_Node000001_Node000001"><a xlink:title=" ">
<path fill="none" stroke="#63b8ff" d="M104.57,-24.73C83.76,-33.46 97.57,-42.88 146,-42.88 189.51,-42.88 205.08,-35.28 192.7,-27.4"/>
<polygon fill="#63b8ff" stroke="#63b8ff" points="188.52,-25.28 193.99,-25.54 189.66,-25.86 192.98,-27.54 192.98,-27.54 192.98,-27.54 189.66,-25.86 191.96,-29.55 188.52,-25.28"/>
</a>
</g>
</g>
<!-- Node2 -->
<g id="Node000002" class="node">
<title>Node2</title>
<g id="a_Node000002"><a xlink:href="../../dd/df2/namespaceanonymous__namespace_02_log_8cpp_03_1_1safe.html#ab261e5125e925c910ea977d0ac217ab6" target="_top" xlink:title=" ">
<polygon fill="white" stroke="none" points="506,-30.5 328,-30.5 328,0 506,0 506,-30.5"/>
<text xml:space="preserve" text-anchor="start" x="336" y="-16.05" font-family="Consolas" font-size="11.00">anonymous_namespace</text>
<text xml:space="preserve" text-anchor="middle" x="417" y="-4.8" font-family="Consolas" font-size="11.00">{Log::cpp}::safe::decDigits</text>
</a>
</g>
</g>
<!-- Node1&#45;&gt;Node2 -->
<g id="edge2_Node000001_Node000002" class="edge">
<title>Node1&#45;&gt;Node2</title>
<g id="a_edge2_Node000001_Node000002"><a xlink:title=" ">
<path fill="none" stroke="#63b8ff" d="M291.74,-15.25C302.03,-15.25 312.25,-15.25 322.15,-15.25"/>
<polygon fill="#63b8ff" stroke="#63b8ff" points="327.04,-15.25 322.04,-17.5 325.76,-15.25 322.04,-15.25 322.04,-15.25 322.04,-15.25 325.76,-15.25 322.04,-13 327.04,-15.25"/>
</a>
</g>
</g>
<!-- Node2&#45;&gt;Node2 -->
<g id="edge3_Node000002_Node000002" class="edge">
<title>Node2&#45;&gt;Node2</title>
<g id="a_edge3_Node000002_Node000002"><a xlink:title=" ">
<path fill="none" stroke="#63b8ff" d="M369.77,-30.3C358.38,-39.62 374.13,-48.5 417,-48.5 452.5,-48.5 469.4,-42.41 467.69,-35.02"/>
<polygon fill="#63b8ff" stroke="#63b8ff" points="464.95,-31.28 469.72,-33.98 465.71,-32.31 467.91,-35.31 467.91,-35.31 467.91,-35.31 465.71,-32.31 466.09,-36.64 464.95,-31.28"/>
</a>
</g>
</g>
</g>
</svg>
