<?xml version="1.0" encoding="UTF-8" standalone="no"?>
<!DOCTYPE svg PUBLIC "-//W3C//DTD SVG 1.1//EN"
 "http://www.w3.org/Graphics/SVG/1.1/DTD/svg11.dtd">
<!-- Generated by graphviz version 14.0.0 (20250921.2048)
 -->
<!-- Title: anonymous_namespace{Log::cpp}::safe::appendChr Pages: 1 -->
<svg width="1406pt" height="591pt"
 viewBox="0.00 0.00 1406.00 591.00" xmlns="http://www.w3.org/2000/svg" xmlns:xlink="http://www.w3.org/1999/xlink">
<g id="graph0" class="graph" transform="scale(1 1) rotate(0) translate(4 586.5)">
<title>anonymous_namespace{Log::cpp}::safe::appendChr</title>
<!-- Node1 -->
<g id="Node000001" class="node">
<title>Node1</title>
<g id="a_Node000001"><a xlink:title=" ">
<polygon fill="#999999" stroke="none" points="1398,-371.88 1106,-371.88 1106,-352.62 1398,-352.62 1398,-371.88"/>
<text xml:space="preserve" text-anchor="start" x="1114" y="-358.43" font-family="Consolas" font-weight="bold" font-size="11.00">anonymous_namespace{Log::cpp}::safe::appendChr</text>
</a>
</g>
</g>
<!-- Node1&#45;&gt;Node1 -->
<g id="edge1_Node000001_Node000001" class="edge">
<title>Node1&#45;&gt;Node1</title>
<g id="a_edge1_Node000001_Node000001"><a xlink:title=" ">
<path fill="none" stroke="#63b8ff" d="M1301.29,-374.4C1314.35,-382.28 1297.92,-389.88 1252,-389.88 1200.89,-389.88 1186.31,-380.46 1208.28,-371.73"/>
<polygon fill="#63b8ff" stroke="#63b8ff" points="1296.82,-372.26 1302.3,-372.4 1297.98,-372.82 1301.33,-374.43 1301.33,-374.43 1301.33,-374.43 1297.98,-372.82 1300.36,-376.45 1296.82,-372.26"/>
</a>
</g>
</g>
<!-- Node2 -->
<g id="Node000002" class="node">
<title>Node2</title>
<g id="a_Node000002"><a xlink:href="../../dd/df2/namespaceanonymous__namespace_02_log_8cpp_03_1_1safe.html#a25864f33cd8ec830e37bce42cf9c7140" target="_top" xlink:title=" ">
<polygon fill="white" stroke="none" points="1055,-582.5 877,-582.5 877,-552 1055,-552 1055,-582.5"/>
<text xml:space="preserve" text-anchor="start" x="885" y="-568.05" font-family="Consolas" font-size="11.00">anonymous_namespace</text>
<text xml:space="preserve" text-anchor="middle" x="966" y="-556.8" font-family="Consolas" font-size="11.00">{Log::cpp}::safe::appendChr</text>
</a>
</g>
</g>
<!-- Node1&#45;&gt;Node2 -->
<g id="edge2_Node000001_Node000002" class="edge">
<title>Node1&#45;&gt;Node2</title>
<g id="a_edge2_Node000001_Node000002"><a xlink:title=" ">
<path fill="none" stroke="#63b8ff" d="M1240.55,-376.45C1215.18,-409.86 1146.77,-493.99 1070,-538.25 1060.34,-543.82 1049.56,-548.37 1038.7,-552.07"/>
<polygon fill="#63b8ff" stroke="#63b8ff" points="1243.51,-372.51 1242.3,-377.85 1242.74,-373.53 1240.5,-376.5 1240.5,-376.5 1240.5,-376.5 1242.74,-373.53 1238.71,-375.15 1243.51,-372.51"/>
</a>
</g>
</g>
<!-- Node3 -->
<g id="Node000003" class="node">
<title>Node3</title>
<g id="a_Node000003"><a xlink:href="../../dd/df2/namespaceanonymous__namespace_02_log_8cpp_03_1_1safe.html#aa526b57e73a9ee9e95150b61a18d6489" target="_top" xlink:title=" ">
<polygon fill="white" stroke="none" points="1070,-478.5 862,-478.5 862,-448 1070,-448 1070,-478.5"/>
<text xml:space="preserve" text-anchor="start" x="870" y="-464.05" font-family="Consolas" font-size="11.00">anonymous_namespace</text>
<text xml:space="preserve" text-anchor="middle" x="966" y="-452.8" font-family="Consolas" font-size="11.00">{Log::cpp}::safe::appendFileName</text>
</a>
</g>
</g>
<!-- Node1&#45;&gt;Node3 -->
<g id="edge3_Node000001_Node000003" class="edge">
<title>Node1&#45;&gt;Node3</title>
<g id="a_edge3_Node000001_Node000003"><a xlink:title=" ">
<path fill="none" stroke="#63b8ff" d="M1225.76,-374.36C1191.22,-390.59 1127,-419.5 1070,-438.25 1059.25,-441.79 1047.72,-445.07 1036.41,-448.01"/>
<polygon fill="#63b8ff" stroke="#63b8ff" points="1229.94,-372.39 1226.38,-376.56 1228.78,-372.94 1225.42,-374.52 1225.42,-374.52 1225.42,-374.52 1228.78,-372.94 1224.46,-372.49 1229.94,-372.39"/>
</a>
</g>
</g>
<!-- Node4 -->
<g id="Node000004" class="node">
<title>Node4</title>
<g id="a_Node000004"><a xlink:href="../../dd/df2/namespaceanonymous__namespace_02_log_8cpp_03_1_1safe.html#a460f691136cced36ea40b2595c18d0a8" target="_top" xlink:title=" ">
<polygon fill="white" stroke="none" points="808,-456.5 624,-456.5 624,-426 808,-426 808,-456.5"/>
<text xml:space="preserve" text-anchor="start" x="632" y="-442.05" font-family="Consolas" font-size="11.00">anonymous_namespace</text>
<text xml:space="preserve" text-anchor="middle" x="716" y="-430.8" font-family="Consolas" font-size="11.00">{Log::cpp}::safe::msgHandler</text>
</a>
</g>
</g>
<!-- Node1&#45;&gt;Node4 -->
<g id="edge39_Node000001_Node000004" class="edge">
<title>Node1&#45;&gt;Node4</title>
<g id="a_edge39_Node000001_Node000004"><a xlink:title=" ">
<path fill="none" stroke="#63b8ff" d="M1239.41,-376.32C1213.12,-406.95 1145.41,-479.06 1070,-505.25 982.67,-535.58 952.46,-524.32 862,-505.25 817.84,-495.94 770.75,-472.29 742.61,-456.5"/>
<polygon fill="#63b8ff" stroke="#63b8ff" points="1242.47,-372.7 1240.96,-377.97 1241.65,-373.68 1239.24,-376.51 1239.24,-376.51 1239.24,-376.51 1241.65,-373.68 1237.52,-375.06 1242.47,-372.7"/>
</a>
</g>
</g>
<!-- Node8 -->
<g id="Node000008" class="node">
<title>Node8</title>
<g id="a_Node000008"><a xlink:href="../../dd/df2/namespaceanonymous__namespace_02_log_8cpp_03_1_1safe.html#a0007f4a1265f5b0c790d25e74cd93713" target="_top" xlink:title=" ">
<polygon fill="white" stroke="none" points="1070,-411.5 862,-411.5 862,-381 1070,-381 1070,-411.5"/>
<text xml:space="preserve" text-anchor="start" x="870" y="-397.05" font-family="Consolas" font-size="11.00">anonymous_namespace</text>
<text xml:space="preserve" text-anchor="middle" x="966" y="-385.8" font-family="Consolas" font-size="11.00">{Log::cpp}::safe::appendFuncName</text>
</a>
</g>
</g>
<!-- Node1&#45;&gt;Node8 -->
<g id="edge10_Node000001_Node000008" class="edge">
<title>Node1&#45;&gt;Node8</title>
<g id="a_edge10_Node000001_Node000008"><a xlink:title=" ">
<path fill="none" stroke="#63b8ff" d="M1164.83,-372.57C1134.9,-376.15 1101.04,-380.2 1069.9,-383.93"/>
<polygon fill="#63b8ff" stroke="#63b8ff" points="1169.55,-372 1164.85,-374.83 1168.27,-372.15 1164.58,-372.6 1164.58,-372.6 1164.58,-372.6 1168.27,-372.15 1164.31,-370.36 1169.55,-372"/>
</a>
</g>
</g>
<!-- Node9 -->
<g id="Node000009" class="node">
<title>Node9</title>
<g id="a_Node000009"><a xlink:href="../../dd/df2/namespaceanonymous__namespace_02_log_8cpp_03_1_1safe.html#a70f8ae638e66e98804ee3dbd8772433a" target="_top" xlink:title=" ">
<polygon fill="white" stroke="none" points="1055,-344.5 877,-344.5 877,-314 1055,-314 1055,-344.5"/>
<text xml:space="preserve" text-anchor="start" x="885" y="-330.05" font-family="Consolas" font-size="11.00">anonymous_namespace</text>
<text xml:space="preserve" text-anchor="middle" x="966" y="-318.8" font-family="Consolas" font-size="11.00">{Log::cpp}::safe::appendMsg</text>
</a>
</g>
</g>
<!-- Node1&#45;&gt;Node9 -->
<g id="edge13_Node000001_Node000009" class="edge">
<title>Node1&#45;&gt;Node9</title>
<g id="a_edge13_Node000001_Node000009"><a xlink:title=" ">
<path fill="none" stroke="#63b8ff" d="M1162.56,-351.97C1128.21,-347.98 1088.96,-343.42 1054.69,-339.44"/>
<polygon fill="#63b8ff" stroke="#63b8ff" points="1167.26,-352.52 1162.04,-354.18 1165.99,-352.37 1162.3,-351.94 1162.3,-351.94 1162.3,-351.94 1165.99,-352.37 1162.56,-349.71 1167.26,-352.52"/>
</a>
</g>
</g>
<!-- Node10 -->
<g id="Node000010" class="node">
<title>Node10</title>
<g id="a_Node000010"><a xlink:href="../../dd/df2/namespaceanonymous__namespace_02_log_8cpp_03_1_1safe.html#aa8d11c260254c761c7437280b4284d17" target="_top" xlink:title=" ">
<polygon fill="white" stroke="none" points="1055,-240.5 877,-240.5 877,-210 1055,-210 1055,-240.5"/>
<text xml:space="preserve" text-anchor="start" x="885" y="-226.05" font-family="Consolas" font-size="11.00">anonymous_namespace</text>
<text xml:space="preserve" text-anchor="middle" x="966" y="-214.8" font-family="Consolas" font-size="11.00">{Log::cpp}::safe::appendTxt</text>
</a>
</g>
</g>
<!-- Node1&#45;&gt;Node10 -->
<g id="edge16_Node000001_Node000010" class="edge">
<title>Node1&#45;&gt;Node10</title>
<g id="a_edge16_Node000001_Node000010"><a xlink:title=" ">
<path fill="none" stroke="#63b8ff" d="M1227.07,-350.04C1192.55,-332.48 1126.68,-299.27 1070,-272.25 1047.11,-261.34 1021.14,-249.49 1001,-240.42"/>
<polygon fill="#63b8ff" stroke="#63b8ff" points="1231.25,-352.16 1225.78,-351.9 1230.11,-351.58 1226.8,-349.89 1226.8,-349.89 1226.8,-349.89 1230.11,-351.58 1227.82,-347.89 1231.25,-352.16"/>
</a>
</g>
</g>
<!-- Node11 -->
<g id="Node000011" class="node">
<title>Node11</title>
<g id="a_Node000011"><a xlink:href="../../dd/df2/namespaceanonymous__namespace_02_log_8cpp_03_1_1safe.html#afe624b9c8f583070f229333403693a5b" target="_top" xlink:title=" ">
<polygon fill="white" stroke="none" points="805,-30.5 627,-30.5 627,0 805,0 805,-30.5"/>
<text xml:space="preserve" text-anchor="start" x="635" y="-16.05" font-family="Consolas" font-size="11.00">anonymous_namespace</text>
<text xml:space="preserve" text-anchor="middle" x="716" y="-4.8" font-family="Consolas" font-size="11.00">{Log::cpp}::safe::appendTxt</text>
</a>
</g>
</g>
<!-- Node1&#45;&gt;Node11 -->
<g id="edge37_Node000001_Node000011" class="edge">
<title>Node1&#45;&gt;Node11</title>
<g id="a_edge37_Node000001_Node000011"><a xlink:title=" ">
<path fill="none" stroke="#63b8ff" d="M1238.25,-348.52C1190.07,-297.58 1012.32,-118.34 826,-39.25 818.06,-35.88 809.59,-32.96 801.01,-30.43"/>
<polygon fill="#63b8ff" stroke="#63b8ff" points="1241.42,-351.88 1236.36,-349.79 1240.54,-350.95 1237.99,-348.24 1237.99,-348.24 1237.99,-348.24 1240.54,-350.95 1239.63,-346.7 1241.42,-351.88"/>
</a>
</g>
</g>
<!-- Node12 -->
<g id="Node000012" class="node">
<title>Node12</title>
<g id="a_Node000012"><a xlink:href="../../dd/df2/namespaceanonymous__namespace_02_log_8cpp_03_1_1safe.html#a110b11e90b5bb8ae5c8a1521e33eec21" target="_top" xlink:title=" ">
<polygon fill="white" stroke="none" points="814,-390.12 618,-390.12 618,-348.38 814,-348.38 814,-390.12"/>
<text xml:space="preserve" text-anchor="start" x="626" y="-375.68" font-family="Consolas" font-size="11.00">anonymous_namespace</text>
<text xml:space="preserve" text-anchor="start" x="626" y="-364.43" font-family="Consolas" font-size="11.00">{Log::cpp}::safe::invalidParam</text>
<text xml:space="preserve" text-anchor="middle" x="716" y="-353.18" font-family="Consolas" font-size="11.00">Handler</text>
</a>
</g>
</g>
<!-- Node1&#45;&gt;Node12 -->
<g id="edge38_Node000001_Node000012" class="edge">
<title>Node1&#45;&gt;Node12</title>
<g id="a_edge38_Node000001_Node000012"><a xlink:title=" ">
<path fill="none" stroke="#63b8ff" d="M1226.15,-350.13C1162.95,-321.08 991.91,-253.6 862,-305.25 841.55,-313.38 845.18,-328.45 826,-339.25 819.93,-342.67 813.44,-345.71 806.78,-348.43"/>
<polygon fill="#63b8ff" stroke="#63b8ff" points="1230.47,-352.14 1224.98,-352.07 1229.31,-351.6 1225.93,-350.03 1225.93,-350.03 1225.93,-350.03 1229.31,-351.6 1226.88,-347.99 1230.47,-352.14"/>
</a>
</g>
</g>
<!-- Node3&#45;&gt;Node3 -->
<g id="edge4_Node000003_Node000003" class="edge">
<title>Node3&#45;&gt;Node3</title>
<g id="a_edge4_Node000003_Node000003"><a xlink:title=" ">
<path fill="none" stroke="#63b8ff" d="M1012.84,-483.44C1013.75,-490.64 998.14,-496.5 966,-496.5 926.45,-496.5 911.93,-487.62 922.43,-478.3"/>
<polygon fill="#63b8ff" stroke="#63b8ff" points="1010.22,-479.32 1014.8,-482.34 1010.91,-480.41 1012.9,-483.54 1012.9,-483.54 1012.9,-483.54 1010.91,-480.41 1011,-484.75 1010.22,-479.32"/>
</a>
</g>
</g>
<!-- Node3&#45;&gt;Node4 -->
<g id="edge5_Node000003_Node000004" class="edge">
<title>Node3&#45;&gt;Node4</title>
<g id="a_edge5_Node000003_Node000004"><a xlink:title=" ">
<path fill="none" stroke="#63b8ff" d="M856.37,-453.61C840.13,-452.17 823.52,-450.7 807.7,-449.3"/>
<polygon fill="#63b8ff" stroke="#63b8ff" points="861.13,-454.04 855.95,-455.83 859.85,-453.92 856.14,-453.59 856.14,-453.59 856.14,-453.59 859.85,-453.92 856.34,-451.35 861.13,-454.04"/>
</a>
</g>
</g>
<!-- Node4&#45;&gt;Node4 -->
<g id="edge6_Node000004_Node000004" class="edge">
<title>Node4&#45;&gt;Node4</title>
<g id="a_edge6_Node000004_Node000004"><a xlink:title=" ">
<path fill="none" stroke="#63b8ff" d="M761.71,-461.44C762.6,-468.64 747.36,-474.5 716,-474.5 677.4,-474.5 663.22,-465.62 673.48,-456.3"/>
<polygon fill="#63b8ff" stroke="#63b8ff" points="759.16,-457.33 763.71,-460.39 759.84,-458.42 761.8,-461.58 761.8,-461.58 761.8,-461.58 759.84,-458.42 759.89,-462.77 759.16,-457.33"/>
</a>
</g>
</g>
<!-- Node5 -->
<g id="Node000005" class="node">
<title>Node5</title>
<g id="a_Node000005"><a xlink:href="../../d0/d61/classanonymous__namespace_02_log_8cpp_03_1_1_log_core.html#ac83f155438d4a0447ac048d50c7b1a47" target="_top" xlink:title=" ">
<polygon fill="white" stroke="none" points="537,-411.12 407,-411.12 407,-369.38 537,-369.38 537,-411.12"/>
<text xml:space="preserve" text-anchor="start" x="415" y="-396.68" font-family="Consolas" font-size="11.00">anonymous_namespace</text>
<text xml:space="preserve" text-anchor="start" x="415" y="-385.43" font-family="Consolas" font-size="11.00">{Log::cpp}::LogCore</text>
<text xml:space="preserve" text-anchor="middle" x="472" y="-374.18" font-family="Consolas" font-size="11.00">::msgHandler_</text>
</a>
</g>
</g>
<!-- Node4&#45;&gt;Node5 -->
<g id="edge7_Node000004_Node000005" class="edge">
<title>Node4&#45;&gt;Node5</title>
<g id="a_edge7_Node000004_Node000005"><a xlink:title=" ">
<path fill="none" stroke="#63b8ff" d="M636.74,-424.76C604.38,-417.94 567.35,-410.13 536.7,-403.67"/>
<polygon fill="#63b8ff" stroke="#63b8ff" points="641.53,-425.77 636.17,-426.94 640.27,-425.5 636.64,-424.73 636.64,-424.73 636.64,-424.73 640.27,-425.5 637.1,-422.53 641.53,-425.77"/>
</a>
</g>
</g>
<!-- Node6 -->
<g id="Node000006" class="node">
<title>Node6</title>
<g id="a_Node000006"><a xlink:href="../../dc/d8e/namespaceanonymous__namespace_02_log_8cpp_03.html#a0c2edb98e44610adcc75724bbf4edfb8" target="_top" xlink:title=" ">
<polygon fill="white" stroke="none" points="338,-345.5 190,-345.5 190,-315 338,-315 338,-345.5"/>
<text xml:space="preserve" text-anchor="start" x="198" y="-331.05" font-family="Consolas" font-size="11.00">anonymous_namespace</text>
<text xml:space="preserve" text-anchor="middle" x="264" y="-319.8" font-family="Consolas" font-size="11.00">{Log::cpp}::msgHandler</text>
</a>
</g>
</g>
<!-- Node5&#45;&gt;Node6 -->
<g id="edge8_Node000005_Node000006" class="edge">
<title>Node5&#45;&gt;Node6</title>
<g id="a_edge8_Node000005_Node000006"><a xlink:title=" ">
<path fill="none" stroke="#63b8ff" d="M401.4,-369.98C373.82,-361.94 342.65,-352.87 317.08,-345.42"/>
<polygon fill="#63b8ff" stroke="#63b8ff" points="406.06,-371.34 400.63,-372.1 404.83,-370.98 401.26,-369.94 401.26,-369.94 401.26,-369.94 404.83,-370.98 401.89,-367.78 406.06,-371.34"/>
</a>
</g>
</g>
<!-- Node7 -->
<g id="Node000007" class="node">
<title>Node7</title>
<g id="a_Node000007"><a xlink:href="../../dc/d8e/namespaceanonymous__namespace_02_log_8cpp_03.html#a7a82c11accb191c2f06849f6d13db39a" target="_top" xlink:title=" ">
<polygon fill="white" stroke="none" points="154,-314.5 0,-314.5 0,-284 154,-284 154,-314.5"/>
<text xml:space="preserve" text-anchor="start" x="8" y="-300.05" font-family="Consolas" font-size="11.00">anonymous_namespace</text>
<text xml:space="preserve" text-anchor="middle" x="77" y="-288.8" font-family="Consolas" font-size="11.00">{Log::cpp}::initLogging</text>
</a>
</g>
</g>
<!-- Node6&#45;&gt;Node7 -->
<g id="edge9_Node000006_Node000007" class="edge">
<title>Node6&#45;&gt;Node7</title>
<g id="a_edge9_Node000006_Node000007"><a xlink:title=" ">
<path fill="none" stroke="#63b8ff" d="M184.24,-317.05C174.16,-315.36 163.86,-313.64 153.83,-311.96"/>
<polygon fill="#63b8ff" stroke="#63b8ff" points="188.95,-317.84 183.64,-319.23 187.68,-317.63 184.02,-317.01 184.02,-317.01 184.02,-317.01 187.68,-317.63 184.39,-314.8 188.95,-317.84"/>
</a>
</g>
</g>
<!-- Node8&#45;&gt;Node4 -->
<g id="edge12_Node000008_Node000004" class="edge">
<title>Node8&#45;&gt;Node4</title>
<g id="a_edge12_Node000008_Node000004"><a xlink:title=" ">
<path fill="none" stroke="#63b8ff" d="M874.93,-412.59C850.75,-416.98 824.71,-421.71 800.88,-426.03"/>
<polygon fill="#63b8ff" stroke="#63b8ff" points="879.84,-411.7 875.32,-414.81 878.58,-411.93 874.92,-412.6 874.92,-412.6 874.92,-412.6 878.58,-411.93 874.52,-410.38 879.84,-411.7"/>
</a>
</g>
</g>
<!-- Node8&#45;&gt;Node8 -->
<g id="edge11_Node000008_Node000008" class="edge">
<title>Node8&#45;&gt;Node8</title>
<g id="a_edge11_Node000008_Node000008"><a xlink:title=" ">
<path fill="none" stroke="#63b8ff" d="M1012.84,-416.44C1013.75,-423.64 998.14,-429.5 966,-429.5 926.45,-429.5 911.93,-420.62 922.43,-411.3"/>
<polygon fill="#63b8ff" stroke="#63b8ff" points="1010.22,-412.32 1014.8,-415.34 1010.91,-413.41 1012.9,-416.54 1012.9,-416.54 1012.9,-416.54 1010.91,-413.41 1011,-417.75 1010.22,-412.32"/>
</a>
</g>
</g>
<!-- Node9&#45;&gt;Node4 -->
<g id="edge15_Node000009_Node000004" class="edge">
<title>Node9&#45;&gt;Node4</title>
<g id="a_edge15_Node000009_Node000004"><a xlink:title=" ">
<path fill="none" stroke="#63b8ff" d="M909.21,-346.64C893.07,-353.19 876.04,-361.67 862,-372.25 841.54,-387.66 847.75,-403.72 826,-417.25 820.32,-420.78 814.2,-423.8 807.85,-426.37"/>
<polygon fill="#63b8ff" stroke="#63b8ff" points="913.5,-344.95 909.68,-348.87 912.31,-345.42 908.85,-346.78 908.85,-346.78 908.85,-346.78 912.31,-345.42 908.03,-344.69 913.5,-344.95"/>
</a>
</g>
</g>
<!-- Node9&#45;&gt;Node9 -->
<g id="edge14_Node000009_Node000009" class="edge">
<title>Node9&#45;&gt;Node9</title>
<g id="a_edge14_Node000009_Node000009"><a xlink:title=" ">
<path fill="none" stroke="#63b8ff" d="M1012.84,-349.44C1013.75,-356.64 998.14,-362.5 966,-362.5 926.45,-362.5 911.93,-353.62 922.43,-344.3"/>
<polygon fill="#63b8ff" stroke="#63b8ff" points="1010.22,-345.32 1014.8,-348.34 1010.91,-346.41 1012.9,-349.54 1012.9,-349.54 1012.9,-349.54 1010.91,-346.41 1011,-350.75 1010.22,-345.32"/>
</a>
</g>
</g>
<!-- Node10&#45;&gt;Node4 -->
<g id="edge24_Node000010_Node000004" class="edge">
<title>Node10&#45;&gt;Node4</title>
<g id="a_edge24_Node000010_Node000004"><a xlink:title=" ">
<path fill="none" stroke="#63b8ff" d="M932.1,-243.53C909.44,-257.67 880.23,-279.21 862,-305.25 832.02,-348.08 864.67,-382.06 826,-417.25 820.63,-422.14 814.49,-426.11 807.92,-429.33"/>
<polygon fill="#63b8ff" stroke="#63b8ff" points="936.09,-241.09 933,-245.62 935,-241.76 931.83,-243.7 931.83,-243.7 931.83,-243.7 935,-241.76 930.65,-241.78 936.09,-241.09"/>
</a>
</g>
</g>
<!-- Node10&#45;&gt;Node10 -->
<g id="edge17_Node000010_Node000010" class="edge">
<title>Node10&#45;&gt;Node10</title>
<g id="a_edge17_Node000010_Node000010"><a xlink:title=" ">
<path fill="none" stroke="#63b8ff" d="M1012.84,-245.44C1013.75,-252.64 998.14,-258.5 966,-258.5 926.45,-258.5 911.93,-249.62 922.43,-240.3"/>
<polygon fill="#63b8ff" stroke="#63b8ff" points="1010.22,-241.32 1014.8,-244.34 1010.91,-242.41 1012.9,-245.54 1012.9,-245.54 1012.9,-245.54 1010.91,-242.41 1011,-246.75 1010.22,-241.32"/>
</a>
</g>
</g>
<!-- Node10&#45;&gt;Node11 -->
<g id="edge18_Node000010_Node000011" class="edge">
<title>Node10&#45;&gt;Node11</title>
<g id="a_edge18_Node000010_Node000011"><a xlink:title=" ">
<path fill="none" stroke="#63b8ff" d="M944.13,-206.15C921.83,-184.97 886.41,-149.06 862,-113.25 841.4,-83.03 854.73,-61.89 826,-39.25 819.61,-34.21 812.38,-30.18 804.76,-26.96"/>
<polygon fill="#63b8ff" stroke="#63b8ff" points="947.52,-209.35 942.34,-207.55 946.59,-208.47 943.89,-205.91 943.89,-205.91 943.89,-205.91 946.59,-208.47 945.43,-204.28 947.52,-209.35"/>
</a>
</g>
</g>
<!-- Node10&#45;&gt;Node12 -->
<g id="edge19_Node000010_Node000012" class="edge">
<title>Node10&#45;&gt;Node12</title>
<g id="a_edge19_Node000010_Node000012"><a xlink:title=" ">
<path fill="none" stroke="#63b8ff" d="M909.36,-242.85C892.74,-250.04 875.4,-259.69 862,-272.25 837.33,-295.36 852.43,-318.17 826,-339.25 821.7,-342.68 817.04,-345.71 812.15,-348.4"/>
<polygon fill="#63b8ff" stroke="#63b8ff" points="913.84,-240.97 910.09,-244.98 912.66,-241.46 909.23,-242.9 909.23,-242.9 909.23,-242.9 912.66,-241.46 908.36,-240.83 913.84,-240.97"/>
</a>
</g>
</g>
<!-- Node14 -->
<g id="Node000014" class="node">
<title>Node14</title>
<g id="a_Node000014"><a xlink:href="../../dd/df2/namespaceanonymous__namespace_02_log_8cpp_03_1_1safe.html#a2ccdd616a9266b8ac0b03f18feb92c0a" target="_top" xlink:title=" ">
<polygon fill="white" stroke="none" points="802,-90.12 630,-90.12 630,-48.38 802,-48.38 802,-90.12"/>
<text xml:space="preserve" text-anchor="start" x="638" y="-75.67" font-family="Consolas" font-size="11.00">anonymous_namespace</text>
<text xml:space="preserve" text-anchor="start" x="638" y="-64.42" font-family="Consolas" font-size="11.00">{Log::cpp}::safe::pureCall</text>
<text xml:space="preserve" text-anchor="middle" x="716" y="-53.17" font-family="Consolas" font-size="11.00">Handler</text>
</a>
</g>
</g>
<!-- Node10&#45;&gt;Node14 -->
<g id="edge25_Node000010_Node000014" class="edge">
<title>Node10&#45;&gt;Node14</title>
<g id="a_edge25_Node000010_Node000014"><a xlink:title=" ">
<path fill="none" stroke="#63b8ff" d="M944.1,-206.33C917.88,-183.26 870.91,-144.03 826,-117.25 808.86,-107.03 789.16,-97.7 771.25,-90.03"/>
<polygon fill="#63b8ff" stroke="#63b8ff" points="947.52,-209.36 942.28,-207.73 946.56,-208.51 943.77,-206.05 943.77,-206.05 943.77,-206.05 946.56,-208.51 945.27,-204.36 947.52,-209.36"/>
</a>
</g>
</g>
<!-- Node15 -->
<g id="Node000015" class="node">
<title>Node15</title>
<g id="a_Node000015"><a xlink:href="../../dd/df2/namespaceanonymous__namespace_02_log_8cpp_03_1_1safe.html#a05dd8955535418321e297dbbc885a56d" target="_top" xlink:title=" ">
<polygon fill="white" stroke="none" points="817,-312.5 615,-312.5 615,-282 817,-282 817,-312.5"/>
<text xml:space="preserve" text-anchor="start" x="623" y="-298.05" font-family="Consolas" font-size="11.00">anonymous_namespace</text>
<text xml:space="preserve" text-anchor="middle" x="716" y="-286.8" font-family="Consolas" font-size="11.00">{Log::cpp}::safe::signalHandler</text>
</a>
</g>
</g>
<!-- Node10&#45;&gt;Node15 -->
<g id="edge28_Node000010_Node000015" class="edge">
<title>Node10&#45;&gt;Node15</title>
<g id="a_edge28_Node000010_Node000015"><a xlink:title=" ">
<path fill="none" stroke="#63b8ff" d="M919.32,-242.52C892.4,-252.32 857.54,-264.36 826,-273.25 814.9,-276.38 803.08,-279.35 791.46,-282.06"/>
<polygon fill="#63b8ff" stroke="#63b8ff" points="923.8,-240.88 919.88,-244.71 922.59,-241.32 919.1,-242.6 919.1,-242.6 919.1,-242.6 922.59,-241.32 918.33,-240.49 923.8,-240.88"/>
</a>
</g>
</g>
<!-- Node16 -->
<g id="Node000016" class="node">
<title>Node16</title>
<g id="a_Node000016"><a xlink:href="../../dd/df2/namespaceanonymous__namespace_02_log_8cpp_03_1_1safe.html#ad3395aac6f72b3cacf47edce1bffd16d" target="_top" xlink:title=" ">
<polygon fill="white" stroke="none" points="805,-246.12 627,-246.12 627,-204.38 805,-204.38 805,-246.12"/>
<text xml:space="preserve" text-anchor="start" x="635" y="-231.68" font-family="Consolas" font-size="11.00">anonymous_namespace</text>
<text xml:space="preserve" text-anchor="start" x="635" y="-220.43" font-family="Consolas" font-size="11.00">{Log::cpp}::safe::terminate</text>
<text xml:space="preserve" text-anchor="middle" x="716" y="-209.18" font-family="Consolas" font-size="11.00">Handler</text>
</a>
</g>
</g>
<!-- Node10&#45;&gt;Node16 -->
<g id="edge31_Node000010_Node000016" class="edge">
<title>Node10&#45;&gt;Node16</title>
<g id="a_edge31_Node000010_Node000016"><a xlink:title=" ">
<path fill="none" stroke="#63b8ff" d="M871.1,-225.25C849.31,-225.25 826.19,-225.25 804.67,-225.25"/>
<polygon fill="#63b8ff" stroke="#63b8ff" points="876,-225.25 871,-227.5 874.72,-225.25 871,-225.25 871,-225.25 871,-225.25 874.72,-225.25 871,-223 876,-225.25"/>
</a>
</g>
</g>
<!-- Node17 -->
<g id="Node000017" class="node">
<title>Node17</title>
<g id="a_Node000017"><a xlink:href="../../dd/df2/namespaceanonymous__namespace_02_log_8cpp_03_1_1safe.html#a2fc634cd009955d042c53cb5f5eebcb5" target="_top" xlink:title=" ">
<polygon fill="white" stroke="none" points="826,-168.12 606,-168.12 606,-126.38 826,-126.38 826,-168.12"/>
<text xml:space="preserve" text-anchor="start" x="614" y="-153.68" font-family="Consolas" font-size="11.00">anonymous_namespace</text>
<text xml:space="preserve" text-anchor="start" x="614" y="-142.43" font-family="Consolas" font-size="11.00">{Log::cpp}::safe::windowsException</text>
<text xml:space="preserve" text-anchor="middle" x="716" y="-131.18" font-family="Consolas" font-size="11.00">Filter</text>
</a>
</g>
</g>
<!-- Node10&#45;&gt;Node17 -->
<g id="edge34_Node000010_Node000017" class="edge">
<title>Node10&#45;&gt;Node17</title>
<g id="a_edge34_Node000010_Node000017"><a xlink:title=" ">
<path fill="none" stroke="#63b8ff" d="M910.68,-208.17C873.14,-196.36 822.98,-180.58 783.11,-168.04"/>
<polygon fill="#63b8ff" stroke="#63b8ff" points="915.43,-209.66 909.99,-210.31 914.21,-209.28 910.66,-208.16 910.66,-208.16 910.66,-208.16 914.21,-209.28 911.34,-206.01 915.43,-209.66"/>
</a>
</g>
</g>
<!-- Node12&#45;&gt;Node12 -->
<g id="edge23_Node000012_Node000012" class="edge">
<title>Node12&#45;&gt;Node12</title>
<g id="a_edge23_Node000012_Node000012"><a xlink:title=" ">
<path fill="none" stroke="#63b8ff" d="M761.21,-396.13C758.25,-402.98 743.18,-408.12 716,-408.12 681.21,-408.12 666.26,-399.7 671.15,-390.05"/>
<polygon fill="#63b8ff" stroke="#63b8ff" points="760.92,-391.26 763.46,-396.12 760.99,-392.54 761.22,-396.25 761.22,-396.25 761.22,-396.25 760.99,-392.54 758.97,-396.39 760.92,-391.26"/>
</a>
</g>
</g>
<!-- Node13 -->
<g id="Node000013" class="node">
<title>Node13</title>
<g id="a_Node000013"><a xlink:href="../../dd/df2/namespaceanonymous__namespace_02_log_8cpp_03_1_1safe.html#a5383dc98204ed88af64a0de8fb17de7f" target="_top" xlink:title=" ">
<polygon fill="white" stroke="none" points="570,-282.12 374,-282.12 374,-240.38 570,-240.38 570,-282.12"/>
<text xml:space="preserve" text-anchor="start" x="382" y="-267.68" font-family="Consolas" font-size="11.00">anonymous_namespace</text>
<text xml:space="preserve" text-anchor="start" x="382" y="-256.43" font-family="Consolas" font-size="11.00">{Log::cpp}::safe::installCrash</text>
<text xml:space="preserve" text-anchor="middle" x="472" y="-245.18" font-family="Consolas" font-size="11.00">Handlers</text>
</a>
</g>
</g>
<!-- Node12&#45;&gt;Node13 -->
<g id="edge20_Node000012_Node000013" class="edge">
<title>Node12&#45;&gt;Node13</title>
<g id="a_edge20_Node000012_Node000013"><a xlink:title=" ">
<path fill="none" stroke="#63b8ff" d="M625.12,-346.55C618.58,-344.28 612.14,-341.84 606,-339.25 568.89,-323.58 529.44,-299.38 503.24,-282.09"/>
<polygon fill="#63b8ff" stroke="#63b8ff" points="629.48,-348.03 624.02,-348.55 628.26,-347.62 624.74,-346.42 624.74,-346.42 624.74,-346.42 628.26,-347.62 625.46,-344.29 629.48,-348.03"/>
</a>
</g>
</g>
<!-- Node13&#45;&gt;Node7 -->
<g id="edge21_Node000013_Node000007" class="edge">
<title>Node13&#45;&gt;Node7</title>
<g id="a_edge21_Node000013_Node000007"><a xlink:title=" ">
<path fill="none" stroke="#63b8ff" d="M368.08,-271.2C300.92,-277.7 214.74,-286.03 153.82,-291.92"/>
<polygon fill="#63b8ff" stroke="#63b8ff" points="372.89,-270.74 368.13,-273.46 371.62,-270.86 367.92,-271.22 367.92,-271.22 367.92,-271.22 371.62,-270.86 367.7,-268.98 372.89,-270.74"/>
</a>
</g>
</g>
<!-- Node13&#45;&gt;Node13 -->
<g id="edge22_Node000013_Node000013" class="edge">
<title>Node13&#45;&gt;Node13</title>
<g id="a_edge22_Node000013_Node000013"><a xlink:title=" ">
<path fill="none" stroke="#63b8ff" d="M510.54,-288.13C508.01,-294.98 495.17,-300.12 472,-300.12 442.34,-300.12 429.6,-291.7 433.77,-282.05"/>
<polygon fill="#63b8ff" stroke="#63b8ff" points="510.29,-283.26 512.79,-288.14 510.36,-284.54 510.54,-288.26 510.54,-288.26 510.54,-288.26 510.36,-284.54 508.3,-288.37 510.29,-283.26"/>
</a>
</g>
</g>
<!-- Node14&#45;&gt;Node13 -->
<g id="edge26_Node000014_Node000013" class="edge">
<title>Node14&#45;&gt;Node13</title>
<g id="a_edge26_Node000014_Node000013"><a xlink:title=" ">
<path fill="none" stroke="#63b8ff" d="M650.21,-92.56C635.04,-99.41 619.41,-107.67 606,-117.25 556,-152.94 510.39,-209.89 487.84,-240.38"/>
<polygon fill="#63b8ff" stroke="#63b8ff" points="654.65,-90.6 650.99,-94.68 653.48,-91.12 650.08,-92.62 650.08,-92.62 650.08,-92.62 653.48,-91.12 649.17,-90.56 654.65,-90.6"/>
</a>
</g>
</g>
<!-- Node14&#45;&gt;Node14 -->
<g id="edge27_Node000014_Node000014" class="edge">
<title>Node14&#45;&gt;Node14</title>
<g id="a_edge27_Node000014_Node000014"><a xlink:title=" ">
<path fill="none" stroke="#63b8ff" d="M761.21,-96.13C758.25,-102.98 743.18,-108.12 716,-108.12 681.21,-108.12 666.26,-99.7 671.15,-90.05"/>
<polygon fill="#63b8ff" stroke="#63b8ff" points="760.92,-91.26 763.46,-96.12 760.99,-92.54 761.22,-96.25 761.22,-96.25 761.22,-96.25 760.99,-92.54 758.97,-96.39 760.92,-91.26"/>
</a>
</g>
</g>
<!-- Node15&#45;&gt;Node13 -->
<g id="edge29_Node000015_Node000013" class="edge">
<title>Node15&#45;&gt;Node13</title>
<g id="a_edge29_Node000015_Node000013"><a xlink:title=" ">
<path fill="none" stroke="#63b8ff" d="M609.19,-281.51C596.11,-279.56 582.8,-277.58 569.87,-275.66"/>
<polygon fill="#63b8ff" stroke="#63b8ff" points="613.97,-282.22 608.69,-283.71 612.7,-282.03 609.02,-281.48 609.02,-281.48 609.02,-281.48 612.7,-282.03 609.35,-279.26 613.97,-282.22"/>
</a>
</g>
</g>
<!-- Node15&#45;&gt;Node15 -->
<g id="edge30_Node000015_Node000015" class="edge">
<title>Node15&#45;&gt;Node15</title>
<g id="a_edge30_Node000015_Node000015"><a xlink:title=" ">
<path fill="none" stroke="#63b8ff" d="M761.71,-317.44C762.6,-324.64 747.36,-330.5 716,-330.5 677.4,-330.5 663.22,-321.62 673.48,-312.3"/>
<polygon fill="#63b8ff" stroke="#63b8ff" points="759.16,-313.33 763.71,-316.39 759.84,-314.42 761.8,-317.58 761.8,-317.58 761.8,-317.58 759.84,-314.42 759.89,-318.77 759.16,-313.33"/>
</a>
</g>
</g>
<!-- Node16&#45;&gt;Node13 -->
<g id="edge32_Node000016_Node000013" class="edge">
<title>Node16&#45;&gt;Node13</title>
<g id="a_edge32_Node000016_Node000013"><a xlink:title=" ">
<path fill="none" stroke="#63b8ff" d="M621.57,-239.15C604.61,-241.67 586.88,-244.31 569.83,-246.85"/>
<polygon fill="#63b8ff" stroke="#63b8ff" points="626.09,-238.48 621.47,-241.44 624.82,-238.67 621.14,-239.21 621.14,-239.21 621.14,-239.21 624.82,-238.67 620.81,-236.99 626.09,-238.48"/>
</a>
</g>
</g>
<!-- Node16&#45;&gt;Node16 -->
<g id="edge33_Node000016_Node000016" class="edge">
<title>Node16&#45;&gt;Node16</title>
<g id="a_edge33_Node000016_Node000016"><a xlink:title=" ">
<path fill="none" stroke="#63b8ff" d="M761.21,-252.13C758.25,-258.98 743.18,-264.12 716,-264.12 681.21,-264.12 666.26,-255.7 671.15,-246.05"/>
<polygon fill="#63b8ff" stroke="#63b8ff" points="760.92,-247.26 763.46,-252.12 760.99,-248.54 761.22,-252.25 761.22,-252.25 761.22,-252.25 760.99,-248.54 758.97,-252.39 760.92,-247.26"/>
</a>
</g>
</g>
<!-- Node17&#45;&gt;Node13 -->
<g id="edge35_Node000017_Node000013" class="edge">
<title>Node17&#45;&gt;Node13</title>
<g id="a_edge35_Node000017_Node000013"><a xlink:title=" ">
<path fill="none" stroke="#63b8ff" d="M661.09,-170.41C643.45,-178.14 623.82,-186.91 606,-195.25 574.83,-209.84 540,-227.16 513.81,-240.4"/>
<polygon fill="#63b8ff" stroke="#63b8ff" points="665.38,-168.53 661.7,-172.6 664.2,-169.05 660.8,-170.54 660.8,-170.54 660.8,-170.54 664.2,-169.05 659.89,-168.47 665.38,-168.53"/>
</a>
</g>
</g>
<!-- Node17&#45;&gt;Node17 -->
<g id="edge36_Node000017_Node000017" class="edge">
<title>Node17&#45;&gt;Node17</title>
<g id="a_edge36_Node000017_Node000017"><a xlink:title=" ">
<path fill="none" stroke="#63b8ff" d="M761.21,-174.13C758.25,-180.98 743.18,-186.12 716,-186.12 681.21,-186.12 666.26,-177.7 671.15,-168.05"/>
<polygon fill="#63b8ff" stroke="#63b8ff" points="760.92,-169.26 763.46,-174.12 760.99,-170.54 761.22,-174.25 761.22,-174.25 761.22,-174.25 760.99,-170.54 758.97,-174.39 760.92,-169.26"/>
</a>
</g>
</g>
</g>
</svg>
