<?xml version="1.0" encoding="UTF-8" standalone="no"?>
<!DOCTYPE svg PUBLIC "-//W3C//DTD SVG 1.1//EN"
 "http://www.w3.org/Graphics/SVG/1.1/DTD/svg11.dtd">
<!-- Generated by graphviz version 14.0.0 (20250921.2048)
 -->
<!-- Title: anonymous_namespace{Log::cpp}::safe::terminateHandler Pages: 1 -->
<!--zoomable 221 -->

<svg id="main" version="1.1" xmlns="http://www.w3.org/2000/svg" xmlns:xlink="http://www.w3.org/1999/xlink" xml:space="preserve" onload="init(evt)">

<style type="text/css"><![CDATA[
.node, .edge {opacity: 0.7;}
.node.selected, .edge.selected {opacity: 1;}
.edge:hover path { stroke: red; }
.edge:hover polygon { stroke: red; fill: red; }
]]></style>

<defs>
  <circle id="rim" cx="0" cy="0" r="7"/>
  <circle id="rim2" cx="0" cy="0" r="3.5"/>
  <g id="zoomPlus">
    <use xlink:href="#rim" fill="#404040"><set attributeName="fill" to="#808080" begin="zoomplus.mouseover" end="zoomplus.mouseout"/></use>
    <path d="M-4,0h8M0,-4v8" fill="none" stroke="white" stroke-width="1.5" pointer-events="none"/>
  </g>
  <g id="zoomMin">
    <use xlink:href="#rim" fill="#404040"><set attributeName="fill" to="#808080" begin="zoomminus.mouseover" end="zoomminus.mouseout"/></use>
    <path d="M-4,0h8" fill="none" stroke="white" stroke-width="1.5" pointer-events="none"/>
  </g>
  <g id="arrowUp" transform="translate(30 24)">
    <use xlink:href="#rim"/>
    <path pointer-events="none" fill="none" stroke="white" stroke-width="1.5" d="M0,-3.0v7 M-2.5,-0.5L0,-3.0L2.5,-0.5"/>
  </g>
  <g id="arrowRight" transform="rotate(90) translate(36 -43)">
    <use xlink:href="#rim"/>
    <path pointer-events="none" fill="none" stroke="white" stroke-width="1.5" d="M0,-3.0v7 M-2.5,-0.5L0,-3.0L2.5,-0.5"/>
  </g>
  <g id="arrowDown" transform="rotate(180) translate(-30 -48)">
    <use xlink:href="#rim"/>
    <path pointer-events="none" fill="none" stroke="white" stroke-width="1.5" d="M0,-3.0v7 M-2.5,-0.5L0,-3.0L2.5,-0.5"/>
  </g>
  <g id="arrowLeft" transform="rotate(270) translate(-36 17)">
    <use xlink:href="#rim"/>
    <path pointer-events="none" fill="none" stroke="white" stroke-width="1.5" d="M0,-3.0v7 M-2.5,-0.5L0,-3.0L2.5,-0.5"/>
  </g>
  <g id="resetDef">
    <use xlink:href="#rim2" fill="#404040"><set attributeName="fill" to="#808080" begin="reset.mouseover" end="reset.mouseout"/></use>
  </g>
</defs>
<script type="application/ecmascript">
var viewWidth = 1044;
var viewHeight = 221;
var sectionId = 'dynsection-48';
</script>
<script type="application/ecmascript" xlink:href="../../svg.min.js"/>
<svg id="graph" class="graph">
<g id="viewport">
<title>anonymous_namespace{Log::cpp}::safe::terminateHandler</title>
<!-- Node1 -->
<g id="Node000001" class="node">
<title>Node1</title>
<g id="a_Node000001"><a xlink:title=" ">
<polygon fill="#999999" stroke="none" points="334,-121.88 0,-121.88 0,-102.62 334,-102.62 334,-121.88"/>
<text xml:space="preserve" text-anchor="start" x="8" y="-108.42" font-family="Consolas" font-weight="bold" font-size="11.00">anonymous_namespace{Log::cpp}::safe::terminateHandler</text>
</a>
</g>
</g>
<!-- Node1&#45;&gt;Node1 -->
<g id="edge14_Node000001_Node000001" class="edge">
<title>Node1&#45;&gt;Node1</title>
<g id="a_edge14_Node000001_Node000001"><a xlink:title=" ">
<path fill="none" stroke="#63b8ff" d="M120.98,-121.73C97.87,-130.46 113.21,-139.88 167,-139.88 215.75,-139.88 232.92,-132.15 218.5,-124.2"/>
<polygon fill="#63b8ff" stroke="#63b8ff" points="214.13,-122.23 219.61,-122.23 215.3,-122.76 218.69,-124.28 218.69,-124.28 218.69,-124.28 215.3,-122.76 217.77,-126.33 214.13,-122.23"/>
</a>
</g>
</g>
<!-- Node2 -->
<g id="Node000002" class="node">
<title>Node2</title>
<g id="a_Node000002"><a xlink:href="../../dd/df2/namespaceanonymous__namespace_02_log_8cpp_03_1_1safe.html#aa8d11c260254c761c7437280b4284d17" target="_top" xlink:title=" ">
<polygon fill="white" stroke="none" points="557,-194.5 379,-194.5 379,-164 557,-164 557,-194.5"/>
<text xml:space="preserve" text-anchor="start" x="387" y="-180.05" font-family="Consolas" font-size="11.00">anonymous_namespace</text>
<text xml:space="preserve" text-anchor="middle" x="468" y="-168.8" font-family="Consolas" font-size="11.00">{Log::cpp}::safe::appendTxt</text>
</a>
</g>
</g>
<!-- Node1&#45;&gt;Node2 -->
<g id="edge1_Node000001_Node000002" class="edge">
<title>Node1&#45;&gt;Node2</title>
<g id="a_edge1_Node000001_Node000002"><a xlink:title=" ">
<path fill="none" stroke="#63b8ff" d="M210.84,-121.85C258.38,-132.5 335.94,-149.88 393.28,-162.73"/>
<polygon fill="#63b8ff" stroke="#63b8ff" points="397.92,-163.77 392.55,-164.87 396.67,-163.49 393.04,-162.68 393.04,-162.68 393.04,-162.68 396.67,-163.49 393.53,-160.48 397.92,-163.77"/>
</a>
</g>
</g>
<!-- Node5 -->
<g id="Node000005" class="node">
<title>Node5</title>
<g id="a_Node000005"><a xlink:href="../../dd/df2/namespaceanonymous__namespace_02_log_8cpp_03_1_1safe.html#aee2abc51c02c7af63c137ba0ea58c71a" target="_top" xlink:title=" ">
<polygon fill="white" stroke="none" points="566,-127.5 370,-127.5 370,-97 566,-97 566,-127.5"/>
<text xml:space="preserve" text-anchor="start" x="378" y="-113.05" font-family="Consolas" font-size="11.00">anonymous_namespace</text>
<text xml:space="preserve" text-anchor="middle" x="468" y="-101.8" font-family="Consolas" font-size="11.00">{Log::cpp}::safe::hardFailFast</text>
</a>
</g>
</g>
<!-- Node1&#45;&gt;Node5 -->
<g id="edge7_Node000001_Node000005" class="edge">
<title>Node1&#45;&gt;Node5</title>
<g id="a_edge7_Node000001_Node000005"><a xlink:title=" ">
<path fill="none" stroke="#63b8ff" d="M333.68,-112.25C343.94,-112.25 354.11,-112.25 363.97,-112.25"/>
<polygon fill="#63b8ff" stroke="#63b8ff" points="368.85,-112.25 363.85,-114.5 367.57,-112.25 363.85,-112.25 363.85,-112.25 363.85,-112.25 367.57,-112.25 363.85,-110 368.85,-112.25"/>
</a>
</g>
</g>
<!-- Node6 -->
<g id="Node000006" class="node">
<title>Node6</title>
<g id="a_Node000006"><a xlink:href="../../dd/df2/namespaceanonymous__namespace_02_log_8cpp_03_1_1safe.html#a97522aab6ec53ce2693cf4a5432927bf" target="_top" xlink:title=" ">
<polygon fill="white" stroke="none" points="563,-60.5 373,-60.5 373,-30 563,-30 563,-60.5"/>
<text xml:space="preserve" text-anchor="start" x="381" y="-46.05" font-family="Consolas" font-size="11.00">anonymous_namespace</text>
<text xml:space="preserve" text-anchor="middle" x="468" y="-34.8" font-family="Consolas" font-size="11.00">{Log::cpp}::safe::impLogWrite</text>
</a>
</g>
</g>
<!-- Node1&#45;&gt;Node6 -->
<g id="edge9_Node000001_Node000006" class="edge">
<title>Node1&#45;&gt;Node6</title>
<g id="a_edge9_Node000001_Node000006"><a xlink:title=" ">
<path fill="none" stroke="#63b8ff" d="M210.84,-102.65C258.38,-92 335.94,-74.62 393.28,-61.77"/>
<polygon fill="#63b8ff" stroke="#63b8ff" points="397.92,-60.73 393.53,-64.02 396.67,-61.01 393.04,-61.82 393.04,-61.82 393.04,-61.82 396.67,-61.01 392.55,-59.63 397.92,-60.73"/>
</a>
</g>
</g>
<!-- Node2&#45;&gt;Node2 -->
<g id="edge6_Node000002_Node000002" class="edge">
<title>Node2&#45;&gt;Node2</title>
<g id="a_edge6_Node000002_Node000002"><a xlink:title=" ">
<path fill="none" stroke="#63b8ff" d="M426.52,-194.3C416.52,-203.62 430.35,-212.5 468,-212.5 498.59,-212.5 513.46,-206.64 512.59,-199.44"/>
<polygon fill="#63b8ff" stroke="#63b8ff" points="510.11,-195.34 514.62,-198.45 510.77,-196.43 512.7,-199.62 512.7,-199.62 512.7,-199.62 510.77,-196.43 510.77,-200.78 510.11,-195.34"/>
</a>
</g>
</g>
<!-- Node3 -->
<g id="Node000003" class="node">
<title>Node3</title>
<g id="a_Node000003"><a xlink:href="../../dd/df2/namespaceanonymous__namespace_02_log_8cpp_03_1_1safe.html#a65353ac3c8d675a9a827bed9e11acc17" target="_top" xlink:title=" ">
<polygon fill="white" stroke="none" points="795,-194.5 617,-194.5 617,-164 795,-164 795,-194.5"/>
<text xml:space="preserve" text-anchor="start" x="625" y="-180.05" font-family="Consolas" font-size="11.00">anonymous_namespace</text>
<text xml:space="preserve" text-anchor="middle" x="706" y="-168.8" font-family="Consolas" font-size="11.00">{Log::cpp}::safe::appendChr</text>
</a>
</g>
</g>
<!-- Node2&#45;&gt;Node3 -->
<g id="edge2_Node000002_Node000003" class="edge">
<title>Node2&#45;&gt;Node3</title>
<g id="a_edge2_Node000002_Node000003"><a xlink:title=" ">
<path fill="none" stroke="#63b8ff" d="M556.88,-179.25C574.54,-179.25 593.16,-179.25 611.02,-179.25"/>
<polygon fill="#63b8ff" stroke="#63b8ff" points="615.83,-179.25 610.83,-181.5 614.55,-179.25 610.83,-179.25 610.83,-179.25 610.83,-179.25 614.55,-179.25 610.83,-177 615.83,-179.25"/>
</a>
</g>
</g>
<!-- Node3&#45;&gt;Node3 -->
<g id="edge3_Node000003_Node000003" class="edge">
<title>Node3&#45;&gt;Node3</title>
<g id="a_edge3_Node000003_Node000003"><a xlink:title=" ">
<path fill="none" stroke="#63b8ff" d="M665.05,-194.3C655.17,-203.62 668.82,-212.5 706,-212.5 736.21,-212.5 750.88,-206.64 750.03,-199.44"/>
<polygon fill="#63b8ff" stroke="#63b8ff" points="747.58,-195.34 752.07,-198.48 748.24,-196.44 750.14,-199.63 750.14,-199.63 750.14,-199.63 748.24,-196.44 748.21,-200.79 747.58,-195.34"/>
</a>
</g>
</g>
<!-- Node4 -->
<g id="Node000004" class="node">
<title>Node4</title>
<g id="a_Node000004"><a xlink:href="../../dd/df2/namespaceanonymous__namespace_02_log_8cpp_03_1_1safe.html#a1e4219749cab61533a6faf773fe7cddb" target="_top" xlink:title=" ">
<polygon fill="white" stroke="none" points="1036,-194.5 846,-194.5 846,-164 1036,-164 1036,-194.5"/>
<text xml:space="preserve" text-anchor="start" x="854" y="-180.05" font-family="Consolas" font-size="11.00">anonymous_namespace</text>
<text xml:space="preserve" text-anchor="middle" x="941" y="-168.8" font-family="Consolas" font-size="11.00">{Log::cpp}::safe::isSpaceChar</text>
</a>
</g>
</g>
<!-- Node3&#45;&gt;Node4 -->
<g id="edge4_Node000003_Node000004" class="edge">
<title>Node3&#45;&gt;Node4</title>
<g id="a_edge4_Node000003_Node000004"><a xlink:title=" ">
<path fill="none" stroke="#63b8ff" d="M794.76,-179.25C809.56,-179.25 825.03,-179.25 840.11,-179.25"/>
<polygon fill="#63b8ff" stroke="#63b8ff" points="844.88,-179.25 839.88,-181.5 843.6,-179.25 839.88,-179.25 839.88,-179.25 839.88,-179.25 843.6,-179.25 839.88,-177 844.88,-179.25"/>
</a>
</g>
</g>
<!-- Node4&#45;&gt;Node4 -->
<g id="edge5_Node000004_Node000004" class="edge">
<title>Node4&#45;&gt;Node4</title>
<g id="a_edge5_Node000004_Node000004"><a xlink:title=" ">
<path fill="none" stroke="#63b8ff" d="M900.05,-194.3C890.17,-203.62 903.82,-212.5 941,-212.5 971.21,-212.5 985.88,-206.64 985.03,-199.44"/>
<polygon fill="#63b8ff" stroke="#63b8ff" points="982.58,-195.34 987.07,-198.48 983.24,-196.44 985.14,-199.63 985.14,-199.63 985.14,-199.63 983.24,-196.44 983.21,-200.79 982.58,-195.34"/>
</a>
</g>
</g>
<!-- Node5&#45;&gt;Node5 -->
<g id="edge8_Node000005_Node000005" class="edge">
<title>Node5&#45;&gt;Node5</title>
<g id="a_edge8_Node000005_Node000005"><a xlink:title=" ">
<path fill="none" stroke="#63b8ff" d="M426.52,-127.3C416.52,-136.62 430.35,-145.5 468,-145.5 498.59,-145.5 513.46,-139.64 512.59,-132.44"/>
<polygon fill="#63b8ff" stroke="#63b8ff" points="510.11,-128.34 514.62,-131.45 510.77,-129.43 512.7,-132.62 512.7,-132.62 512.7,-132.62 510.77,-129.43 510.77,-133.78 510.11,-128.34"/>
</a>
</g>
</g>
<!-- Node6&#45;&gt;Node6 -->
<g id="edge10_Node000006_Node000006" class="edge">
<title>Node6&#45;&gt;Node6</title>
<g id="a_edge10_Node000006_Node000006"><a xlink:title=" ">
<path fill="none" stroke="#63b8ff" d="M426.52,-60.3C416.52,-69.62 430.35,-78.5 468,-78.5 498.59,-78.5 513.46,-72.64 512.59,-65.44"/>
<polygon fill="#63b8ff" stroke="#63b8ff" points="510.11,-61.34 514.62,-64.45 510.77,-62.43 512.7,-65.62 512.7,-65.62 512.7,-65.62 510.77,-62.43 510.77,-66.78 510.11,-61.34"/>
</a>
</g>
</g>
<!-- Node7 -->
<g id="Node000007" class="node">
<title>Node7</title>
<g id="a_Node000007"><a xlink:href="../../dc/dba/namespacenpi_1_1app.html#a30b5245afa890e98f19f43c58f29e633" target="_top" xlink:title="Windows native fatal error message box.">
<polygon fill="white" stroke="none" points="798,-85.88 614,-85.88 614,-66.62 798,-66.62 798,-85.88"/>
<text xml:space="preserve" text-anchor="middle" x="706" y="-71.42" font-family="Consolas" font-size="11.00">npi::app::nativeFatalMessage</text>
</a>
</g>
</g>
<!-- Node6&#45;&gt;Node7 -->
<g id="edge11_Node000006_Node000007" class="edge">
<title>Node6&#45;&gt;Node7</title>
<g id="a_edge11_Node000006_Node000007"><a xlink:title=" ">
<path fill="none" stroke="#63b8ff" d="M562.95,-57.59C583.78,-60.33 605.64,-63.2 625.81,-65.85"/>
<polygon fill="#63b8ff" stroke="#63b8ff" points="630.52,-66.47 625.27,-68.05 629.25,-66.3 625.56,-65.82 625.56,-65.82 625.56,-65.82 629.25,-66.3 625.86,-63.58 630.52,-66.47"/>
</a>
</g>
</g>
<!-- Node8 -->
<g id="Node000008" class="node">
<title>Node8</title>
<g id="a_Node000008"><a xlink:href="../../dd/df2/namespaceanonymous__namespace_02_log_8cpp_03_1_1safe.html#abc25ab769b48a34eb27ff7c789822b7e" target="_top" xlink:title=" ">
<polygon fill="white" stroke="none" points="810,-30.5 602,-30.5 602,0 810,0 810,-30.5"/>
<text xml:space="preserve" text-anchor="start" x="610" y="-16.05" font-family="Consolas" font-size="11.00">anonymous_namespace</text>
<text xml:space="preserve" text-anchor="middle" x="706" y="-4.8" font-family="Consolas" font-size="11.00">{Log::cpp}::safe::win32ErrorText</text>
</a>
</g>
</g>
<!-- Node6&#45;&gt;Node8 -->
<g id="edge12_Node000006_Node000008" class="edge">
<title>Node6&#45;&gt;Node8</title>
<g id="a_edge12_Node000006_Node000008"><a xlink:title=" ">
<path fill="none" stroke="#63b8ff" d="M562.95,-33.31C573.8,-31.93 584.93,-30.51 595.95,-29.11"/>
<polygon fill="#63b8ff" stroke="#63b8ff" points="600.85,-28.49 596.18,-31.35 599.58,-28.65 595.89,-29.12 595.89,-29.12 595.89,-29.12 599.58,-28.65 595.61,-26.89 600.85,-28.49"/>
</a>
</g>
</g>
<!-- Node8&#45;&gt;Node8 -->
<g id="edge13_Node000008_Node000008" class="edge">
<title>Node8&#45;&gt;Node8</title>
<g id="a_edge13_Node000008_Node000008"><a xlink:title=" ">
<path fill="none" stroke="#63b8ff" d="M665.05,-30.3C655.17,-39.62 668.82,-48.5 706,-48.5 736.21,-48.5 750.88,-42.64 750.03,-35.44"/>
<polygon fill="#63b8ff" stroke="#63b8ff" points="747.58,-31.34 752.07,-34.48 748.24,-32.44 750.14,-35.63 750.14,-35.63 750.14,-35.63 748.24,-32.44 748.21,-36.79 747.58,-31.34"/>
</a>
</g>
</g>
</g>
</svg>

<g id="navigator" transform="translate(0 0)" fill="#404254">
  <rect fill="#f2f5e9" fill-opacity="0.5" stroke="#606060" stroke-width=".5" x="0" y="0" width="60" height="60"/>
  <use id="zoomplus" xlink:href="#zoomPlus" x="17" y="9" onmousedown="handleZoom(evt,'in')"/>
  <use id="zoomminus" xlink:href="#zoomMin" x="42" y="9" onmousedown="handleZoom(evt,'out')"/>
  <use id="reset" xlink:href="#resetDef" x="30" y="36" onmousedown="handleReset()"/>
   <use id="arrowup" xlink:href="#arrowUp" x="0" y="0" onmousedown="handlePan(0,-1)"/>
  <use id="arrowright" xlink:href="#arrowRight" x="0" y="0" onmousedown="handlePan(1,0)"/>
  <use id="arrowdown" xlink:href="#arrowDown" x="0" y="0" onmousedown="handlePan(0,1)"/>
  <use id="arrowleft" xlink:href="#arrowLeft" x="0" y="0" onmousedown="handlePan(-1,0)"/>
</g>
<svg viewBox="0 0 15 15" width="100%" height="30px" preserveAspectRatio="xMaxYMin meet">
 <g id="arrow_out" transform="scale(0.3 0.3)">
  <a xlink:href="namespaceanonymous__namespace_02_log_8cpp_03_1_1safe_ad3395aac6f72b3cacf47edce1bffd16d_cgraph_org.svg" target="_base">
   <rect id="button" ry="5" rx="5" y="6" x="6" height="38" width="38"
        fill="#f2f5e9" fill-opacity="0.5" stroke="#606060" stroke-width="1.0"/>
   <path id="arrow"
     d="M 11.500037,31.436501 C 11.940474,20.09759 22.043105,11.32322 32.158766,21.979434 L 37.068811,17.246167 C 37.068811,17.246167 37.088388,32 37.088388,32 L 22.160133,31.978069 C 22.160133,31.978069 26.997745,27.140456 26.997745,27.140456 C 18.528582,18.264221 13.291696,25.230495 11.500037,31.436501 z"
     style="fill:#404040;"/>
  </a>
 </g>
</svg>

<style type='text/css'>
<![CDATA[
[data-mouse-over-selected='false'] { opacity: 0.7; }
[data-mouse-over-selected='true']  { opacity: 1.0; }
]]>
</style>
<script type="application/ecmascript"><![CDATA[
document.addEventListener('DOMContentLoaded', (event) => {
  highlightEdges();
  highlightAdjacentNodes();
});
]]></script>
</svg>
