<?xml version="1.0" encoding="UTF-8" standalone="no"?>
<!DOCTYPE svg PUBLIC "-//W3C//DTD SVG 1.1//EN"
 "http://www.w3.org/Graphics/SVG/1.1/DTD/svg11.dtd">
<!-- Generated by graphviz version 14.0.0 (20250921.2048)
 -->
<!-- Title: anonymous_namespace{Log::cpp}::safe::win32ErrorText Pages: 1 -->
<!--zoomable 512 -->

<svg id="main" version="1.1" xmlns="http://www.w3.org/2000/svg" xmlns:xlink="http://www.w3.org/1999/xlink" xml:space="preserve" onload="init(evt)">

<style type="text/css"><![CDATA[
.node, .edge {opacity: 0.7;}
.node.selected, .edge.selected {opacity: 1;}
.edge:hover path { stroke: red; }
.edge:hover polygon { stroke: red; fill: red; }
]]></style>

<defs>
  <circle id="rim" cx="0" cy="0" r="7"/>
  <circle id="rim2" cx="0" cy="0" r="3.5"/>
  <g id="zoomPlus">
    <use xlink:href="#rim" fill="#404040"><set attributeName="fill" to="#808080" begin="zoomplus.mouseover" end="zoomplus.mouseout"/></use>
    <path d="M-4,0h8M0,-4v8" fill="none" stroke="white" stroke-width="1.5" pointer-events="none"/>
  </g>
  <g id="zoomMin">
    <use xlink:href="#rim" fill="#404040"><set attributeName="fill" to="#808080" begin="zoomminus.mouseover" end="zoomminus.mouseout"/></use>
    <path d="M-4,0h8" fill="none" stroke="white" stroke-width="1.5" pointer-events="none"/>
  </g>
  <g id="arrowUp" transform="translate(30 24)">
    <use xlink:href="#rim"/>
    <path pointer-events="none" fill="none" stroke="white" stroke-width="1.5" d="M0,-3.0v7 M-2.5,-0.5L0,-3.0L2.5,-0.5"/>
  </g>
  <g id="arrowRight" transform="rotate(90) translate(36 -43)">
    <use xlink:href="#rim"/>
    <path pointer-events="none" fill="none" stroke="white" stroke-width="1.5" d="M0,-3.0v7 M-2.5,-0.5L0,-3.0L2.5,-0.5"/>
  </g>
  <g id="arrowDown" transform="rotate(180) translate(-30 -48)">
    <use xlink:href="#rim"/>
    <path pointer-events="none" fill="none" stroke="white" stroke-width="1.5" d="M0,-3.0v7 M-2.5,-0.5L0,-3.0L2.5,-0.5"/>
  </g>
  <g id="arrowLeft" transform="rotate(270) translate(-36 17)">
    <use xlink:href="#rim"/>
    <path pointer-events="none" fill="none" stroke="white" stroke-width="1.5" d="M0,-3.0v7 M-2.5,-0.5L0,-3.0L2.5,-0.5"/>
  </g>
  <g id="resetDef">
    <use xlink:href="#rim2" fill="#404040"><set attributeName="fill" to="#808080" begin="reset.mouseover" end="reset.mouseout"/></use>
  </g>
</defs>
<script type="application/ecmascript">
var viewWidth = 1418;
var viewHeight = 512;
var sectionId = 'dynsection-51';
</script>
<script type="application/ecmascript" xlink:href="../../svg.min.js"/>
<svg id="graph" class="graph">
<g id="viewport">
<title>anonymous_namespace{Log::cpp}::safe::win32ErrorText</title>
<!-- Node1 -->
<g id="Node000001" class="node">
<title>Node1</title>
<g id="a_Node000001"><a xlink:title=" ">
<polygon fill="#999999" stroke="none" points="1410,-141.5 1088,-141.5 1088,-122.25 1410,-122.25 1410,-141.5"/>
<text xml:space="preserve" text-anchor="start" x="1096" y="-128.05" font-family="Consolas" font-weight="bold" font-size="11.00">anonymous_namespace{Log::cpp}::safe::win32ErrorText</text>
</a>
</g>
</g>
<!-- Node1&#45;&gt;Node1 -->
<g id="edge25_Node000001_Node000001" class="edge">
<title>Node1&#45;&gt;Node1</title>
<g id="a_edge25_Node000001_Node000001"><a xlink:title=" ">
<path fill="none" stroke="#63b8ff" d="M1298.96,-143.82C1312.95,-151.77 1296.29,-159.5 1249,-159.5 1196.82,-159.5 1181.94,-150.09 1204.36,-141.36"/>
<polygon fill="#63b8ff" stroke="#63b8ff" points="1294.75,-141.87 1300.23,-141.93 1295.91,-142.41 1299.28,-143.97 1299.28,-143.97 1299.28,-143.97 1295.91,-142.41 1298.34,-146.01 1294.75,-141.87"/>
</a>
</g>
</g>
<!-- Node2 -->
<g id="Node000002" class="node">
<title>Node2</title>
<g id="a_Node000002"><a xlink:href="../../dd/df2/namespaceanonymous__namespace_02_log_8cpp_03_1_1safe.html#a97522aab6ec53ce2693cf4a5432927bf" target="_top" xlink:title=" ">
<polygon fill="white" stroke="none" points="1052,-258.12 862,-258.12 862,-227.62 1052,-227.62 1052,-258.12"/>
<text xml:space="preserve" text-anchor="start" x="870" y="-243.68" font-family="Consolas" font-size="11.00">anonymous_namespace</text>
<text xml:space="preserve" text-anchor="middle" x="957" y="-232.43" font-family="Consolas" font-size="11.00">{Log::cpp}::safe::impLogWrite</text>
</a>
</g>
</g>
<!-- Node1&#45;&gt;Node2 -->
<g id="edge1_Node000001_Node000002" class="edge">
<title>Node1&#45;&gt;Node2</title>
<g id="a_edge1_Node000001_Node000002"><a xlink:title=" ">
<path fill="none" stroke="#63b8ff" d="M1217.47,-143.56C1164.63,-163.79 1056.16,-205.3 997.6,-227.72"/>
<polygon fill="#63b8ff" stroke="#63b8ff" points="1221.89,-141.87 1218.02,-145.76 1220.69,-142.33 1217.22,-143.66 1217.22,-143.66 1217.22,-143.66 1220.69,-142.33 1216.41,-141.56 1221.89,-141.87"/>
</a>
</g>
</g>
<!-- Node13 -->
<g id="Node000013" class="node">
<title>Node13</title>
<g id="a_Node000013"><a xlink:href="../../dd/df2/namespaceanonymous__namespace_02_log_8cpp_03_1_1safe.html#acee0c3f06b3d9996946c9c55104868c4" target="_top" xlink:title=" ">
<polygon fill="white" stroke="none" points="1046,-116.75 868,-116.75 868,-75 1046,-75 1046,-116.75"/>
<text xml:space="preserve" text-anchor="start" x="876" y="-102.3" font-family="Consolas" font-size="11.00">anonymous_namespace</text>
<text xml:space="preserve" text-anchor="start" x="876" y="-91.05" font-family="Consolas" font-size="11.00">{Log::cpp}::safe::win32Last</text>
<text xml:space="preserve" text-anchor="middle" x="957" y="-79.8" font-family="Consolas" font-size="11.00">Error</text>
</a>
</g>
</g>
<!-- Node1&#45;&gt;Node13 -->
<g id="edge26_Node000001_Node000013" class="edge">
<title>Node1&#45;&gt;Node13</title>
<g id="a_edge26_Node000001_Node000013"><a xlink:title=" ">
<path fill="none" stroke="#63b8ff" d="M1164.75,-121.54C1127.53,-116.92 1083.63,-111.47 1045.88,-106.78"/>
<polygon fill="#63b8ff" stroke="#63b8ff" points="1169.46,-122.12 1164.22,-123.74 1168.19,-121.97 1164.5,-121.51 1164.5,-121.51 1164.5,-121.51 1168.19,-121.97 1164.77,-119.28 1169.46,-122.12"/>
</a>
</g>
</g>
<!-- Node2&#45;&gt;Node2 -->
<g id="edge2_Node000002_Node000002" class="edge">
<title>Node2&#45;&gt;Node2</title>
<g id="a_edge2_Node000002_Node000002"><a xlink:title=" ">
<path fill="none" stroke="#63b8ff" d="M1002.15,-263.06C1003.03,-270.27 987.98,-276.12 957,-276.12 918.87,-276.12 904.87,-267.25 915,-257.92"/>
<polygon fill="#63b8ff" stroke="#63b8ff" points="999.64,-258.96 1004.17,-262.05 1000.31,-260.05 1002.25,-263.22 1002.25,-263.22 1002.25,-263.22 1000.31,-260.05 1000.33,-264.4 999.64,-258.96"/>
</a>
</g>
</g>
<!-- Node3 -->
<g id="Node000003" class="node">
<title>Node3</title>
<g id="a_Node000003"><a xlink:href="../../dd/df2/namespaceanonymous__namespace_02_log_8cpp_03_1_1safe.html#a110b11e90b5bb8ae5c8a1521e33eec21" target="_top" xlink:title=" ">
<polygon fill="white" stroke="none" points="814,-485.75 618,-485.75 618,-444 814,-444 814,-485.75"/>
<text xml:space="preserve" text-anchor="start" x="626" y="-471.3" font-family="Consolas" font-size="11.00">anonymous_namespace</text>
<text xml:space="preserve" text-anchor="start" x="626" y="-460.05" font-family="Consolas" font-size="11.00">{Log::cpp}::safe::invalidParam</text>
<text xml:space="preserve" text-anchor="middle" x="716" y="-448.8" font-family="Consolas" font-size="11.00">Handler</text>
</a>
</g>
</g>
<!-- Node2&#45;&gt;Node3 -->
<g id="edge3_Node000002_Node000003" class="edge">
<title>Node2&#45;&gt;Node3</title>
<g id="a_edge3_Node000002_Node000003"><a xlink:title=" ">
<path fill="none" stroke="#63b8ff" d="M947.85,-263.51C931.17,-303.03 889.3,-389.49 826,-434.88 821.21,-438.31 816.05,-441.35 810.67,-444.04"/>
<polygon fill="#63b8ff" stroke="#63b8ff" points="949.66,-259.16 949.82,-264.64 949.17,-260.34 947.74,-263.77 947.74,-263.77 947.74,-263.77 949.17,-260.34 945.67,-262.91 949.66,-259.16"/>
</a>
</g>
</g>
<!-- Node6 -->
<g id="Node000006" class="node">
<title>Node6</title>
<g id="a_Node000006"><a xlink:href="../../dd/df2/namespaceanonymous__namespace_02_log_8cpp_03_1_1safe.html#a460f691136cced36ea40b2595c18d0a8" target="_top" xlink:title=" ">
<polygon fill="white" stroke="none" points="808,-108.12 624,-108.12 624,-77.62 808,-77.62 808,-108.12"/>
<text xml:space="preserve" text-anchor="start" x="632" y="-93.67" font-family="Consolas" font-size="11.00">anonymous_namespace</text>
<text xml:space="preserve" text-anchor="middle" x="716" y="-82.42" font-family="Consolas" font-size="11.00">{Log::cpp}::safe::msgHandler</text>
</a>
</g>
</g>
<!-- Node2&#45;&gt;Node6 -->
<g id="edge8_Node000002_Node000006" class="edge">
<title>Node2&#45;&gt;Node6</title>
<g id="a_edge8_Node000002_Node000006"><a xlink:title=" ">
<path fill="none" stroke="#63b8ff" d="M936.98,-223.6C912.91,-200.08 869.36,-160.31 826,-134.88 807.46,-124 785.58,-114.93 766.31,-108.03"/>
<polygon fill="#63b8ff" stroke="#63b8ff" points="940.37,-226.94 935.23,-225.03 939.46,-226.04 936.81,-223.43 936.81,-223.43 936.81,-223.43 939.46,-226.04 938.39,-221.83 940.37,-226.94"/>
</a>
</g>
</g>
<!-- Node9 -->
<g id="Node000009" class="node">
<title>Node9</title>
<g id="a_Node000009"><a xlink:href="../../dd/df2/namespaceanonymous__namespace_02_log_8cpp_03_1_1safe.html#a2ccdd616a9266b8ac0b03f18feb92c0a" target="_top" xlink:title=" ">
<polygon fill="white" stroke="none" points="802,-407.75 630,-407.75 630,-366 802,-366 802,-407.75"/>
<text xml:space="preserve" text-anchor="start" x="638" y="-393.3" font-family="Consolas" font-size="11.00">anonymous_namespace</text>
<text xml:space="preserve" text-anchor="start" x="638" y="-382.05" font-family="Consolas" font-size="11.00">{Log::cpp}::safe::pureCall</text>
<text xml:space="preserve" text-anchor="middle" x="716" y="-370.8" font-family="Consolas" font-size="11.00">Handler</text>
</a>
</g>
</g>
<!-- Node2&#45;&gt;Node9 -->
<g id="edge13_Node000002_Node000009" class="edge">
<title>Node2&#45;&gt;Node9</title>
<g id="a_edge13_Node000002_Node000009"><a xlink:title=" ">
<path fill="none" stroke="#63b8ff" d="M939.12,-262.36C916.06,-287.78 872.27,-331.94 826,-356.88 818.4,-360.97 810.19,-364.55 801.81,-367.66"/>
<polygon fill="#63b8ff" stroke="#63b8ff" points="942.37,-258.75 940.7,-263.97 941.51,-259.7 939.03,-262.47 939.03,-262.47 939.03,-262.47 941.51,-259.7 937.35,-260.97 942.37,-258.75"/>
</a>
</g>
</g>
<!-- Node10 -->
<g id="Node000010" class="node">
<title>Node10</title>
<g id="a_Node000010"><a xlink:href="../../dd/df2/namespaceanonymous__namespace_02_log_8cpp_03_1_1safe.html#a05dd8955535418321e297dbbc885a56d" target="_top" xlink:title=" ">
<polygon fill="white" stroke="none" points="817,-330.12 615,-330.12 615,-299.62 817,-299.62 817,-330.12"/>
<text xml:space="preserve" text-anchor="start" x="623" y="-315.68" font-family="Consolas" font-size="11.00">anonymous_namespace</text>
<text xml:space="preserve" text-anchor="middle" x="716" y="-304.43" font-family="Consolas" font-size="11.00">{Log::cpp}::safe::signalHandler</text>
</a>
</g>
</g>
<!-- Node2&#45;&gt;Node10 -->
<g id="edge16_Node000002_Node000010" class="edge">
<title>Node2&#45;&gt;Node10</title>
<g id="a_edge16_Node000002_Node000010"><a xlink:title=" ">
<path fill="none" stroke="#63b8ff" d="M913.34,-260.31C888.2,-270.15 855.62,-282.19 826,-290.88 815.22,-294.04 803.72,-297 792.4,-299.69"/>
<polygon fill="#63b8ff" stroke="#63b8ff" points="917.78,-258.56 913.95,-262.49 916.58,-259.03 913.12,-260.39 913.12,-260.39 913.12,-260.39 916.58,-259.03 912.3,-258.3 917.78,-258.56"/>
</a>
</g>
</g>
<!-- Node11 -->
<g id="Node000011" class="node">
<title>Node11</title>
<g id="a_Node000011"><a xlink:href="../../dd/df2/namespaceanonymous__namespace_02_log_8cpp_03_1_1safe.html#ad3395aac6f72b3cacf47edce1bffd16d" target="_top" xlink:title=" ">
<polygon fill="white" stroke="none" points="805,-263.75 627,-263.75 627,-222 805,-222 805,-263.75"/>
<text xml:space="preserve" text-anchor="start" x="635" y="-249.3" font-family="Consolas" font-size="11.00">anonymous_namespace</text>
<text xml:space="preserve" text-anchor="start" x="635" y="-238.05" font-family="Consolas" font-size="11.00">{Log::cpp}::safe::terminate</text>
<text xml:space="preserve" text-anchor="middle" x="716" y="-226.8" font-family="Consolas" font-size="11.00">Handler</text>
</a>
</g>
</g>
<!-- Node2&#45;&gt;Node11 -->
<g id="edge19_Node000002_Node000011" class="edge">
<title>Node2&#45;&gt;Node11</title>
<g id="a_edge19_Node000002_Node000011"><a xlink:title=" ">
<path fill="none" stroke="#63b8ff" d="M856.42,-242.88C839.24,-242.88 821.49,-242.88 804.65,-242.88"/>
<polygon fill="#63b8ff" stroke="#63b8ff" points="861.01,-242.88 856.01,-245.13 859.73,-242.88 856.01,-242.88 856.01,-242.88 856.01,-242.88 859.73,-242.88 856.01,-240.63 861.01,-242.88"/>
</a>
</g>
</g>
<!-- Node12 -->
<g id="Node000012" class="node">
<title>Node12</title>
<g id="a_Node000012"><a xlink:href="../../dd/df2/namespaceanonymous__namespace_02_log_8cpp_03_1_1safe.html#a2fc634cd009955d042c53cb5f5eebcb5" target="_top" xlink:title=" ">
<polygon fill="white" stroke="none" points="826,-185.75 606,-185.75 606,-144 826,-144 826,-185.75"/>
<text xml:space="preserve" text-anchor="start" x="614" y="-171.3" font-family="Consolas" font-size="11.00">anonymous_namespace</text>
<text xml:space="preserve" text-anchor="start" x="614" y="-160.05" font-family="Consolas" font-size="11.00">{Log::cpp}::safe::windowsException</text>
<text xml:space="preserve" text-anchor="middle" x="716" y="-148.8" font-family="Consolas" font-size="11.00">Filter</text>
</a>
</g>
</g>
<!-- Node2&#45;&gt;Node12 -->
<g id="edge22_Node000002_Node000012" class="edge">
<title>Node2&#45;&gt;Node12</title>
<g id="a_edge22_Node000002_Node000012"><a xlink:title=" ">
<path fill="none" stroke="#63b8ff" d="M903.65,-225.79C867.47,-213.98 819.13,-198.21 780.71,-185.67"/>
<polygon fill="#63b8ff" stroke="#63b8ff" points="908.19,-227.27 902.74,-227.86 906.97,-226.87 903.44,-225.72 903.44,-225.72 903.44,-225.72 906.97,-226.87 904.14,-223.58 908.19,-227.27"/>
</a>
</g>
</g>
<!-- Node3&#45;&gt;Node3 -->
<g id="edge7_Node000003_Node000003" class="edge">
<title>Node3&#45;&gt;Node3</title>
<g id="a_edge7_Node000003_Node000003"><a xlink:title=" ">
<path fill="none" stroke="#63b8ff" d="M760.65,-491.75C757.73,-498.61 742.84,-503.75 716,-503.75 681.64,-503.75 666.87,-495.32 671.71,-485.67"/>
<polygon fill="#63b8ff" stroke="#63b8ff" points="760.37,-486.89 762.91,-491.75 760.44,-488.17 760.66,-491.88 760.66,-491.88 760.66,-491.88 760.44,-488.17 758.41,-492.01 760.37,-486.89"/>
</a>
</g>
</g>
<!-- Node4 -->
<g id="Node000004" class="node">
<title>Node4</title>
<g id="a_Node000004"><a xlink:href="../../dd/df2/namespaceanonymous__namespace_02_log_8cpp_03_1_1safe.html#a5383dc98204ed88af64a0de8fb17de7f" target="_top" xlink:title=" ">
<polygon fill="white" stroke="none" points="570,-299.75 374,-299.75 374,-258 570,-258 570,-299.75"/>
<text xml:space="preserve" text-anchor="start" x="382" y="-285.3" font-family="Consolas" font-size="11.00">anonymous_namespace</text>
<text xml:space="preserve" text-anchor="start" x="382" y="-274.05" font-family="Consolas" font-size="11.00">{Log::cpp}::safe::installCrash</text>
<text xml:space="preserve" text-anchor="middle" x="472" y="-262.8" font-family="Consolas" font-size="11.00">Handlers</text>
</a>
</g>
</g>
<!-- Node3&#45;&gt;Node4 -->
<g id="edge4_Node000003_Node000004" class="edge">
<title>Node3&#45;&gt;Node4</title>
<g id="a_edge4_Node000003_Node000004"><a xlink:title=" ">
<path fill="none" stroke="#63b8ff" d="M617.59,-441.4C613.58,-439.4 609.7,-437.23 606,-434.88 550.15,-399.34 505.25,-333.09 484.87,-299.52"/>
<polygon fill="#63b8ff" stroke="#63b8ff" points="622.03,-443.51 616.55,-443.4 620.87,-442.96 617.51,-441.37 617.51,-441.37 617.51,-441.37 620.87,-442.96 618.48,-439.33 622.03,-443.51"/>
</a>
</g>
</g>
<!-- Node4&#45;&gt;Node4 -->
<g id="edge6_Node000004_Node000004" class="edge">
<title>Node4&#45;&gt;Node4</title>
<g id="a_edge6_Node000004_Node000004"><a xlink:title=" ">
<path fill="none" stroke="#63b8ff" d="M510.54,-305.75C508.01,-312.61 495.17,-317.75 472,-317.75 442.34,-317.75 429.6,-309.32 433.77,-299.67"/>
<polygon fill="#63b8ff" stroke="#63b8ff" points="510.29,-300.89 512.79,-305.77 510.36,-302.17 510.54,-305.88 510.54,-305.88 510.54,-305.88 510.36,-302.17 508.3,-306 510.29,-300.89"/>
</a>
</g>
</g>
<!-- Node5 -->
<g id="Node000005" class="node">
<title>Node5</title>
<g id="a_Node000005"><a xlink:href="../../dc/d8e/namespaceanonymous__namespace_02_log_8cpp_03.html#a7a82c11accb191c2f06849f6d13db39a" target="_top" xlink:title=" ">
<polygon fill="white" stroke="none" points="154,-196.12 0,-196.12 0,-165.62 154,-165.62 154,-196.12"/>
<text xml:space="preserve" text-anchor="start" x="8" y="-181.68" font-family="Consolas" font-size="11.00">anonymous_namespace</text>
<text xml:space="preserve" text-anchor="middle" x="77" y="-170.43" font-family="Consolas" font-size="11.00">{Log::cpp}::initLogging</text>
</a>
</g>
</g>
<!-- Node4&#45;&gt;Node5 -->
<g id="edge5_Node000004_Node000005" class="edge">
<title>Node4&#45;&gt;Node5</title>
<g id="a_edge5_Node000004_Node000005"><a xlink:title=" ">
<path fill="none" stroke="#63b8ff" d="M381.92,-256.66C307.76,-238.17 204.14,-212.33 139.08,-196.11"/>
<polygon fill="#63b8ff" stroke="#63b8ff" points="386.47,-257.8 381.08,-258.77 385.23,-257.49 381.62,-256.59 381.62,-256.59 381.62,-256.59 385.23,-257.49 382.17,-254.4 386.47,-257.8"/>
</a>
</g>
</g>
<!-- Node6&#45;&gt;Node6 -->
<g id="edge9_Node000006_Node000006" class="edge">
<title>Node6&#45;&gt;Node6</title>
<g id="a_edge9_Node000006_Node000006"><a xlink:title=" ">
<path fill="none" stroke="#63b8ff" d="M761.15,-113.06C762.03,-120.27 746.98,-126.12 716,-126.12 677.87,-126.12 663.87,-117.25 674,-107.92"/>
<polygon fill="#63b8ff" stroke="#63b8ff" points="758.64,-108.96 763.17,-112.05 759.31,-110.05 761.25,-113.22 761.25,-113.22 761.25,-113.22 759.31,-110.05 759.33,-114.4 758.64,-108.96"/>
</a>
</g>
</g>
<!-- Node7 -->
<g id="Node000007" class="node">
<title>Node7</title>
<g id="a_Node000007"><a xlink:href="../../d0/d61/classanonymous__namespace_02_log_8cpp_03_1_1_log_core.html#ac83f155438d4a0447ac048d50c7b1a47" target="_top" xlink:title=" ">
<polygon fill="white" stroke="none" points="537,-126.75 407,-126.75 407,-85 537,-85 537,-126.75"/>
<text xml:space="preserve" text-anchor="start" x="415" y="-112.3" font-family="Consolas" font-size="11.00">anonymous_namespace</text>
<text xml:space="preserve" text-anchor="start" x="415" y="-101.05" font-family="Consolas" font-size="11.00">{Log::cpp}::LogCore</text>
<text xml:space="preserve" text-anchor="middle" x="472" y="-89.8" font-family="Consolas" font-size="11.00">::msgHandler_</text>
</a>
</g>
</g>
<!-- Node6&#45;&gt;Node7 -->
<g id="edge10_Node000006_Node000007" class="edge">
<title>Node6&#45;&gt;Node7</title>
<g id="a_edge10_Node000006_Node000007"><a xlink:title=" ">
<path fill="none" stroke="#63b8ff" d="M618.03,-98.08C590.68,-99.55 561.62,-101.11 536.76,-102.45"/>
<polygon fill="#63b8ff" stroke="#63b8ff" points="622.98,-97.82 618.11,-100.33 621.7,-97.89 617.99,-98.09 617.99,-98.09 617.99,-98.09 621.7,-97.89 617.87,-95.84 622.98,-97.82"/>
</a>
</g>
</g>
<!-- Node8 -->
<g id="Node000008" class="node">
<title>Node8</title>
<g id="a_Node000008"><a xlink:href="../../dc/d8e/namespaceanonymous__namespace_02_log_8cpp_03.html#a0c2edb98e44610adcc75724bbf4edfb8" target="_top" xlink:title=" ">
<polygon fill="white" stroke="none" points="338,-148.12 190,-148.12 190,-117.62 338,-117.62 338,-148.12"/>
<text xml:space="preserve" text-anchor="start" x="198" y="-133.68" font-family="Consolas" font-size="11.00">anonymous_namespace</text>
<text xml:space="preserve" text-anchor="middle" x="264" y="-122.42" font-family="Consolas" font-size="11.00">{Log::cpp}::msgHandler</text>
</a>
</g>
</g>
<!-- Node7&#45;&gt;Node8 -->
<g id="edge11_Node000007_Node000008" class="edge">
<title>Node7&#45;&gt;Node8</title>
<g id="a_edge11_Node000007_Node000008"><a xlink:title=" ">
<path fill="none" stroke="#63b8ff" d="M401.24,-115.02C380.82,-117.7 358.44,-120.63 337.83,-123.33"/>
<polygon fill="#63b8ff" stroke="#63b8ff" points="406.02,-114.39 401.36,-117.27 404.75,-114.56 401.07,-115.04 401.07,-115.04 401.07,-115.04 404.75,-114.56 400.77,-112.81 406.02,-114.39"/>
</a>
</g>
</g>
<!-- Node8&#45;&gt;Node5 -->
<g id="edge12_Node000008_Node000005" class="edge">
<title>Node8&#45;&gt;Node5</title>
<g id="a_edge12_Node000008_Node000005"><a xlink:title=" ">
<path fill="none" stroke="#63b8ff" d="M198.55,-149.6C178.37,-154.83 156.22,-160.58 136.47,-165.7"/>
<polygon fill="#63b8ff" stroke="#63b8ff" points="203.29,-148.37 199.01,-151.8 202.04,-148.69 198.45,-149.62 198.45,-149.62 198.45,-149.62 202.04,-148.69 197.88,-147.45 203.29,-148.37"/>
</a>
</g>
</g>
<!-- Node9&#45;&gt;Node4 -->
<g id="edge14_Node000009_Node000004" class="edge">
<title>Node9&#45;&gt;Node4</title>
<g id="a_edge14_Node000009_Node000004"><a xlink:title=" ">
<path fill="none" stroke="#63b8ff" d="M625.12,-364.17C618.58,-361.9 612.14,-359.47 606,-356.88 568.89,-341.21 529.44,-317 503.24,-299.71"/>
<polygon fill="#63b8ff" stroke="#63b8ff" points="629.48,-365.65 624.02,-366.18 628.26,-365.24 624.74,-364.05 624.74,-364.05 624.74,-364.05 628.26,-365.24 625.46,-361.92 629.48,-365.65"/>
</a>
</g>
</g>
<!-- Node9&#45;&gt;Node9 -->
<g id="edge15_Node000009_Node000009" class="edge">
<title>Node9&#45;&gt;Node9</title>
<g id="a_edge15_Node000009_Node000009"><a xlink:title=" ">
<path fill="none" stroke="#63b8ff" d="M760.65,-413.75C757.73,-420.61 742.84,-425.75 716,-425.75 681.64,-425.75 666.87,-417.32 671.71,-407.67"/>
<polygon fill="#63b8ff" stroke="#63b8ff" points="760.37,-408.89 762.91,-413.75 760.44,-410.17 760.66,-413.88 760.66,-413.88 760.66,-413.88 760.44,-410.17 758.41,-414.01 760.37,-408.89"/>
</a>
</g>
</g>
<!-- Node10&#45;&gt;Node4 -->
<g id="edge17_Node000010_Node000004" class="edge">
<title>Node10&#45;&gt;Node4</title>
<g id="a_edge17_Node000010_Node000004"><a xlink:title=" ">
<path fill="none" stroke="#63b8ff" d="M609.19,-299.13C596.11,-297.19 582.8,-295.21 569.87,-293.29"/>
<polygon fill="#63b8ff" stroke="#63b8ff" points="613.97,-299.85 608.69,-301.34 612.7,-299.66 609.02,-299.11 609.02,-299.11 609.02,-299.11 612.7,-299.66 609.35,-296.88 613.97,-299.85"/>
</a>
</g>
</g>
<!-- Node10&#45;&gt;Node10 -->
<g id="edge18_Node000010_Node000010" class="edge">
<title>Node10&#45;&gt;Node10</title>
<g id="a_edge18_Node000010_Node000010"><a xlink:title=" ">
<path fill="none" stroke="#63b8ff" d="M761.15,-335.06C762.03,-342.27 746.98,-348.12 716,-348.12 677.87,-348.12 663.87,-339.25 674,-329.92"/>
<polygon fill="#63b8ff" stroke="#63b8ff" points="758.64,-330.96 763.17,-334.05 759.31,-332.05 761.25,-335.22 761.25,-335.22 761.25,-335.22 759.31,-332.05 759.33,-336.4 758.64,-330.96"/>
</a>
</g>
</g>
<!-- Node11&#45;&gt;Node4 -->
<g id="edge20_Node000011_Node000004" class="edge">
<title>Node11&#45;&gt;Node4</title>
<g id="a_edge20_Node000011_Node000004"><a xlink:title=" ">
<path fill="none" stroke="#63b8ff" d="M621.57,-256.77C604.61,-259.3 586.88,-261.93 569.83,-264.47"/>
<polygon fill="#63b8ff" stroke="#63b8ff" points="626.09,-256.1 621.47,-259.06 624.82,-256.29 621.14,-256.84 621.14,-256.84 621.14,-256.84 624.82,-256.29 620.81,-254.61 626.09,-256.1"/>
</a>
</g>
</g>
<!-- Node11&#45;&gt;Node11 -->
<g id="edge21_Node000011_Node000011" class="edge">
<title>Node11&#45;&gt;Node11</title>
<g id="a_edge21_Node000011_Node000011"><a xlink:title=" ">
<path fill="none" stroke="#63b8ff" d="M760.65,-269.75C757.73,-276.61 742.84,-281.75 716,-281.75 681.64,-281.75 666.87,-273.32 671.71,-263.67"/>
<polygon fill="#63b8ff" stroke="#63b8ff" points="760.37,-264.89 762.91,-269.75 760.44,-266.17 760.66,-269.88 760.66,-269.88 760.66,-269.88 760.44,-266.17 758.41,-270.01 760.37,-264.89"/>
</a>
</g>
</g>
<!-- Node12&#45;&gt;Node4 -->
<g id="edge23_Node000012_Node000004" class="edge">
<title>Node12&#45;&gt;Node4</title>
<g id="a_edge23_Node000012_Node000004"><a xlink:title=" ">
<path fill="none" stroke="#63b8ff" d="M661.09,-188.03C643.45,-195.76 623.82,-204.53 606,-212.88 574.83,-227.46 540,-244.78 513.81,-258.02"/>
<polygon fill="#63b8ff" stroke="#63b8ff" points="665.38,-186.16 661.7,-190.22 664.2,-186.67 660.8,-188.16 660.8,-188.16 660.8,-188.16 664.2,-186.67 659.89,-186.1 665.38,-186.16"/>
</a>
</g>
</g>
<!-- Node12&#45;&gt;Node12 -->
<g id="edge24_Node000012_Node000012" class="edge">
<title>Node12&#45;&gt;Node12</title>
<g id="a_edge24_Node000012_Node000012"><a xlink:title=" ">
<path fill="none" stroke="#63b8ff" d="M760.65,-191.75C757.73,-198.61 742.84,-203.75 716,-203.75 681.64,-203.75 666.87,-195.32 671.71,-185.67"/>
<polygon fill="#63b8ff" stroke="#63b8ff" points="760.37,-186.89 762.91,-191.75 760.44,-188.17 760.66,-191.88 760.66,-191.88 760.66,-191.88 760.44,-188.17 758.41,-192.01 760.37,-186.89"/>
</a>
</g>
</g>
<!-- Node13&#45;&gt;Node13 -->
<g id="edge31_Node000013_Node000013" class="edge">
<title>Node13&#45;&gt;Node13</title>
<g id="a_edge31_Node000013_Node000013"><a xlink:title=" ">
<path fill="none" stroke="#63b8ff" d="M1001.65,-122.75C998.73,-129.61 983.84,-134.75 957,-134.75 922.64,-134.75 907.87,-126.32 912.71,-116.67"/>
<polygon fill="#63b8ff" stroke="#63b8ff" points="1001.37,-117.89 1003.91,-122.75 1001.44,-119.17 1001.66,-122.88 1001.66,-122.88 1001.66,-122.88 1001.44,-119.17 999.41,-123.01 1001.37,-117.89"/>
</a>
</g>
</g>
<!-- Node14 -->
<g id="Node000014" class="node">
<title>Node14</title>
<g id="a_Node000014"><a xlink:href="../../dd/df2/namespaceanonymous__namespace_02_log_8cpp_03_1_1safe.html#a79b9de042466028e5c2c32bdf0635cb5" target="_top" xlink:title=" ">
<polygon fill="white" stroke="none" points="802,-41.75 630,-41.75 630,0 802,0 802,-41.75"/>
<text xml:space="preserve" text-anchor="start" x="638" y="-27.3" font-family="Consolas" font-size="11.00">anonymous_namespace</text>
<text xml:space="preserve" text-anchor="start" x="638" y="-16.05" font-family="Consolas" font-size="11.00">{Log::cpp}::safe::startImp</text>
<text xml:space="preserve" text-anchor="middle" x="716" y="-4.8" font-family="Consolas" font-size="11.00">LogProcess</text>
</a>
</g>
</g>
<!-- Node13&#45;&gt;Node14 -->
<g id="edge27_Node000013_Node000014" class="edge">
<title>Node13&#45;&gt;Node14</title>
<g id="a_edge27_Node000013_Node000014"><a xlink:title=" ">
<path fill="none" stroke="#63b8ff" d="M883.85,-73.23C851.92,-63.21 814.62,-51.51 783.39,-41.71"/>
<polygon fill="#63b8ff" stroke="#63b8ff" points="888.58,-74.72 883.14,-75.37 887.36,-74.33 883.81,-73.22 883.81,-73.22 883.81,-73.22 887.36,-74.33 884.48,-71.07 888.58,-74.72"/>
</a>
</g>
</g>
<!-- Node14&#45;&gt;Node14 -->
<g id="edge28_Node000014_Node000014" class="edge">
<title>Node14&#45;&gt;Node14</title>
<g id="a_edge28_Node000014_Node000014"><a xlink:title=" ">
<path fill="none" stroke="#63b8ff" d="M760.65,-47.75C757.73,-54.61 742.84,-59.75 716,-59.75 681.64,-59.75 666.87,-51.32 671.71,-41.67"/>
<polygon fill="#63b8ff" stroke="#63b8ff" points="760.37,-42.89 762.91,-47.75 760.44,-44.17 760.66,-47.88 760.66,-47.88 760.66,-47.88 760.44,-44.17 758.41,-48.01 760.37,-42.89"/>
</a>
</g>
</g>
<!-- Node15 -->
<g id="Node000015" class="node">
<title>Node15</title>
<g id="a_Node000015"><a xlink:href="../../d0/d61/classanonymous__namespace_02_log_8cpp_03_1_1_log_core.html#a78f2c370e9ec632af877fe1dd49ef478" target="_top" xlink:title=" ">
<polygon fill="white" stroke="none" points="543,-41.75 401,-41.75 401,0 543,0 543,-41.75"/>
<text xml:space="preserve" text-anchor="start" x="409" y="-27.3" font-family="Consolas" font-size="11.00">anonymous_namespace</text>
<text xml:space="preserve" text-anchor="start" x="409" y="-16.05" font-family="Consolas" font-size="11.00">{Log::cpp}::LogCore</text>
<text xml:space="preserve" text-anchor="middle" x="472" y="-4.8" font-family="Consolas" font-size="11.00">::startImpLogProcess_</text>
</a>
</g>
</g>
<!-- Node14&#45;&gt;Node15 -->
<g id="edge29_Node000014_Node000015" class="edge">
<title>Node14&#45;&gt;Node15</title>
<g id="a_edge29_Node000014_Node000015"><a xlink:title=" ">
<path fill="none" stroke="#63b8ff" d="M623.98,-20.88C597.16,-20.88 568.25,-20.88 542.98,-20.88"/>
<polygon fill="#63b8ff" stroke="#63b8ff" points="628.8,-20.88 623.8,-23.13 627.52,-20.88 623.8,-20.88 623.8,-20.88 623.8,-20.88 627.52,-20.88 623.8,-18.63 628.8,-20.88"/>
</a>
</g>
</g>
<!-- Node16 -->
<g id="Node000016" class="node">
<title>Node16</title>
<g id="a_Node000016"><a xlink:href="../../d0/d61/classanonymous__namespace_02_log_8cpp_03_1_1_log_core.html#ac81e3393bfb7545e17c9fd8ea4cb4aa6" target="_top" xlink:title=" ">
<polygon fill="white" stroke="none" points="329,-41.75 199,-41.75 199,0 329,0 329,-41.75"/>
<text xml:space="preserve" text-anchor="start" x="207" y="-27.3" font-family="Consolas" font-size="11.00">anonymous_namespace</text>
<text xml:space="preserve" text-anchor="start" x="207" y="-16.05" font-family="Consolas" font-size="11.00">{Log::cpp}::LogCore</text>
<text xml:space="preserve" text-anchor="middle" x="264" y="-4.8" font-family="Consolas" font-size="11.00">::LogCore</text>
</a>
</g>
</g>
<!-- Node15&#45;&gt;Node16 -->
<g id="edge30_Node000015_Node000016" class="edge">
<title>Node15&#45;&gt;Node16</title>
<g id="a_edge30_Node000015_Node000016"><a xlink:title=" ">
<path fill="none" stroke="#63b8ff" d="M395.16,-20.88C373.34,-20.88 349.78,-20.88 328.78,-20.88"/>
<polygon fill="#63b8ff" stroke="#63b8ff" points="400.04,-20.88 395.04,-23.13 398.76,-20.88 395.04,-20.88 395.04,-20.88 395.04,-20.88 398.76,-20.88 395.04,-18.63 400.04,-20.88"/>
</a>
</g>
</g>
</g>
</svg>

<g id="navigator" transform="translate(0 0)" fill="#404254">
  <rect fill="#f2f5e9" fill-opacity="0.5" stroke="#606060" stroke-width=".5" x="0" y="0" width="60" height="60"/>
  <use id="zoomplus" xlink:href="#zoomPlus" x="17" y="9" onmousedown="handleZoom(evt,'in')"/>
  <use id="zoomminus" xlink:href="#zoomMin" x="42" y="9" onmousedown="handleZoom(evt,'out')"/>
  <use id="reset" xlink:href="#resetDef" x="30" y="36" onmousedown="handleReset()"/>
   <use id="arrowup" xlink:href="#arrowUp" x="0" y="0" onmousedown="handlePan(0,-1)"/>
  <use id="arrowright" xlink:href="#arrowRight" x="0" y="0" onmousedown="handlePan(1,0)"/>
  <use id="arrowdown" xlink:href="#arrowDown" x="0" y="0" onmousedown="handlePan(0,1)"/>
  <use id="arrowleft" xlink:href="#arrowLeft" x="0" y="0" onmousedown="handlePan(-1,0)"/>
</g>
<svg viewBox="0 0 15 15" width="100%" height="30px" preserveAspectRatio="xMaxYMin meet">
 <g id="arrow_out" transform="scale(0.3 0.3)">
  <a xlink:href="namespaceanonymous__namespace_02_log_8cpp_03_1_1safe_abc25ab769b48a34eb27ff7c789822b7e_icgraph_org.svg" target="_base">
   <rect id="button" ry="5" rx="5" y="6" x="6" height="38" width="38"
        fill="#f2f5e9" fill-opacity="0.5" stroke="#606060" stroke-width="1.0"/>
   <path id="arrow"
     d="M 11.500037,31.436501 C 11.940474,20.09759 22.043105,11.32322 32.158766,21.979434 L 37.068811,17.246167 C 37.068811,17.246167 37.088388,32 37.088388,32 L 22.160133,31.978069 C 22.160133,31.978069 26.997745,27.140456 26.997745,27.140456 C 18.528582,18.264221 13.291696,25.230495 11.500037,31.436501 z"
     style="fill:#404040;"/>
  </a>
 </g>
</svg>

<style type='text/css'>
<![CDATA[
[data-mouse-over-selected='false'] { opacity: 0.7; }
[data-mouse-over-selected='true']  { opacity: 1.0; }
]]>
</style>
<script type="application/ecmascript"><![CDATA[
document.addEventListener('DOMContentLoaded', (event) => {
  highlightEdges();
  highlightAdjacentNodes();
});
]]></script>
</svg>
