<?xml version="1.0" encoding="UTF-8" standalone="no"?>
<!DOCTYPE svg PUBLIC "-//W3C//DTD SVG 1.1//EN"
 "http://www.w3.org/Graphics/SVG/1.1/DTD/svg11.dtd">
<!-- Generated by graphviz version 14.0.0 (20250921.2048)
 -->
<!-- Title: anonymous_namespace{Log::cpp}::safe::isSpaceChar Pages: 1 -->
<svg width="1632pt" height="587pt"
 viewBox="0.00 0.00 1632.00 587.00" xmlns="http://www.w3.org/2000/svg" xmlns:xlink="http://www.w3.org/1999/xlink">
<g id="graph0" class="graph" transform="scale(1 1) rotate(0) translate(4 583.12)">
<title>anonymous_namespace{Log::cpp}::safe::isSpaceChar</title>
<!-- Node1 -->
<g id="Node000001" class="node">
<title>Node1</title>
<g id="a_Node000001"><a xlink:title=" ">
<polygon fill="#999999" stroke="none" points="1624,-414.5 1320,-414.5 1320,-395.25 1624,-395.25 1624,-414.5"/>
<text xml:space="preserve" text-anchor="start" x="1328" y="-401.05" font-family="Consolas" font-weight="bold" font-size="11.00">anonymous_namespace{Log::cpp}::safe::isSpaceChar</text>
</a>
</g>
</g>
<!-- Node1&#45;&gt;Node1 -->
<g id="edge42_Node000001_Node000001" class="edge">
<title>Node1&#45;&gt;Node1</title>
<g id="a_edge42_Node000001_Node000001"><a xlink:title=" ">
<path fill="none" stroke="#63b8ff" d="M1519.73,-417.03C1532.39,-424.9 1516.48,-432.5 1472,-432.5 1422.5,-432.5 1408.38,-423.09 1429.65,-414.36"/>
<polygon fill="#63b8ff" stroke="#63b8ff" points="1515.44,-414.9 1520.92,-415.1 1516.59,-415.47 1519.92,-417.12 1519.92,-417.12 1519.92,-417.12 1516.59,-415.47 1518.92,-419.14 1515.44,-414.9"/>
</a>
</g>
</g>
<!-- Node2 -->
<g id="Node000002" class="node">
<title>Node2</title>
<g id="a_Node000002"><a xlink:href="../../dd/df2/namespaceanonymous__namespace_02_log_8cpp_03_1_1safe.html#a65353ac3c8d675a9a827bed9e11acc17" target="_top" xlink:title=" ">
<polygon fill="white" stroke="none" points="1284,-390.12 1106,-390.12 1106,-359.62 1284,-359.62 1284,-390.12"/>
<text xml:space="preserve" text-anchor="start" x="1114" y="-375.68" font-family="Consolas" font-size="11.00">anonymous_namespace</text>
<text xml:space="preserve" text-anchor="middle" x="1195" y="-364.43" font-family="Consolas" font-size="11.00">{Log::cpp}::safe::appendChr</text>
</a>
</g>
</g>
<!-- Node1&#45;&gt;Node2 -->
<g id="edge1_Node000001_Node000002" class="edge">
<title>Node1&#45;&gt;Node2</title>
<g id="a_edge1_Node000001_Node000002"><a xlink:title=" ">
<path fill="none" stroke="#63b8ff" d="M1376.86,-394.6C1346.66,-391.31 1313.36,-387.68 1283.65,-384.44"/>
<polygon fill="#63b8ff" stroke="#63b8ff" points="1381.64,-395.13 1376.43,-396.82 1380.37,-394.99 1376.67,-394.58 1376.67,-394.58 1376.67,-394.58 1380.37,-394.99 1376.92,-392.35 1381.64,-395.13"/>
</a>
</g>
</g>
<!-- Node9 -->
<g id="Node000009" class="node">
<title>Node9</title>
<g id="a_Node000009"><a xlink:href="../../dd/df2/namespaceanonymous__namespace_02_log_8cpp_03_1_1safe.html#a0007f4a1265f5b0c790d25e74cd93713" target="_top" xlink:title=" ">
<polygon fill="white" stroke="none" points="1070,-561.12 862,-561.12 862,-530.62 1070,-530.62 1070,-561.12"/>
<text xml:space="preserve" text-anchor="start" x="870" y="-546.67" font-family="Consolas" font-size="11.00">anonymous_namespace</text>
<text xml:space="preserve" text-anchor="middle" x="966" y="-535.42" font-family="Consolas" font-size="11.00">{Log::cpp}::safe::appendFuncName</text>
</a>
</g>
</g>
<!-- Node1&#45;&gt;Node9 -->
<g id="edge41_Node000001_Node000009" class="edge">
<title>Node1&#45;&gt;Node9</title>
<g id="a_edge41_Node000001_Node000009"><a xlink:title=" ">
<path fill="none" stroke="#63b8ff" d="M1431.02,-416.06C1341.16,-441.2 1123.11,-502.2 1021.19,-530.72"/>
<polygon fill="#63b8ff" stroke="#63b8ff" points="1435.58,-414.78 1431.37,-418.3 1434.35,-415.13 1430.77,-416.13 1430.77,-416.13 1430.77,-416.13 1434.35,-415.13 1430.16,-413.96 1435.58,-414.78"/>
</a>
</g>
</g>
<!-- Node2&#45;&gt;Node2 -->
<g id="edge2_Node000002_Node000002" class="edge">
<title>Node2&#45;&gt;Node2</title>
<g id="a_edge2_Node000002_Node000002"><a xlink:title=" ">
<path fill="none" stroke="#63b8ff" d="M1237.9,-395.06C1238.74,-402.27 1224.44,-408.12 1195,-408.12 1158.77,-408.12 1145.47,-399.25 1155.09,-389.92"/>
<polygon fill="#63b8ff" stroke="#63b8ff" points="1235.52,-390.97 1239.98,-394.16 1236.17,-392.08 1238.04,-395.29 1238.04,-395.29 1238.04,-395.29 1236.17,-392.08 1236.09,-396.43 1235.52,-390.97"/>
</a>
</g>
</g>
<!-- Node3 -->
<g id="Node000003" class="node">
<title>Node3</title>
<g id="a_Node000003"><a xlink:href="../../dd/df2/namespaceanonymous__namespace_02_log_8cpp_03_1_1safe.html#a25864f33cd8ec830e37bce42cf9c7140" target="_top" xlink:title=" ">
<polygon fill="white" stroke="none" points="1055,-341.12 877,-341.12 877,-310.62 1055,-310.62 1055,-341.12"/>
<text xml:space="preserve" text-anchor="start" x="885" y="-326.68" font-family="Consolas" font-size="11.00">anonymous_namespace</text>
<text xml:space="preserve" text-anchor="middle" x="966" y="-315.43" font-family="Consolas" font-size="11.00">{Log::cpp}::safe::appendChr</text>
</a>
</g>
</g>
<!-- Node2&#45;&gt;Node3 -->
<g id="edge3_Node000002_Node000003" class="edge">
<title>Node2&#45;&gt;Node3</title>
<g id="a_edge3_Node000002_Node000003"><a xlink:title=" ">
<path fill="none" stroke="#63b8ff" d="M1117.6,-358.38C1091.72,-352.8 1062.94,-346.58 1037.54,-341.1"/>
<polygon fill="#63b8ff" stroke="#63b8ff" points="1122.23,-359.38 1116.87,-360.53 1120.98,-359.11 1117.34,-358.33 1117.34,-358.33 1117.34,-358.33 1120.98,-359.11 1117.82,-356.13 1122.23,-359.38"/>
</a>
</g>
</g>
<!-- Node4 -->
<g id="Node000004" class="node">
<title>Node4</title>
<g id="a_Node000004"><a xlink:href="../../dd/df2/namespaceanonymous__namespace_02_log_8cpp_03_1_1safe.html#aa526b57e73a9ee9e95150b61a18d6489" target="_top" xlink:title=" ">
<polygon fill="white" stroke="none" points="1070,-457.12 862,-457.12 862,-426.62 1070,-426.62 1070,-457.12"/>
<text xml:space="preserve" text-anchor="start" x="870" y="-442.68" font-family="Consolas" font-size="11.00">anonymous_namespace</text>
<text xml:space="preserve" text-anchor="middle" x="966" y="-431.43" font-family="Consolas" font-size="11.00">{Log::cpp}::safe::appendFileName</text>
</a>
</g>
</g>
<!-- Node2&#45;&gt;Node4 -->
<g id="edge4_Node000002_Node000004" class="edge">
<title>Node2&#45;&gt;Node4</title>
<g id="a_edge4_Node000002_Node000004"><a xlink:title=" ">
<path fill="none" stroke="#63b8ff" d="M1146.39,-392.1C1123.45,-400.12 1095.46,-409.49 1070,-416.88 1058.25,-420.28 1045.65,-423.61 1033.44,-426.66"/>
<polygon fill="#63b8ff" stroke="#63b8ff" points="1150.96,-390.5 1146.99,-394.28 1149.75,-390.92 1146.24,-392.15 1146.24,-392.15 1146.24,-392.15 1149.75,-390.92 1145.5,-390.03 1150.96,-390.5"/>
</a>
</g>
</g>
<!-- Node5 -->
<g id="Node000005" class="node">
<title>Node5</title>
<g id="a_Node000005"><a xlink:href="../../dd/df2/namespaceanonymous__namespace_02_log_8cpp_03_1_1safe.html#a460f691136cced36ea40b2595c18d0a8" target="_top" xlink:title=" ">
<polygon fill="white" stroke="none" points="808,-457.12 624,-457.12 624,-426.62 808,-426.62 808,-457.12"/>
<text xml:space="preserve" text-anchor="start" x="632" y="-442.68" font-family="Consolas" font-size="11.00">anonymous_namespace</text>
<text xml:space="preserve" text-anchor="middle" x="716" y="-431.43" font-family="Consolas" font-size="11.00">{Log::cpp}::safe::msgHandler</text>
</a>
</g>
</g>
<!-- Node2&#45;&gt;Node5 -->
<g id="edge40_Node000002_Node000005" class="edge">
<title>Node2&#45;&gt;Node5</title>
<g id="a_edge40_Node000002_Node000005"><a xlink:title=" ">
<path fill="none" stroke="#63b8ff" d="M1179.42,-394.5C1158.57,-420.73 1117.47,-465.98 1070,-483.88 960.28,-525.24 818.98,-482.07 753.41,-457.06"/>
<polygon fill="#63b8ff" stroke="#63b8ff" points="1182.32,-390.8 1181.01,-396.12 1181.53,-391.81 1179.24,-394.73 1179.24,-394.73 1179.24,-394.73 1181.53,-391.81 1177.47,-393.35 1182.32,-390.8"/>
</a>
</g>
</g>
<!-- Node2&#45;&gt;Node9 -->
<g id="edge11_Node000002_Node000009" class="edge">
<title>Node2&#45;&gt;Node9</title>
<g id="a_edge11_Node000002_Node000009"><a xlink:title=" ">
<path fill="none" stroke="#63b8ff" d="M1177.09,-394.53C1143.95,-433.01 1073.38,-514.74 1070,-516.88 1061.13,-522.48 1051.15,-527.03 1041,-530.71"/>
<polygon fill="#63b8ff" stroke="#63b8ff" points="1180.14,-390.98 1178.59,-396.24 1179.31,-391.96 1176.88,-394.77 1176.88,-394.77 1176.88,-394.77 1179.31,-391.96 1175.18,-393.31 1180.14,-390.98"/>
</a>
</g>
</g>
<!-- Node10 -->
<g id="Node000010" class="node">
<title>Node10</title>
<g id="a_Node000010"><a xlink:href="../../dd/df2/namespaceanonymous__namespace_02_log_8cpp_03_1_1safe.html#a70f8ae638e66e98804ee3dbd8772433a" target="_top" xlink:title=" ">
<polygon fill="white" stroke="none" points="1055,-390.12 877,-390.12 877,-359.62 1055,-359.62 1055,-390.12"/>
<text xml:space="preserve" text-anchor="start" x="885" y="-375.68" font-family="Consolas" font-size="11.00">anonymous_namespace</text>
<text xml:space="preserve" text-anchor="middle" x="966" y="-364.43" font-family="Consolas" font-size="11.00">{Log::cpp}::safe::appendMsg</text>
</a>
</g>
</g>
<!-- Node2&#45;&gt;Node10 -->
<g id="edge14_Node000002_Node000010" class="edge">
<title>Node2&#45;&gt;Node10</title>
<g id="a_edge14_Node000002_Node000010"><a xlink:title=" ">
<path fill="none" stroke="#63b8ff" d="M1100.28,-374.88C1085.27,-374.88 1069.78,-374.88 1054.9,-374.88"/>
<polygon fill="#63b8ff" stroke="#63b8ff" points="1105.02,-374.88 1100.02,-377.13 1103.74,-374.88 1100.02,-374.88 1100.02,-374.88 1100.02,-374.88 1103.74,-374.88 1100.02,-372.63 1105.02,-374.88"/>
</a>
</g>
</g>
<!-- Node11 -->
<g id="Node000011" class="node">
<title>Node11</title>
<g id="a_Node000011"><a xlink:href="../../dd/df2/namespaceanonymous__namespace_02_log_8cpp_03_1_1safe.html#aa8d11c260254c761c7437280b4284d17" target="_top" xlink:title=" ">
<polygon fill="white" stroke="none" points="1055,-237.12 877,-237.12 877,-206.62 1055,-206.62 1055,-237.12"/>
<text xml:space="preserve" text-anchor="start" x="885" y="-222.68" font-family="Consolas" font-size="11.00">anonymous_namespace</text>
<text xml:space="preserve" text-anchor="middle" x="966" y="-211.43" font-family="Consolas" font-size="11.00">{Log::cpp}::safe::appendTxt</text>
</a>
</g>
</g>
<!-- Node2&#45;&gt;Node11 -->
<g id="edge17_Node000002_Node000011" class="edge">
<title>Node2&#45;&gt;Node11</title>
<g id="a_edge17_Node000002_Node000011"><a xlink:title=" ">
<path fill="none" stroke="#63b8ff" d="M1174.65,-355.28C1151.35,-332.45 1110.3,-294.57 1070,-268.88 1050.28,-256.3 1026.64,-245.26 1006.98,-237.04"/>
<polygon fill="#63b8ff" stroke="#63b8ff" points="1178.2,-358.79 1173.06,-356.88 1177.29,-357.89 1174.64,-355.28 1174.64,-355.28 1174.64,-355.28 1177.29,-357.89 1176.22,-353.67 1178.2,-358.79"/>
</a>
</g>
</g>
<!-- Node12 -->
<g id="Node000012" class="node">
<title>Node12</title>
<g id="a_Node000012"><a xlink:href="../../dd/df2/namespaceanonymous__namespace_02_log_8cpp_03_1_1safe.html#afe624b9c8f583070f229333403693a5b" target="_top" xlink:title=" ">
<polygon fill="white" stroke="none" points="805,-408.12 627,-408.12 627,-377.62 805,-377.62 805,-408.12"/>
<text xml:space="preserve" text-anchor="start" x="635" y="-393.68" font-family="Consolas" font-size="11.00">anonymous_namespace</text>
<text xml:space="preserve" text-anchor="middle" x="716" y="-382.43" font-family="Consolas" font-size="11.00">{Log::cpp}::safe::appendTxt</text>
</a>
</g>
</g>
<!-- Node2&#45;&gt;Node12 -->
<g id="edge38_Node000002_Node000012" class="edge">
<title>Node2&#45;&gt;Node12</title>
<g id="a_edge38_Node000002_Node000012"><a xlink:title=" ">
<path fill="none" stroke="#63b8ff" d="M1170.88,-356.09C1147.19,-338.16 1108.48,-312.36 1070,-301.88 980.81,-277.57 941.34,-254.44 862,-301.88 832.99,-319.22 852.97,-348.49 826,-368.88 819.58,-373.72 812.39,-377.63 804.82,-380.78"/>
<polygon fill="#63b8ff" stroke="#63b8ff" points="1174.73,-359.05 1169.39,-357.79 1173.71,-358.27 1170.76,-356 1170.76,-356 1170.76,-356 1173.71,-358.27 1172.13,-354.22 1174.73,-359.05"/>
</a>
</g>
</g>
<!-- Node13 -->
<g id="Node000013" class="node">
<title>Node13</title>
<g id="a_Node000013"><a xlink:href="../../dd/df2/namespaceanonymous__namespace_02_log_8cpp_03_1_1safe.html#a110b11e90b5bb8ae5c8a1521e33eec21" target="_top" xlink:title=" ">
<polygon fill="white" stroke="none" points="814,-41.75 618,-41.75 618,0 814,0 814,-41.75"/>
<text xml:space="preserve" text-anchor="start" x="626" y="-27.3" font-family="Consolas" font-size="11.00">anonymous_namespace</text>
<text xml:space="preserve" text-anchor="start" x="626" y="-16.05" font-family="Consolas" font-size="11.00">{Log::cpp}::safe::invalidParam</text>
<text xml:space="preserve" text-anchor="middle" x="716" y="-4.8" font-family="Consolas" font-size="11.00">Handler</text>
</a>
</g>
</g>
<!-- Node2&#45;&gt;Node13 -->
<g id="edge39_Node000002_Node000013" class="edge">
<title>Node2&#45;&gt;Node13</title>
<g id="a_edge39_Node000002_Node000013"><a xlink:title=" ">
<path fill="none" stroke="#63b8ff" d="M1183.86,-354.43C1165.37,-318.83 1123.14,-244.77 1070,-197.88 983.13,-121.22 857.11,-68.63 781.5,-41.75"/>
<polygon fill="#63b8ff" stroke="#63b8ff" points="1186.06,-358.72 1181.78,-355.3 1185.48,-357.58 1183.78,-354.27 1183.78,-354.27 1183.78,-354.27 1185.48,-357.58 1185.78,-353.25 1186.06,-358.72"/>
</a>
</g>
</g>
<!-- Node4&#45;&gt;Node4 -->
<g id="edge5_Node000004_Node000004" class="edge">
<title>Node4&#45;&gt;Node4</title>
<g id="a_edge5_Node000004_Node000004"><a xlink:title=" ">
<path fill="none" stroke="#63b8ff" d="M1008.9,-462.06C1009.74,-469.27 995.44,-475.12 966,-475.12 929.77,-475.12 916.47,-466.25 926.09,-456.92"/>
<polygon fill="#63b8ff" stroke="#63b8ff" points="1006.52,-457.97 1010.98,-461.16 1007.17,-459.08 1009.04,-462.29 1009.04,-462.29 1009.04,-462.29 1007.17,-459.08 1007.09,-463.43 1006.52,-457.97"/>
</a>
</g>
</g>
<!-- Node4&#45;&gt;Node5 -->
<g id="edge6_Node000004_Node000005" class="edge">
<title>Node4&#45;&gt;Node5</title>
<g id="a_edge6_Node000004_Node000005"><a xlink:title=" ">
<path fill="none" stroke="#63b8ff" d="M856.37,-441.88C840.13,-441.88 823.52,-441.88 807.7,-441.88"/>
<polygon fill="#63b8ff" stroke="#63b8ff" points="861.12,-441.88 856.12,-444.13 859.84,-441.88 856.12,-441.88 856.12,-441.88 856.12,-441.88 859.84,-441.88 856.12,-439.63 861.12,-441.88"/>
</a>
</g>
</g>
<!-- Node5&#45;&gt;Node5 -->
<g id="edge7_Node000005_Node000005" class="edge">
<title>Node5&#45;&gt;Node5</title>
<g id="a_edge7_Node000005_Node000005"><a xlink:title=" ">
<path fill="none" stroke="#63b8ff" d="M761.71,-462.06C762.6,-469.27 747.36,-475.12 716,-475.12 677.4,-475.12 663.22,-466.25 673.48,-456.92"/>
<polygon fill="#63b8ff" stroke="#63b8ff" points="759.16,-457.96 763.71,-461.02 759.84,-459.05 761.8,-462.2 761.8,-462.2 761.8,-462.2 759.84,-459.05 759.89,-463.39 759.16,-457.96"/>
</a>
</g>
</g>
<!-- Node6 -->
<g id="Node000006" class="node">
<title>Node6</title>
<g id="a_Node000006"><a xlink:href="../../d0/d61/classanonymous__namespace_02_log_8cpp_03_1_1_log_core.html#ac83f155438d4a0447ac048d50c7b1a47" target="_top" xlink:title=" ">
<polygon fill="white" stroke="none" points="537,-386.75 407,-386.75 407,-345 537,-345 537,-386.75"/>
<text xml:space="preserve" text-anchor="start" x="415" y="-372.3" font-family="Consolas" font-size="11.00">anonymous_namespace</text>
<text xml:space="preserve" text-anchor="start" x="415" y="-361.05" font-family="Consolas" font-size="11.00">{Log::cpp}::LogCore</text>
<text xml:space="preserve" text-anchor="middle" x="472" y="-349.8" font-family="Consolas" font-size="11.00">::msgHandler_</text>
</a>
</g>
</g>
<!-- Node5&#45;&gt;Node6 -->
<g id="edge8_Node000005_Node000006" class="edge">
<title>Node5&#45;&gt;Node6</title>
<g id="a_edge8_Node000005_Node000006"><a xlink:title=" ">
<path fill="none" stroke="#63b8ff" d="M636.21,-425.19C625.99,-422.62 615.7,-419.83 606,-416.88 577.85,-408.3 547.13,-396.67 522.32,-386.69"/>
<polygon fill="#63b8ff" stroke="#63b8ff" points="641.03,-426.39 635.64,-427.37 639.79,-426.08 636.18,-425.19 636.18,-425.19 636.18,-425.19 639.79,-426.08 636.72,-423 641.03,-426.39"/>
</a>
</g>
</g>
<!-- Node7 -->
<g id="Node000007" class="node">
<title>Node7</title>
<g id="a_Node000007"><a xlink:href="../../dc/d8e/namespaceanonymous__namespace_02_log_8cpp_03.html#a0c2edb98e44610adcc75724bbf4edfb8" target="_top" xlink:title=" ">
<polygon fill="white" stroke="none" points="338,-297.12 190,-297.12 190,-266.62 338,-266.62 338,-297.12"/>
<text xml:space="preserve" text-anchor="start" x="198" y="-282.68" font-family="Consolas" font-size="11.00">anonymous_namespace</text>
<text xml:space="preserve" text-anchor="middle" x="264" y="-271.43" font-family="Consolas" font-size="11.00">{Log::cpp}::msgHandler</text>
</a>
</g>
</g>
<!-- Node6&#45;&gt;Node7 -->
<g id="edge9_Node000006_Node000007" class="edge">
<title>Node6&#45;&gt;Node7</title>
<g id="a_edge9_Node000006_Node000007"><a xlink:title=" ">
<path fill="none" stroke="#63b8ff" d="M414.17,-342.7C378.5,-328.16 333.51,-309.81 302.31,-297.09"/>
<polygon fill="#63b8ff" stroke="#63b8ff" points="418.69,-344.54 413.21,-344.74 417.5,-344.06 414.06,-342.65 414.06,-342.65 414.06,-342.65 417.5,-344.06 414.91,-340.57 418.69,-344.54"/>
</a>
</g>
</g>
<!-- Node8 -->
<g id="Node000008" class="node">
<title>Node8</title>
<g id="a_Node000008"><a xlink:href="../../dc/d8e/namespaceanonymous__namespace_02_log_8cpp_03.html#a7a82c11accb191c2f06849f6d13db39a" target="_top" xlink:title=" ">
<polygon fill="white" stroke="none" points="154,-266.12 0,-266.12 0,-235.62 154,-235.62 154,-266.12"/>
<text xml:space="preserve" text-anchor="start" x="8" y="-251.68" font-family="Consolas" font-size="11.00">anonymous_namespace</text>
<text xml:space="preserve" text-anchor="middle" x="77" y="-240.43" font-family="Consolas" font-size="11.00">{Log::cpp}::initLogging</text>
</a>
</g>
</g>
<!-- Node7&#45;&gt;Node8 -->
<g id="edge10_Node000007_Node000008" class="edge">
<title>Node7&#45;&gt;Node8</title>
<g id="a_edge10_Node000007_Node000008"><a xlink:title=" ">
<path fill="none" stroke="#63b8ff" d="M184.24,-268.68C174.16,-266.99 163.86,-265.26 153.83,-263.58"/>
<polygon fill="#63b8ff" stroke="#63b8ff" points="188.95,-269.47 183.64,-270.86 187.68,-269.25 184.02,-268.64 184.02,-268.64 184.02,-268.64 187.68,-269.25 184.39,-266.42 188.95,-269.47"/>
</a>
</g>
</g>
<!-- Node9&#45;&gt;Node5 -->
<g id="edge13_Node000009_Node000005" class="edge">
<title>Node9&#45;&gt;Node5</title>
<g id="a_edge13_Node000009_Node000005"><a xlink:title=" ">
<path fill="none" stroke="#63b8ff" d="M897.24,-528.92C885.36,-525.34 873.21,-521.3 862,-516.88 818.5,-499.71 770.84,-473.51 742.45,-457.06"/>
<polygon fill="#63b8ff" stroke="#63b8ff" points="901.88,-530.29 896.45,-531.03 900.65,-529.93 897.09,-528.87 897.09,-528.87 897.09,-528.87 900.65,-529.93 897.72,-526.71 901.88,-530.29"/>
</a>
</g>
</g>
<!-- Node9&#45;&gt;Node9 -->
<g id="edge12_Node000009_Node000009" class="edge">
<title>Node9&#45;&gt;Node9</title>
<g id="a_edge12_Node000009_Node000009"><a xlink:title=" ">
<path fill="none" stroke="#63b8ff" d="M1008.9,-566.06C1009.74,-573.27 995.44,-579.12 966,-579.12 929.77,-579.12 916.47,-570.25 926.09,-560.92"/>
<polygon fill="#63b8ff" stroke="#63b8ff" points="1006.52,-561.97 1010.98,-565.16 1007.17,-563.08 1009.04,-566.29 1009.04,-566.29 1009.04,-566.29 1007.17,-563.08 1007.09,-567.43 1006.52,-561.97"/>
</a>
</g>
</g>
<!-- Node10&#45;&gt;Node5 -->
<g id="edge16_Node000010_Node000005" class="edge">
<title>Node10&#45;&gt;Node5</title>
<g id="a_edge16_Node000010_Node000005"><a xlink:title=" ">
<path fill="none" stroke="#63b8ff" d="M911.87,-391.85C886.07,-399.86 854.54,-409.3 826,-416.88 813.33,-420.24 799.77,-423.56 786.66,-426.64"/>
<polygon fill="#63b8ff" stroke="#63b8ff" points="916.46,-390.43 912.35,-394.06 915.24,-390.81 911.68,-391.91 911.68,-391.91 911.68,-391.91 915.24,-390.81 911.02,-389.76 916.46,-390.43"/>
</a>
</g>
</g>
<!-- Node10&#45;&gt;Node10 -->
<g id="edge15_Node000010_Node000010" class="edge">
<title>Node10&#45;&gt;Node10</title>
<g id="a_edge15_Node000010_Node000010"><a xlink:title=" ">
<path fill="none" stroke="#63b8ff" d="M1008.9,-395.06C1009.74,-402.27 995.44,-408.12 966,-408.12 929.77,-408.12 916.47,-399.25 926.09,-389.92"/>
<polygon fill="#63b8ff" stroke="#63b8ff" points="1006.52,-390.97 1010.98,-394.16 1007.17,-392.08 1009.04,-395.29 1009.04,-395.29 1009.04,-395.29 1007.17,-392.08 1007.09,-396.43 1006.52,-390.97"/>
</a>
</g>
</g>
<!-- Node11&#45;&gt;Node5 -->
<g id="edge25_Node000011_Node000005" class="edge">
<title>Node11&#45;&gt;Node5</title>
<g id="a_edge25_Node000011_Node000005"><a xlink:title=" ">
<path fill="none" stroke="#63b8ff" d="M932.04,-240.11C909.35,-254.23 880.13,-275.77 862,-301.88 831.46,-345.87 865.32,-380.51 826,-416.88 820.66,-421.82 814.54,-425.85 807.99,-429.13"/>
<polygon fill="#63b8ff" stroke="#63b8ff" points="936.03,-237.67 932.94,-242.2 934.94,-238.34 931.77,-240.28 931.77,-240.28 931.77,-240.28 934.94,-238.34 930.59,-238.36 936.03,-237.67"/>
</a>
</g>
</g>
<!-- Node11&#45;&gt;Node11 -->
<g id="edge18_Node000011_Node000011" class="edge">
<title>Node11&#45;&gt;Node11</title>
<g id="a_edge18_Node000011_Node000011"><a xlink:title=" ">
<path fill="none" stroke="#63b8ff" d="M1008.9,-242.06C1009.74,-249.27 995.44,-255.12 966,-255.12 929.77,-255.12 916.47,-246.25 926.09,-236.92"/>
<polygon fill="#63b8ff" stroke="#63b8ff" points="1006.52,-237.97 1010.98,-241.16 1007.17,-239.08 1009.04,-242.29 1009.04,-242.29 1009.04,-242.29 1007.17,-239.08 1007.09,-243.43 1006.52,-237.97"/>
</a>
</g>
</g>
<!-- Node11&#45;&gt;Node12 -->
<g id="edge19_Node000011_Node000012" class="edge">
<title>Node11&#45;&gt;Node12</title>
<g id="a_edge19_Node000011_Node000012"><a xlink:title=" ">
<path fill="none" stroke="#63b8ff" d="M905.79,-239.37C889.89,-246.42 873.84,-256.01 862,-268.88 830.01,-303.63 861.48,-337.69 826,-368.88 819.74,-374.38 812.51,-378.7 804.81,-382.1"/>
<polygon fill="#63b8ff" stroke="#63b8ff" points="910.05,-237.55 906.33,-241.58 908.87,-238.05 905.45,-239.51 905.45,-239.51 905.45,-239.51 908.87,-238.05 904.57,-237.44 910.05,-237.55"/>
</a>
</g>
</g>
<!-- Node11&#45;&gt;Node13 -->
<g id="edge20_Node000011_Node000013" class="edge">
<title>Node11&#45;&gt;Node13</title>
<g id="a_edge20_Node000011_Node000013"><a xlink:title=" ">
<path fill="none" stroke="#63b8ff" d="M945.61,-202.57C924.5,-181.33 890.02,-145.93 862,-113.88 845.15,-94.59 846.31,-84.49 826,-68.88 811.74,-57.91 794.58,-48.85 778.14,-41.68"/>
<polygon fill="#63b8ff" stroke="#63b8ff" points="949.04,-206.02 943.92,-204.07 948.14,-205.11 945.51,-202.48 945.51,-202.48 945.51,-202.48 948.14,-205.11 947.11,-200.89 949.04,-206.02"/>
</a>
</g>
</g>
<!-- Node15 -->
<g id="Node000015" class="node">
<title>Node15</title>
<g id="a_Node000015"><a xlink:href="../../dd/df2/namespaceanonymous__namespace_02_log_8cpp_03_1_1safe.html#a2ccdd616a9266b8ac0b03f18feb92c0a" target="_top" xlink:title=" ">
<polygon fill="white" stroke="none" points="802,-341.75 630,-341.75 630,-300 802,-300 802,-341.75"/>
<text xml:space="preserve" text-anchor="start" x="638" y="-327.3" font-family="Consolas" font-size="11.00">anonymous_namespace</text>
<text xml:space="preserve" text-anchor="start" x="638" y="-316.05" font-family="Consolas" font-size="11.00">{Log::cpp}::safe::pureCall</text>
<text xml:space="preserve" text-anchor="middle" x="716" y="-304.8" font-family="Consolas" font-size="11.00">Handler</text>
</a>
</g>
</g>
<!-- Node11&#45;&gt;Node15 -->
<g id="edge26_Node000011_Node000015" class="edge">
<title>Node11&#45;&gt;Node15</title>
<g id="a_edge26_Node000011_Node000015"><a xlink:title=" ">
<path fill="none" stroke="#63b8ff" d="M923.93,-239.25C904.84,-247.68 881.99,-258.25 862,-268.88 845.44,-277.67 843.21,-283.43 826,-290.88 818.25,-294.23 810.04,-297.3 801.72,-300.09"/>
<polygon fill="#63b8ff" stroke="#63b8ff" points="928.1,-237.43 924.42,-241.5 926.92,-237.94 923.52,-239.44 923.52,-239.44 923.52,-239.44 926.92,-237.94 922.61,-237.38 928.1,-237.43"/>
</a>
</g>
</g>
<!-- Node16 -->
<g id="Node000016" class="node">
<title>Node16</title>
<g id="a_Node000016"><a xlink:href="../../dd/df2/namespaceanonymous__namespace_02_log_8cpp_03_1_1safe.html#a05dd8955535418321e297dbbc885a56d" target="_top" xlink:title=" ">
<polygon fill="white" stroke="none" points="817,-264.12 615,-264.12 615,-233.62 817,-233.62 817,-264.12"/>
<text xml:space="preserve" text-anchor="start" x="623" y="-249.68" font-family="Consolas" font-size="11.00">anonymous_namespace</text>
<text xml:space="preserve" text-anchor="middle" x="716" y="-238.43" font-family="Consolas" font-size="11.00">{Log::cpp}::safe::signalHandler</text>
</a>
</g>
</g>
<!-- Node11&#45;&gt;Node16 -->
<g id="edge29_Node000011_Node000016" class="edge">
<title>Node11&#45;&gt;Node16</title>
<g id="a_edge29_Node000011_Node000016"><a xlink:title=" ">
<path fill="none" stroke="#63b8ff" d="M871.23,-232.08C853.49,-234.02 834.86,-236.04 816.94,-237.99"/>
<polygon fill="#63b8ff" stroke="#63b8ff" points="876,-231.56 871.28,-234.34 874.73,-231.7 871.03,-232.11 871.03,-232.11 871.03,-232.11 874.73,-231.7 870.79,-229.87 876,-231.56"/>
</a>
</g>
</g>
<!-- Node17 -->
<g id="Node000017" class="node">
<title>Node17</title>
<g id="a_Node000017"><a xlink:href="../../dd/df2/namespaceanonymous__namespace_02_log_8cpp_03_1_1safe.html#ad3395aac6f72b3cacf47edce1bffd16d" target="_top" xlink:title=" ">
<polygon fill="white" stroke="none" points="805,-197.75 627,-197.75 627,-156 805,-156 805,-197.75"/>
<text xml:space="preserve" text-anchor="start" x="635" y="-183.3" font-family="Consolas" font-size="11.00">anonymous_namespace</text>
<text xml:space="preserve" text-anchor="start" x="635" y="-172.05" font-family="Consolas" font-size="11.00">{Log::cpp}::safe::terminate</text>
<text xml:space="preserve" text-anchor="middle" x="716" y="-160.8" font-family="Consolas" font-size="11.00">Handler</text>
</a>
</g>
</g>
<!-- Node11&#45;&gt;Node17 -->
<g id="edge32_Node000011_Node000017" class="edge">
<title>Node11&#45;&gt;Node17</title>
<g id="a_edge32_Node000011_Node000017"><a xlink:title=" ">
<path fill="none" stroke="#63b8ff" d="M874.94,-205.53C852.04,-201.38 827.47,-196.92 804.69,-192.79"/>
<polygon fill="#63b8ff" stroke="#63b8ff" points="879.84,-206.42 874.52,-207.74 878.58,-206.19 874.92,-205.53 874.92,-205.53 874.92,-205.53 878.58,-206.19 875.32,-203.32 879.84,-206.42"/>
</a>
</g>
</g>
<!-- Node18 -->
<g id="Node000018" class="node">
<title>Node18</title>
<g id="a_Node000018"><a xlink:href="../../dd/df2/namespaceanonymous__namespace_02_log_8cpp_03_1_1safe.html#a2fc634cd009955d042c53cb5f5eebcb5" target="_top" xlink:title=" ">
<polygon fill="white" stroke="none" points="826,-119.75 606,-119.75 606,-78 826,-78 826,-119.75"/>
<text xml:space="preserve" text-anchor="start" x="614" y="-105.3" font-family="Consolas" font-size="11.00">anonymous_namespace</text>
<text xml:space="preserve" text-anchor="start" x="614" y="-94.05" font-family="Consolas" font-size="11.00">{Log::cpp}::safe::windowsException</text>
<text xml:space="preserve" text-anchor="middle" x="716" y="-82.8" font-family="Consolas" font-size="11.00">Filter</text>
</a>
</g>
</g>
<!-- Node11&#45;&gt;Node18 -->
<g id="edge35_Node000011_Node000018" class="edge">
<title>Node11&#45;&gt;Node18</title>
<g id="a_edge35_Node000011_Node000018"><a xlink:title=" ">
<path fill="none" stroke="#63b8ff" d="M933.03,-203.68C905.1,-188.01 863.3,-165.11 826,-146.88 806.77,-137.47 785.28,-127.83 766.49,-119.67"/>
<polygon fill="#63b8ff" stroke="#63b8ff" points="937.36,-206.12 931.9,-205.63 936.24,-205.49 933,-203.67 933,-203.67 933,-203.67 936.24,-205.49 934.11,-201.7 937.36,-206.12"/>
</a>
</g>
</g>
<!-- Node13&#45;&gt;Node13 -->
<g id="edge24_Node000013_Node000013" class="edge">
<title>Node13&#45;&gt;Node13</title>
<g id="a_edge24_Node000013_Node000013"><a xlink:title=" ">
<path fill="none" stroke="#63b8ff" d="M761.21,-47.75C758.25,-54.61 743.18,-59.75 716,-59.75 681.21,-59.75 666.26,-51.32 671.15,-41.67"/>
<polygon fill="#63b8ff" stroke="#63b8ff" points="760.92,-42.89 763.46,-47.75 760.99,-44.17 761.22,-47.88 761.22,-47.88 761.22,-47.88 760.99,-44.17 758.97,-48.01 760.92,-42.89"/>
</a>
</g>
</g>
<!-- Node14 -->
<g id="Node000014" class="node">
<title>Node14</title>
<g id="a_Node000014"><a xlink:href="../../dd/df2/namespaceanonymous__namespace_02_log_8cpp_03_1_1safe.html#a5383dc98204ed88af64a0de8fb17de7f" target="_top" xlink:title=" ">
<polygon fill="white" stroke="none" points="570,-233.75 374,-233.75 374,-192 570,-192 570,-233.75"/>
<text xml:space="preserve" text-anchor="start" x="382" y="-219.3" font-family="Consolas" font-size="11.00">anonymous_namespace</text>
<text xml:space="preserve" text-anchor="start" x="382" y="-208.05" font-family="Consolas" font-size="11.00">{Log::cpp}::safe::installCrash</text>
<text xml:space="preserve" text-anchor="middle" x="472" y="-196.8" font-family="Consolas" font-size="11.00">Handlers</text>
</a>
</g>
</g>
<!-- Node13&#45;&gt;Node14 -->
<g id="edge21_Node000013_Node000014" class="edge">
<title>Node13&#45;&gt;Node14</title>
<g id="a_edge21_Node000013_Node000014"><a xlink:title=" ">
<path fill="none" stroke="#63b8ff" d="M650.21,-44.19C635.04,-51.03 619.41,-59.3 606,-68.88 556,-104.56 510.39,-161.51 487.84,-192"/>
<polygon fill="#63b8ff" stroke="#63b8ff" points="654.65,-42.22 650.99,-46.3 653.48,-42.74 650.08,-44.25 650.08,-44.25 650.08,-44.25 653.48,-42.74 649.17,-42.19 654.65,-42.22"/>
</a>
</g>
</g>
<!-- Node14&#45;&gt;Node8 -->
<g id="edge22_Node000014_Node000008" class="edge">
<title>Node14&#45;&gt;Node8</title>
<g id="a_edge22_Node000014_Node000008"><a xlink:title=" ">
<path fill="none" stroke="#63b8ff" d="M368.08,-222.83C300.92,-229.32 214.74,-237.65 153.82,-243.54"/>
<polygon fill="#63b8ff" stroke="#63b8ff" points="372.89,-222.36 368.13,-225.08 371.62,-222.48 367.92,-222.84 367.92,-222.84 367.92,-222.84 371.62,-222.48 367.7,-220.6 372.89,-222.36"/>
</a>
</g>
</g>
<!-- Node14&#45;&gt;Node14 -->
<g id="edge23_Node000014_Node000014" class="edge">
<title>Node14&#45;&gt;Node14</title>
<g id="a_edge23_Node000014_Node000014"><a xlink:title=" ">
<path fill="none" stroke="#63b8ff" d="M510.54,-239.75C508.01,-246.61 495.17,-251.75 472,-251.75 442.34,-251.75 429.6,-243.32 433.77,-233.67"/>
<polygon fill="#63b8ff" stroke="#63b8ff" points="510.29,-234.89 512.79,-239.77 510.36,-236.17 510.54,-239.88 510.54,-239.88 510.54,-239.88 510.36,-236.17 508.3,-240 510.29,-234.89"/>
</a>
</g>
</g>
<!-- Node15&#45;&gt;Node14 -->
<g id="edge27_Node000015_Node000014" class="edge">
<title>Node15&#45;&gt;Node14</title>
<g id="a_edge27_Node000015_Node000014"><a xlink:title=" ">
<path fill="none" stroke="#63b8ff" d="M625.12,-298.17C618.58,-295.9 612.14,-293.47 606,-290.88 568.89,-275.21 529.44,-251 503.24,-233.71"/>
<polygon fill="#63b8ff" stroke="#63b8ff" points="629.48,-299.65 624.02,-300.18 628.26,-299.24 624.74,-298.05 624.74,-298.05 624.74,-298.05 628.26,-299.24 625.46,-295.92 629.48,-299.65"/>
</a>
</g>
</g>
<!-- Node15&#45;&gt;Node15 -->
<g id="edge28_Node000015_Node000015" class="edge">
<title>Node15&#45;&gt;Node15</title>
<g id="a_edge28_Node000015_Node000015"><a xlink:title=" ">
<path fill="none" stroke="#63b8ff" d="M761.21,-347.75C758.25,-354.61 743.18,-359.75 716,-359.75 681.21,-359.75 666.26,-351.32 671.15,-341.67"/>
<polygon fill="#63b8ff" stroke="#63b8ff" points="760.92,-342.89 763.46,-347.75 760.99,-344.17 761.22,-347.88 761.22,-347.88 761.22,-347.88 760.99,-344.17 758.97,-348.01 760.92,-342.89"/>
</a>
</g>
</g>
<!-- Node16&#45;&gt;Node14 -->
<g id="edge30_Node000016_Node000014" class="edge">
<title>Node16&#45;&gt;Node14</title>
<g id="a_edge30_Node000016_Node000014"><a xlink:title=" ">
<path fill="none" stroke="#63b8ff" d="M609.19,-233.13C596.11,-231.19 582.8,-229.21 569.87,-227.29"/>
<polygon fill="#63b8ff" stroke="#63b8ff" points="613.97,-233.85 608.69,-235.34 612.7,-233.66 609.02,-233.11 609.02,-233.11 609.02,-233.11 612.7,-233.66 609.35,-230.88 613.97,-233.85"/>
</a>
</g>
</g>
<!-- Node16&#45;&gt;Node16 -->
<g id="edge31_Node000016_Node000016" class="edge">
<title>Node16&#45;&gt;Node16</title>
<g id="a_edge31_Node000016_Node000016"><a xlink:title=" ">
<path fill="none" stroke="#63b8ff" d="M761.71,-269.06C762.6,-276.27 747.36,-282.12 716,-282.12 677.4,-282.12 663.22,-273.25 673.48,-263.92"/>
<polygon fill="#63b8ff" stroke="#63b8ff" points="759.16,-264.96 763.71,-268.02 759.84,-266.05 761.8,-269.2 761.8,-269.2 761.8,-269.2 759.84,-266.05 759.89,-270.39 759.16,-264.96"/>
</a>
</g>
</g>
<!-- Node17&#45;&gt;Node14 -->
<g id="edge33_Node000017_Node000014" class="edge">
<title>Node17&#45;&gt;Node14</title>
<g id="a_edge33_Node000017_Node000014"><a xlink:title=" ">
<path fill="none" stroke="#63b8ff" d="M621.57,-190.77C604.61,-193.3 586.88,-195.93 569.83,-198.47"/>
<polygon fill="#63b8ff" stroke="#63b8ff" points="626.09,-190.1 621.47,-193.06 624.82,-190.29 621.14,-190.84 621.14,-190.84 621.14,-190.84 624.82,-190.29 620.81,-188.61 626.09,-190.1"/>
</a>
</g>
</g>
<!-- Node17&#45;&gt;Node17 -->
<g id="edge34_Node000017_Node000017" class="edge">
<title>Node17&#45;&gt;Node17</title>
<g id="a_edge34_Node000017_Node000017"><a xlink:title=" ">
<path fill="none" stroke="#63b8ff" d="M761.21,-203.75C758.25,-210.61 743.18,-215.75 716,-215.75 681.21,-215.75 666.26,-207.32 671.15,-197.67"/>
<polygon fill="#63b8ff" stroke="#63b8ff" points="760.92,-198.89 763.46,-203.75 760.99,-200.17 761.22,-203.88 761.22,-203.88 761.22,-203.88 760.99,-200.17 758.97,-204.01 760.92,-198.89"/>
</a>
</g>
</g>
<!-- Node18&#45;&gt;Node14 -->
<g id="edge36_Node000018_Node000014" class="edge">
<title>Node18&#45;&gt;Node14</title>
<g id="a_edge36_Node000018_Node000014"><a xlink:title=" ">
<path fill="none" stroke="#63b8ff" d="M661.09,-122.03C643.45,-129.76 623.82,-138.53 606,-146.88 574.83,-161.46 540,-178.78 513.81,-192.02"/>
<polygon fill="#63b8ff" stroke="#63b8ff" points="665.38,-120.16 661.7,-124.22 664.2,-120.67 660.8,-122.16 660.8,-122.16 660.8,-122.16 664.2,-120.67 659.89,-120.1 665.38,-120.16"/>
</a>
</g>
</g>
<!-- Node18&#45;&gt;Node18 -->
<g id="edge37_Node000018_Node000018" class="edge">
<title>Node18&#45;&gt;Node18</title>
<g id="a_edge37_Node000018_Node000018"><a xlink:title=" ">
<path fill="none" stroke="#63b8ff" d="M761.21,-125.75C758.25,-132.61 743.18,-137.75 716,-137.75 681.21,-137.75 666.26,-129.32 671.15,-119.67"/>
<polygon fill="#63b8ff" stroke="#63b8ff" points="760.92,-120.89 763.46,-125.75 760.99,-122.17 761.22,-125.88 761.22,-125.88 761.22,-125.88 760.99,-122.17 758.97,-126.01 760.92,-120.89"/>
</a>
</g>
</g>
</g>
</svg>
