<?xml version="1.0" encoding="UTF-8" standalone="no"?>
<!DOCTYPE svg PUBLIC "-//W3C//DTD SVG 1.1//EN"
 "http://www.w3.org/Graphics/SVG/1.1/DTD/svg11.dtd">
<!-- Generated by graphviz version 14.0.0 (20250921.2048)
 -->
<!-- Title: anonymous_namespace{Log::cpp}::safe::hardFailFast Pages: 1 -->
<!--zoomable 270 -->

<svg id="main" version="1.1" xmlns="http://www.w3.org/2000/svg" xmlns:xlink="http://www.w3.org/1999/xlink" xml:space="preserve" onload="init(evt)">

<style type="text/css"><![CDATA[
.node, .edge {opacity: 0.7;}
.node.selected, .edge.selected {opacity: 1;}
.edge:hover path { stroke: red; }
.edge:hover polygon { stroke: red; fill: red; }
]]></style>

<defs>
  <circle id="rim" cx="0" cy="0" r="7"/>
  <circle id="rim2" cx="0" cy="0" r="3.5"/>
  <g id="zoomPlus">
    <use xlink:href="#rim" fill="#404040"><set attributeName="fill" to="#808080" begin="zoomplus.mouseover" end="zoomplus.mouseout"/></use>
    <path d="M-4,0h8M0,-4v8" fill="none" stroke="white" stroke-width="1.5" pointer-events="none"/>
  </g>
  <g id="zoomMin">
    <use xlink:href="#rim" fill="#404040"><set attributeName="fill" to="#808080" begin="zoomminus.mouseover" end="zoomminus.mouseout"/></use>
    <path d="M-4,0h8" fill="none" stroke="white" stroke-width="1.5" pointer-events="none"/>
  </g>
  <g id="arrowUp" transform="translate(30 24)">
    <use xlink:href="#rim"/>
    <path pointer-events="none" fill="none" stroke="white" stroke-width="1.5" d="M0,-3.0v7 M-2.5,-0.5L0,-3.0L2.5,-0.5"/>
  </g>
  <g id="arrowRight" transform="rotate(90) translate(36 -43)">
    <use xlink:href="#rim"/>
    <path pointer-events="none" fill="none" stroke="white" stroke-width="1.5" d="M0,-3.0v7 M-2.5,-0.5L0,-3.0L2.5,-0.5"/>
  </g>
  <g id="arrowDown" transform="rotate(180) translate(-30 -48)">
    <use xlink:href="#rim"/>
    <path pointer-events="none" fill="none" stroke="white" stroke-width="1.5" d="M0,-3.0v7 M-2.5,-0.5L0,-3.0L2.5,-0.5"/>
  </g>
  <g id="arrowLeft" transform="rotate(270) translate(-36 17)">
    <use xlink:href="#rim"/>
    <path pointer-events="none" fill="none" stroke="white" stroke-width="1.5" d="M0,-3.0v7 M-2.5,-0.5L0,-3.0L2.5,-0.5"/>
  </g>
  <g id="resetDef">
    <use xlink:href="#rim2" fill="#404040"><set attributeName="fill" to="#808080" begin="reset.mouseover" end="reset.mouseout"/></use>
  </g>
</defs>
<script type="application/ecmascript">
var viewWidth = 1222;
var viewHeight = 270;
var sectionId = 'dynsection-27';
</script>
<script type="application/ecmascript" xlink:href="../../svg.min.js"/>
<svg id="graph" class="graph">
<g id="viewport">
<title>anonymous_namespace{Log::cpp}::safe::hardFailFast</title>
<!-- Node1 -->
<g id="Node000001" class="node">
<title>Node1</title>
<g id="a_Node000001"><a xlink:title=" ">
<polygon fill="#999999" stroke="none" points="1214,-113.5 904,-113.5 904,-94.25 1214,-94.25 1214,-113.5"/>
<text xml:space="preserve" text-anchor="start" x="912" y="-100.05" font-family="Consolas" font-weight="bold" font-size="11.00">anonymous_namespace{Log::cpp}::safe::hardFailFast</text>
</a>
</g>
</g>
<!-- Node1&#45;&gt;Node1 -->
<g id="edge1_Node000001_Node000001" class="edge">
<title>Node1&#45;&gt;Node1</title>
<g id="a_edge1_Node000001_Node000001"><a xlink:title=" ">
<path fill="none" stroke="#63b8ff" d="M1109.48,-115.82C1123.6,-123.77 1106.78,-131.5 1059,-131.5 1006.28,-131.5 991.25,-122.09 1013.9,-113.36"/>
<polygon fill="#63b8ff" stroke="#63b8ff" points="1105.21,-113.87 1110.69,-113.9 1106.37,-114.4 1109.75,-115.95 1109.75,-115.95 1109.75,-115.95 1106.37,-114.4 1108.82,-117.99 1105.21,-113.87"/>
</a>
</g>
</g>
<!-- Node2 -->
<g id="Node000002" class="node">
<title>Node2</title>
<g id="a_Node000002"><a xlink:href="../../dd/df2/namespaceanonymous__namespace_02_log_8cpp_03_1_1safe.html#a110b11e90b5bb8ae5c8a1521e33eec21" target="_top" xlink:title=" ">
<polygon fill="white" stroke="none" points="862,-243.75 666,-243.75 666,-202 862,-202 862,-243.75"/>
<text xml:space="preserve" text-anchor="start" x="674" y="-229.3" font-family="Consolas" font-size="11.00">anonymous_namespace</text>
<text xml:space="preserve" text-anchor="start" x="674" y="-218.05" font-family="Consolas" font-size="11.00">{Log::cpp}::safe::invalidParam</text>
<text xml:space="preserve" text-anchor="middle" x="764" y="-206.8" font-family="Consolas" font-size="11.00">Handler</text>
</a>
</g>
</g>
<!-- Node1&#45;&gt;Node2 -->
<g id="edge2_Node000001_Node000002" class="edge">
<title>Node1&#45;&gt;Node2</title>
<g id="a_edge2_Node000001_Node000002"><a xlink:title=" ">
<path fill="none" stroke="#63b8ff" d="M1029.03,-115.64C979.51,-135.75 877.97,-176.99 816.25,-202.06"/>
<polygon fill="#63b8ff" stroke="#63b8ff" points="1033.39,-113.87 1029.6,-117.84 1032.2,-114.35 1028.76,-115.75 1028.76,-115.75 1028.76,-115.75 1032.2,-114.35 1027.91,-113.67 1033.39,-113.87"/>
</a>
</g>
</g>
<!-- Node5 -->
<g id="Node000005" class="node">
<title>Node5</title>
<g id="a_Node000005"><a xlink:href="../../dd/df2/namespaceanonymous__namespace_02_log_8cpp_03_1_1safe.html#a2ccdd616a9266b8ac0b03f18feb92c0a" target="_top" xlink:title=" ">
<polygon fill="white" stroke="none" points="609,-185.75 437,-185.75 437,-144 609,-144 609,-185.75"/>
<text xml:space="preserve" text-anchor="start" x="445" y="-171.3" font-family="Consolas" font-size="11.00">anonymous_namespace</text>
<text xml:space="preserve" text-anchor="start" x="445" y="-160.05" font-family="Consolas" font-size="11.00">{Log::cpp}::safe::pureCall</text>
<text xml:space="preserve" text-anchor="middle" x="523" y="-148.8" font-family="Consolas" font-size="11.00">Handler</text>
</a>
</g>
</g>
<!-- Node1&#45;&gt;Node5 -->
<g id="edge7_Node000001_Node000005" class="edge">
<title>Node1&#45;&gt;Node5</title>
<g id="a_edge7_Node000001_Node000005"><a xlink:title=" ">
<path fill="none" stroke="#63b8ff" d="M1016.98,-114.97C978.74,-124.83 919.94,-138.75 868,-145.88 780.15,-157.93 678.68,-162.39 608.83,-164.02"/>
<polygon fill="#63b8ff" stroke="#63b8ff" points="1021.76,-113.73 1017.49,-117.16 1020.52,-114.05 1016.92,-114.98 1016.92,-114.98 1016.92,-114.98 1020.52,-114.05 1016.36,-112.81 1021.76,-113.73"/>
</a>
</g>
</g>
<!-- Node6 -->
<g id="Node000006" class="node">
<title>Node6</title>
<g id="a_Node000006"><a xlink:href="../../dd/df2/namespaceanonymous__namespace_02_log_8cpp_03_1_1safe.html#aace4c2e1632cdc24f1bf5e597c0f6be6" target="_top" xlink:title=" ">
<polygon fill="white" stroke="none" points="868,-119.12 660,-119.12 660,-88.62 868,-88.62 868,-119.12"/>
<text xml:space="preserve" text-anchor="start" x="668" y="-104.67" font-family="Consolas" font-size="11.00">anonymous_namespace</text>
<text xml:space="preserve" text-anchor="middle" x="764" y="-93.42" font-family="Consolas" font-size="11.00">{Log::cpp}::safe::reraiseDefault</text>
</a>
</g>
</g>
<!-- Node1&#45;&gt;Node6 -->
<g id="edge10_Node000001_Node000006" class="edge">
<title>Node1&#45;&gt;Node6</title>
<g id="a_edge10_Node000001_Node000006"><a xlink:title=" ">
<path fill="none" stroke="#63b8ff" d="M898.16,-103.88C887.91,-103.88 877.74,-103.88 867.87,-103.88"/>
<polygon fill="#63b8ff" stroke="#63b8ff" points="902.99,-103.88 897.99,-106.13 901.71,-103.88 897.99,-103.88 897.99,-103.88 897.99,-103.88 901.71,-103.88 897.99,-101.63 902.99,-103.88"/>
</a>
</g>
</g>
<!-- Node7 -->
<g id="Node000007" class="node">
<title>Node7</title>
<g id="a_Node000007"><a xlink:href="../../dd/df2/namespaceanonymous__namespace_02_log_8cpp_03_1_1safe.html#a05dd8955535418321e297dbbc885a56d" target="_top" xlink:title=" ">
<polygon fill="white" stroke="none" points="624,-108.12 422,-108.12 422,-77.62 624,-77.62 624,-108.12"/>
<text xml:space="preserve" text-anchor="start" x="430" y="-93.67" font-family="Consolas" font-size="11.00">anonymous_namespace</text>
<text xml:space="preserve" text-anchor="middle" x="523" y="-82.42" font-family="Consolas" font-size="11.00">{Log::cpp}::safe::signalHandler</text>
</a>
</g>
</g>
<!-- Node1&#45;&gt;Node7 -->
<g id="edge15_Node000001_Node000007" class="edge">
<title>Node1&#45;&gt;Node7</title>
<g id="a_edge15_Node000001_Node000007"><a xlink:title=" ">
<path fill="none" stroke="#63b8ff" d="M991.67,-93.42C955.27,-88.21 909.26,-82.47 868,-79.88 775.74,-74.07 752.34,-75.47 660,-79.88 648.27,-80.43 636,-81.26 623.82,-82.24"/>
<polygon fill="#63b8ff" stroke="#63b8ff" points="996.22,-94.08 990.95,-95.59 994.96,-93.9 991.28,-93.36 991.28,-93.36 991.28,-93.36 994.96,-93.9 991.6,-91.14 996.22,-94.08"/>
</a>
</g>
</g>
<!-- Node8 -->
<g id="Node000008" class="node">
<title>Node8</title>
<g id="a_Node000008"><a xlink:href="../../dd/df2/namespaceanonymous__namespace_02_log_8cpp_03_1_1safe.html#ad3395aac6f72b3cacf47edce1bffd16d" target="_top" xlink:title=" ">
<polygon fill="white" stroke="none" points="612,-41.75 434,-41.75 434,0 612,0 612,-41.75"/>
<text xml:space="preserve" text-anchor="start" x="442" y="-27.3" font-family="Consolas" font-size="11.00">anonymous_namespace</text>
<text xml:space="preserve" text-anchor="start" x="442" y="-16.05" font-family="Consolas" font-size="11.00">{Log::cpp}::safe::terminate</text>
<text xml:space="preserve" text-anchor="middle" x="523" y="-4.8" font-family="Consolas" font-size="11.00">Handler</text>
</a>
</g>
</g>
<!-- Node1&#45;&gt;Node8 -->
<g id="edge16_Node000001_Node000008" class="edge">
<title>Node1&#45;&gt;Node8</title>
<g id="a_edge16_Node000001_Node000008"><a xlink:title=" ">
<path fill="none" stroke="#63b8ff" d="M996.88,-93.27C959.66,-86.89 911.12,-78.7 868,-71.88 780.94,-58.09 681.29,-43.44 611.73,-33.4"/>
<polygon fill="#63b8ff" stroke="#63b8ff" points="1001.56,-94.07 996.25,-95.44 1000.29,-93.85 996.63,-93.22 996.63,-93.22 996.63,-93.22 1000.29,-93.85 997.01,-91.01 1001.56,-94.07"/>
</a>
</g>
</g>
<!-- Node2&#45;&gt;Node2 -->
<g id="edge6_Node000002_Node000002" class="edge">
<title>Node2&#45;&gt;Node2</title>
<g id="a_edge6_Node000002_Node000002"><a xlink:title=" ">
<path fill="none" stroke="#63b8ff" d="M808.65,-249.75C805.73,-256.61 790.84,-261.75 764,-261.75 729.64,-261.75 714.87,-253.32 719.71,-243.67"/>
<polygon fill="#63b8ff" stroke="#63b8ff" points="808.37,-244.89 810.91,-249.75 808.44,-246.17 808.66,-249.88 808.66,-249.88 808.66,-249.88 808.44,-246.17 806.41,-250.01 808.37,-244.89"/>
</a>
</g>
</g>
<!-- Node3 -->
<g id="Node000003" class="node">
<title>Node3</title>
<g id="a_Node000003"><a xlink:href="../../dd/df2/namespaceanonymous__namespace_02_log_8cpp_03_1_1safe.html#a5383dc98204ed88af64a0de8fb17de7f" target="_top" xlink:title=" ">
<polygon fill="white" stroke="none" points="386,-149.75 190,-149.75 190,-108 386,-108 386,-149.75"/>
<text xml:space="preserve" text-anchor="start" x="198" y="-135.3" font-family="Consolas" font-size="11.00">anonymous_namespace</text>
<text xml:space="preserve" text-anchor="start" x="198" y="-124.05" font-family="Consolas" font-size="11.00">{Log::cpp}::safe::installCrash</text>
<text xml:space="preserve" text-anchor="middle" x="288" y="-112.8" font-family="Consolas" font-size="11.00">Handlers</text>
</a>
</g>
</g>
<!-- Node2&#45;&gt;Node3 -->
<g id="edge3_Node000002_Node000003" class="edge">
<title>Node2&#45;&gt;Node3</title>
<g id="a_edge3_Node000002_Node000003"><a xlink:title=" ">
<path fill="none" stroke="#63b8ff" d="M660.19,-233.79C591.31,-237.76 499.39,-236.5 422,-212.88 379.95,-200.04 338.18,-170.12 312.98,-149.69"/>
<polygon fill="#63b8ff" stroke="#63b8ff" points="665.15,-233.49 660.3,-236.04 663.87,-233.57 660.16,-233.8 660.16,-233.8 660.16,-233.8 663.87,-233.57 660.03,-231.55 665.15,-233.49"/>
</a>
</g>
</g>
<!-- Node3&#45;&gt;Node3 -->
<g id="edge5_Node000003_Node000003" class="edge">
<title>Node3&#45;&gt;Node3</title>
<g id="a_edge5_Node000003_Node000003"><a xlink:title=" ">
<path fill="none" stroke="#63b8ff" d="M327.09,-155.75C324.53,-162.61 311.5,-167.75 288,-167.75 257.92,-167.75 244.99,-159.32 249.22,-149.67"/>
<polygon fill="#63b8ff" stroke="#63b8ff" points="326.84,-150.89 329.35,-155.77 326.91,-152.17 327.1,-155.88 327.1,-155.88 327.1,-155.88 326.91,-152.17 324.85,-156 326.84,-150.89"/>
</a>
</g>
</g>
<!-- Node4 -->
<g id="Node000004" class="node">
<title>Node4</title>
<g id="a_Node000004"><a xlink:href="../../dc/d8e/namespaceanonymous__namespace_02_log_8cpp_03.html#a7a82c11accb191c2f06849f6d13db39a" target="_top" xlink:title=" ">
<polygon fill="white" stroke="none" points="154,-144.12 0,-144.12 0,-113.62 154,-113.62 154,-144.12"/>
<text xml:space="preserve" text-anchor="start" x="8" y="-129.68" font-family="Consolas" font-size="11.00">anonymous_namespace</text>
<text xml:space="preserve" text-anchor="middle" x="77" y="-118.42" font-family="Consolas" font-size="11.00">{Log::cpp}::initLogging</text>
</a>
</g>
</g>
<!-- Node3&#45;&gt;Node4 -->
<g id="edge4_Node000003_Node000004" class="edge">
<title>Node3&#45;&gt;Node4</title>
<g id="a_edge4_Node000003_Node000004"><a xlink:title=" ">
<path fill="none" stroke="#63b8ff" d="M184.15,-128.88C173.95,-128.88 163.73,-128.88 153.88,-128.88"/>
<polygon fill="#63b8ff" stroke="#63b8ff" points="188.93,-128.88 183.93,-131.13 187.65,-128.88 183.93,-128.88 183.93,-128.88 183.93,-128.88 187.65,-128.88 183.93,-126.63 188.93,-128.88"/>
</a>
</g>
</g>
<!-- Node5&#45;&gt;Node3 -->
<g id="edge8_Node000005_Node000003" class="edge">
<title>Node5&#45;&gt;Node3</title>
<g id="a_edge8_Node000005_Node000003"><a xlink:title=" ">
<path fill="none" stroke="#63b8ff" d="M431.33,-150.87C416.45,-148.57 400.98,-146.18 385.96,-143.86"/>
<polygon fill="#63b8ff" stroke="#63b8ff" points="436.02,-151.59 430.73,-153.05 434.75,-151.39 431.08,-150.83 431.08,-150.83 431.08,-150.83 434.75,-151.39 431.42,-148.6 436.02,-151.59"/>
</a>
</g>
</g>
<!-- Node5&#45;&gt;Node5 -->
<g id="edge9_Node000005_Node000005" class="edge">
<title>Node5&#45;&gt;Node5</title>
<g id="a_edge9_Node000005_Node000005"><a xlink:title=" ">
<path fill="none" stroke="#63b8ff" d="M566.54,-191.75C563.69,-198.61 549.18,-203.75 523,-203.75 489.49,-203.75 475.1,-195.32 479.81,-185.67"/>
<polygon fill="#63b8ff" stroke="#63b8ff" points="566.26,-186.89 568.79,-191.75 566.33,-188.17 566.55,-191.88 566.55,-191.88 566.55,-191.88 566.33,-188.17 564.3,-192.01 566.26,-186.89"/>
</a>
</g>
</g>
<!-- Node6&#45;&gt;Node6 -->
<g id="edge11_Node000006_Node000006" class="edge">
<title>Node6&#45;&gt;Node6</title>
<g id="a_edge11_Node000006_Node000006"><a xlink:title=" ">
<path fill="none" stroke="#63b8ff" d="M809.15,-124.06C810.03,-131.27 794.98,-137.12 764,-137.12 725.87,-137.12 711.87,-128.25 722,-118.92"/>
<polygon fill="#63b8ff" stroke="#63b8ff" points="806.64,-119.96 811.17,-123.05 807.31,-121.05 809.25,-124.22 809.25,-124.22 809.25,-124.22 807.31,-121.05 807.33,-125.4 806.64,-119.96"/>
</a>
</g>
</g>
<!-- Node6&#45;&gt;Node7 -->
<g id="edge12_Node000006_Node000007" class="edge">
<title>Node6&#45;&gt;Node7</title>
<g id="a_edge12_Node000006_Node000007"><a xlink:title=" ">
<path fill="none" stroke="#63b8ff" d="M654.26,-98.87C644.05,-98.4 633.74,-97.93 623.63,-97.46"/>
<polygon fill="#63b8ff" stroke="#63b8ff" points="659.04,-99.09 653.94,-101.11 657.76,-99.03 654.04,-98.86 654.04,-98.86 654.04,-98.86 657.76,-99.03 654.15,-96.61 659.04,-99.09"/>
</a>
</g>
</g>
<!-- Node7&#45;&gt;Node3 -->
<g id="edge13_Node000007_Node000003" class="edge">
<title>Node7&#45;&gt;Node3</title>
<g id="a_edge13_Node000007_Node000003"><a xlink:title=" ">
<path fill="none" stroke="#63b8ff" d="M417.63,-109C406.98,-110.65 396.19,-112.31 385.64,-113.94"/>
<polygon fill="#63b8ff" stroke="#63b8ff" points="422.32,-108.28 417.72,-111.26 421.05,-108.47 417.38,-109.04 417.38,-109.04 417.38,-109.04 421.05,-108.47 417.04,-106.82 422.32,-108.28"/>
</a>
</g>
</g>
<!-- Node7&#45;&gt;Node7 -->
<g id="edge14_Node000007_Node000007" class="edge">
<title>Node7&#45;&gt;Node7</title>
<g id="a_edge14_Node000007_Node000007"><a xlink:title=" ">
<path fill="none" stroke="#63b8ff" d="M567.03,-113.06C567.88,-120.27 553.21,-126.12 523,-126.12 485.82,-126.12 472.17,-117.25 482.05,-107.92"/>
<polygon fill="#63b8ff" stroke="#63b8ff" points="564.58,-108.97 569.07,-112.1 565.24,-110.07 567.14,-113.26 567.14,-113.26 567.14,-113.26 565.24,-110.07 565.21,-114.41 564.58,-108.97"/>
</a>
</g>
</g>
<!-- Node8&#45;&gt;Node3 -->
<g id="edge17_Node000008_Node000003" class="edge">
<title>Node8&#45;&gt;Node3</title>
<g id="a_edge17_Node000008_Node000003"><a xlink:title=" ">
<path fill="none" stroke="#63b8ff" d="M471.65,-44.21C430.63,-63.23 373.23,-89.83 333.79,-108.12"/>
<polygon fill="#63b8ff" stroke="#63b8ff" points="475.97,-42.21 472.38,-46.36 474.81,-42.75 471.43,-44.31 471.43,-44.31 471.43,-44.31 474.81,-42.75 470.49,-42.27 475.97,-42.21"/>
</a>
</g>
</g>
<!-- Node8&#45;&gt;Node8 -->
<g id="edge18_Node000008_Node000008" class="edge">
<title>Node8&#45;&gt;Node8</title>
<g id="a_edge18_Node000008_Node000008"><a xlink:title=" ">
<path fill="none" stroke="#63b8ff" d="M566.54,-47.75C563.69,-54.61 549.18,-59.75 523,-59.75 489.49,-59.75 475.1,-51.32 479.81,-41.67"/>
<polygon fill="#63b8ff" stroke="#63b8ff" points="566.26,-42.89 568.79,-47.75 566.33,-44.17 566.55,-47.88 566.55,-47.88 566.55,-47.88 566.33,-44.17 564.3,-48.01 566.26,-42.89"/>
</a>
</g>
</g>
</g>
</svg>

<g id="navigator" transform="translate(0 0)" fill="#404254">
  <rect fill="#f2f5e9" fill-opacity="0.5" stroke="#606060" stroke-width=".5" x="0" y="0" width="60" height="60"/>
  <use id="zoomplus" xlink:href="#zoomPlus" x="17" y="9" onmousedown="handleZoom(evt,'in')"/>
  <use id="zoomminus" xlink:href="#zoomMin" x="42" y="9" onmousedown="handleZoom(evt,'out')"/>
  <use id="reset" xlink:href="#resetDef" x="30" y="36" onmousedown="handleReset()"/>
   <use id="arrowup" xlink:href="#arrowUp" x="0" y="0" onmousedown="handlePan(0,-1)"/>
  <use id="arrowright" xlink:href="#arrowRight" x="0" y="0" onmousedown="handlePan(1,0)"/>
  <use id="arrowdown" xlink:href="#arrowDown" x="0" y="0" onmousedown="handlePan(0,1)"/>
  <use id="arrowleft" xlink:href="#arrowLeft" x="0" y="0" onmousedown="handlePan(-1,0)"/>
</g>
<svg viewBox="0 0 15 15" width="100%" height="30px" preserveAspectRatio="xMaxYMin meet">
 <g id="arrow_out" transform="scale(0.3 0.3)">
  <a xlink:href="namespaceanonymous__namespace_02_log_8cpp_03_1_1safe_aee2abc51c02c7af63c137ba0ea58c71a_icgraph_org.svg" target="_base">
   <rect id="button" ry="5" rx="5" y="6" x="6" height="38" width="38"
        fill="#f2f5e9" fill-opacity="0.5" stroke="#606060" stroke-width="1.0"/>
   <path id="arrow"
     d="M 11.500037,31.436501 C 11.940474,20.09759 22.043105,11.32322 32.158766,21.979434 L 37.068811,17.246167 C 37.068811,17.246167 37.088388,32 37.088388,32 L 22.160133,31.978069 C 22.160133,31.978069 26.997745,27.140456 26.997745,27.140456 C 18.528582,18.264221 13.291696,25.230495 11.500037,31.436501 z"
     style="fill:#404040;"/>
  </a>
 </g>
</svg>

<style type='text/css'>
<![CDATA[
[data-mouse-over-selected='false'] { opacity: 0.7; }
[data-mouse-over-selected='true']  { opacity: 1.0; }
]]>
</style>
<script type="application/ecmascript"><![CDATA[
document.addEventListener('DOMContentLoaded', (event) => {
  highlightEdges();
  highlightAdjacentNodes();
});
]]></script>
</svg>
