<?xml version="1.0" encoding="UTF-8" standalone="no"?>
<!DOCTYPE svg PUBLIC "-//W3C//DTD SVG 1.1//EN"
 "http://www.w3.org/Graphics/SVG/1.1/DTD/svg11.dtd">
<!-- Generated by graphviz version 14.0.0 (20250921.2048)
 -->
<!-- Title: anonymous_namespace{Log::cpp}::safe::appendDec Pages: 1 -->
<svg width="1144pt" height="203pt"
 viewBox="0.00 0.00 1144.00 203.00" xmlns="http://www.w3.org/2000/svg" xmlns:xlink="http://www.w3.org/1999/xlink">
<g id="graph0" class="graph" transform="scale(1 1) rotate(0) translate(4 198.75)">
<title>anonymous_namespace{Log::cpp}::safe::appendDec</title>
<!-- Node1 -->
<g id="Node000001" class="node">
<title>Node1</title>
<g id="a_Node000001"><a xlink:title=" ">
<polygon fill="#999999" stroke="none" points="1136,-93.5 844,-93.5 844,-74.25 1136,-74.25 1136,-93.5"/>
<text xml:space="preserve" text-anchor="start" x="852" y="-80.05" font-family="Consolas" font-weight="bold" font-size="11.00">anonymous_namespace{Log::cpp}::safe::appendDec</text>
</a>
</g>
</g>
<!-- Node1&#45;&gt;Node1 -->
<g id="edge1_Node000001_Node000001" class="edge">
<title>Node1&#45;&gt;Node1</title>
<g id="a_edge1_Node000001_Node000001"><a xlink:title=" ">
<path fill="none" stroke="#63b8ff" d="M1038.77,-96.03C1051.69,-103.9 1035.44,-111.5 990,-111.5 939.42,-111.5 925,-102.09 946.73,-93.36"/>
<polygon fill="#63b8ff" stroke="#63b8ff" points="1034.36,-93.89 1039.84,-94.05 1035.51,-94.45 1038.86,-96.07 1038.86,-96.07 1038.86,-96.07 1035.51,-94.45 1037.88,-98.1 1034.36,-93.89"/>
</a>
</g>
</g>
<!-- Node2 -->
<g id="Node000002" class="node">
<title>Node2</title>
<g id="a_Node000002"><a xlink:href="../../dd/df2/namespaceanonymous__namespace_02_log_8cpp_03_1_1safe.html#a110b11e90b5bb8ae5c8a1521e33eec21" target="_top" xlink:title=" ">
<polygon fill="white" stroke="none" points="805,-176.75 609,-176.75 609,-135 805,-135 805,-176.75"/>
<text xml:space="preserve" text-anchor="start" x="617" y="-162.3" font-family="Consolas" font-size="11.00">anonymous_namespace</text>
<text xml:space="preserve" text-anchor="start" x="617" y="-151.05" font-family="Consolas" font-size="11.00">{Log::cpp}::safe::invalidParam</text>
<text xml:space="preserve" text-anchor="middle" x="707" y="-139.8" font-family="Consolas" font-size="11.00">Handler</text>
</a>
</g>
</g>
<!-- Node1&#45;&gt;Node2 -->
<g id="edge2_Node000001_Node000002" class="edge">
<title>Node1&#45;&gt;Node2</title>
<g id="a_edge2_Node000001_Node000002"><a xlink:title=" ">
<path fill="none" stroke="#63b8ff" d="M945.72,-94.96C904.17,-105.61 840.38,-121.96 789.33,-135.04"/>
<polygon fill="#63b8ff" stroke="#63b8ff" points="950.51,-93.74 946.22,-97.16 949.26,-94.06 945.66,-94.98 945.66,-94.98 945.66,-94.98 949.26,-94.06 945.1,-92.8 950.51,-93.74"/>
</a>
</g>
</g>
<!-- Node5 -->
<g id="Node000005" class="node">
<title>Node5</title>
<g id="a_Node000005"><a xlink:href="../../dd/df2/namespaceanonymous__namespace_02_log_8cpp_03_1_1safe.html#a460f691136cced36ea40b2595c18d0a8" target="_top" xlink:title=" ">
<polygon fill="white" stroke="none" points="799,-32.12 615,-32.12 615,-1.63 799,-1.63 799,-32.12"/>
<text xml:space="preserve" text-anchor="start" x="623" y="-17.68" font-family="Consolas" font-size="11.00">anonymous_namespace</text>
<text xml:space="preserve" text-anchor="middle" x="707" y="-6.42" font-family="Consolas" font-size="11.00">{Log::cpp}::safe::msgHandler</text>
</a>
</g>
</g>
<!-- Node1&#45;&gt;Node5 -->
<g id="edge7_Node000001_Node000005" class="edge">
<title>Node1&#45;&gt;Node5</title>
<g id="a_edge7_Node000001_Node000005"><a xlink:title=" ">
<path fill="none" stroke="#63b8ff" d="M942.9,-72.88C896.3,-61.77 823.91,-44.51 771.8,-32.09"/>
<polygon fill="#63b8ff" stroke="#63b8ff" points="947.55,-73.99 942.17,-75.02 946.31,-73.7 942.69,-72.83 942.69,-72.83 942.69,-72.83 946.31,-73.7 943.21,-70.64 947.55,-73.99"/>
</a>
</g>
</g>
<!-- Node8 -->
<g id="Node000008" class="node">
<title>Node8</title>
<g id="a_Node000008"><a xlink:href="../../dd/df2/namespaceanonymous__namespace_02_log_8cpp_03_1_1safe.html#a05dd8955535418321e297dbbc885a56d" target="_top" xlink:title=" ">
<polygon fill="white" stroke="none" points="808,-99.12 606,-99.12 606,-68.62 808,-68.62 808,-99.12"/>
<text xml:space="preserve" text-anchor="start" x="614" y="-84.67" font-family="Consolas" font-size="11.00">anonymous_namespace</text>
<text xml:space="preserve" text-anchor="middle" x="707" y="-73.42" font-family="Consolas" font-size="11.00">{Log::cpp}::safe::signalHandler</text>
</a>
</g>
</g>
<!-- Node1&#45;&gt;Node8 -->
<g id="edge12_Node000001_Node000008" class="edge">
<title>Node1&#45;&gt;Node8</title>
<g id="a_edge12_Node000001_Node000008"><a xlink:title=" ">
<path fill="none" stroke="#63b8ff" d="M838.3,-83.88C827.98,-83.88 817.73,-83.88 807.78,-83.88"/>
<polygon fill="#63b8ff" stroke="#63b8ff" points="843.17,-83.88 838.17,-86.13 841.88,-83.88 838.17,-83.88 838.17,-83.88 838.17,-83.88 841.88,-83.88 838.17,-81.63 843.17,-83.88"/>
</a>
</g>
</g>
<!-- Node2&#45;&gt;Node2 -->
<g id="edge6_Node000002_Node000002" class="edge">
<title>Node2&#45;&gt;Node2</title>
<g id="a_edge6_Node000002_Node000002"><a xlink:title=" ">
<path fill="none" stroke="#63b8ff" d="M750.54,-182.75C747.69,-189.61 733.18,-194.75 707,-194.75 673.49,-194.75 659.1,-186.32 663.81,-176.67"/>
<polygon fill="#63b8ff" stroke="#63b8ff" points="750.26,-177.89 752.79,-182.75 750.33,-179.17 750.55,-182.88 750.55,-182.88 750.55,-182.88 750.33,-179.17 748.3,-183.01 750.26,-177.89"/>
</a>
</g>
</g>
<!-- Node3 -->
<g id="Node000003" class="node">
<title>Node3</title>
<g id="a_Node000003"><a xlink:href="../../dd/df2/namespaceanonymous__namespace_02_log_8cpp_03_1_1safe.html#a5383dc98204ed88af64a0de8fb17de7f" target="_top" xlink:title=" ">
<polygon fill="white" stroke="none" points="570,-104.75 374,-104.75 374,-63 570,-63 570,-104.75"/>
<text xml:space="preserve" text-anchor="start" x="382" y="-90.3" font-family="Consolas" font-size="11.00">anonymous_namespace</text>
<text xml:space="preserve" text-anchor="start" x="382" y="-79.05" font-family="Consolas" font-size="11.00">{Log::cpp}::safe::installCrash</text>
<text xml:space="preserve" text-anchor="middle" x="472" y="-67.8" font-family="Consolas" font-size="11.00">Handlers</text>
</a>
</g>
</g>
<!-- Node2&#45;&gt;Node3 -->
<g id="edge3_Node000002_Node000003" class="edge">
<title>Node2&#45;&gt;Node3</title>
<g id="a_edge3_Node000002_Node000003"><a xlink:title=" ">
<path fill="none" stroke="#63b8ff" d="M630.34,-133.3C622.12,-130.81 613.88,-128.3 606,-125.88 583.9,-119.07 559.78,-111.5 538.22,-104.68"/>
<polygon fill="#63b8ff" stroke="#63b8ff" points="634.86,-134.67 629.42,-135.38 633.63,-134.3 630.07,-133.22 630.07,-133.22 630.07,-133.22 633.63,-134.3 630.72,-131.07 634.86,-134.67"/>
</a>
</g>
</g>
<!-- Node3&#45;&gt;Node3 -->
<g id="edge5_Node000003_Node000003" class="edge">
<title>Node3&#45;&gt;Node3</title>
<g id="a_edge5_Node000003_Node000003"><a xlink:title=" ">
<path fill="none" stroke="#63b8ff" d="M510.54,-110.75C508.01,-117.61 495.17,-122.75 472,-122.75 442.34,-122.75 429.6,-114.32 433.77,-104.67"/>
<polygon fill="#63b8ff" stroke="#63b8ff" points="510.29,-105.89 512.79,-110.77 510.36,-107.17 510.54,-110.88 510.54,-110.88 510.54,-110.88 510.36,-107.17 508.3,-111 510.29,-105.89"/>
</a>
</g>
</g>
<!-- Node4 -->
<g id="Node000004" class="node">
<title>Node4</title>
<g id="a_Node000004"><a xlink:href="../../dc/d8e/namespaceanonymous__namespace_02_log_8cpp_03.html#a7a82c11accb191c2f06849f6d13db39a" target="_top" xlink:title=" ">
<polygon fill="white" stroke="none" points="154,-65.12 0,-65.12 0,-34.62 154,-34.62 154,-65.12"/>
<text xml:space="preserve" text-anchor="start" x="8" y="-50.67" font-family="Consolas" font-size="11.00">anonymous_namespace</text>
<text xml:space="preserve" text-anchor="middle" x="77" y="-39.42" font-family="Consolas" font-size="11.00">{Log::cpp}::initLogging</text>
</a>
</g>
</g>
<!-- Node3&#45;&gt;Node4 -->
<g id="edge4_Node000003_Node000004" class="edge">
<title>Node3&#45;&gt;Node4</title>
<g id="a_edge4_Node000003_Node000004"><a xlink:title=" ">
<path fill="none" stroke="#63b8ff" d="M368.08,-74.97C300.92,-69.16 214.74,-61.7 153.82,-56.43"/>
<polygon fill="#63b8ff" stroke="#63b8ff" points="372.89,-75.39 367.72,-77.2 371.62,-75.28 367.91,-74.96 367.91,-74.96 367.91,-74.96 371.62,-75.28 368.1,-72.71 372.89,-75.39"/>
</a>
</g>
</g>
<!-- Node5&#45;&gt;Node5 -->
<g id="edge8_Node000005_Node000005" class="edge">
<title>Node5&#45;&gt;Node5</title>
<g id="a_edge8_Node000005_Node000005"><a xlink:title=" ">
<path fill="none" stroke="#63b8ff" d="M751.03,-37.06C751.88,-44.27 737.21,-50.12 707,-50.12 669.82,-50.12 656.17,-41.25 666.05,-31.92"/>
<polygon fill="#63b8ff" stroke="#63b8ff" points="748.58,-32.97 753.07,-36.1 749.24,-34.07 751.14,-37.26 751.14,-37.26 751.14,-37.26 749.24,-34.07 749.21,-38.41 748.58,-32.97"/>
</a>
</g>
</g>
<!-- Node6 -->
<g id="Node000006" class="node">
<title>Node6</title>
<g id="a_Node000006"><a xlink:href="../../d0/d61/classanonymous__namespace_02_log_8cpp_03_1_1_log_core.html#ac83f155438d4a0447ac048d50c7b1a47" target="_top" xlink:title=" ">
<polygon fill="white" stroke="none" points="537,-41.75 407,-41.75 407,0 537,0 537,-41.75"/>
<text xml:space="preserve" text-anchor="start" x="415" y="-27.3" font-family="Consolas" font-size="11.00">anonymous_namespace</text>
<text xml:space="preserve" text-anchor="start" x="415" y="-16.05" font-family="Consolas" font-size="11.00">{Log::cpp}::LogCore</text>
<text xml:space="preserve" text-anchor="middle" x="472" y="-4.8" font-family="Consolas" font-size="11.00">::msgHandler_</text>
</a>
</g>
</g>
<!-- Node5&#45;&gt;Node6 -->
<g id="edge9_Node000005_Node000006" class="edge">
<title>Node5&#45;&gt;Node6</title>
<g id="a_edge9_Node000005_Node000006"><a xlink:title=" ">
<path fill="none" stroke="#63b8ff" d="M609.08,-18.54C584.7,-18.96 559.14,-19.4 536.84,-19.78"/>
<polygon fill="#63b8ff" stroke="#63b8ff" points="614.03,-18.45 609.07,-20.79 612.75,-18.48 609.03,-18.54 609.03,-18.54 609.03,-18.54 612.75,-18.48 608.99,-16.29 614.03,-18.45"/>
</a>
</g>
</g>
<!-- Node7 -->
<g id="Node000007" class="node">
<title>Node7</title>
<g id="a_Node000007"><a xlink:href="../../dc/d8e/namespaceanonymous__namespace_02_log_8cpp_03.html#a0c2edb98e44610adcc75724bbf4edfb8" target="_top" xlink:title=" ">
<polygon fill="white" stroke="none" points="338,-44.12 190,-44.12 190,-13.63 338,-13.63 338,-44.12"/>
<text xml:space="preserve" text-anchor="start" x="198" y="-29.68" font-family="Consolas" font-size="11.00">anonymous_namespace</text>
<text xml:space="preserve" text-anchor="middle" x="264" y="-18.43" font-family="Consolas" font-size="11.00">{Log::cpp}::msgHandler</text>
</a>
</g>
</g>
<!-- Node6&#45;&gt;Node7 -->
<g id="edge10_Node000006_Node000007" class="edge">
<title>Node6&#45;&gt;Node7</title>
<g id="a_edge10_Node000006_Node000007"><a xlink:title=" ">
<path fill="none" stroke="#63b8ff" d="M401.24,-23.58C380.82,-24.38 358.44,-25.25 337.83,-26.05"/>
<polygon fill="#63b8ff" stroke="#63b8ff" points="406.01,-23.4 401.1,-25.84 404.73,-23.45 401.02,-23.59 401.02,-23.59 401.02,-23.59 404.73,-23.45 400.93,-21.34 406.01,-23.4"/>
</a>
</g>
</g>
<!-- Node7&#45;&gt;Node4 -->
<g id="edge11_Node000007_Node000004" class="edge">
<title>Node7&#45;&gt;Node4</title>
<g id="a_edge11_Node000007_Node000004"><a xlink:title=" ">
<path fill="none" stroke="#63b8ff" d="M184.24,-37.81C174.16,-38.96 163.86,-40.13 153.83,-41.27"/>
<polygon fill="#63b8ff" stroke="#63b8ff" points="188.94,-37.28 184.22,-40.08 187.66,-37.43 183.97,-37.85 183.97,-37.85 183.97,-37.85 187.66,-37.43 183.72,-35.61 188.94,-37.28"/>
</a>
</g>
</g>
<!-- Node8&#45;&gt;Node3 -->
<g id="edge13_Node000008_Node000003" class="edge">
<title>Node8&#45;&gt;Node3</title>
<g id="a_edge13_Node000008_Node000003"><a xlink:title=" ">
<path fill="none" stroke="#63b8ff" d="M600.2,-83.88C590.02,-83.88 579.74,-83.88 569.66,-83.88"/>
<polygon fill="#63b8ff" stroke="#63b8ff" points="604.95,-83.88 599.95,-86.13 603.67,-83.88 599.95,-83.88 599.95,-83.88 599.95,-83.88 603.67,-83.88 599.95,-81.63 604.95,-83.88"/>
</a>
</g>
</g>
<!-- Node8&#45;&gt;Node8 -->
<g id="edge14_Node000008_Node000008" class="edge">
<title>Node8&#45;&gt;Node8</title>
<g id="a_edge14_Node000008_Node000008"><a xlink:title=" ">
<path fill="none" stroke="#63b8ff" d="M751.03,-104.06C751.88,-111.27 737.21,-117.12 707,-117.12 669.82,-117.12 656.17,-108.25 666.05,-98.92"/>
<polygon fill="#63b8ff" stroke="#63b8ff" points="748.58,-99.97 753.07,-103.1 749.24,-101.07 751.14,-104.26 751.14,-104.26 751.14,-104.26 749.24,-101.07 749.21,-105.41 748.58,-99.97"/>
</a>
</g>
</g>
</g>
</svg>
