<?xml version="1.0" encoding="UTF-8" standalone="no"?>
<!DOCTYPE svg PUBLIC "-//W3C//DTD SVG 1.1//EN"
 "http://www.w3.org/Graphics/SVG/1.1/DTD/svg11.dtd">
<!-- Generated by graphviz version 14.0.0 (20250921.2048)
 -->
<!-- Title: anonymous_namespace{Log::cpp}::safe::startImpLogProcess Pages: 1 -->
<svg width="818pt" height="106pt"
 viewBox="0.00 0.00 818.00 106.00" xmlns="http://www.w3.org/2000/svg" xmlns:xlink="http://www.w3.org/1999/xlink">
<g id="graph0" class="graph" transform="scale(1 1) rotate(0) translate(4 101.5)">
<title>anonymous_namespace{Log::cpp}::safe::startImpLogProcess</title>
<!-- Node1 -->
<g id="Node000001" class="node">
<title>Node1</title>
<g id="a_Node000001"><a xlink:title=" ">
<polygon fill="#999999" stroke="none" points="346,-63.5 0,-63.5 0,-44.25 346,-44.25 346,-63.5"/>
<text xml:space="preserve" text-anchor="start" x="8" y="-50.05" font-family="Consolas" font-weight="bold" font-size="11.00">anonymous_namespace{Log::cpp}::safe::startImpLogProcess</text>
</a>
</g>
</g>
<!-- Node1&#45;&gt;Node1 -->
<g id="edge2_Node000001_Node000001" class="edge">
<title>Node1&#45;&gt;Node1</title>
<g id="a_edge2_Node000001_Node000001"><a xlink:title=" ">
<path fill="none" stroke="#63b8ff" d="M126.98,-63.36C103.87,-72.09 119.21,-81.5 173,-81.5 221.75,-81.5 238.92,-73.77 224.5,-65.82"/>
<polygon fill="#63b8ff" stroke="#63b8ff" points="220.13,-63.86 225.61,-63.85 221.3,-64.38 224.69,-65.91 224.69,-65.91 224.69,-65.91 221.3,-64.38 223.77,-67.96 220.13,-63.86"/>
</a>
</g>
</g>
<!-- Node2 -->
<g id="Node000002" class="node">
<title>Node2</title>
<g id="a_Node000002"><a xlink:href="../../dc/dba/namespacenpi_1_1app.html#a30b5245afa890e98f19f43c58f29e633" target="_top" xlink:title="Windows native fatal error message box.">
<polygon fill="white" stroke="none" points="566,-97.5 382,-97.5 382,-78.25 566,-78.25 566,-97.5"/>
<text xml:space="preserve" text-anchor="middle" x="474" y="-83.05" font-family="Consolas" font-size="11.00">npi::app::nativeFatalMessage</text>
</a>
</g>
</g>
<!-- Node1&#45;&gt;Node2 -->
<g id="edge1_Node000001_Node000002" class="edge">
<title>Node1&#45;&gt;Node2</title>
<g id="a_edge1_Node000001_Node000002"><a xlink:title=" ">
<path fill="none" stroke="#63b8ff" d="M258.48,-63.48C297.24,-67.89 343.25,-73.12 382.7,-77.61"/>
<polygon fill="#63b8ff" stroke="#63b8ff" points="387.26,-78.12 382.03,-79.8 385.98,-77.98 382.29,-77.56 382.29,-77.56 382.29,-77.56 385.98,-77.98 382.54,-75.32 387.26,-78.12"/>
</a>
</g>
</g>
<!-- Node3 -->
<g id="Node000003" class="node">
<title>Node3</title>
<g id="a_Node000003"><a xlink:href="../../dd/df2/namespaceanonymous__namespace_02_log_8cpp_03_1_1safe.html#acee0c3f06b3d9996946c9c55104868c4" target="_top" xlink:title=" ">
<polygon fill="white" stroke="none" points="563,-41.75 385,-41.75 385,0 563,0 563,-41.75"/>
<text xml:space="preserve" text-anchor="start" x="393" y="-27.3" font-family="Consolas" font-size="11.00">anonymous_namespace</text>
<text xml:space="preserve" text-anchor="start" x="393" y="-16.05" font-family="Consolas" font-size="11.00">{Log::cpp}::safe::win32Last</text>
<text xml:space="preserve" text-anchor="middle" x="474" y="-4.8" font-family="Consolas" font-size="11.00">Error</text>
</a>
</g>
</g>
<!-- Node1&#45;&gt;Node3 -->
<g id="edge3_Node000001_Node000003" class="edge">
<title>Node1&#45;&gt;Node3</title>
<g id="a_edge3_Node000001_Node000003"><a xlink:title=" ">
<path fill="none" stroke="#63b8ff" d="M260.88,-44.29C297.96,-40.19 341.3,-35.41 379.1,-31.24"/>
<polygon fill="#63b8ff" stroke="#63b8ff" points="383.91,-30.71 379.19,-33.49 382.64,-30.85 378.94,-31.26 378.94,-31.26 378.94,-31.26 382.64,-30.85 378.69,-29.02 383.91,-30.71"/>
</a>
</g>
</g>
<!-- Node3&#45;&gt;Node3 -->
<g id="edge6_Node000003_Node000003" class="edge">
<title>Node3&#45;&gt;Node3</title>
<g id="a_edge6_Node000003_Node000003"><a xlink:title=" ">
<path fill="none" stroke="#63b8ff" d="M431.36,-41.67C426.71,-51.32 440.92,-59.75 474,-59.75 499.84,-59.75 514.17,-54.61 516.98,-47.75"/>
<polygon fill="#63b8ff" stroke="#63b8ff" points="516.71,-42.89 519.24,-47.75 516.78,-44.17 516.99,-47.88 516.99,-47.88 516.99,-47.88 516.78,-44.17 514.75,-48.01 516.71,-42.89"/>
</a>
</g>
</g>
<!-- Node4 -->
<g id="Node000004" class="node">
<title>Node4</title>
<g id="a_Node000004"><a xlink:href="../../dd/df2/namespaceanonymous__namespace_02_log_8cpp_03_1_1safe.html#abc25ab769b48a34eb27ff7c789822b7e" target="_top" xlink:title=" ">
<polygon fill="white" stroke="none" points="810,-36.12 602,-36.12 602,-5.63 810,-5.63 810,-36.12"/>
<text xml:space="preserve" text-anchor="start" x="610" y="-21.68" font-family="Consolas" font-size="11.00">anonymous_namespace</text>
<text xml:space="preserve" text-anchor="middle" x="706" y="-10.43" font-family="Consolas" font-size="11.00">{Log::cpp}::safe::win32ErrorText</text>
</a>
</g>
</g>
<!-- Node3&#45;&gt;Node4 -->
<g id="edge4_Node000003_Node000004" class="edge">
<title>Node3&#45;&gt;Node4</title>
<g id="a_edge4_Node000003_Node000004"><a xlink:title=" ">
<path fill="none" stroke="#63b8ff" d="M562.94,-20.88C573.74,-20.88 584.89,-20.88 595.96,-20.88"/>
<polygon fill="#63b8ff" stroke="#63b8ff" points="600.88,-20.88 595.88,-23.13 599.6,-20.88 595.88,-20.88 595.88,-20.88 595.88,-20.88 599.6,-20.88 595.88,-18.63 600.88,-20.88"/>
</a>
</g>
</g>
<!-- Node4&#45;&gt;Node4 -->
<g id="edge5_Node000004_Node000004" class="edge">
<title>Node4&#45;&gt;Node4</title>
<g id="a_edge5_Node000004_Node000004"><a xlink:title=" ">
<path fill="none" stroke="#63b8ff" d="M665.57,-35.92C655.82,-45.25 669.3,-54.12 706,-54.12 735.82,-54.12 750.31,-48.27 749.47,-41.06"/>
<polygon fill="#63b8ff" stroke="#63b8ff" points="747.05,-36.97 751.53,-40.13 747.7,-38.07 749.59,-41.28 749.59,-41.28 749.59,-41.28 747.7,-38.07 747.65,-42.42 747.05,-36.97"/>
</a>
</g>
</g>
</g>
</svg>
