<?xml version="1.0" encoding="UTF-8" standalone="no"?>
<!DOCTYPE svg PUBLIC "-//W3C//DTD SVG 1.1//EN"
 "http://www.w3.org/Graphics/SVG/1.1/DTD/svg11.dtd">
<!-- Generated by graphviz version 14.0.0 (20250921.2048)
 -->
<!-- Title: anonymous_namespace{Log::cpp}::safe::windowsExceptionFilter Pages: 1 -->
<!--zoomable 240 -->

<svg id="main" version="1.1" xmlns="http://www.w3.org/2000/svg" xmlns:xlink="http://www.w3.org/1999/xlink" xml:space="preserve" onload="init(evt)">

<style type="text/css"><![CDATA[
.node, .edge {opacity: 0.7;}
.node.selected, .edge.selected {opacity: 1;}
.edge:hover path { stroke: red; }
.edge:hover polygon { stroke: red; fill: red; }
]]></style>

<defs>
  <circle id="rim" cx="0" cy="0" r="7"/>
  <circle id="rim2" cx="0" cy="0" r="3.5"/>
  <g id="zoomPlus">
    <use xlink:href="#rim" fill="#404040"><set attributeName="fill" to="#808080" begin="zoomplus.mouseover" end="zoomplus.mouseout"/></use>
    <path d="M-4,0h8M0,-4v8" fill="none" stroke="white" stroke-width="1.5" pointer-events="none"/>
  </g>
  <g id="zoomMin">
    <use xlink:href="#rim" fill="#404040"><set attributeName="fill" to="#808080" begin="zoomminus.mouseover" end="zoomminus.mouseout"/></use>
    <path d="M-4,0h8" fill="none" stroke="white" stroke-width="1.5" pointer-events="none"/>
  </g>
  <g id="arrowUp" transform="translate(30 24)">
    <use xlink:href="#rim"/>
    <path pointer-events="none" fill="none" stroke="white" stroke-width="1.5" d="M0,-3.0v7 M-2.5,-0.5L0,-3.0L2.5,-0.5"/>
  </g>
  <g id="arrowRight" transform="rotate(90) translate(36 -43)">
    <use xlink:href="#rim"/>
    <path pointer-events="none" fill="none" stroke="white" stroke-width="1.5" d="M0,-3.0v7 M-2.5,-0.5L0,-3.0L2.5,-0.5"/>
  </g>
  <g id="arrowDown" transform="rotate(180) translate(-30 -48)">
    <use xlink:href="#rim"/>
    <path pointer-events="none" fill="none" stroke="white" stroke-width="1.5" d="M0,-3.0v7 M-2.5,-0.5L0,-3.0L2.5,-0.5"/>
  </g>
  <g id="arrowLeft" transform="rotate(270) translate(-36 17)">
    <use xlink:href="#rim"/>
    <path pointer-events="none" fill="none" stroke="white" stroke-width="1.5" d="M0,-3.0v7 M-2.5,-0.5L0,-3.0L2.5,-0.5"/>
  </g>
  <g id="resetDef">
    <use xlink:href="#rim2" fill="#404040"><set attributeName="fill" to="#808080" begin="reset.mouseover" end="reset.mouseout"/></use>
  </g>
</defs>
<script type="application/ecmascript">
var viewWidth = 1074;
var viewHeight = 240;
var sectionId = 'dynsection-54';
</script>
<script type="application/ecmascript" xlink:href="../../svg.min.js"/>
<svg id="graph" class="graph">
<g id="viewport">
<title>anonymous_namespace{Log::cpp}::safe::windowsExceptionFilter</title>
<!-- Node1 -->
<g id="Node000001" class="node">
<title>Node1</title>
<g id="a_Node000001"><a xlink:title=" ">
<polygon fill="#999999" stroke="none" points="370,-140.88 0,-140.88 0,-121.62 370,-121.62 370,-140.88"/>
<text xml:space="preserve" text-anchor="start" x="8" y="-127.42" font-family="Consolas" font-weight="bold" font-size="11.00">anonymous_namespace{Log::cpp}::safe::windowsExceptionFilter</text>
</a>
</g>
</g>
<!-- Node1&#45;&gt;Node1 -->
<g id="edge14_Node000001_Node000001" class="edge">
<title>Node1&#45;&gt;Node1</title>
<g id="a_edge14_Node000001_Node000001"><a xlink:title=" ">
<path fill="none" stroke="#63b8ff" d="M136.69,-140.73C112.42,-149.46 128.53,-158.88 185,-158.88 236.62,-158.88 254.51,-151.01 238.67,-142.99"/>
<polygon fill="#63b8ff" stroke="#63b8ff" points="234.43,-141.21 239.91,-141.07 235.61,-141.7 239.04,-143.15 239.04,-143.15 239.04,-143.15 235.61,-141.7 238.17,-145.22 234.43,-141.21"/>
</a>
</g>
</g>
<!-- Node2 -->
<g id="Node000002" class="node">
<title>Node2</title>
<g id="a_Node000002"><a xlink:href="../../dd/df2/namespaceanonymous__namespace_02_log_8cpp_03_1_1safe.html#a75a945c8f2e5d069f7c6f13667c2ee57" target="_top" xlink:title=" ">
<polygon fill="white" stroke="none" points="590,-213.5 412,-213.5 412,-183 590,-183 590,-213.5"/>
<text xml:space="preserve" text-anchor="start" x="420" y="-199.05" font-family="Consolas" font-size="11.00">anonymous_namespace</text>
<text xml:space="preserve" text-anchor="middle" x="501" y="-187.8" font-family="Consolas" font-size="11.00">{Log::cpp}::safe::appendHex</text>
</a>
</g>
</g>
<!-- Node1&#45;&gt;Node2 -->
<g id="edge1_Node000001_Node000002" class="edge">
<title>Node1&#45;&gt;Node2</title>
<g id="a_edge1_Node000001_Node000002"><a xlink:title=" ">
<path fill="none" stroke="#63b8ff" d="M230.99,-140.85C281.01,-151.52 362.69,-168.95 422.94,-181.81"/>
<polygon fill="#63b8ff" stroke="#63b8ff" points="427.51,-182.78 422.15,-183.94 426.26,-182.52 422.62,-181.74 422.62,-181.74 422.62,-181.74 426.26,-182.52 423.09,-179.54 427.51,-182.78"/>
</a>
</g>
</g>
<!-- Node3 -->
<g id="Node000003" class="node">
<title>Node3</title>
<g id="a_Node000003"><a xlink:href="../../dd/df2/namespaceanonymous__namespace_02_log_8cpp_03_1_1safe.html#aa8d11c260254c761c7437280b4284d17" target="_top" xlink:title=" ">
<polygon fill="white" stroke="none" points="590,-146.5 412,-146.5 412,-116 590,-116 590,-146.5"/>
<text xml:space="preserve" text-anchor="start" x="420" y="-132.05" font-family="Consolas" font-size="11.00">anonymous_namespace</text>
<text xml:space="preserve" text-anchor="middle" x="501" y="-120.8" font-family="Consolas" font-size="11.00">{Log::cpp}::safe::appendTxt</text>
</a>
</g>
</g>
<!-- Node1&#45;&gt;Node3 -->
<g id="edge3_Node000001_Node000003" class="edge">
<title>Node1&#45;&gt;Node3</title>
<g id="a_edge3_Node000001_Node000003"><a xlink:title=" ">
<path fill="none" stroke="#63b8ff" d="M369.56,-131.25C382.14,-131.25 394.47,-131.25 406.24,-131.25"/>
<polygon fill="#63b8ff" stroke="#63b8ff" points="411.12,-131.25 406.12,-133.5 409.84,-131.25 406.12,-131.25 406.12,-131.25 406.12,-131.25 409.84,-131.25 406.12,-129 411.12,-131.25"/>
</a>
</g>
</g>
<!-- Node6 -->
<g id="Node000006" class="node">
<title>Node6</title>
<g id="a_Node000006"><a xlink:href="../../dd/df2/namespaceanonymous__namespace_02_log_8cpp_03_1_1safe.html#a97522aab6ec53ce2693cf4a5432927bf" target="_top" xlink:title=" ">
<polygon fill="white" stroke="none" points="596,-79.5 406,-79.5 406,-49 596,-49 596,-79.5"/>
<text xml:space="preserve" text-anchor="start" x="414" y="-65.05" font-family="Consolas" font-size="11.00">anonymous_namespace</text>
<text xml:space="preserve" text-anchor="middle" x="501" y="-53.8" font-family="Consolas" font-size="11.00">{Log::cpp}::safe::impLogWrite</text>
</a>
</g>
</g>
<!-- Node1&#45;&gt;Node6 -->
<g id="edge9_Node000001_Node000006" class="edge">
<title>Node1&#45;&gt;Node6</title>
<g id="a_edge9_Node000001_Node000006"><a xlink:title=" ">
<path fill="none" stroke="#63b8ff" d="M230.99,-121.65C281.01,-110.98 362.69,-93.55 422.94,-80.69"/>
<polygon fill="#63b8ff" stroke="#63b8ff" points="427.51,-79.72 423.09,-82.96 426.26,-79.98 422.62,-80.76 422.62,-80.76 422.62,-80.76 426.26,-79.98 422.15,-78.56 427.51,-79.72"/>
</a>
</g>
</g>
<!-- Node2&#45;&gt;Node2 -->
<g id="edge2_Node000002_Node000002" class="edge">
<title>Node2&#45;&gt;Node2</title>
<g id="a_edge2_Node000002_Node000002"><a xlink:title=" ">
<path fill="none" stroke="#63b8ff" d="M460.05,-213.3C450.17,-222.62 463.82,-231.5 501,-231.5 531.21,-231.5 545.88,-225.64 545.03,-218.44"/>
<polygon fill="#63b8ff" stroke="#63b8ff" points="542.58,-214.34 547.07,-217.48 543.24,-215.44 545.14,-218.63 545.14,-218.63 545.14,-218.63 543.24,-215.44 543.21,-219.79 542.58,-214.34"/>
</a>
</g>
</g>
<!-- Node3&#45;&gt;Node3 -->
<g id="edge8_Node000003_Node000003" class="edge">
<title>Node3&#45;&gt;Node3</title>
<g id="a_edge8_Node000003_Node000003"><a xlink:title=" ">
<path fill="none" stroke="#63b8ff" d="M460.05,-146.3C450.17,-155.62 463.82,-164.5 501,-164.5 531.21,-164.5 545.88,-158.64 545.03,-151.44"/>
<polygon fill="#63b8ff" stroke="#63b8ff" points="542.58,-147.34 547.07,-150.48 543.24,-148.44 545.14,-151.63 545.14,-151.63 545.14,-151.63 543.24,-148.44 543.21,-152.79 542.58,-147.34"/>
</a>
</g>
</g>
<!-- Node4 -->
<g id="Node000004" class="node">
<title>Node4</title>
<g id="a_Node000004"><a xlink:href="../../dd/df2/namespaceanonymous__namespace_02_log_8cpp_03_1_1safe.html#a65353ac3c8d675a9a827bed9e11acc17" target="_top" xlink:title=" ">
<polygon fill="white" stroke="none" points="825,-146.5 647,-146.5 647,-116 825,-116 825,-146.5"/>
<text xml:space="preserve" text-anchor="start" x="655" y="-132.05" font-family="Consolas" font-size="11.00">anonymous_namespace</text>
<text xml:space="preserve" text-anchor="middle" x="736" y="-120.8" font-family="Consolas" font-size="11.00">{Log::cpp}::safe::appendChr</text>
</a>
</g>
</g>
<!-- Node3&#45;&gt;Node4 -->
<g id="edge4_Node000003_Node000004" class="edge">
<title>Node3&#45;&gt;Node4</title>
<g id="a_edge4_Node000003_Node000004"><a xlink:title=" ">
<path fill="none" stroke="#63b8ff" d="M589.76,-131.25C606.53,-131.25 624.15,-131.25 641.11,-131.25"/>
<polygon fill="#63b8ff" stroke="#63b8ff" points="646.11,-131.25 641.11,-133.5 644.82,-131.25 641.11,-131.25 641.11,-131.25 641.11,-131.25 644.82,-131.25 641.11,-129 646.11,-131.25"/>
</a>
</g>
</g>
<!-- Node4&#45;&gt;Node4 -->
<g id="edge5_Node000004_Node000004" class="edge">
<title>Node4&#45;&gt;Node4</title>
<g id="a_edge5_Node000004_Node000004"><a xlink:title=" ">
<path fill="none" stroke="#63b8ff" d="M695.05,-146.3C685.17,-155.62 698.82,-164.5 736,-164.5 766.21,-164.5 780.88,-158.64 780.03,-151.44"/>
<polygon fill="#63b8ff" stroke="#63b8ff" points="777.58,-147.34 782.07,-150.48 778.24,-148.44 780.14,-151.63 780.14,-151.63 780.14,-151.63 778.24,-148.44 778.21,-152.79 777.58,-147.34"/>
</a>
</g>
</g>
<!-- Node5 -->
<g id="Node000005" class="node">
<title>Node5</title>
<g id="a_Node000005"><a xlink:href="../../dd/df2/namespaceanonymous__namespace_02_log_8cpp_03_1_1safe.html#a1e4219749cab61533a6faf773fe7cddb" target="_top" xlink:title=" ">
<polygon fill="white" stroke="none" points="1066,-146.5 876,-146.5 876,-116 1066,-116 1066,-146.5"/>
<text xml:space="preserve" text-anchor="start" x="884" y="-132.05" font-family="Consolas" font-size="11.00">anonymous_namespace</text>
<text xml:space="preserve" text-anchor="middle" x="971" y="-120.8" font-family="Consolas" font-size="11.00">{Log::cpp}::safe::isSpaceChar</text>
</a>
</g>
</g>
<!-- Node4&#45;&gt;Node5 -->
<g id="edge6_Node000004_Node000005" class="edge">
<title>Node4&#45;&gt;Node5</title>
<g id="a_edge6_Node000004_Node000005"><a xlink:title=" ">
<path fill="none" stroke="#63b8ff" d="M824.76,-131.25C839.56,-131.25 855.03,-131.25 870.11,-131.25"/>
<polygon fill="#63b8ff" stroke="#63b8ff" points="874.88,-131.25 869.88,-133.5 873.6,-131.25 869.88,-131.25 869.88,-131.25 869.88,-131.25 873.6,-131.25 869.88,-129 874.88,-131.25"/>
</a>
</g>
</g>
<!-- Node5&#45;&gt;Node5 -->
<g id="edge7_Node000005_Node000005" class="edge">
<title>Node5&#45;&gt;Node5</title>
<g id="a_edge7_Node000005_Node000005"><a xlink:title=" ">
<path fill="none" stroke="#63b8ff" d="M930.05,-146.3C920.17,-155.62 933.82,-164.5 971,-164.5 1001.21,-164.5 1015.88,-158.64 1015.03,-151.44"/>
<polygon fill="#63b8ff" stroke="#63b8ff" points="1012.58,-147.34 1017.07,-150.48 1013.24,-148.44 1015.14,-151.63 1015.14,-151.63 1015.14,-151.63 1013.24,-148.44 1013.21,-152.79 1012.58,-147.34"/>
</a>
</g>
</g>
<!-- Node6&#45;&gt;Node6 -->
<g id="edge10_Node000006_Node000006" class="edge">
<title>Node6&#45;&gt;Node6</title>
<g id="a_edge10_Node000006_Node000006"><a xlink:title=" ">
<path fill="none" stroke="#63b8ff" d="M460.05,-79.3C450.17,-88.62 463.82,-97.5 501,-97.5 531.21,-97.5 545.88,-91.64 545.03,-84.44"/>
<polygon fill="#63b8ff" stroke="#63b8ff" points="542.58,-80.34 547.07,-83.48 543.24,-81.44 545.14,-84.63 545.14,-84.63 545.14,-84.63 543.24,-81.44 543.21,-85.79 542.58,-80.34"/>
</a>
</g>
</g>
<!-- Node7 -->
<g id="Node000007" class="node">
<title>Node7</title>
<g id="a_Node000007"><a xlink:href="../../dc/dba/namespacenpi_1_1app.html#a30b5245afa890e98f19f43c58f29e633" target="_top" xlink:title="Windows native fatal error message box.">
<polygon fill="white" stroke="none" points="828,-85.88 644,-85.88 644,-66.62 828,-66.62 828,-85.88"/>
<text xml:space="preserve" text-anchor="middle" x="736" y="-71.42" font-family="Consolas" font-size="11.00">npi::app::nativeFatalMessage</text>
</a>
</g>
</g>
<!-- Node6&#45;&gt;Node7 -->
<g id="edge11_Node000006_Node000007" class="edge">
<title>Node6&#45;&gt;Node7</title>
<g id="a_edge11_Node000006_Node000007"><a xlink:title=" ">
<path fill="none" stroke="#63b8ff" d="M595.76,-69.08C609.7,-69.8 624.1,-70.54 638.1,-71.26"/>
<polygon fill="#63b8ff" stroke="#63b8ff" points="642.86,-71.5 637.75,-73.49 641.58,-71.44 637.87,-71.25 637.87,-71.25 637.87,-71.25 641.58,-71.44 637.98,-69 642.86,-71.5"/>
</a>
</g>
</g>
<!-- Node8 -->
<g id="Node000008" class="node">
<title>Node8</title>
<g id="a_Node000008"><a xlink:href="../../dd/df2/namespaceanonymous__namespace_02_log_8cpp_03_1_1safe.html#abc25ab769b48a34eb27ff7c789822b7e" target="_top" xlink:title=" ">
<polygon fill="white" stroke="none" points="840,-30.5 632,-30.5 632,0 840,0 840,-30.5"/>
<text xml:space="preserve" text-anchor="start" x="640" y="-16.05" font-family="Consolas" font-size="11.00">anonymous_namespace</text>
<text xml:space="preserve" text-anchor="middle" x="736" y="-4.8" font-family="Consolas" font-size="11.00">{Log::cpp}::safe::win32ErrorText</text>
</a>
</g>
</g>
<!-- Node6&#45;&gt;Node8 -->
<g id="edge12_Node000006_Node000008" class="edge">
<title>Node6&#45;&gt;Node8</title>
<g id="a_edge12_Node000006_Node000008"><a xlink:title=" ">
<path fill="none" stroke="#63b8ff" d="M574.45,-49.01C600.53,-43.53 630.06,-37.32 656.63,-31.73"/>
<polygon fill="#63b8ff" stroke="#63b8ff" points="661.41,-30.73 656.98,-33.96 660.15,-30.99 656.51,-31.76 656.51,-31.76 656.51,-31.76 660.15,-30.99 656.05,-29.55 661.41,-30.73"/>
</a>
</g>
</g>
<!-- Node8&#45;&gt;Node8 -->
<g id="edge13_Node000008_Node000008" class="edge">
<title>Node8&#45;&gt;Node8</title>
<g id="a_edge13_Node000008_Node000008"><a xlink:title=" ">
<path fill="none" stroke="#63b8ff" d="M695.05,-30.3C685.17,-39.62 698.82,-48.5 736,-48.5 766.21,-48.5 780.88,-42.64 780.03,-35.44"/>
<polygon fill="#63b8ff" stroke="#63b8ff" points="777.58,-31.34 782.07,-34.48 778.24,-32.44 780.14,-35.63 780.14,-35.63 780.14,-35.63 778.24,-32.44 778.21,-36.79 777.58,-31.34"/>
</a>
</g>
</g>
</g>
</svg>

<g id="navigator" transform="translate(0 0)" fill="#404254">
  <rect fill="#f2f5e9" fill-opacity="0.5" stroke="#606060" stroke-width=".5" x="0" y="0" width="60" height="60"/>
  <use id="zoomplus" xlink:href="#zoomPlus" x="17" y="9" onmousedown="handleZoom(evt,'in')"/>
  <use id="zoomminus" xlink:href="#zoomMin" x="42" y="9" onmousedown="handleZoom(evt,'out')"/>
  <use id="reset" xlink:href="#resetDef" x="30" y="36" onmousedown="handleReset()"/>
   <use id="arrowup" xlink:href="#arrowUp" x="0" y="0" onmousedown="handlePan(0,-1)"/>
  <use id="arrowright" xlink:href="#arrowRight" x="0" y="0" onmousedown="handlePan(1,0)"/>
  <use id="arrowdown" xlink:href="#arrowDown" x="0" y="0" onmousedown="handlePan(0,1)"/>
  <use id="arrowleft" xlink:href="#arrowLeft" x="0" y="0" onmousedown="handlePan(-1,0)"/>
</g>
<svg viewBox="0 0 15 15" width="100%" height="30px" preserveAspectRatio="xMaxYMin meet">
 <g id="arrow_out" transform="scale(0.3 0.3)">
  <a xlink:href="namespaceanonymous__namespace_02_log_8cpp_03_1_1safe_a2fc634cd009955d042c53cb5f5eebcb5_cgraph_org.svg" target="_base">
   <rect id="button" ry="5" rx="5" y="6" x="6" height="38" width="38"
        fill="#f2f5e9" fill-opacity="0.5" stroke="#606060" stroke-width="1.0"/>
   <path id="arrow"
     d="M 11.500037,31.436501 C 11.940474,20.09759 22.043105,11.32322 32.158766,21.979434 L 37.068811,17.246167 C 37.068811,17.246167 37.088388,32 37.088388,32 L 22.160133,31.978069 C 22.160133,31.978069 26.997745,27.140456 26.997745,27.140456 C 18.528582,18.264221 13.291696,25.230495 11.500037,31.436501 z"
     style="fill:#404040;"/>
  </a>
 </g>
</svg>

<style type='text/css'>
<![CDATA[
[data-mouse-over-selected='false'] { opacity: 0.7; }
[data-mouse-over-selected='true']  { opacity: 1.0; }
]]>
</style>
<script type="application/ecmascript"><![CDATA[
document.addEventListener('DOMContentLoaded', (event) => {
  highlightEdges();
  highlightAdjacentNodes();
});
]]></script>
</svg>
