<?xml version="1.0" encoding="UTF-8" standalone="no"?>
<!DOCTYPE svg PUBLIC "-//W3C//DTD SVG 1.1//EN"
 "http://www.w3.org/Graphics/SVG/1.1/DTD/svg11.dtd">
<!-- Generated by graphviz version 14.0.0 (20250921.2048)
 -->
<!-- Title: anonymous_namespace{Log::cpp}::safe::invalidParamHandler Pages: 1 -->
<!--zoomable 318 -->

<svg id="main" version="1.1" xmlns="http://www.w3.org/2000/svg" xmlns:xlink="http://www.w3.org/1999/xlink" xml:space="preserve" onload="init(evt)">

<style type="text/css"><![CDATA[
.node, .edge {opacity: 0.7;}
.node.selected, .edge.selected {opacity: 1;}
.edge:hover path { stroke: red; }
.edge:hover polygon { stroke: red; fill: red; }
]]></style>

<defs>
  <circle id="rim" cx="0" cy="0" r="7"/>
  <circle id="rim2" cx="0" cy="0" r="3.5"/>
  <g id="zoomPlus">
    <use xlink:href="#rim" fill="#404040"><set attributeName="fill" to="#808080" begin="zoomplus.mouseover" end="zoomplus.mouseout"/></use>
    <path d="M-4,0h8M0,-4v8" fill="none" stroke="white" stroke-width="1.5" pointer-events="none"/>
  </g>
  <g id="zoomMin">
    <use xlink:href="#rim" fill="#404040"><set attributeName="fill" to="#808080" begin="zoomminus.mouseover" end="zoomminus.mouseout"/></use>
    <path d="M-4,0h8" fill="none" stroke="white" stroke-width="1.5" pointer-events="none"/>
  </g>
  <g id="arrowUp" transform="translate(30 24)">
    <use xlink:href="#rim"/>
    <path pointer-events="none" fill="none" stroke="white" stroke-width="1.5" d="M0,-3.0v7 M-2.5,-0.5L0,-3.0L2.5,-0.5"/>
  </g>
  <g id="arrowRight" transform="rotate(90) translate(36 -43)">
    <use xlink:href="#rim"/>
    <path pointer-events="none" fill="none" stroke="white" stroke-width="1.5" d="M0,-3.0v7 M-2.5,-0.5L0,-3.0L2.5,-0.5"/>
  </g>
  <g id="arrowDown" transform="rotate(180) translate(-30 -48)">
    <use xlink:href="#rim"/>
    <path pointer-events="none" fill="none" stroke="white" stroke-width="1.5" d="M0,-3.0v7 M-2.5,-0.5L0,-3.0L2.5,-0.5"/>
  </g>
  <g id="arrowLeft" transform="rotate(270) translate(-36 17)">
    <use xlink:href="#rim"/>
    <path pointer-events="none" fill="none" stroke="white" stroke-width="1.5" d="M0,-3.0v7 M-2.5,-0.5L0,-3.0L2.5,-0.5"/>
  </g>
  <g id="resetDef">
    <use xlink:href="#rim2" fill="#404040"><set attributeName="fill" to="#808080" begin="reset.mouseover" end="reset.mouseout"/></use>
  </g>
</defs>
<script type="application/ecmascript">
var viewWidth = 1062;
var viewHeight = 318;
var sectionId = 'dynsection-32';
</script>
<script type="application/ecmascript" xlink:href="../../svg.min.js"/>
<svg id="graph" class="graph">
<g id="viewport">
<title>anonymous_namespace{Log::cpp}::safe::invalidParamHandler</title>
<!-- Node1 -->
<g id="Node000001" class="node">
<title>Node1</title>
<g id="a_Node000001"><a xlink:title=" ">
<polygon fill="#999999" stroke="none" points="352,-188.88 0,-188.88 0,-169.62 352,-169.62 352,-188.88"/>
<text xml:space="preserve" text-anchor="start" x="8" y="-175.43" font-family="Consolas" font-weight="bold" font-size="11.00">anonymous_namespace{Log::cpp}::safe::invalidParamHandler</text>
</a>
</g>
</g>
<!-- Node1&#45;&gt;Node1 -->
<g id="edge19_Node000001_Node000001" class="edge">
<title>Node1&#45;&gt;Node1</title>
<g id="a_edge19_Node000001_Node000001"><a xlink:title=" ">
<path fill="none" stroke="#63b8ff" d="M128.61,-188.73C104.8,-197.46 120.6,-206.88 176,-206.88 226.21,-206.88 243.89,-199.15 229.04,-191.2"/>
<polygon fill="#63b8ff" stroke="#63b8ff" points="224.51,-189.22 229.99,-189.16 225.68,-189.73 229.09,-191.22 229.09,-191.22 229.09,-191.22 225.68,-189.73 228.19,-193.28 224.51,-189.22"/>
</a>
</g>
</g>
<!-- Node2 -->
<g id="Node000002" class="node">
<title>Node2</title>
<g id="a_Node000002"><a xlink:href="../../dd/df2/namespaceanonymous__namespace_02_log_8cpp_03_1_1safe.html#a65353ac3c8d675a9a827bed9e11acc17" target="_top" xlink:title=" ">
<polygon fill="white" stroke="none" points="813,-291.5 635,-291.5 635,-261 813,-261 813,-291.5"/>
<text xml:space="preserve" text-anchor="start" x="643" y="-277.05" font-family="Consolas" font-size="11.00">anonymous_namespace</text>
<text xml:space="preserve" text-anchor="middle" x="724" y="-265.8" font-family="Consolas" font-size="11.00">{Log::cpp}::safe::appendChr</text>
</a>
</g>
</g>
<!-- Node1&#45;&gt;Node2 -->
<g id="edge1_Node000001_Node000002" class="edge">
<title>Node1&#45;&gt;Node2</title>
<g id="a_edge1_Node000001_Node000002"><a xlink:title=" ">
<path fill="none" stroke="#63b8ff" d="M189.93,-188.79C221.65,-211.53 306.67,-268.48 388,-288.25 469.93,-308.16 566.42,-301.69 634.75,-292.33"/>
<polygon fill="#63b8ff" stroke="#63b8ff" points="639.65,-291.64 635.01,-294.56 638.38,-291.82 634.7,-292.33 634.7,-292.33 634.7,-292.33 638.38,-291.82 634.39,-290.1 639.65,-291.64"/>
</a>
</g>
</g>
<!-- Node4 -->
<g id="Node000004" class="node">
<title>Node4</title>
<g id="a_Node000004"><a xlink:href="../../dd/df2/namespaceanonymous__namespace_02_log_8cpp_03_1_1safe.html#a0b4f620e950ef2e9f44027327f4bd27f" target="_top" xlink:title=" ">
<polygon fill="white" stroke="none" points="575,-194.5 397,-194.5 397,-164 575,-164 575,-194.5"/>
<text xml:space="preserve" text-anchor="start" x="405" y="-180.05" font-family="Consolas" font-size="11.00">anonymous_namespace</text>
<text xml:space="preserve" text-anchor="middle" x="486" y="-168.8" font-family="Consolas" font-size="11.00">{Log::cpp}::safe::appendDec</text>
</a>
</g>
</g>
<!-- Node1&#45;&gt;Node4 -->
<g id="edge5_Node000001_Node000004" class="edge">
<title>Node1&#45;&gt;Node4</title>
<g id="a_edge5_Node000001_Node000004"><a xlink:title=" ">
<path fill="none" stroke="#63b8ff" d="M351.7,-179.25C365.12,-179.25 378.32,-179.25 390.89,-179.25"/>
<polygon fill="#63b8ff" stroke="#63b8ff" points="395.8,-179.25 390.8,-181.5 394.51,-179.25 390.8,-179.25 390.8,-179.25 390.8,-179.25 394.51,-179.25 390.8,-177 395.8,-179.25"/>
</a>
</g>
</g>
<!-- Node6 -->
<g id="Node000006" class="node">
<title>Node6</title>
<g id="a_Node000006"><a xlink:href="../../dd/df2/namespaceanonymous__namespace_02_log_8cpp_03_1_1safe.html#aa8d11c260254c761c7437280b4284d17" target="_top" xlink:title=" ">
<polygon fill="white" stroke="none" points="575,-261.5 397,-261.5 397,-231 575,-231 575,-261.5"/>
<text xml:space="preserve" text-anchor="start" x="405" y="-247.05" font-family="Consolas" font-size="11.00">anonymous_namespace</text>
<text xml:space="preserve" text-anchor="middle" x="486" y="-235.8" font-family="Consolas" font-size="11.00">{Log::cpp}::safe::appendTxt</text>
</a>
</g>
</g>
<!-- Node1&#45;&gt;Node6 -->
<g id="edge9_Node000001_Node000006" class="edge">
<title>Node1&#45;&gt;Node6</title>
<g id="a_edge9_Node000001_Node000006"><a xlink:title=" ">
<path fill="none" stroke="#63b8ff" d="M221.13,-188.85C270.1,-199.5 349.99,-216.88 409.06,-229.73"/>
<polygon fill="#63b8ff" stroke="#63b8ff" points="413.88,-230.78 408.51,-231.91 412.62,-230.51 408.99,-229.72 408.99,-229.72 408.99,-229.72 412.62,-230.51 409.47,-227.52 413.88,-230.78"/>
</a>
</g>
</g>
<!-- Node7 -->
<g id="Node000007" class="node">
<title>Node7</title>
<g id="a_Node000007"><a xlink:href="../../dd/df2/namespaceanonymous__namespace_02_log_8cpp_03_1_1safe.html#aee2abc51c02c7af63c137ba0ea58c71a" target="_top" xlink:title=" ">
<polygon fill="white" stroke="none" points="584,-127.5 388,-127.5 388,-97 584,-97 584,-127.5"/>
<text xml:space="preserve" text-anchor="start" x="396" y="-113.05" font-family="Consolas" font-size="11.00">anonymous_namespace</text>
<text xml:space="preserve" text-anchor="middle" x="486" y="-101.8" font-family="Consolas" font-size="11.00">{Log::cpp}::safe::hardFailFast</text>
</a>
</g>
</g>
<!-- Node1&#45;&gt;Node7 -->
<g id="edge12_Node000001_Node000007" class="edge">
<title>Node1&#45;&gt;Node7</title>
<g id="a_edge12_Node000001_Node000007"><a xlink:title=" ">
<path fill="none" stroke="#63b8ff" d="M221.13,-169.65C270.1,-159 349.99,-141.62 409.06,-128.77"/>
<polygon fill="#63b8ff" stroke="#63b8ff" points="413.88,-127.72 409.47,-130.98 412.62,-127.99 408.99,-128.78 408.99,-128.78 408.99,-128.78 412.62,-127.99 408.51,-126.59 413.88,-127.72"/>
</a>
</g>
</g>
<!-- Node8 -->
<g id="Node000008" class="node">
<title>Node8</title>
<g id="a_Node000008"><a xlink:href="../../dd/df2/namespaceanonymous__namespace_02_log_8cpp_03_1_1safe.html#a97522aab6ec53ce2693cf4a5432927bf" target="_top" xlink:title=" ">
<polygon fill="white" stroke="none" points="581,-60.5 391,-60.5 391,-30 581,-30 581,-60.5"/>
<text xml:space="preserve" text-anchor="start" x="399" y="-46.05" font-family="Consolas" font-size="11.00">anonymous_namespace</text>
<text xml:space="preserve" text-anchor="middle" x="486" y="-34.8" font-family="Consolas" font-size="11.00">{Log::cpp}::safe::impLogWrite</text>
</a>
</g>
</g>
<!-- Node1&#45;&gt;Node8 -->
<g id="edge14_Node000001_Node000008" class="edge">
<title>Node1&#45;&gt;Node8</title>
<g id="a_edge14_Node000001_Node000008"><a xlink:title=" ">
<path fill="none" stroke="#63b8ff" d="M198.66,-169.83C249.8,-147.58 378.71,-91.49 444.7,-62.78"/>
<polygon fill="#63b8ff" stroke="#63b8ff" points="449,-60.91 445.31,-64.97 447.83,-61.42 444.42,-62.91 444.42,-62.91 444.42,-62.91 447.83,-61.42 443.52,-60.84 449,-60.91"/>
</a>
</g>
</g>
<!-- Node2&#45;&gt;Node2 -->
<g id="edge2_Node000002_Node000002" class="edge">
<title>Node2&#45;&gt;Node2</title>
<g id="a_edge2_Node000002_Node000002"><a xlink:title=" ">
<path fill="none" stroke="#63b8ff" d="M683.05,-291.3C673.17,-300.62 686.82,-309.5 724,-309.5 754.21,-309.5 768.88,-303.64 768.03,-296.44"/>
<polygon fill="#63b8ff" stroke="#63b8ff" points="765.58,-292.34 770.07,-295.48 766.24,-293.44 768.14,-296.63 768.14,-296.63 768.14,-296.63 766.24,-293.44 766.21,-297.79 765.58,-292.34"/>
</a>
</g>
</g>
<!-- Node3 -->
<g id="Node000003" class="node">
<title>Node3</title>
<g id="a_Node000003"><a xlink:href="../../dd/df2/namespaceanonymous__namespace_02_log_8cpp_03_1_1safe.html#a1e4219749cab61533a6faf773fe7cddb" target="_top" xlink:title=" ">
<polygon fill="white" stroke="none" points="1054,-291.5 864,-291.5 864,-261 1054,-261 1054,-291.5"/>
<text xml:space="preserve" text-anchor="start" x="872" y="-277.05" font-family="Consolas" font-size="11.00">anonymous_namespace</text>
<text xml:space="preserve" text-anchor="middle" x="959" y="-265.8" font-family="Consolas" font-size="11.00">{Log::cpp}::safe::isSpaceChar</text>
</a>
</g>
</g>
<!-- Node2&#45;&gt;Node3 -->
<g id="edge3_Node000002_Node000003" class="edge">
<title>Node2&#45;&gt;Node3</title>
<g id="a_edge3_Node000002_Node000003"><a xlink:title=" ">
<path fill="none" stroke="#63b8ff" d="M812.76,-276.25C827.56,-276.25 843.03,-276.25 858.11,-276.25"/>
<polygon fill="#63b8ff" stroke="#63b8ff" points="862.88,-276.25 857.88,-278.5 861.6,-276.25 857.88,-276.25 857.88,-276.25 857.88,-276.25 861.6,-276.25 857.88,-274 862.88,-276.25"/>
</a>
</g>
</g>
<!-- Node3&#45;&gt;Node3 -->
<g id="edge4_Node000003_Node000003" class="edge">
<title>Node3&#45;&gt;Node3</title>
<g id="a_edge4_Node000003_Node000003"><a xlink:title=" ">
<path fill="none" stroke="#63b8ff" d="M918.05,-291.3C908.17,-300.62 921.82,-309.5 959,-309.5 989.21,-309.5 1003.88,-303.64 1003.03,-296.44"/>
<polygon fill="#63b8ff" stroke="#63b8ff" points="1000.58,-292.34 1005.07,-295.48 1001.24,-293.44 1003.14,-296.63 1003.14,-296.63 1003.14,-296.63 1001.24,-293.44 1001.21,-297.79 1000.58,-292.34"/>
</a>
</g>
</g>
<!-- Node4&#45;&gt;Node4 -->
<g id="edge6_Node000004_Node000004" class="edge">
<title>Node4&#45;&gt;Node4</title>
<g id="a_edge6_Node000004_Node000004"><a xlink:title=" ">
<path fill="none" stroke="#63b8ff" d="M444.52,-194.3C434.52,-203.62 448.35,-212.5 486,-212.5 516.59,-212.5 531.46,-206.64 530.59,-199.44"/>
<polygon fill="#63b8ff" stroke="#63b8ff" points="528.11,-195.34 532.62,-198.45 528.77,-196.43 530.7,-199.62 530.7,-199.62 530.7,-199.62 528.77,-196.43 528.77,-200.78 528.11,-195.34"/>
</a>
</g>
</g>
<!-- Node5 -->
<g id="Node000005" class="node">
<title>Node5</title>
<g id="a_Node000005"><a xlink:href="../../dd/df2/namespaceanonymous__namespace_02_log_8cpp_03_1_1safe.html#ab261e5125e925c910ea977d0ac217ab6" target="_top" xlink:title=" ">
<polygon fill="white" stroke="none" points="813,-194.5 635,-194.5 635,-164 813,-164 813,-194.5"/>
<text xml:space="preserve" text-anchor="start" x="643" y="-180.05" font-family="Consolas" font-size="11.00">anonymous_namespace</text>
<text xml:space="preserve" text-anchor="middle" x="724" y="-168.8" font-family="Consolas" font-size="11.00">{Log::cpp}::safe::decDigits</text>
</a>
</g>
</g>
<!-- Node4&#45;&gt;Node5 -->
<g id="edge7_Node000004_Node000005" class="edge">
<title>Node4&#45;&gt;Node5</title>
<g id="a_edge7_Node000004_Node000005"><a xlink:title=" ">
<path fill="none" stroke="#63b8ff" d="M574.88,-179.25C592.54,-179.25 611.16,-179.25 629.02,-179.25"/>
<polygon fill="#63b8ff" stroke="#63b8ff" points="633.83,-179.25 628.83,-181.5 632.55,-179.25 628.83,-179.25 628.83,-179.25 628.83,-179.25 632.55,-179.25 628.83,-177 633.83,-179.25"/>
</a>
</g>
</g>
<!-- Node5&#45;&gt;Node5 -->
<g id="edge8_Node000005_Node000005" class="edge">
<title>Node5&#45;&gt;Node5</title>
<g id="a_edge8_Node000005_Node000005"><a xlink:title=" ">
<path fill="none" stroke="#63b8ff" d="M683.05,-194.3C673.17,-203.62 686.82,-212.5 724,-212.5 754.21,-212.5 768.88,-206.64 768.03,-199.44"/>
<polygon fill="#63b8ff" stroke="#63b8ff" points="765.58,-195.34 770.07,-198.48 766.24,-196.44 768.14,-199.63 768.14,-199.63 768.14,-199.63 766.24,-196.44 766.21,-200.79 765.58,-195.34"/>
</a>
</g>
</g>
<!-- Node6&#45;&gt;Node2 -->
<g id="edge10_Node000006_Node000002" class="edge">
<title>Node6&#45;&gt;Node2</title>
<g id="a_edge10_Node000006_Node000002"><a xlink:title=" ">
<path fill="none" stroke="#63b8ff" d="M574.88,-257.42C592.54,-259.67 611.16,-262.03 629.02,-264.3"/>
<polygon fill="#63b8ff" stroke="#63b8ff" points="633.84,-264.92 628.6,-266.52 632.57,-264.75 628.88,-264.29 628.88,-264.29 628.88,-264.29 632.57,-264.75 629.16,-262.05 633.84,-264.92"/>
</a>
</g>
</g>
<!-- Node6&#45;&gt;Node6 -->
<g id="edge11_Node000006_Node000006" class="edge">
<title>Node6&#45;&gt;Node6</title>
<g id="a_edge11_Node000006_Node000006"><a xlink:title=" ">
<path fill="none" stroke="#63b8ff" d="M444.52,-261.3C434.52,-270.62 448.35,-279.5 486,-279.5 516.59,-279.5 531.46,-273.64 530.59,-266.44"/>
<polygon fill="#63b8ff" stroke="#63b8ff" points="528.11,-262.34 532.62,-265.45 528.77,-263.43 530.7,-266.62 530.7,-266.62 530.7,-266.62 528.77,-263.43 528.77,-267.78 528.11,-262.34"/>
</a>
</g>
</g>
<!-- Node7&#45;&gt;Node7 -->
<g id="edge13_Node000007_Node000007" class="edge">
<title>Node7&#45;&gt;Node7</title>
<g id="a_edge13_Node000007_Node000007"><a xlink:title=" ">
<path fill="none" stroke="#63b8ff" d="M444.52,-127.3C434.52,-136.62 448.35,-145.5 486,-145.5 516.59,-145.5 531.46,-139.64 530.59,-132.44"/>
<polygon fill="#63b8ff" stroke="#63b8ff" points="528.11,-128.34 532.62,-131.45 528.77,-129.43 530.7,-132.62 530.7,-132.62 530.7,-132.62 528.77,-129.43 528.77,-133.78 528.11,-128.34"/>
</a>
</g>
</g>
<!-- Node8&#45;&gt;Node8 -->
<g id="edge15_Node000008_Node000008" class="edge">
<title>Node8&#45;&gt;Node8</title>
<g id="a_edge15_Node000008_Node000008"><a xlink:title=" ">
<path fill="none" stroke="#63b8ff" d="M444.52,-60.3C434.52,-69.62 448.35,-78.5 486,-78.5 516.59,-78.5 531.46,-72.64 530.59,-65.44"/>
<polygon fill="#63b8ff" stroke="#63b8ff" points="528.11,-61.34 532.62,-64.45 528.77,-62.43 530.7,-65.62 530.7,-65.62 530.7,-65.62 528.77,-62.43 528.77,-66.78 528.11,-61.34"/>
</a>
</g>
</g>
<!-- Node9 -->
<g id="Node000009" class="node">
<title>Node9</title>
<g id="a_Node000009"><a xlink:href="../../dc/dba/namespacenpi_1_1app.html#a30b5245afa890e98f19f43c58f29e633" target="_top" xlink:title="Windows native fatal error message box.">
<polygon fill="white" stroke="none" points="816,-85.88 632,-85.88 632,-66.62 816,-66.62 816,-85.88"/>
<text xml:space="preserve" text-anchor="middle" x="724" y="-71.42" font-family="Consolas" font-size="11.00">npi::app::nativeFatalMessage</text>
</a>
</g>
</g>
<!-- Node8&#45;&gt;Node9 -->
<g id="edge16_Node000008_Node000009" class="edge">
<title>Node8&#45;&gt;Node9</title>
<g id="a_edge16_Node000008_Node000009"><a xlink:title=" ">
<path fill="none" stroke="#63b8ff" d="M580.95,-57.59C601.78,-60.33 623.64,-63.2 643.81,-65.85"/>
<polygon fill="#63b8ff" stroke="#63b8ff" points="648.52,-66.47 643.27,-68.05 647.25,-66.3 643.56,-65.82 643.56,-65.82 643.56,-65.82 647.25,-66.3 643.86,-63.58 648.52,-66.47"/>
</a>
</g>
</g>
<!-- Node10 -->
<g id="Node000010" class="node">
<title>Node10</title>
<g id="a_Node000010"><a xlink:href="../../dd/df2/namespaceanonymous__namespace_02_log_8cpp_03_1_1safe.html#abc25ab769b48a34eb27ff7c789822b7e" target="_top" xlink:title=" ">
<polygon fill="white" stroke="none" points="828,-30.5 620,-30.5 620,0 828,0 828,-30.5"/>
<text xml:space="preserve" text-anchor="start" x="628" y="-16.05" font-family="Consolas" font-size="11.00">anonymous_namespace</text>
<text xml:space="preserve" text-anchor="middle" x="724" y="-4.8" font-family="Consolas" font-size="11.00">{Log::cpp}::safe::win32ErrorText</text>
</a>
</g>
</g>
<!-- Node8&#45;&gt;Node10 -->
<g id="edge17_Node000008_Node000010" class="edge">
<title>Node8&#45;&gt;Node10</title>
<g id="a_edge17_Node000008_Node000010"><a xlink:title=" ">
<path fill="none" stroke="#63b8ff" d="M580.95,-33.31C591.8,-31.93 602.93,-30.51 613.95,-29.11"/>
<polygon fill="#63b8ff" stroke="#63b8ff" points="618.85,-28.49 614.18,-31.35 617.58,-28.65 613.89,-29.12 613.89,-29.12 613.89,-29.12 617.58,-28.65 613.61,-26.89 618.85,-28.49"/>
</a>
</g>
</g>
<!-- Node10&#45;&gt;Node10 -->
<g id="edge18_Node000010_Node000010" class="edge">
<title>Node10&#45;&gt;Node10</title>
<g id="a_edge18_Node000010_Node000010"><a xlink:title=" ">
<path fill="none" stroke="#63b8ff" d="M683.05,-30.3C673.17,-39.62 686.82,-48.5 724,-48.5 754.21,-48.5 768.88,-42.64 768.03,-35.44"/>
<polygon fill="#63b8ff" stroke="#63b8ff" points="765.58,-31.34 770.07,-34.48 766.24,-32.44 768.14,-35.63 768.14,-35.63 768.14,-35.63 766.24,-32.44 766.21,-36.79 765.58,-31.34"/>
</a>
</g>
</g>
</g>
</svg>

<g id="navigator" transform="translate(0 0)" fill="#404254">
  <rect fill="#f2f5e9" fill-opacity="0.5" stroke="#606060" stroke-width=".5" x="0" y="0" width="60" height="60"/>
  <use id="zoomplus" xlink:href="#zoomPlus" x="17" y="9" onmousedown="handleZoom(evt,'in')"/>
  <use id="zoomminus" xlink:href="#zoomMin" x="42" y="9" onmousedown="handleZoom(evt,'out')"/>
  <use id="reset" xlink:href="#resetDef" x="30" y="36" onmousedown="handleReset()"/>
   <use id="arrowup" xlink:href="#arrowUp" x="0" y="0" onmousedown="handlePan(0,-1)"/>
  <use id="arrowright" xlink:href="#arrowRight" x="0" y="0" onmousedown="handlePan(1,0)"/>
  <use id="arrowdown" xlink:href="#arrowDown" x="0" y="0" onmousedown="handlePan(0,1)"/>
  <use id="arrowleft" xlink:href="#arrowLeft" x="0" y="0" onmousedown="handlePan(-1,0)"/>
</g>
<svg viewBox="0 0 15 15" width="100%" height="30px" preserveAspectRatio="xMaxYMin meet">
 <g id="arrow_out" transform="scale(0.3 0.3)">
  <a xlink:href="namespaceanonymous__namespace_02_log_8cpp_03_1_1safe_a110b11e90b5bb8ae5c8a1521e33eec21_cgraph_org.svg" target="_base">
   <rect id="button" ry="5" rx="5" y="6" x="6" height="38" width="38"
        fill="#f2f5e9" fill-opacity="0.5" stroke="#606060" stroke-width="1.0"/>
   <path id="arrow"
     d="M 11.500037,31.436501 C 11.940474,20.09759 22.043105,11.32322 32.158766,21.979434 L 37.068811,17.246167 C 37.068811,17.246167 37.088388,32 37.088388,32 L 22.160133,31.978069 C 22.160133,31.978069 26.997745,27.140456 26.997745,27.140456 C 18.528582,18.264221 13.291696,25.230495 11.500037,31.436501 z"
     style="fill:#404040;"/>
  </a>
 </g>
</svg>

<style type='text/css'>
<![CDATA[
[data-mouse-over-selected='false'] { opacity: 0.7; }
[data-mouse-over-selected='true']  { opacity: 1.0; }
]]>
</style>
<script type="application/ecmascript"><![CDATA[
document.addEventListener('DOMContentLoaded', (event) => {
  highlightEdges();
  highlightAdjacentNodes();
});
]]></script>
</svg>
