<?xml version="1.0" encoding="UTF-8" standalone="no"?>
<!DOCTYPE svg PUBLIC "-//W3C//DTD SVG 1.1//EN"
 "http://www.w3.org/Graphics/SVG/1.1/DTD/svg11.dtd">
<!-- Generated by graphviz version 14.0.0 (20250921.2048)
 -->
<!-- Title: anonymous_namespace{Log::cpp}::safe::startImpLogProcess Pages: 1 -->
<svg width="698pt" height="57pt"
 viewBox="0.00 0.00 698.00 57.00" xmlns="http://www.w3.org/2000/svg" xmlns:xlink="http://www.w3.org/1999/xlink">
<g id="graph0" class="graph" transform="scale(1 1) rotate(0) translate(4 52.5)">
<title>anonymous_namespace{Log::cpp}::safe::startImpLogProcess</title>
<!-- Node1 -->
<g id="Node000001" class="node">
<title>Node1</title>
<g id="a_Node000001"><a xlink:title=" ">
<polygon fill="#999999" stroke="none" points="690,-30.5 344,-30.5 344,-11.25 690,-11.25 690,-30.5"/>
<text xml:space="preserve" text-anchor="start" x="352" y="-17.05" font-family="Consolas" font-weight="bold" font-size="11.00">anonymous_namespace{Log::cpp}::safe::startImpLogProcess</text>
</a>
</g>
</g>
<!-- Node1&#45;&gt;Node1 -->
<g id="edge1_Node000001_Node000001" class="edge">
<title>Node1&#45;&gt;Node1</title>
<g id="a_edge1_Node000001_Node000001"><a xlink:title=" ">
<path fill="none" stroke="#63b8ff" d="M565.25,-33.03C578.04,-40.9 561.96,-48.5 517,-48.5 466.96,-48.5 452.69,-39.09 474.19,-30.36"/>
<polygon fill="#63b8ff" stroke="#63b8ff" points="560.9,-30.89 566.38,-31.08 562.05,-31.46 565.39,-33.1 565.39,-33.1 565.39,-33.1 562.05,-31.46 564.4,-35.12 560.9,-30.89"/>
</a>
</g>
</g>
<!-- Node2 -->
<g id="Node000002" class="node">
<title>Node2</title>
<g id="a_Node000002"><a xlink:href="../../d0/d61/classanonymous__namespace_02_log_8cpp_03_1_1_log_core.html#a78f2c370e9ec632af877fe1dd49ef478" target="_top" xlink:title=" ">
<polygon fill="white" stroke="none" points="308,-41.75 166,-41.75 166,0 308,0 308,-41.75"/>
<text xml:space="preserve" text-anchor="start" x="174" y="-27.3" font-family="Consolas" font-size="11.00">anonymous_namespace</text>
<text xml:space="preserve" text-anchor="start" x="174" y="-16.05" font-family="Consolas" font-size="11.00">{Log::cpp}::LogCore</text>
<text xml:space="preserve" text-anchor="middle" x="237" y="-4.8" font-family="Consolas" font-size="11.00">::startImpLogProcess_</text>
</a>
</g>
</g>
<!-- Node1&#45;&gt;Node2 -->
<g id="edge2_Node000001_Node000002" class="edge">
<title>Node1&#45;&gt;Node2</title>
<g id="a_edge2_Node000001_Node000002"><a xlink:title=" ">
<path fill="none" stroke="#63b8ff" d="M338.07,-20.88C327.57,-20.88 317.39,-20.88 307.8,-20.88"/>
<polygon fill="#63b8ff" stroke="#63b8ff" points="343.07,-20.88 338.07,-23.13 341.79,-20.88 338.07,-20.88 338.07,-20.88 338.07,-20.88 341.79,-20.88 338.07,-18.63 343.07,-20.88"/>
</a>
</g>
</g>
<!-- Node3 -->
<g id="Node000003" class="node">
<title>Node3</title>
<g id="a_Node000003"><a xlink:href="../../d0/d61/classanonymous__namespace_02_log_8cpp_03_1_1_log_core.html#ac81e3393bfb7545e17c9fd8ea4cb4aa6" target="_top" xlink:title=" ">
<polygon fill="white" stroke="none" points="130,-41.75 0,-41.75 0,0 130,0 130,-41.75"/>
<text xml:space="preserve" text-anchor="start" x="8" y="-27.3" font-family="Consolas" font-size="11.00">anonymous_namespace</text>
<text xml:space="preserve" text-anchor="start" x="8" y="-16.05" font-family="Consolas" font-size="11.00">{Log::cpp}::LogCore</text>
<text xml:space="preserve" text-anchor="middle" x="65" y="-4.8" font-family="Consolas" font-size="11.00">::LogCore</text>
</a>
</g>
</g>
<!-- Node2&#45;&gt;Node3 -->
<g id="edge3_Node000002_Node000003" class="edge">
<title>Node2&#45;&gt;Node3</title>
<g id="a_edge3_Node000002_Node000003"><a xlink:title=" ">
<path fill="none" stroke="#63b8ff" d="M160.38,-20.88C150.16,-20.88 139.77,-20.88 129.79,-20.88"/>
<polygon fill="#63b8ff" stroke="#63b8ff" points="165.15,-20.88 160.15,-23.13 163.86,-20.88 160.15,-20.88 160.15,-20.88 160.15,-20.88 163.86,-20.88 160.15,-18.63 165.15,-20.88"/>
</a>
</g>
</g>
</g>
</svg>
