<?xml version="1.0" encoding="UTF-8" standalone="no"?>
<!DOCTYPE svg PUBLIC "-//W3C//DTD SVG 1.1//EN"
 "http://www.w3.org/Graphics/SVG/1.1/DTD/svg11.dtd">
<!-- Generated by graphviz version 14.0.0 (20250921.2048)
 -->
<!-- Title: anonymous_namespace{Log::cpp}::safe::installCrashHandlers Pages: 1 -->
<svg width="556pt" height="51pt"
 viewBox="0.00 0.00 556.00 51.00" xmlns="http://www.w3.org/2000/svg" xmlns:xlink="http://www.w3.org/1999/xlink">
<g id="graph0" class="graph" transform="scale(1 1) rotate(0) translate(4 46.88)">
<title>anonymous_namespace{Log::cpp}::safe::installCrashHandlers</title>
<!-- Node1 -->
<g id="Node000001" class="node">
<title>Node1</title>
<g id="a_Node000001"><a xlink:title=" ">
<polygon fill="#999999" stroke="none" points="548,-24.88 190,-24.88 190,-5.62 548,-5.62 548,-24.88"/>
<text xml:space="preserve" text-anchor="start" x="198" y="-11.43" font-family="Consolas" font-weight="bold" font-size="11.00">anonymous_namespace{Log::cpp}::safe::installCrashHandlers</text>
</a>
</g>
</g>
<!-- Node1&#45;&gt;Node1 -->
<g id="edge2_Node000001_Node000001" class="edge">
<title>Node1&#45;&gt;Node1</title>
<g id="a_edge2_Node000001_Node000001"><a xlink:title=" ">
<path fill="none" stroke="#63b8ff" d="M418.96,-27.2C432.95,-35.15 416.29,-42.88 369,-42.88 316.82,-42.88 301.94,-33.46 324.36,-24.73"/>
<polygon fill="#63b8ff" stroke="#63b8ff" points="414.75,-25.25 420.23,-25.3 415.91,-25.78 419.28,-27.35 419.28,-27.35 419.28,-27.35 415.91,-25.78 418.34,-29.39 414.75,-25.25"/>
</a>
</g>
</g>
<!-- Node2 -->
<g id="Node000002" class="node">
<title>Node2</title>
<g id="a_Node000002"><a xlink:href="../../dc/d8e/namespaceanonymous__namespace_02_log_8cpp_03.html#a7a82c11accb191c2f06849f6d13db39a" target="_top" xlink:title=" ">
<polygon fill="white" stroke="none" points="154,-30.5 0,-30.5 0,0 154,0 154,-30.5"/>
<text xml:space="preserve" text-anchor="start" x="8" y="-16.05" font-family="Consolas" font-size="11.00">anonymous_namespace</text>
<text xml:space="preserve" text-anchor="middle" x="77" y="-4.8" font-family="Consolas" font-size="11.00">{Log::cpp}::initLogging</text>
</a>
</g>
</g>
<!-- Node1&#45;&gt;Node2 -->
<g id="edge1_Node000001_Node000002" class="edge">
<title>Node1&#45;&gt;Node2</title>
<g id="a_edge1_Node000001_Node000002"><a xlink:title=" ">
<path fill="none" stroke="#63b8ff" d="M183.98,-15.25C173.59,-15.25 163.5,-15.25 153.93,-15.25"/>
<polygon fill="#63b8ff" stroke="#63b8ff" points="188.9,-15.25 183.9,-17.5 187.62,-15.25 183.9,-15.25 183.9,-15.25 183.9,-15.25 187.62,-15.25 183.9,-13 188.9,-15.25"/>
</a>
</g>
</g>
</g>
</svg>
