<?xml version="1.0" encoding="UTF-8" standalone="no"?>
<!DOCTYPE svg PUBLIC "-//W3C//DTD SVG 1.1//EN"
 "http://www.w3.org/Graphics/SVG/1.1/DTD/svg11.dtd">
<!-- Generated by graphviz version 14.0.0 (20250921.2048)
 -->
<!-- Title: anonymous_namespace{Log.cpp}::LogCore Pages: 1 -->
<!--zoomable 1649 -->

<svg id="main" version="1.1" xmlns="http://www.w3.org/2000/svg" xmlns:xlink="http://www.w3.org/1999/xlink" xml:space="preserve" onload="init(evt)">

<style type="text/css"><![CDATA[
.node, .edge {opacity: 0.7;}
.node.selected, .edge.selected {opacity: 1;}
.edge:hover path { stroke: red; }
.edge:hover polygon { stroke: red; fill: red; }
]]></style>

<defs>
  <circle id="rim" cx="0" cy="0" r="7"/>
  <circle id="rim2" cx="0" cy="0" r="3.5"/>
  <g id="zoomPlus">
    <use xlink:href="#rim" fill="#404040"><set attributeName="fill" to="#808080" begin="zoomplus.mouseover" end="zoomplus.mouseout"/></use>
    <path d="M-4,0h8M0,-4v8" fill="none" stroke="white" stroke-width="1.5" pointer-events="none"/>
  </g>
  <g id="zoomMin">
    <use xlink:href="#rim" fill="#404040"><set attributeName="fill" to="#808080" begin="zoomminus.mouseover" end="zoomminus.mouseout"/></use>
    <path d="M-4,0h8" fill="none" stroke="white" stroke-width="1.5" pointer-events="none"/>
  </g>
  <g id="arrowUp" transform="translate(30 24)">
    <use xlink:href="#rim"/>
    <path pointer-events="none" fill="none" stroke="white" stroke-width="1.5" d="M0,-3.0v7 M-2.5,-0.5L0,-3.0L2.5,-0.5"/>
  </g>
  <g id="arrowRight" transform="rotate(90) translate(36 -43)">
    <use xlink:href="#rim"/>
    <path pointer-events="none" fill="none" stroke="white" stroke-width="1.5" d="M0,-3.0v7 M-2.5,-0.5L0,-3.0L2.5,-0.5"/>
  </g>
  <g id="arrowDown" transform="rotate(180) translate(-30 -48)">
    <use xlink:href="#rim"/>
    <path pointer-events="none" fill="none" stroke="white" stroke-width="1.5" d="M0,-3.0v7 M-2.5,-0.5L0,-3.0L2.5,-0.5"/>
  </g>
  <g id="arrowLeft" transform="rotate(270) translate(-36 17)">
    <use xlink:href="#rim"/>
    <path pointer-events="none" fill="none" stroke="white" stroke-width="1.5" d="M0,-3.0v7 M-2.5,-0.5L0,-3.0L2.5,-0.5"/>
  </g>
  <g id="resetDef">
    <use xlink:href="#rim2" fill="#404040"><set attributeName="fill" to="#808080" begin="reset.mouseover" end="reset.mouseout"/></use>
  </g>
</defs>
<script type="application/ecmascript">
var viewWidth = 844;
var viewHeight = 1649;
var sectionId = 'dynsection-0';
</script>
<script type="application/ecmascript" xlink:href="../../svg.min.js"/>
<svg id="graph" class="graph">
<g id="viewport">
<title>anonymous_namespace{Log.cpp}::LogCore</title>
<!-- Node1 -->
<g id="Node000001" class="node">
<title>Node1</title>
<g id="a_Node000001"><a xlink:title=" ">
<polygon fill="#999999" stroke="none" points="836.25,-741.25 598.25,-741.25 598.25,-722 836.25,-722 836.25,-741.25"/>
<text xml:space="preserve" text-anchor="start" x="606.25" y="-727.8" font-family="Consolas" font-weight="bold" font-size="11.00">anonymous_namespace{Log.cpp}::LogCore</text>
</a>
</g>
</g>
<!-- Node2 -->
<g id="Node000002" class="node">
<title>Node2</title>
<g id="a_Node000002"><a xlink:title=" ">
<polygon fill="white" stroke="none" points="398,-1619.88 238,-1619.88 238,-1589.38 398,-1589.38 398,-1619.88"/>
<text xml:space="preserve" text-anchor="start" x="246" y="-1605.42" font-family="Consolas" font-size="11.00">atomic&lt; QLoggingCategory</text>
<text xml:space="preserve" text-anchor="middle" x="318" y="-1594.17" font-family="Consolas" font-size="11.00">::CategoryFilter &gt;</text>
</a>
</g>
</g>
<!-- Node2&#45;&gt;Node1 -->
<g id="edge1_Node000001_Node000002" class="edge">
<title>Node2&#45;&gt;Node1</title>
<g id="a_edge1_Node000001_Node000002"><a xlink:title=" ">
<path fill="none" stroke="#9a32cd" stroke-dasharray="5,2" d="M395.33,-1620.63C453.49,-1628.05 531.61,-1626.93 580.25,-1581.62 710.79,-1460.02 716.13,-825.93 716.26,-741.03"/>
<polygon fill="#9a32cd" stroke="#9a32cd" points="390.62,-1620 395.87,-1618.44 391.89,-1620.17 395.57,-1620.67 395.57,-1620.67 395.57,-1620.67 391.89,-1620.17 395.27,-1622.9 390.62,-1620"/>
</a>
</g>
<text xml:space="preserve" text-anchor="start" x="474.88" y="-1628.06" font-family="Consolas" font-size="10.00" fill="grey">prevLogFilter_</text>
</g>
<!-- Node3 -->
<g id="Node000003" class="node">
<title>Node3</title>
<g id="a_Node000003"><a xlink:title=" ">
<polygon fill="white" stroke="none" points="398,-1348.88 238,-1348.88 238,-1318.38 398,-1318.38 398,-1348.88"/>
<text xml:space="preserve" text-anchor="start" x="246" y="-1334.42" font-family="Consolas" font-size="11.00">static constexpr QLatin1</text>
<text xml:space="preserve" text-anchor="middle" x="318" y="-1323.17" font-family="Consolas" font-size="11.00">StringView</text>
</a>
</g>
</g>
<!-- Node3&#45;&gt;Node1 -->
<g id="edge2_Node000001_Node000003" class="edge">
<title>Node3&#45;&gt;Node1</title>
<g id="a_edge2_Node000001_Node000003"><a xlink:title=" ">
<path fill="none" stroke="#9a32cd" stroke-dasharray="5,2" d="M403.83,-1331.06C474.95,-1328.11 566.99,-1322.12 580.25,-1310.62 671.95,-1231.18 709.9,-809.69 715.51,-741.07"/>
<polygon fill="#9a32cd" stroke="#9a32cd" points="399.1,-1331.25 404.01,-1328.8 400.38,-1331.2 404.1,-1331.05 404.1,-1331.05 404.1,-1331.05 400.38,-1331.2 404.19,-1333.29 399.1,-1331.25"/>
</a>
</g>
<text xml:space="preserve" text-anchor="start" x="446" y="-1564.87" font-family="Consolas" font-size="10.00" fill="grey">BaseFilterRule_</text>
<text xml:space="preserve" text-anchor="start" x="446" y="-1550.37" font-family="Consolas" font-size="10.00" fill="grey">ConfigFileName_</text>
<text xml:space="preserve" text-anchor="start" x="446" y="-1535.87" font-family="Consolas" font-size="10.00" fill="grey">DefaultDirName_</text>
<text xml:space="preserve" text-anchor="start" x="446" y="-1521.37" font-family="Consolas" font-size="10.00" fill="grey">SettingsColoredConsoleKey</text>
<text xml:space="preserve" text-anchor="start" x="446" y="-1506.87" font-family="Consolas" font-size="10.00" fill="grey">  _</text>
<text xml:space="preserve" text-anchor="start" x="446" y="-1492.37" font-family="Consolas" font-size="10.00" fill="grey">SettingsDirKey_</text>
<text xml:space="preserve" text-anchor="start" x="446" y="-1477.87" font-family="Consolas" font-size="10.00" fill="grey">SettingsFilterRulesKey</text>
<text xml:space="preserve" text-anchor="start" x="446" y="-1463.37" font-family="Consolas" font-size="10.00" fill="grey">  _</text>
<text xml:space="preserve" text-anchor="start" x="446" y="-1448.87" font-family="Consolas" font-size="10.00" fill="grey">SettingsLogFieldsKey</text>
<text xml:space="preserve" text-anchor="start" x="446" y="-1434.37" font-family="Consolas" font-size="10.00" fill="grey">  _</text>
<text xml:space="preserve" text-anchor="start" x="446" y="-1419.87" font-family="Consolas" font-size="10.00" fill="grey">SettingsMaxFolderSize</text>
<text xml:space="preserve" text-anchor="start" x="446" y="-1405.37" font-family="Consolas" font-size="10.00" fill="grey">  Key_</text>
<text xml:space="preserve" text-anchor="start" x="446" y="-1390.87" font-family="Consolas" font-size="10.00" fill="grey">SettingsMsgFieldsKey</text>
<text xml:space="preserve" text-anchor="start" x="446" y="-1376.37" font-family="Consolas" font-size="10.00" fill="grey">  _</text>
<text xml:space="preserve" text-anchor="start" x="446" y="-1361.87" font-family="Consolas" font-size="10.00" fill="grey">SettingsWarnIsImpKey</text>
<text xml:space="preserve" text-anchor="start" x="446" y="-1347.37" font-family="Consolas" font-size="10.00" fill="grey">  _</text>
<text xml:space="preserve" text-anchor="start" x="446" y="-1332.87" font-family="Consolas" font-size="10.00" fill="grey"> &#160;...</text>
</g>
<!-- Node4 -->
<g id="Node000004" class="node">
<title>Node4</title>
<g id="a_Node000004"><a xlink:title=" ">
<polygon fill="white" stroke="none" points="395,-1300.25 241,-1300.25 241,-1281 395,-1281 395,-1300.25"/>
<text xml:space="preserve" text-anchor="middle" x="318" y="-1285.8" font-family="Consolas" font-size="11.00">static constexpr qint64</text>
</a>
</g>
</g>
<!-- Node4&#45;&gt;Node1 -->
<g id="edge3_Node000001_Node000004" class="edge">
<title>Node4&#45;&gt;Node1</title>
<g id="a_edge3_Node000001_Node000004"><a xlink:title=" ">
<path fill="none" stroke="#9a32cd" stroke-dasharray="5,2" d="M400.68,-1293.77C467.09,-1294.54 553.92,-1290.95 580.25,-1268.62 666.07,-1195.85 708.63,-807.45 715.31,-741.23"/>
<polygon fill="#9a32cd" stroke="#9a32cd" points="395.95,-1293.7 400.98,-1291.52 397.23,-1293.72 400.95,-1293.77 400.95,-1293.77 400.95,-1293.77 397.23,-1293.72 400.92,-1296.02 395.95,-1293.7"/>
</a>
</g>
<text xml:space="preserve" text-anchor="start" x="451.25" y="-1297.47" font-family="Consolas" font-size="10.00" fill="grey">DefaultMaxFolderSizeMb_</text>
</g>
<!-- Node5 -->
<g id="Node000005" class="node">
<title>Node5</title>
<g id="a_Node000005"><a xlink:title=" ">
<polygon fill="white" stroke="none" points="362,-1250.25 274,-1250.25 274,-1231 362,-1231 362,-1250.25"/>
<text xml:space="preserve" text-anchor="middle" x="318" y="-1235.8" font-family="Consolas" font-size="11.00">milliseconds</text>
</a>
</g>
</g>
<!-- Node5&#45;&gt;Node1 -->
<g id="edge4_Node000001_Node000005" class="edge">
<title>Node5&#45;&gt;Node1</title>
<g id="a_edge4_Node000001_Node000005"><a xlink:title=" ">
<path fill="none" stroke="#9a32cd" stroke-dasharray="5,2" d="M367.74,-1238.52C438.85,-1235 564.36,-1226.99 580.25,-1213.62 657.76,-1148.42 706.84,-802.63 715.03,-741.02"/>
<polygon fill="#9a32cd" stroke="#9a32cd" points="363.09,-1238.74 367.97,-1236.25 364.37,-1238.68 368.08,-1238.5 368.08,-1238.5 368.08,-1238.5 364.37,-1238.68 368.19,-1240.75 363.09,-1238.74"/>
</a>
</g>
<text xml:space="preserve" text-anchor="start" x="474.88" y="-1252.13" font-family="Consolas" font-size="10.00" fill="grey">DrainInterval_</text>
<text xml:space="preserve" text-anchor="start" x="474.88" y="-1237.63" font-family="Consolas" font-size="10.00" fill="grey">FlushInterval_</text>
</g>
<!-- Node6 -->
<g id="Node000006" class="node">
<title>Node6</title>
<g id="a_Node000006"><a xlink:title=" ">
<polygon fill="white" stroke="none" points="425,-1212.88 211,-1212.88 211,-1182.38 425,-1182.38 425,-1212.88"/>
<text xml:space="preserve" text-anchor="start" x="219" y="-1198.42" font-family="Consolas" font-size="11.00">array&lt; anonymous_namespace</text>
<text xml:space="preserve" text-anchor="middle" x="318" y="-1187.17" font-family="Consolas" font-size="11.00">{Log.cpp}::LogCore::UnitInfo, 5 &gt;</text>
</a>
</g>
</g>
<!-- Node6&#45;&gt;Node1 -->
<g id="edge5_Node000001_Node000006" class="edge">
<title>Node6&#45;&gt;Node1</title>
<g id="a_edge5_Node000001_Node000006"><a xlink:title=" ">
<path fill="none" stroke="#9a32cd" stroke-dasharray="5,2" d="M430.66,-1194C496.11,-1190.87 568.28,-1185.28 580.25,-1175.62 653.04,-1116.91 705.59,-799.96 714.81,-741.05"/>
<polygon fill="#9a32cd" stroke="#9a32cd" points="425.97,-1194.22 430.86,-1191.74 427.25,-1194.16 430.96,-1193.99 430.96,-1193.99 430.96,-1193.99 427.25,-1194.16 431.07,-1196.24 425.97,-1194.22"/>
</a>
</g>
<text xml:space="preserve" text-anchor="start" x="482.75" y="-1197.09" font-family="Consolas" font-size="10.00" fill="grey">DeltaUnits_</text>
</g>
<!-- Node7 -->
<g id="Node000007" class="node">
<title>Node7</title>
<g id="a_Node000007"><a xlink:title=" ">
<polygon fill="white" stroke="none" points="356,-1164.25 280,-1164.25 280,-1145 356,-1145 356,-1164.25"/>
<text xml:space="preserve" text-anchor="middle" x="318" y="-1149.8" font-family="Consolas" font-size="11.00">time_point</text>
</a>
</g>
</g>
<!-- Node7&#45;&gt;Node1 -->
<g id="edge6_Node000001_Node000007" class="edge">
<title>Node7&#45;&gt;Node1</title>
<g id="a_edge6_Node000001_Node000007"><a xlink:title=" ">
<path fill="none" stroke="#9a32cd" stroke-dasharray="5,2" d="M361.97,-1157.06C427.24,-1159.86 547.26,-1161.2 580.25,-1135.62 713.91,-1032.03 717.32,-791.5 716.51,-741.02"/>
<polygon fill="#9a32cd" stroke="#9a32cd" points="357.05,-1156.84 362.15,-1154.82 358.33,-1156.9 362.05,-1157.07 362.05,-1157.07 362.05,-1157.07 358.33,-1156.9 361.94,-1159.31 357.05,-1156.84"/>
</a>
</g>
<text xml:space="preserve" text-anchor="start" x="490.62" y="-1162.34" font-family="Consolas" font-size="10.00" fill="grey">startTp_</text>
</g>
<!-- Node8 -->
<g id="Node000008" class="node">
<title>Node8</title>
<g id="a_Node000008"><a xlink:title=" ">
<polygon fill="white" stroke="none" points="365,-1069.25 271,-1069.25 271,-1050 365,-1050 365,-1069.25"/>
<text xml:space="preserve" text-anchor="middle" x="318" y="-1054.8" font-family="Consolas" font-size="11.00">const QString</text>
</a>
</g>
</g>
<!-- Node8&#45;&gt;Node1 -->
<g id="edge7_Node000001_Node000008" class="edge">
<title>Node8&#45;&gt;Node1</title>
<g id="a_edge7_Node000001_Node000008"><a xlink:title=" ">
<path fill="none" stroke="#9a32cd" stroke-dasharray="5,2" d="M370.65,-1061.34C437.06,-1062.52 547.71,-1060.77 580.25,-1037.62 686.37,-962.14 710.9,-784.47 715.38,-741.24"/>
<polygon fill="#9a32cd" stroke="#9a32cd" points="365.98,-1061.24 371.02,-1059.09 367.26,-1061.27 370.98,-1061.34 370.98,-1061.34 370.98,-1061.34 367.26,-1061.27 370.93,-1063.59 365.98,-1061.24"/>
</a>
</g>
<text xml:space="preserve" text-anchor="start" x="461.75" y="-1122.9" font-family="Consolas" font-size="10.00" fill="grey">configLockName_</text>
<text xml:space="preserve" text-anchor="start" x="461.75" y="-1108.4" font-family="Consolas" font-size="10.00" fill="grey">defDir_</text>
<text xml:space="preserve" text-anchor="start" x="461.75" y="-1093.9" font-family="Consolas" font-size="10.00" fill="grey">dirCleaningLockName</text>
<text xml:space="preserve" text-anchor="start" x="461.75" y="-1079.4" font-family="Consolas" font-size="10.00" fill="grey">  _</text>
<text xml:space="preserve" text-anchor="start" x="461.75" y="-1064.9" font-family="Consolas" font-size="10.00" fill="grey">fileBaseName_</text>
</g>
<!-- Node9 -->
<g id="Node000009" class="node">
<title>Node9</title>
<g id="a_Node000009"><a xlink:title=" ">
<polygon fill="white" stroke="none" points="377,-1030.25 259,-1030.25 259,-1011 377,-1011 377,-1030.25"/>
<text xml:space="preserve" text-anchor="middle" x="318" y="-1015.8" font-family="Consolas" font-size="11.00">const QStringList</text>
</a>
</g>
</g>
<!-- Node9&#45;&gt;Node1 -->
<g id="edge8_Node000001_Node000009" class="edge">
<title>Node9&#45;&gt;Node1</title>
<g id="a_edge8_Node000001_Node000009"><a xlink:title=" ">
<path fill="none" stroke="#9a32cd" stroke-dasharray="5,2" d="M382.73,-1021.93C449.55,-1022.1 549.1,-1018.62 580.25,-997.62 675.74,-933.28 707.89,-780.5 714.74,-741.05"/>
<polygon fill="#9a32cd" stroke="#9a32cd" points="377.99,-1021.91 383,-1019.68 379.27,-1021.92 382.99,-1021.93 382.99,-1021.93 382.99,-1021.93 379.27,-1021.92 382.98,-1024.18 377.99,-1021.91"/>
</a>
</g>
<text xml:space="preserve" text-anchor="start" x="459.12" y="-1024.85" font-family="Consolas" font-size="10.00" fill="grey">availableFieldNames_</text>
</g>
<!-- Node10 -->
<g id="Node000010" class="node">
<title>Node10</title>
<g id="a_Node000010"><a xlink:title=" ">
<polygon fill="white" stroke="none" points="389,-992.88 247,-992.88 247,-962.38 389,-962.38 389,-992.88"/>
<text xml:space="preserve" text-anchor="start" x="255" y="-978.42" font-family="Consolas" font-size="11.00">const QHash&lt; QString,</text>
<text xml:space="preserve" text-anchor="middle" x="318" y="-967.17" font-family="Consolas" font-size="11.00"> Field &gt;</text>
</a>
</g>
</g>
<!-- Node10&#45;&gt;Node1 -->
<g id="edge9_Node000001_Node000010" class="edge">
<title>Node10&#45;&gt;Node1</title>
<g id="a_edge9_Node000001_Node000010"><a xlink:title=" ">
<path fill="none" stroke="#9a32cd" stroke-dasharray="5,2" d="M394.81,-979.38C460.72,-979.56 550.23,-976.14 580.25,-957.62 665.6,-904.97 704.45,-777.01 713.9,-741.12"/>
<polygon fill="#9a32cd" stroke="#9a32cd" points="390.12,-979.36 395.13,-977.14 391.41,-979.37 395.12,-979.39 395.12,-979.39 395.12,-979.39 391.41,-979.37 395.11,-981.64 390.12,-979.36"/>
</a>
</g>
<text xml:space="preserve" text-anchor="start" x="485.38" y="-982.73" font-family="Consolas" font-size="10.00" fill="grey">fieldHash_</text>
</g>
<!-- Node11 -->
<g id="Node000011" class="node">
<title>Node11</title>
<g id="a_Node000011"><a xlink:title=" ">
<polygon fill="white" stroke="none" points="386,-935.25 250,-935.25 250,-916 386,-916 386,-935.25"/>
<text xml:space="preserve" text-anchor="middle" x="318" y="-920.8" font-family="Consolas" font-size="11.00">const QList&lt; Field &gt;</text>
</a>
</g>
</g>
<!-- Node11&#45;&gt;Node1 -->
<g id="edge10_Node000001_Node000011" class="edge">
<title>Node11&#45;&gt;Node1</title>
<g id="a_edge10_Node000001_Node000011"><a xlink:title=" ">
<path fill="none" stroke="#9a32cd" stroke-dasharray="5,2" d="M391.86,-925.88C457.63,-924.98 548.77,-920.53 580.25,-903.62 652.02,-865.08 698.83,-770.78 712.26,-740.88"/>
<polygon fill="#9a32cd" stroke="#9a32cd" points="387.19,-925.94 392.16,-923.63 388.47,-925.93 392.19,-925.88 392.19,-925.88 392.19,-925.88 388.47,-925.93 392.22,-928.13 387.19,-925.94"/>
</a>
</g>
<text xml:space="preserve" text-anchor="start" x="477.5" y="-942.9" font-family="Consolas" font-size="10.00" fill="grey">defLogFields_</text>
<text xml:space="preserve" text-anchor="start" x="477.5" y="-928.4" font-family="Consolas" font-size="10.00" fill="grey">defMsgFields_</text>
</g>
<!-- Node12 -->
<g id="Node000012" class="node">
<title>Node12</title>
<g id="a_Node000012"><a xlink:title=" ">
<polygon fill="white" stroke="none" points="341,-882.25 295,-882.25 295,-863 341,-863 341,-882.25"/>
<text xml:space="preserve" text-anchor="middle" x="318" y="-867.8" font-family="Consolas" font-size="11.00">mutex</text>
</a>
</g>
</g>
<!-- Node12&#45;&gt;Node1 -->
<g id="edge11_Node000001_Node000012" class="edge">
<title>Node12&#45;&gt;Node1</title>
<g id="a_edge11_Node000001_Node000012"><a xlink:title=" ">
<path fill="none" stroke="#9a32cd" stroke-dasharray="5,2" d="M346.95,-872.33C405.45,-871.35 538.8,-867.21 580.25,-849.62 638.96,-824.72 690.46,-764.58 708.96,-741.17"/>
<polygon fill="#9a32cd" stroke="#9a32cd" points="342.08,-872.4 347.04,-870.07 343.36,-872.38 347.08,-872.32 347.08,-872.32 347.08,-872.32 343.36,-872.38 347.11,-874.57 342.08,-872.4"/>
</a>
</g>
<text xml:space="preserve" text-anchor="start" x="461.75" y="-887.41" font-family="Consolas" font-size="10.00" fill="grey">initialLogsMutex_</text>
<text xml:space="preserve" text-anchor="start" x="461.75" y="-872.91" font-family="Consolas" font-size="10.00" fill="grey">maxMbSettingsMutex_</text>
</g>
<!-- Node13 -->
<g id="Node000013" class="node">
<title>Node13</title>
<g id="a_Node000013"><a xlink:title=" ">
<polygon fill="white" stroke="none" points="422,-844.88 214,-844.88 214,-814.38 422,-814.38 422,-844.88"/>
<text xml:space="preserve" text-anchor="start" x="222" y="-830.42" font-family="Consolas" font-size="11.00">QList&lt; anonymous_namespace</text>
<text xml:space="preserve" text-anchor="middle" x="318" y="-819.17" font-family="Consolas" font-size="11.00">{Log.cpp}::LogCore::InitialLog &gt;</text>
</a>
</g>
</g>
<!-- Node13&#45;&gt;Node1 -->
<g id="edge12_Node000001_Node000013" class="edge">
<title>Node13&#45;&gt;Node1</title>
<g id="a_edge12_Node000001_Node000013"><a xlink:title=" ">
<path fill="none" stroke="#9a32cd" stroke-dasharray="5,2" d="M427.82,-831.98C475.5,-830.31 531.57,-824.61 580.25,-809.62 629.94,-794.33 681.19,-758.44 704.01,-741.2"/>
<polygon fill="#9a32cd" stroke="#9a32cd" points="422.96,-832.14 427.89,-829.73 424.25,-832.1 427.96,-831.98 427.96,-831.98 427.96,-831.98 424.25,-832.1 428.03,-834.23 422.96,-832.14"/>
</a>
</g>
<text xml:space="preserve" text-anchor="start" x="480.12" y="-835.1" font-family="Consolas" font-size="10.00" fill="grey">initialLogs_</text>
</g>
<!-- Node14 -->
<g id="Node000014" class="node">
<title>Node14</title>
<g id="a_Node000014"><a xlink:title=" ">
<polygon fill="white" stroke="none" points="359,-642.25 277,-642.25 277,-623 359,-623 359,-642.25"/>
<text xml:space="preserve" text-anchor="middle" x="318" y="-627.8" font-family="Consolas" font-size="11.00">atomic_bool</text>
</a>
</g>
</g>
<!-- Node14&#45;&gt;Node1 -->
<g id="edge13_Node000001_Node000014" class="edge">
<title>Node14&#45;&gt;Node1</title>
<g id="a_edge13_Node000001_Node000014"><a xlink:title=" ">
<path fill="none" stroke="#9a32cd" stroke-dasharray="5,2" d="M364.74,-623.27C418.01,-614.35 507.95,-605.52 580.25,-629.62 636.53,-648.38 688.27,-700.57 707.91,-722.12"/>
<polygon fill="#9a32cd" stroke="#9a32cd" points="359.95,-624.09 364.49,-621.03 361.21,-623.87 364.87,-623.24 364.87,-623.24 364.87,-623.24 361.21,-623.87 365.25,-625.46 359.95,-624.09"/>
</a>
</g>
<text xml:space="preserve" text-anchor="start" x="467" y="-793.12" font-family="Consolas" font-size="10.00" fill="grey">coloredConsole_</text>
<text xml:space="preserve" text-anchor="start" x="467" y="-778.62" font-family="Consolas" font-size="10.00" fill="grey">dispThreadRunning</text>
<text xml:space="preserve" text-anchor="start" x="467" y="-764.12" font-family="Consolas" font-size="10.00" fill="grey">  _</text>
<text xml:space="preserve" text-anchor="start" x="467" y="-749.62" font-family="Consolas" font-size="10.00" fill="grey">fileThreadRunning</text>
<text xml:space="preserve" text-anchor="start" x="467" y="-735.12" font-family="Consolas" font-size="10.00" fill="grey">  _</text>
<text xml:space="preserve" text-anchor="start" x="467" y="-720.62" font-family="Consolas" font-size="10.00" fill="grey">muteDisplay_</text>
<text xml:space="preserve" text-anchor="start" x="467" y="-706.12" font-family="Consolas" font-size="10.00" fill="grey">runtimeLogs_</text>
<text xml:space="preserve" text-anchor="start" x="467" y="-691.62" font-family="Consolas" font-size="10.00" fill="grey">shutdownMode</text>
<text xml:space="preserve" text-anchor="start" x="467" y="-677.12" font-family="Consolas" font-size="10.00" fill="grey">  _</text>
<text xml:space="preserve" text-anchor="start" x="467" y="-662.62" font-family="Consolas" font-size="10.00" fill="grey">tempConsole</text>
<text xml:space="preserve" text-anchor="start" x="467" y="-648.12" font-family="Consolas" font-size="10.00" fill="grey">  _</text>
<text xml:space="preserve" text-anchor="start" x="467" y="-633.62" font-family="Consolas" font-size="10.00" fill="grey">warnIsImp_</text>
</g>
<!-- Node15 -->
<g id="Node000015" class="node">
<title>Node15</title>
<g id="a_Node000015"><a xlink:title=" ">
<polygon fill="white" stroke="none" points="374,-602.25 262,-602.25 262,-583 374,-583 374,-602.25"/>
<text xml:space="preserve" text-anchor="middle" x="318" y="-587.8" font-family="Consolas" font-size="11.00">atomic&lt; qint64 &gt;</text>
</a>
</g>
</g>
<!-- Node15&#45;&gt;Node1 -->
<g id="edge14_Node000001_Node000015" class="edge">
<title>Node15&#45;&gt;Node1</title>
<g id="a_edge14_Node000001_Node000015"><a xlink:title=" ">
<path fill="none" stroke="#9a32cd" stroke-dasharray="5,2" d="M367.34,-581.96C421.5,-572.4 510.81,-563.91 580.25,-593.12 645.17,-620.44 694.73,-695.47 710.75,-722.1"/>
<polygon fill="#9a32cd" stroke="#9a32cd" points="362.43,-582.85 366.95,-579.74 363.69,-582.62 367.35,-581.96 367.35,-581.96 367.35,-581.96 363.69,-582.62 367.75,-584.17 362.43,-582.85"/>
</a>
</g>
<text xml:space="preserve" text-anchor="start" x="477.5" y="-597.12" font-family="Consolas" font-size="10.00" fill="grey">currentMaxMb_</text>
</g>
<!-- Node16 -->
<g id="Node000016" class="node">
<title>Node16</title>
<g id="a_Node000016"><a xlink:title=" ">
<polygon fill="white" stroke="none" points="377,-562.25 259,-562.25 259,-543 377,-543 377,-562.25"/>
<text xml:space="preserve" text-anchor="middle" x="318" y="-547.8" font-family="Consolas" font-size="11.00">atomic&lt; int64_t &gt;</text>
</a>
</g>
</g>
<!-- Node16&#45;&gt;Node1 -->
<g id="edge15_Node000001_Node000016" class="edge">
<title>Node16&#45;&gt;Node1</title>
<g id="a_edge15_Node000001_Node000016"><a xlink:title=" ">
<path fill="none" stroke="#9a32cd" stroke-dasharray="5,2" d="M382.71,-546.09C448.75,-540.45 546.88,-535.54 580.25,-552.12 655.53,-589.53 700.29,-690.72 712.69,-722.17"/>
<polygon fill="#9a32cd" stroke="#9a32cd" points="378.04,-546.5 382.83,-543.83 379.32,-546.39 383.02,-546.07 383.02,-546.07 383.02,-546.07 379.32,-546.39 383.22,-548.31 378.04,-546.5"/>
</a>
</g>
<text xml:space="preserve" text-anchor="start" x="459.12" y="-556.12" font-family="Consolas" font-size="10.00" fill="grey">maxMbLastChangeTime_</text>
</g>
<!-- Node17 -->
<g id="Node000017" class="node">
<title>Node17</title>
<g id="a_Node000017"><a xlink:title=" ">
<polygon fill="white" stroke="none" points="392,-522.25 244,-522.25 244,-503 392,-503 392,-522.25"/>
<text xml:space="preserve" text-anchor="middle" x="318" y="-507.8" font-family="Consolas" font-size="11.00">condition_variable_any</text>
</a>
</g>
</g>
<!-- Node17&#45;&gt;Node1 -->
<g id="edge16_Node000001_Node000017" class="edge">
<title>Node17&#45;&gt;Node1</title>
<g id="a_edge16_Node000001_Node000017"><a xlink:title=" ">
<path fill="none" stroke="#9a32cd" stroke-dasharray="5,2" d="M364.15,-501.9C419.06,-491.42 512.77,-482.02 580.25,-520.12 663.12,-566.92 703.47,-687.39 713.63,-722.12"/>
<polygon fill="#9a32cd" stroke="#9a32cd" points="359.5,-502.81 363.97,-499.64 360.76,-502.56 364.4,-501.85 364.4,-501.85 364.4,-501.85 360.76,-502.56 364.84,-504.06 359.5,-502.81"/>
</a>
</g>
<text xml:space="preserve" text-anchor="start" x="464.38" y="-524.12" font-family="Consolas" font-size="10.00" fill="grey">maxMbThreadWakeup_</text>
</g>
<!-- Node18 -->
<g id="Node000018" class="node">
<title>Node18</title>
<g id="a_Node000018"><a xlink:title=" ">
<polygon fill="white" stroke="none" points="347,-482.25 289,-482.25 289,-463 347,-463 347,-482.25"/>
<text xml:space="preserve" text-anchor="middle" x="318" y="-467.8" font-family="Consolas" font-size="11.00">jthread</text>
</a>
</g>
</g>
<!-- Node18&#45;&gt;Node1 -->
<g id="edge17_Node000001_Node000018" class="edge">
<title>Node18&#45;&gt;Node1</title>
<g id="a_edge17_Node000001_Node000018"><a xlink:title=" ">
<path fill="none" stroke="#9a32cd" stroke-dasharray="5,2" d="M352.59,-465.68C373.51,-461.2 400.93,-455.02 425,-448.62 433.08,-446.48 434.73,-444.36 443,-443.12 503.33,-434.11 528.73,-410.46 580.25,-443.12 684.77,-509.4 710.45,-679.85 715.28,-722.06"/>
<polygon fill="#9a32cd" stroke="#9a32cd" points="347.78,-466.71 352.2,-463.47 349.03,-466.44 352.67,-465.67 352.67,-465.67 352.67,-465.67 349.03,-466.44 353.14,-467.87 347.78,-466.71"/>
</a>
</g>
<text xml:space="preserve" text-anchor="start" x="480.12" y="-476.12" font-family="Consolas" font-size="10.00" fill="grey">dispThread_</text>
<text xml:space="preserve" text-anchor="start" x="480.12" y="-461.62" font-family="Consolas" font-size="10.00" fill="grey">fileThread_</text>
<text xml:space="preserve" text-anchor="start" x="480.12" y="-447.12" font-family="Consolas" font-size="10.00" fill="grey">maxMbThread_</text>
</g>
<!-- Node19 -->
<g id="Node000019" class="node">
<title>Node19</title>
<g id="a_Node000019"><a xlink:href="../../d0/d61/classanonymous__namespace_02_log_8cpp_03_1_1_log_core.html#d5/d42/structanonymous__namespace_02_log_8cpp_03_1_1_log_core_1_1_field_config" target="_top" xlink:title=" ">
<polygon fill="white" stroke="none" points="386,-323.5 250,-323.5 250,-281.75 386,-281.75 386,-323.5"/>
<text xml:space="preserve" text-anchor="start" x="258" y="-309.05" font-family="Consolas" font-size="11.00">anonymous_namespace</text>
<text xml:space="preserve" text-anchor="start" x="258" y="-297.8" font-family="Consolas" font-size="11.00">{Log.cpp}::LogCore::</text>
<text xml:space="preserve" text-anchor="middle" x="318" y="-286.55" font-family="Consolas" font-size="11.00">FieldConfig</text>
</a>
</g>
</g>
<!-- Node19&#45;&gt;Node1 -->
<g id="edge18_Node000001_Node000019" class="edge">
<title>Node19&#45;&gt;Node1</title>
<g id="a_edge18_Node000001_Node000019"><a xlink:title=" ">
<path fill="none" stroke="#9a32cd" stroke-dasharray="5,2" d="M391.67,-285.69C448.72,-276.84 527.13,-275.05 580.25,-315.62 718.53,-421.24 718.24,-670.78 716.65,-722.24"/>
<polygon fill="#9a32cd" stroke="#9a32cd" points="387.08,-286.43 391.66,-283.41 388.34,-286.22 392.01,-285.63 392.01,-285.63 392.01,-285.63 388.34,-286.22 392.37,-287.85 387.08,-286.43"/>
</a>
</g>
<text xml:space="preserve" text-anchor="start" x="485.38" y="-334.12" font-family="Consolas" font-size="10.00" fill="grey">logConfig_</text>
<text xml:space="preserve" text-anchor="start" x="485.38" y="-319.62" font-family="Consolas" font-size="10.00" fill="grey">msgConfig_</text>
</g>
<!-- Node20 -->
<g id="Node000020" class="node">
<title>Node20</title>
<g id="a_Node000020"><a xlink:title=" ">
<polygon fill="white" stroke="none" points="103,-419.25 3,-419.25 3,-400 103,-400 103,-419.25"/>
<text xml:space="preserve" text-anchor="middle" x="53" y="-404.8" font-family="Consolas" font-size="11.00">QReadWriteLock</text>
</a>
</g>
</g>
<!-- Node20&#45;&gt;Node1 -->
<g id="edge24_Node000001_Node000020" class="edge">
<title>Node20&#45;&gt;Node1</title>
<g id="a_edge24_Node000001_Node000020"><a xlink:title=" ">
<path fill="none" stroke="#9a32cd" stroke-dasharray="5,2" d="M108.71,-407.93C235.55,-404.45 541.87,-398.86 580.25,-424.62 688.91,-497.56 711.58,-678.67 715.52,-722.14"/>
<polygon fill="#9a32cd" stroke="#9a32cd" points="104.02,-408.06 108.96,-405.67 105.3,-408.02 109.02,-407.92 109.02,-407.92 109.02,-407.92 105.3,-408.02 109.08,-410.17 104.02,-408.06"/>
</a>
</g>
<text xml:space="preserve" text-anchor="start" x="270.75" y="-424.75" font-family="Consolas" font-size="10.00" fill="grey">filterRulesLock_</text>
<text xml:space="preserve" text-anchor="start" x="270.75" y="-410.25" font-family="Consolas" font-size="10.00" fill="grey">logCategoriesLock_</text>
</g>
<!-- Node20&#45;&gt;Node19 -->
<g id="edge19_Node000019_Node000020" class="edge">
<title>Node20&#45;&gt;Node19</title>
<g id="a_edge19_Node000019_Node000020"><a xlink:title=" ">
<path fill="none" stroke="#9a32cd" stroke-dasharray="5,2" d="M86.1,-397.97C114.79,-387.09 157.63,-369.7 193,-350.62 201.46,-346.06 202.37,-342.87 211,-338.62 223.29,-332.57 236.85,-327.12 250.05,-322.4"/>
<polygon fill="#9a32cd" stroke="#9a32cd" points="81.69,-399.62 85.58,-395.76 82.89,-399.17 86.37,-397.86 86.37,-397.86 86.37,-397.86 82.89,-399.17 87.17,-399.97 81.69,-399.62"/>
</a>
</g>
<text xml:space="preserve" text-anchor="start" x="145.38" y="-386.15" font-family="Consolas" font-size="10.00" fill="grey">lock_</text>
</g>
<!-- Node21 -->
<g id="Node000021" class="node">
<title>Node21</title>
<g id="a_Node000021"><a xlink:title=" ">
<polygon fill="white" stroke="none" points="106,-354.25 0,-354.25 0,-335 106,-335 106,-354.25"/>
<text xml:space="preserve" text-anchor="middle" x="53" y="-339.8" font-family="Consolas" font-size="11.00">atomic_uint64_t</text>
</a>
</g>
</g>
<!-- Node21&#45;&gt;Node1 -->
<g id="edge27_Node000001_Node000021" class="edge">
<title>Node21&#45;&gt;Node1</title>
<g id="a_edge27_Node000001_Node000021"><a xlink:title=" ">
<path fill="none" stroke="#9a32cd" stroke-dasharray="5,2" d="M111.7,-347.66C240.58,-354.92 543.48,-374.75 580.25,-402.62 691.06,-486.64 712.14,-677.12 715.63,-722.02"/>
<polygon fill="#9a32cd" stroke="#9a32cd" points="106.91,-347.39 112.03,-345.43 108.19,-347.47 111.9,-347.67 111.9,-347.67 111.9,-347.67 108.19,-347.47 111.78,-349.92 106.91,-347.39"/>
</a>
</g>
<text xml:space="preserve" text-anchor="start" x="281.25" y="-375.79" font-family="Consolas" font-size="10.00" fill="grey">threadCounter_</text>
</g>
<!-- Node21&#45;&gt;Node19 -->
<g id="edge20_Node000019_Node000021" class="edge">
<title>Node21&#45;&gt;Node19</title>
<g id="a_edge20_Node000019_Node000021"><a xlink:title=" ">
<path fill="none" stroke="#9a32cd" stroke-dasharray="5,2" d="M103.67,-333.93C110.49,-332.59 117.41,-331.28 124,-330.12 165.84,-322.82 213.04,-316.07 250.29,-311.08"/>
<polygon fill="#9a32cd" stroke="#9a32cd" points="99.18,-334.84 103.64,-331.65 100.43,-334.58 104.08,-333.85 104.08,-333.85 104.08,-333.85 100.43,-334.58 104.52,-336.06 99.18,-334.84"/>
</a>
</g>
<text xml:space="preserve" text-anchor="start" x="137.5" y="-334.12" font-family="Consolas" font-size="10.00" fill="grey">version_</text>
</g>
<!-- Node22 -->
<g id="Node000022" class="node">
<title>Node22</title>
<g id="a_Node000022"><a xlink:title=" ">
<polygon fill="white" stroke="none" points="103,-298.25 3,-298.25 3,-279 103,-279 103,-298.25"/>
<text xml:space="preserve" text-anchor="middle" x="53" y="-283.8" font-family="Consolas" font-size="11.00">QList&lt; Field &gt;</text>
</a>
</g>
</g>
<!-- Node22&#45;&gt;Node19 -->
<g id="edge21_Node000019_Node000022" class="edge">
<title>Node22&#45;&gt;Node19</title>
<g id="a_edge21_Node000019_Node000022"><a xlink:title=" ">
<path fill="none" stroke="#9a32cd" stroke-dasharray="5,2" d="M108.97,-288.08C134.53,-288.12 165.34,-288.58 193,-290.12 211.58,-291.16 231.67,-292.91 250.16,-294.78"/>
<polygon fill="#9a32cd" stroke="#9a32cd" points="104.14,-288.08 109.14,-285.83 105.42,-288.08 109.14,-288.08 109.14,-288.08 109.14,-288.08 105.42,-288.08 109.14,-290.33 104.14,-288.08"/>
</a>
</g>
<text xml:space="preserve" text-anchor="start" x="140.12" y="-294.12" font-family="Consolas" font-size="10.00" fill="grey">fields_</text>
</g>
<!-- Node23 -->
<g id="Node000023" class="node">
<title>Node23</title>
<g id="a_Node000023"><a xlink:title=" ">
<polygon fill="white" stroke="none" points="94,-160.25 12,-160.25 12,-141 94,-141 94,-160.25"/>
<text xml:space="preserve" text-anchor="middle" x="53" y="-145.8" font-family="Consolas" font-size="11.00">QStringList</text>
</a>
</g>
</g>
<!-- Node23&#45;&gt;Node1 -->
<g id="edge25_Node000001_Node000023" class="edge">
<title>Node23&#45;&gt;Node1</title>
<g id="a_edge25_Node000001_Node000023"><a xlink:title=" ">
<path fill="none" stroke="#9a32cd" stroke-dasharray="5,2" d="M99.67,-148.39C214.69,-143.79 511.98,-138.61 580.25,-203.62 660.45,-280 707.66,-657.9 715.19,-722.29"/>
<polygon fill="#9a32cd" stroke="#9a32cd" points="94.89,-148.59 99.8,-146.13 96.17,-148.53 99.89,-148.38 99.89,-148.38 99.89,-148.38 96.17,-148.53 99.98,-150.63 94.89,-148.59"/>
</a>
</g>
<text xml:space="preserve" text-anchor="start" x="281.25" y="-174.02" font-family="Consolas" font-size="10.00" fill="grey">filterRules_</text>
<text xml:space="preserve" text-anchor="start" x="281.25" y="-159.52" font-family="Consolas" font-size="10.00" fill="grey">logCategories_</text>
</g>
<!-- Node23&#45;&gt;Node19 -->
<g id="edge22_Node000019_Node000023" class="edge">
<title>Node23&#45;&gt;Node19</title>
<g id="a_edge22_Node000019_Node000023"><a xlink:title=" ">
<path fill="none" stroke="#9a32cd" stroke-dasharray="5,2" d="M86.89,-162.39C117.73,-174.85 163.4,-197.16 193,-229.12 205.83,-242.98 196.88,-255.08 211,-267.62 222.09,-277.47 236.01,-284.56 250.09,-289.65"/>
<polygon fill="#9a32cd" stroke="#9a32cd" points="82.45,-160.63 87.93,-160.38 83.64,-161.1 87.1,-162.47 87.1,-162.47 87.1,-162.47 83.64,-161.1 86.27,-164.56 82.45,-160.63"/>
</a>
</g>
<text xml:space="preserve" text-anchor="start" x="137.5" y="-233.12" font-family="Consolas" font-size="10.00" fill="grey">strings_</text>
</g>
<!-- Node26 -->
<g id="Node000026" class="node">
<title>Node26</title>
<g id="a_Node000026"><a xlink:href="../../d0/d61/classanonymous__namespace_02_log_8cpp_03_1_1_log_core.html#d7/db8/structanonymous__namespace_02_log_8cpp_03_1_1_log_core_1_1_startup_settings" target="_top" xlink:title=" ">
<polygon fill="white" stroke="none" points="386,-110.5 250,-110.5 250,-68.75 386,-68.75 386,-110.5"/>
<text xml:space="preserve" text-anchor="start" x="258" y="-96.05" font-family="Consolas" font-size="11.00">anonymous_namespace</text>
<text xml:space="preserve" text-anchor="start" x="258" y="-84.8" font-family="Consolas" font-size="11.00">{Log.cpp}::LogCore::</text>
<text xml:space="preserve" text-anchor="middle" x="318" y="-73.55" font-family="Consolas" font-size="11.00">StartupSettings</text>
</a>
</g>
</g>
<!-- Node23&#45;&gt;Node26 -->
<g id="edge32_Node000026_Node000023" class="edge">
<title>Node23&#45;&gt;Node26</title>
<g id="a_edge32_Node000026_Node000023"><a xlink:title=" ">
<path fill="none" stroke="#9a32cd" stroke-dasharray="5,2" d="M65.24,-136.5C77.78,-121.97 99.56,-100.22 124,-91.12 164.04,-76.23 212.07,-75.8 250.2,-79.12"/>
<polygon fill="#9a32cd" stroke="#9a32cd" points="62.13,-140.19 63.63,-134.91 62.96,-139.21 65.35,-136.36 65.35,-136.36 65.35,-136.36 62.96,-139.21 67.07,-137.81 62.13,-140.19"/>
</a>
</g>
<text xml:space="preserve" text-anchor="start" x="127" y="-124.12" font-family="Consolas" font-size="10.00" fill="grey">filterRules_</text>
<text xml:space="preserve" text-anchor="start" x="127" y="-109.62" font-family="Consolas" font-size="10.00" fill="grey">logFields_</text>
<text xml:space="preserve" text-anchor="start" x="127" y="-95.12" font-family="Consolas" font-size="10.00" fill="grey">msgFields_</text>
</g>
<!-- Node24 -->
<g id="Node000024" class="node">
<title>Node24</title>
<g id="a_Node000024"><a xlink:title=" ">
<polygon fill="white" stroke="none" points="73,-241.25 33,-241.25 33,-222 73,-222 73,-241.25"/>
<text xml:space="preserve" text-anchor="middle" x="53" y="-226.8" font-family="Consolas" font-size="11.00">bool</text>
</a>
</g>
</g>
<!-- Node24&#45;&gt;Node1 -->
<g id="edge26_Node000001_Node000024" class="edge">
<title>Node24&#45;&gt;Node1</title>
<g id="a_edge26_Node000001_Node000024"><a xlink:title=" ">
<path fill="none" stroke="#9a32cd" stroke-dasharray="5,2" d="M78.71,-230.7C109.63,-229.59 164.22,-227.8 211,-227.12 376.56,-224.75 464.24,-158.48 580.25,-276.62 712.53,-411.34 716.98,-669.13 716.45,-722"/>
<polygon fill="#9a32cd" stroke="#9a32cd" points="74.06,-230.87 78.98,-228.44 75.34,-230.82 79.06,-230.69 79.06,-230.69 79.06,-230.69 75.34,-230.82 79.14,-232.93 74.06,-230.87"/>
</a>
</g>
<text xml:space="preserve" text-anchor="start" x="265.5" y="-260.12" font-family="Consolas" font-size="10.00" fill="grey">filterRulesTempState</text>
<text xml:space="preserve" text-anchor="start" x="265.5" y="-245.62" font-family="Consolas" font-size="10.00" fill="grey">  _</text>
<text xml:space="preserve" text-anchor="start" x="265.5" y="-231.12" font-family="Consolas" font-size="10.00" fill="grey">permConsole_</text>
</g>
<!-- Node24&#45;&gt;Node19 -->
<g id="edge23_Node000019_Node000024" class="edge">
<title>Node24&#45;&gt;Node19</title>
<g id="a_edge23_Node000019_Node000024"><a xlink:title=" ">
<path fill="none" stroke="#9a32cd" stroke-dasharray="5,2" d="M78.9,-238.05C106.73,-245.25 153.14,-257.35 193,-268.12 211.55,-273.14 231.63,-278.68 250.12,-283.83"/>
<polygon fill="#9a32cd" stroke="#9a32cd" points="74.09,-236.8 79.49,-235.88 75.33,-237.12 78.93,-238.05 78.93,-238.05 78.93,-238.05 75.33,-237.12 78.37,-240.23 74.09,-236.8"/>
</a>
</g>
<text xml:space="preserve" text-anchor="start" x="145.38" y="-272.12" font-family="Consolas" font-size="10.00" fill="grey">temp_</text>
</g>
<!-- Node25 -->
<g id="Node000025" class="node">
<title>Node25</title>
<g id="a_Node000025"><a xlink:title=" ">
<polygon fill="white" stroke="none" points="410,-50.5 226,-50.5 226,-8.75 410,-8.75 410,-50.5"/>
<text xml:space="preserve" text-anchor="start" x="234" y="-36.05" font-family="Consolas" font-size="11.00">ConcurrentQueue&lt; anonymous</text>
<text xml:space="preserve" text-anchor="start" x="234" y="-24.8" font-family="Consolas" font-size="11.00">_namespace{Log.cpp}::LogCore</text>
<text xml:space="preserve" text-anchor="middle" x="318" y="-13.55" font-family="Consolas" font-size="11.00">::OneLog &gt;</text>
</a>
</g>
</g>
<!-- Node25&#45;&gt;Node1 -->
<g id="edge28_Node000001_Node000025" class="edge">
<title>Node25&#45;&gt;Node1</title>
<g id="a_edge28_Node000001_Node000025"><a xlink:title=" ">
<path fill="none" stroke="#9a32cd" stroke-dasharray="5,2" d="M408.25,-7.85C464.06,0.16 533.88,-0.83 580.25,-40.62 690.19,-134.99 713.13,-646.87 715.93,-722.33"/>
<polygon fill="#9a32cd" stroke="#9a32cd" points="403.42,-8.58 408.03,-5.61 404.68,-8.39 408.36,-7.84 408.36,-7.84 408.36,-7.84 404.68,-8.39 408.7,-10.06 403.42,-8.58"/>
</a>
</g>
<text xml:space="preserve" text-anchor="start" x="485.38" y="-59.12" font-family="Consolas" font-size="10.00" fill="grey">dispQueue_</text>
<text xml:space="preserve" text-anchor="start" x="485.38" y="-44.62" font-family="Consolas" font-size="10.00" fill="grey">fileQueue_</text>
</g>
<!-- Node26&#45;&gt;Node1 -->
<g id="edge29_Node000001_Node000026" class="edge">
<title>Node26&#45;&gt;Node1</title>
<g id="a_edge29_Node000001_Node000026"><a xlink:title=" ">
<path fill="none" stroke="#9a32cd" stroke-dasharray="5,2" d="M391.71,-77.23C449.9,-71.7 529.86,-74.65 580.25,-120.12 675.33,-205.91 710.57,-651.35 715.6,-722.14"/>
<polygon fill="#9a32cd" stroke="#9a32cd" points="387,-77.7 391.75,-74.96 388.28,-77.57 391.98,-77.2 391.98,-77.2 391.98,-77.2 388.28,-77.57 392.21,-79.44 387,-77.7"/>
</a>
</g>
<text xml:space="preserve" text-anchor="start" x="490.62" y="-124.12" font-family="Consolas" font-size="10.00" fill="grey">startup_</text>
</g>
<!-- Node27 -->
<g id="Node000027" class="node">
<title>Node27</title>
<g id="a_Node000027"><a xlink:title=" ">
<polygon fill="white" stroke="none" points="82,-59.25 24,-59.25 24,-40 82,-40 82,-59.25"/>
<text xml:space="preserve" text-anchor="middle" x="53" y="-44.8" font-family="Consolas" font-size="11.00">QString</text>
</a>
</g>
</g>
<!-- Node27&#45;&gt;Node26 -->
<g id="edge30_Node000026_Node000027" class="edge">
<title>Node27&#45;&gt;Node26</title>
<g id="a_edge30_Node000026_Node000027"><a xlink:title=" ">
<path fill="none" stroke="#9a32cd" stroke-dasharray="5,2" d="M87.7,-46C116.15,-43.89 157.76,-43.02 193,-51.12 201.62,-53.11 202.72,-56.52 211,-59.62 223.45,-64.29 236.95,-68.63 250.01,-72.48"/>
<polygon fill="#9a32cd" stroke="#9a32cd" points="83.05,-46.38 87.86,-43.74 84.33,-46.27 88.04,-45.98 88.04,-45.98 88.04,-45.98 84.33,-46.27 88.22,-48.22 83.05,-46.38"/>
</a>
</g>
<text xml:space="preserve" text-anchor="start" x="148" y="-55.12" font-family="Consolas" font-size="10.00" fill="grey">dir_</text>
</g>
<!-- Node28 -->
<g id="Node000028" class="node">
<title>Node28</title>
<g id="a_Node000028"><a xlink:title=" ">
<polygon fill="white" stroke="none" points="79,-19.25 27,-19.25 27,0 79,0 79,-19.25"/>
<text xml:space="preserve" text-anchor="middle" x="53" y="-4.8" font-family="Consolas" font-size="11.00">qint64</text>
</a>
</g>
</g>
<!-- Node28&#45;&gt;Node26 -->
<g id="edge31_Node000026_Node000028" class="edge">
<title>Node28&#45;&gt;Node26</title>
<g id="a_edge31_Node000026_Node000028"><a xlink:title=" ">
<path fill="none" stroke="#9a32cd" stroke-dasharray="5,2" d="M84.58,-4.92C114.81,-1.96 161.05,-2.14 193,-24.12 207.57,-34.15 197.34,-48.38 211,-59.62 222.22,-68.86 236.12,-75.26 250.12,-79.69"/>
<polygon fill="#9a32cd" stroke="#9a32cd" points="79.97,-5.42 84.69,-2.64 81.24,-5.28 84.94,-4.88 84.94,-4.88 84.94,-4.88 81.24,-5.28 85.18,-7.12 79.97,-5.42"/>
</a>
</g>
<text xml:space="preserve" text-anchor="start" x="127" y="-28.12" font-family="Consolas" font-size="10.00" fill="grey">maxFolderMb_</text>
</g>
</g>
</svg>

<g id="navigator" transform="translate(0 0)" fill="#404254">
  <rect fill="#f2f5e9" fill-opacity="0.5" stroke="#606060" stroke-width=".5" x="0" y="0" width="60" height="60"/>
  <use id="zoomplus" xlink:href="#zoomPlus" x="17" y="9" onmousedown="handleZoom(evt,'in')"/>
  <use id="zoomminus" xlink:href="#zoomMin" x="42" y="9" onmousedown="handleZoom(evt,'out')"/>
  <use id="reset" xlink:href="#resetDef" x="30" y="36" onmousedown="handleReset()"/>
   <use id="arrowup" xlink:href="#arrowUp" x="0" y="0" onmousedown="handlePan(0,-1)"/>
  <use id="arrowright" xlink:href="#arrowRight" x="0" y="0" onmousedown="handlePan(1,0)"/>
  <use id="arrowdown" xlink:href="#arrowDown" x="0" y="0" onmousedown="handlePan(0,1)"/>
  <use id="arrowleft" xlink:href="#arrowLeft" x="0" y="0" onmousedown="handlePan(-1,0)"/>
</g>
<svg viewBox="0 0 15 15" width="100%" height="30px" preserveAspectRatio="xMaxYMin meet">
 <g id="arrow_out" transform="scale(0.3 0.3)">
  <a xlink:href="classanonymous__namespace_02_log_8cpp_03_1_1_log_core__coll__graph_org.svg" target="_base">
   <rect id="button" ry="5" rx="5" y="6" x="6" height="38" width="38"
        fill="#f2f5e9" fill-opacity="0.5" stroke="#606060" stroke-width="1.0"/>
   <path id="arrow"
     d="M 11.500037,31.436501 C 11.940474,20.09759 22.043105,11.32322 32.158766,21.979434 L 37.068811,17.246167 C 37.068811,17.246167 37.088388,32 37.088388,32 L 22.160133,31.978069 C 22.160133,31.978069 26.997745,27.140456 26.997745,27.140456 C 18.528582,18.264221 13.291696,25.230495 11.500037,31.436501 z"
     style="fill:#404040;"/>
  </a>
 </g>
</svg>

<style type='text/css'>
<![CDATA[
[data-mouse-over-selected='false'] { opacity: 0.7; }
[data-mouse-over-selected='true']  { opacity: 1.0; }
]]>
</style>
<script type="application/ecmascript"><![CDATA[
document.addEventListener('DOMContentLoaded', (event) => {
  highlightEdges();
  highlightAdjacentNodes();
});
]]></script>
</svg>
