<?xml version="1.0" encoding="UTF-8" standalone="no"?>
<!DOCTYPE svg PUBLIC "-//W3C//DTD SVG 1.1//EN"
 "http://www.w3.org/Graphics/SVG/1.1/DTD/svg11.dtd">
<!-- Generated by graphviz version 14.0.0 (20250921.2048)
 -->
<!-- Title: anonymous_namespace{Log.cpp}::LogCore Pages: 1 -->
<svg width="844pt" height="1633pt"
 viewBox="0.00 0.00 844.00 1633.00" xmlns="http://www.w3.org/2000/svg" xmlns:xlink="http://www.w3.org/1999/xlink">
<g id="graph0" class="graph" transform="scale(1 1) rotate(0) translate(4 1629.46)">
<title>anonymous_namespace{Log.cpp}::LogCore</title>
<!-- Node1 -->
<g id="Node000001" class="node">
<title>Node1</title>
<g id="a_Node000001"><a xlink:title=" ">
<polygon fill="#999999" stroke="none" points="836.25,-815.94 598.25,-815.94 598.25,-796.69 836.25,-796.69 836.25,-815.94"/>
<text xml:space="preserve" text-anchor="start" x="606.25" y="-802.49" font-family="Consolas" font-weight="bold" font-size="11.00">anonymous_namespace{Log.cpp}::LogCore</text>
</a>
</g>
</g>
<!-- Node2 -->
<g id="Node000002" class="node">
<title>Node2</title>
<g id="a_Node000002"><a xlink:title=" ">
<polygon fill="white" stroke="none" points="398,-1604.56 238,-1604.56 238,-1574.06 398,-1574.06 398,-1604.56"/>
<text xml:space="preserve" text-anchor="start" x="246" y="-1590.11" font-family="Consolas" font-size="11.00">atomic&lt; QLoggingCategory</text>
<text xml:space="preserve" text-anchor="middle" x="318" y="-1578.86" font-family="Consolas" font-size="11.00">::CategoryFilter &gt;</text>
</a>
</g>
</g>
<!-- Node2&#45;&gt;Node1 -->
<g id="edge1_Node000001_Node000002" class="edge">
<title>Node2&#45;&gt;Node1</title>
<g id="a_edge1_Node000001_Node000002"><a xlink:title=" ">
<path fill="none" stroke="#9a32cd" stroke-dasharray="5,2" d="M394.49,-1605.34C452.56,-1612.94 530.97,-1612.22 580.25,-1567.31 698.18,-1459.86 714.36,-895.63 716.07,-815.73"/>
<polygon fill="#9a32cd" stroke="#9a32cd" points="389.78,-1604.69 395.04,-1603.14 391.05,-1604.87 394.74,-1605.37 394.74,-1605.37 394.74,-1605.37 391.05,-1604.87 394.43,-1607.6 389.78,-1604.69"/>
</a>
</g>
<text xml:space="preserve" text-anchor="start" x="474.88" y="-1612.96" font-family="Consolas" font-size="10.00" fill="grey">prevLogFilter_</text>
</g>
<!-- Node3 -->
<g id="Node000003" class="node">
<title>Node3</title>
<g id="a_Node000003"><a xlink:title=" ">
<polygon fill="white" stroke="none" points="398,-1341.56 238,-1341.56 238,-1311.06 398,-1311.06 398,-1341.56"/>
<text xml:space="preserve" text-anchor="start" x="246" y="-1327.11" font-family="Consolas" font-size="11.00">static constexpr QLatin1</text>
<text xml:space="preserve" text-anchor="middle" x="318" y="-1315.86" font-family="Consolas" font-size="11.00">StringView</text>
</a>
</g>
</g>
<!-- Node3&#45;&gt;Node1 -->
<g id="edge2_Node000001_Node000003" class="edge">
<title>Node3&#45;&gt;Node1</title>
<g id="a_edge2_Node000001_Node000003"><a xlink:title=" ">
<path fill="none" stroke="#9a32cd" stroke-dasharray="5,2" d="M403.81,-1319.26C474.92,-1312.59 566.95,-1301.91 580.25,-1290.31 656.9,-1223.5 706.68,-877.37 715.01,-815.71"/>
<polygon fill="#9a32cd" stroke="#9a32cd" points="399.08,-1319.7 403.85,-1317 400.36,-1319.58 404.06,-1319.24 404.06,-1319.24 404.06,-1319.24 400.36,-1319.58 404.27,-1321.48 399.08,-1319.7"/>
</a>
</g>
<text xml:space="preserve" text-anchor="start" x="446" y="-1550.73" font-family="Consolas" font-size="10.00" fill="grey">BaseFilterRule_</text>
<text xml:space="preserve" text-anchor="start" x="446" y="-1536.23" font-family="Consolas" font-size="10.00" fill="grey">ConfigFileName_</text>
<text xml:space="preserve" text-anchor="start" x="446" y="-1521.73" font-family="Consolas" font-size="10.00" fill="grey">DefaultDirName_</text>
<text xml:space="preserve" text-anchor="start" x="446" y="-1507.23" font-family="Consolas" font-size="10.00" fill="grey">SettingsColoredConsoleKey</text>
<text xml:space="preserve" text-anchor="start" x="446" y="-1492.73" font-family="Consolas" font-size="10.00" fill="grey">  _</text>
<text xml:space="preserve" text-anchor="start" x="446" y="-1478.23" font-family="Consolas" font-size="10.00" fill="grey">SettingsDirKey_</text>
<text xml:space="preserve" text-anchor="start" x="446" y="-1463.73" font-family="Consolas" font-size="10.00" fill="grey">SettingsFilterRulesKey</text>
<text xml:space="preserve" text-anchor="start" x="446" y="-1449.23" font-family="Consolas" font-size="10.00" fill="grey">  _</text>
<text xml:space="preserve" text-anchor="start" x="446" y="-1434.73" font-family="Consolas" font-size="10.00" fill="grey">SettingsLogFieldsKey</text>
<text xml:space="preserve" text-anchor="start" x="446" y="-1420.23" font-family="Consolas" font-size="10.00" fill="grey">  _</text>
<text xml:space="preserve" text-anchor="start" x="446" y="-1405.73" font-family="Consolas" font-size="10.00" fill="grey">SettingsMaxFolderSize</text>
<text xml:space="preserve" text-anchor="start" x="446" y="-1391.23" font-family="Consolas" font-size="10.00" fill="grey">  Key_</text>
<text xml:space="preserve" text-anchor="start" x="446" y="-1376.73" font-family="Consolas" font-size="10.00" fill="grey">SettingsMsgFieldsKey</text>
<text xml:space="preserve" text-anchor="start" x="446" y="-1362.23" font-family="Consolas" font-size="10.00" fill="grey">  _</text>
<text xml:space="preserve" text-anchor="start" x="446" y="-1347.73" font-family="Consolas" font-size="10.00" fill="grey">SettingsWarnIsImpKey</text>
<text xml:space="preserve" text-anchor="start" x="446" y="-1333.23" font-family="Consolas" font-size="10.00" fill="grey">  _</text>
<text xml:space="preserve" text-anchor="start" x="446" y="-1318.73" font-family="Consolas" font-size="10.00" fill="grey"> &#160;...</text>
</g>
<!-- Node4 -->
<g id="Node000004" class="node">
<title>Node4</title>
<g id="a_Node000004"><a xlink:title=" ">
<polygon fill="white" stroke="none" points="79,-1224.94 27,-1224.94 27,-1205.69 79,-1205.69 79,-1224.94"/>
<text xml:space="preserve" text-anchor="middle" x="53" y="-1210.49" font-family="Consolas" font-size="11.00">qint64</text>
</a>
</g>
</g>
<!-- Node4&#45;&gt;Node1 -->
<g id="edge3_Node000001_Node000004" class="edge">
<title>Node4&#45;&gt;Node1</title>
<g id="a_edge3_Node000001_Node000004"><a xlink:title=" ">
<path fill="none" stroke="#9a32cd" stroke-dasharray="5,2" d="M84.77,-1223.11C185.19,-1247.75 501.36,-1319.04 580.25,-1260.31 656.98,-1203.2 706.51,-875.35 714.96,-815.65"/>
<polygon fill="#9a32cd" stroke="#9a32cd" points="79.94,-1221.91 85.33,-1220.93 81.18,-1222.22 84.79,-1223.11 84.79,-1223.11 84.79,-1223.11 81.18,-1222.22 84.25,-1225.29 79.94,-1221.91"/>
</a>
</g>
<text xml:space="preserve" text-anchor="start" x="257.62" y="-1285" font-family="Consolas" font-size="10.00" fill="grey">DefaultMaxFolderSizeMb_</text>
</g>
<!-- Node25 -->
<g id="Node000025" class="node">
<title>Node25</title>
<g id="a_Node000025"><a xlink:href="../../d0/d61/classanonymous__namespace_02_log_8cpp_03_1_1_log_core.html#d7/db8/structanonymous__namespace_02_log_8cpp_03_1_1_log_core_1_1_startup_settings" target="_top" xlink:title=" ">
<polygon fill="white" stroke="none" points="386,-1116.19 250,-1116.19 250,-1074.44 386,-1074.44 386,-1116.19"/>
<text xml:space="preserve" text-anchor="start" x="258" y="-1101.74" font-family="Consolas" font-size="11.00">anonymous_namespace</text>
<text xml:space="preserve" text-anchor="start" x="258" y="-1090.49" font-family="Consolas" font-size="11.00">{Log.cpp}::LogCore::</text>
<text xml:space="preserve" text-anchor="middle" x="318" y="-1079.24" font-family="Consolas" font-size="11.00">StartupSettings</text>
</a>
</g>
</g>
<!-- Node4&#45;&gt;Node25 -->
<g id="edge30_Node000025_Node000004" class="edge">
<title>Node4&#45;&gt;Node25</title>
<g id="a_edge30_Node000025_Node000004"><a xlink:title=" ">
<path fill="none" stroke="#9a32cd" stroke-dasharray="5,2" d="M72.7,-1202.56C101.37,-1183.5 158.38,-1147.45 211,-1125.31 223.43,-1120.09 237.05,-1115.46 250.27,-1111.51"/>
<polygon fill="#9a32cd" stroke="#9a32cd" points="68.7,-1205.24 71.61,-1200.59 69.77,-1204.53 72.86,-1202.46 72.86,-1202.46 72.86,-1202.46 69.77,-1204.53 74.11,-1204.33 68.7,-1205.24"/>
</a>
</g>
<text xml:space="preserve" text-anchor="start" x="127" y="-1172.09" font-family="Consolas" font-size="10.00" fill="grey">maxFolderMb_</text>
</g>
<!-- Node5 -->
<g id="Node000005" class="node">
<title>Node5</title>
<g id="a_Node000005"><a xlink:title=" ">
<polygon fill="white" stroke="none" points="362,-1239.94 274,-1239.94 274,-1220.69 362,-1220.69 362,-1239.94"/>
<text xml:space="preserve" text-anchor="middle" x="318" y="-1225.49" font-family="Consolas" font-size="11.00">milliseconds</text>
</a>
</g>
</g>
<!-- Node5&#45;&gt;Node1 -->
<g id="edge4_Node000001_Node000005" class="edge">
<title>Node5&#45;&gt;Node1</title>
<g id="a_edge4_Node000001_Node000005"><a xlink:title=" ">
<path fill="none" stroke="#9a32cd" stroke-dasharray="5,2" d="M367.63,-1228.87C438.61,-1226.35 563.95,-1220.12 580.25,-1207.31 712.35,-1103.55 716.98,-865.55 716.45,-815.61"/>
<polygon fill="#9a32cd" stroke="#9a32cd" points="363,-1229.04 367.91,-1226.61 364.28,-1228.99 367.99,-1228.86 367.99,-1228.86 367.99,-1228.86 364.28,-1228.99 368.07,-1231.11 363,-1229.04"/>
</a>
</g>
<text xml:space="preserve" text-anchor="start" x="474.88" y="-1243.63" font-family="Consolas" font-size="10.00" fill="grey">DrainInterval_</text>
<text xml:space="preserve" text-anchor="start" x="474.88" y="-1229.13" font-family="Consolas" font-size="10.00" fill="grey">FlushInterval_</text>
</g>
<!-- Node6 -->
<g id="Node000006" class="node">
<title>Node6</title>
<g id="a_Node000006"><a xlink:title=" ">
<polygon fill="white" stroke="none" points="425,-1202.56 211,-1202.56 211,-1172.06 425,-1172.06 425,-1202.56"/>
<text xml:space="preserve" text-anchor="start" x="219" y="-1188.11" font-family="Consolas" font-size="11.00">array&lt; anonymous_namespace</text>
<text xml:space="preserve" text-anchor="middle" x="318" y="-1176.86" font-family="Consolas" font-size="11.00">{Log.cpp}::LogCore::UnitInfo, 5 &gt;</text>
</a>
</g>
</g>
<!-- Node6&#45;&gt;Node1 -->
<g id="edge5_Node000001_Node000006" class="edge">
<title>Node6&#45;&gt;Node1</title>
<g id="a_edge5_Node000001_Node000006"><a xlink:title=" ">
<path fill="none" stroke="#9a32cd" stroke-dasharray="5,2" d="M431.1,-1187.17C490.92,-1184.89 556.93,-1178.17 580.25,-1160.31 698.65,-1069.65 714,-862.31 715.97,-815.72"/>
<polygon fill="#9a32cd" stroke="#9a32cd" points="426.17,-1187.34 431.09,-1184.91 427.45,-1187.29 431.17,-1187.16 431.17,-1187.16 431.17,-1187.16 427.45,-1187.29 431.25,-1189.41 426.17,-1187.34"/>
</a>
</g>
<text xml:space="preserve" text-anchor="start" x="482.75" y="-1190.48" font-family="Consolas" font-size="10.00" fill="grey">DeltaUnits_</text>
</g>
<!-- Node7 -->
<g id="Node000007" class="node">
<title>Node7</title>
<g id="a_Node000007"><a xlink:title=" ">
<polygon fill="white" stroke="none" points="356,-1153.94 280,-1153.94 280,-1134.69 356,-1134.69 356,-1153.94"/>
<text xml:space="preserve" text-anchor="middle" x="318" y="-1139.49" font-family="Consolas" font-size="11.00">time_point</text>
</a>
</g>
</g>
<!-- Node7&#45;&gt;Node1 -->
<g id="edge6_Node000001_Node000007" class="edge">
<title>Node7&#45;&gt;Node1</title>
<g id="a_edge6_Node000001_Node000007"><a xlink:title=" ">
<path fill="none" stroke="#9a32cd" stroke-dasharray="5,2" d="M361.83,-1146.15C418.06,-1146.29 517.04,-1138.44 580.25,-1087.31 673.8,-1011.65 707.37,-855.9 714.64,-815.86"/>
<polygon fill="#9a32cd" stroke="#9a32cd" points="357.07,-1146.11 362.09,-1143.9 358.35,-1146.12 362.07,-1146.15 362.07,-1146.15 362.07,-1146.15 358.35,-1146.12 362.05,-1148.4 357.07,-1146.11"/>
</a>
</g>
<text xml:space="preserve" text-anchor="start" x="490.62" y="-1143.66" font-family="Consolas" font-size="10.00" fill="grey">startTp_</text>
</g>
<!-- Node8 -->
<g id="Node000008" class="node">
<title>Node8</title>
<g id="a_Node000008"><a xlink:title=" ">
<polygon fill="white" stroke="none" points="82,-1033.94 24,-1033.94 24,-1014.69 82,-1014.69 82,-1033.94"/>
<text xml:space="preserve" text-anchor="middle" x="53" y="-1019.49" font-family="Consolas" font-size="11.00">QString</text>
</a>
</g>
</g>
<!-- Node8&#45;&gt;Node1 -->
<g id="edge7_Node000001_Node000008" class="edge">
<title>Node8&#45;&gt;Node1</title>
<g id="a_edge7_Node000001_Node000008"><a xlink:title=" ">
<path fill="none" stroke="#9a32cd" stroke-dasharray="5,2" d="M87.56,-1015.69C119.18,-1007.91 167.99,-996.8 211,-990.81 292.45,-979.48 506.79,-1003.28 580.25,-966.31 649.29,-931.57 697.25,-844.64 711.7,-815.79"/>
<polygon fill="#9a32cd" stroke="#9a32cd" points="83.04,-1016.8 87.36,-1013.42 84.29,-1016.5 87.9,-1015.6 87.9,-1015.6 87.9,-1015.6 84.29,-1016.5 88.44,-1017.79 83.04,-1016.8"/>
</a>
</g>
<text xml:space="preserve" text-anchor="start" x="268.12" y="-1052.81" font-family="Consolas" font-size="10.00" fill="grey">configLockName_</text>
<text xml:space="preserve" text-anchor="start" x="268.12" y="-1038.31" font-family="Consolas" font-size="10.00" fill="grey">defDir_</text>
<text xml:space="preserve" text-anchor="start" x="268.12" y="-1023.81" font-family="Consolas" font-size="10.00" fill="grey">dirCleaningLockName</text>
<text xml:space="preserve" text-anchor="start" x="268.12" y="-1009.31" font-family="Consolas" font-size="10.00" fill="grey">  _</text>
<text xml:space="preserve" text-anchor="start" x="268.12" y="-994.81" font-family="Consolas" font-size="10.00" fill="grey">fileBaseName_</text>
</g>
<!-- Node8&#45;&gt;Node25 -->
<g id="edge29_Node000025_Node000008" class="edge">
<title>Node8&#45;&gt;Node25</title>
<g id="a_edge29_Node000025_Node000008"><a xlink:title=" ">
<path fill="none" stroke="#9a32cd" stroke-dasharray="5,2" d="M87.45,-1033.35C128.27,-1044.37 198.27,-1063.26 250.26,-1077.3"/>
<polygon fill="#9a32cd" stroke="#9a32cd" points="82.82,-1032.1 88.24,-1031.23 84.06,-1032.43 87.65,-1033.4 87.65,-1033.4 87.65,-1033.4 84.06,-1032.43 87.07,-1035.57 82.82,-1032.1"/>
</a>
</g>
<text xml:space="preserve" text-anchor="start" x="148" y="-1063.81" font-family="Consolas" font-size="10.00" fill="grey">dir_</text>
</g>
<!-- Node9 -->
<g id="Node000009" class="node">
<title>Node9</title>
<g id="a_Node000009"><a xlink:title=" ">
<polygon fill="white" stroke="none" points="94,-377.94 12,-377.94 12,-358.69 94,-358.69 94,-377.94"/>
<text xml:space="preserve" text-anchor="middle" x="53" y="-363.49" font-family="Consolas" font-size="11.00">QStringList</text>
</a>
</g>
</g>
<!-- Node9&#45;&gt;Node1 -->
<g id="edge8_Node000001_Node000009" class="edge">
<title>Node9&#45;&gt;Node1</title>
<g id="a_edge8_Node000001_Node000009"><a xlink:title=" ">
<path fill="none" stroke="#9a32cd" stroke-dasharray="5,2" d="M99.62,-366.14C214.5,-361.68 511.51,-356.8 580.25,-421.31 697.58,-531.44 713.77,-748.98 715.93,-796.85"/>
<polygon fill="#9a32cd" stroke="#9a32cd" points="94.84,-366.33 99.75,-363.88 96.12,-366.28 99.84,-366.13 99.84,-366.13 99.84,-366.13 96.12,-366.28 99.93,-368.38 94.84,-366.33"/>
</a>
</g>
<text xml:space="preserve" text-anchor="start" x="268.12" y="-420.99" font-family="Consolas" font-size="10.00" fill="grey">availableFieldNames</text>
<text xml:space="preserve" text-anchor="start" x="268.12" y="-406.49" font-family="Consolas" font-size="10.00" fill="grey">  _</text>
<text xml:space="preserve" text-anchor="start" x="268.12" y="-391.99" font-family="Consolas" font-size="10.00" fill="grey">filterRules_</text>
<text xml:space="preserve" text-anchor="start" x="268.12" y="-377.49" font-family="Consolas" font-size="10.00" fill="grey">logCategories_</text>
</g>
<!-- Node19 -->
<g id="Node000019" class="node">
<title>Node19</title>
<g id="a_Node000019"><a xlink:href="../../d0/d61/classanonymous__namespace_02_log_8cpp_03_1_1_log_core.html#d5/d42/structanonymous__namespace_02_log_8cpp_03_1_1_log_core_1_1_field_config" target="_top" xlink:title=" ">
<polygon fill="white" stroke="none" points="386,-259.19 250,-259.19 250,-217.44 386,-217.44 386,-259.19"/>
<text xml:space="preserve" text-anchor="start" x="258" y="-244.74" font-family="Consolas" font-size="11.00">anonymous_namespace</text>
<text xml:space="preserve" text-anchor="start" x="258" y="-233.49" font-family="Consolas" font-size="11.00">{Log.cpp}::LogCore::</text>
<text xml:space="preserve" text-anchor="middle" x="318" y="-222.24" font-family="Consolas" font-size="11.00">FieldConfig</text>
</a>
</g>
</g>
<!-- Node9&#45;&gt;Node19 -->
<g id="edge22_Node000019_Node000009" class="edge">
<title>Node9&#45;&gt;Node19</title>
<g id="a_edge22_Node000019_Node000009"><a xlink:title=" ">
<path fill="none" stroke="#9a32cd" stroke-dasharray="5,2" d="M79.36,-356.23C107.78,-342.32 154.89,-318.17 193,-293.31 201.49,-287.78 202.18,-284.31 211,-279.31 224.48,-271.68 239.66,-264.88 254.23,-259.11"/>
<polygon fill="#9a32cd" stroke="#9a32cd" points="75.02,-358.34 78.53,-354.13 76.17,-357.78 79.52,-356.15 79.52,-356.15 79.52,-356.15 76.17,-357.78 80.5,-358.17 75.02,-358.34"/>
</a>
</g>
<text xml:space="preserve" text-anchor="start" x="137.5" y="-336.44" font-family="Consolas" font-size="10.00" fill="grey">strings_</text>
</g>
<!-- Node9&#45;&gt;Node25 -->
<g id="edge31_Node000025_Node000009" class="edge">
<title>Node9&#45;&gt;Node25</title>
<g id="a_edge31_Node000025_Node000009"><a xlink:title=" ">
<path fill="none" stroke="#9a32cd" stroke-dasharray="5,2" d="M57.39,-383.76C79.71,-485.41 204.93,-1054.69 211,-1061.31 221.38,-1072.64 235.53,-1080.22 250.12,-1085.27"/>
<polygon fill="#9a32cd" stroke="#9a32cd" points="56.33,-378.94 59.6,-383.34 56.61,-380.19 57.4,-383.82 57.4,-383.82 57.4,-383.82 56.61,-380.19 55.21,-384.31 56.33,-378.94"/>
</a>
</g>
<text xml:space="preserve" text-anchor="start" x="127" y="-1019.45" font-family="Consolas" font-size="10.00" fill="grey">filterRules_</text>
<text xml:space="preserve" text-anchor="start" x="127" y="-1004.95" font-family="Consolas" font-size="10.00" fill="grey">logFields_</text>
<text xml:space="preserve" text-anchor="start" x="127" y="-990.45" font-family="Consolas" font-size="10.00" fill="grey">msgFields_</text>
</g>
<!-- Node10 -->
<g id="Node000010" class="node">
<title>Node10</title>
<g id="a_Node000010"><a xlink:title=" ">
<polygon fill="white" stroke="none" points="389,-946.56 247,-946.56 247,-916.06 389,-916.06 389,-946.56"/>
<text xml:space="preserve" text-anchor="start" x="255" y="-932.11" font-family="Consolas" font-size="11.00">const QHash&lt; QString,</text>
<text xml:space="preserve" text-anchor="middle" x="318" y="-920.86" font-family="Consolas" font-size="11.00"> Field &gt;</text>
</a>
</g>
</g>
<!-- Node10&#45;&gt;Node1 -->
<g id="edge9_Node000001_Node000010" class="edge">
<title>Node10&#45;&gt;Node1</title>
<g id="a_edge9_Node000001_Node000010"><a xlink:title=" ">
<path fill="none" stroke="#9a32cd" stroke-dasharray="5,2" d="M395.01,-942.93C448.62,-947.97 521.11,-948.31 580.25,-925.31 640.19,-902 691.34,-839.72 709.34,-815.83"/>
<polygon fill="#9a32cd" stroke="#9a32cd" points="390.11,-942.45 395.31,-940.7 391.38,-942.57 395.08,-942.94 395.08,-942.94 395.08,-942.94 391.38,-942.57 394.86,-945.18 390.11,-942.45"/>
</a>
</g>
<text xml:space="preserve" text-anchor="start" x="485.38" y="-949.71" font-family="Consolas" font-size="10.00" fill="grey">fieldHash_</text>
</g>
<!-- Node11 -->
<g id="Node000011" class="node">
<title>Node11</title>
<g id="a_Node000011"><a xlink:title=" ">
<polygon fill="white" stroke="none" points="386,-897.94 250,-897.94 250,-878.69 386,-878.69 386,-897.94"/>
<text xml:space="preserve" text-anchor="middle" x="318" y="-883.49" font-family="Consolas" font-size="11.00">const QList&lt; Field &gt;</text>
</a>
</g>
</g>
<!-- Node11&#45;&gt;Node1 -->
<g id="edge10_Node000001_Node000011" class="edge">
<title>Node11&#45;&gt;Node1</title>
<g id="a_edge10_Node000001_Node000011"><a xlink:title=" ">
<path fill="none" stroke="#9a32cd" stroke-dasharray="5,2" d="M391.93,-891.37C445,-891.79 518.14,-888.6 580.25,-872.31 627.21,-860 677.32,-831.01 701.51,-815.89"/>
<polygon fill="#9a32cd" stroke="#9a32cd" points="387.1,-891.32 392.13,-889.12 388.39,-891.33 392.1,-891.37 392.1,-891.37 392.1,-891.37 388.39,-891.33 392.08,-893.62 387.1,-891.32"/>
</a>
</g>
<text xml:space="preserve" text-anchor="start" x="477.5" y="-908.92" font-family="Consolas" font-size="10.00" fill="grey">defLogFields_</text>
<text xml:space="preserve" text-anchor="start" x="477.5" y="-894.42" font-family="Consolas" font-size="10.00" fill="grey">defMsgFields_</text>
</g>
<!-- Node12 -->
<g id="Node000012" class="node">
<title>Node12</title>
<g id="a_Node000012"><a xlink:title=" ">
<polygon fill="white" stroke="none" points="341,-856.94 295,-856.94 295,-837.69 341,-837.69 341,-856.94"/>
<text xml:space="preserve" text-anchor="middle" x="318" y="-842.49" font-family="Consolas" font-size="11.00">mutex</text>
</a>
</g>
</g>
<!-- Node12&#45;&gt;Node1 -->
<g id="edge11_Node000001_Node000012" class="edge">
<title>Node12&#45;&gt;Node1</title>
<g id="a_edge11_Node000001_Node000012"><a xlink:title=" ">
<path fill="none" stroke="#9a32cd" stroke-dasharray="5,2" d="M346.82,-845.27C394.61,-841.66 495.36,-833.66 580.25,-824.31 602.39,-821.88 626.49,-818.82 648.18,-815.92"/>
<polygon fill="#9a32cd" stroke="#9a32cd" points="341.92,-845.64 346.74,-843.02 343.2,-845.54 346.91,-845.26 346.91,-845.26 346.91,-845.26 343.2,-845.54 347.08,-847.5 341.92,-845.64"/>
</a>
</g>
<text xml:space="preserve" text-anchor="start" x="461.75" y="-855.85" font-family="Consolas" font-size="10.00" fill="grey">initialLogsMutex_</text>
<text xml:space="preserve" text-anchor="start" x="461.75" y="-841.35" font-family="Consolas" font-size="10.00" fill="grey">maxMbSettingsMutex_</text>
</g>
<!-- Node13 -->
<g id="Node000013" class="node">
<title>Node13</title>
<g id="a_Node000013"><a xlink:title=" ">
<polygon fill="white" stroke="none" points="422,-819.56 214,-819.56 214,-789.06 422,-789.06 422,-819.56"/>
<text xml:space="preserve" text-anchor="start" x="222" y="-805.11" font-family="Consolas" font-size="11.00">QList&lt; anonymous_namespace</text>
<text xml:space="preserve" text-anchor="middle" x="318" y="-793.86" font-family="Consolas" font-size="11.00">{Log.cpp}::LogCore::InitialLog &gt;</text>
</a>
</g>
</g>
<!-- Node13&#45;&gt;Node1 -->
<g id="edge12_Node000001_Node000013" class="edge">
<title>Node13&#45;&gt;Node1</title>
<g id="a_edge12_Node000001_Node000013"><a xlink:title=" ">
<path fill="none" stroke="#9a32cd" stroke-dasharray="5,2" d="M427.88,-804.86C480.76,-805.13 544.38,-805.45 598.4,-805.72"/>
<polygon fill="#9a32cd" stroke="#9a32cd" points="423.04,-804.84 428.05,-802.61 424.32,-804.84 428.04,-804.86 428.04,-804.86 428.04,-804.86 424.32,-804.84 428.03,-807.11 423.04,-804.84"/>
</a>
</g>
<text xml:space="preserve" text-anchor="start" x="480.12" y="-809.61" font-family="Consolas" font-size="10.00" fill="grey">initialLogs_</text>
</g>
<!-- Node14 -->
<g id="Node000014" class="node">
<title>Node14</title>
<g id="a_Node000014"><a xlink:title=" ">
<polygon fill="white" stroke="none" points="359,-616.94 277,-616.94 277,-597.69 359,-597.69 359,-616.94"/>
<text xml:space="preserve" text-anchor="middle" x="318" y="-602.49" font-family="Consolas" font-size="11.00">atomic_bool</text>
</a>
</g>
</g>
<!-- Node14&#45;&gt;Node1 -->
<g id="edge13_Node000001_Node000014" class="edge">
<title>Node14&#45;&gt;Node1</title>
<g id="a_edge13_Node000001_Node000014"><a xlink:title=" ">
<path fill="none" stroke="#9a32cd" stroke-dasharray="5,2" d="M364.83,-599.53C419.62,-592.58 512.41,-588.46 580.25,-625.31 654.51,-665.65 699.96,-765.9 712.62,-796.98"/>
<polygon fill="#9a32cd" stroke="#9a32cd" points="360.2,-600.14 364.86,-597.26 361.47,-599.97 365.16,-599.49 365.16,-599.49 365.16,-599.49 361.47,-599.97 365.45,-601.72 360.2,-600.14"/>
</a>
</g>
<text xml:space="preserve" text-anchor="start" x="467" y="-788.81" font-family="Consolas" font-size="10.00" fill="grey">coloredConsole_</text>
<text xml:space="preserve" text-anchor="start" x="467" y="-774.31" font-family="Consolas" font-size="10.00" fill="grey">dispThreadRunning</text>
<text xml:space="preserve" text-anchor="start" x="467" y="-759.81" font-family="Consolas" font-size="10.00" fill="grey">  _</text>
<text xml:space="preserve" text-anchor="start" x="467" y="-745.31" font-family="Consolas" font-size="10.00" fill="grey">fileThreadRunning</text>
<text xml:space="preserve" text-anchor="start" x="467" y="-730.81" font-family="Consolas" font-size="10.00" fill="grey">  _</text>
<text xml:space="preserve" text-anchor="start" x="467" y="-716.31" font-family="Consolas" font-size="10.00" fill="grey">muteDisplay_</text>
<text xml:space="preserve" text-anchor="start" x="467" y="-701.81" font-family="Consolas" font-size="10.00" fill="grey">runtimeLogs_</text>
<text xml:space="preserve" text-anchor="start" x="467" y="-687.31" font-family="Consolas" font-size="10.00" fill="grey">shutdownMode</text>
<text xml:space="preserve" text-anchor="start" x="467" y="-672.81" font-family="Consolas" font-size="10.00" fill="grey">  _</text>
<text xml:space="preserve" text-anchor="start" x="467" y="-658.31" font-family="Consolas" font-size="10.00" fill="grey">tempConsole</text>
<text xml:space="preserve" text-anchor="start" x="467" y="-643.81" font-family="Consolas" font-size="10.00" fill="grey">  _</text>
<text xml:space="preserve" text-anchor="start" x="467" y="-629.31" font-family="Consolas" font-size="10.00" fill="grey">warnIsImp_</text>
</g>
<!-- Node15 -->
<g id="Node000015" class="node">
<title>Node15</title>
<g id="a_Node000015"><a xlink:title=" ">
<polygon fill="white" stroke="none" points="374,-576.94 262,-576.94 262,-557.69 374,-557.69 374,-576.94"/>
<text xml:space="preserve" text-anchor="middle" x="318" y="-562.49" font-family="Consolas" font-size="11.00">atomic&lt; qint64 &gt;</text>
</a>
</g>
</g>
<!-- Node15&#45;&gt;Node1 -->
<g id="edge14_Node000001_Node000015" class="edge">
<title>Node15&#45;&gt;Node1</title>
<g id="a_edge14_Node000001_Node000015"><a xlink:title=" ">
<path fill="none" stroke="#9a32cd" stroke-dasharray="5,2" d="M379.71,-562.42C446.15,-558.22 547.6,-555.5 580.25,-574.81 668.31,-626.91 705.35,-759.86 714.11,-796.72"/>
<polygon fill="#9a32cd" stroke="#9a32cd" points="375,-562.73 379.85,-560.16 376.28,-562.65 379.99,-562.41 379.99,-562.41 379.99,-562.41 376.28,-562.65 380.14,-564.65 375,-562.73"/>
</a>
</g>
<text xml:space="preserve" text-anchor="start" x="477.5" y="-578.81" font-family="Consolas" font-size="10.00" fill="grey">currentMaxMb_</text>
</g>
<!-- Node16 -->
<g id="Node000016" class="node">
<title>Node16</title>
<g id="a_Node000016"><a xlink:title=" ">
<polygon fill="white" stroke="none" points="377,-539.94 259,-539.94 259,-520.69 377,-520.69 377,-539.94"/>
<text xml:space="preserve" text-anchor="middle" x="318" y="-525.49" font-family="Consolas" font-size="11.00">atomic&lt; int64_t &gt;</text>
</a>
</g>
</g>
<!-- Node16&#45;&gt;Node1 -->
<g id="edge15_Node000001_Node000016" class="edge">
<title>Node16&#45;&gt;Node1</title>
<g id="a_edge15_Node000001_Node000016"><a xlink:title=" ">
<path fill="none" stroke="#9a32cd" stroke-dasharray="5,2" d="M382.86,-525.14C449.53,-520.99 548.7,-518.75 580.25,-538.81 677.84,-600.88 708.45,-756.47 714.85,-796.7"/>
<polygon fill="#9a32cd" stroke="#9a32cd" points="378.13,-525.44 382.98,-522.88 379.41,-525.36 383.12,-525.12 383.12,-525.12 383.12,-525.12 379.41,-525.36 383.26,-527.37 378.13,-525.44"/>
</a>
</g>
<text xml:space="preserve" text-anchor="start" x="459.12" y="-542.81" font-family="Consolas" font-size="10.00" fill="grey">maxMbLastChangeTime_</text>
</g>
<!-- Node17 -->
<g id="Node000017" class="node">
<title>Node17</title>
<g id="a_Node000017"><a xlink:title=" ">
<polygon fill="white" stroke="none" points="392,-502.94 244,-502.94 244,-483.69 392,-483.69 392,-502.94"/>
<text xml:space="preserve" text-anchor="middle" x="318" y="-488.49" font-family="Consolas" font-size="11.00">condition_variable_any</text>
</a>
</g>
</g>
<!-- Node17&#45;&gt;Node1 -->
<g id="edge16_Node000001_Node000017" class="edge">
<title>Node17&#45;&gt;Node1</title>
<g id="a_edge16_Node000001_Node000017"><a xlink:title=" ">
<path fill="none" stroke="#9a32cd" stroke-dasharray="5,2" d="M397.68,-486.94C463.6,-483.2 551.41,-482.44 580.25,-501.81 688.14,-574.31 711.39,-753.83 715.48,-796.91"/>
<polygon fill="#9a32cd" stroke="#9a32cd" points="392.99,-487.22 397.85,-484.68 394.27,-487.14 397.98,-486.92 397.98,-486.92 397.98,-486.92 394.27,-487.14 398.12,-489.17 392.99,-487.22"/>
</a>
</g>
<text xml:space="preserve" text-anchor="start" x="464.38" y="-505.81" font-family="Consolas" font-size="10.00" fill="grey">maxMbThreadWakeup_</text>
</g>
<!-- Node18 -->
<g id="Node000018" class="node">
<title>Node18</title>
<g id="a_Node000018"><a xlink:title=" ">
<polygon fill="white" stroke="none" points="347,-465.94 289,-465.94 289,-446.69 347,-446.69 347,-465.94"/>
<text xml:space="preserve" text-anchor="middle" x="318" y="-451.49" font-family="Consolas" font-size="11.00">jthread</text>
</a>
</g>
</g>
<!-- Node18&#45;&gt;Node1 -->
<g id="edge17_Node000001_Node000018" class="edge">
<title>Node18&#45;&gt;Node1</title>
<g id="a_edge17_Node000001_Node000018"><a xlink:title=" ">
<path fill="none" stroke="#9a32cd" stroke-dasharray="5,2" d="M352.35,-448.59C414.34,-435.04 544.29,-410.71 580.25,-435.81 708.06,-525.05 716.11,-748.28 716.32,-796.88"/>
<polygon fill="#9a32cd" stroke="#9a32cd" points="347.76,-449.6 352.15,-446.33 349.01,-449.33 352.64,-448.52 352.64,-448.52 352.64,-448.52 349.01,-449.33 353.12,-450.72 347.76,-449.6"/>
</a>
</g>
<text xml:space="preserve" text-anchor="start" x="480.12" y="-468.81" font-family="Consolas" font-size="10.00" fill="grey">dispThread_</text>
<text xml:space="preserve" text-anchor="start" x="480.12" y="-454.31" font-family="Consolas" font-size="10.00" fill="grey">fileThread_</text>
<text xml:space="preserve" text-anchor="start" x="480.12" y="-439.81" font-family="Consolas" font-size="10.00" fill="grey">maxMbThread_</text>
</g>
<!-- Node19&#45;&gt;Node1 -->
<g id="edge18_Node000001_Node000019" class="edge">
<title>Node19&#45;&gt;Node1</title>
<g id="a_edge18_Node000001_Node000019"><a xlink:title=" ">
<path fill="none" stroke="#9a32cd" stroke-dasharray="5,2" d="M391.84,-222.1C449.55,-213.79 528.75,-213.06 580.25,-256.31 668.56,-330.49 709.2,-730.27 715.4,-796.9"/>
<polygon fill="#9a32cd" stroke="#9a32cd" points="387.18,-222.8 391.79,-219.84 388.45,-222.61 392.12,-222.06 392.12,-222.06 392.12,-222.06 388.45,-222.61 392.46,-224.29 387.18,-222.8"/>
</a>
</g>
<text xml:space="preserve" text-anchor="start" x="485.38" y="-274.81" font-family="Consolas" font-size="10.00" fill="grey">logConfig_</text>
<text xml:space="preserve" text-anchor="start" x="485.38" y="-260.31" font-family="Consolas" font-size="10.00" fill="grey">msgConfig_</text>
</g>
<!-- Node20 -->
<g id="Node000020" class="node">
<title>Node20</title>
<g id="a_Node000020"><a xlink:title=" ">
<polygon fill="white" stroke="none" points="103,-296.94 3,-296.94 3,-277.69 103,-277.69 103,-296.94"/>
<text xml:space="preserve" text-anchor="middle" x="53" y="-282.49" font-family="Consolas" font-size="11.00">QReadWriteLock</text>
</a>
</g>
</g>
<!-- Node20&#45;&gt;Node1 -->
<g id="edge24_Node000001_Node000020" class="edge">
<title>Node20&#45;&gt;Node1</title>
<g id="a_edge24_Node000001_Node000020"><a xlink:title=" ">
<path fill="none" stroke="#9a32cd" stroke-dasharray="5,2" d="M108.7,-290.51C181.45,-295.4 313.81,-306.57 425,-328.31 495.38,-342.08 528.85,-322.3 580.25,-372.31 709.57,-498.13 716.38,-745.11 716.36,-796.72"/>
<polygon fill="#9a32cd" stroke="#9a32cd" points="103.92,-290.19 109.06,-288.28 105.2,-290.28 108.91,-290.52 108.91,-290.52 108.91,-290.52 105.2,-290.28 108.76,-292.77 103.92,-290.19"/>
</a>
</g>
<text xml:space="preserve" text-anchor="start" x="270.75" y="-346.81" font-family="Consolas" font-size="10.00" fill="grey">filterRulesLock_</text>
<text xml:space="preserve" text-anchor="start" x="270.75" y="-332.31" font-family="Consolas" font-size="10.00" fill="grey">logCategoriesLock_</text>
</g>
<!-- Node20&#45;&gt;Node19 -->
<g id="edge19_Node000019_Node000020" class="edge">
<title>Node20&#45;&gt;Node19</title>
<g id="a_edge19_Node000019_Node000020"><a xlink:title=" ">
<path fill="none" stroke="#9a32cd" stroke-dasharray="5,2" d="M105.29,-276.52C111.58,-275.25 117.94,-273.98 124,-272.81 165.94,-264.72 213.15,-256.27 250.37,-249.76"/>
<polygon fill="#9a32cd" stroke="#9a32cd" points="100.72,-277.45 105.17,-274.25 101.98,-277.2 105.62,-276.46 105.62,-276.46 105.62,-276.46 101.98,-277.2 106.07,-278.66 100.72,-277.45"/>
</a>
</g>
<text xml:space="preserve" text-anchor="start" x="145.38" y="-276.81" font-family="Consolas" font-size="10.00" fill="grey">lock_</text>
</g>
<!-- Node21 -->
<g id="Node000021" class="node">
<title>Node21</title>
<g id="a_Node000021"><a xlink:title=" ">
<polygon fill="white" stroke="none" points="106,-186.94 0,-186.94 0,-167.69 106,-167.69 106,-186.94"/>
<text xml:space="preserve" text-anchor="middle" x="53" y="-172.49" font-family="Consolas" font-size="11.00">atomic_uint64_t</text>
</a>
</g>
</g>
<!-- Node21&#45;&gt;Node1 -->
<g id="edge26_Node000001_Node000021" class="edge">
<title>Node21&#45;&gt;Node1</title>
<g id="a_edge26_Node000001_Node000021"><a xlink:title=" ">
<path fill="none" stroke="#9a32cd" stroke-dasharray="5,2" d="M111.76,-172.64C234.02,-164.08 513.26,-151.96 580.25,-213.31 671.78,-297.14 709.87,-726.77 715.5,-796.69"/>
<polygon fill="#9a32cd" stroke="#9a32cd" points="106.92,-172.99 111.75,-170.39 108.2,-172.9 111.91,-172.63 111.91,-172.63 111.91,-172.63 108.2,-172.9 112.07,-174.88 106.92,-172.99"/>
</a>
</g>
<text xml:space="preserve" text-anchor="start" x="281.25" y="-173.96" font-family="Consolas" font-size="10.00" fill="grey">threadCounter_</text>
</g>
<!-- Node21&#45;&gt;Node19 -->
<g id="edge20_Node000019_Node000021" class="edge">
<title>Node21&#45;&gt;Node19</title>
<g id="a_edge20_Node000019_Node000021"><a xlink:title=" ">
<path fill="none" stroke="#9a32cd" stroke-dasharray="5,2" d="M101.36,-188.3C142.84,-197.92 203.57,-212 250.02,-222.78"/>
<polygon fill="#9a32cd" stroke="#9a32cd" points="96.57,-187.19 101.95,-186.13 97.82,-187.48 101.44,-188.32 101.44,-188.32 101.44,-188.32 97.82,-187.48 100.93,-190.51 96.57,-187.19"/>
</a>
</g>
<text xml:space="preserve" text-anchor="start" x="137.5" y="-211.81" font-family="Consolas" font-size="10.00" fill="grey">version_</text>
</g>
<!-- Node22 -->
<g id="Node000022" class="node">
<title>Node22</title>
<g id="a_Node000022"><a xlink:title=" ">
<polygon fill="white" stroke="none" points="103,-240.94 3,-240.94 3,-221.69 103,-221.69 103,-240.94"/>
<text xml:space="preserve" text-anchor="middle" x="53" y="-226.49" font-family="Consolas" font-size="11.00">QList&lt; Field &gt;</text>
</a>
</g>
</g>
<!-- Node22&#45;&gt;Node19 -->
<g id="edge21_Node000019_Node000022" class="edge">
<title>Node22&#45;&gt;Node19</title>
<g id="a_edge21_Node000019_Node000022"><a xlink:title=" ">
<path fill="none" stroke="#9a32cd" stroke-dasharray="5,2" d="M108.94,-231.48C134.5,-231.67 165.31,-232.05 193,-232.81 211.53,-233.33 231.6,-234.11 250.09,-234.94"/>
<polygon fill="#9a32cd" stroke="#9a32cd" points="104.12,-231.45 109.13,-229.23 105.4,-231.46 109.12,-231.48 109.12,-231.48 109.12,-231.48 105.4,-231.46 109.1,-233.73 104.12,-231.45"/>
</a>
</g>
<text xml:space="preserve" text-anchor="start" x="140.12" y="-236.81" font-family="Consolas" font-size="10.00" fill="grey">fields_</text>
</g>
<!-- Node23 -->
<g id="Node000023" class="node">
<title>Node23</title>
<g id="a_Node000023"><a xlink:title=" ">
<polygon fill="white" stroke="none" points="73,-75.94 33,-75.94 33,-56.69 73,-56.69 73,-75.94"/>
<text xml:space="preserve" text-anchor="middle" x="53" y="-61.49" font-family="Consolas" font-size="11.00">bool</text>
</a>
</g>
</g>
<!-- Node23&#45;&gt;Node1 -->
<g id="edge25_Node000001_Node000023" class="edge">
<title>Node23&#45;&gt;Node1</title>
<g id="a_edge25_Node000001_Node000023"><a xlink:title=" ">
<path fill="none" stroke="#9a32cd" stroke-dasharray="5,2" d="M78.78,-56.64C164.17,-25.11 448.15,64.49 580.25,-82.31 681.62,-194.97 711.86,-719.56 715.79,-796.8"/>
<polygon fill="#9a32cd" stroke="#9a32cd" points="74.12,-58.38 78.02,-54.53 75.32,-57.93 78.81,-56.63 78.81,-56.63 78.81,-56.63 75.32,-57.93 79.59,-58.74 74.12,-58.38"/>
</a>
</g>
<text xml:space="preserve" text-anchor="start" x="265.5" y="-50.2" font-family="Consolas" font-size="10.00" fill="grey">filterRulesTempState</text>
<text xml:space="preserve" text-anchor="start" x="265.5" y="-35.7" font-family="Consolas" font-size="10.00" fill="grey">  _</text>
<text xml:space="preserve" text-anchor="start" x="265.5" y="-21.2" font-family="Consolas" font-size="10.00" fill="grey">permConsole_</text>
</g>
<!-- Node23&#45;&gt;Node19 -->
<g id="edge23_Node000019_Node000023" class="edge">
<title>Node23&#45;&gt;Node19</title>
<g id="a_edge23_Node000019_Node000023"><a xlink:title=" ">
<path fill="none" stroke="#9a32cd" stroke-dasharray="5,2" d="M72.06,-79.36C98.95,-98.96 150.9,-137.5 193,-172.81 201.32,-179.79 201.97,-183.3 211,-189.31 227.2,-200.1 246.16,-209.69 263.52,-217.46"/>
<polygon fill="#9a32cd" stroke="#9a32cd" points="68.32,-76.64 73.69,-77.76 69.35,-77.39 72.36,-79.58 72.36,-79.58 72.36,-79.58 69.35,-77.39 71.04,-81.4 68.32,-76.64"/>
</a>
</g>
<text xml:space="preserve" text-anchor="start" x="145.38" y="-176.81" font-family="Consolas" font-size="10.00" fill="grey">temp_</text>
</g>
<!-- Node24 -->
<g id="Node000024" class="node">
<title>Node24</title>
<g id="a_Node000024"><a xlink:title=" ">
<polygon fill="white" stroke="none" points="410,-132.19 226,-132.19 226,-90.44 410,-90.44 410,-132.19"/>
<text xml:space="preserve" text-anchor="start" x="234" y="-117.74" font-family="Consolas" font-size="11.00">ConcurrentQueue&lt; anonymous</text>
<text xml:space="preserve" text-anchor="start" x="234" y="-106.49" font-family="Consolas" font-size="11.00">_namespace{Log.cpp}::LogCore</text>
<text xml:space="preserve" text-anchor="middle" x="318" y="-95.24" font-family="Consolas" font-size="11.00">::OneLog &gt;</text>
</a>
</g>
</g>
<!-- Node24&#45;&gt;Node1 -->
<g id="edge27_Node000001_Node000024" class="edge">
<title>Node24&#45;&gt;Node1</title>
<g id="a_edge27_Node000001_Node000024"><a xlink:title=" ">
<path fill="none" stroke="#9a32cd" stroke-dasharray="5,2" d="M410.98,-89.6C466.33,-82.26 534.66,-84.12 580.25,-123.31 688.89,-216.71 712.94,-722.56 715.91,-797.13"/>
<polygon fill="#9a32cd" stroke="#9a32cd" points="406.19,-90.27 410.83,-87.35 407.46,-90.1 411.14,-89.58 411.14,-89.58 411.14,-89.58 407.46,-90.1 411.46,-91.81 406.19,-90.27"/>
</a>
</g>
<text xml:space="preserve" text-anchor="start" x="485.38" y="-141.81" font-family="Consolas" font-size="10.00" fill="grey">dispQueue_</text>
<text xml:space="preserve" text-anchor="start" x="485.38" y="-127.31" font-family="Consolas" font-size="10.00" fill="grey">fileQueue_</text>
</g>
<!-- Node25&#45;&gt;Node1 -->
<g id="edge28_Node000001_Node000025" class="edge">
<title>Node25&#45;&gt;Node1</title>
<g id="a_edge28_Node000001_Node000025"><a xlink:title=" ">
<path fill="none" stroke="#9a32cd" stroke-dasharray="5,2" d="M391.94,-1081.82C448.02,-1068.56 525,-1043.81 580.25,-1000.31 649.41,-945.87 697.98,-846.88 712.05,-815.87"/>
<polygon fill="#9a32cd" stroke="#9a32cd" points="387.08,-1082.95 391.45,-1079.63 388.33,-1082.66 391.95,-1081.82 391.95,-1081.82 391.95,-1081.82 388.33,-1082.66 392.46,-1084.01 387.08,-1082.95"/>
</a>
</g>
<text xml:space="preserve" text-anchor="start" x="490.62" y="-1070.77" font-family="Consolas" font-size="10.00" fill="grey">startup_</text>
</g>
</g>
</svg>
