<?xml version="1.0" encoding="UTF-8" standalone="no"?>
<!DOCTYPE svg PUBLIC "-//W3C//DTD SVG 1.1//EN"
 "http://www.w3.org/Graphics/SVG/1.1/DTD/svg11.dtd">
<!-- Generated by graphviz version 14.0.0 (20250921.2048)
 -->
<!-- Title: ALogger Pages: 1 -->
<svg width="230pt" height="99pt"
 viewBox="0.00 0.00 230.00 99.00" xmlns="http://www.w3.org/2000/svg" xmlns:xlink="http://www.w3.org/1999/xlink">

<svg id="main" version="1.1" xmlns="http://www.w3.org/2000/svg" xmlns:xlink="http://www.w3.org/1999/xlink" xml:space="preserve">

<style type="text/css"><![CDATA[
.node, .edge {opacity: 0.7;}
.node.selected, .edge.selected {opacity: 1;}
.edge:hover path { stroke: red; }
.edge:hover polygon { stroke: red; fill: red; }
]]></style>
<script type="application/ecmascript" xlink:href="../../svg.min.js"/>
<svg id="graph" class="graph">
<g id="graph0" class="graph" transform="scale(1 1) rotate(0) translate(4 95)">
<title>ALogger</title>
<!-- Node1 -->
<g id="Node000001" class="node">
<title>Node1</title>
<g id="a_Node000001"><a xlink:title=" ">
<polygon fill="#999999" stroke="none" points="128,-19.25 70,-19.25 70,0 128,0 128,-19.25"/>
<text xml:space="preserve" text-anchor="start" x="78" y="-5.8" font-family="Consolas" font-weight="bold" font-size="11.00">ALogger</text>
</a>
</g>
</g>
<!-- Node2 -->
<g id="Node000002" class="node">
<title>Node2</title>
<g id="a_Node000002"><a xlink:title=" ">
<polygon fill="white" stroke="none" points="58,-91 0,-91 0,-71.75 58,-71.75 58,-91"/>
<text xml:space="preserve" text-anchor="middle" x="29" y="-76.55" font-family="Consolas" font-size="11.00">QObject</text>
</a>
</g>
</g>
<!-- Node2&#45;&gt;Node1 -->
<g id="edge1_Node000001_Node000002" class="edge">
<title>Node2&#45;&gt;Node1</title>
<g id="a_edge1_Node000001_Node000002"><a xlink:title=" ">
<path fill="none" stroke="#63b8ff" d="M41.67,-67.75C55.76,-53.71 78.13,-31.42 90.35,-19.25"/>
<polygon fill="#63b8ff" stroke="#63b8ff" points="38.45,-70.96 40.4,-65.84 39.35,-70.06 41.99,-67.43 41.99,-67.43 41.99,-67.43 39.35,-70.06 43.58,-69.03 38.45,-70.96"/>
</a>
</g>
</g>
<!-- Node3 -->
<g id="Node000003" class="node">
<title>Node3</title>
<g id="a_Node000003"><a xlink:title=" ">
<polygon fill="white" stroke="none" points="122,-91 76,-91 76,-71.75 122,-71.75 122,-91"/>
<text xml:space="preserve" text-anchor="middle" x="99" y="-76.55" font-family="Consolas" font-size="11.00">QFile</text>
</a>
</g>
</g>
<!-- Node3&#45;&gt;Node1 -->
<g id="edge2_Node000001_Node000003" class="edge">
<title>Node3&#45;&gt;Node1</title>
<g id="a_edge2_Node000001_Node000003"><a xlink:title=" ">
<path fill="none" stroke="#9a32cd" stroke-dasharray="5,2" d="M99,-65.89C99,-51.81 99,-30.89 99,-19.25"/>
<polygon fill="#9a32cd" stroke="#9a32cd" points="99,-70.6 96.75,-65.6 99,-69.32 99,-65.6 99,-65.6 99,-65.6 99,-69.32 101.25,-65.6 99,-70.6"/>
</a>
</g>
<text xml:space="preserve" text-anchor="start" x="102" y="-41.25" font-family="Consolas" font-size="10.00" fill="grey">file_</text>
</g>
<!-- Node4 -->
<g id="Node000004" class="node">
<title>Node4</title>
<g id="a_Node000004"><a xlink:title=" ">
<polygon fill="white" stroke="none" points="222,-91 140,-91 140,-71.75 222,-71.75 222,-91"/>
<text xml:space="preserve" text-anchor="middle" x="181" y="-76.55" font-family="Consolas" font-size="11.00">QTextStream</text>
</a>
</g>
</g>
<!-- Node4&#45;&gt;Node1 -->
<g id="edge3_Node000001_Node000004" class="edge">
<title>Node4&#45;&gt;Node1</title>
<g id="a_edge3_Node000001_Node000004"><a xlink:title=" ">
<path fill="none" stroke="#9a32cd" stroke-dasharray="5,2" d="M168.32,-67.73C159.28,-58.91 146.71,-47.01 135,-37.25 127.36,-30.88 118.36,-24.22 111.27,-19.16"/>
<polygon fill="#9a32cd" stroke="#9a32cd" points="171.59,-70.94 166.45,-69.04 170.67,-70.04 168.02,-67.44 168.02,-67.44 168.02,-67.44 170.67,-70.04 169.6,-65.83 171.59,-70.94"/>
</a>
</g>
<text xml:space="preserve" text-anchor="start" x="156.17" y="-41.25" font-family="Consolas" font-size="10.00" fill="grey">stream_</text>
</g>
</g>
</svg>
</svg>

<style type='text/css'>
<![CDATA[
[data-mouse-over-selected='false'] { opacity: 0.7; }
[data-mouse-over-selected='true']  { opacity: 1.0; }
]]>
</style>
<script type="application/ecmascript"><![CDATA[
document.addEventListener('DOMContentLoaded', (event) => {
  highlightEdges();
  highlightAdjacentNodes();
});
]]></script>
</svg>
