<?xml version="1.0" encoding="UTF-8" standalone="no"?>
<!DOCTYPE svg PUBLIC "-//W3C//DTD SVG 1.1//EN"
 "http://www.w3.org/Graphics/SVG/1.1/DTD/svg11.dtd">
<!-- Generated by graphviz version 14.0.0 (20250921.2048)
 -->
<!-- Title: npi::app::appProgramDataDir Pages: 1 -->
<svg width="614pt" height="50pt"
 viewBox="0.00 0.00 614.00 50.00" xmlns="http://www.w3.org/2000/svg" xmlns:xlink="http://www.w3.org/1999/xlink">
<g id="graph0" class="graph" transform="scale(1 1) rotate(0) translate(4 45.75)">
<title>npi::app::appProgramDataDir</title>
<!-- Node1 -->
<g id="Node000001" class="node">
<title>Node1</title>
<g id="a_Node000001"><a xlink:title="Absolute path to C:\ProgramData\[orgFolder]\[appFolder].">
<polygon fill="#999999" stroke="none" points="178,-30.5 0,-30.5 0,-11.25 178,-11.25 178,-30.5"/>
<text xml:space="preserve" text-anchor="start" x="8" y="-17.05" font-family="Consolas" font-weight="bold" font-size="11.00">npi::app::appProgramDataDir</text>
</a>
</g>
</g>
<!-- Node2 -->
<g id="Node000002" class="node">
<title>Node2</title>
<g id="a_Node000002"><a xlink:href="../../dc/dba/namespacenpi_1_1app.html#a30836be8b9337a64733a6e05594b23c8" target="_top" xlink:title="Absolute path to C:\ProgramData\[orgFolder].">
<polygon fill="white" stroke="none" points="392,-30.5 214,-30.5 214,-11.25 392,-11.25 392,-30.5"/>
<text xml:space="preserve" text-anchor="middle" x="303" y="-16.05" font-family="Consolas" font-size="11.00">npi::app::orgProgramDataDir</text>
</a>
</g>
</g>
<!-- Node1&#45;&gt;Node2 -->
<g id="edge1_Node000001_Node000002" class="edge">
<title>Node1&#45;&gt;Node2</title>
<g id="a_edge1_Node000001_Node000002"><a xlink:title=" ">
<path fill="none" stroke="#63b8ff" d="M177.76,-20.88C187.85,-20.88 198.17,-20.88 208.34,-20.88"/>
<polygon fill="#63b8ff" stroke="#63b8ff" points="213.09,-20.88 208.09,-23.13 211.81,-20.88 208.09,-20.88 208.09,-20.88 208.09,-20.88 211.81,-20.88 208.09,-18.63 213.09,-20.88"/>
</a>
</g>
</g>
<!-- Node3 -->
<g id="Node000003" class="node">
<title>Node3</title>
<g id="a_Node000003"><a xlink:href="../../da/d8c/namespaceanonymous__namespace_02_app_util_8cpp_03.html#a5bca34d4144e402dfa63ba6588cfa0c3" target="_top" xlink:title="Retrieve a Windows Known Folder absolute path as a QString.">
<polygon fill="white" stroke="none" points="606,-41.75 428,-41.75 428,0 606,0 606,-41.75"/>
<text xml:space="preserve" text-anchor="start" x="436" y="-27.3" font-family="Consolas" font-size="11.00">anonymous_namespace</text>
<text xml:space="preserve" text-anchor="start" x="436" y="-16.05" font-family="Consolas" font-size="11.00">{AppUtil::cpp}::knownFolder</text>
<text xml:space="preserve" text-anchor="middle" x="517" y="-4.8" font-family="Consolas" font-size="11.00">PathWin</text>
</a>
</g>
</g>
<!-- Node2&#45;&gt;Node3 -->
<g id="edge2_Node000002_Node000003" class="edge">
<title>Node2&#45;&gt;Node3</title>
<g id="a_edge2_Node000002_Node000003"><a xlink:title=" ">
<path fill="none" stroke="#63b8ff" d="M391.76,-20.88C401.85,-20.88 412.17,-20.88 422.34,-20.88"/>
<polygon fill="#63b8ff" stroke="#63b8ff" points="427.09,-20.88 422.09,-23.13 425.81,-20.88 422.09,-20.88 422.09,-20.88 422.09,-20.88 425.81,-20.88 422.09,-18.63 427.09,-20.88"/>
</a>
</g>
</g>
</g>
</svg>
