<?xml version="1.0" encoding="UTF-8" standalone="no"?>
<!DOCTYPE svg PUBLIC "-//W3C//DTD SVG 1.1//EN"
 "http://www.w3.org/Graphics/SVG/1.1/DTD/svg11.dtd">
<!-- Generated by graphviz version 14.0.0 (20250921.2048)
 -->
<!-- Title: npi::app::orgProgramDataDir Pages: 1 -->
<svg width="608pt" height="27pt"
 viewBox="0.00 0.00 608.00 27.00" xmlns="http://www.w3.org/2000/svg" xmlns:xlink="http://www.w3.org/1999/xlink">
<g id="graph0" class="graph" transform="scale(1 1) rotate(0) translate(4 23.25)">
<title>npi::app::orgProgramDataDir</title>
<!-- Node1 -->
<g id="Node000001" class="node">
<title>Node1</title>
<g id="a_Node000001"><a xlink:title="Absolute path to C:\ProgramData\[orgFolder].">
<polygon fill="#999999" stroke="none" points="600,-19.25 422,-19.25 422,0 600,0 600,-19.25"/>
<text xml:space="preserve" text-anchor="start" x="430" y="-5.8" font-family="Consolas" font-weight="bold" font-size="11.00">npi::app::orgProgramDataDir</text>
</a>
</g>
</g>
<!-- Node2 -->
<g id="Node000002" class="node">
<title>Node2</title>
<g id="a_Node000002"><a xlink:href="../../dc/dba/namespacenpi_1_1app.html#a40a2a28831f2f410c995f0657baf6544" target="_top" xlink:title="Absolute path to C:\ProgramData\[orgFolder]\[appFolder].">
<polygon fill="white" stroke="none" points="386,-19.25 208,-19.25 208,0 386,0 386,-19.25"/>
<text xml:space="preserve" text-anchor="middle" x="297" y="-4.8" font-family="Consolas" font-size="11.00">npi::app::appProgramDataDir</text>
</a>
</g>
</g>
<!-- Node1&#45;&gt;Node2 -->
<g id="edge1_Node000001_Node000002" class="edge">
<title>Node1&#45;&gt;Node2</title>
<g id="a_edge1_Node000001_Node000002"><a xlink:title=" ">
<path fill="none" stroke="#63b8ff" d="M416.27,-9.62C406.11,-9.62 395.79,-9.62 385.69,-9.62"/>
<polygon fill="#63b8ff" stroke="#63b8ff" points="421.02,-9.63 416.02,-11.88 419.74,-9.63 416.02,-9.63 416.02,-9.63 416.02,-9.63 419.74,-9.63 416.02,-7.38 421.02,-9.63"/>
</a>
</g>
</g>
<!-- Node3 -->
<g id="Node000003" class="node">
<title>Node3</title>
<g id="a_Node000003"><a xlink:href="../../dc/dba/namespacenpi_1_1app.html#a723a01872a6ddb63e5bec52939f8c021" target="_top" xlink:title="Absolute path of application&#39;s main settings.ini at C:\ProgramData\[orgFolder]\[appFolder]\.">
<polygon fill="white" stroke="none" points="172,-19.25 0,-19.25 0,0 172,0 172,-19.25"/>
<text xml:space="preserve" text-anchor="middle" x="86" y="-4.8" font-family="Consolas" font-size="11.00">npi::app::settingsMainFile</text>
</a>
</g>
</g>
<!-- Node2&#45;&gt;Node3 -->
<g id="edge2_Node000002_Node000003" class="edge">
<title>Node2&#45;&gt;Node3</title>
<g id="a_edge2_Node000002_Node000003"><a xlink:title=" ">
<path fill="none" stroke="#63b8ff" d="M202.31,-9.62C192.16,-9.62 181.87,-9.62 171.83,-9.62"/>
<polygon fill="#63b8ff" stroke="#63b8ff" points="207.06,-9.63 202.06,-11.88 205.77,-9.63 202.06,-9.63 202.06,-9.63 202.06,-9.63 205.77,-9.63 202.06,-7.38 207.06,-9.63"/>
</a>
</g>
</g>
</g>
</svg>
