<?xml version="1.0" encoding="UTF-8" standalone="no"?>
<!DOCTYPE svg PUBLIC "-//W3C//DTD SVG 1.1//EN"
 "http://www.w3.org/Graphics/SVG/1.1/DTD/svg11.dtd">
<!-- Generated by graphviz version 14.0.0 (20250921.2048)
 -->
<!-- Title: npi::app::appPublicDocumentsDir Pages: 1 -->
<svg width="662pt" height="50pt"
 viewBox="0.00 0.00 662.00 50.00" xmlns="http://www.w3.org/2000/svg" xmlns:xlink="http://www.w3.org/1999/xlink">
<g id="graph0" class="graph" transform="scale(1 1) rotate(0) translate(4 45.75)">
<title>npi::app::appPublicDocumentsDir</title>
<!-- Node1 -->
<g id="Node000001" class="node">
<title>Node1</title>
<g id="a_Node000001"><a xlink:title="Absolute path to C:\Users\Public\Documents\[orgFolder]\[appFolder].">
<polygon fill="#999999" stroke="none" points="202,-30.5 0,-30.5 0,-11.25 202,-11.25 202,-30.5"/>
<text xml:space="preserve" text-anchor="start" x="8" y="-17.05" font-family="Consolas" font-weight="bold" font-size="11.00">npi::app::appPublicDocumentsDir</text>
</a>
</g>
</g>
<!-- Node2 -->
<g id="Node000002" class="node">
<title>Node2</title>
<g id="a_Node000002"><a xlink:href="../../dc/dba/namespacenpi_1_1app.html#ac0dca24602a75822c6f7fcf63f8781d9" target="_top" xlink:title="Absolute path to C:\Users\Public\Documents\[orgFolder].">
<polygon fill="white" stroke="none" points="440,-30.5 238,-30.5 238,-11.25 440,-11.25 440,-30.5"/>
<text xml:space="preserve" text-anchor="middle" x="339" y="-16.05" font-family="Consolas" font-size="11.00">npi::app::orgPublicDocumentsDir</text>
</a>
</g>
</g>
<!-- Node1&#45;&gt;Node2 -->
<g id="edge1_Node000001_Node000002" class="edge">
<title>Node1&#45;&gt;Node2</title>
<g id="a_edge1_Node000001_Node000002"><a xlink:title=" ">
<path fill="none" stroke="#63b8ff" d="M201.74,-20.88C211.84,-20.88 222.12,-20.88 232.27,-20.88"/>
<polygon fill="#63b8ff" stroke="#63b8ff" points="237.02,-20.88 232.02,-23.13 235.74,-20.88 232.02,-20.88 232.02,-20.88 232.02,-20.88 235.74,-20.88 232.02,-18.63 237.02,-20.88"/>
</a>
</g>
</g>
<!-- Node3 -->
<g id="Node000003" class="node">
<title>Node3</title>
<g id="a_Node000003"><a xlink:href="../../da/d8c/namespaceanonymous__namespace_02_app_util_8cpp_03.html#a5bca34d4144e402dfa63ba6588cfa0c3" target="_top" xlink:title="Retrieve a Windows Known Folder absolute path as a QString.">
<polygon fill="white" stroke="none" points="654,-41.75 476,-41.75 476,0 654,0 654,-41.75"/>
<text xml:space="preserve" text-anchor="start" x="484" y="-27.3" font-family="Consolas" font-size="11.00">anonymous_namespace</text>
<text xml:space="preserve" text-anchor="start" x="484" y="-16.05" font-family="Consolas" font-size="11.00">{AppUtil::cpp}::knownFolder</text>
<text xml:space="preserve" text-anchor="middle" x="565" y="-4.8" font-family="Consolas" font-size="11.00">PathWin</text>
</a>
</g>
</g>
<!-- Node2&#45;&gt;Node3 -->
<g id="edge2_Node000002_Node000003" class="edge">
<title>Node2&#45;&gt;Node3</title>
<g id="a_edge2_Node000002_Node000003"><a xlink:title=" ">
<path fill="none" stroke="#63b8ff" d="M439.88,-20.88C449.93,-20.88 460.11,-20.88 470.09,-20.88"/>
<polygon fill="#63b8ff" stroke="#63b8ff" points="475.06,-20.88 470.06,-23.13 473.78,-20.88 470.06,-20.88 470.06,-20.88 470.06,-20.88 473.78,-20.88 470.06,-18.63 475.06,-20.88"/>
</a>
</g>
</g>
</g>
</svg>
