<?xml version="1.0" encoding="UTF-8" standalone="no"?>
<!DOCTYPE svg PUBLIC "-//W3C//DTD SVG 1.1//EN"
 "http://www.w3.org/Graphics/SVG/1.1/DTD/svg11.dtd">
<!-- Generated by graphviz version 14.0.0 (20250921.2048)
 -->
<!-- Title: npi::app::appProgramDataDir Pages: 1 -->
<svg width="828pt" height="39pt"
 viewBox="0.00 0.00 828.00 39.00" xmlns="http://www.w3.org/2000/svg" xmlns:xlink="http://www.w3.org/1999/xlink">
<g id="graph0" class="graph" transform="scale(1 1) rotate(0) translate(4 34.5)">
<title>npi::app::appProgramDataDir</title>
<!-- Node1 -->
<g id="Node000001" class="node">
<title>Node1</title>
<g id="a_Node000001"><a xlink:title="Absolute application&#45;level ProgramData path.">
<polygon fill="#999999" stroke="none" points="178,-24.88 0,-24.88 0,-5.62 178,-5.62 178,-24.88"/>
<text xml:space="preserve" text-anchor="start" x="8" y="-11.43" font-family="Consolas" font-weight="bold" font-size="11.00">npi::app::appProgramDataDir</text>
</a>
</g>
</g>
<!-- Node2 -->
<g id="Node000002" class="node">
<title>Node2</title>
<g id="a_Node000002"><a xlink:href="../../dc/dba/namespacenpi_1_1app.html#a30836be8b9337a64733a6e05594b23c8" target="_top" xlink:title="Absolute organization&#45;level ProgramData path.">
<polygon fill="white" stroke="none" points="392,-24.88 214,-24.88 214,-5.62 392,-5.62 392,-24.88"/>
<text xml:space="preserve" text-anchor="middle" x="303" y="-10.43" font-family="Consolas" font-size="11.00">npi::app::orgProgramDataDir</text>
</a>
</g>
</g>
<!-- Node1&#45;&gt;Node2 -->
<g id="edge1_Node000001_Node000002" class="edge">
<title>Node1&#45;&gt;Node2</title>
<g id="a_edge1_Node000001_Node000002"><a xlink:title=" ">
<path fill="none" stroke="#63b8ff" d="M177.76,-15.25C187.85,-15.25 198.17,-15.25 208.34,-15.25"/>
<polygon fill="#63b8ff" stroke="#63b8ff" points="213.09,-15.25 208.09,-17.5 211.81,-15.25 208.09,-15.25 208.09,-15.25 208.09,-15.25 211.81,-15.25 208.09,-13 213.09,-15.25"/>
</a>
</g>
</g>
<!-- Node3 -->
<g id="Node000003" class="node">
<title>Node3</title>
<g id="a_Node000003"><a xlink:href="../../df/d40/namespaceanonymous__namespace_02_meta_paths_8cpp_03.html#a6b23c92ed8a542082d8cddde4bd55b47" target="_top" xlink:title="Resolve base path using Known Folder ID or environment variable fallback.">
<polygon fill="white" stroke="none" points="600,-30.5 428,-30.5 428,0 600,0 600,-30.5"/>
<text xml:space="preserve" text-anchor="start" x="436" y="-16.05" font-family="Consolas" font-size="11.00">anonymous_namespace</text>
<text xml:space="preserve" text-anchor="middle" x="514" y="-4.8" font-family="Consolas" font-size="11.00">{MetaPaths::cpp}::basePath</text>
</a>
</g>
</g>
<!-- Node2&#45;&gt;Node3 -->
<g id="edge2_Node000002_Node000003" class="edge">
<title>Node2&#45;&gt;Node3</title>
<g id="a_edge2_Node000002_Node000003"><a xlink:title=" ">
<path fill="none" stroke="#63b8ff" d="M391.73,-15.25C401.81,-15.25 412.11,-15.25 422.24,-15.25"/>
<polygon fill="#63b8ff" stroke="#63b8ff" points="426.95,-15.25 421.95,-17.5 425.67,-15.25 421.95,-15.25 421.95,-15.25 421.95,-15.25 425.67,-15.25 421.95,-13 426.95,-15.25"/>
</a>
</g>
</g>
<!-- Node4 -->
<g id="Node000004" class="node">
<title>Node4</title>
<g id="a_Node000004"><a xlink:href="../../dc/dba/namespacenpi_1_1app.html#a30b5245afa890e98f19f43c58f29e633" target="_top" xlink:title="Windows native fatal error message box.">
<polygon fill="white" stroke="none" points="820,-24.88 636,-24.88 636,-5.62 820,-5.62 820,-24.88"/>
<text xml:space="preserve" text-anchor="middle" x="728" y="-10.43" font-family="Consolas" font-size="11.00">npi::app::nativeFatalMessage</text>
</a>
</g>
</g>
<!-- Node3&#45;&gt;Node4 -->
<g id="edge3_Node000003_Node000004" class="edge">
<title>Node3&#45;&gt;Node4</title>
<g id="a_edge3_Node000003_Node000004"><a xlink:title=" ">
<path fill="none" stroke="#63b8ff" d="M599.7,-15.25C609.73,-15.25 620.02,-15.25 630.2,-15.25"/>
<polygon fill="#63b8ff" stroke="#63b8ff" points="634.96,-15.25 629.96,-17.5 633.68,-15.25 629.96,-15.25 629.96,-15.25 629.96,-15.25 633.68,-15.25 629.96,-13 634.96,-15.25"/>
</a>
</g>
</g>
</g>
</svg>
