<?xml version="1.0" encoding="UTF-8" standalone="no"?>
<!DOCTYPE svg PUBLIC "-//W3C//DTD SVG 1.1//EN"
 "http://www.w3.org/Graphics/SVG/1.1/DTD/svg11.dtd">
<!-- Generated by graphviz version 14.0.0 (20250921.2048)
 -->
<!-- Title: npi::app::appProgramDataDir Pages: 1 -->
<svg width="804pt" height="374pt"
 viewBox="0.00 0.00 804.00 374.00" xmlns="http://www.w3.org/2000/svg" xmlns:xlink="http://www.w3.org/1999/xlink">
<g id="graph0" class="graph" transform="scale(1 1) rotate(0) translate(4 369.75)">
<title>npi::app::appProgramDataDir</title>
<!-- Node1 -->
<g id="Node000001" class="node">
<title>Node1</title>
<g id="a_Node000001"><a xlink:title="Absolute application&#45;level ProgramData path.">
<polygon fill="#999999" stroke="none" points="796,-204.5 618,-204.5 618,-185.25 796,-185.25 796,-204.5"/>
<text xml:space="preserve" text-anchor="start" x="626" y="-191.05" font-family="Consolas" font-weight="bold" font-size="11.00">npi::app::appProgramDataDir</text>
</a>
</g>
</g>
<!-- Node2 -->
<g id="Node000002" class="node">
<title>Node2</title>
<g id="a_Node000002"><a xlink:href="../../d0/d61/classanonymous__namespace_02_log_8cpp_03_1_1_log_core.html#aec0c49d654f69ba240eded5dee4bbc8b" target="_top" xlink:title=" ">
<polygon fill="white" stroke="none" points="549,-365.75 419,-365.75 419,-324 549,-324 549,-365.75"/>
<text xml:space="preserve" text-anchor="start" x="427" y="-351.3" font-family="Consolas" font-size="11.00">anonymous_namespace</text>
<text xml:space="preserve" text-anchor="start" x="427" y="-340.05" font-family="Consolas" font-size="11.00">{Log::cpp}::LogCore</text>
<text xml:space="preserve" text-anchor="middle" x="484" y="-328.8" font-family="Consolas" font-size="11.00">::getFutureDir_</text>
</a>
</g>
</g>
<!-- Node1&#45;&gt;Node2 -->
<g id="edge1_Node000001_Node000002" class="edge">
<title>Node1&#45;&gt;Node2</title>
<g id="a_edge1_Node000001_Node000002"><a xlink:title=" ">
<path fill="none" stroke="#63b8ff" d="M695.39,-208.79C675.71,-233.65 631.06,-285.83 582,-314.88 571.84,-320.89 560.35,-325.81 548.93,-329.8"/>
<polygon fill="#63b8ff" stroke="#63b8ff" points="698.23,-205.15 696.92,-210.48 697.44,-206.16 695.15,-209.09 695.15,-209.09 695.15,-209.09 697.44,-206.16 693.38,-207.7 698.23,-205.15"/>
</a>
</g>
</g>
<!-- Node3 -->
<g id="Node000003" class="node">
<title>Node3</title>
<g id="a_Node000003"><a xlink:href="../../d0/d61/classanonymous__namespace_02_log_8cpp_03_1_1_log_core.html#a953bdf43ab1e0d48f1225fe1dcccfbd4" target="_top" xlink:title=" ">
<polygon fill="white" stroke="none" points="555,-305.75 413,-305.75 413,-264 555,-264 555,-305.75"/>
<text xml:space="preserve" text-anchor="start" x="421" y="-291.3" font-family="Consolas" font-size="11.00">anonymous_namespace</text>
<text xml:space="preserve" text-anchor="start" x="421" y="-280.05" font-family="Consolas" font-size="11.00">{Log::cpp}::LogCore</text>
<text xml:space="preserve" text-anchor="middle" x="484" y="-268.8" font-family="Consolas" font-size="11.00">::getMaxFolderSizeMb_</text>
</a>
</g>
</g>
<!-- Node1&#45;&gt;Node3 -->
<g id="edge2_Node000001_Node000003" class="edge">
<title>Node1&#45;&gt;Node3</title>
<g id="a_edge2_Node000001_Node000003"><a xlink:title=" ">
<path fill="none" stroke="#63b8ff" d="M683.02,-207.29C658.47,-220.24 618.2,-240.61 582,-254.88 573.31,-258.3 564.06,-261.59 554.85,-264.66"/>
<polygon fill="#63b8ff" stroke="#63b8ff" points="687.23,-205.06 683.87,-209.39 686.1,-205.66 682.81,-207.4 682.81,-207.4 682.81,-207.4 686.1,-205.66 681.76,-205.41 687.23,-205.06"/>
</a>
</g>
</g>
<!-- Node4 -->
<g id="Node000004" class="node">
<title>Node4</title>
<g id="a_Node000004"><a xlink:href="../../d0/d61/classanonymous__namespace_02_log_8cpp_03_1_1_log_core.html#af4273441409e88d841adc86974b49c75" target="_top" xlink:title=" ">
<polygon fill="white" stroke="none" points="555,-245.75 413,-245.75 413,-204 555,-204 555,-245.75"/>
<text xml:space="preserve" text-anchor="start" x="421" y="-231.3" font-family="Consolas" font-size="11.00">anonymous_namespace</text>
<text xml:space="preserve" text-anchor="start" x="421" y="-220.05" font-family="Consolas" font-size="11.00">{Log::cpp}::LogCore</text>
<text xml:space="preserve" text-anchor="middle" x="484" y="-208.8" font-family="Consolas" font-size="11.00">::getStartupSettings_</text>
</a>
</g>
</g>
<!-- Node1&#45;&gt;Node4 -->
<g id="edge3_Node000001_Node000004" class="edge">
<title>Node1&#45;&gt;Node4</title>
<g id="a_edge3_Node000001_Node000004"><a xlink:title=" ">
<path fill="none" stroke="#63b8ff" d="M629.07,-205.32C604.89,-208.6 578.33,-212.21 554.68,-215.42"/>
<polygon fill="#63b8ff" stroke="#63b8ff" points="633.95,-204.65 629.3,-207.56 632.69,-204.83 629,-205.33 629,-205.33 629,-205.33 632.69,-204.83 628.7,-203.1 633.95,-204.65"/>
</a>
</g>
</g>
<!-- Node6 -->
<g id="Node000006" class="node">
<title>Node6</title>
<g id="a_Node000006"><a xlink:href="../../d0/d61/classanonymous__namespace_02_log_8cpp_03_1_1_log_core.html#a5fa684811c33eea49f63593fea332de4" target="_top" xlink:title=" ">
<polygon fill="white" stroke="none" points="549,-77.75 419,-77.75 419,-36 549,-36 549,-77.75"/>
<text xml:space="preserve" text-anchor="start" x="427" y="-63.3" font-family="Consolas" font-size="11.00">anonymous_namespace</text>
<text xml:space="preserve" text-anchor="start" x="427" y="-52.05" font-family="Consolas" font-size="11.00">{Log::cpp}::LogCore</text>
<text xml:space="preserve" text-anchor="middle" x="484" y="-40.8" font-family="Consolas" font-size="11.00">::saveSettings_</text>
</a>
</g>
</g>
<!-- Node1&#45;&gt;Node6 -->
<g id="edge5_Node000001_Node000006" class="edge">
<title>Node1&#45;&gt;Node6</title>
<g id="a_edge5_Node000001_Node000006"><a xlink:title=" ">
<path fill="none" stroke="#63b8ff" d="M693.59,-180.78C672.72,-157.91 628.33,-112.69 582,-86.88 571.76,-81.17 560.29,-76.41 548.93,-72.48"/>
<polygon fill="#63b8ff" stroke="#63b8ff" points="696.86,-184.4 691.84,-182.2 696,-183.45 693.51,-180.69 693.51,-180.69 693.51,-180.69 696,-183.45 695.18,-179.19 696.86,-184.4"/>
</a>
</g>
</g>
<!-- Node11 -->
<g id="Node000011" class="node">
<title>Node11</title>
<g id="a_Node000011"><a xlink:href="../../df/d40/namespaceanonymous__namespace_02_meta_paths_8cpp_03.html#a71f0c349fdc17bb538a0b720816e7bcd" target="_top" xlink:title="Schedules the initialization of application meta paths.">
<polygon fill="white" stroke="none" points="582,-126.12 386,-126.12 386,-95.62 582,-95.62 582,-126.12"/>
<text xml:space="preserve" text-anchor="start" x="394" y="-111.67" font-family="Consolas" font-size="11.00">anonymous_namespace</text>
<text xml:space="preserve" text-anchor="middle" x="484" y="-100.42" font-family="Consolas" font-size="11.00">{MetaPaths::cpp}::scheduleInit</text>
</a>
</g>
</g>
<!-- Node1&#45;&gt;Node11 -->
<g id="edge11_Node000001_Node000011" class="edge">
<title>Node1&#45;&gt;Node11</title>
<g id="a_edge11_Node000001_Node000011"><a xlink:title=" ">
<path fill="none" stroke="#63b8ff" d="M684.01,-182.49C659.68,-169.22 619.01,-148.24 582,-134.88 573.11,-131.66 563.61,-128.73 554.16,-126.11"/>
<polygon fill="#63b8ff" stroke="#63b8ff" points="688.17,-184.78 682.7,-184.35 687.05,-184.16 683.79,-182.37 683.79,-182.37 683.79,-182.37 687.05,-184.16 684.87,-180.4 688.17,-184.78"/>
</a>
</g>
</g>
<!-- Node12 -->
<g id="Node000012" class="node">
<title>Node12</title>
<g id="a_Node000012"><a xlink:href="../../d0/d61/classanonymous__namespace_02_log_8cpp_03_1_1_log_core.html#a78f2c370e9ec632af877fe1dd49ef478" target="_top" xlink:title=" ">
<polygon fill="white" stroke="none" points="555,-185.75 413,-185.75 413,-144 555,-144 555,-185.75"/>
<text xml:space="preserve" text-anchor="start" x="421" y="-171.3" font-family="Consolas" font-size="11.00">anonymous_namespace</text>
<text xml:space="preserve" text-anchor="start" x="421" y="-160.05" font-family="Consolas" font-size="11.00">{Log::cpp}::LogCore</text>
<text xml:space="preserve" text-anchor="middle" x="484" y="-148.8" font-family="Consolas" font-size="11.00">::startImpLogProcess_</text>
</a>
</g>
</g>
<!-- Node1&#45;&gt;Node12 -->
<g id="edge12_Node000001_Node000012" class="edge">
<title>Node1&#45;&gt;Node12</title>
<g id="a_edge12_Node000001_Node000012"><a xlink:title=" ">
<path fill="none" stroke="#63b8ff" d="M629.07,-184.43C604.89,-181.15 578.33,-177.54 554.68,-174.33"/>
<polygon fill="#63b8ff" stroke="#63b8ff" points="633.95,-185.1 628.7,-186.65 632.69,-184.92 629,-184.42 629,-184.42 629,-184.42 632.69,-184.92 629.3,-182.19 633.95,-185.1"/>
</a>
</g>
</g>
<!-- Node5 -->
<g id="Node000005" class="node">
<title>Node5</title>
<g id="a_Node000005"><a xlink:href="../../d0/d61/classanonymous__namespace_02_log_8cpp_03_1_1_log_core.html#ac81e3393bfb7545e17c9fd8ea4cb4aa6" target="_top" xlink:title=" ">
<polygon fill="white" stroke="none" points="347,-185.75 217,-185.75 217,-144 347,-144 347,-185.75"/>
<text xml:space="preserve" text-anchor="start" x="225" y="-171.3" font-family="Consolas" font-size="11.00">anonymous_namespace</text>
<text xml:space="preserve" text-anchor="start" x="225" y="-160.05" font-family="Consolas" font-size="11.00">{Log::cpp}::LogCore</text>
<text xml:space="preserve" text-anchor="middle" x="282" y="-148.8" font-family="Consolas" font-size="11.00">::LogCore</text>
</a>
</g>
</g>
<!-- Node4&#45;&gt;Node5 -->
<g id="edge4_Node000004_Node000005" class="edge">
<title>Node4&#45;&gt;Node5</title>
<g id="a_edge4_Node000004_Node000005"><a xlink:title=" ">
<path fill="none" stroke="#63b8ff" d="M407.72,-202.29C387.7,-196.28 366.26,-189.85 346.9,-184.04"/>
<polygon fill="#63b8ff" stroke="#63b8ff" points="412.44,-203.71 407.01,-204.43 411.22,-203.34 407.65,-202.27 407.65,-202.27 407.65,-202.27 411.22,-203.34 408.3,-200.12 412.44,-203.71"/>
</a>
</g>
</g>
<!-- Node6&#45;&gt;Node5 -->
<g id="edge6_Node000006_Node000005" class="edge">
<title>Node6&#45;&gt;Node5</title>
<g id="a_edge6_Node000006_Node000005"><a xlink:title=" ">
<path fill="none" stroke="#63b8ff" d="M413.28,-75.19C403.91,-78.59 394.57,-82.48 386,-86.88 369.93,-95.12 333.34,-123.84 308.39,-144.03"/>
<polygon fill="#63b8ff" stroke="#63b8ff" points="417.97,-73.55 414,-77.33 416.76,-73.97 413.26,-75.2 413.26,-75.2 413.26,-75.2 416.76,-73.97 412.51,-73.08 417.97,-73.55"/>
</a>
</g>
</g>
<!-- Node7 -->
<g id="Node000007" class="node">
<title>Node7</title>
<g id="a_Node000007"><a xlink:href="../../d0/d61/classanonymous__namespace_02_log_8cpp_03_1_1_log_core.html#a18c3c555110a16327bd67014b95739eb" target="_top" xlink:title=" ">
<polygon fill="white" stroke="none" points="350,-101.75 214,-101.75 214,-60 350,-60 350,-101.75"/>
<text xml:space="preserve" text-anchor="start" x="222" y="-87.3" font-family="Consolas" font-size="11.00">anonymous_namespace</text>
<text xml:space="preserve" text-anchor="start" x="222" y="-76.05" font-family="Consolas" font-size="11.00">{Log::cpp}::LogCore</text>
<text xml:space="preserve" text-anchor="middle" x="282" y="-64.8" font-family="Consolas" font-size="11.00">::setColoredConsole_</text>
</a>
</g>
</g>
<!-- Node6&#45;&gt;Node7 -->
<g id="edge7_Node000006_Node000007" class="edge">
<title>Node6&#45;&gt;Node7</title>
<g id="a_edge7_Node000006_Node000007"><a xlink:title=" ">
<path fill="none" stroke="#63b8ff" d="M413.13,-65.26C392.53,-67.73 370.06,-70.43 349.67,-72.87"/>
<polygon fill="#63b8ff" stroke="#63b8ff" points="417.96,-64.68 413.26,-67.51 416.69,-64.83 412.99,-65.28 412.99,-65.28 412.99,-65.28 416.69,-64.83 412.73,-63.04 417.96,-64.68"/>
</a>
</g>
</g>
<!-- Node9 -->
<g id="Node000009" class="node">
<title>Node9</title>
<g id="a_Node000009"><a xlink:href="../../d0/d61/classanonymous__namespace_02_log_8cpp_03_1_1_log_core.html#a59eebbde2d3d36263a0d7a96e595573b" target="_top" xlink:title=" ">
<polygon fill="white" stroke="none" points="347,-41.75 217,-41.75 217,0 347,0 347,-41.75"/>
<text xml:space="preserve" text-anchor="start" x="225" y="-27.3" font-family="Consolas" font-size="11.00">anonymous_namespace</text>
<text xml:space="preserve" text-anchor="start" x="225" y="-16.05" font-family="Consolas" font-size="11.00">{Log::cpp}::LogCore</text>
<text xml:space="preserve" text-anchor="middle" x="282" y="-4.8" font-family="Consolas" font-size="11.00">::setWarnIsImp_</text>
</a>
</g>
</g>
<!-- Node6&#45;&gt;Node9 -->
<g id="edge9_Node000006_Node000009" class="edge">
<title>Node6&#45;&gt;Node9</title>
<g id="a_edge9_Node000006_Node000009"><a xlink:title=" ">
<path fill="none" stroke="#63b8ff" d="M413.15,-44.3C391.62,-40.43 368.02,-36.18 346.91,-32.38"/>
<polygon fill="#63b8ff" stroke="#63b8ff" points="417.97,-45.17 412.65,-46.5 416.71,-44.94 413.05,-44.28 413.05,-44.28 413.05,-44.28 416.71,-44.94 413.45,-42.07 417.97,-45.17"/>
</a>
</g>
</g>
<!-- Node8 -->
<g id="Node000008" class="node">
<title>Node8</title>
<g id="a_Node000008"><a xlink:href="../../d5/ddd/namespacenpi_1_1log.html#aa9c7f1de08a88a0dcac316127c1d384b" target="_top" xlink:title=" ">
<polygon fill="white" stroke="none" points="178,-90.5 0,-90.5 0,-71.25 178,-71.25 178,-90.5"/>
<text xml:space="preserve" text-anchor="middle" x="89" y="-76.05" font-family="Consolas" font-size="11.00">npi::log::setColoredConsole</text>
</a>
</g>
</g>
<!-- Node7&#45;&gt;Node8 -->
<g id="edge8_Node000007_Node000008" class="edge">
<title>Node7&#45;&gt;Node8</title>
<g id="a_edge8_Node000007_Node000008"><a xlink:title=" ">
<path fill="none" stroke="#63b8ff" d="M208.1,-80.88C198.23,-80.88 188.01,-80.88 177.91,-80.88"/>
<polygon fill="#63b8ff" stroke="#63b8ff" points="212.98,-80.88 207.98,-83.13 211.7,-80.88 207.98,-80.88 207.98,-80.88 207.98,-80.88 211.7,-80.88 207.98,-78.63 212.98,-80.88"/>
</a>
</g>
</g>
<!-- Node10 -->
<g id="Node000010" class="node">
<title>Node10</title>
<g id="a_Node000010"><a xlink:href="../../d5/ddd/namespacenpi_1_1log.html#a9be9faae3670cc6af86285afecfb3e58" target="_top" xlink:title=" ">
<polygon fill="white" stroke="none" points="172,-30.5 6,-30.5 6,-11.25 172,-11.25 172,-30.5"/>
<text xml:space="preserve" text-anchor="middle" x="89" y="-16.05" font-family="Consolas" font-size="11.00">npi::log::setWarnAsImpLog</text>
</a>
</g>
</g>
<!-- Node9&#45;&gt;Node10 -->
<g id="edge10_Node000009_Node000010" class="edge">
<title>Node9&#45;&gt;Node10</title>
<g id="a_edge10_Node000009_Node000010"><a xlink:title=" ">
<path fill="none" stroke="#63b8ff" d="M210.94,-20.88C198.21,-20.88 184.84,-20.88 171.81,-20.88"/>
<polygon fill="#63b8ff" stroke="#63b8ff" points="215.92,-20.88 210.92,-23.13 214.63,-20.88 210.92,-20.88 210.92,-20.88 210.92,-20.88 214.63,-20.88 210.92,-18.63 215.92,-20.88"/>
</a>
</g>
</g>
<!-- Node12&#45;&gt;Node5 -->
<g id="edge13_Node000012_Node000005" class="edge">
<title>Node12&#45;&gt;Node5</title>
<g id="a_edge13_Node000012_Node000005"><a xlink:title=" ">
<path fill="none" stroke="#63b8ff" d="M406.95,-164.88C387.14,-164.88 366,-164.88 346.89,-164.88"/>
<polygon fill="#63b8ff" stroke="#63b8ff" points="411.83,-164.88 406.83,-167.13 410.55,-164.88 406.83,-164.88 406.83,-164.88 406.83,-164.88 410.55,-164.88 406.83,-162.63 411.83,-164.88"/>
</a>
</g>
</g>
</g>
</svg>
