<?xml version="1.0" encoding="UTF-8" standalone="no"?>
<!DOCTYPE svg PUBLIC "-//W3C//DTD SVG 1.1//EN"
 "http://www.w3.org/Graphics/SVG/1.1/DTD/svg11.dtd">
<!-- Generated by graphviz version 14.0.0 (20250921.2048)
 -->
<!-- Title: npi::app::orgPublicDocumentsDir Pages: 1 -->
<svg width="680pt" height="39pt"
 viewBox="0.00 0.00 680.00 39.00" xmlns="http://www.w3.org/2000/svg" xmlns:xlink="http://www.w3.org/1999/xlink">
<g id="graph0" class="graph" transform="scale(1 1) rotate(0) translate(4 34.5)">
<title>npi::app::orgPublicDocumentsDir</title>
<!-- Node1 -->
<g id="Node000001" class="node">
<title>Node1</title>
<g id="a_Node000001"><a xlink:title="Absolute organization&#45;level Public/Documents path.">
<polygon fill="#999999" stroke="none" points="672,-24.88 470,-24.88 470,-5.62 672,-5.62 672,-24.88"/>
<text xml:space="preserve" text-anchor="start" x="478" y="-11.43" font-family="Consolas" font-weight="bold" font-size="11.00">npi::app::orgPublicDocumentsDir</text>
</a>
</g>
</g>
<!-- Node2 -->
<g id="Node000002" class="node">
<title>Node2</title>
<g id="a_Node000002"><a xlink:href="../../dc/dba/namespacenpi_1_1app.html#aff4c7482e4417f59ede04e359548a542" target="_top" xlink:title="Absolute application&#45;level Public/Documents path.">
<polygon fill="white" stroke="none" points="434,-24.88 232,-24.88 232,-5.62 434,-5.62 434,-24.88"/>
<text xml:space="preserve" text-anchor="middle" x="333" y="-10.43" font-family="Consolas" font-size="11.00">npi::app::appPublicDocumentsDir</text>
</a>
</g>
</g>
<!-- Node1&#45;&gt;Node2 -->
<g id="edge1_Node000001_Node000002" class="edge">
<title>Node1&#45;&gt;Node2</title>
<g id="a_edge1_Node000001_Node000002"><a xlink:title=" ">
<path fill="none" stroke="#63b8ff" d="M464.29,-15.25C454.14,-15.25 443.86,-15.25 433.76,-15.25"/>
<polygon fill="#63b8ff" stroke="#63b8ff" points="469.04,-15.25 464.04,-17.5 467.76,-15.25 464.04,-15.25 464.04,-15.25 464.04,-15.25 467.76,-15.25 464.04,-13 469.04,-15.25"/>
</a>
</g>
</g>
<!-- Node3 -->
<g id="Node000003" class="node">
<title>Node3</title>
<g id="a_Node000003"><a xlink:href="../../df/d40/namespaceanonymous__namespace_02_meta_paths_8cpp_03.html#a71f0c349fdc17bb538a0b720816e7bcd" target="_top" xlink:title="Schedules the initialization of application meta paths.">
<polygon fill="white" stroke="none" points="196,-30.5 0,-30.5 0,0 196,0 196,-30.5"/>
<text xml:space="preserve" text-anchor="start" x="8" y="-16.05" font-family="Consolas" font-size="11.00">anonymous_namespace</text>
<text xml:space="preserve" text-anchor="middle" x="98" y="-4.8" font-family="Consolas" font-size="11.00">{MetaPaths::cpp}::scheduleInit</text>
</a>
</g>
</g>
<!-- Node2&#45;&gt;Node3 -->
<g id="edge2_Node000002_Node000003" class="edge">
<title>Node2&#45;&gt;Node3</title>
<g id="a_edge2_Node000002_Node000003"><a xlink:title=" ">
<path fill="none" stroke="#63b8ff" d="M226.2,-15.25C216.02,-15.25 205.74,-15.25 195.66,-15.25"/>
<polygon fill="#63b8ff" stroke="#63b8ff" points="230.95,-15.25 225.95,-17.5 229.67,-15.25 225.95,-15.25 225.95,-15.25 225.95,-15.25 229.67,-15.25 225.95,-13 230.95,-15.25"/>
</a>
</g>
</g>
</g>
</svg>
