<?xml version="1.0" encoding="UTF-8" standalone="no"?>
<!DOCTYPE svg PUBLIC "-//W3C//DTD SVG 1.1//EN"
 "http://www.w3.org/Graphics/SVG/1.1/DTD/svg11.dtd">
<!-- Generated by graphviz version 14.0.0 (20250921.2048)
 -->
<!-- Title: npi::app::path Pages: 1 -->
<!--zoomable 163 -->

<svg id="main" version="1.1" xmlns="http://www.w3.org/2000/svg" xmlns:xlink="http://www.w3.org/1999/xlink" xml:space="preserve" onload="init(evt)">

<style type="text/css"><![CDATA[
.node, .edge {opacity: 0.7;}
.node.selected, .edge.selected {opacity: 1;}
.edge:hover path { stroke: red; }
.edge:hover polygon { stroke: red; fill: red; }
]]></style>

<defs>
  <circle id="rim" cx="0" cy="0" r="7"/>
  <circle id="rim2" cx="0" cy="0" r="3.5"/>
  <g id="zoomPlus">
    <use xlink:href="#rim" fill="#404040"><set attributeName="fill" to="#808080" begin="zoomplus.mouseover" end="zoomplus.mouseout"/></use>
    <path d="M-4,0h8M0,-4v8" fill="none" stroke="white" stroke-width="1.5" pointer-events="none"/>
  </g>
  <g id="zoomMin">
    <use xlink:href="#rim" fill="#404040"><set attributeName="fill" to="#808080" begin="zoomminus.mouseover" end="zoomminus.mouseout"/></use>
    <path d="M-4,0h8" fill="none" stroke="white" stroke-width="1.5" pointer-events="none"/>
  </g>
  <g id="arrowUp" transform="translate(30 24)">
    <use xlink:href="#rim"/>
    <path pointer-events="none" fill="none" stroke="white" stroke-width="1.5" d="M0,-3.0v7 M-2.5,-0.5L0,-3.0L2.5,-0.5"/>
  </g>
  <g id="arrowRight" transform="rotate(90) translate(36 -43)">
    <use xlink:href="#rim"/>
    <path pointer-events="none" fill="none" stroke="white" stroke-width="1.5" d="M0,-3.0v7 M-2.5,-0.5L0,-3.0L2.5,-0.5"/>
  </g>
  <g id="arrowDown" transform="rotate(180) translate(-30 -48)">
    <use xlink:href="#rim"/>
    <path pointer-events="none" fill="none" stroke="white" stroke-width="1.5" d="M0,-3.0v7 M-2.5,-0.5L0,-3.0L2.5,-0.5"/>
  </g>
  <g id="arrowLeft" transform="rotate(270) translate(-36 17)">
    <use xlink:href="#rim"/>
    <path pointer-events="none" fill="none" stroke="white" stroke-width="1.5" d="M0,-3.0v7 M-2.5,-0.5L0,-3.0L2.5,-0.5"/>
  </g>
  <g id="resetDef">
    <use xlink:href="#rim2" fill="#404040"><set attributeName="fill" to="#808080" begin="reset.mouseover" end="reset.mouseout"/></use>
  </g>
</defs>
<script type="application/ecmascript">
var viewWidth = 910;
var viewHeight = 163;
var sectionId = 'dynsection-8';
</script>
<script type="application/ecmascript" xlink:href="../../svg.min.js"/>
<svg id="graph" class="graph">
<g id="viewport">
<title>npi::app::path</title>
<!-- Node1 -->
<g id="Node000001" class="node">
<title>Node1</title>
<g id="a_Node000001"><a xlink:title=" ">
<polygon fill="#999999" stroke="none" points="100,-83.75 0,-83.75 0,-64.5 100,-64.5 100,-83.75"/>
<text xml:space="preserve" text-anchor="start" x="8" y="-70.3" font-family="Consolas" font-weight="bold" font-size="11.00">npi::app::path</text>
</a>
</g>
</g>
<!-- Node1&#45;&gt;Node1 -->
<g id="edge16_Node000001_Node000001" class="edge">
<title>Node1&#45;&gt;Node1</title>
<g id="a_edge16_Node000001_Node000001"><a xlink:title=" ">
<path fill="none" stroke="#63b8ff" d="M21.65,-83.46C6.95,-92.23 16.4,-101.75 50,-101.75 78.88,-101.75 89.92,-94.72 83.12,-87.18"/>
<polygon fill="#63b8ff" stroke="#63b8ff" points="79.31,-84.21 84.64,-85.51 80.32,-85 83.26,-87.28 83.26,-87.28 83.26,-87.28 80.32,-85 81.87,-89.06 79.31,-84.21"/>
</a>
</g>
</g>
<!-- Node2 -->
<g id="Node000002" class="node">
<title>Node2</title>
<g id="a_Node000002"><a xlink:href="../../dc/dba/namespacenpi_1_1app.html#a40a2a28831f2f410c995f0657baf6544" target="_top" xlink:title=" ">
<polygon fill="white" stroke="none" points="326,-154.75 148,-154.75 148,-135.5 326,-135.5 326,-154.75"/>
<text xml:space="preserve" text-anchor="middle" x="237" y="-140.3" font-family="Consolas" font-size="11.00">npi::app::appProgramDataDir</text>
</a>
</g>
</g>
<!-- Node1&#45;&gt;Node2 -->
<g id="edge1_Node000001_Node000002" class="edge">
<title>Node1&#45;&gt;Node2</title>
<g id="a_edge1_Node000001_Node000002"><a xlink:title=" ">
<path fill="none" stroke="#63b8ff" d="M78.03,-83.69C94.3,-92.38 115.72,-104.25 136,-112.12 160.84,-121.77 190.71,-128.32 211.3,-133.9"/>
<polygon fill="#63b8ff" stroke="#63b8ff" points="215.94,-135.2 210.52,-136.02 214.71,-134.85 211.12,-133.85 211.12,-133.85 211.12,-133.85 214.71,-134.85 211.73,-131.68 215.94,-135.2"/>
</a>
</g>
</g>
<!-- Node5 -->
<g id="Node000005" class="node">
<title>Node5</title>
<g id="a_Node000005"><a xlink:href="../../dc/dba/namespacenpi_1_1app.html#a30836be8b9337a64733a6e05594b23c8" target="_top" xlink:title=" ">
<polygon fill="white" stroke="none" points="564,-107.75 386,-107.75 386,-88.5 564,-88.5 564,-107.75"/>
<text xml:space="preserve" text-anchor="middle" x="475" y="-93.3" font-family="Consolas" font-size="11.00">npi::app::orgProgramDataDir</text>
</a>
</g>
</g>
<!-- Node1&#45;&gt;Node5 -->
<g id="edge14_Node000001_Node000005" class="edge">
<title>Node1&#45;&gt;Node5</title>
<g id="a_edge14_Node000001_Node000005"><a xlink:title=" ">
<path fill="none" stroke="#63b8ff" d="M99.94,-72.39C171.51,-73.82 305.62,-81.12 392.3,-88.03"/>
<polygon fill="#63b8ff" stroke="#63b8ff" points="397.24,-88.42 392.08,-90.27 395.97,-88.32 392.26,-88.02 392.26,-88.02 392.26,-88.02 395.97,-88.32 392.44,-85.78 397.24,-88.42"/>
</a>
</g>
</g>
<!-- Node6 -->
<g id="Node000006" class="node">
<title>Node6</title>
<g id="a_Node000006"><a xlink:href="../../dc/dba/namespacenpi_1_1app.html#aff4c7482e4417f59ede04e359548a542" target="_top" xlink:title=" ">
<polygon fill="white" stroke="none" points="338,-60.75 136,-60.75 136,-41.5 338,-41.5 338,-60.75"/>
<text xml:space="preserve" text-anchor="middle" x="237" y="-46.3" font-family="Consolas" font-size="11.00">npi::app::appPublicDocumentsDir</text>
</a>
</g>
</g>
<!-- Node1&#45;&gt;Node6 -->
<g id="edge8_Node000001_Node000006" class="edge">
<title>Node1&#45;&gt;Node6</title>
<g id="a_edge8_Node000001_Node000006"><a xlink:title=" ">
<path fill="none" stroke="#63b8ff" d="M84.93,-64.54C98.03,-62.18 113.79,-59.78 130.12,-57.6"/>
<polygon fill="#63b8ff" stroke="#63b8ff" points="134.95,-56.96 130.29,-59.85 133.68,-57.13 130,-57.62 130,-57.62 130,-57.62 133.68,-57.13 129.7,-55.38 134.95,-56.96"/>
</a>
</g>
</g>
<!-- Node7 -->
<g id="Node000007" class="node">
<title>Node7</title>
<g id="a_Node000007"><a xlink:href="../../dc/dba/namespacenpi_1_1app.html#ac0dca24602a75822c6f7fcf63f8781d9" target="_top" xlink:title=" ">
<polygon fill="white" stroke="none" points="576,-22.75 374,-22.75 374,-3.5 576,-3.5 576,-22.75"/>
<text xml:space="preserve" text-anchor="middle" x="475" y="-8.3" font-family="Consolas" font-size="11.00">npi::app::orgPublicDocumentsDir</text>
</a>
</g>
</g>
<!-- Node1&#45;&gt;Node7 -->
<g id="edge15_Node000001_Node000007" class="edge">
<title>Node1&#45;&gt;Node7</title>
<g id="a_edge15_Node000001_Node000007"><a xlink:title=" ">
<path fill="none" stroke="#63b8ff" d="M57.68,-64.68C71.55,-51.59 104.8,-31.34 136,-23.12 231.86,2.13 348.12,2.35 416.29,-3.01"/>
<polygon fill="#63b8ff" stroke="#63b8ff" points="421.11,-3.4 415.95,-5.23 419.84,-3.3 416.13,-2.99 416.13,-2.99 416.13,-2.99 419.84,-3.3 416.32,-0.75 421.11,-3.4"/>
</a>
</g>
</g>
<!-- Node2&#45;&gt;Node1 -->
<g id="edge7_Node000002_Node000001" class="edge">
<title>Node2&#45;&gt;Node1</title>
<g id="a_edge7_Node000002_Node000001"><a xlink:title=" ">
<path fill="none" stroke="#63b8ff" d="M151.47,-135.55C146.19,-133.87 140.99,-132.06 136,-130.12 108.08,-119.28 77.98,-100.86 62.17,-87.59"/>
<polygon fill="#63b8ff" stroke="#63b8ff" points="58.65,-84.46 63.88,-86.1 59.61,-85.31 62.39,-87.78 62.39,-87.78 62.39,-87.78 59.61,-85.31 60.89,-89.46 58.65,-84.46"/>
</a>
</g>
</g>
<!-- Node3 -->
<g id="Node000003" class="node">
<title>Node3</title>
<g id="a_Node000003"><a xlink:href="../../d8/d8e/namespacenpi_1_1win.html#a7eb3918ab23ee7b9bd2d01911ee9913f" target="_top" xlink:title="Show a fatal error box and terminate the process.">
<polygon fill="white" stroke="none" points="754,-87.75 612,-87.75 612,-68.5 754,-68.5 754,-87.75"/>
<text xml:space="preserve" text-anchor="middle" x="683" y="-73.3" font-family="Consolas" font-size="11.00">npi::win::abortMsgBox</text>
</a>
</g>
</g>
<!-- Node2&#45;&gt;Node3 -->
<g id="edge2_Node000002_Node000003" class="edge">
<title>Node2&#45;&gt;Node3</title>
<g id="a_edge2_Node000002_Node000003"><a xlink:title=" ">
<path fill="none" stroke="#63b8ff" d="M325.8,-144.31C394.6,-142.13 492.35,-135.62 576,-117.12 604,-110.93 634.6,-99.09 655.7,-90.07"/>
<polygon fill="#63b8ff" stroke="#63b8ff" points="660.27,-88.09 656.57,-92.14 659.09,-88.6 655.68,-90.07 655.68,-90.07 655.68,-90.07 659.09,-88.6 654.78,-88.01 660.27,-88.09"/>
</a>
</g>
</g>
<!-- Node2&#45;&gt;Node5 -->
<g id="edge4_Node000002_Node000005" class="edge">
<title>Node2&#45;&gt;Node5</title>
<g id="a_edge4_Node000002_Node000005"><a xlink:title=" ">
<path fill="none" stroke="#63b8ff" d="M286.33,-135.5C325.14,-127.77 379.63,-116.92 419.9,-108.9"/>
<polygon fill="#63b8ff" stroke="#63b8ff" points="424.54,-107.97 420.08,-111.16 423.29,-108.22 419.64,-108.95 419.64,-108.95 419.64,-108.95 423.29,-108.22 419.2,-106.74 424.54,-107.97"/>
</a>
</g>
</g>
<!-- Node4 -->
<g id="Node000004" class="node">
<title>Node4</title>
<g id="a_Node000004"><a xlink:href="../../d8/d8e/namespacenpi_1_1win.html#aa203e14a9085aa2fa437ea050b780b15" target="_top" xlink:title="Show a Windows message box with custom flags.">
<polygon fill="white" stroke="none" points="902,-87.75 790,-87.75 790,-68.5 902,-68.5 902,-87.75"/>
<text xml:space="preserve" text-anchor="middle" x="846" y="-73.3" font-family="Consolas" font-size="11.00">npi::win::msgBox</text>
</a>
</g>
</g>
<!-- Node3&#45;&gt;Node4 -->
<g id="edge3_Node000003_Node000004" class="edge">
<title>Node3&#45;&gt;Node4</title>
<g id="a_edge3_Node000003_Node000004"><a xlink:title=" ">
<path fill="none" stroke="#63b8ff" d="M753.68,-78.12C763.81,-78.12 774.18,-78.12 784.12,-78.12"/>
<polygon fill="#63b8ff" stroke="#63b8ff" points="789.04,-78.12 784.04,-80.37 787.75,-78.12 784.04,-78.12 784.04,-78.12 784.04,-78.12 787.75,-78.12 784.04,-75.87 789.04,-78.12"/>
</a>
</g>
</g>
<!-- Node5&#45;&gt;Node1 -->
<g id="edge6_Node000005_Node000001" class="edge">
<title>Node5&#45;&gt;Node1</title>
<g id="a_edge6_Node000005_Node000001"><a xlink:title=" ">
<path fill="none" stroke="#63b8ff" d="M386.22,-98.74C301.83,-95.74 176.91,-88.36 105.8,-81.95"/>
<polygon fill="#63b8ff" stroke="#63b8ff" points="101.15,-81.52 106.33,-79.74 102.43,-81.64 106.13,-81.98 106.13,-81.98 106.13,-81.98 102.43,-81.64 105.92,-84.22 101.15,-81.52"/>
</a>
</g>
</g>
<!-- Node5&#45;&gt;Node3 -->
<g id="edge5_Node000005_Node000003" class="edge">
<title>Node5&#45;&gt;Node3</title>
<g id="a_edge5_Node000005_Node000003"><a xlink:title=" ">
<path fill="none" stroke="#63b8ff" d="M563.96,-89.58C578.03,-88.22 592.47,-86.81 606.23,-85.48"/>
<polygon fill="#63b8ff" stroke="#63b8ff" points="610.86,-85.03 606.1,-87.75 609.58,-85.15 605.88,-85.51 605.88,-85.51 605.88,-85.51 609.58,-85.15 605.67,-83.27 610.86,-85.03"/>
</a>
</g>
</g>
<!-- Node6&#45;&gt;Node1 -->
<g id="edge13_Node000006_Node000001" class="edge">
<title>Node6&#45;&gt;Node1</title>
<g id="a_edge13_Node000006_Node000001"><a xlink:title=" ">
<path fill="none" stroke="#63b8ff" d="M202.02,-60.71C175.1,-65.55 136.96,-70.58 105.75,-73.54"/>
<polygon fill="#63b8ff" stroke="#63b8ff" points="100.82,-73.99 105.59,-71.29 102.1,-73.87 105.8,-73.53 105.8,-73.53 105.8,-73.53 102.1,-73.87 106,-75.77 100.82,-73.99"/>
</a>
</g>
</g>
<!-- Node6&#45;&gt;Node3 -->
<g id="edge9_Node000006_Node000003" class="edge">
<title>Node6&#45;&gt;Node3</title>
<g id="a_edge9_Node000006_Node000003"><a xlink:title=" ">
<path fill="none" stroke="#63b8ff" d="M337.92,-57.2C419.13,-62.14 531.97,-69 605.96,-73.5"/>
<polygon fill="#63b8ff" stroke="#63b8ff" points="610.89,-73.8 605.77,-75.74 609.61,-73.72 605.9,-73.49 605.9,-73.49 605.9,-73.49 609.61,-73.72 606.04,-71.25 610.89,-73.8"/>
</a>
</g>
</g>
<!-- Node6&#45;&gt;Node7 -->
<g id="edge10_Node000006_Node000007" class="edge">
<title>Node6&#45;&gt;Node7</title>
<g id="a_edge10_Node000006_Node000007"><a xlink:title=" ">
<path fill="none" stroke="#63b8ff" d="M297.55,-41.53C331.37,-36.09 373.76,-29.26 408.51,-23.67"/>
<polygon fill="#63b8ff" stroke="#63b8ff" points="413.26,-22.9 408.68,-25.92 412,-23.11 408.33,-23.7 408.33,-23.7 408.33,-23.7 412,-23.11 407.97,-21.48 413.26,-22.9"/>
</a>
</g>
</g>
<!-- Node7&#45;&gt;Node1 -->
<g id="edge12_Node000007_Node000001" class="edge">
<title>Node7&#45;&gt;Node1</title>
<g id="a_edge12_Node000007_Node000001"><a xlink:title=" ">
<path fill="none" stroke="#63b8ff" d="M374.01,-15.94C305.86,-16.59 214.15,-20.54 136,-41.12 118.14,-45.83 99.6,-54.48 84.42,-61.95"/>
<polygon fill="#63b8ff" stroke="#63b8ff" points="80.07,-64.1 83.56,-59.87 81.22,-63.53 84.55,-61.88 84.55,-61.88 84.55,-61.88 81.22,-63.53 85.55,-63.9 80.07,-64.1"/>
</a>
</g>
</g>
<!-- Node7&#45;&gt;Node3 -->
<g id="edge11_Node000007_Node000003" class="edge">
<title>Node7&#45;&gt;Node3</title>
<g id="a_edge11_Node000007_Node000003"><a xlink:title=" ">
<path fill="none" stroke="#63b8ff" d="M512.27,-22.69C531.32,-27.86 555.02,-34.53 576,-41.12 601.16,-49.03 629.33,-58.91 650.3,-66.47"/>
<polygon fill="#63b8ff" stroke="#63b8ff" points="654.87,-68.13 649.4,-68.54 653.66,-67.69 650.17,-66.42 650.17,-66.42 650.17,-66.42 653.66,-67.69 650.93,-64.31 654.87,-68.13"/>
</a>
</g>
</g>
</g>
</svg>

<g id="navigator" transform="translate(0 0)" fill="#404254">
  <rect fill="#f2f5e9" fill-opacity="0.5" stroke="#606060" stroke-width=".5" x="0" y="0" width="60" height="60"/>
  <use id="zoomplus" xlink:href="#zoomPlus" x="17" y="9" onmousedown="handleZoom(evt,'in')"/>
  <use id="zoomminus" xlink:href="#zoomMin" x="42" y="9" onmousedown="handleZoom(evt,'out')"/>
  <use id="reset" xlink:href="#resetDef" x="30" y="36" onmousedown="handleReset()"/>
   <use id="arrowup" xlink:href="#arrowUp" x="0" y="0" onmousedown="handlePan(0,-1)"/>
  <use id="arrowright" xlink:href="#arrowRight" x="0" y="0" onmousedown="handlePan(1,0)"/>
  <use id="arrowdown" xlink:href="#arrowDown" x="0" y="0" onmousedown="handlePan(0,1)"/>
  <use id="arrowleft" xlink:href="#arrowLeft" x="0" y="0" onmousedown="handlePan(-1,0)"/>
</g>
<svg viewBox="0 0 15 15" width="100%" height="30px" preserveAspectRatio="xMaxYMin meet">
 <g id="arrow_out" transform="scale(0.3 0.3)">
  <a xlink:href="namespacenpi_1_1app_abfa8d31e6af8b8f9b3c5af668afd21ad_cgraph_org.svg" target="_base">
   <rect id="button" ry="5" rx="5" y="6" x="6" height="38" width="38"
        fill="#f2f5e9" fill-opacity="0.5" stroke="#606060" stroke-width="1.0"/>
   <path id="arrow"
     d="M 11.500037,31.436501 C 11.940474,20.09759 22.043105,11.32322 32.158766,21.979434 L 37.068811,17.246167 C 37.068811,17.246167 37.088388,32 37.088388,32 L 22.160133,31.978069 C 22.160133,31.978069 26.997745,27.140456 26.997745,27.140456 C 18.528582,18.264221 13.291696,25.230495 11.500037,31.436501 z"
     style="fill:#404040;"/>
  </a>
 </g>
</svg>

<style type='text/css'>
<![CDATA[
[data-mouse-over-selected='false'] { opacity: 0.7; }
[data-mouse-over-selected='true']  { opacity: 1.0; }
]]>
</style>
<script type="application/ecmascript"><![CDATA[
document.addEventListener('DOMContentLoaded', (event) => {
  highlightEdges();
  highlightAdjacentNodes();
});
]]></script>
</svg>
