<?xml version="1.0" encoding="UTF-8" standalone="no"?>
<!DOCTYPE svg PUBLIC "-//W3C//DTD SVG 1.1//EN"
 "http://www.w3.org/Graphics/SVG/1.1/DTD/svg11.dtd">
<!-- Generated by graphviz version 14.0.0 (20250921.2048)
 -->
<!-- Title: npi::app::appPublicDocumentsDir Pages: 1 -->
<svg width="774pt" height="46pt"
 viewBox="0.00 0.00 774.00 46.00" xmlns="http://www.w3.org/2000/svg" xmlns:xlink="http://www.w3.org/1999/xlink">
<g id="graph0" class="graph" transform="scale(1 1) rotate(0) translate(4 42.25)">
<title>npi::app::appPublicDocumentsDir</title>
<!-- Node1 -->
<g id="Node000001" class="node">
<title>Node1</title>
<g id="a_Node000001"><a xlink:title="Absolute application&#45;level Public/Documents path.">
<polygon fill="#999999" stroke="none" points="202,-38.25 0,-38.25 0,-19 202,-19 202,-38.25"/>
<text xml:space="preserve" text-anchor="start" x="8" y="-24.8" font-family="Consolas" font-weight="bold" font-size="11.00">npi::app::appPublicDocumentsDir</text>
</a>
</g>
</g>
<!-- Node2 -->
<g id="Node000002" class="node">
<title>Node2</title>
<g id="a_Node000002"><a xlink:href="../../d8/d8e/namespacenpi_1_1win.html#a7eb3918ab23ee7b9bd2d01911ee9913f" target="_top" xlink:title="Show a fatal error box and terminate the process.">
<polygon fill="white" stroke="none" points="618,-38.25 476,-38.25 476,-19 618,-19 618,-38.25"/>
<text xml:space="preserve" text-anchor="middle" x="547" y="-23.8" font-family="Consolas" font-size="11.00">npi::win::abortMsgBox</text>
</a>
</g>
</g>
<!-- Node1&#45;&gt;Node2 -->
<g id="edge1_Node000001_Node000002" class="edge">
<title>Node1&#45;&gt;Node2</title>
<g id="a_edge1_Node000001_Node000002"><a xlink:title=" ">
<path fill="none" stroke="#63b8ff" d="M201.92,-28.62C283.13,-28.62 395.97,-28.62 469.96,-28.62"/>
<polygon fill="#63b8ff" stroke="#63b8ff" points="474.89,-28.63 469.89,-30.88 473.61,-28.63 469.89,-28.63 469.89,-28.63 469.89,-28.63 473.61,-28.63 469.89,-26.38 474.89,-28.63"/>
</a>
</g>
</g>
<!-- Node4 -->
<g id="Node000004" class="node">
<title>Node4</title>
<g id="a_Node000004"><a xlink:href="../../dc/dba/namespacenpi_1_1app.html#ac0dca24602a75822c6f7fcf63f8781d9" target="_top" xlink:title="Absolute organization&#45;level Public/Documents path.">
<polygon fill="white" stroke="none" points="440,-19.25 238,-19.25 238,0 440,0 440,-19.25"/>
<text xml:space="preserve" text-anchor="middle" x="339" y="-4.8" font-family="Consolas" font-size="11.00">npi::app::orgPublicDocumentsDir</text>
</a>
</g>
</g>
<!-- Node1&#45;&gt;Node4 -->
<g id="edge3_Node000001_Node000004" class="edge">
<title>Node1&#45;&gt;Node4</title>
<g id="a_edge3_Node000001_Node000004"><a xlink:title=" ">
<path fill="none" stroke="#63b8ff" d="M201.74,-20.59C211.84,-19.78 222.12,-18.95 232.27,-18.14"/>
<polygon fill="#63b8ff" stroke="#63b8ff" points="237.02,-17.75 232.22,-20.4 235.74,-17.86 232.04,-18.16 232.04,-18.16 232.04,-18.16 235.74,-17.86 231.86,-15.91 237.02,-17.75"/>
</a>
</g>
</g>
<!-- Node3 -->
<g id="Node000003" class="node">
<title>Node3</title>
<g id="a_Node000003"><a xlink:href="../../d8/d8e/namespacenpi_1_1win.html#aa203e14a9085aa2fa437ea050b780b15" target="_top" xlink:title="Show a Windows message box with custom flags.">
<polygon fill="white" stroke="none" points="766,-38.25 654,-38.25 654,-19 766,-19 766,-38.25"/>
<text xml:space="preserve" text-anchor="middle" x="710" y="-23.8" font-family="Consolas" font-size="11.00">npi::win::msgBox</text>
</a>
</g>
</g>
<!-- Node2&#45;&gt;Node3 -->
<g id="edge2_Node000002_Node000003" class="edge">
<title>Node2&#45;&gt;Node3</title>
<g id="a_edge2_Node000002_Node000003"><a xlink:title=" ">
<path fill="none" stroke="#63b8ff" d="M617.68,-28.62C627.81,-28.62 638.18,-28.62 648.12,-28.62"/>
<polygon fill="#63b8ff" stroke="#63b8ff" points="653.04,-28.63 648.04,-30.88 651.75,-28.63 648.04,-28.63 648.04,-28.63 648.04,-28.63 651.75,-28.63 648.04,-26.38 653.04,-28.63"/>
</a>
</g>
</g>
<!-- Node4&#45;&gt;Node2 -->
<g id="edge4_Node000004_Node000002" class="edge">
<title>Node4&#45;&gt;Node2</title>
<g id="a_edge4_Node000004_Node000002"><a xlink:title=" ">
<path fill="none" stroke="#63b8ff" d="M439.98,-18.85C450.08,-19.78 460.23,-20.71 470.02,-21.62"/>
<polygon fill="#63b8ff" stroke="#63b8ff" points="474.85,-22.06 469.66,-23.84 473.57,-21.94 469.87,-21.6 469.87,-21.6 469.87,-21.6 473.57,-21.94 470.08,-19.36 474.85,-22.06"/>
</a>
</g>
</g>
</g>
</svg>
