<?xml version="1.0" encoding="UTF-8" standalone="no"?>
<!DOCTYPE svg PUBLIC "-//W3C//DTD SVG 1.1//EN"
 "http://www.w3.org/Graphics/SVG/1.1/DTD/svg11.dtd">
<!-- Generated by graphviz version 14.0.0 (20250921.2048)
 -->
<!-- Title: npi::app::startupFatalMessage Pages: 1 -->
<svg width="906pt" height="111pt"
 viewBox="0.00 0.00 906.00 111.00" xmlns="http://www.w3.org/2000/svg" xmlns:xlink="http://www.w3.org/1999/xlink">
<g id="graph0" class="graph" transform="scale(1 1) rotate(0) translate(4 107.17)">
<title>npi::app::startupFatalMessage</title>
<!-- Node1 -->
<g id="Node000001" class="node">
<title>Node1</title>
<g id="a_Node000001"><a xlink:title="Emergency startup fatal error message box.">
<polygon fill="#999999" stroke="none" points="898,-65.17 708,-65.17 708,-45.92 898,-45.92 898,-65.17"/>
<text xml:space="preserve" text-anchor="start" x="716" y="-51.72" font-family="Consolas" font-weight="bold" font-size="11.00">npi::app::startupFatalMessage</text>
</a>
</g>
</g>
<!-- Node2 -->
<g id="Node000002" class="node">
<title>Node2</title>
<g id="a_Node000002"><a xlink:href="../../df/d40/namespaceanonymous__namespace_02_meta_paths_8cpp_03.html#a6b23c92ed8a542082d8cddde4bd55b47" target="_top" xlink:title="Resolve base path using Known Folder ID or environment variable fallback.">
<polygon fill="white" stroke="none" points="660,-95.79 488,-95.79 488,-65.29 660,-65.29 660,-95.79"/>
<text xml:space="preserve" text-anchor="start" x="496" y="-81.34" font-family="Consolas" font-size="11.00">anonymous_namespace</text>
<text xml:space="preserve" text-anchor="middle" x="574" y="-70.09" font-family="Consolas" font-size="11.00">{MetaPaths::cpp}::basePath</text>
</a>
</g>
</g>
<!-- Node1&#45;&gt;Node2 -->
<g id="edge1_Node000001_Node000002" class="edge">
<title>Node1&#45;&gt;Node2</title>
<g id="a_edge1_Node000001_Node000002"><a xlink:title=" ">
<path fill="none" stroke="#63b8ff" d="M708.9,-65.8C692.59,-67.59 675.7,-69.45 659.64,-71.22"/>
<polygon fill="#63b8ff" stroke="#63b8ff" points="713.67,-65.27 708.95,-68.06 712.4,-65.41 708.7,-65.82 708.7,-65.82 708.7,-65.82 712.4,-65.41 708.46,-63.58 713.67,-65.27"/>
</a>
</g>
</g>
<!-- Node7 -->
<g id="Node000007" class="node">
<title>Node7</title>
<g id="a_Node000007"><a xlink:href="../../df/d40/namespaceanonymous__namespace_02_meta_paths_8cpp_03.html#ad34f59342fdb3a04d27ff5ae0320ad25" target="_top" xlink:title="Create subdirectory under base path.">
<polygon fill="white" stroke="none" points="672,-46.79 476,-46.79 476,-16.29 672,-16.29 672,-46.79"/>
<text xml:space="preserve" text-anchor="start" x="484" y="-32.34" font-family="Consolas" font-size="11.00">anonymous_namespace</text>
<text xml:space="preserve" text-anchor="middle" x="574" y="-21.09" font-family="Consolas" font-size="11.00">{MetaPaths::cpp}::createSubDir</text>
</a>
</g>
</g>
<!-- Node1&#45;&gt;Node7 -->
<g id="edge6_Node000001_Node000007" class="edge">
<title>Node1&#45;&gt;Node7</title>
<g id="a_edge6_Node000001_Node000007"><a xlink:title=" ">
<path fill="none" stroke="#63b8ff" d="M704.94,-45.28C694.02,-44.13 682.9,-42.95 671.99,-41.8"/>
<polygon fill="#63b8ff" stroke="#63b8ff" points="709.77,-45.79 704.56,-47.5 708.49,-45.66 704.79,-45.27 704.79,-45.27 704.79,-45.27 708.49,-45.66 705.03,-43.03 709.77,-45.79"/>
</a>
</g>
</g>
<!-- Node3 -->
<g id="Node000003" class="node">
<title>Node3</title>
<g id="a_Node000003"><a xlink:href="../../dc/dba/namespacenpi_1_1app.html#a30836be8b9337a64733a6e05594b23c8" target="_top" xlink:title="Absolute organization&#45;level ProgramData path.">
<polygon fill="white" stroke="none" points="428,-103.17 250,-103.17 250,-83.92 428,-83.92 428,-103.17"/>
<text xml:space="preserve" text-anchor="middle" x="339" y="-88.72" font-family="Consolas" font-size="11.00">npi::app::orgProgramDataDir</text>
</a>
</g>
</g>
<!-- Node2&#45;&gt;Node3 -->
<g id="edge2_Node000002_Node000003" class="edge">
<title>Node2&#45;&gt;Node3</title>
<g id="a_edge2_Node000002_Node000003"><a xlink:title=" ">
<path fill="none" stroke="#63b8ff" d="M482.2,-85.61C464.33,-86.61 445.62,-87.65 427.85,-88.64"/>
<polygon fill="#63b8ff" stroke="#63b8ff" points="487.01,-85.34 482.14,-87.87 485.73,-85.41 482.01,-85.62 482.01,-85.62 482.01,-85.62 485.73,-85.41 481.89,-83.37 487.01,-85.34"/>
</a>
</g>
</g>
<!-- Node5 -->
<g id="Node000005" class="node">
<title>Node5</title>
<g id="a_Node000005"><a xlink:href="../../dc/dba/namespacenpi_1_1app.html#ac0dca24602a75822c6f7fcf63f8781d9" target="_top" xlink:title="Absolute organization&#45;level Public/Documents path.">
<polygon fill="white" stroke="none" points="440,-66.17 238,-66.17 238,-46.92 440,-46.92 440,-66.17"/>
<text xml:space="preserve" text-anchor="middle" x="339" y="-51.72" font-family="Consolas" font-size="11.00">npi::app::orgPublicDocumentsDir</text>
</a>
</g>
</g>
<!-- Node2&#45;&gt;Node5 -->
<g id="edge4_Node000002_Node000005" class="edge">
<title>Node2&#45;&gt;Node5</title>
<g id="a_edge4_Node000002_Node000005"><a xlink:title=" ">
<path fill="none" stroke="#63b8ff" d="M482.34,-71.21C466.27,-69.55 449.52,-67.82 433.38,-66.16"/>
<polygon fill="#63b8ff" stroke="#63b8ff" points="487.01,-71.69 481.81,-73.41 485.74,-71.56 482.04,-71.17 482.04,-71.17 482.04,-71.17 485.74,-71.56 482.27,-68.94 487.01,-71.69"/>
</a>
</g>
</g>
<!-- Node4 -->
<g id="Node000004" class="node">
<title>Node4</title>
<g id="a_Node000004"><a xlink:href="../../dc/dba/namespacenpi_1_1app.html#a40a2a28831f2f410c995f0657baf6544" target="_top" xlink:title="Absolute application&#45;level ProgramData path.">
<polygon fill="white" stroke="none" points="190,-65.17 12,-65.17 12,-45.92 190,-45.92 190,-65.17"/>
<text xml:space="preserve" text-anchor="middle" x="101" y="-50.72" font-family="Consolas" font-size="11.00">npi::app::appProgramDataDir</text>
</a>
</g>
</g>
<!-- Node3&#45;&gt;Node4 -->
<g id="edge3_Node000003_Node000004" class="edge">
<title>Node3&#45;&gt;Node4</title>
<g id="a_edge3_Node000003_Node000004"><a xlink:title=" ">
<path fill="none" stroke="#63b8ff" d="M272.49,-83C237.74,-77.4 195.35,-70.58 161.53,-65.13"/>
<polygon fill="#63b8ff" stroke="#63b8ff" points="277.24,-83.76 271.95,-85.19 275.98,-83.56 272.31,-82.97 272.31,-82.97 272.31,-82.97 275.98,-83.56 272.67,-80.75 277.24,-83.76"/>
</a>
</g>
</g>
<!-- Node6 -->
<g id="Node000006" class="node">
<title>Node6</title>
<g id="a_Node000006"><a xlink:href="../../dc/dba/namespacenpi_1_1app.html#aff4c7482e4417f59ede04e359548a542" target="_top" xlink:title="Absolute application&#45;level Public/Documents path.">
<polygon fill="white" stroke="none" points="202,-28.17 0,-28.17 0,-8.92 202,-8.92 202,-28.17"/>
<text xml:space="preserve" text-anchor="middle" x="101" y="-13.72" font-family="Consolas" font-size="11.00">npi::app::appPublicDocumentsDir</text>
</a>
</g>
</g>
<!-- Node5&#45;&gt;Node6 -->
<g id="edge5_Node000005_Node000006" class="edge">
<title>Node5&#45;&gt;Node6</title>
<g id="a_edge5_Node000005_Node000006"><a xlink:title=" ">
<path fill="none" stroke="#63b8ff" d="M272.49,-46C237.74,-40.4 195.35,-33.58 161.53,-28.13"/>
<polygon fill="#63b8ff" stroke="#63b8ff" points="277.24,-46.76 271.95,-48.19 275.98,-46.56 272.31,-45.97 272.31,-45.97 272.31,-45.97 275.98,-46.56 272.67,-43.75 277.24,-46.76"/>
</a>
</g>
</g>
<!-- Node7&#45;&gt;Node3 -->
<g id="edge9_Node000007_Node000003" class="edge">
<title>Node7&#45;&gt;Node3</title>
<g id="a_edge9_Node000007_Node000003"><a xlink:title=" ">
<path fill="none" stroke="#63b8ff" d="M499.92,-48.41C491.76,-50.87 483.64,-53.59 476,-56.54 459.13,-63.07 457.1,-69.65 440,-75.54 430.24,-78.91 419.72,-81.67 409.3,-83.94"/>
<polygon fill="#63b8ff" stroke="#63b8ff" points="504.4,-47.09 500.24,-50.66 503.17,-47.45 499.6,-48.51 499.6,-48.51 499.6,-48.51 503.17,-47.45 498.96,-46.35 504.4,-47.09"/>
</a>
</g>
</g>
<!-- Node7&#45;&gt;Node4 -->
<g id="edge7_Node000007_Node000004" class="edge">
<title>Node7&#45;&gt;Node4</title>
<g id="a_edge7_Node000007_Node000004"><a xlink:title=" ">
<path fill="none" stroke="#63b8ff" d="M470.16,-30.37C403.81,-30.35 315.7,-31.73 238,-37.54 213.42,-39.39 186.48,-42.68 163.12,-45.95"/>
<polygon fill="#63b8ff" stroke="#63b8ff" points="474.89,-30.37 469.89,-32.62 473.61,-30.37 469.89,-30.37 469.89,-30.37 469.89,-30.37 473.61,-30.37 469.9,-28.12 474.89,-30.37"/>
</a>
</g>
</g>
<!-- Node7&#45;&gt;Node5 -->
<g id="edge10_Node000007_Node000005" class="edge">
<title>Node7&#45;&gt;Node5</title>
<g id="a_edge10_Node000007_Node000005"><a xlink:title=" ">
<path fill="none" stroke="#63b8ff" d="M470.38,-42.56C456.72,-44.02 442.81,-45.51 429.4,-46.95"/>
<polygon fill="#63b8ff" stroke="#63b8ff" points="475,-42.06 470.27,-44.83 473.73,-42.2 470.03,-42.59 470.03,-42.59 470.03,-42.59 473.73,-42.2 469.79,-40.36 475,-42.06"/>
</a>
</g>
</g>
<!-- Node7&#45;&gt;Node6 -->
<g id="edge8_Node000007_Node000006" class="edge">
<title>Node7&#45;&gt;Node6</title>
<g id="a_edge8_Node000007_Node000006"><a xlink:title=" ">
<path fill="none" stroke="#63b8ff" d="M505.07,-15.03C484.31,-10.72 461.34,-6.69 440,-4.54 351.76,4.32 250.02,-2.14 181.41,-8.94"/>
<polygon fill="#63b8ff" stroke="#63b8ff" points="509.95,-16.06 504.59,-17.23 508.7,-15.79 505.06,-15.03 505.06,-15.03 505.06,-15.03 508.7,-15.79 505.52,-12.82 509.95,-16.06"/>
</a>
</g>
</g>
</g>
</svg>
