<?xml version="1.0" encoding="UTF-8" standalone="no"?>
<!DOCTYPE svg PUBLIC "-//W3C//DTD SVG 1.1//EN"
 "http://www.w3.org/Graphics/SVG/1.1/DTD/svg11.dtd">
<!-- Generated by graphviz version 14.0.0 (20250921.2048)
 -->
<!-- Title: npi::app::orgPublicDocumentsDir Pages: 1 -->
<svg width="662pt" height="88pt"
 viewBox="0.00 0.00 662.00 88.00" xmlns="http://www.w3.org/2000/svg" xmlns:xlink="http://www.w3.org/1999/xlink">
<g id="graph0" class="graph" transform="scale(1 1) rotate(0) translate(4 83.5)">
<title>npi::app::orgPublicDocumentsDir</title>
<!-- Node1 -->
<g id="Node000001" class="node">
<title>Node1</title>
<g id="a_Node000001"><a xlink:title="Absolute organization&#45;level Public/Documents path.">
<polygon fill="#999999" stroke="none" points="202,-48.88 0,-48.88 0,-29.62 202,-29.62 202,-48.88"/>
<text xml:space="preserve" text-anchor="start" x="8" y="-35.42" font-family="Consolas" font-weight="bold" font-size="11.00">npi::app::orgPublicDocumentsDir</text>
</a>
</g>
</g>
<!-- Node2 -->
<g id="Node000002" class="node">
<title>Node2</title>
<g id="a_Node000002"><a xlink:href="../../df/d40/namespaceanonymous__namespace_02_meta_paths_8cpp_03.html#a6b23c92ed8a542082d8cddde4bd55b47" target="_top" xlink:title="Resolve base path using Known Folder ID or environment variable fallback.">
<polygon fill="white" stroke="none" points="422,-79.5 250,-79.5 250,-49 422,-49 422,-79.5"/>
<text xml:space="preserve" text-anchor="start" x="258" y="-65.05" font-family="Consolas" font-size="11.00">anonymous_namespace</text>
<text xml:space="preserve" text-anchor="middle" x="336" y="-53.8" font-family="Consolas" font-size="11.00">{MetaPaths::cpp}::basePath</text>
</a>
</g>
</g>
<!-- Node1&#45;&gt;Node2 -->
<g id="edge1_Node000001_Node000002" class="edge">
<title>Node1&#45;&gt;Node2</title>
<g id="a_edge1_Node000001_Node000002"><a xlink:title=" ">
<path fill="none" stroke="#63b8ff" d="M191.42,-48.84C208.71,-50.7 226.85,-52.65 244.19,-54.51"/>
<polygon fill="#63b8ff" stroke="#63b8ff" points="248.83,-55 243.61,-56.71 247.55,-54.87 243.85,-54.47 243.85,-54.47 243.85,-54.47 247.55,-54.87 244.09,-52.23 248.83,-55"/>
</a>
</g>
</g>
<!-- Node4 -->
<g id="Node000004" class="node">
<title>Node4</title>
<g id="a_Node000004"><a xlink:href="../../df/d40/namespaceanonymous__namespace_02_meta_paths_8cpp_03.html#ad34f59342fdb3a04d27ff5ae0320ad25" target="_top" xlink:title="Create subdirectory under base path.">
<polygon fill="white" stroke="none" points="434,-30.5 238,-30.5 238,0 434,0 434,-30.5"/>
<text xml:space="preserve" text-anchor="start" x="246" y="-16.05" font-family="Consolas" font-size="11.00">anonymous_namespace</text>
<text xml:space="preserve" text-anchor="middle" x="336" y="-4.8" font-family="Consolas" font-size="11.00">{MetaPaths::cpp}::createSubDir</text>
</a>
</g>
</g>
<!-- Node1&#45;&gt;Node4 -->
<g id="edge3_Node000001_Node000004" class="edge">
<title>Node1&#45;&gt;Node4</title>
<g id="a_edge3_Node000001_Node000004"><a xlink:title=" ">
<path fill="none" stroke="#63b8ff" d="M195.43,-29.63C207.5,-28.38 219.93,-27.1 232.14,-25.84"/>
<polygon fill="#63b8ff" stroke="#63b8ff" points="236.91,-25.35 232.17,-28.1 235.64,-25.48 231.94,-25.87 231.94,-25.87 231.94,-25.87 235.64,-25.48 231.71,-23.63 236.91,-25.35"/>
</a>
</g>
</g>
<!-- Node3 -->
<g id="Node000003" class="node">
<title>Node3</title>
<g id="a_Node000003"><a xlink:href="../../dc/dba/namespacenpi_1_1app.html#a30b5245afa890e98f19f43c58f29e633" target="_top" xlink:title="Windows native fatal error message box.">
<polygon fill="white" stroke="none" points="654,-48.88 470,-48.88 470,-29.62 654,-29.62 654,-48.88"/>
<text xml:space="preserve" text-anchor="middle" x="562" y="-34.42" font-family="Consolas" font-size="11.00">npi::app::nativeFatalMessage</text>
</a>
</g>
</g>
<!-- Node2&#45;&gt;Node3 -->
<g id="edge2_Node000002_Node000003" class="edge">
<title>Node2&#45;&gt;Node3</title>
<g id="a_edge2_Node000002_Node000003"><a xlink:title=" ">
<path fill="none" stroke="#63b8ff" d="M421.68,-54.8C437.24,-53.06 453.55,-51.24 469.3,-49.48"/>
<polygon fill="#63b8ff" stroke="#63b8ff" points="473.87,-48.97 469.15,-51.77 472.59,-49.12 468.9,-49.53 468.9,-49.53 468.9,-49.53 472.59,-49.12 468.65,-47.29 473.87,-48.97"/>
</a>
</g>
</g>
<!-- Node4&#45;&gt;Node3 -->
<g id="edge4_Node000004_Node000003" class="edge">
<title>Node4&#45;&gt;Node3</title>
<g id="a_edge4_Node000004_Node000003"><a xlink:title=" ">
<path fill="none" stroke="#63b8ff" d="M433.95,-25.64C444.33,-26.75 454.88,-27.88 465.24,-28.99"/>
<polygon fill="#63b8ff" stroke="#63b8ff" points="470.11,-29.51 464.9,-31.22 468.84,-29.38 465.14,-28.98 465.14,-28.98 465.14,-28.98 468.84,-29.38 465.38,-26.74 470.11,-29.51"/>
</a>
</g>
</g>
</g>
</svg>
