<?xml version="1.0" encoding="UTF-8" standalone="no"?>
<!DOCTYPE svg PUBLIC "-//W3C//DTD SVG 1.1//EN"
 "http://www.w3.org/Graphics/SVG/1.1/DTD/svg11.dtd">
<!-- Generated by graphviz version 14.0.0 (20250921.2048)
 -->
<!-- Title: npi::app::orgPublicDocumentsDir Pages: 1 -->
<svg width="536pt" height="27pt"
 viewBox="0.00 0.00 536.00 27.00" xmlns="http://www.w3.org/2000/svg" xmlns:xlink="http://www.w3.org/1999/xlink">
<g id="graph0" class="graph" transform="scale(1 1) rotate(0) translate(4 23.25)">
<title>npi::app::orgPublicDocumentsDir</title>
<!-- Node1 -->
<g id="Node000001" class="node">
<title>Node1</title>
<g id="a_Node000001"><a xlink:title="Absolute organization&#45;level Public/Documents path.">
<polygon fill="#999999" stroke="none" points="202,-19.25 0,-19.25 0,0 202,0 202,-19.25"/>
<text xml:space="preserve" text-anchor="start" x="8" y="-5.8" font-family="Consolas" font-weight="bold" font-size="11.00">npi::app::orgPublicDocumentsDir</text>
</a>
</g>
</g>
<!-- Node2 -->
<g id="Node000002" class="node">
<title>Node2</title>
<g id="a_Node000002"><a xlink:href="../../d8/d8e/namespacenpi_1_1win.html#a7eb3918ab23ee7b9bd2d01911ee9913f" target="_top" xlink:title="Show a fatal error box and terminate the process.">
<polygon fill="white" stroke="none" points="380,-19.25 238,-19.25 238,0 380,0 380,-19.25"/>
<text xml:space="preserve" text-anchor="middle" x="309" y="-4.8" font-family="Consolas" font-size="11.00">npi::win::abortMsgBox</text>
</a>
</g>
</g>
<!-- Node1&#45;&gt;Node2 -->
<g id="edge1_Node000001_Node000002" class="edge">
<title>Node1&#45;&gt;Node2</title>
<g id="a_edge1_Node000001_Node000002"><a xlink:title=" ">
<path fill="none" stroke="#63b8ff" d="M201.98,-9.62C212.08,-9.62 222.23,-9.62 232.02,-9.62"/>
<polygon fill="#63b8ff" stroke="#63b8ff" points="236.85,-9.63 231.85,-11.88 235.56,-9.63 231.85,-9.63 231.85,-9.63 231.85,-9.63 235.56,-9.63 231.85,-7.38 236.85,-9.63"/>
</a>
</g>
</g>
<!-- Node3 -->
<g id="Node000003" class="node">
<title>Node3</title>
<g id="a_Node000003"><a xlink:href="../../d8/d8e/namespacenpi_1_1win.html#aa203e14a9085aa2fa437ea050b780b15" target="_top" xlink:title="Show a Windows message box with custom flags.">
<polygon fill="white" stroke="none" points="528,-19.25 416,-19.25 416,0 528,0 528,-19.25"/>
<text xml:space="preserve" text-anchor="middle" x="472" y="-4.8" font-family="Consolas" font-size="11.00">npi::win::msgBox</text>
</a>
</g>
</g>
<!-- Node2&#45;&gt;Node3 -->
<g id="edge2_Node000002_Node000003" class="edge">
<title>Node2&#45;&gt;Node3</title>
<g id="a_edge2_Node000002_Node000003"><a xlink:title=" ">
<path fill="none" stroke="#63b8ff" d="M379.68,-9.62C389.81,-9.62 400.18,-9.62 410.12,-9.62"/>
<polygon fill="#63b8ff" stroke="#63b8ff" points="415.04,-9.63 410.04,-11.88 413.75,-9.63 410.04,-9.63 410.04,-9.63 410.04,-9.63 413.75,-9.63 410.04,-7.38 415.04,-9.63"/>
</a>
</g>
</g>
</g>
</svg>
