<?xml version="1.0" encoding="UTF-8" standalone="no"?>
<!DOCTYPE svg PUBLIC "-//W3C//DTD SVG 1.1//EN"
 "http://www.w3.org/Graphics/SVG/1.1/DTD/svg11.dtd">
<!-- Generated by graphviz version 14.0.0 (20250921.2048)
 -->
<!-- Title: npi::app::appPublicDocumentsDir Pages: 1 -->
<svg width="900pt" height="88pt"
 viewBox="0.00 0.00 900.00 88.00" xmlns="http://www.w3.org/2000/svg" xmlns:xlink="http://www.w3.org/1999/xlink">
<g id="graph0" class="graph" transform="scale(1 1) rotate(0) translate(4 83.5)">
<title>npi::app::appPublicDocumentsDir</title>
<!-- Node1 -->
<g id="Node000001" class="node">
<title>Node1</title>
<g id="a_Node000001"><a xlink:title="Absolute application&#45;level Public/Documents path.">
<polygon fill="#999999" stroke="none" points="202,-54.88 0,-54.88 0,-35.62 202,-35.62 202,-54.88"/>
<text xml:space="preserve" text-anchor="start" x="8" y="-41.42" font-family="Consolas" font-weight="bold" font-size="11.00">npi::app::appPublicDocumentsDir</text>
</a>
</g>
</g>
<!-- Node2 -->
<g id="Node000002" class="node">
<title>Node2</title>
<g id="a_Node000002"><a xlink:href="../../df/d40/namespaceanonymous__namespace_02_meta_paths_8cpp_03.html#ad34f59342fdb3a04d27ff5ae0320ad25" target="_top" xlink:title="Create subdirectory under base path.">
<polygon fill="white" stroke="none" points="672,-79.5 476,-79.5 476,-49 672,-49 672,-79.5"/>
<text xml:space="preserve" text-anchor="start" x="484" y="-65.05" font-family="Consolas" font-size="11.00">anonymous_namespace</text>
<text xml:space="preserve" text-anchor="middle" x="574" y="-53.8" font-family="Consolas" font-size="11.00">{MetaPaths::cpp}::createSubDir</text>
</a>
</g>
</g>
<!-- Node1&#45;&gt;Node2 -->
<g id="edge1_Node000001_Node000002" class="edge">
<title>Node1&#45;&gt;Node2</title>
<g id="a_edge1_Node000001_Node000002"><a xlink:title=" ">
<path fill="none" stroke="#63b8ff" d="M201.89,-49.28C280.71,-52.46 390.28,-56.88 469.92,-60.09"/>
<polygon fill="#63b8ff" stroke="#63b8ff" points="474.86,-60.29 469.77,-62.34 473.58,-60.24 469.86,-60.09 469.86,-60.09 469.86,-60.09 473.58,-60.24 469.95,-57.84 474.86,-60.29"/>
</a>
</g>
</g>
<!-- Node4 -->
<g id="Node000004" class="node">
<title>Node4</title>
<g id="a_Node000004"><a xlink:href="../../dc/dba/namespacenpi_1_1app.html#ac0dca24602a75822c6f7fcf63f8781d9" target="_top" xlink:title="Absolute organization&#45;level Public/Documents path.">
<polygon fill="white" stroke="none" points="440,-35.88 238,-35.88 238,-16.62 440,-16.62 440,-35.88"/>
<text xml:space="preserve" text-anchor="middle" x="339" y="-21.43" font-family="Consolas" font-size="11.00">npi::app::orgPublicDocumentsDir</text>
</a>
</g>
</g>
<!-- Node1&#45;&gt;Node4 -->
<g id="edge3_Node000001_Node000004" class="edge">
<title>Node1&#45;&gt;Node4</title>
<g id="a_edge3_Node000001_Node000004"><a xlink:title=" ">
<path fill="none" stroke="#63b8ff" d="M201.74,-37.22C211.84,-36.41 222.12,-35.58 232.27,-34.76"/>
<polygon fill="#63b8ff" stroke="#63b8ff" points="237.02,-34.38 232.22,-37.02 235.74,-34.48 232.04,-34.78 232.04,-34.78 232.04,-34.78 235.74,-34.48 231.86,-32.54 237.02,-34.38"/>
</a>
</g>
</g>
<!-- Node3 -->
<g id="Node000003" class="node">
<title>Node3</title>
<g id="a_Node000003"><a xlink:href="../../dc/dba/namespacenpi_1_1app.html#a30b5245afa890e98f19f43c58f29e633" target="_top" xlink:title="Windows native fatal error message box.">
<polygon fill="white" stroke="none" points="892,-48.88 708,-48.88 708,-29.62 892,-29.62 892,-48.88"/>
<text xml:space="preserve" text-anchor="middle" x="800" y="-34.42" font-family="Consolas" font-size="11.00">npi::app::nativeFatalMessage</text>
</a>
</g>
</g>
<!-- Node2&#45;&gt;Node3 -->
<g id="edge2_Node000002_Node000003" class="edge">
<title>Node2&#45;&gt;Node3</title>
<g id="a_edge2_Node000002_Node000003"><a xlink:title=" ">
<path fill="none" stroke="#63b8ff" d="M671.95,-53.43C683.53,-52.14 695.32,-50.82 706.83,-49.54"/>
<polygon fill="#63b8ff" stroke="#63b8ff" points="711.61,-49 706.89,-51.79 710.34,-49.15 706.64,-49.56 706.64,-49.56 706.64,-49.56 710.34,-49.15 706.39,-47.32 711.61,-49"/>
</a>
</g>
</g>
<!-- Node4&#45;&gt;Node2 -->
<g id="edge6_Node000004_Node000002" class="edge">
<title>Node4&#45;&gt;Node2</title>
<g id="a_edge6_Node000004_Node000002"><a xlink:title=" ">
<path fill="none" stroke="#63b8ff" d="M398.8,-35.84C421.51,-39.54 448.14,-43.89 473.65,-48.05"/>
<polygon fill="#63b8ff" stroke="#63b8ff" points="478.56,-48.85 473.26,-50.26 477.29,-48.64 473.62,-48.04 473.62,-48.04 473.62,-48.04 477.29,-48.64 473.99,-45.82 478.56,-48.85"/>
</a>
</g>
</g>
<!-- Node5 -->
<g id="Node000005" class="node">
<title>Node5</title>
<g id="a_Node000005"><a xlink:href="../../df/d40/namespaceanonymous__namespace_02_meta_paths_8cpp_03.html#a6b23c92ed8a542082d8cddde4bd55b47" target="_top" xlink:title="Resolve base path using Known Folder ID or environment variable fallback.">
<polygon fill="white" stroke="none" points="660,-30.5 488,-30.5 488,0 660,0 660,-30.5"/>
<text xml:space="preserve" text-anchor="start" x="496" y="-16.05" font-family="Consolas" font-size="11.00">anonymous_namespace</text>
<text xml:space="preserve" text-anchor="middle" x="574" y="-4.8" font-family="Consolas" font-size="11.00">{MetaPaths::cpp}::basePath</text>
</a>
</g>
</g>
<!-- Node4&#45;&gt;Node5 -->
<g id="edge4_Node000004_Node000005" class="edge">
<title>Node4&#45;&gt;Node5</title>
<g id="a_edge4_Node000004_Node000005"><a xlink:title=" ">
<path fill="none" stroke="#63b8ff" d="M439.83,-21.54C453.88,-20.87 468.26,-20.19 482.13,-19.54"/>
<polygon fill="#63b8ff" stroke="#63b8ff" points="486.82,-19.32 481.93,-21.8 485.54,-19.38 481.83,-19.55 481.83,-19.55 481.83,-19.55 485.54,-19.38 481.72,-17.31 486.82,-19.32"/>
</a>
</g>
</g>
<!-- Node5&#45;&gt;Node3 -->
<g id="edge5_Node000005_Node000003" class="edge">
<title>Node5&#45;&gt;Node3</title>
<g id="a_edge5_Node000005_Node000003"><a xlink:title=" ">
<path fill="none" stroke="#63b8ff" d="M659.68,-24.32C673.89,-25.84 688.71,-27.43 703.17,-28.98"/>
<polygon fill="#63b8ff" stroke="#63b8ff" points="708.13,-29.51 702.92,-31.22 706.85,-29.38 703.16,-28.98 703.16,-28.98 703.16,-28.98 706.85,-29.38 703.4,-26.74 708.13,-29.51"/>
</a>
</g>
</g>
</g>
</svg>
