<?xml version="1.0" encoding="UTF-8" standalone="no"?>
<!DOCTYPE svg PUBLIC "-//W3C//DTD SVG 1.1//EN"
 "http://www.w3.org/Graphics/SVG/1.1/DTD/svg11.dtd">
<!-- Generated by graphviz version 14.0.0 (20250921.2048)
 -->
<!-- Title: npi::app::appProgramDataDir Pages: 1 -->
<svg width="798pt" height="111pt"
 viewBox="0.00 0.00 798.00 111.00" xmlns="http://www.w3.org/2000/svg" xmlns:xlink="http://www.w3.org/1999/xlink">
<g id="graph0" class="graph" transform="scale(1 1) rotate(0) translate(4 107.25)">
<title>npi::app::appProgramDataDir</title>
<!-- Node1 -->
<g id="Node000001" class="node">
<title>Node1</title>
<g id="a_Node000001"><a xlink:title=" ">
<polygon fill="#999999" stroke="none" points="790,-56.25 612,-56.25 612,-37 790,-37 790,-56.25"/>
<text xml:space="preserve" text-anchor="start" x="620" y="-42.8" font-family="Consolas" font-weight="bold" font-size="11.00">npi::app::appProgramDataDir</text>
</a>
</g>
</g>
<!-- Node2 -->
<g id="Node000002" class="node">
<title>Node2</title>
<g id="a_Node000002"><a xlink:href="../../dc/dba/namespacenpi_1_1app.html#abfa8d31e6af8b8f9b3c5af668afd21ad" target="_top" xlink:title=" ">
<polygon fill="white" stroke="none" points="576,-56.25 476,-56.25 476,-37 576,-37 576,-56.25"/>
<text xml:space="preserve" text-anchor="middle" x="526" y="-41.8" font-family="Consolas" font-size="11.00">npi::app::path</text>
</a>
</g>
</g>
<!-- Node1&#45;&gt;Node2 -->
<g id="edge1_Node000001_Node000002" class="edge">
<title>Node1&#45;&gt;Node2</title>
<g id="a_edge1_Node000001_Node000002"><a xlink:title=" ">
<path fill="none" stroke="#63b8ff" d="M606.07,-39.9C595.61,-39.96 585.3,-40.15 575.76,-40.48"/>
<polygon fill="#63b8ff" stroke="#63b8ff" points="611.01,-39.88 606.02,-42.15 609.73,-39.88 606.01,-39.9 606.01,-39.9 606.01,-39.9 609.73,-39.88 606.01,-37.65 611.01,-39.88"/>
</a>
</g>
</g>
<!-- Node2&#45;&gt;Node1 -->
<g id="edge2_Node000002_Node000001" class="edge">
<title>Node2&#45;&gt;Node1</title>
<g id="a_edge2_Node000002_Node000001"><a xlink:title=" ">
<path fill="none" stroke="#63b8ff" d="M581.74,-52.95C591.48,-53.22 601.84,-53.36 612.23,-53.37"/>
<polygon fill="#63b8ff" stroke="#63b8ff" points="576.98,-52.81 582.04,-50.71 578.26,-52.85 581.97,-52.96 581.97,-52.96 581.97,-52.96 578.26,-52.85 581.9,-55.21 576.98,-52.81"/>
</a>
</g>
</g>
<!-- Node2&#45;&gt;Node2 -->
<g id="edge11_Node000002_Node000002" class="edge">
<title>Node2&#45;&gt;Node2</title>
<g id="a_edge11_Node000002_Node000002"><a xlink:title=" ">
<path fill="none" stroke="#63b8ff" d="M557,-59.68C563.35,-67.22 553.02,-74.25 526,-74.25 494.55,-74.25 485.71,-64.74 499.47,-55.97"/>
<polygon fill="#63b8ff" stroke="#63b8ff" points="553.47,-56.74 558.75,-58.21 554.45,-57.56 557.31,-59.94 557.31,-59.94 557.31,-59.94 554.45,-57.56 555.87,-61.67 553.47,-56.74"/>
</a>
</g>
</g>
<!-- Node3 -->
<g id="Node000003" class="node">
<title>Node3</title>
<g id="a_Node000003"><a xlink:href="../../dc/dba/namespacenpi_1_1app.html#aff4c7482e4417f59ede04e359548a542" target="_top" xlink:title=" ">
<polygon fill="white" stroke="none" points="202,-103.25 0,-103.25 0,-84 202,-84 202,-103.25"/>
<text xml:space="preserve" text-anchor="middle" x="101" y="-88.8" font-family="Consolas" font-size="11.00">npi::app::appPublicDocumentsDir</text>
</a>
</g>
</g>
<!-- Node2&#45;&gt;Node3 -->
<g id="edge3_Node000002_Node000003" class="edge">
<title>Node2&#45;&gt;Node3</title>
<g id="a_edge3_Node000002_Node000003"><a xlink:title=" ">
<path fill="none" stroke="#63b8ff" d="M470.36,-51.15C460.31,-53.13 449.87,-55.12 440,-56.62 346.57,-70.87 237.44,-78.26 169.01,-84.01"/>
<polygon fill="#63b8ff" stroke="#63b8ff" points="475.03,-50.23 470.56,-53.41 473.77,-50.48 470.12,-51.2 470.12,-51.2 470.12,-51.2 473.77,-50.48 469.69,-48.99 475.03,-50.23"/>
</a>
</g>
</g>
<!-- Node4 -->
<g id="Node000004" class="node">
<title>Node4</title>
<g id="a_Node000004"><a xlink:href="../../dc/dba/namespacenpi_1_1app.html#a30836be8b9337a64733a6e05594b23c8" target="_top" xlink:title=" ">
<polygon fill="white" stroke="none" points="428,-19.25 250,-19.25 250,0 428,0 428,-19.25"/>
<text xml:space="preserve" text-anchor="middle" x="339" y="-4.8" font-family="Consolas" font-size="11.00">npi::app::orgProgramDataDir</text>
</a>
</g>
</g>
<!-- Node2&#45;&gt;Node4 -->
<g id="edge5_Node000002_Node000004" class="edge">
<title>Node2&#45;&gt;Node4</title>
<g id="a_edge5_Node000002_Node000004"><a xlink:title=" ">
<path fill="none" stroke="#63b8ff" d="M506.02,-35.09C488.83,-29.14 462.77,-23.22 440,-18.62 436.02,-17.82 431.95,-17.02 427.84,-16.23"/>
<polygon fill="#63b8ff" stroke="#63b8ff" points="510.35,-36.68 504.88,-37.07 509.15,-36.24 505.66,-34.96 505.66,-34.96 505.66,-34.96 509.15,-36.24 506.44,-32.84 510.35,-36.68"/>
</a>
</g>
</g>
<!-- Node5 -->
<g id="Node000005" class="node">
<title>Node5</title>
<g id="a_Node000005"><a xlink:href="../../dc/dba/namespacenpi_1_1app.html#ac0dca24602a75822c6f7fcf63f8781d9" target="_top" xlink:title=" ">
<polygon fill="white" stroke="none" points="440,-56.25 238,-56.25 238,-37 440,-37 440,-56.25"/>
<text xml:space="preserve" text-anchor="middle" x="339" y="-41.8" font-family="Consolas" font-size="11.00">npi::app::orgPublicDocumentsDir</text>
</a>
</g>
</g>
<!-- Node2&#45;&gt;Node5 -->
<g id="edge8_Node000002_Node000005" class="edge">
<title>Node2&#45;&gt;Node5</title>
<g id="a_edge8_Node000002_Node000005"><a xlink:title=" ">
<path fill="none" stroke="#63b8ff" d="M470.45,-40.41C460.74,-40.12 450.37,-39.95 439.87,-39.89"/>
<polygon fill="#63b8ff" stroke="#63b8ff" points="475.18,-40.56 470.1,-42.65 473.89,-40.52 470.18,-40.4 470.18,-40.4 470.18,-40.4 473.89,-40.52 470.25,-38.15 475.18,-40.56"/>
</a>
</g>
</g>
<!-- Node3&#45;&gt;Node2 -->
<g id="edge4_Node000003_Node000002" class="edge">
<title>Node3&#45;&gt;Node2</title>
<g id="a_edge4_Node000003_Node000002"><a xlink:title=" ">
<path fill="none" stroke="#63b8ff" d="M207.87,-96.34C274.72,-93.5 362.73,-86.4 440,-74.62 466.01,-70.66 495.93,-63.31 512.43,-56.18"/>
<polygon fill="#63b8ff" stroke="#63b8ff" points="203.1,-96.54 208,-94.08 204.38,-96.48 208.09,-96.33 208.09,-96.33 208.09,-96.33 204.38,-96.48 208.19,-98.58 203.1,-96.54"/>
</a>
</g>
</g>
<!-- Node4&#45;&gt;Node1 -->
<g id="edge6_Node000004_Node000001" class="edge">
<title>Node4&#45;&gt;Node1</title>
<g id="a_edge6_Node000004_Node000001"><a xlink:title=" ">
<path fill="none" stroke="#63b8ff" d="M433.9,-15.14C477.23,-18.11 529.31,-22.28 576,-27.62 598.07,-30.15 622.24,-33.68 643.33,-37.02"/>
<polygon fill="#63b8ff" stroke="#63b8ff" points="429.06,-14.82 434.21,-12.91 430.34,-14.9 434.05,-15.15 434.05,-15.15 434.05,-15.15 430.34,-14.9 433.9,-17.4 429.06,-14.82"/>
</a>
</g>
</g>
<!-- Node4&#45;&gt;Node2 -->
<g id="edge7_Node000004_Node000002" class="edge">
<title>Node4&#45;&gt;Node2</title>
<g id="a_edge7_Node000004_Node000002"><a xlink:title=" ">
<path fill="none" stroke="#63b8ff" d="M364.09,-20.88C384.37,-26.15 414.14,-31.41 440,-36.62 451.71,-38.99 464.29,-41.7 476.08,-44.06"/>
<polygon fill="#63b8ff" stroke="#63b8ff" points="359.28,-19.56 364.7,-18.71 360.52,-19.9 364.11,-20.88 364.11,-20.88 364.11,-20.88 360.52,-19.9 363.51,-23.05 359.28,-19.56"/>
</a>
</g>
</g>
<!-- Node5&#45;&gt;Node2 -->
<g id="edge10_Node000005_Node000002" class="edge">
<title>Node5&#45;&gt;Node2</title>
<g id="a_edge10_Node000005_Node000002"><a xlink:title=" ">
<path fill="none" stroke="#63b8ff" d="M445.8,-53.31C456.43,-53.21 466.82,-52.99 476.39,-52.65"/>
<polygon fill="#63b8ff" stroke="#63b8ff" points="441.09,-53.35 446.07,-51.06 442.37,-53.34 446.09,-53.31 446.09,-53.31 446.09,-53.31 442.37,-53.34 446.1,-55.56 441.09,-53.35"/>
</a>
</g>
</g>
<!-- Node5&#45;&gt;Node3 -->
<g id="edge9_Node000005_Node000003" class="edge">
<title>Node5&#45;&gt;Node3</title>
<g id="a_edge9_Node000005_Node000003"><a xlink:title=" ">
<path fill="none" stroke="#63b8ff" d="M283.84,-57.41C243.55,-65.44 189.06,-76.29 150.26,-84.01"/>
<polygon fill="#63b8ff" stroke="#63b8ff" points="288.48,-56.49 284.01,-59.67 287.22,-56.74 283.57,-57.46 283.57,-57.46 283.57,-57.46 287.22,-56.74 283.13,-55.26 288.48,-56.49"/>
</a>
</g>
</g>
</g>
</svg>
