<?xml version="1.0" encoding="UTF-8" standalone="no"?>
<!DOCTYPE svg PUBLIC "-//W3C//DTD SVG 1.1//EN"
 "http://www.w3.org/Graphics/SVG/1.1/DTD/svg11.dtd">
<!-- Generated by graphviz version 14.0.0 (20250921.2048)
 -->
<!-- Title: npi::app::appPublicDocumentsDir Pages: 1 -->
<svg width="798pt" height="111pt"
 viewBox="0.00 0.00 798.00 111.00" xmlns="http://www.w3.org/2000/svg" xmlns:xlink="http://www.w3.org/1999/xlink">
<g id="graph0" class="graph" transform="scale(1 1) rotate(0) translate(4 107.25)">
<title>npi::app::appPublicDocumentsDir</title>
<!-- Node1 -->
<g id="Node000001" class="node">
<title>Node1</title>
<g id="a_Node000001"><a xlink:title=" ">
<polygon fill="#999999" stroke="none" points="790,-56.25 588,-56.25 588,-37 790,-37 790,-56.25"/>
<text xml:space="preserve" text-anchor="start" x="596" y="-42.8" font-family="Consolas" font-weight="bold" font-size="11.00">npi::app::appPublicDocumentsDir</text>
</a>
</g>
</g>
<!-- Node2 -->
<g id="Node000002" class="node">
<title>Node2</title>
<g id="a_Node000002"><a xlink:href="../../dc/dba/namespacenpi_1_1app.html#abfa8d31e6af8b8f9b3c5af668afd21ad" target="_top" xlink:title=" ">
<polygon fill="white" stroke="none" points="552,-56.25 452,-56.25 452,-37 552,-37 552,-56.25"/>
<text xml:space="preserve" text-anchor="middle" x="502" y="-41.8" font-family="Consolas" font-size="11.00">npi::app::path</text>
</a>
</g>
</g>
<!-- Node1&#45;&gt;Node2 -->
<g id="edge1_Node000001_Node000002" class="edge">
<title>Node1&#45;&gt;Node2</title>
<g id="a_edge1_Node000001_Node000002"><a xlink:title=" ">
<path fill="none" stroke="#63b8ff" d="M581.99,-39.94C571.51,-40.04 561.26,-40.26 551.8,-40.59"/>
<polygon fill="#63b8ff" stroke="#63b8ff" points="586.97,-39.9 581.99,-42.19 585.69,-39.91 581.97,-39.94 581.97,-39.94 581.97,-39.94 585.69,-39.91 581.96,-37.69 586.97,-39.9"/>
</a>
</g>
</g>
<!-- Node2&#45;&gt;Node1 -->
<g id="edge4_Node000002_Node000001" class="edge">
<title>Node2&#45;&gt;Node1</title>
<g id="a_edge4_Node000002_Node000001"><a xlink:title=" ">
<path fill="none" stroke="#63b8ff" d="M558,-52.86C567.59,-53.14 577.83,-53.3 588.19,-53.36"/>
<polygon fill="#63b8ff" stroke="#63b8ff" points="553.02,-52.69 558.09,-50.61 554.3,-52.74 558.02,-52.86 558.02,-52.86 558.02,-52.86 554.3,-52.74 557.94,-55.11 553.02,-52.69"/>
</a>
</g>
</g>
<!-- Node2&#45;&gt;Node2 -->
<g id="edge11_Node000002_Node000002" class="edge">
<title>Node2&#45;&gt;Node2</title>
<g id="a_edge11_Node000002_Node000002"><a xlink:title=" ">
<path fill="none" stroke="#63b8ff" d="M535.12,-59.68C541.92,-67.22 530.88,-74.25 502,-74.25 468.4,-74.25 458.95,-64.74 473.65,-55.97"/>
<polygon fill="#63b8ff" stroke="#63b8ff" points="531.31,-56.71 536.64,-58.01 532.32,-57.5 535.26,-59.79 535.26,-59.79 535.26,-59.79 532.32,-57.5 533.87,-61.56 531.31,-56.71"/>
</a>
</g>
</g>
<!-- Node3 -->
<g id="Node000003" class="node">
<title>Node3</title>
<g id="a_Node000003"><a xlink:href="../../dc/dba/namespacenpi_1_1app.html#a40a2a28831f2f410c995f0657baf6544" target="_top" xlink:title=" ">
<polygon fill="white" stroke="none" points="178,-103.25 0,-103.25 0,-84 178,-84 178,-103.25"/>
<text xml:space="preserve" text-anchor="middle" x="89" y="-88.8" font-family="Consolas" font-size="11.00">npi::app::appProgramDataDir</text>
</a>
</g>
</g>
<!-- Node2&#45;&gt;Node3 -->
<g id="edge2_Node000002_Node000003" class="edge">
<title>Node2&#45;&gt;Node3</title>
<g id="a_edge2_Node000002_Node000003"><a xlink:title=" ">
<path fill="none" stroke="#63b8ff" d="M446.35,-51.13C436.3,-53.11 425.87,-55.11 416,-56.62 325.05,-70.63 218.66,-78.12 152.79,-84.02"/>
<polygon fill="#63b8ff" stroke="#63b8ff" points="451.02,-50.21 446.55,-53.38 449.77,-50.45 446.12,-51.17 446.12,-51.17 446.12,-51.17 449.77,-50.45 445.68,-48.97 451.02,-50.21"/>
</a>
</g>
</g>
<!-- Node4 -->
<g id="Node000004" class="node">
<title>Node4</title>
<g id="a_Node000004"><a xlink:href="../../dc/dba/namespacenpi_1_1app.html#a30836be8b9337a64733a6e05594b23c8" target="_top" xlink:title=" ">
<polygon fill="white" stroke="none" points="404,-56.25 226,-56.25 226,-37 404,-37 404,-56.25"/>
<text xml:space="preserve" text-anchor="middle" x="315" y="-41.8" font-family="Consolas" font-size="11.00">npi::app::orgProgramDataDir</text>
</a>
</g>
</g>
<!-- Node2&#45;&gt;Node4 -->
<g id="edge5_Node000002_Node000004" class="edge">
<title>Node2&#45;&gt;Node4</title>
<g id="a_edge5_Node000002_Node000004"><a xlink:title=" ">
<path fill="none" stroke="#63b8ff" d="M446.32,-40.4C432.9,-40.01 418.19,-39.83 403.64,-39.88"/>
<polygon fill="#63b8ff" stroke="#63b8ff" points="451.18,-40.56 446.1,-42.65 449.89,-40.52 446.18,-40.4 446.18,-40.4 446.18,-40.4 449.89,-40.52 446.25,-38.15 451.18,-40.56"/>
</a>
</g>
</g>
<!-- Node5 -->
<g id="Node000005" class="node">
<title>Node5</title>
<g id="a_Node000005"><a xlink:href="../../dc/dba/namespacenpi_1_1app.html#ac0dca24602a75822c6f7fcf63f8781d9" target="_top" xlink:title=" ">
<polygon fill="white" stroke="none" points="416,-19.25 214,-19.25 214,0 416,0 416,-19.25"/>
<text xml:space="preserve" text-anchor="middle" x="315" y="-4.8" font-family="Consolas" font-size="11.00">npi::app::orgPublicDocumentsDir</text>
</a>
</g>
</g>
<!-- Node2&#45;&gt;Node5 -->
<g id="edge8_Node000002_Node000005" class="edge">
<title>Node2&#45;&gt;Node5</title>
<g id="a_edge8_Node000002_Node000005"><a xlink:title=" ">
<path fill="none" stroke="#63b8ff" d="M482.04,-35.1C464.92,-29.17 439.01,-23.27 416.3,-18.68"/>
<polygon fill="#63b8ff" stroke="#63b8ff" points="486.35,-36.68 480.88,-37.07 485.15,-36.24 481.66,-34.96 481.66,-34.96 481.66,-34.96 485.15,-36.24 482.44,-32.84 486.35,-36.68"/>
</a>
</g>
</g>
<!-- Node3&#45;&gt;Node2 -->
<g id="edge3_Node000003_Node000002" class="edge">
<title>Node3&#45;&gt;Node2</title>
<g id="a_edge3_Node000003_Node000002"><a xlink:title=" ">
<path fill="none" stroke="#63b8ff" d="M183.75,-96.49C249.11,-93.82 338.2,-86.61 416,-74.62 442,-70.62 471.93,-63.28 488.43,-56.17"/>
<polygon fill="#63b8ff" stroke="#63b8ff" points="179.11,-96.67 184.02,-94.23 180.39,-96.62 184.11,-96.48 184.11,-96.48 184.11,-96.48 180.39,-96.62 184.2,-98.72 179.11,-96.67"/>
</a>
</g>
</g>
<!-- Node4&#45;&gt;Node2 -->
<g id="edge7_Node000004_Node000002" class="edge">
<title>Node4&#45;&gt;Node2</title>
<g id="a_edge7_Node000004_Node000002"><a xlink:title=" ">
<path fill="none" stroke="#63b8ff" d="M409.54,-53.37C424.37,-53.36 439.16,-53.12 452.39,-52.65"/>
<polygon fill="#63b8ff" stroke="#63b8ff" points="404.86,-53.37 409.86,-51.13 406.14,-53.37 409.86,-53.38 409.86,-53.38 409.86,-53.38 406.14,-53.37 409.86,-55.63 404.86,-53.37"/>
</a>
</g>
</g>
<!-- Node4&#45;&gt;Node3 -->
<g id="edge6_Node000004_Node000003" class="edge">
<title>Node4&#45;&gt;Node3</title>
<g id="a_edge6_Node000004_Node000003"><a xlink:title=" ">
<path fill="none" stroke="#63b8ff" d="M262.12,-57.51C223.93,-65.52 172.48,-76.32 135.81,-84.01"/>
<polygon fill="#63b8ff" stroke="#63b8ff" points="266.94,-56.5 262.51,-59.73 265.68,-56.76 262.04,-57.53 262.04,-57.53 262.04,-57.53 265.68,-56.76 261.58,-55.32 266.94,-56.5"/>
</a>
</g>
</g>
<!-- Node5&#45;&gt;Node1 -->
<g id="edge9_Node000005_Node000001" class="edge">
<title>Node5&#45;&gt;Node1</title>
<g id="a_edge9_Node000005_Node000001"><a xlink:title=" ">
<path fill="none" stroke="#63b8ff" d="M421.71,-16.27C462.48,-19.2 509.46,-23.04 552,-27.62 575.94,-30.21 602.16,-33.71 625.13,-37"/>
<polygon fill="#63b8ff" stroke="#63b8ff" points="416.96,-15.93 422.1,-14.04 418.24,-16.02 421.94,-16.28 421.94,-16.28 421.94,-16.28 418.24,-16.02 421.78,-18.53 416.96,-15.93"/>
</a>
</g>
</g>
<!-- Node5&#45;&gt;Node2 -->
<g id="edge10_Node000005_Node000002" class="edge">
<title>Node5&#45;&gt;Node2</title>
<g id="a_edge10_Node000005_Node000002"><a xlink:title=" ">
<path fill="none" stroke="#63b8ff" d="M340.09,-20.88C360.37,-26.15 390.14,-31.41 416,-36.62 427.71,-38.99 440.29,-41.7 452.08,-44.06"/>
<polygon fill="#63b8ff" stroke="#63b8ff" points="335.28,-19.56 340.7,-18.71 336.52,-19.9 340.11,-20.88 340.11,-20.88 340.11,-20.88 336.52,-19.9 339.51,-23.05 335.28,-19.56"/>
</a>
</g>
</g>
</g>
</svg>
