<?xml version="1.0" encoding="UTF-8" standalone="no"?>
<!DOCTYPE svg PUBLIC "-//W3C//DTD SVG 1.1//EN"
 "http://www.w3.org/Graphics/SVG/1.1/DTD/svg11.dtd">
<!-- Generated by graphviz version 14.0.0 (20250921.2048)
 -->
<!-- Title: npi::app::orgProgramDataDir Pages: 1 -->
<svg width="638pt" height="88pt"
 viewBox="0.00 0.00 638.00 88.00" xmlns="http://www.w3.org/2000/svg" xmlns:xlink="http://www.w3.org/1999/xlink">
<g id="graph0" class="graph" transform="scale(1 1) rotate(0) translate(4 83.5)">
<title>npi::app::orgProgramDataDir</title>
<!-- Node1 -->
<g id="Node000001" class="node">
<title>Node1</title>
<g id="a_Node000001"><a xlink:title="Absolute organization&#45;level ProgramData path.">
<polygon fill="#999999" stroke="none" points="178,-48.88 0,-48.88 0,-29.62 178,-29.62 178,-48.88"/>
<text xml:space="preserve" text-anchor="start" x="8" y="-35.42" font-family="Consolas" font-weight="bold" font-size="11.00">npi::app::orgProgramDataDir</text>
</a>
</g>
</g>
<!-- Node2 -->
<g id="Node000002" class="node">
<title>Node2</title>
<g id="a_Node000002"><a xlink:href="../../df/d40/namespaceanonymous__namespace_02_meta_paths_8cpp_03.html#a6b23c92ed8a542082d8cddde4bd55b47" target="_top" xlink:title="Resolve base path using Known Folder ID or environment variable fallback.">
<polygon fill="white" stroke="none" points="398,-79.5 226,-79.5 226,-49 398,-49 398,-79.5"/>
<text xml:space="preserve" text-anchor="start" x="234" y="-65.05" font-family="Consolas" font-size="11.00">anonymous_namespace</text>
<text xml:space="preserve" text-anchor="middle" x="312" y="-53.8" font-family="Consolas" font-size="11.00">{MetaPaths::cpp}::basePath</text>
</a>
</g>
</g>
<!-- Node1&#45;&gt;Node2 -->
<g id="edge1_Node000001_Node000002" class="edge">
<title>Node1&#45;&gt;Node2</title>
<g id="a_edge1_Node000001_Node000002"><a xlink:title=" ">
<path fill="none" stroke="#63b8ff" d="M174.81,-48.84C189.64,-50.52 205.12,-52.27 220.11,-53.97"/>
<polygon fill="#63b8ff" stroke="#63b8ff" points="224.84,-54.5 219.62,-56.18 223.57,-54.36 219.87,-53.94 219.87,-53.94 219.87,-53.94 223.57,-54.36 220.12,-51.71 224.84,-54.5"/>
</a>
</g>
</g>
<!-- Node4 -->
<g id="Node000004" class="node">
<title>Node4</title>
<g id="a_Node000004"><a xlink:href="../../df/d40/namespaceanonymous__namespace_02_meta_paths_8cpp_03.html#ad34f59342fdb3a04d27ff5ae0320ad25" target="_top" xlink:title="Create subdirectory under base path.">
<polygon fill="white" stroke="none" points="410,-30.5 214,-30.5 214,0 410,0 410,-30.5"/>
<text xml:space="preserve" text-anchor="start" x="222" y="-16.05" font-family="Consolas" font-size="11.00">anonymous_namespace</text>
<text xml:space="preserve" text-anchor="middle" x="312" y="-4.8" font-family="Consolas" font-size="11.00">{MetaPaths::cpp}::createSubDir</text>
</a>
</g>
</g>
<!-- Node1&#45;&gt;Node4 -->
<g id="edge3_Node000001_Node000004" class="edge">
<title>Node1&#45;&gt;Node4</title>
<g id="a_edge3_Node000001_Node000004"><a xlink:title=" ">
<path fill="none" stroke="#63b8ff" d="M177.98,-29.7C187.94,-28.61 198.16,-27.5 208.29,-26.4"/>
<polygon fill="#63b8ff" stroke="#63b8ff" points="213.03,-25.89 208.3,-28.67 211.75,-26.03 208.06,-26.43 208.06,-26.43 208.06,-26.43 211.75,-26.03 207.81,-24.19 213.03,-25.89"/>
</a>
</g>
</g>
<!-- Node3 -->
<g id="Node000003" class="node">
<title>Node3</title>
<g id="a_Node000003"><a xlink:href="../../dc/dba/namespacenpi_1_1app.html#a30b5245afa890e98f19f43c58f29e633" target="_top" xlink:title="Windows native fatal error message box.">
<polygon fill="white" stroke="none" points="630,-48.88 446,-48.88 446,-29.62 630,-29.62 630,-48.88"/>
<text xml:space="preserve" text-anchor="middle" x="538" y="-34.42" font-family="Consolas" font-size="11.00">npi::app::nativeFatalMessage</text>
</a>
</g>
</g>
<!-- Node2&#45;&gt;Node3 -->
<g id="edge2_Node000002_Node000003" class="edge">
<title>Node2&#45;&gt;Node3</title>
<g id="a_edge2_Node000002_Node000003"><a xlink:title=" ">
<path fill="none" stroke="#63b8ff" d="M397.68,-54.8C413.24,-53.06 429.55,-51.24 445.3,-49.48"/>
<polygon fill="#63b8ff" stroke="#63b8ff" points="449.87,-48.97 445.15,-51.77 448.59,-49.12 444.9,-49.53 444.9,-49.53 444.9,-49.53 448.59,-49.12 444.65,-47.29 449.87,-48.97"/>
</a>
</g>
</g>
<!-- Node4&#45;&gt;Node3 -->
<g id="edge4_Node000004_Node000003" class="edge">
<title>Node4&#45;&gt;Node3</title>
<g id="a_edge4_Node000004_Node000003"><a xlink:title=" ">
<path fill="none" stroke="#63b8ff" d="M409.95,-25.64C420.33,-26.75 430.88,-27.88 441.24,-28.99"/>
<polygon fill="#63b8ff" stroke="#63b8ff" points="446.11,-29.51 440.9,-31.22 444.84,-29.38 441.14,-28.98 441.14,-28.98 441.14,-28.98 444.84,-29.38 441.38,-26.74 446.11,-29.51"/>
</a>
</g>
</g>
</g>
</svg>
