<?xml version="1.0" encoding="UTF-8" standalone="no"?>
<!DOCTYPE svg PUBLIC "-//W3C//DTD SVG 1.1//EN"
 "http://www.w3.org/Graphics/SVG/1.1/DTD/svg11.dtd">
<!-- Generated by graphviz version 14.0.0 (20250921.2048)
 -->
<!-- Title: npi::app::path Pages: 1 -->
<!--zoomable 168 -->

<svg id="main" version="1.1" xmlns="http://www.w3.org/2000/svg" xmlns:xlink="http://www.w3.org/1999/xlink" xml:space="preserve" onload="init(evt)">

<style type="text/css"><![CDATA[
.node, .edge {opacity: 0.7;}
.node.selected, .edge.selected {opacity: 1;}
.edge:hover path { stroke: red; }
.edge:hover polygon { stroke: red; fill: red; }
]]></style>

<defs>
  <circle id="rim" cx="0" cy="0" r="7"/>
  <circle id="rim2" cx="0" cy="0" r="3.5"/>
  <g id="zoomPlus">
    <use xlink:href="#rim" fill="#404040"><set attributeName="fill" to="#808080" begin="zoomplus.mouseover" end="zoomplus.mouseout"/></use>
    <path d="M-4,0h8M0,-4v8" fill="none" stroke="white" stroke-width="1.5" pointer-events="none"/>
  </g>
  <g id="zoomMin">
    <use xlink:href="#rim" fill="#404040"><set attributeName="fill" to="#808080" begin="zoomminus.mouseover" end="zoomminus.mouseout"/></use>
    <path d="M-4,0h8" fill="none" stroke="white" stroke-width="1.5" pointer-events="none"/>
  </g>
  <g id="arrowUp" transform="translate(30 24)">
    <use xlink:href="#rim"/>
    <path pointer-events="none" fill="none" stroke="white" stroke-width="1.5" d="M0,-3.0v7 M-2.5,-0.5L0,-3.0L2.5,-0.5"/>
  </g>
  <g id="arrowRight" transform="rotate(90) translate(36 -43)">
    <use xlink:href="#rim"/>
    <path pointer-events="none" fill="none" stroke="white" stroke-width="1.5" d="M0,-3.0v7 M-2.5,-0.5L0,-3.0L2.5,-0.5"/>
  </g>
  <g id="arrowDown" transform="rotate(180) translate(-30 -48)">
    <use xlink:href="#rim"/>
    <path pointer-events="none" fill="none" stroke="white" stroke-width="1.5" d="M0,-3.0v7 M-2.5,-0.5L0,-3.0L2.5,-0.5"/>
  </g>
  <g id="arrowLeft" transform="rotate(270) translate(-36 17)">
    <use xlink:href="#rim"/>
    <path pointer-events="none" fill="none" stroke="white" stroke-width="1.5" d="M0,-3.0v7 M-2.5,-0.5L0,-3.0L2.5,-0.5"/>
  </g>
  <g id="resetDef">
    <use xlink:href="#rim2" fill="#404040"><set attributeName="fill" to="#808080" begin="reset.mouseover" end="reset.mouseout"/></use>
  </g>
</defs>
<script type="application/ecmascript">
var viewWidth = 584;
var viewHeight = 168;
var sectionId = 'dynsection-9';
</script>
<script type="application/ecmascript" xlink:href="../../svg.min.js"/>
<svg id="graph" class="graph">
<g id="viewport">
<title>npi::app::path</title>
<!-- Node1 -->
<g id="Node000001" class="node">
<title>Node1</title>
<g id="a_Node000001"><a xlink:title=" ">
<polygon fill="#999999" stroke="none" points="576,-89.25 476,-89.25 476,-70 576,-70 576,-89.25"/>
<text xml:space="preserve" text-anchor="start" x="484" y="-75.8" font-family="Consolas" font-weight="bold" font-size="11.00">npi::app::path</text>
</a>
</g>
</g>
<!-- Node1&#45;&gt;Node1 -->
<g id="edge11_Node000001_Node000001" class="edge">
<title>Node1&#45;&gt;Node1</title>
<g id="a_edge11_Node000001_Node000001"><a xlink:title=" ">
<path fill="none" stroke="#63b8ff" d="M559.12,-92.68C565.92,-100.22 554.88,-107.25 526,-107.25 492.4,-107.25 482.95,-97.74 497.65,-88.97"/>
<polygon fill="#63b8ff" stroke="#63b8ff" points="555.31,-89.71 560.64,-91.01 556.32,-90.5 559.26,-92.79 559.26,-92.79 559.26,-92.79 556.32,-90.5 557.87,-94.56 555.31,-89.71"/>
</a>
</g>
</g>
<!-- Node2 -->
<g id="Node000002" class="node">
<title>Node2</title>
<g id="a_Node000002"><a xlink:href="../../dc/dba/namespacenpi_1_1app.html#a40a2a28831f2f410c995f0657baf6544" target="_top" xlink:title=" ">
<polygon fill="white" stroke="none" points="190,-160.25 12,-160.25 12,-141 190,-141 190,-160.25"/>
<text xml:space="preserve" text-anchor="middle" x="101" y="-145.8" font-family="Consolas" font-size="11.00">npi::app::appProgramDataDir</text>
</a>
</g>
</g>
<!-- Node1&#45;&gt;Node2 -->
<g id="edge1_Node000001_Node000002" class="edge">
<title>Node1&#45;&gt;Node2</title>
<g id="a_edge1_Node000001_Node000002"><a xlink:title=" ">
<path fill="none" stroke="#63b8ff" d="M491.94,-91.88C476.69,-99.55 458,-108.54 440,-113.62 357.27,-137.01 258.97,-142.83 189.77,-145.18"/>
<polygon fill="#63b8ff" stroke="#63b8ff" points="496.31,-89.67 492.86,-93.94 495.17,-90.25 491.85,-91.93 491.85,-91.93 491.85,-91.93 495.17,-90.25 490.83,-89.92 496.31,-89.67"/>
</a>
</g>
</g>
<!-- Node3 -->
<g id="Node000003" class="node">
<title>Node3</title>
<g id="a_Node000003"><a xlink:href="../../dc/dba/namespacenpi_1_1app.html#aff4c7482e4417f59ede04e359548a542" target="_top" xlink:title=" ">
<polygon fill="white" stroke="none" points="202,-66.25 0,-66.25 0,-47 202,-47 202,-66.25"/>
<text xml:space="preserve" text-anchor="middle" x="101" y="-51.8" font-family="Consolas" font-size="11.00">npi::app::appPublicDocumentsDir</text>
</a>
</g>
</g>
<!-- Node1&#45;&gt;Node3 -->
<g id="edge3_Node000001_Node000003" class="edge">
<title>Node1&#45;&gt;Node3</title>
<g id="a_edge3_Node000001_Node000003"><a xlink:title=" ">
<path fill="none" stroke="#63b8ff" d="M470.06,-71.92C402.23,-65.97 285.58,-59.25 201.77,-56.22"/>
<polygon fill="#63b8ff" stroke="#63b8ff" points="474.85,-72.35 469.67,-74.14 473.57,-72.23 469.87,-71.9 469.87,-71.9 469.87,-71.9 473.57,-72.23 470.07,-69.66 474.85,-72.35"/>
</a>
</g>
</g>
<!-- Node4 -->
<g id="Node000004" class="node">
<title>Node4</title>
<g id="a_Node000004"><a xlink:href="../../dc/dba/namespacenpi_1_1app.html#a30836be8b9337a64733a6e05594b23c8" target="_top" xlink:title=" ">
<polygon fill="white" stroke="none" points="428,-113.25 250,-113.25 250,-94 428,-94 428,-113.25"/>
<text xml:space="preserve" text-anchor="middle" x="339" y="-98.8" font-family="Consolas" font-size="11.00">npi::app::orgProgramDataDir</text>
</a>
</g>
</g>
<!-- Node1&#45;&gt;Node4 -->
<g id="edge5_Node000001_Node000004" class="edge">
<title>Node1&#45;&gt;Node4</title>
<g id="a_edge5_Node000001_Node000004"><a xlink:title=" ">
<path fill="none" stroke="#63b8ff" d="M470.58,-80.47C438.97,-83.63 400.18,-88.96 373.13,-94.01"/>
<polygon fill="#63b8ff" stroke="#63b8ff" points="475.18,-80.03 470.42,-82.75 473.91,-80.15 470.2,-80.51 470.2,-80.51 470.2,-80.51 473.91,-80.15 469.99,-78.27 475.18,-80.03"/>
</a>
</g>
</g>
<!-- Node5 -->
<g id="Node000005" class="node">
<title>Node5</title>
<g id="a_Node000005"><a xlink:href="../../dc/dba/namespacenpi_1_1app.html#ac0dca24602a75822c6f7fcf63f8781d9" target="_top" xlink:title=" ">
<polygon fill="white" stroke="none" points="440,-19.25 238,-19.25 238,0 440,0 440,-19.25"/>
<text xml:space="preserve" text-anchor="middle" x="339" y="-4.8" font-family="Consolas" font-size="11.00">npi::app::orgPublicDocumentsDir</text>
</a>
</g>
</g>
<!-- Node1&#45;&gt;Node5 -->
<g id="edge8_Node000001_Node000005" class="edge">
<title>Node1&#45;&gt;Node5</title>
<g id="a_edge8_Node000001_Node000005"><a xlink:title=" ">
<path fill="none" stroke="#63b8ff" d="M513.8,-66.33C497.96,-53.3 467.83,-35.29 440,-24.62 435,-22.71 429.8,-20.91 424.51,-19.25"/>
<polygon fill="#63b8ff" stroke="#63b8ff" points="517.32,-69.41 512.08,-67.81 516.36,-68.56 513.56,-66.12 513.56,-66.12 513.56,-66.12 516.36,-68.56 515.04,-64.42 517.32,-69.41"/>
</a>
</g>
</g>
<!-- Node2&#45;&gt;Node1 -->
<g id="edge2_Node000002_Node000001" class="edge">
<title>Node2&#45;&gt;Node1</title>
<g id="a_edge2_Node000002_Node000001"><a xlink:title=" ">
<path fill="none" stroke="#63b8ff" d="M195.92,-159.91C264.72,-160.47 359.7,-154.33 440,-131.62 471.19,-122.81 504.45,-102.29 518.32,-89.11"/>
<polygon fill="#63b8ff" stroke="#63b8ff" points="190.98,-159.86 196.01,-157.66 192.27,-159.87 195.98,-159.91 195.98,-159.91 195.98,-159.91 192.27,-159.87 195.96,-162.16 190.98,-159.86"/>
</a>
</g>
</g>
<!-- Node3&#45;&gt;Node1 -->
<g id="edge4_Node000003_Node000001" class="edge">
<title>Node3&#45;&gt;Node1</title>
<g id="a_edge4_Node000003_Node000001"><a xlink:title=" ">
<path fill="none" stroke="#63b8ff" d="M186.02,-66.71C272.76,-73.36 405.13,-80.22 476.06,-81.47"/>
<polygon fill="#63b8ff" stroke="#63b8ff" points="181.07,-66.32 186.23,-64.47 182.35,-66.42 186.06,-66.71 186.06,-66.71 186.06,-66.71 182.35,-66.42 185.89,-68.95 181.07,-66.32"/>
</a>
</g>
</g>
<!-- Node4&#45;&gt;Node1 -->
<g id="edge7_Node000004_Node000001" class="edge">
<title>Node4&#45;&gt;Node1</title>
<g id="a_edge7_Node000004_Node000001"><a xlink:title=" ">
<path fill="none" stroke="#63b8ff" d="M434.12,-98.16C454.89,-95.45 475.56,-92.29 491.93,-89.23"/>
<polygon fill="#63b8ff" stroke="#63b8ff" points="429.17,-98.8 433.84,-95.93 430.44,-98.64 434.13,-98.16 434.13,-98.16 434.13,-98.16 430.44,-98.64 434.42,-100.39 429.17,-98.8"/>
</a>
</g>
</g>
<!-- Node4&#45;&gt;Node2 -->
<g id="edge6_Node000004_Node000002" class="edge">
<title>Node4&#45;&gt;Node2</title>
<g id="a_edge6_Node000004_Node000002"><a xlink:title=" ">
<path fill="none" stroke="#63b8ff" d="M283.84,-114.41C243.55,-122.44 189.06,-133.29 150.26,-141.01"/>
<polygon fill="#63b8ff" stroke="#63b8ff" points="288.48,-113.49 284.01,-116.67 287.22,-113.74 283.57,-114.46 283.57,-114.46 283.57,-114.46 287.22,-113.74 283.13,-112.26 288.48,-113.49"/>
</a>
</g>
</g>
<!-- Node5&#45;&gt;Node1 -->
<g id="edge10_Node000005_Node000001" class="edge">
<title>Node5&#45;&gt;Node1</title>
<g id="a_edge10_Node000005_Node000001"><a xlink:title=" ">
<path fill="none" stroke="#63b8ff" d="M364.3,-20.8C384.89,-26.44 414.96,-33.03 440,-42.62 459.9,-50.25 480.97,-61.63 497.16,-70.06"/>
<polygon fill="#63b8ff" stroke="#63b8ff" points="359.67,-19.49 365.09,-18.69 360.9,-19.84 364.48,-20.85 364.48,-20.85 364.48,-20.85 360.9,-19.84 363.87,-23.02 359.67,-19.49"/>
</a>
</g>
</g>
<!-- Node5&#45;&gt;Node3 -->
<g id="edge9_Node000005_Node000003" class="edge">
<title>Node5&#45;&gt;Node3</title>
<g id="a_edge9_Node000005_Node000003"><a xlink:title=" ">
<path fill="none" stroke="#63b8ff" d="M283.84,-20.41C243.55,-28.44 189.06,-39.29 150.26,-47.01"/>
<polygon fill="#63b8ff" stroke="#63b8ff" points="288.48,-19.49 284.01,-22.67 287.22,-19.74 283.57,-20.46 283.57,-20.46 283.57,-20.46 287.22,-19.74 283.13,-18.26 288.48,-19.49"/>
</a>
</g>
</g>
</g>
</svg>

<g id="navigator" transform="translate(0 0)" fill="#404254">
  <rect fill="#f2f5e9" fill-opacity="0.5" stroke="#606060" stroke-width=".5" x="0" y="0" width="60" height="60"/>
  <use id="zoomplus" xlink:href="#zoomPlus" x="17" y="9" onmousedown="handleZoom(evt,'in')"/>
  <use id="zoomminus" xlink:href="#zoomMin" x="42" y="9" onmousedown="handleZoom(evt,'out')"/>
  <use id="reset" xlink:href="#resetDef" x="30" y="36" onmousedown="handleReset()"/>
   <use id="arrowup" xlink:href="#arrowUp" x="0" y="0" onmousedown="handlePan(0,-1)"/>
  <use id="arrowright" xlink:href="#arrowRight" x="0" y="0" onmousedown="handlePan(1,0)"/>
  <use id="arrowdown" xlink:href="#arrowDown" x="0" y="0" onmousedown="handlePan(0,1)"/>
  <use id="arrowleft" xlink:href="#arrowLeft" x="0" y="0" onmousedown="handlePan(-1,0)"/>
</g>
<svg viewBox="0 0 15 15" width="100%" height="30px" preserveAspectRatio="xMaxYMin meet">
 <g id="arrow_out" transform="scale(0.3 0.3)">
  <a xlink:href="namespacenpi_1_1app_abfa8d31e6af8b8f9b3c5af668afd21ad_icgraph_org.svg" target="_base">
   <rect id="button" ry="5" rx="5" y="6" x="6" height="38" width="38"
        fill="#f2f5e9" fill-opacity="0.5" stroke="#606060" stroke-width="1.0"/>
   <path id="arrow"
     d="M 11.500037,31.436501 C 11.940474,20.09759 22.043105,11.32322 32.158766,21.979434 L 37.068811,17.246167 C 37.068811,17.246167 37.088388,32 37.088388,32 L 22.160133,31.978069 C 22.160133,31.978069 26.997745,27.140456 26.997745,27.140456 C 18.528582,18.264221 13.291696,25.230495 11.500037,31.436501 z"
     style="fill:#404040;"/>
  </a>
 </g>
</svg>

<style type='text/css'>
<![CDATA[
[data-mouse-over-selected='false'] { opacity: 0.7; }
[data-mouse-over-selected='true']  { opacity: 1.0; }
]]>
</style>
<script type="application/ecmascript"><![CDATA[
document.addEventListener('DOMContentLoaded', (event) => {
  highlightEdges();
  highlightAdjacentNodes();
});
]]></script>
</svg>
