<?xml version="1.0" encoding="UTF-8" standalone="no"?>
<!DOCTYPE svg PUBLIC "-//W3C//DTD SVG 1.1//EN"
 "http://www.w3.org/Graphics/SVG/1.1/DTD/svg11.dtd">
<!-- Generated by graphviz version 14.0.0 (20250921.2048)
 -->
<!-- Title: npi::app::orgProgramDataDir Pages: 1 -->
<svg width="512pt" height="27pt"
 viewBox="0.00 0.00 512.00 27.00" xmlns="http://www.w3.org/2000/svg" xmlns:xlink="http://www.w3.org/1999/xlink">
<g id="graph0" class="graph" transform="scale(1 1) rotate(0) translate(4 23.25)">
<title>npi::app::orgProgramDataDir</title>
<!-- Node1 -->
<g id="Node000001" class="node">
<title>Node1</title>
<g id="a_Node000001"><a xlink:title="Absolute organization&#45;level ProgramData path.">
<polygon fill="#999999" stroke="none" points="178,-19.25 0,-19.25 0,0 178,0 178,-19.25"/>
<text xml:space="preserve" text-anchor="start" x="8" y="-5.8" font-family="Consolas" font-weight="bold" font-size="11.00">npi::app::orgProgramDataDir</text>
</a>
</g>
</g>
<!-- Node2 -->
<g id="Node000002" class="node">
<title>Node2</title>
<g id="a_Node000002"><a xlink:href="../../d8/d8e/namespacenpi_1_1win.html#a7eb3918ab23ee7b9bd2d01911ee9913f" target="_top" xlink:title="Show a fatal error box and terminate the process.">
<polygon fill="white" stroke="none" points="356,-19.25 214,-19.25 214,0 356,0 356,-19.25"/>
<text xml:space="preserve" text-anchor="middle" x="285" y="-4.8" font-family="Consolas" font-size="11.00">npi::win::abortMsgBox</text>
</a>
</g>
</g>
<!-- Node1&#45;&gt;Node2 -->
<g id="edge1_Node000001_Node000002" class="edge">
<title>Node1&#45;&gt;Node2</title>
<g id="a_edge1_Node000001_Node000002"><a xlink:title=" ">
<path fill="none" stroke="#63b8ff" d="M177.92,-9.62C187.96,-9.62 198.14,-9.62 208.01,-9.62"/>
<polygon fill="#63b8ff" stroke="#63b8ff" points="212.9,-9.63 207.9,-11.88 211.62,-9.63 207.9,-9.63 207.9,-9.63 207.9,-9.63 211.62,-9.63 207.9,-7.38 212.9,-9.63"/>
</a>
</g>
</g>
<!-- Node3 -->
<g id="Node000003" class="node">
<title>Node3</title>
<g id="a_Node000003"><a xlink:href="../../d8/d8e/namespacenpi_1_1win.html#aa203e14a9085aa2fa437ea050b780b15" target="_top" xlink:title="Show a Windows message box with custom flags.">
<polygon fill="white" stroke="none" points="504,-19.25 392,-19.25 392,0 504,0 504,-19.25"/>
<text xml:space="preserve" text-anchor="middle" x="448" y="-4.8" font-family="Consolas" font-size="11.00">npi::win::msgBox</text>
</a>
</g>
</g>
<!-- Node2&#45;&gt;Node3 -->
<g id="edge2_Node000002_Node000003" class="edge">
<title>Node2&#45;&gt;Node3</title>
<g id="a_edge2_Node000002_Node000003"><a xlink:title=" ">
<path fill="none" stroke="#63b8ff" d="M355.68,-9.62C365.81,-9.62 376.18,-9.62 386.12,-9.62"/>
<polygon fill="#63b8ff" stroke="#63b8ff" points="391.04,-9.63 386.04,-11.88 389.75,-9.63 386.04,-9.63 386.04,-9.63 386.04,-9.63 389.75,-9.63 386.04,-7.38 391.04,-9.63"/>
</a>
</g>
</g>
</g>
</svg>
