<?xml version="1.0" encoding="UTF-8" standalone="no"?>
<!DOCTYPE svg PUBLIC "-//W3C//DTD SVG 1.1//EN"
 "http://www.w3.org/Graphics/SVG/1.1/DTD/svg11.dtd">
<!-- Generated by graphviz version 14.0.0 (20250921.2048)
 -->
<!-- Title: npi::app::appProgramDataDir Pages: 1 -->
<!--zoomable 111 -->

<svg id="main" version="1.1" xmlns="http://www.w3.org/2000/svg" xmlns:xlink="http://www.w3.org/1999/xlink" xml:space="preserve" onload="init(evt)">

<style type="text/css"><![CDATA[
.node, .edge {opacity: 0.7;}
.node.selected, .edge.selected {opacity: 1;}
.edge:hover path { stroke: red; }
.edge:hover polygon { stroke: red; fill: red; }
]]></style>

<defs>
  <circle id="rim" cx="0" cy="0" r="7"/>
  <circle id="rim2" cx="0" cy="0" r="3.5"/>
  <g id="zoomPlus">
    <use xlink:href="#rim" fill="#404040"><set attributeName="fill" to="#808080" begin="zoomplus.mouseover" end="zoomplus.mouseout"/></use>
    <path d="M-4,0h8M0,-4v8" fill="none" stroke="white" stroke-width="1.5" pointer-events="none"/>
  </g>
  <g id="zoomMin">
    <use xlink:href="#rim" fill="#404040"><set attributeName="fill" to="#808080" begin="zoomminus.mouseover" end="zoomminus.mouseout"/></use>
    <path d="M-4,0h8" fill="none" stroke="white" stroke-width="1.5" pointer-events="none"/>
  </g>
  <g id="arrowUp" transform="translate(30 24)">
    <use xlink:href="#rim"/>
    <path pointer-events="none" fill="none" stroke="white" stroke-width="1.5" d="M0,-3.0v7 M-2.5,-0.5L0,-3.0L2.5,-0.5"/>
  </g>
  <g id="arrowRight" transform="rotate(90) translate(36 -43)">
    <use xlink:href="#rim"/>
    <path pointer-events="none" fill="none" stroke="white" stroke-width="1.5" d="M0,-3.0v7 M-2.5,-0.5L0,-3.0L2.5,-0.5"/>
  </g>
  <g id="arrowDown" transform="rotate(180) translate(-30 -48)">
    <use xlink:href="#rim"/>
    <path pointer-events="none" fill="none" stroke="white" stroke-width="1.5" d="M0,-3.0v7 M-2.5,-0.5L0,-3.0L2.5,-0.5"/>
  </g>
  <g id="arrowLeft" transform="rotate(270) translate(-36 17)">
    <use xlink:href="#rim"/>
    <path pointer-events="none" fill="none" stroke="white" stroke-width="1.5" d="M0,-3.0v7 M-2.5,-0.5L0,-3.0L2.5,-0.5"/>
  </g>
  <g id="resetDef">
    <use xlink:href="#rim2" fill="#404040"><set attributeName="fill" to="#808080" begin="reset.mouseover" end="reset.mouseout"/></use>
  </g>
</defs>
<script type="application/ecmascript">
var viewWidth = 798;
var viewHeight = 111;
var sectionId = 'dynsection-1';
</script>
<script type="application/ecmascript" xlink:href="../../svg.min.js"/>
<svg id="graph" class="graph">
<g id="viewport">
<title>npi::app::appProgramDataDir</title>
<!-- Node1 -->
<g id="Node000001" class="node">
<title>Node1</title>
<g id="a_Node000001"><a xlink:title=" ">
<polygon fill="#999999" stroke="none" points="790,-56.25 612,-56.25 612,-37 790,-37 790,-56.25"/>
<text xml:space="preserve" text-anchor="start" x="620" y="-42.8" font-family="Consolas" font-weight="bold" font-size="11.00">npi::app::appProgramDataDir</text>
</a>
</g>
</g>
<!-- Node2 -->
<g id="Node000002" class="node">
<title>Node2</title>
<g id="a_Node000002"><a xlink:href="../../dc/dba/namespacenpi_1_1app.html#abfa8d31e6af8b8f9b3c5af668afd21ad" target="_top" xlink:title=" ">
<polygon fill="white" stroke="none" points="576,-56.25 476,-56.25 476,-37 576,-37 576,-56.25"/>
<text xml:space="preserve" text-anchor="middle" x="526" y="-41.8" font-family="Consolas" font-size="11.00">npi::app::path</text>
</a>
</g>
</g>
<!-- Node1&#45;&gt;Node2 -->
<g id="edge1_Node000001_Node000002" class="edge">
<title>Node1&#45;&gt;Node2</title>
<g id="a_edge1_Node000001_Node000002"><a xlink:title=" ">
<path fill="none" stroke="#63b8ff" d="M606.07,-39.9C595.61,-39.96 585.3,-40.15 575.76,-40.48"/>
<polygon fill="#63b8ff" stroke="#63b8ff" points="611.01,-39.88 606.02,-42.15 609.73,-39.88 606.01,-39.9 606.01,-39.9 606.01,-39.9 609.73,-39.88 606.01,-37.65 611.01,-39.88"/>
</a>
</g>
</g>
<!-- Node2&#45;&gt;Node1 -->
<g id="edge2_Node000002_Node000001" class="edge">
<title>Node2&#45;&gt;Node1</title>
<g id="a_edge2_Node000002_Node000001"><a xlink:title=" ">
<path fill="none" stroke="#63b8ff" d="M581.74,-52.95C591.48,-53.22 601.84,-53.36 612.23,-53.37"/>
<polygon fill="#63b8ff" stroke="#63b8ff" points="576.98,-52.81 582.04,-50.71 578.26,-52.85 581.97,-52.96 581.97,-52.96 581.97,-52.96 578.26,-52.85 581.9,-55.21 576.98,-52.81"/>
</a>
</g>
</g>
<!-- Node2&#45;&gt;Node2 -->
<g id="edge11_Node000002_Node000002" class="edge">
<title>Node2&#45;&gt;Node2</title>
<g id="a_edge11_Node000002_Node000002"><a xlink:title=" ">
<path fill="none" stroke="#63b8ff" d="M557,-59.68C563.35,-67.22 553.02,-74.25 526,-74.25 494.55,-74.25 485.71,-64.74 499.47,-55.97"/>
<polygon fill="#63b8ff" stroke="#63b8ff" points="553.47,-56.74 558.75,-58.21 554.45,-57.56 557.31,-59.94 557.31,-59.94 557.31,-59.94 554.45,-57.56 555.87,-61.67 553.47,-56.74"/>
</a>
</g>
</g>
<!-- Node3 -->
<g id="Node000003" class="node">
<title>Node3</title>
<g id="a_Node000003"><a xlink:href="../../dc/dba/namespacenpi_1_1app.html#aff4c7482e4417f59ede04e359548a542" target="_top" xlink:title=" ">
<polygon fill="white" stroke="none" points="202,-103.25 0,-103.25 0,-84 202,-84 202,-103.25"/>
<text xml:space="preserve" text-anchor="middle" x="101" y="-88.8" font-family="Consolas" font-size="11.00">npi::app::appPublicDocumentsDir</text>
</a>
</g>
</g>
<!-- Node2&#45;&gt;Node3 -->
<g id="edge3_Node000002_Node000003" class="edge">
<title>Node2&#45;&gt;Node3</title>
<g id="a_edge3_Node000002_Node000003"><a xlink:title=" ">
<path fill="none" stroke="#63b8ff" d="M470.36,-51.15C460.31,-53.13 449.87,-55.12 440,-56.62 346.57,-70.87 237.44,-78.26 169.01,-84.01"/>
<polygon fill="#63b8ff" stroke="#63b8ff" points="475.03,-50.23 470.56,-53.41 473.77,-50.48 470.12,-51.2 470.12,-51.2 470.12,-51.2 473.77,-50.48 469.69,-48.99 475.03,-50.23"/>
</a>
</g>
</g>
<!-- Node4 -->
<g id="Node000004" class="node">
<title>Node4</title>
<g id="a_Node000004"><a xlink:href="../../dc/dba/namespacenpi_1_1app.html#a30836be8b9337a64733a6e05594b23c8" target="_top" xlink:title=" ">
<polygon fill="white" stroke="none" points="428,-19.25 250,-19.25 250,0 428,0 428,-19.25"/>
<text xml:space="preserve" text-anchor="middle" x="339" y="-4.8" font-family="Consolas" font-size="11.00">npi::app::orgProgramDataDir</text>
</a>
</g>
</g>
<!-- Node2&#45;&gt;Node4 -->
<g id="edge5_Node000002_Node000004" class="edge">
<title>Node2&#45;&gt;Node4</title>
<g id="a_edge5_Node000002_Node000004"><a xlink:title=" ">
<path fill="none" stroke="#63b8ff" d="M506.02,-35.09C488.83,-29.14 462.77,-23.22 440,-18.62 436.02,-17.82 431.95,-17.02 427.84,-16.23"/>
<polygon fill="#63b8ff" stroke="#63b8ff" points="510.35,-36.68 504.88,-37.07 509.15,-36.24 505.66,-34.96 505.66,-34.96 505.66,-34.96 509.15,-36.24 506.44,-32.84 510.35,-36.68"/>
</a>
</g>
</g>
<!-- Node5 -->
<g id="Node000005" class="node">
<title>Node5</title>
<g id="a_Node000005"><a xlink:href="../../dc/dba/namespacenpi_1_1app.html#ac0dca24602a75822c6f7fcf63f8781d9" target="_top" xlink:title=" ">
<polygon fill="white" stroke="none" points="440,-56.25 238,-56.25 238,-37 440,-37 440,-56.25"/>
<text xml:space="preserve" text-anchor="middle" x="339" y="-41.8" font-family="Consolas" font-size="11.00">npi::app::orgPublicDocumentsDir</text>
</a>
</g>
</g>
<!-- Node2&#45;&gt;Node5 -->
<g id="edge8_Node000002_Node000005" class="edge">
<title>Node2&#45;&gt;Node5</title>
<g id="a_edge8_Node000002_Node000005"><a xlink:title=" ">
<path fill="none" stroke="#63b8ff" d="M470.45,-40.41C460.74,-40.12 450.37,-39.95 439.87,-39.89"/>
<polygon fill="#63b8ff" stroke="#63b8ff" points="475.18,-40.56 470.1,-42.65 473.89,-40.52 470.18,-40.4 470.18,-40.4 470.18,-40.4 473.89,-40.52 470.25,-38.15 475.18,-40.56"/>
</a>
</g>
</g>
<!-- Node3&#45;&gt;Node2 -->
<g id="edge4_Node000003_Node000002" class="edge">
<title>Node3&#45;&gt;Node2</title>
<g id="a_edge4_Node000003_Node000002"><a xlink:title=" ">
<path fill="none" stroke="#63b8ff" d="M207.87,-96.34C274.72,-93.5 362.73,-86.4 440,-74.62 466.01,-70.66 495.93,-63.31 512.43,-56.18"/>
<polygon fill="#63b8ff" stroke="#63b8ff" points="203.1,-96.54 208,-94.08 204.38,-96.48 208.09,-96.33 208.09,-96.33 208.09,-96.33 204.38,-96.48 208.19,-98.58 203.1,-96.54"/>
</a>
</g>
</g>
<!-- Node4&#45;&gt;Node1 -->
<g id="edge6_Node000004_Node000001" class="edge">
<title>Node4&#45;&gt;Node1</title>
<g id="a_edge6_Node000004_Node000001"><a xlink:title=" ">
<path fill="none" stroke="#63b8ff" d="M433.9,-15.14C477.23,-18.11 529.31,-22.28 576,-27.62 598.07,-30.15 622.24,-33.68 643.33,-37.02"/>
<polygon fill="#63b8ff" stroke="#63b8ff" points="429.06,-14.82 434.21,-12.91 430.34,-14.9 434.05,-15.15 434.05,-15.15 434.05,-15.15 430.34,-14.9 433.9,-17.4 429.06,-14.82"/>
</a>
</g>
</g>
<!-- Node4&#45;&gt;Node2 -->
<g id="edge7_Node000004_Node000002" class="edge">
<title>Node4&#45;&gt;Node2</title>
<g id="a_edge7_Node000004_Node000002"><a xlink:title=" ">
<path fill="none" stroke="#63b8ff" d="M364.09,-20.88C384.37,-26.15 414.14,-31.41 440,-36.62 451.71,-38.99 464.29,-41.7 476.08,-44.06"/>
<polygon fill="#63b8ff" stroke="#63b8ff" points="359.28,-19.56 364.7,-18.71 360.52,-19.9 364.11,-20.88 364.11,-20.88 364.11,-20.88 360.52,-19.9 363.51,-23.05 359.28,-19.56"/>
</a>
</g>
</g>
<!-- Node5&#45;&gt;Node2 -->
<g id="edge10_Node000005_Node000002" class="edge">
<title>Node5&#45;&gt;Node2</title>
<g id="a_edge10_Node000005_Node000002"><a xlink:title=" ">
<path fill="none" stroke="#63b8ff" d="M445.8,-53.31C456.43,-53.21 466.82,-52.99 476.39,-52.65"/>
<polygon fill="#63b8ff" stroke="#63b8ff" points="441.09,-53.35 446.07,-51.06 442.37,-53.34 446.09,-53.31 446.09,-53.31 446.09,-53.31 442.37,-53.34 446.1,-55.56 441.09,-53.35"/>
</a>
</g>
</g>
<!-- Node5&#45;&gt;Node3 -->
<g id="edge9_Node000005_Node000003" class="edge">
<title>Node5&#45;&gt;Node3</title>
<g id="a_edge9_Node000005_Node000003"><a xlink:title=" ">
<path fill="none" stroke="#63b8ff" d="M283.84,-57.41C243.55,-65.44 189.06,-76.29 150.26,-84.01"/>
<polygon fill="#63b8ff" stroke="#63b8ff" points="288.48,-56.49 284.01,-59.67 287.22,-56.74 283.57,-57.46 283.57,-57.46 283.57,-57.46 287.22,-56.74 283.13,-55.26 288.48,-56.49"/>
</a>
</g>
</g>
</g>
</svg>

<g id="navigator" transform="translate(0 0)" fill="#404254">
  <rect fill="#f2f5e9" fill-opacity="0.5" stroke="#606060" stroke-width=".5" x="0" y="0" width="60" height="60"/>
  <use id="zoomplus" xlink:href="#zoomPlus" x="17" y="9" onmousedown="handleZoom(evt,'in')"/>
  <use id="zoomminus" xlink:href="#zoomMin" x="42" y="9" onmousedown="handleZoom(evt,'out')"/>
  <use id="reset" xlink:href="#resetDef" x="30" y="36" onmousedown="handleReset()"/>
   <use id="arrowup" xlink:href="#arrowUp" x="0" y="0" onmousedown="handlePan(0,-1)"/>
  <use id="arrowright" xlink:href="#arrowRight" x="0" y="0" onmousedown="handlePan(1,0)"/>
  <use id="arrowdown" xlink:href="#arrowDown" x="0" y="0" onmousedown="handlePan(0,1)"/>
  <use id="arrowleft" xlink:href="#arrowLeft" x="0" y="0" onmousedown="handlePan(-1,0)"/>
</g>
<svg viewBox="0 0 15 15" width="100%" height="30px" preserveAspectRatio="xMaxYMin meet">
 <g id="arrow_out" transform="scale(0.3 0.3)">
  <a xlink:href="namespacenpi_1_1app_a40a2a28831f2f410c995f0657baf6544_icgraph_org.svg" target="_base">
   <rect id="button" ry="5" rx="5" y="6" x="6" height="38" width="38"
        fill="#f2f5e9" fill-opacity="0.5" stroke="#606060" stroke-width="1.0"/>
   <path id="arrow"
     d="M 11.500037,31.436501 C 11.940474,20.09759 22.043105,11.32322 32.158766,21.979434 L 37.068811,17.246167 C 37.068811,17.246167 37.088388,32 37.088388,32 L 22.160133,31.978069 C 22.160133,31.978069 26.997745,27.140456 26.997745,27.140456 C 18.528582,18.264221 13.291696,25.230495 11.500037,31.436501 z"
     style="fill:#404040;"/>
  </a>
 </g>
</svg>

<style type='text/css'>
<![CDATA[
[data-mouse-over-selected='false'] { opacity: 0.7; }
[data-mouse-over-selected='true']  { opacity: 1.0; }
]]>
</style>
<script type="application/ecmascript"><![CDATA[
document.addEventListener('DOMContentLoaded', (event) => {
  highlightEdges();
  highlightAdjacentNodes();
});
]]></script>
</svg>
