<?xml version="1.0" encoding="UTF-8" standalone="no"?>
<!DOCTYPE svg PUBLIC "-//W3C//DTD SVG 1.1//EN"
 "http://www.w3.org/Graphics/SVG/1.1/DTD/svg11.dtd">
<!-- Generated by graphviz version 14.0.0 (20250921.2048)
 -->
<!-- Title: npi::app::appProgramDataDir Pages: 1 -->
<svg width="726pt" height="46pt"
 viewBox="0.00 0.00 726.00 46.00" xmlns="http://www.w3.org/2000/svg" xmlns:xlink="http://www.w3.org/1999/xlink">
<g id="graph0" class="graph" transform="scale(1 1) rotate(0) translate(4 42.25)">
<title>npi::app::appProgramDataDir</title>
<!-- Node1 -->
<g id="Node000001" class="node">
<title>Node1</title>
<g id="a_Node000001"><a xlink:title="Absolute application&#45;level ProgramData path.">
<polygon fill="#999999" stroke="none" points="178,-38.25 0,-38.25 0,-19 178,-19 178,-38.25"/>
<text xml:space="preserve" text-anchor="start" x="8" y="-24.8" font-family="Consolas" font-weight="bold" font-size="11.00">npi::app::appProgramDataDir</text>
</a>
</g>
</g>
<!-- Node2 -->
<g id="Node000002" class="node">
<title>Node2</title>
<g id="a_Node000002"><a xlink:href="../../d8/d8e/namespacenpi_1_1win.html#a7eb3918ab23ee7b9bd2d01911ee9913f" target="_top" xlink:title="Show a fatal error box and terminate the process.">
<polygon fill="white" stroke="none" points="570,-38.25 428,-38.25 428,-19 570,-19 570,-38.25"/>
<text xml:space="preserve" text-anchor="middle" x="499" y="-23.8" font-family="Consolas" font-size="11.00">npi::win::abortMsgBox</text>
</a>
</g>
</g>
<!-- Node1&#45;&gt;Node2 -->
<g id="edge1_Node000001_Node000002" class="edge">
<title>Node1&#45;&gt;Node2</title>
<g id="a_edge1_Node000001_Node000002"><a xlink:title=" ">
<path fill="none" stroke="#63b8ff" d="M177.78,-28.62C250.53,-28.62 352.87,-28.62 422.12,-28.62"/>
<polygon fill="#63b8ff" stroke="#63b8ff" points="427.08,-28.63 422.08,-30.88 425.8,-28.63 422.08,-28.63 422.08,-28.63 422.08,-28.63 425.8,-28.63 422.08,-26.38 427.08,-28.63"/>
</a>
</g>
</g>
<!-- Node4 -->
<g id="Node000004" class="node">
<title>Node4</title>
<g id="a_Node000004"><a xlink:href="../../dc/dba/namespacenpi_1_1app.html#a30836be8b9337a64733a6e05594b23c8" target="_top" xlink:title="Absolute organization&#45;level ProgramData path.">
<polygon fill="white" stroke="none" points="392,-19.25 214,-19.25 214,0 392,0 392,-19.25"/>
<text xml:space="preserve" text-anchor="middle" x="303" y="-4.8" font-family="Consolas" font-size="11.00">npi::app::orgProgramDataDir</text>
</a>
</g>
</g>
<!-- Node1&#45;&gt;Node4 -->
<g id="edge3_Node000001_Node000004" class="edge">
<title>Node1&#45;&gt;Node4</title>
<g id="a_edge3_Node000001_Node000004"><a xlink:title=" ">
<path fill="none" stroke="#63b8ff" d="M177.76,-20.76C187.85,-19.86 198.17,-18.93 208.34,-18.02"/>
<polygon fill="#63b8ff" stroke="#63b8ff" points="213.09,-17.59 208.31,-20.28 211.82,-17.71 208.11,-18.04 208.11,-18.04 208.11,-18.04 211.82,-17.71 207.91,-15.8 213.09,-17.59"/>
</a>
</g>
</g>
<!-- Node3 -->
<g id="Node000003" class="node">
<title>Node3</title>
<g id="a_Node000003"><a xlink:href="../../d8/d8e/namespacenpi_1_1win.html#aa203e14a9085aa2fa437ea050b780b15" target="_top" xlink:title="Show a Windows message box with custom flags.">
<polygon fill="white" stroke="none" points="718,-38.25 606,-38.25 606,-19 718,-19 718,-38.25"/>
<text xml:space="preserve" text-anchor="middle" x="662" y="-23.8" font-family="Consolas" font-size="11.00">npi::win::msgBox</text>
</a>
</g>
</g>
<!-- Node2&#45;&gt;Node3 -->
<g id="edge2_Node000002_Node000003" class="edge">
<title>Node2&#45;&gt;Node3</title>
<g id="a_edge2_Node000002_Node000003"><a xlink:title=" ">
<path fill="none" stroke="#63b8ff" d="M569.68,-28.62C579.81,-28.62 590.18,-28.62 600.12,-28.62"/>
<polygon fill="#63b8ff" stroke="#63b8ff" points="605.04,-28.63 600.04,-30.88 603.75,-28.63 600.04,-28.63 600.04,-28.63 600.04,-28.63 603.75,-28.63 600.04,-26.38 605.04,-28.63"/>
</a>
</g>
</g>
<!-- Node4&#45;&gt;Node2 -->
<g id="edge4_Node000004_Node000002" class="edge">
<title>Node4&#45;&gt;Node2</title>
<g id="a_edge4_Node000004_Node000002"><a xlink:title=" ">
<path fill="none" stroke="#63b8ff" d="M391.92,-18.24C401.96,-19.22 412.14,-20.22 422.01,-21.18"/>
<polygon fill="#63b8ff" stroke="#63b8ff" points="426.9,-21.66 421.71,-23.41 425.63,-21.54 421.93,-21.17 421.93,-21.17 421.93,-21.17 425.63,-21.54 422.15,-18.94 426.9,-21.66"/>
</a>
</g>
</g>
</g>
</svg>
