<?xml version="1.0" encoding="UTF-8" standalone="no"?>
<!DOCTYPE svg PUBLIC "-//W3C//DTD SVG 1.1//EN"
 "http://www.w3.org/Graphics/SVG/1.1/DTD/svg11.dtd">
<!-- Generated by graphviz version 14.1.5 (20260411.2331)
 -->
<!-- Title: npi::app::winWarnMsgExe Pages: 1 -->
<svg width="1356pt" height="941pt"
 viewBox="0.00 0.00 1356.00 941.00" xmlns="http://www.w3.org/2000/svg" xmlns:xlink="http://www.w3.org/1999/xlink">
<g id="graph0" class="graph" transform="scale(1 1) rotate(0) translate(4 937.34)">
<title>npi::app::winWarnMsgExe</title>
<!-- Node1 -->
<g id="Node000001" class="node">
<title>Node1</title>
<g id="a_Node000001"><a xlink:title="Launches npiMsgBox.exe to show a warning message box.">
<polygon fill="#999999" stroke="none" points="1348,-566.62 1194,-566.62 1194,-547.38 1348,-547.38 1348,-566.62"/>
<text xml:space="preserve" text-anchor="start" x="1202" y="-553.17" font-family="Consolas" font-weight="bold" font-size="11.00">npi::app::winWarnMsgExe</text>
</a>
</g>
</g>
<!-- Node2 -->
<g id="Node000002" class="node">
<title>Node2</title>
<g id="a_Node000002"><a xlink:href="../../dc/d68/namespaceanonymous__namespace_02_log_8cpp_03_1_1workers.html#a1d722dbe548810e26de6526339f7db0a" target="_top" xlink:title="Starts a detached cleanup operation for managed normal log files.">
<polygon fill="white" stroke="none" points="784,-758.88 654,-758.88 654,-717.12 784,-717.12 784,-758.88"/>
<text xml:space="preserve" text-anchor="start" x="662" y="-744.42" font-family="Consolas" font-size="11.00">anonymous_namespace</text>
<text xml:space="preserve" text-anchor="start" x="662" y="-733.17" font-family="Consolas" font-size="11.00">{Log::cpp}::workers</text>
<text xml:space="preserve" text-anchor="middle" x="719" y="-721.92" font-family="Consolas" font-size="11.00">::directoryCleanup</text>
</a>
</g>
</g>
<!-- Node1&#45;&gt;Node2 -->
<g id="edge1_Node000001_Node000002" class="edge">
<title>Node1&#45;&gt;Node2</title>
<g id="a_edge1_Node000001_Node000002"><a xlink:title=" ">
<path fill="none" stroke="#63b8ff" d="M1244.16,-569.04C1221.67,-579.28 1188.05,-594.04 1158,-605 1026.98,-652.8 869.75,-697.57 783.82,-721"/>
<polygon fill="#63b8ff" stroke="#63b8ff" points="1248.52,-567.04 1244.91,-571.17 1247.36,-567.57 1243.98,-569.12 1243.98,-569.12 1243.98,-569.12 1247.36,-567.57 1243.04,-567.08 1248.52,-567.04"/>
</a>
</g>
</g>
<!-- Node5 -->
<g id="Node000005" class="node">
<title>Node5</title>
<g id="a_Node000005"><a xlink:href="../../d3/d55/namespaceanonymous__namespace_02_log_8cpp_03_1_1control.html#adfc01277f4204633f077a8035629f287" target="_top" xlink:title="Updates the runtime maximum&#45;folder&#45;size setting.">
<polygon fill="white" stroke="none" points="371,-107.88 241,-107.88 241,-66.12 371,-66.12 371,-107.88"/>
<text xml:space="preserve" text-anchor="start" x="249" y="-93.42" font-family="Consolas" font-size="11.00">anonymous_namespace</text>
<text xml:space="preserve" text-anchor="start" x="249" y="-82.17" font-family="Consolas" font-size="11.00">{Log::cpp}::control</text>
<text xml:space="preserve" text-anchor="middle" x="306" y="-70.92" font-family="Consolas" font-size="11.00">::setMaxFolderMb</text>
</a>
</g>
</g>
<!-- Node1&#45;&gt;Node5 -->
<g id="edge20_Node000001_Node000005" class="edge">
<title>Node1&#45;&gt;Node5</title>
<g id="a_edge20_Node000001_Node000005"><a xlink:title=" ">
<path fill="none" stroke="#63b8ff" d="M1268.19,-541.78C1256.62,-452.45 1185.08,0 922,0 922,0 922,0 718,0 590.73,0 446,-40.42 366.75,-66.16"/>
<polygon fill="#63b8ff" stroke="#63b8ff" points="1268.79,-546.59 1265.93,-541.91 1268.63,-545.32 1268.17,-541.63 1268.17,-541.63 1268.17,-541.63 1268.63,-545.32 1270.4,-541.35 1268.79,-546.59"/>
</a>
</g>
</g>
<!-- Node9 -->
<g id="Node000009" class="node">
<title>Node9</title>
<g id="a_Node000009"><a xlink:href="../../dc/d68/namespaceanonymous__namespace_02_log_8cpp_03_1_1workers.html#a151b634635a35cd3feb2de126611e850" target="_top" xlink:title="Starts the optional display worker if it is currently inactive.">
<polygon fill="white" stroke="none" points="1158,-889.88 1028,-889.88 1028,-848.12 1158,-848.12 1158,-889.88"/>
<text xml:space="preserve" text-anchor="start" x="1036" y="-875.42" font-family="Consolas" font-size="11.00">anonymous_namespace</text>
<text xml:space="preserve" text-anchor="start" x="1036" y="-864.17" font-family="Consolas" font-size="11.00">{Log::cpp}::workers</text>
<text xml:space="preserve" text-anchor="middle" x="1093" y="-852.92" font-family="Consolas" font-size="11.00">::dispWorkerStart</text>
</a>
</g>
</g>
<!-- Node1&#45;&gt;Node9 -->
<g id="edge9_Node000001_Node000009" class="edge">
<title>Node1&#45;&gt;Node9</title>
<g id="a_edge9_Node000001_Node000009"><a xlink:title=" ">
<path fill="none" stroke="#63b8ff" d="M1261.74,-571.65C1233.24,-622.17 1138.98,-789.26 1105.73,-848.2"/>
<polygon fill="#63b8ff" stroke="#63b8ff" points="1264.13,-567.4 1263.64,-572.86 1263.5,-568.51 1261.68,-571.75 1261.68,-571.75 1261.68,-571.75 1263.5,-568.51 1259.72,-570.65 1264.13,-567.4"/>
</a>
</g>
</g>
<!-- Node13 -->
<g id="Node000013" class="node">
<title>Node13</title>
<g id="a_Node000013"><a xlink:href="../../d3/d55/namespaceanonymous__namespace_02_log_8cpp_03_1_1control.html#a996434c89cac4d2843386149824314dc" target="_top" xlink:title="Debounces persistence of a non&#45;temporary maximum&#45;folder&#45;size change.">
<polygon fill="white" stroke="none" points="588,-107.88 422,-107.88 422,-66.12 588,-66.12 588,-107.88"/>
<text xml:space="preserve" text-anchor="start" x="430" y="-93.42" font-family="Consolas" font-size="11.00">anonymous_namespace</text>
<text xml:space="preserve" text-anchor="start" x="430" y="-82.17" font-family="Consolas" font-size="11.00">{Log::cpp}::control</text>
<text xml:space="preserve" text-anchor="middle" x="505" y="-70.92" font-family="Consolas" font-size="11.00">::scheduleMaxFolderMbSave</text>
</a>
</g>
</g>
<!-- Node1&#45;&gt;Node13 -->
<g id="edge17_Node000001_Node000013" class="edge">
<title>Node1&#45;&gt;Node13</title>
<g id="a_edge17_Node000001_Node000013"><a xlink:title=" ">
<path fill="none" stroke="#63b8ff" d="M1262.52,-542.1C1225.8,-470.87 1056.53,-164.06 814,-57 731.06,-20.39 623.63,-45.08 560.04,-66.16"/>
<polygon fill="#63b8ff" stroke="#63b8ff" points="1264.75,-546.46 1260.47,-543.03 1264.16,-545.32 1262.47,-542.01 1262.47,-542.01 1262.47,-542.01 1264.16,-545.32 1264.47,-540.98 1264.75,-546.46"/>
</a>
</g>
</g>
<!-- Node14 -->
<g id="Node000014" class="node">
<title>Node14</title>
<g id="a_Node000014"><a xlink:href="../../d3/d55/namespaceanonymous__namespace_02_log_8cpp_03_1_1control.html#ac2b824ac899ce94ad3251f16688adfd6" target="_top" xlink:title="Displays a warning message through Qt or the executable fallback.">
<polygon fill="white" stroke="none" points="1158,-577.88 1028,-577.88 1028,-536.12 1158,-536.12 1158,-577.88"/>
<text xml:space="preserve" text-anchor="start" x="1036" y="-563.42" font-family="Consolas" font-size="11.00">anonymous_namespace</text>
<text xml:space="preserve" text-anchor="start" x="1036" y="-552.17" font-family="Consolas" font-size="11.00">{Log::cpp}::control</text>
<text xml:space="preserve" text-anchor="middle" x="1093" y="-540.92" font-family="Consolas" font-size="11.00">::showWarnMsg</text>
</a>
</g>
</g>
<!-- Node1&#45;&gt;Node14 -->
<g id="edge21_Node000001_Node000014" class="edge">
<title>Node1&#45;&gt;Node14</title>
<g id="a_edge21_Node000001_Node000014"><a xlink:title=" ">
<path fill="none" stroke="#63b8ff" d="M1188.11,-557C1177.93,-557 1167.65,-557 1157.81,-557"/>
<polygon fill="#63b8ff" stroke="#63b8ff" points="1192.86,-557 1187.86,-559.25 1191.58,-557 1187.86,-557 1187.86,-557 1187.86,-557 1191.58,-557 1187.86,-554.75 1192.86,-557"/>
</a>
</g>
</g>
<!-- Node3 -->
<g id="Node000003" class="node">
<title>Node3</title>
<g id="a_Node000003"><a xlink:href="../../d5/ddd/namespacenpi_1_1log.html#ac894ac9b7f01f578c3b8696c765fb3aa" target="_top" xlink:title="Changes the directory used for log files.">
<polygon fill="white" stroke="none" points="579,-698.62 431,-698.62 431,-679.38 579,-679.38 579,-698.62"/>
<text xml:space="preserve" text-anchor="middle" x="505" y="-684.17" font-family="Consolas" font-size="11.00">npi::log::setDirectory</text>
</a>
</g>
</g>
<!-- Node2&#45;&gt;Node3 -->
<g id="edge2_Node000002_Node000003" class="edge">
<title>Node2&#45;&gt;Node3</title>
<g id="a_edge2_Node000002_Node000003"><a xlink:title=" ">
<path fill="none" stroke="#63b8ff" d="M648.36,-721.9C614.95,-714.18 576.04,-705.19 547.35,-698.56"/>
<polygon fill="#63b8ff" stroke="#63b8ff" points="652.92,-722.96 647.54,-724.02 651.67,-722.67 648.05,-721.83 648.05,-721.83 648.05,-721.83 651.67,-722.67 648.55,-719.64 652.92,-722.96"/>
</a>
</g>
</g>
<!-- Node2&#45;&gt;Node5 -->
<g id="edge4_Node000002_Node000005" class="edge">
<title>Node2&#45;&gt;Node5</title>
<g id="a_edge4_Node000002_Node000005"><a xlink:title=" ">
<path fill="none" stroke="#63b8ff" d="M648.06,-752.4C581.29,-761.75 482.2,-763.45 422,-708 331.07,-624.24 311.1,-206.2 307.64,-107.78"/>
<polygon fill="#63b8ff" stroke="#63b8ff" points="652.81,-751.71 648.18,-754.66 651.54,-751.9 647.86,-752.43 647.86,-752.43 647.86,-752.43 651.54,-751.9 647.54,-750.2 652.81,-751.71"/>
</a>
</g>
</g>
<!-- Node8 -->
<g id="Node000008" class="node">
<title>Node8</title>
<g id="a_Node000008"><a xlink:href="../../dc/d8e/namespaceanonymous__namespace_02_log_8cpp_03.html#a9dbdeefab4ed0fe490efd90425689d7a" target="_top" xlink:title="Initializes the logging system during process startup.">
<polygon fill="white" stroke="none" points="570,-826.25 440,-826.25 440,-795.75 570,-795.75 570,-826.25"/>
<text xml:space="preserve" text-anchor="start" x="448" y="-811.8" font-family="Consolas" font-size="11.00">anonymous_namespace</text>
<text xml:space="preserve" text-anchor="middle" x="505" y="-800.55" font-family="Consolas" font-size="11.00">{Log::cpp}::startup</text>
</a>
</g>
</g>
<!-- Node2&#45;&gt;Node8 -->
<g id="edge8_Node000002_Node000008" class="edge">
<title>Node2&#45;&gt;Node8</title>
<g id="a_edge8_Node000002_Node000008"><a xlink:title=" ">
<path fill="none" stroke="#63b8ff" d="M651.84,-760.78C618.69,-772.2 579.46,-785.71 550.04,-795.84"/>
<polygon fill="#63b8ff" stroke="#63b8ff" points="656.38,-759.22 652.39,-762.97 655.17,-759.64 651.65,-760.85 651.65,-760.85 651.65,-760.85 655.17,-759.64 650.92,-758.72 656.38,-759.22"/>
</a>
</g>
</g>
<!-- Node4 -->
<g id="Node000004" class="node">
<title>Node4</title>
<g id="a_Node000004"><a xlink:href="../../d5/ddd/namespacenpi_1_1log.html#ab26e1ac5aef4345c9676101f3cd9877f" target="_top" xlink:title="Restores the default log directory.">
<polygon fill="white" stroke="none" points="386,-698.62 226,-698.62 226,-679.38 386,-679.38 386,-698.62"/>
<text xml:space="preserve" text-anchor="middle" x="306" y="-684.17" font-family="Consolas" font-size="11.00">npi::log::resetDirectory</text>
</a>
</g>
</g>
<!-- Node3&#45;&gt;Node4 -->
<g id="edge3_Node000003_Node000004" class="edge">
<title>Node3&#45;&gt;Node4</title>
<g id="a_edge3_Node000003_Node000004"><a xlink:title=" ">
<path fill="none" stroke="#63b8ff" d="M425.27,-689C412.27,-689 398.79,-689 385.79,-689"/>
<polygon fill="#63b8ff" stroke="#63b8ff" points="429.99,-689 424.99,-691.25 428.7,-689 424.99,-689 424.99,-689 424.99,-689 428.7,-689 424.99,-686.75 429.99,-689"/>
</a>
</g>
</g>
<!-- Node5&#45;&gt;Node5 -->
<g id="edge6_Node000005_Node000005" class="edge">
<title>Node5&#45;&gt;Node5</title>
<g id="a_edge6_Node000005_Node000005"><a xlink:title=" ">
<path fill="none" stroke="#63b8ff" d="M342.87,-113.88C340.46,-120.73 328.17,-125.88 306,-125.88 277.63,-125.88 265.44,-117.45 269.43,-107.8"/>
<polygon fill="#63b8ff" stroke="#63b8ff" points="342.63,-109.01 345.12,-113.9 342.7,-110.29 342.88,-114.01 342.88,-114.01 342.88,-114.01 342.7,-110.29 340.63,-114.12 342.63,-109.01"/>
</a>
</g>
</g>
<!-- Node6 -->
<g id="Node000006" class="node">
<title>Node6</title>
<g id="a_Node000006"><a xlink:href="../../d5/ddd/namespacenpi_1_1log.html#a82c9393d9e86743df96071dd5dda1fb6" target="_top" xlink:title="Restores the default maximum log folder size.">
<polygon fill="white" stroke="none" points="175,-124.25 15,-124.25 15,-93.75 175,-93.75 175,-124.25"/>
<text xml:space="preserve" text-anchor="start" x="23" y="-109.8" font-family="Consolas" font-size="11.00">npi::log::resetMaxFolder</text>
<text xml:space="preserve" text-anchor="middle" x="95" y="-98.55" font-family="Consolas" font-size="11.00">SizeMib</text>
</a>
</g>
</g>
<!-- Node5&#45;&gt;Node6 -->
<g id="edge5_Node000005_Node000006" class="edge">
<title>Node5&#45;&gt;Node6</title>
<g id="a_edge5_Node000005_Node000006"><a xlink:title=" ">
<path fill="none" stroke="#63b8ff" d="M235.22,-94.35C215.89,-96.38 194.76,-98.6 174.95,-100.69"/>
<polygon fill="#63b8ff" stroke="#63b8ff" points="239.95,-93.85 235.21,-96.61 238.67,-93.98 234.97,-94.37 234.97,-94.37 234.97,-94.37 238.67,-93.98 234.74,-92.13 239.95,-93.85"/>
</a>
</g>
</g>
<!-- Node7 -->
<g id="Node000007" class="node">
<title>Node7</title>
<g id="a_Node000007"><a xlink:href="../../d5/ddd/namespacenpi_1_1log.html#a44c3ab1ead08f699085787d44d37ae11" target="_top" xlink:title="Changes the normal&#45;log cleanup target.">
<polygon fill="white" stroke="none" points="190,-75.62 0,-75.62 0,-56.38 190,-56.38 190,-75.62"/>
<text xml:space="preserve" text-anchor="middle" x="95" y="-61.17" font-family="Consolas" font-size="11.00">npi::log::setMaxFolderSizeMib</text>
</a>
</g>
</g>
<!-- Node5&#45;&gt;Node7 -->
<g id="edge7_Node000005_Node000007" class="edge">
<title>Node5&#45;&gt;Node7</title>
<g id="a_edge7_Node000005_Node000007"><a xlink:title=" ">
<path fill="none" stroke="#63b8ff" d="M235.01,-79.97C220.52,-78.51 205.03,-76.96 189.84,-75.43"/>
<polygon fill="#63b8ff" stroke="#63b8ff" points="239.95,-80.46 234.75,-82.2 238.67,-80.34 234.97,-79.96 234.97,-79.96 234.97,-79.96 238.67,-80.34 235.2,-77.72 239.95,-80.46"/>
</a>
</g>
</g>
<!-- Node9&#45;&gt;Node8 -->
<g id="edge16_Node000009_Node000008" class="edge">
<title>Node9&#45;&gt;Node8</title>
<g id="a_edge16_Node000009_Node000008"><a xlink:title=" ">
<path fill="none" stroke="#63b8ff" d="M1049.52,-892.35C1032.21,-900.6 1011.68,-908.86 992,-913 831.45,-946.76 778.63,-938.84 624,-884 585.86,-870.47 546.96,-843.26 524.72,-826.15"/>
<polygon fill="#63b8ff" stroke="#63b8ff" points="1053.68,-890.32 1050.17,-894.53 1052.53,-890.88 1049.19,-892.51 1049.19,-892.51 1049.19,-892.51 1052.53,-890.88 1048.2,-890.49 1053.68,-890.32"/>
</a>
</g>
</g>
<!-- Node10 -->
<g id="Node000010" class="node">
<title>Node10</title>
<g id="a_Node000010"><a xlink:href="../../dc/d68/namespaceanonymous__namespace_02_log_8cpp_03_1_1workers.html#ad9a9c0c17f8f330fc36da938d8494920" target="_top" xlink:title="Starts the primary file worker if it is currently inactive.">
<polygon fill="white" stroke="none" points="986,-865.88 856,-865.88 856,-824.12 986,-824.12 986,-865.88"/>
<text xml:space="preserve" text-anchor="start" x="864" y="-851.42" font-family="Consolas" font-size="11.00">anonymous_namespace</text>
<text xml:space="preserve" text-anchor="start" x="864" y="-840.17" font-family="Consolas" font-size="11.00">{Log::cpp}::workers</text>
<text xml:space="preserve" text-anchor="middle" x="921" y="-828.92" font-family="Consolas" font-size="11.00">::fileWorkerStart</text>
</a>
</g>
</g>
<!-- Node9&#45;&gt;Node10 -->
<g id="edge10_Node000009_Node000010" class="edge">
<title>Node9&#45;&gt;Node10</title>
<g id="a_edge10_Node000009_Node000010"><a xlink:title=" ">
<path fill="none" stroke="#63b8ff" d="M1022.33,-859.16C1010.26,-857.46 997.76,-855.7 985.86,-854.02"/>
<polygon fill="#63b8ff" stroke="#63b8ff" points="1027.01,-859.82 1021.74,-861.35 1025.74,-859.65 1022.06,-859.13 1022.06,-859.13 1022.06,-859.13 1025.74,-859.65 1022.37,-856.9 1027.01,-859.82"/>
</a>
</g>
</g>
<!-- Node12 -->
<g id="Node000012" class="node">
<title>Node12</title>
<g id="a_Node000012"><a xlink:href="../../d5/ddd/namespacenpi_1_1log.html#a35a969078b211913c70a3289d579181f" target="_top" xlink:title="Opens a temporary console when no console is currently attached.">
<polygon fill="white" stroke="none" points="992,-903.62 850,-903.62 850,-884.38 992,-884.38 992,-903.62"/>
<text xml:space="preserve" text-anchor="middle" x="921" y="-889.17" font-family="Consolas" font-size="11.00">npi::log::openConsole</text>
</a>
</g>
</g>
<!-- Node9&#45;&gt;Node12 -->
<g id="edge15_Node000009_Node000012" class="edge">
<title>Node9&#45;&gt;Node12</title>
<g id="a_edge15_Node000009_Node000012"><a xlink:title=" ">
<path fill="none" stroke="#63b8ff" d="M1022.21,-879.26C1010.66,-880.96 998.71,-882.72 987.28,-884.4"/>
<polygon fill="#63b8ff" stroke="#63b8ff" points="1027.01,-878.56 1022.39,-881.51 1025.74,-878.74 1022.06,-879.29 1022.06,-879.29 1022.06,-879.29 1025.74,-878.74 1021.73,-877.06 1027.01,-878.56"/>
</a>
</g>
</g>
<!-- Node11 -->
<g id="Node000011" class="node">
<title>Node11</title>
<g id="a_Node000011"><a xlink:href="../../d3/d55/namespaceanonymous__namespace_02_log_8cpp_03_1_1control.html#a21d28d4dc1e0f827575b17f576af195a" target="_top" xlink:title="Transitions both normal and important logging to a new directory.">
<polygon fill="white" stroke="none" points="784,-856.88 654,-856.88 654,-815.12 784,-815.12 784,-856.88"/>
<text xml:space="preserve" text-anchor="start" x="662" y="-842.42" font-family="Consolas" font-size="11.00">anonymous_namespace</text>
<text xml:space="preserve" text-anchor="start" x="662" y="-831.17" font-family="Consolas" font-size="11.00">{Log::cpp}::control</text>
<text xml:space="preserve" text-anchor="middle" x="719" y="-819.92" font-family="Consolas" font-size="11.00">::useDirectory</text>
</a>
</g>
</g>
<!-- Node10&#45;&gt;Node11 -->
<g id="edge11_Node000010_Node000011" class="edge">
<title>Node10&#45;&gt;Node11</title>
<g id="a_edge11_Node000010_Node000011"><a xlink:title=" ">
<path fill="none" stroke="#63b8ff" d="M850.15,-841.86C828.62,-840.89 805.02,-839.83 783.91,-838.88"/>
<polygon fill="#63b8ff" stroke="#63b8ff" points="854.95,-842.07 849.86,-844.1 853.67,-842.02 849.96,-841.85 849.96,-841.85 849.96,-841.85 853.67,-842.02 850.06,-839.6 854.95,-842.07"/>
</a>
</g>
</g>
<!-- Node11&#45;&gt;Node3 -->
<g id="edge12_Node000011_Node000003" class="edge">
<title>Node11&#45;&gt;Node3</title>
<g id="a_edge12_Node000011_Node000003"><a xlink:title=" ">
<path fill="none" stroke="#63b8ff" d="M683.01,-811.74C635.39,-778.72 552.35,-721.14 519.72,-698.51"/>
<polygon fill="#63b8ff" stroke="#63b8ff" points="687.07,-814.56 681.68,-813.56 686.02,-813.83 682.97,-811.71 682.97,-811.71 682.97,-811.71 686.02,-813.83 684.25,-809.86 687.07,-814.56"/>
</a>
</g>
</g>
<!-- Node11&#45;&gt;Node8 -->
<g id="edge13_Node000011_Node000008" class="edge">
<title>Node11&#45;&gt;Node8</title>
<g id="a_edge13_Node000011_Node000008"><a xlink:title=" ">
<path fill="none" stroke="#63b8ff" d="M648.09,-827.76C622.83,-824.78 594.47,-821.43 569.76,-818.52"/>
<polygon fill="#63b8ff" stroke="#63b8ff" points="652.9,-828.32 647.67,-829.97 651.62,-828.17 647.93,-827.74 647.93,-827.74 647.93,-827.74 651.62,-828.17 648.19,-825.5 652.9,-828.32"/>
</a>
</g>
</g>
<!-- Node11&#45;&gt;Node11 -->
<g id="edge14_Node000011_Node000011" class="edge">
<title>Node11&#45;&gt;Node11</title>
<g id="a_edge14_Node000011_Node000011"><a xlink:title=" ">
<path fill="none" stroke="#63b8ff" d="M756.43,-862.88C753.98,-869.73 741.5,-874.88 719,-874.88 690.2,-874.88 677.82,-866.45 681.87,-856.8"/>
<polygon fill="#63b8ff" stroke="#63b8ff" points="756.19,-858.01 758.68,-862.9 756.25,-859.29 756.43,-863.01 756.43,-863.01 756.43,-863.01 756.25,-859.29 754.19,-863.12 756.19,-858.01"/>
</a>
</g>
</g>
<!-- Node13&#45;&gt;Node5 -->
<g id="edge19_Node000013_Node000005" class="edge">
<title>Node13&#45;&gt;Node5</title>
<g id="a_edge19_Node000013_Node000005"><a xlink:title=" ">
<path fill="none" stroke="#63b8ff" d="M416.12,-87C400.88,-87 385.31,-87 370.86,-87"/>
<polygon fill="#63b8ff" stroke="#63b8ff" points="420.95,-87 415.95,-89.25 419.67,-87 415.95,-87 415.95,-87 415.95,-87 419.67,-87 415.95,-84.75 420.95,-87"/>
</a>
</g>
</g>
<!-- Node13&#45;&gt;Node13 -->
<g id="edge18_Node000013_Node000013" class="edge">
<title>Node13&#45;&gt;Node13</title>
<g id="a_edge18_Node000013_Node000013"><a xlink:title=" ">
<path fill="none" stroke="#63b8ff" d="M541.87,-113.88C539.46,-120.73 527.17,-125.88 505,-125.88 476.63,-125.88 464.44,-117.45 468.43,-107.8"/>
<polygon fill="#63b8ff" stroke="#63b8ff" points="541.63,-109.01 544.12,-113.9 541.7,-110.29 541.88,-114.01 541.88,-114.01 541.88,-114.01 541.7,-110.29 539.63,-114.12 541.63,-109.01"/>
</a>
</g>
</g>
<!-- Node14&#45;&gt;Node3 -->
<g id="edge55_Node000014_Node000003" class="edge">
<title>Node14&#45;&gt;Node3</title>
<g id="a_edge55_Node000014_Node000003"><a xlink:title=" ">
<path fill="none" stroke="#63b8ff" d="M1047.43,-580.42C993.72,-607.37 899.95,-650.43 814,-670 734.99,-687.99 641.83,-691.35 578.82,-691.09"/>
<polygon fill="#63b8ff" stroke="#63b8ff" points="1051.73,-578.25 1048.28,-582.51 1050.59,-578.83 1047.27,-580.5 1047.27,-580.5 1047.27,-580.5 1050.59,-578.83 1046.25,-578.49 1051.73,-578.25"/>
</a>
</g>
</g>
<!-- Node14&#45;&gt;Node14 -->
<g id="edge56_Node000014_Node000014" class="edge">
<title>Node14&#45;&gt;Node14</title>
<g id="a_edge56_Node000014_Node000014"><a xlink:title=" ">
<path fill="none" stroke="#63b8ff" d="M1124.87,-583.88C1122.78,-590.73 1112.16,-595.88 1093,-595.88 1068.48,-595.88 1057.94,-587.45 1061.39,-577.8"/>
<polygon fill="#63b8ff" stroke="#63b8ff" points="1124.66,-579.01 1127.12,-583.92 1124.72,-580.3 1124.87,-584.01 1124.87,-584.01 1124.87,-584.01 1124.72,-580.3 1122.63,-584.1 1124.66,-579.01"/>
</a>
</g>
</g>
<!-- Node15 -->
<g id="Node000015" class="node">
<title>Node15</title>
<g id="a_Node000015"><a xlink:href="../../d3/d55/namespaceanonymous__namespace_02_log_8cpp_03_1_1control.html#a49f23e2414522446fe0dffc4154b6794" target="_top" xlink:title="Loads and validates the complete persisted logging configuration.">
<polygon fill="white" stroke="none" points="986,-787.88 856,-787.88 856,-746.12 986,-746.12 986,-787.88"/>
<text xml:space="preserve" text-anchor="start" x="864" y="-773.42" font-family="Consolas" font-size="11.00">anonymous_namespace</text>
<text xml:space="preserve" text-anchor="start" x="864" y="-762.17" font-family="Consolas" font-size="11.00">{Log::cpp}::control</text>
<text xml:space="preserve" text-anchor="middle" x="921" y="-750.92" font-family="Consolas" font-size="11.00">::loadAllSettings</text>
</a>
</g>
</g>
<!-- Node14&#45;&gt;Node15 -->
<g id="edge22_Node000014_Node000015" class="edge">
<title>Node14&#45;&gt;Node15</title>
<g id="a_edge22_Node000014_Node000015"><a xlink:title=" ">
<path fill="none" stroke="#63b8ff" d="M1074.82,-582.64C1055.63,-610.75 1023.16,-656.82 992,-694 976.55,-712.44 957.59,-732.05 943.3,-746.3"/>
<polygon fill="#63b8ff" stroke="#63b8ff" points="1077.56,-578.61 1076.6,-584.01 1076.84,-579.67 1074.74,-582.75 1074.74,-582.75 1074.74,-582.75 1076.84,-579.67 1072.88,-581.48 1077.56,-578.61"/>
</a>
</g>
</g>
<!-- Node16 -->
<g id="Node000016" class="node">
<title>Node16</title>
<g id="a_Node000016"><a xlink:href="../../d3/d55/namespaceanonymous__namespace_02_log_8cpp_03_1_1control.html#aaa3ef86b0bde2d695263c99035301b1c" target="_top" xlink:title="Removes one persistent logging setting under the cross&#45;process lock.">
<polygon fill="white" stroke="none" points="986,-465.88 856,-465.88 856,-424.12 986,-424.12 986,-465.88"/>
<text xml:space="preserve" text-anchor="start" x="864" y="-451.43" font-family="Consolas" font-size="11.00">anonymous_namespace</text>
<text xml:space="preserve" text-anchor="start" x="864" y="-440.18" font-family="Consolas" font-size="11.00">{Log::cpp}::control</text>
<text xml:space="preserve" text-anchor="middle" x="921" y="-428.93" font-family="Consolas" font-size="11.00">::removeSettings</text>
</a>
</g>
</g>
<!-- Node14&#45;&gt;Node16 -->
<g id="edge25_Node000014_Node000016" class="edge">
<title>Node14&#45;&gt;Node16</title>
<g id="a_edge25_Node000014_Node000016"><a xlink:title=" ">
<path fill="none" stroke="#63b8ff" d="M1055.28,-532.81C1024.9,-512.79 982.22,-484.67 953.41,-465.69"/>
<polygon fill="#63b8ff" stroke="#63b8ff" points="1059.41,-535.53 1053.99,-534.65 1058.34,-534.82 1055.23,-532.77 1055.23,-532.77 1055.23,-532.77 1058.34,-534.82 1056.47,-530.9 1059.41,-535.53"/>
</a>
</g>
</g>
<!-- Node29 -->
<g id="Node000029" class="node">
<title>Node29</title>
<g id="a_Node000029"><a xlink:href="../../d3/d55/namespaceanonymous__namespace_02_log_8cpp_03_1_1control.html#a07969a1c7e4498118828e463456c5d1e" target="_top" xlink:title="Writes one persistent logging setting under the cross&#45;process lock.">
<polygon fill="white" stroke="none" points="986,-354.88 856,-354.88 856,-313.12 986,-313.12 986,-354.88"/>
<text xml:space="preserve" text-anchor="start" x="864" y="-340.43" font-family="Consolas" font-size="11.00">anonymous_namespace</text>
<text xml:space="preserve" text-anchor="start" x="864" y="-329.18" font-family="Consolas" font-size="11.00">{Log::cpp}::control</text>
<text xml:space="preserve" text-anchor="middle" x="921" y="-317.93" font-family="Consolas" font-size="11.00">::saveSettings</text>
</a>
</g>
</g>
<!-- Node14&#45;&gt;Node29 -->
<g id="edge42_Node000014_Node000029" class="edge">
<title>Node14&#45;&gt;Node29</title>
<g id="a_edge42_Node000014_Node000029"><a xlink:title=" ">
<path fill="none" stroke="#63b8ff" d="M1074.93,-531.15C1055.59,-502.26 1022.75,-454.37 992,-415 975.52,-393.91 955.44,-370.92 941.01,-354.83"/>
<polygon fill="#63b8ff" stroke="#63b8ff" points="1077.7,-535.3 1073.05,-532.4 1076.99,-534.24 1074.92,-531.15 1074.92,-531.15 1074.92,-531.15 1076.99,-534.24 1076.79,-529.9 1077.7,-535.3"/>
</a>
</g>
</g>
<!-- Node15&#45;&gt;Node8 -->
<g id="edge24_Node000015_Node000008" class="edge">
<title>Node15&#45;&gt;Node8</title>
<g id="a_edge24_Node000015_Node000008"><a xlink:title=" ">
<path fill="none" stroke="#63b8ff" d="M850.19,-774.42C771.82,-782.75 645.71,-796.15 569.85,-804.21"/>
<polygon fill="#63b8ff" stroke="#63b8ff" points="855.01,-773.91 850.27,-776.67 853.73,-774.04 850.04,-774.44 850.04,-774.44 850.04,-774.44 853.73,-774.04 849.8,-772.2 855.01,-773.91"/>
</a>
</g>
</g>
<!-- Node15&#45;&gt;Node15 -->
<g id="edge23_Node000015_Node000015" class="edge">
<title>Node15&#45;&gt;Node15</title>
<g id="a_edge23_Node000015_Node000015"><a xlink:title=" ">
<path fill="none" stroke="#63b8ff" d="M952.87,-793.88C950.78,-800.73 940.16,-805.88 921,-805.88 896.48,-805.88 885.94,-797.45 889.39,-787.8"/>
<polygon fill="#63b8ff" stroke="#63b8ff" points="952.66,-789.01 955.12,-793.92 952.72,-790.3 952.87,-794.01 952.87,-794.01 952.87,-794.01 952.72,-790.3 950.63,-794.1 952.66,-789.01"/>
</a>
</g>
</g>
<!-- Node16&#45;&gt;Node3 -->
<g id="edge34_Node000016_Node000003" class="edge">
<title>Node16&#45;&gt;Node3</title>
<g id="a_edge34_Node000016_Node000003"><a xlink:title=" ">
<path fill="none" stroke="#63b8ff" d="M892.2,-469.63C871.89,-486.32 842.94,-507.54 814,-520 734.9,-554.06 698.84,-515.4 624,-558 569.2,-589.19 526.19,-655.01 511.47,-679.53"/>
<polygon fill="#63b8ff" stroke="#63b8ff" points="895.97,-466.49 893.57,-471.41 894.99,-467.31 892.13,-469.68 892.13,-469.68 892.13,-469.68 894.99,-467.31 890.69,-467.95 895.97,-466.49"/>
</a>
</g>
</g>
<!-- Node16&#45;&gt;Node16 -->
<g id="edge26_Node000016_Node000016" class="edge">
<title>Node16&#45;&gt;Node16</title>
<g id="a_edge26_Node000016_Node000016"><a xlink:title=" ">
<path fill="none" stroke="#63b8ff" d="M952.87,-471.88C950.78,-478.73 940.16,-483.88 921,-483.88 896.48,-483.88 885.94,-475.45 889.39,-465.8"/>
<polygon fill="#63b8ff" stroke="#63b8ff" points="952.66,-467.01 955.12,-471.92 952.72,-468.3 952.87,-472.01 952.87,-472.01 952.87,-472.01 952.72,-468.3 950.63,-472.1 952.66,-467.01"/>
</a>
</g>
</g>
<!-- Node17 -->
<g id="Node000017" class="node">
<title>Node17</title>
<g id="a_Node000017"><a xlink:href="../../d5/ddd/namespacenpi_1_1log.html#ae641f0801f76d9024013c1d201b7d4fa" target="_top" xlink:title="Restores the default displayed log fields.">
<polygon fill="white" stroke="none" points="811,-623.62 627,-623.62 627,-604.38 811,-604.38 811,-623.62"/>
<text xml:space="preserve" text-anchor="middle" x="719" y="-609.17" font-family="Consolas" font-size="11.00">npi::log::resetDisplayFields</text>
</a>
</g>
</g>
<!-- Node16&#45;&gt;Node17 -->
<g id="edge27_Node000016_Node000017" class="edge">
<title>Node16&#45;&gt;Node17</title>
<g id="a_edge27_Node000016_Node000017"><a xlink:title=" ">
<path fill="none" stroke="#63b8ff" d="M909.31,-471.01C893.72,-505.44 861.36,-565.38 814,-596 808.7,-599.43 802.9,-602.24 796.87,-604.53"/>
<polygon fill="#63b8ff" stroke="#63b8ff" points="911.17,-466.82 911.19,-472.3 910.65,-467.99 909.14,-471.39 909.14,-471.39 909.14,-471.39 910.65,-467.99 907.08,-470.48 911.17,-466.82"/>
</a>
</g>
</g>
<!-- Node18 -->
<g id="Node000018" class="node">
<title>Node18</title>
<g id="a_Node000018"><a xlink:href="../../d5/ddd/namespacenpi_1_1log.html#a015e6cf2735c059ebad3d94c4f69d884" target="_top" xlink:title="Restores the default normal log file fields.">
<polygon fill="white" stroke="none" points="802,-586.62 636,-586.62 636,-567.38 802,-567.38 802,-586.62"/>
<text xml:space="preserve" text-anchor="middle" x="719" y="-572.17" font-family="Consolas" font-size="11.00">npi::log::resetFileFields</text>
</a>
</g>
</g>
<!-- Node16&#45;&gt;Node18 -->
<g id="edge28_Node000016_Node000018" class="edge">
<title>Node16&#45;&gt;Node18</title>
<g id="a_edge28_Node000016_Node000018"><a xlink:title=" ">
<path fill="none" stroke="#63b8ff" d="M901.61,-470.61C882.48,-495.37 850.29,-532.11 814,-553 803.05,-559.3 790.45,-563.97 778.11,-567.42"/>
<polygon fill="#63b8ff" stroke="#63b8ff" points="904.52,-466.8 903.27,-472.14 903.74,-467.82 901.48,-470.78 901.48,-470.78 901.48,-470.78 903.74,-467.82 899.69,-469.41 904.52,-466.8"/>
</a>
</g>
</g>
<!-- Node19 -->
<g id="Node000019" class="node">
<title>Node19</title>
<g id="a_Node000019"><a xlink:href="../../d5/ddd/namespacenpi_1_1log.html#a4a5b29dcb269f47a4ef69ee7fe39bfb6" target="_top" xlink:title="Removes all custom category filter rules.">
<polygon fill="white" stroke="none" points="805,-660.62 633,-660.62 633,-641.38 805,-641.38 805,-660.62"/>
<text xml:space="preserve" text-anchor="middle" x="719" y="-646.17" font-family="Consolas" font-size="11.00">npi::log::resetFilterRules</text>
</a>
</g>
</g>
<!-- Node16&#45;&gt;Node19 -->
<g id="edge29_Node000016_Node000019" class="edge">
<title>Node16&#45;&gt;Node19</title>
<g id="a_edge29_Node000016_Node000019"><a xlink:title=" ">
<path fill="none" stroke="#63b8ff" d="M912.93,-471.41C900.39,-512.87 870.11,-592.66 814,-633 809.28,-636.39 804.09,-639.2 798.65,-641.51"/>
<polygon fill="#63b8ff" stroke="#63b8ff" points="914.31,-466.75 915.05,-472.18 913.95,-467.98 912.89,-471.54 912.89,-471.54 912.89,-471.54 913.95,-467.98 910.74,-470.9 914.31,-466.75"/>
</a>
</g>
</g>
<!-- Node20 -->
<g id="Node000020" class="node">
<title>Node20</title>
<g id="a_Node000020"><a xlink:href="../../d3/d55/namespaceanonymous__namespace_02_log_8cpp_03_1_1control.html#a0938589db255e4657d8917ad5958f388" target="_top" xlink:title="Persists the most recently scheduled maximum&#45;folder&#45;size value.">
<polygon fill="white" stroke="none" points="814,-145.88 624,-145.88 624,-104.12 814,-104.12 814,-145.88"/>
<text xml:space="preserve" text-anchor="start" x="632" y="-131.43" font-family="Consolas" font-size="11.00">anonymous_namespace</text>
<text xml:space="preserve" text-anchor="start" x="632" y="-120.17" font-family="Consolas" font-size="11.00">{Log::cpp}::control</text>
<text xml:space="preserve" text-anchor="middle" x="719" y="-108.92" font-family="Consolas" font-size="11.00">::saveMaxFolderMbPendingValue</text>
</a>
</g>
</g>
<!-- Node16&#45;&gt;Node20 -->
<g id="edge30_Node000016_Node000020" class="edge">
<title>Node16&#45;&gt;Node20</title>
<g id="a_edge30_Node000016_Node000020"><a xlink:title=" ">
<path fill="none" stroke="#63b8ff" d="M884.65,-420.65C871.91,-410.17 858.58,-396.89 850,-382 811.22,-314.71 852.5,-278.45 814,-211 798.76,-184.3 772.36,-161.24 751.41,-145.74"/>
<polygon fill="#63b8ff" stroke="#63b8ff" points="888.35,-423.63 883.04,-422.25 887.35,-422.82 884.45,-420.5 884.45,-420.5 884.45,-420.5 887.35,-422.82 885.86,-418.74 888.35,-423.63"/>
</a>
</g>
</g>
<!-- Node21 -->
<g id="Node000021" class="node">
<title>Node21</title>
<g id="a_Node000021"><a xlink:href="../../d5/ddd/namespacenpi_1_1log.html#af093553629bec17031b18b4835c2fbb2" target="_top" xlink:title="Enables or disables console colors based on log level.">
<polygon fill="white" stroke="none" points="808,-239.62 630,-239.62 630,-220.38 808,-220.38 808,-239.62"/>
<text xml:space="preserve" text-anchor="middle" x="719" y="-225.18" font-family="Consolas" font-size="11.00">npi::log::setColoredConsole</text>
</a>
</g>
</g>
<!-- Node16&#45;&gt;Node21 -->
<g id="edge33_Node000016_Node000021" class="edge">
<title>Node16&#45;&gt;Node21</title>
<g id="a_edge33_Node000016_Node000021"><a xlink:title=" ">
<path fill="none" stroke="#63b8ff" d="M885.09,-420.39C872.41,-409.88 859,-396.64 850,-382 817.93,-329.83 858.68,-290.87 814,-249 809.99,-245.24 805.45,-242.14 800.59,-239.58"/>
<polygon fill="#63b8ff" stroke="#63b8ff" points="888.77,-423.38 883.47,-421.98 887.77,-422.57 884.88,-420.23 884.88,-420.23 884.88,-420.23 887.77,-422.57 886.3,-418.48 888.77,-423.38"/>
</a>
</g>
</g>
<!-- Node22 -->
<g id="Node000022" class="node">
<title>Node22</title>
<g id="a_Node000022"><a xlink:href="../../d5/ddd/namespacenpi_1_1log.html#a1c8be170c09e71630d3e61964c5681dc" target="_top" xlink:title="Changes the fields included in displayed logs.">
<polygon fill="white" stroke="none" points="805,-510.62 633,-510.62 633,-491.38 805,-491.38 805,-510.62"/>
<text xml:space="preserve" text-anchor="middle" x="719" y="-496.18" font-family="Consolas" font-size="11.00">npi::log::setDisplayFields</text>
</a>
</g>
</g>
<!-- Node16&#45;&gt;Node22 -->
<g id="edge35_Node000016_Node000022" class="edge">
<title>Node16&#45;&gt;Node22</title>
<g id="a_edge35_Node000016_Node000022"><a xlink:title=" ">
<path fill="none" stroke="#63b8ff" d="M861.3,-467.87C846.05,-473.31 829.54,-478.76 814,-483 802.3,-486.2 789.63,-489.03 777.49,-491.46"/>
<polygon fill="#63b8ff" stroke="#63b8ff" points="865.72,-466.28 861.77,-470.09 864.51,-466.72 861.01,-467.98 861.01,-467.98 861.01,-467.98 864.51,-466.72 860.25,-465.86 865.72,-466.28"/>
</a>
</g>
</g>
<!-- Node23 -->
<g id="Node000023" class="node">
<title>Node23</title>
<g id="a_Node000023"><a xlink:href="../../d5/ddd/namespacenpi_1_1log.html#a314e1bbd60d0d23d037fdb863ad706fd" target="_top" xlink:title="Changes the fields included in normal log files.">
<polygon fill="white" stroke="none" points="796,-473.62 642,-473.62 642,-454.38 796,-454.38 796,-473.62"/>
<text xml:space="preserve" text-anchor="middle" x="719" y="-459.18" font-family="Consolas" font-size="11.00">npi::log::setFileFields</text>
</a>
</g>
</g>
<!-- Node16&#45;&gt;Node23 -->
<g id="edge36_Node000016_Node000023" class="edge">
<title>Node16&#45;&gt;Node23</title>
<g id="a_edge36_Node000016_Node000023"><a xlink:title=" ">
<path fill="none" stroke="#63b8ff" d="M850.26,-451.63C832.66,-453.3 813.68,-455.1 795.8,-456.8"/>
<polygon fill="#63b8ff" stroke="#63b8ff" points="854.96,-451.18 850.19,-453.89 853.68,-451.3 849.98,-451.65 849.98,-451.65 849.98,-451.65 853.68,-451.3 849.77,-449.41 854.96,-451.18"/>
</a>
</g>
</g>
<!-- Node24 -->
<g id="Node000024" class="node">
<title>Node24</title>
<g id="a_Node000024"><a xlink:href="../../d5/ddd/namespacenpi_1_1log.html#a204797419f5e1681a159d1eef6f401bc" target="_top" xlink:title="Changes the custom Qt logging category filter rules.">
<polygon fill="white" stroke="none" points="799,-436.62 639,-436.62 639,-417.38 799,-417.38 799,-436.62"/>
<text xml:space="preserve" text-anchor="middle" x="719" y="-422.18" font-family="Consolas" font-size="11.00">npi::log::setFilterRules</text>
</a>
</g>
</g>
<!-- Node16&#45;&gt;Node24 -->
<g id="edge37_Node000016_Node000024" class="edge">
<title>Node16&#45;&gt;Node24</title>
<g id="a_edge37_Node000016_Node000024"><a xlink:title=" ">
<path fill="none" stroke="#63b8ff" d="M850.1,-438.71C833.48,-437.21 815.64,-435.61 798.65,-434.08"/>
<polygon fill="#63b8ff" stroke="#63b8ff" points="854.96,-439.15 849.77,-440.94 853.68,-439.03 849.98,-438.7 849.98,-438.7 849.98,-438.7 853.68,-439.03 850.18,-436.46 854.96,-439.15"/>
</a>
</g>
</g>
<!-- Node25 -->
<g id="Node000025" class="node">
<title>Node25</title>
<g id="a_Node000025"><a xlink:href="../../d5/ddd/namespacenpi_1_1log.html#a7cef00f1da1eed6bc0afca56fe9cfb0e" target="_top" xlink:title="Enables or disables debug log display.">
<polygon fill="white" stroke="none" points="802,-399.62 636,-399.62 636,-380.38 802,-380.38 802,-399.62"/>
<text xml:space="preserve" text-anchor="middle" x="719" y="-385.18" font-family="Consolas" font-size="11.00">npi::log::setShowDebugLog</text>
</a>
</g>
</g>
<!-- Node16&#45;&gt;Node25 -->
<g id="edge38_Node000016_Node000025" class="edge">
<title>Node16&#45;&gt;Node25</title>
<g id="a_edge38_Node000016_Node000025"><a xlink:title=" ">
<path fill="none" stroke="#63b8ff" d="M859.39,-422.13C844.66,-417.05 828.87,-412 814,-408 802.29,-404.85 789.61,-402.04 777.47,-399.62"/>
<polygon fill="#63b8ff" stroke="#63b8ff" points="864.04,-423.75 858.58,-424.23 862.83,-423.33 859.32,-422.1 859.32,-422.1 859.32,-422.1 862.83,-423.33 860.06,-419.98 864.04,-423.75"/>
</a>
</g>
</g>
<!-- Node26 -->
<g id="Node000026" class="node">
<title>Node26</title>
<g id="a_Node000026"><a xlink:href="../../d5/ddd/namespacenpi_1_1log.html#a462603ec8bccd8b4cb3abc387fd6cc33" target="_top" xlink:title="Enables or disables information log display.">
<polygon fill="white" stroke="none" points="799,-362.62 639,-362.62 639,-343.38 799,-343.38 799,-362.62"/>
<text xml:space="preserve" text-anchor="middle" x="719" y="-348.18" font-family="Consolas" font-size="11.00">npi::log::setShowInfoLog</text>
</a>
</g>
</g>
<!-- Node16&#45;&gt;Node26 -->
<g id="edge39_Node000016_Node000026" class="edge">
<title>Node16&#45;&gt;Node26</title>
<g id="a_edge39_Node000016_Node000026"><a xlink:title=" ">
<path fill="none" stroke="#63b8ff" d="M891.77,-420.31C871.47,-403.86 842.71,-383.12 814,-371 805.89,-367.58 797.1,-364.8 788.28,-362.55"/>
<polygon fill="#63b8ff" stroke="#63b8ff" points="895.54,-423.4 890.25,-421.97 894.55,-422.59 891.67,-420.23 891.67,-420.23 891.67,-420.23 894.55,-422.59 893.1,-418.49 895.54,-423.4"/>
</a>
</g>
</g>
<!-- Node27 -->
<g id="Node000027" class="node">
<title>Node27</title>
<g id="a_Node000027"><a xlink:href="../../d5/ddd/namespacenpi_1_1log.html#aa8f2d23ad1c757d005b28864d17b6ba7" target="_top" xlink:title="Enables or disables warning log display.">
<polygon fill="white" stroke="none" points="799,-325.62 639,-325.62 639,-306.38 799,-306.38 799,-325.62"/>
<text xml:space="preserve" text-anchor="middle" x="719" y="-311.18" font-family="Consolas" font-size="11.00">npi::log::setShowWarnLog</text>
</a>
</g>
</g>
<!-- Node16&#45;&gt;Node27 -->
<g id="edge40_Node000016_Node000027" class="edge">
<title>Node16&#45;&gt;Node27</title>
<g id="a_edge40_Node000016_Node000027"><a xlink:title=" ">
<path fill="none" stroke="#63b8ff" d="M889.97,-420.25C877.12,-409.1 862.28,-395.43 850,-382 832,-362.32 836.62,-348.13 814,-334 808.5,-330.57 802.5,-327.76 796.27,-325.47"/>
<polygon fill="#63b8ff" stroke="#63b8ff" points="893.68,-423.45 888.42,-421.89 892.71,-422.61 889.89,-420.18 889.89,-420.18 889.89,-420.18 892.71,-422.61 891.36,-418.48 893.68,-423.45"/>
</a>
</g>
</g>
<!-- Node28 -->
<g id="Node000028" class="node">
<title>Node28</title>
<g id="a_Node000028"><a xlink:href="../../d5/ddd/namespacenpi_1_1log.html#a780d5155d9059b348224270ef35f1af1" target="_top" xlink:title="Enables or disables important&#45;log forwarding for warning logs.">
<polygon fill="white" stroke="none" points="814,-288.25 624,-288.25 624,-257.75 814,-257.75 814,-288.25"/>
<text xml:space="preserve" text-anchor="start" x="632" y="-273.8" font-family="Consolas" font-size="11.00">npi::log::setWarnLogImportant</text>
<text xml:space="preserve" text-anchor="middle" x="719" y="-262.55" font-family="Consolas" font-size="11.00">State</text>
</a>
</g>
</g>
<!-- Node16&#45;&gt;Node28 -->
<g id="edge41_Node000016_Node000028" class="edge">
<title>Node16&#45;&gt;Node28</title>
<g id="a_edge41_Node000016_Node000028"><a xlink:title=" ">
<path fill="none" stroke="#63b8ff" d="M887.06,-420.52C874.25,-409.78 860.23,-396.35 850,-382 826.19,-348.59 845.11,-323.74 814,-297 810.04,-293.6 805.66,-290.66 801.02,-288.14"/>
<polygon fill="#63b8ff" stroke="#63b8ff" points="890.77,-423.58 885.48,-422.14 889.78,-422.77 886.91,-420.4 886.91,-420.4 886.91,-420.4 889.78,-422.77 888.34,-418.67 890.77,-423.58"/>
</a>
</g>
</g>
<!-- Node20&#45;&gt;Node13 -->
<g id="edge32_Node000020_Node000013" class="edge">
<title>Node20&#45;&gt;Node13</title>
<g id="a_edge32_Node000020_Node000013"><a xlink:title=" ">
<path fill="none" stroke="#63b8ff" d="M618.13,-107.1C608,-105.28 597.79,-103.45 587.87,-101.68"/>
<polygon fill="#63b8ff" stroke="#63b8ff" points="622.89,-107.95 617.57,-109.28 621.63,-107.73 617.97,-107.07 617.97,-107.07 617.97,-107.07 621.63,-107.73 618.36,-104.85 622.89,-107.95"/>
</a>
</g>
</g>
<!-- Node20&#45;&gt;Node20 -->
<g id="edge31_Node000020_Node000020" class="edge">
<title>Node20&#45;&gt;Node20</title>
<g id="a_edge31_Node000020_Node000020"><a xlink:title=" ">
<path fill="none" stroke="#63b8ff" d="M756.43,-151.88C753.98,-158.73 741.5,-163.88 719,-163.88 690.2,-163.88 677.82,-155.45 681.87,-145.8"/>
<polygon fill="#63b8ff" stroke="#63b8ff" points="756.19,-147.01 758.68,-151.9 756.25,-148.29 756.43,-152.01 756.43,-152.01 756.43,-152.01 756.25,-148.29 754.19,-152.12 756.19,-147.01"/>
</a>
</g>
</g>
<!-- Node29&#45;&gt;Node3 -->
<g id="edge47_Node000029_Node000003" class="edge">
<title>Node29&#45;&gt;Node3</title>
<g id="a_edge47_Node000029_Node000003"><a xlink:title=" ">
<path fill="none" stroke="#63b8ff" d="M906.74,-308.16C889.81,-278.35 857.42,-230.9 814,-211 737.23,-175.82 690.48,-158.93 624,-211 545.6,-272.4 512.16,-618 506.79,-679.61"/>
<polygon fill="#63b8ff" stroke="#63b8ff" points="909.12,-312.44 904.72,-309.17 908.5,-311.32 906.69,-308.07 906.69,-308.07 906.69,-308.07 908.5,-311.32 908.66,-306.98 909.12,-312.44"/>
</a>
</g>
</g>
<!-- Node29&#45;&gt;Node20 -->
<g id="edge44_Node000029_Node000020" class="edge">
<title>Node29&#45;&gt;Node20</title>
<g id="a_edge44_Node000029_Node000020"><a xlink:title=" ">
<path fill="none" stroke="#63b8ff" d="M907.3,-308.21C889.9,-274.9 855.98,-216.61 814,-178 800.07,-165.19 782.5,-154.24 766.33,-145.67"/>
<polygon fill="#63b8ff" stroke="#63b8ff" points="909.39,-312.26 905.1,-308.85 908.8,-311.12 907.1,-307.81 907.1,-307.81 907.1,-307.81 908.8,-311.12 909.09,-306.78 909.39,-312.26"/>
</a>
</g>
</g>
<!-- Node29&#45;&gt;Node21 -->
<g id="edge46_Node000029_Node000021" class="edge">
<title>Node29&#45;&gt;Node21</title>
<g id="a_edge46_Node000029_Node000021"><a xlink:title=" ">
<path fill="none" stroke="#63b8ff" d="M896.13,-309.21C876.03,-289.83 845.58,-263.78 814,-249 805.71,-245.12 796.64,-242.03 787.51,-239.57"/>
<polygon fill="#63b8ff" stroke="#63b8ff" points="899.64,-312.63 894.49,-310.75 898.72,-311.74 896.06,-309.14 896.06,-309.14 896.06,-309.14 898.72,-311.74 897.63,-307.53 899.64,-312.63"/>
</a>
</g>
</g>
<!-- Node29&#45;&gt;Node22 -->
<g id="edge48_Node000029_Node000022" class="edge">
<title>Node29&#45;&gt;Node22</title>
<g id="a_edge48_Node000029_Node000022"><a xlink:title=" ">
<path fill="none" stroke="#63b8ff" d="M895.97,-358.8C881.67,-374.25 863.71,-394.95 850,-415 830.7,-443.23 841.5,-462.67 814,-483 809.46,-486.36 804.46,-489.14 799.22,-491.44"/>
<polygon fill="#63b8ff" stroke="#63b8ff" points="899.06,-355.48 897.3,-360.67 898.19,-356.42 895.65,-359.14 895.65,-359.14 895.65,-359.14 898.19,-356.42 894.01,-357.6 899.06,-355.48"/>
</a>
</g>
</g>
<!-- Node29&#45;&gt;Node23 -->
<g id="edge49_Node000029_Node000023" class="edge">
<title>Node29&#45;&gt;Node23</title>
<g id="a_edge49_Node000029_Node000023"><a xlink:title=" ">
<path fill="none" stroke="#63b8ff" d="M899.28,-359.28C874.56,-388.8 834.06,-435.01 814,-446 807.73,-449.43 800.92,-452.22 793.92,-454.48"/>
<polygon fill="#63b8ff" stroke="#63b8ff" points="902.33,-355.63 900.85,-360.91 901.51,-356.61 899.12,-359.47 899.12,-359.47 899.12,-359.47 901.51,-356.61 897.4,-358.03 902.33,-355.63"/>
</a>
</g>
</g>
<!-- Node29&#45;&gt;Node24 -->
<g id="edge50_Node000029_Node000024" class="edge">
<title>Node29&#45;&gt;Node24</title>
<g id="a_edge50_Node000029_Node000024"><a xlink:title=" ">
<path fill="none" stroke="#63b8ff" d="M892.23,-358.7C871.93,-375.43 843,-396.66 814,-409 805.9,-412.45 797.12,-415.24 788.3,-417.5"/>
<polygon fill="#63b8ff" stroke="#63b8ff" points="896,-355.55 893.6,-360.48 895.02,-356.37 892.16,-358.76 892.16,-358.76 892.16,-358.76 895.02,-356.37 890.72,-357.03 896,-355.55"/>
</a>
</g>
</g>
<!-- Node29&#45;&gt;Node25 -->
<g id="edge51_Node000029_Node000025" class="edge">
<title>Node29&#45;&gt;Node25</title>
<g id="a_edge51_Node000029_Node000025"><a xlink:title=" ">
<path fill="none" stroke="#63b8ff" d="M861.3,-356.87C846.05,-362.31 829.54,-367.76 814,-372 802.3,-375.2 789.63,-378.03 777.49,-380.46"/>
<polygon fill="#63b8ff" stroke="#63b8ff" points="865.72,-355.28 861.77,-359.09 864.51,-355.72 861.01,-356.98 861.01,-356.98 861.01,-356.98 864.51,-355.72 860.25,-354.86 865.72,-355.28"/>
</a>
</g>
</g>
<!-- Node29&#45;&gt;Node26 -->
<g id="edge52_Node000029_Node000026" class="edge">
<title>Node29&#45;&gt;Node26</title>
<g id="a_edge52_Node000029_Node000026"><a xlink:title=" ">
<path fill="none" stroke="#63b8ff" d="M850.1,-340.64C833.48,-342.22 815.64,-343.91 798.65,-345.53"/>
<polygon fill="#63b8ff" stroke="#63b8ff" points="854.96,-340.18 850.19,-342.89 853.68,-340.3 849.98,-340.65 849.98,-340.65 849.98,-340.65 853.68,-340.3 849.77,-338.41 854.96,-340.18"/>
</a>
</g>
</g>
<!-- Node29&#45;&gt;Node27 -->
<g id="edge53_Node000029_Node000027" class="edge">
<title>Node29&#45;&gt;Node27</title>
<g id="a_edge53_Node000029_Node000027"><a xlink:title=" ">
<path fill="none" stroke="#63b8ff" d="M850.1,-327.71C833.48,-326.21 815.64,-324.61 798.65,-323.08"/>
<polygon fill="#63b8ff" stroke="#63b8ff" points="854.96,-328.15 849.77,-329.94 853.68,-328.03 849.98,-327.7 849.98,-327.7 849.98,-327.7 853.68,-328.03 850.18,-325.46 854.96,-328.15"/>
</a>
</g>
</g>
<!-- Node29&#45;&gt;Node28 -->
<g id="edge54_Node000029_Node000028" class="edge">
<title>Node29&#45;&gt;Node28</title>
<g id="a_edge54_Node000029_Node000028"><a xlink:title=" ">
<path fill="none" stroke="#63b8ff" d="M857.72,-311.26C843.43,-306.32 828.25,-301.3 814,-297 803.92,-293.96 793.16,-290.97 782.65,-288.2"/>
<polygon fill="#63b8ff" stroke="#63b8ff" points="862.21,-312.82 856.74,-313.3 861,-312.4 857.48,-311.18 857.48,-311.18 857.48,-311.18 861,-312.4 858.22,-309.05 862.21,-312.82"/>
</a>
</g>
</g>
<!-- Node29&#45;&gt;Node29 -->
<g id="edge45_Node000029_Node000029" class="edge">
<title>Node29&#45;&gt;Node29</title>
<g id="a_edge45_Node000029_Node000029"><a xlink:title=" ">
<path fill="none" stroke="#63b8ff" d="M952.87,-360.88C950.78,-367.73 940.16,-372.88 921,-372.88 896.48,-372.88 885.94,-364.45 889.39,-354.8"/>
<polygon fill="#63b8ff" stroke="#63b8ff" points="952.66,-356.01 955.12,-360.92 952.72,-357.3 952.87,-361.01 952.87,-361.01 952.87,-361.01 952.72,-357.3 950.63,-361.1 952.66,-356.01"/>
</a>
</g>
</g>
<!-- Node30 -->
<g id="Node000030" class="node">
<title>Node30</title>
<g id="a_Node000030"><a xlink:href="../../d5/ddd/namespacenpi_1_1log.html#ac0dd546fc6a4f2a6452da15ee952369d" target="_top" xlink:title="Adds the custom Qt logging category filter rule.">
<polygon fill="white" stroke="none" points="796,-85.62 642,-85.62 642,-66.38 796,-66.38 796,-85.62"/>
<text xml:space="preserve" text-anchor="middle" x="719" y="-71.17" font-family="Consolas" font-size="11.00">npi::log::addFilterRule</text>
</a>
</g>
</g>
<!-- Node29&#45;&gt;Node30 -->
<g id="edge43_Node000029_Node000030" class="edge">
<title>Node29&#45;&gt;Node30</title>
<g id="a_edge43_Node000029_Node000030"><a xlink:title=" ">
<path fill="none" stroke="#63b8ff" d="M916.22,-307.1C907.68,-257.02 882.06,-149.63 814,-95 808.55,-90.62 802.35,-87.17 795.81,-84.46"/>
<polygon fill="#63b8ff" stroke="#63b8ff" points="917.02,-312 913.99,-307.43 916.82,-310.74 916.21,-307.07 916.21,-307.07 916.21,-307.07 916.82,-310.74 918.43,-306.7 917.02,-312"/>
</a>
</g>
</g>
</g>
</svg>
