<?xml version="1.0" encoding="UTF-8" standalone="no"?>
<!DOCTYPE svg PUBLIC "-//W3C//DTD SVG 1.1//EN"
 "http://www.w3.org/Graphics/SVG/1.1/DTD/svg11.dtd">
<!-- Generated by graphviz version 14.0.0 (20250921.2048)
 -->
<!-- Title: npi::app::orgProgramDataDir Pages: 1 -->
<svg width="1244pt" height="374pt"
 viewBox="0.00 0.00 1244.00 374.00" xmlns="http://www.w3.org/2000/svg" xmlns:xlink="http://www.w3.org/1999/xlink">
<g id="graph0" class="graph" transform="scale(1 1) rotate(0) translate(4 369.75)">
<title>npi::app::orgProgramDataDir</title>
<!-- Node1 -->
<g id="Node000001" class="node">
<title>Node1</title>
<g id="a_Node000001"><a xlink:title="Absolute organization&#45;level ProgramData path.">
<polygon fill="#999999" stroke="none" points="1236,-204.5 1058,-204.5 1058,-185.25 1236,-185.25 1236,-204.5"/>
<text xml:space="preserve" text-anchor="start" x="1066" y="-191.05" font-family="Consolas" font-weight="bold" font-size="11.00">npi::app::orgProgramDataDir</text>
</a>
</g>
</g>
<!-- Node2 -->
<g id="Node000002" class="node">
<title>Node2</title>
<g id="a_Node000002"><a xlink:href="../../dc/dba/namespacenpi_1_1app.html#a40a2a28831f2f410c995f0657baf6544" target="_top" xlink:title="Absolute application&#45;level ProgramData path.">
<polygon fill="white" stroke="none" points="1022,-204.5 844,-204.5 844,-185.25 1022,-185.25 1022,-204.5"/>
<text xml:space="preserve" text-anchor="middle" x="933" y="-190.05" font-family="Consolas" font-size="11.00">npi::app::appProgramDataDir</text>
</a>
</g>
</g>
<!-- Node1&#45;&gt;Node2 -->
<g id="edge1_Node000001_Node000002" class="edge">
<title>Node1&#45;&gt;Node2</title>
<g id="a_edge1_Node000001_Node000002"><a xlink:title=" ">
<path fill="none" stroke="#63b8ff" d="M1052.27,-194.88C1042.11,-194.88 1031.79,-194.88 1021.69,-194.88"/>
<polygon fill="#63b8ff" stroke="#63b8ff" points="1057.02,-194.88 1052.02,-197.13 1055.74,-194.88 1052.02,-194.88 1052.02,-194.88 1052.02,-194.88 1055.74,-194.88 1052.02,-192.63 1057.02,-194.88"/>
</a>
</g>
</g>
<!-- Node3 -->
<g id="Node000003" class="node">
<title>Node3</title>
<g id="a_Node000003"><a xlink:href="../../d0/d61/classanonymous__namespace_02_log_8cpp_03_1_1_log_core.html#aec0c49d654f69ba240eded5dee4bbc8b" target="_top" xlink:title=" ">
<polygon fill="white" stroke="none" points="775,-365.75 645,-365.75 645,-324 775,-324 775,-365.75"/>
<text xml:space="preserve" text-anchor="start" x="653" y="-351.3" font-family="Consolas" font-size="11.00">anonymous_namespace</text>
<text xml:space="preserve" text-anchor="start" x="653" y="-340.05" font-family="Consolas" font-size="11.00">{Log::cpp}::LogCore</text>
<text xml:space="preserve" text-anchor="middle" x="710" y="-328.8" font-family="Consolas" font-size="11.00">::getFutureDir_</text>
</a>
</g>
</g>
<!-- Node2&#45;&gt;Node3 -->
<g id="edge2_Node000002_Node000003" class="edge">
<title>Node2&#45;&gt;Node3</title>
<g id="a_edge2_Node000002_Node000003"><a xlink:title=" ">
<path fill="none" stroke="#63b8ff" d="M921.39,-208.79C901.71,-233.65 857.06,-285.83 808,-314.88 797.84,-320.89 786.35,-325.81 774.93,-329.8"/>
<polygon fill="#63b8ff" stroke="#63b8ff" points="924.23,-205.15 922.92,-210.48 923.44,-206.16 921.15,-209.09 921.15,-209.09 921.15,-209.09 923.44,-206.16 919.38,-207.7 924.23,-205.15"/>
</a>
</g>
</g>
<!-- Node4 -->
<g id="Node000004" class="node">
<title>Node4</title>
<g id="a_Node000004"><a xlink:href="../../d0/d61/classanonymous__namespace_02_log_8cpp_03_1_1_log_core.html#a953bdf43ab1e0d48f1225fe1dcccfbd4" target="_top" xlink:title=" ">
<polygon fill="white" stroke="none" points="781,-305.75 639,-305.75 639,-264 781,-264 781,-305.75"/>
<text xml:space="preserve" text-anchor="start" x="647" y="-291.3" font-family="Consolas" font-size="11.00">anonymous_namespace</text>
<text xml:space="preserve" text-anchor="start" x="647" y="-280.05" font-family="Consolas" font-size="11.00">{Log::cpp}::LogCore</text>
<text xml:space="preserve" text-anchor="middle" x="710" y="-268.8" font-family="Consolas" font-size="11.00">::getMaxFolderSizeMb_</text>
</a>
</g>
</g>
<!-- Node2&#45;&gt;Node4 -->
<g id="edge3_Node000002_Node000004" class="edge">
<title>Node2&#45;&gt;Node4</title>
<g id="a_edge3_Node000002_Node000004"><a xlink:title=" ">
<path fill="none" stroke="#63b8ff" d="M909.02,-207.29C884.47,-220.24 844.2,-240.61 808,-254.88 799.31,-258.3 790.06,-261.59 780.85,-264.66"/>
<polygon fill="#63b8ff" stroke="#63b8ff" points="913.23,-205.06 909.87,-209.39 912.1,-205.66 908.81,-207.4 908.81,-207.4 908.81,-207.4 912.1,-205.66 907.76,-205.41 913.23,-205.06"/>
</a>
</g>
</g>
<!-- Node5 -->
<g id="Node000005" class="node">
<title>Node5</title>
<g id="a_Node000005"><a xlink:href="../../d0/d61/classanonymous__namespace_02_log_8cpp_03_1_1_log_core.html#af4273441409e88d841adc86974b49c75" target="_top" xlink:title=" ">
<polygon fill="white" stroke="none" points="781,-245.75 639,-245.75 639,-204 781,-204 781,-245.75"/>
<text xml:space="preserve" text-anchor="start" x="647" y="-231.3" font-family="Consolas" font-size="11.00">anonymous_namespace</text>
<text xml:space="preserve" text-anchor="start" x="647" y="-220.05" font-family="Consolas" font-size="11.00">{Log::cpp}::LogCore</text>
<text xml:space="preserve" text-anchor="middle" x="710" y="-208.8" font-family="Consolas" font-size="11.00">::getStartupSettings_</text>
</a>
</g>
</g>
<!-- Node2&#45;&gt;Node5 -->
<g id="edge4_Node000002_Node000005" class="edge">
<title>Node2&#45;&gt;Node5</title>
<g id="a_edge4_Node000002_Node000005"><a xlink:title=" ">
<path fill="none" stroke="#63b8ff" d="M855.07,-205.32C830.89,-208.6 804.33,-212.21 780.68,-215.42"/>
<polygon fill="#63b8ff" stroke="#63b8ff" points="859.95,-204.65 855.3,-207.56 858.69,-204.83 855,-205.33 855,-205.33 855,-205.33 858.69,-204.83 854.7,-203.1 859.95,-204.65"/>
</a>
</g>
</g>
<!-- Node7 -->
<g id="Node000007" class="node">
<title>Node7</title>
<g id="a_Node000007"><a xlink:href="../../d0/d61/classanonymous__namespace_02_log_8cpp_03_1_1_log_core.html#a5fa684811c33eea49f63593fea332de4" target="_top" xlink:title=" ">
<polygon fill="white" stroke="none" points="775,-77.75 645,-77.75 645,-36 775,-36 775,-77.75"/>
<text xml:space="preserve" text-anchor="start" x="653" y="-63.3" font-family="Consolas" font-size="11.00">anonymous_namespace</text>
<text xml:space="preserve" text-anchor="start" x="653" y="-52.05" font-family="Consolas" font-size="11.00">{Log::cpp}::LogCore</text>
<text xml:space="preserve" text-anchor="middle" x="710" y="-40.8" font-family="Consolas" font-size="11.00">::saveSettings_</text>
</a>
</g>
</g>
<!-- Node2&#45;&gt;Node7 -->
<g id="edge6_Node000002_Node000007" class="edge">
<title>Node2&#45;&gt;Node7</title>
<g id="a_edge6_Node000002_Node000007"><a xlink:title=" ">
<path fill="none" stroke="#63b8ff" d="M919.59,-180.78C898.72,-157.91 854.33,-112.69 808,-86.88 797.76,-81.17 786.29,-76.41 774.93,-72.48"/>
<polygon fill="#63b8ff" stroke="#63b8ff" points="922.86,-184.4 917.84,-182.2 922,-183.45 919.51,-180.69 919.51,-180.69 919.51,-180.69 922,-183.45 921.18,-179.19 922.86,-184.4"/>
</a>
</g>
</g>
<!-- Node13 -->
<g id="Node000013" class="node">
<title>Node13</title>
<g id="a_Node000013"><a xlink:href="../../df/d40/namespaceanonymous__namespace_02_meta_paths_8cpp_03.html#a71f0c349fdc17bb538a0b720816e7bcd" target="_top" xlink:title="Schedules the initialization of application meta paths.">
<polygon fill="white" stroke="none" points="808,-126.12 612,-126.12 612,-95.62 808,-95.62 808,-126.12"/>
<text xml:space="preserve" text-anchor="start" x="620" y="-111.67" font-family="Consolas" font-size="11.00">anonymous_namespace</text>
<text xml:space="preserve" text-anchor="middle" x="710" y="-100.42" font-family="Consolas" font-size="11.00">{MetaPaths::cpp}::scheduleInit</text>
</a>
</g>
</g>
<!-- Node2&#45;&gt;Node13 -->
<g id="edge13_Node000002_Node000013" class="edge">
<title>Node2&#45;&gt;Node13</title>
<g id="a_edge13_Node000002_Node000013"><a xlink:title=" ">
<path fill="none" stroke="#63b8ff" d="M910.01,-182.49C885.68,-169.22 845.01,-148.24 808,-134.88 799.11,-131.66 789.61,-128.73 780.16,-126.11"/>
<polygon fill="#63b8ff" stroke="#63b8ff" points="914.17,-184.78 908.7,-184.35 913.05,-184.16 909.79,-182.37 909.79,-182.37 909.79,-182.37 913.05,-184.16 910.87,-180.4 914.17,-184.78"/>
</a>
</g>
</g>
<!-- Node14 -->
<g id="Node000014" class="node">
<title>Node14</title>
<g id="a_Node000014"><a xlink:href="../../d0/d61/classanonymous__namespace_02_log_8cpp_03_1_1_log_core.html#a78f2c370e9ec632af877fe1dd49ef478" target="_top" xlink:title=" ">
<polygon fill="white" stroke="none" points="781,-185.75 639,-185.75 639,-144 781,-144 781,-185.75"/>
<text xml:space="preserve" text-anchor="start" x="647" y="-171.3" font-family="Consolas" font-size="11.00">anonymous_namespace</text>
<text xml:space="preserve" text-anchor="start" x="647" y="-160.05" font-family="Consolas" font-size="11.00">{Log::cpp}::LogCore</text>
<text xml:space="preserve" text-anchor="middle" x="710" y="-148.8" font-family="Consolas" font-size="11.00">::startImpLogProcess_</text>
</a>
</g>
</g>
<!-- Node2&#45;&gt;Node14 -->
<g id="edge14_Node000002_Node000014" class="edge">
<title>Node2&#45;&gt;Node14</title>
<g id="a_edge14_Node000002_Node000014"><a xlink:title=" ">
<path fill="none" stroke="#63b8ff" d="M855.07,-184.43C830.89,-181.15 804.33,-177.54 780.68,-174.33"/>
<polygon fill="#63b8ff" stroke="#63b8ff" points="859.95,-185.1 854.7,-186.65 858.69,-184.92 855,-184.42 855,-184.42 855,-184.42 858.69,-184.92 855.3,-182.19 859.95,-185.1"/>
</a>
</g>
</g>
<!-- Node6 -->
<g id="Node000006" class="node">
<title>Node6</title>
<g id="a_Node000006"><a xlink:href="../../d0/d61/classanonymous__namespace_02_log_8cpp_03_1_1_log_core.html#ac81e3393bfb7545e17c9fd8ea4cb4aa6" target="_top" xlink:title=" ">
<polygon fill="white" stroke="none" points="573,-185.75 443,-185.75 443,-144 573,-144 573,-185.75"/>
<text xml:space="preserve" text-anchor="start" x="451" y="-171.3" font-family="Consolas" font-size="11.00">anonymous_namespace</text>
<text xml:space="preserve" text-anchor="start" x="451" y="-160.05" font-family="Consolas" font-size="11.00">{Log::cpp}::LogCore</text>
<text xml:space="preserve" text-anchor="middle" x="508" y="-148.8" font-family="Consolas" font-size="11.00">::LogCore</text>
</a>
</g>
</g>
<!-- Node5&#45;&gt;Node6 -->
<g id="edge5_Node000005_Node000006" class="edge">
<title>Node5&#45;&gt;Node6</title>
<g id="a_edge5_Node000005_Node000006"><a xlink:title=" ">
<path fill="none" stroke="#63b8ff" d="M633.72,-202.29C613.7,-196.28 592.26,-189.85 572.9,-184.04"/>
<polygon fill="#63b8ff" stroke="#63b8ff" points="638.44,-203.71 633.01,-204.43 637.22,-203.34 633.65,-202.27 633.65,-202.27 633.65,-202.27 637.22,-203.34 634.3,-200.12 638.44,-203.71"/>
</a>
</g>
</g>
<!-- Node7&#45;&gt;Node6 -->
<g id="edge7_Node000007_Node000006" class="edge">
<title>Node7&#45;&gt;Node6</title>
<g id="a_edge7_Node000007_Node000006"><a xlink:title=" ">
<path fill="none" stroke="#63b8ff" d="M639.28,-75.19C629.91,-78.59 620.57,-82.48 612,-86.88 595.93,-95.12 559.34,-123.84 534.39,-144.03"/>
<polygon fill="#63b8ff" stroke="#63b8ff" points="643.97,-73.55 640,-77.33 642.76,-73.97 639.26,-75.2 639.26,-75.2 639.26,-75.2 642.76,-73.97 638.51,-73.08 643.97,-73.55"/>
</a>
</g>
</g>
<!-- Node8 -->
<g id="Node000008" class="node">
<title>Node8</title>
<g id="a_Node000008"><a xlink:href="../../d0/d61/classanonymous__namespace_02_log_8cpp_03_1_1_log_core.html#a18c3c555110a16327bd67014b95739eb" target="_top" xlink:title=" ">
<polygon fill="white" stroke="none" points="576,-101.75 440,-101.75 440,-60 576,-60 576,-101.75"/>
<text xml:space="preserve" text-anchor="start" x="448" y="-87.3" font-family="Consolas" font-size="11.00">anonymous_namespace</text>
<text xml:space="preserve" text-anchor="start" x="448" y="-76.05" font-family="Consolas" font-size="11.00">{Log::cpp}::LogCore</text>
<text xml:space="preserve" text-anchor="middle" x="508" y="-64.8" font-family="Consolas" font-size="11.00">::setColoredConsole_</text>
</a>
</g>
</g>
<!-- Node7&#45;&gt;Node8 -->
<g id="edge8_Node000007_Node000008" class="edge">
<title>Node7&#45;&gt;Node8</title>
<g id="a_edge8_Node000007_Node000008"><a xlink:title=" ">
<path fill="none" stroke="#63b8ff" d="M639.13,-65.26C618.53,-67.73 596.06,-70.43 575.67,-72.87"/>
<polygon fill="#63b8ff" stroke="#63b8ff" points="643.96,-64.68 639.26,-67.51 642.69,-64.83 638.99,-65.28 638.99,-65.28 638.99,-65.28 642.69,-64.83 638.73,-63.04 643.96,-64.68"/>
</a>
</g>
</g>
<!-- Node11 -->
<g id="Node000011" class="node">
<title>Node11</title>
<g id="a_Node000011"><a xlink:href="../../d0/d61/classanonymous__namespace_02_log_8cpp_03_1_1_log_core.html#a59eebbde2d3d36263a0d7a96e595573b" target="_top" xlink:title=" ">
<polygon fill="white" stroke="none" points="573,-41.75 443,-41.75 443,0 573,0 573,-41.75"/>
<text xml:space="preserve" text-anchor="start" x="451" y="-27.3" font-family="Consolas" font-size="11.00">anonymous_namespace</text>
<text xml:space="preserve" text-anchor="start" x="451" y="-16.05" font-family="Consolas" font-size="11.00">{Log::cpp}::LogCore</text>
<text xml:space="preserve" text-anchor="middle" x="508" y="-4.8" font-family="Consolas" font-size="11.00">::setWarnIsImp_</text>
</a>
</g>
</g>
<!-- Node7&#45;&gt;Node11 -->
<g id="edge11_Node000007_Node000011" class="edge">
<title>Node7&#45;&gt;Node11</title>
<g id="a_edge11_Node000007_Node000011"><a xlink:title=" ">
<path fill="none" stroke="#63b8ff" d="M639.15,-44.3C617.62,-40.43 594.02,-36.18 572.91,-32.38"/>
<polygon fill="#63b8ff" stroke="#63b8ff" points="643.97,-45.17 638.65,-46.5 642.71,-44.94 639.05,-44.28 639.05,-44.28 639.05,-44.28 642.71,-44.94 639.45,-42.07 643.97,-45.17"/>
</a>
</g>
</g>
<!-- Node9 -->
<g id="Node000009" class="node">
<title>Node9</title>
<g id="a_Node000009"><a xlink:href="../../d5/ddd/namespacenpi_1_1log.html#aa9c7f1de08a88a0dcac316127c1d384b" target="_top" xlink:title=" ">
<polygon fill="white" stroke="none" points="404,-90.5 226,-90.5 226,-71.25 404,-71.25 404,-90.5"/>
<text xml:space="preserve" text-anchor="middle" x="315" y="-76.05" font-family="Consolas" font-size="11.00">npi::log::setColoredConsole</text>
</a>
</g>
</g>
<!-- Node8&#45;&gt;Node9 -->
<g id="edge9_Node000008_Node000009" class="edge">
<title>Node8&#45;&gt;Node9</title>
<g id="a_edge9_Node000008_Node000009"><a xlink:title=" ">
<path fill="none" stroke="#63b8ff" d="M434.1,-80.88C424.23,-80.88 414.01,-80.88 403.91,-80.88"/>
<polygon fill="#63b8ff" stroke="#63b8ff" points="438.98,-80.88 433.98,-83.13 437.7,-80.88 433.98,-80.88 433.98,-80.88 433.98,-80.88 437.7,-80.88 433.98,-78.63 438.98,-80.88"/>
</a>
</g>
</g>
<!-- Node10 -->
<g id="Node000010" class="node">
<title>Node10</title>
<g id="a_Node000010"><a xlink:href="../../d9/dc6/class_main_window.html#a4b31735a0ab8596f2c8a452d47694572" target="_top" xlink:title=" ">
<polygon fill="white" stroke="none" points="190,-96.12 0,-96.12 0,-65.62 190,-65.62 190,-96.12"/>
<text xml:space="preserve" text-anchor="start" x="8" y="-81.67" font-family="Consolas" font-size="11.00">MainWindow::on_coloredConsole</text>
<text xml:space="preserve" text-anchor="middle" x="95" y="-70.42" font-family="Consolas" font-size="11.00">_chk_checkStateChanged</text>
</a>
</g>
</g>
<!-- Node9&#45;&gt;Node10 -->
<g id="edge10_Node000009_Node000010" class="edge">
<title>Node9&#45;&gt;Node10</title>
<g id="a_edge10_Node000009_Node000010"><a xlink:title=" ">
<path fill="none" stroke="#63b8ff" d="M220.08,-80.88C210.1,-80.88 199.95,-80.88 189.96,-80.88"/>
<polygon fill="#63b8ff" stroke="#63b8ff" points="225.05,-80.88 220.05,-83.13 223.77,-80.88 220.05,-80.88 220.05,-80.88 220.05,-80.88 223.77,-80.88 220.05,-78.63 225.05,-80.88"/>
</a>
</g>
</g>
<!-- Node12 -->
<g id="Node000012" class="node">
<title>Node12</title>
<g id="a_Node000012"><a xlink:href="../../d5/ddd/namespacenpi_1_1log.html#a9be9faae3670cc6af86285afecfb3e58" target="_top" xlink:title=" ">
<polygon fill="white" stroke="none" points="398,-30.5 232,-30.5 232,-11.25 398,-11.25 398,-30.5"/>
<text xml:space="preserve" text-anchor="middle" x="315" y="-16.05" font-family="Consolas" font-size="11.00">npi::log::setWarnAsImpLog</text>
</a>
</g>
</g>
<!-- Node11&#45;&gt;Node12 -->
<g id="edge12_Node000011_Node000012" class="edge">
<title>Node11&#45;&gt;Node12</title>
<g id="a_edge12_Node000011_Node000012"><a xlink:title=" ">
<path fill="none" stroke="#63b8ff" d="M436.94,-20.88C424.21,-20.88 410.84,-20.88 397.81,-20.88"/>
<polygon fill="#63b8ff" stroke="#63b8ff" points="441.92,-20.88 436.92,-23.13 440.63,-20.88 436.92,-20.88 436.92,-20.88 436.92,-20.88 440.63,-20.88 436.92,-18.63 441.92,-20.88"/>
</a>
</g>
</g>
<!-- Node14&#45;&gt;Node6 -->
<g id="edge15_Node000014_Node000006" class="edge">
<title>Node14&#45;&gt;Node6</title>
<g id="a_edge15_Node000014_Node000006"><a xlink:title=" ">
<path fill="none" stroke="#63b8ff" d="M632.95,-164.88C613.14,-164.88 592,-164.88 572.89,-164.88"/>
<polygon fill="#63b8ff" stroke="#63b8ff" points="637.83,-164.88 632.83,-167.13 636.55,-164.88 632.83,-164.88 632.83,-164.88 632.83,-164.88 636.55,-164.88 632.83,-162.63 637.83,-164.88"/>
</a>
</g>
</g>
</g>
</svg>
