<?xml version="1.0" encoding="UTF-8" standalone="no"?>
<!DOCTYPE svg PUBLIC "-//W3C//DTD SVG 1.1//EN"
 "http://www.w3.org/Graphics/SVG/1.1/DTD/svg11.dtd">
<!-- Generated by graphviz version 14.0.0 (20250921.2048)
 -->
<!-- Title: npi::app::appPublicDocumentsDir Pages: 1 -->
<svg width="876pt" height="39pt"
 viewBox="0.00 0.00 876.00 39.00" xmlns="http://www.w3.org/2000/svg" xmlns:xlink="http://www.w3.org/1999/xlink">
<g id="graph0" class="graph" transform="scale(1 1) rotate(0) translate(4 34.5)">
<title>npi::app::appPublicDocumentsDir</title>
<!-- Node1 -->
<g id="Node000001" class="node">
<title>Node1</title>
<g id="a_Node000001"><a xlink:title="Absolute application&#45;level Public/Documents path.">
<polygon fill="#999999" stroke="none" points="202,-24.88 0,-24.88 0,-5.62 202,-5.62 202,-24.88"/>
<text xml:space="preserve" text-anchor="start" x="8" y="-11.43" font-family="Consolas" font-weight="bold" font-size="11.00">npi::app::appPublicDocumentsDir</text>
</a>
</g>
</g>
<!-- Node2 -->
<g id="Node000002" class="node">
<title>Node2</title>
<g id="a_Node000002"><a xlink:href="../../dc/dba/namespacenpi_1_1app.html#ac0dca24602a75822c6f7fcf63f8781d9" target="_top" xlink:title="Absolute organization&#45;level Public/Documents path.">
<polygon fill="white" stroke="none" points="440,-24.88 238,-24.88 238,-5.62 440,-5.62 440,-24.88"/>
<text xml:space="preserve" text-anchor="middle" x="339" y="-10.43" font-family="Consolas" font-size="11.00">npi::app::orgPublicDocumentsDir</text>
</a>
</g>
</g>
<!-- Node1&#45;&gt;Node2 -->
<g id="edge1_Node000001_Node000002" class="edge">
<title>Node1&#45;&gt;Node2</title>
<g id="a_edge1_Node000001_Node000002"><a xlink:title=" ">
<path fill="none" stroke="#63b8ff" d="M201.74,-15.25C211.84,-15.25 222.12,-15.25 232.27,-15.25"/>
<polygon fill="#63b8ff" stroke="#63b8ff" points="237.02,-15.25 232.02,-17.5 235.74,-15.25 232.02,-15.25 232.02,-15.25 232.02,-15.25 235.74,-15.25 232.02,-13 237.02,-15.25"/>
</a>
</g>
</g>
<!-- Node3 -->
<g id="Node000003" class="node">
<title>Node3</title>
<g id="a_Node000003"><a xlink:href="../../df/d40/namespaceanonymous__namespace_02_meta_paths_8cpp_03.html#a6b23c92ed8a542082d8cddde4bd55b47" target="_top" xlink:title="Resolve base path using Known Folder ID or environment variable fallback.">
<polygon fill="white" stroke="none" points="648,-30.5 476,-30.5 476,0 648,0 648,-30.5"/>
<text xml:space="preserve" text-anchor="start" x="484" y="-16.05" font-family="Consolas" font-size="11.00">anonymous_namespace</text>
<text xml:space="preserve" text-anchor="middle" x="562" y="-4.8" font-family="Consolas" font-size="11.00">{MetaPaths::cpp}::basePath</text>
</a>
</g>
</g>
<!-- Node2&#45;&gt;Node3 -->
<g id="edge2_Node000002_Node000003" class="edge">
<title>Node2&#45;&gt;Node3</title>
<g id="a_edge2_Node000002_Node000003"><a xlink:title=" ">
<path fill="none" stroke="#63b8ff" d="M439.83,-15.25C449.87,-15.25 460.03,-15.25 469.98,-15.25"/>
<polygon fill="#63b8ff" stroke="#63b8ff" points="474.92,-15.25 469.92,-17.5 473.63,-15.25 469.92,-15.25 469.92,-15.25 469.92,-15.25 473.63,-15.25 469.92,-13 474.92,-15.25"/>
</a>
</g>
</g>
<!-- Node4 -->
<g id="Node000004" class="node">
<title>Node4</title>
<g id="a_Node000004"><a xlink:href="../../dc/dba/namespacenpi_1_1app.html#a30b5245afa890e98f19f43c58f29e633" target="_top" xlink:title="Windows native fatal error message box.">
<polygon fill="white" stroke="none" points="868,-24.88 684,-24.88 684,-5.62 868,-5.62 868,-24.88"/>
<text xml:space="preserve" text-anchor="middle" x="776" y="-10.43" font-family="Consolas" font-size="11.00">npi::app::nativeFatalMessage</text>
</a>
</g>
</g>
<!-- Node3&#45;&gt;Node4 -->
<g id="edge3_Node000003_Node000004" class="edge">
<title>Node3&#45;&gt;Node4</title>
<g id="a_edge3_Node000003_Node000004"><a xlink:title=" ">
<path fill="none" stroke="#63b8ff" d="M647.7,-15.25C657.73,-15.25 668.02,-15.25 678.2,-15.25"/>
<polygon fill="#63b8ff" stroke="#63b8ff" points="682.96,-15.25 677.96,-17.5 681.68,-15.25 677.96,-15.25 677.96,-15.25 677.96,-15.25 681.68,-15.25 677.96,-13 682.96,-15.25"/>
</a>
</g>
</g>
</g>
</svg>
