<?xml version="1.0" encoding="UTF-8" standalone="no"?>
<!DOCTYPE svg PUBLIC "-//W3C//DTD SVG 1.1//EN"
 "http://www.w3.org/Graphics/SVG/1.1/DTD/svg11.dtd">
<!-- Generated by graphviz version 14.0.0 (20250921.2048)
 -->
<!-- Title: npi::app::appProgramDataDir Pages: 1 -->
<svg width="852pt" height="88pt"
 viewBox="0.00 0.00 852.00 88.00" xmlns="http://www.w3.org/2000/svg" xmlns:xlink="http://www.w3.org/1999/xlink">
<g id="graph0" class="graph" transform="scale(1 1) rotate(0) translate(4 83.5)">
<title>npi::app::appProgramDataDir</title>
<!-- Node1 -->
<g id="Node000001" class="node">
<title>Node1</title>
<g id="a_Node000001"><a xlink:title="Absolute application&#45;level ProgramData path.">
<polygon fill="#999999" stroke="none" points="178,-54.88 0,-54.88 0,-35.62 178,-35.62 178,-54.88"/>
<text xml:space="preserve" text-anchor="start" x="8" y="-41.42" font-family="Consolas" font-weight="bold" font-size="11.00">npi::app::appProgramDataDir</text>
</a>
</g>
</g>
<!-- Node2 -->
<g id="Node000002" class="node">
<title>Node2</title>
<g id="a_Node000002"><a xlink:href="../../df/d40/namespaceanonymous__namespace_02_meta_paths_8cpp_03.html#ad34f59342fdb3a04d27ff5ae0320ad25" target="_top" xlink:title="Create subdirectory under base path.">
<polygon fill="white" stroke="none" points="624,-79.5 428,-79.5 428,-49 624,-49 624,-79.5"/>
<text xml:space="preserve" text-anchor="start" x="436" y="-65.05" font-family="Consolas" font-size="11.00">anonymous_namespace</text>
<text xml:space="preserve" text-anchor="middle" x="526" y="-53.8" font-family="Consolas" font-size="11.00">{MetaPaths::cpp}::createSubDir</text>
</a>
</g>
</g>
<!-- Node1&#45;&gt;Node2 -->
<g id="edge1_Node000001_Node000002" class="edge">
<title>Node1&#45;&gt;Node2</title>
<g id="a_edge1_Node000001_Node000002"><a xlink:title=" ">
<path fill="none" stroke="#63b8ff" d="M177.77,-49.08C248.37,-52.17 347.73,-56.51 422.08,-59.75"/>
<polygon fill="#63b8ff" stroke="#63b8ff" points="427.07,-59.97 421.98,-62 425.79,-59.92 422.08,-59.75 422.08,-59.75 422.08,-59.75 425.79,-59.92 422.17,-57.51 427.07,-59.97"/>
</a>
</g>
</g>
<!-- Node4 -->
<g id="Node000004" class="node">
<title>Node4</title>
<g id="a_Node000004"><a xlink:href="../../dc/dba/namespacenpi_1_1app.html#a30836be8b9337a64733a6e05594b23c8" target="_top" xlink:title="Absolute organization&#45;level ProgramData path.">
<polygon fill="white" stroke="none" points="392,-35.88 214,-35.88 214,-16.62 392,-16.62 392,-35.88"/>
<text xml:space="preserve" text-anchor="middle" x="303" y="-21.43" font-family="Consolas" font-size="11.00">npi::app::orgProgramDataDir</text>
</a>
</g>
</g>
<!-- Node1&#45;&gt;Node4 -->
<g id="edge3_Node000001_Node000004" class="edge">
<title>Node1&#45;&gt;Node4</title>
<g id="a_edge3_Node000001_Node000004"><a xlink:title=" ">
<path fill="none" stroke="#63b8ff" d="M177.76,-37.38C187.85,-36.48 198.17,-35.56 208.34,-34.64"/>
<polygon fill="#63b8ff" stroke="#63b8ff" points="213.09,-34.22 208.31,-36.91 211.82,-34.33 208.11,-34.66 208.11,-34.66 208.11,-34.66 211.82,-34.33 207.91,-32.42 213.09,-34.22"/>
</a>
</g>
</g>
<!-- Node3 -->
<g id="Node000003" class="node">
<title>Node3</title>
<g id="a_Node000003"><a xlink:href="../../dc/dba/namespacenpi_1_1app.html#a30b5245afa890e98f19f43c58f29e633" target="_top" xlink:title="Windows native fatal error message box.">
<polygon fill="white" stroke="none" points="844,-48.88 660,-48.88 660,-29.62 844,-29.62 844,-48.88"/>
<text xml:space="preserve" text-anchor="middle" x="752" y="-34.42" font-family="Consolas" font-size="11.00">npi::app::nativeFatalMessage</text>
</a>
</g>
</g>
<!-- Node2&#45;&gt;Node3 -->
<g id="edge2_Node000002_Node000003" class="edge">
<title>Node2&#45;&gt;Node3</title>
<g id="a_edge2_Node000002_Node000003"><a xlink:title=" ">
<path fill="none" stroke="#63b8ff" d="M623.95,-53.43C635.53,-52.14 647.32,-50.82 658.83,-49.54"/>
<polygon fill="#63b8ff" stroke="#63b8ff" points="663.61,-49 658.89,-51.79 662.34,-49.15 658.64,-49.56 658.64,-49.56 658.64,-49.56 662.34,-49.15 658.39,-47.32 663.61,-49"/>
</a>
</g>
</g>
<!-- Node4&#45;&gt;Node2 -->
<g id="edge6_Node000004_Node000002" class="edge">
<title>Node4&#45;&gt;Node2</title>
<g id="a_edge6_Node000004_Node000002"><a xlink:title=" ">
<path fill="none" stroke="#63b8ff" d="M359.77,-35.84C381.22,-39.53 406.36,-43.85 430.46,-47.99"/>
<polygon fill="#63b8ff" stroke="#63b8ff" points="435.36,-48.84 430.05,-50.21 434.1,-48.62 430.43,-47.99 430.43,-47.99 430.43,-47.99 434.1,-48.62 430.82,-45.77 435.36,-48.84"/>
</a>
</g>
</g>
<!-- Node5 -->
<g id="Node000005" class="node">
<title>Node5</title>
<g id="a_Node000005"><a xlink:href="../../df/d40/namespaceanonymous__namespace_02_meta_paths_8cpp_03.html#a6b23c92ed8a542082d8cddde4bd55b47" target="_top" xlink:title="Resolve base path using Known Folder ID or environment variable fallback.">
<polygon fill="white" stroke="none" points="612,-30.5 440,-30.5 440,0 612,0 612,-30.5"/>
<text xml:space="preserve" text-anchor="start" x="448" y="-16.05" font-family="Consolas" font-size="11.00">anonymous_namespace</text>
<text xml:space="preserve" text-anchor="middle" x="526" y="-4.8" font-family="Consolas" font-size="11.00">{MetaPaths::cpp}::basePath</text>
</a>
</g>
</g>
<!-- Node4&#45;&gt;Node5 -->
<g id="edge4_Node000004_Node000005" class="edge">
<title>Node4&#45;&gt;Node5</title>
<g id="a_edge4_Node000004_Node000005"><a xlink:title=" ">
<path fill="none" stroke="#63b8ff" d="M391.98,-21.87C405.88,-21.18 420.28,-20.46 434.25,-19.77"/>
<polygon fill="#63b8ff" stroke="#63b8ff" points="438.99,-19.53 434.1,-22.03 437.71,-19.6 433.99,-19.78 433.99,-19.78 433.99,-19.78 437.71,-19.6 433.88,-17.53 438.99,-19.53"/>
</a>
</g>
</g>
<!-- Node5&#45;&gt;Node3 -->
<g id="edge5_Node000005_Node000003" class="edge">
<title>Node5&#45;&gt;Node3</title>
<g id="a_edge5_Node000005_Node000003"><a xlink:title=" ">
<path fill="none" stroke="#63b8ff" d="M611.68,-24.32C625.89,-25.84 640.71,-27.43 655.17,-28.98"/>
<polygon fill="#63b8ff" stroke="#63b8ff" points="660.13,-29.51 654.92,-31.22 658.85,-29.38 655.16,-28.98 655.16,-28.98 655.16,-28.98 658.85,-29.38 655.4,-26.74 660.13,-29.51"/>
</a>
</g>
</g>
</g>
</svg>
