<?xml version="1.0" encoding="UTF-8" standalone="no"?>
<!DOCTYPE svg PUBLIC "-//W3C//DTD SVG 1.1//EN"
 "http://www.w3.org/Graphics/SVG/1.1/DTD/svg11.dtd">
<!-- Generated by graphviz version 14.0.0 (20250921.2048)
 -->
<!-- Title: AppMeta.cpp Pages: 1 -->
<svg width="948pt" height="83pt"
 viewBox="0.00 0.00 948.00 83.00" xmlns="http://www.w3.org/2000/svg" xmlns:xlink="http://www.w3.org/1999/xlink">
<g id="graph0" class="graph" transform="scale(1 1) rotate(0) translate(4 78.5)">
<title>AppMeta.cpp</title>
<!-- Node1 -->
<g id="Node000001" class="node">
<title>Node1</title>
<g id="a_Node000001"><a xlink:title=" ">
<polygon fill="#999999" stroke="none" points="503,-74.5 421,-74.5 421,-55.25 503,-55.25 503,-74.5"/>
<text xml:space="preserve" text-anchor="start" x="429" y="-61.05" font-family="Consolas" font-weight="bold" font-size="11.00">AppMeta.cpp</text>
</a>
</g>
</g>
<!-- Node2 -->
<g id="Node000002" class="node">
<title>Node2</title>
<g id="a_Node000002"><a xlink:title=" ">
<polygon fill="#e0e0e0" stroke="none" points="94,-19.25 0,-19.25 0,0 94,0 94,-19.25"/>
<text xml:space="preserve" text-anchor="middle" x="47" y="-4.8" font-family="Consolas" font-size="11.00">npi/AppMeta.h</text>
</a>
</g>
</g>
<!-- Node1&#45;&gt;Node2 -->
<g id="edge1_Node000001_Node000002" class="edge">
<title>Node1&#45;&gt;Node2</title>
<g id="a_edge1_Node000001_Node000002"><a xlink:title=" ">
<path fill="none" stroke="#63b8ff" d="M421.03,-59.18C354.32,-51.44 218.08,-35.26 103,-19.25 101.96,-19.11 100.91,-18.96 99.86,-18.81"/>
<polygon fill="#63b8ff" stroke="#63b8ff" points="94.94,-18.1 100.21,-16.59 96.21,-18.28 99.89,-18.81 99.89,-18.81 99.89,-18.81 96.21,-18.28 99.57,-21.04 94.94,-18.1"/>
</a>
</g>
</g>
<!-- Node3 -->
<g id="Node000003" class="node">
<title>Node3</title>
<g id="a_Node000003"><a xlink:title=" ">
<polygon fill="#e0e0e0" stroke="none" points="230,-19.25 112,-19.25 112,0 230,0 230,-19.25"/>
<text xml:space="preserve" text-anchor="middle" x="171" y="-4.8" font-family="Consolas" font-size="11.00">npi/WinMsgBox.hpp</text>
</a>
</g>
</g>
<!-- Node1&#45;&gt;Node3 -->
<g id="edge2_Node000001_Node000003" class="edge">
<title>Node1&#45;&gt;Node3</title>
<g id="a_edge2_Node000001_Node000003"><a xlink:title=" ">
<path fill="none" stroke="#63b8ff" d="M421.23,-56.41C369.62,-46.97 280.6,-30.68 223.82,-20.29"/>
<polygon fill="#63b8ff" stroke="#63b8ff" points="218.95,-19.4 224.27,-18.09 220.21,-19.63 223.86,-20.3 223.86,-20.3 223.86,-20.3 220.21,-19.63 223.46,-22.51 218.95,-19.4"/>
</a>
</g>
</g>
<!-- Node4 -->
<g id="Node000004" class="node">
<title>Node4</title>
<g id="a_Node000004"><a xlink:title=" ">
<polygon fill="#e0e0e0" stroke="none" points="306,-19.25 248,-19.25 248,0 306,0 306,-19.25"/>
<text xml:space="preserve" text-anchor="middle" x="277" y="-4.8" font-family="Consolas" font-size="11.00">QString</text>
</a>
</g>
</g>
<!-- Node1&#45;&gt;Node4 -->
<g id="edge3_Node000001_Node000004" class="edge">
<title>Node1&#45;&gt;Node4</title>
<g id="a_edge3_Node000001_Node000004"><a xlink:title=" ">
<path fill="none" stroke="#63b8ff" d="M432.28,-55.32C399.35,-45.84 346.34,-30.58 311.58,-20.58"/>
<polygon fill="#63b8ff" stroke="#63b8ff" points="306.91,-19.23 312.33,-18.45 308.14,-19.59 311.71,-20.62 311.71,-20.62 311.71,-20.62 308.14,-19.59 311.09,-22.78 306.91,-19.23"/>
</a>
</g>
</g>
<!-- Node5 -->
<g id="Node000005" class="node">
<title>Node5</title>
<g id="a_Node000005"><a xlink:title=" ">
<polygon fill="#e0e0e0" stroke="none" points="364,-19.25 324,-19.25 324,0 364,0 364,-19.25"/>
<text xml:space="preserve" text-anchor="middle" x="344" y="-4.8" font-family="Consolas" font-size="11.00">QDir</text>
</a>
</g>
</g>
<!-- Node1&#45;&gt;Node5 -->
<g id="edge4_Node000001_Node000005" class="edge">
<title>Node1&#45;&gt;Node5</title>
<g id="a_edge4_Node000001_Node000005"><a xlink:title=" ">
<path fill="none" stroke="#63b8ff" d="M443.04,-55.32C422.74,-46.16 390.47,-31.59 368.31,-21.6"/>
<polygon fill="#63b8ff" stroke="#63b8ff" points="364.02,-19.66 369.51,-19.67 365.19,-20.19 368.58,-21.72 368.58,-21.72 368.58,-21.72 365.19,-20.19 367.65,-23.77 364.02,-19.66"/>
</a>
</g>
</g>
<!-- Node6 -->
<g id="Node000006" class="node">
<title>Node6</title>
<g id="a_Node000006"><a xlink:title=" ">
<polygon fill="#e0e0e0" stroke="none" points="452,-19.25 382,-19.25 382,0 452,0 452,-19.25"/>
<text xml:space="preserve" text-anchor="middle" x="417" y="-4.8" font-family="Consolas" font-size="11.00">QFileInfo</text>
</a>
</g>
</g>
<!-- Node1&#45;&gt;Node6 -->
<g id="edge5_Node000001_Node000006" class="edge">
<title>Node1&#45;&gt;Node6</title>
<g id="a_edge5_Node000001_Node000006"><a xlink:title=" ">
<path fill="none" stroke="#63b8ff" d="M454.97,-55.55C447.75,-47.01 436.4,-33.58 427.99,-23.63"/>
<polygon fill="#63b8ff" stroke="#63b8ff" points="424.92,-19.99 429.86,-22.36 425.74,-20.97 428.14,-23.81 428.14,-23.81 428.14,-23.81 425.74,-20.97 426.43,-25.26 424.92,-19.99"/>
</a>
</g>
</g>
<!-- Node7 -->
<g id="Node000007" class="node">
<title>Node7</title>
<g id="a_Node000007"><a xlink:title=" ">
<polygon fill="#e0e0e0" stroke="none" points="546,-19.25 470,-19.25 470,0 546,0 546,-19.25"/>
<text xml:space="preserve" text-anchor="middle" x="508" y="-4.8" font-family="Consolas" font-size="11.00">QByteArray</text>
</a>
</g>
</g>
<!-- Node1&#45;&gt;Node7 -->
<g id="edge6_Node000001_Node000007" class="edge">
<title>Node1&#45;&gt;Node7</title>
<g id="a_edge6_Node000001_Node000007"><a xlink:title=" ">
<path fill="none" stroke="#63b8ff" d="M469.19,-55.55C476.57,-47.01 488.17,-33.58 496.76,-23.63"/>
<polygon fill="#63b8ff" stroke="#63b8ff" points="499.91,-19.98 498.35,-25.24 499.08,-20.95 496.65,-23.77 496.65,-23.77 496.65,-23.77 499.08,-20.95 494.94,-22.3 499.91,-19.98"/>
</a>
</g>
</g>
<!-- Node8 -->
<g id="Node000008" class="node">
<title>Node8</title>
<g id="a_Node000008"><a xlink:title=" ">
<polygon fill="#e0e0e0" stroke="none" points="634,-19.25 564,-19.25 564,0 634,0 634,-19.25"/>
<text xml:space="preserve" text-anchor="middle" x="599" y="-4.8" font-family="Consolas" font-size="11.00">windows.h</text>
</a>
</g>
</g>
<!-- Node1&#45;&gt;Node8 -->
<g id="edge7_Node000001_Node000008" class="edge">
<title>Node1&#45;&gt;Node8</title>
<g id="a_edge7_Node000001_Node000008"><a xlink:title=" ">
<path fill="none" stroke="#63b8ff" d="M484.01,-55.32C507.78,-46.08 545.69,-31.35 571.42,-21.34"/>
<polygon fill="#63b8ff" stroke="#63b8ff" points="575.91,-19.6 572.06,-23.51 574.71,-20.07 571.25,-21.41 571.25,-21.41 571.25,-21.41 574.71,-20.07 570.43,-19.32 575.91,-19.6"/>
</a>
</g>
</g>
<!-- Node9 -->
<g id="Node000009" class="node">
<title>Node9</title>
<g id="a_Node000009"><a xlink:title=" ">
<polygon fill="#e0e0e0" stroke="none" points="740,-19.25 652,-19.25 652,0 740,0 740,-19.25"/>
<text xml:space="preserve" text-anchor="middle" x="696" y="-4.8" font-family="Consolas" font-size="11.00">combaseapi.h</text>
</a>
</g>
</g>
<!-- Node1&#45;&gt;Node9 -->
<g id="edge8_Node000001_Node000009" class="edge">
<title>Node1&#45;&gt;Node9</title>
<g id="a_edge8_Node000001_Node000009"><a xlink:title=" ">
<path fill="none" stroke="#63b8ff" d="M499.86,-55.26C541.49,-45.79 608.29,-30.58 652.16,-20.6"/>
<polygon fill="#63b8ff" stroke="#63b8ff" points="657.01,-19.5 652.63,-22.8 655.76,-19.78 652.13,-20.61 652.13,-20.61 652.13,-20.61 655.76,-19.78 651.64,-18.41 657.01,-19.5"/>
</a>
</g>
</g>
<!-- Node10 -->
<g id="Node000010" class="node">
<title>Node10</title>
<g id="a_Node000010"><a xlink:title=" ">
<polygon fill="#e0e0e0" stroke="none" points="822,-19.25 758,-19.25 758,0 822,0 822,-19.25"/>
<text xml:space="preserve" text-anchor="middle" x="790" y="-4.8" font-family="Consolas" font-size="11.00">shlobj.h</text>
</a>
</g>
</g>
<!-- Node1&#45;&gt;Node10 -->
<g id="edge9_Node000001_Node000010" class="edge">
<title>Node1&#45;&gt;Node10</title>
<g id="a_edge9_Node000001_Node000010"><a xlink:title=" ">
<path fill="none" stroke="#63b8ff" d="M502.99,-58.2C558.78,-50.32 661.7,-35.21 749,-19.25 750.13,-19.04 751.27,-18.83 752.42,-18.61"/>
<polygon fill="#63b8ff" stroke="#63b8ff" points="757.05,-17.71 752.57,-20.87 755.79,-17.96 752.14,-18.67 752.14,-18.67 752.14,-18.67 755.79,-17.96 751.71,-16.46 757.05,-17.71"/>
</a>
</g>
</g>
<!-- Node11 -->
<g id="Node000011" class="node">
<title>Node11</title>
<g id="a_Node000011"><a xlink:title=" ">
<polygon fill="#e0e0e0" stroke="none" points="940,-19.25 840,-19.25 840,0 940,0 940,-19.25"/>
<text xml:space="preserve" text-anchor="middle" x="890" y="-4.8" font-family="Consolas" font-size="11.00">knownfolders.h</text>
</a>
</g>
</g>
<!-- Node1&#45;&gt;Node11 -->
<g id="edge10_Node000001_Node000011" class="edge">
<title>Node1&#45;&gt;Node11</title>
<g id="a_edge10_Node000001_Node000011"><a xlink:title=" ">
<path fill="none" stroke="#63b8ff" d="M503,-59.25C571.15,-51.5 712.03,-35.14 831,-19.25 832.02,-19.11 833.06,-18.97 834.1,-18.83"/>
<polygon fill="#63b8ff" stroke="#63b8ff" points="838.91,-18.17 834.26,-21.08 837.64,-18.35 833.96,-18.85 833.96,-18.85 833.96,-18.85 837.64,-18.35 833.65,-16.62 838.91,-18.17"/>
</a>
</g>
</g>
</g>
</svg>
