<?xml version="1.0" encoding="UTF-8" standalone="no"?>
<!DOCTYPE svg PUBLIC "-//W3C//DTD SVG 1.1//EN"
 "http://www.w3.org/Graphics/SVG/1.1/DTD/svg11.dtd">
<!-- Generated by graphviz version 14.0.0 (20250921.2048)
 -->
<!-- Title: Graph Legend Pages: 1 -->
<svg width="580pt" height="192pt"
 viewBox="0.00 0.00 580.00 192.00" xmlns="http://www.w3.org/2000/svg" xmlns:xlink="http://www.w3.org/1999/xlink">
<g id="graph0" class="graph" transform="scale(1 1) rotate(0) translate(4 188.25)">
<title>Graph Legend</title>
<!-- Node9 -->
<g id="Node000009" class="node">
<title>Node9</title>
<g id="a_Node000009"><a xlink:title=" ">
<polygon fill="#999999" stroke="none" points="333,-19.25 263,-19.25 263,0 333,0 333,-19.25"/>
<text xml:space="preserve" text-anchor="start" x="271" y="-5.8" font-family="Consolas" font-weight="bold" font-size="11.00">Inherited</text>
</a>
</g>
</g>
<!-- Node10 -->
<g id="Node000010" class="node">
<title>Node10</title>
<g id="a_Node000010"><a xlink:title=" ">
<polygon fill="white" stroke="none" points="76,-93.38 0,-93.38 0,-74.12 76,-74.12 76,-93.38"/>
<text xml:space="preserve" text-anchor="middle" x="38" y="-78.92" font-family="Consolas" font-size="11.00">PublicBase</text>
</a>
</g>
</g>
<!-- Node10&#45;&gt;Node9 -->
<g id="edge1" class="edge">
<title>Node10&#45;&gt;Node9</title>
<g id="a_edge1"><a xlink:title=" ">
<path fill="none" stroke="#63b8ff" d="M65.93,-72.16C72.17,-69.93 78.78,-67.67 85,-65.75 147.03,-46.55 220.61,-28.54 263.04,-18.61"/>
<polygon fill="#63b8ff" stroke="#63b8ff" points="61.47,-73.77 65.41,-69.96 62.68,-73.34 66.17,-72.07 66.17,-72.07 66.17,-72.07 62.68,-73.34 66.94,-74.19 61.47,-73.77"/>
</a>
</g>
</g>
<!-- Node11 -->
<g id="Node000011" class="node">
<title>Node11</title>
<g id="a_Node000011"><a xlink:title=" ">
<polygon fill="#fff0f0" stroke="none" points="73,-175.88 3,-175.88 3,-156.62 73,-156.62 73,-175.88"/>
<text xml:space="preserve" text-anchor="start" x="11" y="-162.43" font-family="Consolas" font-style="italic" font-size="11.00">Truncated</text>
</a>
</g>
</g>
<!-- Node11&#45;&gt;Node10 -->
<g id="edge2" class="edge">
<title>Node11&#45;&gt;Node10</title>
<g id="a_edge2"><a xlink:title=" ">
<path fill="none" stroke="#63b8ff" d="M38,-150.51C38,-133.65 38,-106.61 38,-93.06"/>
<polygon fill="#63b8ff" stroke="#63b8ff" points="38,-155.42 35.75,-150.42 38,-154.14 38,-150.42 38,-150.42 38,-150.42 38,-154.14 40.25,-150.42 38,-155.42"/>
</a>
</g>
</g>
<!-- Node13 -->
<g id="node4" class="node">
<title>Node13</title>
<g id="a_node4"><a xlink:title=" ">
<polygon fill="white" stroke="none" points="188,-101.75 94,-101.75 94,-65.75 188,-65.75 188,-101.75"/>
<text xml:space="preserve" text-anchor="middle" x="141" y="-78.92" font-family="Consolas" font-size="11.00">ProtectedBase</text>
</a>
</g>
</g>
<!-- Node13&#45;&gt;Node9 -->
<g id="edge3" class="edge">
<title>Node13&#45;&gt;Node9</title>
<g id="a_edge3"><a xlink:title=" ">
<path fill="none" stroke="darkgreen" d="M183.15,-63.38C214.56,-48.96 255.92,-29.96 279.47,-19.14"/>
<polygon fill="darkgreen" stroke="darkgreen" points="178.92,-65.33 182.52,-61.2 180.08,-64.8 183.46,-63.24 183.46,-63.24 183.46,-63.24 180.08,-64.8 184.4,-65.29 178.92,-65.33"/>
</a>
</g>
</g>
<!-- Node14 -->
<g id="node5" class="node">
<title>Node14</title>
<g id="a_node5"><a xlink:title=" ">
<polygon fill="white" stroke="none" points="288,-101.75 206,-101.75 206,-65.75 288,-65.75 288,-101.75"/>
<text xml:space="preserve" text-anchor="middle" x="247" y="-78.92" font-family="Consolas" font-size="11.00">PrivateBase</text>
</a>
</g>
</g>
<!-- Node14&#45;&gt;Node9 -->
<g id="edge4" class="edge">
<title>Node14&#45;&gt;Node9</title>
<g id="a_edge4"><a xlink:title=" ">
<path fill="none" stroke="#8b1a1a" d="M262.37,-61.02C272.31,-46.96 284.71,-29.43 291.95,-19.18"/>
<polygon fill="#8b1a1a" stroke="#8b1a1a" points="259.53,-65.03 260.58,-59.65 260.27,-63.98 262.42,-60.94 262.42,-60.94 262.42,-60.94 260.27,-63.98 264.26,-62.24 259.53,-65.03"/>
</a>
</g>
</g>
<!-- Node15 -->
<g id="Node000015" class="node">
<title>Node15</title>
<g id="a_Node000015"><a xlink:title=" ">
<polygon fill="#e0e0e0" stroke="none" points="394,-93.38 306,-93.38 306,-74.12 394,-74.12 394,-93.38"/>
<text xml:space="preserve" text-anchor="middle" x="350" y="-78.92" font-family="Consolas" font-size="11.00">Undocumented</text>
</a>
</g>
</g>
<!-- Node15&#45;&gt;Node9 -->
<g id="edge5" class="edge">
<title>Node15&#45;&gt;Node9</title>
<g id="a_edge5"><a xlink:title=" ">
<path fill="none" stroke="#63b8ff" d="M340.23,-69.19C329.64,-54.51 313.07,-31.53 304.16,-19.17"/>
<polygon fill="#63b8ff" stroke="#63b8ff" points="343.12,-73.2 338.37,-70.46 342.37,-72.17 340.19,-69.15 340.19,-69.15 340.19,-69.15 342.37,-72.17 342.02,-67.83 343.12,-73.2"/>
</a>
</g>
</g>
<!-- Node16 -->
<g id="node7" class="node">
<title>Node16</title>
<g id="a_node7"><a xlink:title=" ">
<polygon fill="white" stroke="none" points="500,-101.75 412,-101.75 412,-65.75 500,-65.75 500,-101.75"/>
<text xml:space="preserve" text-anchor="middle" x="456" y="-78.92" font-family="Consolas" font-size="11.00">Templ&lt; int &gt;</text>
</a>
</g>
</g>
<!-- Node16&#45;&gt;Node9 -->
<g id="edge6" class="edge">
<title>Node16&#45;&gt;Node9</title>
<g id="a_edge6"><a xlink:title=" ">
<path fill="none" stroke="#63b8ff" d="M413.58,-63.38C381.97,-48.96 340.35,-29.96 316.65,-19.14"/>
<polygon fill="#63b8ff" stroke="#63b8ff" points="417.85,-65.33 412.36,-65.3 416.68,-64.8 413.3,-63.26 413.3,-63.26 413.3,-63.26 416.68,-64.8 414.23,-61.21 417.85,-65.33"/>
</a>
</g>
</g>
<!-- Node17 -->
<g id="node8" class="node">
<title>Node17</title>
<g id="a_node8"><a xlink:title=" ">
<polygon fill="white" stroke="none" points="494,-184.25 418,-184.25 418,-148.25 494,-148.25 494,-184.25"/>
<text xml:space="preserve" text-anchor="middle" x="456" y="-161.43" font-family="Consolas" font-size="11.00">Templ&lt; T &gt;</text>
</a>
</g>
</g>
<!-- Node17&#45;&gt;Node16 -->
<g id="edge7" class="edge">
<title>Node17&#45;&gt;Node16</title>
<g id="a_edge7"><a xlink:title=" ">
<path fill="none" stroke="orange" stroke-dasharray="5,2" d="M456,-142.48C456,-129.51 456,-113.54 456,-101.69"/>
<polygon fill="orange" stroke="orange" points="456,-147.35 453.75,-142.35 456,-146.07 456,-142.35 456,-142.35 456,-142.35 456,-146.07 458.25,-142.35 456,-147.35"/>
</a>
</g>
<text xml:space="preserve" text-anchor="middle" x="474.38" y="-120.75" font-family="Consolas" font-size="10.00" fill="grey">&lt; int &gt;</text>
</g>
<!-- Node18 -->
<g id="node9" class="node">
<title>Node18</title>
<g id="a_node9"><a xlink:title=" ">
<polygon fill="white" stroke="none" points="572,-101.75 518,-101.75 518,-65.75 572,-65.75 572,-101.75"/>
<text xml:space="preserve" text-anchor="middle" x="545" y="-78.92" font-family="Consolas" font-size="11.00">Used</text>
</a>
</g>
</g>
<!-- Node18&#45;&gt;Node9 -->
<g id="edge8" class="edge">
<title>Node18&#45;&gt;Node9</title>
<g id="a_edge8"><a xlink:title=" ">
<path fill="none" stroke="#9a32cd" stroke-dasharray="5,2" d="M512.39,-67.03C511.25,-66.59 510.12,-66.16 509,-65.75 448.5,-43.78 375.31,-26.68 332.96,-17.67"/>
<polygon fill="#9a32cd" stroke="#9a32cd" points="516.98,-68.93 511.5,-69.1 515.79,-68.44 512.35,-67.02 512.35,-67.02 512.35,-67.02 515.79,-68.44 513.21,-64.94 516.98,-68.93"/>
</a>
</g>
<text xml:space="preserve" text-anchor="middle" x="480.95" y="-38.25" font-family="Consolas" font-size="10.00" fill="grey">m_usedClass</text>
</g>
</g>
</svg>
