<?xml version="1.0" encoding="UTF-8" standalone="no"?>
<!DOCTYPE svg PUBLIC "-//W3C//DTD SVG 1.1//EN"
 "http://www.w3.org/Graphics/SVG/1.1/DTD/svg11.dtd">
<!-- Generated by graphviz version 14.0.0 (20250921.2048)
 -->
<!-- Title: Graph Legend Pages: 1 -->
<svg width="485pt" height="199pt"
 viewBox="0.00 0.00 485.00 199.00" xmlns="http://www.w3.org/2000/svg" xmlns:xlink="http://www.w3.org/1999/xlink">
<g id="graph0" class="graph" transform="scale(1 1) rotate(0) translate(4 195.07)">
<title>Graph Legend</title>
<!-- Node9 -->
<g id="Node000009" class="node">
<title>Node9</title>
<g id="a_Node000009"><a xlink:title=" ">
<polygon fill="#999999" stroke="#666666" stroke-width="1.2" points="262.89,-18.57 213,-18.57 213,0 262.89,0 262.89,-18.57"/>
<text xml:space="preserve" text-anchor="middle" x="237.94" y="-6.91" font-family="Segoe UI" font-size="10.00">Inherited</text>
</a>
</g>
</g>
<!-- Node10 -->
<g id="Node000010" class="node">
<title>Node10</title>
<g id="a_Node000010"><a xlink:title=" ">
<polygon fill="white" stroke="#666666" stroke-width="1.2" points="55.89,-96.1 0,-96.1 0,-77.53 55.89,-77.53 55.89,-96.1"/>
<text xml:space="preserve" text-anchor="middle" x="27.94" y="-84.44" font-family="Segoe UI" font-size="10.00" fill="#dddddd">PublicBase</text>
</a>
</g>
</g>
<!-- Node10&#45;&gt;Node9 -->
<g id="edge1" class="edge">
<title>Node10&#45;&gt;Node9</title>
<g id="a_edge1"><a xlink:title=" ">
<path fill="none" stroke="#63b8ff" stroke-width="1.2" d="M54.01,-73.44C57.65,-71.82 61.38,-70.24 64.94,-68.82 116.51,-48.32 178.42,-28.49 212.43,-18"/>
<polygon fill="#63b8ff" stroke="#63b8ff" stroke-width="1.2" points="53.24,-71.09 47.88,-76.21 55.27,-75.55 53.24,-71.09"/>
</a>
</g>
</g>
<!-- Node11 -->
<g id="Node000011" class="node">
<title>Node11</title>
<g id="a_Node000011"><a xlink:title=" ">
<polygon fill="#fff0f0" stroke="red" stroke-width="1.2" points="54.76,-182.35 1.12,-182.35 1.12,-163.78 54.76,-163.78 54.76,-182.35"/>
<text xml:space="preserve" text-anchor="middle" x="27.94" y="-170.69" font-family="Segoe UI" font-size="10.00" fill="#dddddd">Truncated</text>
</a>
</g>
</g>
<!-- Node11&#45;&gt;Node10 -->
<g id="edge2" class="edge">
<title>Node11&#45;&gt;Node10</title>
<g id="a_edge2"><a xlink:title=" ">
<path fill="none" stroke="#63b8ff" stroke-width="1.2" d="M27.94,-154.6C27.94,-136.91 27.94,-110.27 27.94,-96.6"/>
<polygon fill="#63b8ff" stroke="#63b8ff" stroke-width="1.2" points="25.5,-154.55 27.95,-161.55 30.4,-154.55 25.5,-154.55"/>
</a>
</g>
</g>
<!-- Node13 -->
<g id="node4" class="node">
<title>Node13</title>
<g id="a_node4"><a xlink:title=" ">
<polygon fill="white" stroke="#666666" stroke-width="1.2" points="147.51,-104.82 74.38,-104.82 74.38,-68.82 147.51,-68.82 147.51,-104.82"/>
<text xml:space="preserve" text-anchor="middle" x="110.94" y="-84.44" font-family="Segoe UI" font-size="10.00" fill="#dddddd">ProtectedBase</text>
</a>
</g>
</g>
<!-- Node13&#45;&gt;Node9 -->
<g id="edge3" class="edge">
<title>Node13&#45;&gt;Node9</title>
<g id="a_edge3"><a xlink:title=" ">
<path fill="none" stroke="darkgreen" stroke-width="1.2" d="M147.96,-63.81C173.08,-48.87 204.93,-29.92 223.22,-19.04"/>
<polygon fill="darkgreen" stroke="darkgreen" stroke-width="1.2" points="146.73,-61.69 141.96,-67.37 149.23,-65.9 146.73,-61.69"/>
</a>
</g>
</g>
<!-- Node14 -->
<g id="node5" class="node">
<title>Node14</title>
<g id="a_node5"><a xlink:title=" ">
<polygon fill="white" stroke="#666666" stroke-width="1.2" points="224.76,-104.82 165.12,-104.82 165.12,-68.82 224.76,-68.82 224.76,-104.82"/>
<text xml:space="preserve" text-anchor="middle" x="194.94" y="-84.44" font-family="Segoe UI" font-size="10.00" fill="#dddddd">PrivateBase</text>
</a>
</g>
</g>
<!-- Node14&#45;&gt;Node9 -->
<g id="edge4" class="edge">
<title>Node14&#45;&gt;Node9</title>
<g id="a_edge4"><a xlink:title=" ">
<path fill="none" stroke="#8b1a1a" stroke-width="1.2" d="M209.06,-61.02C217.34,-46.48 227.28,-29.02 233.08,-18.84"/>
<polygon fill="#8b1a1a" stroke="#8b1a1a" stroke-width="1.2" points="207.15,-59.43 205.82,-66.72 211.41,-61.85 207.15,-59.43"/>
</a>
</g>
</g>
<!-- Node15 -->
<g id="Node000015" class="node">
<title>Node15</title>
<g id="a_Node000015"><a xlink:title=" ">
<polygon fill="#e0e0e0" stroke="#999999" stroke-width="1.2" points="321.14,-96.1 242.75,-96.1 242.75,-77.53 321.14,-77.53 321.14,-96.1"/>
<text xml:space="preserve" text-anchor="middle" x="281.94" y="-84.44" font-family="Segoe UI" font-size="10.00" fill="#dddddd">Undocumented</text>
</a>
</g>
</g>
<!-- Node15&#45;&gt;Node9 -->
<g id="edge5" class="edge">
<title>Node15&#45;&gt;Node9</title>
<g id="a_edge5"><a xlink:title=" ">
<path fill="none" stroke="#63b8ff" stroke-width="1.2" d="M272.61,-69.79C263.54,-54.23 250.13,-31.2 242.93,-18.85"/>
<polygon fill="#63b8ff" stroke="#63b8ff" stroke-width="1.2" points="270.34,-70.77 275.98,-75.59 274.58,-68.3 270.34,-70.77"/>
</a>
</g>
</g>
<!-- Node16 -->
<g id="node7" class="node">
<title>Node16</title>
<g id="a_node7"><a xlink:title=" ">
<polygon fill="white" stroke="#666666" stroke-width="1.2" points="405.14,-104.82 338.75,-104.82 338.75,-68.82 405.14,-68.82 405.14,-104.82"/>
<text xml:space="preserve" text-anchor="middle" x="371.94" y="-84.44" font-family="Segoe UI" font-size="10.00" fill="#dddddd">Templ&lt; int &gt;</text>
</a>
</g>
</g>
<!-- Node16&#45;&gt;Node9 -->
<g id="edge6" class="edge">
<title>Node16&#45;&gt;Node9</title>
<g id="a_edge6"><a xlink:title=" ">
<path fill="none" stroke="#63b8ff" stroke-width="1.2" d="M333.23,-64C306.68,-49.03 272.86,-29.97 253.48,-19.04"/>
<polygon fill="#63b8ff" stroke="#63b8ff" stroke-width="1.2" points="331.98,-66.11 339.28,-67.41 334.39,-61.84 331.98,-66.11"/>
</a>
</g>
</g>
<!-- Node17 -->
<g id="node8" class="node">
<title>Node17</title>
<g id="a_node8"><a xlink:title=" ">
<polygon fill="white" stroke="#666666" stroke-width="1.2" points="401.76,-191.07 342.12,-191.07 342.12,-155.07 401.76,-155.07 401.76,-191.07"/>
<text xml:space="preserve" text-anchor="middle" x="371.94" y="-170.69" font-family="Segoe UI" font-size="10.00" fill="#dddddd">Templ&lt; T &gt;</text>
</a>
</g>
</g>
<!-- Node17&#45;&gt;Node16 -->
<g id="edge7" class="edge">
<title>Node17&#45;&gt;Node16</title>
<g id="a_edge7"><a xlink:title=" ">
<path fill="none" stroke="orange" stroke-width="1.2" stroke-dasharray="5,2" d="M371.94,-145.93C371.94,-132.7 371.94,-117 371.94,-105.25"/>
<polygon fill="orange" stroke="orange" stroke-width="1.2" points="369.5,-145.8 371.95,-152.8 374.4,-145.8 369.5,-145.8"/>
</a>
</g>
<text xml:space="preserve" text-anchor="middle" x="387.69" y="-127.57" font-family="Segoe UI" font-size="10.00" fill="grey">&lt; int &gt;</text>
</g>
<!-- Node18 -->
<g id="node9" class="node">
<title>Node18</title>
<g id="a_node9"><a xlink:title=" ">
<polygon fill="white" stroke="#666666" stroke-width="1.2" points="476.94,-104.82 422.94,-104.82 422.94,-68.82 476.94,-68.82 476.94,-104.82"/>
<text xml:space="preserve" text-anchor="middle" x="449.94" y="-84.44" font-family="Segoe UI" font-size="10.00" fill="#dddddd">Used</text>
</a>
</g>
</g>
<!-- Node18&#45;&gt;Node9 -->
<g id="edge8" class="edge">
<title>Node18&#45;&gt;Node9</title>
<g id="a_edge8"><a xlink:title=" ">
<path fill="none" stroke="#9a32cd" stroke-width="1.2" stroke-dasharray="5,2" d="M414.48,-69.03C414.3,-68.96 414.12,-68.89 413.94,-68.82 361.34,-47.74 297.88,-27.98 263.35,-17.69"/>
<polygon fill="#9a32cd" stroke="#9a32cd" stroke-width="1.2" points="413.51,-71.28 420.91,-71.77 415.42,-66.77 413.51,-71.28"/>
</a>
</g>
<text xml:space="preserve" text-anchor="middle" x="389.91" y="-41.32" font-family="Segoe UI" font-size="10.00" fill="grey">m_usedClass</text>
</g>
</g>
</svg>
