<?xml version="1.0" encoding="UTF-8" standalone="no"?>
<!DOCTYPE svg PUBLIC "-//W3C//DTD SVG 1.1//EN"
 "http://www.w3.org/Graphics/SVG/1.1/DTD/svg11.dtd">
<!-- Generated by graphviz version 14.1.5 (20260411.2331)
 -->
<!-- Title: Graphical Class Hierarchy Pages: 1 -->
<svg width="346pt" height="64pt"
 viewBox="0.00 0.00 346.00 64.00" xmlns="http://www.w3.org/2000/svg" xmlns:xlink="http://www.w3.org/1999/xlink">
<g id="graph0" class="graph" transform="scale(1 1) rotate(0) translate(4 60.25)">
<title>Graphical Class Hierarchy</title>
<!-- Node0 -->
<g id="Node000000" class="node">
<title>Node0</title>
<g id="a_Node000000"><a xlink:title=" ">
<polygon fill="#e0e0e0" stroke="none" points="172,-56.25 0,-56.25 0,-37 172,-37 172,-56.25"/>
<text xml:space="preserve" text-anchor="middle" x="86" y="-41.8" font-family="Consolas" font-size="11.00">QAbstractNativeEventFilter</text>
</a>
</g>
</g>
<!-- Node1 -->
<g id="Node000001" class="node">
<title>Node1</title>
<g id="a_Node000001"><a xlink:href="d8/d63/classanonymous__namespace_02_gui_8cpp_03_1_1_gui_style.html" target="_top" xlink:title="Application style implementing the GUI system.">
<polygon fill="white" stroke="none" points="338,-42.88 208,-42.88 208,-12.38 338,-12.38 338,-42.88"/>
<text xml:space="preserve" text-anchor="start" x="216" y="-28.43" font-family="Consolas" font-size="11.00">anonymous_namespace</text>
<text xml:space="preserve" text-anchor="middle" x="273" y="-17.18" font-family="Consolas" font-size="11.00">{Gui.cpp}::GuiStyle</text>
</a>
</g>
</g>
<!-- Node0&#45;&gt;Node1 -->
<g id="edge1_Node000000_Node000001" class="edge">
<title>Node0&#45;&gt;Node1</title>
<g id="a_edge1_Node000000_Node000001"><a xlink:title=" ">
<path fill="none" stroke="#63b8ff" d="M177.91,-37.29C188.11,-36.24 198.33,-35.19 208.07,-34.19"/>
<polygon fill="#63b8ff" stroke="#63b8ff" points="173.13,-37.78 177.88,-35.03 174.41,-37.65 178.11,-37.27 178.11,-37.27 178.11,-37.27 174.41,-37.65 178.34,-39.51 173.13,-37.78"/>
</a>
</g>
</g>
<!-- Node2 -->
<g id="Node000002" class="node">
<title>Node2</title>
<g id="a_Node000002"><a xlink:title=" ">
<polygon fill="#e0e0e0" stroke="none" points="127,-19.25 45,-19.25 45,0 127,0 127,-19.25"/>
<text xml:space="preserve" text-anchor="middle" x="86" y="-4.8" font-family="Consolas" font-size="11.00">QProxyStyle</text>
</a>
</g>
</g>
<!-- Node2&#45;&gt;Node1 -->
<g id="edge2_Node000002_Node000001" class="edge">
<title>Node2&#45;&gt;Node1</title>
<g id="a_edge2_Node000002_Node000001"><a xlink:title=" ">
<path fill="none" stroke="#63b8ff" d="M132.65,-14.07C155.36,-16.28 183.2,-18.98 208,-21.4"/>
<polygon fill="#63b8ff" stroke="#63b8ff" points="127.9,-13.6 133.09,-11.85 129.18,-13.73 132.88,-14.09 132.88,-14.09 132.88,-14.09 129.18,-13.73 132.66,-16.33 127.9,-13.6"/>
</a>
</g>
</g>
</g>
</svg>
