<?xml version="1.0" encoding="UTF-8" standalone="no"?>
<!DOCTYPE svg PUBLIC "-//W3C//DTD SVG 1.1//EN"
 "http://www.w3.org/Graphics/SVG/1.1/DTD/svg11.dtd">
<!-- Generated by graphviz version 14.0.0 (20250921.2048)
 -->
<!-- Title: npi::AppMetaData Pages: 1 -->
<svg width="168pt" height="125pt"
 viewBox="0.00 0.00 168.00 125.00" xmlns="http://www.w3.org/2000/svg" xmlns:xlink="http://www.w3.org/1999/xlink">
<g id="graph0" class="graph" transform="scale(1 1) rotate(0) translate(4 120.75)">
<title>npi::AppMetaData</title>
<!-- Node1 -->
<g id="Node000001" class="node">
<title>Node1</title>
<g id="a_Node000001"><a xlink:title="Application metadata container.">
<polygon fill="#999999" stroke="none" points="136,-19.25 24,-19.25 24,0 136,0 136,-19.25"/>
<text xml:space="preserve" text-anchor="start" x="32" y="-5.8" font-family="Consolas" font-weight="bold" font-size="11.00">npi::AppMetaData</text>
</a>
</g>
</g>
<!-- Node2 -->
<g id="Node000002" class="node">
<title>Node2</title>
<g id="a_Node000002"><a xlink:title=" ">
<polygon fill="white" stroke="none" points="160,-116.75 0,-116.75 0,-86.25 160,-86.25 160,-116.75"/>
<text xml:space="preserve" text-anchor="start" x="8" y="-102.3" font-family="Consolas" font-size="11.00">static constexpr QLatin1</text>
<text xml:space="preserve" text-anchor="middle" x="80" y="-91.05" font-family="Consolas" font-size="11.00">StringView</text>
</a>
</g>
</g>
<!-- Node2&#45;&gt;Node1 -->
<g id="edge1_Node000001_Node000002" class="edge">
<title>Node2&#45;&gt;Node1</title>
<g id="a_edge1_Node000001_Node000002"><a xlink:title=" ">
<path fill="none" stroke="#9a32cd" stroke-dasharray="5,2" d="M80,-80.27C80,-60.94 80,-32.76 80,-18.92"/>
<polygon fill="#9a32cd" stroke="#9a32cd" points="80,-85.24 77.75,-80.24 80,-83.96 80,-80.24 80,-80.24 80,-80.24 80,-83.96 82.25,-80.24 80,-85.24"/>
</a>
</g>
<text xml:space="preserve" text-anchor="start" x="83" y="-55.75" font-family="Consolas" font-size="10.00" fill="grey">Name_</text>
<text xml:space="preserve" text-anchor="start" x="83" y="-41.25" font-family="Consolas" font-size="10.00" fill="grey">Version_</text>
</g>
</g>
</svg>
