<?xml version="1.0" encoding="UTF-8" standalone="no"?>
<!DOCTYPE svg PUBLIC "-//W3C//DTD SVG 1.1//EN"
 "http://www.w3.org/Graphics/SVG/1.1/DTD/svg11.dtd">
<!-- Generated by graphviz version 14.0.0 (20250921.2048)
 -->
<!-- Title: npi::log::DirResult Pages: 1 -->
<svg width="145pt" height="114pt"
 viewBox="0.00 0.00 145.00 114.00" xmlns="http://www.w3.org/2000/svg" xmlns:xlink="http://www.w3.org/1999/xlink">
<g id="graph0" class="graph" transform="scale(1 1) rotate(0) translate(4 109.5)">
<title>npi::log::DirResult</title>
<!-- Node1 -->
<g id="Node000001" class="node">
<title>Node1</title>
<g id="a_Node000001"><a xlink:title=" ">
<polygon fill="#999999" stroke="none" points="130,-19.25 0,-19.25 0,0 130,0 130,-19.25"/>
<text xml:space="preserve" text-anchor="start" x="8" y="-5.8" font-family="Consolas" font-weight="bold" font-size="11.00">npi::log::DirResult</text>
</a>
</g>
</g>
<!-- Node2 -->
<g id="Node000002" class="node">
<title>Node2</title>
<g id="a_Node000002"><a xlink:title=" ">
<polygon fill="white" stroke="none" points="52,-105.5 12,-105.5 12,-86.25 52,-86.25 52,-105.5"/>
<text xml:space="preserve" text-anchor="middle" x="32" y="-91.05" font-family="Consolas" font-size="11.00">bool</text>
</a>
</g>
</g>
<!-- Node2&#45;&gt;Node1 -->
<g id="edge1_Node000001_Node000002" class="edge">
<title>Node2&#45;&gt;Node1</title>
<g id="a_edge1_Node000001_Node000002"><a xlink:title=" ">
<path fill="none" stroke="#9a32cd" stroke-dasharray="5,2" d="M31.43,-80.48C31.51,-68.38 32.96,-50.92 39.5,-37.25 42.87,-30.21 48.82,-23.83 54.13,-19.08"/>
<polygon fill="#9a32cd" stroke="#9a32cd" points="31.49,-85.38 29.18,-80.41 31.47,-84.1 31.43,-80.38 31.43,-80.38 31.43,-80.38 31.47,-84.1 33.68,-80.35 31.49,-85.38"/>
</a>
</g>
<text xml:space="preserve" text-anchor="start" x="42.5" y="-48.5" font-family="Consolas" font-size="10.00" fill="grey">error_</text>
</g>
<!-- Node3 -->
<g id="Node000003" class="node">
<title>Node3</title>
<g id="a_Node000003"><a xlink:title=" ">
<polygon fill="white" stroke="none" points="128,-105.5 70,-105.5 70,-86.25 128,-86.25 128,-105.5"/>
<text xml:space="preserve" text-anchor="middle" x="99" y="-91.05" font-family="Consolas" font-size="11.00">QString</text>
</a>
</g>
</g>
<!-- Node3&#45;&gt;Node1 -->
<g id="edge2_Node000001_Node000003" class="edge">
<title>Node3&#45;&gt;Node1</title>
<g id="a_edge2_Node000001_Node000003"><a xlink:title=" ">
<path fill="none" stroke="#9a32cd" stroke-dasharray="5,2" d="M93.97,-81.02C89.65,-69.29 83.16,-52.07 77,-37.25 74.43,-31.07 71.32,-24.18 68.91,-18.96"/>
<polygon fill="#9a32cd" stroke="#9a32cd" points="95.6,-85.46 91.77,-81.54 95.16,-84.26 93.88,-80.77 93.88,-80.77 93.88,-80.77 95.16,-84.26 95.99,-80 95.6,-85.46"/>
</a>
</g>
<text xml:space="preserve" text-anchor="start" x="91.73" y="-55.75" font-family="Consolas" font-size="10.00" fill="grey">message_</text>
<text xml:space="preserve" text-anchor="start" x="91.73" y="-41.25" font-family="Consolas" font-size="10.00" fill="grey">newPath_</text>
</g>
</g>
</svg>
