<?xml version="1.0" encoding="UTF-8" standalone="no"?>
<!DOCTYPE svg PUBLIC "-//W3C//DTD SVG 1.1//EN"
 "http://www.w3.org/Graphics/SVG/1.1/DTD/svg11.dtd">
<!-- Generated by graphviz version 14.0.0 (20250921.2048)
 -->
<!-- Title: npi::win::MutexLocker::MutexLocker Pages: 1 -->
<svg width="406pt" height="186pt"
 viewBox="0.00 0.00 406.00 186.00" xmlns="http://www.w3.org/2000/svg" xmlns:xlink="http://www.w3.org/1999/xlink">
<g id="graph0" class="graph" transform="scale(1 1) rotate(0) translate(4 181.5)">
<title>npi::win::MutexLocker::MutexLocker</title>
<!-- Node1 -->
<g id="Node000001" class="node">
<title>Node1</title>
<g id="a_Node000001"><a xlink:title="Create or open a session&#45;local named mutex and acquire it.">
<polygon fill="#999999" stroke="none" points="398,-97.88 178,-97.88 178,-78.62 398,-78.62 398,-97.88"/>
<text xml:space="preserve" text-anchor="start" x="186" y="-84.42" font-family="Consolas" font-weight="bold" font-size="11.00">npi::win::MutexLocker::MutexLocker</text>
</a>
</g>
</g>
<!-- Node2 -->
<g id="Node000002" class="node">
<title>Node2</title>
<g id="a_Node000002"><a xlink:href="../../dd/dd6/classnpi_1_1win_1_1_mutex_locker.html#a399a324cf2314176d2bebe2f75d002f8" target="_top" xlink:title="Deleted Copy Constructor.">
<polygon fill="white" stroke="none" points="142,-177.5 0,-177.5 0,-147 142,-147 142,-177.5"/>
<text xml:space="preserve" text-anchor="start" x="8" y="-163.05" font-family="Consolas" font-size="11.00">npi::win::MutexLocker</text>
<text xml:space="preserve" text-anchor="middle" x="71" y="-151.8" font-family="Consolas" font-size="11.00">::MutexLocker</text>
</a>
</g>
</g>
<!-- Node1&#45;&gt;Node2 -->
<g id="edge1_Node000001_Node000002" class="edge">
<title>Node1&#45;&gt;Node2</title>
<g id="a_edge1_Node000001_Node000002"><a xlink:title=" ">
<path fill="none" stroke="#63b8ff" d="M253.59,-99.75C216.58,-112.49 156.75,-133.08 115.96,-147.12"/>
<polygon fill="#63b8ff" stroke="#63b8ff" points="258.18,-98.17 254.19,-101.92 256.97,-98.59 253.45,-99.8 253.45,-99.8 253.45,-99.8 256.97,-98.59 252.72,-97.67 258.18,-98.17"/>
</a>
</g>
</g>
<!-- Node3 -->
<g id="Node000003" class="node">
<title>Node3</title>
<g id="a_Node000003"><a xlink:href="../../dd/dd6/classnpi_1_1win_1_1_mutex_locker.html#a1ae8e2e7f2fd918cd103927fcadfb13d" target="_top" xlink:title="Deleted Move Constructor.">
<polygon fill="white" stroke="none" points="142,-128.5 0,-128.5 0,-98 142,-98 142,-128.5"/>
<text xml:space="preserve" text-anchor="start" x="8" y="-114.05" font-family="Consolas" font-size="11.00">npi::win::MutexLocker</text>
<text xml:space="preserve" text-anchor="middle" x="71" y="-102.8" font-family="Consolas" font-size="11.00">::MutexLocker</text>
</a>
</g>
</g>
<!-- Node1&#45;&gt;Node3 -->
<g id="edge2_Node000001_Node000003" class="edge">
<title>Node1&#45;&gt;Node3</title>
<g id="a_edge2_Node000001_Node000003"><a xlink:title=" ">
<path fill="none" stroke="#63b8ff" d="M198.63,-98.53C179.65,-100.73 159.85,-103.03 141.7,-105.15"/>
<polygon fill="#63b8ff" stroke="#63b8ff" points="203.28,-97.98 198.57,-100.8 202.01,-98.13 198.31,-98.56 198.31,-98.56 198.31,-98.56 202.01,-98.13 198.05,-96.33 203.28,-97.98"/>
</a>
</g>
</g>
<!-- Node4 -->
<g id="Node000004" class="node">
<title>Node4</title>
<g id="a_Node000004"><a xlink:href="../../dd/dd6/classnpi_1_1win_1_1_mutex_locker.html#a33a2cbd112717643e44ce146662ffad4" target="_top" xlink:title="Deleted Copy Assignment.">
<polygon fill="white" stroke="none" points="142,-79.5 0,-79.5 0,-49 142,-49 142,-79.5"/>
<text xml:space="preserve" text-anchor="start" x="8" y="-65.05" font-family="Consolas" font-size="11.00">npi::win::MutexLocker</text>
<text xml:space="preserve" text-anchor="middle" x="71" y="-53.8" font-family="Consolas" font-size="11.00">::operator=</text>
</a>
</g>
</g>
<!-- Node1&#45;&gt;Node4 -->
<g id="edge3_Node000001_Node000004" class="edge">
<title>Node1&#45;&gt;Node4</title>
<g id="a_edge3_Node000001_Node000004"><a xlink:title=" ">
<path fill="none" stroke="#63b8ff" d="M194.78,-77.96C176.99,-75.97 158.64,-73.92 141.71,-72.03"/>
<polygon fill="#63b8ff" stroke="#63b8ff" points="199.58,-78.49 194.36,-80.17 198.31,-78.35 194.61,-77.94 194.61,-77.94 194.61,-77.94 198.31,-78.35 194.86,-75.7 199.58,-78.49"/>
</a>
</g>
</g>
<!-- Node5 -->
<g id="Node000005" class="node">
<title>Node5</title>
<g id="a_Node000005"><a xlink:href="../../dd/dd6/classnpi_1_1win_1_1_mutex_locker.html#a3523811ff8c06bb5ad3b7bdd9e14b9ec" target="_top" xlink:title="Deleted Move Assignment.">
<polygon fill="white" stroke="none" points="142,-30.5 0,-30.5 0,0 142,0 142,-30.5"/>
<text xml:space="preserve" text-anchor="start" x="8" y="-16.05" font-family="Consolas" font-size="11.00">npi::win::MutexLocker</text>
<text xml:space="preserve" text-anchor="middle" x="71" y="-4.8" font-family="Consolas" font-size="11.00">::operator=</text>
</a>
</g>
</g>
<!-- Node1&#45;&gt;Node5 -->
<g id="edge4_Node000001_Node000005" class="edge">
<title>Node1&#45;&gt;Node5</title>
<g id="a_edge4_Node000001_Node000005"><a xlink:title=" ">
<path fill="none" stroke="#63b8ff" d="M253.17,-76.77C216.32,-64.25 157.19,-44.18 116.57,-30.38"/>
<polygon fill="#63b8ff" stroke="#63b8ff" points="257.74,-78.31 252.28,-78.84 256.53,-77.9 253,-76.71 253,-76.71 253,-76.71 256.53,-77.9 253.73,-74.58 257.74,-78.31"/>
</a>
</g>
</g>
</g>
</svg>
