<?xml version="1.0" encoding="UTF-8" standalone="no"?>
<!DOCTYPE svg PUBLIC "-//W3C//DTD SVG 1.1//EN"
 "http://www.w3.org/Graphics/SVG/1.1/DTD/svg11.dtd">
<!-- Generated by graphviz version 14.1.5 (20260411.2331)
 -->
<!-- Title: anonymous_namespace{Log::cpp}::console::handle Pages: 1 -->
<svg width="680pt" height="68pt"
 viewBox="0.00 0.00 680.00 68.00" xmlns="http://www.w3.org/2000/svg" xmlns:xlink="http://www.w3.org/1999/xlink">
<g id="graph0" class="graph" transform="scale(1 1) rotate(0) translate(4 63.75)">
<title>anonymous_namespace{Log::cpp}::console::handle</title>
<!-- Node1 -->
<g id="Node000001" class="node">
<title>Node1</title>
<g id="a_Node000001"><a xlink:title="Returns the active console output handle when one is available.">
<polygon fill="#999999" stroke="none" points="292,-30.5 0,-30.5 0,-11.25 292,-11.25 292,-30.5"/>
<text xml:space="preserve" text-anchor="start" x="8" y="-17.05" font-family="Consolas" font-weight="bold" font-size="11.00">anonymous_namespace{Log::cpp}::console::handle</text>
</a>
</g>
</g>
<!-- Node1&#45;&gt;Node1 -->
<g id="edge1_Node000001_Node000001" class="edge">
<title>Node1&#45;&gt;Node1</title>
<g id="a_edge1_Node000001_Node000001"><a xlink:title=" ">
<path fill="none" stroke="#63b8ff" d="M106.4,-30.36C86.52,-39.09 99.71,-48.5 146,-48.5 187.22,-48.5 202.2,-41.04 190.93,-33.23"/>
<polygon fill="#63b8ff" stroke="#63b8ff" points="186.67,-30.94 192.14,-31.33 187.8,-31.54 191.07,-33.31 191.07,-33.31 191.07,-33.31 187.8,-31.54 190,-35.29 186.67,-30.94"/>
</a>
</g>
</g>
<!-- Node2 -->
<g id="Node000002" class="node">
<title>Node2</title>
<g id="a_Node000002"><a xlink:href="../../d8/d47/structanonymous__namespace_02_log_8cpp_03_1_1_leaked_state.html#ae28ae1e0989c84468f1c7dd17981e5e4" target="_top" xlink:title="Returns the intentionally leaked process&#45;wide logging state.">
<polygon fill="white" stroke="none" points="482,-41.75 328,-41.75 328,0 482,0 482,-41.75"/>
<text xml:space="preserve" text-anchor="start" x="336" y="-27.3" font-family="Consolas" font-size="11.00">anonymous_namespace</text>
<text xml:space="preserve" text-anchor="start" x="336" y="-16.05" font-family="Consolas" font-size="11.00">{Log::cpp}::LeakedState</text>
<text xml:space="preserve" text-anchor="middle" x="405" y="-4.8" font-family="Consolas" font-size="11.00">::Inst_</text>
</a>
</g>
</g>
<!-- Node1&#45;&gt;Node2 -->
<g id="edge2_Node000001_Node000002" class="edge">
<title>Node1&#45;&gt;Node2</title>
<g id="a_edge2_Node000001_Node000002"><a xlink:title=" ">
<path fill="none" stroke="#63b8ff" d="M291.65,-20.88C302.05,-20.88 312.3,-20.88 322.13,-20.88"/>
<polygon fill="#63b8ff" stroke="#63b8ff" points="326.98,-20.88 321.98,-23.13 325.7,-20.88 321.98,-20.88 321.98,-20.88 321.98,-20.88 325.7,-20.88 321.98,-18.63 326.98,-20.88"/>
</a>
</g>
</g>
<!-- Node3 -->
<g id="Node000003" class="node">
<title>Node3</title>
<g id="a_Node000003"><a xlink:href="../../d8/d47/structanonymous__namespace_02_log_8cpp_03_1_1_leaked_state.html#aa17c6f240dd55f157216265327935ac5" target="_top" xlink:title="Deleted copy constructor.">
<polygon fill="white" stroke="none" points="672,-41.75 518,-41.75 518,0 672,0 672,-41.75"/>
<text xml:space="preserve" text-anchor="start" x="526" y="-27.3" font-family="Consolas" font-size="11.00">anonymous_namespace</text>
<text xml:space="preserve" text-anchor="start" x="526" y="-16.05" font-family="Consolas" font-size="11.00">{Log::cpp}::LeakedState</text>
<text xml:space="preserve" text-anchor="middle" x="595" y="-4.8" font-family="Consolas" font-size="11.00">::LeakedState</text>
</a>
</g>
</g>
<!-- Node2&#45;&gt;Node3 -->
<g id="edge3_Node000002_Node000003" class="edge">
<title>Node2&#45;&gt;Node3</title>
<g id="a_edge3_Node000002_Node000003"><a xlink:title=" ">
<path fill="none" stroke="#63b8ff" d="M481.92,-20.88C491.8,-20.88 501.95,-20.88 511.92,-20.88"/>
<polygon fill="#63b8ff" stroke="#63b8ff" points="516.88,-20.88 511.88,-23.13 515.6,-20.88 511.88,-20.88 511.88,-20.88 511.88,-20.88 515.6,-20.88 511.88,-18.63 516.88,-20.88"/>
</a>
</g>
</g>
<!-- Node3&#45;&gt;Node3 -->
<g id="edge4_Node000003_Node000003" class="edge">
<title>Node3&#45;&gt;Node3</title>
<g id="a_edge4_Node000003_Node000003"><a xlink:title=" ">
<path fill="none" stroke="#63b8ff" d="M560.08,-41.67C556.27,-51.32 567.91,-59.75 595,-59.75 616.16,-59.75 627.9,-54.61 630.2,-47.75"/>
<polygon fill="#63b8ff" stroke="#63b8ff" points="629.98,-42.89 632.46,-47.78 630.04,-44.17 630.21,-47.88 630.21,-47.88 630.21,-47.88 630.04,-44.17 627.96,-47.99 629.98,-42.89"/>
</a>
</g>
</g>
</g>
</svg>
