<?xml version="1.0" encoding="UTF-8" standalone="no"?>
<!DOCTYPE svg PUBLIC "-//W3C//DTD SVG 1.1//EN"
 "http://www.w3.org/Graphics/SVG/1.1/DTD/svg11.dtd">
<!-- Generated by graphviz version 14.0.0 (20250921.2048)
 -->
<!-- Title: StageWindow.hpp Pages: 1 -->
<svg width="1238pt" height="83pt"
 viewBox="0.00 0.00 1238.00 83.00" xmlns="http://www.w3.org/2000/svg" xmlns:xlink="http://www.w3.org/1999/xlink">
<g id="graph0" class="graph" transform="scale(1 1) rotate(0) translate(4 78.5)">
<title>StageWindow.hpp</title>
<!-- Node1 -->
<g id="Node000001" class="node">
<title>Node1</title>
<g id="a_Node000001"><a xlink:title="Header&#45;only utility for showing a top&#45;level widget either instantly or with a source&#45;origin animation...">
<polygon fill="#999999" stroke="none" points="725,-74.5 619,-74.5 619,-55.25 725,-55.25 725,-74.5"/>
<text xml:space="preserve" text-anchor="start" x="627" y="-61.05" font-family="Consolas" font-weight="bold" font-size="11.00">StageWindow.hpp</text>
</a>
</g>
</g>
<!-- Node2 -->
<g id="Node000002" class="node">
<title>Node2</title>
<g id="a_Node000002"><a xlink:title=" ">
<polygon fill="#e0e0e0" stroke="none" points="58,-19.25 0,-19.25 0,0 58,0 58,-19.25"/>
<text xml:space="preserve" text-anchor="middle" x="29" y="-4.8" font-family="Consolas" font-size="11.00">QObject</text>
</a>
</g>
</g>
<!-- Node1&#45;&gt;Node2 -->
<g id="edge1_Node000001_Node000002" class="edge">
<title>Node1&#45;&gt;Node2</title>
<g id="a_edge1_Node000001_Node000002"><a xlink:title=" ">
<path fill="none" stroke="#63b8ff" d="M619.1,-62.63C513.57,-59.56 269.6,-49.54 67,-19.25 65.99,-19.1 64.96,-18.94 63.93,-18.76"/>
<polygon fill="#63b8ff" stroke="#63b8ff" points="59.16,-17.89 64.48,-16.58 60.42,-18.12 64.08,-18.79 64.08,-18.79 64.08,-18.79 60.42,-18.12 63.67,-21 59.16,-17.89"/>
</a>
</g>
</g>
<!-- Node3 -->
<g id="Node000003" class="node">
<title>Node3</title>
<g id="a_Node000003"><a xlink:title=" ">
<polygon fill="#e0e0e0" stroke="none" points="128,-19.25 76,-19.25 76,0 128,0 128,-19.25"/>
<text xml:space="preserve" text-anchor="middle" x="102" y="-4.8" font-family="Consolas" font-size="11.00">QStyle</text>
</a>
</g>
</g>
<!-- Node1&#45;&gt;Node3 -->
<g id="edge2_Node000001_Node000003" class="edge">
<title>Node1&#45;&gt;Node3</title>
<g id="a_edge2_Node000001_Node000003"><a xlink:title=" ">
<path fill="none" stroke="#63b8ff" d="M619.26,-62.24C522.92,-58.65 312.22,-47.96 137,-19.25 135.98,-19.08 134.95,-18.9 133.91,-18.71"/>
<polygon fill="#63b8ff" stroke="#63b8ff" points="129.09,-17.73 134.44,-16.52 130.35,-17.99 133.99,-18.73 133.99,-18.73 133.99,-18.73 130.35,-17.99 133.55,-20.93 129.09,-17.73"/>
</a>
</g>
</g>
<!-- Node4 -->
<g id="Node000004" class="node">
<title>Node4</title>
<g id="a_Node000004"><a xlink:title=" ">
<polygon fill="#e0e0e0" stroke="none" points="204,-19.25 146,-19.25 146,0 204,0 204,-19.25"/>
<text xml:space="preserve" text-anchor="middle" x="175" y="-4.8" font-family="Consolas" font-size="11.00">QWidget</text>
</a>
</g>
</g>
<!-- Node1&#45;&gt;Node4 -->
<g id="edge3_Node000001_Node000004" class="edge">
<title>Node1&#45;&gt;Node4</title>
<g id="a_edge3_Node000001_Node000004"><a xlink:title=" ">
<path fill="none" stroke="#63b8ff" d="M619.06,-60.91C533.34,-55.61 359.03,-42.82 213,-19.25 211.99,-19.09 210.97,-18.91 209.93,-18.73"/>
<polygon fill="#63b8ff" stroke="#63b8ff" points="205.17,-17.82 210.5,-16.55 206.43,-18.06 210.08,-18.76 210.08,-18.76 210.08,-18.76 206.43,-18.06 209.66,-20.97 205.17,-17.82"/>
</a>
</g>
</g>
<!-- Node5 -->
<g id="Node000005" class="node">
<title>Node5</title>
<g id="a_Node000005"><a xlink:title=" ">
<polygon fill="#e0e0e0" stroke="none" points="280,-19.25 222,-19.25 222,0 280,0 280,-19.25"/>
<text xml:space="preserve" text-anchor="middle" x="251" y="-4.8" font-family="Consolas" font-size="11.00">QScreen</text>
</a>
</g>
</g>
<!-- Node1&#45;&gt;Node5 -->
<g id="edge4_Node000001_Node000005" class="edge">
<title>Node1&#45;&gt;Node5</title>
<g id="a_edge4_Node000001_Node000005"><a xlink:title=" ">
<path fill="none" stroke="#63b8ff" d="M619.08,-59.52C544.95,-53 406.12,-39.31 289,-19.25 287.99,-19.08 286.97,-18.89 285.94,-18.7"/>
<polygon fill="#63b8ff" stroke="#63b8ff" points="281.18,-17.77 286.52,-16.52 282.44,-18.02 286.08,-18.73 286.08,-18.73 286.08,-18.73 282.44,-18.02 285.65,-20.94 281.18,-17.77"/>
</a>
</g>
</g>
<!-- Node6 -->
<g id="Node000006" class="node">
<title>Node6</title>
<g id="a_Node000006"><a xlink:title=" ">
<polygon fill="#e0e0e0" stroke="none" points="362,-19.25 298,-19.25 298,0 362,0 362,-19.25"/>
<text xml:space="preserve" text-anchor="middle" x="330" y="-4.8" font-family="Consolas" font-size="11.00">QPointer</text>
</a>
</g>
</g>
<!-- Node1&#45;&gt;Node6 -->
<g id="edge5_Node000001_Node000006" class="edge">
<title>Node1&#45;&gt;Node6</title>
<g id="a_edge5_Node000001_Node000006"><a xlink:title=" ">
<path fill="none" stroke="#63b8ff" d="M619.1,-57.01C558.86,-48.97 457.58,-34.76 371,-19.25 369.87,-19.05 368.73,-18.84 367.57,-18.62"/>
<polygon fill="#63b8ff" stroke="#63b8ff" points="362.94,-17.73 368.28,-16.47 364.2,-17.97 367.85,-18.68 367.85,-18.68 367.85,-18.68 364.2,-17.97 367.43,-20.89 362.94,-17.73"/>
</a>
</g>
</g>
<!-- Node7 -->
<g id="Node000007" class="node">
<title>Node7</title>
<g id="a_Node000007"><a xlink:title=" ">
<polygon fill="#e0e0e0" stroke="none" points="468,-19.25 380,-19.25 380,0 468,0 468,-19.25"/>
<text xml:space="preserve" text-anchor="middle" x="424" y="-4.8" font-family="Consolas" font-size="11.00">QApplication</text>
</a>
</g>
</g>
<!-- Node1&#45;&gt;Node7 -->
<g id="edge6_Node000001_Node000007" class="edge">
<title>Node1&#45;&gt;Node7</title>
<g id="a_edge6_Node000001_Node000007"><a xlink:title=" ">
<path fill="none" stroke="#63b8ff" d="M631.88,-55.26C587.57,-45.75 516.38,-30.46 469.89,-20.48"/>
<polygon fill="#63b8ff" stroke="#63b8ff" points="465.25,-19.48 470.62,-18.33 466.51,-19.75 470.14,-20.53 470.14,-20.53 470.14,-20.53 466.51,-19.75 469.67,-22.73 465.25,-19.48"/>
</a>
</g>
</g>
<!-- Node8 -->
<g id="Node000008" class="node">
<title>Node8</title>
<g id="a_Node000008"><a xlink:title=" ">
<polygon fill="#e0e0e0" stroke="none" points="610,-19.25 486,-19.25 486,0 610,0 610,-19.25"/>
<text xml:space="preserve" text-anchor="middle" x="548" y="-4.8" font-family="Consolas" font-size="11.00">QPropertyAnimation</text>
</a>
</g>
</g>
<!-- Node1&#45;&gt;Node8 -->
<g id="edge7_Node000001_Node000008" class="edge">
<title>Node1&#45;&gt;Node8</title>
<g id="a_edge7_Node000001_Node000008"><a xlink:title=" ">
<path fill="none" stroke="#63b8ff" d="M652.08,-55.32C630.75,-46.16 596.83,-31.59 573.55,-21.6"/>
<polygon fill="#63b8ff" stroke="#63b8ff" points="568.99,-19.64 574.48,-19.55 570.17,-20.15 573.59,-21.61 573.59,-21.61 573.59,-21.61 570.17,-20.15 572.7,-23.68 568.99,-19.64"/>
</a>
</g>
</g>
<!-- Node9 -->
<g id="Node000009" class="node">
<title>Node9</title>
<g id="a_Node000009"><a xlink:title=" ">
<polygon fill="#e0e0e0" stroke="none" points="716,-19.25 628,-19.25 628,0 716,0 716,-19.25"/>
<text xml:space="preserve" text-anchor="middle" x="672" y="-4.8" font-family="Consolas" font-size="11.00">QEasingCurve</text>
</a>
</g>
</g>
<!-- Node1&#45;&gt;Node9 -->
<g id="edge8_Node000001_Node000009" class="edge">
<title>Node1&#45;&gt;Node9</title>
<g id="a_edge8_Node000001_Node000009"><a xlink:title=" ">
<path fill="none" stroke="#63b8ff" d="M672,-55.55C672,-47.4 672,-34.79 672,-25.01"/>
<polygon fill="#63b8ff" stroke="#63b8ff" points="672,-20.28 674.25,-25.28 672,-21.56 672,-25.28 672,-25.28 672,-25.28 672,-21.56 669.75,-25.28 672,-20.28"/>
</a>
</g>
</g>
<!-- Node10 -->
<g id="Node000010" class="node">
<title>Node10</title>
<g id="a_Node000010"><a xlink:title=" ">
<polygon fill="#e0e0e0" stroke="none" points="792,-19.25 734,-19.25 734,0 792,0 792,-19.25"/>
<text xml:space="preserve" text-anchor="middle" x="763" y="-4.8" font-family="Consolas" font-size="11.00">QCursor</text>
</a>
</g>
</g>
<!-- Node1&#45;&gt;Node10 -->
<g id="edge9_Node000001_Node000010" class="edge">
<title>Node1&#45;&gt;Node10</title>
<g id="a_edge9_Node000001_Node000010"><a xlink:title=" ">
<path fill="none" stroke="#63b8ff" d="M686.62,-55.32C702.01,-46.31 726.32,-32.09 743.37,-22.11"/>
<polygon fill="#63b8ff" stroke="#63b8ff" points="747.36,-19.77 744.18,-24.24 746.26,-20.42 743.05,-22.3 743.05,-22.3 743.05,-22.3 746.26,-20.42 741.91,-20.36 747.36,-19.77"/>
</a>
</g>
</g>
<!-- Node11 -->
<g id="Node000011" class="node">
<title>Node11</title>
<g id="a_Node000011"><a xlink:title=" ">
<polygon fill="#e0e0e0" stroke="none" points="862,-19.25 810,-19.25 810,0 862,0 862,-19.25"/>
<text xml:space="preserve" text-anchor="middle" x="836" y="-4.8" font-family="Consolas" font-size="11.00">QPoint</text>
</a>
</g>
</g>
<!-- Node1&#45;&gt;Node11 -->
<g id="edge10_Node000001_Node000011" class="edge">
<title>Node1&#45;&gt;Node11</title>
<g id="a_edge10_Node000001_Node000011"><a xlink:title=" ">
<path fill="none" stroke="#63b8ff" d="M698.35,-55.32C727.33,-45.91 773.87,-30.8 804.69,-20.79"/>
<polygon fill="#63b8ff" stroke="#63b8ff" points="809.1,-19.36 805.04,-23.04 807.88,-19.76 804.34,-20.9 804.34,-20.9 804.34,-20.9 807.88,-19.76 803.65,-18.76 809.1,-19.36"/>
</a>
</g>
</g>
<!-- Node12 -->
<g id="Node000012" class="node">
<title>Node12</title>
<g id="a_Node000012"><a xlink:title=" ">
<polygon fill="#e0e0e0" stroke="none" points="926,-19.25 880,-19.25 880,0 926,0 926,-19.25"/>
<text xml:space="preserve" text-anchor="middle" x="903" y="-4.8" font-family="Consolas" font-size="11.00">QRect</text>
</a>
</g>
</g>
<!-- Node1&#45;&gt;Node12 -->
<g id="edge11_Node000001_Node000012" class="edge">
<title>Node1&#45;&gt;Node12</title>
<g id="a_edge11_Node000001_Node000012"><a xlink:title=" ">
<path fill="none" stroke="#63b8ff" d="M712.52,-55.32C752.81,-46.69 816.34,-32.74 871,-19.25 872.13,-18.97 873.28,-18.68 874.45,-18.39"/>
<polygon fill="#63b8ff" stroke="#63b8ff" points="879.13,-17.18 874.85,-20.61 877.89,-17.5 874.29,-18.43 874.29,-18.43 874.29,-18.43 877.89,-17.5 873.72,-16.25 879.13,-17.18"/>
</a>
</g>
</g>
<!-- Node13 -->
<g id="Node000013" class="node">
<title>Node13</title>
<g id="a_Node000013"><a xlink:title=" ">
<polygon fill="#e0e0e0" stroke="none" points="996,-19.25 944,-19.25 944,0 996,0 996,-19.25"/>
<text xml:space="preserve" text-anchor="middle" x="970" y="-4.8" font-family="Consolas" font-size="11.00">QColor</text>
</a>
</g>
</g>
<!-- Node1&#45;&gt;Node13 -->
<g id="edge12_Node000001_Node000013" class="edge">
<title>Node1&#45;&gt;Node13</title>
<g id="a_edge12_Node000001_Node000013"><a xlink:title=" ">
<path fill="none" stroke="#63b8ff" d="M724.86,-56.08C778.12,-47.94 862.56,-34.3 935,-19.25 936.01,-19.04 937.04,-18.82 938.07,-18.6"/>
<polygon fill="#63b8ff" stroke="#63b8ff" points="942.87,-17.51 938.49,-20.81 941.62,-17.79 937.99,-18.61 937.99,-18.61 937.99,-18.61 941.62,-17.79 937.49,-16.42 942.87,-17.51"/>
</a>
</g>
</g>
<!-- Node14 -->
<g id="Node000014" class="node">
<title>Node14</title>
<g id="a_Node000014"><a xlink:title=" ">
<polygon fill="#e0e0e0" stroke="none" points="1078,-19.25 1014,-19.25 1014,0 1078,0 1078,-19.25"/>
<text xml:space="preserve" text-anchor="middle" x="1046" y="-4.8" font-family="Consolas" font-size="11.00">QPalette</text>
</a>
</g>
</g>
<!-- Node1&#45;&gt;Node14 -->
<g id="edge13_Node000001_Node000014" class="edge">
<title>Node1&#45;&gt;Node14</title>
<g id="a_edge13_Node000001_Node000014"><a xlink:title=" ">
<path fill="none" stroke="#63b8ff" d="M724.96,-58.01C790.81,-50.43 906.56,-36.18 1005,-19.25 1006.13,-19.06 1007.27,-18.85 1008.43,-18.64"/>
<polygon fill="#63b8ff" stroke="#63b8ff" points="1013.06,-17.77 1008.57,-20.91 1011.8,-18.01 1008.15,-18.7 1008.15,-18.7 1008.15,-18.7 1011.8,-18.01 1007.73,-16.48 1013.06,-17.77"/>
</a>
</g>
</g>
<!-- Node15 -->
<g id="Node000015" class="node">
<title>Node15</title>
<g id="a_Node000015"><a xlink:title=" ">
<polygon fill="#e0e0e0" stroke="none" points="1160,-19.25 1096,-19.25 1096,0 1160,0 1160,-19.25"/>
<text xml:space="preserve" text-anchor="middle" x="1128" y="-4.8" font-family="Consolas" font-size="11.00">QtGlobal</text>
</a>
</g>
</g>
<!-- Node1&#45;&gt;Node15 -->
<g id="edge14_Node000001_Node000015" class="edge">
<title>Node1&#45;&gt;Node15</title>
<g id="a_edge14_Node000001_Node000015"><a xlink:title=" ">
<path fill="none" stroke="#63b8ff" d="M724.96,-59.89C804.07,-53.55 957.64,-39.76 1087,-19.25 1088.13,-19.07 1089.28,-18.88 1090.44,-18.68"/>
<polygon fill="#63b8ff" stroke="#63b8ff" points="1095.08,-17.84 1090.56,-20.95 1093.81,-18.07 1090.15,-18.73 1090.15,-18.73 1090.15,-18.73 1093.81,-18.07 1089.75,-16.52 1095.08,-17.84"/>
</a>
</g>
</g>
<!-- Node16 -->
<g id="Node000016" class="node">
<title>Node16</title>
<g id="a_Node000016"><a xlink:title=" ">
<polygon fill="#e0e0e0" stroke="none" points="1230,-19.25 1178,-19.25 1178,0 1230,0 1230,-19.25"/>
<text xml:space="preserve" text-anchor="middle" x="1204" y="-4.8" font-family="Consolas" font-size="11.00">QtMath</text>
</a>
</g>
</g>
<!-- Node1&#45;&gt;Node16 -->
<g id="edge15_Node000001_Node000016" class="edge">
<title>Node1&#45;&gt;Node16</title>
<g id="a_edge15_Node000001_Node000016"><a xlink:title=" ">
<path fill="none" stroke="#63b8ff" d="M724.93,-61.77C816.14,-57.55 1008.57,-46.06 1169,-19.25 1170.02,-19.08 1171.05,-18.9 1172.09,-18.7"/>
<polygon fill="#63b8ff" stroke="#63b8ff" points="1176.9,-17.72 1172.46,-20.92 1175.65,-17.97 1172.01,-18.72 1172.01,-18.72 1172.01,-18.72 1175.65,-17.97 1171.55,-16.51 1176.9,-17.72"/>
</a>
</g>
</g>
</g>
</svg>
