<?xml version="1.0" encoding="UTF-8" standalone="no"?>
<!DOCTYPE svg PUBLIC "-//W3C//DTD SVG 1.1//EN"
 "http://www.w3.org/Graphics/SVG/1.1/DTD/svg11.dtd">
<!-- Generated by graphviz version 14.0.0 (20250921.2048)
 -->
<!-- Title: OneLog Pages: 1 -->
<svg width="729pt" height="229pt"
 viewBox="0.00 0.00 729.00 229.00" xmlns="http://www.w3.org/2000/svg" xmlns:xlink="http://www.w3.org/1999/xlink">
<g id="graph0" class="graph" transform="scale(1 1) rotate(0) translate(4 224.75)">
<title>OneLog</title>
<!-- Node1 -->
<g id="Node000001" class="node">
<title>Node1</title>
<g id="a_Node000001"><a xlink:title=" ">
<polygon fill="#999999" stroke="none" points="311,-19.25 259,-19.25 259,0 311,0 311,-19.25"/>
<text xml:space="preserve" text-anchor="start" x="267" y="-5.8" font-family="Consolas" font-weight="bold" font-size="11.00">OneLog</text>
</a>
</g>
</g>
<!-- Node2 -->
<g id="Node000002" class="node">
<title>Node2</title>
<g id="a_Node000002"><a xlink:title=" ">
<polygon fill="white" stroke="none" points="58,-120 0,-120 0,-100.75 58,-100.75 58,-120"/>
<text xml:space="preserve" text-anchor="middle" x="29" y="-105.55" font-family="Consolas" font-size="11.00">quint32</text>
</a>
</g>
</g>
<!-- Node2&#45;&gt;Node1 -->
<g id="edge1_Node000001_Node000002" class="edge">
<title>Node2&#45;&gt;Node1</title>
<g id="a_edge1_Node000001_Node000002"><a xlink:title=" ">
<path fill="none" stroke="#9a32cd" stroke-dasharray="5,2" d="M28.62,-95.13C29.02,-78.52 32.46,-51.53 49.25,-37.25 80.39,-10.77 204.98,-9.34 259.38,-10.04"/>
<polygon fill="#9a32cd" stroke="#9a32cd" points="28.6,-99.92 26.37,-94.91 28.61,-98.64 28.62,-94.92 28.62,-94.92 28.62,-94.92 28.61,-98.64 30.87,-94.93 28.6,-99.92"/>
</a>
</g>
<text xml:space="preserve" text-anchor="start" x="52.25" y="-55.75" font-family="Consolas" font-size="10.00" fill="grey">thread_</text>
</g>
<!-- Node3 -->
<g id="Node000003" class="node">
<title>Node3</title>
<g id="a_Node000003"><a xlink:title=" ">
<polygon fill="white" stroke="none" points="122,-120 76,-120 76,-100.75 122,-100.75 122,-120"/>
<text xml:space="preserve" text-anchor="middle" x="99" y="-105.55" font-family="Consolas" font-size="11.00">DWORD</text>
</a>
</g>
</g>
<!-- Node3&#45;&gt;Node1 -->
<g id="edge2_Node000001_Node000003" class="edge">
<title>Node3&#45;&gt;Node1</title>
<g id="a_edge2_Node000001_Node000003"><a xlink:title=" ">
<path fill="none" stroke="#9a32cd" stroke-dasharray="5,2" d="M96.61,-94.93C94.8,-78.58 94.76,-52.29 109.75,-37.25 130.23,-16.71 215.57,-11.98 259.15,-10.92"/>
<polygon fill="#9a32cd" stroke="#9a32cd" points="97.23,-99.65 94.34,-94.99 97.06,-98.38 96.57,-94.7 96.57,-94.7 96.57,-94.7 97.06,-98.38 98.81,-94.4 97.23,-99.65"/>
</a>
</g>
<text xml:space="preserve" text-anchor="start" x="112.75" y="-55.75" font-family="Consolas" font-size="10.00" fill="grey">threadId_</text>
</g>
<!-- Node4 -->
<g id="Node000004" class="node">
<title>Node4</title>
<g id="a_Node000004"><a xlink:title=" ">
<polygon fill="white" stroke="none" points="185,-120 151,-120 151,-100.75 185,-100.75 185,-120"/>
<text xml:space="preserve" text-anchor="middle" x="168" y="-105.55" font-family="Consolas" font-size="11.00">int</text>
</a>
</g>
</g>
<!-- Node4&#45;&gt;Node1 -->
<g id="edge3_Node000001_Node000004" class="edge">
<title>Node4&#45;&gt;Node1</title>
<g id="a_edge3_Node000001_Node000004"><a xlink:title=" ">
<path fill="none" stroke="#9a32cd" stroke-dasharray="5,2" d="M167.02,-95.1C166.73,-78.91 168.87,-52.77 183.75,-37.25 203.25,-16.91 236.25,-11.44 259.26,-10.29"/>
<polygon fill="#9a32cd" stroke="#9a32cd" points="167.19,-99.75 164.76,-94.84 167.15,-98.47 167.01,-94.76 167.01,-94.76 167.01,-94.76 167.15,-98.47 169.26,-94.67 167.19,-99.75"/>
</a>
</g>
<text xml:space="preserve" text-anchor="start" x="186.75" y="-55.75" font-family="Consolas" font-size="10.00" fill="grey">fileLine_</text>
</g>
<!-- Node5 -->
<g id="Node000005" class="node">
<title>Node5</title>
<g id="a_Node000005"><a xlink:title=" ">
<polygon fill="white" stroke="none" points="273,-120 203,-120 203,-100.75 273,-100.75 273,-120"/>
<text xml:space="preserve" text-anchor="middle" x="238" y="-105.55" font-family="Consolas" font-size="11.00">QtMsgType</text>
</a>
</g>
</g>
<!-- Node5&#45;&gt;Node1 -->
<g id="edge4_Node000001_Node000005" class="edge">
<title>Node5&#45;&gt;Node1</title>
<g id="a_edge4_Node000001_Node000005"><a xlink:title=" ">
<path fill="none" stroke="#9a32cd" stroke-dasharray="5,2" d="M239.3,-94.84C241.21,-79.58 245.77,-55.35 256.5,-37.25 260.71,-30.14 267.38,-23.76 273.21,-19.03"/>
<polygon fill="#9a32cd" stroke="#9a32cd" points="238.78,-99.57 237.09,-94.36 238.92,-98.3 239.33,-94.6 239.33,-94.6 239.33,-94.6 238.92,-98.3 241.57,-94.85 238.78,-99.57"/>
</a>
</g>
<text xml:space="preserve" text-anchor="start" x="259.5" y="-55.75" font-family="Consolas" font-size="10.00" fill="grey">level_</text>
</g>
<!-- Node6 -->
<g id="Node000006" class="node">
<title>Node6</title>
<g id="a_Node000006"><a xlink:title=" ">
<polygon fill="white" stroke="none" points="367,-120 291,-120 291,-100.75 367,-100.75 367,-120"/>
<text xml:space="preserve" text-anchor="middle" x="329" y="-105.55" font-family="Consolas" font-size="11.00">time_point</text>
</a>
</g>
</g>
<!-- Node6&#45;&gt;Node1 -->
<g id="edge5_Node000001_Node000006" class="edge">
<title>Node6&#45;&gt;Node1</title>
<g id="a_edge5_Node000001_Node000006"><a xlink:title=" ">
<path fill="none" stroke="#9a32cd" stroke-dasharray="5,2" d="M322.74,-95.34C313.46,-74.49 296.3,-35.99 288.74,-19.02"/>
<polygon fill="#9a32cd" stroke="#9a32cd" points="324.75,-99.84 320.66,-96.19 324.23,-98.67 322.72,-95.28 322.72,-95.28 322.72,-95.28 324.23,-98.67 324.77,-94.36 324.75,-99.84"/>
</a>
</g>
<text xml:space="preserve" text-anchor="start" x="319" y="-55.75" font-family="Consolas" font-size="10.00" fill="grey">dateTime_</text>
</g>
<!-- Node7 -->
<g id="Node000007" class="node">
<title>Node7</title>
<g id="a_Node000007"><a xlink:title=" ">
<polygon fill="white" stroke="none" points="437,-120 385,-120 385,-100.75 437,-100.75 437,-120"/>
<text xml:space="preserve" text-anchor="middle" x="411" y="-105.55" font-family="Consolas" font-size="11.00">qint64</text>
</a>
</g>
</g>
<!-- Node7&#45;&gt;Node1 -->
<g id="edge6_Node000001_Node000007" class="edge">
<title>Node7&#45;&gt;Node1</title>
<g id="a_edge6_Node000001_Node000007"><a xlink:title=" ">
<path fill="none" stroke="#9a32cd" stroke-dasharray="5,2" d="M403.15,-95.72C400.81,-91.58 398.27,-87 396,-82.75 385.33,-62.76 390.36,-51.82 373,-37.25 355.39,-22.47 329.75,-15.9 310.68,-12.97"/>
<polygon fill="#9a32cd" stroke="#9a32cd" points="405.57,-99.98 401.14,-96.74 404.94,-98.86 403.1,-95.63 403.1,-95.63 403.1,-95.63 404.94,-98.86 405.06,-94.52 405.57,-99.98"/>
</a>
</g>
<text xml:space="preserve" text-anchor="start" x="399" y="-70.25" font-family="Consolas" font-size="10.00" fill="grey">threadDelta_</text>
<text xml:space="preserve" text-anchor="start" x="399" y="-55.75" font-family="Consolas" font-size="10.00" fill="grey">threadTime_</text>
<text xml:space="preserve" text-anchor="start" x="399" y="-41.25" font-family="Consolas" font-size="10.00" fill="grey">upTime_</text>
</g>
<!-- Node8 -->
<g id="Node000008" class="node">
<title>Node8</title>
<g id="a_Node000008"><a xlink:title=" ">
<polygon fill="white" stroke="none" points="516,-120 458,-120 458,-100.75 516,-100.75 516,-120"/>
<text xml:space="preserve" text-anchor="middle" x="487" y="-105.55" font-family="Consolas" font-size="11.00">QString</text>
</a>
</g>
</g>
<!-- Node8&#45;&gt;Node1 -->
<g id="edge7_Node000001_Node000008" class="edge">
<title>Node8&#45;&gt;Node1</title>
<g id="a_edge7_Node000001_Node000008"><a xlink:title=" ">
<path fill="none" stroke="#9a32cd" stroke-dasharray="5,2" d="M486.92,-95.19C486.01,-78.65 481.82,-51.73 465,-37.25 442.38,-17.77 355.05,-12.54 310.89,-11.14"/>
<polygon fill="#9a32cd" stroke="#9a32cd" points="487.09,-99.96 484.67,-95.05 487.05,-98.68 486.91,-94.97 486.91,-94.97 486.91,-94.97 487.05,-98.68 489.16,-94.89 487.09,-99.96"/>
</a>
</g>
<text xml:space="preserve" text-anchor="start" x="488.52" y="-55.75" font-family="Consolas" font-size="10.00" fill="grey">message_</text>
</g>
<!-- Node9 -->
<g id="Node000009" class="node">
<title>Node9</title>
<g id="a_Node000009"><a xlink:href="../../d5/da5/_main_window_8cpp.html#dd/d36/struct_fixed_strings" target="_top" xlink:title=" ">
<polygon fill="white" stroke="none" points="622,-120 534,-120 534,-100.75 622,-100.75 622,-120"/>
<text xml:space="preserve" text-anchor="middle" x="578" y="-105.55" font-family="Consolas" font-size="11.00">FixedStrings</text>
</a>
</g>
</g>
<!-- Node9&#45;&gt;Node1 -->
<g id="edge8_Node000001_Node000009" class="edge">
<title>Node9&#45;&gt;Node1</title>
<g id="a_edge8_Node000001_Node000009"><a xlink:title=" ">
<path fill="none" stroke="#9a32cd" stroke-dasharray="5,2" d="M574.45,-95.27C569.41,-78.4 558.42,-50.76 538,-37.25 501.17,-12.87 367.47,-10.34 310.74,-10.39"/>
<polygon fill="#9a32cd" stroke="#9a32cd" points="575.72,-99.78 572.2,-95.57 575.37,-98.54 574.37,-94.96 574.37,-94.96 574.37,-94.96 575.37,-98.54 576.53,-94.36 575.72,-99.78"/>
</a>
</g>
<text xml:space="preserve" text-anchor="start" x="573.19" y="-55.75" font-family="Consolas" font-size="10.00" fill="grey">fixedStrings_</text>
</g>
<!-- Node10 -->
<g id="Node000010" class="node">
<title>Node10</title>
<g id="a_Node000010"><a xlink:title=" ">
<polygon fill="white" stroke="none" points="518,-220.75 454,-220.75 454,-201.5 518,-201.5 518,-220.75"/>
<text xml:space="preserve" text-anchor="middle" x="486" y="-206.3" font-family="Consolas" font-size="11.00">uint32_t</text>
</a>
</g>
</g>
<!-- Node10&#45;&gt;Node9 -->
<g id="edge9_Node000009_Node000010" class="edge">
<title>Node10&#45;&gt;Node9</title>
<g id="a_edge9_Node000009_Node000010"><a xlink:title=" ">
<path fill="none" stroke="#9a32cd" stroke-dasharray="5,2" d="M486,-196.04C486.75,-180.03 490.37,-154.05 505,-138 512.73,-129.53 523.37,-123.75 534.14,-119.8"/>
<polygon fill="#9a32cd" stroke="#9a32cd" points="485.87,-200.62 483.76,-195.56 485.9,-199.34 486.01,-195.62 486.01,-195.62 486.01,-195.62 485.9,-199.34 488.26,-195.69 485.87,-200.62"/>
</a>
</g>
<text xml:space="preserve" text-anchor="start" x="508" y="-156.5" font-family="Consolas" font-size="10.00" fill="grey">funcNameLen_</text>
</g>
<!-- Node11 -->
<g id="Node000011" class="node">
<title>Node11</title>
<g id="a_Node000011"><a xlink:title=" ">
<polygon fill="white" stroke="none" points="610,-220.75 546,-220.75 546,-201.5 610,-201.5 610,-220.75"/>
<text xml:space="preserve" text-anchor="middle" x="578" y="-206.3" font-family="Consolas" font-size="11.00">uint16_t</text>
</a>
</g>
</g>
<!-- Node11&#45;&gt;Node9 -->
<g id="edge10_Node000009_Node000011" class="edge">
<title>Node11&#45;&gt;Node9</title>
<g id="a_edge10_Node000009_Node000011"><a xlink:title=" ">
<path fill="none" stroke="#9a32cd" stroke-dasharray="5,2" d="M578,-195.54C578,-174.58 578,-136.59 578,-119.77"/>
<polygon fill="#9a32cd" stroke="#9a32cd" points="578,-200.49 575.75,-195.49 578,-199.21 578,-195.49 578,-195.49 578,-195.49 578,-199.21 580.25,-195.49 578,-200.49"/>
</a>
</g>
<text xml:space="preserve" text-anchor="start" x="581" y="-163.75" font-family="Consolas" font-size="10.00" fill="grey">categoryLen_</text>
<text xml:space="preserve" text-anchor="start" x="581" y="-149.25" font-family="Consolas" font-size="10.00" fill="grey">fileNameLen_</text>
</g>
<!-- Node12 -->
<g id="Node000012" class="node">
<title>Node12</title>
<g id="a_Node000012"><a xlink:title=" ">
<polygon fill="white" stroke="none" points="690,-220.75 650,-220.75 650,-201.5 690,-201.5 690,-220.75"/>
<text xml:space="preserve" text-anchor="middle" x="670" y="-206.3" font-family="Consolas" font-size="11.00">char</text>
</a>
</g>
</g>
<!-- Node12&#45;&gt;Node9 -->
<g id="edge11_Node000009_Node000012" class="edge">
<title>Node12&#45;&gt;Node9</title>
<g id="a_edge11_Node000009_Node000012"><a xlink:title=" ">
<path fill="none" stroke="#9a32cd" stroke-dasharray="5,2" d="M669.31,-196.04C667.78,-180.03 663,-154.04 648,-138 640.19,-129.64 629.47,-123.88 618.78,-119.93"/>
<polygon fill="#9a32cd" stroke="#9a32cd" points="669.66,-200.62 667.03,-195.81 669.56,-199.35 669.27,-195.64 669.27,-195.64 669.27,-195.64 669.56,-199.35 671.52,-195.46 669.66,-200.62"/>
</a>
</g>
<text xml:space="preserve" text-anchor="start" x="670.58" y="-171" font-family="Consolas" font-size="10.00" fill="grey">category_</text>
<text xml:space="preserve" text-anchor="start" x="670.58" y="-156.5" font-family="Consolas" font-size="10.00" fill="grey">fileName_</text>
<text xml:space="preserve" text-anchor="start" x="670.58" y="-142" font-family="Consolas" font-size="10.00" fill="grey">funcName_</text>
</g>
</g>
</svg>
