<?xml version="1.0" encoding="UTF-8" standalone="no"?>
<!DOCTYPE svg PUBLIC "-//W3C//DTD SVG 1.1//EN"
 "http://www.w3.org/Graphics/SVG/1.1/DTD/svg11.dtd">
<!-- Generated by graphviz version 14.0.0 (20250921.2048)
 -->
<!-- Title: Props::Props Pages: 1 -->
<svg width="244pt" height="138pt"
 viewBox="0.00 0.00 244.00 138.00" xmlns="http://www.w3.org/2000/svg" xmlns:xlink="http://www.w3.org/1999/xlink">

<svg id="main" version="1.1" xmlns="http://www.w3.org/2000/svg" xmlns:xlink="http://www.w3.org/1999/xlink" xml:space="preserve">

<style type="text/css"><![CDATA[
.node, .edge {opacity: 0.7;}
.node.selected, .edge.selected {opacity: 1;}
.edge:hover path { stroke: red; }
.edge:hover polygon { stroke: red; fill: red; }
]]></style>
<script type="application/ecmascript" xlink:href="../../svg.min.js"/>
<svg id="graph" class="graph">
<g id="graph0" class="graph" transform="scale(1 1) rotate(0) translate(4 134.25)">
<title>Props::Props</title>
<!-- Node1 -->
<g id="Node000001" class="node">
<title>Node1</title>
<g id="a_Node000001"><a xlink:title=" ">
<polygon fill="#999999" stroke="none" points="236,-74.25 148,-74.25 148,-55 236,-55 236,-74.25"/>
<text xml:space="preserve" text-anchor="start" x="156" y="-60.8" font-family="Consolas" font-weight="bold" font-size="11.00">Props::Props</text>
</a>
</g>
</g>
<!-- Node2 -->
<g id="Node000002" class="node">
<title>Node2</title>
<g id="a_Node000002"><a xlink:href="../../dc/d1b/struct_props.html#ae8e54f9d11c69ee0561a37624fed086c" target="_top" xlink:title=" ">
<polygon fill="white" stroke="none" points="100,-130.25 12,-130.25 12,-111 100,-111 100,-130.25"/>
<text xml:space="preserve" text-anchor="middle" x="56" y="-115.8" font-family="Consolas" font-size="11.00">Props::Props</text>
</a>
</g>
</g>
<!-- Node1&#45;&gt;Node2 -->
<g id="edge1_Node000001_Node000002" class="edge">
<title>Node1&#45;&gt;Node2</title>
<g id="a_edge1_Node000001_Node000002"><a xlink:title=" ">
<path fill="none" stroke="#63b8ff" d="M167.34,-77.02C151.83,-84.89 130.99,-94.99 112,-102.62 104.54,-105.62 96.38,-108.51 88.67,-111.05"/>
<polygon fill="#63b8ff" stroke="#63b8ff" points="171.71,-74.79 168.28,-79.07 170.57,-75.37 167.26,-77.06 167.26,-77.06 167.26,-77.06 170.57,-75.37 166.23,-75.06 171.71,-74.79"/>
</a>
</g>
</g>
<!-- Node3 -->
<g id="Node000003" class="node">
<title>Node3</title>
<g id="a_Node000003"><a xlink:href="../../dc/d1b/struct_props.html#a4a0bed8a740ea8874de5643c8ee4b852" target="_top" xlink:title=" ">
<polygon fill="white" stroke="none" points="100,-93.25 12,-93.25 12,-74 100,-74 100,-93.25"/>
<text xml:space="preserve" text-anchor="middle" x="56" y="-78.8" font-family="Consolas" font-size="11.00">Props::Props</text>
</a>
</g>
</g>
<!-- Node1&#45;&gt;Node3 -->
<g id="edge2_Node000001_Node000003" class="edge">
<title>Node1&#45;&gt;Node3</title>
<g id="a_edge2_Node000001_Node000003"><a xlink:title=" ">
<path fill="none" stroke="#63b8ff" d="M142.35,-71.52C128.43,-73.5 113.36,-75.63 99.82,-77.55"/>
<polygon fill="#63b8ff" stroke="#63b8ff" points="147.03,-70.86 142.39,-73.79 145.76,-71.04 142.08,-71.56 142.08,-71.56 142.08,-71.56 145.76,-71.04 141.76,-69.33 147.03,-70.86"/>
</a>
</g>
</g>
<!-- Node4 -->
<g id="Node000004" class="node">
<title>Node4</title>
<g id="a_Node000004"><a xlink:href="../../dc/d1b/struct_props.html#a1cdac499b59c9dbdf1234dd67c8f2ada" target="_top" xlink:title=" ">
<polygon fill="white" stroke="none" points="112,-56.25 0,-56.25 0,-37 112,-37 112,-56.25"/>
<text xml:space="preserve" text-anchor="middle" x="56" y="-41.8" font-family="Consolas" font-size="11.00">Props::operator=</text>
</a>
</g>
</g>
<!-- Node1&#45;&gt;Node4 -->
<g id="edge3_Node000001_Node000004" class="edge">
<title>Node1&#45;&gt;Node4</title>
<g id="a_edge3_Node000001_Node000004"><a xlink:title=" ">
<path fill="none" stroke="#63b8ff" d="M142.14,-58.06C132.22,-56.73 121.72,-55.32 111.62,-53.96"/>
<polygon fill="#63b8ff" stroke="#63b8ff" points="147.03,-58.72 141.77,-60.28 145.76,-58.55 142.07,-58.05 142.07,-58.05 142.07,-58.05 145.76,-58.55 142.37,-55.82 147.03,-58.72"/>
</a>
</g>
</g>
<!-- Node5 -->
<g id="Node000005" class="node">
<title>Node5</title>
<g id="a_Node000005"><a xlink:href="../../dc/d1b/struct_props.html#aab3e95a83cffbf70ab174986e5a42ca5" target="_top" xlink:title=" ">
<polygon fill="white" stroke="none" points="112,-19.25 0,-19.25 0,0 112,0 112,-19.25"/>
<text xml:space="preserve" text-anchor="middle" x="56" y="-4.8" font-family="Consolas" font-size="11.00">Props::operator=</text>
</a>
</g>
</g>
<!-- Node1&#45;&gt;Node5 -->
<g id="edge4_Node000001_Node000005" class="edge">
<title>Node1&#45;&gt;Node5</title>
<g id="a_edge4_Node000001_Node000005"><a xlink:title=" ">
<path fill="none" stroke="#63b8ff" d="M166.99,-52.45C151.5,-44.83 130.81,-35.08 112,-27.62 104.43,-24.63 96.15,-21.73 88.36,-19.16"/>
<polygon fill="#63b8ff" stroke="#63b8ff" points="171.35,-54.61 165.88,-54.41 170.21,-54.04 166.87,-52.39 166.87,-52.39 166.87,-52.39 170.21,-54.04 167.87,-50.37 171.35,-54.61"/>
</a>
</g>
</g>
</g>
</svg>
</svg>

<style type='text/css'>
<![CDATA[
[data-mouse-over-selected='false'] { opacity: 0.7; }
[data-mouse-over-selected='true']  { opacity: 1.0; }
]]>
</style>
<script type="application/ecmascript"><![CDATA[
document.addEventListener('DOMContentLoaded', (event) => {
  highlightEdges();
  highlightAdjacentNodes();
});
]]></script>
</svg>
