<?xml version="1.0" encoding="UTF-8" standalone="no"?>
<!DOCTYPE svg PUBLIC "-//W3C//DTD SVG 1.1//EN"
 "http://www.w3.org/Graphics/SVG/1.1/DTD/svg11.dtd">
<!-- Generated by graphviz version 14.0.0 (20250921.2048)
 -->
<!-- Title: npi::StageWindow::quick_ Pages: 1 -->
<svg width="388pt" height="88pt"
 viewBox="0.00 0.00 388.00 88.00" xmlns="http://www.w3.org/2000/svg" xmlns:xlink="http://www.w3.org/1999/xlink">
<g id="graph0" class="graph" transform="scale(1 1) rotate(0) translate(4 83.5)">
<title>npi::StageWindow::quick_</title>
<!-- Node1 -->
<g id="Node000001" class="node">
<title>Node1</title>
<g id="a_Node000001"><a xlink:title="Show immediately without animation.">
<polygon fill="#999999" stroke="none" points="160,-48.88 0,-48.88 0,-29.62 160,-29.62 160,-48.88"/>
<text xml:space="preserve" text-anchor="start" x="8" y="-35.42" font-family="Consolas" font-weight="bold" font-size="11.00">npi::StageWindow::quick_</text>
</a>
</g>
</g>
<!-- Node2 -->
<g id="Node000002" class="node">
<title>Node2</title>
<g id="a_Node000002"><a xlink:href="../../dd/d55/classnpi_1_1_stage_window.html#ad7d0bbaf26ab673bbba23a7d9dc16bb9" target="_top" xlink:title="Show the widget in a state&#45;correct way.">
<polygon fill="white" stroke="none" points="380,-79.5 196,-79.5 196,-49 380,-49 380,-79.5"/>
<text xml:space="preserve" text-anchor="start" x="204" y="-65.05" font-family="Consolas" font-size="11.00">npi::StageWindow::callWidget</text>
<text xml:space="preserve" text-anchor="middle" x="288" y="-53.8" font-family="Consolas" font-size="11.00">CorrectShowMethod_</text>
</a>
</g>
</g>
<!-- Node1&#45;&gt;Node2 -->
<g id="edge1_Node000001_Node000002" class="edge">
<title>Node1&#45;&gt;Node2</title>
<g id="a_edge1_Node000001_Node000002"><a xlink:title=" ">
<path fill="none" stroke="#63b8ff" d="M159.76,-48.81C169.73,-50.02 180.02,-51.27 190.23,-52.51"/>
<polygon fill="#63b8ff" stroke="#63b8ff" points="195.02,-53.09 189.78,-54.72 193.75,-52.93 190.06,-52.48 190.06,-52.48 190.06,-52.48 193.75,-52.93 190.33,-50.25 195.02,-53.09"/>
</a>
</g>
</g>
<!-- Node3 -->
<g id="Node000003" class="node">
<title>Node3</title>
<g id="a_Node000003"><a xlink:href="../../dd/d55/classnpi_1_1_stage_window.html#a426ca091bbdf80811ef199f2ef732f71" target="_top" xlink:title="Compute and apply an on&#45;screen position for widget_, respecting frames/title bars.">
<polygon fill="white" stroke="none" points="374,-30.5 202,-30.5 202,0 374,0 374,-30.5"/>
<text xml:space="preserve" text-anchor="start" x="210" y="-16.05" font-family="Consolas" font-size="11.00">npi::StageWindow::position</text>
<text xml:space="preserve" text-anchor="middle" x="288" y="-4.8" font-family="Consolas" font-size="11.00">Widget_</text>
</a>
</g>
</g>
<!-- Node1&#45;&gt;Node3 -->
<g id="edge2_Node000001_Node000003" class="edge">
<title>Node1&#45;&gt;Node3</title>
<g id="a_edge2_Node000001_Node000003"><a xlink:title=" ">
<path fill="none" stroke="#63b8ff" d="M159.76,-30.07C171.67,-28.69 184.04,-27.25 196.17,-25.83"/>
<polygon fill="#63b8ff" stroke="#63b8ff" points="200.9,-25.28 196.2,-28.09 199.63,-25.43 195.94,-25.86 195.94,-25.86 195.94,-25.86 199.63,-25.43 195.68,-23.62 200.9,-25.28"/>
</a>
</g>
</g>
</g>
</svg>
