<?xml version="1.0" encoding="UTF-8" standalone="no"?>
<!DOCTYPE svg PUBLIC "-//W3C//DTD SVG 1.1//EN"
 "http://www.w3.org/Graphics/SVG/1.1/DTD/svg11.dtd">
<!-- Generated by graphviz version 14.0.0 (20250921.2048)
 -->
<!-- Title: npi::StageWindow::StageWindow Pages: 1 -->
<svg width="430pt" height="187pt"
 viewBox="0.00 0.00 430.00 187.00" xmlns="http://www.w3.org/2000/svg" xmlns:xlink="http://www.w3.org/1999/xlink">
<g id="graph0" class="graph" transform="scale(1 1) rotate(0) translate(4 183.25)">
<title>npi::StageWindow::StageWindow</title>
<!-- Node1 -->
<g id="Node000001" class="node">
<title>Node1</title>
<g id="a_Node000001"><a xlink:title="Default constructor.">
<polygon fill="#999999" stroke="none" points="422,-105.25 232,-105.25 232,-86 422,-86 422,-105.25"/>
<text xml:space="preserve" text-anchor="start" x="240" y="-91.8" font-family="Consolas" font-weight="bold" font-size="11.00">npi::StageWindow::StageWindow</text>
</a>
</g>
</g>
<!-- Node2 -->
<g id="Node000002" class="node">
<title>Node2</title>
<g id="a_Node000002"><a xlink:href="../../dd/d55/classnpi_1_1_stage_window.html#ad284de056dd666f02f2f6e6cd62e9440" target="_top" xlink:title="Set the caller widget (visual origin for animation).">
<polygon fill="white" stroke="none" points="190,-179.25 6,-179.25 6,-160 190,-160 190,-179.25"/>
<text xml:space="preserve" text-anchor="middle" x="98" y="-164.8" font-family="Consolas" font-size="11.00">npi::StageWindow::setCaller_</text>
</a>
</g>
</g>
<!-- Node1&#45;&gt;Node2 -->
<g id="edge1_Node000001_Node000002" class="edge">
<title>Node1&#45;&gt;Node2</title>
<g id="a_edge1_Node000001_Node000002"><a xlink:title=" ">
<path fill="none" stroke="#63b8ff" d="M302.03,-107.89C276.39,-120.53 234.25,-140 196,-151.62 185.18,-154.91 173.5,-157.7 162.11,-160.03"/>
<polygon fill="#63b8ff" stroke="#63b8ff" points="306.46,-105.68 302.98,-109.92 305.31,-106.25 301.98,-107.91 301.98,-107.91 301.98,-107.91 305.31,-106.25 300.98,-105.89 306.46,-105.68"/>
</a>
</g>
</g>
<!-- Node3 -->
<g id="Node000003" class="node">
<title>Node3</title>
<g id="a_Node000003"><a xlink:href="../../dd/d55/classnpi_1_1_stage_window.html#ab72f949cc428135d23f1f3ffdc29544d" target="_top" xlink:title="Set the center widget (target for centering).">
<polygon fill="white" stroke="none" points="190,-142.25 6,-142.25 6,-123 190,-123 190,-142.25"/>
<text xml:space="preserve" text-anchor="middle" x="98" y="-127.8" font-family="Consolas" font-size="11.00">npi::StageWindow::setCenter_</text>
</a>
</g>
</g>
<!-- Node1&#45;&gt;Node3 -->
<g id="edge2_Node000001_Node000003" class="edge">
<title>Node1&#45;&gt;Node3</title>
<g id="a_edge2_Node000001_Node000003"><a xlink:title=" ">
<path fill="none" stroke="#63b8ff" d="M260.96,-106.23C228.43,-111.53 189.37,-117.9 157.75,-123.05"/>
<polygon fill="#63b8ff" stroke="#63b8ff" points="265.75,-105.45 261.18,-108.47 264.48,-105.65 260.81,-106.25 260.81,-106.25 260.81,-106.25 264.48,-105.65 260.45,-104.03 265.75,-105.45"/>
</a>
</g>
</g>
<!-- Node4 -->
<g id="Node000004" class="node">
<title>Node4</title>
<g id="a_Node000004"><a xlink:href="../../dd/d55/classnpi_1_1_stage_window.html#a14de829802d71a4a69a709da6e9caf13" target="_top" xlink:title="Set animation duration.">
<polygon fill="white" stroke="none" points="196,-105.25 0,-105.25 0,-86 196,-86 196,-105.25"/>
<text xml:space="preserve" text-anchor="middle" x="98" y="-90.8" font-family="Consolas" font-size="11.00">npi::StageWindow::setDuration_</text>
</a>
</g>
</g>
<!-- Node1&#45;&gt;Node4 -->
<g id="edge3_Node000001_Node000004" class="edge">
<title>Node1&#45;&gt;Node4</title>
<g id="a_edge3_Node000001_Node000004"><a xlink:title=" ">
<path fill="none" stroke="#63b8ff" d="M225.84,-95.62C215.87,-95.62 205.77,-95.62 195.83,-95.62"/>
<polygon fill="#63b8ff" stroke="#63b8ff" points="230.81,-95.63 225.81,-97.88 229.53,-95.63 225.81,-95.63 225.81,-95.63 225.81,-95.63 229.53,-95.63 225.81,-93.38 230.81,-95.63"/>
</a>
</g>
</g>
<!-- Node5 -->
<g id="Node000005" class="node">
<title>Node5</title>
<g id="a_Node000005"><a xlink:href="../../dd/d55/classnpi_1_1_stage_window.html#a034f3a250a0fad76fc66a2cb7031e05a" target="_top" xlink:title="Set easing curve for the animation.">
<polygon fill="white" stroke="none" points="187,-67.88 9,-67.88 9,-37.38 187,-37.38 187,-67.88"/>
<text xml:space="preserve" text-anchor="start" x="17" y="-53.42" font-family="Consolas" font-size="11.00">npi::StageWindow::setEasing</text>
<text xml:space="preserve" text-anchor="middle" x="98" y="-42.17" font-family="Consolas" font-size="11.00">Curve_</text>
</a>
</g>
</g>
<!-- Node1&#45;&gt;Node5 -->
<g id="edge4_Node000001_Node000005" class="edge">
<title>Node1&#45;&gt;Node5</title>
<g id="a_edge4_Node000001_Node000005"><a xlink:title=" ">
<path fill="none" stroke="#63b8ff" d="M269.28,-84.88C242.1,-79.73 209.07,-73.48 179.37,-67.85"/>
<polygon fill="#63b8ff" stroke="#63b8ff" points="274.14,-85.8 268.81,-87.08 272.88,-85.56 269.23,-84.87 269.23,-84.87 269.23,-84.87 272.88,-85.56 269.65,-82.66 274.14,-85.8"/>
</a>
</g>
</g>
<!-- Node6 -->
<g id="Node000006" class="node">
<title>Node6</title>
<g id="a_Node000006"><a xlink:href="../../dd/d55/classnpi_1_1_stage_window.html#a9ab26c7e9c7ca6511e4cdf014b74fb60" target="_top" xlink:title="Set the main widget to be shown.">
<polygon fill="white" stroke="none" points="190,-19.25 6,-19.25 6,0 190,0 190,-19.25"/>
<text xml:space="preserve" text-anchor="middle" x="98" y="-4.8" font-family="Consolas" font-size="11.00">npi::StageWindow::setWidget_</text>
</a>
</g>
</g>
<!-- Node1&#45;&gt;Node6 -->
<g id="edge5_Node000001_Node000006" class="edge">
<title>Node1&#45;&gt;Node6</title>
<g id="a_edge5_Node000001_Node000006"><a xlink:title=" ">
<path fill="none" stroke="#63b8ff" d="M306.02,-83.05C281.16,-67.94 236.97,-42.87 196,-28.62 185.14,-24.85 173.32,-21.75 161.79,-19.23"/>
<polygon fill="#63b8ff" stroke="#63b8ff" points="309.98,-85.47 304.54,-84.78 308.89,-84.81 305.72,-82.86 305.72,-82.86 305.72,-82.86 308.89,-84.81 306.89,-80.94 309.98,-85.47"/>
</a>
</g>
</g>
</g>
</svg>
