<?xml version="1.0" encoding="UTF-8" standalone="no"?>
<!DOCTYPE svg PUBLIC "-//W3C//DTD SVG 1.1//EN"
 "http://www.w3.org/Graphics/SVG/1.1/DTD/svg11.dtd">
<!-- Generated by graphviz version 14.0.0 (20250921.2048)
 -->
<!-- Title: npi::StageWindow Pages: 1 -->
<svg width="318pt" height="128pt"
 viewBox="0.00 0.00 318.00 128.00" xmlns="http://www.w3.org/2000/svg" xmlns:xlink="http://www.w3.org/1999/xlink">
<g id="graph0" class="graph" transform="scale(1 1) rotate(0) translate(4 124)">
<title>npi::StageWindow</title>
<!-- Node1 -->
<g id="Node000001" class="node">
<title>Node1</title>
<g id="a_Node000001"><a xlink:title="Helper to display a top&#45;level widget with optional animation and robust on&#45;screen positioning.">
<polygon fill="#999999" stroke="none" points="221,-19.25 109,-19.25 109,0 221,0 221,-19.25"/>
<text xml:space="preserve" text-anchor="start" x="117" y="-5.8" font-family="Consolas" font-weight="bold" font-size="11.00">npi::StageWindow</text>
</a>
</g>
</g>
<!-- Node2 -->
<g id="Node000002" class="node">
<title>Node2</title>
<g id="a_Node000002"><a xlink:title=" ">
<polygon fill="white" stroke="none" points="130,-120 0,-120 0,-100.75 130,-100.75 130,-120"/>
<text xml:space="preserve" text-anchor="middle" x="65" y="-105.55" font-family="Consolas" font-size="11.00">QPointer&lt; QWidget &gt;</text>
</a>
</g>
</g>
<!-- Node2&#45;&gt;Node1 -->
<g id="edge1_Node000001_Node000002" class="edge">
<title>Node2&#45;&gt;Node1</title>
<g id="a_edge1_Node000001_Node000002"><a xlink:title=" ">
<path fill="none" stroke="#9a32cd" stroke-dasharray="5,2" d="M72.71,-95.67C81.99,-80.08 98.77,-54.56 118.25,-37.25 126.49,-29.93 137.07,-23.7 146.07,-19.11"/>
<polygon fill="#9a32cd" stroke="#9a32cd" points="70.26,-99.87 70.84,-94.42 70.9,-98.77 72.78,-95.55 72.78,-95.55 72.78,-95.55 70.9,-98.77 74.72,-96.69 70.26,-99.87"/>
</a>
</g>
<text xml:space="preserve" text-anchor="start" x="121.25" y="-70.25" font-family="Consolas" font-size="10.00" fill="grey">caller_</text>
<text xml:space="preserve" text-anchor="start" x="121.25" y="-55.75" font-family="Consolas" font-size="10.00" fill="grey">center_</text>
<text xml:space="preserve" text-anchor="start" x="121.25" y="-41.25" font-family="Consolas" font-size="10.00" fill="grey">widget_</text>
</g>
<!-- Node3 -->
<g id="Node000003" class="node">
<title>Node3</title>
<g id="a_Node000003"><a xlink:title=" ">
<polygon fill="white" stroke="none" points="182,-120 148,-120 148,-100.75 182,-100.75 182,-120"/>
<text xml:space="preserve" text-anchor="middle" x="165" y="-105.55" font-family="Consolas" font-size="11.00">int</text>
</a>
</g>
</g>
<!-- Node3&#45;&gt;Node1 -->
<g id="edge2_Node000001_Node000003" class="edge">
<title>Node3&#45;&gt;Node1</title>
<g id="a_edge2_Node000001_Node000003"><a xlink:title=" ">
<path fill="none" stroke="#9a32cd" stroke-dasharray="5,2" d="M165,-94.79C165,-73.83 165,-35.84 165,-19.02"/>
<polygon fill="#9a32cd" stroke="#9a32cd" points="165,-99.74 162.75,-94.74 165,-98.46 165,-94.74 165,-94.74 165,-94.74 165,-98.46 167.25,-94.74 165,-99.74"/>
</a>
</g>
<text xml:space="preserve" text-anchor="start" x="168" y="-70.25" font-family="Consolas" font-size="10.00" fill="grey">MaxDura_</text>
<text xml:space="preserve" text-anchor="start" x="168" y="-55.75" font-family="Consolas" font-size="10.00" fill="grey">MinDura_</text>
<text xml:space="preserve" text-anchor="start" x="168" y="-41.25" font-family="Consolas" font-size="10.00" fill="grey">duration_</text>
</g>
<!-- Node4 -->
<g id="Node000004" class="node">
<title>Node4</title>
<g id="a_Node000004"><a xlink:title=" ">
<polygon fill="white" stroke="none" points="288,-120 200,-120 200,-100.75 288,-100.75 288,-120"/>
<text xml:space="preserve" text-anchor="middle" x="244" y="-105.55" font-family="Consolas" font-size="11.00">QEasingCurve</text>
</a>
</g>
</g>
<!-- Node4&#45;&gt;Node1 -->
<g id="edge3_Node000001_Node000004" class="edge">
<title>Node4&#45;&gt;Node1</title>
<g id="a_edge3_Node000001_Node000004"><a xlink:title=" ">
<path fill="none" stroke="#9a32cd" stroke-dasharray="5,2" d="M243.04,-95.06C241.28,-79.19 236.27,-53.68 222,-37.25 214.91,-29.08 204.78,-23.25 195.02,-19.17"/>
<polygon fill="#9a32cd" stroke="#9a32cd" points="243.51,-100 240.8,-95.23 243.39,-98.72 243.04,-95.02 243.04,-95.02 243.04,-95.02 243.39,-98.72 245.28,-94.81 243.51,-100"/>
</a>
</g>
<text xml:space="preserve" text-anchor="start" x="243.9" y="-55.75" font-family="Consolas" font-size="10.00" fill="grey">easingCurve_</text>
</g>
</g>
</svg>
