<?xml version="1.0" encoding="UTF-8" standalone="no"?>
<!DOCTYPE svg PUBLIC "-//W3C//DTD SVG 1.1//EN"
 "http://www.w3.org/Graphics/SVG/1.1/DTD/svg11.dtd">
<!-- Generated by graphviz version 14.0.0 (20250921.2048)
 -->
<!-- Title: npi::Font::Hash_ Pages: 1 -->
<svg width="524pt" height="212pt"
 viewBox="0.00 0.00 524.00 212.00" xmlns="http://www.w3.org/2000/svg" xmlns:xlink="http://www.w3.org/1999/xlink">
<g id="graph0" class="graph" transform="scale(1 1) rotate(0) translate(4 208.25)">
<title>npi::Font::Hash_</title>
<!-- Node1 -->
<g id="Node000001" class="node">
<title>Node1</title>
<g id="a_Node000001"><a xlink:title="Compute a hash key from style and size.">
<polygon fill="#999999" stroke="none" points="516,-93.25 404,-93.25 404,-74 516,-74 516,-93.25"/>
<text xml:space="preserve" text-anchor="start" x="412" y="-79.8" font-family="Consolas" font-weight="bold" font-size="11.00">npi::Font::Hash_</text>
</a>
</g>
</g>
<!-- Node2 -->
<g id="Node000002" class="node">
<title>Node2</title>
<g id="a_Node000002"><a xlink:href="../../d1/da6/classnpi_1_1_font.html#a7d6a887c003a914648864595d7650f76" target="_top" xlink:title="Get or create the cached Group for the application font family.">
<polygon fill="white" stroke="none" points="368,-148.25 214,-148.25 214,-129 368,-129 368,-148.25"/>
<text xml:space="preserve" text-anchor="middle" x="291" y="-133.8" font-family="Consolas" font-size="11.00">npi::Font::GetAppGroup_</text>
</a>
</g>
</g>
<!-- Node1&#45;&gt;Node2 -->
<g id="edge1_Node000001_Node000002" class="edge">
<title>Node1&#45;&gt;Node2</title>
<g id="a_edge1_Node000001_Node000002"><a xlink:title=" ">
<path fill="none" stroke="#63b8ff" d="M424.37,-95.03C393.81,-105.09 349.78,-119.59 321.04,-129.06"/>
<polygon fill="#63b8ff" stroke="#63b8ff" points="428.75,-93.59 424.71,-97.29 427.54,-93.99 424,-95.15 424,-95.15 424,-95.15 427.54,-93.99 423.3,-93.01 428.75,-93.59"/>
</a>
</g>
</g>
<!-- Node6 -->
<g id="Node000006" class="node">
<title>Node6</title>
<g id="a_Node000006"><a xlink:href="../../d1/da6/classnpi_1_1_font.html#a38a7d0642e6a93ea010d1e82a3fd7401" target="_top" xlink:title="Get or create the cached Group for the fixed&#45;width font family.">
<polygon fill="white" stroke="none" points="368,-75.25 214,-75.25 214,-56 368,-56 368,-75.25"/>
<text xml:space="preserve" text-anchor="middle" x="291" y="-60.8" font-family="Consolas" font-size="11.00">npi::Font::GetFixGroup_</text>
</a>
</g>
</g>
<!-- Node1&#45;&gt;Node6 -->
<g id="edge5_Node000001_Node000006" class="edge">
<title>Node1&#45;&gt;Node6</title>
<g id="a_edge5_Node000001_Node000006"><a xlink:title=" ">
<path fill="none" stroke="#63b8ff" d="M398.21,-77.07C388.31,-76.01 377.94,-74.89 367.72,-73.79"/>
<polygon fill="#63b8ff" stroke="#63b8ff" points="403.11,-77.6 397.89,-79.3 401.83,-77.46 398.14,-77.06 398.14,-77.06 398.14,-77.06 401.83,-77.46 398.38,-74.83 403.11,-77.6"/>
</a>
</g>
</g>
<!-- Node3 -->
<g id="Node000003" class="node">
<title>Node3</title>
<g id="a_Node000003"><a xlink:href="../../d1/da6/classnpi_1_1_font.html#a32f0370fb56fedd3495650f6b15da69d" target="_top" xlink:title="Get a configured QFont for the application font family.">
<polygon fill="white" stroke="none" points="154,-204.25 24,-204.25 24,-185 154,-185 154,-204.25"/>
<text xml:space="preserve" text-anchor="middle" x="89" y="-189.8" font-family="Consolas" font-size="11.00">npi::Font::appFont_</text>
</a>
</g>
</g>
<!-- Node2&#45;&gt;Node3 -->
<g id="edge2_Node000002_Node000003" class="edge">
<title>Node2&#45;&gt;Node3</title>
<g id="a_edge2_Node000002_Node000003"><a xlink:title=" ">
<path fill="none" stroke="#63b8ff" d="M259.16,-150.26C236.84,-158.38 205.84,-169.09 178,-176.62 166.56,-179.72 154.16,-182.57 142.37,-185.04"/>
<polygon fill="#63b8ff" stroke="#63b8ff" points="263.78,-148.56 259.86,-152.39 262.58,-149 259.09,-150.28 259.09,-150.28 259.09,-150.28 262.58,-149 258.31,-148.17 263.78,-148.56"/>
</a>
</g>
</g>
<!-- Node4 -->
<g id="Node000004" class="node">
<title>Node4</title>
<g id="a_Node000004"><a xlink:href="../../d1/da6/classnpi_1_1_font.html#a96f31194ebf51a2e511d64faf6b90a62" target="_top" xlink:title="Get QFontMetrics for the application font family.">
<polygon fill="white" stroke="none" points="175,-167.25 3,-167.25 3,-148 175,-148 175,-167.25"/>
<text xml:space="preserve" text-anchor="middle" x="89" y="-152.8" font-family="Consolas" font-size="11.00">npi::Font::appFontMetrics_</text>
</a>
</g>
</g>
<!-- Node2&#45;&gt;Node4 -->
<g id="edge3_Node000002_Node000004" class="edge">
<title>Node2&#45;&gt;Node4</title>
<g id="a_edge3_Node000002_Node000004"><a xlink:title=" ">
<path fill="none" stroke="#63b8ff" d="M208.06,-146.41C197.11,-147.45 185.87,-148.52 174.87,-149.56"/>
<polygon fill="#63b8ff" stroke="#63b8ff" points="212.89,-145.95 208.13,-148.66 211.61,-146.07 207.91,-146.42 207.91,-146.42 207.91,-146.42 211.61,-146.07 207.7,-144.18 212.89,-145.95"/>
</a>
</g>
</g>
<!-- Node5 -->
<g id="Node000005" class="node">
<title>Node5</title>
<g id="a_Node000005"><a xlink:href="../../d1/da6/classnpi_1_1_font.html#ac4fa05c84a84cd1f90a434d2329c93d4" target="_top" xlink:title="Get QFontMetricsF for the application font family.">
<polygon fill="white" stroke="none" points="178,-130.25 0,-130.25 0,-111 178,-111 178,-130.25"/>
<text xml:space="preserve" text-anchor="middle" x="89" y="-115.8" font-family="Consolas" font-size="11.00">npi::Font::appFontMetricsF_</text>
</a>
</g>
</g>
<!-- Node2&#45;&gt;Node5 -->
<g id="edge4_Node000002_Node000005" class="edge">
<title>Node2&#45;&gt;Node5</title>
<g id="a_edge4_Node000002_Node000005"><a xlink:title=" ">
<path fill="none" stroke="#63b8ff" d="M207.97,-131.24C198.06,-130.35 187.9,-129.44 177.91,-128.54"/>
<polygon fill="#63b8ff" stroke="#63b8ff" points="212.89,-131.69 207.71,-133.48 211.61,-131.57 207.91,-131.24 207.91,-131.24 207.91,-131.24 211.61,-131.57 208.11,-129 212.89,-131.69"/>
</a>
</g>
</g>
<!-- Node7 -->
<g id="Node000007" class="node">
<title>Node7</title>
<g id="a_Node000007"><a xlink:href="../../d1/da6/classnpi_1_1_font.html#a00bfa2adc66981539847274f0757d875" target="_top" xlink:title="Get a configured QFont for the fixed&#45;width font family.">
<polygon fill="white" stroke="none" points="154,-93.25 24,-93.25 24,-74 154,-74 154,-93.25"/>
<text xml:space="preserve" text-anchor="middle" x="89" y="-78.8" font-family="Consolas" font-size="11.00">npi::Font::fixFont_</text>
</a>
</g>
</g>
<!-- Node6&#45;&gt;Node7 -->
<g id="edge6_Node000006_Node000007" class="edge">
<title>Node6&#45;&gt;Node7</title>
<g id="a_edge6_Node000006_Node000007"><a xlink:title=" ">
<path fill="none" stroke="#63b8ff" d="M208,-73C189.92,-74.63 171.02,-76.33 153.78,-77.88"/>
<polygon fill="#63b8ff" stroke="#63b8ff" points="212.89,-72.56 208.11,-75.25 211.61,-72.68 207.91,-73.01 207.91,-73.01 207.91,-73.01 211.61,-72.68 207.71,-70.77 212.89,-72.56"/>
</a>
</g>
</g>
<!-- Node8 -->
<g id="Node000008" class="node">
<title>Node8</title>
<g id="a_Node000008"><a xlink:href="../../d1/da6/classnpi_1_1_font.html#a44cb4a2fef6e12f2bd74a9ff1ca261ea" target="_top" xlink:title="Get QFontMetrics for the fixed&#45;width font family.">
<polygon fill="white" stroke="none" points="175,-56.25 3,-56.25 3,-37 175,-37 175,-56.25"/>
<text xml:space="preserve" text-anchor="middle" x="89" y="-41.8" font-family="Consolas" font-size="11.00">npi::Font::fixFontMetrics_</text>
</a>
</g>
</g>
<!-- Node6&#45;&gt;Node8 -->
<g id="edge7_Node000006_Node000008" class="edge">
<title>Node6&#45;&gt;Node8</title>
<g id="a_edge7_Node000006_Node000008"><a xlink:title=" ">
<path fill="none" stroke="#63b8ff" d="M208.06,-57.84C197.11,-56.8 185.87,-55.73 174.87,-54.69"/>
<polygon fill="#63b8ff" stroke="#63b8ff" points="212.89,-58.3 207.7,-60.07 211.61,-58.18 207.91,-57.83 207.91,-57.83 207.91,-57.83 211.61,-58.18 208.13,-55.59 212.89,-58.3"/>
</a>
</g>
</g>
<!-- Node9 -->
<g id="Node000009" class="node">
<title>Node9</title>
<g id="a_Node000009"><a xlink:href="../../d1/da6/classnpi_1_1_font.html#abcfc8692498034d2e10e3fa81952a775" target="_top" xlink:title="Get QFontMetricsF for the fixed&#45;width font family.">
<polygon fill="white" stroke="none" points="178,-19.25 0,-19.25 0,0 178,0 178,-19.25"/>
<text xml:space="preserve" text-anchor="middle" x="89" y="-4.8" font-family="Consolas" font-size="11.00">npi::Font::fixFontMetricsF_</text>
</a>
</g>
</g>
<!-- Node6&#45;&gt;Node9 -->
<g id="edge8_Node000006_Node000009" class="edge">
<title>Node6&#45;&gt;Node9</title>
<g id="a_edge8_Node000006_Node000009"><a xlink:title=" ">
<path fill="none" stroke="#63b8ff" d="M259.16,-53.99C236.84,-45.87 205.84,-35.16 178,-27.62 166.56,-24.53 154.16,-21.68 142.37,-19.21"/>
<polygon fill="#63b8ff" stroke="#63b8ff" points="263.78,-55.69 258.31,-56.08 262.58,-55.25 259.09,-53.97 259.09,-53.97 259.09,-53.97 262.58,-55.25 259.86,-51.86 263.78,-55.69"/>
</a>
</g>
</g>
</g>
</svg>
