<?xml version="1.0" encoding="UTF-8" standalone="no"?>
<!DOCTYPE svg PUBLIC "-//W3C//DTD SVG 1.1//EN"
 "http://www.w3.org/Graphics/SVG/1.1/DTD/svg11.dtd">
<!-- Generated by graphviz version 14.0.0 (20250921.2048)
 -->
<!-- Title: npi::Font::fixFontMetrics_ Pages: 1 -->
<svg width="518pt" height="27pt"
 viewBox="0.00 0.00 518.00 27.00" xmlns="http://www.w3.org/2000/svg" xmlns:xlink="http://www.w3.org/1999/xlink">
<g id="graph0" class="graph" transform="scale(1 1) rotate(0) translate(4 23.25)">
<title>npi::Font::fixFontMetrics_</title>
<!-- Node1 -->
<g id="Node000001" class="node">
<title>Node1</title>
<g id="a_Node000001"><a xlink:title="Get QFontMetrics for the fixed&#45;width font family.">
<polygon fill="#999999" stroke="none" points="172,-19.25 0,-19.25 0,0 172,0 172,-19.25"/>
<text xml:space="preserve" text-anchor="start" x="8" y="-5.8" font-family="Consolas" font-weight="bold" font-size="11.00">npi::Font::fixFontMetrics_</text>
</a>
</g>
</g>
<!-- Node2 -->
<g id="Node000002" class="node">
<title>Node2</title>
<g id="a_Node000002"><a xlink:href="../../d1/da6/classnpi_1_1_font.html#a38a7d0642e6a93ea010d1e82a3fd7401" target="_top" xlink:title="Get or create the cached Group for the fixed&#45;width font family.">
<polygon fill="white" stroke="none" points="362,-19.25 208,-19.25 208,0 362,0 362,-19.25"/>
<text xml:space="preserve" text-anchor="middle" x="285" y="-4.8" font-family="Consolas" font-size="11.00">npi::Font::GetFixGroup_</text>
</a>
</g>
</g>
<!-- Node1&#45;&gt;Node2 -->
<g id="edge1_Node000001_Node000002" class="edge">
<title>Node1&#45;&gt;Node2</title>
<g id="a_edge1_Node000001_Node000002"><a xlink:title=" ">
<path fill="none" stroke="#63b8ff" d="M171.98,-9.62C181.98,-9.62 192.17,-9.62 202.13,-9.62"/>
<polygon fill="#63b8ff" stroke="#63b8ff" points="207.08,-9.63 202.08,-11.88 205.8,-9.63 202.08,-9.63 202.08,-9.63 202.08,-9.63 205.8,-9.63 202.08,-7.38 207.08,-9.63"/>
</a>
</g>
</g>
<!-- Node3 -->
<g id="Node000003" class="node">
<title>Node3</title>
<g id="a_Node000003"><a xlink:href="../../d1/da6/classnpi_1_1_font.html#a3184648ffb7f095e15b9a5f0c72f1712" target="_top" xlink:title="Compute a hash key from style and size.">
<polygon fill="white" stroke="none" points="510,-19.25 398,-19.25 398,0 510,0 510,-19.25"/>
<text xml:space="preserve" text-anchor="middle" x="454" y="-4.8" font-family="Consolas" font-size="11.00">npi::Font::Hash_</text>
</a>
</g>
</g>
<!-- Node2&#45;&gt;Node3 -->
<g id="edge2_Node000002_Node000003" class="edge">
<title>Node2&#45;&gt;Node3</title>
<g id="a_edge2_Node000002_Node000003"><a xlink:title=" ">
<path fill="none" stroke="#63b8ff" d="M361.68,-9.62C371.83,-9.62 382.13,-9.62 391.99,-9.62"/>
<polygon fill="#63b8ff" stroke="#63b8ff" points="396.84,-9.63 391.84,-11.88 395.56,-9.63 391.84,-9.63 391.84,-9.63 391.84,-9.63 395.56,-9.63 391.84,-7.38 396.84,-9.63"/>
</a>
</g>
</g>
</g>
</svg>
