<?xml version="1.0" encoding="UTF-8" standalone="no"?>
<!DOCTYPE svg PUBLIC "-//W3C//DTD SVG 1.1//EN"
 "http://www.w3.org/Graphics/SVG/1.1/DTD/svg11.dtd">
<!-- Generated by graphviz version 14.0.0 (20250921.2048)
 -->
<!-- Title: npi::Font::Hash_ Pages: 1 -->
<!--zoomable 212 -->

<svg id="main" version="1.1" xmlns="http://www.w3.org/2000/svg" xmlns:xlink="http://www.w3.org/1999/xlink" xml:space="preserve" onload="init(evt)">

<style type="text/css"><![CDATA[
.node, .edge {opacity: 0.7;}
.node.selected, .edge.selected {opacity: 1;}
.edge:hover path { stroke: red; }
.edge:hover polygon { stroke: red; fill: red; }
]]></style>

<defs>
  <circle id="rim" cx="0" cy="0" r="7"/>
  <circle id="rim2" cx="0" cy="0" r="3.5"/>
  <g id="zoomPlus">
    <use xlink:href="#rim" fill="#404040"><set attributeName="fill" to="#808080" begin="zoomplus.mouseover" end="zoomplus.mouseout"/></use>
    <path d="M-4,0h8M0,-4v8" fill="none" stroke="white" stroke-width="1.5" pointer-events="none"/>
  </g>
  <g id="zoomMin">
    <use xlink:href="#rim" fill="#404040"><set attributeName="fill" to="#808080" begin="zoomminus.mouseover" end="zoomminus.mouseout"/></use>
    <path d="M-4,0h8" fill="none" stroke="white" stroke-width="1.5" pointer-events="none"/>
  </g>
  <g id="arrowUp" transform="translate(30 24)">
    <use xlink:href="#rim"/>
    <path pointer-events="none" fill="none" stroke="white" stroke-width="1.5" d="M0,-3.0v7 M-2.5,-0.5L0,-3.0L2.5,-0.5"/>
  </g>
  <g id="arrowRight" transform="rotate(90) translate(36 -43)">
    <use xlink:href="#rim"/>
    <path pointer-events="none" fill="none" stroke="white" stroke-width="1.5" d="M0,-3.0v7 M-2.5,-0.5L0,-3.0L2.5,-0.5"/>
  </g>
  <g id="arrowDown" transform="rotate(180) translate(-30 -48)">
    <use xlink:href="#rim"/>
    <path pointer-events="none" fill="none" stroke="white" stroke-width="1.5" d="M0,-3.0v7 M-2.5,-0.5L0,-3.0L2.5,-0.5"/>
  </g>
  <g id="arrowLeft" transform="rotate(270) translate(-36 17)">
    <use xlink:href="#rim"/>
    <path pointer-events="none" fill="none" stroke="white" stroke-width="1.5" d="M0,-3.0v7 M-2.5,-0.5L0,-3.0L2.5,-0.5"/>
  </g>
  <g id="resetDef">
    <use xlink:href="#rim2" fill="#404040"><set attributeName="fill" to="#808080" begin="reset.mouseover" end="reset.mouseout"/></use>
  </g>
</defs>
<script type="application/ecmascript">
var viewWidth = 524;
var viewHeight = 212;
var sectionId = 'dynsection-12';
</script>
<script type="application/ecmascript" xlink:href="../../svg.min.js"/>
<svg id="graph" class="graph">
<g id="viewport">
<title>npi::Font::Hash_</title>
<!-- Node1 -->
<g id="Node000001" class="node">
<title>Node1</title>
<g id="a_Node000001"><a xlink:title="Compute a hash key from style and size.">
<polygon fill="#999999" stroke="none" points="516,-93.25 404,-93.25 404,-74 516,-74 516,-93.25"/>
<text xml:space="preserve" text-anchor="start" x="412" y="-79.8" font-family="Consolas" font-weight="bold" font-size="11.00">npi::Font::Hash_</text>
</a>
</g>
</g>
<!-- Node2 -->
<g id="Node000002" class="node">
<title>Node2</title>
<g id="a_Node000002"><a xlink:href="../../d1/da6/classnpi_1_1_font.html#a7d6a887c003a914648864595d7650f76" target="_top" xlink:title="Get or create the cached Group for the application font family.">
<polygon fill="white" stroke="none" points="368,-148.25 214,-148.25 214,-129 368,-129 368,-148.25"/>
<text xml:space="preserve" text-anchor="middle" x="291" y="-133.8" font-family="Consolas" font-size="11.00">npi::Font::GetAppGroup_</text>
</a>
</g>
</g>
<!-- Node1&#45;&gt;Node2 -->
<g id="edge1_Node000001_Node000002" class="edge">
<title>Node1&#45;&gt;Node2</title>
<g id="a_edge1_Node000001_Node000002"><a xlink:title=" ">
<path fill="none" stroke="#63b8ff" d="M424.37,-95.03C393.81,-105.09 349.78,-119.59 321.04,-129.06"/>
<polygon fill="#63b8ff" stroke="#63b8ff" points="428.75,-93.59 424.71,-97.29 427.54,-93.99 424,-95.15 424,-95.15 424,-95.15 427.54,-93.99 423.3,-93.01 428.75,-93.59"/>
</a>
</g>
</g>
<!-- Node6 -->
<g id="Node000006" class="node">
<title>Node6</title>
<g id="a_Node000006"><a xlink:href="../../d1/da6/classnpi_1_1_font.html#a38a7d0642e6a93ea010d1e82a3fd7401" target="_top" xlink:title="Get or create the cached Group for the fixed&#45;width font family.">
<polygon fill="white" stroke="none" points="368,-75.25 214,-75.25 214,-56 368,-56 368,-75.25"/>
<text xml:space="preserve" text-anchor="middle" x="291" y="-60.8" font-family="Consolas" font-size="11.00">npi::Font::GetFixGroup_</text>
</a>
</g>
</g>
<!-- Node1&#45;&gt;Node6 -->
<g id="edge5_Node000001_Node000006" class="edge">
<title>Node1&#45;&gt;Node6</title>
<g id="a_edge5_Node000001_Node000006"><a xlink:title=" ">
<path fill="none" stroke="#63b8ff" d="M398.21,-77.07C388.31,-76.01 377.94,-74.89 367.72,-73.79"/>
<polygon fill="#63b8ff" stroke="#63b8ff" points="403.11,-77.6 397.89,-79.3 401.83,-77.46 398.14,-77.06 398.14,-77.06 398.14,-77.06 401.83,-77.46 398.38,-74.83 403.11,-77.6"/>
</a>
</g>
</g>
<!-- Node3 -->
<g id="Node000003" class="node">
<title>Node3</title>
<g id="a_Node000003"><a xlink:href="../../d1/da6/classnpi_1_1_font.html#a32f0370fb56fedd3495650f6b15da69d" target="_top" xlink:title="Get a configured QFont for the application font family.">
<polygon fill="white" stroke="none" points="154,-204.25 24,-204.25 24,-185 154,-185 154,-204.25"/>
<text xml:space="preserve" text-anchor="middle" x="89" y="-189.8" font-family="Consolas" font-size="11.00">npi::Font::appFont_</text>
</a>
</g>
</g>
<!-- Node2&#45;&gt;Node3 -->
<g id="edge2_Node000002_Node000003" class="edge">
<title>Node2&#45;&gt;Node3</title>
<g id="a_edge2_Node000002_Node000003"><a xlink:title=" ">
<path fill="none" stroke="#63b8ff" d="M259.16,-150.26C236.84,-158.38 205.84,-169.09 178,-176.62 166.56,-179.72 154.16,-182.57 142.37,-185.04"/>
<polygon fill="#63b8ff" stroke="#63b8ff" points="263.78,-148.56 259.86,-152.39 262.58,-149 259.09,-150.28 259.09,-150.28 259.09,-150.28 262.58,-149 258.31,-148.17 263.78,-148.56"/>
</a>
</g>
</g>
<!-- Node4 -->
<g id="Node000004" class="node">
<title>Node4</title>
<g id="a_Node000004"><a xlink:href="../../d1/da6/classnpi_1_1_font.html#a96f31194ebf51a2e511d64faf6b90a62" target="_top" xlink:title="Get QFontMetrics for the application font family.">
<polygon fill="white" stroke="none" points="175,-167.25 3,-167.25 3,-148 175,-148 175,-167.25"/>
<text xml:space="preserve" text-anchor="middle" x="89" y="-152.8" font-family="Consolas" font-size="11.00">npi::Font::appFontMetrics_</text>
</a>
</g>
</g>
<!-- Node2&#45;&gt;Node4 -->
<g id="edge3_Node000002_Node000004" class="edge">
<title>Node2&#45;&gt;Node4</title>
<g id="a_edge3_Node000002_Node000004"><a xlink:title=" ">
<path fill="none" stroke="#63b8ff" d="M208.06,-146.41C197.11,-147.45 185.87,-148.52 174.87,-149.56"/>
<polygon fill="#63b8ff" stroke="#63b8ff" points="212.89,-145.95 208.13,-148.66 211.61,-146.07 207.91,-146.42 207.91,-146.42 207.91,-146.42 211.61,-146.07 207.7,-144.18 212.89,-145.95"/>
</a>
</g>
</g>
<!-- Node5 -->
<g id="Node000005" class="node">
<title>Node5</title>
<g id="a_Node000005"><a xlink:href="../../d1/da6/classnpi_1_1_font.html#ac4fa05c84a84cd1f90a434d2329c93d4" target="_top" xlink:title="Get QFontMetricsF for the application font family.">
<polygon fill="white" stroke="none" points="178,-130.25 0,-130.25 0,-111 178,-111 178,-130.25"/>
<text xml:space="preserve" text-anchor="middle" x="89" y="-115.8" font-family="Consolas" font-size="11.00">npi::Font::appFontMetricsF_</text>
</a>
</g>
</g>
<!-- Node2&#45;&gt;Node5 -->
<g id="edge4_Node000002_Node000005" class="edge">
<title>Node2&#45;&gt;Node5</title>
<g id="a_edge4_Node000002_Node000005"><a xlink:title=" ">
<path fill="none" stroke="#63b8ff" d="M207.97,-131.24C198.06,-130.35 187.9,-129.44 177.91,-128.54"/>
<polygon fill="#63b8ff" stroke="#63b8ff" points="212.89,-131.69 207.71,-133.48 211.61,-131.57 207.91,-131.24 207.91,-131.24 207.91,-131.24 211.61,-131.57 208.11,-129 212.89,-131.69"/>
</a>
</g>
</g>
<!-- Node7 -->
<g id="Node000007" class="node">
<title>Node7</title>
<g id="a_Node000007"><a xlink:href="../../d1/da6/classnpi_1_1_font.html#a00bfa2adc66981539847274f0757d875" target="_top" xlink:title="Get a configured QFont for the fixed&#45;width font family.">
<polygon fill="white" stroke="none" points="154,-93.25 24,-93.25 24,-74 154,-74 154,-93.25"/>
<text xml:space="preserve" text-anchor="middle" x="89" y="-78.8" font-family="Consolas" font-size="11.00">npi::Font::fixFont_</text>
</a>
</g>
</g>
<!-- Node6&#45;&gt;Node7 -->
<g id="edge6_Node000006_Node000007" class="edge">
<title>Node6&#45;&gt;Node7</title>
<g id="a_edge6_Node000006_Node000007"><a xlink:title=" ">
<path fill="none" stroke="#63b8ff" d="M208,-73C189.92,-74.63 171.02,-76.33 153.78,-77.88"/>
<polygon fill="#63b8ff" stroke="#63b8ff" points="212.89,-72.56 208.11,-75.25 211.61,-72.68 207.91,-73.01 207.91,-73.01 207.91,-73.01 211.61,-72.68 207.71,-70.77 212.89,-72.56"/>
</a>
</g>
</g>
<!-- Node8 -->
<g id="Node000008" class="node">
<title>Node8</title>
<g id="a_Node000008"><a xlink:href="../../d1/da6/classnpi_1_1_font.html#a44cb4a2fef6e12f2bd74a9ff1ca261ea" target="_top" xlink:title="Get QFontMetrics for the fixed&#45;width font family.">
<polygon fill="white" stroke="none" points="175,-56.25 3,-56.25 3,-37 175,-37 175,-56.25"/>
<text xml:space="preserve" text-anchor="middle" x="89" y="-41.8" font-family="Consolas" font-size="11.00">npi::Font::fixFontMetrics_</text>
</a>
</g>
</g>
<!-- Node6&#45;&gt;Node8 -->
<g id="edge7_Node000006_Node000008" class="edge">
<title>Node6&#45;&gt;Node8</title>
<g id="a_edge7_Node000006_Node000008"><a xlink:title=" ">
<path fill="none" stroke="#63b8ff" d="M208.06,-57.84C197.11,-56.8 185.87,-55.73 174.87,-54.69"/>
<polygon fill="#63b8ff" stroke="#63b8ff" points="212.89,-58.3 207.7,-60.07 211.61,-58.18 207.91,-57.83 207.91,-57.83 207.91,-57.83 211.61,-58.18 208.13,-55.59 212.89,-58.3"/>
</a>
</g>
</g>
<!-- Node9 -->
<g id="Node000009" class="node">
<title>Node9</title>
<g id="a_Node000009"><a xlink:href="../../d1/da6/classnpi_1_1_font.html#abcfc8692498034d2e10e3fa81952a775" target="_top" xlink:title="Get QFontMetricsF for the fixed&#45;width font family.">
<polygon fill="white" stroke="none" points="178,-19.25 0,-19.25 0,0 178,0 178,-19.25"/>
<text xml:space="preserve" text-anchor="middle" x="89" y="-4.8" font-family="Consolas" font-size="11.00">npi::Font::fixFontMetricsF_</text>
</a>
</g>
</g>
<!-- Node6&#45;&gt;Node9 -->
<g id="edge8_Node000006_Node000009" class="edge">
<title>Node6&#45;&gt;Node9</title>
<g id="a_edge8_Node000006_Node000009"><a xlink:title=" ">
<path fill="none" stroke="#63b8ff" d="M259.16,-53.99C236.84,-45.87 205.84,-35.16 178,-27.62 166.56,-24.53 154.16,-21.68 142.37,-19.21"/>
<polygon fill="#63b8ff" stroke="#63b8ff" points="263.78,-55.69 258.31,-56.08 262.58,-55.25 259.09,-53.97 259.09,-53.97 259.09,-53.97 262.58,-55.25 259.86,-51.86 263.78,-55.69"/>
</a>
</g>
</g>
</g>
</svg>

<g id="navigator" transform="translate(0 0)" fill="#404254">
  <rect fill="#f2f5e9" fill-opacity="0.5" stroke="#606060" stroke-width=".5" x="0" y="0" width="60" height="60"/>
  <use id="zoomplus" xlink:href="#zoomPlus" x="17" y="9" onmousedown="handleZoom(evt,'in')"/>
  <use id="zoomminus" xlink:href="#zoomMin" x="42" y="9" onmousedown="handleZoom(evt,'out')"/>
  <use id="reset" xlink:href="#resetDef" x="30" y="36" onmousedown="handleReset()"/>
   <use id="arrowup" xlink:href="#arrowUp" x="0" y="0" onmousedown="handlePan(0,-1)"/>
  <use id="arrowright" xlink:href="#arrowRight" x="0" y="0" onmousedown="handlePan(1,0)"/>
  <use id="arrowdown" xlink:href="#arrowDown" x="0" y="0" onmousedown="handlePan(0,1)"/>
  <use id="arrowleft" xlink:href="#arrowLeft" x="0" y="0" onmousedown="handlePan(-1,0)"/>
</g>
<svg viewBox="0 0 15 15" width="100%" height="30px" preserveAspectRatio="xMaxYMin meet">
 <g id="arrow_out" transform="scale(0.3 0.3)">
  <a xlink:href="classnpi_1_1_font_a3184648ffb7f095e15b9a5f0c72f1712_icgraph_org.svg" target="_base">
   <rect id="button" ry="5" rx="5" y="6" x="6" height="38" width="38"
        fill="#f2f5e9" fill-opacity="0.5" stroke="#606060" stroke-width="1.0"/>
   <path id="arrow"
     d="M 11.500037,31.436501 C 11.940474,20.09759 22.043105,11.32322 32.158766,21.979434 L 37.068811,17.246167 C 37.068811,17.246167 37.088388,32 37.088388,32 L 22.160133,31.978069 C 22.160133,31.978069 26.997745,27.140456 26.997745,27.140456 C 18.528582,18.264221 13.291696,25.230495 11.500037,31.436501 z"
     style="fill:#404040;"/>
  </a>
 </g>
</svg>

<style type='text/css'>
<![CDATA[
[data-mouse-over-selected='false'] { opacity: 0.7; }
[data-mouse-over-selected='true']  { opacity: 1.0; }
]]>
</style>
<script type="application/ecmascript"><![CDATA[
document.addEventListener('DOMContentLoaded', (event) => {
  highlightEdges();
  highlightAdjacentNodes();
});
]]></script>
</svg>
