<?xml version="1.0" encoding="UTF-8" standalone="no"?>
<!DOCTYPE svg PUBLIC "-//W3C//DTD SVG 1.1//EN"
 "http://www.w3.org/Graphics/SVG/1.1/DTD/svg11.dtd">
<!-- Generated by graphviz version 14.0.0 (20250921.2048)
 -->
<!-- Title: npi::Font::GetFixGroup_ Pages: 1 -->
<svg width="376pt" height="101pt"
 viewBox="0.00 0.00 376.00 101.00" xmlns="http://www.w3.org/2000/svg" xmlns:xlink="http://www.w3.org/1999/xlink">

<svg id="main" version="1.1" xmlns="http://www.w3.org/2000/svg" xmlns:xlink="http://www.w3.org/1999/xlink" xml:space="preserve">

<style type="text/css"><![CDATA[
.node, .edge {opacity: 0.7;}
.node.selected, .edge.selected {opacity: 1;}
.edge:hover path { stroke: red; }
.edge:hover polygon { stroke: red; fill: red; }
]]></style>
<script type="application/ecmascript" xlink:href="../../svg.min.js"/>
<svg id="graph" class="graph">
<g id="graph0" class="graph" transform="scale(1 1) rotate(0) translate(4 97.25)">
<title>npi::Font::GetFixGroup_</title>
<!-- Node1 -->
<g id="Node000001" class="node">
<title>Node1</title>
<g id="a_Node000001"><a xlink:title="Get or create the cached Group for the fixed&#45;width font family.">
<polygon fill="#999999" stroke="none" points="368,-56.25 214,-56.25 214,-37 368,-37 368,-56.25"/>
<text xml:space="preserve" text-anchor="start" x="222" y="-42.8" font-family="Consolas" font-weight="bold" font-size="11.00">npi::Font::GetFixGroup_</text>
</a>
</g>
</g>
<!-- Node2 -->
<g id="Node000002" class="node">
<title>Node2</title>
<g id="a_Node000002"><a xlink:href="../../d1/da6/classnpi_1_1_font.html#a00bfa2adc66981539847274f0757d875" target="_top" xlink:title="Get a configured QFont for the fixed&#45;width font family.">
<polygon fill="white" stroke="none" points="154,-93.25 24,-93.25 24,-74 154,-74 154,-93.25"/>
<text xml:space="preserve" text-anchor="middle" x="89" y="-78.8" font-family="Consolas" font-size="11.00">npi::Font::fixFont_</text>
</a>
</g>
</g>
<!-- Node1&#45;&gt;Node2 -->
<g id="edge1_Node000001_Node000002" class="edge">
<title>Node1&#45;&gt;Node2</title>
<g id="a_edge1_Node000001_Node000002"><a xlink:title=" ">
<path fill="none" stroke="#63b8ff" d="M231.98,-57.36C203.46,-62.63 169.39,-68.94 141.77,-74.05"/>
<polygon fill="#63b8ff" stroke="#63b8ff" points="236.78,-56.47 232.27,-59.59 235.52,-56.7 231.86,-57.38 231.86,-57.38 231.86,-57.38 235.52,-56.7 231.45,-55.17 236.78,-56.47"/>
</a>
</g>
</g>
<!-- Node3 -->
<g id="Node000003" class="node">
<title>Node3</title>
<g id="a_Node000003"><a xlink:href="../../d1/da6/classnpi_1_1_font.html#a44cb4a2fef6e12f2bd74a9ff1ca261ea" target="_top" xlink:title="Get QFontMetrics for the fixed&#45;width font family.">
<polygon fill="white" stroke="none" points="175,-56.25 3,-56.25 3,-37 175,-37 175,-56.25"/>
<text xml:space="preserve" text-anchor="middle" x="89" y="-41.8" font-family="Consolas" font-size="11.00">npi::Font::fixFontMetrics_</text>
</a>
</g>
</g>
<!-- Node1&#45;&gt;Node3 -->
<g id="edge2_Node000001_Node000003" class="edge">
<title>Node1&#45;&gt;Node3</title>
<g id="a_edge2_Node000001_Node000003"><a xlink:title=" ">
<path fill="none" stroke="#63b8ff" d="M208.06,-46.62C197.11,-46.62 185.87,-46.62 174.87,-46.62"/>
<polygon fill="#63b8ff" stroke="#63b8ff" points="212.88,-46.63 207.89,-48.88 211.6,-46.63 207.88,-46.63 207.88,-46.63 207.88,-46.63 211.6,-46.63 207.88,-44.38 212.88,-46.63"/>
</a>
</g>
</g>
<!-- Node4 -->
<g id="Node000004" class="node">
<title>Node4</title>
<g id="a_Node000004"><a xlink:href="../../d1/da6/classnpi_1_1_font.html#abcfc8692498034d2e10e3fa81952a775" target="_top" xlink:title="Get QFontMetricsF for the fixed&#45;width font family.">
<polygon fill="white" stroke="none" points="178,-19.25 0,-19.25 0,0 178,0 178,-19.25"/>
<text xml:space="preserve" text-anchor="middle" x="89" y="-4.8" font-family="Consolas" font-size="11.00">npi::Font::fixFontMetricsF_</text>
</a>
</g>
</g>
<!-- Node1&#45;&gt;Node4 -->
<g id="edge3_Node000001_Node000004" class="edge">
<title>Node1&#45;&gt;Node4</title>
<g id="a_edge3_Node000001_Node000004"><a xlink:title=" ">
<path fill="none" stroke="#63b8ff" d="M231.98,-35.89C203.46,-30.62 169.39,-24.31 141.77,-19.2"/>
<polygon fill="#63b8ff" stroke="#63b8ff" points="236.78,-36.78 231.45,-38.08 235.52,-36.55 231.86,-35.87 231.86,-35.87 231.86,-35.87 235.52,-36.55 232.27,-33.66 236.78,-36.78"/>
</a>
</g>
</g>
</g>
</svg>
</svg>

<style type='text/css'>
<![CDATA[
[data-mouse-over-selected='false'] { opacity: 0.7; }
[data-mouse-over-selected='true']  { opacity: 1.0; }
]]>
</style>
<script type="application/ecmascript"><![CDATA[
document.addEventListener('DOMContentLoaded', (event) => {
  highlightEdges();
  highlightAdjacentNodes();
});
]]></script>
</svg>
