<?xml version="1.0" encoding="UTF-8" standalone="no"?>
<!DOCTYPE svg PUBLIC "-//W3C//DTD SVG 1.1//EN"
 "http://www.w3.org/Graphics/SVG/1.1/DTD/svg11.dtd">
<!-- Generated by graphviz version 14.0.0 (20250921.2048)
 -->
<!-- Title: npi::Font::appFontMetricsF_ Pages: 1 -->
<svg width="524pt" height="27pt"
 viewBox="0.00 0.00 524.00 27.00" xmlns="http://www.w3.org/2000/svg" xmlns:xlink="http://www.w3.org/1999/xlink">
<g id="graph0" class="graph" transform="scale(1 1) rotate(0) translate(4 23.25)">
<title>npi::Font::appFontMetricsF_</title>
<!-- Node1 -->
<g id="Node000001" class="node">
<title>Node1</title>
<g id="a_Node000001"><a xlink:title="Get QFontMetricsF for the application font family.">
<polygon fill="#999999" stroke="none" points="178,-19.25 0,-19.25 0,0 178,0 178,-19.25"/>
<text xml:space="preserve" text-anchor="start" x="8" y="-5.8" font-family="Consolas" font-weight="bold" font-size="11.00">npi::Font::appFontMetricsF_</text>
</a>
</g>
</g>
<!-- Node2 -->
<g id="Node000002" class="node">
<title>Node2</title>
<g id="a_Node000002"><a xlink:href="../../d1/da6/classnpi_1_1_font.html#a7d6a887c003a914648864595d7650f76" target="_top" xlink:title="Get or create the cached Group for the application font family.">
<polygon fill="white" stroke="none" points="368,-19.25 214,-19.25 214,0 368,0 368,-19.25"/>
<text xml:space="preserve" text-anchor="middle" x="291" y="-4.8" font-family="Consolas" font-size="11.00">npi::Font::GetAppGroup_</text>
</a>
</g>
</g>
<!-- Node1&#45;&gt;Node2 -->
<g id="edge1_Node000001_Node000002" class="edge">
<title>Node1&#45;&gt;Node2</title>
<g id="a_edge1_Node000001_Node000002"><a xlink:title=" ">
<path fill="none" stroke="#63b8ff" d="M177.72,-9.62C187.81,-9.62 198.06,-9.62 208.06,-9.62"/>
<polygon fill="#63b8ff" stroke="#63b8ff" points="213.03,-9.63 208.03,-11.88 211.75,-9.63 208.03,-9.63 208.03,-9.63 208.03,-9.63 211.75,-9.63 208.03,-7.38 213.03,-9.63"/>
</a>
</g>
</g>
<!-- Node3 -->
<g id="Node000003" class="node">
<title>Node3</title>
<g id="a_Node000003"><a xlink:href="../../d1/da6/classnpi_1_1_font.html#a3184648ffb7f095e15b9a5f0c72f1712" target="_top" xlink:title="Compute a hash key from style and size.">
<polygon fill="white" stroke="none" points="516,-19.25 404,-19.25 404,0 516,0 516,-19.25"/>
<text xml:space="preserve" text-anchor="middle" x="460" y="-4.8" font-family="Consolas" font-size="11.00">npi::Font::Hash_</text>
</a>
</g>
</g>
<!-- Node2&#45;&gt;Node3 -->
<g id="edge2_Node000002_Node000003" class="edge">
<title>Node2&#45;&gt;Node3</title>
<g id="a_edge2_Node000002_Node000003"><a xlink:title=" ">
<path fill="none" stroke="#63b8ff" d="M367.68,-9.62C377.83,-9.62 388.13,-9.62 397.99,-9.62"/>
<polygon fill="#63b8ff" stroke="#63b8ff" points="402.84,-9.63 397.84,-11.88 401.56,-9.63 397.84,-9.63 397.84,-9.63 397.84,-9.63 401.56,-9.63 397.84,-7.38 402.84,-9.63"/>
</a>
</g>
</g>
</g>
</svg>
