<?xml version="1.0" encoding="UTF-8" standalone="no"?>
<!DOCTYPE svg PUBLIC "-//W3C//DTD SVG 1.1//EN"
 "http://www.w3.org/Graphics/SVG/1.1/DTD/svg11.dtd">
<!-- Generated by graphviz version 14.0.0 (20250921.2048)
 -->
<!-- Title: npi::Font::Font Pages: 1 -->
<svg width="328pt" height="101pt"
 viewBox="0.00 0.00 328.00 101.00" xmlns="http://www.w3.org/2000/svg" xmlns:xlink="http://www.w3.org/1999/xlink">
<g id="graph0" class="graph" transform="scale(1 1) rotate(0) translate(4 97.25)">
<title>npi::Font::Font</title>
<!-- Node1 -->
<g id="Node000001" class="node">
<title>Node1</title>
<g id="a_Node000001"><a xlink:title="Default constructor.">
<polygon fill="#999999" stroke="none" points="320,-56.25 214,-56.25 214,-37 320,-37 320,-56.25"/>
<text xml:space="preserve" text-anchor="start" x="222" y="-42.8" font-family="Consolas" font-weight="bold" font-size="11.00">npi::Font::Font</text>
</a>
</g>
</g>
<!-- Node2 -->
<g id="Node000002" class="node">
<title>Node2</title>
<g id="a_Node000002"><a xlink:href="../../d1/da6/classnpi_1_1_font.html#a8fe490f75baba6a42d3ec2af23cafdf0" target="_top" xlink:title="Set absolute point size (overrides default+relative when &gt; 0).">
<polygon fill="white" stroke="none" points="178,-93.25 0,-93.25 0,-74 178,-74 178,-93.25"/>
<text xml:space="preserve" text-anchor="middle" x="89" y="-78.8" font-family="Consolas" font-size="11.00">npi::Font::setAbsoluteSize_</text>
</a>
</g>
</g>
<!-- Node1&#45;&gt;Node2 -->
<g id="edge1_Node000001_Node000002" class="edge">
<title>Node1&#45;&gt;Node2</title>
<g id="a_edge1_Node000001_Node000002"><a xlink:title=" ">
<path fill="none" stroke="#63b8ff" d="M216.12,-57.49C203.68,-60.18 190.36,-63.03 178,-65.62 164.88,-68.38 150.64,-71.32 137.52,-74"/>
<polygon fill="#63b8ff" stroke="#63b8ff" points="220.96,-56.45 216.55,-59.7 219.71,-56.72 216.08,-57.5 216.08,-57.5 216.08,-57.5 219.71,-56.72 215.6,-55.3 220.96,-56.45"/>
</a>
</g>
</g>
<!-- Node3 -->
<g id="Node000003" class="node">
<title>Node3</title>
<g id="a_Node000003"><a xlink:href="../../d1/da6/classnpi_1_1_font.html#a3cb8298120f9fab1c2cb1d377f8903bc" target="_top" xlink:title="Set relative point size delta (applied to the default size).">
<polygon fill="white" stroke="none" points="178,-56.25 0,-56.25 0,-37 178,-37 178,-56.25"/>
<text xml:space="preserve" text-anchor="middle" x="89" y="-41.8" font-family="Consolas" font-size="11.00">npi::Font::setRelativeSize_</text>
</a>
</g>
</g>
<!-- Node1&#45;&gt;Node3 -->
<g id="edge2_Node000001_Node000003" class="edge">
<title>Node1&#45;&gt;Node3</title>
<g id="a_edge2_Node000001_Node000003"><a xlink:title=" ">
<path fill="none" stroke="#63b8ff" d="M208.16,-46.62C198.41,-46.62 188.1,-46.62 177.8,-46.62"/>
<polygon fill="#63b8ff" stroke="#63b8ff" points="212.93,-46.63 207.93,-48.88 211.65,-46.63 207.93,-46.63 207.93,-46.63 207.93,-46.63 211.65,-46.63 207.93,-44.38 212.93,-46.63"/>
</a>
</g>
</g>
<!-- Node4 -->
<g id="Node000004" class="node">
<title>Node4</title>
<g id="a_Node000004"><a xlink:href="../../d1/da6/classnpi_1_1_font.html#af6003e1e7178e7eac811cf402e949a2c" target="_top" xlink:title="Set style.">
<polygon fill="white" stroke="none" points="157,-19.25 21,-19.25 21,0 157,0 157,-19.25"/>
<text xml:space="preserve" text-anchor="middle" x="89" y="-4.8" font-family="Consolas" font-size="11.00">npi::Font::setStyle_</text>
</a>
</g>
</g>
<!-- Node1&#45;&gt;Node4 -->
<g id="edge3_Node000001_Node000004" class="edge">
<title>Node1&#45;&gt;Node4</title>
<g id="a_edge3_Node000001_Node000004"><a xlink:title=" ">
<path fill="none" stroke="#63b8ff" d="M216.12,-35.76C203.68,-33.07 190.36,-30.22 178,-27.62 164.88,-24.87 150.64,-21.93 137.52,-19.25"/>
<polygon fill="#63b8ff" stroke="#63b8ff" points="220.96,-36.8 215.6,-37.95 219.71,-36.53 216.08,-35.75 216.08,-35.75 216.08,-35.75 219.71,-36.53 216.55,-33.55 220.96,-36.8"/>
</a>
</g>
</g>
</g>
</svg>
