<?xml version="1.0" encoding="UTF-8" standalone="no"?>
<!DOCTYPE svg PUBLIC "-//W3C//DTD SVG 1.1//EN"
 "http://www.w3.org/Graphics/SVG/1.1/DTD/svg11.dtd">
<!-- Generated by graphviz version 14.0.0 (20250921.2048)
 -->
<!-- Title: npi::Font::fixFont_ Pages: 1 -->
<svg width="476pt" height="27pt"
 viewBox="0.00 0.00 476.00 27.00" xmlns="http://www.w3.org/2000/svg" xmlns:xlink="http://www.w3.org/1999/xlink">

<svg id="main" version="1.1" xmlns="http://www.w3.org/2000/svg" xmlns:xlink="http://www.w3.org/1999/xlink" xml:space="preserve">

<style type="text/css"><![CDATA[
.node, .edge {opacity: 0.7;}
.node.selected, .edge.selected {opacity: 1;}
.edge:hover path { stroke: red; }
.edge:hover polygon { stroke: red; fill: red; }
]]></style>
<script type="application/ecmascript" xlink:href="../../svg.min.js"/>
<svg id="graph" class="graph">
<g id="graph0" class="graph" transform="scale(1 1) rotate(0) translate(4 23.25)">
<title>npi::Font::fixFont_</title>
<!-- Node1 -->
<g id="Node000001" class="node">
<title>Node1</title>
<g id="a_Node000001"><a xlink:title="Get a configured QFont for the fixed&#45;width font family.">
<polygon fill="#999999" stroke="none" points="130,-19.25 0,-19.25 0,0 130,0 130,-19.25"/>
<text xml:space="preserve" text-anchor="start" x="8" y="-5.8" font-family="Consolas" font-weight="bold" font-size="11.00">npi::Font::fixFont_</text>
</a>
</g>
</g>
<!-- Node2 -->
<g id="Node000002" class="node">
<title>Node2</title>
<g id="a_Node000002"><a xlink:href="../../d1/da6/classnpi_1_1_font.html#a38a7d0642e6a93ea010d1e82a3fd7401" target="_top" xlink:title="Get or create the cached Group for the fixed&#45;width font family.">
<polygon fill="white" stroke="none" points="320,-19.25 166,-19.25 166,0 320,0 320,-19.25"/>
<text xml:space="preserve" text-anchor="middle" x="243" y="-4.8" font-family="Consolas" font-size="11.00">npi::Font::GetFixGroup_</text>
</a>
</g>
</g>
<!-- Node1&#45;&gt;Node2 -->
<g id="edge1_Node000001_Node000002" class="edge">
<title>Node1&#45;&gt;Node2</title>
<g id="a_edge1_Node000001_Node000002"><a xlink:title=" ">
<path fill="none" stroke="#63b8ff" d="M129.54,-9.62C139.5,-9.62 149.91,-9.62 160.21,-9.62"/>
<polygon fill="#63b8ff" stroke="#63b8ff" points="165.04,-9.63 160.04,-11.88 163.76,-9.63 160.04,-9.63 160.04,-9.63 160.04,-9.63 163.76,-9.63 160.04,-7.38 165.04,-9.63"/>
</a>
</g>
</g>
<!-- Node3 -->
<g id="Node000003" class="node">
<title>Node3</title>
<g id="a_Node000003"><a xlink:href="../../d1/da6/classnpi_1_1_font.html#a3184648ffb7f095e15b9a5f0c72f1712" target="_top" xlink:title="Compute a hash key from style and size.">
<polygon fill="white" stroke="none" points="468,-19.25 356,-19.25 356,0 468,0 468,-19.25"/>
<text xml:space="preserve" text-anchor="middle" x="412" y="-4.8" font-family="Consolas" font-size="11.00">npi::Font::Hash_</text>
</a>
</g>
</g>
<!-- Node2&#45;&gt;Node3 -->
<g id="edge2_Node000002_Node000003" class="edge">
<title>Node2&#45;&gt;Node3</title>
<g id="a_edge2_Node000002_Node000003"><a xlink:title=" ">
<path fill="none" stroke="#63b8ff" d="M319.68,-9.62C329.83,-9.62 340.13,-9.62 349.99,-9.62"/>
<polygon fill="#63b8ff" stroke="#63b8ff" points="354.84,-9.63 349.84,-11.88 353.56,-9.63 349.84,-9.63 349.84,-9.63 349.84,-9.63 353.56,-9.63 349.84,-7.38 354.84,-9.63"/>
</a>
</g>
</g>
</g>
</svg>
</svg>

<style type='text/css'>
<![CDATA[
[data-mouse-over-selected='false'] { opacity: 0.7; }
[data-mouse-over-selected='true']  { opacity: 1.0; }
]]>
</style>
<script type="application/ecmascript"><![CDATA[
document.addEventListener('DOMContentLoaded', (event) => {
  highlightEdges();
  highlightAdjacentNodes();
});
]]></script>
</svg>
