<?xml version="1.0" encoding="UTF-8" standalone="no"?>
<!DOCTYPE svg PUBLIC "-//W3C//DTD SVG 1.1//EN"
 "http://www.w3.org/Graphics/SVG/1.1/DTD/svg11.dtd">
<!-- Generated by graphviz version 14.0.0 (20250921.2048)
 -->
<!-- Title: npi::Font::appFont_ Pages: 1 -->
<svg width="476pt" height="27pt"
 viewBox="0.00 0.00 476.00 27.00" xmlns="http://www.w3.org/2000/svg" xmlns:xlink="http://www.w3.org/1999/xlink">
<g id="graph0" class="graph" transform="scale(1 1) rotate(0) translate(4 23.25)">
<title>npi::Font::appFont_</title>
<!-- Node1 -->
<g id="Node000001" class="node">
<title>Node1</title>
<g id="a_Node000001"><a xlink:title="Get a configured QFont for the application font family.">
<polygon fill="#999999" stroke="none" points="130,-19.25 0,-19.25 0,0 130,0 130,-19.25"/>
<text xml:space="preserve" text-anchor="start" x="8" y="-5.8" font-family="Consolas" font-weight="bold" font-size="11.00">npi::Font::appFont_</text>
</a>
</g>
</g>
<!-- Node2 -->
<g id="Node000002" class="node">
<title>Node2</title>
<g id="a_Node000002"><a xlink:href="../../d1/da6/classnpi_1_1_font.html#a7d6a887c003a914648864595d7650f76" target="_top" xlink:title="Get or create the cached Group for the application font family.">
<polygon fill="white" stroke="none" points="320,-19.25 166,-19.25 166,0 320,0 320,-19.25"/>
<text xml:space="preserve" text-anchor="middle" x="243" y="-4.8" font-family="Consolas" font-size="11.00">npi::Font::GetAppGroup_</text>
</a>
</g>
</g>
<!-- Node1&#45;&gt;Node2 -->
<g id="edge1_Node000001_Node000002" class="edge">
<title>Node1&#45;&gt;Node2</title>
<g id="a_edge1_Node000001_Node000002"><a xlink:title=" ">
<path fill="none" stroke="#63b8ff" d="M129.54,-9.62C139.5,-9.62 149.91,-9.62 160.21,-9.62"/>
<polygon fill="#63b8ff" stroke="#63b8ff" points="165.04,-9.63 160.04,-11.88 163.76,-9.63 160.04,-9.63 160.04,-9.63 160.04,-9.63 163.76,-9.63 160.04,-7.38 165.04,-9.63"/>
</a>
</g>
</g>
<!-- Node3 -->
<g id="Node000003" class="node">
<title>Node3</title>
<g id="a_Node000003"><a xlink:href="../../d1/da6/classnpi_1_1_font.html#a3184648ffb7f095e15b9a5f0c72f1712" target="_top" xlink:title="Compute a hash key from style and size.">
<polygon fill="white" stroke="none" points="468,-19.25 356,-19.25 356,0 468,0 468,-19.25"/>
<text xml:space="preserve" text-anchor="middle" x="412" y="-4.8" font-family="Consolas" font-size="11.00">npi::Font::Hash_</text>
</a>
</g>
</g>
<!-- Node2&#45;&gt;Node3 -->
<g id="edge2_Node000002_Node000003" class="edge">
<title>Node2&#45;&gt;Node3</title>
<g id="a_edge2_Node000002_Node000003"><a xlink:title=" ">
<path fill="none" stroke="#63b8ff" d="M319.68,-9.62C329.83,-9.62 340.13,-9.62 349.99,-9.62"/>
<polygon fill="#63b8ff" stroke="#63b8ff" points="354.84,-9.63 349.84,-11.88 353.56,-9.63 349.84,-9.63 349.84,-9.63 349.84,-9.63 353.56,-9.63 349.84,-7.38 354.84,-9.63"/>
</a>
</g>
</g>
</g>
</svg>
