<?xml version="1.0" encoding="UTF-8" standalone="no"?>
<!DOCTYPE svg PUBLIC "-//W3C//DTD SVG 1.1//EN"
 "http://www.w3.org/Graphics/SVG/1.1/DTD/svg11.dtd">
<!-- Generated by graphviz version 14.0.0 (20250921.2048)
 -->
<!-- Title: npi::Show::quick_ Pages: 1 -->
<svg width="346pt" height="76pt"
 viewBox="0.00 0.00 346.00 76.00" xmlns="http://www.w3.org/2000/svg" xmlns:xlink="http://www.w3.org/1999/xlink">
<g id="graph0" class="graph" transform="scale(1 1) rotate(0) translate(4 71.88)">
<title>npi::Show::quick_</title>
<!-- Node1 -->
<g id="Node000001" class="node">
<title>Node1</title>
<g id="a_Node000001"><a xlink:title="Show immediately without animation.">
<polygon fill="#999999" stroke="none" points="118,-40.25 0,-40.25 0,-21 118,-21 118,-40.25"/>
<text xml:space="preserve" text-anchor="start" x="8" y="-26.8" font-family="Consolas" font-weight="bold" font-size="11.00">npi::Show::quick_</text>
</a>
</g>
</g>
<!-- Node2 -->
<g id="Node000002" class="node">
<title>Node2</title>
<g id="a_Node000002"><a xlink:href="../../d3/dc4/classnpi_1_1_show.html#ad15a445e1227f319955ddec6ad13cd0e" target="_top" xlink:title="Show the widget in a state&#45;correct way.">
<polygon fill="white" stroke="none" points="338,-67.88 154,-67.88 154,-37.38 338,-37.38 338,-67.88"/>
<text xml:space="preserve" text-anchor="start" x="162" y="-53.42" font-family="Consolas" font-size="11.00">npi::Show::callWidgetCorrect</text>
<text xml:space="preserve" text-anchor="middle" x="246" y="-42.17" font-family="Consolas" font-size="11.00">ShowMethod_</text>
</a>
</g>
</g>
<!-- Node1&#45;&gt;Node2 -->
<g id="edge1_Node000001_Node000002" class="edge">
<title>Node1&#45;&gt;Node2</title>
<g id="a_edge1_Node000001_Node000002"><a xlink:title=" ">
<path fill="none" stroke="#63b8ff" d="M117.77,-37.5C127.43,-38.64 137.69,-39.86 148.01,-41.09"/>
<polygon fill="#63b8ff" stroke="#63b8ff" points="152.89,-41.67 147.66,-43.31 151.61,-41.52 147.92,-41.08 147.92,-41.08 147.92,-41.08 151.61,-41.52 148.19,-38.85 152.89,-41.67"/>
</a>
</g>
</g>
<!-- Node3 -->
<g id="Node000003" class="node">
<title>Node3</title>
<g id="a_Node000003"><a xlink:href="../../d3/dc4/classnpi_1_1_show.html#a489737c88d3d42d7f0896ce53d247a4a" target="_top" xlink:title="Compute and apply an on&#45;screen position for widget_, respecting frames/title bars.">
<polygon fill="white" stroke="none" points="332,-19.25 160,-19.25 160,0 332,0 332,-19.25"/>
<text xml:space="preserve" text-anchor="middle" x="246" y="-4.8" font-family="Consolas" font-size="11.00">npi::Show::positionWidget_</text>
</a>
</g>
</g>
<!-- Node1&#45;&gt;Node3 -->
<g id="edge2_Node000001_Node000003" class="edge">
<title>Node1&#45;&gt;Node3</title>
<g id="a_edge2_Node000001_Node000003"><a xlink:title=" ">
<path fill="none" stroke="#63b8ff" d="M117.77,-24.07C129.35,-22.75 141.76,-21.34 154.14,-19.94"/>
<polygon fill="#63b8ff" stroke="#63b8ff" points="159,-19.39 154.29,-22.19 157.73,-19.53 154.04,-19.95 154.04,-19.95 154.04,-19.95 157.73,-19.53 153.78,-17.72 159,-19.39"/>
</a>
</g>
</g>
</g>
</svg>
