<?xml version="1.0" encoding="UTF-8" standalone="no"?>
<!DOCTYPE svg PUBLIC "-//W3C//DTD SVG 1.1//EN"
 "http://www.w3.org/Graphics/SVG/1.1/DTD/svg11.dtd">
<!-- Generated by graphviz version 14.0.0 (20250921.2048)
 -->
<!-- Title: npi::Show::Show Pages: 1 -->
<svg width="322pt" height="175pt"
 viewBox="0.00 0.00 322.00 175.00" xmlns="http://www.w3.org/2000/svg" xmlns:xlink="http://www.w3.org/1999/xlink">
<g id="graph0" class="graph" transform="scale(1 1) rotate(0) translate(4 171.25)">
<title>npi::Show::Show</title>
<!-- Node1 -->
<g id="Node000001" class="node">
<title>Node1</title>
<g id="a_Node000001"><a xlink:title="Default constructor.">
<polygon fill="#999999" stroke="none" points="314,-93.25 208,-93.25 208,-74 314,-74 314,-93.25"/>
<text xml:space="preserve" text-anchor="start" x="216" y="-79.8" font-family="Consolas" font-weight="bold" font-size="11.00">npi::Show::Show</text>
</a>
</g>
</g>
<!-- Node2 -->
<g id="Node000002" class="node">
<title>Node2</title>
<g id="a_Node000002"><a xlink:href="../../d3/dc4/classnpi_1_1_show.html#a811f1ae90a19624d2144c062ea4d2063" target="_top" xlink:title="Set the caller widget (visual origin for animation).">
<polygon fill="white" stroke="none" points="157,-167.25 15,-167.25 15,-148 157,-148 157,-167.25"/>
<text xml:space="preserve" text-anchor="middle" x="86" y="-152.8" font-family="Consolas" font-size="11.00">npi::Show::setCaller_</text>
</a>
</g>
</g>
<!-- Node1&#45;&gt;Node2 -->
<g id="edge1_Node000001_Node000002" class="edge">
<title>Node1&#45;&gt;Node2</title>
<g id="a_edge1_Node000001_Node000002"><a xlink:title=" ">
<path fill="none" stroke="#63b8ff" d="M243.31,-96.84C226.32,-109.65 198.74,-128.71 172,-139.62 163.76,-142.99 154.8,-145.76 145.9,-148.03"/>
<polygon fill="#63b8ff" stroke="#63b8ff" points="247.27,-93.82 244.66,-98.65 246.25,-94.6 243.29,-96.86 243.29,-96.86 243.29,-96.86 246.25,-94.6 241.93,-95.07 247.27,-93.82"/>
</a>
</g>
</g>
<!-- Node3 -->
<g id="Node000003" class="node">
<title>Node3</title>
<g id="a_Node000003"><a xlink:href="../../d3/dc4/classnpi_1_1_show.html#aec81f95def621f3c3508a623e71f0053" target="_top" xlink:title="Set the center widget (target for centering).">
<polygon fill="white" stroke="none" points="157,-130.25 15,-130.25 15,-111 157,-111 157,-130.25"/>
<text xml:space="preserve" text-anchor="middle" x="86" y="-115.8" font-family="Consolas" font-size="11.00">npi::Show::setCenter_</text>
</a>
</g>
</g>
<!-- Node1&#45;&gt;Node3 -->
<g id="edge2_Node000001_Node000003" class="edge">
<title>Node1&#45;&gt;Node3</title>
<g id="a_edge2_Node000001_Node000003"><a xlink:title=" ">
<path fill="none" stroke="#63b8ff" d="M209.71,-94.52C197.38,-97.18 184.22,-100.01 172,-102.62 159.17,-105.37 145.24,-108.33 132.44,-111.04"/>
<polygon fill="#63b8ff" stroke="#63b8ff" points="214.5,-93.48 210.09,-96.74 213.25,-93.76 209.61,-94.54 209.61,-94.54 209.61,-94.54 213.25,-93.76 209.14,-92.34 214.5,-93.48"/>
</a>
</g>
</g>
<!-- Node4 -->
<g id="Node000004" class="node">
<title>Node4</title>
<g id="a_Node000004"><a xlink:href="../../d3/dc4/classnpi_1_1_show.html#a258c46b902e4762f0003d62fca8d8ed9" target="_top" xlink:title="Set animation duration.">
<polygon fill="white" stroke="none" points="163,-93.25 9,-93.25 9,-74 163,-74 163,-93.25"/>
<text xml:space="preserve" text-anchor="middle" x="86" y="-78.8" font-family="Consolas" font-size="11.00">npi::Show::setDuration_</text>
</a>
</g>
</g>
<!-- Node1&#45;&gt;Node4 -->
<g id="edge3_Node000001_Node000004" class="edge">
<title>Node1&#45;&gt;Node4</title>
<g id="a_edge3_Node000001_Node000004"><a xlink:title=" ">
<path fill="none" stroke="#63b8ff" d="M202.01,-83.62C189.45,-83.62 175.98,-83.62 162.85,-83.62"/>
<polygon fill="#63b8ff" stroke="#63b8ff" points="206.88,-83.63 201.88,-85.88 205.59,-83.63 201.88,-83.63 201.88,-83.63 201.88,-83.63 205.59,-83.63 201.88,-81.38 206.88,-83.63"/>
</a>
</g>
</g>
<!-- Node5 -->
<g id="Node000005" class="node">
<title>Node5</title>
<g id="a_Node000005"><a xlink:href="../../d3/dc4/classnpi_1_1_show.html#ac4aa6263ce09da73f52541fa7ff58d11" target="_top" xlink:title="Set easing curve for the animation.">
<polygon fill="white" stroke="none" points="172,-56.25 0,-56.25 0,-37 172,-37 172,-56.25"/>
<text xml:space="preserve" text-anchor="middle" x="86" y="-41.8" font-family="Consolas" font-size="11.00">npi::Show::setEasingCurve_</text>
</a>
</g>
</g>
<!-- Node1&#45;&gt;Node5 -->
<g id="edge4_Node000001_Node000005" class="edge">
<title>Node1&#45;&gt;Node5</title>
<g id="a_edge4_Node000001_Node000005"><a xlink:title=" ">
<path fill="none" stroke="#63b8ff" d="M209.71,-72.73C197.38,-70.07 184.22,-67.24 172,-64.62 159.17,-61.88 145.24,-58.92 132.44,-56.21"/>
<polygon fill="#63b8ff" stroke="#63b8ff" points="214.5,-73.77 209.14,-74.91 213.25,-73.49 209.61,-72.71 209.61,-72.71 209.61,-72.71 213.25,-73.49 210.09,-70.51 214.5,-73.77"/>
</a>
</g>
</g>
<!-- Node6 -->
<g id="Node000006" class="node">
<title>Node6</title>
<g id="a_Node000006"><a xlink:href="../../d3/dc4/classnpi_1_1_show.html#a29c00dafdca31a0cbd0529b711c2195e" target="_top" xlink:title="Set the main widget to be shown.">
<polygon fill="white" stroke="none" points="157,-19.25 15,-19.25 15,0 157,0 157,-19.25"/>
<text xml:space="preserve" text-anchor="middle" x="86" y="-4.8" font-family="Consolas" font-size="11.00">npi::Show::setWidget_</text>
</a>
</g>
</g>
<!-- Node1&#45;&gt;Node6 -->
<g id="edge5_Node000001_Node000006" class="edge">
<title>Node1&#45;&gt;Node6</title>
<g id="a_edge5_Node000001_Node000006"><a xlink:title=" ">
<path fill="none" stroke="#63b8ff" d="M243.31,-70.41C226.32,-57.6 198.74,-38.54 172,-27.62 163.76,-24.26 154.8,-21.49 145.9,-19.22"/>
<polygon fill="#63b8ff" stroke="#63b8ff" points="247.27,-73.43 241.93,-72.18 246.25,-72.65 243.29,-70.39 243.29,-70.39 243.29,-70.39 246.25,-72.65 244.66,-68.6 247.27,-73.43"/>
</a>
</g>
</g>
</g>
</svg>
