<?xml version="1.0" encoding="UTF-8" standalone="no"?>
<!DOCTYPE svg PUBLIC "-//W3C//DTD SVG 1.1//EN"
 "http://www.w3.org/Graphics/SVG/1.1/DTD/svg11.dtd">
<!-- Generated by graphviz version 14.0.0 (20250921.2048)
 -->
<!-- Title: npi::Font Pages: 1 -->
<svg width="562pt" height="357pt"
 viewBox="0.00 0.00 562.00 357.00" xmlns="http://www.w3.org/2000/svg" xmlns:xlink="http://www.w3.org/1999/xlink">
<g id="graph0" class="graph" transform="scale(1 1) rotate(0) translate(4 352.84)">
<title>npi::Font</title>
<!-- Node1 -->
<g id="Node000001" class="node">
<title>Node1</title>
<g id="a_Node000001"><a xlink:title="Thread&#45;safe font utility with style, sizing, and caching.">
<polygon fill="#999999" stroke="none" points="554.25,-132.88 484.25,-132.88 484.25,-113.62 554.25,-113.62 554.25,-132.88"/>
<text xml:space="preserve" text-anchor="start" x="492.25" y="-119.42" font-family="Consolas" font-weight="bold" font-size="11.00">npi::Font</text>
</a>
</g>
</g>
<!-- Node2 -->
<g id="Node000002" class="node">
<title>Node2</title>
<g id="a_Node000002"><a xlink:href="../../df/dc2/structnpi_1_1_font_1_1_style.html" target="_top" xlink:title="Object for styling flags and capitalization mode for fonts.">
<polygon fill="white" stroke="none" points="350.75,-269.88 238.75,-269.88 238.75,-250.62 350.75,-250.62 350.75,-269.88"/>
<text xml:space="preserve" text-anchor="middle" x="294.75" y="-255.43" font-family="Consolas" font-size="11.00">npi::Font::Style</text>
</a>
</g>
</g>
<!-- Node2&#45;&gt;Node1 -->
<g id="edge1_Node000001_Node000002" class="edge">
<title>Node2&#45;&gt;Node1</title>
<g id="a_edge1_Node000001_Node000002"><a xlink:title=" ">
<path fill="none" stroke="#9a32cd" stroke-dasharray="5,2" d="M356.74,-265.39C391.92,-265.23 435.19,-259.36 466.25,-236.25 501.25,-210.21 513.39,-154.91 516.96,-132.74"/>
<polygon fill="#9a32cd" stroke="#9a32cd" points="351.94,-265.37 356.95,-263.14 353.23,-265.37 356.94,-265.39 356.94,-265.39 356.94,-265.39 353.23,-265.37 356.93,-267.64 351.94,-265.37"/>
</a>
</g>
<text xml:space="preserve" text-anchor="start" x="410.75" y="-267.55" font-family="Consolas" font-size="10.00" fill="grey">style_</text>
</g>
<!-- Node3 -->
<g id="Node000003" class="node">
<title>Node3</title>
<g id="a_Node000003"><a xlink:title=" ">
<polygon fill="white" stroke="none" points="70,-289.88 30,-289.88 30,-270.62 70,-270.62 70,-289.88"/>
<text xml:space="preserve" text-anchor="middle" x="50" y="-275.43" font-family="Consolas" font-size="11.00">bool</text>
</a>
</g>
</g>
<!-- Node3&#45;&gt;Node2 -->
<g id="edge2_Node000002_Node000003" class="edge">
<title>Node3&#45;&gt;Node2</title>
<g id="a_edge2_Node000002_Node000003"><a xlink:title=" ">
<path fill="none" stroke="#9a32cd" stroke-dasharray="5,2" d="M75.42,-278.24C113.39,-275.11 187.56,-269 238.84,-264.77"/>
<polygon fill="#9a32cd" stroke="#9a32cd" points="70.86,-278.61 75.66,-275.96 72.14,-278.51 75.84,-278.2 75.84,-278.2 75.84,-278.2 72.14,-278.51 76.03,-280.45 70.86,-278.61"/>
</a>
</g>
<text xml:space="preserve" text-anchor="start" x="134.12" y="-336.34" font-family="Consolas" font-size="10.00" fill="grey">bold_</text>
<text xml:space="preserve" text-anchor="start" x="134.12" y="-321.84" font-family="Consolas" font-size="10.00" fill="grey">italic_</text>
<text xml:space="preserve" text-anchor="start" x="134.12" y="-307.34" font-family="Consolas" font-size="10.00" fill="grey">overline_</text>
<text xml:space="preserve" text-anchor="start" x="134.12" y="-292.84" font-family="Consolas" font-size="10.00" fill="grey">strikeout_</text>
<text xml:space="preserve" text-anchor="start" x="134.12" y="-278.34" font-family="Consolas" font-size="10.00" fill="grey">underline_</text>
</g>
<!-- Node4 -->
<g id="Node000004" class="node">
<title>Node4</title>
<g id="a_Node000004"><a xlink:title=" ">
<polygon fill="white" stroke="none" points="100,-249.88 0,-249.88 0,-230.62 100,-230.62 100,-249.88"/>
<text xml:space="preserve" text-anchor="middle" x="50" y="-235.43" font-family="Consolas" font-size="11.00">Capitalization</text>
</a>
</g>
</g>
<!-- Node4&#45;&gt;Node2 -->
<g id="edge3_Node000002_Node000004" class="edge">
<title>Node4&#45;&gt;Node2</title>
<g id="a_edge3_Node000002_Node000004"><a xlink:title=" ">
<path fill="none" stroke="#9a32cd" stroke-dasharray="5,2" d="M105.99,-241.81C134.84,-242.92 170.75,-244.77 202.75,-247.75 214.5,-248.85 227.06,-250.35 238.98,-251.94"/>
<polygon fill="#9a32cd" stroke="#9a32cd" points="101.16,-241.63 106.24,-239.57 102.44,-241.68 106.16,-241.82 106.16,-241.82 106.16,-241.82 102.44,-241.68 106.07,-244.07 101.16,-241.63"/>
</a>
</g>
<text xml:space="preserve" text-anchor="start" x="121" y="-251.75" font-family="Consolas" font-size="10.00" fill="grey">capitalization_</text>
</g>
<!-- Node5 -->
<g id="Node000005" class="node">
<title>Node5</title>
<g id="a_Node000005"><a xlink:title=" ">
<polygon fill="white" stroke="none" points="311.75,-186.88 277.75,-186.88 277.75,-167.62 311.75,-167.62 311.75,-186.88"/>
<text xml:space="preserve" text-anchor="middle" x="294.75" y="-172.43" font-family="Consolas" font-size="11.00">int</text>
</a>
</g>
</g>
<!-- Node5&#45;&gt;Node1 -->
<g id="edge4_Node000001_Node000005" class="edge">
<title>Node5&#45;&gt;Node1</title>
<g id="a_edge4_Node000001_Node000005"><a xlink:title=" ">
<path fill="none" stroke="#9a32cd" stroke-dasharray="5,2" d="M317.48,-177.34C350.56,-176.84 415.07,-173.35 466.25,-155.25 481.04,-150.02 496.11,-140.14 506.19,-132.74"/>
<polygon fill="#9a32cd" stroke="#9a32cd" points="312.52,-177.39 317.5,-175.09 313.8,-177.38 317.52,-177.34 317.52,-177.34 317.52,-177.34 313.8,-177.38 317.54,-179.59 312.52,-177.39"/>
</a>
</g>
<text xml:space="preserve" text-anchor="start" x="395" y="-219.97" font-family="Consolas" font-size="10.00" fill="grey">AppFontSize_</text>
<text xml:space="preserve" text-anchor="start" x="395" y="-205.47" font-family="Consolas" font-size="10.00" fill="grey">FixFontSize_</text>
<text xml:space="preserve" text-anchor="start" x="395" y="-190.97" font-family="Consolas" font-size="10.00" fill="grey">absSize_</text>
<text xml:space="preserve" text-anchor="start" x="395" y="-176.47" font-family="Consolas" font-size="10.00" fill="grey">relSize_</text>
</g>
<!-- Node6 -->
<g id="Node000006" class="node">
<title>Node6</title>
<g id="a_Node000006"><a xlink:title=" ">
<polygon fill="white" stroke="none" points="341.75,-132.88 247.75,-132.88 247.75,-113.62 341.75,-113.62 341.75,-132.88"/>
<text xml:space="preserve" text-anchor="middle" x="294.75" y="-118.42" font-family="Consolas" font-size="11.00">static QMutex</text>
</a>
</g>
</g>
<!-- Node6&#45;&gt;Node1 -->
<g id="edge5_Node000001_Node000006" class="edge">
<title>Node6&#45;&gt;Node1</title>
<g id="a_edge5_Node000001_Node000006"><a xlink:title=" ">
<path fill="none" stroke="#9a32cd" stroke-dasharray="5,2" d="M347.68,-123.25C389.85,-123.25 448.1,-123.25 484.44,-123.25"/>
<polygon fill="#9a32cd" stroke="#9a32cd" points="342.8,-123.25 347.8,-121 344.08,-123.25 347.8,-123.25 347.8,-123.25 347.8,-123.25 344.08,-123.25 347.8,-125.5 342.8,-123.25"/>
</a>
</g>
<text xml:space="preserve" text-anchor="start" x="392.38" y="-141.75" font-family="Consolas" font-size="10.00" fill="grey">AppFontMutex_</text>
<text xml:space="preserve" text-anchor="start" x="392.38" y="-127.25" font-family="Consolas" font-size="10.00" fill="grey">FixFontMutex_</text>
</g>
<!-- Node7 -->
<g id="Node000007" class="node">
<title>Node7</title>
<g id="a_Node000007"><a xlink:title=" ">
<polygon fill="white" stroke="none" points="338.75,-78.88 250.75,-78.88 250.75,-59.62 338.75,-59.62 338.75,-78.88"/>
<text xml:space="preserve" text-anchor="middle" x="294.75" y="-64.42" font-family="Consolas" font-size="11.00">static QFont</text>
</a>
</g>
</g>
<!-- Node7&#45;&gt;Node1 -->
<g id="edge6_Node000001_Node000007" class="edge">
<title>Node7&#45;&gt;Node1</title>
<g id="a_edge6_Node000001_Node000007"><a xlink:title=" ">
<path fill="none" stroke="#9a32cd" stroke-dasharray="5,2" d="M344.65,-68.56C379.53,-69.53 427,-73.85 466.25,-88.25 481.98,-94.02 497.6,-105.52 507.56,-113.76"/>
<polygon fill="#9a32cd" stroke="#9a32cd" points="339.95,-68.45 345,-66.32 341.23,-68.48 344.95,-68.57 344.95,-68.57 344.95,-68.57 341.23,-68.48 344.9,-70.82 339.95,-68.45"/>
</a>
</g>
<text xml:space="preserve" text-anchor="start" x="405.5" y="-106.75" font-family="Consolas" font-size="10.00" fill="grey">AppFont_</text>
<text xml:space="preserve" text-anchor="start" x="405.5" y="-92.25" font-family="Consolas" font-size="10.00" fill="grey">FixFont_</text>
</g>
<!-- Node8 -->
<g id="Node000008" class="node">
<title>Node8</title>
<g id="a_Node000008"><a xlink:title=" ">
<polygon fill="white" stroke="none" points="368.75,-30.5 220.75,-30.5 220.75,0 368.75,0 368.75,-30.5"/>
<text xml:space="preserve" text-anchor="start" x="228.75" y="-16.05" font-family="Consolas" font-size="11.00">static QHash&lt; size</text>
<text xml:space="preserve" text-anchor="middle" x="294.75" y="-4.8" font-family="Consolas" font-size="11.00">_t, npi::Font::Group &gt;</text>
</a>
</g>
</g>
<!-- Node8&#45;&gt;Node1 -->
<g id="edge7_Node000001_Node000008" class="edge">
<title>Node8&#45;&gt;Node1</title>
<g id="a_edge7_Node000001_Node000008"><a xlink:title=" ">
<path fill="none" stroke="#9a32cd" stroke-dasharray="5,2" d="M374.72,-10.62C405.42,-12.32 439.54,-18.85 466.25,-36.25 494.85,-54.88 509.97,-95.24 515.61,-113.69"/>
<polygon fill="#9a32cd" stroke="#9a32cd" points="369.85,-10.39 374.95,-8.37 371.13,-10.45 374.85,-10.62 374.85,-10.62 374.85,-10.62 371.13,-10.45 374.74,-12.87 369.85,-10.39"/>
</a>
</g>
<text xml:space="preserve" text-anchor="start" x="389.75" y="-54.75" font-family="Consolas" font-size="10.00" fill="grey">AppGroupCache_</text>
<text xml:space="preserve" text-anchor="start" x="389.75" y="-40.25" font-family="Consolas" font-size="10.00" fill="grey">FixGroupCache_</text>
</g>
</g>
</svg>
