<?xml version="1.0" encoding="UTF-8" standalone="no"?>
<!DOCTYPE svg PUBLIC "-//W3C//DTD SVG 1.1//EN"
 "http://www.w3.org/Graphics/SVG/1.1/DTD/svg11.dtd">
<!-- Generated by graphviz version 14.0.0 (20250921.2048)
 -->
<!-- Title: Show.hpp Pages: 1 -->
<!--zoomable 83 -->

<svg id="main" version="1.1" xmlns="http://www.w3.org/2000/svg" xmlns:xlink="http://www.w3.org/1999/xlink" xml:space="preserve" onload="init(evt)">

<style type="text/css"><![CDATA[
.node, .edge {opacity: 0.7;}
.node.selected, .edge.selected {opacity: 1;}
.edge:hover path { stroke: red; }
.edge:hover polygon { stroke: red; fill: red; }
]]></style>

<defs>
  <circle id="rim" cx="0" cy="0" r="7"/>
  <circle id="rim2" cx="0" cy="0" r="3.5"/>
  <g id="zoomPlus">
    <use xlink:href="#rim" fill="#404040"><set attributeName="fill" to="#808080" begin="zoomplus.mouseover" end="zoomplus.mouseout"/></use>
    <path d="M-4,0h8M0,-4v8" fill="none" stroke="white" stroke-width="1.5" pointer-events="none"/>
  </g>
  <g id="zoomMin">
    <use xlink:href="#rim" fill="#404040"><set attributeName="fill" to="#808080" begin="zoomminus.mouseover" end="zoomminus.mouseout"/></use>
    <path d="M-4,0h8" fill="none" stroke="white" stroke-width="1.5" pointer-events="none"/>
  </g>
  <g id="arrowUp" transform="translate(30 24)">
    <use xlink:href="#rim"/>
    <path pointer-events="none" fill="none" stroke="white" stroke-width="1.5" d="M0,-3.0v7 M-2.5,-0.5L0,-3.0L2.5,-0.5"/>
  </g>
  <g id="arrowRight" transform="rotate(90) translate(36 -43)">
    <use xlink:href="#rim"/>
    <path pointer-events="none" fill="none" stroke="white" stroke-width="1.5" d="M0,-3.0v7 M-2.5,-0.5L0,-3.0L2.5,-0.5"/>
  </g>
  <g id="arrowDown" transform="rotate(180) translate(-30 -48)">
    <use xlink:href="#rim"/>
    <path pointer-events="none" fill="none" stroke="white" stroke-width="1.5" d="M0,-3.0v7 M-2.5,-0.5L0,-3.0L2.5,-0.5"/>
  </g>
  <g id="arrowLeft" transform="rotate(270) translate(-36 17)">
    <use xlink:href="#rim"/>
    <path pointer-events="none" fill="none" stroke="white" stroke-width="1.5" d="M0,-3.0v7 M-2.5,-0.5L0,-3.0L2.5,-0.5"/>
  </g>
  <g id="resetDef">
    <use xlink:href="#rim2" fill="#404040"><set attributeName="fill" to="#808080" begin="reset.mouseover" end="reset.mouseout"/></use>
  </g>
</defs>
<script type="application/ecmascript">
var viewWidth = 1238;
var viewHeight = 83;
var sectionId = 'dynsection-0';
</script>
<script type="application/ecmascript" xlink:href="../../svg.min.js"/>
<svg id="graph" class="graph">
<g id="viewport">
<title>Show.hpp</title>
<!-- Node1 -->
<g id="Node000001" class="node">
<title>Node1</title>
<g id="a_Node000001"><a xlink:title="Header&#45;only utility for showing a top&#45;level widget either instantly or with a source&#45;origin animation...">
<polygon fill="#999999" stroke="none" points="704,-74.5 640,-74.5 640,-55.25 704,-55.25 704,-74.5"/>
<text xml:space="preserve" text-anchor="start" x="648" y="-61.05" font-family="Consolas" font-weight="bold" font-size="11.00">Show.hpp</text>
</a>
</g>
</g>
<!-- Node2 -->
<g id="Node000002" class="node">
<title>Node2</title>
<g id="a_Node000002"><a xlink:title=" ">
<polygon fill="#e0e0e0" stroke="none" points="58,-19.25 0,-19.25 0,0 58,0 58,-19.25"/>
<text xml:space="preserve" text-anchor="middle" x="29" y="-4.8" font-family="Consolas" font-size="11.00">QObject</text>
</a>
</g>
</g>
<!-- Node1&#45;&gt;Node2 -->
<g id="edge1_Node000001_Node000002" class="edge">
<title>Node1&#45;&gt;Node2</title>
<g id="a_edge1_Node000001_Node000002"><a xlink:title=" ">
<path fill="none" stroke="#63b8ff" d="M640.32,-63.21C550.18,-60.94 284.7,-51.8 67,-19.25 65.99,-19.1 64.96,-18.94 63.93,-18.76"/>
<polygon fill="#63b8ff" stroke="#63b8ff" points="59.16,-17.89 64.48,-16.58 60.42,-18.12 64.08,-18.79 64.08,-18.79 64.08,-18.79 60.42,-18.12 63.67,-21 59.16,-17.89"/>
</a>
</g>
</g>
<!-- Node3 -->
<g id="Node000003" class="node">
<title>Node3</title>
<g id="a_Node000003"><a xlink:title=" ">
<polygon fill="#e0e0e0" stroke="none" points="128,-19.25 76,-19.25 76,0 128,0 128,-19.25"/>
<text xml:space="preserve" text-anchor="middle" x="102" y="-4.8" font-family="Consolas" font-size="11.00">QStyle</text>
</a>
</g>
</g>
<!-- Node1&#45;&gt;Node3 -->
<g id="edge2_Node000001_Node000003" class="edge">
<title>Node1&#45;&gt;Node3</title>
<g id="a_edge2_Node000001_Node000003"><a xlink:title=" ">
<path fill="none" stroke="#63b8ff" d="M640.13,-62.98C556.88,-60.25 326.24,-50.26 137,-19.25 135.98,-19.08 134.95,-18.9 133.91,-18.71"/>
<polygon fill="#63b8ff" stroke="#63b8ff" points="129.09,-17.73 134.44,-16.52 130.35,-17.99 133.99,-18.73 133.99,-18.73 133.99,-18.73 130.35,-17.99 133.55,-20.93 129.09,-17.73"/>
</a>
</g>
</g>
<!-- Node4 -->
<g id="Node000004" class="node">
<title>Node4</title>
<g id="a_Node000004"><a xlink:title=" ">
<polygon fill="#e0e0e0" stroke="none" points="204,-19.25 146,-19.25 146,0 204,0 204,-19.25"/>
<text xml:space="preserve" text-anchor="middle" x="175" y="-4.8" font-family="Consolas" font-size="11.00">QWidget</text>
</a>
</g>
</g>
<!-- Node1&#45;&gt;Node4 -->
<g id="edge3_Node000001_Node000004" class="edge">
<title>Node1&#45;&gt;Node4</title>
<g id="a_edge3_Node000001_Node000004"><a xlink:title=" ">
<path fill="none" stroke="#63b8ff" d="M640.1,-62.16C565.18,-57.84 372.27,-44.96 213,-19.25 211.99,-19.09 210.97,-18.91 209.93,-18.73"/>
<polygon fill="#63b8ff" stroke="#63b8ff" points="205.17,-17.82 210.5,-16.55 206.43,-18.06 210.08,-18.76 210.08,-18.76 210.08,-18.76 206.43,-18.06 209.66,-20.97 205.17,-17.82"/>
</a>
</g>
</g>
<!-- Node5 -->
<g id="Node000005" class="node">
<title>Node5</title>
<g id="a_Node000005"><a xlink:title=" ">
<polygon fill="#e0e0e0" stroke="none" points="280,-19.25 222,-19.25 222,0 280,0 280,-19.25"/>
<text xml:space="preserve" text-anchor="middle" x="251" y="-4.8" font-family="Consolas" font-size="11.00">QScreen</text>
</a>
</g>
</g>
<!-- Node1&#45;&gt;Node5 -->
<g id="edge4_Node000001_Node000005" class="edge">
<title>Node1&#45;&gt;Node5</title>
<g id="a_edge4_Node000001_Node000005"><a xlink:title=" ">
<path fill="none" stroke="#63b8ff" d="M640.06,-61.32C574.13,-55.79 418.33,-41.4 289,-19.25 287.99,-19.08 286.97,-18.89 285.94,-18.7"/>
<polygon fill="#63b8ff" stroke="#63b8ff" points="281.18,-17.77 286.52,-16.52 282.44,-18.02 286.08,-18.73 286.08,-18.73 286.08,-18.73 282.44,-18.02 285.65,-20.94 281.18,-17.77"/>
</a>
</g>
</g>
<!-- Node6 -->
<g id="Node000006" class="node">
<title>Node6</title>
<g id="a_Node000006"><a xlink:title=" ">
<polygon fill="#e0e0e0" stroke="none" points="362,-19.25 298,-19.25 298,0 362,0 362,-19.25"/>
<text xml:space="preserve" text-anchor="middle" x="330" y="-4.8" font-family="Consolas" font-size="11.00">QPointer</text>
</a>
</g>
</g>
<!-- Node1&#45;&gt;Node6 -->
<g id="edge5_Node000001_Node000006" class="edge">
<title>Node1&#45;&gt;Node6</title>
<g id="a_edge5_Node000001_Node000006"><a xlink:title=" ">
<path fill="none" stroke="#63b8ff" d="M640.26,-59.81C585.27,-52.62 468.76,-36.76 371,-19.25 369.87,-19.05 368.73,-18.84 367.57,-18.62"/>
<polygon fill="#63b8ff" stroke="#63b8ff" points="362.94,-17.73 368.28,-16.47 364.2,-17.97 367.85,-18.68 367.85,-18.68 367.85,-18.68 364.2,-17.97 367.43,-20.89 362.94,-17.73"/>
</a>
</g>
</g>
<!-- Node7 -->
<g id="Node000007" class="node">
<title>Node7</title>
<g id="a_Node000007"><a xlink:title=" ">
<polygon fill="#e0e0e0" stroke="none" points="468,-19.25 380,-19.25 380,0 468,0 468,-19.25"/>
<text xml:space="preserve" text-anchor="middle" x="424" y="-4.8" font-family="Consolas" font-size="11.00">QApplication</text>
</a>
</g>
</g>
<!-- Node1&#45;&gt;Node7 -->
<g id="edge6_Node000001_Node000007" class="edge">
<title>Node1&#45;&gt;Node7</title>
<g id="a_edge6_Node000001_Node000007"><a xlink:title=" ">
<path fill="none" stroke="#63b8ff" d="M640.09,-57.02C596.84,-47.74 519.36,-31.1 469.88,-20.48"/>
<polygon fill="#63b8ff" stroke="#63b8ff" points="465.18,-19.47 470.54,-18.32 466.44,-19.74 470.07,-20.52 470.07,-20.52 470.07,-20.52 466.44,-19.74 469.6,-22.72 465.18,-19.47"/>
</a>
</g>
</g>
<!-- Node8 -->
<g id="Node000008" class="node">
<title>Node8</title>
<g id="a_Node000008"><a xlink:title=" ">
<polygon fill="#e0e0e0" stroke="none" points="610,-19.25 486,-19.25 486,0 610,0 610,-19.25"/>
<text xml:space="preserve" text-anchor="middle" x="548" y="-4.8" font-family="Consolas" font-size="11.00">QPropertyAnimation</text>
</a>
</g>
</g>
<!-- Node1&#45;&gt;Node8 -->
<g id="edge7_Node000001_Node000008" class="edge">
<title>Node1&#45;&gt;Node8</title>
<g id="a_edge7_Node000001_Node000008"><a xlink:title=" ">
<path fill="none" stroke="#63b8ff" d="M652.08,-55.32C630.75,-46.16 596.83,-31.59 573.55,-21.6"/>
<polygon fill="#63b8ff" stroke="#63b8ff" points="568.99,-19.64 574.48,-19.55 570.17,-20.15 573.59,-21.61 573.59,-21.61 573.59,-21.61 570.17,-20.15 572.7,-23.68 568.99,-19.64"/>
</a>
</g>
</g>
<!-- Node9 -->
<g id="Node000009" class="node">
<title>Node9</title>
<g id="a_Node000009"><a xlink:title=" ">
<polygon fill="#e0e0e0" stroke="none" points="716,-19.25 628,-19.25 628,0 716,0 716,-19.25"/>
<text xml:space="preserve" text-anchor="middle" x="672" y="-4.8" font-family="Consolas" font-size="11.00">QEasingCurve</text>
</a>
</g>
</g>
<!-- Node1&#45;&gt;Node9 -->
<g id="edge8_Node000001_Node000009" class="edge">
<title>Node1&#45;&gt;Node9</title>
<g id="a_edge8_Node000001_Node000009"><a xlink:title=" ">
<path fill="none" stroke="#63b8ff" d="M672,-55.55C672,-47.4 672,-34.79 672,-25.01"/>
<polygon fill="#63b8ff" stroke="#63b8ff" points="672,-20.28 674.25,-25.28 672,-21.56 672,-25.28 672,-25.28 672,-25.28 672,-21.56 669.75,-25.28 672,-20.28"/>
</a>
</g>
</g>
<!-- Node10 -->
<g id="Node000010" class="node">
<title>Node10</title>
<g id="a_Node000010"><a xlink:title=" ">
<polygon fill="#e0e0e0" stroke="none" points="792,-19.25 734,-19.25 734,0 792,0 792,-19.25"/>
<text xml:space="preserve" text-anchor="middle" x="763" y="-4.8" font-family="Consolas" font-size="11.00">QCursor</text>
</a>
</g>
</g>
<!-- Node1&#45;&gt;Node10 -->
<g id="edge9_Node000001_Node000010" class="edge">
<title>Node1&#45;&gt;Node10</title>
<g id="a_edge9_Node000001_Node000010"><a xlink:title=" ">
<path fill="none" stroke="#63b8ff" d="M686.62,-55.32C702.01,-46.31 726.32,-32.09 743.37,-22.11"/>
<polygon fill="#63b8ff" stroke="#63b8ff" points="747.36,-19.77 744.18,-24.24 746.26,-20.42 743.05,-22.3 743.05,-22.3 743.05,-22.3 746.26,-20.42 741.91,-20.36 747.36,-19.77"/>
</a>
</g>
</g>
<!-- Node11 -->
<g id="Node000011" class="node">
<title>Node11</title>
<g id="a_Node000011"><a xlink:title=" ">
<polygon fill="#e0e0e0" stroke="none" points="862,-19.25 810,-19.25 810,0 862,0 862,-19.25"/>
<text xml:space="preserve" text-anchor="middle" x="836" y="-4.8" font-family="Consolas" font-size="11.00">QPoint</text>
</a>
</g>
</g>
<!-- Node1&#45;&gt;Node11 -->
<g id="edge10_Node000001_Node000011" class="edge">
<title>Node1&#45;&gt;Node11</title>
<g id="a_edge10_Node000001_Node000011"><a xlink:title=" ">
<path fill="none" stroke="#63b8ff" d="M698.35,-55.32C727.33,-45.91 773.87,-30.8 804.69,-20.79"/>
<polygon fill="#63b8ff" stroke="#63b8ff" points="809.1,-19.36 805.04,-23.04 807.88,-19.76 804.34,-20.9 804.34,-20.9 804.34,-20.9 807.88,-19.76 803.65,-18.76 809.1,-19.36"/>
</a>
</g>
</g>
<!-- Node12 -->
<g id="Node000012" class="node">
<title>Node12</title>
<g id="a_Node000012"><a xlink:title=" ">
<polygon fill="#e0e0e0" stroke="none" points="926,-19.25 880,-19.25 880,0 926,0 926,-19.25"/>
<text xml:space="preserve" text-anchor="middle" x="903" y="-4.8" font-family="Consolas" font-size="11.00">QRect</text>
</a>
</g>
</g>
<!-- Node1&#45;&gt;Node12 -->
<g id="edge11_Node000001_Node000012" class="edge">
<title>Node1&#45;&gt;Node12</title>
<g id="a_edge11_Node000001_Node000012"><a xlink:title=" ">
<path fill="none" stroke="#63b8ff" d="M703.81,-57.18C743.17,-48.79 812.22,-33.76 871,-19.25 872.13,-18.97 873.28,-18.68 874.45,-18.39"/>
<polygon fill="#63b8ff" stroke="#63b8ff" points="879.13,-17.18 874.85,-20.61 877.89,-17.5 874.29,-18.43 874.29,-18.43 874.29,-18.43 877.89,-17.5 873.72,-16.25 879.13,-17.18"/>
</a>
</g>
</g>
<!-- Node13 -->
<g id="Node000013" class="node">
<title>Node13</title>
<g id="a_Node000013"><a xlink:title=" ">
<polygon fill="#e0e0e0" stroke="none" points="996,-19.25 944,-19.25 944,0 996,0 996,-19.25"/>
<text xml:space="preserve" text-anchor="middle" x="970" y="-4.8" font-family="Consolas" font-size="11.00">QColor</text>
</a>
</g>
</g>
<!-- Node1&#45;&gt;Node13 -->
<g id="edge12_Node000001_Node000013" class="edge">
<title>Node1&#45;&gt;Node13</title>
<g id="a_edge12_Node000001_Node000013"><a xlink:title=" ">
<path fill="none" stroke="#63b8ff" d="M703.72,-59.26C753.28,-51.89 852.02,-36.49 935,-19.25 936.01,-19.04 937.04,-18.82 938.07,-18.6"/>
<polygon fill="#63b8ff" stroke="#63b8ff" points="942.87,-17.51 938.49,-20.81 941.62,-17.79 937.99,-18.61 937.99,-18.61 937.99,-18.61 941.62,-17.79 937.49,-16.42 942.87,-17.51"/>
</a>
</g>
</g>
<!-- Node14 -->
<g id="Node000014" class="node">
<title>Node14</title>
<g id="a_Node000014"><a xlink:title=" ">
<polygon fill="#e0e0e0" stroke="none" points="1078,-19.25 1014,-19.25 1014,0 1078,0 1078,-19.25"/>
<text xml:space="preserve" text-anchor="middle" x="1046" y="-4.8" font-family="Consolas" font-size="11.00">QPalette</text>
</a>
</g>
</g>
<!-- Node1&#45;&gt;Node14 -->
<g id="edge13_Node000001_Node000014" class="edge">
<title>Node1&#45;&gt;Node14</title>
<g id="a_edge13_Node000001_Node000014"><a xlink:title=" ">
<path fill="none" stroke="#63b8ff" d="M703.8,-60.41C763.19,-53.76 894.91,-38.18 1005,-19.25 1006.13,-19.06 1007.27,-18.85 1008.43,-18.64"/>
<polygon fill="#63b8ff" stroke="#63b8ff" points="1013.06,-17.77 1008.57,-20.91 1011.8,-18.01 1008.15,-18.7 1008.15,-18.7 1008.15,-18.7 1011.8,-18.01 1007.73,-16.48 1013.06,-17.77"/>
</a>
</g>
</g>
<!-- Node15 -->
<g id="Node000015" class="node">
<title>Node15</title>
<g id="a_Node000015"><a xlink:title=" ">
<polygon fill="#e0e0e0" stroke="none" points="1160,-19.25 1096,-19.25 1096,0 1160,0 1160,-19.25"/>
<text xml:space="preserve" text-anchor="middle" x="1128" y="-4.8" font-family="Consolas" font-size="11.00">QtGlobal</text>
</a>
</g>
</g>
<!-- Node1&#45;&gt;Node15 -->
<g id="edge14_Node000001_Node000015" class="edge">
<title>Node1&#45;&gt;Node15</title>
<g id="a_edge14_Node000001_Node000015"><a xlink:title=" ">
<path fill="none" stroke="#63b8ff" d="M703.9,-61.54C773.67,-56.2 944.93,-41.77 1087,-19.25 1088.13,-19.07 1089.28,-18.88 1090.44,-18.68"/>
<polygon fill="#63b8ff" stroke="#63b8ff" points="1095.08,-17.84 1090.56,-20.95 1093.81,-18.07 1090.15,-18.73 1090.15,-18.73 1090.15,-18.73 1093.81,-18.07 1089.75,-16.52 1095.08,-17.84"/>
</a>
</g>
</g>
<!-- Node16 -->
<g id="Node000016" class="node">
<title>Node16</title>
<g id="a_Node000016"><a xlink:title=" ">
<polygon fill="#e0e0e0" stroke="none" points="1230,-19.25 1178,-19.25 1178,0 1230,0 1230,-19.25"/>
<text xml:space="preserve" text-anchor="middle" x="1204" y="-4.8" font-family="Consolas" font-size="11.00">QtMath</text>
</a>
</g>
</g>
<!-- Node1&#45;&gt;Node16 -->
<g id="edge15_Node000001_Node000016" class="edge">
<title>Node1&#45;&gt;Node16</title>
<g id="a_edge15_Node000001_Node000016"><a xlink:title=" ">
<path fill="none" stroke="#63b8ff" d="M703.9,-62.69C783.11,-59.39 994.9,-48.34 1169,-19.25 1170.02,-19.08 1171.05,-18.9 1172.09,-18.7"/>
<polygon fill="#63b8ff" stroke="#63b8ff" points="1176.9,-17.72 1172.46,-20.92 1175.65,-17.97 1172.01,-18.72 1172.01,-18.72 1172.01,-18.72 1175.65,-17.97 1171.55,-16.51 1176.9,-17.72"/>
</a>
</g>
</g>
</g>
</svg>

<g id="navigator" transform="translate(0 0)" fill="#404254">
  <rect fill="#f2f5e9" fill-opacity="0.5" stroke="#606060" stroke-width=".5" x="0" y="0" width="60" height="60"/>
  <use id="zoomplus" xlink:href="#zoomPlus" x="17" y="9" onmousedown="handleZoom(evt,'in')"/>
  <use id="zoomminus" xlink:href="#zoomMin" x="42" y="9" onmousedown="handleZoom(evt,'out')"/>
  <use id="reset" xlink:href="#resetDef" x="30" y="36" onmousedown="handleReset()"/>
   <use id="arrowup" xlink:href="#arrowUp" x="0" y="0" onmousedown="handlePan(0,-1)"/>
  <use id="arrowright" xlink:href="#arrowRight" x="0" y="0" onmousedown="handlePan(1,0)"/>
  <use id="arrowdown" xlink:href="#arrowDown" x="0" y="0" onmousedown="handlePan(0,1)"/>
  <use id="arrowleft" xlink:href="#arrowLeft" x="0" y="0" onmousedown="handlePan(-1,0)"/>
</g>
<svg viewBox="0 0 15 15" width="100%" height="30px" preserveAspectRatio="xMaxYMin meet">
 <g id="arrow_out" transform="scale(0.3 0.3)">
  <a xlink:href="_show_8hpp__incl_org.svg" target="_base">
   <rect id="button" ry="5" rx="5" y="6" x="6" height="38" width="38"
        fill="#f2f5e9" fill-opacity="0.5" stroke="#606060" stroke-width="1.0"/>
   <path id="arrow"
     d="M 11.500037,31.436501 C 11.940474,20.09759 22.043105,11.32322 32.158766,21.979434 L 37.068811,17.246167 C 37.068811,17.246167 37.088388,32 37.088388,32 L 22.160133,31.978069 C 22.160133,31.978069 26.997745,27.140456 26.997745,27.140456 C 18.528582,18.264221 13.291696,25.230495 11.500037,31.436501 z"
     style="fill:#404040;"/>
  </a>
 </g>
</svg>

<style type='text/css'>
<![CDATA[
[data-mouse-over-selected='false'] { opacity: 0.7; }
[data-mouse-over-selected='true']  { opacity: 1.0; }
]]>
</style>
<script type="application/ecmascript"><![CDATA[
document.addEventListener('DOMContentLoaded', (event) => {
  highlightEdges();
  highlightAdjacentNodes();
});
]]></script>
</svg>
