<?xml version="1.0" encoding="UTF-8" standalone="no"?>
<!DOCTYPE svg PUBLIC "-//W3C//DTD SVG 1.1//EN"
 "http://www.w3.org/Graphics/SVG/1.1/DTD/svg11.dtd">
<!-- Generated by graphviz version 14.0.0 (20250921.2048)
 -->
<!-- Title: npi::GlobalLocker Pages: 1 -->
<svg width="129pt" height="99pt"
 viewBox="0.00 0.00 129.00 99.00" xmlns="http://www.w3.org/2000/svg" xmlns:xlink="http://www.w3.org/1999/xlink">
<g id="graph0" class="graph" transform="scale(1 1) rotate(0) translate(4 95)">
<title>npi::GlobalLocker</title>
<!-- Node1 -->
<g id="Node000001" class="node">
<title>Node1</title>
<g id="a_Node000001"><a xlink:title="RAII wrapper around a Windows named mutex for both inter&#45;process and inter&#45;thread synchronization.">
<polygon fill="#999999" stroke="none" points="118,-19.25 0,-19.25 0,0 118,0 118,-19.25"/>
<text xml:space="preserve" text-anchor="start" x="8" y="-5.8" font-family="Consolas" font-weight="bold" font-size="11.00">npi::GlobalLocker</text>
</a>
</g>
</g>
<!-- Node2 -->
<g id="Node000002" class="node">
<title>Node2</title>
<g id="a_Node000002"><a xlink:title=" ">
<polygon fill="white" stroke="none" points="52,-91 0,-91 0,-71.75 52,-71.75 52,-91"/>
<text xml:space="preserve" text-anchor="middle" x="26" y="-76.55" font-family="Consolas" font-size="11.00">HANDLE</text>
</a>
</g>
</g>
<!-- Node2&#45;&gt;Node1 -->
<g id="edge1_Node000001_Node000002" class="edge">
<title>Node2&#45;&gt;Node1</title>
<g id="a_edge1_Node000001_Node000002"><a xlink:title=" ">
<path fill="none" stroke="#9a32cd" stroke-dasharray="5,2" d="M23.54,-65.82C22.75,-57.11 22.98,-46.06 27.25,-37.25 30.89,-29.74 37.75,-23.57 44.16,-19.07"/>
<polygon fill="#9a32cd" stroke="#9a32cd" points="24.14,-70.74 21.3,-66.06 23.99,-69.47 23.53,-65.78 23.53,-65.78 23.53,-65.78 23.99,-69.47 25.77,-65.51 24.14,-70.74"/>
</a>
</g>
<text xml:space="preserve" text-anchor="start" x="30.25" y="-41.25" font-family="Consolas" font-size="10.00" fill="grey">handle_</text>
</g>
<!-- Node3 -->
<g id="Node000003" class="node">
<title>Node3</title>
<g id="a_Node000003"><a xlink:title=" ">
<polygon fill="white" stroke="none" points="112,-91 72,-91 72,-71.75 112,-71.75 112,-91"/>
<text xml:space="preserve" text-anchor="middle" x="92" y="-76.55" font-family="Consolas" font-size="11.00">bool</text>
</a>
</g>
</g>
<!-- Node3&#45;&gt;Node1 -->
<g id="edge2_Node000001_Node000003" class="edge">
<title>Node3&#45;&gt;Node1</title>
<g id="a_edge2_Node000001_Node000003"><a xlink:title=" ">
<path fill="none" stroke="#9a32cd" stroke-dasharray="5,2" d="M85.33,-66.27C78.66,-52.19 68.64,-31 63.08,-19.25"/>
<polygon fill="#9a32cd" stroke="#9a32cd" points="87.43,-70.72 83.26,-67.16 86.88,-69.56 85.29,-66.2 85.29,-66.2 85.29,-66.2 86.88,-69.56 87.33,-65.24 87.43,-70.72"/>
</a>
</g>
<text xml:space="preserve" text-anchor="start" x="81.46" y="-41.25" font-family="Consolas" font-size="10.00" fill="grey">locked_</text>
</g>
</g>
</svg>
