<?xml version="1.0" encoding="UTF-8" standalone="no"?>
<!DOCTYPE svg PUBLIC "-//W3C//DTD SVG 1.1//EN"
 "http://www.w3.org/Graphics/SVG/1.1/DTD/svg11.dtd">
<!-- Generated by graphviz version 14.0.0 (20250921.2048)
 -->
<!-- Title: anonymous_namespace{Log.cpp}::LogCore::InitialLog Pages: 1 -->
<svg width="318pt" height="99pt"
 viewBox="0.00 0.00 318.00 99.00" xmlns="http://www.w3.org/2000/svg" xmlns:xlink="http://www.w3.org/1999/xlink">

<svg id="main" version="1.1" xmlns="http://www.w3.org/2000/svg" xmlns:xlink="http://www.w3.org/1999/xlink" xml:space="preserve">

<style type="text/css"><![CDATA[
.node, .edge {opacity: 0.7;}
.node.selected, .edge.selected {opacity: 1;}
.edge:hover path { stroke: red; }
.edge:hover polygon { stroke: red; fill: red; }
]]></style>
<script type="application/ecmascript" xlink:href="../../svg.min.js"/>
<svg id="graph" class="graph">
<g id="graph0" class="graph" transform="scale(1 1) rotate(0) translate(4 95)">
<title>anonymous_namespace{Log.cpp}::LogCore::InitialLog</title>
<!-- Node1 -->
<g id="Node000001" class="node">
<title>Node1</title>
<g id="a_Node000001"><a xlink:title=" ">
<polygon fill="#999999" stroke="none" points="310,-19.25 0,-19.25 0,0 310,0 310,-19.25"/>
<text xml:space="preserve" text-anchor="start" x="8" y="-5.8" font-family="Consolas" font-weight="bold" font-size="11.00">anonymous_namespace{Log.cpp}::LogCore::InitialLog</text>
</a>
</g>
</g>
<!-- Node2 -->
<g id="Node000002" class="node">
<title>Node2</title>
<g id="a_Node000002"><a xlink:title=" ">
<polygon fill="white" stroke="none" points="149,-91 79,-91 79,-71.75 149,-71.75 149,-91"/>
<text xml:space="preserve" text-anchor="middle" x="114" y="-76.55" font-family="Consolas" font-size="11.00">QtMsgType</text>
</a>
</g>
</g>
<!-- Node2&#45;&gt;Node1 -->
<g id="edge1_Node000001_Node000002" class="edge">
<title>Node2&#45;&gt;Node1</title>
<g id="a_edge1_Node000001_Node000002"><a xlink:title=" ">
<path fill="none" stroke="#9a32cd" stroke-dasharray="5,2" d="M120.7,-66.46C124.96,-57.89 130.75,-46.76 136.5,-37.25 140.35,-30.89 145.14,-24.01 148.89,-18.84"/>
<polygon fill="#9a32cd" stroke="#9a32cd" points="118.55,-70.84 118.73,-65.36 119.11,-69.69 120.75,-66.36 120.75,-66.36 120.75,-66.36 119.11,-69.69 122.77,-67.35 118.55,-70.84"/>
</a>
</g>
<text xml:space="preserve" text-anchor="start" x="139.5" y="-41.25" font-family="Consolas" font-size="10.00" fill="grey">level_</text>
</g>
<!-- Node3 -->
<g id="Node000003" class="node">
<title>Node3</title>
<g id="a_Node000003"><a xlink:title=" ">
<polygon fill="white" stroke="none" points="225,-91 167,-91 167,-71.75 225,-71.75 225,-91"/>
<text xml:space="preserve" text-anchor="middle" x="196" y="-76.55" font-family="Consolas" font-size="11.00">QString</text>
</a>
</g>
</g>
<!-- Node3&#45;&gt;Node1 -->
<g id="edge2_Node000001_Node000003" class="edge">
<title>Node3&#45;&gt;Node1</title>
<g id="a_edge2_Node000001_Node000003"><a xlink:title=" ">
<path fill="none" stroke="#9a32cd" stroke-dasharray="5,2" d="M189.53,-66.42C185.4,-57.84 179.74,-46.71 174,-37.25 170.11,-30.84 165.18,-23.96 161.32,-18.8"/>
<polygon fill="#9a32cd" stroke="#9a32cd" points="191.62,-70.81 187.44,-67.26 191.07,-69.65 189.47,-66.29 189.47,-66.29 189.47,-66.29 191.07,-69.65 191.5,-65.33 191.62,-70.81"/>
</a>
</g>
<text xml:space="preserve" text-anchor="start" x="186.07" y="-41.25" font-family="Consolas" font-size="10.00" fill="grey">message_</text>
</g>
</g>
</svg>
</svg>

<style type='text/css'>
<![CDATA[
[data-mouse-over-selected='false'] { opacity: 0.7; }
[data-mouse-over-selected='true']  { opacity: 1.0; }
]]>
</style>
<script type="application/ecmascript"><![CDATA[
document.addEventListener('DOMContentLoaded', (event) => {
  highlightEdges();
  highlightAdjacentNodes();
});
]]></script>
</svg>
