<?xml version="1.0" encoding="UTF-8" standalone="no"?>
<!DOCTYPE svg PUBLIC "-//W3C//DTD SVG 1.1//EN"
 "http://www.w3.org/Graphics/SVG/1.1/DTD/svg11.dtd">
<!-- Generated by graphviz version 14.1.5 (20260411.2331)
 -->
<!-- Title: npi::wid::ColorPicker::normalizeChannelData_ Pages: 1 -->
<svg width="644pt" height="210pt"
 viewBox="0.00 0.00 644.00 210.00" xmlns="http://www.w3.org/2000/svg" xmlns:xlink="http://www.w3.org/1999/xlink">
<g id="graph0" class="graph" transform="scale(1 1) rotate(0) translate(4 205.5)">
<title>npi::wid::ColorPicker::normalizeChannelData_</title>
<!-- Node1 -->
<g id="Node000001" class="node">
<title>Node1</title>
<g id="a_Node000001"><a xlink:title="Adjusts channel limits to a valid range.">
<polygon fill="#999999" stroke="none" points="636,-97.88 356,-97.88 356,-78.62 636,-78.62 636,-97.88"/>
<text xml:space="preserve" text-anchor="start" x="364" y="-84.42" font-family="Consolas" font-weight="bold" font-size="11.00">npi::wid::ColorPicker::normalizeChannelData_</text>
</a>
</g>
</g>
<!-- Node2 -->
<g id="Node000002" class="node">
<title>Node2</title>
<g id="a_Node000002"><a xlink:href="../../d5/d7a/classnpi_1_1wid_1_1_color_picker.html#ac8f2c42a07ec230698c80ce66ffce7cf" target="_top" xlink:title="Applies configuration and updates the color; optionally signals color change.">
<polygon fill="white" stroke="none" points="320,-177.5 178,-177.5 178,-147 320,-147 320,-177.5"/>
<text xml:space="preserve" text-anchor="start" x="186" y="-163.05" font-family="Consolas" font-size="11.00">npi::wid::ColorPicker</text>
<text xml:space="preserve" text-anchor="middle" x="249" y="-151.8" font-family="Consolas" font-size="11.00">::applyConfig_</text>
</a>
</g>
</g>
<!-- Node1&#45;&gt;Node2 -->
<g id="edge1_Node000001_Node000002" class="edge">
<title>Node1&#45;&gt;Node2</title>
<g id="a_edge1_Node000001_Node000002"><a xlink:title=" ">
<path fill="none" stroke="#63b8ff" d="M457.71,-99.51C415.6,-112.23 346.87,-132.99 300.1,-147.12"/>
<polygon fill="#63b8ff" stroke="#63b8ff" points="462.31,-98.13 458.17,-101.72 461.08,-98.5 457.52,-99.57 457.52,-99.57 457.52,-99.57 461.08,-98.5 456.87,-97.42 462.31,-98.13"/>
</a>
</g>
</g>
<!-- Node5 -->
<g id="Node000005" class="node">
<title>Node5</title>
<g id="a_Node000005"><a xlink:href="../../d5/d7a/classnpi_1_1wid_1_1_color_picker.html#a652094b229d7eb4cb85178293cb41204" target="_top" xlink:title="Applies channel settings; optionally signals color change.">
<polygon fill="white" stroke="none" points="320,-128.5 178,-128.5 178,-98 320,-98 320,-128.5"/>
<text xml:space="preserve" text-anchor="start" x="186" y="-114.05" font-family="Consolas" font-size="11.00">npi::wid::ColorPicker</text>
<text xml:space="preserve" text-anchor="middle" x="249" y="-102.8" font-family="Consolas" font-size="11.00">::setChannelConfig_</text>
</a>
</g>
</g>
<!-- Node1&#45;&gt;Node5 -->
<g id="edge4_Node000001_Node000005" class="edge">
<title>Node1&#45;&gt;Node5</title>
<g id="a_edge4_Node000001_Node000005"><a xlink:title=" ">
<path fill="none" stroke="#63b8ff" d="M394.94,-98.46C369.71,-101.03 343.17,-103.74 319.8,-106.13"/>
<polygon fill="#63b8ff" stroke="#63b8ff" points="399.77,-97.97 395.02,-100.71 398.49,-98.1 394.79,-98.48 394.79,-98.48 394.79,-98.48 398.49,-98.1 394.56,-96.24 399.77,-97.97"/>
</a>
</g>
</g>
<!-- Node6 -->
<g id="Node000006" class="node">
<title>Node6</title>
<g id="a_Node000006"><a xlink:href="../../d5/d7a/classnpi_1_1wid_1_1_color_picker.html#ad103a89e11e33517a68fcc60b28c4262" target="_top" xlink:title="Sets the channel maximum; optionally signals color change.">
<polygon fill="white" stroke="none" points="320,-79.5 178,-79.5 178,-49 320,-49 320,-79.5"/>
<text xml:space="preserve" text-anchor="start" x="186" y="-65.05" font-family="Consolas" font-size="11.00">npi::wid::ColorPicker</text>
<text xml:space="preserve" text-anchor="middle" x="249" y="-53.8" font-family="Consolas" font-size="11.00">::setChannelMax_</text>
</a>
</g>
</g>
<!-- Node1&#45;&gt;Node6 -->
<g id="edge5_Node000001_Node000006" class="edge">
<title>Node1&#45;&gt;Node6</title>
<g id="a_edge5_Node000001_Node000006"><a xlink:title=" ">
<path fill="none" stroke="#63b8ff" d="M390.71,-78.03C366.84,-75.7 342.02,-73.26 320,-71.11"/>
<polygon fill="#63b8ff" stroke="#63b8ff" points="395.55,-78.51 390.35,-80.26 394.27,-78.38 390.57,-78.02 390.57,-78.02 390.57,-78.02 394.27,-78.38 390.79,-75.78 395.55,-78.51"/>
</a>
</g>
</g>
<!-- Node7 -->
<g id="Node000007" class="node">
<title>Node7</title>
<g id="a_Node000007"><a xlink:href="../../d5/d7a/classnpi_1_1wid_1_1_color_picker.html#ad717df1267a58124a58e2b7c6d2e46a4" target="_top" xlink:title="Sets the channel minimum; optionally signals color change.">
<polygon fill="white" stroke="none" points="320,-30.5 178,-30.5 178,0 320,0 320,-30.5"/>
<text xml:space="preserve" text-anchor="start" x="186" y="-16.05" font-family="Consolas" font-size="11.00">npi::wid::ColorPicker</text>
<text xml:space="preserve" text-anchor="middle" x="249" y="-4.8" font-family="Consolas" font-size="11.00">::setChannelMin_</text>
</a>
</g>
</g>
<!-- Node1&#45;&gt;Node7 -->
<g id="edge6_Node000001_Node000007" class="edge">
<title>Node1&#45;&gt;Node7</title>
<g id="a_edge6_Node000001_Node000007"><a xlink:title=" ">
<path fill="none" stroke="#63b8ff" d="M456.99,-76.92C415.13,-64.45 347.61,-44.34 301.14,-30.49"/>
<polygon fill="#63b8ff" stroke="#63b8ff" points="461.55,-78.28 456.12,-79.01 460.32,-77.92 456.76,-76.86 456.76,-76.86 456.76,-76.86 460.32,-77.92 457.4,-74.7 461.55,-78.28"/>
</a>
</g>
</g>
<!-- Node3 -->
<g id="Node000003" class="node">
<title>Node3</title>
<g id="a_Node000003"><a xlink:href="../../d5/d7a/classnpi_1_1wid_1_1_color_picker.html#a32998f970033c28d8450dcb46226afcf" target="_top" xlink:title="Shared constructor for embedded and dialog pickers.">
<polygon fill="white" stroke="none" points="142,-201.5 0,-201.5 0,-171 142,-171 142,-201.5"/>
<text xml:space="preserve" text-anchor="start" x="8" y="-187.05" font-family="Consolas" font-size="11.00">npi::wid::ColorPicker</text>
<text xml:space="preserve" text-anchor="middle" x="71" y="-175.8" font-family="Consolas" font-size="11.00">::ColorPicker</text>
</a>
</g>
</g>
<!-- Node2&#45;&gt;Node3 -->
<g id="edge2_Node000002_Node000003" class="edge">
<title>Node2&#45;&gt;Node3</title>
<g id="a_edge2_Node000002_Node000003"><a xlink:title=" ">
<path fill="none" stroke="#63b8ff" d="M172.25,-172.58C162.11,-173.96 151.75,-175.37 141.73,-176.74"/>
<polygon fill="#63b8ff" stroke="#63b8ff" points="176.98,-171.93 172.33,-174.84 175.71,-172.11 172.03,-172.61 172.03,-172.61 172.03,-172.61 175.71,-172.11 171.72,-170.38 176.98,-171.93"/>
</a>
</g>
</g>
<!-- Node4 -->
<g id="Node000004" class="node">
<title>Node4</title>
<g id="a_Node000004"><a xlink:href="../../d5/d7a/classnpi_1_1wid_1_1_color_picker.html#a877a601dd81bd63de54c4127aebafa49" target="_top" xlink:title="Normalizes and applies configuration; optionally signals color change.">
<polygon fill="white" stroke="none" points="142,-152.5 0,-152.5 0,-122 142,-122 142,-152.5"/>
<text xml:space="preserve" text-anchor="start" x="8" y="-138.05" font-family="Consolas" font-size="11.00">npi::wid::ColorPicker</text>
<text xml:space="preserve" text-anchor="middle" x="71" y="-126.8" font-family="Consolas" font-size="11.00">::setConfig_</text>
</a>
</g>
</g>
<!-- Node2&#45;&gt;Node4 -->
<g id="edge3_Node000002_Node000004" class="edge">
<title>Node2&#45;&gt;Node4</title>
<g id="a_edge3_Node000002_Node000004"><a xlink:title=" ">
<path fill="none" stroke="#63b8ff" d="M172.25,-151.49C162.11,-150.05 151.75,-148.58 141.73,-147.15"/>
<polygon fill="#63b8ff" stroke="#63b8ff" points="176.98,-152.16 171.71,-153.69 175.71,-151.98 172.03,-151.46 172.03,-151.46 172.03,-151.46 175.71,-151.98 172.35,-149.23 176.98,-152.16"/>
</a>
</g>
</g>
</g>
</svg>
