<?xml version="1.0" encoding="UTF-8" standalone="no"?>
<!DOCTYPE svg PUBLIC "-//W3C//DTD SVG 1.1//EN"
 "http://www.w3.org/Graphics/SVG/1.1/DTD/svg11.dtd">
<!-- Generated by graphviz version 14.0.0 (20250921.2048)
 -->
<!-- Title: anonymous_namespace{Log::cpp}::LogCore::FixedStrings::assign_ Pages: 1 -->
<svg width="610pt" height="50pt"
 viewBox="0.00 0.00 610.00 50.00" xmlns="http://www.w3.org/2000/svg" xmlns:xlink="http://www.w3.org/1999/xlink">
<g id="graph0" class="graph" transform="scale(1 1) rotate(0) translate(4 45.75)">
<title>anonymous_namespace{Log::cpp}::LogCore::FixedStrings::assign_</title>
<!-- Node1 -->
<g id="Node000001" class="node">
<title>Node1</title>
<g id="a_Node000001"><a xlink:title=" ">
<polygon fill="#999999" stroke="none" points="602,-30.5 220,-30.5 220,-11.25 602,-11.25 602,-30.5"/>
<text xml:space="preserve" text-anchor="start" x="228" y="-17.05" font-family="Consolas" font-weight="bold" font-size="11.00">anonymous_namespace{Log::cpp}::LogCore::FixedStrings::assign_</text>
</a>
</g>
</g>
<!-- Node2 -->
<g id="Node000002" class="node">
<title>Node2</title>
<g id="a_Node000002"><a xlink:href="../../dc/d58/structanonymous__namespace_02_log_8cpp_03_1_1_log_core_1_1_fixed_strings.html#aa6b36bd00b33419231c54be815716664" target="_top" xlink:title=" ">
<polygon fill="white" stroke="none" points="184,-41.75 0,-41.75 0,0 184,0 184,-41.75"/>
<text xml:space="preserve" text-anchor="start" x="8" y="-27.3" font-family="Consolas" font-size="11.00">anonymous_namespace</text>
<text xml:space="preserve" text-anchor="start" x="8" y="-16.05" font-family="Consolas" font-size="11.00">{Log::cpp}::LogCore</text>
<text xml:space="preserve" text-anchor="middle" x="92" y="-4.8" font-family="Consolas" font-size="11.00">::FixedStrings::FixedStrings</text>
</a>
</g>
</g>
<!-- Node1&#45;&gt;Node2 -->
<g id="edge1_Node000001_Node000002" class="edge">
<title>Node1&#45;&gt;Node2</title>
<g id="a_edge1_Node000001_Node000002"><a xlink:title=" ">
<path fill="none" stroke="#63b8ff" d="M213.97,-20.88C203.58,-20.88 193.42,-20.88 183.68,-20.88"/>
<polygon fill="#63b8ff" stroke="#63b8ff" points="218.89,-20.88 213.89,-23.13 217.61,-20.88 213.89,-20.88 213.89,-20.88 213.89,-20.88 217.61,-20.88 213.89,-18.63 218.89,-20.88"/>
</a>
</g>
</g>
</g>
</svg>
