<?xml version="1.0" encoding="UTF-8" standalone="no"?>
<!DOCTYPE svg PUBLIC "-//W3C//DTD SVG 1.1//EN"
 "http://www.w3.org/Graphics/SVG/1.1/DTD/svg11.dtd">
<!-- Generated by graphviz version 14.0.0 (20250921.2048)
 -->
<!-- Title: anonymous_namespace{Log::cpp}::LogCore::FixedStrings::FixedStrings Pages: 1 -->
<svg width="640pt" height="180pt"
 viewBox="0.00 0.00 640.00 180.00" xmlns="http://www.w3.org/2000/svg" xmlns:xlink="http://www.w3.org/1999/xlink">
<g id="graph0" class="graph" transform="scale(1 1) rotate(0) translate(4 175.75)">
<title>anonymous_namespace{Log::cpp}::LogCore::FixedStrings::FixedStrings</title>
<!-- Node1 -->
<g id="Node000001" class="node">
<title>Node1</title>
<g id="a_Node000001"><a xlink:title=" ">
<polygon fill="#999999" stroke="none" points="412,-95.5 0,-95.5 0,-76.25 412,-76.25 412,-95.5"/>
<text xml:space="preserve" text-anchor="start" x="8" y="-82.05" font-family="Consolas" font-weight="bold" font-size="11.00">anonymous_namespace{Log::cpp}::LogCore::FixedStrings::FixedStrings</text>
</a>
</g>
</g>
<!-- Node2 -->
<g id="Node000002" class="node">
<title>Node2</title>
<g id="a_Node000002"><a xlink:href="../../dc/d58/structanonymous__namespace_02_log_8cpp_03_1_1_log_core_1_1_fixed_strings.html#ad3c900f4bfc5104a58eac1ad7c31778c" target="_top" xlink:title=" ">
<polygon fill="white" stroke="none" points="617,-171.75 463,-171.75 463,-130 617,-130 617,-171.75"/>
<text xml:space="preserve" text-anchor="start" x="471" y="-157.3" font-family="Consolas" font-size="11.00">anonymous_namespace</text>
<text xml:space="preserve" text-anchor="start" x="471" y="-146.05" font-family="Consolas" font-size="11.00">{Log::cpp}::LogCore</text>
<text xml:space="preserve" text-anchor="middle" x="540" y="-134.8" font-family="Consolas" font-size="11.00">::FixedStrings::assign_</text>
</a>
</g>
</g>
<!-- Node1&#45;&gt;Node2 -->
<g id="edge1_Node000001_Node000002" class="edge">
<title>Node1&#45;&gt;Node2</title>
<g id="a_edge1_Node000001_Node000002"><a xlink:title=" ">
<path fill="none" stroke="#63b8ff" d="M255.99,-95.47C308.85,-105.81 393.91,-122.47 457,-134.82"/>
<polygon fill="#63b8ff" stroke="#63b8ff" points="461.84,-135.77 456.5,-137.01 460.58,-135.52 456.93,-134.81 456.93,-134.81 456.93,-134.81 460.58,-135.52 457.36,-132.6 461.84,-135.77"/>
</a>
</g>
</g>
<!-- Node3 -->
<g id="Node000003" class="node">
<title>Node3</title>
<g id="a_Node000003"><a xlink:href="../../dc/d58/structanonymous__namespace_02_log_8cpp_03_1_1_log_core_1_1_fixed_strings.html#a2d185efc4e84fc0f11add0d6cddc6f5d" target="_top" xlink:title=" ">
<polygon fill="white" stroke="none" points="632,-112.38 448,-112.38 448,-59.38 632,-59.38 632,-112.38"/>
<text xml:space="preserve" text-anchor="start" x="456" y="-97.92" font-family="Consolas" font-size="11.00">anonymous_namespace</text>
<text xml:space="preserve" text-anchor="start" x="456" y="-86.67" font-family="Consolas" font-size="11.00">{Log::cpp}::LogCore</text>
<text xml:space="preserve" text-anchor="start" x="456" y="-75.42" font-family="Consolas" font-size="11.00">::FixedStrings::isIdentifier</text>
<text xml:space="preserve" text-anchor="middle" x="540" y="-64.17" font-family="Consolas" font-size="11.00">Char_</text>
</a>
</g>
</g>
<!-- Node1&#45;&gt;Node3 -->
<g id="edge2_Node000001_Node000003" class="edge">
<title>Node1&#45;&gt;Node3</title>
<g id="a_edge2_Node000001_Node000003"><a xlink:title=" ">
<path fill="none" stroke="#63b8ff" d="M411.59,-85.88C422.09,-85.88 432.37,-85.88 442.25,-85.88"/>
<polygon fill="#63b8ff" stroke="#63b8ff" points="447.13,-85.88 442.13,-88.13 445.85,-85.88 442.13,-85.88 442.13,-85.88 442.13,-85.88 445.85,-85.88 442.13,-83.63 447.13,-85.88"/>
</a>
</g>
</g>
<!-- Node4 -->
<g id="Node000004" class="node">
<title>Node4</title>
<g id="a_Node000004"><a xlink:href="../../dc/d58/structanonymous__namespace_02_log_8cpp_03_1_1_log_core_1_1_fixed_strings.html#a8ed9f249e7504829fc96b3f80a39d59d" target="_top" xlink:title=" ">
<polygon fill="white" stroke="none" points="632,-41.75 448,-41.75 448,0 632,0 632,-41.75"/>
<text xml:space="preserve" text-anchor="start" x="456" y="-27.3" font-family="Consolas" font-size="11.00">anonymous_namespace</text>
<text xml:space="preserve" text-anchor="start" x="456" y="-16.05" font-family="Consolas" font-size="11.00">{Log::cpp}::LogCore</text>
<text xml:space="preserve" text-anchor="middle" x="540" y="-4.8" font-family="Consolas" font-size="11.00">::FixedStrings::isSpaceChar_</text>
</a>
</g>
</g>
<!-- Node1&#45;&gt;Node4 -->
<g id="edge3_Node000001_Node000004" class="edge">
<title>Node1&#45;&gt;Node4</title>
<g id="a_edge3_Node000001_Node000004"><a xlink:title=" ">
<path fill="none" stroke="#63b8ff" d="M255.99,-76.28C304.83,-66.72 381.16,-51.78 442.25,-39.82"/>
<polygon fill="#63b8ff" stroke="#63b8ff" points="446.92,-38.9 442.44,-42.07 445.66,-39.15 442.01,-39.86 442.01,-39.86 442.01,-39.86 445.66,-39.15 441.58,-37.66 446.92,-38.9"/>
</a>
</g>
</g>
</g>
</svg>
