<?xml version="1.0" encoding="UTF-8" standalone="no"?>
<!DOCTYPE svg PUBLIC "-//W3C//DTD SVG 1.1//EN"
 "http://www.w3.org/Graphics/SVG/1.1/DTD/svg11.dtd">
<!-- Generated by graphviz version 14.0.0 (20250921.2048)
 -->
<!-- Title: npi::TextSpec::Style Pages: 1 -->
<svg width="202pt" height="157pt"
 viewBox="0.00 0.00 202.00 157.00" xmlns="http://www.w3.org/2000/svg" xmlns:xlink="http://www.w3.org/1999/xlink">

<svg id="main" version="1.1" xmlns="http://www.w3.org/2000/svg" xmlns:xlink="http://www.w3.org/1999/xlink" xml:space="preserve">

<style type="text/css"><![CDATA[
.node, .edge {opacity: 0.7;}
.node.selected, .edge.selected {opacity: 1;}
.edge:hover path { stroke: red; }
.edge:hover polygon { stroke: red; fill: red; }
]]></style>
<script type="application/ecmascript" xlink:href="../../svg.min.js"/>
<svg id="graph" class="graph">
<g id="graph0" class="graph" transform="scale(1 1) rotate(0) translate(4 153)">
<title>npi::TextSpec::Style</title>
<!-- Node1 -->
<g id="Node000001" class="node">
<title>Node1</title>
<g id="a_Node000001"><a xlink:title="Object for styling flags and capitalization mode for fonts.">
<polygon fill="#999999" stroke="none" points="136,-19.25 0,-19.25 0,0 136,0 136,-19.25"/>
<text xml:space="preserve" text-anchor="start" x="8" y="-5.8" font-family="Consolas" font-weight="bold" font-size="11.00">npi::TextSpec::Style</text>
</a>
</g>
</g>
<!-- Node2 -->
<g id="Node000002" class="node">
<title>Node2</title>
<g id="a_Node000002"><a xlink:title=" ">
<polygon fill="white" stroke="none" points="44,-149 4,-149 4,-129.75 44,-129.75 44,-149"/>
<text xml:space="preserve" text-anchor="middle" x="24" y="-134.55" font-family="Consolas" font-size="11.00">bool</text>
</a>
</g>
</g>
<!-- Node2&#45;&gt;Node1 -->
<g id="edge1_Node000001_Node000002" class="edge">
<title>Node2&#45;&gt;Node1</title>
<g id="a_edge1_Node000001_Node000002"><a xlink:title=" ">
<path fill="none" stroke="#9a32cd" stroke-dasharray="5,2" d="M21.46,-123.79C18.61,-103.12 16.22,-64.74 31.5,-37.25 35.77,-29.57 43.29,-23.52 50.4,-19.13"/>
<polygon fill="#9a32cd" stroke="#9a32cd" points="22.19,-128.64 19.22,-124.03 22,-127.37 21.44,-123.7 21.44,-123.7 21.44,-123.7 22,-127.37 23.67,-123.36 22.19,-128.64"/>
</a>
</g>
<text xml:space="preserve" text-anchor="start" x="34.5" y="-99.25" font-family="Consolas" font-size="10.00" fill="grey">bold_</text>
<text xml:space="preserve" text-anchor="start" x="34.5" y="-84.75" font-family="Consolas" font-size="10.00" fill="grey">italic_</text>
<text xml:space="preserve" text-anchor="start" x="34.5" y="-70.25" font-family="Consolas" font-size="10.00" fill="grey">overline_</text>
<text xml:space="preserve" text-anchor="start" x="34.5" y="-55.75" font-family="Consolas" font-size="10.00" fill="grey">strikeout_</text>
<text xml:space="preserve" text-anchor="start" x="34.5" y="-41.25" font-family="Consolas" font-size="10.00" fill="grey">underline_</text>
</g>
<!-- Node3 -->
<g id="Node000003" class="node">
<title>Node3</title>
<g id="a_Node000003"><a xlink:title=" ">
<polygon fill="white" stroke="none" points="162,-149 62,-149 62,-129.75 162,-129.75 162,-149"/>
<text xml:space="preserve" text-anchor="middle" x="112" y="-134.55" font-family="Consolas" font-size="11.00">Capitalization</text>
</a>
</g>
</g>
<!-- Node3&#45;&gt;Node1 -->
<g id="edge2_Node000001_Node000003" class="edge">
<title>Node3&#45;&gt;Node1</title>
<g id="a_edge2_Node000001_Node000003"><a xlink:title=" ">
<path fill="none" stroke="#9a32cd" stroke-dasharray="5,2" d="M111,-123.86C109.14,-103.57 103.96,-65.98 90,-37.25 86.75,-30.56 81.49,-24.11 76.92,-19.23"/>
<polygon fill="#9a32cd" stroke="#9a32cd" points="111.4,-128.6 108.74,-123.8 111.29,-127.32 110.98,-123.61 110.98,-123.61 110.98,-123.61 111.29,-127.32 113.22,-123.43 111.4,-128.6"/>
</a>
</g>
<text xml:space="preserve" text-anchor="start" x="112.51" y="-70.25" font-family="Consolas" font-size="10.00" fill="grey">capitalization_</text>
</g>
</g>
</svg>
</svg>

<style type='text/css'>
<![CDATA[
[data-mouse-over-selected='false'] { opacity: 0.7; }
[data-mouse-over-selected='true']  { opacity: 1.0; }
]]>
</style>
<script type="application/ecmascript"><![CDATA[
document.addEventListener('DOMContentLoaded', (event) => {
  highlightEdges();
  highlightAdjacentNodes();
});
]]></script>
</svg>
