<?xml version="1.0" encoding="UTF-8" standalone="no"?>
<!DOCTYPE svg PUBLIC "-//W3C//DTD SVG 1.1//EN"
 "http://www.w3.org/Graphics/SVG/1.1/DTD/svg11.dtd">
<!-- Generated by graphviz version 14.0.0 (20250921.2048)
 -->
<!-- Title: anonymous_namespace{Log.cpp}::ALogger Pages: 1 -->
<svg width="333pt" height="114pt"
 viewBox="0.00 0.00 333.00 114.00" xmlns="http://www.w3.org/2000/svg" xmlns:xlink="http://www.w3.org/1999/xlink">
<g id="graph0" class="graph" transform="scale(1 1) rotate(0) translate(4 109.5)">
<title>anonymous_namespace{Log.cpp}::ALogger</title>
<!-- Node1 -->
<g id="Node000001" class="node">
<title>Node1</title>
<g id="a_Node000001"><a xlink:title=" ">
<polygon fill="#999999" stroke="none" points="272,-19.25 34,-19.25 34,0 272,0 272,-19.25"/>
<text xml:space="preserve" text-anchor="start" x="42" y="-5.8" font-family="Consolas" font-weight="bold" font-size="11.00">anonymous_namespace{Log.cpp}::ALogger</text>
</a>
</g>
</g>
<!-- Node2 -->
<g id="Node000002" class="node">
<title>Node2</title>
<g id="a_Node000002"><a xlink:title=" ">
<polygon fill="white" stroke="none" points="58,-105.5 0,-105.5 0,-86.25 58,-86.25 58,-105.5"/>
<text xml:space="preserve" text-anchor="middle" x="29" y="-91.05" font-family="Consolas" font-size="11.00">QObject</text>
</a>
</g>
</g>
<!-- Node2&#45;&gt;Node1 -->
<g id="edge1_Node000001_Node000002" class="edge">
<title>Node2&#45;&gt;Node1</title>
<g id="a_edge1_Node000001_Node000002"><a xlink:title=" ">
<path fill="none" stroke="#63b8ff" d="M41.43,-82.34C54.28,-69.83 75.34,-50.6 96,-37.25 107.01,-30.14 120.22,-23.84 131.15,-19.16"/>
<polygon fill="#63b8ff" stroke="#63b8ff" points="37.94,-85.76 39.93,-80.65 38.86,-84.86 41.51,-82.25 41.51,-82.25 41.51,-82.25 38.86,-84.86 43.09,-83.86 37.94,-85.76"/>
</a>
</g>
</g>
<!-- Node3 -->
<g id="Node000003" class="node">
<title>Node3</title>
<g id="a_Node000003"><a xlink:title=" ">
<polygon fill="white" stroke="none" points="134,-105.5 76,-105.5 76,-86.25 134,-86.25 134,-105.5"/>
<text xml:space="preserve" text-anchor="middle" x="105" y="-91.05" font-family="Consolas" font-size="11.00">QString</text>
</a>
</g>
</g>
<!-- Node3&#45;&gt;Node1 -->
<g id="edge2_Node000001_Node000003" class="edge">
<title>Node3&#45;&gt;Node1</title>
<g id="a_edge2_Node000001_Node000003"><a xlink:title=" ">
<path fill="none" stroke="#9a32cd" stroke-dasharray="5,2" d="M101.41,-80.44C99.18,-68.09 98.01,-50.29 105.75,-37.25 110.55,-29.15 118.81,-23.32 127.1,-19.21"/>
<polygon fill="#9a32cd" stroke="#9a32cd" points="102.39,-85.16 99.17,-80.72 102.13,-83.9 101.37,-80.26 101.37,-80.26 101.37,-80.26 102.13,-83.9 103.58,-79.81 102.39,-85.16"/>
</a>
</g>
<text xml:space="preserve" text-anchor="start" x="108.75" y="-55.75" font-family="Consolas" font-size="10.00" fill="grey">dir_</text>
<text xml:space="preserve" text-anchor="start" x="108.75" y="-41.25" font-family="Consolas" font-size="10.00" fill="grey">mainThreadId_</text>
</g>
<!-- Node4 -->
<g id="Node000004" class="node">
<title>Node4</title>
<g id="a_Node000004"><a xlink:title=" ">
<polygon fill="white" stroke="none" points="225,-105.5 179,-105.5 179,-86.25 225,-86.25 225,-105.5"/>
<text xml:space="preserve" text-anchor="middle" x="202" y="-91.05" font-family="Consolas" font-size="11.00">QFile</text>
</a>
</g>
</g>
<!-- Node4&#45;&gt;Node1 -->
<g id="edge3_Node000001_Node000004" class="edge">
<title>Node4&#45;&gt;Node1</title>
<g id="a_edge3_Node000001_Node000004"><a xlink:title=" ">
<path fill="none" stroke="#9a32cd" stroke-dasharray="5,2" d="M198.44,-80.72C194.95,-68.54 188.88,-50.84 180,-37.25 175.54,-30.42 169.06,-23.95 163.57,-19.11"/>
<polygon fill="#9a32cd" stroke="#9a32cd" points="199.7,-85.36 196.21,-81.12 199.36,-84.12 198.38,-80.53 198.38,-80.53 198.38,-80.53 199.36,-84.12 200.56,-79.94 199.7,-85.36"/>
</a>
</g>
<text xml:space="preserve" text-anchor="start" x="197.22" y="-48.5" font-family="Consolas" font-size="10.00" fill="grey">file_</text>
</g>
<!-- Node5 -->
<g id="Node000005" class="node">
<title>Node5</title>
<g id="a_Node000005"><a xlink:title=" ">
<polygon fill="white" stroke="none" points="325,-105.5 243,-105.5 243,-86.25 325,-86.25 325,-105.5"/>
<text xml:space="preserve" text-anchor="middle" x="284" y="-91.05" font-family="Consolas" font-size="11.00">QTextStream</text>
</a>
</g>
</g>
<!-- Node5&#45;&gt;Node1 -->
<g id="edge4_Node000001_Node000005" class="edge">
<title>Node5&#45;&gt;Node1</title>
<g id="a_edge4_Node000001_Node000005"><a xlink:title=" ">
<path fill="none" stroke="#9a32cd" stroke-dasharray="5,2" d="M274.8,-81.84C265.04,-68.88 248.48,-49.24 230,-37.25 217.66,-29.25 202.64,-23.35 189.15,-19.17"/>
<polygon fill="#9a32cd" stroke="#9a32cd" points="277.6,-85.64 272.82,-82.95 276.84,-84.6 274.63,-81.61 274.63,-81.61 274.63,-81.61 276.84,-84.6 276.44,-80.28 277.6,-85.64"/>
</a>
</g>
<text xml:space="preserve" text-anchor="start" x="266.06" y="-48.5" font-family="Consolas" font-size="10.00" fill="grey">stream_</text>
</g>
</g>
</svg>
