<?xml version="1.0" encoding="UTF-8" standalone="no"?>
<!DOCTYPE svg PUBLIC "-//W3C//DTD SVG 1.1//EN"
 "http://www.w3.org/Graphics/SVG/1.1/DTD/svg11.dtd">
<!-- Generated by graphviz version 14.0.0 (20250921.2048)
 -->
<!-- Title: AppUtil.h Pages: 1 -->
<svg width="156pt" height="81pt"
 viewBox="0.00 0.00 156.00 81.00" xmlns="http://www.w3.org/2000/svg" xmlns:xlink="http://www.w3.org/1999/xlink">
<g id="graph0" class="graph" transform="scale(1 1) rotate(0) translate(4 77.14)">
<title>AppUtil.h</title>
<!-- Node1 -->
<g id="Node000001" class="node">
<title>Node1</title>
<g id="a_Node000001"><a xlink:title="App directory accessors for Windows (npi::app).">
<polygon fill="#999999" stroke="#666666" stroke-width="1.2" points="109.64,-73.14 59,-73.14 59,-54.57 109.64,-54.57 109.64,-73.14"/>
<text xml:space="preserve" text-anchor="middle" x="84.32" y="-61.48" font-family="Segoe UI" font-size="10.00">AppUtil.h</text>
</a>
</g>
</g>
<!-- Node2 -->
<g id="Node000002" class="node">
<title>Node2</title>
<g id="a_Node000002"><a xlink:title=" ">
<polygon fill="#e0e0e0" stroke="#999999" stroke-width="1.2" points="86.64,-18.57 0,-18.57 0,0 86.64,0 86.64,-18.57"/>
<text xml:space="preserve" text-anchor="middle" x="43.32" y="-6.91" font-family="Segoe UI" font-size="10.00" fill="#dddddd">npi/AppData.hpp</text>
</a>
</g>
</g>
<!-- Node1&#45;&gt;Node2 -->
<g id="edge1_Node000001_Node000002" class="edge">
<title>Node1&#45;&gt;Node2</title>
<g id="a_edge1_Node000001_Node000002"><a xlink:title=" ">
<path fill="none" stroke="#63b8ff" stroke-width="1.2" d="M77.55,-54.17C71.59,-46.53 62.77,-35.22 55.57,-26"/>
<polygon fill="#63b8ff" stroke="#63b8ff" stroke-width="1.2" points="57.59,-24.6 51.35,-20.59 53.73,-27.61 57.59,-24.6"/>
</a>
</g>
</g>
<!-- Node3 -->
<g id="Node000003" class="node">
<title>Node3</title>
<g id="a_Node000003"><a xlink:title=" ">
<polygon fill="#e0e0e0" stroke="#999999" stroke-width="1.2" points="147.89,-18.57 104.75,-18.57 104.75,0 147.89,0 147.89,-18.57"/>
<text xml:space="preserve" text-anchor="middle" x="126.32" y="-6.91" font-family="Segoe UI" font-size="10.00" fill="#dddddd">QString</text>
</a>
</g>
</g>
<!-- Node1&#45;&gt;Node3 -->
<g id="edge2_Node000001_Node000003" class="edge">
<title>Node1&#45;&gt;Node3</title>
<g id="a_edge2_Node000001_Node000003"><a xlink:title=" ">
<path fill="none" stroke="#63b8ff" stroke-width="1.2" d="M91.26,-54.17C97.36,-46.53 106.4,-35.22 113.77,-26"/>
<polygon fill="#63b8ff" stroke="#63b8ff" stroke-width="1.2" points="115.64,-27.57 118.1,-20.57 111.82,-24.51 115.64,-27.57"/>
</a>
</g>
</g>
</g>
</svg>
