<?xml version="1.0" encoding="UTF-8" standalone="no"?>
<!DOCTYPE svg PUBLIC "-//W3C//DTD SVG 1.1//EN"
 "http://www.w3.org/Graphics/SVG/1.1/DTD/svg11.dtd">
<!-- Generated by graphviz version 14.0.0 (20250921.2048)
 -->
<!-- Title: AppUtil.h Pages: 1 -->
<svg width="190pt" height="83pt"
 viewBox="0.00 0.00 190.00 83.00" xmlns="http://www.w3.org/2000/svg" xmlns:xlink="http://www.w3.org/1999/xlink">
<g id="graph0" class="graph" transform="scale(1 1) rotate(0) translate(4 78.5)">
<title>AppUtil.h</title>
<!-- Node1 -->
<g id="Node000001" class="node">
<title>Node1</title>
<g id="a_Node000001"><a xlink:title="File containing ultilities applicable application&#45;wide.">
<polygon fill="#999999" stroke="none" points="138,-74.5 68,-74.5 68,-55.25 138,-55.25 138,-74.5"/>
<text xml:space="preserve" text-anchor="start" x="76" y="-61.05" font-family="Consolas" font-weight="bold" font-size="11.00">AppUtil.h</text>
</a>
</g>
</g>
<!-- Node2 -->
<g id="Node000002" class="node">
<title>Node2</title>
<g id="a_Node000002"><a xlink:title=" ">
<polygon fill="#e0e0e0" stroke="none" points="106,-19.25 0,-19.25 0,0 106,0 106,-19.25"/>
<text xml:space="preserve" text-anchor="middle" x="53" y="-4.8" font-family="Consolas" font-size="11.00">npi/AppData.hpp</text>
</a>
</g>
</g>
<!-- Node1&#45;&gt;Node2 -->
<g id="edge1_Node000001_Node000002" class="edge">
<title>Node1&#45;&gt;Node2</title>
<g id="a_edge1_Node000001_Node000002"><a xlink:title=" ">
<path fill="none" stroke="#63b8ff" d="M95.19,-55.55C87.09,-46.93 74.33,-33.34 64.96,-23.36"/>
<polygon fill="#63b8ff" stroke="#63b8ff" points="61.76,-19.95 66.82,-22.06 62.63,-20.89 65.18,-23.6 65.18,-23.6 65.18,-23.6 62.63,-20.89 63.54,-25.14 61.76,-19.95"/>
</a>
</g>
</g>
<!-- Node3 -->
<g id="Node000003" class="node">
<title>Node3</title>
<g id="a_Node000003"><a xlink:title=" ">
<polygon fill="#e0e0e0" stroke="none" points="182,-19.25 124,-19.25 124,0 182,0 182,-19.25"/>
<text xml:space="preserve" text-anchor="middle" x="153" y="-4.8" font-family="Consolas" font-size="11.00">QString</text>
</a>
</g>
</g>
<!-- Node1&#45;&gt;Node3 -->
<g id="edge2_Node000001_Node000003" class="edge">
<title>Node1&#45;&gt;Node3</title>
<g id="a_edge2_Node000001_Node000003"><a xlink:title=" ">
<path fill="none" stroke="#63b8ff" d="M110.81,-55.55C118.91,-46.93 131.67,-33.34 141.04,-23.36"/>
<polygon fill="#63b8ff" stroke="#63b8ff" points="144.24,-19.95 142.46,-25.14 143.37,-20.89 140.82,-23.6 140.82,-23.6 140.82,-23.6 143.37,-20.89 139.18,-22.06 144.24,-19.95"/>
</a>
</g>
</g>
</g>
</svg>
