<?xml version="1.0" encoding="UTF-8" standalone="no"?>
<!DOCTYPE svg PUBLIC "-//W3C//DTD SVG 1.1//EN"
 "http://www.w3.org/Graphics/SVG/1.1/DTD/svg11.dtd">
<!-- Generated by graphviz version 14.0.0 (20250921.2048)
 -->
<!-- Title: AppUtil.h Pages: 1 -->
<svg width="226pt" height="83pt"
 viewBox="0.00 0.00 226.00 83.00" xmlns="http://www.w3.org/2000/svg" xmlns:xlink="http://www.w3.org/1999/xlink">

<svg id="main" version="1.1" xmlns="http://www.w3.org/2000/svg" xmlns:xlink="http://www.w3.org/1999/xlink" xml:space="preserve">

<style type="text/css"><![CDATA[
.node, .edge {opacity: 0.7;}
.node.selected, .edge.selected {opacity: 1;}
.edge:hover path { stroke: red; }
.edge:hover polygon { stroke: red; fill: red; }
]]></style>
<script type="application/ecmascript" xlink:href="../../svg.min.js"/>
<svg id="graph" class="graph">
<g id="graph0" class="graph" transform="scale(1 1) rotate(0) translate(4 78.5)">
<title>AppUtil.h</title>
<!-- Node1 -->
<g id="Node000001" class="node">
<title>Node1</title>
<g id="a_Node000001"><a xlink:title="Application utility functions.">
<polygon fill="#999999" stroke="none" points="165,-74.5 95,-74.5 95,-55.25 165,-55.25 165,-74.5"/>
<text xml:space="preserve" text-anchor="start" x="103" y="-61.05" font-family="Consolas" font-weight="bold" font-size="11.00">AppUtil.h</text>
</a>
</g>
</g>
<!-- Node2 -->
<g id="Node000002" class="node">
<title>Node2</title>
<g id="a_Node000002"><a xlink:title=" ">
<polygon fill="#e0e0e0" stroke="none" points="142,-19.25 0,-19.25 0,0 142,0 142,-19.25"/>
<text xml:space="preserve" text-anchor="middle" x="71" y="-4.8" font-family="Consolas" font-size="11.00">npi/PlatformCheck.hpp</text>
</a>
</g>
</g>
<!-- Node1&#45;&gt;Node2 -->
<g id="edge1_Node000001_Node000002" class="edge">
<title>Node1&#45;&gt;Node2</title>
<g id="a_edge1_Node000001_Node000002"><a xlink:title=" ">
<path fill="none" stroke="#63b8ff" d="M120.52,-55.32C110.83,-46.57 95.68,-32.9 84.69,-22.98"/>
<polygon fill="#63b8ff" stroke="#63b8ff" points="81.17,-19.8 86.39,-21.48 82.12,-20.66 84.88,-23.15 84.88,-23.15 84.88,-23.15 82.12,-20.66 83.37,-24.82 81.17,-19.8"/>
</a>
</g>
</g>
<!-- Node3 -->
<g id="Node000003" class="node">
<title>Node3</title>
<g id="a_Node000003"><a xlink:title=" ">
<polygon fill="#e0e0e0" stroke="none" points="218,-19.25 160,-19.25 160,0 218,0 218,-19.25"/>
<text xml:space="preserve" text-anchor="middle" x="189" y="-4.8" font-family="Consolas" font-size="11.00">QString</text>
</a>
</g>
</g>
<!-- Node1&#45;&gt;Node3 -->
<g id="edge2_Node000001_Node000003" class="edge">
<title>Node1&#45;&gt;Node3</title>
<g id="a_edge2_Node000001_Node000003"><a xlink:title=" ">
<path fill="none" stroke="#63b8ff" d="M139.48,-55.32C149.17,-46.57 164.32,-32.9 175.31,-22.98"/>
<polygon fill="#63b8ff" stroke="#63b8ff" points="178.83,-19.8 176.63,-24.82 177.88,-20.66 175.12,-23.15 175.12,-23.15 175.12,-23.15 177.88,-20.66 173.61,-21.48 178.83,-19.8"/>
</a>
</g>
</g>
</g>
</svg>
</svg>

<style type='text/css'>
<![CDATA[
[data-mouse-over-selected='false'] { opacity: 0.7; }
[data-mouse-over-selected='true']  { opacity: 1.0; }
]]>
</style>
<script type="application/ecmascript"><![CDATA[
document.addEventListener('DOMContentLoaded', (event) => {
  highlightEdges();
  highlightAdjacentNodes();
});
]]></script>
</svg>
