<?xml version="1.0" encoding="UTF-8" standalone="no"?>
<!DOCTYPE svg PUBLIC "-//W3C//DTD SVG 1.1//EN"
 "http://www.w3.org/Graphics/SVG/1.1/DTD/svg11.dtd">
<!-- Generated by graphviz version 14.0.0 (20250921.2048)
 -->
<!-- Title: AppUtil.h Pages: 1 -->
<svg width="164pt" height="84pt"
 viewBox="0.00 0.00 164.00 84.00" xmlns="http://www.w3.org/2000/svg" xmlns:xlink="http://www.w3.org/1999/xlink">
<g id="graph0" class="graph" transform="scale(1 1) rotate(0) translate(4 80)">
<title>AppUtil.h</title>
<!-- Node1 -->
<g id="Node000001" class="node">
<title>Node1</title>
<g id="a_Node000001"><a xlink:title="App directory accessors for Windows (npi::app).">
<polygon fill="#999999" stroke="#666666" points="115.62,-76 59.12,-76 59.12,-56 115.62,-56 115.62,-76"/>
<text xml:space="preserve" text-anchor="middle" x="87.38" y="-62.5" font-family="Helvetica,sans-Serif" font-size="10.00">AppUtil.h</text>
</a>
</g>
</g>
<!-- Node2 -->
<g id="Node000002" class="node">
<title>Node2</title>
<g id="a_Node000002"><a xlink:title=" ">
<polygon fill="#e0e0e0" stroke="#999999" points="88.75,-20 0,-20 0,0 88.75,0 88.75,-20"/>
<text xml:space="preserve" text-anchor="middle" x="44.38" y="-6.5" font-family="Helvetica,sans-Serif" font-size="10.00">npi/AppData.hpp</text>
</a>
</g>
</g>
<!-- Node1&#45;&gt;Node2 -->
<g id="edge1_Node000001_Node000002" class="edge">
<title>Node1&#45;&gt;Node2</title>
<g id="a_edge1_Node000001_Node000002"><a xlink:title=" ">
<path fill="none" stroke="#63b8ff" d="M79.88,-55.59C74.09,-48.32 65.89,-38.02 58.83,-29.15"/>
<polygon fill="#63b8ff" stroke="#63b8ff" points="61.69,-27.12 52.72,-21.48 56.21,-31.49 61.69,-27.12"/>
</a>
</g>
</g>
<!-- Node3 -->
<g id="Node000003" class="node">
<title>Node3</title>
<g id="a_Node000003"><a xlink:title=" ">
<polygon fill="#e0e0e0" stroke="#999999" points="155.88,-20 106.88,-20 106.88,0 155.88,0 155.88,-20"/>
<text xml:space="preserve" text-anchor="middle" x="131.38" y="-6.5" font-family="Helvetica,sans-Serif" font-size="10.00">QString</text>
</a>
</g>
</g>
<!-- Node1&#45;&gt;Node3 -->
<g id="edge2_Node000001_Node000003" class="edge">
<title>Node1&#45;&gt;Node3</title>
<g id="a_edge2_Node000001_Node000003"><a xlink:title=" ">
<path fill="none" stroke="#63b8ff" d="M95.04,-55.59C100.97,-48.32 109.36,-38.02 116.59,-29.15"/>
<polygon fill="#63b8ff" stroke="#63b8ff" points="119.24,-31.43 122.84,-21.47 113.81,-27.01 119.24,-31.43"/>
</a>
</g>
</g>
</g>
</svg>
