<?xml version="1.0" encoding="UTF-8" standalone="no"?>
<!DOCTYPE svg PUBLIC "-//W3C//DTD SVG 1.1//EN"
 "http://www.w3.org/Graphics/SVG/1.1/DTD/svg11.dtd">
<!-- Generated by graphviz version 14.0.0 (20250921.2048)
 -->
<!-- Title: npi::StageWindow::OpacityGuard::OpacityGuard Pages: 1 -->
<svg width="490pt" height="186pt"
 viewBox="0.00 0.00 490.00 186.00" xmlns="http://www.w3.org/2000/svg" xmlns:xlink="http://www.w3.org/1999/xlink">
<g id="graph0" class="graph" transform="scale(1 1) rotate(0) translate(4 181.5)">
<title>npi::StageWindow::OpacityGuard::OpacityGuard</title>
<!-- Node1 -->
<g id="Node000001" class="node">
<title>Node1</title>
<g id="a_Node000001"><a xlink:title="Construct a guard for the given widget.">
<polygon fill="#999999" stroke="none" points="482,-97.88 202,-97.88 202,-78.62 482,-78.62 482,-97.88"/>
<text xml:space="preserve" text-anchor="start" x="210" y="-84.42" font-family="Consolas" font-weight="bold" font-size="11.00">npi::StageWindow::OpacityGuard::OpacityGuard</text>
</a>
</g>
</g>
<!-- Node2 -->
<g id="Node000002" class="node">
<title>Node2</title>
<g id="a_Node000002"><a xlink:href="../../d5/d8d/structnpi_1_1_stage_window_1_1_opacity_guard.html#a05602ebd5b5855349ff4a34e81f09c8a" target="_top" xlink:title="deleted copy constructor">
<polygon fill="white" stroke="none" points="166,-177.5 0,-177.5 0,-147 166,-147 166,-177.5"/>
<text xml:space="preserve" text-anchor="start" x="8" y="-163.05" font-family="Consolas" font-size="11.00">npi::StageWindow::Opacity</text>
<text xml:space="preserve" text-anchor="middle" x="83" y="-151.8" font-family="Consolas" font-size="11.00">Guard::OpacityGuard</text>
</a>
</g>
</g>
<!-- Node1&#45;&gt;Node2 -->
<g id="edge1_Node000001_Node000002" class="edge">
<title>Node1&#45;&gt;Node2</title>
<g id="a_edge1_Node000001_Node000002"><a xlink:title=" ">
<path fill="none" stroke="#63b8ff" d="M301.9,-99.51C257.84,-112.19 185.98,-132.89 136.92,-147.01"/>
<polygon fill="#63b8ff" stroke="#63b8ff" points="306.49,-98.19 302.31,-101.73 305.26,-98.54 301.69,-99.57 301.69,-99.57 301.69,-99.57 305.26,-98.54 301.07,-97.41 306.49,-98.19"/>
</a>
</g>
</g>
<!-- Node3 -->
<g id="Node000003" class="node">
<title>Node3</title>
<g id="a_Node000003"><a xlink:href="../../d5/d8d/structnpi_1_1_stage_window_1_1_opacity_guard.html#ab4641bbbb49c22b1a3959e97ba887466" target="_top" xlink:title="deleted move constructor">
<polygon fill="white" stroke="none" points="166,-128.5 0,-128.5 0,-98 166,-98 166,-128.5"/>
<text xml:space="preserve" text-anchor="start" x="8" y="-114.05" font-family="Consolas" font-size="11.00">npi::StageWindow::Opacity</text>
<text xml:space="preserve" text-anchor="middle" x="83" y="-102.8" font-family="Consolas" font-size="11.00">Guard::OpacityGuard</text>
</a>
</g>
</g>
<!-- Node1&#45;&gt;Node3 -->
<g id="edge2_Node000001_Node000003" class="edge">
<title>Node1&#45;&gt;Node3</title>
<g id="a_edge2_Node000001_Node000003"><a xlink:title=" ">
<path fill="none" stroke="#63b8ff" d="M236.41,-98.42C212.83,-100.72 188.15,-103.12 165.68,-105.3"/>
<polygon fill="#63b8ff" stroke="#63b8ff" points="241.16,-97.96 236.4,-100.69 239.88,-98.09 236.18,-98.45 236.18,-98.45 236.18,-98.45 239.88,-98.09 235.97,-96.21 241.16,-97.96"/>
</a>
</g>
</g>
<!-- Node4 -->
<g id="Node000004" class="node">
<title>Node4</title>
<g id="a_Node000004"><a xlink:href="../../d5/d8d/structnpi_1_1_stage_window_1_1_opacity_guard.html#ac2c4c1c35ce08b2b1fc41a5a9f5a3ae7" target="_top" xlink:title="deleted copy assignment">
<polygon fill="white" stroke="none" points="166,-79.5 0,-79.5 0,-49 166,-49 166,-79.5"/>
<text xml:space="preserve" text-anchor="start" x="8" y="-65.05" font-family="Consolas" font-size="11.00">npi::StageWindow::Opacity</text>
<text xml:space="preserve" text-anchor="middle" x="83" y="-53.8" font-family="Consolas" font-size="11.00">Guard::operator=</text>
</a>
</g>
</g>
<!-- Node1&#45;&gt;Node4 -->
<g id="edge3_Node000001_Node000004" class="edge">
<title>Node1&#45;&gt;Node4</title>
<g id="a_edge3_Node000001_Node000004"><a xlink:title=" ">
<path fill="none" stroke="#63b8ff" d="M232.02,-78.07C209.8,-76 186.79,-73.85 165.72,-71.88"/>
<polygon fill="#63b8ff" stroke="#63b8ff" points="236.74,-78.51 231.55,-80.29 235.46,-78.39 231.76,-78.05 231.76,-78.05 231.76,-78.05 235.46,-78.39 231.97,-75.81 236.74,-78.51"/>
</a>
</g>
</g>
<!-- Node5 -->
<g id="Node000005" class="node">
<title>Node5</title>
<g id="a_Node000005"><a xlink:href="../../d5/d8d/structnpi_1_1_stage_window_1_1_opacity_guard.html#ab94ed5c0228f15a9fb866e340fd9adfa" target="_top" xlink:title="deleted move assignment">
<polygon fill="white" stroke="none" points="166,-30.5 0,-30.5 0,0 166,0 166,-30.5"/>
<text xml:space="preserve" text-anchor="start" x="8" y="-16.05" font-family="Consolas" font-size="11.00">npi::StageWindow::Opacity</text>
<text xml:space="preserve" text-anchor="middle" x="83" y="-4.8" font-family="Consolas" font-size="11.00">Guard::operator=</text>
</a>
</g>
</g>
<!-- Node1&#45;&gt;Node5 -->
<g id="edge4_Node000001_Node000005" class="edge">
<title>Node1&#45;&gt;Node5</title>
<g id="a_edge4_Node000001_Node000005"><a xlink:title=" ">
<path fill="none" stroke="#63b8ff" d="M301.39,-77C257.51,-64.53 186.5,-44.36 137.64,-30.49"/>
<polygon fill="#63b8ff" stroke="#63b8ff" points="305.97,-78.3 300.54,-79.1 304.73,-77.95 301.16,-76.93 301.16,-76.93 301.16,-76.93 304.73,-77.95 301.77,-74.77 305.97,-78.3"/>
</a>
</g>
</g>
</g>
</svg>
