<?xml version="1.0" encoding="UTF-8" standalone="no"?>
<!DOCTYPE svg PUBLIC "-//W3C//DTD SVG 1.1//EN"
 "http://www.w3.org/Graphics/SVG/1.1/DTD/svg11.dtd">
<!-- Generated by graphviz version 14.0.0 (20250921.2048)
 -->
<!-- Title: npi::Link&lt; T &gt; Pages: 1 -->
<svg width="214pt" height="110pt"
 viewBox="0.00 0.00 214.00 110.00" xmlns="http://www.w3.org/2000/svg" xmlns:xlink="http://www.w3.org/1999/xlink">

<svg id="main" version="1.1" xmlns="http://www.w3.org/2000/svg" xmlns:xlink="http://www.w3.org/1999/xlink" xml:space="preserve">

<style type="text/css"><![CDATA[
.node, .edge {opacity: 0.7;}
.node.selected, .edge.selected {opacity: 1;}
.edge:hover path { stroke: red; }
.edge:hover polygon { stroke: red; fill: red; }
]]></style>
<script type="application/ecmascript" xlink:href="../../svg.min.js"/>
<svg id="graph" class="graph">
<g id="graph0" class="graph" transform="scale(1 1) rotate(0) translate(4 106.25)">
<title>npi::Link&lt; T &gt;</title>
<!-- Node1 -->
<g id="Node000001" class="node">
<title>Node1</title>
<g id="a_Node000001"><a xlink:title="A thread&#45;safe, non&#45;owning, auto&#45;nullifying safe pointer to an object of type T.">
<polygon fill="#999999" stroke="none" points="123,-19.25 23,-19.25 23,0 123,0 123,-19.25"/>
<text xml:space="preserve" text-anchor="start" x="31" y="-5.8" font-family="Consolas" font-weight="bold" font-size="11.00">npi::Link&lt; T &gt;</text>
</a>
</g>
</g>
<!-- Node2 -->
<g id="Node000002" class="node">
<title>Node2</title>
<g id="a_Node000002"><a xlink:title=" ">
<polygon fill="white" stroke="none" points="34,-96.62 0,-96.62 0,-77.38 34,-77.38 34,-96.62"/>
<text xml:space="preserve" text-anchor="middle" x="17" y="-82.17" font-family="Consolas" font-size="11.00">int</text>
</a>
</g>
</g>
<!-- Node2&#45;&gt;Node1 -->
<g id="edge1_Node000001_Node000002" class="edge">
<title>Node2&#45;&gt;Node1</title>
<g id="a_edge1_Node000001_Node000002"><a xlink:title=" ">
<path fill="none" stroke="#9a32cd" stroke-dasharray="5,2" d="M25,-72.29C31.04,-62.28 39.76,-48.54 48.5,-37.25 53.42,-30.89 59.55,-24.24 64.44,-19.17"/>
<polygon fill="#9a32cd" stroke="#9a32cd" points="22.56,-76.38 23.19,-70.93 23.21,-75.28 25.12,-72.08 25.12,-72.08 25.12,-72.08 23.21,-75.28 27.05,-73.24 22.56,-76.38"/>
</a>
</g>
<text xml:space="preserve" text-anchor="start" x="51.5" y="-41.25" font-family="Consolas" font-size="10.00" fill="grey">someValue_</text>
</g>
<!-- Node3 -->
<g id="Node000003" class="node">
<title>Node3</title>
<g id="a_Node000003"><a xlink:title=" ">
<polygon fill="white" stroke="none" points="206,-102.25 52,-102.25 52,-71.75 206,-71.75 206,-102.25"/>
<text xml:space="preserve" text-anchor="start" x="60" y="-87.8" font-family="Consolas" font-size="11.00">shared_ptr&lt; std::atomic</text>
<text xml:space="preserve" text-anchor="middle" x="129" y="-76.55" font-family="Consolas" font-size="11.00">&lt; void * &gt; &gt;</text>
</a>
</g>
</g>
<!-- Node3&#45;&gt;Node1 -->
<g id="edge2_Node000001_Node000003" class="edge">
<title>Node3&#45;&gt;Node1</title>
<g id="a_edge2_Node000001_Node000003"><a xlink:title=" ">
<path fill="none" stroke="#9a32cd" stroke-dasharray="5,2" d="M122.57,-66.19C118.93,-56.83 113.74,-45.84 107,-37.25 101.45,-30.17 93.63,-23.88 86.89,-19.19"/>
<polygon fill="#9a32cd" stroke="#9a32cd" points="124.22,-70.64 120.37,-66.73 123.77,-69.44 122.48,-65.95 122.48,-65.95 122.48,-65.95 123.77,-69.44 124.59,-65.17 124.22,-70.64"/>
</a>
</g>
<text xml:space="preserve" text-anchor="start" x="119.95" y="-41.25" font-family="Consolas" font-size="10.00" fill="grey">ptr_</text>
</g>
</g>
</svg>
</svg>

<style type='text/css'>
<![CDATA[
[data-mouse-over-selected='false'] { opacity: 0.7; }
[data-mouse-over-selected='true']  { opacity: 1.0; }
]]>
</style>
<script type="application/ecmascript"><![CDATA[
document.addEventListener('DOMContentLoaded', (event) => {
  highlightEdges();
  highlightAdjacentNodes();
});
]]></script>
</svg>
