<?xml version="1.0" encoding="UTF-8" standalone="no"?>
<!DOCTYPE svg PUBLIC "-//W3C//DTD SVG 1.1//EN"
 "http://www.w3.org/Graphics/SVG/1.1/DTD/svg11.dtd">
<!-- Generated by graphviz version 14.0.0 (20250921.2048)
 -->
<!-- Title: npi::LinkFromThis::LinkFromThis Pages: 1 -->
<!--zoomable 318 -->

<svg id="main" version="1.1" xmlns="http://www.w3.org/2000/svg" xmlns:xlink="http://www.w3.org/1999/xlink" xml:space="preserve" onload="init(evt)">

<style type="text/css"><![CDATA[
.node, .edge {opacity: 0.7;}
.node.selected, .edge.selected {opacity: 1;}
.edge:hover path { stroke: red; }
.edge:hover polygon { stroke: red; fill: red; }
]]></style>

<defs>
  <circle id="rim" cx="0" cy="0" r="7"/>
  <circle id="rim2" cx="0" cy="0" r="3.5"/>
  <g id="zoomPlus">
    <use xlink:href="#rim" fill="#404040"><set attributeName="fill" to="#808080" begin="zoomplus.mouseover" end="zoomplus.mouseout"/></use>
    <path d="M-4,0h8M0,-4v8" fill="none" stroke="white" stroke-width="1.5" pointer-events="none"/>
  </g>
  <g id="zoomMin">
    <use xlink:href="#rim" fill="#404040"><set attributeName="fill" to="#808080" begin="zoomminus.mouseover" end="zoomminus.mouseout"/></use>
    <path d="M-4,0h8" fill="none" stroke="white" stroke-width="1.5" pointer-events="none"/>
  </g>
  <g id="arrowUp" transform="translate(30 24)">
    <use xlink:href="#rim"/>
    <path pointer-events="none" fill="none" stroke="white" stroke-width="1.5" d="M0,-3.0v7 M-2.5,-0.5L0,-3.0L2.5,-0.5"/>
  </g>
  <g id="arrowRight" transform="rotate(90) translate(36 -43)">
    <use xlink:href="#rim"/>
    <path pointer-events="none" fill="none" stroke="white" stroke-width="1.5" d="M0,-3.0v7 M-2.5,-0.5L0,-3.0L2.5,-0.5"/>
  </g>
  <g id="arrowDown" transform="rotate(180) translate(-30 -48)">
    <use xlink:href="#rim"/>
    <path pointer-events="none" fill="none" stroke="white" stroke-width="1.5" d="M0,-3.0v7 M-2.5,-0.5L0,-3.0L2.5,-0.5"/>
  </g>
  <g id="arrowLeft" transform="rotate(270) translate(-36 17)">
    <use xlink:href="#rim"/>
    <path pointer-events="none" fill="none" stroke="white" stroke-width="1.5" d="M0,-3.0v7 M-2.5,-0.5L0,-3.0L2.5,-0.5"/>
  </g>
  <g id="resetDef">
    <use xlink:href="#rim2" fill="#404040"><set attributeName="fill" to="#808080" begin="reset.mouseover" end="reset.mouseout"/></use>
  </g>
</defs>
<script type="application/ecmascript">
var viewWidth = 566;
var viewHeight = 318;
var sectionId = 'dynsection-1';
</script>
<script type="application/ecmascript" xlink:href="../../svg.min.js"/>
<svg id="graph" class="graph">
<g id="viewport">
<title>npi::LinkFromThis::LinkFromThis</title>
<!-- Node1 -->
<g id="Node000001" class="node">
<title>Node1</title>
<g id="a_Node000001"><a xlink:title="Default constructor.">
<polygon fill="#999999" stroke="none" points="558,-157.52 356,-157.52 356,-138.27 558,-138.27 558,-157.52"/>
<text xml:space="preserve" text-anchor="start" x="364" y="-144.07" font-family="Consolas" font-weight="bold" font-size="11.00">npi::LinkFromThis::LinkFromThis</text>
</a>
</g>
</g>
<!-- Node2 -->
<g id="Node000002" class="node">
<title>Node2</title>
<g id="a_Node000002"><a xlink:href="../../d1/d51/classnpi_1_1_link_from_this.html#a9232cac3ba9c19048accd3248442791a" target="_top" xlink:title="Default copy constructor.">
<polygon fill="white" stroke="none" points="308,-310.15 178,-310.15 178,-279.65 308,-279.65 308,-310.15"/>
<text xml:space="preserve" text-anchor="start" x="186" y="-295.7" font-family="Consolas" font-size="11.00">npi::LinkFromThis::</text>
<text xml:space="preserve" text-anchor="middle" x="243" y="-284.45" font-family="Consolas" font-size="11.00">LinkFromThis</text>
</a>
</g>
</g>
<!-- Node1&#45;&gt;Node2 -->
<g id="edge1_Node000001_Node000002" class="edge">
<title>Node1&#45;&gt;Node2</title>
<g id="a_edge1_Node000001_Node000002"><a xlink:title=" ">
<path fill="none" stroke="#63b8ff" d="M444.05,-161.9C421.98,-186.96 372.25,-239.67 320,-269.9 313.51,-273.66 306.37,-276.94 299.16,-279.78"/>
<polygon fill="#63b8ff" stroke="#63b8ff" points="447.29,-158.19 445.7,-163.44 446.45,-159.16 444,-161.96 444,-161.96 444,-161.96 446.45,-159.16 442.31,-160.48 447.29,-158.19"/>
</a>
</g>
</g>
<!-- Node3 -->
<g id="Node000003" class="node">
<title>Node3</title>
<g id="a_Node000003"><a xlink:href="../../d1/d51/classnpi_1_1_link_from_this.html#aa7f7a0a8bcec930c42afd7151c2abf2a" target="_top" xlink:title="Default move constructor.">
<polygon fill="white" stroke="none" points="308,-261.15 178,-261.15 178,-230.65 308,-230.65 308,-261.15"/>
<text xml:space="preserve" text-anchor="start" x="186" y="-246.7" font-family="Consolas" font-size="11.00">npi::LinkFromThis::</text>
<text xml:space="preserve" text-anchor="middle" x="243" y="-235.45" font-family="Consolas" font-size="11.00">LinkFromThis</text>
</a>
</g>
</g>
<!-- Node1&#45;&gt;Node3 -->
<g id="edge2_Node000001_Node000003" class="edge">
<title>Node1&#45;&gt;Node3</title>
<g id="a_edge2_Node000001_Node000003"><a xlink:title=" ">
<path fill="none" stroke="#63b8ff" d="M435.26,-160.51C409.07,-176.09 362.31,-202.75 320,-220.9 311.83,-224.4 303,-227.72 294.34,-230.72"/>
<polygon fill="#63b8ff" stroke="#63b8ff" points="439.49,-157.99 436.35,-162.48 438.39,-158.65 435.19,-160.55 435.19,-160.55 435.19,-160.55 438.39,-158.65 434.04,-158.62 439.49,-157.99"/>
</a>
</g>
</g>
<!-- Node4 -->
<g id="Node000004" class="node">
<title>Node4</title>
<g id="a_Node000004"><a xlink:href="../../d1/d51/classnpi_1_1_link_from_this.html#ae75b7182e1a9d11abdd1ca8aa9e1aa9e" target="_top" xlink:title="Default destructor.">
<polygon fill="white" stroke="none" points="308,-212.15 178,-212.15 178,-181.65 308,-181.65 308,-212.15"/>
<text xml:space="preserve" text-anchor="start" x="186" y="-197.7" font-family="Consolas" font-size="11.00">npi::LinkFromThis::</text>
<text xml:space="preserve" text-anchor="middle" x="243" y="-186.45" font-family="Consolas" font-size="11.00">~LinkFromThis</text>
</a>
</g>
</g>
<!-- Node1&#45;&gt;Node4 -->
<g id="edge3_Node000001_Node000004" class="edge">
<title>Node1&#45;&gt;Node4</title>
<g id="a_edge3_Node000001_Node000004"><a xlink:title=" ">
<path fill="none" stroke="#63b8ff" d="M408.54,-158.87C378.79,-165.75 340.07,-174.69 307.67,-182.18"/>
<polygon fill="#63b8ff" stroke="#63b8ff" points="413.18,-157.8 408.82,-161.11 411.93,-158.09 408.31,-158.92 408.31,-158.92 408.31,-158.92 411.93,-158.09 407.8,-156.73 413.18,-157.8"/>
</a>
</g>
</g>
<!-- Node5 -->
<g id="Node000005" class="node">
<title>Node5</title>
<g id="a_Node000005"><a xlink:href="../../d1/d51/classnpi_1_1_link_from_this.html#a123e725e537fee1e71b9d97af98104bd" target="_top" xlink:title="Default copy assignment operator.">
<polygon fill="white" stroke="none" points="308,-163.15 178,-163.15 178,-132.65 308,-132.65 308,-163.15"/>
<text xml:space="preserve" text-anchor="start" x="186" y="-148.7" font-family="Consolas" font-size="11.00">npi::LinkFromThis::</text>
<text xml:space="preserve" text-anchor="middle" x="243" y="-137.45" font-family="Consolas" font-size="11.00">operator=</text>
</a>
</g>
</g>
<!-- Node1&#45;&gt;Node5 -->
<g id="edge4_Node000001_Node000005" class="edge">
<title>Node1&#45;&gt;Node5</title>
<g id="a_edge4_Node000001_Node000005"><a xlink:title=" ">
<path fill="none" stroke="#63b8ff" d="M350.04,-147.9C335.64,-147.9 321.24,-147.9 307.9,-147.9"/>
<polygon fill="#63b8ff" stroke="#63b8ff" points="354.99,-147.9 349.99,-150.15 353.71,-147.9 349.99,-147.9 349.99,-147.9 349.99,-147.9 353.71,-147.9 349.99,-145.65 354.99,-147.9"/>
</a>
</g>
</g>
<!-- Node6 -->
<g id="Node000006" class="node">
<title>Node6</title>
<g id="a_Node000006"><a xlink:href="../../d1/d51/classnpi_1_1_link_from_this.html#ac3dc4e2cb6c07866f2c85a9ae0844b0d" target="_top" xlink:title="Default move assignment operator.">
<polygon fill="white" stroke="none" points="308,-114.15 178,-114.15 178,-83.65 308,-83.65 308,-114.15"/>
<text xml:space="preserve" text-anchor="start" x="186" y="-99.7" font-family="Consolas" font-size="11.00">npi::LinkFromThis::</text>
<text xml:space="preserve" text-anchor="middle" x="243" y="-88.45" font-family="Consolas" font-size="11.00">operator=</text>
</a>
</g>
</g>
<!-- Node1&#45;&gt;Node6 -->
<g id="edge5_Node000001_Node000006" class="edge">
<title>Node1&#45;&gt;Node6</title>
<g id="a_edge5_Node000001_Node000006"><a xlink:title=" ">
<path fill="none" stroke="#63b8ff" d="M408.54,-136.93C378.79,-130.05 340.07,-121.11 307.67,-113.62"/>
<polygon fill="#63b8ff" stroke="#63b8ff" points="413.18,-138 407.8,-139.07 411.93,-137.71 408.31,-136.88 408.31,-136.88 408.31,-136.88 411.93,-137.71 408.82,-134.68 413.18,-138"/>
</a>
</g>
</g>
<!-- Node7 -->
<g id="Node000007" class="node">
<title>Node7</title>
<g id="a_Node000007"><a xlink:href="../../d1/d51/classnpi_1_1_link_from_this.html#ada683c2f744acba8c866c44ff6066613" target="_top" xlink:title="Friend swap to exchange two LinkFromThis instances.">
<polygon fill="white" stroke="none" points="320,-47.52 166,-47.52 166,-28.27 320,-28.27 320,-47.52"/>
<text xml:space="preserve" text-anchor="middle" x="243" y="-33.07" font-family="Consolas" font-size="11.00">npi::LinkFromThis::swap</text>
</a>
</g>
</g>
<!-- Node1&#45;&gt;Node7 -->
<g id="edge6_Node000001_Node000007" class="edge">
<title>Node1&#45;&gt;Node7</title>
<g id="a_edge6_Node000001_Node000007"><a xlink:title=" ">
<path fill="none" stroke="#63b8ff" d="M433.51,-135.48C406.66,-120.73 360.31,-95.52 320,-74.9 301.19,-65.28 279.49,-54.77 264.11,-47.42"/>
<polygon fill="#63b8ff" stroke="#63b8ff" points="437.87,-137.87 432.41,-137.44 436.75,-137.26 433.49,-135.47 433.49,-135.47 433.49,-135.47 436.75,-137.26 434.58,-133.49 437.87,-137.87"/>
</a>
</g>
</g>
<!-- Node8 -->
<g id="Node000008" class="node">
<title>Node8</title>
<g id="a_Node000008"><a xlink:href="../../d1/d51/classnpi_1_1_link_from_this.html#a68161836b9be75447dc771bd04fd50b2" target="_top" xlink:title="Member swap function.">
<polygon fill="white" stroke="none" points="130,-34.15 0,-34.15 0,-3.65 130,-3.65 130,-34.15"/>
<text xml:space="preserve" text-anchor="start" x="8" y="-19.7" font-family="Consolas" font-size="11.00">npi::LinkFromThis::</text>
<text xml:space="preserve" text-anchor="middle" x="65" y="-8.45" font-family="Consolas" font-size="11.00">swap_</text>
</a>
</g>
</g>
<!-- Node1&#45;&gt;Node8 -->
<g id="edge9_Node000001_Node000008" class="edge">
<title>Node1&#45;&gt;Node8</title>
<g id="a_edge9_Node000001_Node000008"><a xlink:title=" ">
<path fill="none" stroke="#63b8ff" d="M446.8,-133.78C427.4,-105.47 379.19,-42.51 320,-18.9 258.87,5.48 182.68,1.43 129.77,-6.18"/>
<polygon fill="#63b8ff" stroke="#63b8ff" points="449.4,-137.63 444.74,-134.74 448.68,-136.57 446.6,-133.49 446.6,-133.49 446.6,-133.49 448.68,-136.57 448.47,-132.23 449.4,-137.63"/>
</a>
</g>
</g>
<!-- Node7&#45;&gt;Node7 -->
<g id="edge7_Node000007_Node000007" class="edge">
<title>Node7&#45;&gt;Node7</title>
<g id="a_edge7_Node000007_Node000007"><a xlink:title=" ">
<path fill="none" stroke="#63b8ff" d="M274.53,-50.96C281,-58.5 270.49,-65.52 243,-65.52 211.02,-65.52 202.02,-56.01 216.01,-47.24"/>
<polygon fill="#63b8ff" stroke="#63b8ff" points="270.93,-48.01 276.22,-49.44 271.92,-48.82 274.8,-51.18 274.8,-51.18 274.8,-51.18 271.92,-48.82 273.37,-52.92 270.93,-48.01"/>
</a>
</g>
</g>
<!-- Node7&#45;&gt;Node8 -->
<g id="edge8_Node000007_Node000008" class="edge">
<title>Node7&#45;&gt;Node8</title>
<g id="a_edge8_Node000007_Node000008"><a xlink:title=" ">
<path fill="none" stroke="#63b8ff" d="M160.11,-29.06C149.93,-27.96 139.65,-26.85 129.81,-25.79"/>
<polygon fill="#63b8ff" stroke="#63b8ff" points="164.87,-29.57 159.66,-31.27 163.6,-29.44 159.9,-29.04 159.9,-29.04 159.9,-29.04 163.6,-29.44 160.14,-26.8 164.87,-29.57"/>
</a>
</g>
</g>
</g>
</svg>

<g id="navigator" transform="translate(0 0)" fill="#404254">
  <rect fill="#f2f5e9" fill-opacity="0.5" stroke="#606060" stroke-width=".5" x="0" y="0" width="60" height="60"/>
  <use id="zoomplus" xlink:href="#zoomPlus" x="17" y="9" onmousedown="handleZoom(evt,'in')"/>
  <use id="zoomminus" xlink:href="#zoomMin" x="42" y="9" onmousedown="handleZoom(evt,'out')"/>
  <use id="reset" xlink:href="#resetDef" x="30" y="36" onmousedown="handleReset()"/>
   <use id="arrowup" xlink:href="#arrowUp" x="0" y="0" onmousedown="handlePan(0,-1)"/>
  <use id="arrowright" xlink:href="#arrowRight" x="0" y="0" onmousedown="handlePan(1,0)"/>
  <use id="arrowdown" xlink:href="#arrowDown" x="0" y="0" onmousedown="handlePan(0,1)"/>
  <use id="arrowleft" xlink:href="#arrowLeft" x="0" y="0" onmousedown="handlePan(-1,0)"/>
</g>
<svg viewBox="0 0 15 15" width="100%" height="30px" preserveAspectRatio="xMaxYMin meet">
 <g id="arrow_out" transform="scale(0.3 0.3)">
  <a xlink:href="classnpi_1_1_link_from_this_a6984c92e995d89b5b377bbe7866863ef_icgraph_org.svg" target="_base">
   <rect id="button" ry="5" rx="5" y="6" x="6" height="38" width="38"
        fill="#f2f5e9" fill-opacity="0.5" stroke="#606060" stroke-width="1.0"/>
   <path id="arrow"
     d="M 11.500037,31.436501 C 11.940474,20.09759 22.043105,11.32322 32.158766,21.979434 L 37.068811,17.246167 C 37.068811,17.246167 37.088388,32 37.088388,32 L 22.160133,31.978069 C 22.160133,31.978069 26.997745,27.140456 26.997745,27.140456 C 18.528582,18.264221 13.291696,25.230495 11.500037,31.436501 z"
     style="fill:#404040;"/>
  </a>
 </g>
</svg>

<style type='text/css'>
<![CDATA[
[data-mouse-over-selected='false'] { opacity: 0.7; }
[data-mouse-over-selected='true']  { opacity: 1.0; }
]]>
</style>
<script type="application/ecmascript"><![CDATA[
document.addEventListener('DOMContentLoaded', (event) => {
  highlightEdges();
  highlightAdjacentNodes();
});
]]></script>
</svg>
