<?xml version="1.0" encoding="UTF-8" standalone="no"?>
<!DOCTYPE svg PUBLIC "-//W3C//DTD SVG 1.1//EN"
 "http://www.w3.org/Graphics/SVG/1.1/DTD/svg11.dtd">
<!-- Generated by graphviz version 14.0.0 (20250921.2048)
 -->
<!-- Title: Concepts.hpp Pages: 1 -->
<svg width="242pt" height="83pt"
 viewBox="0.00 0.00 242.00 83.00" xmlns="http://www.w3.org/2000/svg" xmlns:xlink="http://www.w3.org/1999/xlink">
<g id="graph0" class="graph" transform="scale(1 1) rotate(0) translate(4 78.5)">
<title>Concepts.hpp</title>
<!-- Node1 -->
<g id="Node000001" class="node">
<title>Node1</title>
<g id="a_Node000001"><a xlink:title="Header file for custom concepts.">
<polygon fill="#999999" stroke="none" points="176,-74.5 88,-74.5 88,-55.25 176,-55.25 176,-74.5"/>
<text xml:space="preserve" text-anchor="start" x="96" y="-61.05" font-family="Consolas" font-weight="bold" font-size="11.00">Concepts.hpp</text>
</a>
</g>
</g>
<!-- Node2 -->
<g id="Node000002" class="node">
<title>Node2</title>
<g id="a_Node000002"><a xlink:title=" ">
<polygon fill="#e0e0e0" stroke="none" points="82,-19.25 0,-19.25 0,0 82,0 82,-19.25"/>
<text xml:space="preserve" text-anchor="middle" x="41" y="-4.8" font-family="Consolas" font-size="11.00">type_traits</text>
</a>
</g>
</g>
<!-- Node1&#45;&gt;Node2 -->
<g id="edge1_Node000001_Node000002" class="edge">
<title>Node1&#45;&gt;Node2</title>
<g id="a_edge1_Node000001_Node000002"><a xlink:title=" ">
<path fill="none" stroke="#63b8ff" d="M117.38,-55.32C101.99,-46.31 77.68,-32.09 60.63,-22.11"/>
<polygon fill="#63b8ff" stroke="#63b8ff" points="56.64,-19.77 62.09,-20.36 57.74,-20.42 60.95,-22.3 60.95,-22.3 60.95,-22.3 57.74,-20.42 59.82,-24.24 56.64,-19.77"/>
</a>
</g>
</g>
<!-- Node3 -->
<g id="Node000003" class="node">
<title>Node3</title>
<g id="a_Node000003"><a xlink:title=" ">
<polygon fill="#e0e0e0" stroke="none" points="164,-19.25 100,-19.25 100,0 164,0 164,-19.25"/>
<text xml:space="preserve" text-anchor="middle" x="132" y="-4.8" font-family="Consolas" font-size="11.00">concepts</text>
</a>
</g>
</g>
<!-- Node1&#45;&gt;Node3 -->
<g id="edge2_Node000001_Node000003" class="edge">
<title>Node1&#45;&gt;Node3</title>
<g id="a_edge2_Node000001_Node000003"><a xlink:title=" ">
<path fill="none" stroke="#63b8ff" d="M132,-55.55C132,-47.4 132,-34.79 132,-25.01"/>
<polygon fill="#63b8ff" stroke="#63b8ff" points="132,-20.28 134.25,-25.28 132,-21.56 132,-25.28 132,-25.28 132,-25.28 132,-21.56 129.75,-25.28 132,-20.28"/>
</a>
</g>
</g>
<!-- Node4 -->
<g id="Node000004" class="node">
<title>Node4</title>
<g id="a_Node000004"><a xlink:title=" ">
<polygon fill="#e0e0e0" stroke="none" points="234,-19.25 182,-19.25 182,0 234,0 234,-19.25"/>
<text xml:space="preserve" text-anchor="middle" x="208" y="-4.8" font-family="Consolas" font-size="11.00">memory</text>
</a>
</g>
</g>
<!-- Node1&#45;&gt;Node4 -->
<g id="edge3_Node000001_Node000004" class="edge">
<title>Node1&#45;&gt;Node4</title>
<g id="a_edge3_Node000001_Node000004"><a xlink:title=" ">
<path fill="none" stroke="#63b8ff" d="M144.21,-55.32C156.92,-46.42 176.91,-32.41 191.12,-22.45"/>
<polygon fill="#63b8ff" stroke="#63b8ff" points="195.07,-19.68 192.27,-24.39 194.02,-20.42 190.98,-22.55 190.98,-22.55 190.98,-22.55 194.02,-20.42 189.69,-20.71 195.07,-19.68"/>
</a>
</g>
</g>
</g>
</svg>
