<?xml version="1.0" encoding="UTF-8" standalone="no"?>
<!DOCTYPE svg PUBLIC "-//W3C//DTD SVG 1.1//EN"
 "http://www.w3.org/Graphics/SVG/1.1/DTD/svg11.dtd">
<!-- Generated by graphviz version 14.0.0 (20250921.2048)
 -->
<!-- Title: npi::Font::Style Pages: 1 -->
<svg width="198pt" height="157pt"
 viewBox="0.00 0.00 198.00 157.00" xmlns="http://www.w3.org/2000/svg" xmlns:xlink="http://www.w3.org/1999/xlink">

<svg id="main" version="1.1" xmlns="http://www.w3.org/2000/svg" xmlns:xlink="http://www.w3.org/1999/xlink" xml:space="preserve">

<style type="text/css"><![CDATA[
.node, .edge {opacity: 0.7;}
.node.selected, .edge.selected {opacity: 1;}
.edge:hover path { stroke: red; }
.edge:hover polygon { stroke: red; fill: red; }
]]></style>
<script type="application/ecmascript" xlink:href="../../svg.min.js"/>
<svg id="graph" class="graph">
<g id="graph0" class="graph" transform="scale(1 1) rotate(0) translate(4 153)">
<title>npi::Font::Style</title>
<!-- Node1 -->
<g id="Node000001" class="node">
<title>Node1</title>
<g id="a_Node000001"><a xlink:title="Object for styling flags and capitalization mode for fonts.">
<polygon fill="#999999" stroke="none" points="120,-19.25 8,-19.25 8,0 120,0 120,-19.25"/>
<text xml:space="preserve" text-anchor="start" x="16" y="-5.8" font-family="Consolas" font-weight="bold" font-size="11.00">npi::Font::Style</text>
</a>
</g>
</g>
<!-- Node2 -->
<g id="Node000002" class="node">
<title>Node2</title>
<g id="a_Node000002"><a xlink:title=" ">
<polygon fill="white" stroke="none" points="40,-149 0,-149 0,-129.75 40,-129.75 40,-149"/>
<text xml:space="preserve" text-anchor="middle" x="20" y="-134.55" font-family="Consolas" font-size="11.00">bool</text>
</a>
</g>
</g>
<!-- Node2&#45;&gt;Node1 -->
<g id="edge1_Node000001_Node000002" class="edge">
<title>Node2&#45;&gt;Node1</title>
<g id="a_edge1_Node000001_Node000002"><a xlink:title=" ">
<path fill="none" stroke="#9a32cd" stroke-dasharray="5,2" d="M17.46,-123.79C14.61,-103.12 12.22,-64.74 27.5,-37.25 31.77,-29.57 39.29,-23.52 46.4,-19.13"/>
<polygon fill="#9a32cd" stroke="#9a32cd" points="18.19,-128.64 15.22,-124.03 18,-127.37 17.44,-123.7 17.44,-123.7 17.44,-123.7 18,-127.37 19.67,-123.36 18.19,-128.64"/>
</a>
</g>
<text xml:space="preserve" text-anchor="start" x="30.5" y="-99.25" font-family="Consolas" font-size="10.00" fill="grey">bold_</text>
<text xml:space="preserve" text-anchor="start" x="30.5" y="-84.75" font-family="Consolas" font-size="10.00" fill="grey">italic_</text>
<text xml:space="preserve" text-anchor="start" x="30.5" y="-70.25" font-family="Consolas" font-size="10.00" fill="grey">overline_</text>
<text xml:space="preserve" text-anchor="start" x="30.5" y="-55.75" font-family="Consolas" font-size="10.00" fill="grey">strikeout_</text>
<text xml:space="preserve" text-anchor="start" x="30.5" y="-41.25" font-family="Consolas" font-size="10.00" fill="grey">underline_</text>
</g>
<!-- Node3 -->
<g id="Node000003" class="node">
<title>Node3</title>
<g id="a_Node000003"><a xlink:title=" ">
<polygon fill="white" stroke="none" points="158,-149 58,-149 58,-129.75 158,-129.75 158,-149"/>
<text xml:space="preserve" text-anchor="middle" x="108" y="-134.55" font-family="Consolas" font-size="11.00">Capitalization</text>
</a>
</g>
</g>
<!-- Node3&#45;&gt;Node1 -->
<g id="edge2_Node000001_Node000003" class="edge">
<title>Node3&#45;&gt;Node1</title>
<g id="a_edge2_Node000001_Node000003"><a xlink:title=" ">
<path fill="none" stroke="#9a32cd" stroke-dasharray="5,2" d="M107,-123.86C105.14,-103.57 99.96,-65.98 86,-37.25 82.75,-30.56 77.49,-24.11 72.92,-19.23"/>
<polygon fill="#9a32cd" stroke="#9a32cd" points="107.4,-128.6 104.74,-123.8 107.29,-127.32 106.98,-123.61 106.98,-123.61 106.98,-123.61 107.29,-127.32 109.22,-123.43 107.4,-128.6"/>
</a>
</g>
<text xml:space="preserve" text-anchor="start" x="108.51" y="-70.25" font-family="Consolas" font-size="10.00" fill="grey">capitalization_</text>
</g>
</g>
</svg>
</svg>

<style type='text/css'>
<![CDATA[
[data-mouse-over-selected='false'] { opacity: 0.7; }
[data-mouse-over-selected='true']  { opacity: 1.0; }
]]>
</style>
<script type="application/ecmascript"><![CDATA[
document.addEventListener('DOMContentLoaded', (event) => {
  highlightEdges();
  highlightAdjacentNodes();
});
]]></script>
</svg>
