<?xml version="1.0" encoding="UTF-8" standalone="no"?>
<!DOCTYPE svg PUBLIC "-//W3C//DTD SVG 1.1//EN"
 "http://www.w3.org/Graphics/SVG/1.1/DTD/svg11.dtd">
<!-- Generated by graphviz version 14.0.0 (20250921.2048)
 -->
<!-- Title: anonymous_namespace{Log.cpp}::AItem Pages: 1 -->
<svg width="412pt" height="99pt"
 viewBox="0.00 0.00 412.00 99.00" xmlns="http://www.w3.org/2000/svg" xmlns:xlink="http://www.w3.org/1999/xlink">
<g id="graph0" class="graph" transform="scale(1 1) rotate(0) translate(4 95)">
<title>anonymous_namespace{Log.cpp}::AItem</title>
<!-- Node1 -->
<g id="Node000001" class="node">
<title>Node1</title>
<g id="a_Node000001"><a xlink:title=" ">
<polygon fill="#999999" stroke="none" points="294,-19.25 68,-19.25 68,0 294,0 294,-19.25"/>
<text xml:space="preserve" text-anchor="start" x="76" y="-5.8" font-family="Consolas" font-weight="bold" font-size="11.00">anonymous_namespace{Log.cpp}::AItem</text>
</a>
</g>
</g>
<!-- Node2 -->
<g id="Node000002" class="node">
<title>Node2</title>
<g id="a_Node000002"><a xlink:title=" ">
<polygon fill="white" stroke="none" points="70,-91 0,-91 0,-71.75 70,-71.75 70,-91"/>
<text xml:space="preserve" text-anchor="middle" x="35" y="-76.55" font-family="Consolas" font-size="11.00">QDateTime</text>
</a>
</g>
</g>
<!-- Node2&#45;&gt;Node1 -->
<g id="edge1_Node000001_Node000002" class="edge">
<title>Node2&#45;&gt;Node1</title>
<g id="a_edge1_Node000001_Node000002"><a xlink:title=" ">
<path fill="none" stroke="#9a32cd" stroke-dasharray="5,2" d="M53.15,-68.65C67.9,-59.42 89.44,-46.6 109.25,-37.25 123.91,-30.33 140.89,-23.96 154.65,-19.19"/>
<polygon fill="#9a32cd" stroke="#9a32cd" points="49.07,-71.23 52.1,-66.66 50.16,-70.55 53.3,-68.56 53.3,-68.56 53.3,-68.56 50.16,-70.55 54.5,-70.46 49.07,-71.23"/>
</a>
</g>
<text xml:space="preserve" text-anchor="start" x="112.25" y="-41.25" font-family="Consolas" font-size="10.00" fill="grey">dt_</text>
</g>
<!-- Node3 -->
<g id="Node000003" class="node">
<title>Node3</title>
<g id="a_Node000003"><a xlink:title=" ">
<polygon fill="white" stroke="none" points="140,-91 88,-91 88,-71.75 140,-71.75 140,-91"/>
<text xml:space="preserve" text-anchor="middle" x="114" y="-76.55" font-family="Consolas" font-size="11.00">HANDLE</text>
</a>
</g>
</g>
<!-- Node3&#45;&gt;Node1 -->
<g id="edge2_Node000001_Node000003" class="edge">
<title>Node3&#45;&gt;Node1</title>
<g id="a_edge2_Node000001_Node000003"><a xlink:title=" ">
<path fill="none" stroke="#9a32cd" stroke-dasharray="5,2" d="M124.07,-67.19C131.01,-58.39 140.64,-46.74 150,-37.25 156.38,-30.78 164.13,-24.13 170.28,-19.09"/>
<polygon fill="#9a32cd" stroke="#9a32cd" points="121.26,-70.79 122.56,-65.47 122.05,-69.78 124.34,-66.85 124.34,-66.85 124.34,-66.85 122.05,-69.78 126.11,-68.23 121.26,-70.79"/>
</a>
</g>
<text xml:space="preserve" text-anchor="start" x="153" y="-41.25" font-family="Consolas" font-size="10.00" fill="grey">tid_</text>
</g>
<!-- Node4 -->
<g id="Node000004" class="node">
<title>Node4</title>
<g id="a_Node000004"><a xlink:title=" ">
<polygon fill="white" stroke="none" points="204,-91 158,-91 158,-71.75 204,-71.75 204,-91"/>
<text xml:space="preserve" text-anchor="middle" x="181" y="-76.55" font-family="Consolas" font-size="11.00">Level</text>
</a>
</g>
</g>
<!-- Node4&#45;&gt;Node1 -->
<g id="edge3_Node000001_Node000004" class="edge">
<title>Node4&#45;&gt;Node1</title>
<g id="a_edge3_Node000001_Node000004"><a xlink:title=" ">
<path fill="none" stroke="#9a32cd" stroke-dasharray="5,2" d="M181,-65.89C181,-51.81 181,-30.89 181,-19.25"/>
<polygon fill="#9a32cd" stroke="#9a32cd" points="181,-70.6 178.75,-65.6 181,-69.32 181,-65.6 181,-65.6 181,-65.6 181,-69.32 183.25,-65.6 181,-70.6"/>
</a>
</g>
<text xml:space="preserve" text-anchor="start" x="184" y="-41.25" font-family="Consolas" font-size="10.00" fill="grey">lvl_</text>
</g>
<!-- Node5 -->
<g id="Node000005" class="node">
<title>Node5</title>
<g id="a_Node000005"><a xlink:title=" ">
<polygon fill="white" stroke="none" points="280,-91 222,-91 222,-71.75 280,-71.75 280,-91"/>
<text xml:space="preserve" text-anchor="middle" x="251" y="-76.55" font-family="Consolas" font-size="11.00">QString</text>
</a>
</g>
</g>
<!-- Node5&#45;&gt;Node1 -->
<g id="edge4_Node000001_Node000005" class="edge">
<title>Node5&#45;&gt;Node1</title>
<g id="a_edge4_Node000001_Node000005"><a xlink:title=" ">
<path fill="none" stroke="#9a32cd" stroke-dasharray="5,2" d="M239.92,-67.28C232.33,-58.52 221.88,-46.88 212,-37.25 205.5,-30.91 197.75,-24.26 191.62,-19.18"/>
<polygon fill="#9a32cd" stroke="#9a32cd" points="243.03,-70.89 238.06,-68.57 242.19,-69.92 239.77,-67.1 239.77,-67.1 239.77,-67.1 242.19,-69.92 241.47,-65.64 243.03,-70.89"/>
</a>
</g>
<text xml:space="preserve" text-anchor="start" x="230.52" y="-41.25" font-family="Consolas" font-size="10.00" fill="grey">msg_</text>
</g>
<!-- Node6 -->
<g id="Node000006" class="node">
<title>Node6</title>
<g id="a_Node000006"><a xlink:title=" ">
<polygon fill="white" stroke="none" points="404,-91 298,-91 298,-71.75 404,-71.75 404,-91"/>
<text xml:space="preserve" text-anchor="middle" x="351" y="-76.55" font-family="Consolas" font-size="11.00">source_location</text>
</a>
</g>
</g>
<!-- Node6&#45;&gt;Node1 -->
<g id="edge5_Node000001_Node000006" class="edge">
<title>Node6&#45;&gt;Node1</title>
<g id="a_edge5_Node000001_Node000006"><a xlink:title=" ">
<path fill="none" stroke="#9a32cd" stroke-dasharray="5,2" d="M328.85,-69.16C310.4,-60.02 283.31,-47.06 259,-37.25 242.41,-30.56 223.43,-24.05 208.34,-19.15"/>
<polygon fill="#9a32cd" stroke="#9a32cd" points="333.2,-71.32 327.72,-71.11 332.05,-70.75 328.72,-69.09 328.72,-69.09 328.72,-69.09 332.05,-70.75 329.72,-67.08 333.2,-71.32"/>
</a>
</g>
<text xml:space="preserve" text-anchor="start" x="297.83" y="-41.25" font-family="Consolas" font-size="10.00" fill="grey">loc_</text>
</g>
</g>
</svg>
