<?xml version="1.0" encoding="UTF-8" standalone="no"?>
<!DOCTYPE svg PUBLIC "-//W3C//DTD SVG 1.1//EN"
 "http://www.w3.org/Graphics/SVG/1.1/DTD/svg11.dtd">
<!-- Generated by graphviz version 14.0.0 (20250921.2048)
 -->
<!-- Title: AppUtil.cpp Pages: 1 -->
<svg width="357pt" height="81pt"
 viewBox="0.00 0.00 357.00 81.00" xmlns="http://www.w3.org/2000/svg" xmlns:xlink="http://www.w3.org/1999/xlink">

<svg id="main" version="1.1" xmlns="http://www.w3.org/2000/svg" xmlns:xlink="http://www.w3.org/1999/xlink" xml:space="preserve">

<style type="text/css"><![CDATA[
.node, .edge {opacity: 0.7;}
.node.selected, .edge.selected {opacity: 1;}
.edge:hover path { stroke: red; }
.edge:hover polygon { stroke: red; fill: red; }
]]></style>
<script type="application/ecmascript" xlink:href="../../svg.min.js"/>
<svg id="graph" class="graph">
<g id="graph0" class="graph" transform="scale(1 1) rotate(0) translate(4 77.14)">
<title>AppUtil.cpp</title>
<!-- Node1 -->
<g id="Node000001" class="node">
<title>Node1</title>
<g id="a_Node000001"><a xlink:title=" ">
<polygon fill="#999999" stroke="#666666" stroke-width="1.2" points="192.89,-73.14 131.75,-73.14 131.75,-54.57 192.89,-54.57 192.89,-73.14"/>
<text xml:space="preserve" text-anchor="middle" x="162.32" y="-61.48" font-family="Segoe UI" font-size="10.00">AppUtil.cpp</text>
</a>
</g>
</g>
<!-- Node2 -->
<g id="Node000002" class="node">
<title>Node2</title>
<g id="a_Node000002"><a xlink:title=" ">
<polygon fill="#e0e0e0" stroke="#999999" stroke-width="1.2" points="68.64,-18.57 0,-18.57 0,0 68.64,0 68.64,-18.57"/>
<text xml:space="preserve" text-anchor="middle" x="34.32" y="-6.91" font-family="Segoe UI" font-size="10.00" fill="#dddddd">npi/AppUtil.h</text>
</a>
</g>
</g>
<!-- Node1&#45;&gt;Node2 -->
<g id="edge1_Node000001_Node000002" class="edge">
<title>Node1&#45;&gt;Node2</title>
<g id="a_edge1_Node000001_Node000002"><a xlink:title=" ">
<path fill="none" stroke="#63b8ff" stroke-width="1.2" d="M140.9,-54.06C119.76,-45.38 87.29,-32.04 63.74,-22.37"/>
<polygon fill="#63b8ff" stroke="#63b8ff" stroke-width="1.2" points="64.9,-20.2 57.49,-19.8 63.04,-24.73 64.9,-20.2"/>
</a>
</g>
</g>
<!-- Node3 -->
<g id="Node000003" class="node">
<title>Node3</title>
<g id="a_Node000003"><a xlink:title=" ">
<polygon fill="#e0e0e0" stroke="#999999" stroke-width="1.2" points="115.76,-18.57 86.88,-18.57 86.88,0 115.76,0 115.76,-18.57"/>
<text xml:space="preserve" text-anchor="middle" x="101.32" y="-6.91" font-family="Segoe UI" font-size="10.00" fill="#dddddd">QDir</text>
</a>
</g>
</g>
<!-- Node1&#45;&gt;Node3 -->
<g id="edge2_Node000001_Node000003" class="edge">
<title>Node1&#45;&gt;Node3</title>
<g id="a_edge2_Node000001_Node000003"><a xlink:title=" ">
<path fill="none" stroke="#63b8ff" stroke-width="1.2" d="M152.25,-54.17C142.94,-46.16 128.95,-34.09 117.98,-24.64"/>
<polygon fill="#63b8ff" stroke="#63b8ff" stroke-width="1.2" points="119.89,-23.05 112.99,-20.34 116.69,-26.77 119.89,-23.05"/>
</a>
</g>
</g>
<!-- Node4 -->
<g id="Node000004" class="node">
<title>Node4</title>
<g id="a_Node000004"><a xlink:title=" ">
<polygon fill="#e0e0e0" stroke="#999999" stroke-width="1.2" points="190.64,-18.57 134,-18.57 134,0 190.64,0 190.64,-18.57"/>
<text xml:space="preserve" text-anchor="middle" x="162.32" y="-6.91" font-family="Segoe UI" font-size="10.00" fill="#dddddd">windows.h</text>
</a>
</g>
</g>
<!-- Node1&#45;&gt;Node4 -->
<g id="edge3_Node000001_Node000004" class="edge">
<title>Node1&#45;&gt;Node4</title>
<g id="a_edge3_Node000001_Node000004"><a xlink:title=" ">
<path fill="none" stroke="#63b8ff" stroke-width="1.2" d="M162.32,-54.17C162.32,-47.06 162.32,-36.77 162.32,-27.94"/>
<polygon fill="#63b8ff" stroke="#63b8ff" stroke-width="1.2" points="164.77,-27.97 162.32,-20.97 159.87,-27.97 164.77,-27.97"/>
</a>
</g>
</g>
<!-- Node5 -->
<g id="Node000005" class="node">
<title>Node5</title>
<g id="a_Node000005"><a xlink:title=" ">
<polygon fill="#e0e0e0" stroke="#999999" stroke-width="1.2" points="252.26,-18.57 208.38,-18.57 208.38,0 252.26,0 252.26,-18.57"/>
<text xml:space="preserve" text-anchor="middle" x="230.32" y="-6.91" font-family="Segoe UI" font-size="10.00" fill="#dddddd">shlobj.h</text>
</a>
</g>
</g>
<!-- Node1&#45;&gt;Node5 -->
<g id="edge4_Node000001_Node000005" class="edge">
<title>Node1&#45;&gt;Node5</title>
<g id="a_edge4_Node000001_Node000005"><a xlink:title=" ">
<path fill="none" stroke="#63b8ff" stroke-width="1.2" d="M173.55,-54.17C184.02,-46.08 199.82,-33.87 212.09,-24.38"/>
<polygon fill="#63b8ff" stroke="#63b8ff" stroke-width="1.2" points="213.37,-26.49 217.41,-20.27 210.37,-22.61 213.37,-26.49"/>
</a>
</g>
</g>
<!-- Node6 -->
<g id="Node000006" class="node">
<title>Node6</title>
<g id="a_Node000006"><a xlink:title=" ">
<polygon fill="#e0e0e0" stroke="#999999" stroke-width="1.2" points="348.51,-18.57 270.12,-18.57 270.12,0 348.51,0 348.51,-18.57"/>
<text xml:space="preserve" text-anchor="middle" x="309.32" y="-6.91" font-family="Segoe UI" font-size="10.00" fill="#dddddd">knownfolders.h</text>
</a>
</g>
</g>
<!-- Node1&#45;&gt;Node6 -->
<g id="edge5_Node000001_Node000006" class="edge">
<title>Node1&#45;&gt;Node6</title>
<g id="a_edge5_Node000001_Node000006"><a xlink:title=" ">
<path fill="none" stroke="#63b8ff" stroke-width="1.2" d="M186.92,-54.06C211.52,-45.26 249.47,-31.69 276.59,-21.99"/>
<polygon fill="#63b8ff" stroke="#63b8ff" stroke-width="1.2" points="277.16,-24.39 282.93,-19.72 275.51,-19.77 277.16,-24.39"/>
</a>
</g>
</g>
</g>
</svg>
</svg>

<style type='text/css'>
<![CDATA[
[data-mouse-over-selected='false'] { opacity: 0.7; }
[data-mouse-over-selected='true']  { opacity: 1.0; }
]]>
</style>
<script type="application/ecmascript"><![CDATA[
document.addEventListener('DOMContentLoaded', (event) => {
  highlightEdges();
  highlightAdjacentNodes();
});
]]></script>
</svg>
