<?xml version="1.0" encoding="UTF-8" standalone="no"?>
<!DOCTYPE svg PUBLIC "-//W3C//DTD SVG 1.1//EN"
 "http://www.w3.org/Graphics/SVG/1.1/DTD/svg11.dtd">
<!-- Generated by graphviz version 14.0.0 (20250921.2048)
 -->
<!-- Title: AppUtil.cpp Pages: 1 -->
<!--zoomable 83 -->

<svg id="main" version="1.1" xmlns="http://www.w3.org/2000/svg" xmlns:xlink="http://www.w3.org/1999/xlink" xml:space="preserve" onload="init(evt)">

<style type="text/css"><![CDATA[
.node, .edge {opacity: 0.7;}
.node.selected, .edge.selected {opacity: 1;}
.edge:hover path { stroke: red; }
.edge:hover polygon { stroke: red; fill: red; }
]]></style>

<defs>
  <circle id="rim" cx="0" cy="0" r="7"/>
  <circle id="rim2" cx="0" cy="0" r="3.5"/>
  <g id="zoomPlus">
    <use xlink:href="#rim" fill="#404040"><set attributeName="fill" to="#808080" begin="zoomplus.mouseover" end="zoomplus.mouseout"/></use>
    <path d="M-4,0h8M0,-4v8" fill="none" stroke="white" stroke-width="1.5" pointer-events="none"/>
  </g>
  <g id="zoomMin">
    <use xlink:href="#rim" fill="#404040"><set attributeName="fill" to="#808080" begin="zoomminus.mouseover" end="zoomminus.mouseout"/></use>
    <path d="M-4,0h8" fill="none" stroke="white" stroke-width="1.5" pointer-events="none"/>
  </g>
  <g id="arrowUp" transform="translate(30 24)">
    <use xlink:href="#rim"/>
    <path pointer-events="none" fill="none" stroke="white" stroke-width="1.5" d="M0,-3.0v7 M-2.5,-0.5L0,-3.0L2.5,-0.5"/>
  </g>
  <g id="arrowRight" transform="rotate(90) translate(36 -43)">
    <use xlink:href="#rim"/>
    <path pointer-events="none" fill="none" stroke="white" stroke-width="1.5" d="M0,-3.0v7 M-2.5,-0.5L0,-3.0L2.5,-0.5"/>
  </g>
  <g id="arrowDown" transform="rotate(180) translate(-30 -48)">
    <use xlink:href="#rim"/>
    <path pointer-events="none" fill="none" stroke="white" stroke-width="1.5" d="M0,-3.0v7 M-2.5,-0.5L0,-3.0L2.5,-0.5"/>
  </g>
  <g id="arrowLeft" transform="rotate(270) translate(-36 17)">
    <use xlink:href="#rim"/>
    <path pointer-events="none" fill="none" stroke="white" stroke-width="1.5" d="M0,-3.0v7 M-2.5,-0.5L0,-3.0L2.5,-0.5"/>
  </g>
  <g id="resetDef">
    <use xlink:href="#rim2" fill="#404040"><set attributeName="fill" to="#808080" begin="reset.mouseover" end="reset.mouseout"/></use>
  </g>
</defs>
<script type="application/ecmascript">
var viewWidth = 1072;
var viewHeight = 83;
var sectionId = 'dynsection-0';
</script>
<script type="application/ecmascript" xlink:href="../../svg.min.js"/>
<svg id="graph" class="graph">
<g id="viewport">
<title>AppUtil.cpp</title>
<!-- Node1 -->
<g id="Node000001" class="node">
<title>Node1</title>
<g id="a_Node000001"><a xlink:title=" ">
<polygon fill="#999999" stroke="none" points="582,-74.5 500,-74.5 500,-55.25 582,-55.25 582,-74.5"/>
<text xml:space="preserve" text-anchor="start" x="508" y="-61.05" font-family="Consolas" font-weight="bold" font-size="11.00">AppUtil.cpp</text>
</a>
</g>
</g>
<!-- Node2 -->
<g id="Node000002" class="node">
<title>Node2</title>
<g id="a_Node000002"><a xlink:title=" ">
<polygon fill="#e0e0e0" stroke="none" points="94,-19.25 0,-19.25 0,0 94,0 94,-19.25"/>
<text xml:space="preserve" text-anchor="middle" x="47" y="-4.8" font-family="Consolas" font-size="11.00">npi/AppUtil.h</text>
</a>
</g>
</g>
<!-- Node1&#45;&gt;Node2 -->
<g id="edge1_Node000001_Node000002" class="edge">
<title>Node1&#45;&gt;Node2</title>
<g id="a_edge1_Node000001_Node000002"><a xlink:title=" ">
<path fill="none" stroke="#63b8ff" d="M500.16,-60.42C422.61,-53.7 248.76,-37.89 103,-19.25 101.96,-19.12 100.91,-18.98 99.85,-18.84"/>
<polygon fill="#63b8ff" stroke="#63b8ff" points="94.93,-18.17 100.19,-16.62 96.2,-18.34 99.89,-18.84 99.89,-18.84 99.89,-18.84 96.2,-18.34 99.58,-21.07 94.93,-18.17"/>
</a>
</g>
</g>
<!-- Node3 -->
<g id="Node000003" class="node">
<title>Node3</title>
<g id="a_Node000003"><a xlink:title=" ">
<polygon fill="#e0e0e0" stroke="none" points="218,-19.25 112,-19.25 112,0 218,0 218,-19.25"/>
<text xml:space="preserve" text-anchor="middle" x="165" y="-4.8" font-family="Consolas" font-size="11.00">npi/AppData.hpp</text>
</a>
</g>
</g>
<!-- Node1&#45;&gt;Node3 -->
<g id="edge2_Node000001_Node000003" class="edge">
<title>Node1&#45;&gt;Node3</title>
<g id="a_edge2_Node000001_Node000003"><a xlink:title=" ">
<path fill="none" stroke="#63b8ff" d="M500.05,-58.07C433.27,-48.62 300.67,-29.84 223.83,-18.96"/>
<polygon fill="#63b8ff" stroke="#63b8ff" points="219.14,-18.29 224.41,-16.77 220.41,-18.47 224.09,-18.99 224.09,-18.99 224.09,-18.99 220.41,-18.47 223.78,-21.22 219.14,-18.29"/>
</a>
</g>
</g>
<!-- Node4 -->
<g id="Node000004" class="node">
<title>Node4</title>
<g id="a_Node000004"><a xlink:title=" ">
<polygon fill="#e0e0e0" stroke="none" points="354,-19.25 236,-19.25 236,0 354,0 354,-19.25"/>
<text xml:space="preserve" text-anchor="middle" x="295" y="-4.8" font-family="Consolas" font-size="11.00">npi/WinMsgBox.hpp</text>
</a>
</g>
</g>
<!-- Node1&#45;&gt;Node4 -->
<g id="edge3_Node000001_Node000004" class="edge">
<title>Node1&#45;&gt;Node4</title>
<g id="a_edge3_Node000001_Node000004"><a xlink:title=" ">
<path fill="none" stroke="#63b8ff" d="M501.2,-55.26C457.35,-45.77 386.92,-30.52 340.8,-20.54"/>
<polygon fill="#63b8ff" stroke="#63b8ff" points="335.93,-19.49 341.29,-18.34 337.18,-19.76 340.82,-20.54 340.82,-20.54 340.82,-20.54 337.18,-19.76 340.34,-22.74 335.93,-19.49"/>
</a>
</g>
</g>
<!-- Node5 -->
<g id="Node000005" class="node">
<title>Node5</title>
<g id="a_Node000005"><a xlink:title=" ">
<polygon fill="#e0e0e0" stroke="none" points="412,-19.25 372,-19.25 372,0 412,0 412,-19.25"/>
<text xml:space="preserve" text-anchor="middle" x="392" y="-4.8" font-family="Consolas" font-size="11.00">QDir</text>
</a>
</g>
</g>
<!-- Node1&#45;&gt;Node5 -->
<g id="edge4_Node000001_Node000005" class="edge">
<title>Node1&#45;&gt;Node5</title>
<g id="a_edge4_Node000001_Node000005"><a xlink:title=" ">
<path fill="none" stroke="#63b8ff" d="M517.06,-55.32C489.72,-45.55 445.18,-29.63 417.29,-19.66"/>
<polygon fill="#63b8ff" stroke="#63b8ff" points="412.75,-18.04 418.21,-17.6 413.95,-18.47 417.45,-19.72 417.45,-19.72 417.45,-19.72 413.95,-18.47 416.7,-21.84 412.75,-18.04"/>
</a>
</g>
</g>
<!-- Node6 -->
<g id="Node000006" class="node">
<title>Node6</title>
<g id="a_Node000006"><a xlink:title=" ">
<polygon fill="#e0e0e0" stroke="none" points="488,-19.25 430,-19.25 430,0 488,0 488,-19.25"/>
<text xml:space="preserve" text-anchor="middle" x="459" y="-4.8" font-family="Consolas" font-size="11.00">QString</text>
</a>
</g>
</g>
<!-- Node1&#45;&gt;Node6 -->
<g id="edge5_Node000001_Node000006" class="edge">
<title>Node1&#45;&gt;Node6</title>
<g id="a_edge5_Node000001_Node000006"><a xlink:title=" ">
<path fill="none" stroke="#63b8ff" d="M527.83,-55.32C514.08,-46.39 492.43,-32.33 477.08,-22.37"/>
<polygon fill="#63b8ff" stroke="#63b8ff" points="473.16,-19.82 478.58,-20.66 474.24,-20.52 477.36,-22.55 477.36,-22.55 477.36,-22.55 474.24,-20.52 476.13,-24.43 473.16,-19.82"/>
</a>
</g>
</g>
<!-- Node7 -->
<g id="Node000007" class="node">
<title>Node7</title>
<g id="a_Node000007"><a xlink:title=" ">
<polygon fill="#e0e0e0" stroke="none" points="576,-19.25 506,-19.25 506,0 576,0 576,-19.25"/>
<text xml:space="preserve" text-anchor="middle" x="541" y="-4.8" font-family="Consolas" font-size="11.00">QFileInfo</text>
</a>
</g>
</g>
<!-- Node1&#45;&gt;Node7 -->
<g id="edge6_Node000001_Node000007" class="edge">
<title>Node1&#45;&gt;Node7</title>
<g id="a_edge6_Node000001_Node000007"><a xlink:title=" ">
<path fill="none" stroke="#63b8ff" d="M541,-55.55C541,-47.4 541,-34.79 541,-25.01"/>
<polygon fill="#63b8ff" stroke="#63b8ff" points="541,-20.28 543.25,-25.28 541,-21.56 541,-25.28 541,-25.28 541,-25.28 541,-21.56 538.75,-25.28 541,-20.28"/>
</a>
</g>
</g>
<!-- Node8 -->
<g id="Node000008" class="node">
<title>Node8</title>
<g id="a_Node000008"><a xlink:title=" ">
<polygon fill="#e0e0e0" stroke="none" points="670,-19.25 594,-19.25 594,0 670,0 670,-19.25"/>
<text xml:space="preserve" text-anchor="middle" x="632" y="-4.8" font-family="Consolas" font-size="11.00">QByteArray</text>
</a>
</g>
</g>
<!-- Node1&#45;&gt;Node8 -->
<g id="edge7_Node000001_Node000008" class="edge">
<title>Node1&#45;&gt;Node8</title>
<g id="a_edge7_Node000001_Node000008"><a xlink:title=" ">
<path fill="none" stroke="#63b8ff" d="M555.62,-55.32C571.01,-46.31 595.32,-32.09 612.37,-22.11"/>
<polygon fill="#63b8ff" stroke="#63b8ff" points="616.36,-19.77 613.18,-24.24 615.26,-20.42 612.05,-22.3 612.05,-22.3 612.05,-22.3 615.26,-20.42 610.91,-20.36 616.36,-19.77"/>
</a>
</g>
</g>
<!-- Node9 -->
<g id="Node000009" class="node">
<title>Node9</title>
<g id="a_Node000009"><a xlink:title=" ">
<polygon fill="#e0e0e0" stroke="none" points="758,-19.25 688,-19.25 688,0 758,0 758,-19.25"/>
<text xml:space="preserve" text-anchor="middle" x="723" y="-4.8" font-family="Consolas" font-size="11.00">windows.h</text>
</a>
</g>
</g>
<!-- Node1&#45;&gt;Node9 -->
<g id="edge8_Node000001_Node000009" class="edge">
<title>Node1&#45;&gt;Node9</title>
<g id="a_edge8_Node000001_Node000009"><a xlink:title=" ">
<path fill="none" stroke="#63b8ff" d="M570.24,-55.32C602.25,-45.95 653.57,-30.94 687.77,-20.93"/>
<polygon fill="#63b8ff" stroke="#63b8ff" points="692.36,-19.59 688.19,-23.15 691.13,-19.95 687.56,-20.99 687.56,-20.99 687.56,-20.99 691.13,-19.95 686.93,-18.83 692.36,-19.59"/>
</a>
</g>
</g>
<!-- Node10 -->
<g id="Node000010" class="node">
<title>Node10</title>
<g id="a_Node000010"><a xlink:title=" ">
<polygon fill="#e0e0e0" stroke="none" points="864,-19.25 776,-19.25 776,0 864,0 864,-19.25"/>
<text xml:space="preserve" text-anchor="middle" x="820" y="-4.8" font-family="Consolas" font-size="11.00">combaseapi.h</text>
</a>
</g>
</g>
<!-- Node1&#45;&gt;Node10 -->
<g id="edge9_Node000001_Node000010" class="edge">
<title>Node1&#45;&gt;Node10</title>
<g id="a_edge9_Node000001_Node000010"><a xlink:title=" ">
<path fill="none" stroke="#63b8ff" d="M581.87,-56.07C631.86,-46.53 716.44,-30.39 770.19,-20.13"/>
<polygon fill="#63b8ff" stroke="#63b8ff" points="775.07,-19.2 770.58,-22.35 773.81,-19.44 770.15,-20.14 770.15,-20.14 770.15,-20.14 773.81,-19.44 769.73,-17.93 775.07,-19.2"/>
</a>
</g>
</g>
<!-- Node11 -->
<g id="Node000011" class="node">
<title>Node11</title>
<g id="a_Node000011"><a xlink:title=" ">
<polygon fill="#e0e0e0" stroke="none" points="946,-19.25 882,-19.25 882,0 946,0 946,-19.25"/>
<text xml:space="preserve" text-anchor="middle" x="914" y="-4.8" font-family="Consolas" font-size="11.00">shlobj.h</text>
</a>
</g>
</g>
<!-- Node1&#45;&gt;Node11 -->
<g id="edge10_Node000001_Node000011" class="edge">
<title>Node1&#45;&gt;Node11</title>
<g id="a_edge10_Node000001_Node000011"><a xlink:title=" ">
<path fill="none" stroke="#63b8ff" d="M581.78,-59.38C644.55,-52.23 768.54,-37.23 873,-19.25 874.13,-19.06 875.27,-18.85 876.43,-18.64"/>
<polygon fill="#63b8ff" stroke="#63b8ff" points="881.06,-17.77 876.57,-20.91 879.8,-18.01 876.15,-18.7 876.15,-18.7 876.15,-18.7 879.8,-18.01 875.73,-16.48 881.06,-17.77"/>
</a>
</g>
</g>
<!-- Node12 -->
<g id="Node000012" class="node">
<title>Node12</title>
<g id="a_Node000012"><a xlink:title=" ">
<polygon fill="#e0e0e0" stroke="none" points="1064,-19.25 964,-19.25 964,0 1064,0 1064,-19.25"/>
<text xml:space="preserve" text-anchor="middle" x="1014" y="-4.8" font-family="Consolas" font-size="11.00">knownfolders.h</text>
</a>
</g>
</g>
<!-- Node1&#45;&gt;Node12 -->
<g id="edge11_Node000001_Node000012" class="edge">
<title>Node1&#45;&gt;Node12</title>
<g id="a_edge11_Node000001_Node000012"><a xlink:title=" ">
<path fill="none" stroke="#63b8ff" d="M581.9,-59.98C656.27,-52.79 818.56,-36.57 955,-19.25 956.02,-19.12 957.06,-18.99 958.1,-18.85"/>
<polygon fill="#63b8ff" stroke="#63b8ff" points="962.92,-18.21 958.26,-21.1 961.65,-18.38 957.96,-18.87 957.96,-18.87 957.96,-18.87 961.65,-18.38 957.66,-16.64 962.92,-18.21"/>
</a>
</g>
</g>
</g>
</svg>

<g id="navigator" transform="translate(0 0)" fill="#404254">
  <rect fill="#f2f5e9" fill-opacity="0.5" stroke="#606060" stroke-width=".5" x="0" y="0" width="60" height="60"/>
  <use id="zoomplus" xlink:href="#zoomPlus" x="17" y="9" onmousedown="handleZoom(evt,'in')"/>
  <use id="zoomminus" xlink:href="#zoomMin" x="42" y="9" onmousedown="handleZoom(evt,'out')"/>
  <use id="reset" xlink:href="#resetDef" x="30" y="36" onmousedown="handleReset()"/>
   <use id="arrowup" xlink:href="#arrowUp" x="0" y="0" onmousedown="handlePan(0,-1)"/>
  <use id="arrowright" xlink:href="#arrowRight" x="0" y="0" onmousedown="handlePan(1,0)"/>
  <use id="arrowdown" xlink:href="#arrowDown" x="0" y="0" onmousedown="handlePan(0,1)"/>
  <use id="arrowleft" xlink:href="#arrowLeft" x="0" y="0" onmousedown="handlePan(-1,0)"/>
</g>
<svg viewBox="0 0 15 15" width="100%" height="30px" preserveAspectRatio="xMaxYMin meet">
 <g id="arrow_out" transform="scale(0.3 0.3)">
  <a xlink:href="_app_util_8cpp__incl_org.svg" target="_base">
   <rect id="button" ry="5" rx="5" y="6" x="6" height="38" width="38"
        fill="#f2f5e9" fill-opacity="0.5" stroke="#606060" stroke-width="1.0"/>
   <path id="arrow"
     d="M 11.500037,31.436501 C 11.940474,20.09759 22.043105,11.32322 32.158766,21.979434 L 37.068811,17.246167 C 37.068811,17.246167 37.088388,32 37.088388,32 L 22.160133,31.978069 C 22.160133,31.978069 26.997745,27.140456 26.997745,27.140456 C 18.528582,18.264221 13.291696,25.230495 11.500037,31.436501 z"
     style="fill:#404040;"/>
  </a>
 </g>
</svg>

<style type='text/css'>
<![CDATA[
[data-mouse-over-selected='false'] { opacity: 0.7; }
[data-mouse-over-selected='true']  { opacity: 1.0; }
]]>
</style>
<script type="application/ecmascript"><![CDATA[
document.addEventListener('DOMContentLoaded', (event) => {
  highlightEdges();
  highlightAdjacentNodes();
});
]]></script>
</svg>
