<?xml version="1.0" encoding="UTF-8" standalone="no"?>
<!DOCTYPE svg PUBLIC "-//W3C//DTD SVG 1.1//EN"
 "http://www.w3.org/Graphics/SVG/1.1/DTD/svg11.dtd">
<!-- Generated by graphviz version 14.0.0 (20250921.2048)
 -->
<!-- Title: AppUtil.cpp Pages: 1 -->
<svg width="382pt" height="84pt"
 viewBox="0.00 0.00 382.00 84.00" xmlns="http://www.w3.org/2000/svg" xmlns:xlink="http://www.w3.org/1999/xlink">
<g id="graph0" class="graph" transform="scale(1 1) rotate(0) translate(4 80)">
<title>AppUtil.cpp</title>
<!-- Node1 -->
<g id="Node000001" class="node">
<title>Node1</title>
<g id="a_Node000001"><a xlink:title=" ">
<polygon fill="#999999" stroke="#666666" points="208.62,-76 141.62,-76 141.62,-56 208.62,-56 208.62,-76"/>
<text xml:space="preserve" text-anchor="middle" x="175.12" y="-62.5" font-family="Helvetica,sans-Serif" font-size="10.00">AppUtil.cpp</text>
</a>
</g>
</g>
<!-- Node2 -->
<g id="Node000002" class="node">
<title>Node2</title>
<g id="a_Node000002"><a xlink:title=" ">
<polygon fill="#e0e0e0" stroke="#999999" points="72.25,-20 0,-20 0,0 72.25,0 72.25,-20"/>
<text xml:space="preserve" text-anchor="middle" x="36.12" y="-6.5" font-family="Helvetica,sans-Serif" font-size="10.00">npi/AppUtil.h</text>
</a>
</g>
</g>
<!-- Node1&#45;&gt;Node2 -->
<g id="edge1_Node000001_Node000002" class="edge">
<title>Node1&#45;&gt;Node2</title>
<g id="a_edge1_Node000001_Node000002"><a xlink:title=" ">
<path fill="none" stroke="#63b8ff" d="M150.91,-55.59C128.82,-47.01 95.93,-34.23 71,-24.55"/>
<polygon fill="#63b8ff" stroke="#63b8ff" points="72.53,-21.39 61.94,-21.03 69.99,-27.91 72.53,-21.39"/>
</a>
</g>
</g>
<!-- Node3 -->
<g id="Node000003" class="node">
<title>Node3</title>
<g id="a_Node000003"><a xlink:title=" ">
<polygon fill="#e0e0e0" stroke="#999999" points="126.25,-20 90,-20 90,0 126.25,0 126.25,-20"/>
<text xml:space="preserve" text-anchor="middle" x="108.12" y="-6.5" font-family="Helvetica,sans-Serif" font-size="10.00">QDir</text>
</a>
</g>
</g>
<!-- Node1&#45;&gt;Node3 -->
<g id="edge2_Node000001_Node000003" class="edge">
<title>Node1&#45;&gt;Node3</title>
<g id="a_edge2_Node000001_Node000003"><a xlink:title=" ">
<path fill="none" stroke="#63b8ff" d="M163.45,-55.59C153.85,-47.85 140,-36.69 128.56,-27.47"/>
<polygon fill="#63b8ff" stroke="#63b8ff" points="130.82,-24.8 120.84,-21.25 126.43,-30.25 130.82,-24.8"/>
</a>
</g>
</g>
<!-- Node4 -->
<g id="Node000004" class="node">
<title>Node4</title>
<g id="a_Node000004"><a xlink:title=" ">
<polygon fill="#e0e0e0" stroke="#999999" points="206.38,-20 143.88,-20 143.88,0 206.38,0 206.38,-20"/>
<text xml:space="preserve" text-anchor="middle" x="175.12" y="-6.5" font-family="Helvetica,sans-Serif" font-size="10.00">windows.h</text>
</a>
</g>
</g>
<!-- Node1&#45;&gt;Node4 -->
<g id="edge3_Node000001_Node000004" class="edge">
<title>Node1&#45;&gt;Node4</title>
<g id="a_edge3_Node000001_Node000004"><a xlink:title=" ">
<path fill="none" stroke="#63b8ff" d="M175.12,-55.59C175.12,-49.01 175.12,-39.96 175.12,-31.73"/>
<polygon fill="#63b8ff" stroke="#63b8ff" points="178.63,-31.81 175.13,-21.81 171.63,-31.81 178.63,-31.81"/>
</a>
</g>
</g>
<!-- Node5 -->
<g id="Node000005" class="node">
<title>Node5</title>
<g id="a_Node000005"><a xlink:title=" ">
<polygon fill="#e0e0e0" stroke="#999999" points="274,-20 224.25,-20 224.25,0 274,0 274,-20"/>
<text xml:space="preserve" text-anchor="middle" x="249.12" y="-6.5" font-family="Helvetica,sans-Serif" font-size="10.00">shlobj.h</text>
</a>
</g>
</g>
<!-- Node1&#45;&gt;Node5 -->
<g id="edge4_Node000001_Node000005" class="edge">
<title>Node1&#45;&gt;Node5</title>
<g id="a_edge4_Node000001_Node000005"><a xlink:title=" ">
<path fill="none" stroke="#63b8ff" d="M188.01,-55.59C198.84,-47.7 214.54,-36.24 227.31,-26.92"/>
<polygon fill="#63b8ff" stroke="#63b8ff" points="229.15,-29.91 235.16,-21.19 225.02,-24.26 229.15,-29.91"/>
</a>
</g>
</g>
<!-- Node6 -->
<g id="Node000006" class="node">
<title>Node6</title>
<g id="a_Node000006"><a xlink:title=" ">
<polygon fill="#e0e0e0" stroke="#999999" points="374.12,-20 292.12,-20 292.12,0 374.12,0 374.12,-20"/>
<text xml:space="preserve" text-anchor="middle" x="333.12" y="-6.5" font-family="Helvetica,sans-Serif" font-size="10.00">knownfolders.h</text>
</a>
</g>
</g>
<!-- Node1&#45;&gt;Node6 -->
<g id="edge5_Node000001_Node000006" class="edge">
<title>Node1&#45;&gt;Node6</title>
<g id="a_edge5_Node000001_Node000006"><a xlink:title=" ">
<path fill="none" stroke="#63b8ff" d="M202.65,-55.59C228.09,-46.9 266.16,-33.89 294.62,-24.16"/>
<polygon fill="#63b8ff" stroke="#63b8ff" points="295.63,-27.52 303.96,-20.97 293.36,-20.89 295.63,-27.52"/>
</a>
</g>
</g>
</g>
</svg>
