<?xml version="1.0" encoding="UTF-8" standalone="no"?>
<!DOCTYPE svg PUBLIC "-//W3C//DTD SVG 1.1//EN"
 "http://www.w3.org/Graphics/SVG/1.1/DTD/svg11.dtd">
<!-- Generated by graphviz version 14.0.0 (20250921.2048)
 -->
<!-- Title: AppUtil.cpp Pages: 1 -->
<svg width="448pt" height="83pt"
 viewBox="0.00 0.00 448.00 83.00" xmlns="http://www.w3.org/2000/svg" xmlns:xlink="http://www.w3.org/1999/xlink">

<svg id="main" version="1.1" xmlns="http://www.w3.org/2000/svg" xmlns:xlink="http://www.w3.org/1999/xlink" xml:space="preserve">

<style type="text/css"><![CDATA[
.node, .edge {opacity: 0.7;}
.node.selected, .edge.selected {opacity: 1;}
.edge:hover path { stroke: red; }
.edge:hover polygon { stroke: red; fill: red; }
]]></style>
<script type="application/ecmascript" xlink:href="../../svg.min.js"/>
<svg id="graph" class="graph">
<g id="graph0" class="graph" transform="scale(1 1) rotate(0) translate(4 78.5)">
<title>AppUtil.cpp</title>
<!-- Node1 -->
<g id="Node000001" class="node">
<title>Node1</title>
<g id="a_Node000001"><a xlink:title=" ">
<polygon fill="#999999" stroke="none" points="246,-74.5 164,-74.5 164,-55.25 246,-55.25 246,-74.5"/>
<text xml:space="preserve" text-anchor="start" x="172" y="-61.05" font-family="Consolas" font-weight="bold" font-size="11.00">AppUtil.cpp</text>
</a>
</g>
</g>
<!-- Node2 -->
<g id="Node000002" class="node">
<title>Node2</title>
<g id="a_Node000002"><a xlink:title=" ">
<polygon fill="#e0e0e0" stroke="none" points="94,-19.25 0,-19.25 0,0 94,0 94,-19.25"/>
<text xml:space="preserve" text-anchor="middle" x="47" y="-4.8" font-family="Consolas" font-size="11.00">npi/AppUtil.h</text>
</a>
</g>
</g>
<!-- Node1&#45;&gt;Node2 -->
<g id="edge1_Node000001_Node000002" class="edge">
<title>Node1&#45;&gt;Node2</title>
<g id="a_edge1_Node000001_Node000002"><a xlink:title=" ">
<path fill="none" stroke="#63b8ff" d="M179.61,-55.32C152.05,-46.03 108.01,-31.19 78.32,-21.18"/>
<polygon fill="#63b8ff" stroke="#63b8ff" points="73.74,-19.64 79.2,-19.1 74.95,-20.05 78.48,-21.23 78.48,-21.23 78.48,-21.23 74.95,-20.05 77.76,-23.37 73.74,-19.64"/>
</a>
</g>
</g>
<!-- Node3 -->
<g id="Node000003" class="node">
<title>Node3</title>
<g id="a_Node000003"><a xlink:title=" ">
<polygon fill="#e0e0e0" stroke="none" points="152,-19.25 112,-19.25 112,0 152,0 152,-19.25"/>
<text xml:space="preserve" text-anchor="middle" x="132" y="-4.8" font-family="Consolas" font-size="11.00">QDir</text>
</a>
</g>
</g>
<!-- Node1&#45;&gt;Node3 -->
<g id="edge2_Node000001_Node000003" class="edge">
<title>Node1&#45;&gt;Node3</title>
<g id="a_edge2_Node000001_Node000003"><a xlink:title=" ">
<path fill="none" stroke="#63b8ff" d="M193.27,-55.32C181.07,-46.42 161.87,-32.41 148.21,-22.45"/>
<polygon fill="#63b8ff" stroke="#63b8ff" points="144.44,-19.7 149.81,-20.83 145.48,-20.46 148.48,-22.65 148.48,-22.65 148.48,-22.65 145.48,-20.46 147.16,-24.47 144.44,-19.7"/>
</a>
</g>
</g>
<!-- Node4 -->
<g id="Node000004" class="node">
<title>Node4</title>
<g id="a_Node000004"><a xlink:title=" ">
<polygon fill="#e0e0e0" stroke="none" points="240,-19.25 170,-19.25 170,0 240,0 240,-19.25"/>
<text xml:space="preserve" text-anchor="middle" x="205" y="-4.8" font-family="Consolas" font-size="11.00">windows.h</text>
</a>
</g>
</g>
<!-- Node1&#45;&gt;Node4 -->
<g id="edge3_Node000001_Node000004" class="edge">
<title>Node1&#45;&gt;Node4</title>
<g id="a_edge3_Node000001_Node000004"><a xlink:title=" ">
<path fill="none" stroke="#63b8ff" d="M205,-55.55C205,-47.4 205,-34.79 205,-25.01"/>
<polygon fill="#63b8ff" stroke="#63b8ff" points="205,-20.28 207.25,-25.28 205,-21.56 205,-25.28 205,-25.28 205,-25.28 205,-21.56 202.75,-25.28 205,-20.28"/>
</a>
</g>
</g>
<!-- Node5 -->
<g id="Node000005" class="node">
<title>Node5</title>
<g id="a_Node000005"><a xlink:title=" ">
<polygon fill="#e0e0e0" stroke="none" points="322,-19.25 258,-19.25 258,0 322,0 322,-19.25"/>
<text xml:space="preserve" text-anchor="middle" x="290" y="-4.8" font-family="Consolas" font-size="11.00">shlobj.h</text>
</a>
</g>
</g>
<!-- Node1&#45;&gt;Node5 -->
<g id="edge4_Node000001_Node000005" class="edge">
<title>Node1&#45;&gt;Node5</title>
<g id="a_edge4_Node000001_Node000005"><a xlink:title=" ">
<path fill="none" stroke="#63b8ff" d="M218.66,-55.32C232.91,-46.39 255.35,-32.33 271.26,-22.37"/>
<polygon fill="#63b8ff" stroke="#63b8ff" points="275.34,-19.81 272.3,-24.37 274.26,-20.49 271.11,-22.46 271.11,-22.46 271.11,-22.46 274.26,-20.49 269.91,-20.55 275.34,-19.81"/>
</a>
</g>
</g>
<!-- Node6 -->
<g id="Node000006" class="node">
<title>Node6</title>
<g id="a_Node000006"><a xlink:title=" ">
<polygon fill="#e0e0e0" stroke="none" points="440,-19.25 340,-19.25 340,0 440,0 440,-19.25"/>
<text xml:space="preserve" text-anchor="middle" x="390" y="-4.8" font-family="Consolas" font-size="11.00">knownfolders.h</text>
</a>
</g>
</g>
<!-- Node1&#45;&gt;Node6 -->
<g id="edge5_Node000001_Node000006" class="edge">
<title>Node1&#45;&gt;Node6</title>
<g id="a_edge5_Node000001_Node000006"><a xlink:title=" ">
<path fill="none" stroke="#63b8ff" d="M234.72,-55.32C267.26,-45.95 319.42,-30.94 354.19,-20.93"/>
<polygon fill="#63b8ff" stroke="#63b8ff" points="358.87,-19.58 354.69,-23.13 357.64,-19.94 354.07,-20.97 354.07,-20.97 354.07,-20.97 357.64,-19.94 353.45,-18.81 358.87,-19.58"/>
</a>
</g>
</g>
</g>
</svg>
</svg>

<style type='text/css'>
<![CDATA[
[data-mouse-over-selected='false'] { opacity: 0.7; }
[data-mouse-over-selected='true']  { opacity: 1.0; }
]]>
</style>
<script type="application/ecmascript"><![CDATA[
document.addEventListener('DOMContentLoaded', (event) => {
  highlightEdges();
  highlightAdjacentNodes();
});
]]></script>
</svg>
