<?xml version="1.0" encoding="UTF-8" standalone="no"?>
<!DOCTYPE svg PUBLIC "-//W3C//DTD SVG 1.1//EN"
 "http://www.w3.org/Graphics/SVG/1.1/DTD/svg11.dtd">
<!-- Generated by graphviz version 14.0.0 (20250921.2048)
 -->
<!-- Title: npi::RefPtrHost::operator!= Pages: 1 -->
<svg width="376pt" height="45pt"
 viewBox="0.00 0.00 376.00 45.00" xmlns="http://www.w3.org/2000/svg" xmlns:xlink="http://www.w3.org/1999/xlink">
<g id="graph0" class="graph" transform="scale(1 1) rotate(0) translate(4 41.25)">
<title>npi::RefPtrHost::operator!=</title>
<!-- Node1 -->
<g id="Node000001" class="node">
<title>Node1</title>
<g id="a_Node000001"><a xlink:title="Compare this RefPtrHost object to a RefPtr object for inequality.">
<polygon fill="#999999" stroke="none" points="178,-19.25 0,-19.25 0,0 178,0 178,-19.25"/>
<text xml:space="preserve" text-anchor="start" x="8" y="-5.8" font-family="Consolas" font-weight="bold" font-size="11.00">npi::RefPtrHost::operator!=</text>
</a>
</g>
</g>
<!-- Node2 -->
<g id="Node000002" class="node">
<title>Node2</title>
<g id="a_Node000002"><a xlink:href="../../d6/d78/classnpi_1_1_ref_ptr_host.html#a161a8052754985bb8024c19c06fd9206" target="_top" xlink:title="Friend declarations of RefPtr class.">
<polygon fill="white" stroke="none" points="368,-19.25 214,-19.25 214,0 368,0 368,-19.25"/>
<text xml:space="preserve" text-anchor="middle" x="291" y="-4.8" font-family="Consolas" font-size="11.00">npi::RefPtrHost::RefPtr</text>
</a>
</g>
</g>
<!-- Node1&#45;&gt;Node2 -->
<g id="edge1_Node000001_Node000002" class="edge">
<title>Node1&#45;&gt;Node2</title>
<g id="a_edge1_Node000001_Node000002"><a xlink:title=" ">
<path fill="none" stroke="#63b8ff" d="M177.72,-9.62C187.81,-9.62 198.06,-9.62 208.06,-9.62"/>
<polygon fill="#63b8ff" stroke="#63b8ff" points="213.03,-9.63 208.03,-11.88 211.75,-9.63 208.03,-9.63 208.03,-9.63 208.03,-9.63 211.75,-9.63 208.03,-7.38 213.03,-9.63"/>
</a>
</g>
</g>
<!-- Node2&#45;&gt;Node2 -->
<g id="edge2_Node000002_Node000002" class="edge">
<title>Node2&#45;&gt;Node2</title>
<g id="a_edge2_Node000002_Node000002"><a xlink:title=" ">
<path fill="none" stroke="#63b8ff" d="M260.37,-18.97C244.49,-27.74 254.7,-37.25 291,-37.25 322.76,-37.25 334.55,-29.97 326.36,-22.27"/>
<polygon fill="#63b8ff" stroke="#63b8ff" points="322.62,-19.66 328.01,-20.68 323.68,-20.4 326.72,-22.52 326.72,-22.52 326.72,-22.52 323.68,-20.4 325.44,-24.37 322.62,-19.66"/>
</a>
</g>
</g>
</g>
</svg>
