<?xml version="1.0" encoding="UTF-8" standalone="no"?>
<!DOCTYPE svg PUBLIC "-//W3C//DTD SVG 1.1//EN"
 "http://www.w3.org/Graphics/SVG/1.1/DTD/svg11.dtd">
<!-- Generated by graphviz version 14.0.0 (20250921.2048)
 -->
<!-- Title: npi::RefPtrHost::~RefPtrHost Pages: 1 -->
<svg width="406pt" height="45pt"
 viewBox="0.00 0.00 406.00 45.00" xmlns="http://www.w3.org/2000/svg" xmlns:xlink="http://www.w3.org/1999/xlink">

<svg id="main" version="1.1" xmlns="http://www.w3.org/2000/svg" xmlns:xlink="http://www.w3.org/1999/xlink" xml:space="preserve">

<style type="text/css"><![CDATA[
.node, .edge {opacity: 0.7;}
.node.selected, .edge.selected {opacity: 1;}
.edge:hover path { stroke: red; }
.edge:hover polygon { stroke: red; fill: red; }
]]></style>
<script type="application/ecmascript" xlink:href="../../svg.min.js"/>
<svg id="graph" class="graph">
<g id="graph0" class="graph" transform="scale(1 1) rotate(0) translate(4 41.25)">
<title>npi::RefPtrHost::~RefPtrHost</title>
<!-- Node1 -->
<g id="Node000001" class="node">
<title>Node1</title>
<g id="a_Node000001"><a xlink:title="Default destructor.">
<polygon fill="#999999" stroke="none" points="184,-19.25 0,-19.25 0,0 184,0 184,-19.25"/>
<text xml:space="preserve" text-anchor="start" x="8" y="-5.8" font-family="Consolas" font-weight="bold" font-size="11.00">npi::RefPtrHost::~RefPtrHost</text>
</a>
</g>
</g>
<!-- Node2 -->
<g id="Node000002" class="node">
<title>Node2</title>
<g id="a_Node000002"><a xlink:href="../../d6/d78/classnpi_1_1_ref_ptr_host.html#a9a90d6c7f87e0b3d7dc0ecc2a5bc4980" target="_top" xlink:title="Friend declarations of RefPtrHost class with type as U. This makes any RefPtrHost class object a frie...">
<polygon fill="white" stroke="none" points="398,-19.25 220,-19.25 220,0 398,0 398,-19.25"/>
<text xml:space="preserve" text-anchor="middle" x="309" y="-4.8" font-family="Consolas" font-size="11.00">npi::RefPtrHost::RefPtrHost</text>
</a>
</g>
</g>
<!-- Node1&#45;&gt;Node2 -->
<g id="edge1_Node000001_Node000002" class="edge">
<title>Node1&#45;&gt;Node2</title>
<g id="a_edge1_Node000001_Node000002"><a xlink:title=" ">
<path fill="none" stroke="#63b8ff" d="M183.87,-9.62C193.83,-9.62 203.99,-9.62 214,-9.62"/>
<polygon fill="#63b8ff" stroke="#63b8ff" points="218.98,-9.63 213.98,-11.88 217.7,-9.63 213.98,-9.63 213.98,-9.63 213.98,-9.63 217.7,-9.63 213.98,-7.38 218.98,-9.63"/>
</a>
</g>
</g>
<!-- Node2&#45;&gt;Node2 -->
<g id="edge2_Node000002_Node000002" class="edge">
<title>Node2&#45;&gt;Node2</title>
<g id="a_edge2_Node000002_Node000002"><a xlink:title=" ">
<path fill="none" stroke="#63b8ff" d="M275.82,-19.11C259.16,-27.84 270.22,-37.25 309,-37.25 342.93,-37.25 355.64,-30.04 347.12,-22.39"/>
<polygon fill="#63b8ff" stroke="#63b8ff" points="343.19,-19.78 348.6,-20.67 344.26,-20.49 347.36,-22.55 347.36,-22.55 347.36,-22.55 344.26,-20.49 346.11,-24.42 343.19,-19.78"/>
</a>
</g>
</g>
</g>
</svg>
</svg>

<style type='text/css'>
<![CDATA[
[data-mouse-over-selected='false'] { opacity: 0.7; }
[data-mouse-over-selected='true']  { opacity: 1.0; }
]]>
</style>
<script type="application/ecmascript"><![CDATA[
document.addEventListener('DOMContentLoaded', (event) => {
  highlightEdges();
  highlightAdjacentNodes();
});
]]></script>
</svg>
