<?xml version="1.0" encoding="UTF-8" standalone="no"?>
<!DOCTYPE svg PUBLIC "-//W3C//DTD SVG 1.1//EN"
 "http://www.w3.org/Graphics/SVG/1.1/DTD/svg11.dtd">
<!-- Generated by graphviz version 14.0.0 (20250921.2048)
 -->
<!-- Title: npi::RefPtrHost::RefPtrHost Pages: 1 -->
<svg width="834pt" height="212pt"
 viewBox="0.00 0.00 834.00 212.00" xmlns="http://www.w3.org/2000/svg" xmlns:xlink="http://www.w3.org/1999/xlink">
<g id="graph0" class="graph" transform="scale(1 1) rotate(0) translate(4 208.25)">
<title>npi::RefPtrHost::RefPtrHost</title>
<!-- Node1 -->
<g id="Node000001" class="node">
<title>Node1</title>
<g id="a_Node000001"><a xlink:title="Polymorphic converting copy constructor.">
<polygon fill="#999999" stroke="none" points="178,-168.25 0,-168.25 0,-149 178,-149 178,-168.25"/>
<text xml:space="preserve" text-anchor="start" x="8" y="-154.8" font-family="Consolas" font-weight="bold" font-size="11.00">npi::RefPtrHost::RefPtrHost</text>
</a>
</g>
</g>
<!-- Node2 -->
<g id="Node000002" class="node">
<title>Node2</title>
<g id="a_Node000002"><a xlink:href="../../d6/d78/classnpi_1_1_ref_ptr_host.html#a9a90d6c7f87e0b3d7dc0ecc2a5bc4980" target="_top" xlink:title="Friend declarations of RefPtrHost class with type as U. This makes any RefPtrHost class object a frie...">
<polygon fill="white" stroke="none" points="826,-186.25 648,-186.25 648,-167 826,-167 826,-186.25"/>
<text xml:space="preserve" text-anchor="middle" x="737" y="-171.8" font-family="Consolas" font-size="11.00">npi::RefPtrHost::RefPtrHost</text>
</a>
</g>
</g>
<!-- Node1&#45;&gt;Node2 -->
<g id="edge1_Node000001_Node000002" class="edge">
<title>Node1&#45;&gt;Node2</title>
<g id="a_edge1_Node000001_Node000002"><a xlink:title=" ">
<path fill="none" stroke="#63b8ff" d="M177.85,-166.64C242.1,-172.09 331.38,-178.8 410,-181.62 499.72,-184.85 522.24,-183.43 612,-181.62 621.81,-181.43 632.06,-181.14 642.28,-180.81"/>
<polygon fill="#63b8ff" stroke="#63b8ff" points="647.07,-180.64 642.15,-183.06 645.79,-180.69 642.07,-180.81 642.07,-180.81 642.07,-180.81 645.79,-180.69 642,-178.56 647.07,-180.64"/>
</a>
</g>
</g>
<!-- Node3 -->
<g id="Node000003" class="node">
<title>Node3</title>
<g id="a_Node000003"><a xlink:href="../../d6/d78/classnpi_1_1_ref_ptr_host.html#ae0a638f0e6f5e6a2afdd6a2451dc21a0" target="_top" xlink:title="Internal helper to assign from another polymorphically related RefPtrHost object.">
<polygon fill="white" stroke="none" points="374,-130.25 214,-130.25 214,-111 374,-111 374,-130.25"/>
<text xml:space="preserve" text-anchor="middle" x="294" y="-115.8" font-family="Consolas" font-size="11.00">npi::RefPtrHost::assign_</text>
</a>
</g>
</g>
<!-- Node1&#45;&gt;Node3 -->
<g id="edge3_Node000001_Node000003" class="edge">
<title>Node1&#45;&gt;Node3</title>
<g id="a_edge3_Node000001_Node000003"><a xlink:title=" ">
<path fill="none" stroke="#63b8ff" d="M141.23,-149.04C170.08,-143.64 206.18,-136.88 235.93,-131.31"/>
<polygon fill="#63b8ff" stroke="#63b8ff" points="240.59,-130.44 236.09,-133.57 239.33,-130.67 235.68,-131.36 235.68,-131.36 235.68,-131.36 239.33,-130.67 235.26,-129.14 240.59,-130.44"/>
</a>
</g>
</g>
<!-- Node2&#45;&gt;Node2 -->
<g id="edge2_Node000002_Node000002" class="edge">
<title>Node2&#45;&gt;Node2</title>
<g id="a_edge2_Node000002_Node000002"><a xlink:title=" ">
<path fill="none" stroke="#63b8ff" d="M702.45,-186.11C685.09,-194.84 696.61,-204.25 737,-204.25 772.34,-204.25 785.58,-197.04 776.71,-189.39"/>
<polygon fill="#63b8ff" stroke="#63b8ff" points="772.58,-186.76 778,-187.55 773.66,-187.45 776.79,-189.45 776.79,-189.45 776.79,-189.45 773.66,-187.45 775.59,-191.35 772.58,-186.76"/>
</a>
</g>
</g>
<!-- Node3&#45;&gt;Node2 -->
<g id="edge4_Node000003_Node000002" class="edge">
<title>Node3&#45;&gt;Node2</title>
<g id="a_edge4_Node000003_Node000002"><a xlink:title=" ">
<path fill="none" stroke="#63b8ff" d="M318.77,-130.23C341.71,-139.03 377.63,-151.58 410,-157.62 487.36,-172.08 576.67,-176.45 642.23,-177.41"/>
<polygon fill="#63b8ff" stroke="#63b8ff" points="646.88,-177.48 641.85,-179.66 645.6,-177.46 641.88,-177.41 641.88,-177.41 641.88,-177.41 645.6,-177.46 641.91,-175.16 646.88,-177.48"/>
</a>
</g>
</g>
<!-- Node4 -->
<g id="Node000004" class="node">
<title>Node4</title>
<g id="a_Node000004"><a xlink:href="../../d6/d78/classnpi_1_1_ref_ptr_host.html#acb32eb21f8b38a7ff7bc276d994b9e36" target="_top" xlink:title="Retrieve the raw pointer to the hosted object.">
<polygon fill="white" stroke="none" points="582,-148.25 440,-148.25 440,-129 582,-129 582,-148.25"/>
<text xml:space="preserve" text-anchor="middle" x="511" y="-133.8" font-family="Consolas" font-size="11.00">npi::RefPtrHost::get_</text>
</a>
</g>
</g>
<!-- Node3&#45;&gt;Node4 -->
<g id="edge5_Node000003_Node000004" class="edge">
<title>Node3&#45;&gt;Node4</title>
<g id="a_edge5_Node000003_Node000004"><a xlink:title=" ">
<path fill="none" stroke="#63b8ff" d="M373.84,-127.23C393.5,-128.87 414.53,-130.63 434.05,-132.27"/>
<polygon fill="#63b8ff" stroke="#63b8ff" points="438.84,-132.67 433.67,-134.49 437.56,-132.56 433.86,-132.25 433.86,-132.25 433.86,-132.25 437.56,-132.56 434.05,-130.01 438.84,-132.67"/>
</a>
</g>
</g>
<!-- Node5 -->
<g id="Node000005" class="node">
<title>Node5</title>
<g id="a_Node000005"><a xlink:href="../../d6/d78/classnpi_1_1_ref_ptr_host.html#a82cb63d42d8ba5ce3a610f15f7eaf682" target="_top" xlink:title="Check whether two RefPtrHost instances refer to the same object and observers (universal and local)....">
<polygon fill="white" stroke="none" points="591,-111.25 431,-111.25 431,-92 591,-92 591,-111.25"/>
<text xml:space="preserve" text-anchor="middle" x="511" y="-96.8" font-family="Consolas" font-size="11.00">npi::RefPtrHost::isSame_</text>
</a>
</g>
</g>
<!-- Node3&#45;&gt;Node5 -->
<g id="edge6_Node000003_Node000005" class="edge">
<title>Node3&#45;&gt;Node5</title>
<g id="a_edge6_Node000003_Node000005"><a xlink:title=" ">
<path fill="none" stroke="#63b8ff" d="M373.84,-113.66C390.49,-112.19 408.13,-110.63 425,-109.14"/>
<polygon fill="#63b8ff" stroke="#63b8ff" points="429.96,-108.7 425.18,-111.38 428.68,-108.81 424.98,-109.14 424.98,-109.14 424.98,-109.14 428.68,-108.81 424.78,-106.9 429.96,-108.7"/>
</a>
</g>
</g>
<!-- Node6 -->
<g id="Node000006" class="node">
<title>Node6</title>
<g id="a_Node000006"><a xlink:href="../../d6/d78/classnpi_1_1_ref_ptr_host.html#ac0de27e1bb5d320daff0aa6fa046847c" target="_top" xlink:title="Friend declarations of RefPtrFromThis class.">
<polygon fill="white" stroke="none" points="612,-56.25 410,-56.25 410,-37 612,-37 612,-56.25"/>
<text xml:space="preserve" text-anchor="middle" x="511" y="-41.8" font-family="Consolas" font-size="11.00">npi::RefPtrHost::RefPtrFromThis</text>
</a>
</g>
</g>
<!-- Node3&#45;&gt;Node6 -->
<g id="edge8_Node000003_Node000006" class="edge">
<title>Node3&#45;&gt;Node6</title>
<g id="a_edge8_Node000003_Node000006"><a xlink:title=" ">
<path fill="none" stroke="#63b8ff" d="M322.67,-111.1C361.99,-97.57 433.95,-72.8 476.32,-58.22"/>
<polygon fill="#63b8ff" stroke="#63b8ff" points="480.95,-56.62 476.95,-60.38 479.73,-57.04 476.22,-58.25 476.22,-58.25 476.22,-58.25 479.73,-57.04 475.49,-56.12 480.95,-56.62"/>
</a>
</g>
</g>
<!-- Node7 -->
<g id="Node000007" class="node">
<title>Node7</title>
<g id="a_Node000007"><a xlink:href="../../d6/d78/classnpi_1_1_ref_ptr_host.html#a3fdc3c8197e33eb75b24903aa6ceaa2d" target="_top" xlink:title="Reset the host, releasing the object and invalidating all links.">
<polygon fill="white" stroke="none" points="588,-19.25 434,-19.25 434,0 588,0 588,-19.25"/>
<text xml:space="preserve" text-anchor="middle" x="511" y="-4.8" font-family="Consolas" font-size="11.00">npi::RefPtrHost::reset_</text>
</a>
</g>
</g>
<!-- Node3&#45;&gt;Node7 -->
<g id="edge10_Node000003_Node000007" class="edge">
<title>Node3&#45;&gt;Node7</title>
<g id="a_edge10_Node000003_Node000007"><a xlink:title=" ">
<path fill="none" stroke="#63b8ff" d="M303.45,-111.14C321.14,-91.95 364.24,-48.56 410,-27.62 415.83,-24.96 422.03,-22.68 428.36,-20.75"/>
<polygon fill="#63b8ff" stroke="#63b8ff" points="433.04,-19.4 428.86,-22.94 431.81,-19.75 428.24,-20.78 428.24,-20.78 428.24,-20.78 431.81,-19.75 427.62,-18.62 433.04,-19.4"/>
</a>
</g>
</g>
<!-- Node5&#45;&gt;Node2 -->
<g id="edge7_Node000005_Node000002" class="edge">
<title>Node5&#45;&gt;Node2</title>
<g id="a_edge7_Node000005_Node000002"><a xlink:title=" ">
<path fill="none" stroke="#63b8ff" d="M578.73,-111.21C589.96,-113.51 601.4,-116.29 612,-119.62 648.98,-131.25 689.35,-151.3 713.66,-164.26"/>
<polygon fill="#63b8ff" stroke="#63b8ff" points="717.82,-166.49 712.35,-166.11 716.69,-165.88 713.42,-164.12 713.42,-164.12 713.42,-164.12 716.69,-165.88 714.48,-162.14 717.82,-166.49"/>
</a>
</g>
</g>
<!-- Node6&#45;&gt;Node6 -->
<g id="edge9_Node000006_Node000006" class="edge">
<title>Node6&#45;&gt;Node6</title>
<g id="a_edge9_Node000006_Node000006"><a xlink:title=" ">
<path fill="none" stroke="#63b8ff" d="M477.82,-56.11C461.16,-64.84 472.22,-74.25 511,-74.25 544.93,-74.25 557.64,-67.04 549.12,-59.39"/>
<polygon fill="#63b8ff" stroke="#63b8ff" points="545.19,-56.78 550.6,-57.67 546.26,-57.49 549.36,-59.55 549.36,-59.55 549.36,-59.55 546.26,-57.49 548.11,-61.42 545.19,-56.78"/>
</a>
</g>
</g>
</g>
</svg>
