<?xml version="1.0" encoding="UTF-8" standalone="no"?>
<!DOCTYPE svg PUBLIC "-//W3C//DTD SVG 1.1//EN"
 "http://www.w3.org/Graphics/SVG/1.1/DTD/svg11.dtd">
<!-- Generated by graphviz version 14.0.0 (20250921.2048)
 -->
<!-- Title: npi::RefPtrHost::duplicateWithNewLocal_ Pages: 1 -->
<svg width="472pt" height="45pt"
 viewBox="0.00 0.00 472.00 45.00" xmlns="http://www.w3.org/2000/svg" xmlns:xlink="http://www.w3.org/1999/xlink">

<svg id="main" version="1.1" xmlns="http://www.w3.org/2000/svg" xmlns:xlink="http://www.w3.org/1999/xlink" xml:space="preserve">

<style type="text/css"><![CDATA[
.node, .edge {opacity: 0.7;}
.node.selected, .edge.selected {opacity: 1;}
.edge:hover path { stroke: red; }
.edge:hover polygon { stroke: red; fill: red; }
]]></style>
<script type="application/ecmascript" xlink:href="../../svg.min.js"/>
<svg id="graph" class="graph">
<g id="graph0" class="graph" transform="scale(1 1) rotate(0) translate(4 41.25)">
<title>npi::RefPtrHost::duplicateWithNewLocal_</title>
<!-- Node1 -->
<g id="Node000001" class="node">
<title>Node1</title>
<g id="a_Node000001"><a xlink:title="Duplicate host with a new local observer.">
<polygon fill="#999999" stroke="none" points="250,-19.25 0,-19.25 0,0 250,0 250,-19.25"/>
<text xml:space="preserve" text-anchor="start" x="8" y="-5.8" font-family="Consolas" font-weight="bold" font-size="11.00">npi::RefPtrHost::duplicateWithNewLocal_</text>
</a>
</g>
</g>
<!-- Node2 -->
<g id="Node000002" class="node">
<title>Node2</title>
<g id="a_Node000002"><a xlink:href="../../d6/d78/classnpi_1_1_ref_ptr_host.html#a9a90d6c7f87e0b3d7dc0ecc2a5bc4980" target="_top" xlink:title="Friend declarations of RefPtrHost class with type as U. This makes any RefPtrHost class object a frie...">
<polygon fill="white" stroke="none" points="464,-19.25 286,-19.25 286,0 464,0 464,-19.25"/>
<text xml:space="preserve" text-anchor="middle" x="375" y="-4.8" font-family="Consolas" font-size="11.00">npi::RefPtrHost::RefPtrHost</text>
</a>
</g>
</g>
<!-- Node1&#45;&gt;Node2 -->
<g id="edge1_Node000001_Node000002" class="edge">
<title>Node1&#45;&gt;Node2</title>
<g id="a_edge1_Node000001_Node000002"><a xlink:title=" ">
<path fill="none" stroke="#63b8ff" d="M250,-9.62C260.13,-9.62 270.26,-9.62 280.11,-9.62"/>
<polygon fill="#63b8ff" stroke="#63b8ff" points="285,-9.63 280,-11.88 283.72,-9.63 280,-9.63 280,-9.63 280,-9.63 283.72,-9.63 280,-7.38 285,-9.63"/>
</a>
</g>
</g>
<!-- Node2&#45;&gt;Node2 -->
<g id="edge2_Node000002_Node000002" class="edge">
<title>Node2&#45;&gt;Node2</title>
<g id="a_edge2_Node000002_Node000002"><a xlink:title=" ">
<path fill="none" stroke="#63b8ff" d="M336.78,-19.11C317.58,-27.84 330.32,-37.25 375,-37.25 414.79,-37.25 429.25,-29.79 418.37,-21.98"/>
<polygon fill="#63b8ff" stroke="#63b8ff" points="414.28,-19.7 419.75,-20.17 415.4,-20.33 418.65,-22.14 418.65,-22.14 418.65,-22.14 415.4,-20.33 417.55,-24.1 414.28,-19.7"/>
</a>
</g>
</g>
</g>
</svg>
</svg>

<style type='text/css'>
<![CDATA[
[data-mouse-over-selected='false'] { opacity: 0.7; }
[data-mouse-over-selected='true']  { opacity: 1.0; }
]]>
</style>
<script type="application/ecmascript"><![CDATA[
document.addEventListener('DOMContentLoaded', (event) => {
  highlightEdges();
  highlightAdjacentNodes();
});
]]></script>
</svg>
