<?xml version="1.0" encoding="UTF-8" standalone="no"?>
<!DOCTYPE svg PUBLIC "-//W3C//DTD SVG 1.1//EN"
 "http://www.w3.org/Graphics/SVG/1.1/DTD/svg11.dtd">
<!-- Generated by graphviz version 14.0.0 (20250921.2048)
 -->
<!-- Title: npi::RefPtrHost::assign_ Pages: 1 -->
<!--zoomable 177 -->

<svg id="main" version="1.1" xmlns="http://www.w3.org/2000/svg" xmlns:xlink="http://www.w3.org/1999/xlink" xml:space="preserve" onload="init(evt)">

<style type="text/css"><![CDATA[
.node, .edge {opacity: 0.7;}
.node.selected, .edge.selected {opacity: 1;}
.edge:hover path { stroke: red; }
.edge:hover polygon { stroke: red; fill: red; }
]]></style>

<defs>
  <circle id="rim" cx="0" cy="0" r="7"/>
  <circle id="rim2" cx="0" cy="0" r="3.5"/>
  <g id="zoomPlus">
    <use xlink:href="#rim" fill="#404040"><set attributeName="fill" to="#808080" begin="zoomplus.mouseover" end="zoomplus.mouseout"/></use>
    <path d="M-4,0h8M0,-4v8" fill="none" stroke="white" stroke-width="1.5" pointer-events="none"/>
  </g>
  <g id="zoomMin">
    <use xlink:href="#rim" fill="#404040"><set attributeName="fill" to="#808080" begin="zoomminus.mouseover" end="zoomminus.mouseout"/></use>
    <path d="M-4,0h8" fill="none" stroke="white" stroke-width="1.5" pointer-events="none"/>
  </g>
  <g id="arrowUp" transform="translate(30 24)">
    <use xlink:href="#rim"/>
    <path pointer-events="none" fill="none" stroke="white" stroke-width="1.5" d="M0,-3.0v7 M-2.5,-0.5L0,-3.0L2.5,-0.5"/>
  </g>
  <g id="arrowRight" transform="rotate(90) translate(36 -43)">
    <use xlink:href="#rim"/>
    <path pointer-events="none" fill="none" stroke="white" stroke-width="1.5" d="M0,-3.0v7 M-2.5,-0.5L0,-3.0L2.5,-0.5"/>
  </g>
  <g id="arrowDown" transform="rotate(180) translate(-30 -48)">
    <use xlink:href="#rim"/>
    <path pointer-events="none" fill="none" stroke="white" stroke-width="1.5" d="M0,-3.0v7 M-2.5,-0.5L0,-3.0L2.5,-0.5"/>
  </g>
  <g id="arrowLeft" transform="rotate(270) translate(-36 17)">
    <use xlink:href="#rim"/>
    <path pointer-events="none" fill="none" stroke="white" stroke-width="1.5" d="M0,-3.0v7 M-2.5,-0.5L0,-3.0L2.5,-0.5"/>
  </g>
  <g id="resetDef">
    <use xlink:href="#rim2" fill="#404040"><set attributeName="fill" to="#808080" begin="reset.mouseover" end="reset.mouseout"/></use>
  </g>
</defs>
<script type="application/ecmascript">
var viewWidth = 620;
var viewHeight = 177;
var sectionId = 'dynsection-6';
</script>
<script type="application/ecmascript" xlink:href="../../svg.min.js"/>
<svg id="graph" class="graph">
<g id="viewport">
<title>npi::RefPtrHost::assign_</title>
<!-- Node1 -->
<g id="Node000001" class="node">
<title>Node1</title>
<g id="a_Node000001"><a xlink:title="Internal helper to assign from another polymorphically related RefPtrHost object.">
<polygon fill="#999999" stroke="none" points="160,-111.25 0,-111.25 0,-92 160,-92 160,-111.25"/>
<text xml:space="preserve" text-anchor="start" x="8" y="-97.8" font-family="Consolas" font-weight="bold" font-size="11.00">npi::RefPtrHost::assign_</text>
</a>
</g>
</g>
<!-- Node2 -->
<g id="Node000002" class="node">
<title>Node2</title>
<g id="a_Node000002"><a xlink:href="../../d6/d78/classnpi_1_1_ref_ptr_host.html#a9a90d6c7f87e0b3d7dc0ecc2a5bc4980" target="_top" xlink:title="Friend declarations of RefPtrHost class with type as U. This makes any RefPtrHost class object a frie...">
<polygon fill="white" stroke="none" points="612,-148.25 434,-148.25 434,-129 612,-129 612,-148.25"/>
<text xml:space="preserve" text-anchor="middle" x="523" y="-133.8" font-family="Consolas" font-size="11.00">npi::RefPtrHost::RefPtrHost</text>
</a>
</g>
</g>
<!-- Node1&#45;&gt;Node2 -->
<g id="edge1_Node000001_Node000002" class="edge">
<title>Node1&#45;&gt;Node2</title>
<g id="a_edge1_Node000001_Node000002"><a xlink:title=" ">
<path fill="none" stroke="#63b8ff" d="M95.09,-111.13C116.02,-124.61 157.05,-148.65 196,-157.62 293.54,-180.11 411.6,-162.54 475.48,-149.48"/>
<polygon fill="#63b8ff" stroke="#63b8ff" points="480.3,-148.47 475.86,-151.69 479.04,-148.73 475.4,-149.49 475.4,-149.49 475.4,-149.49 479.04,-148.73 474.94,-147.29 480.3,-148.47"/>
</a>
</g>
</g>
<!-- Node3 -->
<g id="Node000003" class="node">
<title>Node3</title>
<g id="a_Node000003"><a xlink:href="../../d6/d78/classnpi_1_1_ref_ptr_host.html#acb32eb21f8b38a7ff7bc276d994b9e36" target="_top" xlink:title="Retrieve the raw pointer to the hosted object.">
<polygon fill="white" stroke="none" points="368,-148.25 226,-148.25 226,-129 368,-129 368,-148.25"/>
<text xml:space="preserve" text-anchor="middle" x="297" y="-133.8" font-family="Consolas" font-size="11.00">npi::RefPtrHost::get_</text>
</a>
</g>
</g>
<!-- Node1&#45;&gt;Node3 -->
<g id="edge3_Node000001_Node000003" class="edge">
<title>Node1&#45;&gt;Node3</title>
<g id="a_edge3_Node000001_Node000003"><a xlink:title=" ">
<path fill="none" stroke="#63b8ff" d="M136.93,-111.25C166.79,-116.39 203.61,-122.72 234.3,-128.01"/>
<polygon fill="#63b8ff" stroke="#63b8ff" points="239.15,-128.84 233.84,-130.21 237.89,-128.62 234.22,-127.99 234.22,-127.99 234.22,-127.99 237.89,-128.62 234.61,-125.78 239.15,-128.84"/>
</a>
</g>
</g>
<!-- Node4 -->
<g id="Node000004" class="node">
<title>Node4</title>
<g id="a_Node000004"><a xlink:href="../../d6/d78/classnpi_1_1_ref_ptr_host.html#a82cb63d42d8ba5ce3a610f15f7eaf682" target="_top" xlink:title="Check whether two RefPtrHost instances refer to the same object and observers (universal and local)....">
<polygon fill="white" stroke="none" points="377,-111.25 217,-111.25 217,-92 377,-92 377,-111.25"/>
<text xml:space="preserve" text-anchor="middle" x="297" y="-96.8" font-family="Consolas" font-size="11.00">npi::RefPtrHost::isSame_</text>
</a>
</g>
</g>
<!-- Node1&#45;&gt;Node4 -->
<g id="edge4_Node000001_Node000004" class="edge">
<title>Node1&#45;&gt;Node4</title>
<g id="a_edge4_Node000001_Node000004"><a xlink:title=" ">
<path fill="none" stroke="#63b8ff" d="M159.84,-101.62C176.49,-101.62 194.13,-101.62 211,-101.62"/>
<polygon fill="#63b8ff" stroke="#63b8ff" points="215.95,-101.63 210.95,-103.88 214.67,-101.63 210.95,-101.63 210.95,-101.63 210.95,-101.63 214.67,-101.63 210.95,-99.38 215.95,-101.63"/>
</a>
</g>
</g>
<!-- Node5 -->
<g id="Node000005" class="node">
<title>Node5</title>
<g id="a_Node000005"><a xlink:href="../../d6/d78/classnpi_1_1_ref_ptr_host.html#ac0de27e1bb5d320daff0aa6fa046847c" target="_top" xlink:title="Friend declarations of RefPtrFromThis class.">
<polygon fill="white" stroke="none" points="398,-56.25 196,-56.25 196,-37 398,-37 398,-56.25"/>
<text xml:space="preserve" text-anchor="middle" x="297" y="-41.8" font-family="Consolas" font-size="11.00">npi::RefPtrHost::RefPtrFromThis</text>
</a>
</g>
</g>
<!-- Node1&#45;&gt;Node5 -->
<g id="edge6_Node000001_Node000005" class="edge">
<title>Node1&#45;&gt;Node5</title>
<g id="a_edge6_Node000001_Node000005"><a xlink:title=" ">
<path fill="none" stroke="#63b8ff" d="M118.45,-92.04C155.95,-82.45 213.59,-67.71 252.95,-57.64"/>
<polygon fill="#63b8ff" stroke="#63b8ff" points="257.44,-56.49 253.15,-59.91 256.2,-56.81 252.59,-57.73 252.59,-57.73 252.59,-57.73 256.2,-56.81 252.04,-55.55 257.44,-56.49"/>
</a>
</g>
</g>
<!-- Node6 -->
<g id="Node000006" class="node">
<title>Node6</title>
<g id="a_Node000006"><a xlink:href="../../d6/d78/classnpi_1_1_ref_ptr_host.html#a3fdc3c8197e33eb75b24903aa6ceaa2d" target="_top" xlink:title="Reset the host, releasing the object and invalidating all links.">
<polygon fill="white" stroke="none" points="374,-19.25 220,-19.25 220,0 374,0 374,-19.25"/>
<text xml:space="preserve" text-anchor="middle" x="297" y="-4.8" font-family="Consolas" font-size="11.00">npi::RefPtrHost::reset_</text>
</a>
</g>
</g>
<!-- Node1&#45;&gt;Node6 -->
<g id="edge8_Node000001_Node000006" class="edge">
<title>Node1&#45;&gt;Node6</title>
<g id="a_edge8_Node000001_Node000006"><a xlink:title=" ">
<path fill="none" stroke="#63b8ff" d="M92.24,-92.2C111.92,-76.22 154.47,-43.97 196,-27.62 202.87,-24.92 210.16,-22.62 217.56,-20.67"/>
<polygon fill="#63b8ff" stroke="#63b8ff" points="222.05,-19.53 217.75,-22.94 220.8,-19.85 217.2,-20.76 217.2,-20.76 217.2,-20.76 220.8,-19.85 216.65,-18.57 222.05,-19.53"/>
</a>
</g>
</g>
<!-- Node2&#45;&gt;Node2 -->
<g id="edge2_Node000002_Node000002" class="edge">
<title>Node2&#45;&gt;Node2</title>
<g id="a_edge2_Node000002_Node000002"><a xlink:title=" ">
<path fill="none" stroke="#63b8ff" d="M488.45,-148.11C471.09,-156.84 482.61,-166.25 523,-166.25 558.34,-166.25 571.58,-159.04 562.71,-151.39"/>
<polygon fill="#63b8ff" stroke="#63b8ff" points="558.58,-148.76 564,-149.55 559.66,-149.45 562.79,-151.45 562.79,-151.45 562.79,-151.45 559.66,-149.45 561.59,-153.35 558.58,-148.76"/>
</a>
</g>
</g>
<!-- Node4&#45;&gt;Node2 -->
<g id="edge5_Node000004_Node000002" class="edge">
<title>Node4&#45;&gt;Node2</title>
<g id="a_edge5_Node000004_Node000002"><a xlink:title=" ">
<path fill="none" stroke="#63b8ff" d="M356.27,-111.25C387.51,-116.41 426.06,-122.78 458.12,-128.07"/>
<polygon fill="#63b8ff" stroke="#63b8ff" points="462.82,-128.85 457.52,-130.25 461.56,-128.64 457.89,-128.03 457.89,-128.03 457.89,-128.03 461.56,-128.64 458.25,-125.82 462.82,-128.85"/>
</a>
</g>
</g>
<!-- Node5&#45;&gt;Node5 -->
<g id="edge7_Node000005_Node000005" class="edge">
<title>Node5&#45;&gt;Node5</title>
<g id="a_edge7_Node000005_Node000005"><a xlink:title=" ">
<path fill="none" stroke="#63b8ff" d="M263.82,-56.11C247.16,-64.84 258.22,-74.25 297,-74.25 330.93,-74.25 343.64,-67.04 335.12,-59.39"/>
<polygon fill="#63b8ff" stroke="#63b8ff" points="331.19,-56.78 336.6,-57.67 332.26,-57.49 335.36,-59.55 335.36,-59.55 335.36,-59.55 332.26,-57.49 334.11,-61.42 331.19,-56.78"/>
</a>
</g>
</g>
</g>
</svg>

<g id="navigator" transform="translate(0 0)" fill="#404254">
  <rect fill="#f2f5e9" fill-opacity="0.5" stroke="#606060" stroke-width=".5" x="0" y="0" width="60" height="60"/>
  <use id="zoomplus" xlink:href="#zoomPlus" x="17" y="9" onmousedown="handleZoom(evt,'in')"/>
  <use id="zoomminus" xlink:href="#zoomMin" x="42" y="9" onmousedown="handleZoom(evt,'out')"/>
  <use id="reset" xlink:href="#resetDef" x="30" y="36" onmousedown="handleReset()"/>
   <use id="arrowup" xlink:href="#arrowUp" x="0" y="0" onmousedown="handlePan(0,-1)"/>
  <use id="arrowright" xlink:href="#arrowRight" x="0" y="0" onmousedown="handlePan(1,0)"/>
  <use id="arrowdown" xlink:href="#arrowDown" x="0" y="0" onmousedown="handlePan(0,1)"/>
  <use id="arrowleft" xlink:href="#arrowLeft" x="0" y="0" onmousedown="handlePan(-1,0)"/>
</g>
<svg viewBox="0 0 15 15" width="100%" height="30px" preserveAspectRatio="xMaxYMin meet">
 <g id="arrow_out" transform="scale(0.3 0.3)">
  <a xlink:href="classnpi_1_1_ref_ptr_host_ae0a638f0e6f5e6a2afdd6a2451dc21a0_cgraph_org.svg" target="_base">
   <rect id="button" ry="5" rx="5" y="6" x="6" height="38" width="38"
        fill="#f2f5e9" fill-opacity="0.5" stroke="#606060" stroke-width="1.0"/>
   <path id="arrow"
     d="M 11.500037,31.436501 C 11.940474,20.09759 22.043105,11.32322 32.158766,21.979434 L 37.068811,17.246167 C 37.068811,17.246167 37.088388,32 37.088388,32 L 22.160133,31.978069 C 22.160133,31.978069 26.997745,27.140456 26.997745,27.140456 C 18.528582,18.264221 13.291696,25.230495 11.500037,31.436501 z"
     style="fill:#404040;"/>
  </a>
 </g>
</svg>

<style type='text/css'>
<![CDATA[
[data-mouse-over-selected='false'] { opacity: 0.7; }
[data-mouse-over-selected='true']  { opacity: 1.0; }
]]>
</style>
<script type="application/ecmascript"><![CDATA[
document.addEventListener('DOMContentLoaded', (event) => {
  highlightEdges();
  highlightAdjacentNodes();
});
]]></script>
</svg>
