<?xml version="1.0" encoding="UTF-8" standalone="no"?>
<!DOCTYPE svg PUBLIC "-//W3C//DTD SVG 1.1//EN"
 "http://www.w3.org/Graphics/SVG/1.1/DTD/svg11.dtd">
<!-- Generated by graphviz version 14.0.0 (20250921.2048)
 -->
<!-- Title: npi::RefPtrHost::operator== Pages: 1 -->
<svg width="400pt" height="82pt"
 viewBox="0.00 0.00 400.00 82.00" xmlns="http://www.w3.org/2000/svg" xmlns:xlink="http://www.w3.org/1999/xlink">
<g id="graph0" class="graph" transform="scale(1 1) rotate(0) translate(4 78.25)">
<title>npi::RefPtrHost::operator==</title>
<!-- Node1 -->
<g id="Node000001" class="node">
<title>Node1</title>
<g id="a_Node000001"><a xlink:title="Compare this RefPtrHost object to another RefPtrHost object for equality.">
<polygon fill="#999999" stroke="none" points="178,-37.25 0,-37.25 0,-18 178,-18 178,-37.25"/>
<text xml:space="preserve" text-anchor="start" x="8" y="-23.8" font-family="Consolas" font-weight="bold" font-size="11.00">npi::RefPtrHost::operator==</text>
</a>
</g>
</g>
<!-- Node2 -->
<g id="Node000002" class="node">
<title>Node2</title>
<g id="a_Node000002"><a xlink:href="../../d6/d78/classnpi_1_1_ref_ptr_host.html#a9a90d6c7f87e0b3d7dc0ecc2a5bc4980" target="_top" xlink:title="Friend declarations of RefPtrHost class with type as U. This makes any RefPtrHost class object a frie...">
<polygon fill="white" stroke="none" points="392,-56.25 214,-56.25 214,-37 392,-37 392,-56.25"/>
<text xml:space="preserve" text-anchor="middle" x="303" y="-41.8" font-family="Consolas" font-size="11.00">npi::RefPtrHost::RefPtrHost</text>
</a>
</g>
</g>
<!-- Node1&#45;&gt;Node2 -->
<g id="edge1_Node000001_Node000002" class="edge">
<title>Node1&#45;&gt;Node2</title>
<g id="a_edge1_Node000001_Node000002"><a xlink:title=" ">
<path fill="none" stroke="#63b8ff" d="M177.76,-35.49C187.85,-36.39 198.17,-37.32 208.34,-38.23"/>
<polygon fill="#63b8ff" stroke="#63b8ff" points="213.09,-38.66 207.91,-40.45 211.82,-38.54 208.11,-38.21 208.11,-38.21 208.11,-38.21 211.82,-38.54 208.31,-35.97 213.09,-38.66"/>
</a>
</g>
</g>
<!-- Node3 -->
<g id="Node000003" class="node">
<title>Node3</title>
<g id="a_Node000003"><a xlink:href="../../d6/d78/classnpi_1_1_ref_ptr_host.html#acb32eb21f8b38a7ff7bc276d994b9e36" target="_top" xlink:title="Retrieve the raw pointer to the hosted object.">
<polygon fill="white" stroke="none" points="374,-19.25 232,-19.25 232,0 374,0 374,-19.25"/>
<text xml:space="preserve" text-anchor="middle" x="303" y="-4.8" font-family="Consolas" font-size="11.00">npi::RefPtrHost::get_</text>
</a>
</g>
</g>
<!-- Node1&#45;&gt;Node3 -->
<g id="edge3_Node000001_Node000003" class="edge">
<title>Node1&#45;&gt;Node3</title>
<g id="a_edge3_Node000001_Node000003"><a xlink:title=" ">
<path fill="none" stroke="#63b8ff" d="M177.76,-20.17C193.75,-18.82 210.31,-17.41 225.92,-16.08"/>
<polygon fill="#63b8ff" stroke="#63b8ff" points="230.88,-15.66 226.08,-18.33 229.6,-15.77 225.89,-16.09 225.89,-16.09 225.89,-16.09 229.6,-15.77 225.7,-13.84 230.88,-15.66"/>
</a>
</g>
</g>
<!-- Node2&#45;&gt;Node2 -->
<g id="edge2_Node000002_Node000002" class="edge">
<title>Node2&#45;&gt;Node2</title>
<g id="a_edge2_Node000002_Node000002"><a xlink:title=" ">
<path fill="none" stroke="#63b8ff" d="M270.28,-56.11C253.85,-64.84 264.76,-74.25 303,-74.25 336.46,-74.25 349,-67.04 340.6,-59.39"/>
<polygon fill="#63b8ff" stroke="#63b8ff" points="336.73,-56.79 342.13,-57.71 337.79,-57.5 340.87,-59.58 340.87,-59.58 340.87,-59.58 337.79,-57.5 339.62,-61.45 336.73,-56.79"/>
</a>
</g>
</g>
</g>
</svg>
