<?xml version="1.0" encoding="UTF-8" standalone="no"?>
<!DOCTYPE svg PUBLIC "-//W3C//DTD SVG 1.1//EN"
 "http://www.w3.org/Graphics/SVG/1.1/DTD/svg11.dtd">
<!-- Generated by graphviz version 14.0.0 (20250921.2048)
 -->
<!-- Title: npi::RefPtrHost::operator= Pages: 1 -->
<svg width="394pt" height="45pt"
 viewBox="0.00 0.00 394.00 45.00" xmlns="http://www.w3.org/2000/svg" xmlns:xlink="http://www.w3.org/1999/xlink">
<g id="graph0" class="graph" transform="scale(1 1) rotate(0) translate(4 41.25)">
<title>npi::RefPtrHost::operator=</title>
<!-- Node1 -->
<g id="Node000001" class="node">
<title>Node1</title>
<g id="a_Node000001"><a xlink:title="Default copy assignment operator.">
<polygon fill="#999999" stroke="none" points="172,-19.25 0,-19.25 0,0 172,0 172,-19.25"/>
<text xml:space="preserve" text-anchor="start" x="8" y="-5.8" font-family="Consolas" font-weight="bold" font-size="11.00">npi::RefPtrHost::operator=</text>
</a>
</g>
</g>
<!-- Node2 -->
<g id="Node000002" class="node">
<title>Node2</title>
<g id="a_Node000002"><a xlink:href="../../d6/d78/classnpi_1_1_ref_ptr_host.html#a9a90d6c7f87e0b3d7dc0ecc2a5bc4980" target="_top" xlink:title="Friend declarations of RefPtrHost class with type as U. This makes any RefPtrHost class object a frie...">
<polygon fill="white" stroke="none" points="386,-19.25 208,-19.25 208,0 386,0 386,-19.25"/>
<text xml:space="preserve" text-anchor="middle" x="297" y="-4.8" font-family="Consolas" font-size="11.00">npi::RefPtrHost::RefPtrHost</text>
</a>
</g>
</g>
<!-- Node1&#45;&gt;Node2 -->
<g id="edge1_Node000001_Node000002" class="edge">
<title>Node1&#45;&gt;Node2</title>
<g id="a_edge1_Node000001_Node000002"><a xlink:title=" ">
<path fill="none" stroke="#63b8ff" d="M171.71,-9.62C181.73,-9.62 192.01,-9.62 202.16,-9.62"/>
<polygon fill="#63b8ff" stroke="#63b8ff" points="206.89,-9.63 201.89,-11.88 205.61,-9.63 201.89,-9.63 201.89,-9.63 201.89,-9.63 205.61,-9.63 201.89,-7.38 206.89,-9.63"/>
</a>
</g>
</g>
<!-- Node2&#45;&gt;Node2 -->
<g id="edge2_Node000002_Node000002" class="edge">
<title>Node2&#45;&gt;Node2</title>
<g id="a_edge2_Node000002_Node000002"><a xlink:title=" ">
<path fill="none" stroke="#63b8ff" d="M264.74,-19.11C248.54,-27.84 259.29,-37.25 297,-37.25 329.99,-37.25 342.35,-30.04 334.07,-22.39"/>
<polygon fill="#63b8ff" stroke="#63b8ff" points="330.26,-19.8 335.66,-20.76 331.32,-20.52 334.39,-22.61 334.39,-22.61 334.39,-22.61 331.32,-20.52 333.12,-24.47 330.26,-19.8"/>
</a>
</g>
</g>
</g>
</svg>
