<?xml version="1.0" encoding="UTF-8" standalone="no"?>
<!DOCTYPE svg PUBLIC "-//W3C//DTD SVG 1.1//EN"
 "http://www.w3.org/Graphics/SVG/1.1/DTD/svg11.dtd">
<!-- Generated by graphviz version 14.0.0 (20250921.2048)
 -->
<!-- Title: npi::RefPtrHost::swap_ Pages: 1 -->
<svg width="548pt" height="73pt"
 viewBox="0.00 0.00 548.00 73.00" xmlns="http://www.w3.org/2000/svg" xmlns:xlink="http://www.w3.org/1999/xlink">
<g id="graph0" class="graph" transform="scale(1 1) rotate(0) translate(4 69.25)">
<title>npi::RefPtrHost::swap_</title>
<!-- Node1 -->
<g id="Node000001" class="node">
<title>Node1</title>
<g id="a_Node000001"><a xlink:title="Member swap.">
<polygon fill="#999999" stroke="none" points="148,-47.25 0,-47.25 0,-28 148,-28 148,-47.25"/>
<text xml:space="preserve" text-anchor="start" x="8" y="-33.8" font-family="Consolas" font-weight="bold" font-size="11.00">npi::RefPtrHost::swap_</text>
</a>
</g>
</g>
<!-- Node2 -->
<g id="Node000002" class="node">
<title>Node2</title>
<g id="a_Node000002"><a xlink:href="../../d6/d78/classnpi_1_1_ref_ptr_host.html#a9a90d6c7f87e0b3d7dc0ecc2a5bc4980" target="_top" xlink:title="Friend declarations of RefPtrHost class with type as U. This makes any RefPtrHost class object a frie...">
<polygon fill="white" stroke="none" points="540,-47.25 362,-47.25 362,-28 540,-28 540,-47.25"/>
<text xml:space="preserve" text-anchor="middle" x="451" y="-32.8" font-family="Consolas" font-size="11.00">npi::RefPtrHost::RefPtrHost</text>
</a>
</g>
</g>
<!-- Node1&#45;&gt;Node2 -->
<g id="edge1_Node000001_Node000002" class="edge">
<title>Node1&#45;&gt;Node2</title>
<g id="a_edge1_Node000001_Node000002"><a xlink:title=" ">
<path fill="none" stroke="#63b8ff" d="M147.95,-44.48C159.98,-45.37 172.33,-46.14 184,-46.62 247.06,-49.22 262.93,-48.91 326,-46.62 335.83,-46.27 346.08,-45.75 356.31,-45.15"/>
<polygon fill="#63b8ff" stroke="#63b8ff" points="361.1,-44.86 356.25,-47.41 359.82,-44.94 356.11,-45.16 356.11,-45.16 356.11,-45.16 359.82,-44.94 355.97,-42.92 361.1,-44.86"/>
</a>
</g>
</g>
<!-- Node3 -->
<g id="Node000003" class="node">
<title>Node3</title>
<g id="a_Node000003"><a xlink:href="../../d6/d78/classnpi_1_1_ref_ptr_host.html#aa7de8d60a0e0fc05612bbf6b0f04d9d2" target="_top" xlink:title="Swap two hosts.">
<polygon fill="white" stroke="none" points="326,-19.25 184,-19.25 184,0 326,0 326,-19.25"/>
<text xml:space="preserve" text-anchor="middle" x="255" y="-4.8" font-family="Consolas" font-size="11.00">npi::RefPtrHost::swap</text>
</a>
</g>
</g>
<!-- Node1&#45;&gt;Node3 -->
<g id="edge3_Node000001_Node000003" class="edge">
<title>Node1&#45;&gt;Node3</title>
<g id="a_edge3_Node000001_Node000003"><a xlink:title=" ">
<path fill="none" stroke="#63b8ff" d="M136.35,-28.03C152.58,-25.49 170.17,-22.74 186.7,-20.15"/>
<polygon fill="#63b8ff" stroke="#63b8ff" points="191.53,-19.4 186.93,-22.39 190.26,-19.6 186.59,-20.17 186.59,-20.17 186.59,-20.17 190.26,-19.6 186.24,-17.95 191.53,-19.4"/>
</a>
</g>
</g>
<!-- Node2&#45;&gt;Node2 -->
<g id="edge2_Node000002_Node000002" class="edge">
<title>Node2&#45;&gt;Node2</title>
<g id="a_edge2_Node000002_Node000002"><a xlink:title=" ">
<path fill="none" stroke="#63b8ff" d="M421.28,-46.97C405.88,-55.74 415.78,-65.25 451,-65.25 481.82,-65.25 493.25,-57.97 485.31,-50.27"/>
<polygon fill="#63b8ff" stroke="#63b8ff" points="481.7,-47.68 487.08,-48.77 482.75,-48.43 485.76,-50.6 485.76,-50.6 485.76,-50.6 482.75,-48.43 484.45,-52.42 481.7,-47.68"/>
</a>
</g>
</g>
<!-- Node3&#45;&gt;Node2 -->
<g id="edge4_Node000003_Node000002" class="edge">
<title>Node3&#45;&gt;Node2</title>
<g id="a_edge4_Node000003_Node000002"><a xlink:title=" ">
<path fill="none" stroke="#63b8ff" d="M322.49,-19.22C340.23,-21.78 359.48,-24.56 377.53,-27.16"/>
<polygon fill="#63b8ff" stroke="#63b8ff" points="382.39,-27.87 377.12,-29.38 381.12,-27.68 377.44,-27.15 377.44,-27.15 377.44,-27.15 381.12,-27.68 377.76,-24.93 382.39,-27.87"/>
</a>
</g>
</g>
<!-- Node3&#45;&gt;Node3 -->
<g id="edge5_Node000003_Node000003" class="edge">
<title>Node3&#45;&gt;Node3</title>
<g id="a_edge5_Node000003_Node000003"><a xlink:title=" ">
<path fill="none" stroke="#63b8ff" d="M227.56,-18.97C213.33,-27.74 222.48,-37.25 255,-37.25 282.95,-37.25 293.64,-30.22 287.06,-22.68"/>
<polygon fill="#63b8ff" stroke="#63b8ff" points="283.39,-19.73 288.7,-21.11 284.39,-20.53 287.29,-22.86 287.29,-22.86 287.29,-22.86 284.39,-20.53 285.87,-24.62 283.39,-19.73"/>
</a>
</g>
</g>
</g>
</svg>
