<?xml version="1.0" encoding="UTF-8" standalone="no"?>
<!DOCTYPE svg PUBLIC "-//W3C//DTD SVG 1.1//EN"
 "http://www.w3.org/Graphics/SVG/1.1/DTD/svg11.dtd">
<!-- Generated by graphviz version 14.0.0 (20250921.2048)
 -->
<!-- Title: npi::RefPtrHost::reset_ Pages: 1 -->
<svg width="572pt" height="64pt"
 viewBox="0.00 0.00 572.00 64.00" xmlns="http://www.w3.org/2000/svg" xmlns:xlink="http://www.w3.org/1999/xlink">
<g id="graph0" class="graph" transform="scale(1 1) rotate(0) translate(4 60.25)">
<title>npi::RefPtrHost::reset_</title>
<!-- Node1 -->
<g id="Node000001" class="node">
<title>Node1</title>
<g id="a_Node000001"><a xlink:title="Reset the host, releasing the object and invalidating all links.">
<polygon fill="#999999" stroke="none" points="564,-37.25 410,-37.25 410,-18 564,-18 564,-37.25"/>
<text xml:space="preserve" text-anchor="start" x="418" y="-23.8" font-family="Consolas" font-weight="bold" font-size="11.00">npi::RefPtrHost::reset_</text>
</a>
</g>
</g>
<!-- Node2 -->
<g id="Node000002" class="node">
<title>Node2</title>
<g id="a_Node000002"><a xlink:href="../../d6/d78/classnpi_1_1_ref_ptr_host.html#ae0a638f0e6f5e6a2afdd6a2451dc21a0" target="_top" xlink:title="Internal helper to assign from another polymorphically related RefPtrHost object.">
<polygon fill="white" stroke="none" points="374,-37.25 214,-37.25 214,-18 374,-18 374,-37.25"/>
<text xml:space="preserve" text-anchor="middle" x="294" y="-22.8" font-family="Consolas" font-size="11.00">npi::RefPtrHost::assign_</text>
</a>
</g>
</g>
<!-- Node1&#45;&gt;Node2 -->
<g id="edge1_Node000001_Node000002" class="edge">
<title>Node1&#45;&gt;Node2</title>
<g id="a_edge1_Node000001_Node000002"><a xlink:title=" ">
<path fill="none" stroke="#63b8ff" d="M404.03,-27.62C394,-27.62 383.78,-27.62 373.8,-27.62"/>
<polygon fill="#63b8ff" stroke="#63b8ff" points="409.02,-27.63 404.02,-29.88 407.74,-27.63 404.02,-27.63 404.02,-27.63 404.02,-27.63 407.74,-27.63 404.02,-25.38 409.02,-27.63"/>
</a>
</g>
</g>
<!-- Node3 -->
<g id="Node000003" class="node">
<title>Node3</title>
<g id="a_Node000003"><a xlink:href="../../d6/d78/classnpi_1_1_ref_ptr_host.html#a7923e97ede1476b9903c61e7b58badbe" target="_top" xlink:title="Polymorphic converting copy constructor.">
<polygon fill="white" stroke="none" points="178,-56.25 0,-56.25 0,-37 178,-37 178,-56.25"/>
<text xml:space="preserve" text-anchor="middle" x="89" y="-41.8" font-family="Consolas" font-size="11.00">npi::RefPtrHost::RefPtrHost</text>
</a>
</g>
</g>
<!-- Node2&#45;&gt;Node3 -->
<g id="edge2_Node000002_Node000003" class="edge">
<title>Node2&#45;&gt;Node3</title>
<g id="a_edge2_Node000002_Node000003"><a xlink:title=" ">
<path fill="none" stroke="#63b8ff" d="M208.04,-35.58C198.06,-36.51 187.85,-37.47 177.83,-38.4"/>
<polygon fill="#63b8ff" stroke="#63b8ff" points="213.01,-35.11 208.24,-37.82 211.74,-35.23 208.03,-35.58 208.03,-35.58 208.03,-35.58 211.74,-35.23 207.82,-33.34 213.01,-35.11"/>
</a>
</g>
</g>
<!-- Node4 -->
<g id="Node000004" class="node">
<title>Node4</title>
<g id="a_Node000004"><a xlink:href="../../d6/d78/classnpi_1_1_ref_ptr_host.html#a3458764adfa3897ca8f73cf4bf53bc7f" target="_top" xlink:title="Polymorphic assignment operator.">
<polygon fill="white" stroke="none" points="175,-19.25 3,-19.25 3,0 175,0 175,-19.25"/>
<text xml:space="preserve" text-anchor="middle" x="89" y="-4.8" font-family="Consolas" font-size="11.00">npi::RefPtrHost::operator=</text>
</a>
</g>
</g>
<!-- Node2&#45;&gt;Node4 -->
<g id="edge3_Node000002_Node000004" class="edge">
<title>Node2&#45;&gt;Node4</title>
<g id="a_edge3_Node000002_Node000004"><a xlink:title=" ">
<path fill="none" stroke="#63b8ff" d="M208.13,-20.1C197.1,-19.12 185.81,-18.12 174.78,-17.14"/>
<polygon fill="#63b8ff" stroke="#63b8ff" points="213.01,-20.53 207.83,-22.33 211.73,-20.42 208.03,-20.09 208.03,-20.09 208.03,-20.09 211.73,-20.42 208.23,-17.85 213.01,-20.53"/>
</a>
</g>
</g>
</g>
</svg>
