<?xml version="1.0" encoding="UTF-8" standalone="no"?>
<!DOCTYPE svg PUBLIC "-//W3C//DTD SVG 1.1//EN"
 "http://www.w3.org/Graphics/SVG/1.1/DTD/svg11.dtd">
<!-- Generated by graphviz version 14.0.0 (20250921.2048)
 -->
<!-- Title: npi::RefPtrHost::weakHost_ Pages: 1 -->
<svg width="418pt" height="45pt"
 viewBox="0.00 0.00 418.00 45.00" xmlns="http://www.w3.org/2000/svg" xmlns:xlink="http://www.w3.org/1999/xlink">

<svg id="main" version="1.1" xmlns="http://www.w3.org/2000/svg" xmlns:xlink="http://www.w3.org/1999/xlink" xml:space="preserve">

<style type="text/css"><![CDATA[
.node, .edge {opacity: 0.7;}
.node.selected, .edge.selected {opacity: 1;}
.edge:hover path { stroke: red; }
.edge:hover polygon { stroke: red; fill: red; }
]]></style>
<script type="application/ecmascript" xlink:href="../../svg.min.js"/>
<svg id="graph" class="graph">
<g id="graph0" class="graph" transform="scale(1 1) rotate(0) translate(4 41.25)">
<title>npi::RefPtrHost::weakHost_</title>
<!-- Node1 -->
<g id="Node000001" class="node">
<title>Node1</title>
<g id="a_Node000001"><a xlink:title="Create a RefPtrWeakHost object i.e. weak reference to RefPtrHost. Similar to what std::weak_ptr does ...">
<polygon fill="#999999" stroke="none" points="172,-19.25 0,-19.25 0,0 172,0 172,-19.25"/>
<text xml:space="preserve" text-anchor="start" x="8" y="-5.8" font-family="Consolas" font-weight="bold" font-size="11.00">npi::RefPtrHost::weakHost_</text>
</a>
</g>
</g>
<!-- Node2 -->
<g id="Node000002" class="node">
<title>Node2</title>
<g id="a_Node000002"><a xlink:href="../../d6/d78/classnpi_1_1_ref_ptr_host.html#a805c9a614555902a1930ce89ff569c2f" target="_top" xlink:title="Friend declarations of RefPtrWeakHost class.">
<polygon fill="white" stroke="none" points="410,-19.25 208,-19.25 208,0 410,0 410,-19.25"/>
<text xml:space="preserve" text-anchor="middle" x="309" y="-4.8" font-family="Consolas" font-size="11.00">npi::RefPtrHost::RefPtrWeakHost</text>
</a>
</g>
</g>
<!-- Node1&#45;&gt;Node2 -->
<g id="edge1_Node000001_Node000002" class="edge">
<title>Node1&#45;&gt;Node2</title>
<g id="a_edge1_Node000001_Node000002"><a xlink:title=" ">
<path fill="none" stroke="#63b8ff" d="M171.81,-9.62C181.78,-9.62 192.05,-9.62 202.26,-9.62"/>
<polygon fill="#63b8ff" stroke="#63b8ff" points="207.05,-9.63 202.05,-11.88 205.77,-9.63 202.05,-9.63 202.05,-9.63 202.05,-9.63 205.77,-9.63 202.05,-7.38 207.05,-9.63"/>
</a>
</g>
</g>
<!-- Node2&#45;&gt;Node2 -->
<g id="edge2_Node000002_Node000002" class="edge">
<title>Node2&#45;&gt;Node2</title>
<g id="a_edge2_Node000002_Node000002"><a xlink:title=" ">
<path fill="none" stroke="#63b8ff" d="M274.91,-19.11C257.78,-27.84 269.15,-37.25 309,-37.25 343.87,-37.25 356.93,-30.04 348.18,-22.39"/>
<polygon fill="#63b8ff" stroke="#63b8ff" points="344.12,-19.77 349.54,-20.59 345.19,-20.46 348.32,-22.48 348.32,-22.48 348.32,-22.48 345.19,-20.46 347.09,-24.37 344.12,-19.77"/>
</a>
</g>
</g>
</g>
</svg>
</svg>

<style type='text/css'>
<![CDATA[
[data-mouse-over-selected='false'] { opacity: 0.7; }
[data-mouse-over-selected='true']  { opacity: 1.0; }
]]>
</style>
<script type="application/ecmascript"><![CDATA[
document.addEventListener('DOMContentLoaded', (event) => {
  highlightEdges();
  highlightAdjacentNodes();
});
]]></script>
</svg>
