<?xml version="1.0" encoding="UTF-8" standalone="no"?>
<!DOCTYPE svg PUBLIC "-//W3C//DTD SVG 1.1//EN"
 "http://www.w3.org/Graphics/SVG/1.1/DTD/svg11.dtd">
<!-- Generated by graphviz version 14.0.0 (20250921.2048)
 -->
<!-- Title: npi::RefPtrHost::assign_ Pages: 1 -->
<svg width="620pt" height="177pt"
 viewBox="0.00 0.00 620.00 177.00" xmlns="http://www.w3.org/2000/svg" xmlns:xlink="http://www.w3.org/1999/xlink">
<g id="graph0" class="graph" transform="scale(1 1) rotate(0) translate(4 172.99)">
<title>npi::RefPtrHost::assign_</title>
<!-- Node1 -->
<g id="Node000001" class="node">
<title>Node1</title>
<g id="a_Node000001"><a xlink:title="Internal helper to assign from another polymorphically related RefPtrHost object.">
<polygon fill="#999999" stroke="none" points="160,-111.25 0,-111.25 0,-92 160,-92 160,-111.25"/>
<text xml:space="preserve" text-anchor="start" x="8" y="-97.8" font-family="Consolas" font-weight="bold" font-size="11.00">npi::RefPtrHost::assign_</text>
</a>
</g>
</g>
<!-- Node2 -->
<g id="Node000002" class="node">
<title>Node2</title>
<g id="a_Node000002"><a xlink:href="../../d6/d78/classnpi_1_1_ref_ptr_host.html#a9a90d6c7f87e0b3d7dc0ecc2a5bc4980" target="_top" xlink:title="Friend declarations of RefPtrHost class with type as U. This makes any RefPtrHost class object a frie...">
<polygon fill="white" stroke="none" points="612,-148.25 434,-148.25 434,-129 612,-129 612,-148.25"/>
<text xml:space="preserve" text-anchor="middle" x="523" y="-133.8" font-family="Consolas" font-size="11.00">npi::RefPtrHost::RefPtrHost</text>
</a>
</g>
</g>
<!-- Node1&#45;&gt;Node2 -->
<g id="edge1_Node000001_Node000002" class="edge">
<title>Node1&#45;&gt;Node2</title>
<g id="a_edge1_Node000001_Node000002"><a xlink:title=" ">
<path fill="none" stroke="#63b8ff" d="M95.09,-111.13C116.02,-124.61 157.05,-148.65 196,-157.62 293.54,-180.11 411.6,-162.54 475.48,-149.48"/>
<polygon fill="#63b8ff" stroke="#63b8ff" points="480.3,-148.47 475.86,-151.69 479.04,-148.73 475.4,-149.49 475.4,-149.49 475.4,-149.49 479.04,-148.73 474.94,-147.29 480.3,-148.47"/>
</a>
</g>
</g>
<!-- Node3 -->
<g id="Node000003" class="node">
<title>Node3</title>
<g id="a_Node000003"><a xlink:href="../../d6/d78/classnpi_1_1_ref_ptr_host.html#acb32eb21f8b38a7ff7bc276d994b9e36" target="_top" xlink:title="Retrieve the raw pointer to the hosted object.">
<polygon fill="white" stroke="none" points="368,-148.25 226,-148.25 226,-129 368,-129 368,-148.25"/>
<text xml:space="preserve" text-anchor="middle" x="297" y="-133.8" font-family="Consolas" font-size="11.00">npi::RefPtrHost::get_</text>
</a>
</g>
</g>
<!-- Node1&#45;&gt;Node3 -->
<g id="edge3_Node000001_Node000003" class="edge">
<title>Node1&#45;&gt;Node3</title>
<g id="a_edge3_Node000001_Node000003"><a xlink:title=" ">
<path fill="none" stroke="#63b8ff" d="M136.93,-111.25C166.79,-116.39 203.61,-122.72 234.3,-128.01"/>
<polygon fill="#63b8ff" stroke="#63b8ff" points="239.15,-128.84 233.84,-130.21 237.89,-128.62 234.22,-127.99 234.22,-127.99 234.22,-127.99 237.89,-128.62 234.61,-125.78 239.15,-128.84"/>
</a>
</g>
</g>
<!-- Node4 -->
<g id="Node000004" class="node">
<title>Node4</title>
<g id="a_Node000004"><a xlink:href="../../d6/d78/classnpi_1_1_ref_ptr_host.html#a82cb63d42d8ba5ce3a610f15f7eaf682" target="_top" xlink:title="Check whether two RefPtrHost instances refer to the same object and observers (universal and local)....">
<polygon fill="white" stroke="none" points="377,-111.25 217,-111.25 217,-92 377,-92 377,-111.25"/>
<text xml:space="preserve" text-anchor="middle" x="297" y="-96.8" font-family="Consolas" font-size="11.00">npi::RefPtrHost::isSame_</text>
</a>
</g>
</g>
<!-- Node1&#45;&gt;Node4 -->
<g id="edge4_Node000001_Node000004" class="edge">
<title>Node1&#45;&gt;Node4</title>
<g id="a_edge4_Node000001_Node000004"><a xlink:title=" ">
<path fill="none" stroke="#63b8ff" d="M159.84,-101.62C176.49,-101.62 194.13,-101.62 211,-101.62"/>
<polygon fill="#63b8ff" stroke="#63b8ff" points="215.95,-101.63 210.95,-103.88 214.67,-101.63 210.95,-101.63 210.95,-101.63 210.95,-101.63 214.67,-101.63 210.95,-99.38 215.95,-101.63"/>
</a>
</g>
</g>
<!-- Node5 -->
<g id="Node000005" class="node">
<title>Node5</title>
<g id="a_Node000005"><a xlink:href="../../d6/d78/classnpi_1_1_ref_ptr_host.html#ac0de27e1bb5d320daff0aa6fa046847c" target="_top" xlink:title="Friend declarations of RefPtrFromThis class.">
<polygon fill="white" stroke="none" points="398,-56.25 196,-56.25 196,-37 398,-37 398,-56.25"/>
<text xml:space="preserve" text-anchor="middle" x="297" y="-41.8" font-family="Consolas" font-size="11.00">npi::RefPtrHost::RefPtrFromThis</text>
</a>
</g>
</g>
<!-- Node1&#45;&gt;Node5 -->
<g id="edge6_Node000001_Node000005" class="edge">
<title>Node1&#45;&gt;Node5</title>
<g id="a_edge6_Node000001_Node000005"><a xlink:title=" ">
<path fill="none" stroke="#63b8ff" d="M118.45,-92.04C155.95,-82.45 213.59,-67.71 252.95,-57.64"/>
<polygon fill="#63b8ff" stroke="#63b8ff" points="257.44,-56.49 253.15,-59.91 256.2,-56.81 252.59,-57.73 252.59,-57.73 252.59,-57.73 256.2,-56.81 252.04,-55.55 257.44,-56.49"/>
</a>
</g>
</g>
<!-- Node6 -->
<g id="Node000006" class="node">
<title>Node6</title>
<g id="a_Node000006"><a xlink:href="../../d6/d78/classnpi_1_1_ref_ptr_host.html#a3fdc3c8197e33eb75b24903aa6ceaa2d" target="_top" xlink:title="Reset the host, releasing the object and invalidating all links.">
<polygon fill="white" stroke="none" points="374,-19.25 220,-19.25 220,0 374,0 374,-19.25"/>
<text xml:space="preserve" text-anchor="middle" x="297" y="-4.8" font-family="Consolas" font-size="11.00">npi::RefPtrHost::reset_</text>
</a>
</g>
</g>
<!-- Node1&#45;&gt;Node6 -->
<g id="edge8_Node000001_Node000006" class="edge">
<title>Node1&#45;&gt;Node6</title>
<g id="a_edge8_Node000001_Node000006"><a xlink:title=" ">
<path fill="none" stroke="#63b8ff" d="M92.24,-92.2C111.92,-76.22 154.47,-43.97 196,-27.62 202.87,-24.92 210.16,-22.62 217.56,-20.67"/>
<polygon fill="#63b8ff" stroke="#63b8ff" points="222.05,-19.53 217.75,-22.94 220.8,-19.85 217.2,-20.76 217.2,-20.76 217.2,-20.76 220.8,-19.85 216.65,-18.57 222.05,-19.53"/>
</a>
</g>
</g>
<!-- Node2&#45;&gt;Node2 -->
<g id="edge2_Node000002_Node000002" class="edge">
<title>Node2&#45;&gt;Node2</title>
<g id="a_edge2_Node000002_Node000002"><a xlink:title=" ">
<path fill="none" stroke="#63b8ff" d="M488.45,-148.11C471.09,-156.84 482.61,-166.25 523,-166.25 558.34,-166.25 571.58,-159.04 562.71,-151.39"/>
<polygon fill="#63b8ff" stroke="#63b8ff" points="558.58,-148.76 564,-149.55 559.66,-149.45 562.79,-151.45 562.79,-151.45 562.79,-151.45 559.66,-149.45 561.59,-153.35 558.58,-148.76"/>
</a>
</g>
</g>
<!-- Node4&#45;&gt;Node2 -->
<g id="edge5_Node000004_Node000002" class="edge">
<title>Node4&#45;&gt;Node2</title>
<g id="a_edge5_Node000004_Node000002"><a xlink:title=" ">
<path fill="none" stroke="#63b8ff" d="M356.27,-111.25C387.51,-116.41 426.06,-122.78 458.12,-128.07"/>
<polygon fill="#63b8ff" stroke="#63b8ff" points="462.82,-128.85 457.52,-130.25 461.56,-128.64 457.89,-128.03 457.89,-128.03 457.89,-128.03 461.56,-128.64 458.25,-125.82 462.82,-128.85"/>
</a>
</g>
</g>
<!-- Node5&#45;&gt;Node5 -->
<g id="edge7_Node000005_Node000005" class="edge">
<title>Node5&#45;&gt;Node5</title>
<g id="a_edge7_Node000005_Node000005"><a xlink:title=" ">
<path fill="none" stroke="#63b8ff" d="M263.82,-56.11C247.16,-64.84 258.22,-74.25 297,-74.25 330.93,-74.25 343.64,-67.04 335.12,-59.39"/>
<polygon fill="#63b8ff" stroke="#63b8ff" points="331.19,-56.78 336.6,-57.67 332.26,-57.49 335.36,-59.55 335.36,-59.55 335.36,-59.55 332.26,-57.49 334.11,-61.42 331.19,-56.78"/>
</a>
</g>
</g>
</g>
</svg>
