<?xml version="1.0" encoding="UTF-8" standalone="no"?>
<!DOCTYPE svg PUBLIC "-//W3C//DTD SVG 1.1//EN"
 "http://www.w3.org/Graphics/SVG/1.1/DTD/svg11.dtd">
<!-- Generated by graphviz version 14.0.0 (20250921.2048)
 -->
<!-- Title: npi::RefPtrHost::operator bool Pages: 1 -->
<svg width="584pt" height="27pt"
 viewBox="0.00 0.00 584.00 27.00" xmlns="http://www.w3.org/2000/svg" xmlns:xlink="http://www.w3.org/1999/xlink">
<g id="graph0" class="graph" transform="scale(1 1) rotate(0) translate(4 23.25)">
<title>npi::RefPtrHost::operator bool</title>
<!-- Node1 -->
<g id="Node000001" class="node">
<title>Node1</title>
<g id="a_Node000001"><a xlink:title="Explicit boolean conversion operator (e.g. if(refPtrHost){...}).">
<polygon fill="#999999" stroke="none" points="196,-19.25 0,-19.25 0,0 196,0 196,-19.25"/>
<text xml:space="preserve" text-anchor="start" x="8" y="-5.8" font-family="Consolas" font-weight="bold" font-size="11.00">npi::RefPtrHost::operator bool</text>
</a>
</g>
</g>
<!-- Node2 -->
<g id="Node000002" class="node">
<title>Node2</title>
<g id="a_Node000002"><a xlink:href="../../d6/d78/classnpi_1_1_ref_ptr_host.html#a0ba9792630f4de6ddc7b7d18cf65e666" target="_top" xlink:title="Check whether the host owns an object.">
<polygon fill="white" stroke="none" points="398,-19.25 232,-19.25 232,0 398,0 398,-19.25"/>
<text xml:space="preserve" text-anchor="middle" x="315" y="-4.8" font-family="Consolas" font-size="11.00">npi::RefPtrHost::isValid_</text>
</a>
</g>
</g>
<!-- Node1&#45;&gt;Node2 -->
<g id="edge1_Node000001_Node000002" class="edge">
<title>Node1&#45;&gt;Node2</title>
<g id="a_edge1_Node000001_Node000002"><a xlink:title=" ">
<path fill="none" stroke="#63b8ff" d="M195.81,-9.62C205.87,-9.62 216.06,-9.62 226.01,-9.62"/>
<polygon fill="#63b8ff" stroke="#63b8ff" points="230.96,-9.63 225.96,-11.88 229.68,-9.63 225.96,-9.63 225.96,-9.63 225.96,-9.63 229.68,-9.63 225.96,-7.38 230.96,-9.63"/>
</a>
</g>
</g>
<!-- Node3 -->
<g id="Node000003" class="node">
<title>Node3</title>
<g id="a_Node000003"><a xlink:href="../../d6/d78/classnpi_1_1_ref_ptr_host.html#acb32eb21f8b38a7ff7bc276d994b9e36" target="_top" xlink:title="Retrieve the raw pointer to the hosted object.">
<polygon fill="white" stroke="none" points="576,-19.25 434,-19.25 434,0 576,0 576,-19.25"/>
<text xml:space="preserve" text-anchor="middle" x="505" y="-4.8" font-family="Consolas" font-size="11.00">npi::RefPtrHost::get_</text>
</a>
</g>
</g>
<!-- Node2&#45;&gt;Node3 -->
<g id="edge2_Node000002_Node000003" class="edge">
<title>Node2&#45;&gt;Node3</title>
<g id="a_edge2_Node000002_Node000003"><a xlink:title=" ">
<path fill="none" stroke="#63b8ff" d="M397.91,-9.62C407.91,-9.62 418.09,-9.62 428,-9.62"/>
<polygon fill="#63b8ff" stroke="#63b8ff" points="432.91,-9.63 427.91,-11.88 431.63,-9.63 427.91,-9.63 427.91,-9.63 427.91,-9.63 431.63,-9.63 427.91,-7.38 432.91,-9.63"/>
</a>
</g>
</g>
</g>
</svg>
