<?xml version="1.0" encoding="UTF-8" standalone="no"?>
<!DOCTYPE svg PUBLIC "-//W3C//DTD SVG 1.1//EN"
 "http://www.w3.org/Graphics/SVG/1.1/DTD/svg11.dtd">
<!-- Generated by graphviz version 14.0.0 (20250921.2048)
 -->
<!-- Title: npi::RefPtrHost::operator= Pages: 1 -->
<!--zoomable 212 -->

<svg id="main" version="1.1" xmlns="http://www.w3.org/2000/svg" xmlns:xlink="http://www.w3.org/1999/xlink" xml:space="preserve" onload="init(evt)">

<style type="text/css"><![CDATA[
.node, .edge {opacity: 0.7;}
.node.selected, .edge.selected {opacity: 1;}
.edge:hover path { stroke: red; }
.edge:hover polygon { stroke: red; fill: red; }
]]></style>

<defs>
  <circle id="rim" cx="0" cy="0" r="7"/>
  <circle id="rim2" cx="0" cy="0" r="3.5"/>
  <g id="zoomPlus">
    <use xlink:href="#rim" fill="#404040"><set attributeName="fill" to="#808080" begin="zoomplus.mouseover" end="zoomplus.mouseout"/></use>
    <path d="M-4,0h8M0,-4v8" fill="none" stroke="white" stroke-width="1.5" pointer-events="none"/>
  </g>
  <g id="zoomMin">
    <use xlink:href="#rim" fill="#404040"><set attributeName="fill" to="#808080" begin="zoomminus.mouseover" end="zoomminus.mouseout"/></use>
    <path d="M-4,0h8" fill="none" stroke="white" stroke-width="1.5" pointer-events="none"/>
  </g>
  <g id="arrowUp" transform="translate(30 24)">
    <use xlink:href="#rim"/>
    <path pointer-events="none" fill="none" stroke="white" stroke-width="1.5" d="M0,-3.0v7 M-2.5,-0.5L0,-3.0L2.5,-0.5"/>
  </g>
  <g id="arrowRight" transform="rotate(90) translate(36 -43)">
    <use xlink:href="#rim"/>
    <path pointer-events="none" fill="none" stroke="white" stroke-width="1.5" d="M0,-3.0v7 M-2.5,-0.5L0,-3.0L2.5,-0.5"/>
  </g>
  <g id="arrowDown" transform="rotate(180) translate(-30 -48)">
    <use xlink:href="#rim"/>
    <path pointer-events="none" fill="none" stroke="white" stroke-width="1.5" d="M0,-3.0v7 M-2.5,-0.5L0,-3.0L2.5,-0.5"/>
  </g>
  <g id="arrowLeft" transform="rotate(270) translate(-36 17)">
    <use xlink:href="#rim"/>
    <path pointer-events="none" fill="none" stroke="white" stroke-width="1.5" d="M0,-3.0v7 M-2.5,-0.5L0,-3.0L2.5,-0.5"/>
  </g>
  <g id="resetDef">
    <use xlink:href="#rim2" fill="#404040"><set attributeName="fill" to="#808080" begin="reset.mouseover" end="reset.mouseout"/></use>
  </g>
</defs>
<script type="application/ecmascript">
var viewWidth = 828;
var viewHeight = 212;
var sectionId = 'dynsection-22';
</script>
<script type="application/ecmascript" xlink:href="../../svg.min.js"/>
<svg id="graph" class="graph">
<g id="viewport">
<title>npi::RefPtrHost::operator=</title>
<!-- Node1 -->
<g id="Node000001" class="node">
<title>Node1</title>
<g id="a_Node000001"><a xlink:title="Polymorphic assignment operator.">
<polygon fill="#999999" stroke="none" points="172,-168.25 0,-168.25 0,-149 172,-149 172,-168.25"/>
<text xml:space="preserve" text-anchor="start" x="8" y="-154.8" font-family="Consolas" font-weight="bold" font-size="11.00">npi::RefPtrHost::operator=</text>
</a>
</g>
</g>
<!-- Node2 -->
<g id="Node000002" class="node">
<title>Node2</title>
<g id="a_Node000002"><a xlink:href="../../d6/d78/classnpi_1_1_ref_ptr_host.html#a9a90d6c7f87e0b3d7dc0ecc2a5bc4980" target="_top" xlink:title="Friend declarations of RefPtrHost class with type as U. This makes any RefPtrHost class object a frie...">
<polygon fill="white" stroke="none" points="820,-186.25 642,-186.25 642,-167 820,-167 820,-186.25"/>
<text xml:space="preserve" text-anchor="middle" x="731" y="-171.8" font-family="Consolas" font-size="11.00">npi::RefPtrHost::RefPtrHost</text>
</a>
</g>
</g>
<!-- Node1&#45;&gt;Node2 -->
<g id="edge1_Node000001_Node000002" class="edge">
<title>Node1&#45;&gt;Node2</title>
<g id="a_edge1_Node000001_Node000002"><a xlink:title=" ">
<path fill="none" stroke="#63b8ff" d="M171.67,-166.44C235.47,-171.93 325.15,-178.77 404,-181.62 493.72,-184.88 516.24,-183.43 606,-181.62 615.81,-181.43 626.06,-181.14 636.28,-180.81"/>
<polygon fill="#63b8ff" stroke="#63b8ff" points="641.07,-180.64 636.15,-183.06 639.79,-180.69 636.07,-180.81 636.07,-180.81 636.07,-180.81 639.79,-180.69 636,-178.56 641.07,-180.64"/>
</a>
</g>
</g>
<!-- Node3 -->
<g id="Node000003" class="node">
<title>Node3</title>
<g id="a_Node000003"><a xlink:href="../../d6/d78/classnpi_1_1_ref_ptr_host.html#ae0a638f0e6f5e6a2afdd6a2451dc21a0" target="_top" xlink:title="Internal helper to assign from another polymorphically related RefPtrHost object.">
<polygon fill="white" stroke="none" points="368,-130.25 208,-130.25 208,-111 368,-111 368,-130.25"/>
<text xml:space="preserve" text-anchor="middle" x="288" y="-115.8" font-family="Consolas" font-size="11.00">npi::RefPtrHost::assign_</text>
</a>
</g>
</g>
<!-- Node1&#45;&gt;Node3 -->
<g id="edge3_Node000001_Node000003" class="edge">
<title>Node1&#45;&gt;Node3</title>
<g id="a_edge3_Node000001_Node000003"><a xlink:title=" ">
<path fill="none" stroke="#63b8ff" d="M137.47,-149.04C165.89,-143.64 201.46,-136.88 230.77,-131.31"/>
<polygon fill="#63b8ff" stroke="#63b8ff" points="235.35,-130.44 230.86,-133.58 234.09,-130.68 230.44,-131.37 230.44,-131.37 230.44,-131.37 234.09,-130.68 230.02,-129.16 235.35,-130.44"/>
</a>
</g>
</g>
<!-- Node2&#45;&gt;Node2 -->
<g id="edge2_Node000002_Node000002" class="edge">
<title>Node2&#45;&gt;Node2</title>
<g id="a_edge2_Node000002_Node000002"><a xlink:title=" ">
<path fill="none" stroke="#63b8ff" d="M696.45,-186.11C679.09,-194.84 690.61,-204.25 731,-204.25 766.34,-204.25 779.58,-197.04 770.71,-189.39"/>
<polygon fill="#63b8ff" stroke="#63b8ff" points="766.58,-186.76 772,-187.55 767.66,-187.45 770.79,-189.45 770.79,-189.45 770.79,-189.45 767.66,-187.45 769.59,-191.35 766.58,-186.76"/>
</a>
</g>
</g>
<!-- Node3&#45;&gt;Node2 -->
<g id="edge4_Node000003_Node000002" class="edge">
<title>Node3&#45;&gt;Node2</title>
<g id="a_edge4_Node000003_Node000002"><a xlink:title=" ">
<path fill="none" stroke="#63b8ff" d="M312.77,-130.23C335.71,-139.03 371.63,-151.58 404,-157.62 481.36,-172.08 570.67,-176.45 636.23,-177.41"/>
<polygon fill="#63b8ff" stroke="#63b8ff" points="640.88,-177.48 635.85,-179.66 639.6,-177.46 635.88,-177.41 635.88,-177.41 635.88,-177.41 639.6,-177.46 635.91,-175.16 640.88,-177.48"/>
</a>
</g>
</g>
<!-- Node4 -->
<g id="Node000004" class="node">
<title>Node4</title>
<g id="a_Node000004"><a xlink:href="../../d6/d78/classnpi_1_1_ref_ptr_host.html#acb32eb21f8b38a7ff7bc276d994b9e36" target="_top" xlink:title="Retrieve the raw pointer to the hosted object.">
<polygon fill="white" stroke="none" points="576,-148.25 434,-148.25 434,-129 576,-129 576,-148.25"/>
<text xml:space="preserve" text-anchor="middle" x="505" y="-133.8" font-family="Consolas" font-size="11.00">npi::RefPtrHost::get_</text>
</a>
</g>
</g>
<!-- Node3&#45;&gt;Node4 -->
<g id="edge5_Node000003_Node000004" class="edge">
<title>Node3&#45;&gt;Node4</title>
<g id="a_edge5_Node000003_Node000004"><a xlink:title=" ">
<path fill="none" stroke="#63b8ff" d="M367.84,-127.23C387.5,-128.87 408.53,-130.63 428.05,-132.27"/>
<polygon fill="#63b8ff" stroke="#63b8ff" points="432.84,-132.67 427.67,-134.49 431.56,-132.56 427.86,-132.25 427.86,-132.25 427.86,-132.25 431.56,-132.56 428.05,-130.01 432.84,-132.67"/>
</a>
</g>
</g>
<!-- Node5 -->
<g id="Node000005" class="node">
<title>Node5</title>
<g id="a_Node000005"><a xlink:href="../../d6/d78/classnpi_1_1_ref_ptr_host.html#a82cb63d42d8ba5ce3a610f15f7eaf682" target="_top" xlink:title="Check whether two RefPtrHost instances refer to the same object and observers (universal and local)....">
<polygon fill="white" stroke="none" points="585,-111.25 425,-111.25 425,-92 585,-92 585,-111.25"/>
<text xml:space="preserve" text-anchor="middle" x="505" y="-96.8" font-family="Consolas" font-size="11.00">npi::RefPtrHost::isSame_</text>
</a>
</g>
</g>
<!-- Node3&#45;&gt;Node5 -->
<g id="edge6_Node000003_Node000005" class="edge">
<title>Node3&#45;&gt;Node5</title>
<g id="a_edge6_Node000003_Node000005"><a xlink:title=" ">
<path fill="none" stroke="#63b8ff" d="M367.84,-113.66C384.49,-112.19 402.13,-110.63 419,-109.14"/>
<polygon fill="#63b8ff" stroke="#63b8ff" points="423.96,-108.7 419.18,-111.38 422.68,-108.81 418.98,-109.14 418.98,-109.14 418.98,-109.14 422.68,-108.81 418.78,-106.9 423.96,-108.7"/>
</a>
</g>
</g>
<!-- Node6 -->
<g id="Node000006" class="node">
<title>Node6</title>
<g id="a_Node000006"><a xlink:href="../../d6/d78/classnpi_1_1_ref_ptr_host.html#ac0de27e1bb5d320daff0aa6fa046847c" target="_top" xlink:title="Friend declarations of RefPtrFromThis class.">
<polygon fill="white" stroke="none" points="606,-56.25 404,-56.25 404,-37 606,-37 606,-56.25"/>
<text xml:space="preserve" text-anchor="middle" x="505" y="-41.8" font-family="Consolas" font-size="11.00">npi::RefPtrHost::RefPtrFromThis</text>
</a>
</g>
</g>
<!-- Node3&#45;&gt;Node6 -->
<g id="edge8_Node000003_Node000006" class="edge">
<title>Node3&#45;&gt;Node6</title>
<g id="a_edge8_Node000003_Node000006"><a xlink:title=" ">
<path fill="none" stroke="#63b8ff" d="M316.67,-111.1C355.99,-97.57 427.95,-72.8 470.32,-58.22"/>
<polygon fill="#63b8ff" stroke="#63b8ff" points="474.95,-56.62 470.95,-60.38 473.73,-57.04 470.22,-58.25 470.22,-58.25 470.22,-58.25 473.73,-57.04 469.49,-56.12 474.95,-56.62"/>
</a>
</g>
</g>
<!-- Node7 -->
<g id="Node000007" class="node">
<title>Node7</title>
<g id="a_Node000007"><a xlink:href="../../d6/d78/classnpi_1_1_ref_ptr_host.html#a3fdc3c8197e33eb75b24903aa6ceaa2d" target="_top" xlink:title="Reset the host, releasing the object and invalidating all links.">
<polygon fill="white" stroke="none" points="582,-19.25 428,-19.25 428,0 582,0 582,-19.25"/>
<text xml:space="preserve" text-anchor="middle" x="505" y="-4.8" font-family="Consolas" font-size="11.00">npi::RefPtrHost::reset_</text>
</a>
</g>
</g>
<!-- Node3&#45;&gt;Node7 -->
<g id="edge10_Node000003_Node000007" class="edge">
<title>Node3&#45;&gt;Node7</title>
<g id="a_edge10_Node000003_Node000007"><a xlink:title=" ">
<path fill="none" stroke="#63b8ff" d="M297.45,-111.14C315.14,-91.95 358.24,-48.56 404,-27.62 409.83,-24.96 416.03,-22.68 422.36,-20.75"/>
<polygon fill="#63b8ff" stroke="#63b8ff" points="427.04,-19.4 422.86,-22.94 425.81,-19.75 422.24,-20.78 422.24,-20.78 422.24,-20.78 425.81,-19.75 421.62,-18.62 427.04,-19.4"/>
</a>
</g>
</g>
<!-- Node5&#45;&gt;Node2 -->
<g id="edge7_Node000005_Node000002" class="edge">
<title>Node5&#45;&gt;Node2</title>
<g id="a_edge7_Node000005_Node000002"><a xlink:title=" ">
<path fill="none" stroke="#63b8ff" d="M572.73,-111.21C583.96,-113.51 595.4,-116.29 606,-119.62 642.98,-131.25 683.35,-151.3 707.66,-164.26"/>
<polygon fill="#63b8ff" stroke="#63b8ff" points="711.82,-166.49 706.35,-166.11 710.69,-165.88 707.42,-164.12 707.42,-164.12 707.42,-164.12 710.69,-165.88 708.48,-162.14 711.82,-166.49"/>
</a>
</g>
</g>
<!-- Node6&#45;&gt;Node6 -->
<g id="edge9_Node000006_Node000006" class="edge">
<title>Node6&#45;&gt;Node6</title>
<g id="a_edge9_Node000006_Node000006"><a xlink:title=" ">
<path fill="none" stroke="#63b8ff" d="M471.82,-56.11C455.16,-64.84 466.22,-74.25 505,-74.25 538.93,-74.25 551.64,-67.04 543.12,-59.39"/>
<polygon fill="#63b8ff" stroke="#63b8ff" points="539.19,-56.78 544.6,-57.67 540.26,-57.49 543.36,-59.55 543.36,-59.55 543.36,-59.55 540.26,-57.49 542.11,-61.42 539.19,-56.78"/>
</a>
</g>
</g>
</g>
</svg>

<g id="navigator" transform="translate(0 0)" fill="#404254">
  <rect fill="#f2f5e9" fill-opacity="0.5" stroke="#606060" stroke-width=".5" x="0" y="0" width="60" height="60"/>
  <use id="zoomplus" xlink:href="#zoomPlus" x="17" y="9" onmousedown="handleZoom(evt,'in')"/>
  <use id="zoomminus" xlink:href="#zoomMin" x="42" y="9" onmousedown="handleZoom(evt,'out')"/>
  <use id="reset" xlink:href="#resetDef" x="30" y="36" onmousedown="handleReset()"/>
   <use id="arrowup" xlink:href="#arrowUp" x="0" y="0" onmousedown="handlePan(0,-1)"/>
  <use id="arrowright" xlink:href="#arrowRight" x="0" y="0" onmousedown="handlePan(1,0)"/>
  <use id="arrowdown" xlink:href="#arrowDown" x="0" y="0" onmousedown="handlePan(0,1)"/>
  <use id="arrowleft" xlink:href="#arrowLeft" x="0" y="0" onmousedown="handlePan(-1,0)"/>
</g>
<svg viewBox="0 0 15 15" width="100%" height="30px" preserveAspectRatio="xMaxYMin meet">
 <g id="arrow_out" transform="scale(0.3 0.3)">
  <a xlink:href="classnpi_1_1_ref_ptr_host_a3458764adfa3897ca8f73cf4bf53bc7f_cgraph_org.svg" target="_base">
   <rect id="button" ry="5" rx="5" y="6" x="6" height="38" width="38"
        fill="#f2f5e9" fill-opacity="0.5" stroke="#606060" stroke-width="1.0"/>
   <path id="arrow"
     d="M 11.500037,31.436501 C 11.940474,20.09759 22.043105,11.32322 32.158766,21.979434 L 37.068811,17.246167 C 37.068811,17.246167 37.088388,32 37.088388,32 L 22.160133,31.978069 C 22.160133,31.978069 26.997745,27.140456 26.997745,27.140456 C 18.528582,18.264221 13.291696,25.230495 11.500037,31.436501 z"
     style="fill:#404040;"/>
  </a>
 </g>
</svg>

<style type='text/css'>
<![CDATA[
[data-mouse-over-selected='false'] { opacity: 0.7; }
[data-mouse-over-selected='true']  { opacity: 1.0; }
]]>
</style>
<script type="application/ecmascript"><![CDATA[
document.addEventListener('DOMContentLoaded', (event) => {
  highlightEdges();
  highlightAdjacentNodes();
});
]]></script>
</svg>
