<?xml version="1.0" encoding="UTF-8" standalone="no"?>
<!DOCTYPE svg PUBLIC "-//W3C//DTD SVG 1.1//EN"
 "http://www.w3.org/Graphics/SVG/1.1/DTD/svg11.dtd">
<!-- Generated by graphviz version 14.0.0 (20250921.2048)
 -->
<!-- Title: npi::RefPtrHost::get_ Pages: 1 -->
<!--zoomable 360 -->

<svg id="main" version="1.1" xmlns="http://www.w3.org/2000/svg" xmlns:xlink="http://www.w3.org/1999/xlink" xml:space="preserve" onload="init(evt)">

<style type="text/css"><![CDATA[
.node, .edge {opacity: 0.7;}
.node.selected, .edge.selected {opacity: 1;}
.edge:hover path { stroke: red; }
.edge:hover polygon { stroke: red; fill: red; }
]]></style>

<defs>
  <circle id="rim" cx="0" cy="0" r="7"/>
  <circle id="rim2" cx="0" cy="0" r="3.5"/>
  <g id="zoomPlus">
    <use xlink:href="#rim" fill="#404040"><set attributeName="fill" to="#808080" begin="zoomplus.mouseover" end="zoomplus.mouseout"/></use>
    <path d="M-4,0h8M0,-4v8" fill="none" stroke="white" stroke-width="1.5" pointer-events="none"/>
  </g>
  <g id="zoomMin">
    <use xlink:href="#rim" fill="#404040"><set attributeName="fill" to="#808080" begin="zoomminus.mouseover" end="zoomminus.mouseout"/></use>
    <path d="M-4,0h8" fill="none" stroke="white" stroke-width="1.5" pointer-events="none"/>
  </g>
  <g id="arrowUp" transform="translate(30 24)">
    <use xlink:href="#rim"/>
    <path pointer-events="none" fill="none" stroke="white" stroke-width="1.5" d="M0,-3.0v7 M-2.5,-0.5L0,-3.0L2.5,-0.5"/>
  </g>
  <g id="arrowRight" transform="rotate(90) translate(36 -43)">
    <use xlink:href="#rim"/>
    <path pointer-events="none" fill="none" stroke="white" stroke-width="1.5" d="M0,-3.0v7 M-2.5,-0.5L0,-3.0L2.5,-0.5"/>
  </g>
  <g id="arrowDown" transform="rotate(180) translate(-30 -48)">
    <use xlink:href="#rim"/>
    <path pointer-events="none" fill="none" stroke="white" stroke-width="1.5" d="M0,-3.0v7 M-2.5,-0.5L0,-3.0L2.5,-0.5"/>
  </g>
  <g id="arrowLeft" transform="rotate(270) translate(-36 17)">
    <use xlink:href="#rim"/>
    <path pointer-events="none" fill="none" stroke="white" stroke-width="1.5" d="M0,-3.0v7 M-2.5,-0.5L0,-3.0L2.5,-0.5"/>
  </g>
  <g id="resetDef">
    <use xlink:href="#rim2" fill="#404040"><set attributeName="fill" to="#808080" begin="reset.mouseover" end="reset.mouseout"/></use>
  </g>
</defs>
<script type="application/ecmascript">
var viewWidth = 596;
var viewHeight = 360;
var sectionId = 'dynsection-9';
</script>
<script type="application/ecmascript" xlink:href="../../svg.min.js"/>
<svg id="graph" class="graph">
<g id="viewport">
<title>npi::RefPtrHost::get_</title>
<!-- Node1 -->
<g id="Node000001" class="node">
<title>Node1</title>
<g id="a_Node000001"><a xlink:title="Retrieve the raw pointer to the hosted object.">
<polygon fill="#999999" stroke="none" points="588,-167.25 446,-167.25 446,-148 588,-148 588,-167.25"/>
<text xml:space="preserve" text-anchor="start" x="454" y="-153.8" font-family="Consolas" font-weight="bold" font-size="11.00">npi::RefPtrHost::get_</text>
</a>
</g>
</g>
<!-- Node2 -->
<g id="Node000002" class="node">
<title>Node2</title>
<g id="a_Node000002"><a xlink:href="../../d6/d78/classnpi_1_1_ref_ptr_host.html#ae0a638f0e6f5e6a2afdd6a2451dc21a0" target="_top" xlink:title="Internal helper to assign from another polymorphically related RefPtrHost object.">
<polygon fill="white" stroke="none" points="401,-315.25 241,-315.25 241,-296 401,-296 401,-315.25"/>
<text xml:space="preserve" text-anchor="middle" x="321" y="-300.8" font-family="Consolas" font-size="11.00">npi::RefPtrHost::assign_</text>
</a>
</g>
</g>
<!-- Node1&#45;&gt;Node2 -->
<g id="edge1_Node000001_Node000002" class="edge">
<title>Node1&#45;&gt;Node2</title>
<g id="a_edge1_Node000001_Node000002"><a xlink:title=" ">
<path fill="none" stroke="#63b8ff" d="M508.48,-172.37C493.66,-199.83 457.91,-258.63 410,-287.62 404.4,-291.02 398.26,-293.78 391.92,-296.03"/>
<polygon fill="#63b8ff" stroke="#63b8ff" points="510.75,-168.09 510.4,-173.56 510.15,-169.22 508.41,-172.5 508.41,-172.5 508.41,-172.5 510.15,-169.22 506.42,-171.45 510.75,-168.09"/>
</a>
</g>
</g>
<!-- Node5 -->
<g id="Node000005" class="node">
<title>Node5</title>
<g id="a_Node000005"><a xlink:href="../../d6/d78/classnpi_1_1_ref_ptr_host.html#a0ba9792630f4de6ddc7b7d18cf65e666" target="_top" xlink:title="Check whether the host owns an object.">
<polygon fill="white" stroke="none" points="404,-278.25 238,-278.25 238,-259 404,-259 404,-278.25"/>
<text xml:space="preserve" text-anchor="middle" x="321" y="-263.8" font-family="Consolas" font-size="11.00">npi::RefPtrHost::isValid_</text>
</a>
</g>
</g>
<!-- Node1&#45;&gt;Node5 -->
<g id="edge4_Node000001_Node000005" class="edge">
<title>Node1&#45;&gt;Node5</title>
<g id="a_edge4_Node000001_Node000005"><a xlink:title=" ">
<path fill="none" stroke="#63b8ff" d="M504.39,-171.66C486.43,-192.39 449.79,-230.87 410,-250.62 403.16,-254.02 395.71,-256.78 388.14,-259.02"/>
<polygon fill="#63b8ff" stroke="#63b8ff" points="507.55,-167.97 506.01,-173.23 506.72,-168.94 504.3,-171.77 504.3,-171.77 504.3,-171.77 506.72,-168.94 502.59,-170.3 507.55,-167.97"/>
</a>
</g>
</g>
<!-- Node7 -->
<g id="Node000007" class="node">
<title>Node7</title>
<g id="a_Node000007"><a xlink:href="../../d6/d78/classnpi_1_1_ref_ptr_host.html#a3202fadd9aa9f466ecc8ae200e0939d4" target="_top" xlink:title="Inequality comparison with a null pointer.">
<polygon fill="white" stroke="none" points="410,-241.25 232,-241.25 232,-222 410,-222 410,-241.25"/>
<text xml:space="preserve" text-anchor="middle" x="321" y="-226.8" font-family="Consolas" font-size="11.00">npi::RefPtrHost::operator!=</text>
</a>
</g>
</g>
<!-- Node1&#45;&gt;Node7 -->
<g id="edge6_Node000001_Node000007" class="edge">
<title>Node1&#45;&gt;Node7</title>
<g id="a_edge6_Node000001_Node000007"><a xlink:title=" ">
<path fill="none" stroke="#63b8ff" d="M495.94,-170.45C475.19,-183.18 441.48,-202.35 410,-213.62 400.75,-216.94 390.72,-219.71 380.86,-222.01"/>
<polygon fill="#63b8ff" stroke="#63b8ff" points="500.14,-167.85 497.08,-172.4 499.05,-168.52 495.89,-170.48 495.89,-170.48 495.89,-170.48 499.05,-168.52 494.71,-168.57 500.14,-167.85"/>
</a>
</g>
</g>
<!-- Node8 -->
<g id="Node000008" class="node">
<title>Node8</title>
<g id="a_Node000008"><a xlink:href="../../d6/d78/classnpi_1_1_ref_ptr_host.html#aaefadbceb6b89dc8d44e4f11ac7678f3" target="_top" xlink:title="Dereference operator to obtain a reference to the hosted object.">
<polygon fill="white" stroke="none" points="407,-204.25 235,-204.25 235,-185 407,-185 407,-204.25"/>
<text xml:space="preserve" text-anchor="middle" x="321" y="-189.8" font-family="Consolas" font-size="11.00">npi::RefPtrHost::operator*</text>
</a>
</g>
</g>
<!-- Node1&#45;&gt;Node8 -->
<g id="edge7_Node000001_Node000008" class="edge">
<title>Node1&#45;&gt;Node8</title>
<g id="a_edge7_Node000001_Node000008"><a xlink:title=" ">
<path fill="none" stroke="#63b8ff" d="M459.72,-168.36C432.06,-173.63 399,-179.94 372.21,-185.05"/>
<polygon fill="#63b8ff" stroke="#63b8ff" points="464.34,-167.48 459.85,-170.62 463.08,-167.72 459.43,-168.41 459.43,-168.41 459.43,-168.41 463.08,-167.72 459.01,-166.2 464.34,-167.48"/>
</a>
</g>
</g>
<!-- Node9 -->
<g id="Node000009" class="node">
<title>Node9</title>
<g id="a_Node000009"><a xlink:href="../../d6/d78/classnpi_1_1_ref_ptr_host.html#aa20913cc4c3579bd5b12b6f00e4af103" target="_top" xlink:title="Pointer&#45;like access operator.">
<polygon fill="white" stroke="none" points="410,-167.25 232,-167.25 232,-148 410,-148 410,-167.25"/>
<text xml:space="preserve" text-anchor="middle" x="321" y="-152.8" font-family="Consolas" font-size="11.00">npi::RefPtrHost::operator&#45;&gt;</text>
</a>
</g>
</g>
<!-- Node1&#45;&gt;Node9 -->
<g id="edge8_Node000001_Node000009" class="edge">
<title>Node1&#45;&gt;Node9</title>
<g id="a_edge8_Node000001_Node000009"><a xlink:title=" ">
<path fill="none" stroke="#63b8ff" d="M440.08,-157.62C430.13,-157.62 419.86,-157.62 409.73,-157.62"/>
<polygon fill="#63b8ff" stroke="#63b8ff" points="445.02,-157.63 440.02,-159.88 443.74,-157.63 440.02,-157.63 440.02,-157.63 440.02,-157.63 443.74,-157.63 440.02,-155.38 445.02,-157.63"/>
</a>
</g>
</g>
<!-- Node10 -->
<g id="Node000010" class="node">
<title>Node10</title>
<g id="a_Node000010"><a xlink:href="../../d6/d78/classnpi_1_1_ref_ptr_host.html#a6f2e6cdb8976c9ec7a54de0e0fee2166" target="_top" xlink:title="Compare this RefPtrHost object to a RefPtr object for equality.">
<polygon fill="white" stroke="none" points="410,-130.25 232,-130.25 232,-111 410,-111 410,-130.25"/>
<text xml:space="preserve" text-anchor="middle" x="321" y="-115.8" font-family="Consolas" font-size="11.00">npi::RefPtrHost::operator==</text>
</a>
</g>
</g>
<!-- Node1&#45;&gt;Node10 -->
<g id="edge9_Node000001_Node000010" class="edge">
<title>Node1&#45;&gt;Node10</title>
<g id="a_edge9_Node000001_Node000010"><a xlink:title=" ">
<path fill="none" stroke="#63b8ff" d="M459.72,-146.89C432.06,-141.62 399,-135.31 372.21,-130.2"/>
<polygon fill="#63b8ff" stroke="#63b8ff" points="464.34,-147.77 459.01,-149.05 463.08,-147.53 459.43,-146.84 459.43,-146.84 459.43,-146.84 463.08,-147.53 459.85,-144.63 464.34,-147.77"/>
</a>
</g>
</g>
<!-- Node11 -->
<g id="Node000011" class="node">
<title>Node11</title>
<g id="a_Node000011"><a xlink:href="../../d6/d78/classnpi_1_1_ref_ptr_host.html#aa0990fa292d308f6afd49d4b7dec292c" target="_top" xlink:title="Compare this RefPtrHost object to another RefPtrHost object for equality.">
<polygon fill="white" stroke="none" points="410,-93.25 232,-93.25 232,-74 410,-74 410,-93.25"/>
<text xml:space="preserve" text-anchor="middle" x="321" y="-78.8" font-family="Consolas" font-size="11.00">npi::RefPtrHost::operator==</text>
</a>
</g>
</g>
<!-- Node1&#45;&gt;Node11 -->
<g id="edge10_Node000001_Node000011" class="edge">
<title>Node1&#45;&gt;Node11</title>
<g id="a_edge10_Node000001_Node000011"><a xlink:title=" ">
<path fill="none" stroke="#63b8ff" d="M495.94,-144.8C475.19,-132.07 441.48,-112.9 410,-101.62 400.75,-98.31 390.72,-95.54 380.86,-93.24"/>
<polygon fill="#63b8ff" stroke="#63b8ff" points="500.14,-147.4 494.71,-146.68 499.05,-146.73 495.89,-144.77 495.89,-144.77 495.89,-144.77 499.05,-146.73 497.08,-142.85 500.14,-147.4"/>
</a>
</g>
</g>
<!-- Node12 -->
<g id="Node000012" class="node">
<title>Node12</title>
<g id="a_Node000012"><a xlink:href="../../d6/d78/classnpi_1_1_ref_ptr_host.html#ab21a72707e793ccf30e1295dae353356" target="_top" xlink:title="Compare to raw pointer for equality.">
<polygon fill="white" stroke="none" points="410,-56.25 232,-56.25 232,-37 410,-37 410,-56.25"/>
<text xml:space="preserve" text-anchor="middle" x="321" y="-41.8" font-family="Consolas" font-size="11.00">npi::RefPtrHost::operator==</text>
</a>
</g>
</g>
<!-- Node1&#45;&gt;Node12 -->
<g id="edge11_Node000001_Node000012" class="edge">
<title>Node1&#45;&gt;Node12</title>
<g id="a_edge11_Node000001_Node000012"><a xlink:title=" ">
<path fill="none" stroke="#63b8ff" d="M504.39,-143.59C486.43,-122.86 449.79,-84.38 410,-64.62 403.16,-61.23 395.71,-58.47 388.14,-56.23"/>
<polygon fill="#63b8ff" stroke="#63b8ff" points="507.55,-147.28 502.59,-144.95 506.72,-146.31 504.3,-143.48 504.3,-143.48 504.3,-143.48 506.72,-146.31 506.01,-142.02 507.55,-147.28"/>
</a>
</g>
</g>
<!-- Node13 -->
<g id="Node000013" class="node">
<title>Node13</title>
<g id="a_Node000013"><a xlink:href="../../d6/d78/classnpi_1_1_ref_ptr_host.html#a068f8403d8f79dbbae4cb714178bf9a2" target="_top" xlink:title="Compare the stored pointer to a null pointer.">
<polygon fill="white" stroke="none" points="410,-19.25 232,-19.25 232,0 410,0 410,-19.25"/>
<text xml:space="preserve" text-anchor="middle" x="321" y="-4.8" font-family="Consolas" font-size="11.00">npi::RefPtrHost::operator==</text>
</a>
</g>
</g>
<!-- Node1&#45;&gt;Node13 -->
<g id="edge12_Node000001_Node000013" class="edge">
<title>Node1&#45;&gt;Node13</title>
<g id="a_edge12_Node000001_Node000013"><a xlink:title=" ">
<path fill="none" stroke="#63b8ff" d="M508.48,-142.88C493.66,-115.42 457.91,-56.62 410,-27.62 404.4,-24.23 398.26,-21.47 391.92,-19.22"/>
<polygon fill="#63b8ff" stroke="#63b8ff" points="510.75,-147.16 506.42,-143.8 510.15,-146.03 508.41,-142.75 508.41,-142.75 508.41,-142.75 510.15,-146.03 510.4,-141.69 510.75,-147.16"/>
</a>
</g>
</g>
<!-- Node3 -->
<g id="Node000003" class="node">
<title>Node3</title>
<g id="a_Node000003"><a xlink:href="../../d6/d78/classnpi_1_1_ref_ptr_host.html#a7923e97ede1476b9903c61e7b58badbe" target="_top" xlink:title="Polymorphic converting copy constructor.">
<polygon fill="white" stroke="none" points="187,-352.25 9,-352.25 9,-333 187,-333 187,-352.25"/>
<text xml:space="preserve" text-anchor="middle" x="98" y="-337.8" font-family="Consolas" font-size="11.00">npi::RefPtrHost::RefPtrHost</text>
</a>
</g>
</g>
<!-- Node2&#45;&gt;Node3 -->
<g id="edge2_Node000002_Node000003" class="edge">
<title>Node2&#45;&gt;Node3</title>
<g id="a_edge2_Node000002_Node000003"><a xlink:title=" ">
<path fill="none" stroke="#63b8ff" d="M256.68,-316.23C225.01,-321.53 186.98,-327.9 156.2,-333.05"/>
<polygon fill="#63b8ff" stroke="#63b8ff" points="261.31,-315.45 256.75,-318.5 260.05,-315.66 256.38,-316.28 256.38,-316.28 256.38,-316.28 260.05,-315.66 256.01,-314.06 261.31,-315.45"/>
</a>
</g>
</g>
<!-- Node4 -->
<g id="Node000004" class="node">
<title>Node4</title>
<g id="a_Node000004"><a xlink:href="../../d6/d78/classnpi_1_1_ref_ptr_host.html#a3458764adfa3897ca8f73cf4bf53bc7f" target="_top" xlink:title="Polymorphic assignment operator.">
<polygon fill="white" stroke="none" points="184,-315.25 12,-315.25 12,-296 184,-296 184,-315.25"/>
<text xml:space="preserve" text-anchor="middle" x="98" y="-300.8" font-family="Consolas" font-size="11.00">npi::RefPtrHost::operator=</text>
</a>
</g>
</g>
<!-- Node2&#45;&gt;Node4 -->
<g id="edge3_Node000002_Node000004" class="edge">
<title>Node2&#45;&gt;Node4</title>
<g id="a_edge3_Node000002_Node000004"><a xlink:title=" ">
<path fill="none" stroke="#63b8ff" d="M235,-305.62C218.22,-305.62 200.59,-305.62 183.81,-305.62"/>
<polygon fill="#63b8ff" stroke="#63b8ff" points="239.93,-305.63 234.93,-307.88 238.65,-305.63 234.93,-305.63 234.93,-305.63 234.93,-305.63 238.65,-305.63 234.93,-303.38 239.93,-305.63"/>
</a>
</g>
</g>
<!-- Node6 -->
<g id="Node000006" class="node">
<title>Node6</title>
<g id="a_Node000006"><a xlink:href="../../d6/d78/classnpi_1_1_ref_ptr_host.html#af4ef34a478793fce20fa0c4eb5f62908" target="_top" xlink:title="Explicit boolean conversion operator (e.g. if(refPtrHost){...}).">
<polygon fill="white" stroke="none" points="196,-278.25 0,-278.25 0,-259 196,-259 196,-278.25"/>
<text xml:space="preserve" text-anchor="middle" x="98" y="-263.8" font-family="Consolas" font-size="11.00">npi::RefPtrHost::operator bool</text>
</a>
</g>
</g>
<!-- Node5&#45;&gt;Node6 -->
<g id="edge5_Node000005_Node000006" class="edge">
<title>Node5&#45;&gt;Node6</title>
<g id="a_edge5_Node000005_Node000006"><a xlink:title=" ">
<path fill="none" stroke="#63b8ff" d="M231.86,-268.62C220,-268.62 207.78,-268.62 195.78,-268.62"/>
<polygon fill="#63b8ff" stroke="#63b8ff" points="236.8,-268.63 231.8,-270.88 235.52,-268.63 231.8,-268.63 231.8,-268.63 231.8,-268.63 235.52,-268.63 231.8,-266.38 236.8,-268.63"/>
</a>
</g>
</g>
</g>
</svg>

<g id="navigator" transform="translate(0 0)" fill="#404254">
  <rect fill="#f2f5e9" fill-opacity="0.5" stroke="#606060" stroke-width=".5" x="0" y="0" width="60" height="60"/>
  <use id="zoomplus" xlink:href="#zoomPlus" x="17" y="9" onmousedown="handleZoom(evt,'in')"/>
  <use id="zoomminus" xlink:href="#zoomMin" x="42" y="9" onmousedown="handleZoom(evt,'out')"/>
  <use id="reset" xlink:href="#resetDef" x="30" y="36" onmousedown="handleReset()"/>
   <use id="arrowup" xlink:href="#arrowUp" x="0" y="0" onmousedown="handlePan(0,-1)"/>
  <use id="arrowright" xlink:href="#arrowRight" x="0" y="0" onmousedown="handlePan(1,0)"/>
  <use id="arrowdown" xlink:href="#arrowDown" x="0" y="0" onmousedown="handlePan(0,1)"/>
  <use id="arrowleft" xlink:href="#arrowLeft" x="0" y="0" onmousedown="handlePan(-1,0)"/>
</g>
<svg viewBox="0 0 15 15" width="100%" height="30px" preserveAspectRatio="xMaxYMin meet">
 <g id="arrow_out" transform="scale(0.3 0.3)">
  <a xlink:href="classnpi_1_1_ref_ptr_host_acb32eb21f8b38a7ff7bc276d994b9e36_icgraph_org.svg" target="_base">
   <rect id="button" ry="5" rx="5" y="6" x="6" height="38" width="38"
        fill="#f2f5e9" fill-opacity="0.5" stroke="#606060" stroke-width="1.0"/>
   <path id="arrow"
     d="M 11.500037,31.436501 C 11.940474,20.09759 22.043105,11.32322 32.158766,21.979434 L 37.068811,17.246167 C 37.068811,17.246167 37.088388,32 37.088388,32 L 22.160133,31.978069 C 22.160133,31.978069 26.997745,27.140456 26.997745,27.140456 C 18.528582,18.264221 13.291696,25.230495 11.500037,31.436501 z"
     style="fill:#404040;"/>
  </a>
 </g>
</svg>

<style type='text/css'>
<![CDATA[
[data-mouse-over-selected='false'] { opacity: 0.7; }
[data-mouse-over-selected='true']  { opacity: 1.0; }
]]>
</style>
<script type="application/ecmascript"><![CDATA[
document.addEventListener('DOMContentLoaded', (event) => {
  highlightEdges();
  highlightAdjacentNodes();
});
]]></script>
</svg>
