<?xml version="1.0" encoding="UTF-8" standalone="no"?>
<!DOCTYPE svg PUBLIC "-//W3C//DTD SVG 1.1//EN"
 "http://www.w3.org/Graphics/SVG/1.1/DTD/svg11.dtd">
<!-- Generated by graphviz version 14.0.0 (20250921.2048)
 -->
<!-- Title: npi::RefPtrHost::RefPtrHost Pages: 1 -->
<svg width="400pt" height="45pt"
 viewBox="0.00 0.00 400.00 45.00" xmlns="http://www.w3.org/2000/svg" xmlns:xlink="http://www.w3.org/1999/xlink">
<g id="graph0" class="graph" transform="scale(1 1) rotate(0) translate(4 41.25)">
<title>npi::RefPtrHost::RefPtrHost</title>
<!-- Node1 -->
<g id="Node000001" class="node">
<title>Node1</title>
<g id="a_Node000001"><a xlink:title="Default copy constructor.">
<polygon fill="#999999" stroke="none" points="178,-19.25 0,-19.25 0,0 178,0 178,-19.25"/>
<text xml:space="preserve" text-anchor="start" x="8" y="-5.8" font-family="Consolas" font-weight="bold" font-size="11.00">npi::RefPtrHost::RefPtrHost</text>
</a>
</g>
</g>
<!-- Node2 -->
<g id="Node000002" class="node">
<title>Node2</title>
<g id="a_Node000002"><a xlink:href="../../d6/d78/classnpi_1_1_ref_ptr_host.html#a9a90d6c7f87e0b3d7dc0ecc2a5bc4980" target="_top" xlink:title="Friend declarations of RefPtrHost class with type as U. This makes any RefPtrHost class object a frie...">
<polygon fill="white" stroke="none" points="392,-19.25 214,-19.25 214,0 392,0 392,-19.25"/>
<text xml:space="preserve" text-anchor="middle" x="303" y="-4.8" font-family="Consolas" font-size="11.00">npi::RefPtrHost::RefPtrHost</text>
</a>
</g>
</g>
<!-- Node1&#45;&gt;Node2 -->
<g id="edge1_Node000001_Node000002" class="edge">
<title>Node1&#45;&gt;Node2</title>
<g id="a_edge1_Node000001_Node000002"><a xlink:title=" ">
<path fill="none" stroke="#63b8ff" d="M177.76,-9.62C187.85,-9.62 198.17,-9.62 208.34,-9.62"/>
<polygon fill="#63b8ff" stroke="#63b8ff" points="213.09,-9.63 208.09,-11.88 211.81,-9.63 208.09,-9.63 208.09,-9.63 208.09,-9.63 211.81,-9.63 208.09,-7.38 213.09,-9.63"/>
</a>
</g>
</g>
<!-- Node2&#45;&gt;Node2 -->
<g id="edge2_Node000002_Node000002" class="edge">
<title>Node2&#45;&gt;Node2</title>
<g id="a_edge2_Node000002_Node000002"><a xlink:title=" ">
<path fill="none" stroke="#63b8ff" d="M270.28,-19.11C253.85,-27.84 264.76,-37.25 303,-37.25 336.46,-37.25 349,-30.04 340.6,-22.39"/>
<polygon fill="#63b8ff" stroke="#63b8ff" points="336.73,-19.79 342.13,-20.71 337.79,-20.5 340.87,-22.58 340.87,-22.58 340.87,-22.58 337.79,-20.5 339.62,-24.45 336.73,-19.79"/>
</a>
</g>
</g>
</g>
</svg>
