<?xml version="1.0" encoding="UTF-8" standalone="no"?>
<!DOCTYPE svg PUBLIC "-//W3C//DTD SVG 1.1//EN"
 "http://www.w3.org/Graphics/SVG/1.1/DTD/svg11.dtd">
<!-- Generated by graphviz version 14.0.0 (20250921.2048)
 -->
<!-- Title: npi::RefPtrWeakHost::RefPtrWeakHost Pages: 1 -->
<svg width="566pt" height="428pt"
 viewBox="0.00 0.00 566.00 428.00" xmlns="http://www.w3.org/2000/svg" xmlns:xlink="http://www.w3.org/1999/xlink">
<g id="graph0" class="graph" transform="scale(1 1) rotate(0) translate(4 423.97)">
<title>npi::RefPtrWeakHost::RefPtrWeakHost</title>
<!-- Node1 -->
<g id="Node000001" class="node">
<title>Node1</title>
<g id="a_Node000001"><a xlink:title="Default constructor.">
<polygon fill="#999999" stroke="none" points="558,-218.34 332,-218.34 332,-199.09 558,-199.09 558,-218.34"/>
<text xml:space="preserve" text-anchor="start" x="340" y="-204.89" font-family="Consolas" font-weight="bold" font-size="11.00">npi::RefPtrWeakHost::RefPtrWeakHost</text>
</a>
</g>
</g>
<!-- Node2 -->
<g id="Node000002" class="node">
<title>Node2</title>
<g id="a_Node000002"><a xlink:href="../../d2/dad/classnpi_1_1_ref_ptr_weak_host.html#a88bc4b160f1076484ef55e81e80ec59e" target="_top" xlink:title="Construct a RefPtrWeakHost from a RefPtrHost.">
<polygon fill="white" stroke="none" points="296,-419.97 166,-419.97 166,-389.47 296,-389.47 296,-419.97"/>
<text xml:space="preserve" text-anchor="start" x="174" y="-405.52" font-family="Consolas" font-size="11.00">npi::RefPtrWeakHost</text>
<text xml:space="preserve" text-anchor="middle" x="231" y="-394.27" font-family="Consolas" font-size="11.00">::RefPtrWeakHost</text>
</a>
</g>
</g>
<!-- Node1&#45;&gt;Node2 -->
<g id="edge1_Node000001_Node000002" class="edge">
<title>Node1&#45;&gt;Node2</title>
<g id="a_edge1_Node000001_Node000002"><a xlink:title=" ">
<path fill="none" stroke="#63b8ff" d="M434.89,-223.45C414.1,-255.96 359.97,-334.54 296,-379.72 290.74,-383.43 284.85,-386.69 278.83,-389.53"/>
<polygon fill="#63b8ff" stroke="#63b8ff" points="437.51,-219.31 436.74,-224.74 436.82,-220.39 434.84,-223.54 434.84,-223.54 434.84,-223.54 436.82,-220.39 432.93,-222.33 437.51,-219.31"/>
</a>
</g>
</g>
<!-- Node3 -->
<g id="Node000003" class="node">
<title>Node3</title>
<g id="a_Node000003"><a xlink:href="../../d2/dad/classnpi_1_1_ref_ptr_weak_host.html#aacc16e56abd2dc628ad49c0690e9a5ef" target="_top" xlink:title="Default copy constructor.">
<polygon fill="white" stroke="none" points="296,-370.97 166,-370.97 166,-340.47 296,-340.47 296,-370.97"/>
<text xml:space="preserve" text-anchor="start" x="174" y="-356.52" font-family="Consolas" font-size="11.00">npi::RefPtrWeakHost</text>
<text xml:space="preserve" text-anchor="middle" x="231" y="-345.27" font-family="Consolas" font-size="11.00">::RefPtrWeakHost</text>
</a>
</g>
</g>
<!-- Node1&#45;&gt;Node3 -->
<g id="edge2_Node000001_Node000003" class="edge">
<title>Node1&#45;&gt;Node3</title>
<g id="a_edge2_Node000001_Node000003"><a xlink:title=" ">
<path fill="none" stroke="#63b8ff" d="M430.5,-222.41C405.75,-246.91 350.61,-298.66 296,-330.72 289.83,-334.34 283.03,-337.64 276.25,-340.57"/>
<polygon fill="#63b8ff" stroke="#63b8ff" points="433.9,-219.03 431.95,-224.15 432.99,-219.93 430.36,-222.56 430.36,-222.56 430.36,-222.56 432.99,-219.93 428.77,-220.96 433.9,-219.03"/>
</a>
</g>
</g>
<!-- Node4 -->
<g id="Node000004" class="node">
<title>Node4</title>
<g id="a_Node000004"><a xlink:href="../../d2/dad/classnpi_1_1_ref_ptr_weak_host.html#af1e24fdb8fbcabe952611afdd9978969" target="_top" xlink:title="Default move constructor.">
<polygon fill="white" stroke="none" points="296,-321.97 166,-321.97 166,-291.47 296,-291.47 296,-321.97"/>
<text xml:space="preserve" text-anchor="start" x="174" y="-307.52" font-family="Consolas" font-size="11.00">npi::RefPtrWeakHost</text>
<text xml:space="preserve" text-anchor="middle" x="231" y="-296.27" font-family="Consolas" font-size="11.00">::RefPtrWeakHost</text>
</a>
</g>
</g>
<!-- Node1&#45;&gt;Node4 -->
<g id="edge3_Node000001_Node000004" class="edge">
<title>Node1&#45;&gt;Node4</title>
<g id="a_edge3_Node000001_Node000004"><a xlink:title=" ">
<path fill="none" stroke="#63b8ff" d="M420.52,-221.08C391.58,-236.13 340.73,-261.99 296,-281.72 288.47,-285.04 280.35,-288.39 272.5,-291.5"/>
<polygon fill="#63b8ff" stroke="#63b8ff" points="424.93,-218.78 421.54,-223.09 423.79,-219.37 420.5,-221.09 420.5,-221.09 420.5,-221.09 423.79,-219.37 419.46,-219.1 424.93,-218.78"/>
</a>
</g>
</g>
<!-- Node5 -->
<g id="Node000005" class="node">
<title>Node5</title>
<g id="a_Node000005"><a xlink:href="../../d2/dad/classnpi_1_1_ref_ptr_weak_host.html#a2b4bdcf6d5331e6f2f91683aeb1956ad" target="_top" xlink:title="Default destructor.">
<polygon fill="white" stroke="none" points="296,-272.97 166,-272.97 166,-242.47 296,-242.47 296,-272.97"/>
<text xml:space="preserve" text-anchor="start" x="174" y="-258.52" font-family="Consolas" font-size="11.00">npi::RefPtrWeakHost</text>
<text xml:space="preserve" text-anchor="middle" x="231" y="-247.27" font-family="Consolas" font-size="11.00">::~RefPtrWeakHost</text>
</a>
</g>
</g>
<!-- Node1&#45;&gt;Node5 -->
<g id="edge4_Node000001_Node000005" class="edge">
<title>Node1&#45;&gt;Node5</title>
<g id="a_edge4_Node000001_Node000005"><a xlink:title=" ">
<path fill="none" stroke="#63b8ff" d="M396.54,-219.69C366.79,-226.56 328.07,-235.51 295.67,-243"/>
<polygon fill="#63b8ff" stroke="#63b8ff" points="401.18,-218.62 396.82,-221.93 399.93,-218.9 396.31,-219.74 396.31,-219.74 396.31,-219.74 399.93,-218.9 395.8,-217.55 401.18,-218.62"/>
</a>
</g>
</g>
<!-- Node6 -->
<g id="Node000006" class="node">
<title>Node6</title>
<g id="a_Node000006"><a xlink:href="../../d2/dad/classnpi_1_1_ref_ptr_weak_host.html#a22b2c67001d01ba8dfa46435d9979ac2" target="_top" xlink:title="Assign a RefPtrHost to this RefPtrWeakHost.">
<polygon fill="white" stroke="none" points="296,-223.97 166,-223.97 166,-193.47 296,-193.47 296,-223.97"/>
<text xml:space="preserve" text-anchor="start" x="174" y="-209.52" font-family="Consolas" font-size="11.00">npi::RefPtrWeakHost</text>
<text xml:space="preserve" text-anchor="middle" x="231" y="-198.27" font-family="Consolas" font-size="11.00">::operator=</text>
</a>
</g>
</g>
<!-- Node1&#45;&gt;Node6 -->
<g id="edge5_Node000001_Node000006" class="edge">
<title>Node1&#45;&gt;Node6</title>
<g id="a_edge5_Node000001_Node000006"><a xlink:title=" ">
<path fill="none" stroke="#63b8ff" d="M325.99,-208.72C315.63,-208.72 305.43,-208.72 295.79,-208.72"/>
<polygon fill="#63b8ff" stroke="#63b8ff" points="330.88,-208.72 325.88,-210.97 329.6,-208.72 325.88,-208.72 325.88,-208.72 325.88,-208.72 329.6,-208.72 325.88,-206.47 330.88,-208.72"/>
</a>
</g>
</g>
<!-- Node7 -->
<g id="Node000007" class="node">
<title>Node7</title>
<g id="a_Node000007"><a xlink:href="../../d2/dad/classnpi_1_1_ref_ptr_weak_host.html#a97c4f866d02803a02289083aca7c2007" target="_top" xlink:title="Default copy assignment operator.">
<polygon fill="white" stroke="none" points="296,-174.97 166,-174.97 166,-144.47 296,-144.47 296,-174.97"/>
<text xml:space="preserve" text-anchor="start" x="174" y="-160.52" font-family="Consolas" font-size="11.00">npi::RefPtrWeakHost</text>
<text xml:space="preserve" text-anchor="middle" x="231" y="-149.27" font-family="Consolas" font-size="11.00">::operator=</text>
</a>
</g>
</g>
<!-- Node1&#45;&gt;Node7 -->
<g id="edge6_Node000001_Node000007" class="edge">
<title>Node1&#45;&gt;Node7</title>
<g id="a_edge6_Node000001_Node000007"><a xlink:title=" ">
<path fill="none" stroke="#63b8ff" d="M396.54,-197.75C366.79,-190.87 328.07,-181.92 295.67,-174.44"/>
<polygon fill="#63b8ff" stroke="#63b8ff" points="401.18,-198.82 395.8,-199.89 399.93,-198.53 396.31,-197.7 396.31,-197.7 396.31,-197.7 399.93,-198.53 396.82,-195.5 401.18,-198.82"/>
</a>
</g>
</g>
<!-- Node8 -->
<g id="Node000008" class="node">
<title>Node8</title>
<g id="a_Node000008"><a xlink:href="../../d2/dad/classnpi_1_1_ref_ptr_weak_host.html#a486dc09747b5b31999e6988c768f67b6" target="_top" xlink:title="Default move assignment operator.">
<polygon fill="white" stroke="none" points="296,-125.97 166,-125.97 166,-95.47 296,-95.47 296,-125.97"/>
<text xml:space="preserve" text-anchor="start" x="174" y="-111.52" font-family="Consolas" font-size="11.00">npi::RefPtrWeakHost</text>
<text xml:space="preserve" text-anchor="middle" x="231" y="-100.27" font-family="Consolas" font-size="11.00">::operator=</text>
</a>
</g>
</g>
<!-- Node1&#45;&gt;Node8 -->
<g id="edge7_Node000001_Node000008" class="edge">
<title>Node1&#45;&gt;Node8</title>
<g id="a_edge7_Node000001_Node000008"><a xlink:title=" ">
<path fill="none" stroke="#63b8ff" d="M420.52,-196.36C391.58,-181.3 340.73,-155.44 296,-135.72 288.47,-132.4 280.35,-129.05 272.5,-125.93"/>
<polygon fill="#63b8ff" stroke="#63b8ff" points="424.93,-198.66 419.46,-198.34 423.79,-198.06 420.5,-196.34 420.5,-196.34 420.5,-196.34 423.79,-198.06 421.54,-194.35 424.93,-198.66"/>
</a>
</g>
</g>
<!-- Node9 -->
<g id="Node000009" class="node">
<title>Node9</title>
<g id="a_Node000009"><a xlink:href="../../d2/dad/classnpi_1_1_ref_ptr_weak_host.html#aab9fd309e88746b95c8e16573faf4f39" target="_top" xlink:title="Friend swap to exchange two RefPtrWeakHost instances.">
<polygon fill="white" stroke="none" points="296,-58.97 166,-58.97 166,-28.47 296,-28.47 296,-58.97"/>
<text xml:space="preserve" text-anchor="start" x="174" y="-44.52" font-family="Consolas" font-size="11.00">npi::RefPtrWeakHost</text>
<text xml:space="preserve" text-anchor="middle" x="231" y="-33.27" font-family="Consolas" font-size="11.00">::swap</text>
</a>
</g>
</g>
<!-- Node1&#45;&gt;Node9 -->
<g id="edge8_Node000001_Node000009" class="edge">
<title>Node1&#45;&gt;Node9</title>
<g id="a_edge8_Node000001_Node000009"><a xlink:title=" ">
<path fill="none" stroke="#63b8ff" d="M428.57,-195.14C402.09,-172.05 346.02,-124 296,-86.72 283.01,-77.04 268.01,-66.9 255.79,-58.91"/>
<polygon fill="#63b8ff" stroke="#63b8ff" points="432.24,-198.35 426.99,-196.76 431.28,-197.51 428.48,-195.06 428.48,-195.06 428.48,-195.06 431.28,-197.51 429.96,-193.37 432.24,-198.35"/>
</a>
</g>
</g>
<!-- Node10 -->
<g id="Node000010" class="node">
<title>Node10</title>
<g id="a_Node000010"><a xlink:href="../../d2/dad/classnpi_1_1_ref_ptr_weak_host.html#ae81d34352e5c3d462cc3547d23d005b8" target="_top" xlink:title="Member swap function.">
<polygon fill="white" stroke="none" points="130,-36.97 0,-36.97 0,-6.47 130,-6.47 130,-36.97"/>
<text xml:space="preserve" text-anchor="start" x="8" y="-22.52" font-family="Consolas" font-size="11.00">npi::RefPtrWeakHost</text>
<text xml:space="preserve" text-anchor="middle" x="65" y="-11.27" font-family="Consolas" font-size="11.00">::swap_</text>
</a>
</g>
</g>
<!-- Node1&#45;&gt;Node10 -->
<g id="edge11_Node000001_Node000010" class="edge">
<title>Node1&#45;&gt;Node10</title>
<g id="a_edge11_Node000001_Node000010"><a xlink:title=" ">
<path fill="none" stroke="#63b8ff" d="M437.87,-193.68C421.52,-155.85 372.82,-57.13 296,-19.72 244.12,5.55 177.53,1.65 129.36,-6.53"/>
<polygon fill="#63b8ff" stroke="#63b8ff" points="439.74,-198.08 435.72,-194.36 439.24,-196.9 437.79,-193.48 437.79,-193.48 437.79,-193.48 439.24,-196.9 439.86,-192.6 439.74,-198.08"/>
</a>
</g>
</g>
<!-- Node9&#45;&gt;Node9 -->
<g id="edge9_Node000009_Node000009" class="edge">
<title>Node9&#45;&gt;Node9</title>
<g id="a_edge9_Node000009_Node000009"><a xlink:title=" ">
<path fill="none" stroke="#63b8ff" d="M262.12,-64.32C262.3,-71.33 251.93,-76.97 231,-76.97 204.74,-76.97 195.1,-68.09 202.07,-58.76"/>
<polygon fill="#63b8ff" stroke="#63b8ff" points="260.38,-59.9 264.31,-63.72 260.85,-61.09 262.21,-64.55 262.21,-64.55 262.21,-64.55 260.85,-61.09 260.12,-65.37 260.38,-59.9"/>
</a>
</g>
</g>
<!-- Node9&#45;&gt;Node10 -->
<g id="edge10_Node000009_Node000010" class="edge">
<title>Node9&#45;&gt;Node10</title>
<g id="a_edge10_Node000009_Node000010"><a xlink:title=" ">
<path fill="none" stroke="#63b8ff" d="M160.24,-34.36C150.2,-33.01 139.9,-31.63 129.97,-30.3"/>
<polygon fill="#63b8ff" stroke="#63b8ff" points="164.92,-34.99 159.66,-36.55 163.65,-34.82 159.96,-34.32 159.96,-34.32 159.96,-34.32 163.65,-34.82 160.26,-32.09 164.92,-34.99"/>
</a>
</g>
</g>
</g>
</svg>
