<?xml version="1.0" encoding="UTF-8" standalone="no"?>
<!DOCTYPE svg PUBLIC "-//W3C//DTD SVG 1.1//EN"
 "http://www.w3.org/Graphics/SVG/1.1/DTD/svg11.dtd">
<!-- Generated by graphviz version 14.0.0 (20250921.2048)
 -->
<!-- Title: npi::RefPtrWeakHost::swap_ Pages: 1 -->
<svg width="512pt" height="69pt"
 viewBox="0.00 0.00 512.00 69.00" xmlns="http://www.w3.org/2000/svg" xmlns:xlink="http://www.w3.org/1999/xlink">
<g id="graph0" class="graph" transform="scale(1 1) rotate(0) translate(4 64.5)">
<title>npi::RefPtrWeakHost::swap_</title>
<!-- Node1 -->
<g id="Node000001" class="node">
<title>Node1</title>
<g id="a_Node000001"><a xlink:title="Member swap function.">
<polygon fill="#999999" stroke="none" points="172,-54.88 0,-54.88 0,-35.62 172,-35.62 172,-54.88"/>
<text xml:space="preserve" text-anchor="start" x="8" y="-41.42" font-family="Consolas" font-weight="bold" font-size="11.00">npi::RefPtrWeakHost::swap_</text>
</a>
</g>
</g>
<!-- Node2 -->
<g id="Node000002" class="node">
<title>Node2</title>
<g id="a_Node000002"><a xlink:href="../../d2/dad/classnpi_1_1_ref_ptr_weak_host.html#a13160696be4292b185b2d13f5c1b955e" target="_top" xlink:title="Default constructor.">
<polygon fill="white" stroke="none" points="504,-60.5 374,-60.5 374,-30 504,-30 504,-60.5"/>
<text xml:space="preserve" text-anchor="start" x="382" y="-46.05" font-family="Consolas" font-size="11.00">npi::RefPtrWeakHost</text>
<text xml:space="preserve" text-anchor="middle" x="439" y="-34.8" font-family="Consolas" font-size="11.00">::RefPtrWeakHost</text>
</a>
</g>
</g>
<!-- Node1&#45;&gt;Node2 -->
<g id="edge1_Node000001_Node000002" class="edge">
<title>Node1&#45;&gt;Node2</title>
<g id="a_edge1_Node000001_Node000002"><a xlink:title=" ">
<path fill="none" stroke="#63b8ff" d="M171.87,-54.74C183.98,-55.78 196.3,-56.67 208,-57.25 265.71,-60.1 280.33,-60.7 338,-57.25 347.78,-56.67 358.06,-55.76 368.16,-54.71"/>
<polygon fill="#63b8ff" stroke="#63b8ff" points="372.87,-54.2 368.14,-56.97 371.6,-54.34 367.9,-54.74 367.9,-54.74 367.9,-54.74 371.6,-54.34 367.66,-52.5 372.87,-54.2"/>
</a>
</g>
</g>
<!-- Node3 -->
<g id="Node000003" class="node">
<title>Node3</title>
<g id="a_Node000003"><a xlink:href="../../d2/dad/classnpi_1_1_ref_ptr_weak_host.html#aab9fd309e88746b95c8e16573faf4f39" target="_top" xlink:title="Friend swap to exchange two RefPtrWeakHost instances.">
<polygon fill="white" stroke="none" points="338,-30.5 208,-30.5 208,0 338,0 338,-30.5"/>
<text xml:space="preserve" text-anchor="start" x="216" y="-16.05" font-family="Consolas" font-size="11.00">npi::RefPtrWeakHost</text>
<text xml:space="preserve" text-anchor="middle" x="273" y="-4.8" font-family="Consolas" font-size="11.00">::swap</text>
</a>
</g>
</g>
<!-- Node1&#45;&gt;Node3 -->
<g id="edge2_Node000001_Node000003" class="edge">
<title>Node1&#45;&gt;Node3</title>
<g id="a_edge2_Node000001_Node000003"><a xlink:title=" ">
<path fill="none" stroke="#63b8ff" d="M146.3,-35.63C164.21,-32.73 184.03,-29.51 202.55,-26.51"/>
<polygon fill="#63b8ff" stroke="#63b8ff" points="207.04,-25.78 202.47,-28.81 205.78,-25.99 202.11,-26.58 202.11,-26.58 202.11,-26.58 205.78,-25.99 201.75,-24.36 207.04,-25.78"/>
</a>
</g>
</g>
<!-- Node3&#45;&gt;Node2 -->
<g id="edge3_Node000003_Node000002" class="edge">
<title>Node3&#45;&gt;Node2</title>
<g id="a_edge3_Node000003_Node000002"><a xlink:title=" ">
<path fill="none" stroke="#63b8ff" d="M337.88,-26.93C347.8,-28.75 358.1,-30.63 368.15,-32.47"/>
<polygon fill="#63b8ff" stroke="#63b8ff" points="372.83,-33.33 367.51,-34.64 371.57,-33.1 367.91,-32.43 367.91,-32.43 367.91,-32.43 371.57,-33.1 368.32,-30.22 372.83,-33.33"/>
</a>
</g>
</g>
<!-- Node3&#45;&gt;Node3 -->
<g id="edge4_Node000003_Node000003" class="edge">
<title>Node3&#45;&gt;Node3</title>
<g id="a_edge4_Node000003_Node000003"><a xlink:title=" ">
<path fill="none" stroke="#63b8ff" d="M244.07,-30.3C237.1,-39.62 246.74,-48.5 273,-48.5 293.93,-48.5 304.3,-42.86 304.12,-35.85"/>
<polygon fill="#63b8ff" stroke="#63b8ff" points="302.38,-31.43 306.31,-35.25 302.85,-32.62 304.21,-36.08 304.21,-36.08 304.21,-36.08 302.85,-32.62 302.12,-36.91 302.38,-31.43"/>
</a>
</g>
</g>
</g>
</svg>
