<?xml version="1.0" encoding="UTF-8" standalone="no"?>
<!DOCTYPE svg PUBLIC "-//W3C//DTD SVG 1.1//EN"
 "http://www.w3.org/Graphics/SVG/1.1/DTD/svg11.dtd">
<!-- Generated by graphviz version 14.0.0 (20250921.2048)
 -->
<!-- Title: npi::RefPtrWeakHost::expired_ Pages: 1 -->
<svg width="364pt" height="88pt"
 viewBox="0.00 0.00 364.00 88.00" xmlns="http://www.w3.org/2000/svg" xmlns:xlink="http://www.w3.org/1999/xlink">
<g id="graph0" class="graph" transform="scale(1 1) rotate(0) translate(4 83.5)">
<title>npi::RefPtrWeakHost::expired_</title>
<!-- Node1 -->
<g id="Node000001" class="node">
<title>Node1</title>
<g id="a_Node000001"><a xlink:title="Check if the weak reference is expired.">
<polygon fill="#999999" stroke="none" points="356,-48.88 166,-48.88 166,-29.62 356,-29.62 356,-48.88"/>
<text xml:space="preserve" text-anchor="start" x="174" y="-35.42" font-family="Consolas" font-weight="bold" font-size="11.00">npi::RefPtrWeakHost::expired_</text>
</a>
</g>
</g>
<!-- Node2 -->
<g id="Node000002" class="node">
<title>Node2</title>
<g id="a_Node000002"><a xlink:href="../../d2/dad/classnpi_1_1_ref_ptr_weak_host.html#ac9a92d740e1df43c31abfc5d4e4f94b2" target="_top" xlink:title="Check if the weak host still references a live object.">
<polygon fill="white" stroke="none" points="130,-79.5 0,-79.5 0,-49 130,-49 130,-79.5"/>
<text xml:space="preserve" text-anchor="start" x="8" y="-65.05" font-family="Consolas" font-size="11.00">npi::RefPtrWeakHost</text>
<text xml:space="preserve" text-anchor="middle" x="65" y="-53.8" font-family="Consolas" font-size="11.00">::isValid_</text>
</a>
</g>
</g>
<!-- Node1&#45;&gt;Node2 -->
<g id="edge1_Node000001_Node000002" class="edge">
<title>Node1&#45;&gt;Node2</title>
<g id="a_edge1_Node000001_Node000002"><a xlink:title=" ">
<path fill="none" stroke="#63b8ff" d="M179.48,-49.63C162.92,-51.76 145.7,-53.98 129.83,-56.03"/>
<polygon fill="#63b8ff" stroke="#63b8ff" points="184.34,-49 179.67,-51.87 183.07,-49.16 179.38,-49.64 179.38,-49.64 179.38,-49.64 183.07,-49.16 179.09,-47.41 184.34,-49"/>
</a>
</g>
</g>
<!-- Node3 -->
<g id="Node000003" class="node">
<title>Node3</title>
<g id="a_Node000003"><a xlink:href="../../d2/dad/classnpi_1_1_ref_ptr_weak_host.html#a551b2e80a83f58dbc4374ae31c7a287b" target="_top" xlink:title="Explicit boolean conversion operator.">
<polygon fill="white" stroke="none" points="130,-30.5 0,-30.5 0,0 130,0 130,-30.5"/>
<text xml:space="preserve" text-anchor="start" x="8" y="-16.05" font-family="Consolas" font-size="11.00">npi::RefPtrWeakHost</text>
<text xml:space="preserve" text-anchor="middle" x="65" y="-4.8" font-family="Consolas" font-size="11.00">::operator bool</text>
</a>
</g>
</g>
<!-- Node1&#45;&gt;Node3 -->
<g id="edge2_Node000001_Node000003" class="edge">
<title>Node1&#45;&gt;Node3</title>
<g id="a_edge2_Node000001_Node000003"><a xlink:title=" ">
<path fill="none" stroke="#63b8ff" d="M176.06,-28.87C160.56,-26.95 144.6,-24.97 129.81,-23.14"/>
<polygon fill="#63b8ff" stroke="#63b8ff" points="181,-29.48 175.76,-31.1 179.73,-29.32 176.04,-28.86 176.04,-28.86 176.04,-28.86 179.73,-29.32 176.32,-26.63 181,-29.48"/>
</a>
</g>
</g>
</g>
</svg>
