<?xml version="1.0" encoding="UTF-8" standalone="no"?>
<!DOCTYPE svg PUBLIC "-//W3C//DTD SVG 1.1//EN"
 "http://www.w3.org/Graphics/SVG/1.1/DTD/svg11.dtd">
<!-- Generated by graphviz version 14.0.0 (20250921.2048)
 -->
<!-- Title: npi::TextSpec::Style::Style Pages: 1 -->
<svg width="358pt" height="88pt"
 viewBox="0.00 0.00 358.00 88.00" xmlns="http://www.w3.org/2000/svg" xmlns:xlink="http://www.w3.org/1999/xlink">

<svg id="main" version="1.1" xmlns="http://www.w3.org/2000/svg" xmlns:xlink="http://www.w3.org/1999/xlink" xml:space="preserve">

<style type="text/css"><![CDATA[
.node, .edge {opacity: 0.7;}
.node.selected, .edge.selected {opacity: 1;}
.edge:hover path { stroke: red; }
.edge:hover polygon { stroke: red; fill: red; }
]]></style>
<script type="application/ecmascript" xlink:href="../../svg.min.js"/>
<svg id="graph" class="graph">
<g id="graph0" class="graph" transform="scale(1 1) rotate(0) translate(4 83.5)">
<title>npi::TextSpec::Style::Style</title>
<!-- Node1 -->
<g id="Node000001" class="node">
<title>Node1</title>
<g id="a_Node000001"><a xlink:title="Default constructor.">
<polygon fill="#999999" stroke="none" points="350,-48.88 172,-48.88 172,-29.62 350,-29.62 350,-48.88"/>
<text xml:space="preserve" text-anchor="start" x="180" y="-35.42" font-family="Consolas" font-weight="bold" font-size="11.00">npi::TextSpec::Style::Style</text>
</a>
</g>
</g>
<!-- Node2 -->
<g id="Node000002" class="node">
<title>Node2</title>
<g id="a_Node000002"><a xlink:href="../../d6/de2/structnpi_1_1_text_spec_1_1_style.html#a51f31478637ba4097fd263bcb1a2841d" target="_top" xlink:title="Inequality operator.">
<polygon fill="white" stroke="none" points="136,-79.5 0,-79.5 0,-49 136,-49 136,-79.5"/>
<text xml:space="preserve" text-anchor="start" x="8" y="-65.05" font-family="Consolas" font-size="11.00">npi::TextSpec::Style</text>
<text xml:space="preserve" text-anchor="middle" x="68" y="-53.8" font-family="Consolas" font-size="11.00">::operator!=</text>
</a>
</g>
</g>
<!-- Node1&#45;&gt;Node2 -->
<g id="edge1_Node000001_Node000002" class="edge">
<title>Node1&#45;&gt;Node2</title>
<g id="a_edge1_Node000001_Node000002"><a xlink:title=" ">
<path fill="none" stroke="#63b8ff" d="M180.78,-49.62C165.84,-51.57 150.36,-53.6 135.84,-55.5"/>
<polygon fill="#63b8ff" stroke="#63b8ff" points="185.49,-49 180.83,-51.88 184.22,-49.17 180.53,-49.65 180.53,-49.65 180.53,-49.65 184.22,-49.17 180.24,-47.42 185.49,-49"/>
</a>
</g>
</g>
<!-- Node3 -->
<g id="Node000003" class="node">
<title>Node3</title>
<g id="a_Node000003"><a xlink:href="../../d6/de2/structnpi_1_1_text_spec_1_1_style.html#a36f306d1a3a2f940815404bc3186761f" target="_top" xlink:title="Equality operator.">
<polygon fill="white" stroke="none" points="136,-30.5 0,-30.5 0,0 136,0 136,-30.5"/>
<text xml:space="preserve" text-anchor="start" x="8" y="-16.05" font-family="Consolas" font-size="11.00">npi::TextSpec::Style</text>
<text xml:space="preserve" text-anchor="middle" x="68" y="-4.8" font-family="Consolas" font-size="11.00">::operator==</text>
</a>
</g>
</g>
<!-- Node1&#45;&gt;Node3 -->
<g id="edge2_Node000001_Node000003" class="edge">
<title>Node1&#45;&gt;Node3</title>
<g id="a_edge2_Node000001_Node000003"><a xlink:title=" ">
<path fill="none" stroke="#63b8ff" d="M177.47,-28.88C163.53,-27.13 149.22,-25.33 135.75,-23.64"/>
<polygon fill="#63b8ff" stroke="#63b8ff" points="182.2,-29.47 176.96,-31.08 180.93,-29.31 177.24,-28.85 177.24,-28.85 177.24,-28.85 180.93,-29.31 177.52,-26.62 182.2,-29.47"/>
</a>
</g>
</g>
</g>
</svg>
</svg>

<style type='text/css'>
<![CDATA[
[data-mouse-over-selected='false'] { opacity: 0.7; }
[data-mouse-over-selected='true']  { opacity: 1.0; }
]]>
</style>
<script type="application/ecmascript"><![CDATA[
document.addEventListener('DOMContentLoaded', (event) => {
  highlightEdges();
  highlightAdjacentNodes();
});
]]></script>
</svg>
