<?xml version="1.0" encoding="UTF-8" standalone="no"?>
<!DOCTYPE svg PUBLIC "-//W3C//DTD SVG 1.1//EN"
 "http://www.w3.org/Graphics/SVG/1.1/DTD/svg11.dtd">
<!-- Generated by graphviz version 14.0.0 (20250921.2048)
 -->
<!-- Title: MainWindow.h Pages: 1 -->
<svg width="636pt" height="83pt"
 viewBox="0.00 0.00 636.00 83.00" xmlns="http://www.w3.org/2000/svg" xmlns:xlink="http://www.w3.org/1999/xlink">
<g id="graph0" class="graph" transform="scale(1 1) rotate(0) translate(4 78.5)">
<title>MainWindow.h</title>
<!-- Node1 -->
<g id="Node000001" class="node">
<title>Node1</title>
<g id="a_Node000001"><a xlink:title=" ">
<polygon fill="#999999" stroke="none" points="400,-74.5 312,-74.5 312,-55.25 400,-55.25 400,-74.5"/>
<text xml:space="preserve" text-anchor="start" x="320" y="-61.05" font-family="Consolas" font-weight="bold" font-size="11.00">MainWindow.h</text>
</a>
</g>
</g>
<!-- Node2 -->
<g id="Node000002" class="node">
<title>Node2</title>
<g id="a_Node000002"><a xlink:title=" ">
<polygon fill="#e0e0e0" stroke="none" points="58,-19.25 0,-19.25 0,0 58,0 58,-19.25"/>
<text xml:space="preserve" text-anchor="middle" x="29" y="-4.8" font-family="Consolas" font-size="11.00">QWidget</text>
</a>
</g>
</g>
<!-- Node1&#45;&gt;Node2 -->
<g id="edge1_Node000001_Node000002" class="edge">
<title>Node1&#45;&gt;Node2</title>
<g id="a_edge1_Node000001_Node000002"><a xlink:title=" ">
<path fill="none" stroke="#63b8ff" d="M312.26,-58.09C255.51,-50.37 153.53,-35.73 67,-19.25 65.85,-19.03 64.69,-18.8 63.51,-18.57"/>
<polygon fill="#63b8ff" stroke="#63b8ff" points="58.78,-17.59 64.13,-16.4 60.04,-17.85 63.68,-18.6 63.68,-18.6 63.68,-18.6 60.04,-17.85 63.22,-20.81 58.78,-17.59"/>
</a>
</g>
</g>
<!-- Node3 -->
<g id="Node000003" class="node">
<title>Node3</title>
<g id="a_Node000003"><a xlink:title=" ">
<polygon fill="#e0e0e0" stroke="none" points="182,-19.25 76,-19.25 76,0 182,0 182,-19.25"/>
<text xml:space="preserve" text-anchor="middle" x="129" y="-4.8" font-family="Consolas" font-size="11.00">ui_MainWindow.h</text>
</a>
</g>
</g>
<!-- Node1&#45;&gt;Node3 -->
<g id="edge2_Node000001_Node000003" class="edge">
<title>Node1&#45;&gt;Node3</title>
<g id="a_edge2_Node000001_Node000003"><a xlink:title=" ">
<path fill="none" stroke="#63b8ff" d="M319.28,-55.26C278.89,-45.79 214.09,-30.58 171.52,-20.6"/>
<polygon fill="#63b8ff" stroke="#63b8ff" points="166.86,-19.51 172.24,-18.46 168.1,-19.8 171.73,-20.65 171.73,-20.65 171.73,-20.65 168.1,-19.8 171.21,-22.84 166.86,-19.51"/>
</a>
</g>
</g>
<!-- Node4 -->
<g id="Node000004" class="node">
<title>Node4</title>
<g id="a_Node000004"><a xlink:title=" ">
<polygon fill="#e0e0e0" stroke="none" points="282,-19.25 200,-19.25 200,0 282,0 282,-19.25"/>
<text xml:space="preserve" text-anchor="middle" x="241" y="-4.8" font-family="Consolas" font-size="11.00">QStringList</text>
</a>
</g>
</g>
<!-- Node1&#45;&gt;Node4 -->
<g id="edge3_Node000001_Node000004" class="edge">
<title>Node1&#45;&gt;Node4</title>
<g id="a_edge3_Node000001_Node000004"><a xlink:title=" ">
<path fill="none" stroke="#63b8ff" d="M337.52,-55.32C317.82,-46.2 286.55,-31.72 264.97,-21.72"/>
<polygon fill="#63b8ff" stroke="#63b8ff" points="260.54,-19.67 266.02,-19.73 261.7,-20.21 265.07,-21.77 265.07,-21.77 265.07,-21.77 261.7,-20.21 264.13,-23.81 260.54,-19.67"/>
</a>
</g>
</g>
<!-- Node5 -->
<g id="Node000005" class="node">
<title>Node5</title>
<g id="a_Node000005"><a xlink:title=" ">
<polygon fill="#e0e0e0" stroke="none" points="412,-19.25 300,-19.25 300,0 412,0 412,-19.25"/>
<text xml:space="preserve" text-anchor="middle" x="356" y="-4.8" font-family="Consolas" font-size="11.00">QLoggingCategory</text>
</a>
</g>
</g>
<!-- Node1&#45;&gt;Node5 -->
<g id="edge4_Node000001_Node000005" class="edge">
<title>Node1&#45;&gt;Node5</title>
<g id="a_edge4_Node000001_Node000005"><a xlink:title=" ">
<path fill="none" stroke="#63b8ff" d="M356,-55.55C356,-47.4 356,-34.79 356,-25.01"/>
<polygon fill="#63b8ff" stroke="#63b8ff" points="356,-20.28 358.25,-25.28 356,-21.56 356,-25.28 356,-25.28 356,-25.28 356,-21.56 353.75,-25.28 356,-20.28"/>
</a>
</g>
</g>
<!-- Node6 -->
<g id="Node000006" class="node">
<title>Node6</title>
<g id="a_Node000006"><a xlink:title=" ">
<polygon fill="#e0e0e0" stroke="none" points="488,-19.25 430,-19.25 430,0 488,0 488,-19.25"/>
<text xml:space="preserve" text-anchor="middle" x="459" y="-4.8" font-family="Consolas" font-size="11.00">QThread</text>
</a>
</g>
</g>
<!-- Node1&#45;&gt;Node6 -->
<g id="edge5_Node000001_Node000006" class="edge">
<title>Node1&#45;&gt;Node6</title>
<g id="a_edge5_Node000001_Node000006"><a xlink:title=" ">
<path fill="none" stroke="#63b8ff" d="M372.55,-55.32C390.12,-46.24 417.96,-31.84 437.28,-21.85"/>
<polygon fill="#63b8ff" stroke="#63b8ff" points="441.41,-19.72 438,-24.01 440.27,-20.31 436.97,-22.02 436.97,-22.02 436.97,-22.02 440.27,-20.31 435.94,-20.02 441.41,-19.72"/>
</a>
</g>
</g>
<!-- Node7 -->
<g id="Node000007" class="node">
<title>Node7</title>
<g id="a_Node000007"><a xlink:title=" ">
<polygon fill="#e0e0e0" stroke="none" points="558,-19.25 506,-19.25 506,0 558,0 558,-19.25"/>
<text xml:space="preserve" text-anchor="middle" x="532" y="-4.8" font-family="Consolas" font-size="11.00">QTimer</text>
</a>
</g>
</g>
<!-- Node1&#45;&gt;Node7 -->
<g id="edge6_Node000001_Node000007" class="edge">
<title>Node1&#45;&gt;Node7</title>
<g id="a_edge6_Node000001_Node000007"><a xlink:title=" ">
<path fill="none" stroke="#63b8ff" d="M384.28,-55.32C415.93,-45.74 467.1,-30.26 500.14,-20.27"/>
<polygon fill="#63b8ff" stroke="#63b8ff" points="504.92,-18.82 500.79,-22.42 503.69,-19.19 500.13,-20.27 500.13,-20.27 500.13,-20.27 503.69,-19.19 499.48,-18.11 504.92,-18.82"/>
</a>
</g>
</g>
<!-- Node8 -->
<g id="Node000008" class="node">
<title>Node8</title>
<g id="a_Node000008"><a xlink:title=" ">
<polygon fill="#e0e0e0" stroke="none" points="628,-19.25 576,-19.25 576,0 628,0 628,-19.25"/>
<text xml:space="preserve" text-anchor="middle" x="602" y="-4.8" font-family="Consolas" font-size="11.00">atomic</text>
</a>
</g>
</g>
<!-- Node1&#45;&gt;Node8 -->
<g id="edge7_Node000001_Node000008" class="edge">
<title>Node1&#45;&gt;Node8</title>
<g id="a_edge7_Node000001_Node000008"><a xlink:title=" ">
<path fill="none" stroke="#63b8ff" d="M398.53,-55.31C441.2,-46.62 508.79,-32.58 567,-19.25 568.01,-19.02 569.03,-18.78 570.06,-18.54"/>
<polygon fill="#63b8ff" stroke="#63b8ff" points="574.84,-17.41 570.5,-20.75 573.6,-17.7 569.98,-18.56 569.98,-18.56 569.98,-18.56 573.6,-17.7 569.46,-16.37 574.84,-17.41"/>
</a>
</g>
</g>
</g>
</svg>
