<?xml version="1.0" encoding="UTF-8" standalone="no"?>
<!DOCTYPE svg PUBLIC "-//W3C//DTD SVG 1.1//EN"
 "http://www.w3.org/Graphics/SVG/1.1/DTD/svg11.dtd">
<!-- Generated by graphviz version 14.0.0 (20250921.2048)
 -->
<!-- Title: NativeFatalMessage.hpp Pages: 1 -->
<svg width="608pt" height="83pt"
 viewBox="0.00 0.00 608.00 83.00" xmlns="http://www.w3.org/2000/svg" xmlns:xlink="http://www.w3.org/1999/xlink">
<g id="graph0" class="graph" transform="scale(1 1) rotate(0) translate(4 78.5)">
<title>NativeFatalMessage.hpp</title>
<!-- Node1 -->
<g id="Node000001" class="node">
<title>Node1</title>
<g id="a_Node000001"><a xlink:title="File containing Windows native fatal error message box for emergency use.">
<polygon fill="#999999" stroke="none" points="384,-74.5 236,-74.5 236,-55.25 384,-55.25 384,-74.5"/>
<text xml:space="preserve" text-anchor="start" x="244" y="-61.05" font-family="Consolas" font-weight="bold" font-size="11.00">NativeFatalMessage.hpp</text>
</a>
</g>
</g>
<!-- Node2 -->
<g id="Node000002" class="node">
<title>Node2</title>
<g id="a_Node000002"><a xlink:title=" ">
<polygon fill="#e0e0e0" stroke="none" points="142,-19.25 0,-19.25 0,0 142,0 142,-19.25"/>
<text xml:space="preserve" text-anchor="middle" x="71" y="-4.8" font-family="Consolas" font-size="11.00">npi/PlatformCheck.hpp</text>
</a>
</g>
</g>
<!-- Node1&#45;&gt;Node2 -->
<g id="edge1_Node000001_Node000002" class="edge">
<title>Node1&#45;&gt;Node2</title>
<g id="a_edge1_Node000001_Node000002"><a xlink:title=" ">
<path fill="none" stroke="#63b8ff" d="M271.33,-55.26C228.73,-45.77 160.3,-30.52 115.5,-20.54"/>
<polygon fill="#63b8ff" stroke="#63b8ff" points="110.8,-19.49 116.17,-18.38 112.05,-19.77 115.68,-20.58 115.68,-20.58 115.68,-20.58 112.05,-19.77 115.19,-22.78 110.8,-19.49"/>
</a>
</g>
</g>
<!-- Node3 -->
<g id="Node000003" class="node">
<title>Node3</title>
<g id="a_Node000003"><a xlink:title=" ">
<polygon fill="#e0e0e0" stroke="none" points="230,-19.25 160,-19.25 160,0 230,0 230,-19.25"/>
<text xml:space="preserve" text-anchor="middle" x="195" y="-4.8" font-family="Consolas" font-size="11.00">windows.h</text>
</a>
</g>
</g>
<!-- Node1&#45;&gt;Node3 -->
<g id="edge2_Node000001_Node000003" class="edge">
<title>Node1&#45;&gt;Node3</title>
<g id="a_edge2_Node000001_Node000003"><a xlink:title=" ">
<path fill="none" stroke="#63b8ff" d="M291.52,-55.32C271.82,-46.2 240.55,-31.72 218.97,-21.72"/>
<polygon fill="#63b8ff" stroke="#63b8ff" points="214.54,-19.67 220.02,-19.73 215.7,-20.21 219.07,-21.77 219.07,-21.77 219.07,-21.77 215.7,-20.21 218.13,-23.81 214.54,-19.67"/>
</a>
</g>
</g>
<!-- Node4 -->
<g id="Node000004" class="node">
<title>Node4</title>
<g id="a_Node000004"><a xlink:title=" ">
<polygon fill="#e0e0e0" stroke="none" points="300,-19.25 248,-19.25 248,0 300,0 300,-19.25"/>
<text xml:space="preserve" text-anchor="middle" x="274" y="-4.8" font-family="Consolas" font-size="11.00">string</text>
</a>
</g>
</g>
<!-- Node1&#45;&gt;Node4 -->
<g id="edge3_Node000001_Node000004" class="edge">
<title>Node1&#45;&gt;Node4</title>
<g id="a_edge3_Node000001_Node000004"><a xlink:title=" ">
<path fill="none" stroke="#63b8ff" d="M304.38,-55.55C298.7,-47.16 289.85,-34.07 283.16,-24.18"/>
<polygon fill="#63b8ff" stroke="#63b8ff" points="280.39,-20.07 285.05,-22.95 281.1,-21.13 283.19,-24.21 283.19,-24.21 283.19,-24.21 281.1,-21.13 281.32,-25.47 280.39,-20.07"/>
</a>
</g>
</g>
<!-- Node5 -->
<g id="Node000005" class="node">
<title>Node5</title>
<g id="a_Node000005"><a xlink:title=" ">
<polygon fill="#e0e0e0" stroke="none" points="376,-19.25 318,-19.25 318,0 376,0 376,-19.25"/>
<text xml:space="preserve" text-anchor="middle" x="347" y="-4.8" font-family="Consolas" font-size="11.00">cstdlib</text>
</a>
</g>
</g>
<!-- Node1&#45;&gt;Node5 -->
<g id="edge4_Node000001_Node000005" class="edge">
<title>Node1&#45;&gt;Node5</title>
<g id="a_edge4_Node000001_Node000005"><a xlink:title=" ">
<path fill="none" stroke="#63b8ff" d="M315.78,-55.55C321.67,-47.09 330.88,-33.83 337.77,-23.9"/>
<polygon fill="#63b8ff" stroke="#63b8ff" points="340.44,-20.06 339.44,-25.45 339.71,-21.12 337.59,-24.17 337.59,-24.17 337.59,-24.17 339.71,-21.12 335.74,-22.89 340.44,-20.06"/>
</a>
</g>
</g>
<!-- Node6 -->
<g id="Node000006" class="node">
<title>Node6</title>
<g id="a_Node000006"><a xlink:title=" ">
<polygon fill="#e0e0e0" stroke="none" points="452,-19.25 394,-19.25 394,0 452,0 452,-19.25"/>
<text xml:space="preserve" text-anchor="middle" x="423" y="-4.8" font-family="Consolas" font-size="11.00">QString</text>
</a>
</g>
</g>
<!-- Node1&#45;&gt;Node6 -->
<g id="edge5_Node000001_Node000006" class="edge">
<title>Node1&#45;&gt;Node6</title>
<g id="a_edge5_Node000001_Node000006"><a xlink:title=" ">
<path fill="none" stroke="#63b8ff" d="M328.16,-55.32C347.51,-46.2 378.24,-31.72 399.45,-21.72"/>
<polygon fill="#63b8ff" stroke="#63b8ff" points="403.79,-19.68 400.22,-23.85 402.63,-20.23 399.26,-21.81 399.26,-21.81 399.26,-21.81 402.63,-20.23 398.31,-19.77 403.79,-19.68"/>
</a>
</g>
</g>
<!-- Node7 -->
<g id="Node000007" class="node">
<title>Node7</title>
<g id="a_Node000007"><a xlink:title=" ">
<polygon fill="#e0e0e0" stroke="none" points="600,-19.25 470,-19.25 470,0 600,0 600,-19.25"/>
<text xml:space="preserve" text-anchor="middle" x="535" y="-4.8" font-family="Consolas" font-size="11.00">npi/AppMetaData.hpp</text>
</a>
</g>
</g>
<!-- Node1&#45;&gt;Node7 -->
<g id="edge6_Node000001_Node000007" class="edge">
<title>Node1&#45;&gt;Node7</title>
<g id="a_edge6_Node000001_Node000007"><a xlink:title=" ">
<path fill="none" stroke="#63b8ff" d="M346.4,-55.26C386.43,-45.79 450.66,-30.58 492.85,-20.6"/>
<polygon fill="#63b8ff" stroke="#63b8ff" points="497.47,-19.51 493.12,-22.85 496.22,-19.8 492.6,-20.66 492.6,-20.66 492.6,-20.66 496.22,-19.8 492.08,-18.47 497.47,-19.51"/>
</a>
</g>
</g>
</g>
</svg>
