<?xml version="1.0" encoding="UTF-8" standalone="no"?>
<!DOCTYPE svg PUBLIC "-//W3C//DTD SVG 1.1//EN"
 "http://www.w3.org/Graphics/SVG/1.1/DTD/svg11.dtd">
<!-- Generated by graphviz version 14.0.0 (20250921.2048)
 -->
<!-- Title: npi::GuiProps::GuiProps Pages: 1 -->
<svg width="358pt" height="138pt"
 viewBox="0.00 0.00 358.00 138.00" xmlns="http://www.w3.org/2000/svg" xmlns:xlink="http://www.w3.org/1999/xlink">
<g id="graph0" class="graph" transform="scale(1 1) rotate(0) translate(4 134.25)">
<title>npi::GuiProps::GuiProps</title>
<!-- Node1 -->
<g id="Node000001" class="node">
<title>Node1</title>
<g id="a_Node000001"><a xlink:title="Default constructor deleted.">
<polygon fill="#999999" stroke="none" points="350,-74.25 196,-74.25 196,-55 350,-55 350,-74.25"/>
<text xml:space="preserve" text-anchor="start" x="204" y="-60.8" font-family="Consolas" font-weight="bold" font-size="11.00">npi::GuiProps::GuiProps</text>
</a>
</g>
</g>
<!-- Node2 -->
<g id="Node000002" class="node">
<title>Node2</title>
<g id="a_Node000002"><a xlink:href="../../d2/dd5/structnpi_1_1_gui_props.html#aefb749c79a1d1044b163b5f3421b0ec7" target="_top" xlink:title="Copy constructor deleted.">
<polygon fill="white" stroke="none" points="157,-130.25 3,-130.25 3,-111 157,-111 157,-130.25"/>
<text xml:space="preserve" text-anchor="middle" x="80" y="-115.8" font-family="Consolas" font-size="11.00">npi::GuiProps::GuiProps</text>
</a>
</g>
</g>
<!-- Node1&#45;&gt;Node2 -->
<g id="edge1_Node000001_Node000002" class="edge">
<title>Node1&#45;&gt;Node2</title>
<g id="a_edge1_Node000001_Node000002"><a xlink:title=" ">
<path fill="none" stroke="#63b8ff" d="M240.67,-76.22C218.36,-84.24 187.57,-94.83 160,-102.62 149.31,-105.65 137.69,-108.52 126.74,-111.05"/>
<polygon fill="#63b8ff" stroke="#63b8ff" points="245.29,-74.55 241.35,-78.37 244.08,-74.99 240.59,-76.25 240.59,-76.25 240.59,-76.25 244.08,-74.99 239.82,-74.14 245.29,-74.55"/>
</a>
</g>
</g>
<!-- Node3 -->
<g id="Node000003" class="node">
<title>Node3</title>
<g id="a_Node000003"><a xlink:href="../../d2/dd5/structnpi_1_1_gui_props.html#a50ee63cb434537a13be242f4296e3f54" target="_top" xlink:title="Move constructor deleted.">
<polygon fill="white" stroke="none" points="157,-93.25 3,-93.25 3,-74 157,-74 157,-93.25"/>
<text xml:space="preserve" text-anchor="middle" x="80" y="-78.8" font-family="Consolas" font-size="11.00">npi::GuiProps::GuiProps</text>
</a>
</g>
</g>
<!-- Node1&#45;&gt;Node3 -->
<g id="edge2_Node000001_Node000003" class="edge">
<title>Node1&#45;&gt;Node3</title>
<g id="a_edge2_Node000001_Node000003"><a xlink:title=" ">
<path fill="none" stroke="#63b8ff" d="M190.15,-72.77C179.14,-73.86 167.89,-74.98 156.98,-76.07"/>
<polygon fill="#63b8ff" stroke="#63b8ff" points="195.02,-72.28 190.27,-75.02 193.75,-72.41 190.05,-72.78 190.05,-72.78 190.05,-72.78 193.75,-72.41 189.83,-70.54 195.02,-72.28"/>
</a>
</g>
</g>
<!-- Node4 -->
<g id="Node000004" class="node">
<title>Node4</title>
<g id="a_Node000004"><a xlink:href="../../d2/dd5/structnpi_1_1_gui_props.html#a3e162bbdee834ec98c2b86c482d23570" target="_top" xlink:title="Copy assignment deleted.">
<polygon fill="white" stroke="none" points="160,-56.25 0,-56.25 0,-37 160,-37 160,-56.25"/>
<text xml:space="preserve" text-anchor="middle" x="80" y="-41.8" font-family="Consolas" font-size="11.00">npi::GuiProps::operator=</text>
</a>
</g>
</g>
<!-- Node1&#45;&gt;Node4 -->
<g id="edge3_Node000001_Node000004" class="edge">
<title>Node1&#45;&gt;Node4</title>
<g id="a_edge3_Node000001_Node000004"><a xlink:title=" ">
<path fill="none" stroke="#63b8ff" d="M190.31,-56.93C180.2,-55.97 169.87,-55 159.8,-54.05"/>
<polygon fill="#63b8ff" stroke="#63b8ff" points="195.02,-57.37 189.84,-59.14 193.75,-57.25 190.05,-56.9 190.05,-56.9 190.05,-56.9 193.75,-57.25 190.26,-54.66 195.02,-57.37"/>
</a>
</g>
</g>
<!-- Node5 -->
<g id="Node000005" class="node">
<title>Node5</title>
<g id="a_Node000005"><a xlink:href="../../d2/dd5/structnpi_1_1_gui_props.html#a59765ee23256b32b5c677de82d70479d" target="_top" xlink:title="Move assignment deleted.">
<polygon fill="white" stroke="none" points="160,-19.25 0,-19.25 0,0 160,0 160,-19.25"/>
<text xml:space="preserve" text-anchor="middle" x="80" y="-4.8" font-family="Consolas" font-size="11.00">npi::GuiProps::operator=</text>
</a>
</g>
</g>
<!-- Node1&#45;&gt;Node5 -->
<g id="edge4_Node000001_Node000005" class="edge">
<title>Node1&#45;&gt;Node5</title>
<g id="a_edge4_Node000001_Node000005"><a xlink:title=" ">
<path fill="none" stroke="#63b8ff" d="M239.75,-53.07C217.51,-45.32 187.16,-35.19 160,-27.62 149.16,-24.61 137.38,-21.72 126.3,-19.17"/>
<polygon fill="#63b8ff" stroke="#63b8ff" points="244.37,-54.68 238.9,-55.15 243.16,-54.26 239.65,-53.03 239.65,-53.03 239.65,-53.03 243.16,-54.26 240.39,-50.91 244.37,-54.68"/>
</a>
</g>
</g>
</g>
</svg>
