<?xml version="1.0" encoding="UTF-8" standalone="no"?>
<!DOCTYPE svg PUBLIC "-//W3C//DTD SVG 1.1//EN"
 "http://www.w3.org/Graphics/SVG/1.1/DTD/svg11.dtd">
<!-- Generated by graphviz version 14.0.0 (20250921.2048)
 -->
<!-- Title: npi::LinkWeakHost::swap_ Pages: 1 -->
<svg width="524pt" height="61pt"
 viewBox="0.00 0.00 524.00 61.00" xmlns="http://www.w3.org/2000/svg" xmlns:xlink="http://www.w3.org/1999/xlink">
<g id="graph0" class="graph" transform="scale(1 1) rotate(0) translate(4 56.88)">
<title>npi::LinkWeakHost::swap_</title>
<!-- Node1 -->
<g id="Node000001" class="node">
<title>Node1</title>
<g id="a_Node000001"><a xlink:title="Member swap function.">
<polygon fill="#999999" stroke="none" points="160,-47.25 0,-47.25 0,-28 160,-28 160,-47.25"/>
<text xml:space="preserve" text-anchor="start" x="8" y="-33.8" font-family="Consolas" font-weight="bold" font-size="11.00">npi::LinkWeakHost::swap_</text>
</a>
</g>
</g>
<!-- Node2 -->
<g id="Node000002" class="node">
<title>Node2</title>
<g id="a_Node000002"><a xlink:href="../../d5/d88/classnpi_1_1_link_weak_host.html#aa4e14ec80728e51f687eaa54f028ae91" target="_top" xlink:title="Default constructor.">
<polygon fill="white" stroke="none" points="516,-52.88 386,-52.88 386,-22.38 516,-22.38 516,-52.88"/>
<text xml:space="preserve" text-anchor="start" x="394" y="-38.42" font-family="Consolas" font-size="11.00">npi::LinkWeakHost::</text>
<text xml:space="preserve" text-anchor="middle" x="451" y="-27.18" font-family="Consolas" font-size="11.00">LinkWeakHost</text>
</a>
</g>
</g>
<!-- Node1&#45;&gt;Node2 -->
<g id="edge1_Node000001_Node000002" class="edge">
<title>Node1&#45;&gt;Node2</title>
<g id="a_edge1_Node000001_Node000002"><a xlink:title=" ">
<path fill="none" stroke="#63b8ff" d="M159.83,-44.61C171.93,-45.45 184.29,-46.17 196,-46.62 264.39,-49.3 281.62,-49.7 350,-46.62 359.75,-46.19 370.03,-45.51 380.12,-44.72"/>
<polygon fill="#63b8ff" stroke="#63b8ff" points="384.83,-44.34 380.02,-46.98 383.55,-44.44 379.84,-44.74 379.84,-44.74 379.84,-44.74 383.55,-44.44 379.66,-42.5 384.83,-44.34"/>
</a>
</g>
</g>
<!-- Node3 -->
<g id="Node000003" class="node">
<title>Node3</title>
<g id="a_Node000003"><a xlink:href="../../d5/d88/classnpi_1_1_link_weak_host.html#aea47a0d52c6f7824c422799b921ae993" target="_top" xlink:title="Friend swap to exchange two LinkWeakHost instances.">
<polygon fill="white" stroke="none" points="350,-19.25 196,-19.25 196,0 350,0 350,-19.25"/>
<text xml:space="preserve" text-anchor="middle" x="273" y="-4.8" font-family="Consolas" font-size="11.00">npi::LinkWeakHost::swap</text>
</a>
</g>
</g>
<!-- Node1&#45;&gt;Node3 -->
<g id="edge2_Node000001_Node000003" class="edge">
<title>Node1&#45;&gt;Node3</title>
<g id="a_edge2_Node000001_Node000003"><a xlink:title=" ">
<path fill="none" stroke="#63b8ff" d="M146.46,-28.03C163.93,-25.47 182.88,-22.69 200.65,-20.09"/>
<polygon fill="#63b8ff" stroke="#63b8ff" points="205.42,-19.39 200.8,-22.34 204.15,-19.57 200.47,-20.11 200.47,-20.11 200.47,-20.11 204.15,-19.57 200.14,-17.89 205.42,-19.39"/>
</a>
</g>
</g>
<!-- Node3&#45;&gt;Node2 -->
<g id="edge3_Node000003_Node000002" class="edge">
<title>Node3&#45;&gt;Node2</title>
<g id="a_edge3_Node000003_Node000002"><a xlink:title=" ">
<path fill="none" stroke="#63b8ff" d="M334.08,-19.18C348.93,-21.55 364.98,-24.1 380.25,-26.53"/>
<polygon fill="#63b8ff" stroke="#63b8ff" points="385.08,-27.3 379.79,-28.73 383.82,-27.1 380.15,-26.51 380.15,-26.51 380.15,-26.51 383.82,-27.1 380.5,-24.29 385.08,-27.3"/>
</a>
</g>
</g>
<!-- Node3&#45;&gt;Node3 -->
<g id="edge4_Node000003_Node000003" class="edge">
<title>Node3&#45;&gt;Node3</title>
<g id="a_edge4_Node000003_Node000003"><a xlink:title=" ">
<path fill="none" stroke="#63b8ff" d="M246.01,-18.97C232.02,-27.74 241.02,-37.25 273,-37.25 300.49,-37.25 311,-30.22 304.53,-22.68"/>
<polygon fill="#63b8ff" stroke="#63b8ff" points="300.93,-19.74 306.22,-21.16 301.92,-20.55 304.8,-22.9 304.8,-22.9 304.8,-22.9 301.92,-20.55 303.37,-24.65 300.93,-19.74"/>
</a>
</g>
</g>
</g>
</svg>
