<?xml version="1.0" encoding="UTF-8" standalone="no"?>
<!DOCTYPE svg PUBLIC "-//W3C//DTD SVG 1.1//EN"
 "http://www.w3.org/Graphics/SVG/1.1/DTD/svg11.dtd">
<!-- Generated by graphviz version 14.0.0 (20250921.2048)
 -->
<!-- Title: npi::LinkWeakHost::expired_ Pages: 1 -->
<svg width="352pt" height="88pt"
 viewBox="0.00 0.00 352.00 88.00" xmlns="http://www.w3.org/2000/svg" xmlns:xlink="http://www.w3.org/1999/xlink">

<svg id="main" version="1.1" xmlns="http://www.w3.org/2000/svg" xmlns:xlink="http://www.w3.org/1999/xlink" xml:space="preserve">

<style type="text/css"><![CDATA[
.node, .edge {opacity: 0.7;}
.node.selected, .edge.selected {opacity: 1;}
.edge:hover path { stroke: red; }
.edge:hover polygon { stroke: red; fill: red; }
]]></style>
<script type="application/ecmascript" xlink:href="../../svg.min.js"/>
<svg id="graph" class="graph">
<g id="graph0" class="graph" transform="scale(1 1) rotate(0) translate(4 83.5)">
<title>npi::LinkWeakHost::expired_</title>
<!-- Node1 -->
<g id="Node000001" class="node">
<title>Node1</title>
<g id="a_Node000001"><a xlink:title="Check if the weak reference is expired.">
<polygon fill="#999999" stroke="none" points="344,-48.88 166,-48.88 166,-29.62 344,-29.62 344,-48.88"/>
<text xml:space="preserve" text-anchor="start" x="174" y="-35.42" font-family="Consolas" font-weight="bold" font-size="11.00">npi::LinkWeakHost::expired_</text>
</a>
</g>
</g>
<!-- Node2 -->
<g id="Node000002" class="node">
<title>Node2</title>
<g id="a_Node000002"><a xlink:href="../../d5/d88/classnpi_1_1_link_weak_host.html#a692a922f21389a42f2775bfea8b0be2b" target="_top" xlink:title="Check if the weak host still references a live object.">
<polygon fill="white" stroke="none" points="130,-79.5 0,-79.5 0,-49 130,-49 130,-79.5"/>
<text xml:space="preserve" text-anchor="start" x="8" y="-65.05" font-family="Consolas" font-size="11.00">npi::LinkWeakHost::</text>
<text xml:space="preserve" text-anchor="middle" x="65" y="-53.8" font-family="Consolas" font-size="11.00">isValid_</text>
</a>
</g>
</g>
<!-- Node1&#45;&gt;Node2 -->
<g id="edge1_Node000001_Node000002" class="edge">
<title>Node1&#45;&gt;Node2</title>
<g id="a_edge1_Node000001_Node000002"><a xlink:title=" ">
<path fill="none" stroke="#63b8ff" d="M175.81,-49.65C160.54,-51.68 144.7,-53.78 129.97,-55.74"/>
<polygon fill="#63b8ff" stroke="#63b8ff" points="180.64,-49 175.98,-51.89 179.37,-49.17 175.69,-49.66 175.69,-49.66 175.69,-49.66 179.37,-49.17 175.39,-47.43 180.64,-49"/>
</a>
</g>
</g>
<!-- Node3 -->
<g id="Node000003" class="node">
<title>Node3</title>
<g id="a_Node000003"><a xlink:href="../../d5/d88/classnpi_1_1_link_weak_host.html#a29e58679c371144363e23e86f8788b5b" target="_top" xlink:title="Explicit boolean conversion operator.">
<polygon fill="white" stroke="none" points="130,-30.5 0,-30.5 0,0 130,0 130,-30.5"/>
<text xml:space="preserve" text-anchor="start" x="8" y="-16.05" font-family="Consolas" font-size="11.00">npi::LinkWeakHost::</text>
<text xml:space="preserve" text-anchor="middle" x="65" y="-4.8" font-family="Consolas" font-size="11.00">operator bool</text>
</a>
</g>
</g>
<!-- Node1&#45;&gt;Node3 -->
<g id="edge2_Node000001_Node000003" class="edge">
<title>Node1&#45;&gt;Node3</title>
<g id="a_edge2_Node000001_Node000003"><a xlink:title=" ">
<path fill="none" stroke="#63b8ff" d="M172.53,-28.85C158.27,-27.03 143.62,-25.16 129.91,-23.41"/>
<polygon fill="#63b8ff" stroke="#63b8ff" points="177.41,-29.47 172.16,-31.07 176.14,-29.31 172.45,-28.84 172.45,-28.84 172.45,-28.84 176.14,-29.31 172.73,-26.61 177.41,-29.47"/>
</a>
</g>
</g>
</g>
</svg>
</svg>

<style type='text/css'>
<![CDATA[
[data-mouse-over-selected='false'] { opacity: 0.7; }
[data-mouse-over-selected='true']  { opacity: 1.0; }
]]>
</style>
<script type="application/ecmascript"><![CDATA[
document.addEventListener('DOMContentLoaded', (event) => {
  highlightEdges();
  highlightAdjacentNodes();
});
]]></script>
</svg>
