<?xml version="1.0" encoding="UTF-8" standalone="no"?>
<!DOCTYPE svg PUBLIC "-//W3C//DTD SVG 1.1//EN"
 "http://www.w3.org/Graphics/SVG/1.1/DTD/svg11.dtd">
<!-- Generated by graphviz version 14.0.0 (20250921.2048)
 -->
<!-- Title: npi::LinkWeakHost::LinkWeakHost Pages: 1 -->
<!--zoomable 420 -->

<svg id="main" version="1.1" xmlns="http://www.w3.org/2000/svg" xmlns:xlink="http://www.w3.org/1999/xlink" xml:space="preserve" onload="init(evt)">

<style type="text/css"><![CDATA[
.node, .edge {opacity: 0.7;}
.node.selected, .edge.selected {opacity: 1;}
.edge:hover path { stroke: red; }
.edge:hover polygon { stroke: red; fill: red; }
]]></style>

<defs>
  <circle id="rim" cx="0" cy="0" r="7"/>
  <circle id="rim2" cx="0" cy="0" r="3.5"/>
  <g id="zoomPlus">
    <use xlink:href="#rim" fill="#404040"><set attributeName="fill" to="#808080" begin="zoomplus.mouseover" end="zoomplus.mouseout"/></use>
    <path d="M-4,0h8M0,-4v8" fill="none" stroke="white" stroke-width="1.5" pointer-events="none"/>
  </g>
  <g id="zoomMin">
    <use xlink:href="#rim" fill="#404040"><set attributeName="fill" to="#808080" begin="zoomminus.mouseover" end="zoomminus.mouseout"/></use>
    <path d="M-4,0h8" fill="none" stroke="white" stroke-width="1.5" pointer-events="none"/>
  </g>
  <g id="arrowUp" transform="translate(30 24)">
    <use xlink:href="#rim"/>
    <path pointer-events="none" fill="none" stroke="white" stroke-width="1.5" d="M0,-3.0v7 M-2.5,-0.5L0,-3.0L2.5,-0.5"/>
  </g>
  <g id="arrowRight" transform="rotate(90) translate(36 -43)">
    <use xlink:href="#rim"/>
    <path pointer-events="none" fill="none" stroke="white" stroke-width="1.5" d="M0,-3.0v7 M-2.5,-0.5L0,-3.0L2.5,-0.5"/>
  </g>
  <g id="arrowDown" transform="rotate(180) translate(-30 -48)">
    <use xlink:href="#rim"/>
    <path pointer-events="none" fill="none" stroke="white" stroke-width="1.5" d="M0,-3.0v7 M-2.5,-0.5L0,-3.0L2.5,-0.5"/>
  </g>
  <g id="arrowLeft" transform="rotate(270) translate(-36 17)">
    <use xlink:href="#rim"/>
    <path pointer-events="none" fill="none" stroke="white" stroke-width="1.5" d="M0,-3.0v7 M-2.5,-0.5L0,-3.0L2.5,-0.5"/>
  </g>
  <g id="resetDef">
    <use xlink:href="#rim2" fill="#404040"><set attributeName="fill" to="#808080" begin="reset.mouseover" end="reset.mouseout"/></use>
  </g>
</defs>
<script type="application/ecmascript">
var viewWidth = 566;
var viewHeight = 420;
var sectionId = 'dynsection-1';
</script>
<script type="application/ecmascript" xlink:href="../../svg.min.js"/>
<svg id="graph" class="graph">
<g id="viewport">
<title>npi::LinkWeakHost::LinkWeakHost</title>
<!-- Node1 -->
<g id="Node000001" class="node">
<title>Node1</title>
<g id="a_Node000001"><a xlink:title="Default constructor.">
<polygon fill="#999999" stroke="none" points="558,-210.23 356,-210.23 356,-190.98 558,-190.98 558,-210.23"/>
<text xml:space="preserve" text-anchor="start" x="364" y="-196.78" font-family="Consolas" font-weight="bold" font-size="11.00">npi::LinkWeakHost::LinkWeakHost</text>
</a>
</g>
</g>
<!-- Node2 -->
<g id="Node000002" class="node">
<title>Node2</title>
<g id="a_Node000002"><a xlink:href="../../d5/d88/classnpi_1_1_link_weak_host.html#a035a6b63abc351628cbee43dc09dedeb" target="_top" xlink:title="Construct a LinkWeakHost from a LinkHost.">
<polygon fill="white" stroke="none" points="308,-411.86 178,-411.86 178,-381.36 308,-381.36 308,-411.86"/>
<text xml:space="preserve" text-anchor="start" x="186" y="-397.41" font-family="Consolas" font-size="11.00">npi::LinkWeakHost::</text>
<text xml:space="preserve" text-anchor="middle" x="243" y="-386.16" font-family="Consolas" font-size="11.00">LinkWeakHost</text>
</a>
</g>
</g>
<!-- Node1&#45;&gt;Node2 -->
<g id="edge1_Node000001_Node000002" class="edge">
<title>Node1&#45;&gt;Node2</title>
<g id="a_edge1_Node000001_Node000002"><a xlink:title=" ">
<path fill="none" stroke="#63b8ff" d="M448.37,-215.15C430.44,-247.95 382.38,-328.16 320,-371.61 314.53,-375.42 308.44,-378.68 302.15,-381.46"/>
<polygon fill="#63b8ff" stroke="#63b8ff" points="450.6,-211.03 450.2,-216.5 449.99,-212.15 448.22,-215.43 448.22,-215.43 448.22,-215.43 449.99,-212.15 446.24,-214.36 450.6,-211.03"/>
</a>
</g>
</g>
<!-- Node3 -->
<g id="Node000003" class="node">
<title>Node3</title>
<g id="a_Node000003"><a xlink:href="../../d5/d88/classnpi_1_1_link_weak_host.html#a038f0d60f85166f8b91b70a2063009d9" target="_top" xlink:title="Default copy constructor.">
<polygon fill="white" stroke="none" points="308,-362.86 178,-362.86 178,-332.36 308,-332.36 308,-362.86"/>
<text xml:space="preserve" text-anchor="start" x="186" y="-348.41" font-family="Consolas" font-size="11.00">npi::LinkWeakHost::</text>
<text xml:space="preserve" text-anchor="middle" x="243" y="-337.16" font-family="Consolas" font-size="11.00">LinkWeakHost</text>
</a>
</g>
</g>
<!-- Node1&#45;&gt;Node3 -->
<g id="edge2_Node000001_Node000003" class="edge">
<title>Node1&#45;&gt;Node3</title>
<g id="a_edge2_Node000001_Node000003"><a xlink:title=" ">
<path fill="none" stroke="#63b8ff" d="M444.05,-214.61C421.98,-239.67 372.25,-292.38 320,-322.61 313.51,-326.37 306.37,-329.65 299.16,-332.49"/>
<polygon fill="#63b8ff" stroke="#63b8ff" points="447.29,-210.9 445.7,-216.15 446.45,-211.87 444,-214.67 444,-214.67 444,-214.67 446.45,-211.87 442.31,-213.19 447.29,-210.9"/>
</a>
</g>
</g>
<!-- Node4 -->
<g id="Node000004" class="node">
<title>Node4</title>
<g id="a_Node000004"><a xlink:href="../../d5/d88/classnpi_1_1_link_weak_host.html#ab53c1be34e14f8fef67da76cf7de7d2d" target="_top" xlink:title="Default move constructor.">
<polygon fill="white" stroke="none" points="308,-313.86 178,-313.86 178,-283.36 308,-283.36 308,-313.86"/>
<text xml:space="preserve" text-anchor="start" x="186" y="-299.41" font-family="Consolas" font-size="11.00">npi::LinkWeakHost::</text>
<text xml:space="preserve" text-anchor="middle" x="243" y="-288.16" font-family="Consolas" font-size="11.00">LinkWeakHost</text>
</a>
</g>
</g>
<!-- Node1&#45;&gt;Node4 -->
<g id="edge3_Node000001_Node000004" class="edge">
<title>Node1&#45;&gt;Node4</title>
<g id="a_edge3_Node000001_Node000004"><a xlink:title=" ">
<path fill="none" stroke="#63b8ff" d="M435.26,-213.22C409.07,-228.8 362.31,-255.46 320,-273.61 311.83,-277.11 303,-280.43 294.34,-283.43"/>
<polygon fill="#63b8ff" stroke="#63b8ff" points="439.49,-210.7 436.35,-215.19 438.39,-211.36 435.19,-213.26 435.19,-213.26 435.19,-213.26 438.39,-211.36 434.04,-211.33 439.49,-210.7"/>
</a>
</g>
</g>
<!-- Node5 -->
<g id="Node000005" class="node">
<title>Node5</title>
<g id="a_Node000005"><a xlink:href="../../d5/d88/classnpi_1_1_link_weak_host.html#a62d7390ae25239de5f1b094811796ae2" target="_top" xlink:title="Default destructor.">
<polygon fill="white" stroke="none" points="308,-264.86 178,-264.86 178,-234.36 308,-234.36 308,-264.86"/>
<text xml:space="preserve" text-anchor="start" x="186" y="-250.41" font-family="Consolas" font-size="11.00">npi::LinkWeakHost::</text>
<text xml:space="preserve" text-anchor="middle" x="243" y="-239.16" font-family="Consolas" font-size="11.00">~LinkWeakHost</text>
</a>
</g>
</g>
<!-- Node1&#45;&gt;Node5 -->
<g id="edge4_Node000001_Node000005" class="edge">
<title>Node1&#45;&gt;Node5</title>
<g id="a_edge4_Node000001_Node000005"><a xlink:title=" ">
<path fill="none" stroke="#63b8ff" d="M408.54,-211.58C378.79,-218.46 340.07,-227.4 307.67,-234.89"/>
<polygon fill="#63b8ff" stroke="#63b8ff" points="413.18,-210.51 408.82,-213.82 411.93,-210.8 408.31,-211.63 408.31,-211.63 408.31,-211.63 411.93,-210.8 407.8,-209.44 413.18,-210.51"/>
</a>
</g>
</g>
<!-- Node6 -->
<g id="Node000006" class="node">
<title>Node6</title>
<g id="a_Node000006"><a xlink:href="../../d5/d88/classnpi_1_1_link_weak_host.html#aa11a3a6602cf4f7dce11f463d29e4e9b" target="_top" xlink:title="Assign a LinkHost to this LinkWeakHost.">
<polygon fill="white" stroke="none" points="308,-215.86 178,-215.86 178,-185.36 308,-185.36 308,-215.86"/>
<text xml:space="preserve" text-anchor="start" x="186" y="-201.41" font-family="Consolas" font-size="11.00">npi::LinkWeakHost::</text>
<text xml:space="preserve" text-anchor="middle" x="243" y="-190.16" font-family="Consolas" font-size="11.00">operator=</text>
</a>
</g>
</g>
<!-- Node1&#45;&gt;Node6 -->
<g id="edge5_Node000001_Node000006" class="edge">
<title>Node1&#45;&gt;Node6</title>
<g id="a_edge5_Node000001_Node000006"><a xlink:title=" ">
<path fill="none" stroke="#63b8ff" d="M350.04,-200.61C335.64,-200.61 321.24,-200.61 307.9,-200.61"/>
<polygon fill="#63b8ff" stroke="#63b8ff" points="354.99,-200.61 349.99,-202.86 353.71,-200.61 349.99,-200.61 349.99,-200.61 349.99,-200.61 353.71,-200.61 349.99,-198.36 354.99,-200.61"/>
</a>
</g>
</g>
<!-- Node7 -->
<g id="Node000007" class="node">
<title>Node7</title>
<g id="a_Node000007"><a xlink:href="../../d5/d88/classnpi_1_1_link_weak_host.html#aa319b9956a4b28c207688378e371605a" target="_top" xlink:title="Default copy assignment operator.">
<polygon fill="white" stroke="none" points="308,-166.86 178,-166.86 178,-136.36 308,-136.36 308,-166.86"/>
<text xml:space="preserve" text-anchor="start" x="186" y="-152.41" font-family="Consolas" font-size="11.00">npi::LinkWeakHost::</text>
<text xml:space="preserve" text-anchor="middle" x="243" y="-141.16" font-family="Consolas" font-size="11.00">operator=</text>
</a>
</g>
</g>
<!-- Node1&#45;&gt;Node7 -->
<g id="edge6_Node000001_Node000007" class="edge">
<title>Node1&#45;&gt;Node7</title>
<g id="a_edge6_Node000001_Node000007"><a xlink:title=" ">
<path fill="none" stroke="#63b8ff" d="M408.54,-189.64C378.79,-182.76 340.07,-173.82 307.67,-166.33"/>
<polygon fill="#63b8ff" stroke="#63b8ff" points="413.18,-190.71 407.8,-191.78 411.93,-190.42 408.31,-189.59 408.31,-189.59 408.31,-189.59 411.93,-190.42 408.82,-187.39 413.18,-190.71"/>
</a>
</g>
</g>
<!-- Node8 -->
<g id="Node000008" class="node">
<title>Node8</title>
<g id="a_Node000008"><a xlink:href="../../d5/d88/classnpi_1_1_link_weak_host.html#a019c9ff1bc31d4b993e72988f596f02e" target="_top" xlink:title="Default move assignment operator.">
<polygon fill="white" stroke="none" points="308,-117.86 178,-117.86 178,-87.36 308,-87.36 308,-117.86"/>
<text xml:space="preserve" text-anchor="start" x="186" y="-103.41" font-family="Consolas" font-size="11.00">npi::LinkWeakHost::</text>
<text xml:space="preserve" text-anchor="middle" x="243" y="-92.16" font-family="Consolas" font-size="11.00">operator=</text>
</a>
</g>
</g>
<!-- Node1&#45;&gt;Node8 -->
<g id="edge7_Node000001_Node000008" class="edge">
<title>Node1&#45;&gt;Node8</title>
<g id="a_edge7_Node000001_Node000008"><a xlink:title=" ">
<path fill="none" stroke="#63b8ff" d="M435.26,-188C409.07,-172.42 362.31,-145.76 320,-127.61 311.83,-124.11 303,-120.79 294.34,-117.79"/>
<polygon fill="#63b8ff" stroke="#63b8ff" points="439.49,-190.52 434.04,-189.89 438.39,-189.86 435.19,-187.96 435.19,-187.96 435.19,-187.96 438.39,-189.86 436.35,-186.03 439.49,-190.52"/>
</a>
</g>
</g>
<!-- Node9 -->
<g id="Node000009" class="node">
<title>Node9</title>
<g id="a_Node000009"><a xlink:href="../../d5/d88/classnpi_1_1_link_weak_host.html#aea47a0d52c6f7824c422799b921ae993" target="_top" xlink:title="Friend swap to exchange two LinkWeakHost instances.">
<polygon fill="white" stroke="none" points="320,-51.23 166,-51.23 166,-31.98 320,-31.98 320,-51.23"/>
<text xml:space="preserve" text-anchor="middle" x="243" y="-36.78" font-family="Consolas" font-size="11.00">npi::LinkWeakHost::swap</text>
</a>
</g>
</g>
<!-- Node1&#45;&gt;Node9 -->
<g id="edge8_Node000001_Node000009" class="edge">
<title>Node1&#45;&gt;Node9</title>
<g id="a_edge8_Node000001_Node000009"><a xlink:title=" ">
<path fill="none" stroke="#63b8ff" d="M442.95,-186.57C419.87,-162.32 369.6,-111.97 320,-78.61 303.56,-67.55 283.33,-57.87 267.87,-51.18"/>
<polygon fill="#63b8ff" stroke="#63b8ff" points="446.35,-190.18 441.28,-188.09 445.47,-189.25 442.92,-186.54 442.92,-186.54 442.92,-186.54 445.47,-189.25 444.55,-185 446.35,-190.18"/>
</a>
</g>
</g>
<!-- Node10 -->
<g id="Node000010" class="node">
<title>Node10</title>
<g id="a_Node000010"><a xlink:href="../../d5/d88/classnpi_1_1_link_weak_host.html#a6e37b8461b4d58b0da5d7a3268553d0e" target="_top" xlink:title="Member swap function.">
<polygon fill="white" stroke="none" points="130,-37.86 0,-37.86 0,-7.36 130,-7.36 130,-37.86"/>
<text xml:space="preserve" text-anchor="start" x="8" y="-23.41" font-family="Consolas" font-size="11.00">npi::LinkWeakHost::</text>
<text xml:space="preserve" text-anchor="middle" x="65" y="-12.16" font-family="Consolas" font-size="11.00">swap_</text>
</a>
</g>
</g>
<!-- Node1&#45;&gt;Node10 -->
<g id="edge11_Node000001_Node000010" class="edge">
<title>Node1&#45;&gt;Node10</title>
<g id="a_edge11_Node000001_Node000010"><a xlink:title=" ">
<path fill="none" stroke="#63b8ff" d="M450.08,-185.51C434.92,-149.24 390.85,-57.64 320,-22.61 260.61,6.76 183.44,1.65 129.81,-7.58"/>
<polygon fill="#63b8ff" stroke="#63b8ff" points="451.96,-190.1 447.98,-186.32 451.47,-188.91 450.06,-185.47 450.06,-185.47 450.06,-185.47 451.47,-188.91 452.15,-184.62 451.96,-190.1"/>
</a>
</g>
</g>
<!-- Node9&#45;&gt;Node9 -->
<g id="edge9_Node000009_Node000009" class="edge">
<title>Node9&#45;&gt;Node9</title>
<g id="a_edge9_Node000009_Node000009"><a xlink:title=" ">
<path fill="none" stroke="#63b8ff" d="M274.53,-54.67C281,-62.21 270.49,-69.23 243,-69.23 211.02,-69.23 202.02,-59.72 216.01,-50.95"/>
<polygon fill="#63b8ff" stroke="#63b8ff" points="270.93,-51.72 276.22,-53.15 271.92,-52.53 274.8,-54.89 274.8,-54.89 274.8,-54.89 271.92,-52.53 273.37,-56.63 270.93,-51.72"/>
</a>
</g>
</g>
<!-- Node9&#45;&gt;Node10 -->
<g id="edge10_Node000009_Node000010" class="edge">
<title>Node9&#45;&gt;Node10</title>
<g id="a_edge10_Node000009_Node000010"><a xlink:title=" ">
<path fill="none" stroke="#63b8ff" d="M160.11,-32.77C149.93,-31.67 139.65,-30.56 129.81,-29.5"/>
<polygon fill="#63b8ff" stroke="#63b8ff" points="164.87,-33.28 159.66,-34.98 163.6,-33.15 159.9,-32.75 159.9,-32.75 159.9,-32.75 163.6,-33.15 160.14,-30.51 164.87,-33.28"/>
</a>
</g>
</g>
</g>
</svg>

<g id="navigator" transform="translate(0 0)" fill="#404254">
  <rect fill="#f2f5e9" fill-opacity="0.5" stroke="#606060" stroke-width=".5" x="0" y="0" width="60" height="60"/>
  <use id="zoomplus" xlink:href="#zoomPlus" x="17" y="9" onmousedown="handleZoom(evt,'in')"/>
  <use id="zoomminus" xlink:href="#zoomMin" x="42" y="9" onmousedown="handleZoom(evt,'out')"/>
  <use id="reset" xlink:href="#resetDef" x="30" y="36" onmousedown="handleReset()"/>
   <use id="arrowup" xlink:href="#arrowUp" x="0" y="0" onmousedown="handlePan(0,-1)"/>
  <use id="arrowright" xlink:href="#arrowRight" x="0" y="0" onmousedown="handlePan(1,0)"/>
  <use id="arrowdown" xlink:href="#arrowDown" x="0" y="0" onmousedown="handlePan(0,1)"/>
  <use id="arrowleft" xlink:href="#arrowLeft" x="0" y="0" onmousedown="handlePan(-1,0)"/>
</g>
<svg viewBox="0 0 15 15" width="100%" height="30px" preserveAspectRatio="xMaxYMin meet">
 <g id="arrow_out" transform="scale(0.3 0.3)">
  <a xlink:href="classnpi_1_1_link_weak_host_aa4e14ec80728e51f687eaa54f028ae91_icgraph_org.svg" target="_base">
   <rect id="button" ry="5" rx="5" y="6" x="6" height="38" width="38"
        fill="#f2f5e9" fill-opacity="0.5" stroke="#606060" stroke-width="1.0"/>
   <path id="arrow"
     d="M 11.500037,31.436501 C 11.940474,20.09759 22.043105,11.32322 32.158766,21.979434 L 37.068811,17.246167 C 37.068811,17.246167 37.088388,32 37.088388,32 L 22.160133,31.978069 C 22.160133,31.978069 26.997745,27.140456 26.997745,27.140456 C 18.528582,18.264221 13.291696,25.230495 11.500037,31.436501 z"
     style="fill:#404040;"/>
  </a>
 </g>
</svg>

<style type='text/css'>
<![CDATA[
[data-mouse-over-selected='false'] { opacity: 0.7; }
[data-mouse-over-selected='true']  { opacity: 1.0; }
]]>
</style>
<script type="application/ecmascript"><![CDATA[
document.addEventListener('DOMContentLoaded', (event) => {
  highlightEdges();
  highlightAdjacentNodes();
});
]]></script>
</svg>
