<?xml version="1.0" encoding="UTF-8" standalone="no"?>
<!DOCTYPE svg PUBLIC "-//W3C//DTD SVG 1.1//EN"
 "http://www.w3.org/Graphics/SVG/1.1/DTD/svg11.dtd">
<!-- Generated by graphviz version 14.0.0 (20250921.2048)
 -->
<!-- Title: npi::TextSpec Pages: 1 -->
<!--zoomable 357 -->

<svg id="main" version="1.1" xmlns="http://www.w3.org/2000/svg" xmlns:xlink="http://www.w3.org/1999/xlink" xml:space="preserve" onload="init(evt)">

<style type="text/css"><![CDATA[
.node, .edge {opacity: 0.7;}
.node.selected, .edge.selected {opacity: 1;}
.edge:hover path { stroke: red; }
.edge:hover polygon { stroke: red; fill: red; }
]]></style>

<defs>
  <circle id="rim" cx="0" cy="0" r="7"/>
  <circle id="rim2" cx="0" cy="0" r="3.5"/>
  <g id="zoomPlus">
    <use xlink:href="#rim" fill="#404040"><set attributeName="fill" to="#808080" begin="zoomplus.mouseover" end="zoomplus.mouseout"/></use>
    <path d="M-4,0h8M0,-4v8" fill="none" stroke="white" stroke-width="1.5" pointer-events="none"/>
  </g>
  <g id="zoomMin">
    <use xlink:href="#rim" fill="#404040"><set attributeName="fill" to="#808080" begin="zoomminus.mouseover" end="zoomminus.mouseout"/></use>
    <path d="M-4,0h8" fill="none" stroke="white" stroke-width="1.5" pointer-events="none"/>
  </g>
  <g id="arrowUp" transform="translate(30 24)">
    <use xlink:href="#rim"/>
    <path pointer-events="none" fill="none" stroke="white" stroke-width="1.5" d="M0,-3.0v7 M-2.5,-0.5L0,-3.0L2.5,-0.5"/>
  </g>
  <g id="arrowRight" transform="rotate(90) translate(36 -43)">
    <use xlink:href="#rim"/>
    <path pointer-events="none" fill="none" stroke="white" stroke-width="1.5" d="M0,-3.0v7 M-2.5,-0.5L0,-3.0L2.5,-0.5"/>
  </g>
  <g id="arrowDown" transform="rotate(180) translate(-30 -48)">
    <use xlink:href="#rim"/>
    <path pointer-events="none" fill="none" stroke="white" stroke-width="1.5" d="M0,-3.0v7 M-2.5,-0.5L0,-3.0L2.5,-0.5"/>
  </g>
  <g id="arrowLeft" transform="rotate(270) translate(-36 17)">
    <use xlink:href="#rim"/>
    <path pointer-events="none" fill="none" stroke="white" stroke-width="1.5" d="M0,-3.0v7 M-2.5,-0.5L0,-3.0L2.5,-0.5"/>
  </g>
  <g id="resetDef">
    <use xlink:href="#rim2" fill="#404040"><set attributeName="fill" to="#808080" begin="reset.mouseover" end="reset.mouseout"/></use>
  </g>
</defs>
<script type="application/ecmascript">
var viewWidth = 610;
var viewHeight = 357;
var sectionId = 'dynsection-0';
</script>
<script type="application/ecmascript" xlink:href="../../svg.min.js"/>
<svg id="graph" class="graph">
<g id="viewport">
<title>npi::TextSpec</title>
<!-- Node1 -->
<g id="Node000001" class="node">
<title>Node1</title>
<g id="a_Node000001"><a xlink:title="Thread&#45;safe font utility with style, sizing, and caching.">
<polygon fill="#999999" stroke="none" points="602.25,-132.88 508.25,-132.88 508.25,-113.62 602.25,-113.62 602.25,-132.88"/>
<text xml:space="preserve" text-anchor="start" x="516.25" y="-119.42" font-family="Consolas" font-weight="bold" font-size="11.00">npi::TextSpec</text>
</a>
</g>
</g>
<!-- Node2 -->
<g id="Node000002" class="node">
<title>Node2</title>
<g id="a_Node000002"><a xlink:href="../../d6/de2/structnpi_1_1_text_spec_1_1_style.html" target="_top" xlink:title="Object for styling flags and capitalization mode for fonts.">
<polygon fill="white" stroke="none" points="374.75,-269.88 238.75,-269.88 238.75,-250.62 374.75,-250.62 374.75,-269.88"/>
<text xml:space="preserve" text-anchor="middle" x="306.75" y="-255.43" font-family="Consolas" font-size="11.00">npi::TextSpec::Style</text>
</a>
</g>
</g>
<!-- Node2&#45;&gt;Node1 -->
<g id="edge1_Node000001_Node000002" class="edge">
<title>Node2&#45;&gt;Node1</title>
<g id="a_edge1_Node000001_Node000002"><a xlink:title=" ">
<path fill="none" stroke="#9a32cd" stroke-dasharray="5,2" d="M380.57,-264.76C416.32,-263.57 458.43,-256.73 490.25,-235.25 527.74,-209.94 545.91,-154.84 551.91,-132.72"/>
<polygon fill="#9a32cd" stroke="#9a32cd" points="375.65,-264.89 380.59,-262.51 376.93,-264.85 380.64,-264.76 380.64,-264.76 380.64,-264.76 376.93,-264.85 380.7,-267.01 375.65,-264.89"/>
</a>
</g>
<text xml:space="preserve" text-anchor="start" x="434.75" y="-266.31" font-family="Consolas" font-size="10.00" fill="grey">style_</text>
</g>
<!-- Node3 -->
<g id="Node000003" class="node">
<title>Node3</title>
<g id="a_Node000003"><a xlink:title=" ">
<polygon fill="white" stroke="none" points="70,-289.88 30,-289.88 30,-270.62 70,-270.62 70,-289.88"/>
<text xml:space="preserve" text-anchor="middle" x="50" y="-275.43" font-family="Consolas" font-size="11.00">bool</text>
</a>
</g>
</g>
<!-- Node3&#45;&gt;Node2 -->
<g id="edge2_Node000002_Node000003" class="edge">
<title>Node3&#45;&gt;Node2</title>
<g id="a_edge2_Node000002_Node000003"><a xlink:title=" ">
<path fill="none" stroke="#9a32cd" stroke-dasharray="5,2" d="M75.87,-278.3C113.3,-275.36 185.43,-269.7 238.95,-265.49"/>
<polygon fill="#9a32cd" stroke="#9a32cd" points="70.95,-278.68 75.76,-276.05 72.22,-278.58 75.93,-278.29 75.93,-278.29 75.93,-278.29 72.22,-278.58 76.11,-280.54 70.95,-278.68"/>
</a>
</g>
<text xml:space="preserve" text-anchor="start" x="134.12" y="-336.89" font-family="Consolas" font-size="10.00" fill="grey">bold_</text>
<text xml:space="preserve" text-anchor="start" x="134.12" y="-322.39" font-family="Consolas" font-size="10.00" fill="grey">italic_</text>
<text xml:space="preserve" text-anchor="start" x="134.12" y="-307.89" font-family="Consolas" font-size="10.00" fill="grey">overline_</text>
<text xml:space="preserve" text-anchor="start" x="134.12" y="-293.39" font-family="Consolas" font-size="10.00" fill="grey">strikeout_</text>
<text xml:space="preserve" text-anchor="start" x="134.12" y="-278.89" font-family="Consolas" font-size="10.00" fill="grey">underline_</text>
</g>
<!-- Node4 -->
<g id="Node000004" class="node">
<title>Node4</title>
<g id="a_Node000004"><a xlink:title=" ">
<polygon fill="white" stroke="none" points="100,-249.88 0,-249.88 0,-230.62 100,-230.62 100,-249.88"/>
<text xml:space="preserve" text-anchor="middle" x="50" y="-235.43" font-family="Consolas" font-size="11.00">Capitalization</text>
</a>
</g>
</g>
<!-- Node4&#45;&gt;Node2 -->
<g id="edge3_Node000002_Node000004" class="edge">
<title>Node4&#45;&gt;Node2</title>
<g id="a_edge3_Node000002_Node000004"><a xlink:title=" ">
<path fill="none" stroke="#9a32cd" stroke-dasharray="5,2" d="M105.97,-242.02C134.82,-243.19 170.73,-245.02 202.75,-247.75 214.42,-248.74 226.8,-250.04 238.78,-251.42"/>
<polygon fill="#9a32cd" stroke="#9a32cd" points="101.14,-241.83 106.23,-239.78 102.42,-241.88 106.14,-242.03 106.14,-242.03 106.14,-242.03 102.42,-241.88 106.05,-244.28 101.14,-241.83"/>
</a>
</g>
<text xml:space="preserve" text-anchor="start" x="121" y="-251.75" font-family="Consolas" font-size="10.00" fill="grey">capitalization_</text>
</g>
<!-- Node5 -->
<g id="Node000005" class="node">
<title>Node5</title>
<g id="a_Node000005"><a xlink:title=" ">
<polygon fill="white" stroke="none" points="323.75,-186.88 289.75,-186.88 289.75,-167.62 323.75,-167.62 323.75,-186.88"/>
<text xml:space="preserve" text-anchor="middle" x="306.75" y="-172.43" font-family="Consolas" font-size="11.00">int</text>
</a>
</g>
</g>
<!-- Node5&#45;&gt;Node1 -->
<g id="edge4_Node000001_Node000005" class="edge">
<title>Node5&#45;&gt;Node1</title>
<g id="a_edge4_Node000001_Node000005"><a xlink:title=" ">
<path fill="none" stroke="#9a32cd" stroke-dasharray="5,2" d="M329.83,-177.01C364.66,-176.1 434.14,-172.1 490.25,-155.25 507.74,-150 526.25,-140.23 538.83,-132.86"/>
<polygon fill="#9a32cd" stroke="#9a32cd" points="324.96,-177.12 329.91,-174.76 326.25,-177.09 329.96,-177.01 329.96,-177.01 329.96,-177.01 326.25,-177.09 330.01,-179.26 324.96,-177.12"/>
</a>
</g>
<text xml:space="preserve" text-anchor="start" x="419" y="-218.5" font-family="Consolas" font-size="10.00" fill="grey">AppFontSize_</text>
<text xml:space="preserve" text-anchor="start" x="419" y="-204" font-family="Consolas" font-size="10.00" fill="grey">FixFontSize_</text>
<text xml:space="preserve" text-anchor="start" x="419" y="-189.5" font-family="Consolas" font-size="10.00" fill="grey">absSize_</text>
<text xml:space="preserve" text-anchor="start" x="419" y="-175" font-family="Consolas" font-size="10.00" fill="grey">relSize_</text>
</g>
<!-- Node6 -->
<g id="Node000006" class="node">
<title>Node6</title>
<g id="a_Node000006"><a xlink:title=" ">
<polygon fill="white" stroke="none" points="353.75,-132.88 259.75,-132.88 259.75,-113.62 353.75,-113.62 353.75,-132.88"/>
<text xml:space="preserve" text-anchor="middle" x="306.75" y="-118.42" font-family="Consolas" font-size="11.00">static QMutex</text>
</a>
</g>
</g>
<!-- Node6&#45;&gt;Node1 -->
<g id="edge5_Node000001_Node000006" class="edge">
<title>Node6&#45;&gt;Node1</title>
<g id="a_edge5_Node000001_Node000006"><a xlink:title=" ">
<path fill="none" stroke="#9a32cd" stroke-dasharray="5,2" d="M359.62,-123.25C403.6,-123.25 466.08,-123.25 508.29,-123.25"/>
<polygon fill="#9a32cd" stroke="#9a32cd" points="354.76,-123.25 359.76,-121 356.04,-123.25 359.76,-123.25 359.76,-123.25 359.76,-123.25 356.04,-123.25 359.76,-125.5 354.76,-123.25"/>
</a>
</g>
<text xml:space="preserve" text-anchor="start" x="416.38" y="-141.75" font-family="Consolas" font-size="10.00" fill="grey">AppFontMutex_</text>
<text xml:space="preserve" text-anchor="start" x="416.38" y="-127.25" font-family="Consolas" font-size="10.00" fill="grey">FixFontMutex_</text>
</g>
<!-- Node7 -->
<g id="Node000007" class="node">
<title>Node7</title>
<g id="a_Node000007"><a xlink:title=" ">
<polygon fill="white" stroke="none" points="350.75,-78.88 262.75,-78.88 262.75,-59.62 350.75,-59.62 350.75,-78.88"/>
<text xml:space="preserve" text-anchor="middle" x="306.75" y="-64.42" font-family="Consolas" font-size="11.00">static QFont</text>
</a>
</g>
</g>
<!-- Node7&#45;&gt;Node1 -->
<g id="edge6_Node000001_Node000007" class="edge">
<title>Node7&#45;&gt;Node1</title>
<g id="a_edge6_Node000001_Node000007"><a xlink:title=" ">
<path fill="none" stroke="#9a32cd" stroke-dasharray="5,2" d="M356.61,-69.13C393.98,-70.28 446.37,-74.58 490.25,-88.25 508.87,-94.05 528.25,-105.54 540.73,-113.77"/>
<polygon fill="#9a32cd" stroke="#9a32cd" points="351.97,-69.01 357.03,-66.9 353.25,-69.04 356.96,-69.14 356.96,-69.14 356.96,-69.14 353.25,-69.04 356.9,-71.39 351.97,-69.01"/>
</a>
</g>
<text xml:space="preserve" text-anchor="start" x="429.5" y="-106.75" font-family="Consolas" font-size="10.00" fill="grey">AppFont_</text>
<text xml:space="preserve" text-anchor="start" x="429.5" y="-92.25" font-family="Consolas" font-size="10.00" fill="grey">FixFont_</text>
</g>
<!-- Node8 -->
<g id="Node000008" class="node">
<title>Node8</title>
<g id="a_Node000008"><a xlink:title=" ">
<polygon fill="white" stroke="none" points="392.75,-30.5 220.75,-30.5 220.75,0 392.75,0 392.75,-30.5"/>
<text xml:space="preserve" text-anchor="start" x="228.75" y="-16.05" font-family="Consolas" font-size="11.00">static QHash&lt; size</text>
<text xml:space="preserve" text-anchor="middle" x="306.75" y="-4.8" font-family="Consolas" font-size="11.00">_t, npi::TextSpec::Group &gt;</text>
</a>
</g>
</g>
<!-- Node8&#45;&gt;Node1 -->
<g id="edge7_Node000001_Node000008" class="edge">
<title>Node8&#45;&gt;Node1</title>
<g id="a_edge7_Node000001_Node000008"><a xlink:title=" ">
<path fill="none" stroke="#9a32cd" stroke-dasharray="5,2" d="M398.71,-12.71C429.47,-15.37 462.92,-22.41 490.25,-38.25 521.25,-56.22 542.02,-95.77 550.26,-113.87"/>
<polygon fill="#9a32cd" stroke="#9a32cd" points="393.81,-12.33 398.97,-10.47 395.08,-12.42 398.79,-12.71 398.79,-12.71 398.79,-12.71 395.08,-12.42 398.62,-14.96 393.81,-12.33"/>
</a>
</g>
<text xml:space="preserve" text-anchor="start" x="413.75" y="-56.75" font-family="Consolas" font-size="10.00" fill="grey">AppGroupCache_</text>
<text xml:space="preserve" text-anchor="start" x="413.75" y="-42.25" font-family="Consolas" font-size="10.00" fill="grey">FixGroupCache_</text>
</g>
</g>
</svg>

<g id="navigator" transform="translate(0 0)" fill="#404254">
  <rect fill="#f2f5e9" fill-opacity="0.5" stroke="#606060" stroke-width=".5" x="0" y="0" width="60" height="60"/>
  <use id="zoomplus" xlink:href="#zoomPlus" x="17" y="9" onmousedown="handleZoom(evt,'in')"/>
  <use id="zoomminus" xlink:href="#zoomMin" x="42" y="9" onmousedown="handleZoom(evt,'out')"/>
  <use id="reset" xlink:href="#resetDef" x="30" y="36" onmousedown="handleReset()"/>
   <use id="arrowup" xlink:href="#arrowUp" x="0" y="0" onmousedown="handlePan(0,-1)"/>
  <use id="arrowright" xlink:href="#arrowRight" x="0" y="0" onmousedown="handlePan(1,0)"/>
  <use id="arrowdown" xlink:href="#arrowDown" x="0" y="0" onmousedown="handlePan(0,1)"/>
  <use id="arrowleft" xlink:href="#arrowLeft" x="0" y="0" onmousedown="handlePan(-1,0)"/>
</g>
<svg viewBox="0 0 15 15" width="100%" height="30px" preserveAspectRatio="xMaxYMin meet">
 <g id="arrow_out" transform="scale(0.3 0.3)">
  <a xlink:href="classnpi_1_1_text_spec__coll__graph_org.svg" target="_base">
   <rect id="button" ry="5" rx="5" y="6" x="6" height="38" width="38"
        fill="#f2f5e9" fill-opacity="0.5" stroke="#606060" stroke-width="1.0"/>
   <path id="arrow"
     d="M 11.500037,31.436501 C 11.940474,20.09759 22.043105,11.32322 32.158766,21.979434 L 37.068811,17.246167 C 37.068811,17.246167 37.088388,32 37.088388,32 L 22.160133,31.978069 C 22.160133,31.978069 26.997745,27.140456 26.997745,27.140456 C 18.528582,18.264221 13.291696,25.230495 11.500037,31.436501 z"
     style="fill:#404040;"/>
  </a>
 </g>
</svg>

<style type='text/css'>
<![CDATA[
[data-mouse-over-selected='false'] { opacity: 0.7; }
[data-mouse-over-selected='true']  { opacity: 1.0; }
]]>
</style>
<script type="application/ecmascript"><![CDATA[
document.addEventListener('DOMContentLoaded', (event) => {
  highlightEdges();
  highlightAdjacentNodes();
});
]]></script>
</svg>
