<?xml version="1.0" encoding="UTF-8" standalone="no"?>
<!DOCTYPE svg PUBLIC "-//W3C//DTD SVG 1.1//EN"
 "http://www.w3.org/Graphics/SVG/1.1/DTD/svg11.dtd">
<!-- Generated by graphviz version 14.0.0 (20250921.2048)
 -->
<!-- Title: npi::TextSpec Pages: 1 -->
<svg width="610pt" height="357pt"
 viewBox="0.00 0.00 610.00 357.00" xmlns="http://www.w3.org/2000/svg" xmlns:xlink="http://www.w3.org/1999/xlink">
<g id="graph0" class="graph" transform="scale(1 1) rotate(0) translate(4 353.39)">
<title>npi::TextSpec</title>
<!-- Node1 -->
<g id="Node000001" class="node">
<title>Node1</title>
<g id="a_Node000001"><a xlink:title="Thread&#45;safe font utility with style, sizing, and caching.">
<polygon fill="#999999" stroke="none" points="602.25,-132.88 508.25,-132.88 508.25,-113.62 602.25,-113.62 602.25,-132.88"/>
<text xml:space="preserve" text-anchor="start" x="516.25" y="-119.42" font-family="Consolas" font-weight="bold" font-size="11.00">npi::TextSpec</text>
</a>
</g>
</g>
<!-- Node2 -->
<g id="Node000002" class="node">
<title>Node2</title>
<g id="a_Node000002"><a xlink:href="../../d6/de2/structnpi_1_1_text_spec_1_1_style.html" target="_top" xlink:title="Object for styling flags and capitalization mode for fonts.">
<polygon fill="white" stroke="none" points="374.75,-269.88 238.75,-269.88 238.75,-250.62 374.75,-250.62 374.75,-269.88"/>
<text xml:space="preserve" text-anchor="middle" x="306.75" y="-255.43" font-family="Consolas" font-size="11.00">npi::TextSpec::Style</text>
</a>
</g>
</g>
<!-- Node2&#45;&gt;Node1 -->
<g id="edge1_Node000001_Node000002" class="edge">
<title>Node2&#45;&gt;Node1</title>
<g id="a_edge1_Node000001_Node000002"><a xlink:title=" ">
<path fill="none" stroke="#9a32cd" stroke-dasharray="5,2" d="M380.57,-264.76C416.32,-263.57 458.43,-256.73 490.25,-235.25 527.74,-209.94 545.91,-154.84 551.91,-132.72"/>
<polygon fill="#9a32cd" stroke="#9a32cd" points="375.65,-264.89 380.59,-262.51 376.93,-264.85 380.64,-264.76 380.64,-264.76 380.64,-264.76 376.93,-264.85 380.7,-267.01 375.65,-264.89"/>
</a>
</g>
<text xml:space="preserve" text-anchor="start" x="434.75" y="-266.31" font-family="Consolas" font-size="10.00" fill="grey">style_</text>
</g>
<!-- Node3 -->
<g id="Node000003" class="node">
<title>Node3</title>
<g id="a_Node000003"><a xlink:title=" ">
<polygon fill="white" stroke="none" points="70,-289.88 30,-289.88 30,-270.62 70,-270.62 70,-289.88"/>
<text xml:space="preserve" text-anchor="middle" x="50" y="-275.43" font-family="Consolas" font-size="11.00">bool</text>
</a>
</g>
</g>
<!-- Node3&#45;&gt;Node2 -->
<g id="edge2_Node000002_Node000003" class="edge">
<title>Node3&#45;&gt;Node2</title>
<g id="a_edge2_Node000002_Node000003"><a xlink:title=" ">
<path fill="none" stroke="#9a32cd" stroke-dasharray="5,2" d="M75.87,-278.3C113.3,-275.36 185.43,-269.7 238.95,-265.49"/>
<polygon fill="#9a32cd" stroke="#9a32cd" points="70.95,-278.68 75.76,-276.05 72.22,-278.58 75.93,-278.29 75.93,-278.29 75.93,-278.29 72.22,-278.58 76.11,-280.54 70.95,-278.68"/>
</a>
</g>
<text xml:space="preserve" text-anchor="start" x="134.12" y="-336.89" font-family="Consolas" font-size="10.00" fill="grey">bold_</text>
<text xml:space="preserve" text-anchor="start" x="134.12" y="-322.39" font-family="Consolas" font-size="10.00" fill="grey">italic_</text>
<text xml:space="preserve" text-anchor="start" x="134.12" y="-307.89" font-family="Consolas" font-size="10.00" fill="grey">overline_</text>
<text xml:space="preserve" text-anchor="start" x="134.12" y="-293.39" font-family="Consolas" font-size="10.00" fill="grey">strikeout_</text>
<text xml:space="preserve" text-anchor="start" x="134.12" y="-278.89" font-family="Consolas" font-size="10.00" fill="grey">underline_</text>
</g>
<!-- Node4 -->
<g id="Node000004" class="node">
<title>Node4</title>
<g id="a_Node000004"><a xlink:title=" ">
<polygon fill="white" stroke="none" points="100,-249.88 0,-249.88 0,-230.62 100,-230.62 100,-249.88"/>
<text xml:space="preserve" text-anchor="middle" x="50" y="-235.43" font-family="Consolas" font-size="11.00">Capitalization</text>
</a>
</g>
</g>
<!-- Node4&#45;&gt;Node2 -->
<g id="edge3_Node000002_Node000004" class="edge">
<title>Node4&#45;&gt;Node2</title>
<g id="a_edge3_Node000002_Node000004"><a xlink:title=" ">
<path fill="none" stroke="#9a32cd" stroke-dasharray="5,2" d="M105.97,-242.02C134.82,-243.19 170.73,-245.02 202.75,-247.75 214.42,-248.74 226.8,-250.04 238.78,-251.42"/>
<polygon fill="#9a32cd" stroke="#9a32cd" points="101.14,-241.83 106.23,-239.78 102.42,-241.88 106.14,-242.03 106.14,-242.03 106.14,-242.03 102.42,-241.88 106.05,-244.28 101.14,-241.83"/>
</a>
</g>
<text xml:space="preserve" text-anchor="start" x="121" y="-251.75" font-family="Consolas" font-size="10.00" fill="grey">capitalization_</text>
</g>
<!-- Node5 -->
<g id="Node000005" class="node">
<title>Node5</title>
<g id="a_Node000005"><a xlink:title=" ">
<polygon fill="white" stroke="none" points="323.75,-186.88 289.75,-186.88 289.75,-167.62 323.75,-167.62 323.75,-186.88"/>
<text xml:space="preserve" text-anchor="middle" x="306.75" y="-172.43" font-family="Consolas" font-size="11.00">int</text>
</a>
</g>
</g>
<!-- Node5&#45;&gt;Node1 -->
<g id="edge4_Node000001_Node000005" class="edge">
<title>Node5&#45;&gt;Node1</title>
<g id="a_edge4_Node000001_Node000005"><a xlink:title=" ">
<path fill="none" stroke="#9a32cd" stroke-dasharray="5,2" d="M329.83,-177.01C364.66,-176.1 434.14,-172.1 490.25,-155.25 507.74,-150 526.25,-140.23 538.83,-132.86"/>
<polygon fill="#9a32cd" stroke="#9a32cd" points="324.96,-177.12 329.91,-174.76 326.25,-177.09 329.96,-177.01 329.96,-177.01 329.96,-177.01 326.25,-177.09 330.01,-179.26 324.96,-177.12"/>
</a>
</g>
<text xml:space="preserve" text-anchor="start" x="419" y="-218.5" font-family="Consolas" font-size="10.00" fill="grey">AppFontSize_</text>
<text xml:space="preserve" text-anchor="start" x="419" y="-204" font-family="Consolas" font-size="10.00" fill="grey">FixFontSize_</text>
<text xml:space="preserve" text-anchor="start" x="419" y="-189.5" font-family="Consolas" font-size="10.00" fill="grey">absSize_</text>
<text xml:space="preserve" text-anchor="start" x="419" y="-175" font-family="Consolas" font-size="10.00" fill="grey">relSize_</text>
</g>
<!-- Node6 -->
<g id="Node000006" class="node">
<title>Node6</title>
<g id="a_Node000006"><a xlink:title=" ">
<polygon fill="white" stroke="none" points="353.75,-132.88 259.75,-132.88 259.75,-113.62 353.75,-113.62 353.75,-132.88"/>
<text xml:space="preserve" text-anchor="middle" x="306.75" y="-118.42" font-family="Consolas" font-size="11.00">static QMutex</text>
</a>
</g>
</g>
<!-- Node6&#45;&gt;Node1 -->
<g id="edge5_Node000001_Node000006" class="edge">
<title>Node6&#45;&gt;Node1</title>
<g id="a_edge5_Node000001_Node000006"><a xlink:title=" ">
<path fill="none" stroke="#9a32cd" stroke-dasharray="5,2" d="M359.62,-123.25C403.6,-123.25 466.08,-123.25 508.29,-123.25"/>
<polygon fill="#9a32cd" stroke="#9a32cd" points="354.76,-123.25 359.76,-121 356.04,-123.25 359.76,-123.25 359.76,-123.25 359.76,-123.25 356.04,-123.25 359.76,-125.5 354.76,-123.25"/>
</a>
</g>
<text xml:space="preserve" text-anchor="start" x="416.38" y="-141.75" font-family="Consolas" font-size="10.00" fill="grey">AppFontMutex_</text>
<text xml:space="preserve" text-anchor="start" x="416.38" y="-127.25" font-family="Consolas" font-size="10.00" fill="grey">FixFontMutex_</text>
</g>
<!-- Node7 -->
<g id="Node000007" class="node">
<title>Node7</title>
<g id="a_Node000007"><a xlink:title=" ">
<polygon fill="white" stroke="none" points="350.75,-78.88 262.75,-78.88 262.75,-59.62 350.75,-59.62 350.75,-78.88"/>
<text xml:space="preserve" text-anchor="middle" x="306.75" y="-64.42" font-family="Consolas" font-size="11.00">static QFont</text>
</a>
</g>
</g>
<!-- Node7&#45;&gt;Node1 -->
<g id="edge6_Node000001_Node000007" class="edge">
<title>Node7&#45;&gt;Node1</title>
<g id="a_edge6_Node000001_Node000007"><a xlink:title=" ">
<path fill="none" stroke="#9a32cd" stroke-dasharray="5,2" d="M356.61,-69.13C393.98,-70.28 446.37,-74.58 490.25,-88.25 508.87,-94.05 528.25,-105.54 540.73,-113.77"/>
<polygon fill="#9a32cd" stroke="#9a32cd" points="351.97,-69.01 357.03,-66.9 353.25,-69.04 356.96,-69.14 356.96,-69.14 356.96,-69.14 353.25,-69.04 356.9,-71.39 351.97,-69.01"/>
</a>
</g>
<text xml:space="preserve" text-anchor="start" x="429.5" y="-106.75" font-family="Consolas" font-size="10.00" fill="grey">AppFont_</text>
<text xml:space="preserve" text-anchor="start" x="429.5" y="-92.25" font-family="Consolas" font-size="10.00" fill="grey">FixFont_</text>
</g>
<!-- Node8 -->
<g id="Node000008" class="node">
<title>Node8</title>
<g id="a_Node000008"><a xlink:title=" ">
<polygon fill="white" stroke="none" points="392.75,-30.5 220.75,-30.5 220.75,0 392.75,0 392.75,-30.5"/>
<text xml:space="preserve" text-anchor="start" x="228.75" y="-16.05" font-family="Consolas" font-size="11.00">static QHash&lt; size</text>
<text xml:space="preserve" text-anchor="middle" x="306.75" y="-4.8" font-family="Consolas" font-size="11.00">_t, npi::TextSpec::Group &gt;</text>
</a>
</g>
</g>
<!-- Node8&#45;&gt;Node1 -->
<g id="edge7_Node000001_Node000008" class="edge">
<title>Node8&#45;&gt;Node1</title>
<g id="a_edge7_Node000001_Node000008"><a xlink:title=" ">
<path fill="none" stroke="#9a32cd" stroke-dasharray="5,2" d="M398.71,-12.71C429.47,-15.37 462.92,-22.41 490.25,-38.25 521.25,-56.22 542.02,-95.77 550.26,-113.87"/>
<polygon fill="#9a32cd" stroke="#9a32cd" points="393.81,-12.33 398.97,-10.47 395.08,-12.42 398.79,-12.71 398.79,-12.71 398.79,-12.71 395.08,-12.42 398.62,-14.96 393.81,-12.33"/>
</a>
</g>
<text xml:space="preserve" text-anchor="start" x="413.75" y="-56.75" font-family="Consolas" font-size="10.00" fill="grey">AppGroupCache_</text>
<text xml:space="preserve" text-anchor="start" x="413.75" y="-42.25" font-family="Consolas" font-size="10.00" fill="grey">FixGroupCache_</text>
</g>
</g>
</svg>
