<?xml version="1.0" encoding="UTF-8" standalone="no"?>
<!DOCTYPE svg PUBLIC "-//W3C//DTD SVG 1.1//EN"
 "http://www.w3.org/Graphics/SVG/1.1/DTD/svg11.dtd">
<!-- Generated by graphviz version 14.0.0 (20250921.2048)
 -->
<!-- Title: MainWindow::MainWindow Pages: 1 -->
<svg width="376pt" height="446pt"
 viewBox="0.00 0.00 376.00 446.00" xmlns="http://www.w3.org/2000/svg" xmlns:xlink="http://www.w3.org/1999/xlink">

<svg id="main" version="1.1" xmlns="http://www.w3.org/2000/svg" xmlns:xlink="http://www.w3.org/1999/xlink" xml:space="preserve">

<style type="text/css"><![CDATA[
.node, .edge {opacity: 0.7;}
.node.selected, .edge.selected {opacity: 1;}
.edge:hover path { stroke: red; }
.edge:hover polygon { stroke: red; fill: red; }
]]></style>
<script type="application/ecmascript" xlink:href="../../svg.min.js"/>
<svg id="graph" class="graph">
<g id="graph0" class="graph" transform="scale(1 1) rotate(0) translate(4 441.88)">
<title>MainWindow::MainWindow</title>
<!-- Node1 -->
<g id="Node000001" class="node">
<title>Node1</title>
<g id="a_Node000001"><a xlink:title=" ">
<polygon fill="#999999" stroke="none" points="148,-222.25 0,-222.25 0,-203 148,-203 148,-222.25"/>
<text xml:space="preserve" text-anchor="start" x="8" y="-208.8" font-family="Consolas" font-weight="bold" font-size="11.00">MainWindow::MainWindow</text>
</a>
</g>
</g>
<!-- Node2 -->
<g id="Node000002" class="node">
<title>Node2</title>
<g id="a_Node000002"><a xlink:href="../../d5/ddd/namespacenpi_1_1log.html#ae6eac236972f24cbb4bc02759093004f" target="_top" xlink:title=" ">
<polygon fill="white" stroke="none" points="356,-437.88 196,-437.88 196,-407.38 356,-407.38 356,-437.88"/>
<text xml:space="preserve" text-anchor="start" x="204" y="-423.43" font-family="Consolas" font-size="11.00">npi::log::availableField</text>
<text xml:space="preserve" text-anchor="middle" x="276" y="-412.18" font-family="Consolas" font-size="11.00">Names</text>
</a>
</g>
</g>
<!-- Node1&#45;&gt;Node2 -->
<g id="edge1_Node000001_Node000002" class="edge">
<title>Node1&#45;&gt;Node2</title>
<g id="a_edge1_Node000001_Node000002"><a xlink:title=" ">
<path fill="none" stroke="#63b8ff" d="M77.69,-222.09C86.9,-252.76 120.2,-350.2 184,-398.62 186.99,-400.89 190.17,-402.95 193.5,-404.81"/>
<polygon fill="#63b8ff" stroke="#63b8ff" points="197.74,-407.02 192.27,-406.71 196.6,-406.43 193.3,-404.71 193.3,-404.71 193.3,-404.71 196.6,-406.43 194.34,-402.71 197.74,-407.02"/>
</a>
</g>
</g>
<!-- Node3 -->
<g id="Node000003" class="node">
<title>Node3</title>
<g id="a_Node000003"><a xlink:href="../../d5/ddd/namespacenpi_1_1log.html#a319c34d8ed40528b056e304206305abc" target="_top" xlink:title=" ">
<polygon fill="white" stroke="none" points="344,-389.25 208,-389.25 208,-370 344,-370 344,-389.25"/>
<text xml:space="preserve" text-anchor="middle" x="276" y="-374.8" font-family="Consolas" font-size="11.00">npi::log::categories</text>
</a>
</g>
</g>
<!-- Node1&#45;&gt;Node3 -->
<g id="edge2_Node000001_Node000003" class="edge">
<title>Node1&#45;&gt;Node3</title>
<g id="a_edge2_Node000001_Node000003"><a xlink:title=" ">
<path fill="none" stroke="#63b8ff" d="M78.96,-222.21C90.61,-249.1 127.5,-325.63 184,-361.62 189.73,-365.28 196.04,-368.21 202.59,-370.57"/>
<polygon fill="#63b8ff" stroke="#63b8ff" points="206.98,-372.03 201.53,-372.59 205.77,-371.63 202.24,-370.45 202.24,-370.45 202.24,-370.45 205.77,-371.63 202.95,-368.32 206.98,-372.03"/>
</a>
</g>
</g>
<!-- Node4 -->
<g id="Node000004" class="node">
<title>Node4</title>
<g id="a_Node000004"><a xlink:href="../../d5/ddd/namespacenpi_1_1log.html#acfa8a9ddc1a942cad8917f1682fcac43" target="_top" xlink:title=" ">
<polygon fill="white" stroke="none" points="323,-352.25 229,-352.25 229,-333 323,-333 323,-352.25"/>
<text xml:space="preserve" text-anchor="middle" x="276" y="-337.8" font-family="Consolas" font-size="11.00">npi::log::dir</text>
</a>
</g>
</g>
<!-- Node1&#45;&gt;Node4 -->
<g id="edge3_Node000001_Node000004" class="edge">
<title>Node1&#45;&gt;Node4</title>
<g id="a_edge3_Node000001_Node000004"><a xlink:title=" ">
<path fill="none" stroke="#63b8ff" d="M81.07,-221.98C95.81,-243.86 135.83,-298.49 184,-324.62 195.91,-331.09 209.81,-335.24 223.12,-337.92"/>
<polygon fill="#63b8ff" stroke="#63b8ff" points="227.99,-338.82 222.66,-340.12 226.73,-338.58 223.07,-337.91 223.07,-337.91 223.07,-337.91 226.73,-338.58 223.48,-335.69 227.99,-338.82"/>
</a>
</g>
</g>
<!-- Node5 -->
<g id="Node000005" class="node">
<title>Node5</title>
<g id="a_Node000005"><a xlink:href="../../d5/ddd/namespacenpi_1_1log.html#af3bcbeee12b96cb6b320ea17c88fa2f6" target="_top" xlink:title=" ">
<polygon fill="white" stroke="none" points="368,-315.25 184,-315.25 184,-296 368,-296 368,-315.25"/>
<text xml:space="preserve" text-anchor="middle" x="276" y="-300.8" font-family="Consolas" font-size="11.00">npi::log::getFilterBaseRules</text>
</a>
</g>
</g>
<!-- Node1&#45;&gt;Node5 -->
<g id="edge4_Node000001_Node000005" class="edge">
<title>Node1&#45;&gt;Node5</title>
<g id="a_edge4_Node000001_Node000005"><a xlink:title=" ">
<path fill="none" stroke="#63b8ff" d="M85.56,-222.14C104.08,-238.26 144.21,-270.85 184,-287.62 190.26,-290.26 196.93,-292.52 203.7,-294.45"/>
<polygon fill="#63b8ff" stroke="#63b8ff" points="208.23,-295.68 202.82,-296.55 206.99,-295.35 203.41,-294.37 203.41,-294.37 203.41,-294.37 206.99,-295.35 203.99,-292.2 208.23,-295.68"/>
</a>
</g>
</g>
<!-- Node6 -->
<g id="Node000006" class="node">
<title>Node6</title>
<g id="a_Node000006"><a xlink:href="../../d5/ddd/namespacenpi_1_1log.html#aeadaa3f61d4092e9eff5ebbaf5a54a40" target="_top" xlink:title=" ">
<polygon fill="white" stroke="none" points="356,-278.25 196,-278.25 196,-259 356,-259 356,-278.25"/>
<text xml:space="preserve" text-anchor="middle" x="276" y="-263.8" font-family="Consolas" font-size="11.00">npi::log::getFilterRules</text>
</a>
</g>
</g>
<!-- Node1&#45;&gt;Node6 -->
<g id="edge5_Node000001_Node000006" class="edge">
<title>Node1&#45;&gt;Node6</title>
<g id="a_edge5_Node000001_Node000006"><a xlink:title=" ">
<path fill="none" stroke="#63b8ff" d="M99.37,-222.22C121.26,-230.58 154.41,-242.58 184,-250.62 193.61,-253.24 203.89,-255.64 213.96,-257.78"/>
<polygon fill="#63b8ff" stroke="#63b8ff" points="218.66,-258.76 213.31,-259.94 217.41,-258.5 213.77,-257.74 213.77,-257.74 213.77,-257.74 217.41,-258.5 214.22,-255.53 218.66,-258.76"/>
</a>
</g>
</g>
<!-- Node7 -->
<g id="Node000007" class="node">
<title>Node7</title>
<g id="a_Node000007"><a xlink:href="../../d5/ddd/namespacenpi_1_1log.html#a4f702965e4b61a0ab9624ddfc1c30263" target="_top" xlink:title=" ">
<polygon fill="white" stroke="none" points="350,-241.25 202,-241.25 202,-222 350,-222 350,-241.25"/>
<text xml:space="preserve" text-anchor="middle" x="276" y="-226.8" font-family="Consolas" font-size="11.00">npi::log::getLogFields</text>
</a>
</g>
</g>
<!-- Node1&#45;&gt;Node7 -->
<g id="edge6_Node000001_Node000007" class="edge">
<title>Node1&#45;&gt;Node7</title>
<g id="a_edge6_Node000001_Node000007"><a xlink:title=" ">
<path fill="none" stroke="#63b8ff" d="M147.77,-219.54C163.59,-221.04 180.39,-222.64 196.42,-224.16"/>
<polygon fill="#63b8ff" stroke="#63b8ff" points="201.07,-224.6 195.88,-226.37 199.8,-224.48 196.09,-224.13 196.09,-224.13 196.09,-224.13 199.8,-224.48 196.31,-221.89 201.07,-224.6"/>
</a>
</g>
</g>
<!-- Node8 -->
<g id="Node000008" class="node">
<title>Node8</title>
<g id="a_Node000008"><a xlink:href="../../d5/ddd/namespacenpi_1_1log.html#adc61cc2e549a6e3c924cd00f18646d83" target="_top" xlink:title=" ">
<polygon fill="white" stroke="none" points="368,-204.25 184,-204.25 184,-185 368,-185 368,-204.25"/>
<text xml:space="preserve" text-anchor="middle" x="276" y="-189.8" font-family="Consolas" font-size="11.00">npi::log::getMaxFolderSizeMb</text>
</a>
</g>
</g>
<!-- Node1&#45;&gt;Node8 -->
<g id="edge7_Node000001_Node000008" class="edge">
<title>Node1&#45;&gt;Node8</title>
<g id="a_edge7_Node000001_Node000008"><a xlink:title=" ">
<path fill="none" stroke="#63b8ff" d="M147.77,-206.08C157.67,-205.18 167.95,-204.26 178.19,-203.34"/>
<polygon fill="#63b8ff" stroke="#63b8ff" points="182.99,-202.91 178.21,-205.59 181.72,-203.02 178.01,-203.35 178.01,-203.35 178.01,-203.35 181.72,-203.02 177.81,-201.11 182.99,-202.91"/>
</a>
</g>
</g>
<!-- Node9 -->
<g id="Node000009" class="node">
<title>Node9</title>
<g id="a_Node000009"><a xlink:href="../../d5/ddd/namespacenpi_1_1log.html#a63edb871cc7861984b4eb600071cec08" target="_top" xlink:title=" ">
<polygon fill="white" stroke="none" points="350,-167.25 202,-167.25 202,-148 350,-148 350,-167.25"/>
<text xml:space="preserve" text-anchor="middle" x="276" y="-152.8" font-family="Consolas" font-size="11.00">npi::log::getMsgFields</text>
</a>
</g>
</g>
<!-- Node1&#45;&gt;Node9 -->
<g id="edge8_Node000001_Node000009" class="edge">
<title>Node1&#45;&gt;Node9</title>
<g id="a_edge8_Node000001_Node000009"><a xlink:title=" ">
<path fill="none" stroke="#63b8ff" d="M99.82,-203.15C121.73,-195.04 154.65,-183.47 184,-175.62 193.75,-173.02 204.19,-170.61 214.39,-168.45"/>
<polygon fill="#63b8ff" stroke="#63b8ff" points="219.16,-167.46 214.72,-170.68 217.91,-167.72 214.27,-168.48 214.27,-168.48 214.27,-168.48 217.91,-167.72 213.81,-166.28 219.16,-167.46"/>
</a>
</g>
</g>
<!-- Node10 -->
<g id="Node000010" class="node">
<title>Node10</title>
<g id="a_Node000010"><a xlink:href="../../d5/ddd/namespacenpi_1_1log.html#a890d624071d5e2e26743288d3ce2d79b" target="_top" xlink:title=" ">
<polygon fill="white" stroke="none" points="362,-130.25 190,-130.25 190,-111 362,-111 362,-130.25"/>
<text xml:space="preserve" text-anchor="middle" x="276" y="-115.8" font-family="Consolas" font-size="11.00">npi::log::isConsoleColored</text>
</a>
</g>
</g>
<!-- Node1&#45;&gt;Node10 -->
<g id="edge9_Node000001_Node000010" class="edge">
<title>Node1&#45;&gt;Node10</title>
<g id="a_edge9_Node000001_Node000010"><a xlink:title=" ">
<path fill="none" stroke="#63b8ff" d="M85.59,-203.24C104.14,-187.34 144.32,-155.21 184,-138.62 190.38,-135.96 197.19,-133.68 204.09,-131.73"/>
<polygon fill="#63b8ff" stroke="#63b8ff" points="208.73,-130.49 204.49,-133.96 207.5,-130.82 203.9,-131.78 203.9,-131.78 203.9,-131.78 207.5,-130.82 203.32,-129.61 208.73,-130.49"/>
</a>
</g>
</g>
<!-- Node11 -->
<g id="Node000011" class="node">
<title>Node11</title>
<g id="a_Node000011"><a xlink:href="../../d5/ddd/namespacenpi_1_1log.html#a3f5453b25bfa7808da0fa9c48d5a0b01" target="_top" xlink:title=" ">
<polygon fill="white" stroke="none" points="353,-93.25 199,-93.25 199,-74 353,-74 353,-93.25"/>
<text xml:space="preserve" text-anchor="middle" x="276" y="-78.8" font-family="Consolas" font-size="11.00">npi::log::isConsoleOpen</text>
</a>
</g>
</g>
<!-- Node1&#45;&gt;Node11 -->
<g id="edge10_Node000001_Node000011" class="edge">
<title>Node1&#45;&gt;Node11</title>
<g id="a_edge10_Node000001_Node000011"><a xlink:title=" ">
<path fill="none" stroke="#63b8ff" d="M81.32,-203.03C96.28,-181.13 136.23,-127.41 184,-101.62 188.68,-99.1 193.67,-96.92 198.82,-95.05"/>
<polygon fill="#63b8ff" stroke="#63b8ff" points="203.29,-93.53 199.28,-97.27 202.08,-93.94 198.56,-95.14 198.56,-95.14 198.56,-95.14 202.08,-93.94 197.83,-93.01 203.29,-93.53"/>
</a>
</g>
</g>
<!-- Node12 -->
<g id="Node000012" class="node">
<title>Node12</title>
<g id="a_Node000012"><a xlink:href="../../d5/ddd/namespacenpi_1_1log.html#a03944c7d993d8f35806987a67f25a67d" target="_top" xlink:title=" ">
<polygon fill="white" stroke="none" points="368,-56.25 184,-56.25 184,-37 368,-37 368,-56.25"/>
<text xml:space="preserve" text-anchor="middle" x="276" y="-41.8" font-family="Consolas" font-size="11.00">npi::log::isConsolePermanent</text>
</a>
</g>
</g>
<!-- Node1&#45;&gt;Node12 -->
<g id="edge11_Node000001_Node000012" class="edge">
<title>Node1&#45;&gt;Node12</title>
<g id="a_edge11_Node000001_Node000012"><a xlink:title=" ">
<path fill="none" stroke="#63b8ff" d="M78.98,-203.11C90.67,-176.39 127.69,-100.37 184,-64.62 187.65,-62.31 191.53,-60.28 195.55,-58.51"/>
<polygon fill="#63b8ff" stroke="#63b8ff" points="199.99,-56.7 196.21,-60.67 198.81,-57.18 195.36,-58.59 195.36,-58.59 195.36,-58.59 198.81,-57.18 194.51,-56.5 199.99,-56.7"/>
</a>
</g>
</g>
<!-- Node13 -->
<g id="Node000013" class="node">
<title>Node13</title>
<g id="a_Node000013"><a xlink:href="../../d5/ddd/namespacenpi_1_1log.html#a887220e01a8730efd359ff7d59eea478" target="_top" xlink:title=" ">
<polygon fill="white" stroke="none" points="356,-19.25 196,-19.25 196,0 356,0 356,-19.25"/>
<text xml:space="preserve" text-anchor="middle" x="276" y="-4.8" font-family="Consolas" font-size="11.00">npi::log::isDisplayMuted</text>
</a>
</g>
</g>
<!-- Node1&#45;&gt;Node13 -->
<g id="edge12_Node000001_Node000013" class="edge">
<title>Node1&#45;&gt;Node13</title>
<g id="a_edge12_Node000001_Node000013"><a xlink:title=" ">
<path fill="none" stroke="#63b8ff" d="M77.58,-203.05C86.48,-172.04 118.93,-73.77 184,-27.62 187.1,-25.42 190.41,-23.48 193.85,-21.75"/>
<polygon fill="#63b8ff" stroke="#63b8ff" points="198.26,-19.73 194.65,-23.86 197.1,-20.27 193.72,-21.82 193.72,-21.82 193.72,-21.82 197.1,-20.27 192.78,-19.77 198.26,-19.73"/>
</a>
</g>
</g>
</g>
</svg>
</svg>

<style type='text/css'>
<![CDATA[
[data-mouse-over-selected='false'] { opacity: 0.7; }
[data-mouse-over-selected='true']  { opacity: 1.0; }
]]>
</style>
<script type="application/ecmascript"><![CDATA[
document.addEventListener('DOMContentLoaded', (event) => {
  highlightEdges();
  highlightAdjacentNodes();
});
]]></script>
</svg>
