<?xml version="1.0" encoding="UTF-8" standalone="no"?>
<!DOCTYPE svg PUBLIC "-//W3C//DTD SVG 1.1//EN"
 "http://www.w3.org/Graphics/SVG/1.1/DTD/svg11.dtd">
<!-- Generated by graphviz version 14.0.0 (20250921.2048)
 -->
<!-- Title: MainWindow::on_filterRulesClear_btn_clicked Pages: 1 -->
<svg width="822pt" height="128pt"
 viewBox="0.00 0.00 822.00 128.00" xmlns="http://www.w3.org/2000/svg" xmlns:xlink="http://www.w3.org/1999/xlink">
<g id="graph0" class="graph" transform="scale(1 1) rotate(0) translate(4 123.75)">
<title>MainWindow::on_filterRulesClear_btn_clicked</title>
<!-- Node1 -->
<g id="Node000001" class="node">
<title>Node1</title>
<g id="a_Node000001"><a xlink:title=" ">
<polygon fill="#999999" stroke="none" points="274,-60.5 0,-60.5 0,-41.25 274,-41.25 274,-60.5"/>
<text xml:space="preserve" text-anchor="start" x="8" y="-47.05" font-family="Consolas" font-weight="bold" font-size="11.00">MainWindow::on_filterRulesClear_btn_clicked</text>
</a>
</g>
</g>
<!-- Node2 -->
<g id="Node000002" class="node">
<title>Node2</title>
<g id="a_Node000002"><a xlink:href="../../d5/ddd/namespacenpi_1_1log.html#ae0e278f0a3f2618e1fff9b05fdcc0f9f" target="_top" xlink:title=" ">
<polygon fill="white" stroke="none" points="482,-60.5 310,-60.5 310,-41.25 482,-41.25 482,-60.5"/>
<text xml:space="preserve" text-anchor="middle" x="396" y="-46.05" font-family="Consolas" font-size="11.00">npi::log::clearFilterRules</text>
</a>
</g>
</g>
<!-- Node1&#45;&gt;Node2 -->
<g id="edge1_Node000001_Node000002" class="edge">
<title>Node1&#45;&gt;Node2</title>
<g id="a_edge1_Node000001_Node000002"><a xlink:title=" ">
<path fill="none" stroke="#63b8ff" d="M273.65,-50.88C283.94,-50.88 294.17,-50.88 304.08,-50.88"/>
<polygon fill="#63b8ff" stroke="#63b8ff" points="308.98,-50.88 303.98,-53.13 307.7,-50.88 303.98,-50.88 303.98,-50.88 303.98,-50.88 307.7,-50.88 303.98,-48.63 308.98,-50.88"/>
</a>
</g>
</g>
<!-- Node3 -->
<g id="Node000003" class="node">
<title>Node3</title>
<g id="a_Node000003"><a xlink:href="../../d0/d61/classanonymous__namespace_02_log_8cpp_03_1_1_log_core.html#af85854d22c95e86c8802d7d864fcd350" target="_top" xlink:title=" ">
<polygon fill="white" stroke="none" points="648,-101.75 518,-101.75 518,-60 648,-60 648,-101.75"/>
<text xml:space="preserve" text-anchor="start" x="526" y="-87.3" font-family="Consolas" font-size="11.00">anonymous_namespace</text>
<text xml:space="preserve" text-anchor="start" x="526" y="-76.05" font-family="Consolas" font-size="11.00">{Log::cpp}::LogCore</text>
<text xml:space="preserve" text-anchor="middle" x="583" y="-64.8" font-family="Consolas" font-size="11.00">::Inst_</text>
</a>
</g>
</g>
<!-- Node2&#45;&gt;Node3 -->
<g id="edge2_Node000002_Node000003" class="edge">
<title>Node2&#45;&gt;Node3</title>
<g id="a_edge2_Node000002_Node000003"><a xlink:title=" ">
<path fill="none" stroke="#63b8ff" d="M456.3,-60.49C474.21,-63.4 494.03,-66.61 512.55,-69.61"/>
<polygon fill="#63b8ff" stroke="#63b8ff" points="517.04,-70.34 511.75,-71.76 515.78,-70.14 512.11,-69.54 512.11,-69.54 512.11,-69.54 515.78,-70.14 512.47,-67.32 517.04,-70.34"/>
</a>
</g>
</g>
<!-- Node5 -->
<g id="Node000005" class="node">
<title>Node5</title>
<g id="a_Node000005"><a xlink:href="../../d0/d61/classanonymous__namespace_02_log_8cpp_03_1_1_log_core.html#a1d197fc15e8c228ff494a6e9974503b5" target="_top" xlink:title=" ">
<polygon fill="white" stroke="none" points="648,-41.75 518,-41.75 518,0 648,0 648,-41.75"/>
<text xml:space="preserve" text-anchor="start" x="526" y="-27.3" font-family="Consolas" font-size="11.00">anonymous_namespace</text>
<text xml:space="preserve" text-anchor="start" x="526" y="-16.05" font-family="Consolas" font-size="11.00">{Log::cpp}::LogCore</text>
<text xml:space="preserve" text-anchor="middle" x="583" y="-4.8" font-family="Consolas" font-size="11.00">::setFilterRules_</text>
</a>
</g>
</g>
<!-- Node2&#45;&gt;Node5 -->
<g id="edge5_Node000002_Node000005" class="edge">
<title>Node2&#45;&gt;Node5</title>
<g id="a_edge5_Node000002_Node000005"><a xlink:title=" ">
<path fill="none" stroke="#63b8ff" d="M456.3,-41.26C474.21,-38.35 494.03,-35.14 512.55,-32.14"/>
<polygon fill="#63b8ff" stroke="#63b8ff" points="517.04,-31.41 512.47,-34.43 515.78,-31.61 512.11,-32.21 512.11,-32.21 512.11,-32.21 515.78,-31.61 511.75,-29.99 517.04,-31.41"/>
</a>
</g>
</g>
<!-- Node4 -->
<g id="Node000004" class="node">
<title>Node4</title>
<g id="a_Node000004"><a xlink:href="../../d0/d61/classanonymous__namespace_02_log_8cpp_03_1_1_log_core.html#a730f0868e0c404fa25a887a023b70138" target="_top" xlink:title=" ">
<polygon fill="white" stroke="none" points="814,-101.75 684,-101.75 684,-60 814,-60 814,-101.75"/>
<text xml:space="preserve" text-anchor="start" x="692" y="-87.3" font-family="Consolas" font-size="11.00">anonymous_namespace</text>
<text xml:space="preserve" text-anchor="start" x="692" y="-76.05" font-family="Consolas" font-size="11.00">{Log::cpp}::LogCore</text>
<text xml:space="preserve" text-anchor="middle" x="749" y="-64.8" font-family="Consolas" font-size="11.00">::LogCore</text>
</a>
</g>
</g>
<!-- Node3&#45;&gt;Node4 -->
<g id="edge3_Node000003_Node000004" class="edge">
<title>Node3&#45;&gt;Node4</title>
<g id="a_edge3_Node000003_Node000004"><a xlink:title=" ">
<path fill="none" stroke="#63b8ff" d="M647.88,-80.88C657.71,-80.88 667.9,-80.88 677.86,-80.88"/>
<polygon fill="#63b8ff" stroke="#63b8ff" points="682.81,-80.88 677.81,-83.13 681.53,-80.88 677.81,-80.88 677.81,-80.88 677.81,-80.88 681.53,-80.88 677.81,-78.63 682.81,-80.88"/>
</a>
</g>
</g>
<!-- Node4&#45;&gt;Node4 -->
<g id="edge4_Node000004_Node000004" class="edge">
<title>Node4&#45;&gt;Node4</title>
<g id="a_edge4_Node000004_Node000004"><a xlink:title=" ">
<path fill="none" stroke="#63b8ff" d="M718.49,-101.67C715.16,-111.32 725.33,-119.75 749,-119.75 767.49,-119.75 777.74,-114.61 779.76,-107.75"/>
<polygon fill="#63b8ff" stroke="#63b8ff" points="779.56,-102.89 782.01,-107.79 779.61,-104.17 779.76,-107.89 779.76,-107.89 779.76,-107.89 779.61,-104.17 777.51,-107.98 779.56,-102.89"/>
</a>
</g>
</g>
</g>
</svg>
