<?xml version="1.0" encoding="UTF-8" standalone="no"?>
<!DOCTYPE svg PUBLIC "-//W3C//DTD SVG 1.1//EN"
 "http://www.w3.org/Graphics/SVG/1.1/DTD/svg11.dtd">
<!-- Generated by graphviz version 14.0.0 (20250921.2048)
 -->
<!-- Title: MainWindow::on_newDir_btn_clicked Pages: 1 -->
<svg width="370pt" height="64pt"
 viewBox="0.00 0.00 370.00 64.00" xmlns="http://www.w3.org/2000/svg" xmlns:xlink="http://www.w3.org/1999/xlink">

<svg id="main" version="1.1" xmlns="http://www.w3.org/2000/svg" xmlns:xlink="http://www.w3.org/1999/xlink" xml:space="preserve">

<style type="text/css"><![CDATA[
.node, .edge {opacity: 0.7;}
.node.selected, .edge.selected {opacity: 1;}
.edge:hover path { stroke: red; }
.edge:hover polygon { stroke: red; fill: red; }
]]></style>
<script type="application/ecmascript" xlink:href="../../svg.min.js"/>
<svg id="graph" class="graph">
<g id="graph0" class="graph" transform="scale(1 1) rotate(0) translate(4 60.25)">
<title>MainWindow::on_newDir_btn_clicked</title>
<!-- Node1 -->
<g id="Node000001" class="node">
<title>Node1</title>
<g id="a_Node000001"><a xlink:title=" ">
<polygon fill="#999999" stroke="none" points="214,-37.25 0,-37.25 0,-18 214,-18 214,-37.25"/>
<text xml:space="preserve" text-anchor="start" x="8" y="-23.8" font-family="Consolas" font-weight="bold" font-size="11.00">MainWindow::on_newDir_btn_clicked</text>
</a>
</g>
</g>
<!-- Node2 -->
<g id="Node000002" class="node">
<title>Node2</title>
<g id="a_Node000002"><a xlink:href="../../d5/ddd/namespacenpi_1_1log.html#acfa8a9ddc1a942cad8917f1682fcac43" target="_top" xlink:title=" ">
<polygon fill="white" stroke="none" points="353,-56.25 259,-56.25 259,-37 353,-37 353,-56.25"/>
<text xml:space="preserve" text-anchor="middle" x="306" y="-41.8" font-family="Consolas" font-size="11.00">npi::log::dir</text>
</a>
</g>
</g>
<!-- Node1&#45;&gt;Node2 -->
<g id="edge1_Node000001_Node000002" class="edge">
<title>Node1&#45;&gt;Node2</title>
<g id="a_edge1_Node000001_Node000002"><a xlink:title=" ">
<path fill="none" stroke="#63b8ff" d="M207.65,-37.24C223.52,-38.77 239.35,-40.29 253.49,-41.66"/>
<polygon fill="#63b8ff" stroke="#63b8ff" points="258.22,-42.11 253.03,-43.87 256.95,-41.99 253.25,-41.63 253.25,-41.63 253.25,-41.63 256.95,-41.99 253.46,-39.39 258.22,-42.11"/>
</a>
</g>
</g>
<!-- Node3 -->
<g id="Node000003" class="node">
<title>Node3</title>
<g id="a_Node000003"><a xlink:href="../../d5/ddd/namespacenpi_1_1log.html#a844684c1ed04bc4583bfd4e85fa23695" target="_top" xlink:title=" ">
<polygon fill="white" stroke="none" points="362,-19.25 250,-19.25 250,0 362,0 362,-19.25"/>
<text xml:space="preserve" text-anchor="middle" x="306" y="-4.8" font-family="Consolas" font-size="11.00">npi::log::setDir</text>
</a>
</g>
</g>
<!-- Node1&#45;&gt;Node3 -->
<g id="edge2_Node000001_Node000003" class="edge">
<title>Node1&#45;&gt;Node3</title>
<g id="a_edge2_Node000001_Node000003"><a xlink:title=" ">
<path fill="none" stroke="#63b8ff" d="M213.13,-18.02C223.69,-17.05 234.14,-16.1 244,-15.2"/>
<polygon fill="#63b8ff" stroke="#63b8ff" points="248.85,-14.76 244.07,-17.45 247.57,-14.87 243.87,-15.21 243.87,-15.21 243.87,-15.21 247.57,-14.87 243.66,-12.97 248.85,-14.76"/>
</a>
</g>
</g>
</g>
</svg>
</svg>

<style type='text/css'>
<![CDATA[
[data-mouse-over-selected='false'] { opacity: 0.7; }
[data-mouse-over-selected='true']  { opacity: 1.0; }
]]>
</style>
<script type="application/ecmascript"><![CDATA[
document.addEventListener('DOMContentLoaded', (event) => {
  highlightEdges();
  highlightAdjacentNodes();
});
]]></script>
</svg>
