<?xml version="1.0" encoding="UTF-8" standalone="no"?>
<!DOCTYPE svg PUBLIC "-//W3C//DTD SVG 1.1//EN"
 "http://www.w3.org/Graphics/SVG/1.1/DTD/svg11.dtd">
<!-- Generated by graphviz version 14.0.0 (20250921.2048)
 -->
<!-- Title: MainWindow::on_coloredConsole_chk_checkStateChanged Pages: 1 -->
<svg width="1738pt" height="128pt"
 viewBox="0.00 0.00 1738.00 128.00" xmlns="http://www.w3.org/2000/svg" xmlns:xlink="http://www.w3.org/1999/xlink">
<g id="graph0" class="graph" transform="scale(1 1) rotate(0) translate(4 123.75)">
<title>MainWindow::on_coloredConsole_chk_checkStateChanged</title>
<!-- Node1 -->
<g id="Node000001" class="node">
<title>Node1</title>
<g id="a_Node000001"><a xlink:title=" ">
<polygon fill="#999999" stroke="none" points="322,-60.5 0,-60.5 0,-41.25 322,-41.25 322,-60.5"/>
<text xml:space="preserve" text-anchor="start" x="8" y="-47.05" font-family="Consolas" font-weight="bold" font-size="11.00">MainWindow::on_coloredConsole_chk_checkStateChanged</text>
</a>
</g>
</g>
<!-- Node2 -->
<g id="Node000002" class="node">
<title>Node2</title>
<g id="a_Node000002"><a xlink:href="../../d5/ddd/namespacenpi_1_1log.html#aa9c7f1de08a88a0dcac316127c1d384b" target="_top" xlink:title=" ">
<polygon fill="white" stroke="none" points="536,-60.5 358,-60.5 358,-41.25 536,-41.25 536,-60.5"/>
<text xml:space="preserve" text-anchor="middle" x="447" y="-46.05" font-family="Consolas" font-size="11.00">npi::log::setColoredConsole</text>
</a>
</g>
</g>
<!-- Node1&#45;&gt;Node2 -->
<g id="edge1_Node000001_Node000002" class="edge">
<title>Node1&#45;&gt;Node2</title>
<g id="a_edge1_Node000001_Node000002"><a xlink:title=" ">
<path fill="none" stroke="#63b8ff" d="M321.85,-50.88C332.19,-50.88 342.4,-50.88 352.26,-50.88"/>
<polygon fill="#63b8ff" stroke="#63b8ff" points="357.13,-50.88 352.13,-53.13 355.85,-50.88 352.13,-50.88 352.13,-50.88 352.13,-50.88 355.85,-50.88 352.13,-48.63 357.13,-50.88"/>
</a>
</g>
</g>
<!-- Node3 -->
<g id="Node000003" class="node">
<title>Node3</title>
<g id="a_Node000003"><a xlink:href="../../d0/d61/classanonymous__namespace_02_log_8cpp_03_1_1_log_core.html#af85854d22c95e86c8802d7d864fcd350" target="_top" xlink:title=" ">
<polygon fill="white" stroke="none" points="705,-101.75 575,-101.75 575,-60 705,-60 705,-101.75"/>
<text xml:space="preserve" text-anchor="start" x="583" y="-87.3" font-family="Consolas" font-size="11.00">anonymous_namespace</text>
<text xml:space="preserve" text-anchor="start" x="583" y="-76.05" font-family="Consolas" font-size="11.00">{Log::cpp}::LogCore</text>
<text xml:space="preserve" text-anchor="middle" x="640" y="-64.8" font-family="Consolas" font-size="11.00">::Inst_</text>
</a>
</g>
</g>
<!-- Node2&#45;&gt;Node3 -->
<g id="edge2_Node000002_Node000003" class="edge">
<title>Node2&#45;&gt;Node3</title>
<g id="a_edge2_Node000002_Node000003"><a xlink:title=" ">
<path fill="none" stroke="#63b8ff" d="M509.22,-60.49C528.31,-63.49 549.5,-66.82 569.13,-69.9"/>
<polygon fill="#63b8ff" stroke="#63b8ff" points="573.96,-70.66 568.67,-72.11 572.7,-70.46 569.02,-69.88 569.02,-69.88 569.02,-69.88 572.7,-70.46 569.37,-67.66 573.96,-70.66"/>
</a>
</g>
</g>
<!-- Node5 -->
<g id="Node000005" class="node">
<title>Node5</title>
<g id="a_Node000005"><a xlink:href="../../d0/d61/classanonymous__namespace_02_log_8cpp_03_1_1_log_core.html#a18c3c555110a16327bd67014b95739eb" target="_top" xlink:title=" ">
<polygon fill="white" stroke="none" points="708,-41.75 572,-41.75 572,0 708,0 708,-41.75"/>
<text xml:space="preserve" text-anchor="start" x="580" y="-27.3" font-family="Consolas" font-size="11.00">anonymous_namespace</text>
<text xml:space="preserve" text-anchor="start" x="580" y="-16.05" font-family="Consolas" font-size="11.00">{Log::cpp}::LogCore</text>
<text xml:space="preserve" text-anchor="middle" x="640" y="-4.8" font-family="Consolas" font-size="11.00">::setColoredConsole_</text>
</a>
</g>
</g>
<!-- Node2&#45;&gt;Node5 -->
<g id="edge5_Node000002_Node000005" class="edge">
<title>Node2&#45;&gt;Node5</title>
<g id="a_edge5_Node000002_Node000005"><a xlink:title=" ">
<path fill="none" stroke="#63b8ff" d="M509.22,-41.26C527.42,-38.4 547.53,-35.24 566.37,-32.28"/>
<polygon fill="#63b8ff" stroke="#63b8ff" points="570.97,-31.56 566.38,-34.56 569.71,-31.76 566.03,-32.34 566.03,-32.34 566.03,-32.34 569.71,-31.76 565.68,-30.11 570.97,-31.56"/>
</a>
</g>
</g>
<!-- Node4 -->
<g id="Node000004" class="node">
<title>Node4</title>
<g id="a_Node000004"><a xlink:href="../../d0/d61/classanonymous__namespace_02_log_8cpp_03_1_1_log_core.html#a730f0868e0c404fa25a887a023b70138" target="_top" xlink:title=" ">
<polygon fill="white" stroke="none" points="874,-101.75 744,-101.75 744,-60 874,-60 874,-101.75"/>
<text xml:space="preserve" text-anchor="start" x="752" y="-87.3" font-family="Consolas" font-size="11.00">anonymous_namespace</text>
<text xml:space="preserve" text-anchor="start" x="752" y="-76.05" font-family="Consolas" font-size="11.00">{Log::cpp}::LogCore</text>
<text xml:space="preserve" text-anchor="middle" x="809" y="-64.8" font-family="Consolas" font-size="11.00">::LogCore</text>
</a>
</g>
</g>
<!-- Node3&#45;&gt;Node4 -->
<g id="edge3_Node000003_Node000004" class="edge">
<title>Node3&#45;&gt;Node4</title>
<g id="a_edge3_Node000003_Node000004"><a xlink:title=" ">
<path fill="none" stroke="#63b8ff" d="M704.61,-80.88C715.5,-80.88 726.87,-80.88 737.91,-80.88"/>
<polygon fill="#63b8ff" stroke="#63b8ff" points="742.79,-80.88 737.79,-83.13 741.51,-80.88 737.79,-80.88 737.79,-80.88 737.79,-80.88 741.51,-80.88 737.79,-78.63 742.79,-80.88"/>
</a>
</g>
</g>
<!-- Node4&#45;&gt;Node4 -->
<g id="edge4_Node000004_Node000004" class="edge">
<title>Node4&#45;&gt;Node4</title>
<g id="a_edge4_Node000004_Node000004"><a xlink:title=" ">
<path fill="none" stroke="#63b8ff" d="M777.94,-101.67C774.55,-111.32 784.9,-119.75 809,-119.75 827.82,-119.75 838.26,-114.61 840.31,-107.75"/>
<polygon fill="#63b8ff" stroke="#63b8ff" points="840.11,-102.89 842.57,-107.79 840.16,-104.17 840.32,-107.89 840.32,-107.89 840.32,-107.89 840.16,-104.17 838.07,-107.98 840.11,-102.89"/>
</a>
</g>
</g>
<!-- Node6 -->
<g id="Node000006" class="node">
<title>Node6</title>
<g id="a_Node000006"><a xlink:href="../../d0/d61/classanonymous__namespace_02_log_8cpp_03_1_1_log_core.html#a5fa684811c33eea49f63593fea332de4" target="_top" xlink:title=" ">
<polygon fill="white" stroke="none" points="874,-41.75 744,-41.75 744,0 874,0 874,-41.75"/>
<text xml:space="preserve" text-anchor="start" x="752" y="-27.3" font-family="Consolas" font-size="11.00">anonymous_namespace</text>
<text xml:space="preserve" text-anchor="start" x="752" y="-16.05" font-family="Consolas" font-size="11.00">{Log::cpp}::LogCore</text>
<text xml:space="preserve" text-anchor="middle" x="809" y="-4.8" font-family="Consolas" font-size="11.00">::saveSettings_</text>
</a>
</g>
</g>
<!-- Node5&#45;&gt;Node6 -->
<g id="edge6_Node000005_Node000006" class="edge">
<title>Node5&#45;&gt;Node6</title>
<g id="a_edge6_Node000005_Node000006"><a xlink:title=" ">
<path fill="none" stroke="#63b8ff" d="M707.96,-20.88C717.81,-20.88 727.97,-20.88 737.88,-20.88"/>
<polygon fill="#63b8ff" stroke="#63b8ff" points="742.79,-20.88 737.79,-23.13 741.51,-20.88 737.79,-20.88 737.79,-20.88 737.79,-20.88 741.51,-20.88 737.79,-18.63 742.79,-20.88"/>
</a>
</g>
</g>
<!-- Node7 -->
<g id="Node000007" class="node">
<title>Node7</title>
<g id="a_Node000007"><a xlink:href="../../dc/dba/namespacenpi_1_1app.html#a40a2a28831f2f410c995f0657baf6544" target="_top" xlink:title="Absolute application&#45;level ProgramData path.">
<polygon fill="white" stroke="none" points="1088,-30.5 910,-30.5 910,-11.25 1088,-11.25 1088,-30.5"/>
<text xml:space="preserve" text-anchor="middle" x="999" y="-16.05" font-family="Consolas" font-size="11.00">npi::app::appProgramDataDir</text>
</a>
</g>
</g>
<!-- Node6&#45;&gt;Node7 -->
<g id="edge7_Node000006_Node000007" class="edge">
<title>Node6&#45;&gt;Node7</title>
<g id="a_edge7_Node000006_Node000007"><a xlink:title=" ">
<path fill="none" stroke="#63b8ff" d="M873.91,-20.88C883.7,-20.88 893.97,-20.88 904.24,-20.88"/>
<polygon fill="#63b8ff" stroke="#63b8ff" points="909.07,-20.88 904.07,-23.13 907.79,-20.88 904.07,-20.88 904.07,-20.88 904.07,-20.88 907.79,-20.88 904.07,-18.63 909.07,-20.88"/>
</a>
</g>
</g>
<!-- Node8 -->
<g id="Node000008" class="node">
<title>Node8</title>
<g id="a_Node000008"><a xlink:href="../../dc/dba/namespacenpi_1_1app.html#a30836be8b9337a64733a6e05594b23c8" target="_top" xlink:title="Absolute organization&#45;level ProgramData path.">
<polygon fill="white" stroke="none" points="1302,-30.5 1124,-30.5 1124,-11.25 1302,-11.25 1302,-30.5"/>
<text xml:space="preserve" text-anchor="middle" x="1213" y="-16.05" font-family="Consolas" font-size="11.00">npi::app::orgProgramDataDir</text>
</a>
</g>
</g>
<!-- Node7&#45;&gt;Node8 -->
<g id="edge8_Node000007_Node000008" class="edge">
<title>Node7&#45;&gt;Node8</title>
<g id="a_edge8_Node000007_Node000008"><a xlink:title=" ">
<path fill="none" stroke="#63b8ff" d="M1087.76,-20.88C1097.85,-20.88 1108.17,-20.88 1118.34,-20.88"/>
<polygon fill="#63b8ff" stroke="#63b8ff" points="1123.09,-20.88 1118.09,-23.13 1121.81,-20.88 1118.09,-20.88 1118.09,-20.88 1118.09,-20.88 1121.81,-20.88 1118.09,-18.63 1123.09,-20.88"/>
</a>
</g>
</g>
<!-- Node9 -->
<g id="Node000009" class="node">
<title>Node9</title>
<g id="a_Node000009"><a xlink:href="../../df/d40/namespaceanonymous__namespace_02_meta_paths_8cpp_03.html#a6b23c92ed8a542082d8cddde4bd55b47" target="_top" xlink:title="Resolve base path using Known Folder ID or environment variable fallback.">
<polygon fill="white" stroke="none" points="1510,-36.12 1338,-36.12 1338,-5.63 1510,-5.63 1510,-36.12"/>
<text xml:space="preserve" text-anchor="start" x="1346" y="-21.68" font-family="Consolas" font-size="11.00">anonymous_namespace</text>
<text xml:space="preserve" text-anchor="middle" x="1424" y="-10.43" font-family="Consolas" font-size="11.00">{MetaPaths::cpp}::basePath</text>
</a>
</g>
</g>
<!-- Node8&#45;&gt;Node9 -->
<g id="edge9_Node000008_Node000009" class="edge">
<title>Node8&#45;&gt;Node9</title>
<g id="a_edge9_Node000008_Node000009"><a xlink:title=" ">
<path fill="none" stroke="#63b8ff" d="M1301.73,-20.88C1311.81,-20.88 1322.11,-20.88 1332.24,-20.88"/>
<polygon fill="#63b8ff" stroke="#63b8ff" points="1336.95,-20.88 1331.95,-23.13 1335.67,-20.88 1331.95,-20.88 1331.95,-20.88 1331.95,-20.88 1335.67,-20.88 1331.95,-18.63 1336.95,-20.88"/>
</a>
</g>
</g>
<!-- Node10 -->
<g id="Node000010" class="node">
<title>Node10</title>
<g id="a_Node000010"><a xlink:href="../../dc/dba/namespacenpi_1_1app.html#a30b5245afa890e98f19f43c58f29e633" target="_top" xlink:title="Windows native fatal error message box.">
<polygon fill="white" stroke="none" points="1730,-30.5 1546,-30.5 1546,-11.25 1730,-11.25 1730,-30.5"/>
<text xml:space="preserve" text-anchor="middle" x="1638" y="-16.05" font-family="Consolas" font-size="11.00">npi::app::nativeFatalMessage</text>
</a>
</g>
</g>
<!-- Node9&#45;&gt;Node10 -->
<g id="edge10_Node000009_Node000010" class="edge">
<title>Node9&#45;&gt;Node10</title>
<g id="a_edge10_Node000009_Node000010"><a xlink:title=" ">
<path fill="none" stroke="#63b8ff" d="M1509.7,-20.88C1519.73,-20.88 1530.02,-20.88 1540.2,-20.88"/>
<polygon fill="#63b8ff" stroke="#63b8ff" points="1544.96,-20.88 1539.96,-23.13 1543.68,-20.88 1539.96,-20.88 1539.96,-20.88 1539.96,-20.88 1543.68,-20.88 1539.96,-18.63 1544.96,-20.88"/>
</a>
</g>
</g>
</g>
</svg>
