<?xml version="1.0" encoding="UTF-8" standalone="no"?>
<!DOCTYPE svg PUBLIC "-//W3C//DTD SVG 1.1//EN"
 "http://www.w3.org/Graphics/SVG/1.1/DTD/svg11.dtd">
<!-- Generated by graphviz version 14.0.0 (20250921.2048)
 -->
<!-- Title: MainWindow::on_muteDisp_chk_checkStateChanged Pages: 1 -->
<svg width="822pt" height="128pt"
 viewBox="0.00 0.00 822.00 128.00" xmlns="http://www.w3.org/2000/svg" xmlns:xlink="http://www.w3.org/1999/xlink">
<g id="graph0" class="graph" transform="scale(1 1) rotate(0) translate(4 123.75)">
<title>MainWindow::on_muteDisp_chk_checkStateChanged</title>
<!-- Node1 -->
<g id="Node000001" class="node">
<title>Node1</title>
<g id="a_Node000001"><a xlink:title=" ">
<polygon fill="#999999" stroke="none" points="286,-60.5 0,-60.5 0,-41.25 286,-41.25 286,-60.5"/>
<text xml:space="preserve" text-anchor="start" x="8" y="-47.05" font-family="Consolas" font-weight="bold" font-size="11.00">MainWindow::on_muteDisp_chk_checkStateChanged</text>
</a>
</g>
</g>
<!-- Node2 -->
<g id="Node000002" class="node">
<title>Node2</title>
<g id="a_Node000002"><a xlink:href="../../d5/ddd/namespacenpi_1_1log.html#a976d8ed596c3a4571209d46c933b5bbe" target="_top" xlink:title=" ">
<polygon fill="white" stroke="none" points="482,-60.5 322,-60.5 322,-41.25 482,-41.25 482,-60.5"/>
<text xml:space="preserve" text-anchor="middle" x="402" y="-46.05" font-family="Consolas" font-size="11.00">npi::log::setMuteDisplay</text>
</a>
</g>
</g>
<!-- Node1&#45;&gt;Node2 -->
<g id="edge1_Node000001_Node000002" class="edge">
<title>Node1&#45;&gt;Node2</title>
<g id="a_edge1_Node000001_Node000002"><a xlink:title=" ">
<path fill="none" stroke="#63b8ff" d="M285.66,-50.88C295.97,-50.88 306.16,-50.88 315.98,-50.88"/>
<polygon fill="#63b8ff" stroke="#63b8ff" points="320.82,-50.88 315.82,-53.13 319.53,-50.88 315.82,-50.88 315.82,-50.88 315.82,-50.88 319.53,-50.88 315.82,-48.63 320.82,-50.88"/>
</a>
</g>
</g>
<!-- Node3 -->
<g id="Node000003" class="node">
<title>Node3</title>
<g id="a_Node000003"><a xlink:href="../../d0/d61/classanonymous__namespace_02_log_8cpp_03_1_1_log_core.html#af85854d22c95e86c8802d7d864fcd350" target="_top" xlink:title=" ">
<polygon fill="white" stroke="none" points="648,-101.75 518,-101.75 518,-60 648,-60 648,-101.75"/>
<text xml:space="preserve" text-anchor="start" x="526" y="-87.3" font-family="Consolas" font-size="11.00">anonymous_namespace</text>
<text xml:space="preserve" text-anchor="start" x="526" y="-76.05" font-family="Consolas" font-size="11.00">{Log::cpp}::LogCore</text>
<text xml:space="preserve" text-anchor="middle" x="583" y="-64.8" font-family="Consolas" font-size="11.00">::Inst_</text>
</a>
</g>
</g>
<!-- Node2&#45;&gt;Node3 -->
<g id="edge2_Node000002_Node000003" class="edge">
<title>Node2&#45;&gt;Node3</title>
<g id="a_edge2_Node000002_Node000003"><a xlink:title=" ">
<path fill="none" stroke="#63b8ff" d="M460.13,-60.45C476.77,-63.24 495.13,-66.32 512.44,-69.22"/>
<polygon fill="#63b8ff" stroke="#63b8ff" points="517.07,-69.99 511.77,-71.39 515.81,-69.78 512.14,-69.17 512.14,-69.17 512.14,-69.17 515.81,-69.78 512.51,-66.95 517.07,-69.99"/>
</a>
</g>
</g>
<!-- Node5 -->
<g id="Node000005" class="node">
<title>Node5</title>
<g id="a_Node000005"><a xlink:href="../../d0/d61/classanonymous__namespace_02_log_8cpp_03_1_1_log_core.html#aff8dac251c0b11206bb4397ee92728bf" target="_top" xlink:title=" ">
<polygon fill="white" stroke="none" points="648,-41.75 518,-41.75 518,0 648,0 648,-41.75"/>
<text xml:space="preserve" text-anchor="start" x="526" y="-27.3" font-family="Consolas" font-size="11.00">anonymous_namespace</text>
<text xml:space="preserve" text-anchor="start" x="526" y="-16.05" font-family="Consolas" font-size="11.00">{Log::cpp}::LogCore</text>
<text xml:space="preserve" text-anchor="middle" x="583" y="-4.8" font-family="Consolas" font-size="11.00">::setMuteDisplay_</text>
</a>
</g>
</g>
<!-- Node2&#45;&gt;Node5 -->
<g id="edge5_Node000002_Node000005" class="edge">
<title>Node2&#45;&gt;Node5</title>
<g id="a_edge5_Node000002_Node000005"><a xlink:title=" ">
<path fill="none" stroke="#63b8ff" d="M460.13,-41.3C476.77,-38.51 495.13,-35.43 512.44,-32.53"/>
<polygon fill="#63b8ff" stroke="#63b8ff" points="517.07,-31.76 512.51,-34.8 515.81,-31.97 512.14,-32.58 512.14,-32.58 512.14,-32.58 515.81,-31.97 511.77,-30.36 517.07,-31.76"/>
</a>
</g>
</g>
<!-- Node4 -->
<g id="Node000004" class="node">
<title>Node4</title>
<g id="a_Node000004"><a xlink:href="../../d0/d61/classanonymous__namespace_02_log_8cpp_03_1_1_log_core.html#a730f0868e0c404fa25a887a023b70138" target="_top" xlink:title=" ">
<polygon fill="white" stroke="none" points="814,-101.75 684,-101.75 684,-60 814,-60 814,-101.75"/>
<text xml:space="preserve" text-anchor="start" x="692" y="-87.3" font-family="Consolas" font-size="11.00">anonymous_namespace</text>
<text xml:space="preserve" text-anchor="start" x="692" y="-76.05" font-family="Consolas" font-size="11.00">{Log::cpp}::LogCore</text>
<text xml:space="preserve" text-anchor="middle" x="749" y="-64.8" font-family="Consolas" font-size="11.00">::LogCore</text>
</a>
</g>
</g>
<!-- Node3&#45;&gt;Node4 -->
<g id="edge3_Node000003_Node000004" class="edge">
<title>Node3&#45;&gt;Node4</title>
<g id="a_edge3_Node000003_Node000004"><a xlink:title=" ">
<path fill="none" stroke="#63b8ff" d="M647.88,-80.88C657.71,-80.88 667.9,-80.88 677.86,-80.88"/>
<polygon fill="#63b8ff" stroke="#63b8ff" points="682.81,-80.88 677.81,-83.13 681.53,-80.88 677.81,-80.88 677.81,-80.88 677.81,-80.88 681.53,-80.88 677.81,-78.63 682.81,-80.88"/>
</a>
</g>
</g>
<!-- Node4&#45;&gt;Node4 -->
<g id="edge4_Node000004_Node000004" class="edge">
<title>Node4&#45;&gt;Node4</title>
<g id="a_edge4_Node000004_Node000004"><a xlink:title=" ">
<path fill="none" stroke="#63b8ff" d="M718.49,-101.67C715.16,-111.32 725.33,-119.75 749,-119.75 767.49,-119.75 777.74,-114.61 779.76,-107.75"/>
<polygon fill="#63b8ff" stroke="#63b8ff" points="779.56,-102.89 782.01,-107.79 779.61,-104.17 779.76,-107.89 779.76,-107.89 779.76,-107.89 779.61,-104.17 777.51,-107.98 779.56,-102.89"/>
</a>
</g>
</g>
</g>
</svg>
