<?xml version="1.0" encoding="UTF-8" standalone="no"?>
<!DOCTYPE svg PUBLIC "-//W3C//DTD SVG 1.1//EN"
 "http://www.w3.org/Graphics/SVG/1.1/DTD/svg11.dtd">
<!-- Generated by graphviz version 14.0.0 (20250921.2048)
 -->
<!-- Title: MainWindow::on_debugConsole_btn_clicked Pages: 1 -->
<svg width="780pt" height="143pt"
 viewBox="0.00 0.00 780.00 143.00" xmlns="http://www.w3.org/2000/svg" xmlns:xlink="http://www.w3.org/1999/xlink">
<g id="graph0" class="graph" transform="scale(1 1) rotate(0) translate(4 138.5)">
<title>MainWindow::on_debugConsole_btn_clicked</title>
<!-- Node1 -->
<g id="Node000001" class="node">
<title>Node1</title>
<g id="a_Node000001"><a xlink:title=" ">
<polygon fill="#999999" stroke="none" points="250,-56.25 0,-56.25 0,-37 250,-37 250,-56.25"/>
<text xml:space="preserve" text-anchor="start" x="8" y="-42.8" font-family="Consolas" font-weight="bold" font-size="11.00">MainWindow::on_debugConsole_btn_clicked</text>
</a>
</g>
</g>
<!-- Node2 -->
<g id="Node000002" class="node">
<title>Node2</title>
<g id="a_Node000002"><a xlink:href="../../d5/ddd/namespacenpi_1_1log.html#a7b8c87cac5cee3c9c4ad9f19aebc8c02" target="_top" xlink:title=" ">
<polygon fill="white" stroke="none" points="437,-93.25 289,-93.25 289,-74 437,-74 437,-93.25"/>
<text xml:space="preserve" text-anchor="middle" x="363" y="-78.8" font-family="Consolas" font-size="11.00">npi::log::closeConsole</text>
</a>
</g>
</g>
<!-- Node1&#45;&gt;Node2 -->
<g id="edge1_Node000001_Node000002" class="edge">
<title>Node1&#45;&gt;Node2</title>
<g id="a_edge1_Node000001_Node000002"><a xlink:title=" ">
<path fill="none" stroke="#63b8ff" d="M187.39,-56.25C220.44,-61.43 261.26,-67.83 295.11,-73.14"/>
<polygon fill="#63b8ff" stroke="#63b8ff" points="299.71,-73.86 294.43,-75.31 298.45,-73.66 294.77,-73.09 294.77,-73.09 294.77,-73.09 298.45,-73.66 295.12,-70.86 299.71,-73.86"/>
</a>
</g>
</g>
<!-- Node6 -->
<g id="Node000006" class="node">
<title>Node6</title>
<g id="a_Node000006"><a xlink:href="../../d5/ddd/namespacenpi_1_1log.html#a3f5453b25bfa7808da0fa9c48d5a0b01" target="_top" xlink:title=" ">
<polygon fill="white" stroke="none" points="440,-56.25 286,-56.25 286,-37 440,-37 440,-56.25"/>
<text xml:space="preserve" text-anchor="middle" x="363" y="-41.8" font-family="Consolas" font-size="11.00">npi::log::isConsoleOpen</text>
</a>
</g>
</g>
<!-- Node1&#45;&gt;Node6 -->
<g id="edge6_Node000001_Node000006" class="edge">
<title>Node1&#45;&gt;Node6</title>
<g id="a_edge6_Node000001_Node000006"><a xlink:title=" ">
<path fill="none" stroke="#63b8ff" d="M249.87,-46.62C260.1,-46.62 270.27,-46.62 280.08,-46.62"/>
<polygon fill="#63b8ff" stroke="#63b8ff" points="284.91,-46.63 279.91,-48.88 283.63,-46.63 279.91,-46.63 279.91,-46.63 279.91,-46.63 283.63,-46.63 279.91,-44.38 284.91,-46.63"/>
</a>
</g>
</g>
<!-- Node7 -->
<g id="Node000007" class="node">
<title>Node7</title>
<g id="a_Node000007"><a xlink:href="../../d5/ddd/namespacenpi_1_1log.html#a35a969078b211913c70a3289d579181f" target="_top" xlink:title=" ">
<polygon fill="white" stroke="none" points="434,-19.25 292,-19.25 292,0 434,0 434,-19.25"/>
<text xml:space="preserve" text-anchor="middle" x="363" y="-4.8" font-family="Consolas" font-size="11.00">npi::log::openConsole</text>
</a>
</g>
</g>
<!-- Node1&#45;&gt;Node7 -->
<g id="edge7_Node000001_Node000007" class="edge">
<title>Node1&#45;&gt;Node7</title>
<g id="a_edge7_Node000001_Node000007"><a xlink:title=" ">
<path fill="none" stroke="#63b8ff" d="M187.39,-37C220.44,-31.82 261.26,-25.42 295.11,-20.11"/>
<polygon fill="#63b8ff" stroke="#63b8ff" points="299.71,-19.39 295.12,-22.39 298.45,-19.59 294.77,-20.16 294.77,-20.16 294.77,-20.16 298.45,-19.59 294.43,-17.94 299.71,-19.39"/>
</a>
</g>
</g>
<!-- Node3 -->
<g id="Node000003" class="node">
<title>Node3</title>
<g id="a_Node000003"><a xlink:href="../../d0/d61/classanonymous__namespace_02_log_8cpp_03_1_1_log_core.html#ab38abcb0abe5c88fffba27d375e87b60" target="_top" xlink:title=" ">
<polygon fill="white" stroke="none" points="606,-134.5 476,-134.5 476,-92.75 606,-92.75 606,-134.5"/>
<text xml:space="preserve" text-anchor="start" x="484" y="-120.05" font-family="Consolas" font-size="11.00">anonymous_namespace</text>
<text xml:space="preserve" text-anchor="start" x="484" y="-108.8" font-family="Consolas" font-size="11.00">{Log::cpp}::LogCore</text>
<text xml:space="preserve" text-anchor="middle" x="541" y="-97.55" font-family="Consolas" font-size="11.00">::closeConsole_</text>
</a>
</g>
</g>
<!-- Node2&#45;&gt;Node3 -->
<g id="edge2_Node000002_Node000003" class="edge">
<title>Node2&#45;&gt;Node3</title>
<g id="a_edge2_Node000002_Node000003"><a xlink:title=" ">
<path fill="none" stroke="#63b8ff" d="M420.17,-93.2C436.03,-95.9 453.48,-98.88 470.04,-101.7"/>
<polygon fill="#63b8ff" stroke="#63b8ff" points="474.9,-102.53 469.59,-103.91 473.64,-102.31 469.97,-101.69 469.97,-101.69 469.97,-101.69 473.64,-102.31 470.35,-99.47 474.9,-102.53"/>
</a>
</g>
</g>
<!-- Node4 -->
<g id="Node000004" class="node">
<title>Node4</title>
<g id="a_Node000004"><a xlink:href="../../d0/d61/classanonymous__namespace_02_log_8cpp_03_1_1_log_core.html#af85854d22c95e86c8802d7d864fcd350" target="_top" xlink:title=" ">
<polygon fill="white" stroke="none" points="606,-74.5 476,-74.5 476,-32.75 606,-32.75 606,-74.5"/>
<text xml:space="preserve" text-anchor="start" x="484" y="-60.05" font-family="Consolas" font-size="11.00">anonymous_namespace</text>
<text xml:space="preserve" text-anchor="start" x="484" y="-48.8" font-family="Consolas" font-size="11.00">{Log::cpp}::LogCore</text>
<text xml:space="preserve" text-anchor="middle" x="541" y="-37.55" font-family="Consolas" font-size="11.00">::Inst_</text>
</a>
</g>
</g>
<!-- Node2&#45;&gt;Node4 -->
<g id="edge3_Node000002_Node000004" class="edge">
<title>Node2&#45;&gt;Node4</title>
<g id="a_edge3_Node000002_Node000004"><a xlink:title=" ">
<path fill="none" stroke="#63b8ff" d="M420.17,-74.05C436.03,-71.35 453.48,-68.37 470.04,-65.55"/>
<polygon fill="#63b8ff" stroke="#63b8ff" points="474.9,-64.72 470.35,-67.78 473.64,-64.94 469.97,-65.56 469.97,-65.56 469.97,-65.56 473.64,-64.94 469.59,-63.34 474.9,-64.72"/>
</a>
</g>
</g>
<!-- Node5 -->
<g id="Node000005" class="node">
<title>Node5</title>
<g id="a_Node000005"><a xlink:href="../../d0/d61/classanonymous__namespace_02_log_8cpp_03_1_1_log_core.html#a730f0868e0c404fa25a887a023b70138" target="_top" xlink:title=" ">
<polygon fill="white" stroke="none" points="772,-74.5 642,-74.5 642,-32.75 772,-32.75 772,-74.5"/>
<text xml:space="preserve" text-anchor="start" x="650" y="-60.05" font-family="Consolas" font-size="11.00">anonymous_namespace</text>
<text xml:space="preserve" text-anchor="start" x="650" y="-48.8" font-family="Consolas" font-size="11.00">{Log::cpp}::LogCore</text>
<text xml:space="preserve" text-anchor="middle" x="707" y="-37.55" font-family="Consolas" font-size="11.00">::LogCore</text>
</a>
</g>
</g>
<!-- Node4&#45;&gt;Node5 -->
<g id="edge4_Node000004_Node000005" class="edge">
<title>Node4&#45;&gt;Node5</title>
<g id="a_edge4_Node000004_Node000005"><a xlink:title=" ">
<path fill="none" stroke="#63b8ff" d="M605.88,-53.62C615.71,-53.62 625.9,-53.62 635.86,-53.62"/>
<polygon fill="#63b8ff" stroke="#63b8ff" points="640.81,-53.63 635.81,-55.88 639.53,-53.63 635.81,-53.63 635.81,-53.63 635.81,-53.63 639.53,-53.63 635.81,-51.38 640.81,-53.63"/>
</a>
</g>
</g>
<!-- Node5&#45;&gt;Node5 -->
<g id="edge5_Node000005_Node000005" class="edge">
<title>Node5&#45;&gt;Node5</title>
<g id="a_edge5_Node000005_Node000005"><a xlink:title=" ">
<path fill="none" stroke="#63b8ff" d="M676.49,-74.42C673.16,-84.07 683.33,-92.5 707,-92.5 725.49,-92.5 735.74,-87.36 737.76,-80.5"/>
<polygon fill="#63b8ff" stroke="#63b8ff" points="737.56,-75.64 740.01,-80.54 737.61,-76.92 737.76,-80.64 737.76,-80.64 737.76,-80.64 737.61,-76.92 735.51,-80.73 737.56,-75.64"/>
</a>
</g>
</g>
</g>
</svg>
