<?xml version="1.0" encoding="UTF-8" standalone="no"?>
<!DOCTYPE svg PUBLIC "-//W3C//DTD SVG 1.1//EN"
 "http://www.w3.org/Graphics/SVG/1.1/DTD/svg11.dtd">
<!-- Generated by graphviz version 14.0.0 (20250921.2048)
 -->
<!-- Title: npi::RefPtrFromThis&lt; T &gt; Pages: 1 -->
<svg width="168pt" height="122pt"
 viewBox="0.00 0.00 168.00 122.00" xmlns="http://www.w3.org/2000/svg" xmlns:xlink="http://www.w3.org/1999/xlink">
<g id="graph0" class="graph" transform="scale(1 1) rotate(0) translate(4 117.5)">
<title>npi::RefPtrFromThis&lt; T &gt;</title>
<!-- Node1 -->
<g id="Node000001" class="node">
<title>Node1</title>
<g id="a_Node000001"><a xlink:title="Enables objects that inherits from this class to produce a RefPtr object referencing themselves if th...">
<polygon fill="#999999" stroke="none" points="160,-19.25 0,-19.25 0,0 160,0 160,-19.25"/>
<text xml:space="preserve" text-anchor="start" x="8" y="-5.8" font-family="Consolas" font-weight="bold" font-size="11.00">npi::RefPtrFromThis&lt; T &gt;</text>
</a>
</g>
</g>
<!-- Node2 -->
<g id="Node000002" class="node">
<title>Node2</title>
<g id="a_Node000002"><a xlink:title=" ">
<polygon fill="white" stroke="none" points="145,-113.5 15,-113.5 15,-71.75 145,-71.75 145,-113.5"/>
<text xml:space="preserve" text-anchor="start" x="23" y="-99.05" font-family="Consolas" font-size="11.00">weak_ptr&lt; typename</text>
<text xml:space="preserve" text-anchor="start" x="23" y="-87.8" font-family="Consolas" font-size="11.00"> npi::RefPtrHost&lt; T</text>
<text xml:space="preserve" text-anchor="middle" x="80" y="-76.55" font-family="Consolas" font-size="11.00"> &gt;::Obs &gt;</text>
</a>
</g>
</g>
<!-- Node2&#45;&gt;Node1 -->
<g id="edge1_Node000001_Node000002" class="edge">
<title>Node2&#45;&gt;Node1</title>
<g id="a_edge1_Node000001_Node000002"><a xlink:title=" ">
<path fill="none" stroke="#9a32cd" stroke-dasharray="5,2" d="M80,-65.85C80,-49.8 80,-30.2 80,-19.19"/>
<polygon fill="#9a32cd" stroke="#9a32cd" points="80,-70.8 77.75,-65.8 80,-69.52 80,-65.8 80,-65.8 80,-65.8 80,-69.52 82.25,-65.8 80,-70.8"/>
</a>
</g>
<text xml:space="preserve" text-anchor="start" x="83" y="-41.25" font-family="Consolas" font-size="10.00" fill="grey">weakUni_</text>
</g>
</g>
</svg>
