<?xml version="1.0" encoding="UTF-8" standalone="no"?>
<!DOCTYPE svg PUBLIC "-//W3C//DTD SVG 1.1//EN"
 "http://www.w3.org/Graphics/SVG/1.1/DTD/svg11.dtd">
<!-- Generated by graphviz version 14.0.0 (20250921.2048)
 -->
<!-- Title: FixedStrings Pages: 1 -->
<svg width="275pt" height="128pt"
 viewBox="0.00 0.00 275.00 128.00" xmlns="http://www.w3.org/2000/svg" xmlns:xlink="http://www.w3.org/1999/xlink">

<svg id="main" version="1.1" xmlns="http://www.w3.org/2000/svg" xmlns:xlink="http://www.w3.org/1999/xlink" xml:space="preserve">

<style type="text/css"><![CDATA[
.node, .edge {opacity: 0.7;}
.node.selected, .edge.selected {opacity: 1;}
.edge:hover path { stroke: red; }
.edge:hover polygon { stroke: red; fill: red; }
]]></style>
<script type="application/ecmascript" xlink:href="../../svg.min.js"/>
<svg id="graph" class="graph">
<g id="graph0" class="graph" transform="scale(1 1) rotate(0) translate(4 124)">
<title>FixedStrings</title>
<!-- Node1 -->
<g id="Node000001" class="node">
<title>Node1</title>
<g id="a_Node000001"><a xlink:title=" ">
<polygon fill="#999999" stroke="none" points="168,-19.25 80,-19.25 80,0 168,0 168,-19.25"/>
<text xml:space="preserve" text-anchor="start" x="88" y="-5.8" font-family="Consolas" font-weight="bold" font-size="11.00">FixedStrings</text>
</a>
</g>
</g>
<!-- Node2 -->
<g id="Node000002" class="node">
<title>Node2</title>
<g id="a_Node000002"><a xlink:title=" ">
<polygon fill="white" stroke="none" points="64,-120 0,-120 0,-100.75 64,-100.75 64,-120"/>
<text xml:space="preserve" text-anchor="middle" x="32" y="-105.55" font-family="Consolas" font-size="11.00">uint32_t</text>
</a>
</g>
</g>
<!-- Node2&#45;&gt;Node1 -->
<g id="edge1_Node000001_Node000002" class="edge">
<title>Node2&#45;&gt;Node1</title>
<g id="a_edge1_Node000001_Node000002"><a xlink:title=" ">
<path fill="none" stroke="#9a32cd" stroke-dasharray="5,2" d="M32,-95.29C32.75,-79.28 36.37,-53.3 51,-37.25 58.73,-28.78 69.37,-23 80.14,-19.05"/>
<polygon fill="#9a32cd" stroke="#9a32cd" points="31.87,-99.87 29.76,-94.81 31.9,-98.59 32.01,-94.87 32.01,-94.87 32.01,-94.87 31.9,-98.59 34.26,-94.94 31.87,-99.87"/>
</a>
</g>
<text xml:space="preserve" text-anchor="start" x="54" y="-55.75" font-family="Consolas" font-size="10.00" fill="grey">funcNameLen_</text>
</g>
<!-- Node3 -->
<g id="Node000003" class="node">
<title>Node3</title>
<g id="a_Node000003"><a xlink:title=" ">
<polygon fill="white" stroke="none" points="156,-120 92,-120 92,-100.75 156,-100.75 156,-120"/>
<text xml:space="preserve" text-anchor="middle" x="124" y="-105.55" font-family="Consolas" font-size="11.00">uint16_t</text>
</a>
</g>
</g>
<!-- Node3&#45;&gt;Node1 -->
<g id="edge2_Node000001_Node000003" class="edge">
<title>Node3&#45;&gt;Node1</title>
<g id="a_edge2_Node000001_Node000003"><a xlink:title=" ">
<path fill="none" stroke="#9a32cd" stroke-dasharray="5,2" d="M124,-94.79C124,-73.83 124,-35.84 124,-19.02"/>
<polygon fill="#9a32cd" stroke="#9a32cd" points="124,-99.74 121.75,-94.74 124,-98.46 124,-94.74 124,-94.74 124,-94.74 124,-98.46 126.25,-94.74 124,-99.74"/>
</a>
</g>
<text xml:space="preserve" text-anchor="start" x="127" y="-63" font-family="Consolas" font-size="10.00" fill="grey">categoryLen_</text>
<text xml:space="preserve" text-anchor="start" x="127" y="-48.5" font-family="Consolas" font-size="10.00" fill="grey">fileNameLen_</text>
</g>
<!-- Node4 -->
<g id="Node000004" class="node">
<title>Node4</title>
<g id="a_Node000004"><a xlink:title=" ">
<polygon fill="white" stroke="none" points="236,-120 196,-120 196,-100.75 236,-100.75 236,-120"/>
<text xml:space="preserve" text-anchor="middle" x="216" y="-105.55" font-family="Consolas" font-size="11.00">char</text>
</a>
</g>
</g>
<!-- Node4&#45;&gt;Node1 -->
<g id="edge3_Node000001_Node000004" class="edge">
<title>Node4&#45;&gt;Node1</title>
<g id="a_edge3_Node000001_Node000004"><a xlink:title=" ">
<path fill="none" stroke="#9a32cd" stroke-dasharray="5,2" d="M215.31,-95.29C213.78,-79.28 209,-53.29 194,-37.25 186.19,-28.89 175.47,-23.13 164.78,-19.18"/>
<polygon fill="#9a32cd" stroke="#9a32cd" points="215.66,-99.87 213.03,-95.06 215.56,-98.6 215.27,-94.89 215.27,-94.89 215.27,-94.89 215.56,-98.6 217.52,-94.71 215.66,-99.87"/>
</a>
</g>
<text xml:space="preserve" text-anchor="start" x="216.58" y="-70.25" font-family="Consolas" font-size="10.00" fill="grey">category_</text>
<text xml:space="preserve" text-anchor="start" x="216.58" y="-55.75" font-family="Consolas" font-size="10.00" fill="grey">fileName_</text>
<text xml:space="preserve" text-anchor="start" x="216.58" y="-41.25" font-family="Consolas" font-size="10.00" fill="grey">funcName_</text>
</g>
</g>
</svg>
</svg>

<style type='text/css'>
<![CDATA[
[data-mouse-over-selected='false'] { opacity: 0.7; }
[data-mouse-over-selected='true']  { opacity: 1.0; }
]]>
</style>
<script type="application/ecmascript"><![CDATA[
document.addEventListener('DOMContentLoaded', (event) => {
  highlightEdges();
  highlightAdjacentNodes();
});
]]></script>
</svg>
