<?xml version="1.0" encoding="UTF-8" standalone="no"?>
<!DOCTYPE svg PUBLIC "-//W3C//DTD SVG 1.1//EN"
 "http://www.w3.org/Graphics/SVG/1.1/DTD/svg11.dtd">
<!-- Generated by graphviz version 14.0.0 (20250921.2048)
 -->
<!-- Title: npi::Font::Group Pages: 1 -->
<svg width="272pt" height="99pt"
 viewBox="0.00 0.00 272.00 99.00" xmlns="http://www.w3.org/2000/svg" xmlns:xlink="http://www.w3.org/1999/xlink">

<svg id="main" version="1.1" xmlns="http://www.w3.org/2000/svg" xmlns:xlink="http://www.w3.org/1999/xlink" xml:space="preserve">

<style type="text/css"><![CDATA[
.node, .edge {opacity: 0.7;}
.node.selected, .edge.selected {opacity: 1;}
.edge:hover path { stroke: red; }
.edge:hover polygon { stroke: red; fill: red; }
]]></style>
<script type="application/ecmascript" xlink:href="../../svg.min.js"/>
<svg id="graph" class="graph">
<g id="graph0" class="graph" transform="scale(1 1) rotate(0) translate(4 95)">
<title>npi::Font::Group</title>
<!-- Node1 -->
<g id="Node000001" class="node">
<title>Node1</title>
<g id="a_Node000001"><a xlink:title="Cached triplet of QFont and its metrics.">
<polygon fill="#999999" stroke="none" points="164,-19.25 52,-19.25 52,0 164,0 164,-19.25"/>
<text xml:space="preserve" text-anchor="start" x="60" y="-5.8" font-family="Consolas" font-weight="bold" font-size="11.00">npi::Font::Group</text>
</a>
</g>
</g>
<!-- Node2 -->
<g id="Node000002" class="node">
<title>Node2</title>
<g id="a_Node000002"><a xlink:title=" ">
<polygon fill="white" stroke="none" points="46,-91 0,-91 0,-71.75 46,-71.75 46,-91"/>
<text xml:space="preserve" text-anchor="middle" x="23" y="-76.55" font-family="Consolas" font-size="11.00">QFont</text>
</a>
</g>
</g>
<!-- Node2&#45;&gt;Node1 -->
<g id="edge1_Node000001_Node000002" class="edge">
<title>Node2&#45;&gt;Node1</title>
<g id="a_edge1_Node000001_Node000002"><a xlink:title=" ">
<path fill="none" stroke="#9a32cd" stroke-dasharray="5,2" d="M36.54,-67.81C46.16,-59.02 59.51,-47.13 71.75,-37.25 79.53,-30.97 88.59,-24.32 95.71,-19.23"/>
<polygon fill="#9a32cd" stroke="#9a32cd" points="33.03,-71.03 35.19,-65.99 33.97,-70.16 36.71,-67.65 36.71,-67.65 36.71,-67.65 33.97,-70.16 38.23,-69.3 33.03,-71.03"/>
</a>
</g>
<text xml:space="preserve" text-anchor="start" x="74.75" y="-41.25" font-family="Consolas" font-size="10.00" fill="grey">font_</text>
</g>
<!-- Node3 -->
<g id="Node000003" class="node">
<title>Node3</title>
<g id="a_Node000003"><a xlink:title=" ">
<polygon fill="white" stroke="none" points="152,-91 64,-91 64,-71.75 152,-71.75 152,-91"/>
<text xml:space="preserve" text-anchor="middle" x="108" y="-76.55" font-family="Consolas" font-size="11.00">QFontMetrics</text>
</a>
</g>
</g>
<!-- Node3&#45;&gt;Node1 -->
<g id="edge2_Node000001_Node000003" class="edge">
<title>Node3&#45;&gt;Node1</title>
<g id="a_edge2_Node000001_Node000003"><a xlink:title=" ">
<path fill="none" stroke="#9a32cd" stroke-dasharray="5,2" d="M108,-65.89C108,-51.81 108,-30.89 108,-19.25"/>
<polygon fill="#9a32cd" stroke="#9a32cd" points="108,-70.6 105.75,-65.6 108,-69.32 108,-65.6 108,-65.6 108,-65.6 108,-69.32 110.25,-65.6 108,-70.6"/>
</a>
</g>
<text xml:space="preserve" text-anchor="start" x="111" y="-41.25" font-family="Consolas" font-size="10.00" fill="grey">metrics_</text>
</g>
<!-- Node4 -->
<g id="Node000004" class="node">
<title>Node4</title>
<g id="a_Node000004"><a xlink:title=" ">
<polygon fill="white" stroke="none" points="264,-91 170,-91 170,-71.75 264,-71.75 264,-91"/>
<text xml:space="preserve" text-anchor="middle" x="217" y="-76.55" font-family="Consolas" font-size="11.00">QFontMetricsF</text>
</a>
</g>
</g>
<!-- Node4&#45;&gt;Node1 -->
<g id="edge3_Node000001_Node000004" class="edge">
<title>Node4&#45;&gt;Node1</title>
<g id="a_edge3_Node000001_Node000004"><a xlink:title=" ">
<path fill="none" stroke="#9a32cd" stroke-dasharray="5,2" d="M202.09,-67.95C190.88,-58.9 174.95,-46.63 160,-37.25 149.35,-30.56 136.81,-24.11 126.72,-19.23"/>
<polygon fill="#9a32cd" stroke="#9a32cd" points="205.94,-71.09 200.64,-69.68 204.95,-70.28 202.07,-67.93 202.07,-67.93 202.07,-67.93 204.95,-70.28 203.49,-66.19 205.94,-71.09"/>
</a>
</g>
<text xml:space="preserve" text-anchor="start" x="185.62" y="-41.25" font-family="Consolas" font-size="10.00" fill="grey">metricsF_</text>
</g>
</g>
</svg>
</svg>

<style type='text/css'>
<![CDATA[
[data-mouse-over-selected='false'] { opacity: 0.7; }
[data-mouse-over-selected='true']  { opacity: 1.0; }
]]>
</style>
<script type="application/ecmascript"><![CDATA[
document.addEventListener('DOMContentLoaded', (event) => {
  highlightEdges();
  highlightAdjacentNodes();
});
]]></script>
</svg>
