<?xml version="1.0" encoding="UTF-8" standalone="no"?>
<!DOCTYPE svg PUBLIC "-//W3C//DTD SVG 1.1//EN"
 "http://www.w3.org/Graphics/SVG/1.1/DTD/svg11.dtd">
<!-- Generated by graphviz version 14.0.0 (20250921.2048)
 -->
<!-- Title: npi::Props::Props Pages: 1 -->
<svg width="304pt" height="138pt"
 viewBox="0.00 0.00 304.00 138.00" xmlns="http://www.w3.org/2000/svg" xmlns:xlink="http://www.w3.org/1999/xlink">
<g id="graph0" class="graph" transform="scale(1 1) rotate(0) translate(4 134.25)">
<title>npi::Props::Props</title>
<!-- Node1 -->
<g id="Node000001" class="node">
<title>Node1</title>
<g id="a_Node000001"><a xlink:title=" ">
<polygon fill="#999999" stroke="none" points="296,-74.25 178,-74.25 178,-55 296,-55 296,-74.25"/>
<text xml:space="preserve" text-anchor="start" x="186" y="-60.8" font-family="Consolas" font-weight="bold" font-size="11.00">npi::Props::Props</text>
</a>
</g>
</g>
<!-- Node2 -->
<g id="Node000002" class="node">
<title>Node2</title>
<g id="a_Node000002"><a xlink:href="../../de/d0b/structnpi_1_1_props.html#af2dd4308a5970cb0b5c90f306a5965e9" target="_top" xlink:title=" ">
<polygon fill="white" stroke="none" points="130,-130.25 12,-130.25 12,-111 130,-111 130,-130.25"/>
<text xml:space="preserve" text-anchor="middle" x="71" y="-115.8" font-family="Consolas" font-size="11.00">npi::Props::Props</text>
</a>
</g>
</g>
<!-- Node1&#45;&gt;Node2 -->
<g id="edge1_Node000001_Node000002" class="edge">
<title>Node1&#45;&gt;Node2</title>
<g id="a_edge1_Node000001_Node000002"><a xlink:title=" ">
<path fill="none" stroke="#63b8ff" d="M209.1,-76.61C190.49,-84.62 165.03,-95.05 142,-102.62 132.7,-105.68 122.57,-108.55 112.98,-111.06"/>
<polygon fill="#63b8ff" stroke="#63b8ff" points="213.53,-74.69 209.84,-78.74 212.35,-75.2 208.94,-76.68 208.94,-76.68 208.94,-76.68 212.35,-75.2 208.05,-74.61 213.53,-74.69"/>
</a>
</g>
</g>
<!-- Node3 -->
<g id="Node000003" class="node">
<title>Node3</title>
<g id="a_Node000003"><a xlink:href="../../de/d0b/structnpi_1_1_props.html#a858803ac93046cc9909c183454ac53f0" target="_top" xlink:title=" ">
<polygon fill="white" stroke="none" points="130,-93.25 12,-93.25 12,-74 130,-74 130,-93.25"/>
<text xml:space="preserve" text-anchor="middle" x="71" y="-78.8" font-family="Consolas" font-size="11.00">npi::Props::Props</text>
</a>
</g>
</g>
<!-- Node1&#45;&gt;Node3 -->
<g id="edge2_Node000001_Node000003" class="edge">
<title>Node1&#45;&gt;Node3</title>
<g id="a_edge2_Node000001_Node000003"><a xlink:title=" ">
<path fill="none" stroke="#63b8ff" d="M172.25,-72.01C158.28,-73.63 143.57,-75.33 129.85,-76.92"/>
<polygon fill="#63b8ff" stroke="#63b8ff" points="176.97,-71.46 172.26,-74.27 175.7,-71.61 172,-72.04 172,-72.04 172,-72.04 175.7,-71.61 171.74,-69.8 176.97,-71.46"/>
</a>
</g>
</g>
<!-- Node4 -->
<g id="Node000004" class="node">
<title>Node4</title>
<g id="a_Node000004"><a xlink:href="../../de/d0b/structnpi_1_1_props.html#a367040c72c92efd245a2e6938a4e8b35" target="_top" xlink:title=" ">
<polygon fill="white" stroke="none" points="142,-56.25 0,-56.25 0,-37 142,-37 142,-56.25"/>
<text xml:space="preserve" text-anchor="middle" x="71" y="-41.8" font-family="Consolas" font-size="11.00">npi::Props::operator=</text>
</a>
</g>
</g>
<!-- Node1&#45;&gt;Node4 -->
<g id="edge3_Node000001_Node000004" class="edge">
<title>Node1&#45;&gt;Node4</title>
<g id="a_edge3_Node000001_Node000004"><a xlink:title=" ">
<path fill="none" stroke="#63b8ff" d="M172.08,-57.61C162.2,-56.53 151.96,-55.4 141.95,-54.3"/>
<polygon fill="#63b8ff" stroke="#63b8ff" points="176.97,-58.15 171.75,-59.84 175.69,-58.01 172,-57.6 172,-57.6 172,-57.6 175.69,-58.01 172.24,-55.36 176.97,-58.15"/>
</a>
</g>
</g>
<!-- Node5 -->
<g id="Node000005" class="node">
<title>Node5</title>
<g id="a_Node000005"><a xlink:href="../../de/d0b/structnpi_1_1_props.html#a6f5ca4db2615c405d56df7bce4be08e4" target="_top" xlink:title=" ">
<polygon fill="white" stroke="none" points="142,-19.25 0,-19.25 0,0 142,0 142,-19.25"/>
<text xml:space="preserve" text-anchor="middle" x="71" y="-4.8" font-family="Consolas" font-size="11.00">npi::Props::operator=</text>
</a>
</g>
</g>
<!-- Node1&#45;&gt;Node5 -->
<g id="edge4_Node000001_Node000005" class="edge">
<title>Node1&#45;&gt;Node5</title>
<g id="a_edge4_Node000001_Node000005"><a xlink:title=" ">
<path fill="none" stroke="#63b8ff" d="M208.33,-52.69C189.78,-44.95 164.68,-34.97 142,-27.62 132.57,-24.57 122.29,-21.69 112.59,-19.16"/>
<polygon fill="#63b8ff" stroke="#63b8ff" points="212.75,-54.55 207.27,-54.69 211.56,-54.05 208.14,-52.61 208.14,-52.61 208.14,-52.61 211.56,-54.05 209.01,-50.54 212.75,-54.55"/>
</a>
</g>
</g>
</g>
</svg>
