<?xml version="1.0" encoding="UTF-8" standalone="no"?>
<!DOCTYPE svg PUBLIC "-//W3C//DTD SVG 1.1//EN"
 "http://www.w3.org/Graphics/SVG/1.1/DTD/svg11.dtd">
<!-- Generated by graphviz version 14.0.0 (20250921.2048)
 -->
<!-- Title: anonymous_namespace{Log::cpp}::LogCore::setFilterRules_ Pages: 1 -->
<svg width="770pt" height="39pt"
 viewBox="0.00 0.00 770.00 39.00" xmlns="http://www.w3.org/2000/svg" xmlns:xlink="http://www.w3.org/1999/xlink">
<g id="graph0" class="graph" transform="scale(1 1) rotate(0) translate(4 34.5)">
<title>anonymous_namespace{Log::cpp}::LogCore::setFilterRules_</title>
<!-- Node1 -->
<g id="Node000001" class="node">
<title>Node1</title>
<g id="a_Node000001"><a xlink:title=" ">
<polygon fill="#999999" stroke="none" points="762,-24.88 416,-24.88 416,-5.62 762,-5.62 762,-24.88"/>
<text xml:space="preserve" text-anchor="start" x="424" y="-11.43" font-family="Consolas" font-weight="bold" font-size="11.00">anonymous_namespace{Log::cpp}::LogCore::setFilterRules_</text>
</a>
</g>
</g>
<!-- Node2 -->
<g id="Node000002" class="node">
<title>Node2</title>
<g id="a_Node000002"><a xlink:href="../../d5/ddd/namespacenpi_1_1log.html#ae0e278f0a3f2618e1fff9b05fdcc0f9f" target="_top" xlink:title=" ">
<polygon fill="white" stroke="none" points="380,-24.88 208,-24.88 208,-5.62 380,-5.62 380,-24.88"/>
<text xml:space="preserve" text-anchor="middle" x="294" y="-10.43" font-family="Consolas" font-size="11.00">npi::log::clearFilterRules</text>
</a>
</g>
</g>
<!-- Node1&#45;&gt;Node2 -->
<g id="edge1_Node000001_Node000002" class="edge">
<title>Node1&#45;&gt;Node2</title>
<g id="a_edge1_Node000001_Node000002"><a xlink:title=" ">
<path fill="none" stroke="#63b8ff" d="M410.16,-15.25C399.8,-15.25 389.66,-15.25 379.95,-15.25"/>
<polygon fill="#63b8ff" stroke="#63b8ff" points="415.07,-15.25 410.07,-17.5 413.79,-15.25 410.07,-15.25 410.07,-15.25 410.07,-15.25 413.79,-15.25 410.07,-13 415.07,-15.25"/>
</a>
</g>
</g>
<!-- Node3 -->
<g id="Node000003" class="node">
<title>Node3</title>
<g id="a_Node000003"><a xlink:href="../../d9/dc6/class_main_window.html#ad85648560b6731461315dc87a3803a20" target="_top" xlink:title=" ">
<polygon fill="white" stroke="none" points="172,-30.5 0,-30.5 0,0 172,0 172,-30.5"/>
<text xml:space="preserve" text-anchor="start" x="8" y="-16.05" font-family="Consolas" font-size="11.00">MainWindow::on_filterRules</text>
<text xml:space="preserve" text-anchor="middle" x="86" y="-4.8" font-family="Consolas" font-size="11.00">Clear_btn_clicked</text>
</a>
</g>
</g>
<!-- Node2&#45;&gt;Node3 -->
<g id="edge2_Node000002_Node000003" class="edge">
<title>Node2&#45;&gt;Node3</title>
<g id="a_edge2_Node000002_Node000003"><a xlink:title=" ">
<path fill="none" stroke="#63b8ff" d="M201.82,-15.25C191.83,-15.25 181.69,-15.25 171.78,-15.25"/>
<polygon fill="#63b8ff" stroke="#63b8ff" points="206.8,-15.25 201.8,-17.5 205.52,-15.25 201.8,-15.25 201.8,-15.25 201.8,-15.25 205.52,-15.25 201.8,-13 206.8,-15.25"/>
</a>
</g>
</g>
</g>
</svg>
