<?xml version="1.0" encoding="UTF-8" standalone="no"?>
<!DOCTYPE svg PUBLIC "-//W3C//DTD SVG 1.1//EN"
 "http://www.w3.org/Graphics/SVG/1.1/DTD/svg11.dtd">
<!-- Generated by graphviz version 14.0.0 (20250921.2048)
 -->
<!-- Title: anonymous_namespace{Log::cpp}::LogCore::LogCore Pages: 1 -->
<!--zoomable 391 -->

<svg id="main" version="1.1" xmlns="http://www.w3.org/2000/svg" xmlns:xlink="http://www.w3.org/1999/xlink" xml:space="preserve" onload="init(evt)">

<style type="text/css"><![CDATA[
.node, .edge {opacity: 0.7;}
.node.selected, .edge.selected {opacity: 1;}
.edge:hover path { stroke: red; }
.edge:hover polygon { stroke: red; fill: red; }
]]></style>

<defs>
  <circle id="rim" cx="0" cy="0" r="7"/>
  <circle id="rim2" cx="0" cy="0" r="3.5"/>
  <g id="zoomPlus">
    <use xlink:href="#rim" fill="#404040"><set attributeName="fill" to="#808080" begin="zoomplus.mouseover" end="zoomplus.mouseout"/></use>
    <path d="M-4,0h8M0,-4v8" fill="none" stroke="white" stroke-width="1.5" pointer-events="none"/>
  </g>
  <g id="zoomMin">
    <use xlink:href="#rim" fill="#404040"><set attributeName="fill" to="#808080" begin="zoomminus.mouseover" end="zoomminus.mouseout"/></use>
    <path d="M-4,0h8" fill="none" stroke="white" stroke-width="1.5" pointer-events="none"/>
  </g>
  <g id="arrowUp" transform="translate(30 24)">
    <use xlink:href="#rim"/>
    <path pointer-events="none" fill="none" stroke="white" stroke-width="1.5" d="M0,-3.0v7 M-2.5,-0.5L0,-3.0L2.5,-0.5"/>
  </g>
  <g id="arrowRight" transform="rotate(90) translate(36 -43)">
    <use xlink:href="#rim"/>
    <path pointer-events="none" fill="none" stroke="white" stroke-width="1.5" d="M0,-3.0v7 M-2.5,-0.5L0,-3.0L2.5,-0.5"/>
  </g>
  <g id="arrowDown" transform="rotate(180) translate(-30 -48)">
    <use xlink:href="#rim"/>
    <path pointer-events="none" fill="none" stroke="white" stroke-width="1.5" d="M0,-3.0v7 M-2.5,-0.5L0,-3.0L2.5,-0.5"/>
  </g>
  <g id="arrowLeft" transform="rotate(270) translate(-36 17)">
    <use xlink:href="#rim"/>
    <path pointer-events="none" fill="none" stroke="white" stroke-width="1.5" d="M0,-3.0v7 M-2.5,-0.5L0,-3.0L2.5,-0.5"/>
  </g>
  <g id="resetDef">
    <use xlink:href="#rim2" fill="#404040"><set attributeName="fill" to="#808080" begin="reset.mouseover" end="reset.mouseout"/></use>
  </g>
</defs>
<script type="application/ecmascript">
var viewWidth = 912;
var viewHeight = 391;
var sectionId = 'dynsection-7';
</script>
<script type="application/ecmascript" xlink:href="../../svg.min.js"/>
<svg id="graph" class="graph">
<g id="viewport">
<title>anonymous_namespace{Log::cpp}::LogCore::LogCore</title>
<!-- Node1 -->
<g id="Node000001" class="node">
<title>Node1</title>
<g id="a_Node000001"><a xlink:title=" ">
<polygon fill="#999999" stroke="none" points="904,-165.88 606,-165.88 606,-146.62 904,-146.62 904,-165.88"/>
<text xml:space="preserve" text-anchor="start" x="614" y="-152.43" font-family="Consolas" font-weight="bold" font-size="11.00">anonymous_namespace{Log::cpp}::LogCore::LogCore</text>
</a>
</g>
</g>
<!-- Node1&#45;&gt;Node1 -->
<g id="edge1_Node000001_Node000001" class="edge">
<title>Node1&#45;&gt;Node1</title>
<g id="a_edge1_Node000001_Node000001"><a xlink:title=" ">
<path fill="none" stroke="#63b8ff" d="M798.37,-168.61C809.25,-176.41 794.79,-183.88 755,-183.88 710.32,-183.88 697.58,-174.46 716.78,-165.73"/>
<polygon fill="#63b8ff" stroke="#63b8ff" points="794.28,-166.33 799.75,-166.8 795.4,-166.95 798.65,-168.76 798.65,-168.76 798.65,-168.76 795.4,-166.95 797.55,-170.73 794.28,-166.33"/>
</a>
</g>
</g>
<!-- Node2 -->
<g id="Node000002" class="node">
<title>Node2</title>
<g id="a_Node000002"><a xlink:href="../../d0/d61/classanonymous__namespace_02_log_8cpp_03_1_1_log_core.html#a184d8616cfc2b37e3d26357a263e428b" target="_top" xlink:title=" ">
<polygon fill="white" stroke="none" points="570,-267.12 440,-267.12 440,-225.38 570,-225.38 570,-267.12"/>
<text xml:space="preserve" text-anchor="start" x="448" y="-252.68" font-family="Consolas" font-size="11.00">anonymous_namespace</text>
<text xml:space="preserve" text-anchor="start" x="448" y="-241.43" font-family="Consolas" font-size="11.00">{Log::cpp}::LogCore</text>
<text xml:space="preserve" text-anchor="middle" x="505" y="-230.18" font-family="Consolas" font-size="11.00">::LogCore</text>
</a>
</g>
</g>
<!-- Node1&#45;&gt;Node2 -->
<g id="edge2_Node000001_Node000002" class="edge">
<title>Node1&#45;&gt;Node2</title>
<g id="a_edge2_Node000001_Node000002"><a xlink:title=" ">
<path fill="none" stroke="#63b8ff" d="M722.25,-167.77C682.25,-182.29 612.78,-207.5 563.37,-225.43"/>
<polygon fill="#63b8ff" stroke="#63b8ff" points="726.78,-166.13 722.85,-169.95 725.58,-166.56 722.08,-167.83 722.08,-167.83 722.08,-167.83 725.58,-166.56 721.32,-165.72 726.78,-166.13"/>
</a>
</g>
</g>
<!-- Node3 -->
<g id="Node000003" class="node">
<title>Node3</title>
<g id="a_Node000003"><a xlink:href="../../d0/d61/classanonymous__namespace_02_log_8cpp_03_1_1_log_core.html#af85854d22c95e86c8802d7d864fcd350" target="_top" xlink:title=" ">
<polygon fill="white" stroke="none" points="570,-207.12 440,-207.12 440,-165.38 570,-165.38 570,-207.12"/>
<text xml:space="preserve" text-anchor="start" x="448" y="-192.68" font-family="Consolas" font-size="11.00">anonymous_namespace</text>
<text xml:space="preserve" text-anchor="start" x="448" y="-181.43" font-family="Consolas" font-size="11.00">{Log::cpp}::LogCore</text>
<text xml:space="preserve" text-anchor="middle" x="505" y="-170.18" font-family="Consolas" font-size="11.00">::Inst_</text>
</a>
</g>
</g>
<!-- Node1&#45;&gt;Node3 -->
<g id="edge3_Node000001_Node000003" class="edge">
<title>Node1&#45;&gt;Node3</title>
<g id="a_edge3_Node000001_Node000003"><a xlink:title=" ">
<path fill="none" stroke="#63b8ff" d="M668.51,-166.59C636.1,-170.51 599.81,-174.9 569.75,-178.54"/>
<polygon fill="#63b8ff" stroke="#63b8ff" points="673.3,-166.01 668.6,-168.85 672.03,-166.17 668.33,-166.61 668.33,-166.61 668.33,-166.61 672.03,-166.17 668.06,-164.38 673.3,-166.01"/>
</a>
</g>
</g>
<!-- Node17 -->
<g id="Node000017" class="node">
<title>Node17</title>
<g id="a_Node000017"><a xlink:href="../../d0/d61/classanonymous__namespace_02_log_8cpp_03_1_1_log_core.html#a7760e6077674e53d8c8bd17c8da105fd" target="_top" xlink:title=" ">
<polygon fill="white" stroke="none" points="570,-147.12 440,-147.12 440,-105.38 570,-105.38 570,-147.12"/>
<text xml:space="preserve" text-anchor="start" x="448" y="-132.68" font-family="Consolas" font-size="11.00">anonymous_namespace</text>
<text xml:space="preserve" text-anchor="start" x="448" y="-121.42" font-family="Consolas" font-size="11.00">{Log::cpp}::LogCore</text>
<text xml:space="preserve" text-anchor="middle" x="505" y="-110.17" font-family="Consolas" font-size="11.00">::operator=</text>
</a>
</g>
</g>
<!-- Node1&#45;&gt;Node17 -->
<g id="edge20_Node000001_Node000017" class="edge">
<title>Node1&#45;&gt;Node17</title>
<g id="a_edge20_Node000001_Node000017"><a xlink:title=" ">
<path fill="none" stroke="#63b8ff" d="M668.51,-145.91C636.1,-141.99 599.81,-137.6 569.75,-133.96"/>
<polygon fill="#63b8ff" stroke="#63b8ff" points="673.3,-146.49 668.06,-148.12 672.03,-146.33 668.33,-145.89 668.33,-145.89 668.33,-145.89 672.03,-146.33 668.6,-143.65 673.3,-146.49"/>
</a>
</g>
</g>
<!-- Node18 -->
<g id="Node000018" class="node">
<title>Node18</title>
<g id="a_Node000018"><a xlink:href="../../d0/d61/classanonymous__namespace_02_log_8cpp_03_1_1_log_core.html#af2d03cd8077874f51d37ff21b92a18fe" target="_top" xlink:title=" ">
<polygon fill="white" stroke="none" points="570,-87.12 440,-87.12 440,-45.38 570,-45.38 570,-87.12"/>
<text xml:space="preserve" text-anchor="start" x="448" y="-72.67" font-family="Consolas" font-size="11.00">anonymous_namespace</text>
<text xml:space="preserve" text-anchor="start" x="448" y="-61.42" font-family="Consolas" font-size="11.00">{Log::cpp}::LogCore</text>
<text xml:space="preserve" text-anchor="middle" x="505" y="-50.17" font-family="Consolas" font-size="11.00">::operator=</text>
</a>
</g>
</g>
<!-- Node1&#45;&gt;Node18 -->
<g id="edge21_Node000001_Node000018" class="edge">
<title>Node1&#45;&gt;Node18</title>
<g id="a_edge21_Node000001_Node000018"><a xlink:title=" ">
<path fill="none" stroke="#63b8ff" d="M722.25,-144.73C682.25,-130.21 612.78,-105 563.37,-87.07"/>
<polygon fill="#63b8ff" stroke="#63b8ff" points="726.78,-146.37 721.32,-146.78 725.58,-145.94 722.08,-144.67 722.08,-144.67 722.08,-144.67 725.58,-145.94 722.85,-142.55 726.78,-146.37"/>
</a>
</g>
</g>
<!-- Node4 -->
<g id="Node000004" class="node">
<title>Node4</title>
<g id="a_Node000004"><a xlink:href="../../d5/ddd/namespacenpi_1_1log.html#ae0e278f0a3f2618e1fff9b05fdcc0f9f" target="_top" xlink:title=" ">
<polygon fill="white" stroke="none" points="401,-373.88 229,-373.88 229,-354.62 401,-354.62 401,-373.88"/>
<text xml:space="preserve" text-anchor="middle" x="315" y="-359.43" font-family="Consolas" font-size="11.00">npi::log::clearFilterRules</text>
</a>
</g>
</g>
<!-- Node3&#45;&gt;Node4 -->
<g id="edge4_Node000003_Node000004" class="edge">
<title>Node3&#45;&gt;Node4</title>
<g id="a_edge4_Node000003_Node000004"><a xlink:title=" ">
<path fill="none" stroke="#63b8ff" d="M445.4,-210.77C443.47,-212.49 441.66,-214.31 440,-216.25 402.7,-259.86 444.91,-300 404,-340.25 397.57,-346.58 389.63,-351.28 381.19,-354.77"/>
<polygon fill="#63b8ff" stroke="#63b8ff" points="449.16,-207.74 446.68,-212.63 448.16,-208.55 445.27,-210.88 445.27,-210.88 445.27,-210.88 448.16,-208.55 443.85,-209.13 449.16,-207.74"/>
</a>
</g>
</g>
<!-- Node6 -->
<g id="Node000006" class="node">
<title>Node6</title>
<g id="a_Node000006"><a xlink:href="../../d5/ddd/namespacenpi_1_1log.html#a7b8c87cac5cee3c9c4ad9f19aebc8c02" target="_top" xlink:title=" ">
<polygon fill="white" stroke="none" points="389,-330.88 241,-330.88 241,-311.62 389,-311.62 389,-330.88"/>
<text xml:space="preserve" text-anchor="middle" x="315" y="-316.43" font-family="Consolas" font-size="11.00">npi::log::closeConsole</text>
</a>
</g>
</g>
<!-- Node3&#45;&gt;Node6 -->
<g id="edge6_Node000003_Node000006" class="edge">
<title>Node3&#45;&gt;Node6</title>
<g id="a_edge6_Node000003_Node000006"><a xlink:title=" ">
<path fill="none" stroke="#63b8ff" d="M446.36,-210.47C444.1,-212.27 441.97,-214.2 440,-216.25 411.32,-246.16 435.86,-275.76 404,-302.25 399.43,-306.05 394.28,-309.13 388.82,-311.64"/>
<polygon fill="#63b8ff" stroke="#63b8ff" points="450.16,-207.65 447.48,-212.43 449.13,-208.41 446.14,-210.63 446.14,-210.63 446.14,-210.63 449.13,-208.41 444.81,-208.82 450.16,-207.65"/>
</a>
</g>
</g>
<!-- Node8 -->
<g id="Node000008" class="node">
<title>Node8</title>
<g id="a_Node000008"><a xlink:href="../../dc/d8e/namespaceanonymous__namespace_02_log_8cpp_03.html#a7a82c11accb191c2f06849f6d13db39a" target="_top" xlink:title=" ">
<polygon fill="white" stroke="none" points="172,-225.5 18,-225.5 18,-195 172,-195 172,-225.5"/>
<text xml:space="preserve" text-anchor="start" x="26" y="-211.05" font-family="Consolas" font-size="11.00">anonymous_namespace</text>
<text xml:space="preserve" text-anchor="middle" x="95" y="-199.8" font-family="Consolas" font-size="11.00">{Log::cpp}::initLogging</text>
</a>
</g>
</g>
<!-- Node3&#45;&gt;Node8 -->
<g id="edge8_Node000003_Node000008" class="edge">
<title>Node3&#45;&gt;Node8</title>
<g id="a_edge8_Node000003_Node000008"><a xlink:title=" ">
<path fill="none" stroke="#63b8ff" d="M438.92,-208.74C427.42,-211.86 415.45,-214.57 404,-216.25 325.42,-227.78 234.37,-223.92 171.75,-218.64"/>
<polygon fill="#63b8ff" stroke="#63b8ff" points="443.72,-207.4 439.51,-210.91 442.48,-207.75 438.9,-208.75 438.9,-208.75 438.9,-208.75 442.48,-207.75 438.3,-206.58 443.72,-207.4"/>
</a>
</g>
</g>
<!-- Node9 -->
<g id="Node000009" class="node">
<title>Node9</title>
<g id="a_Node000009"><a xlink:href="../../dc/d8e/namespaceanonymous__namespace_02_log_8cpp_03.html#acf34371ee9cd3beb546b7f2c21dd2844" target="_top" xlink:title=" ">
<polygon fill="white" stroke="none" points="404,-207.12 226,-207.12 226,-165.38 404,-165.38 404,-207.12"/>
<text xml:space="preserve" text-anchor="start" x="234" y="-192.68" font-family="Consolas" font-size="11.00">anonymous_namespace</text>
<text xml:space="preserve" text-anchor="start" x="234" y="-181.43" font-family="Consolas" font-size="11.00">{Log::cpp}::loggingCategory</text>
<text xml:space="preserve" text-anchor="middle" x="315" y="-170.18" font-family="Consolas" font-size="11.00">Filter</text>
</a>
</g>
</g>
<!-- Node3&#45;&gt;Node9 -->
<g id="edge9_Node000003_Node000009" class="edge">
<title>Node3&#45;&gt;Node9</title>
<g id="a_edge9_Node000003_Node000009"><a xlink:title=" ">
<path fill="none" stroke="#63b8ff" d="M433.99,-186.25C424.12,-186.25 413.87,-186.25 403.71,-186.25"/>
<polygon fill="#63b8ff" stroke="#63b8ff" points="438.87,-186.25 433.87,-188.5 437.59,-186.25 433.87,-186.25 433.87,-186.25 433.87,-186.25 437.59,-186.25 433.87,-184 438.87,-186.25"/>
</a>
</g>
</g>
<!-- Node10 -->
<g id="Node000010" class="node">
<title>Node10</title>
<g id="a_Node000010"><a xlink:href="../../dc/d8e/namespaceanonymous__namespace_02_log_8cpp_03.html#a0c2edb98e44610adcc75724bbf4edfb8" target="_top" xlink:title=" ">
<polygon fill="white" stroke="none" points="389,-147.5 241,-147.5 241,-117 389,-117 389,-147.5"/>
<text xml:space="preserve" text-anchor="start" x="249" y="-133.05" font-family="Consolas" font-size="11.00">anonymous_namespace</text>
<text xml:space="preserve" text-anchor="middle" x="315" y="-121.8" font-family="Consolas" font-size="11.00">{Log::cpp}::msgHandler</text>
</a>
</g>
</g>
<!-- Node3&#45;&gt;Node10 -->
<g id="edge11_Node000003_Node000010" class="edge">
<title>Node3&#45;&gt;Node10</title>
<g id="a_edge11_Node000003_Node000010"><a xlink:title=" ">
<path fill="none" stroke="#63b8ff" d="M434.13,-165.05C424.04,-162.05 413.76,-159.04 404,-156.25 393.8,-153.33 382.91,-150.29 372.39,-147.4"/>
<polygon fill="#63b8ff" stroke="#63b8ff" points="438.89,-166.46 433.45,-167.19 437.66,-166.09 434.09,-165.03 434.09,-165.03 434.09,-165.03 437.66,-166.09 434.73,-162.88 438.89,-166.46"/>
</a>
</g>
</g>
<!-- Node11 -->
<g id="Node000011" class="node">
<title>Node11</title>
<g id="a_Node000011"><a xlink:href="../../d5/ddd/namespacenpi_1_1log.html#aa9c7f1de08a88a0dcac316127c1d384b" target="_top" xlink:title=" ">
<polygon fill="white" stroke="none" points="404,-98.88 226,-98.88 226,-79.62 404,-79.62 404,-98.88"/>
<text xml:space="preserve" text-anchor="middle" x="315" y="-84.42" font-family="Consolas" font-size="11.00">npi::log::setColoredConsole</text>
</a>
</g>
</g>
<!-- Node3&#45;&gt;Node11 -->
<g id="edge13_Node000003_Node000011" class="edge">
<title>Node3&#45;&gt;Node11</title>
<g id="a_edge13_Node000003_Node000011"><a xlink:title=" ">
<path fill="none" stroke="#63b8ff" d="M448.12,-162.17C445.29,-160.31 442.56,-158.33 440,-156.25 419.31,-139.42 426.45,-122.64 404,-108.25 397.95,-104.37 391.23,-101.27 384.28,-98.8"/>
<polygon fill="#63b8ff" stroke="#63b8ff" points="452.28,-164.77 446.85,-164.03 451.19,-164.09 448.04,-162.12 448.04,-162.12 448.04,-162.12 451.19,-164.09 449.23,-160.22 452.28,-164.77"/>
</a>
</g>
</g>
<!-- Node13 -->
<g id="Node000013" class="node">
<title>Node13</title>
<g id="a_Node000013"><a xlink:href="../../d5/ddd/namespacenpi_1_1log.html#a976d8ed596c3a4571209d46c933b5bbe" target="_top" xlink:title=" ">
<polygon fill="white" stroke="none" points="395,-24.88 235,-24.88 235,-5.62 395,-5.62 395,-24.88"/>
<text xml:space="preserve" text-anchor="middle" x="315" y="-10.43" font-family="Consolas" font-size="11.00">npi::log::setMuteDisplay</text>
</a>
</g>
</g>
<!-- Node3&#45;&gt;Node13 -->
<g id="edge15_Node000003_Node000013" class="edge">
<title>Node3&#45;&gt;Node13</title>
<g id="a_edge15_Node000003_Node000013"><a xlink:title=" ">
<path fill="none" stroke="#63b8ff" d="M445.41,-161.72C443.48,-160.01 441.66,-158.19 440,-156.25 402.93,-113 445.91,-71.82 404,-33.25 400.33,-29.87 396.2,-27.06 391.78,-24.72"/>
<polygon fill="#63b8ff" stroke="#63b8ff" points="449.16,-164.75 443.86,-163.36 448.17,-163.95 445.27,-161.61 445.27,-161.61 445.27,-161.61 448.17,-163.95 446.68,-159.86 449.16,-164.75"/>
</a>
</g>
</g>
<!-- Node15 -->
<g id="Node000015" class="node">
<title>Node15</title>
<g id="a_Node000015"><a xlink:href="../../d5/ddd/namespacenpi_1_1log.html#a9be9faae3670cc6af86285afecfb3e58" target="_top" xlink:title=" ">
<polygon fill="white" stroke="none" points="398,-61.88 232,-61.88 232,-42.62 398,-42.62 398,-61.88"/>
<text xml:space="preserve" text-anchor="middle" x="315" y="-47.42" font-family="Consolas" font-size="11.00">npi::log::setWarnAsImpLog</text>
</a>
</g>
</g>
<!-- Node3&#45;&gt;Node15 -->
<g id="edge17_Node000003_Node000015" class="edge">
<title>Node3&#45;&gt;Node15</title>
<g id="a_edge17_Node000003_Node000015"><a xlink:title=" ">
<path fill="none" stroke="#63b8ff" d="M446.36,-162.03C444.1,-160.23 441.97,-158.3 440,-156.25 411.32,-126.34 436.01,-96.56 404,-70.25 399.9,-66.88 395.34,-64.09 390.52,-61.79"/>
<polygon fill="#63b8ff" stroke="#63b8ff" points="450.16,-164.85 444.81,-163.68 449.13,-164.09 446.14,-161.87 446.14,-161.87 446.14,-161.87 449.13,-164.09 447.48,-160.07 450.16,-164.85"/>
</a>
</g>
</g>
<!-- Node16 -->
<g id="Node000016" class="node">
<title>Node16</title>
<g id="a_Node000016"><a xlink:href="../../dc/d8e/namespaceanonymous__namespace_02_log_8cpp_03.html#a9e0fadcfb2f6334dde67322028dc7676" target="_top" xlink:title=" ">
<polygon fill="white" stroke="none" points="395,-293.5 235,-293.5 235,-263 395,-263 395,-293.5"/>
<text xml:space="preserve" text-anchor="start" x="243" y="-279.05" font-family="Consolas" font-size="11.00">anonymous_namespace</text>
<text xml:space="preserve" text-anchor="middle" x="315" y="-267.8" font-family="Consolas" font-size="11.00">{Log::cpp}::shuttingDown</text>
</a>
</g>
</g>
<!-- Node3&#45;&gt;Node16 -->
<g id="edge18_Node000003_Node000016" class="edge">
<title>Node3&#45;&gt;Node16</title>
<g id="a_edge18_Node000003_Node000016"><a xlink:title=" ">
<path fill="none" stroke="#63b8ff" d="M450.58,-209.75C446.93,-211.83 443.36,-214 440,-216.25 421.97,-228.33 422.73,-238.27 404,-249.25 394.7,-254.7 384.24,-259.28 373.87,-263.08"/>
<polygon fill="#63b8ff" stroke="#63b8ff" points="454.53,-207.58 451.23,-211.96 453.41,-208.19 450.15,-209.99 450.15,-209.99 450.15,-209.99 453.41,-208.19 449.07,-208.02 454.53,-207.58"/>
</a>
</g>
</g>
<!-- Node5 -->
<g id="Node000005" class="node">
<title>Node5</title>
<g id="a_Node000005"><a xlink:href="../../d9/dc6/class_main_window.html#ad85648560b6731461315dc87a3803a20" target="_top" xlink:title=" ">
<polygon fill="white" stroke="none" points="181,-382.5 9,-382.5 9,-352 181,-352 181,-382.5"/>
<text xml:space="preserve" text-anchor="start" x="17" y="-368.05" font-family="Consolas" font-size="11.00">MainWindow::on_filterRules</text>
<text xml:space="preserve" text-anchor="middle" x="95" y="-356.8" font-family="Consolas" font-size="11.00">Clear_btn_clicked</text>
</a>
</g>
</g>
<!-- Node4&#45;&gt;Node5 -->
<g id="edge5_Node000004_Node000005" class="edge">
<title>Node4&#45;&gt;Node5</title>
<g id="a_edge5_Node000004_Node000005"><a xlink:title=" ">
<path fill="none" stroke="#63b8ff" d="M223.1,-365.5C209.05,-365.69 194.58,-365.89 180.68,-366.08"/>
<polygon fill="#63b8ff" stroke="#63b8ff" points="227.87,-365.44 222.9,-367.75 226.59,-365.45 222.87,-365.5 222.87,-365.5 222.87,-365.5 226.59,-365.45 222.84,-363.25 227.87,-365.44"/>
</a>
</g>
</g>
<!-- Node7 -->
<g id="Node000007" class="node">
<title>Node7</title>
<g id="a_Node000007"><a xlink:href="../../d9/dc6/class_main_window.html#a56502a9aef4caa8d6f5afec050f338d6" target="_top" xlink:title=" ">
<polygon fill="white" stroke="none" points="184,-333.5 6,-333.5 6,-303 184,-303 184,-333.5"/>
<text xml:space="preserve" text-anchor="start" x="14" y="-319.05" font-family="Consolas" font-size="11.00">MainWindow::on_debugConsole</text>
<text xml:space="preserve" text-anchor="middle" x="95" y="-307.8" font-family="Consolas" font-size="11.00">_btn_clicked</text>
</a>
</g>
</g>
<!-- Node6&#45;&gt;Node7 -->
<g id="edge7_Node000006_Node000007" class="edge">
<title>Node6&#45;&gt;Node7</title>
<g id="a_edge7_Node000006_Node000007"><a xlink:title=" ">
<path fill="none" stroke="#63b8ff" d="M235.04,-320.16C218.45,-319.94 200.86,-319.69 183.96,-319.46"/>
<polygon fill="#63b8ff" stroke="#63b8ff" points="239.89,-320.23 234.86,-322.41 238.61,-320.21 234.89,-320.16 234.89,-320.16 234.89,-320.16 238.61,-320.21 234.92,-317.91 239.89,-320.23"/>
</a>
</g>
</g>
<!-- Node9&#45;&gt;Node8 -->
<g id="edge10_Node000009_Node000008" class="edge">
<title>Node9&#45;&gt;Node8</title>
<g id="a_edge10_Node000009_Node000008"><a xlink:title=" ">
<path fill="none" stroke="#63b8ff" d="M220.35,-196.56C204.2,-198.34 187.59,-200.17 171.97,-201.89"/>
<polygon fill="#63b8ff" stroke="#63b8ff" points="225.06,-196.04 220.34,-198.83 223.79,-196.18 220.09,-196.59 220.09,-196.59 220.09,-196.59 223.79,-196.18 219.85,-194.35 225.06,-196.04"/>
</a>
</g>
</g>
<!-- Node10&#45;&gt;Node8 -->
<g id="edge12_Node000010_Node000008" class="edge">
<title>Node10&#45;&gt;Node8</title>
<g id="a_edge12_Node000010_Node000008"><a xlink:title=" ">
<path fill="none" stroke="#63b8ff" d="M248.27,-149.18C240.72,-151.42 233.16,-153.8 226,-156.25 192.48,-167.73 155.22,-183.53 129.22,-195.07"/>
<polygon fill="#63b8ff" stroke="#63b8ff" points="252.87,-147.84 248.7,-151.4 251.64,-148.2 248.07,-149.24 248.07,-149.24 248.07,-149.24 251.64,-148.2 247.44,-147.08 252.87,-147.84"/>
</a>
</g>
</g>
<!-- Node12 -->
<g id="Node000012" class="node">
<title>Node12</title>
<g id="a_Node000012"><a xlink:href="../../d9/dc6/class_main_window.html#a4b31735a0ab8596f2c8a452d47694572" target="_top" xlink:title=" ">
<polygon fill="white" stroke="none" points="190,-104.5 0,-104.5 0,-74 190,-74 190,-104.5"/>
<text xml:space="preserve" text-anchor="start" x="8" y="-90.05" font-family="Consolas" font-size="11.00">MainWindow::on_coloredConsole</text>
<text xml:space="preserve" text-anchor="middle" x="95" y="-78.8" font-family="Consolas" font-size="11.00">_chk_checkStateChanged</text>
</a>
</g>
</g>
<!-- Node11&#45;&gt;Node12 -->
<g id="edge14_Node000011_Node000012" class="edge">
<title>Node11&#45;&gt;Node12</title>
<g id="a_edge14_Node000011_Node000012"><a xlink:title=" ">
<path fill="none" stroke="#63b8ff" d="M220.08,-89.25C210.1,-89.25 199.95,-89.25 189.96,-89.25"/>
<polygon fill="#63b8ff" stroke="#63b8ff" points="225.05,-89.25 220.05,-91.5 223.77,-89.25 220.05,-89.25 220.05,-89.25 220.05,-89.25 223.77,-89.25 220.05,-87 225.05,-89.25"/>
</a>
</g>
</g>
<!-- Node14 -->
<g id="Node000014" class="node">
<title>Node14</title>
<g id="a_Node000014"><a xlink:href="../../d9/dc6/class_main_window.html#a7e7d297efb3ead7cb02951670b48d9a2" target="_top" xlink:title=" ">
<polygon fill="white" stroke="none" points="172,-30.5 18,-30.5 18,0 172,0 172,-30.5"/>
<text xml:space="preserve" text-anchor="start" x="26" y="-16.05" font-family="Consolas" font-size="11.00">MainWindow::on_muteDisp</text>
<text xml:space="preserve" text-anchor="middle" x="95" y="-4.8" font-family="Consolas" font-size="11.00">_chk_checkStateChanged</text>
</a>
</g>
</g>
<!-- Node13&#45;&gt;Node14 -->
<g id="edge16_Node000013_Node000014" class="edge">
<title>Node13&#45;&gt;Node14</title>
<g id="a_edge16_Node000013_Node000014"><a xlink:title=" ">
<path fill="none" stroke="#63b8ff" d="M229.43,-15.25C210.39,-15.25 190.31,-15.25 171.67,-15.25"/>
<polygon fill="#63b8ff" stroke="#63b8ff" points="234.08,-15.25 229.08,-17.5 232.8,-15.25 229.08,-15.25 229.08,-15.25 229.08,-15.25 232.8,-15.25 229.08,-13 234.08,-15.25"/>
</a>
</g>
</g>
<!-- Node16&#45;&gt;Node8 -->
<g id="edge19_Node000016_Node000008" class="edge">
<title>Node16&#45;&gt;Node8</title>
<g id="a_edge19_Node000016_Node000008"><a xlink:title=" ">
<path fill="none" stroke="#63b8ff" d="M259.79,-261.34C224.55,-250.35 179,-236.14 144.88,-225.5"/>
<polygon fill="#63b8ff" stroke="#63b8ff" points="264.18,-262.71 258.74,-263.37 262.96,-262.33 259.41,-261.22 259.41,-261.22 259.41,-261.22 262.96,-262.33 260.08,-259.07 264.18,-262.71"/>
</a>
</g>
</g>
</g>
</svg>

<g id="navigator" transform="translate(0 0)" fill="#404254">
  <rect fill="#f2f5e9" fill-opacity="0.5" stroke="#606060" stroke-width=".5" x="0" y="0" width="60" height="60"/>
  <use id="zoomplus" xlink:href="#zoomPlus" x="17" y="9" onmousedown="handleZoom(evt,'in')"/>
  <use id="zoomminus" xlink:href="#zoomMin" x="42" y="9" onmousedown="handleZoom(evt,'out')"/>
  <use id="reset" xlink:href="#resetDef" x="30" y="36" onmousedown="handleReset()"/>
   <use id="arrowup" xlink:href="#arrowUp" x="0" y="0" onmousedown="handlePan(0,-1)"/>
  <use id="arrowright" xlink:href="#arrowRight" x="0" y="0" onmousedown="handlePan(1,0)"/>
  <use id="arrowdown" xlink:href="#arrowDown" x="0" y="0" onmousedown="handlePan(0,1)"/>
  <use id="arrowleft" xlink:href="#arrowLeft" x="0" y="0" onmousedown="handlePan(-1,0)"/>
</g>
<svg viewBox="0 0 15 15" width="100%" height="30px" preserveAspectRatio="xMaxYMin meet">
 <g id="arrow_out" transform="scale(0.3 0.3)">
  <a xlink:href="classanonymous__namespace_02_log_8cpp_03_1_1_log_core_a730f0868e0c404fa25a887a023b70138_icgraph_org.svg" target="_base">
   <rect id="button" ry="5" rx="5" y="6" x="6" height="38" width="38"
        fill="#f2f5e9" fill-opacity="0.5" stroke="#606060" stroke-width="1.0"/>
   <path id="arrow"
     d="M 11.500037,31.436501 C 11.940474,20.09759 22.043105,11.32322 32.158766,21.979434 L 37.068811,17.246167 C 37.068811,17.246167 37.088388,32 37.088388,32 L 22.160133,31.978069 C 22.160133,31.978069 26.997745,27.140456 26.997745,27.140456 C 18.528582,18.264221 13.291696,25.230495 11.500037,31.436501 z"
     style="fill:#404040;"/>
  </a>
 </g>
</svg>

<style type='text/css'>
<![CDATA[
[data-mouse-over-selected='false'] { opacity: 0.7; }
[data-mouse-over-selected='true']  { opacity: 1.0; }
]]>
</style>
<script type="application/ecmascript"><![CDATA[
document.addEventListener('DOMContentLoaded', (event) => {
  highlightEdges();
  highlightAdjacentNodes();
});
]]></script>
</svg>
