<?xml version="1.0" encoding="UTF-8" standalone="no"?>
<!DOCTYPE svg PUBLIC "-//W3C//DTD SVG 1.1//EN"
 "http://www.w3.org/Graphics/SVG/1.1/DTD/svg11.dtd">
<!-- Generated by graphviz version 14.0.0 (20250921.2048)
 -->
<!-- Title: anonymous_namespace{Log::cpp}::LogCore::LogCore Pages: 1 -->
<!--zoomable 902 -->

<svg id="main" version="1.1" xmlns="http://www.w3.org/2000/svg" xmlns:xlink="http://www.w3.org/1999/xlink" xml:space="preserve" onload="init(evt)">

<style type="text/css"><![CDATA[
.node, .edge {opacity: 0.7;}
.node.selected, .edge.selected {opacity: 1;}
.edge:hover path { stroke: red; }
.edge:hover polygon { stroke: red; fill: red; }
]]></style>

<defs>
  <circle id="rim" cx="0" cy="0" r="7"/>
  <circle id="rim2" cx="0" cy="0" r="3.5"/>
  <g id="zoomPlus">
    <use xlink:href="#rim" fill="#404040"><set attributeName="fill" to="#808080" begin="zoomplus.mouseover" end="zoomplus.mouseout"/></use>
    <path d="M-4,0h8M0,-4v8" fill="none" stroke="white" stroke-width="1.5" pointer-events="none"/>
  </g>
  <g id="zoomMin">
    <use xlink:href="#rim" fill="#404040"><set attributeName="fill" to="#808080" begin="zoomminus.mouseover" end="zoomminus.mouseout"/></use>
    <path d="M-4,0h8" fill="none" stroke="white" stroke-width="1.5" pointer-events="none"/>
  </g>
  <g id="arrowUp" transform="translate(30 24)">
    <use xlink:href="#rim"/>
    <path pointer-events="none" fill="none" stroke="white" stroke-width="1.5" d="M0,-3.0v7 M-2.5,-0.5L0,-3.0L2.5,-0.5"/>
  </g>
  <g id="arrowRight" transform="rotate(90) translate(36 -43)">
    <use xlink:href="#rim"/>
    <path pointer-events="none" fill="none" stroke="white" stroke-width="1.5" d="M0,-3.0v7 M-2.5,-0.5L0,-3.0L2.5,-0.5"/>
  </g>
  <g id="arrowDown" transform="rotate(180) translate(-30 -48)">
    <use xlink:href="#rim"/>
    <path pointer-events="none" fill="none" stroke="white" stroke-width="1.5" d="M0,-3.0v7 M-2.5,-0.5L0,-3.0L2.5,-0.5"/>
  </g>
  <g id="arrowLeft" transform="rotate(270) translate(-36 17)">
    <use xlink:href="#rim"/>
    <path pointer-events="none" fill="none" stroke="white" stroke-width="1.5" d="M0,-3.0v7 M-2.5,-0.5L0,-3.0L2.5,-0.5"/>
  </g>
  <g id="resetDef">
    <use xlink:href="#rim2" fill="#404040"><set attributeName="fill" to="#808080" begin="reset.mouseover" end="reset.mouseout"/></use>
  </g>
</defs>
<script type="application/ecmascript">
var viewWidth = 1412;
var viewHeight = 902;
var sectionId = 'dynsection-9';
</script>
<script type="application/ecmascript" xlink:href="../../svg.min.js"/>
<svg id="graph" class="graph">
<g id="viewport">
<title>anonymous_namespace{Log::cpp}::LogCore::LogCore</title>
<!-- Node1 -->
<g id="Node000001" class="node">
<title>Node1</title>
<g id="a_Node000001"><a xlink:title=" ">
<polygon fill="#999999" stroke="none" points="298,-525.5 0,-525.5 0,-506.25 298,-506.25 298,-525.5"/>
<text xml:space="preserve" text-anchor="start" x="8" y="-512.05" font-family="Consolas" font-weight="bold" font-size="11.00">anonymous_namespace{Log::cpp}::LogCore::LogCore</text>
</a>
</g>
</g>
<!-- Node2 -->
<g id="Node000002" class="node">
<title>Node2</title>
<g id="a_Node000002"><a xlink:href="../../d0/d61/classanonymous__namespace_02_log_8cpp_03_1_1_log_core.html#a09f819da9e8a9fd17aae47c89f78b497" target="_top" xlink:title=" ">
<polygon fill="white" stroke="none" points="666,-893.75 536,-893.75 536,-852 666,-852 666,-893.75"/>
<text xml:space="preserve" text-anchor="start" x="544" y="-879.3" font-family="Consolas" font-size="11.00">anonymous_namespace</text>
<text xml:space="preserve" text-anchor="start" x="544" y="-868.05" font-family="Consolas" font-size="11.00">{Log::cpp}::LogCore</text>
<text xml:space="preserve" text-anchor="middle" x="601" y="-856.8" font-family="Consolas" font-size="11.00">::FieldsToStrings_</text>
</a>
</g>
</g>
<!-- Node1&#45;&gt;Node2 -->
<g id="edge1_Node000001_Node000002" class="edge">
<title>Node1&#45;&gt;Node2</title>
<g id="a_edge1_Node000001_Node000002"><a xlink:title=" ">
<path fill="none" stroke="#63b8ff" d="M157.46,-525.47C192.25,-569.5 343.96,-753.91 512,-842.88 517.91,-846 524.2,-848.9 530.61,-851.57"/>
<polygon fill="#63b8ff" stroke="#63b8ff" points="534.89,-853.29 529.41,-853.51 533.7,-852.81 530.25,-851.42 530.25,-851.42 530.25,-851.42 533.7,-852.81 531.09,-849.34 534.89,-853.29"/>
</a>
</g>
</g>
<!-- Node3 -->
<g id="Node000003" class="node">
<title>Node3</title>
<g id="a_Node000003"><a xlink:href="../../d0/d61/classanonymous__namespace_02_log_8cpp_03_1_1_log_core.html#a72156ce83495bfa52996d0da64acaefa" target="_top" xlink:title=" ">
<polygon fill="white" stroke="none" points="470,-274.75 340,-274.75 340,-233 470,-233 470,-274.75"/>
<text xml:space="preserve" text-anchor="start" x="348" y="-260.3" font-family="Consolas" font-size="11.00">anonymous_namespace</text>
<text xml:space="preserve" text-anchor="start" x="348" y="-249.05" font-family="Consolas" font-size="11.00">{Log::cpp}::LogCore</text>
<text xml:space="preserve" text-anchor="middle" x="405" y="-237.8" font-family="Consolas" font-size="11.00">::getConsole_</text>
</a>
</g>
</g>
<!-- Node1&#45;&gt;Node3 -->
<g id="edge2_Node000001_Node000003" class="edge">
<title>Node1&#45;&gt;Node3</title>
<g id="a_edge2_Node000001_Node000003"><a xlink:title=" ">
<path fill="none" stroke="#63b8ff" d="M155.07,-506.56C174.14,-472.31 244.96,-351.93 334,-283.88 336.9,-281.66 339.98,-279.58 343.18,-277.62"/>
<polygon fill="#63b8ff" stroke="#63b8ff" points="347.23,-275.26 344.04,-279.72 346.12,-275.91 342.91,-277.78 342.91,-277.78 342.91,-277.78 346.12,-275.91 341.78,-275.83 347.23,-275.26"/>
</a>
</g>
</g>
<!-- Node4 -->
<g id="Node000004" class="node">
<title>Node4</title>
<g id="a_Node000004"><a xlink:href="../../d0/d61/classanonymous__namespace_02_log_8cpp_03_1_1_log_core.html#af4273441409e88d841adc86974b49c75" target="_top" xlink:title=" ">
<polygon fill="white" stroke="none" points="476,-699.75 334,-699.75 334,-658 476,-658 476,-699.75"/>
<text xml:space="preserve" text-anchor="start" x="342" y="-685.3" font-family="Consolas" font-size="11.00">anonymous_namespace</text>
<text xml:space="preserve" text-anchor="start" x="342" y="-674.05" font-family="Consolas" font-size="11.00">{Log::cpp}::LogCore</text>
<text xml:space="preserve" text-anchor="middle" x="405" y="-662.8" font-family="Consolas" font-size="11.00">::getStartupSettings_</text>
</a>
</g>
</g>
<!-- Node1&#45;&gt;Node4 -->
<g id="edge3_Node000001_Node000004" class="edge">
<title>Node1&#45;&gt;Node4</title>
<g id="a_edge3_Node000001_Node000004"><a xlink:title=" ">
<path fill="none" stroke="#63b8ff" d="M164.75,-525.34C203.6,-550.27 309.64,-618.32 366.62,-654.89"/>
<polygon fill="#63b8ff" stroke="#63b8ff" points="370.61,-657.45 365.19,-656.64 369.54,-656.76 366.41,-654.75 366.41,-654.75 366.41,-654.75 369.54,-656.76 367.62,-652.86 370.61,-657.45"/>
</a>
</g>
</g>
<!-- Node12 -->
<g id="Node000012" class="node">
<title>Node12</title>
<g id="a_Node000012"><a xlink:href="../../d0/d61/classanonymous__namespace_02_log_8cpp_03_1_1_log_core.html#a994289c65633485ca041a065c3db4819" target="_top" xlink:title=" ">
<polygon fill="white" stroke="none" points="666,-615.75 536,-615.75 536,-574 666,-574 666,-615.75"/>
<text xml:space="preserve" text-anchor="start" x="544" y="-601.3" font-family="Consolas" font-size="11.00">anonymous_namespace</text>
<text xml:space="preserve" text-anchor="start" x="544" y="-590.05" font-family="Consolas" font-size="11.00">{Log::cpp}::LogCore</text>
<text xml:space="preserve" text-anchor="middle" x="601" y="-578.8" font-family="Consolas" font-size="11.00">::stringsToFields_</text>
</a>
</g>
</g>
<!-- Node1&#45;&gt;Node12 -->
<g id="edge39_Node000001_Node000012" class="edge">
<title>Node1&#45;&gt;Node12</title>
<g id="a_edge39_Node000001_Node000012"><a xlink:title=" ">
<path fill="none" stroke="#63b8ff" d="M173.04,-525.41C207.42,-539.18 274.48,-564.23 334,-575.88 399.63,-588.72 475.87,-593.12 529.86,-594.51"/>
<polygon fill="#63b8ff" stroke="#63b8ff" points="534.79,-594.63 529.74,-596.76 533.51,-594.6 529.79,-594.51 529.79,-594.51 529.79,-594.51 533.51,-594.6 529.84,-592.26 534.79,-594.63"/>
</a>
</g>
</g>
<!-- Node13 -->
<g id="Node000013" class="node">
<title>Node13</title>
<g id="a_Node000013"><a xlink:href="../../d0/d61/classanonymous__namespace_02_log_8cpp_03_1_1_log_core.html#a5fa684811c33eea49f63593fea332de4" target="_top" xlink:title=" ">
<polygon fill="white" stroke="none" points="470,-566.75 340,-566.75 340,-525 470,-525 470,-566.75"/>
<text xml:space="preserve" text-anchor="start" x="348" y="-552.3" font-family="Consolas" font-size="11.00">anonymous_namespace</text>
<text xml:space="preserve" text-anchor="start" x="348" y="-541.05" font-family="Consolas" font-size="11.00">{Log::cpp}::LogCore</text>
<text xml:space="preserve" text-anchor="middle" x="405" y="-529.8" font-family="Consolas" font-size="11.00">::saveSettings_</text>
</a>
</g>
</g>
<!-- Node1&#45;&gt;Node13 -->
<g id="edge14_Node000001_Node000013" class="edge">
<title>Node1&#45;&gt;Node13</title>
<g id="a_edge14_Node000001_Node000013"><a xlink:title=" ">
<path fill="none" stroke="#63b8ff" d="M231.42,-525.49C264.61,-529.41 302.59,-533.9 334.46,-537.66"/>
<polygon fill="#63b8ff" stroke="#63b8ff" points="339.13,-538.21 333.9,-539.86 337.86,-538.06 334.16,-537.63 334.16,-537.63 334.16,-537.63 337.86,-538.06 334.43,-535.39 339.13,-538.21"/>
</a>
</g>
</g>
<!-- Node14 -->
<g id="Node000014" class="node">
<title>Node14</title>
<g id="a_Node000014"><a xlink:href="../../d0/d61/classanonymous__namespace_02_log_8cpp_03_1_1_log_core.html#aeed3b8154b32c0c5cc56351c00ec3783" target="_top" xlink:title=" ">
<polygon fill="white" stroke="none" points="470,-334.75 340,-334.75 340,-293 470,-293 470,-334.75"/>
<text xml:space="preserve" text-anchor="start" x="348" y="-320.3" font-family="Consolas" font-size="11.00">anonymous_namespace</text>
<text xml:space="preserve" text-anchor="start" x="348" y="-309.05" font-family="Consolas" font-size="11.00">{Log::cpp}::LogCore</text>
<text xml:space="preserve" text-anchor="middle" x="405" y="-297.8" font-family="Consolas" font-size="11.00">::startDisplay_</text>
</a>
</g>
</g>
<!-- Node1&#45;&gt;Node14 -->
<g id="edge16_Node000001_Node000014" class="edge">
<title>Node1&#45;&gt;Node14</title>
<g id="a_edge16_Node000001_Node000014"><a xlink:title=" ">
<path fill="none" stroke="#63b8ff" d="M161.91,-506.4C199.59,-476.44 317.04,-383.03 373.32,-338.27"/>
<polygon fill="#63b8ff" stroke="#63b8ff" points="376.97,-335.37 374.46,-340.25 375.96,-336.17 373.05,-338.49 373.05,-338.49 373.05,-338.49 375.96,-336.17 371.65,-336.72 376.97,-335.37"/>
</a>
</g>
</g>
<!-- Node25 -->
<g id="Node000025" class="node">
<title>Node25</title>
<g id="a_Node000025"><a xlink:href="../../d0/d61/classanonymous__namespace_02_log_8cpp_03_1_1_log_core.html#a78f2c370e9ec632af877fe1dd49ef478" target="_top" xlink:title=" ">
<polygon fill="white" stroke="none" points="476,-506.75 334,-506.75 334,-465 476,-465 476,-506.75"/>
<text xml:space="preserve" text-anchor="start" x="342" y="-492.3" font-family="Consolas" font-size="11.00">anonymous_namespace</text>
<text xml:space="preserve" text-anchor="start" x="342" y="-481.05" font-family="Consolas" font-size="11.00">{Log::cpp}::LogCore</text>
<text xml:space="preserve" text-anchor="middle" x="405" y="-469.8" font-family="Consolas" font-size="11.00">::startImpLogProcess_</text>
</a>
</g>
</g>
<!-- Node1&#45;&gt;Node25 -->
<g id="edge27_Node000001_Node000025" class="edge">
<title>Node1&#45;&gt;Node25</title>
<g id="a_edge27_Node000001_Node000025"><a xlink:title=" ">
<path fill="none" stroke="#63b8ff" d="M231.42,-506.26C262.43,-502.6 297.63,-498.44 328.11,-494.84"/>
<polygon fill="#63b8ff" stroke="#63b8ff" points="332.93,-494.27 328.23,-497.09 331.66,-494.42 327.97,-494.86 327.97,-494.86 327.97,-494.86 331.66,-494.42 327.71,-492.62 332.93,-494.27"/>
</a>
</g>
</g>
<!-- Node29 -->
<g id="Node000029" class="node">
<title>Node29</title>
<g id="a_Node000029"><a xlink:href="../../d0/d61/classanonymous__namespace_02_log_8cpp_03_1_1_log_core.html#ae7262809081fcc0c21b93449f56b8c8b" target="_top" xlink:title=" ">
<polygon fill="white" stroke="none" points="470,-446.75 340,-446.75 340,-405 470,-405 470,-446.75"/>
<text xml:space="preserve" text-anchor="start" x="348" y="-432.3" font-family="Consolas" font-size="11.00">anonymous_namespace</text>
<text xml:space="preserve" text-anchor="start" x="348" y="-421.05" font-family="Consolas" font-size="11.00">{Log::cpp}::LogCore</text>
<text xml:space="preserve" text-anchor="middle" x="405" y="-409.8" font-family="Consolas" font-size="11.00">::startWriting_</text>
</a>
</g>
</g>
<!-- Node1&#45;&gt;Node29 -->
<g id="edge36_Node000001_Node000029" class="edge">
<title>Node1&#45;&gt;Node29</title>
<g id="a_edge36_Node000001_Node000029"><a xlink:title=" ">
<path fill="none" stroke="#63b8ff" d="M176.7,-506.41C215.04,-492.83 286.87,-467.38 339.56,-448.71"/>
<polygon fill="#63b8ff" stroke="#63b8ff" points="344.09,-447.1 340.13,-450.89 342.88,-447.53 339.38,-448.77 339.38,-448.77 339.38,-448.77 342.88,-447.53 338.63,-446.65 344.09,-447.1"/>
</a>
</g>
</g>
<!-- Node4&#45;&gt;Node2 -->
<g id="edge11_Node000004_Node000002" class="edge">
<title>Node4&#45;&gt;Node2</title>
<g id="a_edge11_Node000004_Node000002"><a xlink:title=" ">
<path fill="none" stroke="#63b8ff" d="M419.78,-699.72C433.97,-721.24 456.67,-755.81 476,-785.88 492.2,-811.08 488.48,-824.32 512,-842.88 517.64,-847.33 523.99,-851.14 530.61,-854.4"/>
<polygon fill="#63b8ff" stroke="#63b8ff" points="535.13,-856.49 529.65,-856.43 533.97,-855.95 530.6,-854.39 530.6,-854.39 530.6,-854.39 533.97,-855.95 531.54,-852.35 535.13,-856.49"/>
</a>
</g>
</g>
<!-- Node5 -->
<g id="Node000005" class="node">
<title>Node5</title>
<g id="a_Node000005"><a xlink:href="../../dc/dba/namespacenpi_1_1app.html#a40a2a28831f2f410c995f0657baf6544" target="_top" xlink:title="Absolute application&#45;level ProgramData path.">
<polygon fill="white" stroke="none" points="690,-555.5 512,-555.5 512,-536.25 690,-536.25 690,-555.5"/>
<text xml:space="preserve" text-anchor="middle" x="601" y="-541.05" font-family="Consolas" font-size="11.00">npi::app::appProgramDataDir</text>
</a>
</g>
</g>
<!-- Node4&#45;&gt;Node5 -->
<g id="edge4_Node000004_Node000005" class="edge">
<title>Node4&#45;&gt;Node5</title>
<g id="a_edge4_Node000004_Node000005"><a xlink:title=" ">
<path fill="none" stroke="#63b8ff" d="M419.08,-658.44C436.85,-632.44 471.13,-588.13 512,-564.88 517.09,-561.98 522.58,-559.52 528.25,-557.44"/>
<polygon fill="#63b8ff" stroke="#63b8ff" points="532.8,-555.87 528.8,-559.63 531.59,-556.29 528.07,-557.5 528.07,-557.5 528.07,-557.5 531.59,-556.29 527.34,-555.37 532.8,-555.87"/>
</a>
</g>
</g>
<!-- Node8 -->
<g id="Node000008" class="node">
<title>Node8</title>
<g id="a_Node000008"><a xlink:href="../../dc/dba/namespacenpi_1_1app.html#a30b5245afa890e98f19f43c58f29e633" target="_top" xlink:title="Windows native fatal error message box.">
<polygon fill="white" stroke="none" points="1404,-535.5 1220,-535.5 1220,-516.25 1404,-516.25 1404,-535.5"/>
<text xml:space="preserve" text-anchor="middle" x="1312" y="-521.05" font-family="Consolas" font-size="11.00">npi::app::nativeFatalMessage</text>
</a>
</g>
</g>
<!-- Node4&#45;&gt;Node8 -->
<g id="edge12_Node000004_Node000008" class="edge">
<title>Node4&#45;&gt;Node8</title>
<g id="a_edge12_Node000004_Node000008"><a xlink:title=" ">
<path fill="none" stroke="#63b8ff" d="M475.91,-684.78C615.63,-693.96 937.16,-701.91 1184,-607.88 1227.96,-591.13 1272.63,-557.63 1295.45,-539.05"/>
<polygon fill="#63b8ff" stroke="#63b8ff" points="1299.04,-536.1 1296.61,-541.01 1298.05,-536.91 1295.18,-539.27 1295.18,-539.27 1295.18,-539.27 1298.05,-536.91 1293.75,-537.54 1299.04,-536.1"/>
</a>
</g>
</g>
<!-- Node9 -->
<g id="Node000009" class="node">
<title>Node9</title>
<g id="a_Node000009"><a xlink:href="../../d0/d61/classanonymous__namespace_02_log_8cpp_03_1_1_log_core.html#ab9fa33f09ac95abae18a1018b2d6a26d" target="_top" xlink:title=" ">
<polygon fill="white" stroke="none" points="675,-675.75 527,-675.75 527,-634 675,-634 675,-675.75"/>
<text xml:space="preserve" text-anchor="start" x="535" y="-661.3" font-family="Consolas" font-size="11.00">anonymous_namespace</text>
<text xml:space="preserve" text-anchor="start" x="535" y="-650.05" font-family="Consolas" font-size="11.00">{Log::cpp}::LogCore</text>
<text xml:space="preserve" text-anchor="middle" x="601" y="-638.8" font-family="Consolas" font-size="11.00">::CheckAndValidateDir_</text>
</a>
</g>
</g>
<!-- Node4&#45;&gt;Node9 -->
<g id="edge8_Node000004_Node000009" class="edge">
<title>Node4&#45;&gt;Node9</title>
<g id="a_edge8_Node000004_Node000009"><a xlink:title=" ">
<path fill="none" stroke="#63b8ff" d="M475.76,-670.24C490.53,-668.42 506.22,-666.48 521.29,-664.61"/>
<polygon fill="#63b8ff" stroke="#63b8ff" points="526.05,-664.02 521.36,-666.87 524.78,-664.18 521.09,-664.64 521.09,-664.64 521.09,-664.64 524.78,-664.18 520.81,-662.4 526.05,-664.02"/>
</a>
</g>
</g>
<!-- Node10 -->
<g id="Node000010" class="node">
<title>Node10</title>
<g id="a_Node000010"><a xlink:href="../../d0/d61/classanonymous__namespace_02_log_8cpp_03_1_1_log_core.html#afbd5cfd2657e2b92a0e82b47050d3bab" target="_top" xlink:title=" ">
<polygon fill="white" stroke="none" points="684,-833.75 518,-833.75 518,-792 684,-792 684,-833.75"/>
<text xml:space="preserve" text-anchor="start" x="526" y="-819.3" font-family="Consolas" font-size="11.00">anonymous_namespace</text>
<text xml:space="preserve" text-anchor="start" x="526" y="-808.05" font-family="Consolas" font-size="11.00">{Log::cpp}::LogCore</text>
<text xml:space="preserve" text-anchor="middle" x="601" y="-796.8" font-family="Consolas" font-size="11.00">::CleanedFilterRulesList_</text>
</a>
</g>
</g>
<!-- Node4&#45;&gt;Node10 -->
<g id="edge9_Node000004_Node000010" class="edge">
<title>Node4&#45;&gt;Node10</title>
<g id="a_edge9_Node000004_Node000010"><a xlink:title=" ">
<path fill="none" stroke="#63b8ff" d="M422.24,-699.66C441.4,-722.91 475.34,-760.29 512,-782.88 515.86,-785.26 519.94,-787.48 524.14,-789.54"/>
<polygon fill="#63b8ff" stroke="#63b8ff" points="528.41,-791.56 522.93,-791.46 527.25,-791.01 523.89,-789.42 523.89,-789.42 523.89,-789.42 527.25,-791.01 524.85,-787.39 528.41,-791.56"/>
</a>
</g>
</g>
<!-- Node11 -->
<g id="Node000011" class="node">
<title>Node11</title>
<g id="a_Node000011"><a xlink:href="../../d0/d61/classanonymous__namespace_02_log_8cpp_03_1_1_log_core.html#a1555ff59635d441f5b2c670ad19a1718" target="_top" xlink:title=" ">
<polygon fill="white" stroke="none" points="666,-773.75 536,-773.75 536,-732 666,-732 666,-773.75"/>
<text xml:space="preserve" text-anchor="start" x="544" y="-759.3" font-family="Consolas" font-size="11.00">anonymous_namespace</text>
<text xml:space="preserve" text-anchor="start" x="544" y="-748.05" font-family="Consolas" font-size="11.00">{Log::cpp}::LogCore</text>
<text xml:space="preserve" text-anchor="middle" x="601" y="-736.8" font-family="Consolas" font-size="11.00">::ComparePaths_</text>
</a>
</g>
</g>
<!-- Node4&#45;&gt;Node11 -->
<g id="edge10_Node000004_Node000011" class="edge">
<title>Node4&#45;&gt;Node11</title>
<g id="a_edge10_Node000004_Node000011"><a xlink:title=" ">
<path fill="none" stroke="#63b8ff" d="M460.56,-699.69C485.25,-709.1 514.51,-720.27 539.84,-729.93"/>
<polygon fill="#63b8ff" stroke="#63b8ff" points="544.38,-731.66 538.91,-731.98 543.18,-731.2 539.71,-729.88 539.71,-729.88 539.71,-729.88 543.18,-731.2 540.51,-727.77 544.38,-731.66"/>
</a>
</g>
</g>
<!-- Node4&#45;&gt;Node12 -->
<g id="edge13_Node000004_Node000012" class="edge">
<title>Node4&#45;&gt;Node12</title>
<g id="a_edge13_Node000004_Node000012"><a xlink:title=" ">
<path fill="none" stroke="#63b8ff" d="M443.65,-658.04C463.63,-647.41 488.79,-634.68 512,-624.88 517.92,-622.37 524.13,-619.92 530.39,-617.57"/>
<polygon fill="#63b8ff" stroke="#63b8ff" points="535,-615.86 531.1,-619.71 533.8,-616.31 530.31,-617.6 530.31,-617.6 530.31,-617.6 533.8,-616.31 529.53,-615.49 535,-615.86"/>
</a>
</g>
</g>
<!-- Node6 -->
<g id="Node000006" class="node">
<title>Node6</title>
<g id="a_Node000006"><a xlink:href="../../dc/dba/namespacenpi_1_1app.html#a30836be8b9337a64733a6e05594b23c8" target="_top" xlink:title="Absolute organization&#45;level ProgramData path.">
<polygon fill="white" stroke="none" points="922,-593.5 744,-593.5 744,-574.25 922,-574.25 922,-593.5"/>
<text xml:space="preserve" text-anchor="middle" x="833" y="-579.05" font-family="Consolas" font-size="11.00">npi::app::orgProgramDataDir</text>
</a>
</g>
</g>
<!-- Node5&#45;&gt;Node6 -->
<g id="edge5_Node000005_Node000006" class="edge">
<title>Node5&#45;&gt;Node6</title>
<g id="a_edge5_Node000005_Node000006"><a xlink:title=" ">
<path fill="none" stroke="#63b8ff" d="M660.04,-555.46C693,-560.91 734.31,-567.73 768.18,-573.33"/>
<polygon fill="#63b8ff" stroke="#63b8ff" points="772.78,-574.09 767.48,-575.5 771.51,-573.88 767.84,-573.28 767.84,-573.28 767.84,-573.28 771.51,-573.88 768.21,-571.06 772.78,-574.09"/>
</a>
</g>
</g>
<!-- Node7 -->
<g id="Node000007" class="node">
<title>Node7</title>
<g id="a_Node000007"><a xlink:href="../../df/d40/namespaceanonymous__namespace_02_meta_paths_8cpp_03.html#a6b23c92ed8a542082d8cddde4bd55b47" target="_top" xlink:title="Resolve base path using Known Folder ID or environment variable fallback.">
<polygon fill="white" stroke="none" points="1166,-599.12 994,-599.12 994,-568.62 1166,-568.62 1166,-599.12"/>
<text xml:space="preserve" text-anchor="start" x="1002" y="-584.67" font-family="Consolas" font-size="11.00">anonymous_namespace</text>
<text xml:space="preserve" text-anchor="middle" x="1080" y="-573.42" font-family="Consolas" font-size="11.00">{MetaPaths::cpp}::basePath</text>
</a>
</g>
</g>
<!-- Node6&#45;&gt;Node7 -->
<g id="edge6_Node000006_Node000007" class="edge">
<title>Node6&#45;&gt;Node7</title>
<g id="a_edge6_Node000006_Node000007"><a xlink:title=" ">
<path fill="none" stroke="#63b8ff" d="M921.76,-583.88C943.35,-583.88 966.5,-583.88 988.23,-583.88"/>
<polygon fill="#63b8ff" stroke="#63b8ff" points="993.1,-583.88 988.1,-586.13 991.82,-583.88 988.1,-583.88 988.1,-583.88 988.1,-583.88 991.82,-583.88 988.1,-581.63 993.1,-583.88"/>
</a>
</g>
</g>
<!-- Node7&#45;&gt;Node8 -->
<g id="edge7_Node000007_Node000008" class="edge">
<title>Node7&#45;&gt;Node8</title>
<g id="a_edge7_Node000007_Node000008"><a xlink:title=" ">
<path fill="none" stroke="#63b8ff" d="M1144.5,-568.63C1157.57,-565.45 1171.24,-562.08 1184,-558.88 1212.33,-551.76 1244.14,-543.49 1268.84,-537.01"/>
<polygon fill="#63b8ff" stroke="#63b8ff" points="1273.46,-535.8 1269.19,-539.25 1272.22,-536.12 1268.62,-537.07 1268.62,-537.07 1268.62,-537.07 1272.22,-536.12 1268.05,-534.89 1273.46,-535.8"/>
</a>
</g>
</g>
<!-- Node13&#45;&gt;Node5 -->
<g id="edge15_Node000013_Node000005" class="edge">
<title>Node13&#45;&gt;Node5</title>
<g id="a_edge15_Node000013_Node000005"><a xlink:title=" ">
<path fill="none" stroke="#63b8ff" d="M469.79,-545.88C481.47,-545.88 493.87,-545.88 506.2,-545.88"/>
<polygon fill="#63b8ff" stroke="#63b8ff" points="511.03,-545.88 506.03,-548.13 509.75,-545.88 506.03,-545.88 506.03,-545.88 506.03,-545.88 509.75,-545.88 506.03,-543.63 511.03,-545.88"/>
</a>
</g>
</g>
<!-- Node15 -->
<g id="Node000015" class="node">
<title>Node15</title>
<g id="a_Node000015"><a xlink:href="../../d0/d61/classanonymous__namespace_02_log_8cpp_03_1_1_log_core.html#ada2216e6d5c8ed9150550651e529c9a7" target="_top" xlink:title=" ">
<polygon fill="white" stroke="none" points="666,-307.75 536,-307.75 536,-266 666,-266 666,-307.75"/>
<text xml:space="preserve" text-anchor="start" x="544" y="-293.3" font-family="Consolas" font-size="11.00">anonymous_namespace</text>
<text xml:space="preserve" text-anchor="start" x="544" y="-282.05" font-family="Consolas" font-size="11.00">{Log::cpp}::LogCore</text>
<text xml:space="preserve" text-anchor="middle" x="601" y="-270.8" font-family="Consolas" font-size="11.00">::FormatOneLine_</text>
</a>
</g>
</g>
<!-- Node14&#45;&gt;Node15 -->
<g id="edge17_Node000014_Node000015" class="edge">
<title>Node14&#45;&gt;Node15</title>
<g id="a_edge17_Node000014_Node000015"><a xlink:title=" ">
<path fill="none" stroke="#63b8ff" d="M469.79,-305C489.11,-302.31 510.42,-299.34 530.11,-296.6"/>
<polygon fill="#63b8ff" stroke="#63b8ff" points="534.96,-295.93 530.32,-298.84 533.69,-296.1 530.01,-296.62 530.01,-296.62 530.01,-296.62 533.69,-296.1 529.7,-294.39 534.96,-295.93"/>
</a>
</g>
</g>
<!-- Node24 -->
<g id="Node000024" class="node">
<title>Node24</title>
<g id="a_Node000024"><a xlink:href="../../d0/d61/classanonymous__namespace_02_log_8cpp_03_1_1_log_core.html#ab25a4996d5ead7b5656de343421f6788" target="_top" xlink:title=" ">
<polygon fill="white" stroke="none" points="666,-247.75 536,-247.75 536,-206 666,-206 666,-247.75"/>
<text xml:space="preserve" text-anchor="start" x="544" y="-233.3" font-family="Consolas" font-size="11.00">anonymous_namespace</text>
<text xml:space="preserve" text-anchor="start" x="544" y="-222.05" font-family="Consolas" font-size="11.00">{Log::cpp}::LogCore</text>
<text xml:space="preserve" text-anchor="middle" x="601" y="-210.8" font-family="Consolas" font-size="11.00">::insertLogMessage_</text>
</a>
</g>
</g>
<!-- Node14&#45;&gt;Node24 -->
<g id="edge26_Node000014_Node000024" class="edge">
<title>Node14&#45;&gt;Node24</title>
<g id="a_edge26_Node000014_Node000024"><a xlink:title=" ">
<path fill="none" stroke="#63b8ff" d="M458.29,-293.11C464.37,-290.22 470.39,-287.12 476,-283.88 493.31,-273.86 494.32,-266.22 512,-256.88 517.91,-253.75 524.21,-250.86 530.62,-248.19"/>
<polygon fill="#63b8ff" stroke="#63b8ff" points="534.89,-246.47 531.1,-250.43 533.7,-246.95 530.26,-248.34 530.26,-248.34 530.26,-248.34 533.7,-246.95 529.41,-246.25 534.89,-246.47"/>
</a>
</g>
</g>
<!-- Node16 -->
<g id="Node000016" class="node">
<title>Node16</title>
<g id="a_Node000016"><a xlink:href="../../dc/d58/structanonymous__namespace_02_log_8cpp_03_1_1_log_core_1_1_fixed_strings.html#a3a000d7c183750a49f0cfce9fa6926a3" target="_top" xlink:title=" ">
<polygon fill="white" stroke="none" points="940,-281.75 726,-281.75 726,-240 940,-240 940,-281.75"/>
<text xml:space="preserve" text-anchor="start" x="734" y="-267.3" font-family="Consolas" font-size="11.00">anonymous_namespace</text>
<text xml:space="preserve" text-anchor="start" x="734" y="-256.05" font-family="Consolas" font-size="11.00">{Log::cpp}::LogCore</text>
<text xml:space="preserve" text-anchor="middle" x="833" y="-244.8" font-family="Consolas" font-size="11.00">::FixedStrings::appendCategoryTo_</text>
</a>
</g>
</g>
<!-- Node15&#45;&gt;Node16 -->
<g id="edge18_Node000015_Node000016" class="edge">
<title>Node15&#45;&gt;Node16</title>
<g id="a_edge18_Node000015_Node000016"><a xlink:title=" ">
<path fill="none" stroke="#63b8ff" d="M665.76,-279.67C682.75,-277.75 701.61,-275.61 720.36,-273.5"/>
<polygon fill="#63b8ff" stroke="#63b8ff" points="724.96,-272.98 720.24,-275.77 723.68,-273.12 719.99,-273.54 719.99,-273.54 719.99,-273.54 723.68,-273.12 719.74,-271.3 724.96,-272.98"/>
</a>
</g>
</g>
<!-- Node17 -->
<g id="Node000017" class="node">
<title>Node17</title>
<g id="a_Node000017"><a xlink:href="../../d0/d61/classanonymous__namespace_02_log_8cpp_03_1_1_log_core.html#ab122b241533434653fbd519339edfa38" target="_top" xlink:title=" ">
<polygon fill="white" stroke="none" points="898,-221.75 768,-221.75 768,-180 898,-180 898,-221.75"/>
<text xml:space="preserve" text-anchor="start" x="776" y="-207.3" font-family="Consolas" font-size="11.00">anonymous_namespace</text>
<text xml:space="preserve" text-anchor="start" x="776" y="-196.05" font-family="Consolas" font-size="11.00">{Log::cpp}::LogCore</text>
<text xml:space="preserve" text-anchor="middle" x="833" y="-184.8" font-family="Consolas" font-size="11.00">::AppendDateTime_</text>
</a>
</g>
</g>
<!-- Node15&#45;&gt;Node17 -->
<g id="edge19_Node000015_Node000017" class="edge">
<title>Node15&#45;&gt;Node17</title>
<g id="a_edge19_Node000015_Node000017"><a xlink:title=" ">
<path fill="none" stroke="#63b8ff" d="M665.91,-267.61C674.18,-264.39 682.4,-260.8 690,-256.88 707.53,-247.81 708.23,-239.47 726,-230.88 737.42,-225.35 750.04,-220.67 762.47,-216.78"/>
<polygon fill="#63b8ff" stroke="#63b8ff" points="767,-215.4 762.87,-219.01 765.77,-215.77 762.22,-216.85 762.22,-216.85 762.22,-216.85 765.77,-215.77 761.56,-214.7 767,-215.4"/>
</a>
</g>
</g>
<!-- Node19 -->
<g id="Node000019" class="node">
<title>Node19</title>
<g id="a_Node000019"><a xlink:href="../../d0/d61/classanonymous__namespace_02_log_8cpp_03_1_1_log_core.html#ab8061264281dba381f5b1d06ef4d969c" target="_top" xlink:title=" ">
<polygon fill="white" stroke="none" points="898,-161.75 768,-161.75 768,-120 898,-120 898,-161.75"/>
<text xml:space="preserve" text-anchor="start" x="776" y="-147.3" font-family="Consolas" font-size="11.00">anonymous_namespace</text>
<text xml:space="preserve" text-anchor="start" x="776" y="-136.05" font-family="Consolas" font-size="11.00">{Log::cpp}::LogCore</text>
<text xml:space="preserve" text-anchor="middle" x="833" y="-124.8" font-family="Consolas" font-size="11.00">::AppendDelta_</text>
</a>
</g>
</g>
<!-- Node15&#45;&gt;Node19 -->
<g id="edge21_Node000015_Node000019" class="edge">
<title>Node15&#45;&gt;Node19</title>
<g id="a_edge21_Node000015_Node000019"><a xlink:title=" ">
<path fill="none" stroke="#63b8ff" d="M665.77,-272.47C674.62,-268.47 683.04,-263.38 690,-256.88 720.28,-228.59 694.99,-198.36 726,-170.88 736.33,-161.72 749.27,-155.34 762.51,-150.9"/>
<polygon fill="#63b8ff" stroke="#63b8ff" points="767.04,-149.48 762.94,-153.13 765.82,-149.87 762.27,-150.98 762.27,-150.98 762.27,-150.98 765.82,-149.87 761.6,-148.83 767.04,-149.48"/>
</a>
</g>
</g>
<!-- Node20 -->
<g id="Node000020" class="node">
<title>Node20</title>
<g id="a_Node000020"><a xlink:href="../../dc/d58/structanonymous__namespace_02_log_8cpp_03_1_1_log_core_1_1_fixed_strings.html#a10410013e62e5adfa34cf8b32ca58ff1" target="_top" xlink:title=" ">
<polygon fill="white" stroke="none" points="940,-101.75 726,-101.75 726,-60 940,-60 940,-101.75"/>
<text xml:space="preserve" text-anchor="start" x="734" y="-87.3" font-family="Consolas" font-size="11.00">anonymous_namespace</text>
<text xml:space="preserve" text-anchor="start" x="734" y="-76.05" font-family="Consolas" font-size="11.00">{Log::cpp}::LogCore</text>
<text xml:space="preserve" text-anchor="middle" x="833" y="-64.8" font-family="Consolas" font-size="11.00">::FixedStrings::appendFileNameTo_</text>
</a>
</g>
</g>
<!-- Node15&#45;&gt;Node20 -->
<g id="edge22_Node000015_Node000020" class="edge">
<title>Node15&#45;&gt;Node20</title>
<g id="a_edge22_Node000015_Node000020"><a xlink:title=" ">
<path fill="none" stroke="#63b8ff" d="M665.81,-273.81C674.87,-269.64 683.35,-264.13 690,-256.88 735.16,-207.61 679.55,-158.93 726,-110.88 727.97,-108.83 730.07,-106.93 732.28,-105.15"/>
<polygon fill="#63b8ff" stroke="#63b8ff" points="735.97,-102.4 733.31,-107.19 734.95,-103.17 731.96,-105.39 731.96,-105.39 731.96,-105.39 734.95,-103.17 730.62,-103.58 735.97,-102.4"/>
</a>
</g>
</g>
<!-- Node21 -->
<g id="Node000021" class="node">
<title>Node21</title>
<g id="a_Node000021"><a xlink:href="../../dc/d58/structanonymous__namespace_02_log_8cpp_03_1_1_log_core_1_1_fixed_strings.html#a32b722c7a4c1269ef2d88bbafd0eb59c" target="_top" xlink:title=" ">
<polygon fill="white" stroke="none" points="940,-41.75 726,-41.75 726,0 940,0 940,-41.75"/>
<text xml:space="preserve" text-anchor="start" x="734" y="-27.3" font-family="Consolas" font-size="11.00">anonymous_namespace</text>
<text xml:space="preserve" text-anchor="start" x="734" y="-16.05" font-family="Consolas" font-size="11.00">{Log::cpp}::LogCore</text>
<text xml:space="preserve" text-anchor="middle" x="833" y="-4.8" font-family="Consolas" font-size="11.00">::FixedStrings::appendFuncNameTo_</text>
</a>
</g>
</g>
<!-- Node15&#45;&gt;Node21 -->
<g id="edge23_Node000015_Node000021" class="edge">
<title>Node15&#45;&gt;Node21</title>
<g id="a_edge23_Node000015_Node000021"><a xlink:title=" ">
<path fill="none" stroke="#63b8ff" d="M665.81,-274.4C674.98,-270.16 683.49,-264.48 690,-256.88 750.42,-186.25 663.74,-119.89 726,-50.88 727.73,-48.96 729.57,-47.16 731.51,-45.47"/>
<polygon fill="#63b8ff" stroke="#63b8ff" points="735.24,-42.5 732.74,-47.37 734.24,-43.29 731.33,-45.61 731.33,-45.61 731.33,-45.61 734.24,-43.29 729.93,-43.85 735.24,-42.5"/>
</a>
</g>
</g>
<!-- Node22 -->
<g id="Node000022" class="node">
<title>Node22</title>
<g id="a_Node000022"><a xlink:href="../../d0/d61/classanonymous__namespace_02_log_8cpp_03_1_1_log_core.html#a4dda6a0306f72401c363c4ef2e7d1611" target="_top" xlink:title=" ">
<polygon fill="white" stroke="none" points="898,-401.75 768,-401.75 768,-360 898,-360 898,-401.75"/>
<text xml:space="preserve" text-anchor="start" x="776" y="-387.3" font-family="Consolas" font-size="11.00">anonymous_namespace</text>
<text xml:space="preserve" text-anchor="start" x="776" y="-376.05" font-family="Consolas" font-size="11.00">{Log::cpp}::LogCore</text>
<text xml:space="preserve" text-anchor="middle" x="833" y="-364.8" font-family="Consolas" font-size="11.00">::AppendLevel_</text>
</a>
</g>
</g>
<!-- Node15&#45;&gt;Node22 -->
<g id="edge24_Node000015_Node000022" class="edge">
<title>Node15&#45;&gt;Node22</title>
<g id="a_edge24_Node000015_Node000022"><a xlink:title=" ">
<path fill="none" stroke="#63b8ff" d="M637.46,-307.6C661.79,-321.21 695.13,-338.68 726,-350.88 737.65,-355.47 750.27,-359.68 762.61,-363.4"/>
<polygon fill="#63b8ff" stroke="#63b8ff" points="767.08,-364.73 761.65,-365.46 765.85,-364.36 762.29,-363.31 762.29,-363.31 762.29,-363.31 765.85,-364.36 762.93,-361.15 767.08,-364.73"/>
</a>
</g>
</g>
<!-- Node23 -->
<g id="Node000023" class="node">
<title>Node23</title>
<g id="a_Node000023"><a xlink:href="../../d0/d61/classanonymous__namespace_02_log_8cpp_03_1_1_log_core.html#aa885eb55dee8680b48150be9c21ee5f9" target="_top" xlink:title=" ">
<polygon fill="white" stroke="none" points="898,-341.75 768,-341.75 768,-300 898,-300 898,-341.75"/>
<text xml:space="preserve" text-anchor="start" x="776" y="-327.3" font-family="Consolas" font-size="11.00">anonymous_namespace</text>
<text xml:space="preserve" text-anchor="start" x="776" y="-316.05" font-family="Consolas" font-size="11.00">{Log::cpp}::LogCore</text>
<text xml:space="preserve" text-anchor="middle" x="833" y="-304.8" font-family="Consolas" font-size="11.00">::AppendStr_</text>
</a>
</g>
</g>
<!-- Node15&#45;&gt;Node23 -->
<g id="edge25_Node000015_Node000023" class="edge">
<title>Node15&#45;&gt;Node23</title>
<g id="a_edge25_Node000015_Node000023"><a xlink:title=" ">
<path fill="none" stroke="#63b8ff" d="M665.76,-296.3C695.67,-300.72 731.4,-306 762.05,-310.54"/>
<polygon fill="#63b8ff" stroke="#63b8ff" points="766.91,-311.25 761.63,-312.75 765.64,-311.07 761.96,-310.52 761.96,-310.52 761.96,-310.52 765.64,-311.07 762.29,-308.3 766.91,-311.25"/>
</a>
</g>
</g>
<!-- Node18 -->
<g id="Node000018" class="node">
<title>Node18</title>
<g id="a_Node000018"><a xlink:href="../../d0/d61/classanonymous__namespace_02_log_8cpp_03_1_1_log_core.html#a2a46463a402dc1ad9518d5d7dbfea87d" target="_top" xlink:title=" ">
<polygon fill="white" stroke="none" points="1145,-221.75 1015,-221.75 1015,-180 1145,-180 1145,-221.75"/>
<text xml:space="preserve" text-anchor="start" x="1023" y="-207.3" font-family="Consolas" font-size="11.00">anonymous_namespace</text>
<text xml:space="preserve" text-anchor="start" x="1023" y="-196.05" font-family="Consolas" font-size="11.00">{Log::cpp}::LogCore</text>
<text xml:space="preserve" text-anchor="middle" x="1080" y="-184.8" font-family="Consolas" font-size="11.00">::AppendChar_</text>
</a>
</g>
</g>
<!-- Node17&#45;&gt;Node18 -->
<g id="edge20_Node000017_Node000018" class="edge">
<title>Node17&#45;&gt;Node18</title>
<g id="a_edge20_Node000017_Node000018"><a xlink:title=" ">
<path fill="none" stroke="#63b8ff" d="M897.73,-200.88C931.91,-200.88 974.08,-200.88 1009.15,-200.88"/>
<polygon fill="#63b8ff" stroke="#63b8ff" points="1013.94,-200.88 1008.94,-203.13 1012.66,-200.88 1008.94,-200.88 1008.94,-200.88 1008.94,-200.88 1012.66,-200.88 1008.94,-198.63 1013.94,-200.88"/>
</a>
</g>
</g>
<!-- Node25&#45;&gt;Node5 -->
<g id="edge28_Node000025_Node000005" class="edge">
<title>Node25&#45;&gt;Node5</title>
<g id="a_edge28_Node000025_Node000005"><a xlink:title=" ">
<path fill="none" stroke="#63b8ff" d="M455.06,-506.69C472.79,-513.72 493.1,-521.22 512,-526.88 521.89,-529.84 532.53,-532.53 542.88,-534.91"/>
<polygon fill="#63b8ff" stroke="#63b8ff" points="547.74,-536 542.37,-537.1 546.49,-535.72 542.87,-534.9 542.87,-534.9 542.87,-534.9 546.49,-535.72 543.36,-532.71 547.74,-536"/>
</a>
</g>
</g>
<!-- Node26 -->
<g id="Node000026" class="node">
<title>Node26</title>
<g id="a_Node000026"><a xlink:href="../../dd/df2/namespaceanonymous__namespace_02_log_8cpp_03_1_1safe.html#a79b9de042466028e5c2c32bdf0635cb5" target="_top" xlink:title=" ">
<polygon fill="white" stroke="none" points="687,-499.75 515,-499.75 515,-458 687,-458 687,-499.75"/>
<text xml:space="preserve" text-anchor="start" x="523" y="-485.3" font-family="Consolas" font-size="11.00">anonymous_namespace</text>
<text xml:space="preserve" text-anchor="start" x="523" y="-474.05" font-family="Consolas" font-size="11.00">{Log::cpp}::safe::startImp</text>
<text xml:space="preserve" text-anchor="middle" x="601" y="-462.8" font-family="Consolas" font-size="11.00">LogProcess</text>
</a>
</g>
</g>
<!-- Node25&#45;&gt;Node26 -->
<g id="edge29_Node000025_Node000026" class="edge">
<title>Node25&#45;&gt;Node26</title>
<g id="a_edge29_Node000025_Node000026"><a xlink:title=" ">
<path fill="none" stroke="#63b8ff" d="M475.76,-483.36C486.58,-482.97 497.89,-482.56 509.08,-482.16"/>
<polygon fill="#63b8ff" stroke="#63b8ff" points="514.07,-481.98 509.16,-484.4 512.79,-482.02 509.08,-482.16 509.08,-482.16 509.08,-482.16 512.79,-482.02 509,-479.91 514.07,-481.98"/>
</a>
</g>
</g>
<!-- Node26&#45;&gt;Node8 -->
<g id="edge30_Node000026_Node000008" class="edge">
<title>Node26&#45;&gt;Node8</title>
<g id="a_edge30_Node000026_Node000008"><a xlink:title=" ">
<path fill="none" stroke="#63b8ff" d="M686.83,-474.83C800.6,-470.79 1008.59,-468.26 1184,-492.88 1215.64,-497.31 1250.73,-506.8 1276,-514.46"/>
<polygon fill="#63b8ff" stroke="#63b8ff" points="1280.71,-515.91 1275.27,-516.59 1279.49,-515.53 1275.93,-514.44 1275.93,-514.44 1275.93,-514.44 1279.49,-515.53 1276.59,-512.29 1280.71,-515.91"/>
</a>
</g>
</g>
<!-- Node26&#45;&gt;Node26 -->
<g id="edge31_Node000026_Node000026" class="edge">
<title>Node26&#45;&gt;Node26</title>
<g id="a_edge31_Node000026_Node000026"><a xlink:title=" ">
<path fill="none" stroke="#63b8ff" d="M564.98,-499.67C561.05,-509.32 573.05,-517.75 601,-517.75 622.83,-517.75 634.94,-512.61 637.31,-505.75"/>
<polygon fill="#63b8ff" stroke="#63b8ff" points="637.08,-500.89 639.57,-505.78 637.14,-502.17 637.32,-505.88 637.32,-505.88 637.32,-505.88 637.14,-502.17 635.07,-505.99 637.08,-500.89"/>
</a>
</g>
</g>
<!-- Node27 -->
<g id="Node000027" class="node">
<title>Node27</title>
<g id="a_Node000027"><a xlink:href="../../dd/df2/namespaceanonymous__namespace_02_log_8cpp_03_1_1safe.html#acee0c3f06b3d9996946c9c55104868c4" target="_top" xlink:title=" ">
<polygon fill="white" stroke="none" points="922,-537.75 744,-537.75 744,-496 922,-496 922,-537.75"/>
<text xml:space="preserve" text-anchor="start" x="752" y="-523.3" font-family="Consolas" font-size="11.00">anonymous_namespace</text>
<text xml:space="preserve" text-anchor="start" x="752" y="-512.05" font-family="Consolas" font-size="11.00">{Log::cpp}::safe::win32Last</text>
<text xml:space="preserve" text-anchor="middle" x="833" y="-500.8" font-family="Consolas" font-size="11.00">Error</text>
</a>
</g>
</g>
<!-- Node26&#45;&gt;Node27 -->
<g id="edge32_Node000026_Node000027" class="edge">
<title>Node26&#45;&gt;Node27</title>
<g id="a_edge32_Node000026_Node000027"><a xlink:title=" ">
<path fill="none" stroke="#63b8ff" d="M686.99,-492.92C703.78,-495.69 721.48,-498.61 738.53,-501.43"/>
<polygon fill="#63b8ff" stroke="#63b8ff" points="743.08,-502.18 737.78,-503.59 741.81,-501.97 738.15,-501.37 738.15,-501.37 738.15,-501.37 741.81,-501.97 738.51,-499.15 743.08,-502.18"/>
</a>
</g>
</g>
<!-- Node27&#45;&gt;Node27 -->
<g id="edge35_Node000027_Node000027" class="edge">
<title>Node27&#45;&gt;Node27</title>
<g id="a_edge35_Node000027_Node000027"><a xlink:title=" ">
<path fill="none" stroke="#63b8ff" d="M790.36,-537.67C785.71,-547.32 799.92,-555.75 833,-555.75 858.84,-555.75 873.17,-550.61 875.98,-543.75"/>
<polygon fill="#63b8ff" stroke="#63b8ff" points="875.71,-538.89 878.24,-543.75 875.78,-540.17 875.99,-543.88 875.99,-543.88 875.99,-543.88 875.78,-540.17 873.75,-544.01 875.71,-538.89"/>
</a>
</g>
</g>
<!-- Node28 -->
<g id="Node000028" class="node">
<title>Node28</title>
<g id="a_Node000028"><a xlink:href="../../dd/df2/namespaceanonymous__namespace_02_log_8cpp_03_1_1safe.html#abc25ab769b48a34eb27ff7c789822b7e" target="_top" xlink:title=" ">
<polygon fill="white" stroke="none" points="1184,-532.12 976,-532.12 976,-501.62 1184,-501.62 1184,-532.12"/>
<text xml:space="preserve" text-anchor="start" x="984" y="-517.67" font-family="Consolas" font-size="11.00">anonymous_namespace</text>
<text xml:space="preserve" text-anchor="middle" x="1080" y="-506.43" font-family="Consolas" font-size="11.00">{Log::cpp}::safe::win32ErrorText</text>
</a>
</g>
</g>
<!-- Node27&#45;&gt;Node28 -->
<g id="edge33_Node000027_Node000028" class="edge">
<title>Node27&#45;&gt;Node28</title>
<g id="a_edge33_Node000027_Node000028"><a xlink:title=" ">
<path fill="none" stroke="#63b8ff" d="M921.76,-516.88C937.53,-516.88 954.15,-516.88 970.43,-516.88"/>
<polygon fill="#63b8ff" stroke="#63b8ff" points="975.19,-516.88 970.19,-519.13 973.91,-516.88 970.19,-516.88 970.19,-516.88 970.19,-516.88 973.91,-516.88 970.19,-514.63 975.19,-516.88"/>
</a>
</g>
</g>
<!-- Node28&#45;&gt;Node28 -->
<g id="edge34_Node000028_Node000028" class="edge">
<title>Node28&#45;&gt;Node28</title>
<g id="a_edge34_Node000028_Node000028"><a xlink:title=" ">
<path fill="none" stroke="#63b8ff" d="M1039.57,-531.92C1029.82,-541.25 1043.3,-550.12 1080,-550.12 1109.82,-550.12 1124.31,-544.27 1123.47,-537.06"/>
<polygon fill="#63b8ff" stroke="#63b8ff" points="1121.05,-532.97 1125.53,-536.13 1121.7,-534.07 1123.59,-537.28 1123.59,-537.28 1123.59,-537.28 1121.7,-534.07 1121.65,-538.42 1121.05,-532.97"/>
</a>
</g>
</g>
<!-- Node29&#45;&gt;Node8 -->
<g id="edge38_Node000029_Node000008" class="edge">
<title>Node29&#45;&gt;Node8</title>
<g id="a_edge38_Node000029_Node000008"><a xlink:title=" ">
<path fill="none" stroke="#63b8ff" d="M469.86,-422.12C604.16,-415.82 924.85,-409.31 1184,-470.88 1222.69,-480.06 1264.42,-500.36 1289.11,-513.56"/>
<polygon fill="#63b8ff" stroke="#63b8ff" points="1293.33,-515.84 1287.86,-515.44 1292.2,-515.23 1288.93,-513.46 1288.93,-513.46 1288.93,-513.46 1292.2,-515.23 1290,-511.48 1293.33,-515.84"/>
</a>
</g>
</g>
<!-- Node29&#45;&gt;Node15 -->
<g id="edge37_Node000029_Node000015" class="edge">
<title>Node29&#45;&gt;Node15</title>
<g id="a_edge37_Node000029_Node000015"><a xlink:title=" ">
<path fill="none" stroke="#63b8ff" d="M435.04,-405.07C470.15,-379.91 529.11,-337.67 566.21,-311.08"/>
<polygon fill="#63b8ff" stroke="#63b8ff" points="570.08,-308.31 567.33,-313.05 569.04,-309.06 566.02,-311.22 566.02,-311.22 566.02,-311.22 569.04,-309.06 564.71,-309.39 570.08,-308.31"/>
</a>
</g>
</g>
</g>
</svg>

<g id="navigator" transform="translate(0 0)" fill="#404254">
  <rect fill="#f2f5e9" fill-opacity="0.5" stroke="#606060" stroke-width=".5" x="0" y="0" width="60" height="60"/>
  <use id="zoomplus" xlink:href="#zoomPlus" x="17" y="9" onmousedown="handleZoom(evt,'in')"/>
  <use id="zoomminus" xlink:href="#zoomMin" x="42" y="9" onmousedown="handleZoom(evt,'out')"/>
  <use id="reset" xlink:href="#resetDef" x="30" y="36" onmousedown="handleReset()"/>
   <use id="arrowup" xlink:href="#arrowUp" x="0" y="0" onmousedown="handlePan(0,-1)"/>
  <use id="arrowright" xlink:href="#arrowRight" x="0" y="0" onmousedown="handlePan(1,0)"/>
  <use id="arrowdown" xlink:href="#arrowDown" x="0" y="0" onmousedown="handlePan(0,1)"/>
  <use id="arrowleft" xlink:href="#arrowLeft" x="0" y="0" onmousedown="handlePan(-1,0)"/>
</g>
<svg viewBox="0 0 15 15" width="100%" height="30px" preserveAspectRatio="xMaxYMin meet">
 <g id="arrow_out" transform="scale(0.3 0.3)">
  <a xlink:href="classanonymous__namespace_02_log_8cpp_03_1_1_log_core_ac81e3393bfb7545e17c9fd8ea4cb4aa6_cgraph_org.svg" target="_base">
   <rect id="button" ry="5" rx="5" y="6" x="6" height="38" width="38"
        fill="#f2f5e9" fill-opacity="0.5" stroke="#606060" stroke-width="1.0"/>
   <path id="arrow"
     d="M 11.500037,31.436501 C 11.940474,20.09759 22.043105,11.32322 32.158766,21.979434 L 37.068811,17.246167 C 37.068811,17.246167 37.088388,32 37.088388,32 L 22.160133,31.978069 C 22.160133,31.978069 26.997745,27.140456 26.997745,27.140456 C 18.528582,18.264221 13.291696,25.230495 11.500037,31.436501 z"
     style="fill:#404040;"/>
  </a>
 </g>
</svg>

<style type='text/css'>
<![CDATA[
[data-mouse-over-selected='false'] { opacity: 0.7; }
[data-mouse-over-selected='true']  { opacity: 1.0; }
]]>
</style>
<script type="application/ecmascript"><![CDATA[
document.addEventListener('DOMContentLoaded', (event) => {
  highlightEdges();
  highlightAdjacentNodes();
});
]]></script>
</svg>
