<?xml version="1.0" encoding="UTF-8" standalone="no"?>
<!DOCTYPE svg PUBLIC "-//W3C//DTD SVG 1.1//EN"
 "http://www.w3.org/Graphics/SVG/1.1/DTD/svg11.dtd">
<!-- Generated by graphviz version 14.0.0 (20250921.2048)
 -->
<!-- Title: anonymous_namespace{Log::cpp}::LogCore::Inst_ Pages: 1 -->
<svg width="460pt" height="68pt"
 viewBox="0.00 0.00 460.00 68.00" xmlns="http://www.w3.org/2000/svg" xmlns:xlink="http://www.w3.org/1999/xlink">
<g id="graph0" class="graph" transform="scale(1 1) rotate(0) translate(4 63.75)">
<title>anonymous_namespace{Log::cpp}::LogCore::Inst_</title>
<!-- Node1 -->
<g id="Node000001" class="node">
<title>Node1</title>
<g id="a_Node000001"><a xlink:title=" ">
<polygon fill="#999999" stroke="none" points="286,-30.5 0,-30.5 0,-11.25 286,-11.25 286,-30.5"/>
<text xml:space="preserve" text-anchor="start" x="8" y="-17.05" font-family="Consolas" font-weight="bold" font-size="11.00">anonymous_namespace{Log::cpp}::LogCore::Inst_</text>
</a>
</g>
</g>
<!-- Node2 -->
<g id="Node000002" class="node">
<title>Node2</title>
<g id="a_Node000002"><a xlink:href="../../d0/d61/classanonymous__namespace_02_log_8cpp_03_1_1_log_core.html#a730f0868e0c404fa25a887a023b70138" target="_top" xlink:title=" ">
<polygon fill="white" stroke="none" points="452,-41.75 322,-41.75 322,0 452,0 452,-41.75"/>
<text xml:space="preserve" text-anchor="start" x="330" y="-27.3" font-family="Consolas" font-size="11.00">anonymous_namespace</text>
<text xml:space="preserve" text-anchor="start" x="330" y="-16.05" font-family="Consolas" font-size="11.00">{Log::cpp}::LogCore</text>
<text xml:space="preserve" text-anchor="middle" x="387" y="-4.8" font-family="Consolas" font-size="11.00">::LogCore</text>
</a>
</g>
</g>
<!-- Node1&#45;&gt;Node2 -->
<g id="edge1_Node000001_Node000002" class="edge">
<title>Node1&#45;&gt;Node2</title>
<g id="a_edge1_Node000001_Node000002"><a xlink:title=" ">
<path fill="none" stroke="#63b8ff" d="M285.82,-20.88C296.24,-20.88 306.45,-20.88 316.13,-20.88"/>
<polygon fill="#63b8ff" stroke="#63b8ff" points="320.86,-20.88 315.86,-23.13 319.58,-20.88 315.86,-20.88 315.86,-20.88 315.86,-20.88 319.58,-20.88 315.86,-18.63 320.86,-20.88"/>
</a>
</g>
</g>
<!-- Node2&#45;&gt;Node2 -->
<g id="edge2_Node000002_Node000002" class="edge">
<title>Node2&#45;&gt;Node2</title>
<g id="a_edge2_Node000002_Node000002"><a xlink:title=" ">
<path fill="none" stroke="#63b8ff" d="M342.15,-41.67C337.26,-51.32 352.21,-59.75 387,-59.75 414.18,-59.75 429.25,-54.61 432.21,-47.75"/>
<polygon fill="#63b8ff" stroke="#63b8ff" points="431.92,-42.89 434.46,-47.75 431.99,-44.17 432.22,-47.88 432.22,-47.88 432.22,-47.88 431.99,-44.17 429.97,-48.01 431.92,-42.89"/>
</a>
</g>
</g>
</g>
</svg>
