<?xml version="1.0" encoding="UTF-8" standalone="no"?>
<!DOCTYPE svg PUBLIC "-//W3C//DTD SVG 1.1//EN"
 "http://www.w3.org/Graphics/SVG/1.1/DTD/svg11.dtd">
<!-- Generated by graphviz version 14.0.0 (20250921.2048)
 -->
<!-- Title: anonymous_namespace{Log::cpp}::LogCore::LogCore Pages: 1 -->
<!--zoomable 371 -->

<svg id="main" version="1.1" xmlns="http://www.w3.org/2000/svg" xmlns:xlink="http://www.w3.org/1999/xlink" xml:space="preserve" onload="init(evt)">

<style type="text/css"><![CDATA[
.node, .edge {opacity: 0.7;}
.node.selected, .edge.selected {opacity: 1;}
.edge:hover path { stroke: red; }
.edge:hover polygon { stroke: red; fill: red; }
]]></style>

<defs>
  <circle id="rim" cx="0" cy="0" r="7"/>
  <circle id="rim2" cx="0" cy="0" r="3.5"/>
  <g id="zoomPlus">
    <use xlink:href="#rim" fill="#404040"><set attributeName="fill" to="#808080" begin="zoomplus.mouseover" end="zoomplus.mouseout"/></use>
    <path d="M-4,0h8M0,-4v8" fill="none" stroke="white" stroke-width="1.5" pointer-events="none"/>
  </g>
  <g id="zoomMin">
    <use xlink:href="#rim" fill="#404040"><set attributeName="fill" to="#808080" begin="zoomminus.mouseover" end="zoomminus.mouseout"/></use>
    <path d="M-4,0h8" fill="none" stroke="white" stroke-width="1.5" pointer-events="none"/>
  </g>
  <g id="arrowUp" transform="translate(30 24)">
    <use xlink:href="#rim"/>
    <path pointer-events="none" fill="none" stroke="white" stroke-width="1.5" d="M0,-3.0v7 M-2.5,-0.5L0,-3.0L2.5,-0.5"/>
  </g>
  <g id="arrowRight" transform="rotate(90) translate(36 -43)">
    <use xlink:href="#rim"/>
    <path pointer-events="none" fill="none" stroke="white" stroke-width="1.5" d="M0,-3.0v7 M-2.5,-0.5L0,-3.0L2.5,-0.5"/>
  </g>
  <g id="arrowDown" transform="rotate(180) translate(-30 -48)">
    <use xlink:href="#rim"/>
    <path pointer-events="none" fill="none" stroke="white" stroke-width="1.5" d="M0,-3.0v7 M-2.5,-0.5L0,-3.0L2.5,-0.5"/>
  </g>
  <g id="arrowLeft" transform="rotate(270) translate(-36 17)">
    <use xlink:href="#rim"/>
    <path pointer-events="none" fill="none" stroke="white" stroke-width="1.5" d="M0,-3.0v7 M-2.5,-0.5L0,-3.0L2.5,-0.5"/>
  </g>
  <g id="resetDef">
    <use xlink:href="#rim2" fill="#404040"><set attributeName="fill" to="#808080" begin="reset.mouseover" end="reset.mouseout"/></use>
  </g>
</defs>
<script type="application/ecmascript">
var viewWidth = 876;
var viewHeight = 371;
var sectionId = 'dynsection-7';
</script>
<script type="application/ecmascript" xlink:href="../../svg.min.js"/>
<svg id="graph" class="graph">
<g id="viewport">
<title>anonymous_namespace{Log::cpp}::LogCore::LogCore</title>
<!-- Node1 -->
<g id="Node000001" class="node">
<title>Node1</title>
<g id="a_Node000001"><a xlink:title=" ">
<polygon fill="#999999" stroke="none" points="868,-154.88 570,-154.88 570,-135.62 868,-135.62 868,-154.88"/>
<text xml:space="preserve" text-anchor="start" x="578" y="-141.43" font-family="Consolas" font-weight="bold" font-size="11.00">anonymous_namespace{Log::cpp}::LogCore::LogCore</text>
</a>
</g>
</g>
<!-- Node1&#45;&gt;Node1 -->
<g id="edge1_Node000001_Node000001" class="edge">
<title>Node1&#45;&gt;Node1</title>
<g id="a_edge1_Node000001_Node000001"><a xlink:title=" ">
<path fill="none" stroke="#63b8ff" d="M762.37,-157.61C773.25,-165.41 758.79,-172.88 719,-172.88 674.32,-172.88 661.58,-163.46 680.78,-154.73"/>
<polygon fill="#63b8ff" stroke="#63b8ff" points="758.28,-155.33 763.75,-155.8 759.4,-155.95 762.65,-157.76 762.65,-157.76 762.65,-157.76 759.4,-155.95 761.55,-159.73 758.28,-155.33"/>
</a>
</g>
</g>
<!-- Node2 -->
<g id="Node000002" class="node">
<title>Node2</title>
<g id="a_Node000002"><a xlink:href="../../d0/d61/classanonymous__namespace_02_log_8cpp_03_1_1_log_core.html#a184d8616cfc2b37e3d26357a263e428b" target="_top" xlink:title=" ">
<polygon fill="white" stroke="none" points="534,-256.12 404,-256.12 404,-214.38 534,-214.38 534,-256.12"/>
<text xml:space="preserve" text-anchor="start" x="412" y="-241.68" font-family="Consolas" font-size="11.00">anonymous_namespace</text>
<text xml:space="preserve" text-anchor="start" x="412" y="-230.43" font-family="Consolas" font-size="11.00">{Log::cpp}::LogCore</text>
<text xml:space="preserve" text-anchor="middle" x="469" y="-219.18" font-family="Consolas" font-size="11.00">::LogCore</text>
</a>
</g>
</g>
<!-- Node1&#45;&gt;Node2 -->
<g id="edge2_Node000001_Node000002" class="edge">
<title>Node1&#45;&gt;Node2</title>
<g id="a_edge2_Node000001_Node000002"><a xlink:title=" ">
<path fill="none" stroke="#63b8ff" d="M686.25,-156.77C646.25,-171.29 576.78,-196.5 527.37,-214.43"/>
<polygon fill="#63b8ff" stroke="#63b8ff" points="690.78,-155.13 686.85,-158.95 689.58,-155.56 686.08,-156.83 686.08,-156.83 686.08,-156.83 689.58,-155.56 685.32,-154.72 690.78,-155.13"/>
</a>
</g>
</g>
<!-- Node3 -->
<g id="Node000003" class="node">
<title>Node3</title>
<g id="a_Node000003"><a xlink:href="../../d0/d61/classanonymous__namespace_02_log_8cpp_03_1_1_log_core.html#af85854d22c95e86c8802d7d864fcd350" target="_top" xlink:title=" ">
<polygon fill="white" stroke="none" points="534,-196.12 404,-196.12 404,-154.38 534,-154.38 534,-196.12"/>
<text xml:space="preserve" text-anchor="start" x="412" y="-181.68" font-family="Consolas" font-size="11.00">anonymous_namespace</text>
<text xml:space="preserve" text-anchor="start" x="412" y="-170.43" font-family="Consolas" font-size="11.00">{Log::cpp}::LogCore</text>
<text xml:space="preserve" text-anchor="middle" x="469" y="-159.18" font-family="Consolas" font-size="11.00">::Inst_</text>
</a>
</g>
</g>
<!-- Node1&#45;&gt;Node3 -->
<g id="edge3_Node000001_Node000003" class="edge">
<title>Node1&#45;&gt;Node3</title>
<g id="a_edge3_Node000001_Node000003"><a xlink:title=" ">
<path fill="none" stroke="#63b8ff" d="M632.51,-155.59C600.1,-159.51 563.81,-163.9 533.75,-167.54"/>
<polygon fill="#63b8ff" stroke="#63b8ff" points="637.3,-155.01 632.6,-157.85 636.03,-155.17 632.33,-155.61 632.33,-155.61 632.33,-155.61 636.03,-155.17 632.06,-153.38 637.3,-155.01"/>
</a>
</g>
</g>
<!-- Node13 -->
<g id="Node000013" class="node">
<title>Node13</title>
<g id="a_Node000013"><a xlink:href="../../d0/d61/classanonymous__namespace_02_log_8cpp_03_1_1_log_core.html#a7760e6077674e53d8c8bd17c8da105fd" target="_top" xlink:title=" ">
<polygon fill="white" stroke="none" points="534,-136.12 404,-136.12 404,-94.38 534,-94.38 534,-136.12"/>
<text xml:space="preserve" text-anchor="start" x="412" y="-121.67" font-family="Consolas" font-size="11.00">anonymous_namespace</text>
<text xml:space="preserve" text-anchor="start" x="412" y="-110.42" font-family="Consolas" font-size="11.00">{Log::cpp}::LogCore</text>
<text xml:space="preserve" text-anchor="middle" x="469" y="-99.17" font-family="Consolas" font-size="11.00">::operator=</text>
</a>
</g>
</g>
<!-- Node1&#45;&gt;Node13 -->
<g id="edge16_Node000001_Node000013" class="edge">
<title>Node1&#45;&gt;Node13</title>
<g id="a_edge16_Node000001_Node000013"><a xlink:title=" ">
<path fill="none" stroke="#63b8ff" d="M632.51,-134.91C600.1,-130.99 563.81,-126.6 533.75,-122.96"/>
<polygon fill="#63b8ff" stroke="#63b8ff" points="637.3,-135.49 632.06,-137.12 636.03,-135.33 632.33,-134.89 632.33,-134.89 632.33,-134.89 636.03,-135.33 632.6,-132.65 637.3,-135.49"/>
</a>
</g>
</g>
<!-- Node14 -->
<g id="Node000014" class="node">
<title>Node14</title>
<g id="a_Node000014"><a xlink:href="../../d0/d61/classanonymous__namespace_02_log_8cpp_03_1_1_log_core.html#af2d03cd8077874f51d37ff21b92a18fe" target="_top" xlink:title=" ">
<polygon fill="white" stroke="none" points="534,-76.12 404,-76.12 404,-34.38 534,-34.38 534,-76.12"/>
<text xml:space="preserve" text-anchor="start" x="412" y="-61.67" font-family="Consolas" font-size="11.00">anonymous_namespace</text>
<text xml:space="preserve" text-anchor="start" x="412" y="-50.42" font-family="Consolas" font-size="11.00">{Log::cpp}::LogCore</text>
<text xml:space="preserve" text-anchor="middle" x="469" y="-39.17" font-family="Consolas" font-size="11.00">::operator=</text>
</a>
</g>
</g>
<!-- Node1&#45;&gt;Node14 -->
<g id="edge17_Node000001_Node000014" class="edge">
<title>Node1&#45;&gt;Node14</title>
<g id="a_edge17_Node000001_Node000014"><a xlink:title=" ">
<path fill="none" stroke="#63b8ff" d="M686.25,-133.73C646.25,-119.21 576.78,-94 527.37,-76.07"/>
<polygon fill="#63b8ff" stroke="#63b8ff" points="690.78,-135.37 685.32,-135.78 689.58,-134.94 686.08,-133.67 686.08,-133.67 686.08,-133.67 689.58,-134.94 686.85,-131.55 690.78,-135.37"/>
</a>
</g>
</g>
<!-- Node4 -->
<g id="Node000004" class="node">
<title>Node4</title>
<g id="a_Node000004"><a xlink:href="../../d5/ddd/namespacenpi_1_1log.html#ae0e278f0a3f2618e1fff9b05fdcc0f9f" target="_top" xlink:title=" ">
<polygon fill="white" stroke="none" points="365,-362.88 193,-362.88 193,-343.62 365,-343.62 365,-362.88"/>
<text xml:space="preserve" text-anchor="middle" x="279" y="-348.43" font-family="Consolas" font-size="11.00">npi::log::clearFilterRules</text>
</a>
</g>
</g>
<!-- Node3&#45;&gt;Node4 -->
<g id="edge4_Node000003_Node000004" class="edge">
<title>Node3&#45;&gt;Node4</title>
<g id="a_edge4_Node000003_Node000004"><a xlink:title=" ">
<path fill="none" stroke="#63b8ff" d="M409.37,-199.75C407.45,-201.47 405.65,-203.3 404,-205.25 365.32,-251.05 411.82,-294.33 368,-335.25 364.35,-338.66 360.24,-341.49 355.84,-343.85"/>
<polygon fill="#63b8ff" stroke="#63b8ff" points="413.11,-196.7 410.65,-201.61 412.12,-197.51 409.23,-199.86 409.23,-199.86 409.23,-199.86 412.12,-197.51 407.81,-198.12 413.11,-196.7"/>
</a>
</g>
</g>
<!-- Node5 -->
<g id="Node000005" class="node">
<title>Node5</title>
<g id="a_Node000005"><a xlink:href="../../d5/ddd/namespacenpi_1_1log.html#a7b8c87cac5cee3c9c4ad9f19aebc8c02" target="_top" xlink:title=" ">
<polygon fill="white" stroke="none" points="353,-325.88 205,-325.88 205,-306.62 353,-306.62 353,-325.88"/>
<text xml:space="preserve" text-anchor="middle" x="279" y="-311.43" font-family="Consolas" font-size="11.00">npi::log::closeConsole</text>
</a>
</g>
</g>
<!-- Node3&#45;&gt;Node5 -->
<g id="edge5_Node000003_Node000005" class="edge">
<title>Node3&#45;&gt;Node5</title>
<g id="a_edge5_Node000003_Node000005"><a xlink:title=" ">
<path fill="none" stroke="#63b8ff" d="M410.35,-199.46C408.09,-201.27 405.96,-203.2 404,-205.25 375.1,-235.51 399.4,-264.58 368,-292.25 360.87,-298.53 352.25,-303.19 343.23,-306.63"/>
<polygon fill="#63b8ff" stroke="#63b8ff" points="414.15,-196.64 411.47,-201.42 413.12,-197.4 410.13,-199.62 410.13,-199.62 410.13,-199.62 413.12,-197.4 408.79,-197.81 414.15,-196.64"/>
</a>
</g>
</g>
<!-- Node6 -->
<g id="Node000006" class="node">
<title>Node6</title>
<g id="a_Node000006"><a xlink:href="../../dc/d8e/namespaceanonymous__namespace_02_log_8cpp_03.html#a7a82c11accb191c2f06849f6d13db39a" target="_top" xlink:title=" ">
<polygon fill="white" stroke="none" points="154,-217.5 0,-217.5 0,-187 154,-187 154,-217.5"/>
<text xml:space="preserve" text-anchor="start" x="8" y="-203.05" font-family="Consolas" font-size="11.00">anonymous_namespace</text>
<text xml:space="preserve" text-anchor="middle" x="77" y="-191.8" font-family="Consolas" font-size="11.00">{Log::cpp}::initLogging</text>
</a>
</g>
</g>
<!-- Node3&#45;&gt;Node6 -->
<g id="edge6_Node000003_Node000006" class="edge">
<title>Node3&#45;&gt;Node6</title>
<g id="a_edge6_Node000003_Node000006"><a xlink:title=" ">
<path fill="none" stroke="#63b8ff" d="M411.78,-199.29C409.06,-201.16 406.44,-203.15 404,-205.25 382.14,-224.06 393.43,-245.64 368,-259.25 298.25,-296.58 266.93,-277.7 190,-259.25 156.48,-251.21 121.67,-231.38 99.94,-217.38"/>
<polygon fill="#63b8ff" stroke="#63b8ff" points="415.77,-196.71 412.8,-201.31 414.69,-197.4 411.57,-199.43 411.57,-199.43 411.57,-199.43 414.69,-197.4 410.35,-197.54 415.77,-196.71"/>
</a>
</g>
</g>
<!-- Node7 -->
<g id="Node000007" class="node">
<title>Node7</title>
<g id="a_Node000007"><a xlink:href="../../dc/d8e/namespaceanonymous__namespace_02_log_8cpp_03.html#acf34371ee9cd3beb546b7f2c21dd2844" target="_top" xlink:title=" ">
<polygon fill="white" stroke="none" points="368,-250.12 190,-250.12 190,-208.38 368,-208.38 368,-250.12"/>
<text xml:space="preserve" text-anchor="start" x="198" y="-235.68" font-family="Consolas" font-size="11.00">anonymous_namespace</text>
<text xml:space="preserve" text-anchor="start" x="198" y="-224.43" font-family="Consolas" font-size="11.00">{Log::cpp}::loggingCategory</text>
<text xml:space="preserve" text-anchor="middle" x="279" y="-213.18" font-family="Consolas" font-size="11.00">Filter</text>
</a>
</g>
</g>
<!-- Node3&#45;&gt;Node7 -->
<g id="edge7_Node000003_Node000007" class="edge">
<title>Node3&#45;&gt;Node7</title>
<g id="a_edge7_Node000003_Node000007"><a xlink:title=" ">
<path fill="none" stroke="#63b8ff" d="M398.2,-195.3C383.28,-199.59 367.48,-204.12 352.47,-208.44"/>
<polygon fill="#63b8ff" stroke="#63b8ff" points="402.92,-193.94 398.73,-197.49 401.69,-194.3 398.11,-195.32 398.11,-195.32 398.11,-195.32 401.69,-194.3 397.49,-193.16 402.92,-193.94"/>
</a>
</g>
</g>
<!-- Node8 -->
<g id="Node000008" class="node">
<title>Node8</title>
<g id="a_Node000008"><a xlink:href="../../dc/d8e/namespaceanonymous__namespace_02_log_8cpp_03.html#a0c2edb98e44610adcc75724bbf4edfb8" target="_top" xlink:title=" ">
<polygon fill="white" stroke="none" points="353,-190.5 205,-190.5 205,-160 353,-160 353,-190.5"/>
<text xml:space="preserve" text-anchor="start" x="213" y="-176.05" font-family="Consolas" font-size="11.00">anonymous_namespace</text>
<text xml:space="preserve" text-anchor="middle" x="279" y="-164.8" font-family="Consolas" font-size="11.00">{Log::cpp}::msgHandler</text>
</a>
</g>
</g>
<!-- Node3&#45;&gt;Node8 -->
<g id="edge9_Node000003_Node000008" class="edge">
<title>Node3&#45;&gt;Node8</title>
<g id="a_edge9_Node000003_Node000008"><a xlink:title=" ">
<path fill="none" stroke="#63b8ff" d="M398.24,-175.25C383.41,-175.25 367.73,-175.25 352.79,-175.25"/>
<polygon fill="#63b8ff" stroke="#63b8ff" points="402.87,-175.25 397.87,-177.5 401.59,-175.25 397.87,-175.25 397.87,-175.25 397.87,-175.25 401.59,-175.25 397.87,-173 402.87,-175.25"/>
</a>
</g>
</g>
<!-- Node9 -->
<g id="Node000009" class="node">
<title>Node9</title>
<g id="a_Node000009"><a xlink:href="../../d5/ddd/namespacenpi_1_1log.html#aa9c7f1de08a88a0dcac316127c1d384b" target="_top" xlink:title=" ">
<polygon fill="white" stroke="none" points="368,-141.88 190,-141.88 190,-122.62 368,-122.62 368,-141.88"/>
<text xml:space="preserve" text-anchor="middle" x="279" y="-127.42" font-family="Consolas" font-size="11.00">npi::log::setColoredConsole</text>
</a>
</g>
</g>
<!-- Node3&#45;&gt;Node9 -->
<g id="edge11_Node000003_Node000009" class="edge">
<title>Node3&#45;&gt;Node9</title>
<g id="a_edge11_Node000003_Node000009"><a xlink:title=" ">
<path fill="none" stroke="#63b8ff" d="M398.12,-158.26C388.02,-155.87 377.75,-153.47 368,-151.25 354.13,-148.09 339,-144.77 325.26,-141.82"/>
<polygon fill="#63b8ff" stroke="#63b8ff" points="402.85,-159.39 397.46,-160.42 401.6,-159.09 397.98,-158.23 397.98,-158.23 397.98,-158.23 401.6,-159.09 398.5,-156.04 402.85,-159.39"/>
</a>
</g>
</g>
<!-- Node10 -->
<g id="Node000010" class="node">
<title>Node10</title>
<g id="a_Node000010"><a xlink:href="../../d5/ddd/namespacenpi_1_1log.html#a976d8ed596c3a4571209d46c933b5bbe" target="_top" xlink:title=" ">
<polygon fill="white" stroke="none" points="359,-104.88 199,-104.88 199,-85.62 359,-85.62 359,-104.88"/>
<text xml:space="preserve" text-anchor="middle" x="279" y="-90.42" font-family="Consolas" font-size="11.00">npi::log::setMuteDisplay</text>
</a>
</g>
</g>
<!-- Node3&#45;&gt;Node10 -->
<g id="edge12_Node000003_Node000010" class="edge">
<title>Node3&#45;&gt;Node10</title>
<g id="a_edge12_Node000003_Node000010"><a xlink:title=" ">
<path fill="none" stroke="#63b8ff" d="M414.61,-151.69C410.96,-149.63 407.38,-147.48 404,-145.25 386.12,-133.47 387.14,-122.83 368,-113.25 361.17,-109.83 353.73,-107.06 346.16,-104.81"/>
<polygon fill="#63b8ff" stroke="#63b8ff" points="418.58,-153.85 413.11,-153.43 417.45,-153.24 414.19,-151.46 414.19,-151.46 414.19,-151.46 417.45,-153.24 415.27,-149.48 418.58,-153.85"/>
</a>
</g>
</g>
<!-- Node11 -->
<g id="Node000011" class="node">
<title>Node11</title>
<g id="a_Node000011"><a xlink:href="../../d5/ddd/namespacenpi_1_1log.html#a9be9faae3670cc6af86285afecfb3e58" target="_top" xlink:title=" ">
<polygon fill="white" stroke="none" points="362,-67.88 196,-67.88 196,-48.62 362,-48.62 362,-67.88"/>
<text xml:space="preserve" text-anchor="middle" x="279" y="-53.42" font-family="Consolas" font-size="11.00">npi::log::setWarnAsImpLog</text>
</a>
</g>
</g>
<!-- Node3&#45;&gt;Node11 -->
<g id="edge13_Node000003_Node000011" class="edge">
<title>Node3&#45;&gt;Node11</title>
<g id="a_edge13_Node000003_Node000011"><a xlink:title=" ">
<path fill="none" stroke="#63b8ff" d="M410.75,-150.96C408.37,-149.17 406.1,-147.27 404,-145.25 379.03,-121.32 395.62,-97.07 368,-76.25 363.52,-72.87 358.55,-70.09 353.34,-67.8"/>
<polygon fill="#63b8ff" stroke="#63b8ff" points="414.77,-153.77 409.38,-152.75 413.72,-153.04 410.67,-150.91 410.67,-150.91 410.67,-150.91 413.72,-153.04 411.96,-149.06 414.77,-153.77"/>
</a>
</g>
</g>
<!-- Node12 -->
<g id="Node000012" class="node">
<title>Node12</title>
<g id="a_Node000012"><a xlink:href="../../dc/d8e/namespaceanonymous__namespace_02_log_8cpp_03.html#a9e0fadcfb2f6334dde67322028dc7676" target="_top" xlink:title=" ">
<polygon fill="white" stroke="none" points="359,-30.5 199,-30.5 199,0 359,0 359,-30.5"/>
<text xml:space="preserve" text-anchor="start" x="207" y="-16.05" font-family="Consolas" font-size="11.00">anonymous_namespace</text>
<text xml:space="preserve" text-anchor="middle" x="279" y="-4.8" font-family="Consolas" font-size="11.00">{Log::cpp}::shuttingDown</text>
</a>
</g>
</g>
<!-- Node3&#45;&gt;Node12 -->
<g id="edge14_Node000003_Node000012" class="edge">
<title>Node3&#45;&gt;Node12</title>
<g id="a_edge14_Node000003_Node000012"><a xlink:title=" ">
<path fill="none" stroke="#63b8ff" d="M409.51,-150.63C407.55,-148.95 405.7,-147.15 404,-145.25 370.82,-108.17 404.24,-73.34 368,-39.25 364.42,-35.89 360.42,-32.99 356.15,-30.48"/>
<polygon fill="#63b8ff" stroke="#63b8ff" points="413.31,-153.62 407.99,-152.3 412.31,-152.83 409.38,-150.53 409.38,-150.53 409.38,-150.53 412.31,-152.83 410.78,-148.76 413.31,-153.62"/>
</a>
</g>
</g>
<!-- Node7&#45;&gt;Node6 -->
<g id="edge8_Node000007_Node000006" class="edge">
<title>Node7&#45;&gt;Node6</title>
<g id="a_edge8_Node000007_Node000006"><a xlink:title=" ">
<path fill="none" stroke="#63b8ff" d="M184.27,-216.6C174.04,-215.22 163.72,-213.82 153.75,-212.48"/>
<polygon fill="#63b8ff" stroke="#63b8ff" points="189.07,-217.24 183.81,-218.81 187.8,-217.07 184.11,-216.58 184.11,-216.58 184.11,-216.58 187.8,-217.07 184.42,-214.35 189.07,-217.24"/>
</a>
</g>
</g>
<!-- Node8&#45;&gt;Node6 -->
<g id="edge10_Node000008_Node000006" class="edge">
<title>Node8&#45;&gt;Node6</title>
<g id="a_edge10_Node000008_Node000006"><a xlink:title=" ">
<path fill="none" stroke="#63b8ff" d="M199.3,-185.87C184.3,-187.9 168.64,-190.01 153.74,-192.02"/>
<polygon fill="#63b8ff" stroke="#63b8ff" points="204.02,-185.24 199.37,-188.14 202.75,-185.41 199.07,-185.91 199.07,-185.91 199.07,-185.91 202.75,-185.41 198.77,-183.68 204.02,-185.24"/>
</a>
</g>
</g>
<!-- Node12&#45;&gt;Node6 -->
<g id="edge15_Node000012_Node000006" class="edge">
<title>Node12&#45;&gt;Node6</title>
<g id="a_edge15_Node000012_Node000006"><a xlink:title=" ">
<path fill="none" stroke="#63b8ff" d="M199.93,-33.17C196.47,-35 193.14,-37.02 190,-39.25 134.57,-78.61 97.88,-154.59 84.11,-187"/>
<polygon fill="#63b8ff" stroke="#63b8ff" points="204.38,-30.98 200.89,-35.21 203.23,-31.55 199.89,-33.19 199.89,-33.19 199.89,-33.19 203.23,-31.55 198.9,-31.17 204.38,-30.98"/>
</a>
</g>
</g>
</g>
</svg>

<g id="navigator" transform="translate(0 0)" fill="#404254">
  <rect fill="#f2f5e9" fill-opacity="0.5" stroke="#606060" stroke-width=".5" x="0" y="0" width="60" height="60"/>
  <use id="zoomplus" xlink:href="#zoomPlus" x="17" y="9" onmousedown="handleZoom(evt,'in')"/>
  <use id="zoomminus" xlink:href="#zoomMin" x="42" y="9" onmousedown="handleZoom(evt,'out')"/>
  <use id="reset" xlink:href="#resetDef" x="30" y="36" onmousedown="handleReset()"/>
   <use id="arrowup" xlink:href="#arrowUp" x="0" y="0" onmousedown="handlePan(0,-1)"/>
  <use id="arrowright" xlink:href="#arrowRight" x="0" y="0" onmousedown="handlePan(1,0)"/>
  <use id="arrowdown" xlink:href="#arrowDown" x="0" y="0" onmousedown="handlePan(0,1)"/>
  <use id="arrowleft" xlink:href="#arrowLeft" x="0" y="0" onmousedown="handlePan(-1,0)"/>
</g>
<svg viewBox="0 0 15 15" width="100%" height="30px" preserveAspectRatio="xMaxYMin meet">
 <g id="arrow_out" transform="scale(0.3 0.3)">
  <a xlink:href="classanonymous__namespace_02_log_8cpp_03_1_1_log_core_a730f0868e0c404fa25a887a023b70138_icgraph_org.svg" target="_base">
   <rect id="button" ry="5" rx="5" y="6" x="6" height="38" width="38"
        fill="#f2f5e9" fill-opacity="0.5" stroke="#606060" stroke-width="1.0"/>
   <path id="arrow"
     d="M 11.500037,31.436501 C 11.940474,20.09759 22.043105,11.32322 32.158766,21.979434 L 37.068811,17.246167 C 37.068811,17.246167 37.088388,32 37.088388,32 L 22.160133,31.978069 C 22.160133,31.978069 26.997745,27.140456 26.997745,27.140456 C 18.528582,18.264221 13.291696,25.230495 11.500037,31.436501 z"
     style="fill:#404040;"/>
  </a>
 </g>
</svg>

<style type='text/css'>
<![CDATA[
[data-mouse-over-selected='false'] { opacity: 0.7; }
[data-mouse-over-selected='true']  { opacity: 1.0; }
]]>
</style>
<script type="application/ecmascript"><![CDATA[
document.addEventListener('DOMContentLoaded', (event) => {
  highlightEdges();
  highlightAdjacentNodes();
});
]]></script>
</svg>
