<?xml version="1.0" encoding="UTF-8" standalone="no"?>
<!DOCTYPE svg PUBLIC "-//W3C//DTD SVG 1.1//EN"
 "http://www.w3.org/Graphics/SVG/1.1/DTD/svg11.dtd">
<!-- Generated by graphviz version 14.0.0 (20250921.2048)
 -->
<!-- Title: anonymous_namespace{Log::cpp}::LogCore::setColoredConsole_ Pages: 1 -->
<svg width="1394pt" height="50pt"
 viewBox="0.00 0.00 1394.00 50.00" xmlns="http://www.w3.org/2000/svg" xmlns:xlink="http://www.w3.org/1999/xlink">
<g id="graph0" class="graph" transform="scale(1 1) rotate(0) translate(4 45.75)">
<title>anonymous_namespace{Log::cpp}::LogCore::setColoredConsole_</title>
<!-- Node1 -->
<g id="Node000001" class="node">
<title>Node1</title>
<g id="a_Node000001"><a xlink:title=" ">
<polygon fill="#999999" stroke="none" points="364,-30.5 0,-30.5 0,-11.25 364,-11.25 364,-30.5"/>
<text xml:space="preserve" text-anchor="start" x="8" y="-17.05" font-family="Consolas" font-weight="bold" font-size="11.00">anonymous_namespace{Log::cpp}::LogCore::setColoredConsole_</text>
</a>
</g>
</g>
<!-- Node2 -->
<g id="Node000002" class="node">
<title>Node2</title>
<g id="a_Node000002"><a xlink:href="../../d0/d61/classanonymous__namespace_02_log_8cpp_03_1_1_log_core.html#a5fa684811c33eea49f63593fea332de4" target="_top" xlink:title=" ">
<polygon fill="white" stroke="none" points="530,-41.75 400,-41.75 400,0 530,0 530,-41.75"/>
<text xml:space="preserve" text-anchor="start" x="408" y="-27.3" font-family="Consolas" font-size="11.00">anonymous_namespace</text>
<text xml:space="preserve" text-anchor="start" x="408" y="-16.05" font-family="Consolas" font-size="11.00">{Log::cpp}::LogCore</text>
<text xml:space="preserve" text-anchor="middle" x="465" y="-4.8" font-family="Consolas" font-size="11.00">::saveSettings_</text>
</a>
</g>
</g>
<!-- Node1&#45;&gt;Node2 -->
<g id="edge1_Node000001_Node000002" class="edge">
<title>Node1&#45;&gt;Node2</title>
<g id="a_edge1_Node000001_Node000002"><a xlink:title=" ">
<path fill="none" stroke="#63b8ff" d="M363.74,-20.88C374.23,-20.88 384.39,-20.88 393.96,-20.88"/>
<polygon fill="#63b8ff" stroke="#63b8ff" points="398.95,-20.88 393.95,-23.13 397.67,-20.88 393.95,-20.88 393.95,-20.88 393.95,-20.88 397.67,-20.88 393.95,-18.63 398.95,-20.88"/>
</a>
</g>
</g>
<!-- Node3 -->
<g id="Node000003" class="node">
<title>Node3</title>
<g id="a_Node000003"><a xlink:href="../../dc/dba/namespacenpi_1_1app.html#a40a2a28831f2f410c995f0657baf6544" target="_top" xlink:title="Absolute application&#45;level ProgramData path.">
<polygon fill="white" stroke="none" points="744,-30.5 566,-30.5 566,-11.25 744,-11.25 744,-30.5"/>
<text xml:space="preserve" text-anchor="middle" x="655" y="-16.05" font-family="Consolas" font-size="11.00">npi::app::appProgramDataDir</text>
</a>
</g>
</g>
<!-- Node2&#45;&gt;Node3 -->
<g id="edge2_Node000002_Node000003" class="edge">
<title>Node2&#45;&gt;Node3</title>
<g id="a_edge2_Node000002_Node000003"><a xlink:title=" ">
<path fill="none" stroke="#63b8ff" d="M529.91,-20.88C539.7,-20.88 549.97,-20.88 560.24,-20.88"/>
<polygon fill="#63b8ff" stroke="#63b8ff" points="565.07,-20.88 560.07,-23.13 563.79,-20.88 560.07,-20.88 560.07,-20.88 560.07,-20.88 563.79,-20.88 560.07,-18.63 565.07,-20.88"/>
</a>
</g>
</g>
<!-- Node4 -->
<g id="Node000004" class="node">
<title>Node4</title>
<g id="a_Node000004"><a xlink:href="../../dc/dba/namespacenpi_1_1app.html#a30836be8b9337a64733a6e05594b23c8" target="_top" xlink:title="Absolute organization&#45;level ProgramData path.">
<polygon fill="white" stroke="none" points="958,-30.5 780,-30.5 780,-11.25 958,-11.25 958,-30.5"/>
<text xml:space="preserve" text-anchor="middle" x="869" y="-16.05" font-family="Consolas" font-size="11.00">npi::app::orgProgramDataDir</text>
</a>
</g>
</g>
<!-- Node3&#45;&gt;Node4 -->
<g id="edge3_Node000003_Node000004" class="edge">
<title>Node3&#45;&gt;Node4</title>
<g id="a_edge3_Node000003_Node000004"><a xlink:title=" ">
<path fill="none" stroke="#63b8ff" d="M743.76,-20.88C753.85,-20.88 764.17,-20.88 774.34,-20.88"/>
<polygon fill="#63b8ff" stroke="#63b8ff" points="779.09,-20.88 774.09,-23.13 777.81,-20.88 774.09,-20.88 774.09,-20.88 774.09,-20.88 777.81,-20.88 774.09,-18.63 779.09,-20.88"/>
</a>
</g>
</g>
<!-- Node5 -->
<g id="Node000005" class="node">
<title>Node5</title>
<g id="a_Node000005"><a xlink:href="../../df/d40/namespaceanonymous__namespace_02_meta_paths_8cpp_03.html#a6b23c92ed8a542082d8cddde4bd55b47" target="_top" xlink:title="Resolve base path using Known Folder ID or environment variable fallback.">
<polygon fill="white" stroke="none" points="1166,-36.12 994,-36.12 994,-5.63 1166,-5.63 1166,-36.12"/>
<text xml:space="preserve" text-anchor="start" x="1002" y="-21.68" font-family="Consolas" font-size="11.00">anonymous_namespace</text>
<text xml:space="preserve" text-anchor="middle" x="1080" y="-10.43" font-family="Consolas" font-size="11.00">{MetaPaths::cpp}::basePath</text>
</a>
</g>
</g>
<!-- Node4&#45;&gt;Node5 -->
<g id="edge4_Node000004_Node000005" class="edge">
<title>Node4&#45;&gt;Node5</title>
<g id="a_edge4_Node000004_Node000005"><a xlink:title=" ">
<path fill="none" stroke="#63b8ff" d="M957.73,-20.88C967.81,-20.88 978.11,-20.88 988.24,-20.88"/>
<polygon fill="#63b8ff" stroke="#63b8ff" points="992.95,-20.88 987.95,-23.13 991.67,-20.88 987.95,-20.88 987.95,-20.88 987.95,-20.88 991.67,-20.88 987.95,-18.63 992.95,-20.88"/>
</a>
</g>
</g>
<!-- Node6 -->
<g id="Node000006" class="node">
<title>Node6</title>
<g id="a_Node000006"><a xlink:href="../../dc/dba/namespacenpi_1_1app.html#a30b5245afa890e98f19f43c58f29e633" target="_top" xlink:title="Windows native fatal error message box.">
<polygon fill="white" stroke="none" points="1386,-30.5 1202,-30.5 1202,-11.25 1386,-11.25 1386,-30.5"/>
<text xml:space="preserve" text-anchor="middle" x="1294" y="-16.05" font-family="Consolas" font-size="11.00">npi::app::nativeFatalMessage</text>
</a>
</g>
</g>
<!-- Node5&#45;&gt;Node6 -->
<g id="edge5_Node000005_Node000006" class="edge">
<title>Node5&#45;&gt;Node6</title>
<g id="a_edge5_Node000005_Node000006"><a xlink:title=" ">
<path fill="none" stroke="#63b8ff" d="M1165.7,-20.88C1175.73,-20.88 1186.02,-20.88 1196.2,-20.88"/>
<polygon fill="#63b8ff" stroke="#63b8ff" points="1200.96,-20.88 1195.96,-23.13 1199.68,-20.88 1195.96,-20.88 1195.96,-20.88 1195.96,-20.88 1199.68,-20.88 1195.96,-18.63 1200.96,-20.88"/>
</a>
</g>
</g>
</g>
</svg>
