<?xml version="1.0" encoding="UTF-8" standalone="no"?>
<!DOCTYPE svg PUBLIC "-//W3C//DTD SVG 1.1//EN"
 "http://www.w3.org/Graphics/SVG/1.1/DTD/svg11.dtd">
<!-- Generated by graphviz version 14.0.0 (20250921.2048)
 -->
<!-- Title: anonymous_namespace{Log::cpp}::LogCore::msgHandler_ Pages: 1 -->
<!--zoomable 813 -->

<svg id="main" version="1.1" xmlns="http://www.w3.org/2000/svg" xmlns:xlink="http://www.w3.org/1999/xlink" xml:space="preserve" onload="init(evt)">

<style type="text/css"><![CDATA[
.node, .edge {opacity: 0.7;}
.node.selected, .edge.selected {opacity: 1;}
.edge:hover path { stroke: red; }
.edge:hover polygon { stroke: red; fill: red; }
]]></style>

<defs>
  <circle id="rim" cx="0" cy="0" r="7"/>
  <circle id="rim2" cx="0" cy="0" r="3.5"/>
  <g id="zoomPlus">
    <use xlink:href="#rim" fill="#404040"><set attributeName="fill" to="#808080" begin="zoomplus.mouseover" end="zoomplus.mouseout"/></use>
    <path d="M-4,0h8M0,-4v8" fill="none" stroke="white" stroke-width="1.5" pointer-events="none"/>
  </g>
  <g id="zoomMin">
    <use xlink:href="#rim" fill="#404040"><set attributeName="fill" to="#808080" begin="zoomminus.mouseover" end="zoomminus.mouseout"/></use>
    <path d="M-4,0h8" fill="none" stroke="white" stroke-width="1.5" pointer-events="none"/>
  </g>
  <g id="arrowUp" transform="translate(30 24)">
    <use xlink:href="#rim"/>
    <path pointer-events="none" fill="none" stroke="white" stroke-width="1.5" d="M0,-3.0v7 M-2.5,-0.5L0,-3.0L2.5,-0.5"/>
  </g>
  <g id="arrowRight" transform="rotate(90) translate(36 -43)">
    <use xlink:href="#rim"/>
    <path pointer-events="none" fill="none" stroke="white" stroke-width="1.5" d="M0,-3.0v7 M-2.5,-0.5L0,-3.0L2.5,-0.5"/>
  </g>
  <g id="arrowDown" transform="rotate(180) translate(-30 -48)">
    <use xlink:href="#rim"/>
    <path pointer-events="none" fill="none" stroke="white" stroke-width="1.5" d="M0,-3.0v7 M-2.5,-0.5L0,-3.0L2.5,-0.5"/>
  </g>
  <g id="arrowLeft" transform="rotate(270) translate(-36 17)">
    <use xlink:href="#rim"/>
    <path pointer-events="none" fill="none" stroke="white" stroke-width="1.5" d="M0,-3.0v7 M-2.5,-0.5L0,-3.0L2.5,-0.5"/>
  </g>
  <g id="resetDef">
    <use xlink:href="#rim2" fill="#404040"><set attributeName="fill" to="#808080" begin="reset.mouseover" end="reset.mouseout"/></use>
  </g>
</defs>
<script type="application/ecmascript">
var viewWidth = 1276;
var viewHeight = 813;
var sectionId = 'dynsection-35';
</script>
<script type="application/ecmascript" xlink:href="../../svg.min.js"/>
<svg id="graph" class="graph">
<g id="viewport">
<title>anonymous_namespace{Log::cpp}::LogCore::msgHandler_</title>
<!-- Node1 -->
<g id="Node000001" class="node">
<title>Node1</title>
<g id="a_Node000001"><a xlink:title=" ">
<polygon fill="#999999" stroke="none" points="322,-441.88 0,-441.88 0,-422.62 322,-422.62 322,-441.88"/>
<text xml:space="preserve" text-anchor="start" x="8" y="-428.43" font-family="Consolas" font-weight="bold" font-size="11.00">anonymous_namespace{Log::cpp}::LogCore::msgHandler_</text>
</a>
</g>
</g>
<!-- Node2 -->
<g id="Node000002" class="node">
<title>Node2</title>
<g id="a_Node000002"><a xlink:href="../../dd/df2/namespaceanonymous__namespace_02_log_8cpp_03_1_1safe.html#a460f691136cced36ea40b2595c18d0a8" target="_top" xlink:title=" ">
<polygon fill="white" stroke="none" points="542,-447.5 358,-447.5 358,-417 542,-417 542,-447.5"/>
<text xml:space="preserve" text-anchor="start" x="366" y="-433.05" font-family="Consolas" font-size="11.00">anonymous_namespace</text>
<text xml:space="preserve" text-anchor="middle" x="450" y="-421.8" font-family="Consolas" font-size="11.00">{Log::cpp}::safe::msgHandler</text>
</a>
</g>
</g>
<!-- Node1&#45;&gt;Node2 -->
<g id="edge1_Node000001_Node000002" class="edge">
<title>Node1&#45;&gt;Node2</title>
<g id="a_edge1_Node000001_Node000002"><a xlink:title=" ">
<path fill="none" stroke="#63b8ff" d="M321.86,-432.25C332.1,-432.25 342.22,-432.25 352.01,-432.25"/>
<polygon fill="#63b8ff" stroke="#63b8ff" points="356.85,-432.25 351.85,-434.5 355.57,-432.25 351.85,-432.25 351.85,-432.25 351.85,-432.25 355.57,-432.25 351.85,-430 356.85,-432.25"/>
</a>
</g>
</g>
<!-- Node2&#45;&gt;Node2 -->
<g id="edge40_Node000002_Node000002" class="edge">
<title>Node2&#45;&gt;Node2</title>
<g id="a_edge40_Node000002_Node000002"><a xlink:title=" ">
<path fill="none" stroke="#63b8ff" d="M409.57,-447.3C399.82,-456.62 413.3,-465.5 450,-465.5 479.82,-465.5 494.31,-459.64 493.47,-452.44"/>
<polygon fill="#63b8ff" stroke="#63b8ff" points="491.05,-448.35 495.53,-451.51 491.7,-449.45 493.59,-452.65 493.59,-452.65 493.59,-452.65 491.7,-449.45 491.65,-453.8 491.05,-448.35"/>
</a>
</g>
</g>
<!-- Node3 -->
<g id="Node000003" class="node">
<title>Node3</title>
<g id="a_Node000003"><a xlink:href="../../dd/df2/namespaceanonymous__namespace_02_log_8cpp_03_1_1safe.html#ac8e06193aa953194d78cd55baf2151d8" target="_top" xlink:title=" ">
<polygon fill="white" stroke="none" points="783,-786.5 581,-786.5 581,-756 783,-756 783,-786.5"/>
<text xml:space="preserve" text-anchor="start" x="589" y="-772.05" font-family="Consolas" font-size="11.00">anonymous_namespace</text>
<text xml:space="preserve" text-anchor="middle" x="682" y="-760.8" font-family="Consolas" font-size="11.00">{Log::cpp}::safe::append2Digits</text>
</a>
</g>
</g>
<!-- Node2&#45;&gt;Node3 -->
<g id="edge2_Node000002_Node000003" class="edge">
<title>Node2&#45;&gt;Node3</title>
<g id="a_edge2_Node000002_Node000003"><a xlink:title=" ">
<path fill="none" stroke="#63b8ff" d="M452.37,-447.47C457.77,-498.31 482.31,-663.62 578,-746.25 580.92,-748.78 584.06,-751.05 587.36,-753.11"/>
<polygon fill="#63b8ff" stroke="#63b8ff" points="591.61,-755.56 586.15,-755.01 590.5,-754.92 587.27,-753.06 587.27,-753.06 587.27,-753.06 590.5,-754.92 588.4,-751.11 591.61,-755.56"/>
</a>
</g>
</g>
<!-- Node4 -->
<g id="Node000004" class="node">
<title>Node4</title>
<g id="a_Node000004"><a xlink:href="../../dd/df2/namespaceanonymous__namespace_02_log_8cpp_03_1_1safe.html#a1138ca08d0d8b5a0482ee827987b024f" target="_top" xlink:title=" ">
<polygon fill="white" stroke="none" points="783,-719.5 581,-719.5 581,-689 783,-689 783,-719.5"/>
<text xml:space="preserve" text-anchor="start" x="589" y="-705.05" font-family="Consolas" font-size="11.00">anonymous_namespace</text>
<text xml:space="preserve" text-anchor="middle" x="682" y="-693.8" font-family="Consolas" font-size="11.00">{Log::cpp}::safe::append3Digits</text>
</a>
</g>
</g>
<!-- Node2&#45;&gt;Node4 -->
<g id="edge4_Node000002_Node000004" class="edge">
<title>Node2&#45;&gt;Node4</title>
<g id="a_edge4_Node000002_Node000004"><a xlink:title=" ">
<path fill="none" stroke="#63b8ff" d="M454.12,-447.24C463.95,-490.53 498.44,-616.61 578,-679.25 581.25,-681.81 584.73,-684.12 588.37,-686.19"/>
<polygon fill="#63b8ff" stroke="#63b8ff" points="592.73,-688.49 587.26,-688.15 591.6,-687.9 588.31,-686.16 588.31,-686.16 588.31,-686.16 591.6,-687.9 589.36,-684.17 592.73,-688.49"/>
</a>
</g>
</g>
<!-- Node5 -->
<g id="Node000005" class="node">
<title>Node5</title>
<g id="a_Node000005"><a xlink:href="../../dd/df2/namespaceanonymous__namespace_02_log_8cpp_03_1_1safe.html#a99008cbbcf5923943b42b8788667114a" target="_top" xlink:title=" ">
<polygon fill="white" stroke="none" points="783,-652.5 581,-652.5 581,-622 783,-622 783,-652.5"/>
<text xml:space="preserve" text-anchor="start" x="589" y="-638.05" font-family="Consolas" font-size="11.00">anonymous_namespace</text>
<text xml:space="preserve" text-anchor="middle" x="682" y="-626.8" font-family="Consolas" font-size="11.00">{Log::cpp}::safe::append4Digits</text>
</a>
</g>
</g>
<!-- Node2&#45;&gt;Node5 -->
<g id="edge6_Node000002_Node000005" class="edge">
<title>Node2&#45;&gt;Node5</title>
<g id="a_edge6_Node000002_Node000005"><a xlink:title=" ">
<path fill="none" stroke="#63b8ff" d="M457.15,-447.36C472.19,-482.28 514.28,-568.91 578,-612.25 581.96,-614.94 586.18,-617.35 590.56,-619.49"/>
<polygon fill="#63b8ff" stroke="#63b8ff" points="595.09,-621.56 589.6,-621.53 593.92,-621.03 590.54,-619.48 590.54,-619.48 590.54,-619.48 593.92,-621.03 591.48,-617.44 595.09,-621.56"/>
</a>
</g>
</g>
<!-- Node6 -->
<g id="Node000006" class="node">
<title>Node6</title>
<g id="a_Node000006"><a xlink:href="../../dd/df2/namespaceanonymous__namespace_02_log_8cpp_03_1_1safe.html#a65353ac3c8d675a9a827bed9e11acc17" target="_top" xlink:title=" ">
<polygon fill="white" stroke="none" points="1021,-332.5 843,-332.5 843,-302 1021,-302 1021,-332.5"/>
<text xml:space="preserve" text-anchor="start" x="851" y="-318.05" font-family="Consolas" font-size="11.00">anonymous_namespace</text>
<text xml:space="preserve" text-anchor="middle" x="932" y="-306.8" font-family="Consolas" font-size="11.00">{Log::cpp}::safe::appendChr</text>
</a>
</g>
</g>
<!-- Node2&#45;&gt;Node6 -->
<g id="edge8_Node000002_Node000006" class="edge">
<title>Node2&#45;&gt;Node6</title>
<g id="a_edge8_Node000002_Node000006"><a xlink:title=" ">
<path fill="none" stroke="#63b8ff" d="M468.88,-447.3C492.22,-465.86 535.15,-496.41 578,-508.25 667.1,-532.87 703.19,-549.35 786,-508.25 859.01,-472.01 905.16,-379.48 922.83,-337.96"/>
<polygon fill="#63b8ff" stroke="#63b8ff" points="924.66,-333.58 924.81,-339.06 924.17,-334.76 922.73,-338.19 922.73,-338.19 922.73,-338.19 924.17,-334.76 920.66,-337.32 924.66,-333.58"/>
</a>
</g>
</g>
<!-- Node8 -->
<g id="Node000008" class="node">
<title>Node8</title>
<g id="a_Node000008"><a xlink:href="../../dd/df2/namespaceanonymous__namespace_02_log_8cpp_03_1_1safe.html#a0b4f620e950ef2e9f44027327f4bd27f" target="_top" xlink:title=" ">
<polygon fill="white" stroke="none" points="771,-585.5 593,-585.5 593,-555 771,-555 771,-585.5"/>
<text xml:space="preserve" text-anchor="start" x="601" y="-571.05" font-family="Consolas" font-size="11.00">anonymous_namespace</text>
<text xml:space="preserve" text-anchor="middle" x="682" y="-559.8" font-family="Consolas" font-size="11.00">{Log::cpp}::safe::appendDec</text>
</a>
</g>
</g>
<!-- Node2&#45;&gt;Node8 -->
<g id="edge12_Node000002_Node000008" class="edge">
<title>Node2&#45;&gt;Node8</title>
<g id="a_edge12_Node000002_Node000008"><a xlink:title=" ">
<path fill="none" stroke="#63b8ff" d="M464.3,-447.27C485.88,-470.74 530.87,-516 578,-541.25 586.62,-545.87 596.06,-549.82 605.61,-553.17"/>
<polygon fill="#63b8ff" stroke="#63b8ff" points="610.08,-554.69 604.62,-555.21 608.87,-554.28 605.34,-553.08 605.34,-553.08 605.34,-553.08 608.87,-554.28 606.07,-550.95 610.08,-554.69"/>
</a>
</g>
</g>
<!-- Node10 -->
<g id="Node000010" class="node">
<title>Node10</title>
<g id="a_Node000010"><a xlink:href="../../dd/df2/namespaceanonymous__namespace_02_log_8cpp_03_1_1safe.html#aa526b57e73a9ee9e95150b61a18d6489" target="_top" xlink:title=" ">
<polygon fill="white" stroke="none" points="786,-481.5 578,-481.5 578,-451 786,-451 786,-481.5"/>
<text xml:space="preserve" text-anchor="start" x="586" y="-467.05" font-family="Consolas" font-size="11.00">anonymous_namespace</text>
<text xml:space="preserve" text-anchor="middle" x="682" y="-455.8" font-family="Consolas" font-size="11.00">{Log::cpp}::safe::appendFileName</text>
</a>
</g>
</g>
<!-- Node2&#45;&gt;Node10 -->
<g id="edge16_Node000002_Node000010" class="edge">
<title>Node2&#45;&gt;Node10</title>
<g id="a_edge16_Node000002_Node000010"><a xlink:title=" ">
<path fill="none" stroke="#63b8ff" d="M541.9,-445.69C551.87,-447.16 562.1,-448.67 572.26,-450.18"/>
<polygon fill="#63b8ff" stroke="#63b8ff" points="577.02,-450.88 571.75,-452.37 575.76,-450.69 572.08,-450.15 572.08,-450.15 572.08,-450.15 575.76,-450.69 572.41,-447.92 577.02,-450.88"/>
</a>
</g>
</g>
<!-- Node11 -->
<g id="Node000011" class="node">
<title>Node11</title>
<g id="a_Node000011"><a xlink:href="../../dd/df2/namespaceanonymous__namespace_02_log_8cpp_03_1_1safe.html#a0007f4a1265f5b0c790d25e74cd93713" target="_top" xlink:title=" ">
<polygon fill="white" stroke="none" points="786,-146.5 578,-146.5 578,-116 786,-116 786,-146.5"/>
<text xml:space="preserve" text-anchor="start" x="586" y="-132.05" font-family="Consolas" font-size="11.00">anonymous_namespace</text>
<text xml:space="preserve" text-anchor="middle" x="682" y="-120.8" font-family="Consolas" font-size="11.00">{Log::cpp}::safe::appendFuncName</text>
</a>
</g>
</g>
<!-- Node2&#45;&gt;Node11 -->
<g id="edge19_Node000002_Node000011" class="edge">
<title>Node2&#45;&gt;Node11</title>
<g id="a_edge19_Node000002_Node000011"><a xlink:title=" ">
<path fill="none" stroke="#63b8ff" d="M454.43,-417.21C465.09,-373.67 501.61,-246.05 578,-174.25 589.63,-163.32 604.44,-154.97 619.19,-148.67"/>
<polygon fill="#63b8ff" stroke="#63b8ff" points="623.48,-146.91 619.71,-150.89 622.29,-147.39 618.86,-148.81 618.86,-148.81 618.86,-148.81 622.29,-147.39 618,-146.73 623.48,-146.91"/>
</a>
</g>
</g>
<!-- Node13 -->
<g id="Node000013" class="node">
<title>Node13</title>
<g id="a_Node000013"><a xlink:href="../../dd/df2/namespaceanonymous__namespace_02_log_8cpp_03_1_1safe.html#a75a945c8f2e5d069f7c6f13667c2ee57" target="_top" xlink:title=" ">
<polygon fill="white" stroke="none" points="771,-347.5 593,-347.5 593,-317 771,-317 771,-347.5"/>
<text xml:space="preserve" text-anchor="start" x="601" y="-333.05" font-family="Consolas" font-size="11.00">anonymous_namespace</text>
<text xml:space="preserve" text-anchor="middle" x="682" y="-321.8" font-family="Consolas" font-size="11.00">{Log::cpp}::safe::appendHex</text>
</a>
</g>
</g>
<!-- Node2&#45;&gt;Node13 -->
<g id="edge25_Node000002_Node000013" class="edge">
<title>Node2&#45;&gt;Node13</title>
<g id="a_edge25_Node000002_Node000013"><a xlink:title=" ">
<path fill="none" stroke="#63b8ff" d="M484.32,-417.01C509.87,-405.39 546.06,-389.08 578,-375.25 597.82,-366.67 619.91,-357.41 638.53,-349.68"/>
<polygon fill="#63b8ff" stroke="#63b8ff" points="643.07,-347.81 639.31,-351.8 641.88,-348.3 638.45,-349.72 638.45,-349.72 638.45,-349.72 641.88,-348.3 637.59,-347.64 643.07,-347.81"/>
</a>
</g>
</g>
<!-- Node14 -->
<g id="Node000014" class="node">
<title>Node14</title>
<g id="a_Node000014"><a xlink:href="../../dd/df2/namespaceanonymous__namespace_02_log_8cpp_03_1_1safe.html#a7927803dc42a56944e7bf39eae31f330" target="_top" xlink:title=" ">
<polygon fill="white" stroke="none" points="771,-280.5 593,-280.5 593,-250 771,-250 771,-280.5"/>
<text xml:space="preserve" text-anchor="start" x="601" y="-266.05" font-family="Consolas" font-size="11.00">anonymous_namespace</text>
<text xml:space="preserve" text-anchor="middle" x="682" y="-254.8" font-family="Consolas" font-size="11.00">{Log::cpp}::safe::appendLvl</text>
</a>
</g>
</g>
<!-- Node2&#45;&gt;Node14 -->
<g id="edge27_Node000002_Node000014" class="edge">
<title>Node2&#45;&gt;Node14</title>
<g id="a_edge27_Node000002_Node000014"><a xlink:title=" ">
<path fill="none" stroke="#63b8ff" d="M463.23,-417.01C484.33,-391.55 529.94,-340.04 578,-308.25 593.46,-298.02 611.76,-289.43 628.6,-282.68"/>
<polygon fill="#63b8ff" stroke="#63b8ff" points="633.12,-280.91 629.29,-284.83 631.93,-281.38 628.47,-282.74 628.47,-282.74 628.47,-282.74 631.93,-281.38 627.65,-280.64 633.12,-280.91"/>
</a>
</g>
</g>
<!-- Node15 -->
<g id="Node000015" class="node">
<title>Node15</title>
<g id="a_Node000015"><a xlink:href="../../dd/df2/namespaceanonymous__namespace_02_log_8cpp_03_1_1safe.html#a70f8ae638e66e98804ee3dbd8772433a" target="_top" xlink:title=" ">
<polygon fill="white" stroke="none" points="771,-414.5 593,-414.5 593,-384 771,-384 771,-414.5"/>
<text xml:space="preserve" text-anchor="start" x="601" y="-400.05" font-family="Consolas" font-size="11.00">anonymous_namespace</text>
<text xml:space="preserve" text-anchor="middle" x="682" y="-388.8" font-family="Consolas" font-size="11.00">{Log::cpp}::safe::appendMsg</text>
</a>
</g>
</g>
<!-- Node2&#45;&gt;Node15 -->
<g id="edge29_Node000002_Node000015" class="edge">
<title>Node2&#45;&gt;Node15</title>
<g id="a_edge29_Node000002_Node000015"><a xlink:title=" ">
<path fill="none" stroke="#63b8ff" d="M541.9,-419.21C556.76,-417.08 572.17,-414.86 587.1,-412.72"/>
<polygon fill="#63b8ff" stroke="#63b8ff" points="591.8,-412.05 587.18,-414.98 590.54,-412.23 586.86,-412.76 586.86,-412.76 586.86,-412.76 590.54,-412.23 586.54,-410.53 591.8,-412.05"/>
</a>
</g>
</g>
<!-- Node16 -->
<g id="Node000016" class="node">
<title>Node16</title>
<g id="a_Node000016"><a xlink:href="../../dd/df2/namespaceanonymous__namespace_02_log_8cpp_03_1_1safe.html#aa8d11c260254c761c7437280b4284d17" target="_top" xlink:title=" ">
<polygon fill="white" stroke="none" points="771,-213.5 593,-213.5 593,-183 771,-183 771,-213.5"/>
<text xml:space="preserve" text-anchor="start" x="601" y="-199.05" font-family="Consolas" font-size="11.00">anonymous_namespace</text>
<text xml:space="preserve" text-anchor="middle" x="682" y="-187.8" font-family="Consolas" font-size="11.00">{Log::cpp}::safe::appendTxt</text>
</a>
</g>
</g>
<!-- Node2&#45;&gt;Node16 -->
<g id="edge32_Node000002_Node000016" class="edge">
<title>Node2&#45;&gt;Node16</title>
<g id="a_edge32_Node000002_Node000016"><a xlink:title=" ">
<path fill="none" stroke="#63b8ff" d="M457.29,-417.17C472.75,-381.76 515.95,-292.44 578,-241.25 590.98,-230.54 607.01,-222.15 622.52,-215.74"/>
<polygon fill="#63b8ff" stroke="#63b8ff" points="627.07,-213.92 623.26,-217.86 625.88,-214.39 622.43,-215.77 622.43,-215.77 622.43,-215.77 625.88,-214.39 621.59,-213.68 627.07,-213.92"/>
</a>
</g>
</g>
<!-- Node17 -->
<g id="Node000017" class="node">
<title>Node17</title>
<g id="a_Node000017"><a xlink:href="../../dd/df2/namespaceanonymous__namespace_02_log_8cpp_03_1_1safe.html#a97522aab6ec53ce2693cf4a5432927bf" target="_top" xlink:title=" ">
<polygon fill="white" stroke="none" points="777,-79.5 587,-79.5 587,-49 777,-49 777,-79.5"/>
<text xml:space="preserve" text-anchor="start" x="595" y="-65.05" font-family="Consolas" font-size="11.00">anonymous_namespace</text>
<text xml:space="preserve" text-anchor="middle" x="682" y="-53.8" font-family="Consolas" font-size="11.00">{Log::cpp}::safe::impLogWrite</text>
</a>
</g>
</g>
<!-- Node2&#45;&gt;Node17 -->
<g id="edge35_Node000002_Node000017" class="edge">
<title>Node2&#45;&gt;Node17</title>
<g id="a_edge35_Node000002_Node000017"><a xlink:title=" ">
<path fill="none" stroke="#63b8ff" d="M452.72,-417.08C459.26,-366.32 486.97,-200.4 578,-107.25 588.7,-96.3 602.61,-88.01 616.72,-81.79"/>
<polygon fill="#63b8ff" stroke="#63b8ff" points="621.23,-79.89 617.49,-83.91 620.04,-80.39 616.62,-81.83 616.62,-81.83 616.62,-81.83 620.04,-80.39 615.74,-79.76 621.23,-79.89"/>
</a>
</g>
</g>
<!-- Node3&#45;&gt;Node3 -->
<g id="edge3_Node000003_Node000003" class="edge">
<title>Node3&#45;&gt;Node3</title>
<g id="a_edge3_Node000003_Node000003"><a xlink:title=" ">
<path fill="none" stroke="#63b8ff" d="M641.57,-786.3C631.82,-795.62 645.3,-804.5 682,-804.5 711.82,-804.5 726.31,-798.64 725.47,-791.44"/>
<polygon fill="#63b8ff" stroke="#63b8ff" points="723.05,-787.35 727.53,-790.51 723.7,-788.45 725.59,-791.65 725.59,-791.65 725.59,-791.65 723.7,-788.45 723.65,-792.8 723.05,-787.35"/>
</a>
</g>
</g>
<!-- Node4&#45;&gt;Node4 -->
<g id="edge5_Node000004_Node000004" class="edge">
<title>Node4&#45;&gt;Node4</title>
<g id="a_edge5_Node000004_Node000004"><a xlink:title=" ">
<path fill="none" stroke="#63b8ff" d="M641.57,-719.3C631.82,-728.62 645.3,-737.5 682,-737.5 711.82,-737.5 726.31,-731.64 725.47,-724.44"/>
<polygon fill="#63b8ff" stroke="#63b8ff" points="723.05,-720.35 727.53,-723.51 723.7,-721.45 725.59,-724.65 725.59,-724.65 725.59,-724.65 723.7,-721.45 723.65,-725.8 723.05,-720.35"/>
</a>
</g>
</g>
<!-- Node5&#45;&gt;Node5 -->
<g id="edge7_Node000005_Node000005" class="edge">
<title>Node5&#45;&gt;Node5</title>
<g id="a_edge7_Node000005_Node000005"><a xlink:title=" ">
<path fill="none" stroke="#63b8ff" d="M641.57,-652.3C631.82,-661.62 645.3,-670.5 682,-670.5 711.82,-670.5 726.31,-664.64 725.47,-657.44"/>
<polygon fill="#63b8ff" stroke="#63b8ff" points="723.05,-653.35 727.53,-656.51 723.7,-654.45 725.59,-657.65 725.59,-657.65 725.59,-657.65 723.7,-654.45 723.65,-658.8 723.05,-653.35"/>
</a>
</g>
</g>
<!-- Node6&#45;&gt;Node6 -->
<g id="edge9_Node000006_Node000006" class="edge">
<title>Node6&#45;&gt;Node6</title>
<g id="a_edge9_Node000006_Node000006"><a xlink:title=" ">
<path fill="none" stroke="#63b8ff" d="M890,-332.3C879.87,-341.62 893.87,-350.5 932,-350.5 962.98,-350.5 978.03,-344.64 977.15,-337.44"/>
<polygon fill="#63b8ff" stroke="#63b8ff" points="974.64,-333.33 979.17,-336.42 975.31,-334.43 977.25,-337.6 977.25,-337.6 977.25,-337.6 975.31,-334.43 975.33,-338.77 974.64,-333.33"/>
</a>
</g>
</g>
<!-- Node7 -->
<g id="Node000007" class="node">
<title>Node7</title>
<g id="a_Node000007"><a xlink:href="../../dd/df2/namespaceanonymous__namespace_02_log_8cpp_03_1_1safe.html#a1e4219749cab61533a6faf773fe7cddb" target="_top" xlink:title=" ">
<polygon fill="white" stroke="none" points="1268,-290.5 1078,-290.5 1078,-260 1268,-260 1268,-290.5"/>
<text xml:space="preserve" text-anchor="start" x="1086" y="-276.05" font-family="Consolas" font-size="11.00">anonymous_namespace</text>
<text xml:space="preserve" text-anchor="middle" x="1173" y="-264.8" font-family="Consolas" font-size="11.00">{Log::cpp}::safe::isSpaceChar</text>
</a>
</g>
</g>
<!-- Node6&#45;&gt;Node7 -->
<g id="edge10_Node000006_Node000007" class="edge">
<title>Node6&#45;&gt;Node7</title>
<g id="a_edge10_Node000006_Node000007"><a xlink:title=" ">
<path fill="none" stroke="#63b8ff" d="M1019.62,-302.03C1038.99,-298.62 1059.61,-295 1079.22,-291.55"/>
<polygon fill="#63b8ff" stroke="#63b8ff" points="1084.07,-290.7 1079.54,-293.78 1082.81,-290.92 1079.15,-291.57 1079.15,-291.57 1079.15,-291.57 1082.81,-290.92 1078.76,-289.35 1084.07,-290.7"/>
</a>
</g>
</g>
<!-- Node7&#45;&gt;Node7 -->
<g id="edge11_Node000007_Node000007" class="edge">
<title>Node7&#45;&gt;Node7</title>
<g id="a_edge11_Node000007_Node000007"><a xlink:title=" ">
<path fill="none" stroke="#63b8ff" d="M1131,-290.3C1120.87,-299.62 1134.87,-308.5 1173,-308.5 1203.98,-308.5 1219.03,-302.64 1218.15,-295.44"/>
<polygon fill="#63b8ff" stroke="#63b8ff" points="1215.64,-291.33 1220.17,-294.42 1216.31,-292.43 1218.25,-295.6 1218.25,-295.6 1218.25,-295.6 1216.31,-292.43 1216.33,-296.77 1215.64,-291.33"/>
</a>
</g>
</g>
<!-- Node8&#45;&gt;Node8 -->
<g id="edge13_Node000008_Node000008" class="edge">
<title>Node8&#45;&gt;Node8</title>
<g id="a_edge13_Node000008_Node000008"><a xlink:title=" ">
<path fill="none" stroke="#63b8ff" d="M641.57,-585.3C631.82,-594.62 645.3,-603.5 682,-603.5 711.82,-603.5 726.31,-597.64 725.47,-590.44"/>
<polygon fill="#63b8ff" stroke="#63b8ff" points="723.05,-586.35 727.53,-589.51 723.7,-587.45 725.59,-590.65 725.59,-590.65 725.59,-590.65 723.7,-587.45 723.65,-591.8 723.05,-586.35"/>
</a>
</g>
</g>
<!-- Node9 -->
<g id="Node000009" class="node">
<title>Node9</title>
<g id="a_Node000009"><a xlink:href="../../dd/df2/namespaceanonymous__namespace_02_log_8cpp_03_1_1safe.html#ab261e5125e925c910ea977d0ac217ab6" target="_top" xlink:title=" ">
<polygon fill="white" stroke="none" points="1021,-585.5 843,-585.5 843,-555 1021,-555 1021,-585.5"/>
<text xml:space="preserve" text-anchor="start" x="851" y="-571.05" font-family="Consolas" font-size="11.00">anonymous_namespace</text>
<text xml:space="preserve" text-anchor="middle" x="932" y="-559.8" font-family="Consolas" font-size="11.00">{Log::cpp}::safe::decDigits</text>
</a>
</g>
</g>
<!-- Node8&#45;&gt;Node9 -->
<g id="edge14_Node000008_Node000009" class="edge">
<title>Node8&#45;&gt;Node9</title>
<g id="a_edge14_Node000008_Node000009"><a xlink:title=" ">
<path fill="none" stroke="#63b8ff" d="M770.78,-570.25C792.31,-570.25 815.43,-570.25 837.22,-570.25"/>
<polygon fill="#63b8ff" stroke="#63b8ff" points="842.12,-570.25 837.12,-572.5 840.83,-570.25 837.12,-570.25 837.12,-570.25 837.12,-570.25 840.83,-570.25 837.11,-568 842.12,-570.25"/>
</a>
</g>
</g>
<!-- Node9&#45;&gt;Node9 -->
<g id="edge15_Node000009_Node000009" class="edge">
<title>Node9&#45;&gt;Node9</title>
<g id="a_edge15_Node000009_Node000009"><a xlink:title=" ">
<path fill="none" stroke="#63b8ff" d="M890,-585.3C879.87,-594.62 893.87,-603.5 932,-603.5 962.98,-603.5 978.03,-597.64 977.15,-590.44"/>
<polygon fill="#63b8ff" stroke="#63b8ff" points="974.64,-586.33 979.17,-589.42 975.31,-587.43 977.25,-590.6 977.25,-590.6 977.25,-590.6 975.31,-587.43 975.33,-591.77 974.64,-586.33"/>
</a>
</g>
</g>
<!-- Node10&#45;&gt;Node6 -->
<g id="edge17_Node000010_Node000006" class="edge">
<title>Node10&#45;&gt;Node6</title>
<g id="a_edge17_Node000010_Node000006"><a xlink:title=" ">
<path fill="none" stroke="#63b8ff" d="M762.28,-451.07C770.49,-448.31 778.55,-445.06 786,-441.25 838.69,-414.3 888.46,-364.57 913.72,-336.98"/>
<polygon fill="#63b8ff" stroke="#63b8ff" points="917.04,-333.33 915.34,-338.54 916.18,-334.28 913.68,-337.03 913.68,-337.03 913.68,-337.03 916.18,-334.28 912.01,-335.52 917.04,-333.33"/>
</a>
</g>
</g>
<!-- Node10&#45;&gt;Node10 -->
<g id="edge18_Node000010_Node000010" class="edge">
<title>Node10&#45;&gt;Node10</title>
<g id="a_edge18_Node000010_Node000010"><a xlink:title=" ">
<path fill="none" stroke="#63b8ff" d="M641.57,-481.3C631.82,-490.62 645.3,-499.5 682,-499.5 711.82,-499.5 726.31,-493.64 725.47,-486.44"/>
<polygon fill="#63b8ff" stroke="#63b8ff" points="723.05,-482.35 727.53,-485.51 723.7,-483.45 725.59,-486.65 725.59,-486.65 725.59,-486.65 723.7,-483.45 723.65,-487.8 723.05,-482.35"/>
</a>
</g>
</g>
<!-- Node11&#45;&gt;Node6 -->
<g id="edge20_Node000011_Node000006" class="edge">
<title>Node11&#45;&gt;Node6</title>
<g id="a_edge20_Node000011_Node000006"><a xlink:title=" ">
<path fill="none" stroke="#63b8ff" d="M739.39,-146.45C755.86,-152.96 772.93,-161.98 786,-174.25 812.37,-199.02 797.9,-220.27 822,-247.25 841.7,-269.3 869.91,-287.16 892.69,-299.32"/>
<polygon fill="#63b8ff" stroke="#63b8ff" points="896.98,-301.57 891.51,-301.24 895.85,-300.98 892.55,-299.25 892.55,-299.25 892.55,-299.25 895.85,-300.98 893.6,-297.26 896.98,-301.57"/>
</a>
</g>
</g>
<!-- Node11&#45;&gt;Node7 -->
<g id="edge24_Node000011_Node000007" class="edge">
<title>Node11&#45;&gt;Node7</title>
<g id="a_edge24_Node000011_Node000007"><a xlink:title=" ">
<path fill="none" stroke="#63b8ff" d="M732.82,-146.43C759.29,-154.47 792.39,-164.46 822,-173.25 924.39,-203.64 1043.88,-238.29 1113.43,-258.37"/>
<polygon fill="#63b8ff" stroke="#63b8ff" points="1118.01,-259.69 1112.58,-260.47 1116.78,-259.34 1113.21,-258.31 1113.21,-258.31 1113.21,-258.31 1116.78,-259.34 1113.83,-256.15 1118.01,-259.69"/>
</a>
</g>
</g>
<!-- Node11&#45;&gt;Node11 -->
<g id="edge21_Node000011_Node000011" class="edge">
<title>Node11&#45;&gt;Node11</title>
<g id="a_edge21_Node000011_Node000011"><a xlink:title=" ">
<path fill="none" stroke="#63b8ff" d="M641.57,-146.3C631.82,-155.62 645.3,-164.5 682,-164.5 711.82,-164.5 726.31,-158.64 725.47,-151.44"/>
<polygon fill="#63b8ff" stroke="#63b8ff" points="723.05,-147.35 727.53,-150.51 723.7,-148.45 725.59,-151.65 725.59,-151.65 725.59,-151.65 723.7,-148.45 723.65,-152.8 723.05,-147.35"/>
</a>
</g>
</g>
<!-- Node12 -->
<g id="Node000012" class="node">
<title>Node12</title>
<g id="a_Node000012"><a xlink:href="../../dd/df2/namespaceanonymous__namespace_02_log_8cpp_03_1_1safe.html#a0fe54293fedacd10e31e2ee3542c331e" target="_top" xlink:title=" ">
<polygon fill="white" stroke="none" points="1042,-146.5 822,-146.5 822,-116 1042,-116 1042,-146.5"/>
<text xml:space="preserve" text-anchor="start" x="830" y="-132.05" font-family="Consolas" font-size="11.00">anonymous_namespace</text>
<text xml:space="preserve" text-anchor="middle" x="932" y="-120.8" font-family="Consolas" font-size="11.00">{Log::cpp}::safe::isIdentifierChar</text>
</a>
</g>
</g>
<!-- Node11&#45;&gt;Node12 -->
<g id="edge22_Node000011_Node000012" class="edge">
<title>Node11&#45;&gt;Node12</title>
<g id="a_edge22_Node000011_Node000012"><a xlink:title=" ">
<path fill="none" stroke="#63b8ff" d="M785.66,-131.25C795.8,-131.25 806.13,-131.25 816.38,-131.25"/>
<polygon fill="#63b8ff" stroke="#63b8ff" points="821.18,-131.25 816.18,-133.5 819.9,-131.25 816.18,-131.25 816.18,-131.25 816.18,-131.25 819.9,-131.25 816.18,-129 821.18,-131.25"/>
</a>
</g>
</g>
<!-- Node12&#45;&gt;Node12 -->
<g id="edge23_Node000012_Node000012" class="edge">
<title>Node12&#45;&gt;Node12</title>
<g id="a_edge23_Node000012_Node000012"><a xlink:title=" ">
<path fill="none" stroke="#63b8ff" d="M890,-146.3C879.87,-155.62 893.87,-164.5 932,-164.5 962.98,-164.5 978.03,-158.64 977.15,-151.44"/>
<polygon fill="#63b8ff" stroke="#63b8ff" points="974.64,-147.33 979.17,-150.42 975.31,-148.43 977.25,-151.6 977.25,-151.6 977.25,-151.6 975.31,-148.43 975.33,-152.77 974.64,-147.33"/>
</a>
</g>
</g>
<!-- Node13&#45;&gt;Node13 -->
<g id="edge26_Node000013_Node000013" class="edge">
<title>Node13&#45;&gt;Node13</title>
<g id="a_edge26_Node000013_Node000013"><a xlink:title=" ">
<path fill="none" stroke="#63b8ff" d="M641.57,-347.3C631.82,-356.62 645.3,-365.5 682,-365.5 711.82,-365.5 726.31,-359.64 725.47,-352.44"/>
<polygon fill="#63b8ff" stroke="#63b8ff" points="723.05,-348.35 727.53,-351.51 723.7,-349.45 725.59,-352.65 725.59,-352.65 725.59,-352.65 723.7,-349.45 723.65,-353.8 723.05,-348.35"/>
</a>
</g>
</g>
<!-- Node14&#45;&gt;Node14 -->
<g id="edge28_Node000014_Node000014" class="edge">
<title>Node14&#45;&gt;Node14</title>
<g id="a_edge28_Node000014_Node000014"><a xlink:title=" ">
<path fill="none" stroke="#63b8ff" d="M641.57,-280.3C631.82,-289.62 645.3,-298.5 682,-298.5 711.82,-298.5 726.31,-292.64 725.47,-285.44"/>
<polygon fill="#63b8ff" stroke="#63b8ff" points="723.05,-281.35 727.53,-284.51 723.7,-282.45 725.59,-285.65 725.59,-285.65 725.59,-285.65 723.7,-282.45 723.65,-286.8 723.05,-281.35"/>
</a>
</g>
</g>
<!-- Node15&#45;&gt;Node6 -->
<g id="edge30_Node000015_Node000006" class="edge">
<title>Node15&#45;&gt;Node6</title>
<g id="a_edge30_Node000015_Node000006"><a xlink:title=" ">
<path fill="none" stroke="#63b8ff" d="M751.51,-384.01C763.1,-381.04 774.95,-377.75 786,-374.25 822.02,-362.86 861.91,-346.93 890.71,-334.8"/>
<polygon fill="#63b8ff" stroke="#63b8ff" points="895.2,-332.9 891.47,-336.92 894.02,-333.4 890.59,-334.85 890.59,-334.85 890.59,-334.85 894.02,-333.4 889.72,-332.78 895.2,-332.9"/>
</a>
</g>
</g>
<!-- Node15&#45;&gt;Node15 -->
<g id="edge31_Node000015_Node000015" class="edge">
<title>Node15&#45;&gt;Node15</title>
<g id="a_edge31_Node000015_Node000015"><a xlink:title=" ">
<path fill="none" stroke="#63b8ff" d="M641.57,-414.3C631.82,-423.62 645.3,-432.5 682,-432.5 711.82,-432.5 726.31,-426.64 725.47,-419.44"/>
<polygon fill="#63b8ff" stroke="#63b8ff" points="723.05,-415.35 727.53,-418.51 723.7,-416.45 725.59,-419.65 725.59,-419.65 725.59,-419.65 723.7,-416.45 723.65,-420.8 723.05,-415.35"/>
</a>
</g>
</g>
<!-- Node16&#45;&gt;Node6 -->
<g id="edge33_Node000016_Node000006" class="edge">
<title>Node16&#45;&gt;Node6</title>
<g id="a_edge33_Node000016_Node000006"><a xlink:title=" ">
<path fill="none" stroke="#63b8ff" d="M721.5,-213.39C741.01,-221.3 764.95,-231.36 786,-241.25 825.35,-259.74 869.45,-283.27 898.57,-299.21"/>
<polygon fill="#63b8ff" stroke="#63b8ff" points="902.76,-301.51 897.3,-301.08 901.64,-300.9 898.38,-299.11 898.38,-299.11 898.38,-299.11 901.64,-300.9 899.46,-297.13 902.76,-301.51"/>
</a>
</g>
</g>
<!-- Node16&#45;&gt;Node16 -->
<g id="edge34_Node000016_Node000016" class="edge">
<title>Node16&#45;&gt;Node16</title>
<g id="a_edge34_Node000016_Node000016"><a xlink:title=" ">
<path fill="none" stroke="#63b8ff" d="M641.57,-213.3C631.82,-222.62 645.3,-231.5 682,-231.5 711.82,-231.5 726.31,-225.64 725.47,-218.44"/>
<polygon fill="#63b8ff" stroke="#63b8ff" points="723.05,-214.35 727.53,-217.51 723.7,-215.45 725.59,-218.65 725.59,-218.65 725.59,-218.65 723.7,-215.45 723.65,-219.8 723.05,-214.35"/>
</a>
</g>
</g>
<!-- Node17&#45;&gt;Node17 -->
<g id="edge36_Node000017_Node000017" class="edge">
<title>Node17&#45;&gt;Node17</title>
<g id="a_edge36_Node000017_Node000017"><a xlink:title=" ">
<path fill="none" stroke="#63b8ff" d="M641.57,-79.3C631.82,-88.62 645.3,-97.5 682,-97.5 711.82,-97.5 726.31,-91.64 725.47,-84.44"/>
<polygon fill="#63b8ff" stroke="#63b8ff" points="723.05,-80.35 727.53,-83.51 723.7,-81.45 725.59,-84.65 725.59,-84.65 725.59,-84.65 723.7,-81.45 723.65,-85.8 723.05,-80.35"/>
</a>
</g>
</g>
<!-- Node18 -->
<g id="Node000018" class="node">
<title>Node18</title>
<g id="a_Node000018"><a xlink:href="../../dc/dba/namespacenpi_1_1app.html#a30b5245afa890e98f19f43c58f29e633" target="_top" xlink:title="Windows native fatal error message box.">
<polygon fill="white" stroke="none" points="1024,-85.88 840,-85.88 840,-66.62 1024,-66.62 1024,-85.88"/>
<text xml:space="preserve" text-anchor="middle" x="932" y="-71.42" font-family="Consolas" font-size="11.00">npi::app::nativeFatalMessage</text>
</a>
</g>
</g>
<!-- Node17&#45;&gt;Node18 -->
<g id="edge37_Node000017_Node000018" class="edge">
<title>Node17&#45;&gt;Node18</title>
<g id="a_edge37_Node000017_Node000018"><a xlink:title=" ">
<path fill="none" stroke="#63b8ff" d="M776.76,-68.79C795.65,-69.7 815.55,-70.66 834.53,-71.58"/>
<polygon fill="#63b8ff" stroke="#63b8ff" points="839.17,-71.81 834.07,-73.81 837.89,-71.74 834.18,-71.57 834.18,-71.57 834.18,-71.57 837.89,-71.74 834.29,-69.32 839.17,-71.81"/>
</a>
</g>
</g>
<!-- Node19 -->
<g id="Node000019" class="node">
<title>Node19</title>
<g id="a_Node000019"><a xlink:href="../../dd/df2/namespaceanonymous__namespace_02_log_8cpp_03_1_1safe.html#abc25ab769b48a34eb27ff7c789822b7e" target="_top" xlink:title=" ">
<polygon fill="white" stroke="none" points="1036,-30.5 828,-30.5 828,0 1036,0 1036,-30.5"/>
<text xml:space="preserve" text-anchor="start" x="836" y="-16.05" font-family="Consolas" font-size="11.00">anonymous_namespace</text>
<text xml:space="preserve" text-anchor="middle" x="932" y="-4.8" font-family="Consolas" font-size="11.00">{Log::cpp}::safe::win32ErrorText</text>
</a>
</g>
</g>
<!-- Node17&#45;&gt;Node19 -->
<g id="edge38_Node000017_Node000019" class="edge">
<title>Node17&#45;&gt;Node19</title>
<g id="a_edge38_Node000017_Node000019"><a xlink:title=" ">
<path fill="none" stroke="#63b8ff" d="M760.11,-49.01C787.99,-43.51 819.57,-37.27 847.94,-31.66"/>
<polygon fill="#63b8ff" stroke="#63b8ff" points="852.74,-30.71 848.27,-33.89 851.49,-30.96 847.84,-31.68 847.84,-31.68 847.84,-31.68 851.49,-30.96 847.4,-29.47 852.74,-30.71"/>
</a>
</g>
</g>
<!-- Node19&#45;&gt;Node19 -->
<g id="edge39_Node000019_Node000019" class="edge">
<title>Node19&#45;&gt;Node19</title>
<g id="a_edge39_Node000019_Node000019"><a xlink:title=" ">
<path fill="none" stroke="#63b8ff" d="M890,-30.3C879.87,-39.62 893.87,-48.5 932,-48.5 962.98,-48.5 978.03,-42.64 977.15,-35.44"/>
<polygon fill="#63b8ff" stroke="#63b8ff" points="974.64,-31.33 979.17,-34.42 975.31,-32.43 977.25,-35.6 977.25,-35.6 977.25,-35.6 975.31,-32.43 975.33,-36.77 974.64,-31.33"/>
</a>
</g>
</g>
</g>
</svg>

<g id="navigator" transform="translate(0 0)" fill="#404254">
  <rect fill="#f2f5e9" fill-opacity="0.5" stroke="#606060" stroke-width=".5" x="0" y="0" width="60" height="60"/>
  <use id="zoomplus" xlink:href="#zoomPlus" x="17" y="9" onmousedown="handleZoom(evt,'in')"/>
  <use id="zoomminus" xlink:href="#zoomMin" x="42" y="9" onmousedown="handleZoom(evt,'out')"/>
  <use id="reset" xlink:href="#resetDef" x="30" y="36" onmousedown="handleReset()"/>
   <use id="arrowup" xlink:href="#arrowUp" x="0" y="0" onmousedown="handlePan(0,-1)"/>
  <use id="arrowright" xlink:href="#arrowRight" x="0" y="0" onmousedown="handlePan(1,0)"/>
  <use id="arrowdown" xlink:href="#arrowDown" x="0" y="0" onmousedown="handlePan(0,1)"/>
  <use id="arrowleft" xlink:href="#arrowLeft" x="0" y="0" onmousedown="handlePan(-1,0)"/>
</g>
<svg viewBox="0 0 15 15" width="100%" height="30px" preserveAspectRatio="xMaxYMin meet">
 <g id="arrow_out" transform="scale(0.3 0.3)">
  <a xlink:href="classanonymous__namespace_02_log_8cpp_03_1_1_log_core_ac83f155438d4a0447ac048d50c7b1a47_cgraph_org.svg" target="_base">
   <rect id="button" ry="5" rx="5" y="6" x="6" height="38" width="38"
        fill="#f2f5e9" fill-opacity="0.5" stroke="#606060" stroke-width="1.0"/>
   <path id="arrow"
     d="M 11.500037,31.436501 C 11.940474,20.09759 22.043105,11.32322 32.158766,21.979434 L 37.068811,17.246167 C 37.068811,17.246167 37.088388,32 37.088388,32 L 22.160133,31.978069 C 22.160133,31.978069 26.997745,27.140456 26.997745,27.140456 C 18.528582,18.264221 13.291696,25.230495 11.500037,31.436501 z"
     style="fill:#404040;"/>
  </a>
 </g>
</svg>

<style type='text/css'>
<![CDATA[
[data-mouse-over-selected='false'] { opacity: 0.7; }
[data-mouse-over-selected='true']  { opacity: 1.0; }
]]>
</style>
<script type="application/ecmascript"><![CDATA[
document.addEventListener('DOMContentLoaded', (event) => {
  highlightEdges();
  highlightAdjacentNodes();
});
]]></script>
</svg>
