<?xml version="1.0" encoding="UTF-8" standalone="no"?>
<!DOCTYPE svg PUBLIC "-//W3C//DTD SVG 1.1//EN"
 "http://www.w3.org/Graphics/SVG/1.1/DTD/svg11.dtd">
<!-- Generated by graphviz version 14.0.0 (20250921.2048)
 -->
<!-- Title: anonymous_namespace{Log::cpp}::LogCore::initiateShutdown_ Pages: 1 -->
<svg width="752pt" height="39pt"
 viewBox="0.00 0.00 752.00 39.00" xmlns="http://www.w3.org/2000/svg" xmlns:xlink="http://www.w3.org/1999/xlink">
<g id="graph0" class="graph" transform="scale(1 1) rotate(0) translate(4 34.5)">
<title>anonymous_namespace{Log::cpp}::LogCore::initiateShutdown_</title>
<!-- Node1 -->
<g id="Node000001" class="node">
<title>Node1</title>
<g id="a_Node000001"><a xlink:title=" ">
<polygon fill="#999999" stroke="none" points="744,-24.88 386,-24.88 386,-5.62 744,-5.62 744,-24.88"/>
<text xml:space="preserve" text-anchor="start" x="394" y="-11.43" font-family="Consolas" font-weight="bold" font-size="11.00">anonymous_namespace{Log::cpp}::LogCore::initiateShutdown_</text>
</a>
</g>
</g>
<!-- Node2 -->
<g id="Node000002" class="node">
<title>Node2</title>
<g id="a_Node000002"><a xlink:href="../../dc/d8e/namespaceanonymous__namespace_02_log_8cpp_03.html#a9e0fadcfb2f6334dde67322028dc7676" target="_top" xlink:title=" ">
<polygon fill="white" stroke="none" points="350,-30.5 190,-30.5 190,0 350,0 350,-30.5"/>
<text xml:space="preserve" text-anchor="start" x="198" y="-16.05" font-family="Consolas" font-size="11.00">anonymous_namespace</text>
<text xml:space="preserve" text-anchor="middle" x="270" y="-4.8" font-family="Consolas" font-size="11.00">{Log::cpp}::shuttingDown</text>
</a>
</g>
</g>
<!-- Node1&#45;&gt;Node2 -->
<g id="edge1_Node000001_Node000002" class="edge">
<title>Node1&#45;&gt;Node2</title>
<g id="a_edge1_Node000001_Node000002"><a xlink:title=" ">
<path fill="none" stroke="#63b8ff" d="M380.2,-15.25C369.75,-15.25 359.57,-15.25 349.89,-15.25"/>
<polygon fill="#63b8ff" stroke="#63b8ff" points="385.16,-15.25 380.16,-17.5 383.88,-15.25 380.16,-15.25 380.16,-15.25 380.16,-15.25 383.88,-15.25 380.16,-13 385.16,-15.25"/>
</a>
</g>
</g>
<!-- Node3 -->
<g id="Node000003" class="node">
<title>Node3</title>
<g id="a_Node000003"><a xlink:href="../../dc/d8e/namespaceanonymous__namespace_02_log_8cpp_03.html#a7a82c11accb191c2f06849f6d13db39a" target="_top" xlink:title=" ">
<polygon fill="white" stroke="none" points="154,-30.5 0,-30.5 0,0 154,0 154,-30.5"/>
<text xml:space="preserve" text-anchor="start" x="8" y="-16.05" font-family="Consolas" font-size="11.00">anonymous_namespace</text>
<text xml:space="preserve" text-anchor="middle" x="77" y="-4.8" font-family="Consolas" font-size="11.00">{Log::cpp}::initLogging</text>
</a>
</g>
</g>
<!-- Node2&#45;&gt;Node3 -->
<g id="edge2_Node000002_Node000003" class="edge">
<title>Node2&#45;&gt;Node3</title>
<g id="a_edge2_Node000002_Node000003"><a xlink:title=" ">
<path fill="none" stroke="#63b8ff" d="M184.27,-15.25C174.13,-15.25 163.84,-15.25 153.84,-15.25"/>
<polygon fill="#63b8ff" stroke="#63b8ff" points="188.99,-15.25 183.99,-17.5 187.71,-15.25 183.99,-15.25 183.99,-15.25 183.99,-15.25 187.71,-15.25 183.99,-13 188.99,-15.25"/>
</a>
</g>
</g>
</g>
</svg>
