<?xml version="1.0" encoding="UTF-8" standalone="no"?>
<!DOCTYPE svg PUBLIC "-//W3C//DTD SVG 1.1//EN"
 "http://www.w3.org/Graphics/SVG/1.1/DTD/svg11.dtd">
<!-- Generated by graphviz version 14.0.0 (20250921.2048)
 -->
<!-- Title: anonymous_namespace{Log::cpp}::LogCore::setColoredConsole_ Pages: 1 -->
<svg width="812pt" height="39pt"
 viewBox="0.00 0.00 812.00 39.00" xmlns="http://www.w3.org/2000/svg" xmlns:xlink="http://www.w3.org/1999/xlink">
<g id="graph0" class="graph" transform="scale(1 1) rotate(0) translate(4 34.5)">
<title>anonymous_namespace{Log::cpp}::LogCore::setColoredConsole_</title>
<!-- Node1 -->
<g id="Node000001" class="node">
<title>Node1</title>
<g id="a_Node000001"><a xlink:title=" ">
<polygon fill="#999999" stroke="none" points="804,-24.88 440,-24.88 440,-5.62 804,-5.62 804,-24.88"/>
<text xml:space="preserve" text-anchor="start" x="448" y="-11.43" font-family="Consolas" font-weight="bold" font-size="11.00">anonymous_namespace{Log::cpp}::LogCore::setColoredConsole_</text>
</a>
</g>
</g>
<!-- Node2 -->
<g id="Node000002" class="node">
<title>Node2</title>
<g id="a_Node000002"><a xlink:href="../../d5/ddd/namespacenpi_1_1log.html#aa9c7f1de08a88a0dcac316127c1d384b" target="_top" xlink:title=" ">
<polygon fill="white" stroke="none" points="404,-24.88 226,-24.88 226,-5.62 404,-5.62 404,-24.88"/>
<text xml:space="preserve" text-anchor="middle" x="315" y="-10.43" font-family="Consolas" font-size="11.00">npi::log::setColoredConsole</text>
</a>
</g>
</g>
<!-- Node1&#45;&gt;Node2 -->
<g id="edge1_Node000001_Node000002" class="edge">
<title>Node1&#45;&gt;Node2</title>
<g id="a_edge1_Node000001_Node000002"><a xlink:title=" ">
<path fill="none" stroke="#63b8ff" d="M433.95,-15.25C423.63,-15.25 413.53,-15.25 403.86,-15.25"/>
<polygon fill="#63b8ff" stroke="#63b8ff" points="438.84,-15.25 433.84,-17.5 437.56,-15.25 433.84,-15.25 433.84,-15.25 433.84,-15.25 437.56,-15.25 433.84,-13 438.84,-15.25"/>
</a>
</g>
</g>
<!-- Node3 -->
<g id="Node000003" class="node">
<title>Node3</title>
<g id="a_Node000003"><a xlink:href="../../d9/dc6/class_main_window.html#a4b31735a0ab8596f2c8a452d47694572" target="_top" xlink:title=" ">
<polygon fill="white" stroke="none" points="190,-30.5 0,-30.5 0,0 190,0 190,-30.5"/>
<text xml:space="preserve" text-anchor="start" x="8" y="-16.05" font-family="Consolas" font-size="11.00">MainWindow::on_coloredConsole</text>
<text xml:space="preserve" text-anchor="middle" x="95" y="-4.8" font-family="Consolas" font-size="11.00">_chk_checkStateChanged</text>
</a>
</g>
</g>
<!-- Node2&#45;&gt;Node3 -->
<g id="edge2_Node000002_Node000003" class="edge">
<title>Node2&#45;&gt;Node3</title>
<g id="a_edge2_Node000002_Node000003"><a xlink:title=" ">
<path fill="none" stroke="#63b8ff" d="M220.08,-15.25C210.1,-15.25 199.95,-15.25 189.96,-15.25"/>
<polygon fill="#63b8ff" stroke="#63b8ff" points="225.05,-15.25 220.05,-17.5 223.77,-15.25 220.05,-15.25 220.05,-15.25 220.05,-15.25 223.77,-15.25 220.05,-13 225.05,-15.25"/>
</a>
</g>
</g>
</g>
</svg>
