<?xml version="1.0" encoding="UTF-8" standalone="no"?>
<!DOCTYPE svg PUBLIC "-//W3C//DTD SVG 1.1//EN"
 "http://www.w3.org/Graphics/SVG/1.1/DTD/svg11.dtd">
<!-- Generated by graphviz version 14.0.0 (20250921.2048)
 -->
<!-- Title: anonymous_namespace{Log::cpp}::LogCore::Inst_ Pages: 1 -->
<svg width="734pt" height="391pt"
 viewBox="0.00 0.00 734.00 391.00" xmlns="http://www.w3.org/2000/svg" xmlns:xlink="http://www.w3.org/1999/xlink">
<g id="graph0" class="graph" transform="scale(1 1) rotate(0) translate(4 386.5)">
<title>anonymous_namespace{Log::cpp}::LogCore::Inst_</title>
<!-- Node1 -->
<g id="Node000001" class="node">
<title>Node1</title>
<g id="a_Node000001"><a xlink:title=" ">
<polygon fill="#999999" stroke="none" points="726,-195.88 440,-195.88 440,-176.62 726,-176.62 726,-195.88"/>
<text xml:space="preserve" text-anchor="start" x="448" y="-182.43" font-family="Consolas" font-weight="bold" font-size="11.00">anonymous_namespace{Log::cpp}::LogCore::Inst_</text>
</a>
</g>
</g>
<!-- Node2 -->
<g id="Node000002" class="node">
<title>Node2</title>
<g id="a_Node000002"><a xlink:href="../../d5/ddd/namespacenpi_1_1log.html#ae0e278f0a3f2618e1fff9b05fdcc0f9f" target="_top" xlink:title=" ">
<polygon fill="white" stroke="none" points="401,-373.88 229,-373.88 229,-354.62 401,-354.62 401,-373.88"/>
<text xml:space="preserve" text-anchor="middle" x="315" y="-359.43" font-family="Consolas" font-size="11.00">npi::log::clearFilterRules</text>
</a>
</g>
</g>
<!-- Node1&#45;&gt;Node2 -->
<g id="edge1_Node000001_Node000002" class="edge">
<title>Node1&#45;&gt;Node2</title>
<g id="a_edge1_Node000001_Node000002"><a xlink:title=" ">
<path fill="none" stroke="#63b8ff" d="M569.88,-200.34C543.1,-230.6 475.54,-302.12 404,-340.25 392.4,-346.43 379.07,-351.13 366.36,-354.65"/>
<polygon fill="#63b8ff" stroke="#63b8ff" points="573.02,-196.77 571.41,-202.01 572.18,-197.73 569.72,-200.53 569.72,-200.53 569.72,-200.53 572.18,-197.73 568.03,-199.04 573.02,-196.77"/>
</a>
</g>
</g>
<!-- Node4 -->
<g id="Node000004" class="node">
<title>Node4</title>
<g id="a_Node000004"><a xlink:href="../../d5/ddd/namespacenpi_1_1log.html#a7b8c87cac5cee3c9c4ad9f19aebc8c02" target="_top" xlink:title=" ">
<polygon fill="white" stroke="none" points="389,-330.88 241,-330.88 241,-311.62 389,-311.62 389,-330.88"/>
<text xml:space="preserve" text-anchor="middle" x="315" y="-316.43" font-family="Consolas" font-size="11.00">npi::log::closeConsole</text>
</a>
</g>
</g>
<!-- Node1&#45;&gt;Node4 -->
<g id="edge3_Node000001_Node000004" class="edge">
<title>Node1&#45;&gt;Node4</title>
<g id="a_edge3_Node000001_Node000004"><a xlink:title=" ">
<path fill="none" stroke="#63b8ff" d="M565.96,-199.66C536.07,-223.93 469.01,-275.14 404,-302.25 394.77,-306.1 384.65,-309.21 374.67,-311.72"/>
<polygon fill="#63b8ff" stroke="#63b8ff" points="569.82,-196.5 567.37,-201.41 568.83,-197.31 565.95,-199.67 565.95,-199.67 565.95,-199.67 568.83,-197.31 564.52,-197.93 569.82,-196.5"/>
</a>
</g>
</g>
<!-- Node6 -->
<g id="Node000006" class="node">
<title>Node6</title>
<g id="a_Node000006"><a xlink:href="../../dc/d8e/namespaceanonymous__namespace_02_log_8cpp_03.html#a7a82c11accb191c2f06849f6d13db39a" target="_top" xlink:title=" ">
<polygon fill="white" stroke="none" points="172,-225.5 18,-225.5 18,-195 172,-195 172,-225.5"/>
<text xml:space="preserve" text-anchor="start" x="26" y="-211.05" font-family="Consolas" font-size="11.00">anonymous_namespace</text>
<text xml:space="preserve" text-anchor="middle" x="95" y="-199.8" font-family="Consolas" font-size="11.00">{Log::cpp}::initLogging</text>
</a>
</g>
</g>
<!-- Node1&#45;&gt;Node6 -->
<g id="edge5_Node000001_Node000006" class="edge">
<title>Node1&#45;&gt;Node6</title>
<g id="a_edge5_Node000001_Node000006"><a xlink:title=" ">
<path fill="none" stroke="#63b8ff" d="M531.62,-197.05C496.13,-204.09 447.4,-212.62 404,-216.25 325.16,-222.85 305.09,-218.07 226,-216.25 208.49,-215.85 189.67,-215.14 171.94,-214.34"/>
<polygon fill="#63b8ff" stroke="#63b8ff" points="536.44,-196.08 531.98,-199.27 535.19,-196.34 531.54,-197.07 531.54,-197.07 531.54,-197.07 535.19,-196.34 531.1,-194.86 536.44,-196.08"/>
</a>
</g>
</g>
<!-- Node7 -->
<g id="Node000007" class="node">
<title>Node7</title>
<g id="a_Node000007"><a xlink:href="../../dc/d8e/namespaceanonymous__namespace_02_log_8cpp_03.html#acf34371ee9cd3beb546b7f2c21dd2844" target="_top" xlink:title=" ">
<polygon fill="white" stroke="none" points="404,-207.12 226,-207.12 226,-165.38 404,-165.38 404,-207.12"/>
<text xml:space="preserve" text-anchor="start" x="234" y="-192.68" font-family="Consolas" font-size="11.00">anonymous_namespace</text>
<text xml:space="preserve" text-anchor="start" x="234" y="-181.43" font-family="Consolas" font-size="11.00">{Log::cpp}::loggingCategory</text>
<text xml:space="preserve" text-anchor="middle" x="315" y="-170.18" font-family="Consolas" font-size="11.00">Filter</text>
</a>
</g>
</g>
<!-- Node1&#45;&gt;Node7 -->
<g id="edge6_Node000001_Node000007" class="edge">
<title>Node1&#45;&gt;Node7</title>
<g id="a_edge6_Node000001_Node000007"><a xlink:title=" ">
<path fill="none" stroke="#63b8ff" d="M433.96,-186.25C423.65,-186.25 413.46,-186.25 403.65,-186.25"/>
<polygon fill="#63b8ff" stroke="#63b8ff" points="438.83,-186.25 433.83,-188.5 437.54,-186.25 433.83,-186.25 433.83,-186.25 433.83,-186.25 437.54,-186.25 433.83,-184 438.83,-186.25"/>
</a>
</g>
</g>
<!-- Node8 -->
<g id="Node000008" class="node">
<title>Node8</title>
<g id="a_Node000008"><a xlink:href="../../dc/d8e/namespaceanonymous__namespace_02_log_8cpp_03.html#a0c2edb98e44610adcc75724bbf4edfb8" target="_top" xlink:title=" ">
<polygon fill="white" stroke="none" points="389,-147.5 241,-147.5 241,-117 389,-117 389,-147.5"/>
<text xml:space="preserve" text-anchor="start" x="249" y="-133.05" font-family="Consolas" font-size="11.00">anonymous_namespace</text>
<text xml:space="preserve" text-anchor="middle" x="315" y="-121.8" font-family="Consolas" font-size="11.00">{Log::cpp}::msgHandler</text>
</a>
</g>
</g>
<!-- Node1&#45;&gt;Node8 -->
<g id="edge8_Node000001_Node000008" class="edge">
<title>Node1&#45;&gt;Node8</title>
<g id="a_edge8_Node000001_Node000008"><a xlink:title=" ">
<path fill="none" stroke="#63b8ff" d="M528.94,-175.48C488.8,-167.33 433.2,-156.04 388.88,-147.05"/>
<polygon fill="#63b8ff" stroke="#63b8ff" points="533.56,-176.42 528.21,-177.63 532.3,-176.16 528.66,-175.42 528.66,-175.42 528.66,-175.42 532.3,-176.16 529.1,-173.22 533.56,-176.42"/>
</a>
</g>
</g>
<!-- Node9 -->
<g id="Node000009" class="node">
<title>Node9</title>
<g id="a_Node000009"><a xlink:href="../../d5/ddd/namespacenpi_1_1log.html#aa9c7f1de08a88a0dcac316127c1d384b" target="_top" xlink:title=" ">
<polygon fill="white" stroke="none" points="404,-98.88 226,-98.88 226,-79.62 404,-79.62 404,-98.88"/>
<text xml:space="preserve" text-anchor="middle" x="315" y="-84.42" font-family="Consolas" font-size="11.00">npi::log::setColoredConsole</text>
</a>
</g>
</g>
<!-- Node1&#45;&gt;Node9 -->
<g id="edge10_Node000001_Node000009" class="edge">
<title>Node1&#45;&gt;Node9</title>
<g id="a_edge10_Node000001_Node000009"><a xlink:title=" ">
<path fill="none" stroke="#63b8ff" d="M557.98,-173.87C524.34,-156.96 460.9,-126.65 404,-108.25 392.7,-104.59 380.35,-101.43 368.57,-98.8"/>
<polygon fill="#63b8ff" stroke="#63b8ff" points="562.43,-176.12 556.95,-175.87 561.28,-175.54 557.97,-173.86 557.97,-173.86 557.97,-173.86 561.28,-175.54 558.98,-171.85 562.43,-176.12"/>
</a>
</g>
</g>
<!-- Node11 -->
<g id="Node000011" class="node">
<title>Node11</title>
<g id="a_Node000011"><a xlink:href="../../d5/ddd/namespacenpi_1_1log.html#a976d8ed596c3a4571209d46c933b5bbe" target="_top" xlink:title=" ">
<polygon fill="white" stroke="none" points="395,-24.88 235,-24.88 235,-5.62 395,-5.62 395,-24.88"/>
<text xml:space="preserve" text-anchor="middle" x="315" y="-10.43" font-family="Consolas" font-size="11.00">npi::log::setMuteDisplay</text>
</a>
</g>
</g>
<!-- Node1&#45;&gt;Node11 -->
<g id="edge12_Node000001_Node000011" class="edge">
<title>Node1&#45;&gt;Node11</title>
<g id="a_edge12_Node000001_Node000011"><a xlink:title=" ">
<path fill="none" stroke="#63b8ff" d="M570.42,-172.34C544.21,-141.85 476.93,-69.01 404,-33.25 397,-29.82 389.38,-27.04 381.64,-24.79"/>
<polygon fill="#63b8ff" stroke="#63b8ff" points="573.48,-175.93 568.52,-173.58 572.65,-174.95 570.23,-172.12 570.23,-172.12 570.23,-172.12 572.65,-174.95 571.95,-170.66 573.48,-175.93"/>
</a>
</g>
</g>
<!-- Node13 -->
<g id="Node000013" class="node">
<title>Node13</title>
<g id="a_Node000013"><a xlink:href="../../d5/ddd/namespacenpi_1_1log.html#a9be9faae3670cc6af86285afecfb3e58" target="_top" xlink:title=" ">
<polygon fill="white" stroke="none" points="398,-61.88 232,-61.88 232,-42.62 398,-42.62 398,-61.88"/>
<text xml:space="preserve" text-anchor="middle" x="315" y="-47.42" font-family="Consolas" font-size="11.00">npi::log::setWarnAsImpLog</text>
</a>
</g>
</g>
<!-- Node1&#45;&gt;Node13 -->
<g id="edge14_Node000001_Node000013" class="edge">
<title>Node1&#45;&gt;Node13</title>
<g id="a_edge14_Node000001_Node000013"><a xlink:title=" ">
<path fill="none" stroke="#63b8ff" d="M565.98,-172.77C536.15,-148.39 469.15,-97.01 404,-70.25 395.78,-66.87 386.85,-64.11 377.95,-61.85"/>
<polygon fill="#63b8ff" stroke="#63b8ff" points="569.84,-175.95 564.55,-174.51 568.85,-175.13 565.98,-172.77 565.98,-172.77 565.98,-172.77 568.85,-175.13 567.41,-171.03 569.84,-175.95"/>
</a>
</g>
</g>
<!-- Node14 -->
<g id="Node000014" class="node">
<title>Node14</title>
<g id="a_Node000014"><a xlink:href="../../dc/d8e/namespaceanonymous__namespace_02_log_8cpp_03.html#a9e0fadcfb2f6334dde67322028dc7676" target="_top" xlink:title=" ">
<polygon fill="white" stroke="none" points="395,-293.5 235,-293.5 235,-263 395,-263 395,-293.5"/>
<text xml:space="preserve" text-anchor="start" x="243" y="-279.05" font-family="Consolas" font-size="11.00">anonymous_namespace</text>
<text xml:space="preserve" text-anchor="middle" x="315" y="-267.8" font-family="Consolas" font-size="11.00">{Log::cpp}::shuttingDown</text>
</a>
</g>
</g>
<!-- Node1&#45;&gt;Node14 -->
<g id="edge15_Node000001_Node000014" class="edge">
<title>Node1&#45;&gt;Node14</title>
<g id="a_edge15_Node000001_Node000014"><a xlink:title=" ">
<path fill="none" stroke="#63b8ff" d="M550.02,-197.8C514.45,-210.6 455.23,-231.74 404,-249.25 390.6,-253.83 376.02,-258.68 362.65,-263.09"/>
<polygon fill="#63b8ff" stroke="#63b8ff" points="554.38,-196.24 550.44,-200.05 553.17,-196.67 549.67,-197.93 549.67,-197.93 549.67,-197.93 553.17,-196.67 548.91,-195.81 554.38,-196.24"/>
</a>
</g>
</g>
<!-- Node3 -->
<g id="Node000003" class="node">
<title>Node3</title>
<g id="a_Node000003"><a xlink:href="../../d9/dc6/class_main_window.html#ad85648560b6731461315dc87a3803a20" target="_top" xlink:title=" ">
<polygon fill="white" stroke="none" points="181,-382.5 9,-382.5 9,-352 181,-352 181,-382.5"/>
<text xml:space="preserve" text-anchor="start" x="17" y="-368.05" font-family="Consolas" font-size="11.00">MainWindow::on_filterRules</text>
<text xml:space="preserve" text-anchor="middle" x="95" y="-356.8" font-family="Consolas" font-size="11.00">Clear_btn_clicked</text>
</a>
</g>
</g>
<!-- Node2&#45;&gt;Node3 -->
<g id="edge2_Node000002_Node000003" class="edge">
<title>Node2&#45;&gt;Node3</title>
<g id="a_edge2_Node000002_Node000003"><a xlink:title=" ">
<path fill="none" stroke="#63b8ff" d="M223.1,-365.5C209.05,-365.69 194.58,-365.89 180.68,-366.08"/>
<polygon fill="#63b8ff" stroke="#63b8ff" points="227.87,-365.44 222.9,-367.75 226.59,-365.45 222.87,-365.5 222.87,-365.5 222.87,-365.5 226.59,-365.45 222.84,-363.25 227.87,-365.44"/>
</a>
</g>
</g>
<!-- Node5 -->
<g id="Node000005" class="node">
<title>Node5</title>
<g id="a_Node000005"><a xlink:href="../../d9/dc6/class_main_window.html#a56502a9aef4caa8d6f5afec050f338d6" target="_top" xlink:title=" ">
<polygon fill="white" stroke="none" points="184,-333.5 6,-333.5 6,-303 184,-303 184,-333.5"/>
<text xml:space="preserve" text-anchor="start" x="14" y="-319.05" font-family="Consolas" font-size="11.00">MainWindow::on_debugConsole</text>
<text xml:space="preserve" text-anchor="middle" x="95" y="-307.8" font-family="Consolas" font-size="11.00">_btn_clicked</text>
</a>
</g>
</g>
<!-- Node4&#45;&gt;Node5 -->
<g id="edge4_Node000004_Node000005" class="edge">
<title>Node4&#45;&gt;Node5</title>
<g id="a_edge4_Node000004_Node000005"><a xlink:title=" ">
<path fill="none" stroke="#63b8ff" d="M235.04,-320.16C218.45,-319.94 200.86,-319.69 183.96,-319.46"/>
<polygon fill="#63b8ff" stroke="#63b8ff" points="239.89,-320.23 234.86,-322.41 238.61,-320.21 234.89,-320.16 234.89,-320.16 234.89,-320.16 238.61,-320.21 234.92,-317.91 239.89,-320.23"/>
</a>
</g>
</g>
<!-- Node7&#45;&gt;Node6 -->
<g id="edge7_Node000007_Node000006" class="edge">
<title>Node7&#45;&gt;Node6</title>
<g id="a_edge7_Node000007_Node000006"><a xlink:title=" ">
<path fill="none" stroke="#63b8ff" d="M220.35,-196.56C204.2,-198.34 187.59,-200.17 171.97,-201.89"/>
<polygon fill="#63b8ff" stroke="#63b8ff" points="225.06,-196.04 220.34,-198.83 223.79,-196.18 220.09,-196.59 220.09,-196.59 220.09,-196.59 223.79,-196.18 219.85,-194.35 225.06,-196.04"/>
</a>
</g>
</g>
<!-- Node8&#45;&gt;Node6 -->
<g id="edge9_Node000008_Node000006" class="edge">
<title>Node8&#45;&gt;Node6</title>
<g id="a_edge9_Node000008_Node000006"><a xlink:title=" ">
<path fill="none" stroke="#63b8ff" d="M248.27,-149.18C240.72,-151.42 233.16,-153.8 226,-156.25 192.48,-167.73 155.22,-183.53 129.22,-195.07"/>
<polygon fill="#63b8ff" stroke="#63b8ff" points="252.87,-147.84 248.7,-151.4 251.64,-148.2 248.07,-149.24 248.07,-149.24 248.07,-149.24 251.64,-148.2 247.44,-147.08 252.87,-147.84"/>
</a>
</g>
</g>
<!-- Node10 -->
<g id="Node000010" class="node">
<title>Node10</title>
<g id="a_Node000010"><a xlink:href="../../d9/dc6/class_main_window.html#a4b31735a0ab8596f2c8a452d47694572" target="_top" xlink:title=" ">
<polygon fill="white" stroke="none" points="190,-104.5 0,-104.5 0,-74 190,-74 190,-104.5"/>
<text xml:space="preserve" text-anchor="start" x="8" y="-90.05" font-family="Consolas" font-size="11.00">MainWindow::on_coloredConsole</text>
<text xml:space="preserve" text-anchor="middle" x="95" y="-78.8" font-family="Consolas" font-size="11.00">_chk_checkStateChanged</text>
</a>
</g>
</g>
<!-- Node9&#45;&gt;Node10 -->
<g id="edge11_Node000009_Node000010" class="edge">
<title>Node9&#45;&gt;Node10</title>
<g id="a_edge11_Node000009_Node000010"><a xlink:title=" ">
<path fill="none" stroke="#63b8ff" d="M220.08,-89.25C210.1,-89.25 199.95,-89.25 189.96,-89.25"/>
<polygon fill="#63b8ff" stroke="#63b8ff" points="225.05,-89.25 220.05,-91.5 223.77,-89.25 220.05,-89.25 220.05,-89.25 220.05,-89.25 223.77,-89.25 220.05,-87 225.05,-89.25"/>
</a>
</g>
</g>
<!-- Node12 -->
<g id="Node000012" class="node">
<title>Node12</title>
<g id="a_Node000012"><a xlink:href="../../d9/dc6/class_main_window.html#a7e7d297efb3ead7cb02951670b48d9a2" target="_top" xlink:title=" ">
<polygon fill="white" stroke="none" points="172,-30.5 18,-30.5 18,0 172,0 172,-30.5"/>
<text xml:space="preserve" text-anchor="start" x="26" y="-16.05" font-family="Consolas" font-size="11.00">MainWindow::on_muteDisp</text>
<text xml:space="preserve" text-anchor="middle" x="95" y="-4.8" font-family="Consolas" font-size="11.00">_chk_checkStateChanged</text>
</a>
</g>
</g>
<!-- Node11&#45;&gt;Node12 -->
<g id="edge13_Node000011_Node000012" class="edge">
<title>Node11&#45;&gt;Node12</title>
<g id="a_edge13_Node000011_Node000012"><a xlink:title=" ">
<path fill="none" stroke="#63b8ff" d="M229.43,-15.25C210.39,-15.25 190.31,-15.25 171.67,-15.25"/>
<polygon fill="#63b8ff" stroke="#63b8ff" points="234.08,-15.25 229.08,-17.5 232.8,-15.25 229.08,-15.25 229.08,-15.25 229.08,-15.25 232.8,-15.25 229.08,-13 234.08,-15.25"/>
</a>
</g>
</g>
<!-- Node14&#45;&gt;Node6 -->
<g id="edge16_Node000014_Node000006" class="edge">
<title>Node14&#45;&gt;Node6</title>
<g id="a_edge16_Node000014_Node000006"><a xlink:title=" ">
<path fill="none" stroke="#63b8ff" d="M259.79,-261.34C224.55,-250.35 179,-236.14 144.88,-225.5"/>
<polygon fill="#63b8ff" stroke="#63b8ff" points="264.18,-262.71 258.74,-263.37 262.96,-262.33 259.41,-261.22 259.41,-261.22 259.41,-261.22 262.96,-262.33 260.08,-259.07 264.18,-262.71"/>
</a>
</g>
</g>
</g>
</svg>
