<?xml version="1.0" encoding="UTF-8" standalone="no"?>
<!DOCTYPE svg PUBLIC "-//W3C//DTD SVG 1.1//EN"
 "http://www.w3.org/Graphics/SVG/1.1/DTD/svg11.dtd">
<!-- Generated by graphviz version 14.0.0 (20250921.2048)
 -->
<!-- Title: anonymous_namespace{Log::cpp}::LogCore::Inst_ Pages: 1 -->
<svg width="698pt" height="371pt"
 viewBox="0.00 0.00 698.00 371.00" xmlns="http://www.w3.org/2000/svg" xmlns:xlink="http://www.w3.org/1999/xlink">
<g id="graph0" class="graph" transform="scale(1 1) rotate(0) translate(4 366.88)">
<title>anonymous_namespace{Log::cpp}::LogCore::Inst_</title>
<!-- Node1 -->
<g id="Node000001" class="node">
<title>Node1</title>
<g id="a_Node000001"><a xlink:title=" ">
<polygon fill="#999999" stroke="none" points="690,-184.88 404,-184.88 404,-165.62 690,-165.62 690,-184.88"/>
<text xml:space="preserve" text-anchor="start" x="412" y="-171.43" font-family="Consolas" font-weight="bold" font-size="11.00">anonymous_namespace{Log::cpp}::LogCore::Inst_</text>
</a>
</g>
</g>
<!-- Node2 -->
<g id="Node000002" class="node">
<title>Node2</title>
<g id="a_Node000002"><a xlink:href="../../d5/ddd/namespacenpi_1_1log.html#ae0e278f0a3f2618e1fff9b05fdcc0f9f" target="_top" xlink:title=" ">
<polygon fill="white" stroke="none" points="365,-362.88 193,-362.88 193,-343.62 365,-343.62 365,-362.88"/>
<text xml:space="preserve" text-anchor="middle" x="279" y="-348.43" font-family="Consolas" font-size="11.00">npi::log::clearFilterRules</text>
</a>
</g>
</g>
<!-- Node1&#45;&gt;Node2 -->
<g id="edge1_Node000001_Node000002" class="edge">
<title>Node1&#45;&gt;Node2</title>
<g id="a_edge1_Node000001_Node000002"><a xlink:title=" ">
<path fill="none" stroke="#63b8ff" d="M534.94,-189.36C509.3,-221.01 442.31,-297.78 368,-335.25 361.18,-338.69 353.74,-341.47 346.18,-343.72"/>
<polygon fill="#63b8ff" stroke="#63b8ff" points="537.93,-185.63 536.55,-190.94 537.13,-186.63 534.8,-189.53 534.8,-189.53 534.8,-189.53 537.13,-186.63 533.04,-188.13 537.93,-185.63"/>
</a>
</g>
</g>
<!-- Node3 -->
<g id="Node000003" class="node">
<title>Node3</title>
<g id="a_Node000003"><a xlink:href="../../d5/ddd/namespacenpi_1_1log.html#a7b8c87cac5cee3c9c4ad9f19aebc8c02" target="_top" xlink:title=" ">
<polygon fill="white" stroke="none" points="353,-325.88 205,-325.88 205,-306.62 353,-306.62 353,-325.88"/>
<text xml:space="preserve" text-anchor="middle" x="279" y="-311.43" font-family="Consolas" font-size="11.00">npi::log::closeConsole</text>
</a>
</g>
</g>
<!-- Node1&#45;&gt;Node3 -->
<g id="edge2_Node000001_Node000003" class="edge">
<title>Node1&#45;&gt;Node3</title>
<g id="a_edge2_Node000001_Node000003"><a xlink:title=" ">
<path fill="none" stroke="#63b8ff" d="M529.83,-188.45C499.75,-212.39 432.37,-263.21 368,-292.25 354.72,-298.24 339.62,-303.03 325.72,-306.7"/>
<polygon fill="#63b8ff" stroke="#63b8ff" points="533.72,-185.33 531.22,-190.21 532.72,-186.13 529.82,-188.46 529.82,-188.46 529.82,-188.46 532.72,-186.13 528.41,-186.7 533.72,-185.33"/>
</a>
</g>
</g>
<!-- Node4 -->
<g id="Node000004" class="node">
<title>Node4</title>
<g id="a_Node000004"><a xlink:href="../../dc/d8e/namespaceanonymous__namespace_02_log_8cpp_03.html#a7a82c11accb191c2f06849f6d13db39a" target="_top" xlink:title=" ">
<polygon fill="white" stroke="none" points="154,-217.5 0,-217.5 0,-187 154,-187 154,-217.5"/>
<text xml:space="preserve" text-anchor="start" x="8" y="-203.05" font-family="Consolas" font-size="11.00">anonymous_namespace</text>
<text xml:space="preserve" text-anchor="middle" x="77" y="-191.8" font-family="Consolas" font-size="11.00">{Log::cpp}::initLogging</text>
</a>
</g>
</g>
<!-- Node1&#45;&gt;Node4 -->
<g id="edge3_Node000001_Node000004" class="edge">
<title>Node1&#45;&gt;Node4</title>
<g id="a_edge3_Node000001_Node000004"><a xlink:title=" ">
<path fill="none" stroke="#63b8ff" d="M526.41,-188.07C494.7,-207.98 429.46,-245.48 368,-259.25 290.8,-276.55 266.93,-277.7 190,-259.25 156.48,-251.21 121.67,-231.38 99.94,-217.38"/>
<polygon fill="#63b8ff" stroke="#63b8ff" points="530.54,-185.46 527.53,-190.03 529.46,-186.14 526.32,-188.13 526.32,-188.13 526.32,-188.13 529.46,-186.14 525.12,-186.23 530.54,-185.46"/>
</a>
</g>
</g>
<!-- Node5 -->
<g id="Node000005" class="node">
<title>Node5</title>
<g id="a_Node000005"><a xlink:href="../../dc/d8e/namespaceanonymous__namespace_02_log_8cpp_03.html#acf34371ee9cd3beb546b7f2c21dd2844" target="_top" xlink:title=" ">
<polygon fill="white" stroke="none" points="368,-250.12 190,-250.12 190,-208.38 368,-208.38 368,-250.12"/>
<text xml:space="preserve" text-anchor="start" x="198" y="-235.68" font-family="Consolas" font-size="11.00">anonymous_namespace</text>
<text xml:space="preserve" text-anchor="start" x="198" y="-224.43" font-family="Consolas" font-size="11.00">{Log::cpp}::loggingCategory</text>
<text xml:space="preserve" text-anchor="middle" x="279" y="-213.18" font-family="Consolas" font-size="11.00">Filter</text>
</a>
</g>
</g>
<!-- Node1&#45;&gt;Node5 -->
<g id="edge4_Node000001_Node000005" class="edge">
<title>Node1&#45;&gt;Node5</title>
<g id="a_edge4_Node000001_Node000005"><a xlink:title=" ">
<path fill="none" stroke="#63b8ff" d="M492.68,-186.07C456.99,-193.32 409.18,-203.03 367.93,-211.4"/>
<polygon fill="#63b8ff" stroke="#63b8ff" points="497.56,-185.08 493.1,-188.28 496.3,-185.34 492.66,-186.08 492.66,-186.08 492.66,-186.08 496.3,-185.34 492.21,-183.87 497.56,-185.08"/>
</a>
</g>
</g>
<!-- Node6 -->
<g id="Node000006" class="node">
<title>Node6</title>
<g id="a_Node000006"><a xlink:href="../../dc/d8e/namespaceanonymous__namespace_02_log_8cpp_03.html#a0c2edb98e44610adcc75724bbf4edfb8" target="_top" xlink:title=" ">
<polygon fill="white" stroke="none" points="353,-190.5 205,-190.5 205,-160 353,-160 353,-190.5"/>
<text xml:space="preserve" text-anchor="start" x="213" y="-176.05" font-family="Consolas" font-size="11.00">anonymous_namespace</text>
<text xml:space="preserve" text-anchor="middle" x="279" y="-164.8" font-family="Consolas" font-size="11.00">{Log::cpp}::msgHandler</text>
</a>
</g>
</g>
<!-- Node1&#45;&gt;Node6 -->
<g id="edge6_Node000001_Node000006" class="edge">
<title>Node1&#45;&gt;Node6</title>
<g id="a_edge6_Node000001_Node000006"><a xlink:title=" ">
<path fill="none" stroke="#63b8ff" d="M397.83,-175.25C382.26,-175.25 366.97,-175.25 352.83,-175.25"/>
<polygon fill="#63b8ff" stroke="#63b8ff" points="402.83,-175.25 397.83,-177.5 401.54,-175.25 397.83,-175.25 397.83,-175.25 397.83,-175.25 401.54,-175.25 397.83,-173 402.83,-175.25"/>
</a>
</g>
</g>
<!-- Node7 -->
<g id="Node000007" class="node">
<title>Node7</title>
<g id="a_Node000007"><a xlink:href="../../d5/ddd/namespacenpi_1_1log.html#aa9c7f1de08a88a0dcac316127c1d384b" target="_top" xlink:title=" ">
<polygon fill="white" stroke="none" points="368,-141.88 190,-141.88 190,-122.62 368,-122.62 368,-141.88"/>
<text xml:space="preserve" text-anchor="middle" x="279" y="-127.42" font-family="Consolas" font-size="11.00">npi::log::setColoredConsole</text>
</a>
</g>
</g>
<!-- Node1&#45;&gt;Node7 -->
<g id="edge8_Node000001_Node000007" class="edge">
<title>Node1&#45;&gt;Node7</title>
<g id="a_edge8_Node000001_Node000007"><a xlink:title=" ">
<path fill="none" stroke="#63b8ff" d="M480.62,-164.68C437.37,-157.69 381.11,-148.6 339.18,-141.82"/>
<polygon fill="#63b8ff" stroke="#63b8ff" points="485.43,-165.46 480.14,-166.88 484.17,-165.25 480.5,-164.66 480.5,-164.66 480.5,-164.66 484.17,-165.25 480.86,-162.44 485.43,-165.46"/>
</a>
</g>
</g>
<!-- Node8 -->
<g id="Node000008" class="node">
<title>Node8</title>
<g id="a_Node000008"><a xlink:href="../../d5/ddd/namespacenpi_1_1log.html#a976d8ed596c3a4571209d46c933b5bbe" target="_top" xlink:title=" ">
<polygon fill="white" stroke="none" points="359,-104.88 199,-104.88 199,-85.62 359,-85.62 359,-104.88"/>
<text xml:space="preserve" text-anchor="middle" x="279" y="-90.42" font-family="Consolas" font-size="11.00">npi::log::setMuteDisplay</text>
</a>
</g>
</g>
<!-- Node1&#45;&gt;Node8 -->
<g id="edge9_Node000001_Node000008" class="edge">
<title>Node1&#45;&gt;Node8</title>
<g id="a_edge9_Node000001_Node000008"><a xlink:title=" ">
<path fill="none" stroke="#63b8ff" d="M516.45,-163.59C481.45,-150.1 421.16,-127.87 368,-113.25 356.72,-110.15 344.5,-107.32 332.86,-104.87"/>
<polygon fill="#63b8ff" stroke="#63b8ff" points="520.71,-165.24 515.24,-165.54 519.52,-164.78 516.05,-163.44 516.05,-163.44 516.05,-163.44 519.52,-164.78 516.86,-161.34 520.71,-165.24"/>
</a>
</g>
</g>
<!-- Node9 -->
<g id="Node000009" class="node">
<title>Node9</title>
<g id="a_Node000009"><a xlink:href="../../d5/ddd/namespacenpi_1_1log.html#a9be9faae3670cc6af86285afecfb3e58" target="_top" xlink:title=" ">
<polygon fill="white" stroke="none" points="362,-67.88 196,-67.88 196,-48.62 362,-48.62 362,-67.88"/>
<text xml:space="preserve" text-anchor="middle" x="279" y="-53.42" font-family="Consolas" font-size="11.00">npi::log::setWarnAsImpLog</text>
</a>
</g>
</g>
<!-- Node1&#45;&gt;Node9 -->
<g id="edge10_Node000001_Node000009" class="edge">
<title>Node1&#45;&gt;Node9</title>
<g id="a_edge10_Node000001_Node000009"><a xlink:title=" ">
<path fill="none" stroke="#63b8ff" d="M527.3,-162.29C495.86,-141.1 429.75,-99.12 368,-76.25 358.93,-72.89 349.1,-70.11 339.39,-67.81"/>
<polygon fill="#63b8ff" stroke="#63b8ff" points="531.4,-165.07 525.99,-164.12 530.33,-164.35 527.26,-162.26 527.26,-162.26 527.26,-162.26 530.33,-164.35 528.52,-160.4 531.4,-165.07"/>
</a>
</g>
</g>
<!-- Node10 -->
<g id="Node000010" class="node">
<title>Node10</title>
<g id="a_Node000010"><a xlink:href="../../dc/d8e/namespaceanonymous__namespace_02_log_8cpp_03.html#a9e0fadcfb2f6334dde67322028dc7676" target="_top" xlink:title=" ">
<polygon fill="white" stroke="none" points="359,-30.5 199,-30.5 199,0 359,0 359,-30.5"/>
<text xml:space="preserve" text-anchor="start" x="207" y="-16.05" font-family="Consolas" font-size="11.00">anonymous_namespace</text>
<text xml:space="preserve" text-anchor="middle" x="279" y="-4.8" font-family="Consolas" font-size="11.00">{Log::cpp}::shuttingDown</text>
</a>
</g>
</g>
<!-- Node1&#45;&gt;Node10 -->
<g id="edge11_Node000001_Node000010" class="edge">
<title>Node1&#45;&gt;Node10</title>
<g id="a_edge11_Node000001_Node000010"><a xlink:title=" ">
<path fill="none" stroke="#63b8ff" d="M532.31,-161.72C504.05,-134.52 436.16,-72.97 368,-39.25 361.19,-35.88 353.83,-32.93 346.39,-30.36"/>
<polygon fill="#63b8ff" stroke="#63b8ff" points="535.62,-164.93 530.47,-163.07 534.7,-164.04 532.03,-161.45 532.03,-161.45 532.03,-161.45 534.7,-164.04 533.6,-159.83 535.62,-164.93"/>
</a>
</g>
</g>
<!-- Node5&#45;&gt;Node4 -->
<g id="edge5_Node000005_Node000004" class="edge">
<title>Node5&#45;&gt;Node4</title>
<g id="a_edge5_Node000005_Node000004"><a xlink:title=" ">
<path fill="none" stroke="#63b8ff" d="M184.27,-216.6C174.04,-215.22 163.72,-213.82 153.75,-212.48"/>
<polygon fill="#63b8ff" stroke="#63b8ff" points="189.07,-217.24 183.81,-218.81 187.8,-217.07 184.11,-216.58 184.11,-216.58 184.11,-216.58 187.8,-217.07 184.42,-214.35 189.07,-217.24"/>
</a>
</g>
</g>
<!-- Node6&#45;&gt;Node4 -->
<g id="edge7_Node000006_Node000004" class="edge">
<title>Node6&#45;&gt;Node4</title>
<g id="a_edge7_Node000006_Node000004"><a xlink:title=" ">
<path fill="none" stroke="#63b8ff" d="M199.3,-185.87C184.3,-187.9 168.64,-190.01 153.74,-192.02"/>
<polygon fill="#63b8ff" stroke="#63b8ff" points="204.02,-185.24 199.37,-188.14 202.75,-185.41 199.07,-185.91 199.07,-185.91 199.07,-185.91 202.75,-185.41 198.77,-183.68 204.02,-185.24"/>
</a>
</g>
</g>
<!-- Node10&#45;&gt;Node4 -->
<g id="edge12_Node000010_Node000004" class="edge">
<title>Node10&#45;&gt;Node4</title>
<g id="a_edge12_Node000010_Node000004"><a xlink:title=" ">
<path fill="none" stroke="#63b8ff" d="M199.93,-33.17C196.47,-35 193.14,-37.02 190,-39.25 134.57,-78.61 97.88,-154.59 84.11,-187"/>
<polygon fill="#63b8ff" stroke="#63b8ff" points="204.38,-30.98 200.89,-35.21 203.23,-31.55 199.89,-33.19 199.89,-33.19 199.89,-33.19 203.23,-31.55 198.9,-31.17 204.38,-30.98"/>
</a>
</g>
</g>
</g>
</svg>
