<?xml version="1.0" encoding="UTF-8" standalone="no"?>
<!DOCTYPE svg PUBLIC "-//W3C//DTD SVG 1.1//EN"
 "http://www.w3.org/Graphics/SVG/1.1/DTD/svg11.dtd">
<!-- Generated by graphviz version 14.0.0 (20250921.2048)
 -->
<!-- Title: anonymous_namespace{Log::cpp}::LogCore::saveSettings_ Pages: 1 -->
<svg width="1198pt" height="39pt"
 viewBox="0.00 0.00 1198.00 39.00" xmlns="http://www.w3.org/2000/svg" xmlns:xlink="http://www.w3.org/1999/xlink">
<g id="graph0" class="graph" transform="scale(1 1) rotate(0) translate(4 34.5)">
<title>anonymous_namespace{Log::cpp}::LogCore::saveSettings_</title>
<!-- Node1 -->
<g id="Node000001" class="node">
<title>Node1</title>
<g id="a_Node000001"><a xlink:title=" ">
<polygon fill="#999999" stroke="none" points="334,-24.88 0,-24.88 0,-5.62 334,-5.62 334,-24.88"/>
<text xml:space="preserve" text-anchor="start" x="8" y="-11.43" font-family="Consolas" font-weight="bold" font-size="11.00">anonymous_namespace{Log::cpp}::LogCore::saveSettings_</text>
</a>
</g>
</g>
<!-- Node2 -->
<g id="Node000002" class="node">
<title>Node2</title>
<g id="a_Node000002"><a xlink:href="../../dc/dba/namespacenpi_1_1app.html#a40a2a28831f2f410c995f0657baf6544" target="_top" xlink:title="Absolute application&#45;level ProgramData path.">
<polygon fill="white" stroke="none" points="548,-24.88 370,-24.88 370,-5.62 548,-5.62 548,-24.88"/>
<text xml:space="preserve" text-anchor="middle" x="459" y="-10.43" font-family="Consolas" font-size="11.00">npi::app::appProgramDataDir</text>
</a>
</g>
</g>
<!-- Node1&#45;&gt;Node2 -->
<g id="edge1_Node000001_Node000002" class="edge">
<title>Node1&#45;&gt;Node2</title>
<g id="a_edge1_Node000001_Node000002"><a xlink:title=" ">
<path fill="none" stroke="#63b8ff" d="M333.75,-15.25C344.05,-15.25 354.2,-15.25 364,-15.25"/>
<polygon fill="#63b8ff" stroke="#63b8ff" points="368.84,-15.25 363.84,-17.5 367.55,-15.25 363.84,-15.25 363.84,-15.25 363.84,-15.25 367.55,-15.25 363.84,-13 368.84,-15.25"/>
</a>
</g>
</g>
<!-- Node3 -->
<g id="Node000003" class="node">
<title>Node3</title>
<g id="a_Node000003"><a xlink:href="../../dc/dba/namespacenpi_1_1app.html#a30836be8b9337a64733a6e05594b23c8" target="_top" xlink:title="Absolute organization&#45;level ProgramData path.">
<polygon fill="white" stroke="none" points="762,-24.88 584,-24.88 584,-5.62 762,-5.62 762,-24.88"/>
<text xml:space="preserve" text-anchor="middle" x="673" y="-10.43" font-family="Consolas" font-size="11.00">npi::app::orgProgramDataDir</text>
</a>
</g>
</g>
<!-- Node2&#45;&gt;Node3 -->
<g id="edge2_Node000002_Node000003" class="edge">
<title>Node2&#45;&gt;Node3</title>
<g id="a_edge2_Node000002_Node000003"><a xlink:title=" ">
<path fill="none" stroke="#63b8ff" d="M547.76,-15.25C557.85,-15.25 568.17,-15.25 578.34,-15.25"/>
<polygon fill="#63b8ff" stroke="#63b8ff" points="583.09,-15.25 578.09,-17.5 581.81,-15.25 578.09,-15.25 578.09,-15.25 578.09,-15.25 581.81,-15.25 578.09,-13 583.09,-15.25"/>
</a>
</g>
</g>
<!-- Node4 -->
<g id="Node000004" class="node">
<title>Node4</title>
<g id="a_Node000004"><a xlink:href="../../df/d40/namespaceanonymous__namespace_02_meta_paths_8cpp_03.html#a6b23c92ed8a542082d8cddde4bd55b47" target="_top" xlink:title="Resolve base path using Known Folder ID or environment variable fallback.">
<polygon fill="white" stroke="none" points="970,-30.5 798,-30.5 798,0 970,0 970,-30.5"/>
<text xml:space="preserve" text-anchor="start" x="806" y="-16.05" font-family="Consolas" font-size="11.00">anonymous_namespace</text>
<text xml:space="preserve" text-anchor="middle" x="884" y="-4.8" font-family="Consolas" font-size="11.00">{MetaPaths::cpp}::basePath</text>
</a>
</g>
</g>
<!-- Node3&#45;&gt;Node4 -->
<g id="edge3_Node000003_Node000004" class="edge">
<title>Node3&#45;&gt;Node4</title>
<g id="a_edge3_Node000003_Node000004"><a xlink:title=" ">
<path fill="none" stroke="#63b8ff" d="M761.73,-15.25C771.81,-15.25 782.11,-15.25 792.24,-15.25"/>
<polygon fill="#63b8ff" stroke="#63b8ff" points="796.95,-15.25 791.95,-17.5 795.67,-15.25 791.95,-15.25 791.95,-15.25 791.95,-15.25 795.67,-15.25 791.95,-13 796.95,-15.25"/>
</a>
</g>
</g>
<!-- Node5 -->
<g id="Node000005" class="node">
<title>Node5</title>
<g id="a_Node000005"><a xlink:href="../../dc/dba/namespacenpi_1_1app.html#a30b5245afa890e98f19f43c58f29e633" target="_top" xlink:title="Windows native fatal error message box.">
<polygon fill="white" stroke="none" points="1190,-24.88 1006,-24.88 1006,-5.62 1190,-5.62 1190,-24.88"/>
<text xml:space="preserve" text-anchor="middle" x="1098" y="-10.43" font-family="Consolas" font-size="11.00">npi::app::nativeFatalMessage</text>
</a>
</g>
</g>
<!-- Node4&#45;&gt;Node5 -->
<g id="edge4_Node000004_Node000005" class="edge">
<title>Node4&#45;&gt;Node5</title>
<g id="a_edge4_Node000004_Node000005"><a xlink:title=" ">
<path fill="none" stroke="#63b8ff" d="M969.7,-15.25C979.73,-15.25 990.02,-15.25 1000.2,-15.25"/>
<polygon fill="#63b8ff" stroke="#63b8ff" points="1004.96,-15.25 999.96,-17.5 1003.68,-15.25 999.96,-15.25 999.96,-15.25 999.96,-15.25 1003.68,-15.25 999.96,-13 1004.96,-15.25"/>
</a>
</g>
</g>
</g>
</svg>
