<?xml version="1.0" encoding="UTF-8" standalone="no"?>
<!DOCTYPE svg PUBLIC "-//W3C//DTD SVG 1.1//EN"
 "http://www.w3.org/Graphics/SVG/1.1/DTD/svg11.dtd">
<!-- Generated by graphviz version 14.0.0 (20250921.2048)
 -->
<!-- Title: anonymous_namespace{Log::cpp}::LogCore::getMaxFolderSizeMb_ Pages: 1 -->
<svg width="1234pt" height="39pt"
 viewBox="0.00 0.00 1234.00 39.00" xmlns="http://www.w3.org/2000/svg" xmlns:xlink="http://www.w3.org/1999/xlink">
<g id="graph0" class="graph" transform="scale(1 1) rotate(0) translate(4 34.5)">
<title>anonymous_namespace{Log::cpp}::LogCore::getMaxFolderSizeMb_</title>
<!-- Node1 -->
<g id="Node000001" class="node">
<title>Node1</title>
<g id="a_Node000001"><a xlink:title=" ">
<polygon fill="#999999" stroke="none" points="370,-24.88 0,-24.88 0,-5.62 370,-5.62 370,-24.88"/>
<text xml:space="preserve" text-anchor="start" x="8" y="-11.43" font-family="Consolas" font-weight="bold" font-size="11.00">anonymous_namespace{Log::cpp}::LogCore::getMaxFolderSizeMb_</text>
</a>
</g>
</g>
<!-- Node2 -->
<g id="Node000002" class="node">
<title>Node2</title>
<g id="a_Node000002"><a xlink:href="../../dc/dba/namespacenpi_1_1app.html#a40a2a28831f2f410c995f0657baf6544" target="_top" xlink:title="Absolute application&#45;level ProgramData path.">
<polygon fill="white" stroke="none" points="584,-24.88 406,-24.88 406,-5.62 584,-5.62 584,-24.88"/>
<text xml:space="preserve" text-anchor="middle" x="495" y="-10.43" font-family="Consolas" font-size="11.00">npi::app::appProgramDataDir</text>
</a>
</g>
</g>
<!-- Node1&#45;&gt;Node2 -->
<g id="edge1_Node000001_Node000002" class="edge">
<title>Node1&#45;&gt;Node2</title>
<g id="a_edge1_Node000001_Node000002"><a xlink:title=" ">
<path fill="none" stroke="#63b8ff" d="M369.61,-15.25C380.07,-15.25 390.33,-15.25 400.21,-15.25"/>
<polygon fill="#63b8ff" stroke="#63b8ff" points="405.08,-15.25 400.08,-17.5 403.8,-15.25 400.08,-15.25 400.08,-15.25 400.08,-15.25 403.8,-15.25 400.08,-13 405.08,-15.25"/>
</a>
</g>
</g>
<!-- Node3 -->
<g id="Node000003" class="node">
<title>Node3</title>
<g id="a_Node000003"><a xlink:href="../../dc/dba/namespacenpi_1_1app.html#a30836be8b9337a64733a6e05594b23c8" target="_top" xlink:title="Absolute organization&#45;level ProgramData path.">
<polygon fill="white" stroke="none" points="798,-24.88 620,-24.88 620,-5.62 798,-5.62 798,-24.88"/>
<text xml:space="preserve" text-anchor="middle" x="709" y="-10.43" font-family="Consolas" font-size="11.00">npi::app::orgProgramDataDir</text>
</a>
</g>
</g>
<!-- Node2&#45;&gt;Node3 -->
<g id="edge2_Node000002_Node000003" class="edge">
<title>Node2&#45;&gt;Node3</title>
<g id="a_edge2_Node000002_Node000003"><a xlink:title=" ">
<path fill="none" stroke="#63b8ff" d="M583.76,-15.25C593.85,-15.25 604.17,-15.25 614.34,-15.25"/>
<polygon fill="#63b8ff" stroke="#63b8ff" points="619.09,-15.25 614.09,-17.5 617.81,-15.25 614.09,-15.25 614.09,-15.25 614.09,-15.25 617.81,-15.25 614.09,-13 619.09,-15.25"/>
</a>
</g>
</g>
<!-- Node4 -->
<g id="Node000004" class="node">
<title>Node4</title>
<g id="a_Node000004"><a xlink:href="../../df/d40/namespaceanonymous__namespace_02_meta_paths_8cpp_03.html#a6b23c92ed8a542082d8cddde4bd55b47" target="_top" xlink:title="Resolve base path using Known Folder ID or environment variable fallback.">
<polygon fill="white" stroke="none" points="1006,-30.5 834,-30.5 834,0 1006,0 1006,-30.5"/>
<text xml:space="preserve" text-anchor="start" x="842" y="-16.05" font-family="Consolas" font-size="11.00">anonymous_namespace</text>
<text xml:space="preserve" text-anchor="middle" x="920" y="-4.8" font-family="Consolas" font-size="11.00">{MetaPaths::cpp}::basePath</text>
</a>
</g>
</g>
<!-- Node3&#45;&gt;Node4 -->
<g id="edge3_Node000003_Node000004" class="edge">
<title>Node3&#45;&gt;Node4</title>
<g id="a_edge3_Node000003_Node000004"><a xlink:title=" ">
<path fill="none" stroke="#63b8ff" d="M797.73,-15.25C807.81,-15.25 818.11,-15.25 828.24,-15.25"/>
<polygon fill="#63b8ff" stroke="#63b8ff" points="832.95,-15.25 827.95,-17.5 831.67,-15.25 827.95,-15.25 827.95,-15.25 827.95,-15.25 831.67,-15.25 827.95,-13 832.95,-15.25"/>
</a>
</g>
</g>
<!-- Node5 -->
<g id="Node000005" class="node">
<title>Node5</title>
<g id="a_Node000005"><a xlink:href="../../dc/dba/namespacenpi_1_1app.html#a30b5245afa890e98f19f43c58f29e633" target="_top" xlink:title="Windows native fatal error message box.">
<polygon fill="white" stroke="none" points="1226,-24.88 1042,-24.88 1042,-5.62 1226,-5.62 1226,-24.88"/>
<text xml:space="preserve" text-anchor="middle" x="1134" y="-10.43" font-family="Consolas" font-size="11.00">npi::app::nativeFatalMessage</text>
</a>
</g>
</g>
<!-- Node4&#45;&gt;Node5 -->
<g id="edge4_Node000004_Node000005" class="edge">
<title>Node4&#45;&gt;Node5</title>
<g id="a_edge4_Node000004_Node000005"><a xlink:title=" ">
<path fill="none" stroke="#63b8ff" d="M1005.7,-15.25C1015.73,-15.25 1026.02,-15.25 1036.2,-15.25"/>
<polygon fill="#63b8ff" stroke="#63b8ff" points="1040.96,-15.25 1035.96,-17.5 1039.68,-15.25 1035.96,-15.25 1035.96,-15.25 1035.96,-15.25 1039.68,-15.25 1035.96,-13 1040.96,-15.25"/>
</a>
</g>
</g>
</g>
</svg>
