<?xml version="1.0" encoding="UTF-8" standalone="no"?>
<!DOCTYPE svg PUBLIC "-//W3C//DTD SVG 1.1//EN"
 "http://www.w3.org/Graphics/SVG/1.1/DTD/svg11.dtd">
<!-- Generated by graphviz version 14.0.0 (20250921.2048)
 -->
<!-- Title: anonymous_namespace{Log::cpp}::LogCore::msgHandler_ Pages: 1 -->
<svg width="704pt" height="39pt"
 viewBox="0.00 0.00 704.00 39.00" xmlns="http://www.w3.org/2000/svg" xmlns:xlink="http://www.w3.org/1999/xlink">
<g id="graph0" class="graph" transform="scale(1 1) rotate(0) translate(4 34.5)">
<title>anonymous_namespace{Log::cpp}::LogCore::msgHandler_</title>
<!-- Node1 -->
<g id="Node000001" class="node">
<title>Node1</title>
<g id="a_Node000001"><a xlink:title=" ">
<polygon fill="#999999" stroke="none" points="696,-24.88 374,-24.88 374,-5.62 696,-5.62 696,-24.88"/>
<text xml:space="preserve" text-anchor="start" x="382" y="-11.43" font-family="Consolas" font-weight="bold" font-size="11.00">anonymous_namespace{Log::cpp}::LogCore::msgHandler_</text>
</a>
</g>
</g>
<!-- Node2 -->
<g id="Node000002" class="node">
<title>Node2</title>
<g id="a_Node000002"><a xlink:href="../../dc/d8e/namespaceanonymous__namespace_02_log_8cpp_03.html#a0c2edb98e44610adcc75724bbf4edfb8" target="_top" xlink:title=" ">
<polygon fill="white" stroke="none" points="338,-30.5 190,-30.5 190,0 338,0 338,-30.5"/>
<text xml:space="preserve" text-anchor="start" x="198" y="-16.05" font-family="Consolas" font-size="11.00">anonymous_namespace</text>
<text xml:space="preserve" text-anchor="middle" x="264" y="-4.8" font-family="Consolas" font-size="11.00">{Log::cpp}::msgHandler</text>
</a>
</g>
</g>
<!-- Node1&#45;&gt;Node2 -->
<g id="edge1_Node000001_Node000002" class="edge">
<title>Node1&#45;&gt;Node2</title>
<g id="a_edge1_Node000001_Node000002"><a xlink:title=" ">
<path fill="none" stroke="#63b8ff" d="M367.89,-15.25C357.51,-15.25 347.4,-15.25 337.83,-15.25"/>
<polygon fill="#63b8ff" stroke="#63b8ff" points="372.81,-15.25 367.81,-17.5 371.52,-15.25 367.81,-15.25 367.81,-15.25 367.81,-15.25 371.52,-15.25 367.81,-13 372.81,-15.25"/>
</a>
</g>
</g>
<!-- Node3 -->
<g id="Node000003" class="node">
<title>Node3</title>
<g id="a_Node000003"><a xlink:href="../../dc/d8e/namespaceanonymous__namespace_02_log_8cpp_03.html#a7a82c11accb191c2f06849f6d13db39a" target="_top" xlink:title=" ">
<polygon fill="white" stroke="none" points="154,-30.5 0,-30.5 0,0 154,0 154,-30.5"/>
<text xml:space="preserve" text-anchor="start" x="8" y="-16.05" font-family="Consolas" font-size="11.00">anonymous_namespace</text>
<text xml:space="preserve" text-anchor="middle" x="77" y="-4.8" font-family="Consolas" font-size="11.00">{Log::cpp}::initLogging</text>
</a>
</g>
</g>
<!-- Node2&#45;&gt;Node3 -->
<g id="edge2_Node000002_Node000003" class="edge">
<title>Node2&#45;&gt;Node3</title>
<g id="a_edge2_Node000002_Node000003"><a xlink:title=" ">
<path fill="none" stroke="#63b8ff" d="M183.96,-15.25C173.97,-15.25 163.77,-15.25 153.83,-15.25"/>
<polygon fill="#63b8ff" stroke="#63b8ff" points="188.93,-15.25 183.93,-17.5 187.65,-15.25 183.93,-15.25 183.93,-15.25 183.93,-15.25 187.65,-15.25 183.93,-13 188.93,-15.25"/>
</a>
</g>
</g>
</g>
</svg>
