<?xml version="1.0" encoding="UTF-8" standalone="no"?>
<!DOCTYPE svg PUBLIC "-//W3C//DTD SVG 1.1//EN"
 "http://www.w3.org/Graphics/SVG/1.1/DTD/svg11.dtd">
<!-- Generated by graphviz version 14.0.0 (20250921.2048)
 -->
<!-- Title: anonymous_namespace{Log::cpp}::LogCore::addLogCategory_ Pages: 1 -->
<svg width="758pt" height="50pt"
 viewBox="0.00 0.00 758.00 50.00" xmlns="http://www.w3.org/2000/svg" xmlns:xlink="http://www.w3.org/1999/xlink">
<g id="graph0" class="graph" transform="scale(1 1) rotate(0) translate(4 45.75)">
<title>anonymous_namespace{Log::cpp}::LogCore::addLogCategory_</title>
<!-- Node1 -->
<g id="Node000001" class="node">
<title>Node1</title>
<g id="a_Node000001"><a xlink:title=" ">
<polygon fill="#999999" stroke="none" points="750,-30.5 404,-30.5 404,-11.25 750,-11.25 750,-30.5"/>
<text xml:space="preserve" text-anchor="start" x="412" y="-17.05" font-family="Consolas" font-weight="bold" font-size="11.00">anonymous_namespace{Log::cpp}::LogCore::addLogCategory_</text>
</a>
</g>
</g>
<!-- Node2 -->
<g id="Node000002" class="node">
<title>Node2</title>
<g id="a_Node000002"><a xlink:href="../../dc/d8e/namespaceanonymous__namespace_02_log_8cpp_03.html#acf34371ee9cd3beb546b7f2c21dd2844" target="_top" xlink:title=" ">
<polygon fill="white" stroke="none" points="368,-41.75 190,-41.75 190,0 368,0 368,-41.75"/>
<text xml:space="preserve" text-anchor="start" x="198" y="-27.3" font-family="Consolas" font-size="11.00">anonymous_namespace</text>
<text xml:space="preserve" text-anchor="start" x="198" y="-16.05" font-family="Consolas" font-size="11.00">{Log::cpp}::loggingCategory</text>
<text xml:space="preserve" text-anchor="middle" x="279" y="-4.8" font-family="Consolas" font-size="11.00">Filter</text>
</a>
</g>
</g>
<!-- Node1&#45;&gt;Node2 -->
<g id="edge1_Node000001_Node000002" class="edge">
<title>Node1&#45;&gt;Node2</title>
<g id="a_edge1_Node000001_Node000002"><a xlink:title=" ">
<path fill="none" stroke="#63b8ff" d="M398.11,-20.88C387.74,-20.88 377.57,-20.88 367.82,-20.88"/>
<polygon fill="#63b8ff" stroke="#63b8ff" points="403.03,-20.88 398.03,-23.13 401.74,-20.88 398.03,-20.88 398.03,-20.88 398.03,-20.88 401.74,-20.88 398.03,-18.63 403.03,-20.88"/>
</a>
</g>
</g>
<!-- Node3 -->
<g id="Node000003" class="node">
<title>Node3</title>
<g id="a_Node000003"><a xlink:href="../../dc/d8e/namespaceanonymous__namespace_02_log_8cpp_03.html#a7a82c11accb191c2f06849f6d13db39a" target="_top" xlink:title=" ">
<polygon fill="white" stroke="none" points="154,-36.12 0,-36.12 0,-5.63 154,-5.63 154,-36.12"/>
<text xml:space="preserve" text-anchor="start" x="8" y="-21.68" font-family="Consolas" font-size="11.00">anonymous_namespace</text>
<text xml:space="preserve" text-anchor="middle" x="77" y="-10.43" font-family="Consolas" font-size="11.00">{Log::cpp}::initLogging</text>
</a>
</g>
</g>
<!-- Node2&#45;&gt;Node3 -->
<g id="edge2_Node000002_Node000003" class="edge">
<title>Node2&#45;&gt;Node3</title>
<g id="a_edge2_Node000002_Node000003"><a xlink:title=" ">
<path fill="none" stroke="#63b8ff" d="M184.27,-20.88C174.04,-20.88 163.72,-20.88 153.75,-20.88"/>
<polygon fill="#63b8ff" stroke="#63b8ff" points="189.06,-20.88 184.06,-23.13 187.78,-20.88 184.06,-20.88 184.06,-20.88 184.06,-20.88 187.78,-20.88 184.06,-18.63 189.06,-20.88"/>
</a>
</g>
</g>
</g>
</svg>
