<?xml version="1.0" encoding="UTF-8" standalone="no"?>
<!DOCTYPE svg PUBLIC "-//W3C//DTD SVG 1.1//EN"
 "http://www.w3.org/Graphics/SVG/1.1/DTD/svg11.dtd">
<!-- Generated by graphviz version 14.0.0 (20250921.2048)
 -->
<!-- Title: anonymous_namespace{Log::cpp}::LogCore::setWarnIsImp_ Pages: 1 -->
<svg width="1364pt" height="50pt"
 viewBox="0.00 0.00 1364.00 50.00" xmlns="http://www.w3.org/2000/svg" xmlns:xlink="http://www.w3.org/1999/xlink">
<g id="graph0" class="graph" transform="scale(1 1) rotate(0) translate(4 45.75)">
<title>anonymous_namespace{Log::cpp}::LogCore::setWarnIsImp_</title>
<!-- Node1 -->
<g id="Node000001" class="node">
<title>Node1</title>
<g id="a_Node000001"><a xlink:title=" ">
<polygon fill="#999999" stroke="none" points="334,-30.5 0,-30.5 0,-11.25 334,-11.25 334,-30.5"/>
<text xml:space="preserve" text-anchor="start" x="8" y="-17.05" font-family="Consolas" font-weight="bold" font-size="11.00">anonymous_namespace{Log::cpp}::LogCore::setWarnIsImp_</text>
</a>
</g>
</g>
<!-- Node2 -->
<g id="Node000002" class="node">
<title>Node2</title>
<g id="a_Node000002"><a xlink:href="../../d0/d61/classanonymous__namespace_02_log_8cpp_03_1_1_log_core.html#a5fa684811c33eea49f63593fea332de4" target="_top" xlink:title=" ">
<polygon fill="white" stroke="none" points="500,-41.75 370,-41.75 370,0 500,0 500,-41.75"/>
<text xml:space="preserve" text-anchor="start" x="378" y="-27.3" font-family="Consolas" font-size="11.00">anonymous_namespace</text>
<text xml:space="preserve" text-anchor="start" x="378" y="-16.05" font-family="Consolas" font-size="11.00">{Log::cpp}::LogCore</text>
<text xml:space="preserve" text-anchor="middle" x="435" y="-4.8" font-family="Consolas" font-size="11.00">::saveSettings_</text>
</a>
</g>
</g>
<!-- Node1&#45;&gt;Node2 -->
<g id="edge1_Node000001_Node000002" class="edge">
<title>Node1&#45;&gt;Node2</title>
<g id="a_edge1_Node000001_Node000002"><a xlink:title=" ">
<path fill="none" stroke="#63b8ff" d="M333.82,-20.88C344.37,-20.88 354.63,-20.88 364.31,-20.88"/>
<polygon fill="#63b8ff" stroke="#63b8ff" points="369.04,-20.88 364.04,-23.13 367.76,-20.88 364.04,-20.88 364.04,-20.88 364.04,-20.88 367.76,-20.88 364.04,-18.63 369.04,-20.88"/>
</a>
</g>
</g>
<!-- Node3 -->
<g id="Node000003" class="node">
<title>Node3</title>
<g id="a_Node000003"><a xlink:href="../../dc/dba/namespacenpi_1_1app.html#a40a2a28831f2f410c995f0657baf6544" target="_top" xlink:title="Absolute application&#45;level ProgramData path.">
<polygon fill="white" stroke="none" points="714,-30.5 536,-30.5 536,-11.25 714,-11.25 714,-30.5"/>
<text xml:space="preserve" text-anchor="middle" x="625" y="-16.05" font-family="Consolas" font-size="11.00">npi::app::appProgramDataDir</text>
</a>
</g>
</g>
<!-- Node2&#45;&gt;Node3 -->
<g id="edge2_Node000002_Node000003" class="edge">
<title>Node2&#45;&gt;Node3</title>
<g id="a_edge2_Node000002_Node000003"><a xlink:title=" ">
<path fill="none" stroke="#63b8ff" d="M499.91,-20.88C509.7,-20.88 519.97,-20.88 530.24,-20.88"/>
<polygon fill="#63b8ff" stroke="#63b8ff" points="535.07,-20.88 530.07,-23.13 533.79,-20.88 530.07,-20.88 530.07,-20.88 530.07,-20.88 533.79,-20.88 530.07,-18.63 535.07,-20.88"/>
</a>
</g>
</g>
<!-- Node4 -->
<g id="Node000004" class="node">
<title>Node4</title>
<g id="a_Node000004"><a xlink:href="../../dc/dba/namespacenpi_1_1app.html#a30836be8b9337a64733a6e05594b23c8" target="_top" xlink:title="Absolute organization&#45;level ProgramData path.">
<polygon fill="white" stroke="none" points="928,-30.5 750,-30.5 750,-11.25 928,-11.25 928,-30.5"/>
<text xml:space="preserve" text-anchor="middle" x="839" y="-16.05" font-family="Consolas" font-size="11.00">npi::app::orgProgramDataDir</text>
</a>
</g>
</g>
<!-- Node3&#45;&gt;Node4 -->
<g id="edge3_Node000003_Node000004" class="edge">
<title>Node3&#45;&gt;Node4</title>
<g id="a_edge3_Node000003_Node000004"><a xlink:title=" ">
<path fill="none" stroke="#63b8ff" d="M713.76,-20.88C723.85,-20.88 734.17,-20.88 744.34,-20.88"/>
<polygon fill="#63b8ff" stroke="#63b8ff" points="749.09,-20.88 744.09,-23.13 747.81,-20.88 744.09,-20.88 744.09,-20.88 744.09,-20.88 747.81,-20.88 744.09,-18.63 749.09,-20.88"/>
</a>
</g>
</g>
<!-- Node5 -->
<g id="Node000005" class="node">
<title>Node5</title>
<g id="a_Node000005"><a xlink:href="../../df/d40/namespaceanonymous__namespace_02_meta_paths_8cpp_03.html#a6b23c92ed8a542082d8cddde4bd55b47" target="_top" xlink:title="Resolve base path using Known Folder ID or environment variable fallback.">
<polygon fill="white" stroke="none" points="1136,-36.12 964,-36.12 964,-5.63 1136,-5.63 1136,-36.12"/>
<text xml:space="preserve" text-anchor="start" x="972" y="-21.68" font-family="Consolas" font-size="11.00">anonymous_namespace</text>
<text xml:space="preserve" text-anchor="middle" x="1050" y="-10.43" font-family="Consolas" font-size="11.00">{MetaPaths::cpp}::basePath</text>
</a>
</g>
</g>
<!-- Node4&#45;&gt;Node5 -->
<g id="edge4_Node000004_Node000005" class="edge">
<title>Node4&#45;&gt;Node5</title>
<g id="a_edge4_Node000004_Node000005"><a xlink:title=" ">
<path fill="none" stroke="#63b8ff" d="M927.73,-20.88C937.81,-20.88 948.11,-20.88 958.24,-20.88"/>
<polygon fill="#63b8ff" stroke="#63b8ff" points="962.95,-20.88 957.95,-23.13 961.67,-20.88 957.95,-20.88 957.95,-20.88 957.95,-20.88 961.67,-20.88 957.95,-18.63 962.95,-20.88"/>
</a>
</g>
</g>
<!-- Node6 -->
<g id="Node000006" class="node">
<title>Node6</title>
<g id="a_Node000006"><a xlink:href="../../dc/dba/namespacenpi_1_1app.html#a30b5245afa890e98f19f43c58f29e633" target="_top" xlink:title="Windows native fatal error message box.">
<polygon fill="white" stroke="none" points="1356,-30.5 1172,-30.5 1172,-11.25 1356,-11.25 1356,-30.5"/>
<text xml:space="preserve" text-anchor="middle" x="1264" y="-16.05" font-family="Consolas" font-size="11.00">npi::app::nativeFatalMessage</text>
</a>
</g>
</g>
<!-- Node5&#45;&gt;Node6 -->
<g id="edge5_Node000005_Node000006" class="edge">
<title>Node5&#45;&gt;Node6</title>
<g id="a_edge5_Node000005_Node000006"><a xlink:title=" ">
<path fill="none" stroke="#63b8ff" d="M1135.7,-20.88C1145.73,-20.88 1156.02,-20.88 1166.2,-20.88"/>
<polygon fill="#63b8ff" stroke="#63b8ff" points="1170.96,-20.88 1165.96,-23.13 1169.68,-20.88 1165.96,-20.88 1165.96,-20.88 1165.96,-20.88 1169.68,-20.88 1165.96,-18.63 1170.96,-20.88"/>
</a>
</g>
</g>
</g>
</svg>
