<?xml version="1.0" encoding="UTF-8" standalone="no"?>
<!DOCTYPE svg PUBLIC "-//W3C//DTD SVG 1.1//EN"
 "http://www.w3.org/Graphics/SVG/1.1/DTD/svg11.dtd">
<!-- Generated by graphviz version 14.0.0 (20250921.2048)
 -->
<!-- Title: anonymous_namespace{Log::cpp}::LogCore::ComparePaths_ Pages: 1 -->
<svg width="728pt" height="148pt"
 viewBox="0.00 0.00 728.00 148.00" xmlns="http://www.w3.org/2000/svg" xmlns:xlink="http://www.w3.org/1999/xlink">
<g id="graph0" class="graph" transform="scale(1 1) rotate(0) translate(4 143.75)">
<title>anonymous_namespace{Log::cpp}::LogCore::ComparePaths_</title>
<!-- Node1 -->
<g id="Node000001" class="node">
<title>Node1</title>
<g id="a_Node000001"><a xlink:title=" ">
<polygon fill="#999999" stroke="none" points="720,-79.5 386,-79.5 386,-60.25 720,-60.25 720,-79.5"/>
<text xml:space="preserve" text-anchor="start" x="394" y="-66.05" font-family="Consolas" font-weight="bold" font-size="11.00">anonymous_namespace{Log::cpp}::LogCore::ComparePaths_</text>
</a>
</g>
</g>
<!-- Node2 -->
<g id="Node000002" class="node">
<title>Node2</title>
<g id="a_Node000002"><a xlink:href="../../d0/d61/classanonymous__namespace_02_log_8cpp_03_1_1_log_core.html#a954ca6deaaa97afe1fdabec631c46d90" target="_top" xlink:title=" ">
<polygon fill="white" stroke="none" points="350,-139.75 166,-139.75 166,-98 350,-98 350,-139.75"/>
<text xml:space="preserve" text-anchor="start" x="174" y="-125.3" font-family="Consolas" font-size="11.00">anonymous_namespace</text>
<text xml:space="preserve" text-anchor="start" x="174" y="-114.05" font-family="Consolas" font-size="11.00">{Log::cpp}::LogCore</text>
<text xml:space="preserve" text-anchor="middle" x="258" y="-102.8" font-family="Consolas" font-size="11.00">::getCurrentDirFromSettings_</text>
</a>
</g>
</g>
<!-- Node1&#45;&gt;Node2 -->
<g id="edge1_Node000001_Node000002" class="edge">
<title>Node1&#45;&gt;Node2</title>
<g id="a_edge1_Node000001_Node000002"><a xlink:title=" ">
<path fill="none" stroke="#63b8ff" d="M488.58,-80.48C448.04,-87.26 394.84,-96.16 349.85,-103.68"/>
<polygon fill="#63b8ff" stroke="#63b8ff" points="493.26,-79.7 488.7,-82.74 492,-79.91 488.33,-80.52 488.33,-80.52 488.33,-80.52 492,-79.91 487.96,-78.3 493.26,-79.7"/>
</a>
</g>
</g>
<!-- Node3 -->
<g id="Node000003" class="node">
<title>Node3</title>
<g id="a_Node000003"><a xlink:href="../../d0/d61/classanonymous__namespace_02_log_8cpp_03_1_1_log_core.html#aec0c49d654f69ba240eded5dee4bbc8b" target="_top" xlink:title=" ">
<polygon fill="white" stroke="none" points="130,-120.75 0,-120.75 0,-79 130,-79 130,-120.75"/>
<text xml:space="preserve" text-anchor="start" x="8" y="-106.3" font-family="Consolas" font-size="11.00">anonymous_namespace</text>
<text xml:space="preserve" text-anchor="start" x="8" y="-95.05" font-family="Consolas" font-size="11.00">{Log::cpp}::LogCore</text>
<text xml:space="preserve" text-anchor="middle" x="65" y="-83.8" font-family="Consolas" font-size="11.00">::getFutureDir_</text>
</a>
</g>
</g>
<!-- Node1&#45;&gt;Node3 -->
<g id="edge3_Node000001_Node000003" class="edge">
<title>Node1&#45;&gt;Node3</title>
<g id="a_edge3_Node000001_Node000003"><a xlink:title=" ">
<path fill="none" stroke="#63b8ff" d="M380.06,-76.11C313.18,-79.12 235.96,-83.31 166,-88.88 154.33,-89.8 141.93,-91 129.96,-92.26"/>
<polygon fill="#63b8ff" stroke="#63b8ff" points="384.87,-75.9 379.98,-78.37 383.59,-75.96 379.88,-76.12 379.88,-76.12 379.88,-76.12 383.59,-75.96 379.77,-73.87 384.87,-75.9"/>
</a>
</g>
</g>
<!-- Node4 -->
<g id="Node000004" class="node">
<title>Node4</title>
<g id="a_Node000004"><a xlink:href="../../d0/d61/classanonymous__namespace_02_log_8cpp_03_1_1_log_core.html#af4273441409e88d841adc86974b49c75" target="_top" xlink:title=" ">
<polygon fill="white" stroke="none" points="329,-41.75 187,-41.75 187,0 329,0 329,-41.75"/>
<text xml:space="preserve" text-anchor="start" x="195" y="-27.3" font-family="Consolas" font-size="11.00">anonymous_namespace</text>
<text xml:space="preserve" text-anchor="start" x="195" y="-16.05" font-family="Consolas" font-size="11.00">{Log::cpp}::LogCore</text>
<text xml:space="preserve" text-anchor="middle" x="258" y="-4.8" font-family="Consolas" font-size="11.00">::getStartupSettings_</text>
</a>
</g>
</g>
<!-- Node1&#45;&gt;Node4 -->
<g id="edge4_Node000001_Node000004" class="edge">
<title>Node1&#45;&gt;Node4</title>
<g id="a_edge4_Node000001_Node000004"><a xlink:title=" ">
<path fill="none" stroke="#63b8ff" d="M488.52,-59.26C441.45,-51.39 377.31,-40.66 328.8,-32.55"/>
<polygon fill="#63b8ff" stroke="#63b8ff" points="493.26,-60.05 487.96,-61.45 492,-59.84 488.33,-59.23 488.33,-59.23 488.33,-59.23 492,-59.84 488.7,-57.01 493.26,-60.05"/>
</a>
</g>
</g>
<!-- Node2&#45;&gt;Node3 -->
<g id="edge2_Node000002_Node000003" class="edge">
<title>Node2&#45;&gt;Node3</title>
<g id="a_edge2_Node000002_Node000003"><a xlink:title=" ">
<path fill="none" stroke="#63b8ff" d="M160.19,-109.24C149.88,-108.22 139.59,-107.2 129.8,-106.22"/>
<polygon fill="#63b8ff" stroke="#63b8ff" points="165.04,-109.73 159.84,-111.47 163.77,-109.6 160.07,-109.23 160.07,-109.23 160.07,-109.23 163.77,-109.6 160.29,-106.99 165.04,-109.73"/>
</a>
</g>
</g>
<!-- Node5 -->
<g id="Node000005" class="node">
<title>Node5</title>
<g id="a_Node000005"><a xlink:href="../../d0/d61/classanonymous__namespace_02_log_8cpp_03_1_1_log_core.html#ac81e3393bfb7545e17c9fd8ea4cb4aa6" target="_top" xlink:title=" ">
<polygon fill="white" stroke="none" points="130,-41.75 0,-41.75 0,0 130,0 130,-41.75"/>
<text xml:space="preserve" text-anchor="start" x="8" y="-27.3" font-family="Consolas" font-size="11.00">anonymous_namespace</text>
<text xml:space="preserve" text-anchor="start" x="8" y="-16.05" font-family="Consolas" font-size="11.00">{Log::cpp}::LogCore</text>
<text xml:space="preserve" text-anchor="middle" x="65" y="-4.8" font-family="Consolas" font-size="11.00">::LogCore</text>
</a>
</g>
</g>
<!-- Node4&#45;&gt;Node5 -->
<g id="edge5_Node000004_Node000005" class="edge">
<title>Node4&#45;&gt;Node5</title>
<g id="a_edge5_Node000004_Node000005"><a xlink:title=" ">
<path fill="none" stroke="#63b8ff" d="M181.03,-20.88C164.08,-20.88 146.28,-20.88 129.87,-20.88"/>
<polygon fill="#63b8ff" stroke="#63b8ff" points="186.02,-20.88 181.02,-23.13 184.73,-20.88 181.02,-20.88 181.02,-20.88 181.02,-20.88 184.73,-20.88 181.02,-18.63 186.02,-20.88"/>
</a>
</g>
</g>
</g>
</svg>
