<?xml version="1.0" encoding="UTF-8" standalone="no"?>
<!DOCTYPE svg PUBLIC "-//W3C//DTD SVG 1.1//EN"
 "http://www.w3.org/Graphics/SVG/1.1/DTD/svg11.dtd">
<!-- Generated by graphviz version 14.0.0 (20250921.2048)
 -->
<!-- Title: anonymous_namespace{Log::cpp}::LogCore::startWriting_ Pages: 1 -->
<svg width="978pt" height="410pt"
 viewBox="0.00 0.00 978.00 410.00" xmlns="http://www.w3.org/2000/svg" xmlns:xlink="http://www.w3.org/1999/xlink">
<g id="graph0" class="graph" transform="scale(1 1) rotate(0) translate(4 405.75)">
<title>anonymous_namespace{Log::cpp}::LogCore::startWriting_</title>
<!-- Node1 -->
<g id="Node000001" class="node">
<title>Node1</title>
<g id="a_Node000001"><a xlink:title=" ">
<polygon fill="#999999" stroke="none" points="334,-185.5 0,-185.5 0,-166.25 334,-166.25 334,-185.5"/>
<text xml:space="preserve" text-anchor="start" x="8" y="-172.05" font-family="Consolas" font-weight="bold" font-size="11.00">anonymous_namespace{Log::cpp}::LogCore::startWriting_</text>
</a>
</g>
</g>
<!-- Node2 -->
<g id="Node000002" class="node">
<title>Node2</title>
<g id="a_Node000002"><a xlink:href="../../d0/d61/classanonymous__namespace_02_log_8cpp_03_1_1_log_core.html#ada2216e6d5c8ed9150550651e529c9a7" target="_top" xlink:title=" ">
<polygon fill="white" stroke="none" points="527,-221.75 397,-221.75 397,-180 527,-180 527,-221.75"/>
<text xml:space="preserve" text-anchor="start" x="405" y="-207.3" font-family="Consolas" font-size="11.00">anonymous_namespace</text>
<text xml:space="preserve" text-anchor="start" x="405" y="-196.05" font-family="Consolas" font-size="11.00">{Log::cpp}::LogCore</text>
<text xml:space="preserve" text-anchor="middle" x="462" y="-184.8" font-family="Consolas" font-size="11.00">::FormatOneLine_</text>
</a>
</g>
</g>
<!-- Node1&#45;&gt;Node2 -->
<g id="edge1_Node000001_Node000002" class="edge">
<title>Node1&#45;&gt;Node2</title>
<g id="a_edge1_Node000001_Node000002"><a xlink:title=" ">
<path fill="none" stroke="#63b8ff" d="M280.44,-185.47C317.67,-188.65 357.99,-192.09 391.07,-194.91"/>
<polygon fill="#63b8ff" stroke="#63b8ff" points="395.95,-195.32 390.78,-197.14 394.67,-195.22 390.97,-194.9 390.97,-194.9 390.97,-194.9 394.67,-195.22 391.16,-192.66 395.95,-195.32"/>
</a>
</g>
</g>
<!-- Node11 -->
<g id="Node000011" class="node">
<title>Node11</title>
<g id="a_Node000011"><a xlink:href="../../dc/dba/namespacenpi_1_1app.html#a30b5245afa890e98f19f43c58f29e633" target="_top" xlink:title="Windows native fatal error message box.">
<polygon fill="white" stroke="none" points="554,-161.5 370,-161.5 370,-142.25 554,-142.25 554,-161.5"/>
<text xml:space="preserve" text-anchor="middle" x="462" y="-147.05" font-family="Consolas" font-size="11.00">npi::app::nativeFatalMessage</text>
</a>
</g>
</g>
<!-- Node1&#45;&gt;Node11 -->
<g id="edge10_Node000001_Node000011" class="edge">
<title>Node1&#45;&gt;Node11</title>
<g id="a_edge10_Node000001_Node000011"><a xlink:title=" ">
<path fill="none" stroke="#63b8ff" d="M285.49,-166.25C311.57,-164.11 338.94,-161.87 364.1,-159.81"/>
<polygon fill="#63b8ff" stroke="#63b8ff" points="368.89,-159.42 364.09,-162.07 367.61,-159.52 363.9,-159.83 363.9,-159.83 363.9,-159.83 367.61,-159.52 363.72,-157.59 368.89,-159.42"/>
</a>
</g>
</g>
<!-- Node3 -->
<g id="Node000003" class="node">
<title>Node3</title>
<g id="a_Node000003"><a xlink:href="../../dc/d58/structanonymous__namespace_02_log_8cpp_03_1_1_log_core_1_1_fixed_strings.html#a3a000d7c183750a49f0cfce9fa6926a3" target="_top" xlink:title=" ">
<polygon fill="white" stroke="none" points="804,-401.75 590,-401.75 590,-360 804,-360 804,-401.75"/>
<text xml:space="preserve" text-anchor="start" x="598" y="-387.3" font-family="Consolas" font-size="11.00">anonymous_namespace</text>
<text xml:space="preserve" text-anchor="start" x="598" y="-376.05" font-family="Consolas" font-size="11.00">{Log::cpp}::LogCore</text>
<text xml:space="preserve" text-anchor="middle" x="697" y="-364.8" font-family="Consolas" font-size="11.00">::FixedStrings::appendCategoryTo_</text>
</a>
</g>
</g>
<!-- Node2&#45;&gt;Node3 -->
<g id="edge2_Node000002_Node000003" class="edge">
<title>Node2&#45;&gt;Node3</title>
<g id="a_edge2_Node000002_Node000003"><a xlink:title=" ">
<path fill="none" stroke="#63b8ff" d="M474.96,-221.73C494.7,-254.27 537.21,-316.89 590,-350.88 593.65,-353.22 597.48,-355.39 601.44,-357.39"/>
<polygon fill="#63b8ff" stroke="#63b8ff" points="605.81,-359.49 600.33,-359.36 604.66,-358.94 601.3,-357.33 601.3,-357.33 601.3,-357.33 604.66,-358.94 602.28,-355.3 605.81,-359.49"/>
</a>
</g>
</g>
<!-- Node4 -->
<g id="Node000004" class="node">
<title>Node4</title>
<g id="a_Node000004"><a xlink:href="../../d0/d61/classanonymous__namespace_02_log_8cpp_03_1_1_log_core.html#ab122b241533434653fbd519339edfa38" target="_top" xlink:title=" ">
<polygon fill="white" stroke="none" points="762,-341.75 632,-341.75 632,-300 762,-300 762,-341.75"/>
<text xml:space="preserve" text-anchor="start" x="640" y="-327.3" font-family="Consolas" font-size="11.00">anonymous_namespace</text>
<text xml:space="preserve" text-anchor="start" x="640" y="-316.05" font-family="Consolas" font-size="11.00">{Log::cpp}::LogCore</text>
<text xml:space="preserve" text-anchor="middle" x="697" y="-304.8" font-family="Consolas" font-size="11.00">::AppendDateTime_</text>
</a>
</g>
</g>
<!-- Node2&#45;&gt;Node4 -->
<g id="edge3_Node000002_Node000004" class="edge">
<title>Node2&#45;&gt;Node4</title>
<g id="a_edge3_Node000002_Node000004"><a xlink:title=" ">
<path fill="none" stroke="#63b8ff" d="M486.73,-221.48C511.14,-241.73 550.99,-272.22 590,-290.88 601.45,-296.35 614.08,-301 626.51,-304.89"/>
<polygon fill="#63b8ff" stroke="#63b8ff" points="631.04,-306.27 625.6,-306.96 629.82,-305.89 626.26,-304.81 626.26,-304.81 626.26,-304.81 629.82,-305.89 626.91,-302.66 631.04,-306.27"/>
</a>
</g>
</g>
<!-- Node6 -->
<g id="Node000006" class="node">
<title>Node6</title>
<g id="a_Node000006"><a xlink:href="../../d0/d61/classanonymous__namespace_02_log_8cpp_03_1_1_log_core.html#ab8061264281dba381f5b1d06ef4d969c" target="_top" xlink:title=" ">
<polygon fill="white" stroke="none" points="762,-281.75 632,-281.75 632,-240 762,-240 762,-281.75"/>
<text xml:space="preserve" text-anchor="start" x="640" y="-267.3" font-family="Consolas" font-size="11.00">anonymous_namespace</text>
<text xml:space="preserve" text-anchor="start" x="640" y="-256.05" font-family="Consolas" font-size="11.00">{Log::cpp}::LogCore</text>
<text xml:space="preserve" text-anchor="middle" x="697" y="-244.8" font-family="Consolas" font-size="11.00">::AppendDelta_</text>
</a>
</g>
</g>
<!-- Node2&#45;&gt;Node6 -->
<g id="edge5_Node000002_Node000006" class="edge">
<title>Node2&#45;&gt;Node6</title>
<g id="a_edge5_Node000002_Node000006"><a xlink:title=" ">
<path fill="none" stroke="#63b8ff" d="M526.98,-217.35C557.8,-225.29 594.82,-234.82 626.35,-242.94"/>
<polygon fill="#63b8ff" stroke="#63b8ff" points="630.99,-244.13 625.58,-245.07 629.75,-243.81 626.14,-242.89 626.14,-242.89 626.14,-242.89 629.75,-243.81 626.71,-240.71 630.99,-244.13"/>
</a>
</g>
</g>
<!-- Node7 -->
<g id="Node000007" class="node">
<title>Node7</title>
<g id="a_Node000007"><a xlink:href="../../dc/d58/structanonymous__namespace_02_log_8cpp_03_1_1_log_core_1_1_fixed_strings.html#a10410013e62e5adfa34cf8b32ca58ff1" target="_top" xlink:title=" ">
<polygon fill="white" stroke="none" points="804,-221.75 590,-221.75 590,-180 804,-180 804,-221.75"/>
<text xml:space="preserve" text-anchor="start" x="598" y="-207.3" font-family="Consolas" font-size="11.00">anonymous_namespace</text>
<text xml:space="preserve" text-anchor="start" x="598" y="-196.05" font-family="Consolas" font-size="11.00">{Log::cpp}::LogCore</text>
<text xml:space="preserve" text-anchor="middle" x="697" y="-184.8" font-family="Consolas" font-size="11.00">::FixedStrings::appendFileNameTo_</text>
</a>
</g>
</g>
<!-- Node2&#45;&gt;Node7 -->
<g id="edge6_Node000002_Node000007" class="edge">
<title>Node2&#45;&gt;Node7</title>
<g id="a_edge6_Node000002_Node000007"><a xlink:title=" ">
<path fill="none" stroke="#63b8ff" d="M526.98,-200.88C544.68,-200.88 564.43,-200.88 584.01,-200.88"/>
<polygon fill="#63b8ff" stroke="#63b8ff" points="588.86,-200.88 583.86,-203.13 587.58,-200.88 583.86,-200.88 583.86,-200.88 583.86,-200.88 587.58,-200.88 583.86,-198.63 588.86,-200.88"/>
</a>
</g>
</g>
<!-- Node8 -->
<g id="Node000008" class="node">
<title>Node8</title>
<g id="a_Node000008"><a xlink:href="../../dc/d58/structanonymous__namespace_02_log_8cpp_03_1_1_log_core_1_1_fixed_strings.html#a32b722c7a4c1269ef2d88bbafd0eb59c" target="_top" xlink:title=" ">
<polygon fill="white" stroke="none" points="804,-161.75 590,-161.75 590,-120 804,-120 804,-161.75"/>
<text xml:space="preserve" text-anchor="start" x="598" y="-147.3" font-family="Consolas" font-size="11.00">anonymous_namespace</text>
<text xml:space="preserve" text-anchor="start" x="598" y="-136.05" font-family="Consolas" font-size="11.00">{Log::cpp}::LogCore</text>
<text xml:space="preserve" text-anchor="middle" x="697" y="-124.8" font-family="Consolas" font-size="11.00">::FixedStrings::appendFuncNameTo_</text>
</a>
</g>
</g>
<!-- Node2&#45;&gt;Node8 -->
<g id="edge7_Node000002_Node000008" class="edge">
<title>Node2&#45;&gt;Node8</title>
<g id="a_edge7_Node000002_Node000008"><a xlink:title=" ">
<path fill="none" stroke="#63b8ff" d="M526.98,-184.4C552.38,-177.86 582,-170.23 609.29,-163.2"/>
<polygon fill="#63b8ff" stroke="#63b8ff" points="613.89,-162.02 609.61,-165.44 612.65,-162.34 609.05,-163.27 609.05,-163.27 609.05,-163.27 612.65,-162.34 608.49,-161.09 613.89,-162.02"/>
</a>
</g>
</g>
<!-- Node9 -->
<g id="Node000009" class="node">
<title>Node9</title>
<g id="a_Node000009"><a xlink:href="../../d0/d61/classanonymous__namespace_02_log_8cpp_03_1_1_log_core.html#a4dda6a0306f72401c363c4ef2e7d1611" target="_top" xlink:title=" ">
<polygon fill="white" stroke="none" points="762,-101.75 632,-101.75 632,-60 762,-60 762,-101.75"/>
<text xml:space="preserve" text-anchor="start" x="640" y="-87.3" font-family="Consolas" font-size="11.00">anonymous_namespace</text>
<text xml:space="preserve" text-anchor="start" x="640" y="-76.05" font-family="Consolas" font-size="11.00">{Log::cpp}::LogCore</text>
<text xml:space="preserve" text-anchor="middle" x="697" y="-64.8" font-family="Consolas" font-size="11.00">::AppendLevel_</text>
</a>
</g>
</g>
<!-- Node2&#45;&gt;Node9 -->
<g id="edge8_Node000002_Node000009" class="edge">
<title>Node2&#45;&gt;Node9</title>
<g id="a_edge8_Node000002_Node000009"><a xlink:title=" ">
<path fill="none" stroke="#63b8ff" d="M526.69,-186.4C536.45,-182.4 545.94,-177.32 554,-170.88 578.29,-151.46 565.3,-129.77 590,-110.88 600.6,-102.76 613.31,-96.84 626.18,-92.52"/>
<polygon fill="#63b8ff" stroke="#63b8ff" points="630.93,-91.02 626.84,-94.67 629.71,-91.41 626.16,-92.53 626.16,-92.53 626.16,-92.53 629.71,-91.41 625.48,-90.38 630.93,-91.02"/>
</a>
</g>
</g>
<!-- Node10 -->
<g id="Node000010" class="node">
<title>Node10</title>
<g id="a_Node000010"><a xlink:href="../../d0/d61/classanonymous__namespace_02_log_8cpp_03_1_1_log_core.html#aa885eb55dee8680b48150be9c21ee5f9" target="_top" xlink:title=" ">
<polygon fill="white" stroke="none" points="762,-41.75 632,-41.75 632,0 762,0 762,-41.75"/>
<text xml:space="preserve" text-anchor="start" x="640" y="-27.3" font-family="Consolas" font-size="11.00">anonymous_namespace</text>
<text xml:space="preserve" text-anchor="start" x="640" y="-16.05" font-family="Consolas" font-size="11.00">{Log::cpp}::LogCore</text>
<text xml:space="preserve" text-anchor="middle" x="697" y="-4.8" font-family="Consolas" font-size="11.00">::AppendStr_</text>
</a>
</g>
</g>
<!-- Node2&#45;&gt;Node10 -->
<g id="edge9_Node000002_Node000010" class="edge">
<title>Node2&#45;&gt;Node10</title>
<g id="a_edge9_Node000002_Node000010"><a xlink:title=" ">
<path fill="none" stroke="#63b8ff" d="M526.78,-188.63C536.88,-184.37 546.46,-178.62 554,-170.88 592.84,-130.97 550.32,-89.94 590,-50.88 600.02,-41.01 613.02,-34.34 626.47,-29.84"/>
<polygon fill="#63b8ff" stroke="#63b8ff" points="631.09,-28.4 626.98,-32.04 629.87,-28.78 626.31,-29.89 626.31,-29.89 626.31,-29.89 629.87,-28.78 625.65,-27.74 631.09,-28.4"/>
</a>
</g>
</g>
<!-- Node5 -->
<g id="Node000005" class="node">
<title>Node5</title>
<g id="a_Node000005"><a xlink:href="../../d0/d61/classanonymous__namespace_02_log_8cpp_03_1_1_log_core.html#a2a46463a402dc1ad9518d5d7dbfea87d" target="_top" xlink:title=" ">
<polygon fill="white" stroke="none" points="970,-341.75 840,-341.75 840,-300 970,-300 970,-341.75"/>
<text xml:space="preserve" text-anchor="start" x="848" y="-327.3" font-family="Consolas" font-size="11.00">anonymous_namespace</text>
<text xml:space="preserve" text-anchor="start" x="848" y="-316.05" font-family="Consolas" font-size="11.00">{Log::cpp}::LogCore</text>
<text xml:space="preserve" text-anchor="middle" x="905" y="-304.8" font-family="Consolas" font-size="11.00">::AppendChar_</text>
</a>
</g>
</g>
<!-- Node4&#45;&gt;Node5 -->
<g id="edge4_Node000004_Node000005" class="edge">
<title>Node4&#45;&gt;Node5</title>
<g id="a_edge4_Node000004_Node000005"><a xlink:title=" ">
<path fill="none" stroke="#63b8ff" d="M761.77,-320.88C784.66,-320.88 810.58,-320.88 833.97,-320.88"/>
<polygon fill="#63b8ff" stroke="#63b8ff" points="838.96,-320.88 833.96,-323.13 837.68,-320.88 833.96,-320.88 833.96,-320.88 833.96,-320.88 837.68,-320.88 833.96,-318.63 838.96,-320.88"/>
</a>
</g>
</g>
</g>
</svg>
