<?xml version="1.0" encoding="UTF-8" standalone="no"?>
<!DOCTYPE svg PUBLIC "-//W3C//DTD SVG 1.1//EN"
 "http://www.w3.org/Graphics/SVG/1.1/DTD/svg11.dtd">
<!-- Generated by graphviz version 14.0.0 (20250921.2048)
 -->
<!-- Title: anonymous_namespace{Log::cpp}::LogCore::AppendDateTime_ Pages: 1 -->
<svg width="520pt" height="50pt"
 viewBox="0.00 0.00 520.00 50.00" xmlns="http://www.w3.org/2000/svg" xmlns:xlink="http://www.w3.org/1999/xlink">
<g id="graph0" class="graph" transform="scale(1 1) rotate(0) translate(4 45.75)">
<title>anonymous_namespace{Log::cpp}::LogCore::AppendDateTime_</title>
<!-- Node1 -->
<g id="Node000001" class="node">
<title>Node1</title>
<g id="a_Node000001"><a xlink:title=" ">
<polygon fill="#999999" stroke="none" points="346,-30.5 0,-30.5 0,-11.25 346,-11.25 346,-30.5"/>
<text xml:space="preserve" text-anchor="start" x="8" y="-17.05" font-family="Consolas" font-weight="bold" font-size="11.00">anonymous_namespace{Log::cpp}::LogCore::AppendDateTime_</text>
</a>
</g>
</g>
<!-- Node2 -->
<g id="Node000002" class="node">
<title>Node2</title>
<g id="a_Node000002"><a xlink:href="../../d0/d61/classanonymous__namespace_02_log_8cpp_03_1_1_log_core.html#a2a46463a402dc1ad9518d5d7dbfea87d" target="_top" xlink:title=" ">
<polygon fill="white" stroke="none" points="512,-41.75 382,-41.75 382,0 512,0 512,-41.75"/>
<text xml:space="preserve" text-anchor="start" x="390" y="-27.3" font-family="Consolas" font-size="11.00">anonymous_namespace</text>
<text xml:space="preserve" text-anchor="start" x="390" y="-16.05" font-family="Consolas" font-size="11.00">{Log::cpp}::LogCore</text>
<text xml:space="preserve" text-anchor="middle" x="447" y="-4.8" font-family="Consolas" font-size="11.00">::AppendChar_</text>
</a>
</g>
</g>
<!-- Node1&#45;&gt;Node2 -->
<g id="edge1_Node000001_Node000002" class="edge">
<title>Node1&#45;&gt;Node2</title>
<g id="a_edge1_Node000001_Node000002"><a xlink:title=" ">
<path fill="none" stroke="#63b8ff" d="M345.88,-20.88C356.29,-20.88 366.39,-20.88 375.93,-20.88"/>
<polygon fill="#63b8ff" stroke="#63b8ff" points="380.9,-20.88 375.9,-23.13 379.62,-20.88 375.9,-20.88 375.9,-20.88 375.9,-20.88 379.62,-20.88 375.9,-18.63 380.9,-20.88"/>
</a>
</g>
</g>
</g>
</svg>
