<?xml version="1.0" encoding="UTF-8" standalone="no"?>
<!DOCTYPE svg PUBLIC "-//W3C//DTD SVG 1.1//EN"
 "http://www.w3.org/Graphics/SVG/1.1/DTD/svg11.dtd">
<!-- Generated by graphviz version 14.0.0 (20250921.2048)
 -->
<!-- Title: anonymous_namespace{Log::cpp}::LogCore::AppendDateTime_ Pages: 1 -->
<svg width="852pt" height="110pt"
 viewBox="0.00 0.00 852.00 110.00" xmlns="http://www.w3.org/2000/svg" xmlns:xlink="http://www.w3.org/1999/xlink">
<g id="graph0" class="graph" transform="scale(1 1) rotate(0) translate(4 105.75)">
<title>anonymous_namespace{Log::cpp}::LogCore::AppendDateTime_</title>
<!-- Node1 -->
<g id="Node000001" class="node">
<title>Node1</title>
<g id="a_Node000001"><a xlink:title=" ">
<polygon fill="#999999" stroke="none" points="844,-60.5 498,-60.5 498,-41.25 844,-41.25 844,-60.5"/>
<text xml:space="preserve" text-anchor="start" x="506" y="-47.05" font-family="Consolas" font-weight="bold" font-size="11.00">anonymous_namespace{Log::cpp}::LogCore::AppendDateTime_</text>
</a>
</g>
</g>
<!-- Node2 -->
<g id="Node000002" class="node">
<title>Node2</title>
<g id="a_Node000002"><a xlink:href="../../d0/d61/classanonymous__namespace_02_log_8cpp_03_1_1_log_core.html#ada2216e6d5c8ed9150550651e529c9a7" target="_top" xlink:title=" ">
<polygon fill="white" stroke="none" points="462,-71.75 332,-71.75 332,-30 462,-30 462,-71.75"/>
<text xml:space="preserve" text-anchor="start" x="340" y="-57.3" font-family="Consolas" font-size="11.00">anonymous_namespace</text>
<text xml:space="preserve" text-anchor="start" x="340" y="-46.05" font-family="Consolas" font-size="11.00">{Log::cpp}::LogCore</text>
<text xml:space="preserve" text-anchor="middle" x="397" y="-34.8" font-family="Consolas" font-size="11.00">::FormatOneLine_</text>
</a>
</g>
</g>
<!-- Node1&#45;&gt;Node2 -->
<g id="edge1_Node000001_Node000002" class="edge">
<title>Node1&#45;&gt;Node2</title>
<g id="a_edge1_Node000001_Node000002"><a xlink:title=" ">
<path fill="none" stroke="#63b8ff" d="M491.92,-50.88C481.44,-50.88 471.34,-50.88 461.88,-50.88"/>
<polygon fill="#63b8ff" stroke="#63b8ff" points="496.91,-50.88 491.91,-53.13 495.62,-50.88 491.91,-50.88 491.91,-50.88 491.91,-50.88 495.62,-50.88 491.91,-48.63 496.91,-50.88"/>
</a>
</g>
</g>
<!-- Node3 -->
<g id="Node000003" class="node">
<title>Node3</title>
<g id="a_Node000003"><a xlink:href="../../d0/d61/classanonymous__namespace_02_log_8cpp_03_1_1_log_core.html#aeed3b8154b32c0c5cc56351c00ec3783" target="_top" xlink:title=" ">
<polygon fill="white" stroke="none" points="296,-41.75 166,-41.75 166,0 296,0 296,-41.75"/>
<text xml:space="preserve" text-anchor="start" x="174" y="-27.3" font-family="Consolas" font-size="11.00">anonymous_namespace</text>
<text xml:space="preserve" text-anchor="start" x="174" y="-16.05" font-family="Consolas" font-size="11.00">{Log::cpp}::LogCore</text>
<text xml:space="preserve" text-anchor="middle" x="231" y="-4.8" font-family="Consolas" font-size="11.00">::startDisplay_</text>
</a>
</g>
</g>
<!-- Node2&#45;&gt;Node3 -->
<g id="edge2_Node000002_Node000003" class="edge">
<title>Node2&#45;&gt;Node3</title>
<g id="a_edge2_Node000002_Node000003"><a xlink:title=" ">
<path fill="none" stroke="#63b8ff" d="M326.24,-38.11C316.2,-36.28 305.9,-34.39 295.97,-32.58"/>
<polygon fill="#63b8ff" stroke="#63b8ff" points="330.93,-38.97 325.6,-40.28 329.66,-38.74 326.01,-38.07 326.01,-38.07 326.01,-38.07 329.66,-38.74 326.41,-35.86 330.93,-38.97"/>
</a>
</g>
</g>
<!-- Node6 -->
<g id="Node000006" class="node">
<title>Node6</title>
<g id="a_Node000006"><a xlink:href="../../d0/d61/classanonymous__namespace_02_log_8cpp_03_1_1_log_core.html#ae7262809081fcc0c21b93449f56b8c8b" target="_top" xlink:title=" ">
<polygon fill="white" stroke="none" points="296,-101.75 166,-101.75 166,-60 296,-60 296,-101.75"/>
<text xml:space="preserve" text-anchor="start" x="174" y="-87.3" font-family="Consolas" font-size="11.00">anonymous_namespace</text>
<text xml:space="preserve" text-anchor="start" x="174" y="-76.05" font-family="Consolas" font-size="11.00">{Log::cpp}::LogCore</text>
<text xml:space="preserve" text-anchor="middle" x="231" y="-64.8" font-family="Consolas" font-size="11.00">::startWriting_</text>
</a>
</g>
</g>
<!-- Node2&#45;&gt;Node6 -->
<g id="edge5_Node000002_Node000006" class="edge">
<title>Node2&#45;&gt;Node6</title>
<g id="a_edge5_Node000002_Node000006"><a xlink:title=" ">
<path fill="none" stroke="#63b8ff" d="M326.24,-63.64C316.2,-65.47 305.9,-67.36 295.97,-69.17"/>
<polygon fill="#63b8ff" stroke="#63b8ff" points="330.93,-62.78 326.41,-65.89 329.66,-63.01 326.01,-63.68 326.01,-63.68 326.01,-63.68 329.66,-63.01 325.6,-61.47 330.93,-62.78"/>
</a>
</g>
</g>
<!-- Node4 -->
<g id="Node000004" class="node">
<title>Node4</title>
<g id="a_Node000004"><a xlink:href="../../d0/d61/classanonymous__namespace_02_log_8cpp_03_1_1_log_core.html#ac81e3393bfb7545e17c9fd8ea4cb4aa6" target="_top" xlink:title=" ">
<polygon fill="white" stroke="none" points="130,-101.75 0,-101.75 0,-60 130,-60 130,-101.75"/>
<text xml:space="preserve" text-anchor="start" x="8" y="-87.3" font-family="Consolas" font-size="11.00">anonymous_namespace</text>
<text xml:space="preserve" text-anchor="start" x="8" y="-76.05" font-family="Consolas" font-size="11.00">{Log::cpp}::LogCore</text>
<text xml:space="preserve" text-anchor="middle" x="65" y="-64.8" font-family="Consolas" font-size="11.00">::LogCore</text>
</a>
</g>
</g>
<!-- Node3&#45;&gt;Node4 -->
<g id="edge3_Node000003_Node000004" class="edge">
<title>Node3&#45;&gt;Node4</title>
<g id="a_edge3_Node000003_Node000004"><a xlink:title=" ">
<path fill="none" stroke="#63b8ff" d="M167.32,-43.81C152.68,-49.16 137.17,-54.84 122.8,-60.1"/>
<polygon fill="#63b8ff" stroke="#63b8ff" points="171.96,-42.11 168.03,-45.94 170.75,-42.55 167.26,-43.83 167.26,-43.83 167.26,-43.83 170.75,-42.55 166.49,-41.72 171.96,-42.11"/>
</a>
</g>
</g>
<!-- Node5 -->
<g id="Node000005" class="node">
<title>Node5</title>
<g id="a_Node000005"><a xlink:href="../../d0/d61/classanonymous__namespace_02_log_8cpp_03_1_1_log_core.html#a855cdb40c6d66c2c483ae13374454277" target="_top" xlink:title=" ">
<polygon fill="white" stroke="none" points="130,-41.75 0,-41.75 0,0 130,0 130,-41.75"/>
<text xml:space="preserve" text-anchor="start" x="8" y="-27.3" font-family="Consolas" font-size="11.00">anonymous_namespace</text>
<text xml:space="preserve" text-anchor="start" x="8" y="-16.05" font-family="Consolas" font-size="11.00">{Log::cpp}::LogCore</text>
<text xml:space="preserve" text-anchor="middle" x="65" y="-4.8" font-family="Consolas" font-size="11.00">::openConsole_</text>
</a>
</g>
</g>
<!-- Node3&#45;&gt;Node5 -->
<g id="edge4_Node000003_Node000005" class="edge">
<title>Node3&#45;&gt;Node5</title>
<g id="a_edge4_Node000003_Node000005"><a xlink:title=" ">
<path fill="none" stroke="#63b8ff" d="M159.96,-20.88C150,-20.88 139.81,-20.88 129.97,-20.88"/>
<polygon fill="#63b8ff" stroke="#63b8ff" points="164.91,-20.88 159.91,-23.13 163.62,-20.88 159.91,-20.88 159.91,-20.88 159.91,-20.88 163.62,-20.88 159.91,-18.63 164.91,-20.88"/>
</a>
</g>
</g>
<!-- Node6&#45;&gt;Node4 -->
<g id="edge6_Node000006_Node000004" class="edge">
<title>Node6&#45;&gt;Node4</title>
<g id="a_edge6_Node000006_Node000004"><a xlink:title=" ">
<path fill="none" stroke="#63b8ff" d="M159.96,-80.88C150,-80.88 139.81,-80.88 129.97,-80.88"/>
<polygon fill="#63b8ff" stroke="#63b8ff" points="164.91,-80.88 159.91,-83.13 163.62,-80.88 159.91,-80.88 159.91,-80.88 159.91,-80.88 163.62,-80.88 159.91,-78.63 164.91,-80.88"/>
</a>
</g>
</g>
</g>
</svg>
