<?xml version="1.0" encoding="UTF-8" standalone="no"?>
<!DOCTYPE svg PUBLIC "-//W3C//DTD SVG 1.1//EN"
 "http://www.w3.org/Graphics/SVG/1.1/DTD/svg11.dtd">
<!-- Generated by graphviz version 14.0.0 (20250921.2048)
 -->
<!-- Title: anonymous_namespace{Log::cpp}::LogCore::startImpLogProcess_ Pages: 1 -->
<!--zoomable 154 -->

<svg id="main" version="1.1" xmlns="http://www.w3.org/2000/svg" xmlns:xlink="http://www.w3.org/1999/xlink" xml:space="preserve" onload="init(evt)">

<style type="text/css"><![CDATA[
.node, .edge {opacity: 0.7;}
.node.selected, .edge.selected {opacity: 1;}
.edge:hover path { stroke: red; }
.edge:hover polygon { stroke: red; fill: red; }
]]></style>

<defs>
  <circle id="rim" cx="0" cy="0" r="7"/>
  <circle id="rim2" cx="0" cy="0" r="3.5"/>
  <g id="zoomPlus">
    <use xlink:href="#rim" fill="#404040"><set attributeName="fill" to="#808080" begin="zoomplus.mouseover" end="zoomplus.mouseout"/></use>
    <path d="M-4,0h8M0,-4v8" fill="none" stroke="white" stroke-width="1.5" pointer-events="none"/>
  </g>
  <g id="zoomMin">
    <use xlink:href="#rim" fill="#404040"><set attributeName="fill" to="#808080" begin="zoomminus.mouseover" end="zoomminus.mouseout"/></use>
    <path d="M-4,0h8" fill="none" stroke="white" stroke-width="1.5" pointer-events="none"/>
  </g>
  <g id="arrowUp" transform="translate(30 24)">
    <use xlink:href="#rim"/>
    <path pointer-events="none" fill="none" stroke="white" stroke-width="1.5" d="M0,-3.0v7 M-2.5,-0.5L0,-3.0L2.5,-0.5"/>
  </g>
  <g id="arrowRight" transform="rotate(90) translate(36 -43)">
    <use xlink:href="#rim"/>
    <path pointer-events="none" fill="none" stroke="white" stroke-width="1.5" d="M0,-3.0v7 M-2.5,-0.5L0,-3.0L2.5,-0.5"/>
  </g>
  <g id="arrowDown" transform="rotate(180) translate(-30 -48)">
    <use xlink:href="#rim"/>
    <path pointer-events="none" fill="none" stroke="white" stroke-width="1.5" d="M0,-3.0v7 M-2.5,-0.5L0,-3.0L2.5,-0.5"/>
  </g>
  <g id="arrowLeft" transform="rotate(270) translate(-36 17)">
    <use xlink:href="#rim"/>
    <path pointer-events="none" fill="none" stroke="white" stroke-width="1.5" d="M0,-3.0v7 M-2.5,-0.5L0,-3.0L2.5,-0.5"/>
  </g>
  <g id="resetDef">
    <use xlink:href="#rim2" fill="#404040"><set attributeName="fill" to="#808080" begin="reset.mouseover" end="reset.mouseout"/></use>
  </g>
</defs>
<script type="application/ecmascript">
var viewWidth = 1270;
var viewHeight = 154;
var sectionId = 'dynsection-50';
</script>
<script type="application/ecmascript" xlink:href="../../svg.min.js"/>
<svg id="graph" class="graph">
<g id="viewport">
<title>anonymous_namespace{Log::cpp}::LogCore::startImpLogProcess_</title>
<!-- Node1 -->
<g id="Node000001" class="node">
<title>Node1</title>
<g id="a_Node000001"><a xlink:title=" ">
<polygon fill="#999999" stroke="none" points="370,-106.5 0,-106.5 0,-87.25 370,-87.25 370,-106.5"/>
<text xml:space="preserve" text-anchor="start" x="8" y="-93.05" font-family="Consolas" font-weight="bold" font-size="11.00">anonymous_namespace{Log::cpp}::LogCore::startImpLogProcess_</text>
</a>
</g>
</g>
<!-- Node2 -->
<g id="Node000002" class="node">
<title>Node2</title>
<g id="a_Node000002"><a xlink:href="../../dc/dba/namespacenpi_1_1app.html#a40a2a28831f2f410c995f0657baf6544" target="_top" xlink:title="Absolute application&#45;level ProgramData path.">
<polygon fill="white" stroke="none" points="584,-140.5 406,-140.5 406,-121.25 584,-121.25 584,-140.5"/>
<text xml:space="preserve" text-anchor="middle" x="495" y="-126.05" font-family="Consolas" font-size="11.00">npi::app::appProgramDataDir</text>
</a>
</g>
</g>
<!-- Node1&#45;&gt;Node2 -->
<g id="edge1_Node000001_Node000002" class="edge">
<title>Node1&#45;&gt;Node2</title>
<g id="a_edge1_Node000001_Node000002"><a xlink:title=" ">
<path fill="none" stroke="#63b8ff" d="M273.03,-106.48C312.95,-110.89 360.34,-116.12 400.98,-120.61"/>
<polygon fill="#63b8ff" stroke="#63b8ff" points="405.71,-121.13 400.5,-122.82 404.44,-120.99 400.74,-120.58 400.74,-120.58 400.74,-120.58 404.44,-120.99 400.99,-118.34 405.71,-121.13"/>
</a>
</g>
</g>
<!-- Node6 -->
<g id="Node000006" class="node">
<title>Node6</title>
<g id="a_Node000006"><a xlink:href="../../dd/df2/namespaceanonymous__namespace_02_log_8cpp_03_1_1safe.html#a79b9de042466028e5c2c32bdf0635cb5" target="_top" xlink:title=" ">
<polygon fill="white" stroke="none" points="581,-84.75 409,-84.75 409,-43 581,-43 581,-84.75"/>
<text xml:space="preserve" text-anchor="start" x="417" y="-70.3" font-family="Consolas" font-size="11.00">anonymous_namespace</text>
<text xml:space="preserve" text-anchor="start" x="417" y="-59.05" font-family="Consolas" font-size="11.00">{Log::cpp}::safe::startImp</text>
<text xml:space="preserve" text-anchor="middle" x="495" y="-47.8" font-family="Consolas" font-size="11.00">LogProcess</text>
</a>
</g>
</g>
<!-- Node1&#45;&gt;Node6 -->
<g id="edge5_Node000001_Node000006" class="edge">
<title>Node1&#45;&gt;Node6</title>
<g id="a_edge5_Node000001_Node000006"><a xlink:title=" ">
<path fill="none" stroke="#63b8ff" d="M275.5,-87.29C315.62,-82.99 362.87,-77.92 403.15,-73.61"/>
<polygon fill="#63b8ff" stroke="#63b8ff" points="407.83,-73.11 403.1,-75.88 406.55,-73.24 402.86,-73.64 402.86,-73.64 402.86,-73.64 406.55,-73.24 402.62,-71.4 407.83,-73.11"/>
</a>
</g>
</g>
<!-- Node3 -->
<g id="Node000003" class="node">
<title>Node3</title>
<g id="a_Node000003"><a xlink:href="../../dc/dba/namespacenpi_1_1app.html#a30836be8b9337a64733a6e05594b23c8" target="_top" xlink:title="Absolute organization&#45;level ProgramData path.">
<polygon fill="white" stroke="none" points="798,-140.5 620,-140.5 620,-121.25 798,-121.25 798,-140.5"/>
<text xml:space="preserve" text-anchor="middle" x="709" y="-126.05" font-family="Consolas" font-size="11.00">npi::app::orgProgramDataDir</text>
</a>
</g>
</g>
<!-- Node2&#45;&gt;Node3 -->
<g id="edge2_Node000002_Node000003" class="edge">
<title>Node2&#45;&gt;Node3</title>
<g id="a_edge2_Node000002_Node000003"><a xlink:title=" ">
<path fill="none" stroke="#63b8ff" d="M583.76,-130.88C593.85,-130.88 604.17,-130.88 614.34,-130.88"/>
<polygon fill="#63b8ff" stroke="#63b8ff" points="619.09,-130.88 614.09,-133.13 617.81,-130.88 614.09,-130.88 614.09,-130.88 614.09,-130.88 617.81,-130.88 614.09,-128.63 619.09,-130.88"/>
</a>
</g>
</g>
<!-- Node4 -->
<g id="Node000004" class="node">
<title>Node4</title>
<g id="a_Node000004"><a xlink:href="../../df/d40/namespaceanonymous__namespace_02_meta_paths_8cpp_03.html#a6b23c92ed8a542082d8cddde4bd55b47" target="_top" xlink:title="Resolve base path using Known Folder ID or environment variable fallback.">
<polygon fill="white" stroke="none" points="1024,-146.12 852,-146.12 852,-115.62 1024,-115.62 1024,-146.12"/>
<text xml:space="preserve" text-anchor="start" x="860" y="-131.68" font-family="Consolas" font-size="11.00">anonymous_namespace</text>
<text xml:space="preserve" text-anchor="middle" x="938" y="-120.42" font-family="Consolas" font-size="11.00">{MetaPaths::cpp}::basePath</text>
</a>
</g>
</g>
<!-- Node3&#45;&gt;Node4 -->
<g id="edge3_Node000003_Node000004" class="edge">
<title>Node3&#45;&gt;Node4</title>
<g id="a_edge3_Node000003_Node000004"><a xlink:title=" ">
<path fill="none" stroke="#63b8ff" d="M797.76,-130.88C813.65,-130.88 830.25,-130.88 846.23,-130.88"/>
<polygon fill="#63b8ff" stroke="#63b8ff" points="850.86,-130.88 845.86,-133.13 849.58,-130.88 845.86,-130.88 845.86,-130.88 845.86,-130.88 849.58,-130.88 845.86,-128.63 850.86,-130.88"/>
</a>
</g>
</g>
<!-- Node5 -->
<g id="Node000005" class="node">
<title>Node5</title>
<g id="a_Node000005"><a xlink:href="../../dc/dba/namespacenpi_1_1app.html#a30b5245afa890e98f19f43c58f29e633" target="_top" xlink:title="Windows native fatal error message box.">
<polygon fill="white" stroke="none" points="1262,-118.5 1078,-118.5 1078,-99.25 1262,-99.25 1262,-118.5"/>
<text xml:space="preserve" text-anchor="middle" x="1170" y="-104.05" font-family="Consolas" font-size="11.00">npi::app::nativeFatalMessage</text>
</a>
</g>
</g>
<!-- Node4&#45;&gt;Node5 -->
<g id="edge4_Node000004_Node000005" class="edge">
<title>Node4&#45;&gt;Node5</title>
<g id="a_edge4_Node000004_Node000005"><a xlink:title=" ">
<path fill="none" stroke="#63b8ff" d="M1023.99,-122.75C1039.72,-121.24 1056.25,-119.66 1072.3,-118.12"/>
<polygon fill="#63b8ff" stroke="#63b8ff" points="1076.97,-117.68 1072.21,-120.39 1075.69,-117.8 1071.99,-118.15 1071.99,-118.15 1071.99,-118.15 1075.69,-117.8 1071.78,-115.91 1076.97,-117.68"/>
</a>
</g>
</g>
<!-- Node6&#45;&gt;Node5 -->
<g id="edge6_Node000006_Node000005" class="edge">
<title>Node6&#45;&gt;Node5</title>
<g id="a_edge6_Node000006_Node000005"><a xlink:title=" ">
<path fill="none" stroke="#63b8ff" d="M580.89,-69.55C706.21,-77.93 940.06,-93.57 1071.98,-102.39"/>
<polygon fill="#63b8ff" stroke="#63b8ff" points="1076.97,-102.72 1071.83,-104.63 1075.69,-102.64 1071.98,-102.39 1071.98,-102.39 1071.98,-102.39 1075.69,-102.64 1072.13,-100.14 1076.97,-102.72"/>
</a>
</g>
</g>
<!-- Node6&#45;&gt;Node6 -->
<g id="edge7_Node000006_Node000006" class="edge">
<title>Node6&#45;&gt;Node6</title>
<g id="a_edge7_Node000006_Node000006"><a xlink:title=" ">
<path fill="none" stroke="#63b8ff" d="M455.67,-84.67C451.38,-94.32 464.49,-102.75 495,-102.75 518.84,-102.75 532.05,-97.61 534.65,-90.75"/>
<polygon fill="#63b8ff" stroke="#63b8ff" points="534.4,-85.89 536.9,-90.77 534.46,-87.17 534.66,-90.88 534.66,-90.88 534.66,-90.88 534.46,-87.17 532.41,-91 534.4,-85.89"/>
</a>
</g>
</g>
<!-- Node7 -->
<g id="Node000007" class="node">
<title>Node7</title>
<g id="a_Node000007"><a xlink:href="../../dd/df2/namespaceanonymous__namespace_02_log_8cpp_03_1_1safe.html#acee0c3f06b3d9996946c9c55104868c4" target="_top" xlink:title=" ">
<polygon fill="white" stroke="none" points="798,-41.75 620,-41.75 620,0 798,0 798,-41.75"/>
<text xml:space="preserve" text-anchor="start" x="628" y="-27.3" font-family="Consolas" font-size="11.00">anonymous_namespace</text>
<text xml:space="preserve" text-anchor="start" x="628" y="-16.05" font-family="Consolas" font-size="11.00">{Log::cpp}::safe::win32Last</text>
<text xml:space="preserve" text-anchor="middle" x="709" y="-4.8" font-family="Consolas" font-size="11.00">Error</text>
</a>
</g>
</g>
<!-- Node6&#45;&gt;Node7 -->
<g id="edge8_Node000006_Node000007" class="edge">
<title>Node6&#45;&gt;Node7</title>
<g id="a_edge8_Node000006_Node000007"><a xlink:title=" ">
<path fill="none" stroke="#63b8ff" d="M580.7,-46.69C591.8,-44.44 603.22,-42.13 614.46,-39.85"/>
<polygon fill="#63b8ff" stroke="#63b8ff" points="619.12,-38.9 614.66,-42.1 617.86,-39.16 614.22,-39.9 614.22,-39.9 614.22,-39.9 617.86,-39.16 613.77,-37.69 619.12,-38.9"/>
</a>
</g>
</g>
<!-- Node7&#45;&gt;Node7 -->
<g id="edge11_Node000007_Node000007" class="edge">
<title>Node7&#45;&gt;Node7</title>
<g id="a_edge11_Node000007_Node000007"><a xlink:title=" ">
<path fill="none" stroke="#63b8ff" d="M669.67,-41.67C665.38,-51.32 678.49,-59.75 709,-59.75 732.84,-59.75 746.05,-54.61 748.65,-47.75"/>
<polygon fill="#63b8ff" stroke="#63b8ff" points="748.4,-42.89 750.9,-47.77 748.46,-44.17 748.66,-47.88 748.66,-47.88 748.66,-47.88 748.46,-44.17 746.41,-48 748.4,-42.89"/>
</a>
</g>
</g>
<!-- Node8 -->
<g id="Node000008" class="node">
<title>Node8</title>
<g id="a_Node000008"><a xlink:href="../../dd/df2/namespaceanonymous__namespace_02_log_8cpp_03_1_1safe.html#abc25ab769b48a34eb27ff7c789822b7e" target="_top" xlink:title=" ">
<polygon fill="white" stroke="none" points="1042,-36.12 834,-36.12 834,-5.63 1042,-5.63 1042,-36.12"/>
<text xml:space="preserve" text-anchor="start" x="842" y="-21.68" font-family="Consolas" font-size="11.00">anonymous_namespace</text>
<text xml:space="preserve" text-anchor="middle" x="938" y="-10.43" font-family="Consolas" font-size="11.00">{Log::cpp}::safe::win32ErrorText</text>
</a>
</g>
</g>
<!-- Node7&#45;&gt;Node8 -->
<g id="edge9_Node000007_Node000008" class="edge">
<title>Node7&#45;&gt;Node8</title>
<g id="a_edge9_Node000007_Node000008"><a xlink:title=" ">
<path fill="none" stroke="#63b8ff" d="M797.76,-20.88C807.78,-20.88 818.07,-20.88 828.31,-20.88"/>
<polygon fill="#63b8ff" stroke="#63b8ff" points="833.12,-20.88 828.12,-23.13 831.83,-20.88 828.12,-20.88 828.12,-20.88 828.12,-20.88 831.83,-20.88 828.12,-18.63 833.12,-20.88"/>
</a>
</g>
</g>
<!-- Node8&#45;&gt;Node8 -->
<g id="edge10_Node000008_Node000008" class="edge">
<title>Node8&#45;&gt;Node8</title>
<g id="a_edge10_Node000008_Node000008"><a xlink:title=" ">
<path fill="none" stroke="#63b8ff" d="M898.09,-35.92C888.47,-45.25 901.77,-54.12 938,-54.12 967.44,-54.12 981.74,-48.27 980.9,-41.06"/>
<polygon fill="#63b8ff" stroke="#63b8ff" points="978.52,-36.97 982.98,-40.16 979.17,-38.08 981.04,-41.29 981.04,-41.29 981.04,-41.29 979.17,-38.08 979.09,-42.43 978.52,-36.97"/>
</a>
</g>
</g>
</g>
</svg>

<g id="navigator" transform="translate(0 0)" fill="#404254">
  <rect fill="#f2f5e9" fill-opacity="0.5" stroke="#606060" stroke-width=".5" x="0" y="0" width="60" height="60"/>
  <use id="zoomplus" xlink:href="#zoomPlus" x="17" y="9" onmousedown="handleZoom(evt,'in')"/>
  <use id="zoomminus" xlink:href="#zoomMin" x="42" y="9" onmousedown="handleZoom(evt,'out')"/>
  <use id="reset" xlink:href="#resetDef" x="30" y="36" onmousedown="handleReset()"/>
   <use id="arrowup" xlink:href="#arrowUp" x="0" y="0" onmousedown="handlePan(0,-1)"/>
  <use id="arrowright" xlink:href="#arrowRight" x="0" y="0" onmousedown="handlePan(1,0)"/>
  <use id="arrowdown" xlink:href="#arrowDown" x="0" y="0" onmousedown="handlePan(0,1)"/>
  <use id="arrowleft" xlink:href="#arrowLeft" x="0" y="0" onmousedown="handlePan(-1,0)"/>
</g>
<svg viewBox="0 0 15 15" width="100%" height="30px" preserveAspectRatio="xMaxYMin meet">
 <g id="arrow_out" transform="scale(0.3 0.3)">
  <a xlink:href="classanonymous__namespace_02_log_8cpp_03_1_1_log_core_a78f2c370e9ec632af877fe1dd49ef478_cgraph_org.svg" target="_base">
   <rect id="button" ry="5" rx="5" y="6" x="6" height="38" width="38"
        fill="#f2f5e9" fill-opacity="0.5" stroke="#606060" stroke-width="1.0"/>
   <path id="arrow"
     d="M 11.500037,31.436501 C 11.940474,20.09759 22.043105,11.32322 32.158766,21.979434 L 37.068811,17.246167 C 37.068811,17.246167 37.088388,32 37.088388,32 L 22.160133,31.978069 C 22.160133,31.978069 26.997745,27.140456 26.997745,27.140456 C 18.528582,18.264221 13.291696,25.230495 11.500037,31.436501 z"
     style="fill:#404040;"/>
  </a>
 </g>
</svg>

<style type='text/css'>
<![CDATA[
[data-mouse-over-selected='false'] { opacity: 0.7; }
[data-mouse-over-selected='true']  { opacity: 1.0; }
]]>
</style>
<script type="application/ecmascript"><![CDATA[
document.addEventListener('DOMContentLoaded', (event) => {
  highlightEdges();
  highlightAdjacentNodes();
});
]]></script>
</svg>
