<?xml version="1.0" encoding="UTF-8" standalone="no"?>
<!DOCTYPE svg PUBLIC "-//W3C//DTD SVG 1.1//EN"
 "http://www.w3.org/Graphics/SVG/1.1/DTD/svg11.dtd">
<!-- Generated by graphviz version 14.0.0 (20250921.2048)
 -->
<!-- Title: anonymous_namespace{Log::cpp}::LogCore::getStartupSettings_ Pages: 1 -->
<svg width="1234pt" height="376pt"
 viewBox="0.00 0.00 1234.00 376.00" xmlns="http://www.w3.org/2000/svg" xmlns:xlink="http://www.w3.org/1999/xlink">
<g id="graph0" class="graph" transform="scale(1 1) rotate(0) translate(4 372.12)">
<title>anonymous_namespace{Log::cpp}::LogCore::getStartupSettings_</title>
<!-- Node1 -->
<g id="Node000001" class="node">
<title>Node1</title>
<g id="a_Node000001"><a xlink:title=" ">
<polygon fill="#999999" stroke="none" points="370,-210.5 0,-210.5 0,-191.25 370,-191.25 370,-210.5"/>
<text xml:space="preserve" text-anchor="start" x="8" y="-197.05" font-family="Consolas" font-weight="bold" font-size="11.00">anonymous_namespace{Log::cpp}::LogCore::getStartupSettings_</text>
</a>
</g>
</g>
<!-- Node2 -->
<g id="Node000002" class="node">
<title>Node2</title>
<g id="a_Node000002"><a xlink:href="../../dc/dba/namespacenpi_1_1app.html#a40a2a28831f2f410c995f0657baf6544" target="_top" xlink:title="Absolute application&#45;level ProgramData path.">
<polygon fill="white" stroke="none" points="584,-359.5 406,-359.5 406,-340.25 584,-340.25 584,-359.5"/>
<text xml:space="preserve" text-anchor="middle" x="495" y="-345.05" font-family="Consolas" font-size="11.00">npi::app::appProgramDataDir</text>
</a>
</g>
</g>
<!-- Node1&#45;&gt;Node2 -->
<g id="edge1_Node000001_Node000002" class="edge">
<title>Node1&#45;&gt;Node2</title>
<g id="a_edge1_Node000001_Node000002"><a xlink:title=" ">
<path fill="none" stroke="#63b8ff" d="M200.36,-210.41C234.66,-232.82 324.54,-289.57 406,-323.88 419.62,-329.61 434.92,-334.6 448.9,-338.64"/>
<polygon fill="#63b8ff" stroke="#63b8ff" points="453.63,-339.97 448.2,-340.78 452.39,-339.63 448.81,-338.61 448.81,-338.61 448.81,-338.61 452.39,-339.63 449.43,-336.45 453.63,-339.97"/>
</a>
</g>
</g>
<!-- Node5 -->
<g id="Node000005" class="node">
<title>Node5</title>
<g id="a_Node000005"><a xlink:href="../../dc/dba/namespacenpi_1_1app.html#a30b5245afa890e98f19f43c58f29e633" target="_top" xlink:title="Windows native fatal error message box.">
<polygon fill="white" stroke="none" points="1226,-340.5 1042,-340.5 1042,-321.25 1226,-321.25 1226,-340.5"/>
<text xml:space="preserve" text-anchor="middle" x="1134" y="-326.05" font-family="Consolas" font-size="11.00">npi::app::nativeFatalMessage</text>
</a>
</g>
</g>
<!-- Node1&#45;&gt;Node5 -->
<g id="edge9_Node000001_Node000005" class="edge">
<title>Node1&#45;&gt;Node5</title>
<g id="a_edge9_Node000001_Node000005"><a xlink:title=" ">
<path fill="none" stroke="#63b8ff" d="M203.59,-210.46C240.05,-229.78 327.1,-273.09 406,-290.88 465.78,-304.35 852.16,-320.36 1036.03,-327.34"/>
<polygon fill="#63b8ff" stroke="#63b8ff" points="1041,-327.52 1035.92,-329.58 1039.72,-327.48 1036,-327.33 1036,-327.33 1036,-327.33 1039.72,-327.48 1036.09,-325.09 1041,-327.52"/>
</a>
</g>
</g>
<!-- Node6 -->
<g id="Node000006" class="node">
<title>Node6</title>
<g id="a_Node000006"><a xlink:href="../../d0/d61/classanonymous__namespace_02_log_8cpp_03_1_1_log_core.html#ab9fa33f09ac95abae18a1018b2d6a26d" target="_top" xlink:title=" ">
<polygon fill="white" stroke="none" points="569,-281.75 421,-281.75 421,-240 569,-240 569,-281.75"/>
<text xml:space="preserve" text-anchor="start" x="429" y="-267.3" font-family="Consolas" font-size="11.00">anonymous_namespace</text>
<text xml:space="preserve" text-anchor="start" x="429" y="-256.05" font-family="Consolas" font-size="11.00">{Log::cpp}::LogCore</text>
<text xml:space="preserve" text-anchor="middle" x="495" y="-244.8" font-family="Consolas" font-size="11.00">::CheckAndValidateDir_</text>
</a>
</g>
</g>
<!-- Node1&#45;&gt;Node6 -->
<g id="edge5_Node000001_Node000006" class="edge">
<title>Node1&#45;&gt;Node6</title>
<g id="a_edge5_Node000001_Node000006"><a xlink:title=" ">
<path fill="none" stroke="#63b8ff" d="M235.14,-210.45C283.66,-219.9 358.63,-234.5 415.43,-245.57"/>
<polygon fill="#63b8ff" stroke="#63b8ff" points="420.01,-246.46 414.68,-247.71 418.76,-246.22 415.11,-245.51 415.11,-245.51 415.11,-245.51 418.76,-246.22 415.54,-243.3 420.01,-246.46"/>
</a>
</g>
</g>
<!-- Node7 -->
<g id="Node000007" class="node">
<title>Node7</title>
<g id="a_Node000007"><a xlink:href="../../d0/d61/classanonymous__namespace_02_log_8cpp_03_1_1_log_core.html#afbd5cfd2657e2b92a0e82b47050d3bab" target="_top" xlink:title=" ">
<polygon fill="white" stroke="none" points="578,-221.75 412,-221.75 412,-180 578,-180 578,-221.75"/>
<text xml:space="preserve" text-anchor="start" x="420" y="-207.3" font-family="Consolas" font-size="11.00">anonymous_namespace</text>
<text xml:space="preserve" text-anchor="start" x="420" y="-196.05" font-family="Consolas" font-size="11.00">{Log::cpp}::LogCore</text>
<text xml:space="preserve" text-anchor="middle" x="495" y="-184.8" font-family="Consolas" font-size="11.00">::CleanedFilterRulesList_</text>
</a>
</g>
</g>
<!-- Node1&#45;&gt;Node7 -->
<g id="edge6_Node000001_Node000007" class="edge">
<title>Node1&#45;&gt;Node7</title>
<g id="a_edge6_Node000001_Node000007"><a xlink:title=" ">
<path fill="none" stroke="#63b8ff" d="M369.61,-200.88C382.23,-200.88 394.57,-200.88 406.28,-200.88"/>
<polygon fill="#63b8ff" stroke="#63b8ff" points="411.12,-200.88 406.12,-203.13 409.84,-200.88 406.12,-200.88 406.12,-200.88 406.12,-200.88 409.84,-200.88 406.12,-198.63 411.12,-200.88"/>
</a>
</g>
</g>
<!-- Node8 -->
<g id="Node000008" class="node">
<title>Node8</title>
<g id="a_Node000008"><a xlink:href="../../d0/d61/classanonymous__namespace_02_log_8cpp_03_1_1_log_core.html#a1555ff59635d441f5b2c670ad19a1718" target="_top" xlink:title=" ">
<polygon fill="white" stroke="none" points="560,-161.75 430,-161.75 430,-120 560,-120 560,-161.75"/>
<text xml:space="preserve" text-anchor="start" x="438" y="-147.3" font-family="Consolas" font-size="11.00">anonymous_namespace</text>
<text xml:space="preserve" text-anchor="start" x="438" y="-136.05" font-family="Consolas" font-size="11.00">{Log::cpp}::LogCore</text>
<text xml:space="preserve" text-anchor="middle" x="495" y="-124.8" font-family="Consolas" font-size="11.00">::ComparePaths_</text>
</a>
</g>
</g>
<!-- Node1&#45;&gt;Node8 -->
<g id="edge7_Node000001_Node000008" class="edge">
<title>Node1&#45;&gt;Node8</title>
<g id="a_edge7_Node000001_Node000008"><a xlink:title=" ">
<path fill="none" stroke="#63b8ff" d="M235.14,-191.3C286.21,-181.35 366.57,-165.7 424.21,-154.47"/>
<polygon fill="#63b8ff" stroke="#63b8ff" points="428.87,-153.56 424.39,-156.73 427.61,-153.81 423.96,-154.52 423.96,-154.52 423.96,-154.52 427.61,-153.81 423.53,-152.31 428.87,-153.56"/>
</a>
</g>
</g>
<!-- Node9 -->
<g id="Node000009" class="node">
<title>Node9</title>
<g id="a_Node000009"><a xlink:href="../../d0/d61/classanonymous__namespace_02_log_8cpp_03_1_1_log_core.html#a09f819da9e8a9fd17aae47c89f78b497" target="_top" xlink:title=" ">
<polygon fill="white" stroke="none" points="560,-101.75 430,-101.75 430,-60 560,-60 560,-101.75"/>
<text xml:space="preserve" text-anchor="start" x="438" y="-87.3" font-family="Consolas" font-size="11.00">anonymous_namespace</text>
<text xml:space="preserve" text-anchor="start" x="438" y="-76.05" font-family="Consolas" font-size="11.00">{Log::cpp}::LogCore</text>
<text xml:space="preserve" text-anchor="middle" x="495" y="-64.8" font-family="Consolas" font-size="11.00">::FieldsToStrings_</text>
</a>
</g>
</g>
<!-- Node1&#45;&gt;Node9 -->
<g id="edge8_Node000001_Node000009" class="edge">
<title>Node1&#45;&gt;Node9</title>
<g id="a_edge8_Node000001_Node000009"><a xlink:title=" ">
<path fill="none" stroke="#63b8ff" d="M208,-191.36C247.41,-174.44 332.77,-138.31 406,-110.88 412.38,-108.49 419.04,-106.07 425.73,-103.7"/>
<polygon fill="#63b8ff" stroke="#63b8ff" points="430.19,-102.13 426.22,-105.91 428.98,-102.55 425.48,-103.79 425.48,-103.79 425.48,-103.79 428.98,-102.55 424.73,-101.67 430.19,-102.13"/>
</a>
</g>
</g>
<!-- Node10 -->
<g id="Node000010" class="node">
<title>Node10</title>
<g id="a_Node000010"><a xlink:href="../../d0/d61/classanonymous__namespace_02_log_8cpp_03_1_1_log_core.html#a994289c65633485ca041a065c3db4819" target="_top" xlink:title=" ">
<polygon fill="white" stroke="none" points="560,-41.75 430,-41.75 430,0 560,0 560,-41.75"/>
<text xml:space="preserve" text-anchor="start" x="438" y="-27.3" font-family="Consolas" font-size="11.00">anonymous_namespace</text>
<text xml:space="preserve" text-anchor="start" x="438" y="-16.05" font-family="Consolas" font-size="11.00">{Log::cpp}::LogCore</text>
<text xml:space="preserve" text-anchor="middle" x="495" y="-4.8" font-family="Consolas" font-size="11.00">::stringsToFields_</text>
</a>
</g>
</g>
<!-- Node1&#45;&gt;Node10 -->
<g id="edge10_Node000001_Node000010" class="edge">
<title>Node1&#45;&gt;Node10</title>
<g id="a_edge10_Node000001_Node000010"><a xlink:title=" ">
<path fill="none" stroke="#63b8ff" d="M197.23,-191.57C228.51,-166.02 319.99,-93.86 406,-50.88 411.98,-47.89 418.32,-45.08 424.76,-42.48"/>
<polygon fill="#63b8ff" stroke="#63b8ff" points="429.06,-40.78 425.23,-44.71 427.86,-41.25 424.4,-42.62 424.4,-42.62 424.4,-42.62 427.86,-41.25 423.58,-40.52 429.06,-40.78"/>
</a>
</g>
</g>
<!-- Node3 -->
<g id="Node000003" class="node">
<title>Node3</title>
<g id="a_Node000003"><a xlink:href="../../dc/dba/namespacenpi_1_1app.html#a30836be8b9337a64733a6e05594b23c8" target="_top" xlink:title="Absolute organization&#45;level ProgramData path.">
<polygon fill="white" stroke="none" points="798,-360.5 620,-360.5 620,-341.25 798,-341.25 798,-360.5"/>
<text xml:space="preserve" text-anchor="middle" x="709" y="-346.05" font-family="Consolas" font-size="11.00">npi::app::orgProgramDataDir</text>
</a>
</g>
</g>
<!-- Node2&#45;&gt;Node3 -->
<g id="edge2_Node000002_Node000003" class="edge">
<title>Node2&#45;&gt;Node3</title>
<g id="a_edge2_Node000002_Node000003"><a xlink:title=" ">
<path fill="none" stroke="#63b8ff" d="M583.76,-350.29C593.85,-350.34 604.17,-350.39 614.34,-350.43"/>
<polygon fill="#63b8ff" stroke="#63b8ff" points="619.09,-350.46 614.08,-352.68 617.81,-350.45 614.09,-350.43 614.09,-350.43 614.09,-350.43 617.81,-350.45 614.1,-348.18 619.09,-350.46"/>
</a>
</g>
</g>
<!-- Node4 -->
<g id="Node000004" class="node">
<title>Node4</title>
<g id="a_Node000004"><a xlink:href="../../df/d40/namespaceanonymous__namespace_02_meta_paths_8cpp_03.html#a6b23c92ed8a542082d8cddde4bd55b47" target="_top" xlink:title="Resolve base path using Known Folder ID or environment variable fallback.">
<polygon fill="white" stroke="none" points="1006,-368.12 834,-368.12 834,-337.62 1006,-337.62 1006,-368.12"/>
<text xml:space="preserve" text-anchor="start" x="842" y="-353.68" font-family="Consolas" font-size="11.00">anonymous_namespace</text>
<text xml:space="preserve" text-anchor="middle" x="920" y="-342.43" font-family="Consolas" font-size="11.00">{MetaPaths::cpp}::basePath</text>
</a>
</g>
</g>
<!-- Node3&#45;&gt;Node4 -->
<g id="edge3_Node000003_Node000004" class="edge">
<title>Node3&#45;&gt;Node4</title>
<g id="a_edge3_Node000003_Node000004"><a xlink:title=" ">
<path fill="none" stroke="#63b8ff" d="M797.73,-351.71C807.81,-351.81 818.11,-351.91 828.24,-352.01"/>
<polygon fill="#63b8ff" stroke="#63b8ff" points="832.95,-352.05 827.93,-354.25 831.67,-352.04 827.95,-352 827.95,-352 827.95,-352 831.67,-352.04 827.98,-349.75 832.95,-352.05"/>
</a>
</g>
</g>
<!-- Node4&#45;&gt;Node5 -->
<g id="edge4_Node000004_Node000005" class="edge">
<title>Node4&#45;&gt;Node5</title>
<g id="a_edge4_Node000004_Node000005"><a xlink:title=" ">
<path fill="none" stroke="#63b8ff" d="M1005.7,-344.09C1015.73,-343.04 1026.02,-341.98 1036.2,-340.92"/>
<polygon fill="#63b8ff" stroke="#63b8ff" points="1040.96,-340.43 1036.22,-343.18 1039.69,-340.56 1035.99,-340.94 1035.99,-340.94 1035.99,-340.94 1039.69,-340.56 1035.76,-338.7 1040.96,-340.43"/>
</a>
</g>
</g>
</g>
</svg>
