<?xml version="1.0" encoding="UTF-8" standalone="no"?>
<!DOCTYPE svg PUBLIC "-//W3C//DTD SVG 1.1//EN"
 "http://www.w3.org/Graphics/SVG/1.1/DTD/svg11.dtd">
<!-- Generated by graphviz version 14.0.0 (20250921.2048)
 -->
<!-- Title: anonymous_namespace{Log::cpp}::LogCore::FormatOneLine_ Pages: 1 -->
<!--zoomable 410 -->

<svg id="main" version="1.1" xmlns="http://www.w3.org/2000/svg" xmlns:xlink="http://www.w3.org/1999/xlink" xml:space="preserve" onload="init(evt)">

<style type="text/css"><![CDATA[
.node, .edge {opacity: 0.7;}
.node.selected, .edge.selected {opacity: 1;}
.edge:hover path { stroke: red; }
.edge:hover polygon { stroke: red; fill: red; }
]]></style>

<defs>
  <circle id="rim" cx="0" cy="0" r="7"/>
  <circle id="rim2" cx="0" cy="0" r="3.5"/>
  <g id="zoomPlus">
    <use xlink:href="#rim" fill="#404040"><set attributeName="fill" to="#808080" begin="zoomplus.mouseover" end="zoomplus.mouseout"/></use>
    <path d="M-4,0h8M0,-4v8" fill="none" stroke="white" stroke-width="1.5" pointer-events="none"/>
  </g>
  <g id="zoomMin">
    <use xlink:href="#rim" fill="#404040"><set attributeName="fill" to="#808080" begin="zoomminus.mouseover" end="zoomminus.mouseout"/></use>
    <path d="M-4,0h8" fill="none" stroke="white" stroke-width="1.5" pointer-events="none"/>
  </g>
  <g id="arrowUp" transform="translate(30 24)">
    <use xlink:href="#rim"/>
    <path pointer-events="none" fill="none" stroke="white" stroke-width="1.5" d="M0,-3.0v7 M-2.5,-0.5L0,-3.0L2.5,-0.5"/>
  </g>
  <g id="arrowRight" transform="rotate(90) translate(36 -43)">
    <use xlink:href="#rim"/>
    <path pointer-events="none" fill="none" stroke="white" stroke-width="1.5" d="M0,-3.0v7 M-2.5,-0.5L0,-3.0L2.5,-0.5"/>
  </g>
  <g id="arrowDown" transform="rotate(180) translate(-30 -48)">
    <use xlink:href="#rim"/>
    <path pointer-events="none" fill="none" stroke="white" stroke-width="1.5" d="M0,-3.0v7 M-2.5,-0.5L0,-3.0L2.5,-0.5"/>
  </g>
  <g id="arrowLeft" transform="rotate(270) translate(-36 17)">
    <use xlink:href="#rim"/>
    <path pointer-events="none" fill="none" stroke="white" stroke-width="1.5" d="M0,-3.0v7 M-2.5,-0.5L0,-3.0L2.5,-0.5"/>
  </g>
  <g id="resetDef">
    <use xlink:href="#rim2" fill="#404040"><set attributeName="fill" to="#808080" begin="reset.mouseover" end="reset.mouseout"/></use>
  </g>
</defs>
<script type="application/ecmascript">
var viewWidth = 764;
var viewHeight = 410;
var sectionId = 'dynsection-22';
</script>
<script type="application/ecmascript" xlink:href="../../svg.min.js"/>
<svg id="graph" class="graph">
<g id="viewport">
<title>anonymous_namespace{Log::cpp}::LogCore::FormatOneLine_</title>
<!-- Node1 -->
<g id="Node000001" class="node">
<title>Node1</title>
<g id="a_Node000001"><a xlink:title=" ">
<polygon fill="#999999" stroke="none" points="340,-210.5 0,-210.5 0,-191.25 340,-191.25 340,-210.5"/>
<text xml:space="preserve" text-anchor="start" x="8" y="-197.05" font-family="Consolas" font-weight="bold" font-size="11.00">anonymous_namespace{Log::cpp}::LogCore::FormatOneLine_</text>
</a>
</g>
</g>
<!-- Node2 -->
<g id="Node000002" class="node">
<title>Node2</title>
<g id="a_Node000002"><a xlink:href="../../dc/d58/structanonymous__namespace_02_log_8cpp_03_1_1_log_core_1_1_fixed_strings.html#a3a000d7c183750a49f0cfce9fa6926a3" target="_top" xlink:title=" ">
<polygon fill="white" stroke="none" points="590,-401.75 376,-401.75 376,-360 590,-360 590,-401.75"/>
<text xml:space="preserve" text-anchor="start" x="384" y="-387.3" font-family="Consolas" font-size="11.00">anonymous_namespace</text>
<text xml:space="preserve" text-anchor="start" x="384" y="-376.05" font-family="Consolas" font-size="11.00">{Log::cpp}::LogCore</text>
<text xml:space="preserve" text-anchor="middle" x="483" y="-364.8" font-family="Consolas" font-size="11.00">::FixedStrings::appendCategoryTo_</text>
</a>
</g>
</g>
<!-- Node1&#45;&gt;Node2 -->
<g id="edge1_Node000001_Node000002" class="edge">
<title>Node1&#45;&gt;Node2</title>
<g id="a_edge1_Node000001_Node000002"><a xlink:title=" ">
<path fill="none" stroke="#63b8ff" d="M181.22,-210.48C209.75,-236.77 293.55,-310.67 376,-350.88 381.16,-353.39 386.56,-355.73 392.08,-357.89"/>
<polygon fill="#63b8ff" stroke="#63b8ff" points="396.5,-359.57 391.03,-359.9 395.3,-359.12 391.83,-357.8 391.83,-357.8 391.83,-357.8 395.3,-359.12 392.63,-355.69 396.5,-359.57"/>
</a>
</g>
</g>
<!-- Node3 -->
<g id="Node000003" class="node">
<title>Node3</title>
<g id="a_Node000003"><a xlink:href="../../d0/d61/classanonymous__namespace_02_log_8cpp_03_1_1_log_core.html#ab122b241533434653fbd519339edfa38" target="_top" xlink:title=" ">
<polygon fill="white" stroke="none" points="548,-341.75 418,-341.75 418,-300 548,-300 548,-341.75"/>
<text xml:space="preserve" text-anchor="start" x="426" y="-327.3" font-family="Consolas" font-size="11.00">anonymous_namespace</text>
<text xml:space="preserve" text-anchor="start" x="426" y="-316.05" font-family="Consolas" font-size="11.00">{Log::cpp}::LogCore</text>
<text xml:space="preserve" text-anchor="middle" x="483" y="-304.8" font-family="Consolas" font-size="11.00">::AppendDateTime_</text>
</a>
</g>
</g>
<!-- Node1&#45;&gt;Node3 -->
<g id="edge2_Node000001_Node000003" class="edge">
<title>Node1&#45;&gt;Node3</title>
<g id="a_edge2_Node000001_Node000003"><a xlink:title=" ">
<path fill="none" stroke="#63b8ff" d="M190.42,-210.48C226.4,-228.03 306.13,-265.78 376,-290.88 387.6,-295.04 400.08,-299.01 412.26,-302.62"/>
<polygon fill="#63b8ff" stroke="#63b8ff" points="417.04,-304.02 411.61,-304.77 415.81,-303.66 412.24,-302.61 412.24,-302.61 412.24,-302.61 415.81,-303.66 412.87,-300.45 417.04,-304.02"/>
</a>
</g>
</g>
<!-- Node5 -->
<g id="Node000005" class="node">
<title>Node5</title>
<g id="a_Node000005"><a xlink:href="../../d0/d61/classanonymous__namespace_02_log_8cpp_03_1_1_log_core.html#ab8061264281dba381f5b1d06ef4d969c" target="_top" xlink:title=" ">
<polygon fill="white" stroke="none" points="548,-281.75 418,-281.75 418,-240 548,-240 548,-281.75"/>
<text xml:space="preserve" text-anchor="start" x="426" y="-267.3" font-family="Consolas" font-size="11.00">anonymous_namespace</text>
<text xml:space="preserve" text-anchor="start" x="426" y="-256.05" font-family="Consolas" font-size="11.00">{Log::cpp}::LogCore</text>
<text xml:space="preserve" text-anchor="middle" x="483" y="-244.8" font-family="Consolas" font-size="11.00">::AppendDelta_</text>
</a>
</g>
</g>
<!-- Node1&#45;&gt;Node5 -->
<g id="edge4_Node000001_Node000005" class="edge">
<title>Node1&#45;&gt;Node5</title>
<g id="a_edge4_Node000001_Node000005"><a xlink:title=" ">
<path fill="none" stroke="#63b8ff" d="M220.62,-210.45C272.35,-220.43 353.85,-236.15 412.09,-247.39"/>
<polygon fill="#63b8ff" stroke="#63b8ff" points="416.81,-248.3 411.47,-249.56 415.55,-248.05 411.9,-247.35 411.9,-247.35 411.9,-247.35 415.55,-248.05 412.32,-245.14 416.81,-248.3"/>
</a>
</g>
</g>
<!-- Node6 -->
<g id="Node000006" class="node">
<title>Node6</title>
<g id="a_Node000006"><a xlink:href="../../dc/d58/structanonymous__namespace_02_log_8cpp_03_1_1_log_core_1_1_fixed_strings.html#a10410013e62e5adfa34cf8b32ca58ff1" target="_top" xlink:title=" ">
<polygon fill="white" stroke="none" points="590,-221.75 376,-221.75 376,-180 590,-180 590,-221.75"/>
<text xml:space="preserve" text-anchor="start" x="384" y="-207.3" font-family="Consolas" font-size="11.00">anonymous_namespace</text>
<text xml:space="preserve" text-anchor="start" x="384" y="-196.05" font-family="Consolas" font-size="11.00">{Log::cpp}::LogCore</text>
<text xml:space="preserve" text-anchor="middle" x="483" y="-184.8" font-family="Consolas" font-size="11.00">::FixedStrings::appendFileNameTo_</text>
</a>
</g>
</g>
<!-- Node1&#45;&gt;Node6 -->
<g id="edge5_Node000001_Node000006" class="edge">
<title>Node1&#45;&gt;Node6</title>
<g id="a_edge5_Node000001_Node000006"><a xlink:title=" ">
<path fill="none" stroke="#63b8ff" d="M339.7,-200.88C349.99,-200.88 360.2,-200.88 370.15,-200.88"/>
<polygon fill="#63b8ff" stroke="#63b8ff" points="375.09,-200.88 370.09,-203.13 373.81,-200.88 370.09,-200.88 370.09,-200.88 370.09,-200.88 373.81,-200.88 370.09,-198.63 375.09,-200.88"/>
</a>
</g>
</g>
<!-- Node7 -->
<g id="Node000007" class="node">
<title>Node7</title>
<g id="a_Node000007"><a xlink:href="../../dc/d58/structanonymous__namespace_02_log_8cpp_03_1_1_log_core_1_1_fixed_strings.html#a32b722c7a4c1269ef2d88bbafd0eb59c" target="_top" xlink:title=" ">
<polygon fill="white" stroke="none" points="590,-161.75 376,-161.75 376,-120 590,-120 590,-161.75"/>
<text xml:space="preserve" text-anchor="start" x="384" y="-147.3" font-family="Consolas" font-size="11.00">anonymous_namespace</text>
<text xml:space="preserve" text-anchor="start" x="384" y="-136.05" font-family="Consolas" font-size="11.00">{Log::cpp}::LogCore</text>
<text xml:space="preserve" text-anchor="middle" x="483" y="-124.8" font-family="Consolas" font-size="11.00">::FixedStrings::appendFuncNameTo_</text>
</a>
</g>
</g>
<!-- Node1&#45;&gt;Node7 -->
<g id="edge6_Node000001_Node000007" class="edge">
<title>Node1&#45;&gt;Node7</title>
<g id="a_edge6_Node000001_Node000007"><a xlink:title=" ">
<path fill="none" stroke="#63b8ff" d="M220.62,-191.3C260.83,-183.54 319.03,-172.32 370.3,-162.42"/>
<polygon fill="#63b8ff" stroke="#63b8ff" points="375,-161.52 370.52,-164.67 373.74,-161.76 370.09,-162.46 370.09,-162.46 370.09,-162.46 373.74,-161.76 369.67,-160.26 375,-161.52"/>
</a>
</g>
</g>
<!-- Node8 -->
<g id="Node000008" class="node">
<title>Node8</title>
<g id="a_Node000008"><a xlink:href="../../d0/d61/classanonymous__namespace_02_log_8cpp_03_1_1_log_core.html#a4dda6a0306f72401c363c4ef2e7d1611" target="_top" xlink:title=" ">
<polygon fill="white" stroke="none" points="548,-101.75 418,-101.75 418,-60 548,-60 548,-101.75"/>
<text xml:space="preserve" text-anchor="start" x="426" y="-87.3" font-family="Consolas" font-size="11.00">anonymous_namespace</text>
<text xml:space="preserve" text-anchor="start" x="426" y="-76.05" font-family="Consolas" font-size="11.00">{Log::cpp}::LogCore</text>
<text xml:space="preserve" text-anchor="middle" x="483" y="-64.8" font-family="Consolas" font-size="11.00">::AppendLevel_</text>
</a>
</g>
</g>
<!-- Node1&#45;&gt;Node8 -->
<g id="edge7_Node000001_Node000008" class="edge">
<title>Node1&#45;&gt;Node8</title>
<g id="a_edge7_Node000001_Node000008"><a xlink:title=" ">
<path fill="none" stroke="#63b8ff" d="M190.42,-191.27C226.4,-173.72 306.13,-135.97 376,-110.88 387.6,-106.71 400.08,-102.74 412.26,-99.13"/>
<polygon fill="#63b8ff" stroke="#63b8ff" points="417.04,-97.73 412.87,-101.3 415.81,-98.09 412.24,-99.14 412.24,-99.14 412.24,-99.14 415.81,-98.09 411.61,-96.98 417.04,-97.73"/>
</a>
</g>
</g>
<!-- Node9 -->
<g id="Node000009" class="node">
<title>Node9</title>
<g id="a_Node000009"><a xlink:href="../../d0/d61/classanonymous__namespace_02_log_8cpp_03_1_1_log_core.html#aa885eb55dee8680b48150be9c21ee5f9" target="_top" xlink:title=" ">
<polygon fill="white" stroke="none" points="548,-41.75 418,-41.75 418,0 548,0 548,-41.75"/>
<text xml:space="preserve" text-anchor="start" x="426" y="-27.3" font-family="Consolas" font-size="11.00">anonymous_namespace</text>
<text xml:space="preserve" text-anchor="start" x="426" y="-16.05" font-family="Consolas" font-size="11.00">{Log::cpp}::LogCore</text>
<text xml:space="preserve" text-anchor="middle" x="483" y="-4.8" font-family="Consolas" font-size="11.00">::AppendStr_</text>
</a>
</g>
</g>
<!-- Node1&#45;&gt;Node9 -->
<g id="edge8_Node000001_Node000009" class="edge">
<title>Node1&#45;&gt;Node9</title>
<g id="a_edge8_Node000001_Node000009"><a xlink:title=" ">
<path fill="none" stroke="#63b8ff" d="M181.22,-191.27C209.75,-164.98 293.55,-91.08 376,-50.88 387.4,-45.31 400.02,-40.62 412.44,-36.72"/>
<polygon fill="#63b8ff" stroke="#63b8ff" points="416.97,-35.34 412.85,-38.95 415.74,-35.71 412.19,-36.8 412.19,-36.8 412.19,-36.8 415.74,-35.71 411.53,-34.64 416.97,-35.34"/>
</a>
</g>
</g>
<!-- Node4 -->
<g id="Node000004" class="node">
<title>Node4</title>
<g id="a_Node000004"><a xlink:href="../../d0/d61/classanonymous__namespace_02_log_8cpp_03_1_1_log_core.html#a2a46463a402dc1ad9518d5d7dbfea87d" target="_top" xlink:title=" ">
<polygon fill="white" stroke="none" points="756,-341.75 626,-341.75 626,-300 756,-300 756,-341.75"/>
<text xml:space="preserve" text-anchor="start" x="634" y="-327.3" font-family="Consolas" font-size="11.00">anonymous_namespace</text>
<text xml:space="preserve" text-anchor="start" x="634" y="-316.05" font-family="Consolas" font-size="11.00">{Log::cpp}::LogCore</text>
<text xml:space="preserve" text-anchor="middle" x="691" y="-304.8" font-family="Consolas" font-size="11.00">::AppendChar_</text>
</a>
</g>
</g>
<!-- Node3&#45;&gt;Node4 -->
<g id="edge3_Node000003_Node000004" class="edge">
<title>Node3&#45;&gt;Node4</title>
<g id="a_edge3_Node000003_Node000004"><a xlink:title=" ">
<path fill="none" stroke="#63b8ff" d="M547.77,-320.88C570.66,-320.88 596.58,-320.88 619.97,-320.88"/>
<polygon fill="#63b8ff" stroke="#63b8ff" points="624.96,-320.88 619.96,-323.13 623.68,-320.88 619.96,-320.88 619.96,-320.88 619.96,-320.88 623.68,-320.88 619.96,-318.63 624.96,-320.88"/>
</a>
</g>
</g>
</g>
</svg>

<g id="navigator" transform="translate(0 0)" fill="#404254">
  <rect fill="#f2f5e9" fill-opacity="0.5" stroke="#606060" stroke-width=".5" x="0" y="0" width="60" height="60"/>
  <use id="zoomplus" xlink:href="#zoomPlus" x="17" y="9" onmousedown="handleZoom(evt,'in')"/>
  <use id="zoomminus" xlink:href="#zoomMin" x="42" y="9" onmousedown="handleZoom(evt,'out')"/>
  <use id="reset" xlink:href="#resetDef" x="30" y="36" onmousedown="handleReset()"/>
   <use id="arrowup" xlink:href="#arrowUp" x="0" y="0" onmousedown="handlePan(0,-1)"/>
  <use id="arrowright" xlink:href="#arrowRight" x="0" y="0" onmousedown="handlePan(1,0)"/>
  <use id="arrowdown" xlink:href="#arrowDown" x="0" y="0" onmousedown="handlePan(0,1)"/>
  <use id="arrowleft" xlink:href="#arrowLeft" x="0" y="0" onmousedown="handlePan(-1,0)"/>
</g>
<svg viewBox="0 0 15 15" width="100%" height="30px" preserveAspectRatio="xMaxYMin meet">
 <g id="arrow_out" transform="scale(0.3 0.3)">
  <a xlink:href="classanonymous__namespace_02_log_8cpp_03_1_1_log_core_ada2216e6d5c8ed9150550651e529c9a7_cgraph_org.svg" target="_base">
   <rect id="button" ry="5" rx="5" y="6" x="6" height="38" width="38"
        fill="#f2f5e9" fill-opacity="0.5" stroke="#606060" stroke-width="1.0"/>
   <path id="arrow"
     d="M 11.500037,31.436501 C 11.940474,20.09759 22.043105,11.32322 32.158766,21.979434 L 37.068811,17.246167 C 37.068811,17.246167 37.088388,32 37.088388,32 L 22.160133,31.978069 C 22.160133,31.978069 26.997745,27.140456 26.997745,27.140456 C 18.528582,18.264221 13.291696,25.230495 11.500037,31.436501 z"
     style="fill:#404040;"/>
  </a>
 </g>
</svg>

<style type='text/css'>
<![CDATA[
[data-mouse-over-selected='false'] { opacity: 0.7; }
[data-mouse-over-selected='true']  { opacity: 1.0; }
]]>
</style>
<script type="application/ecmascript"><![CDATA[
document.addEventListener('DOMContentLoaded', (event) => {
  highlightEdges();
  highlightAdjacentNodes();
});
]]></script>
</svg>
