<?xml version="1.0" encoding="UTF-8" standalone="no"?>
<!DOCTYPE svg PUBLIC "-//W3C//DTD SVG 1.1//EN"
 "http://www.w3.org/Graphics/SVG/1.1/DTD/svg11.dtd">
<!-- Generated by graphviz version 14.0.0 (20250921.2048)
 -->
<!-- Title: anonymous_namespace{Log::cpp}::LogCore::setMuteDisplay_ Pages: 1 -->
<svg width="740pt" height="39pt"
 viewBox="0.00 0.00 740.00 39.00" xmlns="http://www.w3.org/2000/svg" xmlns:xlink="http://www.w3.org/1999/xlink">
<g id="graph0" class="graph" transform="scale(1 1) rotate(0) translate(4 34.5)">
<title>anonymous_namespace{Log::cpp}::LogCore::setMuteDisplay_</title>
<!-- Node1 -->
<g id="Node000001" class="node">
<title>Node1</title>
<g id="a_Node000001"><a xlink:title=" ">
<polygon fill="#999999" stroke="none" points="732,-24.88 386,-24.88 386,-5.62 732,-5.62 732,-24.88"/>
<text xml:space="preserve" text-anchor="start" x="394" y="-11.43" font-family="Consolas" font-weight="bold" font-size="11.00">anonymous_namespace{Log::cpp}::LogCore::setMuteDisplay_</text>
</a>
</g>
</g>
<!-- Node2 -->
<g id="Node000002" class="node">
<title>Node2</title>
<g id="a_Node000002"><a xlink:href="../../d5/ddd/namespacenpi_1_1log.html#a976d8ed596c3a4571209d46c933b5bbe" target="_top" xlink:title=" ">
<polygon fill="white" stroke="none" points="350,-24.88 190,-24.88 190,-5.62 350,-5.62 350,-24.88"/>
<text xml:space="preserve" text-anchor="middle" x="270" y="-10.43" font-family="Consolas" font-size="11.00">npi::log::setMuteDisplay</text>
</a>
</g>
</g>
<!-- Node1&#45;&gt;Node2 -->
<g id="edge1_Node000001_Node000002" class="edge">
<title>Node1&#45;&gt;Node2</title>
<g id="a_edge1_Node000001_Node000002"><a xlink:title=" ">
<path fill="none" stroke="#63b8ff" d="M379.94,-15.25C369.55,-15.25 359.42,-15.25 349.78,-15.25"/>
<polygon fill="#63b8ff" stroke="#63b8ff" points="384.86,-15.25 379.86,-17.5 383.58,-15.25 379.86,-15.25 379.86,-15.25 379.86,-15.25 383.58,-15.25 379.86,-13 384.86,-15.25"/>
</a>
</g>
</g>
<!-- Node3 -->
<g id="Node000003" class="node">
<title>Node3</title>
<g id="a_Node000003"><a xlink:href="../../d9/dc6/class_main_window.html#a7e7d297efb3ead7cb02951670b48d9a2" target="_top" xlink:title=" ">
<polygon fill="white" stroke="none" points="154,-30.5 0,-30.5 0,0 154,0 154,-30.5"/>
<text xml:space="preserve" text-anchor="start" x="8" y="-16.05" font-family="Consolas" font-size="11.00">MainWindow::on_muteDisp</text>
<text xml:space="preserve" text-anchor="middle" x="77" y="-4.8" font-family="Consolas" font-size="11.00">_chk_checkStateChanged</text>
</a>
</g>
</g>
<!-- Node2&#45;&gt;Node3 -->
<g id="edge2_Node000002_Node000003" class="edge">
<title>Node2&#45;&gt;Node3</title>
<g id="a_edge2_Node000002_Node000003"><a xlink:title=" ">
<path fill="none" stroke="#63b8ff" d="M184.27,-15.25C174.13,-15.25 163.84,-15.25 153.84,-15.25"/>
<polygon fill="#63b8ff" stroke="#63b8ff" points="188.99,-15.25 183.99,-17.5 187.71,-15.25 183.99,-15.25 183.99,-15.25 183.99,-15.25 187.71,-15.25 183.99,-13 188.99,-15.25"/>
</a>
</g>
</g>
</g>
</svg>
