<?xml version="1.0" encoding="UTF-8" standalone="no"?>
<!DOCTYPE svg PUBLIC "-//W3C//DTD SVG 1.1//EN"
 "http://www.w3.org/Graphics/SVG/1.1/DTD/svg11.dtd">
<!-- Generated by graphviz version 14.0.0 (20250921.2048)
 -->
<!-- Title: anonymous_namespace{Log::cpp}::LogCore::closeConsole_ Pages: 1 -->
<svg width="740pt" height="39pt"
 viewBox="0.00 0.00 740.00 39.00" xmlns="http://www.w3.org/2000/svg" xmlns:xlink="http://www.w3.org/1999/xlink">
<g id="graph0" class="graph" transform="scale(1 1) rotate(0) translate(4 34.5)">
<title>anonymous_namespace{Log::cpp}::LogCore::closeConsole_</title>
<!-- Node1 -->
<g id="Node000001" class="node">
<title>Node1</title>
<g id="a_Node000001"><a xlink:title=" ">
<polygon fill="#999999" stroke="none" points="732,-24.88 398,-24.88 398,-5.62 732,-5.62 732,-24.88"/>
<text xml:space="preserve" text-anchor="start" x="406" y="-11.43" font-family="Consolas" font-weight="bold" font-size="11.00">anonymous_namespace{Log::cpp}::LogCore::closeConsole_</text>
</a>
</g>
</g>
<!-- Node2 -->
<g id="Node000002" class="node">
<title>Node2</title>
<g id="a_Node000002"><a xlink:href="../../d5/ddd/namespacenpi_1_1log.html#a7b8c87cac5cee3c9c4ad9f19aebc8c02" target="_top" xlink:title=" ">
<polygon fill="white" stroke="none" points="362,-24.88 214,-24.88 214,-5.62 362,-5.62 362,-24.88"/>
<text xml:space="preserve" text-anchor="middle" x="288" y="-10.43" font-family="Consolas" font-size="11.00">npi::log::closeConsole</text>
</a>
</g>
</g>
<!-- Node1&#45;&gt;Node2 -->
<g id="edge1_Node000001_Node000002" class="edge">
<title>Node1&#45;&gt;Node2</title>
<g id="a_edge1_Node000001_Node000002"><a xlink:title=" ">
<path fill="none" stroke="#63b8ff" d="M391.91,-15.25C381.49,-15.25 371.35,-15.25 361.75,-15.25"/>
<polygon fill="#63b8ff" stroke="#63b8ff" points="396.86,-15.25 391.86,-17.5 395.58,-15.25 391.86,-15.25 391.86,-15.25 391.86,-15.25 395.58,-15.25 391.86,-13 396.86,-15.25"/>
</a>
</g>
</g>
<!-- Node3 -->
<g id="Node000003" class="node">
<title>Node3</title>
<g id="a_Node000003"><a xlink:href="../../d9/dc6/class_main_window.html#a56502a9aef4caa8d6f5afec050f338d6" target="_top" xlink:title=" ">
<polygon fill="white" stroke="none" points="178,-30.5 0,-30.5 0,0 178,0 178,-30.5"/>
<text xml:space="preserve" text-anchor="start" x="8" y="-16.05" font-family="Consolas" font-size="11.00">MainWindow::on_debugConsole</text>
<text xml:space="preserve" text-anchor="middle" x="89" y="-4.8" font-family="Consolas" font-size="11.00">_btn_clicked</text>
</a>
</g>
</g>
<!-- Node2&#45;&gt;Node3 -->
<g id="edge2_Node000002_Node000003" class="edge">
<title>Node2&#45;&gt;Node3</title>
<g id="a_edge2_Node000002_Node000003"><a xlink:title=" ">
<path fill="none" stroke="#63b8ff" d="M208.06,-15.25C198.12,-15.25 187.91,-15.25 177.85,-15.25"/>
<polygon fill="#63b8ff" stroke="#63b8ff" points="212.99,-15.25 207.99,-17.5 211.7,-15.25 207.99,-15.25 207.99,-15.25 207.99,-15.25 211.7,-15.25 207.99,-13 212.99,-15.25"/>
</a>
</g>
</g>
</g>
</svg>
