<?xml version="1.0" encoding="UTF-8" standalone="no"?>
<!DOCTYPE svg PUBLIC "-//W3C//DTD SVG 1.1//EN"
 "http://www.w3.org/Graphics/SVG/1.1/DTD/svg11.dtd">
<!-- Generated by graphviz version 14.0.0 (20250921.2048)
 -->
<!-- Title: anonymous_namespace{Log::cpp}::LogCore::stringsToFields_ Pages: 1 -->
<svg width="704pt" height="74pt"
 viewBox="0.00 0.00 704.00 74.00" xmlns="http://www.w3.org/2000/svg" xmlns:xlink="http://www.w3.org/1999/xlink">
<g id="graph0" class="graph" transform="scale(1 1) rotate(0) translate(4 69.75)">
<title>anonymous_namespace{Log::cpp}::LogCore::stringsToFields_</title>
<!-- Node1 -->
<g id="Node000001" class="node">
<title>Node1</title>
<g id="a_Node000001"><a xlink:title=" ">
<polygon fill="#999999" stroke="none" points="696,-54.5 344,-54.5 344,-35.25 696,-35.25 696,-54.5"/>
<text xml:space="preserve" text-anchor="start" x="352" y="-41.05" font-family="Consolas" font-weight="bold" font-size="11.00">anonymous_namespace{Log::cpp}::LogCore::stringsToFields_</text>
</a>
</g>
</g>
<!-- Node2 -->
<g id="Node000002" class="node">
<title>Node2</title>
<g id="a_Node000002"><a xlink:href="../../d0/d61/classanonymous__namespace_02_log_8cpp_03_1_1_log_core.html#ac81e3393bfb7545e17c9fd8ea4cb4aa6" target="_top" xlink:title=" ">
<polygon fill="white" stroke="none" points="130,-65.75 0,-65.75 0,-24 130,-24 130,-65.75"/>
<text xml:space="preserve" text-anchor="start" x="8" y="-51.3" font-family="Consolas" font-size="11.00">anonymous_namespace</text>
<text xml:space="preserve" text-anchor="start" x="8" y="-40.05" font-family="Consolas" font-size="11.00">{Log::cpp}::LogCore</text>
<text xml:space="preserve" text-anchor="middle" x="65" y="-28.8" font-family="Consolas" font-size="11.00">::LogCore</text>
</a>
</g>
</g>
<!-- Node1&#45;&gt;Node2 -->
<g id="edge1_Node000001_Node000002" class="edge">
<title>Node1&#45;&gt;Node2</title>
<g id="a_edge1_Node000001_Node000002"><a xlink:title=" ">
<path fill="none" stroke="#63b8ff" d="M338.34,-51.21C283.03,-52.27 222.01,-52.55 166,-50.88 154.35,-50.53 141.95,-49.95 129.99,-49.29"/>
<polygon fill="#63b8ff" stroke="#63b8ff" points="343.15,-51.11 338.2,-53.46 341.87,-51.14 338.15,-51.21 338.15,-51.21 338.15,-51.21 341.87,-51.14 338.11,-48.96 343.15,-51.11"/>
</a>
</g>
</g>
<!-- Node3 -->
<g id="Node000003" class="node">
<title>Node3</title>
<g id="a_Node000003"><a xlink:href="../../d0/d61/classanonymous__namespace_02_log_8cpp_03_1_1_log_core.html#af4273441409e88d841adc86974b49c75" target="_top" xlink:title=" ">
<polygon fill="white" stroke="none" points="308,-41.75 166,-41.75 166,0 308,0 308,-41.75"/>
<text xml:space="preserve" text-anchor="start" x="174" y="-27.3" font-family="Consolas" font-size="11.00">anonymous_namespace</text>
<text xml:space="preserve" text-anchor="start" x="174" y="-16.05" font-family="Consolas" font-size="11.00">{Log::cpp}::LogCore</text>
<text xml:space="preserve" text-anchor="middle" x="237" y="-4.8" font-family="Consolas" font-size="11.00">::getStartupSettings_</text>
</a>
</g>
</g>
<!-- Node1&#45;&gt;Node3 -->
<g id="edge2_Node000001_Node000003" class="edge">
<title>Node1&#45;&gt;Node3</title>
<g id="a_edge2_Node000001_Node000003"><a xlink:title=" ">
<path fill="none" stroke="#63b8ff" d="M400.45,-34.75C368.9,-32.06 335.84,-29.23 307.84,-26.84"/>
<polygon fill="#63b8ff" stroke="#63b8ff" points="405.11,-35.15 399.94,-36.96 403.83,-35.04 400.13,-34.72 400.13,-34.72 400.13,-34.72 403.83,-35.04 400.32,-32.48 405.11,-35.15"/>
</a>
</g>
</g>
<!-- Node3&#45;&gt;Node2 -->
<g id="edge3_Node000003_Node000002" class="edge">
<title>Node3&#45;&gt;Node2</title>
<g id="a_edge3_Node000003_Node000002"><a xlink:title=" ">
<path fill="none" stroke="#63b8ff" d="M160.38,-31.55C150.16,-32.99 139.77,-34.46 129.79,-35.87"/>
<polygon fill="#63b8ff" stroke="#63b8ff" points="165.16,-30.88 160.52,-33.8 163.89,-31.06 160.21,-31.58 160.21,-31.58 160.21,-31.58 163.89,-31.06 159.89,-29.35 165.16,-30.88"/>
</a>
</g>
</g>
</g>
</svg>
