<?xml version="1.0" encoding="UTF-8" standalone="no"?>
<!DOCTYPE svg PUBLIC "-//W3C//DTD SVG 1.1//EN"
 "http://www.w3.org/Graphics/SVG/1.1/DTD/svg11.dtd">
<!-- Generated by graphviz version 14.0.0 (20250921.2048)
 -->
<!-- Title: anonymous_namespace{Log::cpp}::LogCore::saveSettings_ Pages: 1 -->
<svg width="728pt" height="170pt"
 viewBox="0.00 0.00 728.00 170.00" xmlns="http://www.w3.org/2000/svg" xmlns:xlink="http://www.w3.org/1999/xlink">
<g id="graph0" class="graph" transform="scale(1 1) rotate(0) translate(4 165.75)">
<title>anonymous_namespace{Log::cpp}::LogCore::saveSettings_</title>
<!-- Node1 -->
<g id="Node000001" class="node">
<title>Node1</title>
<g id="a_Node000001"><a xlink:title=" ">
<polygon fill="#999999" stroke="none" points="720,-90.5 386,-90.5 386,-71.25 720,-71.25 720,-90.5"/>
<text xml:space="preserve" text-anchor="start" x="394" y="-77.05" font-family="Consolas" font-weight="bold" font-size="11.00">anonymous_namespace{Log::cpp}::LogCore::saveSettings_</text>
</a>
</g>
</g>
<!-- Node2 -->
<g id="Node000002" class="node">
<title>Node2</title>
<g id="a_Node000002"><a xlink:href="../../d0/d61/classanonymous__namespace_02_log_8cpp_03_1_1_log_core.html#ac81e3393bfb7545e17c9fd8ea4cb4aa6" target="_top" xlink:title=" ">
<polygon fill="white" stroke="none" points="347,-161.75 217,-161.75 217,-120 347,-120 347,-161.75"/>
<text xml:space="preserve" text-anchor="start" x="225" y="-147.3" font-family="Consolas" font-size="11.00">anonymous_namespace</text>
<text xml:space="preserve" text-anchor="start" x="225" y="-136.05" font-family="Consolas" font-size="11.00">{Log::cpp}::LogCore</text>
<text xml:space="preserve" text-anchor="middle" x="282" y="-124.8" font-family="Consolas" font-size="11.00">::LogCore</text>
</a>
</g>
</g>
<!-- Node1&#45;&gt;Node2 -->
<g id="edge1_Node000001_Node000002" class="edge">
<title>Node1&#45;&gt;Node2</title>
<g id="a_edge1_Node000001_Node000002"><a xlink:title=" ">
<path fill="none" stroke="#63b8ff" d="M503.04,-91.8C459.21,-101.57 394.68,-115.96 346.83,-126.64"/>
<polygon fill="#63b8ff" stroke="#63b8ff" points="507.89,-90.71 503.5,-94 506.64,-90.99 503.01,-91.8 503.01,-91.8 503.01,-91.8 506.64,-90.99 502.52,-89.61 507.89,-90.71"/>
</a>
</g>
</g>
<!-- Node3 -->
<g id="Node000003" class="node">
<title>Node3</title>
<g id="a_Node000003"><a xlink:href="../../d0/d61/classanonymous__namespace_02_log_8cpp_03_1_1_log_core.html#a18c3c555110a16327bd67014b95739eb" target="_top" xlink:title=" ">
<polygon fill="white" stroke="none" points="350,-101.75 214,-101.75 214,-60 350,-60 350,-101.75"/>
<text xml:space="preserve" text-anchor="start" x="222" y="-87.3" font-family="Consolas" font-size="11.00">anonymous_namespace</text>
<text xml:space="preserve" text-anchor="start" x="222" y="-76.05" font-family="Consolas" font-size="11.00">{Log::cpp}::LogCore</text>
<text xml:space="preserve" text-anchor="middle" x="282" y="-64.8" font-family="Consolas" font-size="11.00">::setColoredConsole_</text>
</a>
</g>
</g>
<!-- Node1&#45;&gt;Node3 -->
<g id="edge2_Node000001_Node000003" class="edge">
<title>Node1&#45;&gt;Node3</title>
<g id="a_edge2_Node000001_Node000003"><a xlink:title=" ">
<path fill="none" stroke="#63b8ff" d="M380.04,-80.88C369.58,-80.88 359.46,-80.88 349.94,-80.88"/>
<polygon fill="#63b8ff" stroke="#63b8ff" points="385.01,-80.88 380.01,-83.13 383.73,-80.88 380.01,-80.88 380.01,-80.88 380.01,-80.88 383.73,-80.88 380.01,-78.63 385.01,-80.88"/>
</a>
</g>
</g>
<!-- Node5 -->
<g id="Node000005" class="node">
<title>Node5</title>
<g id="a_Node000005"><a xlink:href="../../d0/d61/classanonymous__namespace_02_log_8cpp_03_1_1_log_core.html#a59eebbde2d3d36263a0d7a96e595573b" target="_top" xlink:title=" ">
<polygon fill="white" stroke="none" points="347,-41.75 217,-41.75 217,0 347,0 347,-41.75"/>
<text xml:space="preserve" text-anchor="start" x="225" y="-27.3" font-family="Consolas" font-size="11.00">anonymous_namespace</text>
<text xml:space="preserve" text-anchor="start" x="225" y="-16.05" font-family="Consolas" font-size="11.00">{Log::cpp}::LogCore</text>
<text xml:space="preserve" text-anchor="middle" x="282" y="-4.8" font-family="Consolas" font-size="11.00">::setWarnIsImp_</text>
</a>
</g>
</g>
<!-- Node1&#45;&gt;Node5 -->
<g id="edge4_Node000001_Node000005" class="edge">
<title>Node1&#45;&gt;Node5</title>
<g id="a_edge4_Node000001_Node000005"><a xlink:title=" ">
<path fill="none" stroke="#63b8ff" d="M503.04,-69.95C459.21,-60.18 394.68,-45.79 346.83,-35.11"/>
<polygon fill="#63b8ff" stroke="#63b8ff" points="507.89,-71.04 502.52,-72.14 506.64,-70.76 503.01,-69.95 503.01,-69.95 503.01,-69.95 506.64,-70.76 503.5,-67.75 507.89,-71.04"/>
</a>
</g>
</g>
<!-- Node4 -->
<g id="Node000004" class="node">
<title>Node4</title>
<g id="a_Node000004"><a xlink:href="../../d5/ddd/namespacenpi_1_1log.html#aa9c7f1de08a88a0dcac316127c1d384b" target="_top" xlink:title=" ">
<polygon fill="white" stroke="none" points="178,-90.5 0,-90.5 0,-71.25 178,-71.25 178,-90.5"/>
<text xml:space="preserve" text-anchor="middle" x="89" y="-76.05" font-family="Consolas" font-size="11.00">npi::log::setColoredConsole</text>
</a>
</g>
</g>
<!-- Node3&#45;&gt;Node4 -->
<g id="edge3_Node000003_Node000004" class="edge">
<title>Node3&#45;&gt;Node4</title>
<g id="a_edge3_Node000003_Node000004"><a xlink:title=" ">
<path fill="none" stroke="#63b8ff" d="M208.1,-80.88C198.23,-80.88 188.01,-80.88 177.91,-80.88"/>
<polygon fill="#63b8ff" stroke="#63b8ff" points="212.98,-80.88 207.98,-83.13 211.7,-80.88 207.98,-80.88 207.98,-80.88 207.98,-80.88 211.7,-80.88 207.98,-78.63 212.98,-80.88"/>
</a>
</g>
</g>
<!-- Node6 -->
<g id="Node000006" class="node">
<title>Node6</title>
<g id="a_Node000006"><a xlink:href="../../d5/ddd/namespacenpi_1_1log.html#a9be9faae3670cc6af86285afecfb3e58" target="_top" xlink:title=" ">
<polygon fill="white" stroke="none" points="172,-30.5 6,-30.5 6,-11.25 172,-11.25 172,-30.5"/>
<text xml:space="preserve" text-anchor="middle" x="89" y="-16.05" font-family="Consolas" font-size="11.00">npi::log::setWarnAsImpLog</text>
</a>
</g>
</g>
<!-- Node5&#45;&gt;Node6 -->
<g id="edge5_Node000005_Node000006" class="edge">
<title>Node5&#45;&gt;Node6</title>
<g id="a_edge5_Node000005_Node000006"><a xlink:title=" ">
<path fill="none" stroke="#63b8ff" d="M210.94,-20.88C198.21,-20.88 184.84,-20.88 171.81,-20.88"/>
<polygon fill="#63b8ff" stroke="#63b8ff" points="215.92,-20.88 210.92,-23.13 214.63,-20.88 210.92,-20.88 210.92,-20.88 210.92,-20.88 214.63,-20.88 210.92,-18.63 215.92,-20.88"/>
</a>
</g>
</g>
</g>
</svg>
