<?xml version="1.0" encoding="UTF-8" standalone="no"?>
<!DOCTYPE svg PUBLIC "-//W3C//DTD SVG 1.1//EN"
 "http://www.w3.org/Graphics/SVG/1.1/DTD/svg11.dtd">
<!-- Generated by graphviz version 14.0.0 (20250921.2048)
 -->
<!-- Title: anonymous_namespace{Log::cpp}::LogCore::getFutureDir_ Pages: 1 -->
<svg width="1204pt" height="131pt"
 viewBox="0.00 0.00 1204.00 131.00" xmlns="http://www.w3.org/2000/svg" xmlns:xlink="http://www.w3.org/1999/xlink">
<g id="graph0" class="graph" transform="scale(1 1) rotate(0) translate(4 127.12)">
<title>anonymous_namespace{Log::cpp}::LogCore::getFutureDir_</title>
<!-- Node1 -->
<g id="Node000001" class="node">
<title>Node1</title>
<g id="a_Node000001"><a xlink:title=" ">
<polygon fill="#999999" stroke="none" points="334,-79.5 0,-79.5 0,-60.25 334,-60.25 334,-79.5"/>
<text xml:space="preserve" text-anchor="start" x="8" y="-66.05" font-family="Consolas" font-weight="bold" font-size="11.00">anonymous_namespace{Log::cpp}::LogCore::getFutureDir_</text>
</a>
</g>
</g>
<!-- Node2 -->
<g id="Node000002" class="node">
<title>Node2</title>
<g id="a_Node000002"><a xlink:href="../../dc/dba/namespacenpi_1_1app.html#a40a2a28831f2f410c995f0657baf6544" target="_top" xlink:title="Absolute application&#45;level ProgramData path.">
<polygon fill="white" stroke="none" points="551,-117.5 373,-117.5 373,-98.25 551,-98.25 551,-117.5"/>
<text xml:space="preserve" text-anchor="middle" x="462" y="-103.05" font-family="Consolas" font-size="11.00">npi::app::appProgramDataDir</text>
</a>
</g>
</g>
<!-- Node1&#45;&gt;Node2 -->
<g id="edge1_Node000001_Node000002" class="edge">
<title>Node1&#45;&gt;Node2</title>
<g id="a_edge1_Node000001_Node000002"><a xlink:title=" ">
<path fill="none" stroke="#63b8ff" d="M241.94,-79.46C284.28,-84.96 337.44,-91.85 380.78,-97.47"/>
<polygon fill="#63b8ff" stroke="#63b8ff" points="385.62,-98.1 380.38,-99.69 384.35,-97.93 380.67,-97.46 380.67,-97.46 380.67,-97.46 384.35,-97.93 380.96,-95.22 385.62,-98.1"/>
</a>
</g>
</g>
<!-- Node6 -->
<g id="Node000006" class="node">
<title>Node6</title>
<g id="a_Node000006"><a xlink:href="../../d0/d61/classanonymous__namespace_02_log_8cpp_03_1_1_log_core.html#a1555ff59635d441f5b2c670ad19a1718" target="_top" xlink:title=" ">
<polygon fill="white" stroke="none" points="744,-60.75 614,-60.75 614,-19 744,-19 744,-60.75"/>
<text xml:space="preserve" text-anchor="start" x="622" y="-46.3" font-family="Consolas" font-size="11.00">anonymous_namespace</text>
<text xml:space="preserve" text-anchor="start" x="622" y="-35.05" font-family="Consolas" font-size="11.00">{Log::cpp}::LogCore</text>
<text xml:space="preserve" text-anchor="middle" x="679" y="-23.8" font-family="Consolas" font-size="11.00">::ComparePaths_</text>
</a>
</g>
</g>
<!-- Node1&#45;&gt;Node6 -->
<g id="edge5_Node000001_Node000006" class="edge">
<title>Node1&#45;&gt;Node6</title>
<g id="a_edge5_Node000001_Node000006"><a xlink:title=" ">
<path fill="none" stroke="#63b8ff" d="M333.86,-63.14C402.08,-60 481.88,-55.85 554,-50.88 571.63,-49.66 590.64,-48.1 608.36,-46.54"/>
<polygon fill="#63b8ff" stroke="#63b8ff" points="613.1,-46.12 608.32,-48.8 611.83,-46.23 608.12,-46.56 608.12,-46.56 608.12,-46.56 611.83,-46.23 607.93,-44.32 613.1,-46.12"/>
</a>
</g>
</g>
<!-- Node7 -->
<g id="Node000007" class="node">
<title>Node7</title>
<g id="a_Node000007"><a xlink:href="../../d0/d61/classanonymous__namespace_02_log_8cpp_03_1_1_log_core.html#a954ca6deaaa97afe1fdabec631c46d90" target="_top" xlink:title=" ">
<polygon fill="white" stroke="none" points="554,-41.75 370,-41.75 370,0 554,0 554,-41.75"/>
<text xml:space="preserve" text-anchor="start" x="378" y="-27.3" font-family="Consolas" font-size="11.00">anonymous_namespace</text>
<text xml:space="preserve" text-anchor="start" x="378" y="-16.05" font-family="Consolas" font-size="11.00">{Log::cpp}::LogCore</text>
<text xml:space="preserve" text-anchor="middle" x="462" y="-4.8" font-family="Consolas" font-size="11.00">::getCurrentDirFromSettings_</text>
</a>
</g>
</g>
<!-- Node1&#45;&gt;Node7 -->
<g id="edge6_Node000001_Node000007" class="edge">
<title>Node1&#45;&gt;Node7</title>
<g id="a_edge6_Node000001_Node000007"><a xlink:title=" ">
<path fill="none" stroke="#63b8ff" d="M225.54,-60.25C264.93,-53.66 318.14,-44.77 364.01,-37.09"/>
<polygon fill="#63b8ff" stroke="#63b8ff" points="368.94,-36.27 364.38,-39.31 367.68,-36.48 364.01,-37.09 364.01,-37.09 364.01,-37.09 367.68,-36.48 363.64,-34.88 368.94,-36.27"/>
</a>
</g>
</g>
<!-- Node3 -->
<g id="Node000003" class="node">
<title>Node3</title>
<g id="a_Node000003"><a xlink:href="../../dc/dba/namespacenpi_1_1app.html#a30836be8b9337a64733a6e05594b23c8" target="_top" xlink:title="Absolute organization&#45;level ProgramData path.">
<polygon fill="white" stroke="none" points="768,-117.5 590,-117.5 590,-98.25 768,-98.25 768,-117.5"/>
<text xml:space="preserve" text-anchor="middle" x="679" y="-103.05" font-family="Consolas" font-size="11.00">npi::app::orgProgramDataDir</text>
</a>
</g>
</g>
<!-- Node2&#45;&gt;Node3 -->
<g id="edge2_Node000002_Node000003" class="edge">
<title>Node2&#45;&gt;Node3</title>
<g id="a_edge2_Node000002_Node000003"><a xlink:title=" ">
<path fill="none" stroke="#63b8ff" d="M550.76,-107.88C561.73,-107.88 572.99,-107.88 584.05,-107.88"/>
<polygon fill="#63b8ff" stroke="#63b8ff" points="588.95,-107.88 583.95,-110.13 587.67,-107.88 583.95,-107.88 583.95,-107.88 583.95,-107.88 587.67,-107.88 583.95,-105.63 588.95,-107.88"/>
</a>
</g>
</g>
<!-- Node4 -->
<g id="Node000004" class="node">
<title>Node4</title>
<g id="a_Node000004"><a xlink:href="../../df/d40/namespaceanonymous__namespace_02_meta_paths_8cpp_03.html#a6b23c92ed8a542082d8cddde4bd55b47" target="_top" xlink:title="Resolve base path using Known Folder ID or environment variable fallback.">
<polygon fill="white" stroke="none" points="976,-123.12 804,-123.12 804,-92.62 976,-92.62 976,-123.12"/>
<text xml:space="preserve" text-anchor="start" x="812" y="-108.67" font-family="Consolas" font-size="11.00">anonymous_namespace</text>
<text xml:space="preserve" text-anchor="middle" x="890" y="-97.42" font-family="Consolas" font-size="11.00">{MetaPaths::cpp}::basePath</text>
</a>
</g>
</g>
<!-- Node3&#45;&gt;Node4 -->
<g id="edge3_Node000003_Node000004" class="edge">
<title>Node3&#45;&gt;Node4</title>
<g id="a_edge3_Node000003_Node000004"><a xlink:title=" ">
<path fill="none" stroke="#63b8ff" d="M767.73,-107.88C777.81,-107.88 788.11,-107.88 798.24,-107.88"/>
<polygon fill="#63b8ff" stroke="#63b8ff" points="802.95,-107.88 797.95,-110.13 801.67,-107.88 797.95,-107.88 797.95,-107.88 797.95,-107.88 801.67,-107.88 797.95,-105.63 802.95,-107.88"/>
</a>
</g>
</g>
<!-- Node5 -->
<g id="Node000005" class="node">
<title>Node5</title>
<g id="a_Node000005"><a xlink:href="../../dc/dba/namespacenpi_1_1app.html#a30b5245afa890e98f19f43c58f29e633" target="_top" xlink:title="Windows native fatal error message box.">
<polygon fill="white" stroke="none" points="1196,-117.5 1012,-117.5 1012,-98.25 1196,-98.25 1196,-117.5"/>
<text xml:space="preserve" text-anchor="middle" x="1104" y="-103.05" font-family="Consolas" font-size="11.00">npi::app::nativeFatalMessage</text>
</a>
</g>
</g>
<!-- Node4&#45;&gt;Node5 -->
<g id="edge4_Node000004_Node000005" class="edge">
<title>Node4&#45;&gt;Node5</title>
<g id="a_edge4_Node000004_Node000005"><a xlink:title=" ">
<path fill="none" stroke="#63b8ff" d="M975.7,-107.88C985.73,-107.88 996.02,-107.88 1006.2,-107.88"/>
<polygon fill="#63b8ff" stroke="#63b8ff" points="1010.96,-107.88 1005.96,-110.13 1009.68,-107.88 1005.96,-107.88 1005.96,-107.88 1005.96,-107.88 1009.68,-107.88 1005.96,-105.63 1010.96,-107.88"/>
</a>
</g>
</g>
<!-- Node7&#45;&gt;Node6 -->
<g id="edge7_Node000007_Node000006" class="edge">
<title>Node7&#45;&gt;Node6</title>
<g id="a_edge7_Node000007_Node000006"><a xlink:title=" ">
<path fill="none" stroke="#63b8ff" d="M553.87,-28.91C572.09,-30.52 590.97,-32.18 608.34,-33.72"/>
<polygon fill="#63b8ff" stroke="#63b8ff" points="612.95,-34.13 607.78,-35.93 611.68,-34.01 607.97,-33.69 607.97,-33.69 607.97,-33.69 611.68,-34.01 608.17,-31.45 612.95,-34.13"/>
</a>
</g>
</g>
</g>
</svg>
