<?xml version="1.0" encoding="UTF-8" standalone="no"?>
<!DOCTYPE svg PUBLIC "-//W3C//DTD SVG 1.1//EN"
 "http://www.w3.org/Graphics/SVG/1.1/DTD/svg11.dtd">
<!-- Generated by graphviz version 14.0.0 (20250921.2048)
 -->
<!-- Title: anonymous_namespace{Log::cpp}::LogCore::startDisplay_ Pages: 1 -->
<!--zoomable 410 -->

<svg id="main" version="1.1" xmlns="http://www.w3.org/2000/svg" xmlns:xlink="http://www.w3.org/1999/xlink" xml:space="preserve" onload="init(evt)">

<style type="text/css"><![CDATA[
.node, .edge {opacity: 0.7;}
.node.selected, .edge.selected {opacity: 1;}
.edge:hover path { stroke: red; }
.edge:hover polygon { stroke: red; fill: red; }
]]></style>

<defs>
  <circle id="rim" cx="0" cy="0" r="7"/>
  <circle id="rim2" cx="0" cy="0" r="3.5"/>
  <g id="zoomPlus">
    <use xlink:href="#rim" fill="#404040"><set attributeName="fill" to="#808080" begin="zoomplus.mouseover" end="zoomplus.mouseout"/></use>
    <path d="M-4,0h8M0,-4v8" fill="none" stroke="white" stroke-width="1.5" pointer-events="none"/>
  </g>
  <g id="zoomMin">
    <use xlink:href="#rim" fill="#404040"><set attributeName="fill" to="#808080" begin="zoomminus.mouseover" end="zoomminus.mouseout"/></use>
    <path d="M-4,0h8" fill="none" stroke="white" stroke-width="1.5" pointer-events="none"/>
  </g>
  <g id="arrowUp" transform="translate(30 24)">
    <use xlink:href="#rim"/>
    <path pointer-events="none" fill="none" stroke="white" stroke-width="1.5" d="M0,-3.0v7 M-2.5,-0.5L0,-3.0L2.5,-0.5"/>
  </g>
  <g id="arrowRight" transform="rotate(90) translate(36 -43)">
    <use xlink:href="#rim"/>
    <path pointer-events="none" fill="none" stroke="white" stroke-width="1.5" d="M0,-3.0v7 M-2.5,-0.5L0,-3.0L2.5,-0.5"/>
  </g>
  <g id="arrowDown" transform="rotate(180) translate(-30 -48)">
    <use xlink:href="#rim"/>
    <path pointer-events="none" fill="none" stroke="white" stroke-width="1.5" d="M0,-3.0v7 M-2.5,-0.5L0,-3.0L2.5,-0.5"/>
  </g>
  <g id="arrowLeft" transform="rotate(270) translate(-36 17)">
    <use xlink:href="#rim"/>
    <path pointer-events="none" fill="none" stroke="white" stroke-width="1.5" d="M0,-3.0v7 M-2.5,-0.5L0,-3.0L2.5,-0.5"/>
  </g>
  <g id="resetDef">
    <use xlink:href="#rim2" fill="#404040"><set attributeName="fill" to="#808080" begin="reset.mouseover" end="reset.mouseout"/></use>
  </g>
</defs>
<script type="application/ecmascript">
var viewWidth = 924;
var viewHeight = 410;
var sectionId = 'dynsection-48';
</script>
<script type="application/ecmascript" xlink:href="../../svg.min.js"/>
<svg id="graph" class="graph">
<g id="viewport">
<title>anonymous_namespace{Log::cpp}::LogCore::startDisplay_</title>
<!-- Node1 -->
<g id="Node000001" class="node">
<title>Node1</title>
<g id="a_Node000001"><a xlink:title=" ">
<polygon fill="#999999" stroke="none" points="334,-180.5 0,-180.5 0,-161.25 334,-161.25 334,-180.5"/>
<text xml:space="preserve" text-anchor="start" x="8" y="-167.05" font-family="Consolas" font-weight="bold" font-size="11.00">anonymous_namespace{Log::cpp}::LogCore::startDisplay_</text>
</a>
</g>
</g>
<!-- Node2 -->
<g id="Node000002" class="node">
<title>Node2</title>
<g id="a_Node000002"><a xlink:href="../../d0/d61/classanonymous__namespace_02_log_8cpp_03_1_1_log_core.html#ada2216e6d5c8ed9150550651e529c9a7" target="_top" xlink:title=" ">
<polygon fill="white" stroke="none" points="500,-221.75 370,-221.75 370,-180 500,-180 500,-221.75"/>
<text xml:space="preserve" text-anchor="start" x="378" y="-207.3" font-family="Consolas" font-size="11.00">anonymous_namespace</text>
<text xml:space="preserve" text-anchor="start" x="378" y="-196.05" font-family="Consolas" font-size="11.00">{Log::cpp}::LogCore</text>
<text xml:space="preserve" text-anchor="middle" x="435" y="-184.8" font-family="Consolas" font-size="11.00">::FormatOneLine_</text>
</a>
</g>
</g>
<!-- Node1&#45;&gt;Node2 -->
<g id="edge1_Node000001_Node000002" class="edge">
<title>Node1&#45;&gt;Node2</title>
<g id="a_edge1_Node000001_Node000002"><a xlink:title=" ">
<path fill="none" stroke="#63b8ff" d="M253.26,-180.49C289.17,-184.54 330.44,-189.2 364.47,-193.03"/>
<polygon fill="#63b8ff" stroke="#63b8ff" points="369.09,-193.55 363.87,-195.23 367.81,-193.41 364.12,-192.99 364.12,-192.99 364.12,-192.99 367.81,-193.41 364.37,-190.76 369.09,-193.55"/>
</a>
</g>
</g>
<!-- Node11 -->
<g id="Node000011" class="node">
<title>Node11</title>
<g id="a_Node000011"><a xlink:href="../../d0/d61/classanonymous__namespace_02_log_8cpp_03_1_1_log_core.html#ab25a4996d5ead7b5656de343421f6788" target="_top" xlink:title=" ">
<polygon fill="white" stroke="none" points="500,-161.75 370,-161.75 370,-120 500,-120 500,-161.75"/>
<text xml:space="preserve" text-anchor="start" x="378" y="-147.3" font-family="Consolas" font-size="11.00">anonymous_namespace</text>
<text xml:space="preserve" text-anchor="start" x="378" y="-136.05" font-family="Consolas" font-size="11.00">{Log::cpp}::LogCore</text>
<text xml:space="preserve" text-anchor="middle" x="435" y="-124.8" font-family="Consolas" font-size="11.00">::insertLogMessage_</text>
</a>
</g>
</g>
<!-- Node1&#45;&gt;Node11 -->
<g id="edge10_Node000001_Node000011" class="edge">
<title>Node1&#45;&gt;Node11</title>
<g id="a_edge10_Node000001_Node000011"><a xlink:title=" ">
<path fill="none" stroke="#63b8ff" d="M253.26,-161.26C289.17,-157.21 330.44,-152.55 364.47,-148.72"/>
<polygon fill="#63b8ff" stroke="#63b8ff" points="369.09,-148.2 364.37,-150.99 367.81,-148.34 364.12,-148.76 364.12,-148.76 364.12,-148.76 367.81,-148.34 363.87,-146.52 369.09,-148.2"/>
</a>
</g>
</g>
<!-- Node3 -->
<g id="Node000003" class="node">
<title>Node3</title>
<g id="a_Node000003"><a xlink:href="../../dc/d58/structanonymous__namespace_02_log_8cpp_03_1_1_log_core_1_1_fixed_strings.html#a3a000d7c183750a49f0cfce9fa6926a3" target="_top" xlink:title=" ">
<polygon fill="white" stroke="none" points="750,-401.75 536,-401.75 536,-360 750,-360 750,-401.75"/>
<text xml:space="preserve" text-anchor="start" x="544" y="-387.3" font-family="Consolas" font-size="11.00">anonymous_namespace</text>
<text xml:space="preserve" text-anchor="start" x="544" y="-376.05" font-family="Consolas" font-size="11.00">{Log::cpp}::LogCore</text>
<text xml:space="preserve" text-anchor="middle" x="643" y="-364.8" font-family="Consolas" font-size="11.00">::FixedStrings::appendCategoryTo_</text>
</a>
</g>
</g>
<!-- Node2&#45;&gt;Node3 -->
<g id="edge2_Node000002_Node000003" class="edge">
<title>Node2&#45;&gt;Node3</title>
<g id="a_edge2_Node000002_Node000003"><a xlink:title=" ">
<path fill="none" stroke="#63b8ff" d="M444.12,-221.49C457.98,-253.98 489.32,-316.89 536,-350.88 539.09,-353.13 542.35,-355.21 545.73,-357.14"/>
<polygon fill="#63b8ff" stroke="#63b8ff" points="550.06,-359.47 544.59,-359.08 548.93,-358.86 545.66,-357.1 545.66,-357.1 545.66,-357.1 548.93,-358.86 546.72,-355.12 550.06,-359.47"/>
</a>
</g>
</g>
<!-- Node4 -->
<g id="Node000004" class="node">
<title>Node4</title>
<g id="a_Node000004"><a xlink:href="../../d0/d61/classanonymous__namespace_02_log_8cpp_03_1_1_log_core.html#ab122b241533434653fbd519339edfa38" target="_top" xlink:title=" ">
<polygon fill="white" stroke="none" points="708,-341.75 578,-341.75 578,-300 708,-300 708,-341.75"/>
<text xml:space="preserve" text-anchor="start" x="586" y="-327.3" font-family="Consolas" font-size="11.00">anonymous_namespace</text>
<text xml:space="preserve" text-anchor="start" x="586" y="-316.05" font-family="Consolas" font-size="11.00">{Log::cpp}::LogCore</text>
<text xml:space="preserve" text-anchor="middle" x="643" y="-304.8" font-family="Consolas" font-size="11.00">::AppendDateTime_</text>
</a>
</g>
</g>
<!-- Node2&#45;&gt;Node4 -->
<g id="edge3_Node000002_Node000004" class="edge">
<title>Node2&#45;&gt;Node4</title>
<g id="a_edge3_Node000002_Node000004"><a xlink:title=" ">
<path fill="none" stroke="#63b8ff" d="M453.84,-221.73C472.4,-242.18 503.28,-272.82 536,-290.88 547.25,-297.09 559.9,-302.1 572.44,-306.13"/>
<polygon fill="#63b8ff" stroke="#63b8ff" points="577.03,-307.54 571.58,-308.22 575.8,-307.17 572.25,-306.07 572.25,-306.07 572.25,-306.07 575.8,-307.17 572.91,-303.92 577.03,-307.54"/>
</a>
</g>
</g>
<!-- Node6 -->
<g id="Node000006" class="node">
<title>Node6</title>
<g id="a_Node000006"><a xlink:href="../../d0/d61/classanonymous__namespace_02_log_8cpp_03_1_1_log_core.html#ab8061264281dba381f5b1d06ef4d969c" target="_top" xlink:title=" ">
<polygon fill="white" stroke="none" points="708,-281.75 578,-281.75 578,-240 708,-240 708,-281.75"/>
<text xml:space="preserve" text-anchor="start" x="586" y="-267.3" font-family="Consolas" font-size="11.00">anonymous_namespace</text>
<text xml:space="preserve" text-anchor="start" x="586" y="-256.05" font-family="Consolas" font-size="11.00">{Log::cpp}::LogCore</text>
<text xml:space="preserve" text-anchor="middle" x="643" y="-244.8" font-family="Consolas" font-size="11.00">::AppendDelta_</text>
</a>
</g>
</g>
<!-- Node2&#45;&gt;Node6 -->
<g id="edge5_Node000002_Node000006" class="edge">
<title>Node2&#45;&gt;Node6</title>
<g id="a_edge5_Node000002_Node000006"><a xlink:title=" ">
<path fill="none" stroke="#63b8ff" d="M499.97,-220.23C511.94,-223.8 524.34,-227.48 536,-230.88 547.68,-234.28 560.09,-237.84 572.16,-241.28"/>
<polygon fill="#63b8ff" stroke="#63b8ff" points="576.88,-242.62 571.46,-243.42 575.65,-242.27 572.07,-241.25 572.07,-241.25 572.07,-241.25 575.65,-242.27 572.69,-239.09 576.88,-242.62"/>
</a>
</g>
</g>
<!-- Node7 -->
<g id="Node000007" class="node">
<title>Node7</title>
<g id="a_Node000007"><a xlink:href="../../dc/d58/structanonymous__namespace_02_log_8cpp_03_1_1_log_core_1_1_fixed_strings.html#a10410013e62e5adfa34cf8b32ca58ff1" target="_top" xlink:title=" ">
<polygon fill="white" stroke="none" points="750,-221.75 536,-221.75 536,-180 750,-180 750,-221.75"/>
<text xml:space="preserve" text-anchor="start" x="544" y="-207.3" font-family="Consolas" font-size="11.00">anonymous_namespace</text>
<text xml:space="preserve" text-anchor="start" x="544" y="-196.05" font-family="Consolas" font-size="11.00">{Log::cpp}::LogCore</text>
<text xml:space="preserve" text-anchor="middle" x="643" y="-184.8" font-family="Consolas" font-size="11.00">::FixedStrings::appendFileNameTo_</text>
</a>
</g>
</g>
<!-- Node2&#45;&gt;Node7 -->
<g id="edge6_Node000002_Node000007" class="edge">
<title>Node2&#45;&gt;Node7</title>
<g id="a_edge6_Node000002_Node000007"><a xlink:title=" ">
<path fill="none" stroke="#63b8ff" d="M499.77,-200.88C509.45,-200.88 519.67,-200.88 530.02,-200.88"/>
<polygon fill="#63b8ff" stroke="#63b8ff" points="534.9,-200.88 529.9,-203.13 533.62,-200.88 529.9,-200.88 529.9,-200.88 529.9,-200.88 533.62,-200.88 529.9,-198.63 534.9,-200.88"/>
</a>
</g>
</g>
<!-- Node8 -->
<g id="Node000008" class="node">
<title>Node8</title>
<g id="a_Node000008"><a xlink:href="../../dc/d58/structanonymous__namespace_02_log_8cpp_03_1_1_log_core_1_1_fixed_strings.html#a32b722c7a4c1269ef2d88bbafd0eb59c" target="_top" xlink:title=" ">
<polygon fill="white" stroke="none" points="750,-161.75 536,-161.75 536,-120 750,-120 750,-161.75"/>
<text xml:space="preserve" text-anchor="start" x="544" y="-147.3" font-family="Consolas" font-size="11.00">anonymous_namespace</text>
<text xml:space="preserve" text-anchor="start" x="544" y="-136.05" font-family="Consolas" font-size="11.00">{Log::cpp}::LogCore</text>
<text xml:space="preserve" text-anchor="middle" x="643" y="-124.8" font-family="Consolas" font-size="11.00">::FixedStrings::appendFuncNameTo_</text>
</a>
</g>
</g>
<!-- Node2&#45;&gt;Node8 -->
<g id="edge7_Node000002_Node000008" class="edge">
<title>Node2&#45;&gt;Node8</title>
<g id="a_edge7_Node000002_Node000008"><a xlink:title=" ">
<path fill="none" stroke="#63b8ff" d="M499.97,-181.52C511.94,-177.95 524.34,-174.27 536,-170.88 544.43,-168.42 553.26,-165.87 562.05,-163.36"/>
<polygon fill="#63b8ff" stroke="#63b8ff" points="566.65,-162.04 562.46,-165.58 565.42,-162.4 561.85,-163.42 561.85,-163.42 561.85,-163.42 565.42,-162.4 561.23,-161.25 566.65,-162.04"/>
</a>
</g>
</g>
<!-- Node9 -->
<g id="Node000009" class="node">
<title>Node9</title>
<g id="a_Node000009"><a xlink:href="../../d0/d61/classanonymous__namespace_02_log_8cpp_03_1_1_log_core.html#a4dda6a0306f72401c363c4ef2e7d1611" target="_top" xlink:title=" ">
<polygon fill="white" stroke="none" points="708,-101.75 578,-101.75 578,-60 708,-60 708,-101.75"/>
<text xml:space="preserve" text-anchor="start" x="586" y="-87.3" font-family="Consolas" font-size="11.00">anonymous_namespace</text>
<text xml:space="preserve" text-anchor="start" x="586" y="-76.05" font-family="Consolas" font-size="11.00">{Log::cpp}::LogCore</text>
<text xml:space="preserve" text-anchor="middle" x="643" y="-64.8" font-family="Consolas" font-size="11.00">::AppendLevel_</text>
</a>
</g>
</g>
<!-- Node2&#45;&gt;Node9 -->
<g id="edge8_Node000002_Node000009" class="edge">
<title>Node2&#45;&gt;Node9</title>
<g id="a_edge8_Node000002_Node000009"><a xlink:title=" ">
<path fill="none" stroke="#63b8ff" d="M487.7,-180.07C492.09,-177.31 496.27,-174.25 500,-170.88 523.08,-150.04 511.3,-129.77 536,-110.88 546.6,-102.76 559.31,-96.84 572.18,-92.52"/>
<polygon fill="#63b8ff" stroke="#63b8ff" points="576.93,-91.02 572.84,-94.67 575.71,-91.41 572.16,-92.53 572.16,-92.53 572.16,-92.53 575.71,-91.41 571.48,-90.38 576.93,-91.02"/>
</a>
</g>
</g>
<!-- Node10 -->
<g id="Node000010" class="node">
<title>Node10</title>
<g id="a_Node000010"><a xlink:href="../../d0/d61/classanonymous__namespace_02_log_8cpp_03_1_1_log_core.html#aa885eb55dee8680b48150be9c21ee5f9" target="_top" xlink:title=" ">
<polygon fill="white" stroke="none" points="708,-41.75 578,-41.75 578,0 708,0 708,-41.75"/>
<text xml:space="preserve" text-anchor="start" x="586" y="-27.3" font-family="Consolas" font-size="11.00">anonymous_namespace</text>
<text xml:space="preserve" text-anchor="start" x="586" y="-16.05" font-family="Consolas" font-size="11.00">{Log::cpp}::LogCore</text>
<text xml:space="preserve" text-anchor="middle" x="643" y="-4.8" font-family="Consolas" font-size="11.00">::AppendStr_</text>
</a>
</g>
</g>
<!-- Node2&#45;&gt;Node10 -->
<g id="edge9_Node000002_Node000010" class="edge">
<title>Node2&#45;&gt;Node10</title>
<g id="a_edge9_Node000002_Node000010"><a xlink:title=" ">
<path fill="none" stroke="#63b8ff" d="M489.86,-180.12C493.59,-177.38 497.03,-174.31 500,-170.88 536.38,-128.72 496.32,-89.94 536,-50.88 546.02,-41.01 559.02,-34.34 572.47,-29.84"/>
<polygon fill="#63b8ff" stroke="#63b8ff" points="577.09,-28.4 572.98,-32.04 575.87,-28.78 572.31,-29.89 572.31,-29.89 572.31,-29.89 575.87,-28.78 571.65,-27.74 577.09,-28.4"/>
</a>
</g>
</g>
<!-- Node5 -->
<g id="Node000005" class="node">
<title>Node5</title>
<g id="a_Node000005"><a xlink:href="../../d0/d61/classanonymous__namespace_02_log_8cpp_03_1_1_log_core.html#a2a46463a402dc1ad9518d5d7dbfea87d" target="_top" xlink:title=" ">
<polygon fill="white" stroke="none" points="916,-341.75 786,-341.75 786,-300 916,-300 916,-341.75"/>
<text xml:space="preserve" text-anchor="start" x="794" y="-327.3" font-family="Consolas" font-size="11.00">anonymous_namespace</text>
<text xml:space="preserve" text-anchor="start" x="794" y="-316.05" font-family="Consolas" font-size="11.00">{Log::cpp}::LogCore</text>
<text xml:space="preserve" text-anchor="middle" x="851" y="-304.8" font-family="Consolas" font-size="11.00">::AppendChar_</text>
</a>
</g>
</g>
<!-- Node4&#45;&gt;Node5 -->
<g id="edge4_Node000004_Node000005" class="edge">
<title>Node4&#45;&gt;Node5</title>
<g id="a_edge4_Node000004_Node000005"><a xlink:title=" ">
<path fill="none" stroke="#63b8ff" d="M707.77,-320.88C730.66,-320.88 756.58,-320.88 779.97,-320.88"/>
<polygon fill="#63b8ff" stroke="#63b8ff" points="784.96,-320.88 779.96,-323.13 783.68,-320.88 779.96,-320.88 779.96,-320.88 779.96,-320.88 783.68,-320.88 779.96,-318.63 784.96,-320.88"/>
</a>
</g>
</g>
</g>
</svg>

<g id="navigator" transform="translate(0 0)" fill="#404254">
  <rect fill="#f2f5e9" fill-opacity="0.5" stroke="#606060" stroke-width=".5" x="0" y="0" width="60" height="60"/>
  <use id="zoomplus" xlink:href="#zoomPlus" x="17" y="9" onmousedown="handleZoom(evt,'in')"/>
  <use id="zoomminus" xlink:href="#zoomMin" x="42" y="9" onmousedown="handleZoom(evt,'out')"/>
  <use id="reset" xlink:href="#resetDef" x="30" y="36" onmousedown="handleReset()"/>
   <use id="arrowup" xlink:href="#arrowUp" x="0" y="0" onmousedown="handlePan(0,-1)"/>
  <use id="arrowright" xlink:href="#arrowRight" x="0" y="0" onmousedown="handlePan(1,0)"/>
  <use id="arrowdown" xlink:href="#arrowDown" x="0" y="0" onmousedown="handlePan(0,1)"/>
  <use id="arrowleft" xlink:href="#arrowLeft" x="0" y="0" onmousedown="handlePan(-1,0)"/>
</g>
<svg viewBox="0 0 15 15" width="100%" height="30px" preserveAspectRatio="xMaxYMin meet">
 <g id="arrow_out" transform="scale(0.3 0.3)">
  <a xlink:href="classanonymous__namespace_02_log_8cpp_03_1_1_log_core_aeed3b8154b32c0c5cc56351c00ec3783_cgraph_org.svg" target="_base">
   <rect id="button" ry="5" rx="5" y="6" x="6" height="38" width="38"
        fill="#f2f5e9" fill-opacity="0.5" stroke="#606060" stroke-width="1.0"/>
   <path id="arrow"
     d="M 11.500037,31.436501 C 11.940474,20.09759 22.043105,11.32322 32.158766,21.979434 L 37.068811,17.246167 C 37.068811,17.246167 37.088388,32 37.088388,32 L 22.160133,31.978069 C 22.160133,31.978069 26.997745,27.140456 26.997745,27.140456 C 18.528582,18.264221 13.291696,25.230495 11.500037,31.436501 z"
     style="fill:#404040;"/>
  </a>
 </g>
</svg>

<style type='text/css'>
<![CDATA[
[data-mouse-over-selected='false'] { opacity: 0.7; }
[data-mouse-over-selected='true']  { opacity: 1.0; }
]]>
</style>
<script type="application/ecmascript"><![CDATA[
document.addEventListener('DOMContentLoaded', (event) => {
  highlightEdges();
  highlightAdjacentNodes();
});
]]></script>
</svg>
