<?xml version="1.0" encoding="UTF-8" standalone="no"?>
<!DOCTYPE svg PUBLIC "-//W3C//DTD SVG 1.1//EN"
 "http://www.w3.org/Graphics/SVG/1.1/DTD/svg11.dtd">
<!-- Generated by graphviz version 14.0.0 (20250921.2048)
 -->
<!-- Title: anonymous_namespace{Log::cpp}::LogCore::getConsole_ Pages: 1 -->
<svg width="496pt" height="110pt"
 viewBox="0.00 0.00 496.00 110.00" xmlns="http://www.w3.org/2000/svg" xmlns:xlink="http://www.w3.org/1999/xlink">
<g id="graph0" class="graph" transform="scale(1 1) rotate(0) translate(4 105.75)">
<title>anonymous_namespace{Log::cpp}::LogCore::getConsole_</title>
<!-- Node1 -->
<g id="Node000001" class="node">
<title>Node1</title>
<g id="a_Node000001"><a xlink:title=" ">
<polygon fill="#999999" stroke="none" points="488,-60.5 166,-60.5 166,-41.25 488,-41.25 488,-60.5"/>
<text xml:space="preserve" text-anchor="start" x="174" y="-47.05" font-family="Consolas" font-weight="bold" font-size="11.00">anonymous_namespace{Log::cpp}::LogCore::getConsole_</text>
</a>
</g>
</g>
<!-- Node2 -->
<g id="Node000002" class="node">
<title>Node2</title>
<g id="a_Node000002"><a xlink:href="../../d0/d61/classanonymous__namespace_02_log_8cpp_03_1_1_log_core.html#ac81e3393bfb7545e17c9fd8ea4cb4aa6" target="_top" xlink:title=" ">
<polygon fill="white" stroke="none" points="130,-101.75 0,-101.75 0,-60 130,-60 130,-101.75"/>
<text xml:space="preserve" text-anchor="start" x="8" y="-87.3" font-family="Consolas" font-size="11.00">anonymous_namespace</text>
<text xml:space="preserve" text-anchor="start" x="8" y="-76.05" font-family="Consolas" font-size="11.00">{Log::cpp}::LogCore</text>
<text xml:space="preserve" text-anchor="middle" x="65" y="-64.8" font-family="Consolas" font-size="11.00">::LogCore</text>
</a>
</g>
</g>
<!-- Node1&#45;&gt;Node2 -->
<g id="edge1_Node000001_Node000002" class="edge">
<title>Node1&#45;&gt;Node2</title>
<g id="a_edge1_Node000001_Node000002"><a xlink:title=" ">
<path fill="none" stroke="#63b8ff" d="M236.62,-61.19C201.53,-65.24 162.05,-69.79 129.92,-73.5"/>
<polygon fill="#63b8ff" stroke="#63b8ff" points="241.45,-60.63 236.74,-63.44 240.18,-60.78 236.48,-61.2 236.48,-61.2 236.48,-61.2 240.18,-60.78 236.23,-58.97 241.45,-60.63"/>
</a>
</g>
</g>
<!-- Node3 -->
<g id="Node000003" class="node">
<title>Node3</title>
<g id="a_Node000003"><a xlink:href="../../d0/d61/classanonymous__namespace_02_log_8cpp_03_1_1_log_core.html#a855cdb40c6d66c2c483ae13374454277" target="_top" xlink:title=" ">
<polygon fill="white" stroke="none" points="130,-41.75 0,-41.75 0,0 130,0 130,-41.75"/>
<text xml:space="preserve" text-anchor="start" x="8" y="-27.3" font-family="Consolas" font-size="11.00">anonymous_namespace</text>
<text xml:space="preserve" text-anchor="start" x="8" y="-16.05" font-family="Consolas" font-size="11.00">{Log::cpp}::LogCore</text>
<text xml:space="preserve" text-anchor="middle" x="65" y="-4.8" font-family="Consolas" font-size="11.00">::openConsole_</text>
</a>
</g>
</g>
<!-- Node1&#45;&gt;Node3 -->
<g id="edge2_Node000001_Node000003" class="edge">
<title>Node1&#45;&gt;Node3</title>
<g id="a_edge2_Node000001_Node000003"><a xlink:title=" ">
<path fill="none" stroke="#63b8ff" d="M236.62,-40.56C201.53,-36.51 162.05,-31.96 129.92,-28.25"/>
<polygon fill="#63b8ff" stroke="#63b8ff" points="241.45,-41.12 236.23,-42.78 240.18,-40.97 236.48,-40.55 236.48,-40.55 236.48,-40.55 240.18,-40.97 236.74,-38.31 241.45,-41.12"/>
</a>
</g>
</g>
</g>
</svg>
