<?xml version="1.0" encoding="UTF-8" standalone="no"?>
<!DOCTYPE svg PUBLIC "-//W3C//DTD SVG 1.1//EN"
 "http://www.w3.org/Graphics/SVG/1.1/DTD/svg11.dtd">
<!-- Generated by graphviz version 14.0.0 (20250921.2048)
 -->
<!-- Title: anonymous_namespace{Log::cpp}::LogCore::saveSettings_ Pages: 1 -->
<svg width="954pt" height="170pt"
 viewBox="0.00 0.00 954.00 170.00" xmlns="http://www.w3.org/2000/svg" xmlns:xlink="http://www.w3.org/1999/xlink">
<g id="graph0" class="graph" transform="scale(1 1) rotate(0) translate(4 165.75)">
<title>anonymous_namespace{Log::cpp}::LogCore::saveSettings_</title>
<!-- Node1 -->
<g id="Node000001" class="node">
<title>Node1</title>
<g id="a_Node000001"><a xlink:title=" ">
<polygon fill="#999999" stroke="none" points="946,-90.5 612,-90.5 612,-71.25 946,-71.25 946,-90.5"/>
<text xml:space="preserve" text-anchor="start" x="620" y="-77.05" font-family="Consolas" font-weight="bold" font-size="11.00">anonymous_namespace{Log::cpp}::LogCore::saveSettings_</text>
</a>
</g>
</g>
<!-- Node2 -->
<g id="Node000002" class="node">
<title>Node2</title>
<g id="a_Node000002"><a xlink:href="../../d0/d61/classanonymous__namespace_02_log_8cpp_03_1_1_log_core.html#ac81e3393bfb7545e17c9fd8ea4cb4aa6" target="_top" xlink:title=" ">
<polygon fill="white" stroke="none" points="573,-161.75 443,-161.75 443,-120 573,-120 573,-161.75"/>
<text xml:space="preserve" text-anchor="start" x="451" y="-147.3" font-family="Consolas" font-size="11.00">anonymous_namespace</text>
<text xml:space="preserve" text-anchor="start" x="451" y="-136.05" font-family="Consolas" font-size="11.00">{Log::cpp}::LogCore</text>
<text xml:space="preserve" text-anchor="middle" x="508" y="-124.8" font-family="Consolas" font-size="11.00">::LogCore</text>
</a>
</g>
</g>
<!-- Node1&#45;&gt;Node2 -->
<g id="edge1_Node000001_Node000002" class="edge">
<title>Node1&#45;&gt;Node2</title>
<g id="a_edge1_Node000001_Node000002"><a xlink:title=" ">
<path fill="none" stroke="#63b8ff" d="M729.04,-91.8C685.21,-101.57 620.68,-115.96 572.83,-126.64"/>
<polygon fill="#63b8ff" stroke="#63b8ff" points="733.89,-90.71 729.5,-94 732.64,-90.99 729.01,-91.8 729.01,-91.8 729.01,-91.8 732.64,-90.99 728.52,-89.61 733.89,-90.71"/>
</a>
</g>
</g>
<!-- Node3 -->
<g id="Node000003" class="node">
<title>Node3</title>
<g id="a_Node000003"><a xlink:href="../../d0/d61/classanonymous__namespace_02_log_8cpp_03_1_1_log_core.html#a18c3c555110a16327bd67014b95739eb" target="_top" xlink:title=" ">
<polygon fill="white" stroke="none" points="576,-101.75 440,-101.75 440,-60 576,-60 576,-101.75"/>
<text xml:space="preserve" text-anchor="start" x="448" y="-87.3" font-family="Consolas" font-size="11.00">anonymous_namespace</text>
<text xml:space="preserve" text-anchor="start" x="448" y="-76.05" font-family="Consolas" font-size="11.00">{Log::cpp}::LogCore</text>
<text xml:space="preserve" text-anchor="middle" x="508" y="-64.8" font-family="Consolas" font-size="11.00">::setColoredConsole_</text>
</a>
</g>
</g>
<!-- Node1&#45;&gt;Node3 -->
<g id="edge2_Node000001_Node000003" class="edge">
<title>Node1&#45;&gt;Node3</title>
<g id="a_edge2_Node000001_Node000003"><a xlink:title=" ">
<path fill="none" stroke="#63b8ff" d="M606.04,-80.88C595.58,-80.88 585.46,-80.88 575.94,-80.88"/>
<polygon fill="#63b8ff" stroke="#63b8ff" points="611.01,-80.88 606.01,-83.13 609.73,-80.88 606.01,-80.88 606.01,-80.88 606.01,-80.88 609.73,-80.88 606.01,-78.63 611.01,-80.88"/>
</a>
</g>
</g>
<!-- Node6 -->
<g id="Node000006" class="node">
<title>Node6</title>
<g id="a_Node000006"><a xlink:href="../../d0/d61/classanonymous__namespace_02_log_8cpp_03_1_1_log_core.html#a59eebbde2d3d36263a0d7a96e595573b" target="_top" xlink:title=" ">
<polygon fill="white" stroke="none" points="573,-41.75 443,-41.75 443,0 573,0 573,-41.75"/>
<text xml:space="preserve" text-anchor="start" x="451" y="-27.3" font-family="Consolas" font-size="11.00">anonymous_namespace</text>
<text xml:space="preserve" text-anchor="start" x="451" y="-16.05" font-family="Consolas" font-size="11.00">{Log::cpp}::LogCore</text>
<text xml:space="preserve" text-anchor="middle" x="508" y="-4.8" font-family="Consolas" font-size="11.00">::setWarnIsImp_</text>
</a>
</g>
</g>
<!-- Node1&#45;&gt;Node6 -->
<g id="edge5_Node000001_Node000006" class="edge">
<title>Node1&#45;&gt;Node6</title>
<g id="a_edge5_Node000001_Node000006"><a xlink:title=" ">
<path fill="none" stroke="#63b8ff" d="M729.04,-69.95C685.21,-60.18 620.68,-45.79 572.83,-35.11"/>
<polygon fill="#63b8ff" stroke="#63b8ff" points="733.89,-71.04 728.52,-72.14 732.64,-70.76 729.01,-69.95 729.01,-69.95 729.01,-69.95 732.64,-70.76 729.5,-67.75 733.89,-71.04"/>
</a>
</g>
</g>
<!-- Node4 -->
<g id="Node000004" class="node">
<title>Node4</title>
<g id="a_Node000004"><a xlink:href="../../d5/ddd/namespacenpi_1_1log.html#aa9c7f1de08a88a0dcac316127c1d384b" target="_top" xlink:title=" ">
<polygon fill="white" stroke="none" points="404,-90.5 226,-90.5 226,-71.25 404,-71.25 404,-90.5"/>
<text xml:space="preserve" text-anchor="middle" x="315" y="-76.05" font-family="Consolas" font-size="11.00">npi::log::setColoredConsole</text>
</a>
</g>
</g>
<!-- Node3&#45;&gt;Node4 -->
<g id="edge3_Node000003_Node000004" class="edge">
<title>Node3&#45;&gt;Node4</title>
<g id="a_edge3_Node000003_Node000004"><a xlink:title=" ">
<path fill="none" stroke="#63b8ff" d="M434.1,-80.88C424.23,-80.88 414.01,-80.88 403.91,-80.88"/>
<polygon fill="#63b8ff" stroke="#63b8ff" points="438.98,-80.88 433.98,-83.13 437.7,-80.88 433.98,-80.88 433.98,-80.88 433.98,-80.88 437.7,-80.88 433.98,-78.63 438.98,-80.88"/>
</a>
</g>
</g>
<!-- Node5 -->
<g id="Node000005" class="node">
<title>Node5</title>
<g id="a_Node000005"><a xlink:href="../../d9/dc6/class_main_window.html#a4b31735a0ab8596f2c8a452d47694572" target="_top" xlink:title=" ">
<polygon fill="white" stroke="none" points="190,-96.12 0,-96.12 0,-65.62 190,-65.62 190,-96.12"/>
<text xml:space="preserve" text-anchor="start" x="8" y="-81.67" font-family="Consolas" font-size="11.00">MainWindow::on_coloredConsole</text>
<text xml:space="preserve" text-anchor="middle" x="95" y="-70.42" font-family="Consolas" font-size="11.00">_chk_checkStateChanged</text>
</a>
</g>
</g>
<!-- Node4&#45;&gt;Node5 -->
<g id="edge4_Node000004_Node000005" class="edge">
<title>Node4&#45;&gt;Node5</title>
<g id="a_edge4_Node000004_Node000005"><a xlink:title=" ">
<path fill="none" stroke="#63b8ff" d="M220.08,-80.88C210.1,-80.88 199.95,-80.88 189.96,-80.88"/>
<polygon fill="#63b8ff" stroke="#63b8ff" points="225.05,-80.88 220.05,-83.13 223.77,-80.88 220.05,-80.88 220.05,-80.88 220.05,-80.88 223.77,-80.88 220.05,-78.63 225.05,-80.88"/>
</a>
</g>
</g>
<!-- Node7 -->
<g id="Node000007" class="node">
<title>Node7</title>
<g id="a_Node000007"><a xlink:href="../../d5/ddd/namespacenpi_1_1log.html#a9be9faae3670cc6af86285afecfb3e58" target="_top" xlink:title=" ">
<polygon fill="white" stroke="none" points="398,-30.5 232,-30.5 232,-11.25 398,-11.25 398,-30.5"/>
<text xml:space="preserve" text-anchor="middle" x="315" y="-16.05" font-family="Consolas" font-size="11.00">npi::log::setWarnAsImpLog</text>
</a>
</g>
</g>
<!-- Node6&#45;&gt;Node7 -->
<g id="edge6_Node000006_Node000007" class="edge">
<title>Node6&#45;&gt;Node7</title>
<g id="a_edge6_Node000006_Node000007"><a xlink:title=" ">
<path fill="none" stroke="#63b8ff" d="M436.94,-20.88C424.21,-20.88 410.84,-20.88 397.81,-20.88"/>
<polygon fill="#63b8ff" stroke="#63b8ff" points="441.92,-20.88 436.92,-23.13 440.63,-20.88 436.92,-20.88 436.92,-20.88 436.92,-20.88 440.63,-20.88 436.92,-18.63 441.92,-20.88"/>
</a>
</g>
</g>
</g>
</svg>
