<?xml version="1.0" encoding="UTF-8" standalone="no"?>
<!DOCTYPE svg PUBLIC "-//W3C//DTD SVG 1.1//EN"
 "http://www.w3.org/Graphics/SVG/1.1/DTD/svg11.dtd">
<!-- Generated by graphviz version 14.0.0 (20250921.2048)
 -->
<!-- Title: anonymous_namespace{Log::cpp}::LogCore::openConsole_ Pages: 1 -->
<svg width="1084pt" height="410pt"
 viewBox="0.00 0.00 1084.00 410.00" xmlns="http://www.w3.org/2000/svg" xmlns:xlink="http://www.w3.org/1999/xlink">
<g id="graph0" class="graph" transform="scale(1 1) rotate(0) translate(4 405.75)">
<title>anonymous_namespace{Log::cpp}::LogCore::openConsole_</title>
<!-- Node1 -->
<g id="Node000001" class="node">
<title>Node1</title>
<g id="a_Node000001"><a xlink:title=" ">
<polygon fill="#999999" stroke="none" points="328,-210.5 0,-210.5 0,-191.25 328,-191.25 328,-210.5"/>
<text xml:space="preserve" text-anchor="start" x="8" y="-197.05" font-family="Consolas" font-weight="bold" font-size="11.00">anonymous_namespace{Log::cpp}::LogCore::openConsole_</text>
</a>
</g>
</g>
<!-- Node2 -->
<g id="Node000002" class="node">
<title>Node2</title>
<g id="a_Node000002"><a xlink:href="../../d0/d61/classanonymous__namespace_02_log_8cpp_03_1_1_log_core.html#a72156ce83495bfa52996d0da64acaefa" target="_top" xlink:title=" ">
<polygon fill="white" stroke="none" points="494,-251.75 364,-251.75 364,-210 494,-210 494,-251.75"/>
<text xml:space="preserve" text-anchor="start" x="372" y="-237.3" font-family="Consolas" font-size="11.00">anonymous_namespace</text>
<text xml:space="preserve" text-anchor="start" x="372" y="-226.05" font-family="Consolas" font-size="11.00">{Log::cpp}::LogCore</text>
<text xml:space="preserve" text-anchor="middle" x="429" y="-214.8" font-family="Consolas" font-size="11.00">::getConsole_</text>
</a>
</g>
</g>
<!-- Node1&#45;&gt;Node2 -->
<g id="edge1_Node000001_Node000002" class="edge">
<title>Node1&#45;&gt;Node2</title>
<g id="a_edge1_Node000001_Node000002"><a xlink:title=" ">
<path fill="none" stroke="#63b8ff" d="M249.3,-210.49C284.38,-214.49 324.62,-219.08 358.03,-222.89"/>
<polygon fill="#63b8ff" stroke="#63b8ff" points="362.97,-223.46 357.75,-225.13 361.7,-223.31 358,-222.89 358,-222.89 358,-222.89 361.7,-223.31 358.26,-220.66 362.97,-223.46"/>
</a>
</g>
</g>
<!-- Node3 -->
<g id="Node000003" class="node">
<title>Node3</title>
<g id="a_Node000003"><a xlink:href="../../d0/d61/classanonymous__namespace_02_log_8cpp_03_1_1_log_core.html#aeed3b8154b32c0c5cc56351c00ec3783" target="_top" xlink:title=" ">
<polygon fill="white" stroke="none" points="494,-191.75 364,-191.75 364,-150 494,-150 494,-191.75"/>
<text xml:space="preserve" text-anchor="start" x="372" y="-177.3" font-family="Consolas" font-size="11.00">anonymous_namespace</text>
<text xml:space="preserve" text-anchor="start" x="372" y="-166.05" font-family="Consolas" font-size="11.00">{Log::cpp}::LogCore</text>
<text xml:space="preserve" text-anchor="middle" x="429" y="-154.8" font-family="Consolas" font-size="11.00">::startDisplay_</text>
</a>
</g>
</g>
<!-- Node1&#45;&gt;Node3 -->
<g id="edge2_Node000001_Node000003" class="edge">
<title>Node1&#45;&gt;Node3</title>
<g id="a_edge2_Node000001_Node000003"><a xlink:title=" ">
<path fill="none" stroke="#63b8ff" d="M249.3,-191.26C284.38,-187.26 324.62,-182.67 358.03,-178.86"/>
<polygon fill="#63b8ff" stroke="#63b8ff" points="362.97,-178.29 358.26,-181.09 361.7,-178.44 358,-178.86 358,-178.86 358,-178.86 361.7,-178.44 357.75,-176.62 362.97,-178.29"/>
</a>
</g>
</g>
<!-- Node4 -->
<g id="Node000004" class="node">
<title>Node4</title>
<g id="a_Node000004"><a xlink:href="../../d0/d61/classanonymous__namespace_02_log_8cpp_03_1_1_log_core.html#ada2216e6d5c8ed9150550651e529c9a7" target="_top" xlink:title=" ">
<polygon fill="white" stroke="none" points="660,-221.75 530,-221.75 530,-180 660,-180 660,-221.75"/>
<text xml:space="preserve" text-anchor="start" x="538" y="-207.3" font-family="Consolas" font-size="11.00">anonymous_namespace</text>
<text xml:space="preserve" text-anchor="start" x="538" y="-196.05" font-family="Consolas" font-size="11.00">{Log::cpp}::LogCore</text>
<text xml:space="preserve" text-anchor="middle" x="595" y="-184.8" font-family="Consolas" font-size="11.00">::FormatOneLine_</text>
</a>
</g>
</g>
<!-- Node3&#45;&gt;Node4 -->
<g id="edge3_Node000003_Node000004" class="edge">
<title>Node3&#45;&gt;Node4</title>
<g id="a_edge3_Node000003_Node000004"><a xlink:title=" ">
<path fill="none" stroke="#63b8ff" d="M493.88,-182.56C503.8,-184.38 514.1,-186.26 524.15,-188.1"/>
<polygon fill="#63b8ff" stroke="#63b8ff" points="528.83,-188.95 523.51,-190.27 527.57,-188.72 523.91,-188.05 523.91,-188.05 523.91,-188.05 527.57,-188.72 524.32,-185.84 528.83,-188.95"/>
</a>
</g>
</g>
<!-- Node13 -->
<g id="Node000013" class="node">
<title>Node13</title>
<g id="a_Node000013"><a xlink:href="../../d0/d61/classanonymous__namespace_02_log_8cpp_03_1_1_log_core.html#ab25a4996d5ead7b5656de343421f6788" target="_top" xlink:title=" ">
<polygon fill="white" stroke="none" points="660,-161.75 530,-161.75 530,-120 660,-120 660,-161.75"/>
<text xml:space="preserve" text-anchor="start" x="538" y="-147.3" font-family="Consolas" font-size="11.00">anonymous_namespace</text>
<text xml:space="preserve" text-anchor="start" x="538" y="-136.05" font-family="Consolas" font-size="11.00">{Log::cpp}::LogCore</text>
<text xml:space="preserve" text-anchor="middle" x="595" y="-124.8" font-family="Consolas" font-size="11.00">::insertLogMessage_</text>
</a>
</g>
</g>
<!-- Node3&#45;&gt;Node13 -->
<g id="edge12_Node000003_Node000013" class="edge">
<title>Node3&#45;&gt;Node13</title>
<g id="a_edge12_Node000003_Node000013"><a xlink:title=" ">
<path fill="none" stroke="#63b8ff" d="M493.88,-159.19C503.8,-157.37 514.1,-155.49 524.15,-153.65"/>
<polygon fill="#63b8ff" stroke="#63b8ff" points="528.83,-152.8 524.32,-155.91 527.57,-153.03 523.91,-153.7 523.91,-153.7 523.91,-153.7 527.57,-153.03 523.51,-151.48 528.83,-152.8"/>
</a>
</g>
</g>
<!-- Node5 -->
<g id="Node000005" class="node">
<title>Node5</title>
<g id="a_Node000005"><a xlink:href="../../dc/d58/structanonymous__namespace_02_log_8cpp_03_1_1_log_core_1_1_fixed_strings.html#a3a000d7c183750a49f0cfce9fa6926a3" target="_top" xlink:title=" ">
<polygon fill="white" stroke="none" points="910,-401.75 696,-401.75 696,-360 910,-360 910,-401.75"/>
<text xml:space="preserve" text-anchor="start" x="704" y="-387.3" font-family="Consolas" font-size="11.00">anonymous_namespace</text>
<text xml:space="preserve" text-anchor="start" x="704" y="-376.05" font-family="Consolas" font-size="11.00">{Log::cpp}::LogCore</text>
<text xml:space="preserve" text-anchor="middle" x="803" y="-364.8" font-family="Consolas" font-size="11.00">::FixedStrings::appendCategoryTo_</text>
</a>
</g>
</g>
<!-- Node4&#45;&gt;Node5 -->
<g id="edge4_Node000004_Node000005" class="edge">
<title>Node4&#45;&gt;Node5</title>
<g id="a_edge4_Node000004_Node000005"><a xlink:title=" ">
<path fill="none" stroke="#63b8ff" d="M604.12,-221.49C617.98,-253.98 649.32,-316.89 696,-350.88 699.09,-353.13 702.35,-355.21 705.73,-357.14"/>
<polygon fill="#63b8ff" stroke="#63b8ff" points="710.06,-359.47 704.59,-359.08 708.93,-358.86 705.66,-357.1 705.66,-357.1 705.66,-357.1 708.93,-358.86 706.72,-355.12 710.06,-359.47"/>
</a>
</g>
</g>
<!-- Node6 -->
<g id="Node000006" class="node">
<title>Node6</title>
<g id="a_Node000006"><a xlink:href="../../d0/d61/classanonymous__namespace_02_log_8cpp_03_1_1_log_core.html#ab122b241533434653fbd519339edfa38" target="_top" xlink:title=" ">
<polygon fill="white" stroke="none" points="868,-341.75 738,-341.75 738,-300 868,-300 868,-341.75"/>
<text xml:space="preserve" text-anchor="start" x="746" y="-327.3" font-family="Consolas" font-size="11.00">anonymous_namespace</text>
<text xml:space="preserve" text-anchor="start" x="746" y="-316.05" font-family="Consolas" font-size="11.00">{Log::cpp}::LogCore</text>
<text xml:space="preserve" text-anchor="middle" x="803" y="-304.8" font-family="Consolas" font-size="11.00">::AppendDateTime_</text>
</a>
</g>
</g>
<!-- Node4&#45;&gt;Node6 -->
<g id="edge5_Node000004_Node000006" class="edge">
<title>Node4&#45;&gt;Node6</title>
<g id="a_edge5_Node000004_Node000006"><a xlink:title=" ">
<path fill="none" stroke="#63b8ff" d="M613.84,-221.73C632.4,-242.18 663.28,-272.82 696,-290.88 707.25,-297.09 719.9,-302.1 732.44,-306.13"/>
<polygon fill="#63b8ff" stroke="#63b8ff" points="737.03,-307.54 731.58,-308.22 735.8,-307.17 732.25,-306.07 732.25,-306.07 732.25,-306.07 735.8,-307.17 732.91,-303.92 737.03,-307.54"/>
</a>
</g>
</g>
<!-- Node8 -->
<g id="Node000008" class="node">
<title>Node8</title>
<g id="a_Node000008"><a xlink:href="../../d0/d61/classanonymous__namespace_02_log_8cpp_03_1_1_log_core.html#ab8061264281dba381f5b1d06ef4d969c" target="_top" xlink:title=" ">
<polygon fill="white" stroke="none" points="868,-281.75 738,-281.75 738,-240 868,-240 868,-281.75"/>
<text xml:space="preserve" text-anchor="start" x="746" y="-267.3" font-family="Consolas" font-size="11.00">anonymous_namespace</text>
<text xml:space="preserve" text-anchor="start" x="746" y="-256.05" font-family="Consolas" font-size="11.00">{Log::cpp}::LogCore</text>
<text xml:space="preserve" text-anchor="middle" x="803" y="-244.8" font-family="Consolas" font-size="11.00">::AppendDelta_</text>
</a>
</g>
</g>
<!-- Node4&#45;&gt;Node8 -->
<g id="edge7_Node000004_Node000008" class="edge">
<title>Node4&#45;&gt;Node8</title>
<g id="a_edge7_Node000004_Node000008"><a xlink:title=" ">
<path fill="none" stroke="#63b8ff" d="M659.97,-220.23C671.94,-223.8 684.34,-227.48 696,-230.88 707.68,-234.28 720.09,-237.84 732.16,-241.28"/>
<polygon fill="#63b8ff" stroke="#63b8ff" points="736.88,-242.62 731.46,-243.42 735.65,-242.27 732.07,-241.25 732.07,-241.25 732.07,-241.25 735.65,-242.27 732.69,-239.09 736.88,-242.62"/>
</a>
</g>
</g>
<!-- Node9 -->
<g id="Node000009" class="node">
<title>Node9</title>
<g id="a_Node000009"><a xlink:href="../../dc/d58/structanonymous__namespace_02_log_8cpp_03_1_1_log_core_1_1_fixed_strings.html#a10410013e62e5adfa34cf8b32ca58ff1" target="_top" xlink:title=" ">
<polygon fill="white" stroke="none" points="910,-221.75 696,-221.75 696,-180 910,-180 910,-221.75"/>
<text xml:space="preserve" text-anchor="start" x="704" y="-207.3" font-family="Consolas" font-size="11.00">anonymous_namespace</text>
<text xml:space="preserve" text-anchor="start" x="704" y="-196.05" font-family="Consolas" font-size="11.00">{Log::cpp}::LogCore</text>
<text xml:space="preserve" text-anchor="middle" x="803" y="-184.8" font-family="Consolas" font-size="11.00">::FixedStrings::appendFileNameTo_</text>
</a>
</g>
</g>
<!-- Node4&#45;&gt;Node9 -->
<g id="edge8_Node000004_Node000009" class="edge">
<title>Node4&#45;&gt;Node9</title>
<g id="a_edge8_Node000004_Node000009"><a xlink:title=" ">
<path fill="none" stroke="#63b8ff" d="M659.77,-200.88C669.45,-200.88 679.67,-200.88 690.02,-200.88"/>
<polygon fill="#63b8ff" stroke="#63b8ff" points="694.9,-200.88 689.9,-203.13 693.62,-200.88 689.9,-200.88 689.9,-200.88 689.9,-200.88 693.62,-200.88 689.9,-198.63 694.9,-200.88"/>
</a>
</g>
</g>
<!-- Node10 -->
<g id="Node000010" class="node">
<title>Node10</title>
<g id="a_Node000010"><a xlink:href="../../dc/d58/structanonymous__namespace_02_log_8cpp_03_1_1_log_core_1_1_fixed_strings.html#a32b722c7a4c1269ef2d88bbafd0eb59c" target="_top" xlink:title=" ">
<polygon fill="white" stroke="none" points="910,-161.75 696,-161.75 696,-120 910,-120 910,-161.75"/>
<text xml:space="preserve" text-anchor="start" x="704" y="-147.3" font-family="Consolas" font-size="11.00">anonymous_namespace</text>
<text xml:space="preserve" text-anchor="start" x="704" y="-136.05" font-family="Consolas" font-size="11.00">{Log::cpp}::LogCore</text>
<text xml:space="preserve" text-anchor="middle" x="803" y="-124.8" font-family="Consolas" font-size="11.00">::FixedStrings::appendFuncNameTo_</text>
</a>
</g>
</g>
<!-- Node4&#45;&gt;Node10 -->
<g id="edge9_Node000004_Node000010" class="edge">
<title>Node4&#45;&gt;Node10</title>
<g id="a_edge9_Node000004_Node000010"><a xlink:title=" ">
<path fill="none" stroke="#63b8ff" d="M659.97,-181.52C671.94,-177.95 684.34,-174.27 696,-170.88 704.43,-168.42 713.26,-165.87 722.05,-163.36"/>
<polygon fill="#63b8ff" stroke="#63b8ff" points="726.65,-162.04 722.46,-165.58 725.42,-162.4 721.85,-163.42 721.85,-163.42 721.85,-163.42 725.42,-162.4 721.23,-161.25 726.65,-162.04"/>
</a>
</g>
</g>
<!-- Node11 -->
<g id="Node000011" class="node">
<title>Node11</title>
<g id="a_Node000011"><a xlink:href="../../d0/d61/classanonymous__namespace_02_log_8cpp_03_1_1_log_core.html#a4dda6a0306f72401c363c4ef2e7d1611" target="_top" xlink:title=" ">
<polygon fill="white" stroke="none" points="868,-101.75 738,-101.75 738,-60 868,-60 868,-101.75"/>
<text xml:space="preserve" text-anchor="start" x="746" y="-87.3" font-family="Consolas" font-size="11.00">anonymous_namespace</text>
<text xml:space="preserve" text-anchor="start" x="746" y="-76.05" font-family="Consolas" font-size="11.00">{Log::cpp}::LogCore</text>
<text xml:space="preserve" text-anchor="middle" x="803" y="-64.8" font-family="Consolas" font-size="11.00">::AppendLevel_</text>
</a>
</g>
</g>
<!-- Node4&#45;&gt;Node11 -->
<g id="edge10_Node000004_Node000011" class="edge">
<title>Node4&#45;&gt;Node11</title>
<g id="a_edge10_Node000004_Node000011"><a xlink:title=" ">
<path fill="none" stroke="#63b8ff" d="M647.7,-180.07C652.09,-177.31 656.27,-174.25 660,-170.88 683.08,-150.04 671.3,-129.77 696,-110.88 706.6,-102.76 719.31,-96.84 732.18,-92.52"/>
<polygon fill="#63b8ff" stroke="#63b8ff" points="736.93,-91.02 732.84,-94.67 735.71,-91.41 732.16,-92.53 732.16,-92.53 732.16,-92.53 735.71,-91.41 731.48,-90.38 736.93,-91.02"/>
</a>
</g>
</g>
<!-- Node12 -->
<g id="Node000012" class="node">
<title>Node12</title>
<g id="a_Node000012"><a xlink:href="../../d0/d61/classanonymous__namespace_02_log_8cpp_03_1_1_log_core.html#aa885eb55dee8680b48150be9c21ee5f9" target="_top" xlink:title=" ">
<polygon fill="white" stroke="none" points="868,-41.75 738,-41.75 738,0 868,0 868,-41.75"/>
<text xml:space="preserve" text-anchor="start" x="746" y="-27.3" font-family="Consolas" font-size="11.00">anonymous_namespace</text>
<text xml:space="preserve" text-anchor="start" x="746" y="-16.05" font-family="Consolas" font-size="11.00">{Log::cpp}::LogCore</text>
<text xml:space="preserve" text-anchor="middle" x="803" y="-4.8" font-family="Consolas" font-size="11.00">::AppendStr_</text>
</a>
</g>
</g>
<!-- Node4&#45;&gt;Node12 -->
<g id="edge11_Node000004_Node000012" class="edge">
<title>Node4&#45;&gt;Node12</title>
<g id="a_edge11_Node000004_Node000012"><a xlink:title=" ">
<path fill="none" stroke="#63b8ff" d="M649.86,-180.12C653.59,-177.38 657.03,-174.31 660,-170.88 696.38,-128.72 656.32,-89.94 696,-50.88 706.02,-41.01 719.02,-34.34 732.47,-29.84"/>
<polygon fill="#63b8ff" stroke="#63b8ff" points="737.09,-28.4 732.98,-32.04 735.87,-28.78 732.31,-29.89 732.31,-29.89 732.31,-29.89 735.87,-28.78 731.65,-27.74 737.09,-28.4"/>
</a>
</g>
</g>
<!-- Node7 -->
<g id="Node000007" class="node">
<title>Node7</title>
<g id="a_Node000007"><a xlink:href="../../d0/d61/classanonymous__namespace_02_log_8cpp_03_1_1_log_core.html#a2a46463a402dc1ad9518d5d7dbfea87d" target="_top" xlink:title=" ">
<polygon fill="white" stroke="none" points="1076,-341.75 946,-341.75 946,-300 1076,-300 1076,-341.75"/>
<text xml:space="preserve" text-anchor="start" x="954" y="-327.3" font-family="Consolas" font-size="11.00">anonymous_namespace</text>
<text xml:space="preserve" text-anchor="start" x="954" y="-316.05" font-family="Consolas" font-size="11.00">{Log::cpp}::LogCore</text>
<text xml:space="preserve" text-anchor="middle" x="1011" y="-304.8" font-family="Consolas" font-size="11.00">::AppendChar_</text>
</a>
</g>
</g>
<!-- Node6&#45;&gt;Node7 -->
<g id="edge6_Node000006_Node000007" class="edge">
<title>Node6&#45;&gt;Node7</title>
<g id="a_edge6_Node000006_Node000007"><a xlink:title=" ">
<path fill="none" stroke="#63b8ff" d="M867.77,-320.88C890.66,-320.88 916.58,-320.88 939.97,-320.88"/>
<polygon fill="#63b8ff" stroke="#63b8ff" points="944.96,-320.88 939.96,-323.13 943.68,-320.88 939.96,-320.88 939.96,-320.88 939.96,-320.88 943.68,-320.88 939.96,-318.63 944.96,-320.88"/>
</a>
</g>
</g>
</g>
</svg>
