<?xml version="1.0" encoding="UTF-8" standalone="no"?>
<!DOCTYPE svg PUBLIC "-//W3C//DTD SVG 1.1//EN"
 "http://www.w3.org/Graphics/SVG/1.1/DTD/svg11.dtd">
<!-- Generated by graphviz version 14.0.0 (20250921.2048)
 -->
<!-- Title: TextSpec.hpp Pages: 1 -->
<!--zoomable 83 -->

<svg id="main" version="1.1" xmlns="http://www.w3.org/2000/svg" xmlns:xlink="http://www.w3.org/1999/xlink" xml:space="preserve" onload="init(evt)">

<style type="text/css"><![CDATA[
.node, .edge {opacity: 0.7;}
.node.selected, .edge.selected {opacity: 1;}
.edge:hover path { stroke: red; }
.edge:hover polygon { stroke: red; fill: red; }
]]></style>

<defs>
  <circle id="rim" cx="0" cy="0" r="7"/>
  <circle id="rim2" cx="0" cy="0" r="3.5"/>
  <g id="zoomPlus">
    <use xlink:href="#rim" fill="#404040"><set attributeName="fill" to="#808080" begin="zoomplus.mouseover" end="zoomplus.mouseout"/></use>
    <path d="M-4,0h8M0,-4v8" fill="none" stroke="white" stroke-width="1.5" pointer-events="none"/>
  </g>
  <g id="zoomMin">
    <use xlink:href="#rim" fill="#404040"><set attributeName="fill" to="#808080" begin="zoomminus.mouseover" end="zoomminus.mouseout"/></use>
    <path d="M-4,0h8" fill="none" stroke="white" stroke-width="1.5" pointer-events="none"/>
  </g>
  <g id="arrowUp" transform="translate(30 24)">
    <use xlink:href="#rim"/>
    <path pointer-events="none" fill="none" stroke="white" stroke-width="1.5" d="M0,-3.0v7 M-2.5,-0.5L0,-3.0L2.5,-0.5"/>
  </g>
  <g id="arrowRight" transform="rotate(90) translate(36 -43)">
    <use xlink:href="#rim"/>
    <path pointer-events="none" fill="none" stroke="white" stroke-width="1.5" d="M0,-3.0v7 M-2.5,-0.5L0,-3.0L2.5,-0.5"/>
  </g>
  <g id="arrowDown" transform="rotate(180) translate(-30 -48)">
    <use xlink:href="#rim"/>
    <path pointer-events="none" fill="none" stroke="white" stroke-width="1.5" d="M0,-3.0v7 M-2.5,-0.5L0,-3.0L2.5,-0.5"/>
  </g>
  <g id="arrowLeft" transform="rotate(270) translate(-36 17)">
    <use xlink:href="#rim"/>
    <path pointer-events="none" fill="none" stroke="white" stroke-width="1.5" d="M0,-3.0v7 M-2.5,-0.5L0,-3.0L2.5,-0.5"/>
  </g>
  <g id="resetDef">
    <use xlink:href="#rim2" fill="#404040"><set attributeName="fill" to="#808080" begin="reset.mouseover" end="reset.mouseout"/></use>
  </g>
</defs>
<script type="application/ecmascript">
var viewWidth = 1116;
var viewHeight = 83;
var sectionId = 'dynsection-0';
</script>
<script type="application/ecmascript" xlink:href="../../svg.min.js"/>
<svg id="graph" class="graph">
<g id="viewport">
<title>TextSpec.hpp</title>
<!-- Node1 -->
<g id="Node000001" class="node">
<title>Node1</title>
<g id="a_Node000001"><a xlink:title="Thread&#45;safe font utility for application and fixed&#45;width fonts.">
<polygon fill="#999999" stroke="none" points="553,-74.5 465,-74.5 465,-55.25 553,-55.25 553,-74.5"/>
<text xml:space="preserve" text-anchor="start" x="473" y="-61.05" font-family="Consolas" font-weight="bold" font-size="11.00">TextSpec.hpp</text>
</a>
</g>
</g>
<!-- Node2 -->
<g id="Node000002" class="node">
<title>Node2</title>
<g id="a_Node000002"><a xlink:title=" ">
<polygon fill="#e0e0e0" stroke="none" points="46,-19.25 0,-19.25 0,0 46,0 46,-19.25"/>
<text xml:space="preserve" text-anchor="middle" x="23" y="-4.8" font-family="Consolas" font-size="11.00">QHash</text>
</a>
</g>
</g>
<!-- Node1&#45;&gt;Node2 -->
<g id="edge1_Node000001_Node000002" class="edge">
<title>Node1&#45;&gt;Node2</title>
<g id="a_edge1_Node000001_Node000002"><a xlink:title=" ">
<path fill="none" stroke="#63b8ff" d="M465.16,-61.98C383.76,-57.92 204,-46.46 55,-19.25 53.99,-19.07 52.96,-18.86 51.93,-18.65"/>
<polygon fill="#63b8ff" stroke="#63b8ff" points="47.16,-17.57 52.53,-16.48 48.41,-17.85 52.03,-18.67 52.03,-18.67 52.03,-18.67 48.41,-17.85 51.54,-20.87 47.16,-17.57"/>
</a>
</g>
</g>
<!-- Node3 -->
<g id="Node000003" class="node">
<title>Node3</title>
<g id="a_Node000003"><a xlink:title=" ">
<polygon fill="#e0e0e0" stroke="none" points="110,-19.25 64,-19.25 64,0 110,0 110,-19.25"/>
<text xml:space="preserve" text-anchor="middle" x="87" y="-4.8" font-family="Consolas" font-size="11.00">QFont</text>
</a>
</g>
</g>
<!-- Node1&#45;&gt;Node3 -->
<g id="edge2_Node000001_Node000003" class="edge">
<title>Node1&#45;&gt;Node3</title>
<g id="a_edge2_Node000001_Node000003"><a xlink:title=" ">
<path fill="none" stroke="#63b8ff" d="M465.1,-61C392.57,-55.77 243.34,-42.98 119,-19.25 117.99,-19.06 116.96,-18.85 115.93,-18.63"/>
<polygon fill="#63b8ff" stroke="#63b8ff" points="111.16,-17.53 116.54,-16.46 112.41,-17.82 116.04,-18.65 116.04,-18.65 116.04,-18.65 112.41,-17.82 115.53,-20.85 111.16,-17.53"/>
</a>
</g>
</g>
<!-- Node4 -->
<g id="Node000004" class="node">
<title>Node4</title>
<g id="a_Node000004"><a xlink:title=" ">
<polygon fill="#e0e0e0" stroke="none" points="180,-19.25 128,-19.25 128,0 180,0 180,-19.25"/>
<text xml:space="preserve" text-anchor="middle" x="154" y="-4.8" font-family="Consolas" font-size="11.00">QColor</text>
</a>
</g>
</g>
<!-- Node1&#45;&gt;Node4 -->
<g id="edge3_Node000001_Node000004" class="edge">
<title>Node1&#45;&gt;Node4</title>
<g id="a_edge3_Node000001_Node000004"><a xlink:title=" ">
<path fill="none" stroke="#63b8ff" d="M465.03,-59.2C403.13,-52.28 286.91,-38.09 189,-19.25 187.99,-19.05 186.96,-18.85 185.92,-18.63"/>
<polygon fill="#63b8ff" stroke="#63b8ff" points="181.12,-17.59 186.48,-16.45 182.37,-17.86 186,-18.65 186,-18.65 186,-18.65 182.37,-17.86 185.53,-20.85 181.12,-17.59"/>
</a>
</g>
</g>
<!-- Node5 -->
<g id="Node000005" class="node">
<title>Node5</title>
<g id="a_Node000005"><a xlink:title=" ">
<polygon fill="#e0e0e0" stroke="none" points="256,-19.25 198,-19.25 198,0 256,0 256,-19.25"/>
<text xml:space="preserve" text-anchor="middle" x="227" y="-4.8" font-family="Consolas" font-size="11.00">QWidget</text>
</a>
</g>
</g>
<!-- Node1&#45;&gt;Node5 -->
<g id="edge4_Node000001_Node000005" class="edge">
<title>Node1&#45;&gt;Node5</title>
<g id="a_edge4_Node000001_Node000005"><a xlink:title=" ">
<path fill="none" stroke="#63b8ff" d="M465.26,-56.45C416.34,-48.01 334.82,-33.55 265,-19.25 263.86,-19.02 262.7,-18.77 261.52,-18.53"/>
<polygon fill="#63b8ff" stroke="#63b8ff" points="256.8,-17.51 262.16,-16.36 258.05,-17.78 261.69,-18.56 261.69,-18.56 261.69,-18.56 258.05,-17.78 261.21,-20.76 256.8,-17.51"/>
</a>
</g>
</g>
<!-- Node6 -->
<g id="Node000006" class="node">
<title>Node6</title>
<g id="a_Node000006"><a xlink:title=" ">
<polygon fill="#e0e0e0" stroke="none" points="338,-19.25 274,-19.25 274,0 338,0 338,-19.25"/>
<text xml:space="preserve" text-anchor="middle" x="306" y="-4.8" font-family="Consolas" font-size="11.00">QPointer</text>
</a>
</g>
</g>
<!-- Node1&#45;&gt;Node6 -->
<g id="edge5_Node000001_Node000006" class="edge">
<title>Node1&#45;&gt;Node6</title>
<g id="a_edge5_Node000001_Node000006"><a xlink:title=" ">
<path fill="none" stroke="#63b8ff" d="M476.38,-55.32C440.21,-45.83 381.94,-30.55 343.81,-20.54"/>
<polygon fill="#63b8ff" stroke="#63b8ff" points="339.04,-19.29 344.45,-18.39 340.28,-19.62 343.88,-20.56 343.88,-20.56 343.88,-20.56 340.28,-19.62 343.31,-22.74 339.04,-19.29"/>
</a>
</g>
</g>
<!-- Node7 -->
<g id="Node000007" class="node">
<title>Node7</title>
<g id="a_Node000007"><a xlink:title=" ">
<polygon fill="#e0e0e0" stroke="none" points="444,-19.25 356,-19.25 356,0 444,0 444,-19.25"/>
<text xml:space="preserve" text-anchor="middle" x="400" y="-4.8" font-family="Consolas" font-size="11.00">QFontMetrics</text>
</a>
</g>
</g>
<!-- Node1&#45;&gt;Node7 -->
<g id="edge6_Node000001_Node000007" class="edge">
<title>Node1&#45;&gt;Node7</title>
<g id="a_edge6_Node000001_Node000007"><a xlink:title=" ">
<path fill="none" stroke="#63b8ff" d="M491.49,-55.32C472.89,-46.24 443.43,-31.84 422.98,-21.85"/>
<polygon fill="#63b8ff" stroke="#63b8ff" points="418.56,-19.69 424.04,-19.87 419.72,-20.26 423.06,-21.89 423.06,-21.89 423.06,-21.89 419.72,-20.26 422.07,-23.91 418.56,-19.69"/>
</a>
</g>
</g>
<!-- Node8 -->
<g id="Node000008" class="node">
<title>Node8</title>
<g id="a_Node000008"><a xlink:title=" ">
<polygon fill="#e0e0e0" stroke="none" points="556,-19.25 462,-19.25 462,0 556,0 556,-19.25"/>
<text xml:space="preserve" text-anchor="middle" x="509" y="-4.8" font-family="Consolas" font-size="11.00">QFontMetricsF</text>
</a>
</g>
</g>
<!-- Node1&#45;&gt;Node8 -->
<g id="edge7_Node000001_Node000008" class="edge">
<title>Node1&#45;&gt;Node8</title>
<g id="a_edge7_Node000001_Node000008"><a xlink:title=" ">
<path fill="none" stroke="#63b8ff" d="M509,-55.55C509,-47.4 509,-34.79 509,-25.01"/>
<polygon fill="#63b8ff" stroke="#63b8ff" points="509,-20.28 511.25,-25.28 509,-21.56 509,-25.28 509,-25.28 509,-25.28 509,-21.56 506.75,-25.28 509,-20.28"/>
</a>
</g>
</g>
<!-- Node9 -->
<g id="Node000009" class="node">
<title>Node9</title>
<g id="a_Node000009"><a xlink:title=" ">
<polygon fill="#e0e0e0" stroke="none" points="626,-19.25 574,-19.25 574,0 626,0 626,-19.25"/>
<text xml:space="preserve" text-anchor="middle" x="600" y="-4.8" font-family="Consolas" font-size="11.00">QMutex</text>
</a>
</g>
</g>
<!-- Node1&#45;&gt;Node9 -->
<g id="edge8_Node000001_Node000009" class="edge">
<title>Node1&#45;&gt;Node9</title>
<g id="a_edge8_Node000001_Node000009"><a xlink:title=" ">
<path fill="none" stroke="#63b8ff" d="M523.62,-55.32C539.01,-46.31 563.32,-32.09 580.37,-22.11"/>
<polygon fill="#63b8ff" stroke="#63b8ff" points="584.36,-19.77 581.18,-24.24 583.26,-20.42 580.05,-22.3 580.05,-22.3 580.05,-22.3 583.26,-20.42 578.91,-20.36 584.36,-19.77"/>
</a>
</g>
</g>
<!-- Node10 -->
<g id="Node000010" class="node">
<title>Node10</title>
<g id="a_Node000010"><a xlink:title=" ">
<polygon fill="#e0e0e0" stroke="none" points="732,-19.25 644,-19.25 644,0 732,0 732,-19.25"/>
<text xml:space="preserve" text-anchor="middle" x="688" y="-4.8" font-family="Consolas" font-size="11.00">QMutexLocker</text>
</a>
</g>
</g>
<!-- Node1&#45;&gt;Node10 -->
<g id="edge9_Node000001_Node000010" class="edge">
<title>Node1&#45;&gt;Node10</title>
<g id="a_edge9_Node000001_Node000010"><a xlink:title=" ">
<path fill="none" stroke="#63b8ff" d="M537.76,-55.32C569.24,-45.95 619.71,-30.94 653.35,-20.93"/>
<polygon fill="#63b8ff" stroke="#63b8ff" points="657.85,-19.6 653.7,-23.18 656.62,-19.96 653.05,-21.02 653.05,-21.02 653.05,-21.02 656.62,-19.96 652.41,-18.86 657.85,-19.6"/>
</a>
</g>
</g>
<!-- Node11 -->
<g id="Node000011" class="node">
<title>Node11</title>
<g id="a_Node000011"><a xlink:title=" ">
<polygon fill="#e0e0e0" stroke="none" points="838,-19.25 750,-19.25 750,0 838,0 838,-19.25"/>
<text xml:space="preserve" text-anchor="middle" x="794" y="-4.8" font-family="Consolas" font-size="11.00">QApplication</text>
</a>
</g>
</g>
<!-- Node1&#45;&gt;Node11 -->
<g id="edge10_Node000001_Node000011" class="edge">
<title>Node1&#45;&gt;Node11</title>
<g id="a_edge10_Node000001_Node000011"><a xlink:title=" ">
<path fill="none" stroke="#63b8ff" d="M552.91,-55.67C604.48,-46.04 689.83,-30.09 743.93,-19.98"/>
<polygon fill="#63b8ff" stroke="#63b8ff" points="748.85,-19.06 744.34,-22.19 747.59,-19.3 743.93,-19.98 743.93,-19.98 743.93,-19.98 747.59,-19.3 743.52,-17.77 748.85,-19.06"/>
</a>
</g>
</g>
<!-- Node12 -->
<g id="Node000012" class="node">
<title>Node12</title>
<g id="a_Node000012"><a xlink:title=" ">
<polygon fill="#e0e0e0" stroke="none" points="902,-19.25 856,-19.25 856,0 902,0 902,-19.25"/>
<text xml:space="preserve" text-anchor="middle" x="879" y="-4.8" font-family="Consolas" font-size="11.00">QList</text>
</a>
</g>
</g>
<!-- Node1&#45;&gt;Node12 -->
<g id="edge11_Node000001_Node000012" class="edge">
<title>Node1&#45;&gt;Node12</title>
<g id="a_edge11_Node000001_Node000012"><a xlink:title=" ">
<path fill="none" stroke="#63b8ff" d="M552.79,-59.96C617.52,-53.75 742.38,-40.16 847,-19.25 848.01,-19.05 849.03,-18.83 850.06,-18.61"/>
<polygon fill="#63b8ff" stroke="#63b8ff" points="854.83,-17.49 850.47,-20.82 853.58,-17.78 849.96,-18.63 849.96,-18.63 849.96,-18.63 853.58,-17.78 849.45,-16.44 854.83,-17.49"/>
</a>
</g>
</g>
<!-- Node13 -->
<g id="Node000013" class="node">
<title>Node13</title>
<g id="a_Node000013"><a xlink:title=" ">
<polygon fill="#e0e0e0" stroke="none" points="978,-19.25 920,-19.25 920,0 978,0 978,-19.25"/>
<text xml:space="preserve" text-anchor="middle" x="949" y="-4.8" font-family="Consolas" font-size="11.00">cstdint</text>
</a>
</g>
</g>
<!-- Node1&#45;&gt;Node13 -->
<g id="edge12_Node000001_Node000013" class="edge">
<title>Node1&#45;&gt;Node13</title>
<g id="a_edge12_Node000001_Node000013"><a xlink:title=" ">
<path fill="none" stroke="#63b8ff" d="M552.95,-60.63C627.11,-54.78 781.69,-41.03 911,-19.25 912.01,-19.08 913.03,-18.9 914.06,-18.71"/>
<polygon fill="#63b8ff" stroke="#63b8ff" points="918.82,-17.79 914.34,-20.95 917.57,-18.03 913.92,-18.74 913.92,-18.74 913.92,-18.74 917.57,-18.03 913.49,-16.53 918.82,-17.79"/>
</a>
</g>
</g>
<!-- Node14 -->
<g id="Node000014" class="node">
<title>Node14</title>
<g id="a_Node000014"><a xlink:title=" ">
<polygon fill="#e0e0e0" stroke="none" points="1108,-19.25 996,-19.25 996,0 1108,0 1108,-19.25"/>
<text xml:space="preserve" text-anchor="middle" x="1052" y="-4.8" font-family="Consolas" font-size="11.00">npi/GuiProps.hpp</text>
</a>
</g>
</g>
<!-- Node1&#45;&gt;Node14 -->
<g id="edge13_Node000001_Node000014" class="edge">
<title>Node1&#45;&gt;Node14</title>
<g id="a_edge13_Node000001_Node000014"><a xlink:title=" ">
<path fill="none" stroke="#63b8ff" d="M552.88,-60.35C637.14,-53.46 827.36,-37.29 987,-19.25 988.05,-19.13 989.11,-19.01 990.18,-18.89"/>
<polygon fill="#63b8ff" stroke="#63b8ff" points="995.14,-18.3 990.44,-21.12 993.87,-18.45 990.17,-18.89 990.17,-18.89 990.17,-18.89 993.87,-18.45 989.91,-16.65 995.14,-18.3"/>
</a>
</g>
</g>
</g>
</svg>

<g id="navigator" transform="translate(0 0)" fill="#404254">
  <rect fill="#f2f5e9" fill-opacity="0.5" stroke="#606060" stroke-width=".5" x="0" y="0" width="60" height="60"/>
  <use id="zoomplus" xlink:href="#zoomPlus" x="17" y="9" onmousedown="handleZoom(evt,'in')"/>
  <use id="zoomminus" xlink:href="#zoomMin" x="42" y="9" onmousedown="handleZoom(evt,'out')"/>
  <use id="reset" xlink:href="#resetDef" x="30" y="36" onmousedown="handleReset()"/>
   <use id="arrowup" xlink:href="#arrowUp" x="0" y="0" onmousedown="handlePan(0,-1)"/>
  <use id="arrowright" xlink:href="#arrowRight" x="0" y="0" onmousedown="handlePan(1,0)"/>
  <use id="arrowdown" xlink:href="#arrowDown" x="0" y="0" onmousedown="handlePan(0,1)"/>
  <use id="arrowleft" xlink:href="#arrowLeft" x="0" y="0" onmousedown="handlePan(-1,0)"/>
</g>
<svg viewBox="0 0 15 15" width="100%" height="30px" preserveAspectRatio="xMaxYMin meet">
 <g id="arrow_out" transform="scale(0.3 0.3)">
  <a xlink:href="_text_spec_8hpp__incl_org.svg" target="_base">
   <rect id="button" ry="5" rx="5" y="6" x="6" height="38" width="38"
        fill="#f2f5e9" fill-opacity="0.5" stroke="#606060" stroke-width="1.0"/>
   <path id="arrow"
     d="M 11.500037,31.436501 C 11.940474,20.09759 22.043105,11.32322 32.158766,21.979434 L 37.068811,17.246167 C 37.068811,17.246167 37.088388,32 37.088388,32 L 22.160133,31.978069 C 22.160133,31.978069 26.997745,27.140456 26.997745,27.140456 C 18.528582,18.264221 13.291696,25.230495 11.500037,31.436501 z"
     style="fill:#404040;"/>
  </a>
 </g>
</svg>

<style type='text/css'>
<![CDATA[
[data-mouse-over-selected='false'] { opacity: 0.7; }
[data-mouse-over-selected='true']  { opacity: 1.0; }
]]>
</style>
<script type="application/ecmascript"><![CDATA[
document.addEventListener('DOMContentLoaded', (event) => {
  highlightEdges();
  highlightAdjacentNodes();
});
]]></script>
</svg>
