<?xml version="1.0" encoding="UTF-8" standalone="no"?>
<!DOCTYPE svg PUBLIC "-//W3C//DTD SVG 1.1//EN"
 "http://www.w3.org/Graphics/SVG/1.1/DTD/svg11.dtd">
<!-- Generated by graphviz version 14.0.0 (20250921.2048)
 -->
<!-- Title: npi::LinkHost::Obs::Obs Pages: 1 -->
<svg width="352pt" height="162pt"
 viewBox="0.00 0.00 352.00 162.00" xmlns="http://www.w3.org/2000/svg" xmlns:xlink="http://www.w3.org/1999/xlink">

<svg id="main" version="1.1" xmlns="http://www.w3.org/2000/svg" xmlns:xlink="http://www.w3.org/1999/xlink" xml:space="preserve">

<style type="text/css"><![CDATA[
.node, .edge {opacity: 0.7;}
.node.selected, .edge.selected {opacity: 1;}
.edge:hover path { stroke: red; }
.edge:hover polygon { stroke: red; fill: red; }
]]></style>
<script type="application/ecmascript" xlink:href="../../svg.min.js"/>
<svg id="graph" class="graph">
<g id="graph0" class="graph" transform="scale(1 1) rotate(0) translate(4 157.88)">
<title>npi::LinkHost::Obs::Obs</title>
<!-- Node1 -->
<g id="Node000001" class="node">
<title>Node1</title>
<g id="a_Node000001"><a xlink:title="Initialize observer with raw pointer.">
<polygon fill="#999999" stroke="none" points="344,-94.88 190,-94.88 190,-75.62 344,-75.62 344,-94.88"/>
<text xml:space="preserve" text-anchor="start" x="198" y="-81.42" font-family="Consolas" font-weight="bold" font-size="11.00">npi::LinkHost::Obs::Obs</text>
</a>
</g>
</g>
<!-- Node2 -->
<g id="Node000002" class="node">
<title>Node2</title>
<g id="a_Node000002"><a xlink:href="../../dd/d30/structnpi_1_1_link_host_1_1_obs.html#a9378d216ebf300c7a63da22db8824908" target="_top" xlink:title="Default copy constructor.">
<polygon fill="white" stroke="none" points="154,-153.88 0,-153.88 0,-134.62 154,-134.62 154,-153.88"/>
<text xml:space="preserve" text-anchor="middle" x="77" y="-139.43" font-family="Consolas" font-size="11.00">npi::LinkHost::Obs::Obs</text>
</a>
</g>
</g>
<!-- Node1&#45;&gt;Node2 -->
<g id="edge1_Node000001_Node000002" class="edge">
<title>Node1&#45;&gt;Node2</title>
<g id="a_edge1_Node000001_Node000002"><a xlink:title=" ">
<path fill="none" stroke="#63b8ff" d="M236.9,-96.98C214.48,-105.75 182.58,-117.67 154,-126.25 143.87,-129.29 132.86,-132.15 122.44,-134.66"/>
<polygon fill="#63b8ff" stroke="#63b8ff" points="241.54,-95.15 237.71,-99.08 240.35,-95.62 236.89,-96.98 236.89,-96.98 236.89,-96.98 240.35,-95.62 236.06,-94.89 241.54,-95.15"/>
</a>
</g>
</g>
<!-- Node3 -->
<g id="Node000003" class="node">
<title>Node3</title>
<g id="a_Node000003"><a xlink:href="../../dd/d30/structnpi_1_1_link_host_1_1_obs.html#a4d2b813a8db8ba38aff97467c2c4100d" target="_top" xlink:title="Default move constructor.">
<polygon fill="white" stroke="none" points="154,-116.88 0,-116.88 0,-97.62 154,-97.62 154,-116.88"/>
<text xml:space="preserve" text-anchor="middle" x="77" y="-102.42" font-family="Consolas" font-size="11.00">npi::LinkHost::Obs::Obs</text>
</a>
</g>
</g>
<!-- Node1&#45;&gt;Node3 -->
<g id="edge2_Node000001_Node000003" class="edge">
<title>Node1&#45;&gt;Node3</title>
<g id="a_edge2_Node000001_Node000003"><a xlink:title=" ">
<path fill="none" stroke="#63b8ff" d="M184.18,-94.82C174.12,-96 163.87,-97.2 153.9,-98.37"/>
<polygon fill="#63b8ff" stroke="#63b8ff" points="188.86,-94.28 184.16,-97.09 187.59,-94.43 183.9,-94.86 183.9,-94.86 183.9,-94.86 187.59,-94.43 183.64,-92.62 188.86,-94.28"/>
</a>
</g>
</g>
<!-- Node4 -->
<g id="Node000004" class="node">
<title>Node4</title>
<g id="a_Node000004"><a xlink:href="../../dd/d30/structnpi_1_1_link_host_1_1_obs.html#ab40b0aa56cabaae5c67b6a1328b6be41" target="_top" xlink:title="Default copy assignment operator.">
<polygon fill="white" stroke="none" points="139,-79.5 15,-79.5 15,-49 139,-49 139,-79.5"/>
<text xml:space="preserve" text-anchor="start" x="23" y="-65.05" font-family="Consolas" font-size="11.00">npi::LinkHost::Obs</text>
<text xml:space="preserve" text-anchor="middle" x="77" y="-53.8" font-family="Consolas" font-size="11.00">::operator=</text>
</a>
</g>
</g>
<!-- Node1&#45;&gt;Node4 -->
<g id="edge3_Node000001_Node000004" class="edge">
<title>Node1&#45;&gt;Node4</title>
<g id="a_edge3_Node000001_Node000004"><a xlink:title=" ">
<path fill="none" stroke="#63b8ff" d="M184.06,-76.1C168.9,-74.4 153.3,-72.66 138.9,-71.05"/>
<polygon fill="#63b8ff" stroke="#63b8ff" points="188.86,-76.63 183.65,-78.31 187.59,-76.49 183.9,-76.08 183.9,-76.08 183.9,-76.08 187.59,-76.49 184.14,-73.84 188.86,-76.63"/>
</a>
</g>
</g>
<!-- Node5 -->
<g id="Node000005" class="node">
<title>Node5</title>
<g id="a_Node000005"><a xlink:href="../../dd/d30/structnpi_1_1_link_host_1_1_obs.html#a181084c86716e2b7b7ded3f8e260ec3c" target="_top" xlink:title="Default move assignment operator.">
<polygon fill="white" stroke="none" points="139,-30.5 15,-30.5 15,0 139,0 139,-30.5"/>
<text xml:space="preserve" text-anchor="start" x="23" y="-16.05" font-family="Consolas" font-size="11.00">npi::LinkHost::Obs</text>
<text xml:space="preserve" text-anchor="middle" x="77" y="-4.8" font-family="Consolas" font-size="11.00">::operator=</text>
</a>
</g>
</g>
<!-- Node1&#45;&gt;Node5 -->
<g id="edge4_Node000001_Node000005" class="edge">
<title>Node1&#45;&gt;Node5</title>
<g id="a_edge4_Node000001_Node000005"><a xlink:title=" ">
<path fill="none" stroke="#63b8ff" d="M237.92,-73.39C215.38,-64 182.85,-50.78 154,-40.25 144.87,-36.92 135.05,-33.54 125.6,-30.39"/>
<polygon fill="#63b8ff" stroke="#63b8ff" points="242.3,-75.21 236.82,-75.36 241.12,-74.72 237.69,-73.29 237.69,-73.29 237.69,-73.29 241.12,-74.72 238.56,-71.21 242.3,-75.21"/>
</a>
</g>
</g>
</g>
</svg>
</svg>

<style type='text/css'>
<![CDATA[
[data-mouse-over-selected='false'] { opacity: 0.7; }
[data-mouse-over-selected='true']  { opacity: 1.0; }
]]>
</style>
<script type="application/ecmascript"><![CDATA[
document.addEventListener('DOMContentLoaded', (event) => {
  highlightEdges();
  highlightAdjacentNodes();
});
]]></script>
</svg>
