<?xml version="1.0" encoding="UTF-8" standalone="no"?>
<!DOCTYPE svg PUBLIC "-//W3C//DTD SVG 1.1//EN"
 "http://www.w3.org/Graphics/SVG/1.1/DTD/svg11.dtd">
<!-- Generated by graphviz version 14.0.0 (20250921.2048)
 -->
<!-- Title: WinMutexLocker.hpp Pages: 1 -->
<svg width="314pt" height="83pt"
 viewBox="0.00 0.00 314.00 83.00" xmlns="http://www.w3.org/2000/svg" xmlns:xlink="http://www.w3.org/1999/xlink">
<g id="graph0" class="graph" transform="scale(1 1) rotate(0) translate(4 78.5)">
<title>WinMutexLocker.hpp</title>
<!-- Node1 -->
<g id="Node000001" class="node">
<title>Node1</title>
<g id="a_Node000001"><a xlink:title="RAII locker for a Windows named mutex for both inter&#45;process and inter&#45;thread synchronization.">
<polygon fill="#999999" stroke="none" points="257,-74.5 133,-74.5 133,-55.25 257,-55.25 257,-74.5"/>
<text xml:space="preserve" text-anchor="start" x="141" y="-61.05" font-family="Consolas" font-weight="bold" font-size="11.00">WinMutexLocker.hpp</text>
</a>
</g>
</g>
<!-- Node2 -->
<g id="Node000002" class="node">
<title>Node2</title>
<g id="a_Node000002"><a xlink:title=" ">
<polygon fill="#e0e0e0" stroke="none" points="142,-19.25 0,-19.25 0,0 142,0 142,-19.25"/>
<text xml:space="preserve" text-anchor="middle" x="71" y="-4.8" font-family="Consolas" font-size="11.00">npi/PlatformCheck.hpp</text>
</a>
</g>
</g>
<!-- Node1&#45;&gt;Node2 -->
<g id="edge1_Node000001_Node000002" class="edge">
<title>Node1&#45;&gt;Node2</title>
<g id="a_edge1_Node000001_Node000002"><a xlink:title=" ">
<path fill="none" stroke="#63b8ff" d="M175.08,-55.32C153.75,-46.16 119.83,-31.59 96.55,-21.6"/>
<polygon fill="#63b8ff" stroke="#63b8ff" points="91.99,-19.64 97.48,-19.55 93.17,-20.15 96.59,-21.61 96.59,-21.61 96.59,-21.61 93.17,-20.15 95.7,-23.68 91.99,-19.64"/>
</a>
</g>
</g>
<!-- Node3 -->
<g id="Node000003" class="node">
<title>Node3</title>
<g id="a_Node000003"><a xlink:title=" ">
<polygon fill="#e0e0e0" stroke="none" points="230,-19.25 160,-19.25 160,0 230,0 230,-19.25"/>
<text xml:space="preserve" text-anchor="middle" x="195" y="-4.8" font-family="Consolas" font-size="11.00">windows.h</text>
</a>
</g>
</g>
<!-- Node1&#45;&gt;Node3 -->
<g id="edge2_Node000001_Node000003" class="edge">
<title>Node1&#45;&gt;Node3</title>
<g id="a_edge2_Node000001_Node000003"><a xlink:title=" ">
<path fill="none" stroke="#63b8ff" d="M195,-55.55C195,-47.4 195,-34.79 195,-25.01"/>
<polygon fill="#63b8ff" stroke="#63b8ff" points="195,-20.28 197.25,-25.28 195,-21.56 195,-25.28 195,-25.28 195,-25.28 195,-21.56 192.75,-25.28 195,-20.28"/>
</a>
</g>
</g>
<!-- Node4 -->
<g id="Node000004" class="node">
<title>Node4</title>
<g id="a_Node000004"><a xlink:title=" ">
<polygon fill="#e0e0e0" stroke="none" points="306,-19.25 248,-19.25 248,0 306,0 306,-19.25"/>
<text xml:space="preserve" text-anchor="middle" x="277" y="-4.8" font-family="Consolas" font-size="11.00">QString</text>
</a>
</g>
</g>
<!-- Node1&#45;&gt;Node4 -->
<g id="edge3_Node000001_Node000004" class="edge">
<title>Node1&#45;&gt;Node4</title>
<g id="a_edge3_Node000001_Node000004"><a xlink:title=" ">
<path fill="none" stroke="#63b8ff" d="M208.17,-55.32C221.92,-46.39 243.57,-32.33 258.92,-22.37"/>
<polygon fill="#63b8ff" stroke="#63b8ff" points="262.84,-19.82 259.87,-24.43 261.76,-20.52 258.64,-22.55 258.64,-22.55 258.64,-22.55 261.76,-20.52 257.42,-20.66 262.84,-19.82"/>
</a>
</g>
</g>
</g>
</svg>
