<?xml version="1.0" encoding="UTF-8" standalone="no"?>
<!DOCTYPE svg PUBLIC "-//W3C//DTD SVG 1.1//EN"
 "http://www.w3.org/Graphics/SVG/1.1/DTD/svg11.dtd">
<!-- Generated by graphviz version 14.0.0 (20250921.2048)
 -->
<!-- Title: anonymous_namespace{Log.cpp}::LogCore::FieldConfig Pages: 1 -->
<!--zoomable 99 -->

<svg id="main" version="1.1" xmlns="http://www.w3.org/2000/svg" xmlns:xlink="http://www.w3.org/1999/xlink" xml:space="preserve" onload="init(evt)">

<style type="text/css"><![CDATA[
.node, .edge {opacity: 0.7;}
.node.selected, .edge.selected {opacity: 1;}
.edge:hover path { stroke: red; }
.edge:hover polygon { stroke: red; fill: red; }
]]></style>

<defs>
  <circle id="rim" cx="0" cy="0" r="7"/>
  <circle id="rim2" cx="0" cy="0" r="3.5"/>
  <g id="zoomPlus">
    <use xlink:href="#rim" fill="#404040"><set attributeName="fill" to="#808080" begin="zoomplus.mouseover" end="zoomplus.mouseout"/></use>
    <path d="M-4,0h8M0,-4v8" fill="none" stroke="white" stroke-width="1.5" pointer-events="none"/>
  </g>
  <g id="zoomMin">
    <use xlink:href="#rim" fill="#404040"><set attributeName="fill" to="#808080" begin="zoomminus.mouseover" end="zoomminus.mouseout"/></use>
    <path d="M-4,0h8" fill="none" stroke="white" stroke-width="1.5" pointer-events="none"/>
  </g>
  <g id="arrowUp" transform="translate(30 24)">
    <use xlink:href="#rim"/>
    <path pointer-events="none" fill="none" stroke="white" stroke-width="1.5" d="M0,-3.0v7 M-2.5,-0.5L0,-3.0L2.5,-0.5"/>
  </g>
  <g id="arrowRight" transform="rotate(90) translate(36 -43)">
    <use xlink:href="#rim"/>
    <path pointer-events="none" fill="none" stroke="white" stroke-width="1.5" d="M0,-3.0v7 M-2.5,-0.5L0,-3.0L2.5,-0.5"/>
  </g>
  <g id="arrowDown" transform="rotate(180) translate(-30 -48)">
    <use xlink:href="#rim"/>
    <path pointer-events="none" fill="none" stroke="white" stroke-width="1.5" d="M0,-3.0v7 M-2.5,-0.5L0,-3.0L2.5,-0.5"/>
  </g>
  <g id="arrowLeft" transform="rotate(270) translate(-36 17)">
    <use xlink:href="#rim"/>
    <path pointer-events="none" fill="none" stroke="white" stroke-width="1.5" d="M0,-3.0v7 M-2.5,-0.5L0,-3.0L2.5,-0.5"/>
  </g>
  <g id="resetDef">
    <use xlink:href="#rim2" fill="#404040"><set attributeName="fill" to="#808080" begin="reset.mouseover" end="reset.mouseout"/></use>
  </g>
</defs>
<script type="application/ecmascript">
var viewWidth = 508;
var viewHeight = 99;
var sectionId = 'dynsection-1';
</script>
<script type="application/ecmascript" xlink:href="../../svg.min.js"/>
<svg id="graph" class="graph">
<g id="viewport">
<title>anonymous_namespace{Log.cpp}::LogCore::FieldConfig</title>
<!-- Node1 -->
<g id="Node000001" class="node">
<title>Node1</title>
<g id="a_Node000001"><a xlink:title=" ">
<polygon fill="#999999" stroke="none" points="450,-19.25 134,-19.25 134,0 450,0 450,-19.25"/>
<text xml:space="preserve" text-anchor="start" x="142" y="-5.8" font-family="Consolas" font-weight="bold" font-size="11.00">anonymous_namespace{Log.cpp}::LogCore::FieldConfig</text>
</a>
</g>
</g>
<!-- Node2 -->
<g id="Node000002" class="node">
<title>Node2</title>
<g id="a_Node000002"><a xlink:title=" ">
<polygon fill="white" stroke="none" points="100,-91 0,-91 0,-71.75 100,-71.75 100,-91"/>
<text xml:space="preserve" text-anchor="middle" x="50" y="-76.55" font-family="Consolas" font-size="11.00">QReadWriteLock</text>
</a>
</g>
</g>
<!-- Node2&#45;&gt;Node1 -->
<g id="edge1_Node000001_Node000002" class="edge">
<title>Node2&#45;&gt;Node1</title>
<g id="a_edge1_Node000001_Node000002"><a xlink:title=" ">
<path fill="none" stroke="#9a32cd" stroke-dasharray="5,2" d="M78.23,-69.85C103.75,-60.56 142.46,-47.02 176.75,-37.25 200.85,-30.39 228.15,-24.02 250.13,-19.23"/>
<polygon fill="#9a32cd" stroke="#9a32cd" points="73.82,-71.47 77.75,-67.64 75.03,-71.03 78.52,-69.75 78.52,-69.75 78.52,-69.75 75.03,-71.03 79.29,-71.86 73.82,-71.47"/>
</a>
</g>
<text xml:space="preserve" text-anchor="start" x="179.75" y="-41.25" font-family="Consolas" font-size="10.00" fill="grey">lock_</text>
</g>
<!-- Node3 -->
<g id="Node000003" class="node">
<title>Node3</title>
<g id="a_Node000003"><a xlink:title=" ">
<polygon fill="white" stroke="none" points="224,-91 118,-91 118,-71.75 224,-71.75 224,-91"/>
<text xml:space="preserve" text-anchor="middle" x="171" y="-76.55" font-family="Consolas" font-size="11.00">atomic_uint64_t</text>
</a>
</g>
</g>
<!-- Node3&#45;&gt;Node1 -->
<g id="edge2_Node000001_Node000003" class="edge">
<title>Node3&#45;&gt;Node1</title>
<g id="a_edge2_Node000001_Node000003"><a xlink:title=" ">
<path fill="none" stroke="#9a32cd" stroke-dasharray="5,2" d="M189.19,-68.41C202.95,-59.51 222.43,-47.22 240,-37.25 251.29,-30.85 264.29,-24.19 274.47,-19.13"/>
<polygon fill="#9a32cd" stroke="#9a32cd" points="185.05,-71.1 188.01,-66.49 186.12,-70.41 189.24,-68.38 189.24,-68.38 189.24,-68.38 186.12,-70.41 190.47,-70.27 185.05,-71.1"/>
</a>
</g>
<text xml:space="preserve" text-anchor="start" x="243" y="-41.25" font-family="Consolas" font-size="10.00" fill="grey">version_</text>
</g>
<!-- Node4 -->
<g id="Node000004" class="node">
<title>Node4</title>
<g id="a_Node000004"><a xlink:title=" ">
<polygon fill="white" stroke="none" points="342,-91 242,-91 242,-71.75 342,-71.75 342,-91"/>
<text xml:space="preserve" text-anchor="middle" x="292" y="-76.55" font-family="Consolas" font-size="11.00">QList&lt; Field &gt;</text>
</a>
</g>
</g>
<!-- Node4&#45;&gt;Node1 -->
<g id="edge3_Node000001_Node000004" class="edge">
<title>Node4&#45;&gt;Node1</title>
<g id="a_edge3_Node000001_Node000004"><a xlink:title=" ">
<path fill="none" stroke="#9a32cd" stroke-dasharray="5,2" d="M292,-65.89C292,-51.81 292,-30.89 292,-19.25"/>
<polygon fill="#9a32cd" stroke="#9a32cd" points="292,-70.6 289.75,-65.6 292,-69.32 292,-65.6 292,-65.6 292,-65.6 292,-69.32 294.25,-65.6 292,-70.6"/>
</a>
</g>
<text xml:space="preserve" text-anchor="start" x="295" y="-41.25" font-family="Consolas" font-size="10.00" fill="grey">fields_</text>
</g>
<!-- Node5 -->
<g id="Node000005" class="node">
<title>Node5</title>
<g id="a_Node000005"><a xlink:title=" ">
<polygon fill="white" stroke="none" points="442,-91 360,-91 360,-71.75 442,-71.75 442,-91"/>
<text xml:space="preserve" text-anchor="middle" x="401" y="-76.55" font-family="Consolas" font-size="11.00">QStringList</text>
</a>
</g>
</g>
<!-- Node5&#45;&gt;Node1 -->
<g id="edge4_Node000001_Node000005" class="edge">
<title>Node5&#45;&gt;Node1</title>
<g id="a_edge4_Node000001_Node000005"><a xlink:title=" ">
<path fill="none" stroke="#9a32cd" stroke-dasharray="5,2" d="M384.38,-68.19C372.05,-59.31 354.73,-47.15 339,-37.25 328.84,-30.86 317.09,-24.2 307.88,-19.14"/>
<polygon fill="#9a32cd" stroke="#9a32cd" points="388.35,-71.06 382.98,-69.95 387.31,-70.31 384.3,-68.13 384.3,-68.13 384.3,-68.13 387.31,-70.31 385.62,-66.31 388.35,-71.06"/>
</a>
</g>
<text xml:space="preserve" text-anchor="start" x="366.23" y="-41.25" font-family="Consolas" font-size="10.00" fill="grey">strings_</text>
</g>
<!-- Node6 -->
<g id="Node000006" class="node">
<title>Node6</title>
<g id="a_Node000006"><a xlink:title=" ">
<polygon fill="white" stroke="none" points="500,-91 460,-91 460,-71.75 500,-71.75 500,-91"/>
<text xml:space="preserve" text-anchor="middle" x="480" y="-76.55" font-family="Consolas" font-size="11.00">bool</text>
</a>
</g>
</g>
<!-- Node6&#45;&gt;Node1 -->
<g id="edge5_Node000001_Node000006" class="edge">
<title>Node6&#45;&gt;Node1</title>
<g id="a_edge5_Node000001_Node000006"><a xlink:title=" ">
<path fill="none" stroke="#9a32cd" stroke-dasharray="5,2" d="M465.44,-68.4C452.83,-58.61 433.72,-45.15 415,-37.25 395.58,-29.05 373.32,-23.25 353.12,-19.2"/>
<polygon fill="#9a32cd" stroke="#9a32cd" points="469.15,-71.32 463.83,-69.99 468.14,-70.53 465.22,-68.22 465.22,-68.22 465.22,-68.22 468.14,-70.53 466.62,-66.46 469.15,-71.32"/>
</a>
</g>
<text xml:space="preserve" text-anchor="start" x="447.89" y="-41.25" font-family="Consolas" font-size="10.00" fill="grey">temp_</text>
</g>
</g>
</svg>

<g id="navigator" transform="translate(0 0)" fill="#404254">
  <rect fill="#f2f5e9" fill-opacity="0.5" stroke="#606060" stroke-width=".5" x="0" y="0" width="60" height="60"/>
  <use id="zoomplus" xlink:href="#zoomPlus" x="17" y="9" onmousedown="handleZoom(evt,'in')"/>
  <use id="zoomminus" xlink:href="#zoomMin" x="42" y="9" onmousedown="handleZoom(evt,'out')"/>
  <use id="reset" xlink:href="#resetDef" x="30" y="36" onmousedown="handleReset()"/>
   <use id="arrowup" xlink:href="#arrowUp" x="0" y="0" onmousedown="handlePan(0,-1)"/>
  <use id="arrowright" xlink:href="#arrowRight" x="0" y="0" onmousedown="handlePan(1,0)"/>
  <use id="arrowdown" xlink:href="#arrowDown" x="0" y="0" onmousedown="handlePan(0,1)"/>
  <use id="arrowleft" xlink:href="#arrowLeft" x="0" y="0" onmousedown="handlePan(-1,0)"/>
</g>
<svg viewBox="0 0 15 15" width="100%" height="30px" preserveAspectRatio="xMaxYMin meet">
 <g id="arrow_out" transform="scale(0.3 0.3)">
  <a xlink:href="structanonymous__namespace_02_log_8cpp_03_1_1_log_core_1_1_field_config__coll__graph_org.svg" target="_base">
   <rect id="button" ry="5" rx="5" y="6" x="6" height="38" width="38"
        fill="#f2f5e9" fill-opacity="0.5" stroke="#606060" stroke-width="1.0"/>
   <path id="arrow"
     d="M 11.500037,31.436501 C 11.940474,20.09759 22.043105,11.32322 32.158766,21.979434 L 37.068811,17.246167 C 37.068811,17.246167 37.088388,32 37.088388,32 L 22.160133,31.978069 C 22.160133,31.978069 26.997745,27.140456 26.997745,27.140456 C 18.528582,18.264221 13.291696,25.230495 11.500037,31.436501 z"
     style="fill:#404040;"/>
  </a>
 </g>
</svg>

<style type='text/css'>
<![CDATA[
[data-mouse-over-selected='false'] { opacity: 0.7; }
[data-mouse-over-selected='true']  { opacity: 1.0; }
]]>
</style>
<script type="application/ecmascript"><![CDATA[
document.addEventListener('DOMContentLoaded', (event) => {
  highlightEdges();
  highlightAdjacentNodes();
});
]]></script>
</svg>
