<?xml version="1.0" encoding="UTF-8" standalone="no"?>
<!DOCTYPE svg PUBLIC "-//W3C//DTD SVG 1.1//EN"
 "http://www.w3.org/Graphics/SVG/1.1/DTD/svg11.dtd">
<!-- Generated by graphviz version 14.0.0 (20250921.2048)
 -->
<!-- Title: anonymous_namespace{Log.cpp}::LogCore::FieldConfig Pages: 1 -->
<svg width="508pt" height="99pt"
 viewBox="0.00 0.00 508.00 99.00" xmlns="http://www.w3.org/2000/svg" xmlns:xlink="http://www.w3.org/1999/xlink">
<g id="graph0" class="graph" transform="scale(1 1) rotate(0) translate(4 95)">
<title>anonymous_namespace{Log.cpp}::LogCore::FieldConfig</title>
<!-- Node1 -->
<g id="Node000001" class="node">
<title>Node1</title>
<g id="a_Node000001"><a xlink:title=" ">
<polygon fill="#999999" stroke="none" points="450,-19.25 134,-19.25 134,0 450,0 450,-19.25"/>
<text xml:space="preserve" text-anchor="start" x="142" y="-5.8" font-family="Consolas" font-weight="bold" font-size="11.00">anonymous_namespace{Log.cpp}::LogCore::FieldConfig</text>
</a>
</g>
</g>
<!-- Node2 -->
<g id="Node000002" class="node">
<title>Node2</title>
<g id="a_Node000002"><a xlink:title=" ">
<polygon fill="white" stroke="none" points="100,-91 0,-91 0,-71.75 100,-71.75 100,-91"/>
<text xml:space="preserve" text-anchor="middle" x="50" y="-76.55" font-family="Consolas" font-size="11.00">QReadWriteLock</text>
</a>
</g>
</g>
<!-- Node2&#45;&gt;Node1 -->
<g id="edge1_Node000001_Node000002" class="edge">
<title>Node2&#45;&gt;Node1</title>
<g id="a_edge1_Node000001_Node000002"><a xlink:title=" ">
<path fill="none" stroke="#9a32cd" stroke-dasharray="5,2" d="M78.23,-69.85C103.75,-60.56 142.46,-47.02 176.75,-37.25 200.85,-30.39 228.15,-24.02 250.13,-19.23"/>
<polygon fill="#9a32cd" stroke="#9a32cd" points="73.82,-71.47 77.75,-67.64 75.03,-71.03 78.52,-69.75 78.52,-69.75 78.52,-69.75 75.03,-71.03 79.29,-71.86 73.82,-71.47"/>
</a>
</g>
<text xml:space="preserve" text-anchor="start" x="179.75" y="-41.25" font-family="Consolas" font-size="10.00" fill="grey">lock_</text>
</g>
<!-- Node3 -->
<g id="Node000003" class="node">
<title>Node3</title>
<g id="a_Node000003"><a xlink:title=" ">
<polygon fill="white" stroke="none" points="224,-91 118,-91 118,-71.75 224,-71.75 224,-91"/>
<text xml:space="preserve" text-anchor="middle" x="171" y="-76.55" font-family="Consolas" font-size="11.00">atomic_uint64_t</text>
</a>
</g>
</g>
<!-- Node3&#45;&gt;Node1 -->
<g id="edge2_Node000001_Node000003" class="edge">
<title>Node3&#45;&gt;Node1</title>
<g id="a_edge2_Node000001_Node000003"><a xlink:title=" ">
<path fill="none" stroke="#9a32cd" stroke-dasharray="5,2" d="M189.19,-68.41C202.95,-59.51 222.43,-47.22 240,-37.25 251.29,-30.85 264.29,-24.19 274.47,-19.13"/>
<polygon fill="#9a32cd" stroke="#9a32cd" points="185.05,-71.1 188.01,-66.49 186.12,-70.41 189.24,-68.38 189.24,-68.38 189.24,-68.38 186.12,-70.41 190.47,-70.27 185.05,-71.1"/>
</a>
</g>
<text xml:space="preserve" text-anchor="start" x="243" y="-41.25" font-family="Consolas" font-size="10.00" fill="grey">version_</text>
</g>
<!-- Node4 -->
<g id="Node000004" class="node">
<title>Node4</title>
<g id="a_Node000004"><a xlink:title=" ">
<polygon fill="white" stroke="none" points="342,-91 242,-91 242,-71.75 342,-71.75 342,-91"/>
<text xml:space="preserve" text-anchor="middle" x="292" y="-76.55" font-family="Consolas" font-size="11.00">QList&lt; Field &gt;</text>
</a>
</g>
</g>
<!-- Node4&#45;&gt;Node1 -->
<g id="edge3_Node000001_Node000004" class="edge">
<title>Node4&#45;&gt;Node1</title>
<g id="a_edge3_Node000001_Node000004"><a xlink:title=" ">
<path fill="none" stroke="#9a32cd" stroke-dasharray="5,2" d="M292,-65.89C292,-51.81 292,-30.89 292,-19.25"/>
<polygon fill="#9a32cd" stroke="#9a32cd" points="292,-70.6 289.75,-65.6 292,-69.32 292,-65.6 292,-65.6 292,-65.6 292,-69.32 294.25,-65.6 292,-70.6"/>
</a>
</g>
<text xml:space="preserve" text-anchor="start" x="295" y="-41.25" font-family="Consolas" font-size="10.00" fill="grey">fields_</text>
</g>
<!-- Node5 -->
<g id="Node000005" class="node">
<title>Node5</title>
<g id="a_Node000005"><a xlink:title=" ">
<polygon fill="white" stroke="none" points="442,-91 360,-91 360,-71.75 442,-71.75 442,-91"/>
<text xml:space="preserve" text-anchor="middle" x="401" y="-76.55" font-family="Consolas" font-size="11.00">QStringList</text>
</a>
</g>
</g>
<!-- Node5&#45;&gt;Node1 -->
<g id="edge4_Node000001_Node000005" class="edge">
<title>Node5&#45;&gt;Node1</title>
<g id="a_edge4_Node000001_Node000005"><a xlink:title=" ">
<path fill="none" stroke="#9a32cd" stroke-dasharray="5,2" d="M384.38,-68.19C372.05,-59.31 354.73,-47.15 339,-37.25 328.84,-30.86 317.09,-24.2 307.88,-19.14"/>
<polygon fill="#9a32cd" stroke="#9a32cd" points="388.35,-71.06 382.98,-69.95 387.31,-70.31 384.3,-68.13 384.3,-68.13 384.3,-68.13 387.31,-70.31 385.62,-66.31 388.35,-71.06"/>
</a>
</g>
<text xml:space="preserve" text-anchor="start" x="366.23" y="-41.25" font-family="Consolas" font-size="10.00" fill="grey">strings_</text>
</g>
<!-- Node6 -->
<g id="Node000006" class="node">
<title>Node6</title>
<g id="a_Node000006"><a xlink:title=" ">
<polygon fill="white" stroke="none" points="500,-91 460,-91 460,-71.75 500,-71.75 500,-91"/>
<text xml:space="preserve" text-anchor="middle" x="480" y="-76.55" font-family="Consolas" font-size="11.00">bool</text>
</a>
</g>
</g>
<!-- Node6&#45;&gt;Node1 -->
<g id="edge5_Node000001_Node000006" class="edge">
<title>Node6&#45;&gt;Node1</title>
<g id="a_edge5_Node000001_Node000006"><a xlink:title=" ">
<path fill="none" stroke="#9a32cd" stroke-dasharray="5,2" d="M465.44,-68.4C452.83,-58.61 433.72,-45.15 415,-37.25 395.58,-29.05 373.32,-23.25 353.12,-19.2"/>
<polygon fill="#9a32cd" stroke="#9a32cd" points="469.15,-71.32 463.83,-69.99 468.14,-70.53 465.22,-68.22 465.22,-68.22 465.22,-68.22 468.14,-70.53 466.62,-66.46 469.15,-71.32"/>
</a>
</g>
<text xml:space="preserve" text-anchor="start" x="447.89" y="-41.25" font-family="Consolas" font-size="10.00" fill="grey">temp_</text>
</g>
</g>
</svg>
