<?xml version="1.0" encoding="UTF-8" standalone="no"?>
<!DOCTYPE svg PUBLIC "-//W3C//DTD SVG 1.1//EN"
 "http://www.w3.org/Graphics/SVG/1.1/DTD/svg11.dtd">
<!-- Generated by graphviz version 14.0.0 (20250921.2048)
 -->
<!-- Title: anonymous_namespace{AppUtil::cpp}::knownFolderPathWin Pages: 1 -->
<svg width="1026pt" height="64pt"
 viewBox="0.00 0.00 1026.00 64.00" xmlns="http://www.w3.org/2000/svg" xmlns:xlink="http://www.w3.org/1999/xlink">
<g id="graph0" class="graph" transform="scale(1 1) rotate(0) translate(4 60.25)">
<title>anonymous_namespace{AppUtil::cpp}::knownFolderPathWin</title>
<!-- Node1 -->
<g id="Node000001" class="node">
<title>Node1</title>
<g id="a_Node000001"><a xlink:title="Retrieve a Windows Known Folder absolute path as a QString.">
<polygon fill="#999999" stroke="none" points="1018,-37.25 684,-37.25 684,-18 1018,-18 1018,-37.25"/>
<text xml:space="preserve" text-anchor="start" x="692" y="-23.8" font-family="Consolas" font-weight="bold" font-size="11.00">anonymous_namespace{AppUtil::cpp}::knownFolderPathWin</text>
</a>
</g>
</g>
<!-- Node2 -->
<g id="Node000002" class="node">
<title>Node2</title>
<g id="a_Node000002"><a xlink:href="../../dc/dba/namespacenpi_1_1app.html#a30836be8b9337a64733a6e05594b23c8" target="_top" xlink:title="Absolute path to C:\ProgramData\[orgFolder].">
<polygon fill="white" stroke="none" points="636,-56.25 458,-56.25 458,-37 636,-37 636,-56.25"/>
<text xml:space="preserve" text-anchor="middle" x="547" y="-41.8" font-family="Consolas" font-size="11.00">npi::app::orgProgramDataDir</text>
</a>
</g>
</g>
<!-- Node1&#45;&gt;Node2 -->
<g id="edge1_Node000001_Node000002" class="edge">
<title>Node1&#45;&gt;Node2</title>
<g id="a_edge1_Node000001_Node000002"><a xlink:title=" ">
<path fill="none" stroke="#63b8ff" d="M691.31,-37.61C672.24,-38.81 653.33,-40 635.81,-41.1"/>
<polygon fill="#63b8ff" stroke="#63b8ff" points="696.01,-37.31 691.17,-39.87 694.74,-37.39 691.02,-37.63 691.02,-37.63 691.02,-37.63 694.74,-37.39 690.88,-35.38 696.01,-37.31"/>
</a>
</g>
</g>
<!-- Node5 -->
<g id="Node000005" class="node">
<title>Node5</title>
<g id="a_Node000005"><a xlink:href="../../dc/dba/namespacenpi_1_1app.html#ac0dca24602a75822c6f7fcf63f8781d9" target="_top" xlink:title="Absolute path to C:\Users\Public\Documents\[orgFolder].">
<polygon fill="white" stroke="none" points="648,-19.25 446,-19.25 446,0 648,0 648,-19.25"/>
<text xml:space="preserve" text-anchor="middle" x="547" y="-4.8" font-family="Consolas" font-size="11.00">npi::app::orgPublicDocumentsDir</text>
</a>
</g>
</g>
<!-- Node1&#45;&gt;Node5 -->
<g id="edge4_Node000001_Node000005" class="edge">
<title>Node1&#45;&gt;Node5</title>
<g id="a_edge4_Node000001_Node000005"><a xlink:title=" ">
<path fill="none" stroke="#63b8ff" d="M682.64,-17.65C670.83,-16.95 659.16,-16.25 647.91,-15.58"/>
<polygon fill="#63b8ff" stroke="#63b8ff" points="687.62,-17.95 682.49,-19.89 686.34,-17.87 682.62,-17.65 682.62,-17.65 682.62,-17.65 686.34,-17.87 682.76,-15.4 687.62,-17.95"/>
</a>
</g>
</g>
<!-- Node3 -->
<g id="Node000003" class="node">
<title>Node3</title>
<g id="a_Node000003"><a xlink:href="../../dc/dba/namespacenpi_1_1app.html#a40a2a28831f2f410c995f0657baf6544" target="_top" xlink:title="Absolute path to C:\ProgramData\[orgFolder]\[appFolder].">
<polygon fill="white" stroke="none" points="398,-56.25 220,-56.25 220,-37 398,-37 398,-56.25"/>
<text xml:space="preserve" text-anchor="middle" x="309" y="-41.8" font-family="Consolas" font-size="11.00">npi::app::appProgramDataDir</text>
</a>
</g>
</g>
<!-- Node2&#45;&gt;Node3 -->
<g id="edge2_Node000002_Node000003" class="edge">
<title>Node2&#45;&gt;Node3</title>
<g id="a_edge2_Node000002_Node000003"><a xlink:title=" ">
<path fill="none" stroke="#63b8ff" d="M452.1,-46.62C434.24,-46.62 415.61,-46.62 397.95,-46.62"/>
<polygon fill="#63b8ff" stroke="#63b8ff" points="456.9,-46.63 451.9,-48.88 455.62,-46.63 451.9,-46.63 451.9,-46.63 451.9,-46.63 455.62,-46.63 451.9,-44.38 456.9,-46.63"/>
</a>
</g>
</g>
<!-- Node4 -->
<g id="Node000004" class="node">
<title>Node4</title>
<g id="a_Node000004"><a xlink:href="../../dc/dba/namespacenpi_1_1app.html#a723a01872a6ddb63e5bec52939f8c021" target="_top" xlink:title="Absolute path of application&#39;s main settings.ini at C:\ProgramData\[orgFolder]\[appFolder]\.">
<polygon fill="white" stroke="none" points="172,-56.25 0,-56.25 0,-37 172,-37 172,-56.25"/>
<text xml:space="preserve" text-anchor="middle" x="86" y="-41.8" font-family="Consolas" font-size="11.00">npi::app::settingsMainFile</text>
</a>
</g>
</g>
<!-- Node3&#45;&gt;Node4 -->
<g id="edge3_Node000003_Node000004" class="edge">
<title>Node3&#45;&gt;Node4</title>
<g id="a_edge3_Node000003_Node000004"><a xlink:title=" ">
<path fill="none" stroke="#63b8ff" d="M214.03,-46.62C200.01,-46.62 185.62,-46.62 171.8,-46.62"/>
<polygon fill="#63b8ff" stroke="#63b8ff" points="218.8,-46.63 213.8,-48.88 217.52,-46.63 213.8,-46.63 213.8,-46.63 213.8,-46.63 217.52,-46.63 213.8,-44.38 218.8,-46.63"/>
</a>
</g>
</g>
<!-- Node6 -->
<g id="Node000006" class="node">
<title>Node6</title>
<g id="a_Node000006"><a xlink:href="../../dc/dba/namespacenpi_1_1app.html#aff4c7482e4417f59ede04e359548a542" target="_top" xlink:title="Absolute path to C:\Users\Public\Documents\[orgFolder]\[appFolder].">
<polygon fill="white" stroke="none" points="410,-19.25 208,-19.25 208,0 410,0 410,-19.25"/>
<text xml:space="preserve" text-anchor="middle" x="309" y="-4.8" font-family="Consolas" font-size="11.00">npi::app::appPublicDocumentsDir</text>
</a>
</g>
</g>
<!-- Node5&#45;&gt;Node6 -->
<g id="edge5_Node000005_Node000006" class="edge">
<title>Node5&#45;&gt;Node6</title>
<g id="a_edge5_Node000005_Node000006"><a xlink:title=" ">
<path fill="none" stroke="#63b8ff" d="M440.29,-9.62C430.14,-9.62 419.86,-9.62 409.76,-9.62"/>
<polygon fill="#63b8ff" stroke="#63b8ff" points="445.04,-9.63 440.04,-11.88 443.76,-9.63 440.04,-9.63 440.04,-9.63 440.04,-9.63 443.76,-9.63 440.04,-7.38 445.04,-9.63"/>
</a>
</g>
</g>
</g>
</svg>
