<?xml version="1.0" encoding="UTF-8" standalone="no"?>
<!DOCTYPE svg PUBLIC "-//W3C//DTD SVG 1.1//EN"
 "http://www.w3.org/Graphics/SVG/1.1/DTD/svg11.dtd">
<!-- Generated by graphviz version 14.0.0 (20250921.2048)
 -->
<!-- Title: anonymous_namespace{AppUtil::cpp}::knownFolderPathWin Pages: 1 -->
<svg width="1382pt" height="121pt"
 viewBox="0.00 0.00 1382.00 121.00" xmlns="http://www.w3.org/2000/svg" xmlns:xlink="http://www.w3.org/1999/xlink">
<g id="graph0" class="graph" transform="scale(1 1) rotate(0) translate(4 117.25)">
<title>anonymous_namespace{AppUtil::cpp}::knownFolderPathWin</title>
<!-- Node1 -->
<g id="Node000001" class="node">
<title>Node1</title>
<g id="a_Node000001"><a xlink:title="Retrieve a Windows Known Folder absolute path as a QString.">
<polygon fill="#999999" stroke="none" points="1374,-42.25 1040,-42.25 1040,-23 1374,-23 1374,-42.25"/>
<text xml:space="preserve" text-anchor="start" x="1048" y="-28.8" font-family="Consolas" font-weight="bold" font-size="11.00">anonymous_namespace{AppUtil::cpp}::knownFolderPathWin</text>
</a>
</g>
</g>
<!-- Node2 -->
<g id="Node000002" class="node">
<title>Node2</title>
<g id="a_Node000002"><a xlink:href="../../dc/dba/namespacenpi_1_1app.html#a30836be8b9337a64733a6e05594b23c8" target="_top" xlink:title=" ">
<polygon fill="white" stroke="none" points="1004,-66.25 826,-66.25 826,-47 1004,-47 1004,-66.25"/>
<text xml:space="preserve" text-anchor="middle" x="915" y="-51.8" font-family="Consolas" font-size="11.00">npi::app::orgProgramDataDir</text>
</a>
</g>
</g>
<!-- Node1&#45;&gt;Node2 -->
<g id="edge1_Node000001_Node000002" class="edge">
<title>Node1&#45;&gt;Node2</title>
<g id="a_edge1_Node000001_Node000002"><a xlink:title=" ">
<path fill="none" stroke="#63b8ff" d="M1083.65,-42.75C1056.8,-44.97 1028.89,-47.28 1003.73,-49.36"/>
<polygon fill="#63b8ff" stroke="#63b8ff" points="1088.5,-42.35 1083.71,-45 1087.23,-42.45 1083.52,-42.76 1083.52,-42.76 1083.52,-42.76 1087.23,-42.45 1083.33,-40.52 1088.5,-42.35"/>
</a>
</g>
</g>
<!-- Node6 -->
<g id="Node000006" class="node">
<title>Node6</title>
<g id="a_Node000006"><a xlink:href="../../dc/dba/namespacenpi_1_1app.html#ac0dca24602a75822c6f7fcf63f8781d9" target="_top" xlink:title=" ">
<polygon fill="white" stroke="none" points="440,-19.25 238,-19.25 238,0 440,0 440,-19.25"/>
<text xml:space="preserve" text-anchor="middle" x="339" y="-4.8" font-family="Consolas" font-size="11.00">npi::app::orgPublicDocumentsDir</text>
</a>
</g>
</g>
<!-- Node1&#45;&gt;Node6 -->
<g id="edge13_Node000001_Node000006" class="edge">
<title>Node1&#45;&gt;Node6</title>
<g id="a_edge13_Node000001_Node000006"><a xlink:title=" ">
<path fill="none" stroke="#63b8ff" d="M1034.03,-28.06C856.33,-23.34 585.04,-16.13 439.88,-12.28"/>
<polygon fill="#63b8ff" stroke="#63b8ff" points="1038.83,-28.19 1033.78,-30.3 1037.55,-28.15 1033.83,-28.05 1033.83,-28.05 1033.83,-28.05 1037.55,-28.15 1033.89,-25.8 1038.83,-28.19"/>
</a>
</g>
</g>
<!-- Node3 -->
<g id="Node000003" class="node">
<title>Node3</title>
<g id="a_Node000003"><a xlink:href="../../dc/dba/namespacenpi_1_1app.html#a40a2a28831f2f410c995f0657baf6544" target="_top" xlink:title=" ">
<polygon fill="white" stroke="none" points="790,-113.25 612,-113.25 612,-94 790,-94 790,-113.25"/>
<text xml:space="preserve" text-anchor="middle" x="701" y="-98.8" font-family="Consolas" font-size="11.00">npi::app::appProgramDataDir</text>
</a>
</g>
</g>
<!-- Node2&#45;&gt;Node3 -->
<g id="edge2_Node000002_Node000003" class="edge">
<title>Node2&#45;&gt;Node3</title>
<g id="a_edge2_Node000002_Node000003"><a xlink:title=" ">
<path fill="none" stroke="#63b8ff" d="M864.9,-67.51C828.75,-75.52 780.07,-86.32 745.35,-94.01"/>
<polygon fill="#63b8ff" stroke="#63b8ff" points="869.4,-66.51 865,-69.79 868.15,-66.79 864.52,-67.6 864.52,-67.6 864.52,-67.6 868.15,-66.79 864.03,-65.4 869.4,-66.51"/>
</a>
</g>
</g>
<!-- Node4 -->
<g id="Node000004" class="node">
<title>Node4</title>
<g id="a_Node000004"><a xlink:href="../../dc/dba/namespacenpi_1_1app.html#abfa8d31e6af8b8f9b3c5af668afd21ad" target="_top" xlink:title=" ">
<polygon fill="white" stroke="none" points="576,-66.25 476,-66.25 476,-47 576,-47 576,-66.25"/>
<text xml:space="preserve" text-anchor="middle" x="526" y="-51.8" font-family="Consolas" font-size="11.00">npi::app::path</text>
</a>
</g>
</g>
<!-- Node2&#45;&gt;Node4 -->
<g id="edge12_Node000002_Node000004" class="edge">
<title>Node2&#45;&gt;Node4</title>
<g id="a_edge12_Node000002_Node000004"><a xlink:title=" ">
<path fill="none" stroke="#63b8ff" d="M820.22,-50.74C743.13,-49.27 636.97,-49.67 575.81,-51.96"/>
<polygon fill="#63b8ff" stroke="#63b8ff" points="824.97,-50.84 819.92,-52.99 823.68,-50.81 819.97,-50.74 819.97,-50.74 819.97,-50.74 823.68,-50.81 820.01,-48.49 824.97,-50.84"/>
</a>
</g>
</g>
<!-- Node3&#45;&gt;Node4 -->
<g id="edge3_Node000003_Node000004" class="edge">
<title>Node3&#45;&gt;Node4</title>
<g id="a_edge3_Node000003_Node000004"><a xlink:title=" ">
<path fill="none" stroke="#63b8ff" d="M675.59,-92.12C649.81,-83.16 608.48,-71.5 575.95,-63.77"/>
<polygon fill="#63b8ff" stroke="#63b8ff" points="680.01,-93.7 674.54,-94.14 678.8,-93.27 675.3,-92.02 675.3,-92.02 675.3,-92.02 678.8,-93.27 676.05,-89.9 680.01,-93.7"/>
</a>
</g>
</g>
<!-- Node4&#45;&gt;Node2 -->
<g id="edge7_Node000004_Node000002" class="edge">
<title>Node4&#45;&gt;Node2</title>
<g id="a_edge7_Node000004_Node000002"><a xlink:title=" ">
<path fill="none" stroke="#63b8ff" d="M581.83,-61.5C645.42,-63.66 751.11,-63.95 826.18,-62.39"/>
<polygon fill="#63b8ff" stroke="#63b8ff" points="577.02,-61.33 582.1,-59.26 578.31,-61.38 582.02,-61.51 582.02,-61.51 582.02,-61.51 578.31,-61.38 581.94,-63.76 577.02,-61.33"/>
</a>
</g>
</g>
<!-- Node4&#45;&gt;Node3 -->
<g id="edge4_Node000004_Node000003" class="edge">
<title>Node4&#45;&gt;Node3</title>
<g id="a_edge4_Node000004_Node000003"><a xlink:title=" ">
<path fill="none" stroke="#63b8ff" d="M551.69,-68.23C574.87,-76.27 610.45,-86.45 640.95,-94.02"/>
<polygon fill="#63b8ff" stroke="#63b8ff" points="547.22,-66.64 552.69,-66.19 548.43,-67.07 551.93,-68.31 551.93,-68.31 551.93,-68.31 548.43,-67.07 551.18,-70.43 547.22,-66.64"/>
</a>
</g>
</g>
<!-- Node4&#45;&gt;Node4 -->
<g id="edge11_Node000004_Node000004" class="edge">
<title>Node4&#45;&gt;Node4</title>
<g id="a_edge11_Node000004_Node000004"><a xlink:title=" ">
<path fill="none" stroke="#63b8ff" d="M557,-69.68C563.35,-77.22 553.02,-84.25 526,-84.25 494.55,-84.25 485.71,-74.74 499.47,-65.97"/>
<polygon fill="#63b8ff" stroke="#63b8ff" points="553.47,-66.74 558.75,-68.21 554.45,-67.56 557.31,-69.94 557.31,-69.94 557.31,-69.94 554.45,-67.56 555.87,-71.67 553.47,-66.74"/>
</a>
</g>
</g>
<!-- Node5 -->
<g id="Node000005" class="node">
<title>Node5</title>
<g id="a_Node000005"><a xlink:href="../../dc/dba/namespacenpi_1_1app.html#aff4c7482e4417f59ede04e359548a542" target="_top" xlink:title=" ">
<polygon fill="white" stroke="none" points="202,-66.25 0,-66.25 0,-47 202,-47 202,-66.25"/>
<text xml:space="preserve" text-anchor="middle" x="101" y="-51.8" font-family="Consolas" font-size="11.00">npi::app::appPublicDocumentsDir</text>
</a>
</g>
</g>
<!-- Node4&#45;&gt;Node5 -->
<g id="edge5_Node000004_Node000005" class="edge">
<title>Node4&#45;&gt;Node5</title>
<g id="a_edge5_Node000004_Node000005"><a xlink:title=" ">
<path fill="none" stroke="#63b8ff" d="M470.06,-51.91C402.23,-49.64 285.58,-49.27 201.77,-50.79"/>
<polygon fill="#63b8ff" stroke="#63b8ff" points="474.85,-52.07 469.77,-54.15 473.56,-52.03 469.85,-51.9 469.85,-51.9 469.85,-51.9 473.56,-52.03 469.93,-49.65 474.85,-52.07"/>
</a>
</g>
</g>
<!-- Node4&#45;&gt;Node6 -->
<g id="edge8_Node000004_Node000006" class="edge">
<title>Node4&#45;&gt;Node6</title>
<g id="a_edge8_Node000004_Node000006"><a xlink:title=" ">
<path fill="none" stroke="#63b8ff" d="M507.2,-44.74C490.03,-37.89 463.29,-30.57 440,-24.62 432.99,-22.84 425.7,-21.01 418.39,-19.25"/>
<polygon fill="#63b8ff" stroke="#63b8ff" points="511.52,-46.56 506.04,-46.68 510.34,-46.06 506.92,-44.61 506.92,-44.61 506.92,-44.61 510.34,-46.06 507.79,-42.54 511.52,-46.56"/>
</a>
</g>
</g>
<!-- Node5&#45;&gt;Node4 -->
<g id="edge6_Node000005_Node000004" class="edge">
<title>Node5&#45;&gt;Node4</title>
<g id="a_edge6_Node000005_Node000004"><a xlink:title=" ">
<path fill="none" stroke="#63b8ff" d="M207.9,-62.56C293.76,-64 410.86,-63.53 476.06,-61.13"/>
<polygon fill="#63b8ff" stroke="#63b8ff" points="202.99,-62.48 208.03,-60.32 204.27,-62.5 207.99,-62.57 207.99,-62.57 207.99,-62.57 204.27,-62.5 207.95,-64.81 202.99,-62.48"/>
</a>
</g>
</g>
<!-- Node6&#45;&gt;Node4 -->
<g id="edge10_Node000006_Node000004" class="edge">
<title>Node6&#45;&gt;Node4</title>
<g id="a_edge10_Node000006_Node000004"><a xlink:title=" ">
<path fill="none" stroke="#63b8ff" d="M360.59,-21.25C380.83,-28.11 412.6,-35.63 440,-42.62 451.7,-45.61 464.28,-48.95 476.07,-51.86"/>
<polygon fill="#63b8ff" stroke="#63b8ff" points="356.09,-19.65 361.55,-19.21 357.3,-20.08 360.8,-21.33 360.8,-21.33 360.8,-21.33 357.3,-20.08 360.05,-23.45 356.09,-19.65"/>
</a>
</g>
</g>
<!-- Node6&#45;&gt;Node5 -->
<g id="edge9_Node000006_Node000005" class="edge">
<title>Node6&#45;&gt;Node5</title>
<g id="a_edge9_Node000006_Node000005"><a xlink:title=" ">
<path fill="none" stroke="#63b8ff" d="M283.84,-20.41C243.55,-28.44 189.06,-39.29 150.26,-47.01"/>
<polygon fill="#63b8ff" stroke="#63b8ff" points="288.48,-19.49 284.01,-22.67 287.22,-19.74 283.57,-20.46 283.57,-20.46 283.57,-20.46 287.22,-19.74 283.13,-18.26 288.48,-19.49"/>
</a>
</g>
</g>
</g>
</svg>
