<?xml version="1.0" encoding="UTF-8" standalone="no"?>
<!DOCTYPE svg PUBLIC "-//W3C//DTD SVG 1.1//EN"
 "http://www.w3.org/Graphics/SVG/1.1/DTD/svg11.dtd">
<!-- Generated by graphviz version 14.0.0 (20250921.2048)
 -->
<!-- Title: anonymous_namespace{Log.cpp}::LogCore::FixedStrings Pages: 1 -->
<svg width="330pt" height="128pt"
 viewBox="0.00 0.00 330.00 128.00" xmlns="http://www.w3.org/2000/svg" xmlns:xlink="http://www.w3.org/1999/xlink">

<svg id="main" version="1.1" xmlns="http://www.w3.org/2000/svg" xmlns:xlink="http://www.w3.org/1999/xlink" xml:space="preserve">

<style type="text/css"><![CDATA[
.node, .edge {opacity: 0.7;}
.node.selected, .edge.selected {opacity: 1;}
.edge:hover path { stroke: red; }
.edge:hover polygon { stroke: red; fill: red; }
]]></style>
<script type="application/ecmascript" xlink:href="../../svg.min.js"/>
<svg id="graph" class="graph">
<g id="graph0" class="graph" transform="scale(1 1) rotate(0) translate(4 124)">
<title>anonymous_namespace{Log.cpp}::LogCore::FixedStrings</title>
<!-- Node1 -->
<g id="Node000001" class="node">
<title>Node1</title>
<g id="a_Node000001"><a xlink:title=" ">
<polygon fill="#999999" stroke="none" points="322,-19.25 0,-19.25 0,0 322,0 322,-19.25"/>
<text xml:space="preserve" text-anchor="start" x="8" y="-5.8" font-family="Consolas" font-weight="bold" font-size="11.00">anonymous_namespace{Log.cpp}::LogCore::FixedStrings</text>
</a>
</g>
</g>
<!-- Node2 -->
<g id="Node000002" class="node">
<title>Node2</title>
<g id="a_Node000002"><a xlink:title=" ">
<polygon fill="white" stroke="none" points="101,-120 37,-120 37,-100.75 101,-100.75 101,-120"/>
<text xml:space="preserve" text-anchor="middle" x="69" y="-105.55" font-family="Consolas" font-size="11.00">uint32_t</text>
</a>
</g>
</g>
<!-- Node2&#45;&gt;Node1 -->
<g id="edge1_Node000001_Node000002" class="edge">
<title>Node2&#45;&gt;Node1</title>
<g id="a_edge1_Node000001_Node000002"><a xlink:title=" ">
<path fill="none" stroke="#9a32cd" stroke-dasharray="5,2" d="M69,-95.29C69.75,-79.28 73.37,-53.3 88,-37.25 95.64,-28.88 106.12,-23.13 116.76,-19.19"/>
<polygon fill="#9a32cd" stroke="#9a32cd" points="68.87,-99.87 66.76,-94.81 68.9,-98.59 69.01,-94.87 69.01,-94.87 69.01,-94.87 68.9,-98.59 71.26,-94.94 68.87,-99.87"/>
</a>
</g>
<text xml:space="preserve" text-anchor="start" x="91" y="-55.75" font-family="Consolas" font-size="10.00" fill="grey">funcNameLen_</text>
</g>
<!-- Node3 -->
<g id="Node000003" class="node">
<title>Node3</title>
<g id="a_Node000003"><a xlink:title=" ">
<polygon fill="white" stroke="none" points="193,-120 129,-120 129,-100.75 193,-100.75 193,-120"/>
<text xml:space="preserve" text-anchor="middle" x="161" y="-105.55" font-family="Consolas" font-size="11.00">uint16_t</text>
</a>
</g>
</g>
<!-- Node3&#45;&gt;Node1 -->
<g id="edge2_Node000001_Node000003" class="edge">
<title>Node3&#45;&gt;Node1</title>
<g id="a_edge2_Node000001_Node000003"><a xlink:title=" ">
<path fill="none" stroke="#9a32cd" stroke-dasharray="5,2" d="M161,-94.79C161,-73.83 161,-35.84 161,-19.02"/>
<polygon fill="#9a32cd" stroke="#9a32cd" points="161,-99.74 158.75,-94.74 161,-98.46 161,-94.74 161,-94.74 161,-94.74 161,-98.46 163.25,-94.74 161,-99.74"/>
</a>
</g>
<text xml:space="preserve" text-anchor="start" x="164" y="-63" font-family="Consolas" font-size="10.00" fill="grey">categoryLen_</text>
<text xml:space="preserve" text-anchor="start" x="164" y="-48.5" font-family="Consolas" font-size="10.00" fill="grey">fileNameLen_</text>
</g>
<!-- Node4 -->
<g id="Node000004" class="node">
<title>Node4</title>
<g id="a_Node000004"><a xlink:title=" ">
<polygon fill="white" stroke="none" points="273,-120 233,-120 233,-100.75 273,-100.75 273,-120"/>
<text xml:space="preserve" text-anchor="middle" x="253" y="-105.55" font-family="Consolas" font-size="11.00">char</text>
</a>
</g>
</g>
<!-- Node4&#45;&gt;Node1 -->
<g id="edge3_Node000001_Node000004" class="edge">
<title>Node4&#45;&gt;Node1</title>
<g id="a_edge3_Node000001_Node000004"><a xlink:title=" ">
<path fill="none" stroke="#9a32cd" stroke-dasharray="5,2" d="M252.31,-95.29C250.78,-79.28 246,-53.29 231,-37.25 223.19,-28.89 212.47,-23.13 201.78,-19.18"/>
<polygon fill="#9a32cd" stroke="#9a32cd" points="252.66,-99.87 250.03,-95.06 252.56,-98.6 252.27,-94.89 252.27,-94.89 252.27,-94.89 252.56,-98.6 254.52,-94.71 252.66,-99.87"/>
</a>
</g>
<text xml:space="preserve" text-anchor="start" x="253.58" y="-70.25" font-family="Consolas" font-size="10.00" fill="grey">category_</text>
<text xml:space="preserve" text-anchor="start" x="253.58" y="-55.75" font-family="Consolas" font-size="10.00" fill="grey">fileName_</text>
<text xml:space="preserve" text-anchor="start" x="253.58" y="-41.25" font-family="Consolas" font-size="10.00" fill="grey">funcName_</text>
</g>
</g>
</svg>
</svg>

<style type='text/css'>
<![CDATA[
[data-mouse-over-selected='false'] { opacity: 0.7; }
[data-mouse-over-selected='true']  { opacity: 1.0; }
]]>
</style>
<script type="application/ecmascript"><![CDATA[
document.addEventListener('DOMContentLoaded', (event) => {
  highlightEdges();
  highlightAdjacentNodes();
});
]]></script>
</svg>
