<?xml version="1.0" encoding="UTF-8" standalone="no"?>
<!DOCTYPE svg PUBLIC "-//W3C//DTD SVG 1.1//EN"
 "http://www.w3.org/Graphics/SVG/1.1/DTD/svg11.dtd">
<!-- Generated by graphviz version 14.0.0 (20250921.2048)
 -->
<!-- Title: AppMeta.h Pages: 1 -->
<svg width="362pt" height="83pt"
 viewBox="0.00 0.00 362.00 83.00" xmlns="http://www.w3.org/2000/svg" xmlns:xlink="http://www.w3.org/1999/xlink">
<g id="graph0" class="graph" transform="scale(1 1) rotate(0) translate(4 78.5)">
<title>AppMeta.h</title>
<!-- Node1 -->
<g id="Node000001" class="node">
<title>Node1</title>
<g id="a_Node000001"><a xlink:title="Application metadata and meta&#45;functions.">
<polygon fill="#999999" stroke="none" points="254,-74.5 184,-74.5 184,-55.25 254,-55.25 254,-74.5"/>
<text xml:space="preserve" text-anchor="start" x="192" y="-61.05" font-family="Consolas" font-weight="bold" font-size="11.00">AppMeta.h</text>
</a>
</g>
</g>
<!-- Node2 -->
<g id="Node000002" class="node">
<title>Node2</title>
<g id="a_Node000002"><a xlink:title=" ">
<polygon fill="#e0e0e0" stroke="none" points="142,-19.25 0,-19.25 0,0 142,0 142,-19.25"/>
<text xml:space="preserve" text-anchor="middle" x="71" y="-4.8" font-family="Consolas" font-size="11.00">npi/PlatformCheck.hpp</text>
</a>
</g>
</g>
<!-- Node1&#45;&gt;Node2 -->
<g id="edge1_Node000001_Node000002" class="edge">
<title>Node1&#45;&gt;Node2</title>
<g id="a_edge1_Node000001_Node000002"><a xlink:title=" ">
<path fill="none" stroke="#63b8ff" d="M195.22,-55.32C169.44,-46.04 128.25,-31.22 100.44,-21.22"/>
<polygon fill="#63b8ff" stroke="#63b8ff" points="95.87,-19.57 101.33,-19.15 97.07,-20.01 100.57,-21.26 100.57,-21.26 100.57,-21.26 97.07,-20.01 99.81,-23.38 95.87,-19.57"/>
</a>
</g>
</g>
<!-- Node3 -->
<g id="Node000003" class="node">
<title>Node3</title>
<g id="a_Node000003"><a xlink:title=" ">
<polygon fill="#e0e0e0" stroke="none" points="278,-19.25 160,-19.25 160,0 278,0 278,-19.25"/>
<text xml:space="preserve" text-anchor="middle" x="219" y="-4.8" font-family="Consolas" font-size="11.00">QLatin1StringView</text>
</a>
</g>
</g>
<!-- Node1&#45;&gt;Node3 -->
<g id="edge2_Node000001_Node000003" class="edge">
<title>Node1&#45;&gt;Node3</title>
<g id="a_edge2_Node000001_Node000003"><a xlink:title=" ">
<path fill="none" stroke="#63b8ff" d="M219,-55.55C219,-47.4 219,-34.79 219,-25.01"/>
<polygon fill="#63b8ff" stroke="#63b8ff" points="219,-20.28 221.25,-25.28 219,-21.56 219,-25.28 219,-25.28 219,-25.28 219,-21.56 216.75,-25.28 219,-20.28"/>
</a>
</g>
</g>
<!-- Node4 -->
<g id="Node000004" class="node">
<title>Node4</title>
<g id="a_Node000004"><a xlink:title=" ">
<polygon fill="#e0e0e0" stroke="none" points="354,-19.25 296,-19.25 296,0 354,0 354,-19.25"/>
<text xml:space="preserve" text-anchor="middle" x="325" y="-4.8" font-family="Consolas" font-size="11.00">QString</text>
</a>
</g>
</g>
<!-- Node1&#45;&gt;Node4 -->
<g id="edge3_Node000001_Node000004" class="edge">
<title>Node1&#45;&gt;Node4</title>
<g id="a_edge3_Node000001_Node000004"><a xlink:title=" ">
<path fill="none" stroke="#63b8ff" d="M236.03,-55.32C254.11,-46.24 282.77,-31.84 302.65,-21.85"/>
<polygon fill="#63b8ff" stroke="#63b8ff" points="306.92,-19.71 303.46,-23.96 305.78,-20.28 302.45,-21.95 302.45,-21.95 302.45,-21.95 305.78,-20.28 301.44,-19.94 306.92,-19.71"/>
</a>
</g>
</g>
</g>
</svg>
