<?xml version="1.0" encoding="UTF-8" standalone="no"?>
<!DOCTYPE svg PUBLIC "-//W3C//DTD SVG 1.1//EN"
 "http://www.w3.org/Graphics/SVG/1.1/DTD/svg11.dtd">
<!-- Generated by graphviz version 14.1.5 (20260411.2331)
 -->
<!-- Title: Root/MetaInfo.h Pages: 1 -->
<svg width="202pt" height="83pt"
 viewBox="0.00 0.00 202.00 83.00" xmlns="http://www.w3.org/2000/svg" xmlns:xlink="http://www.w3.org/1999/xlink">
<g id="graph0" class="graph" transform="scale(1 1) rotate(0) translate(4 78.5)">
<title>Root/MetaInfo.h</title>
<!-- Node1 -->
<g id="Node000001" class="node">
<title>Node1</title>
<g id="a_Node000001"><a xlink:title="Declares application metadata and metadata&#45;derived application paths.">
<polygon fill="#999999" stroke="none" points="135,-74.5 29,-74.5 29,-55.25 135,-55.25 135,-74.5"/>
<text xml:space="preserve" text-anchor="start" x="37" y="-61.05" font-family="Consolas" font-weight="bold" font-size="11.00">Root/MetaInfo.h</text>
</a>
</g>
</g>
<!-- Node2 -->
<g id="Node000002" class="node">
<title>Node2</title>
<g id="a_Node000002"><a xlink:title=" ">
<polygon fill="#e0e0e0" stroke="none" points="58,-19.25 0,-19.25 0,0 58,0 58,-19.25"/>
<text xml:space="preserve" text-anchor="middle" x="29" y="-4.8" font-family="Consolas" font-size="11.00">QString</text>
</a>
</g>
</g>
<!-- Node1&#45;&gt;Node2 -->
<g id="edge1_Node000001_Node000002" class="edge">
<title>Node1&#45;&gt;Node2</title>
<g id="a_edge1_Node000001_Node000002"><a xlink:title=" ">
<path fill="none" stroke="#63b8ff" d="M73.72,-55.55C65.13,-46.93 51.61,-33.34 41.68,-23.36"/>
<polygon fill="#63b8ff" stroke="#63b8ff" points="38.26,-19.93 43.38,-21.88 39.16,-20.83 41.78,-23.47 41.78,-23.47 41.78,-23.47 39.16,-20.83 40.19,-25.06 38.26,-19.93"/>
</a>
</g>
</g>
<!-- Node3 -->
<g id="Node000003" class="node">
<title>Node3</title>
<g id="a_Node000003"><a xlink:title=" ">
<polygon fill="#e0e0e0" stroke="none" points="194,-19.25 76,-19.25 76,0 194,0 194,-19.25"/>
<text xml:space="preserve" text-anchor="middle" x="135" y="-4.8" font-family="Consolas" font-size="11.00">QLatin1StringView</text>
</a>
</g>
</g>
<!-- Node1&#45;&gt;Node3 -->
<g id="edge2_Node000001_Node000003" class="edge">
<title>Node1&#45;&gt;Node3</title>
<g id="a_edge2_Node000001_Node000003"><a xlink:title=" ">
<path fill="none" stroke="#63b8ff" d="M90.28,-55.55C98.87,-46.93 112.39,-33.34 122.32,-23.36"/>
<polygon fill="#63b8ff" stroke="#63b8ff" points="125.74,-19.93 123.81,-25.06 124.84,-20.83 122.22,-23.47 122.22,-23.47 122.22,-23.47 124.84,-20.83 120.62,-21.88 125.74,-19.93"/>
</a>
</g>
</g>
</g>
</svg>
