<?xml version="1.0" encoding="UTF-8" standalone="no"?>
<!DOCTYPE svg PUBLIC "-//W3C//DTD SVG 1.1//EN"
 "http://www.w3.org/Graphics/SVG/1.1/DTD/svg11.dtd">
<!-- Generated by graphviz version 14.0.0 (20250921.2048)
 -->
<!-- Title: wmain Pages: 1 -->
<svg width="298pt" height="98pt"
 viewBox="0.00 0.00 298.00 98.00" xmlns="http://www.w3.org/2000/svg" xmlns:xlink="http://www.w3.org/1999/xlink">
<g id="graph0" class="graph" transform="scale(1 1) rotate(0) translate(4 94.12)">
<title>wmain</title>
<!-- Node1 -->
<g id="Node000001" class="node">
<title>Node1</title>
<g id="a_Node000001"><a xlink:title=" ">
<polygon fill="#999999" stroke="none" points="46,-51.88 0,-51.88 0,-32.62 46,-32.62 46,-51.88"/>
<text xml:space="preserve" text-anchor="start" x="8" y="-38.42" font-family="Consolas" font-weight="bold" font-size="11.00">wmain</text>
</a>
</g>
</g>
<!-- Node2 -->
<g id="Node000002" class="node">
<title>Node2</title>
<g id="a_Node000002"><a xlink:href="../../da/d40/namespaceanonymous__namespace_02npi_imp_log_8cpp_03.html#ad48d762bce7f029decf2b5b4cca0586a" target="_top" xlink:title=" ">
<polygon fill="white" stroke="none" points="284,-90.12 88,-90.12 88,-48.38 284,-48.38 284,-90.12"/>
<text xml:space="preserve" text-anchor="start" x="96" y="-75.67" font-family="Consolas" font-size="11.00">anonymous_namespace</text>
<text xml:space="preserve" text-anchor="start" x="96" y="-64.42" font-family="Consolas" font-size="11.00">{npiImpLog::cpp}::ensureParent</text>
<text xml:space="preserve" text-anchor="middle" x="186" y="-53.17" font-family="Consolas" font-size="11.00">DirExists</text>
</a>
</g>
</g>
<!-- Node1&#45;&gt;Node2 -->
<g id="edge1_Node000001_Node000002" class="edge">
<title>Node1&#45;&gt;Node2</title>
<g id="a_edge1_Node000001_Node000002"><a xlink:title=" ">
<path fill="none" stroke="#63b8ff" d="M45.71,-45.89C55.78,-47.58 68.54,-49.72 82.23,-52.01"/>
<polygon fill="#63b8ff" stroke="#63b8ff" points="86.95,-52.81 81.64,-54.2 85.68,-52.59 82.02,-51.98 82.02,-51.98 82.02,-51.98 85.68,-52.59 82.39,-49.76 86.95,-52.81"/>
</a>
</g>
</g>
<!-- Node3 -->
<g id="Node000003" class="node">
<title>Node3</title>
<g id="a_Node000003"><a xlink:href="../../da/d40/namespaceanonymous__namespace_02npi_imp_log_8cpp_03.html#a7a9fc2ee817c389669c804874f4032b1" target="_top" xlink:title=" ">
<polygon fill="white" stroke="none" points="290,-30.5 82,-30.5 82,0 290,0 290,-30.5"/>
<text xml:space="preserve" text-anchor="start" x="90" y="-16.05" font-family="Consolas" font-size="11.00">anonymous_namespace</text>
<text xml:space="preserve" text-anchor="middle" x="186" y="-4.8" font-family="Consolas" font-size="11.00">{npiImpLog::cpp}::openAppendFile</text>
</a>
</g>
</g>
<!-- Node1&#45;&gt;Node3 -->
<g id="edge2_Node000001_Node000003" class="edge">
<title>Node1&#45;&gt;Node3</title>
<g id="a_edge2_Node000001_Node000003"><a xlink:title=" ">
<path fill="none" stroke="#63b8ff" d="M45.71,-38.61C57.26,-36.67 72.35,-34.14 88.32,-31.46"/>
<polygon fill="#63b8ff" stroke="#63b8ff" points="93.04,-30.67 88.48,-33.72 91.78,-30.88 88.11,-31.5 88.11,-31.5 88.11,-31.5 91.78,-30.88 87.74,-29.28 93.04,-30.67"/>
</a>
</g>
</g>
</g>
</svg>
