<?xml version="1.0" encoding="UTF-8" standalone="no"?>
<!DOCTYPE svg PUBLIC "-//W3C//DTD SVG 1.1//EN"
 "http://www.w3.org/Graphics/SVG/1.1/DTD/svg11.dtd">
<!-- Generated by graphviz version 14.0.0 (20250921.2048)
 -->
<!-- Title: anonymous_namespace{Log.cpp}::LogCore::OneLog Pages: 1 -->
<svg width="709pt" height="414pt"
 viewBox="0.00 0.00 709.00 414.00" xmlns="http://www.w3.org/2000/svg" xmlns:xlink="http://www.w3.org/1999/xlink">
<g id="graph0" class="graph" transform="scale(1 1) rotate(0) translate(4 410.25)">
<title>anonymous_namespace{Log.cpp}::LogCore::OneLog</title>
<!-- Node1 -->
<g id="Node000001" class="node">
<title>Node1</title>
<g id="a_Node000001"><a xlink:title=" ">
<polygon fill="#999999" stroke="none" points="701.25,-266.25 415.25,-266.25 415.25,-247 701.25,-247 701.25,-266.25"/>
<text xml:space="preserve" text-anchor="start" x="423.25" y="-252.8" font-family="Consolas" font-weight="bold" font-size="11.00">anonymous_namespace{Log.cpp}::LogCore::OneLog</text>
</a>
</g>
</g>
<!-- Node2 -->
<g id="Node000002" class="node">
<title>Node2</title>
<g id="a_Node000002"><a xlink:title=" ">
<polygon fill="white" stroke="none" points="266,-406.25 208,-406.25 208,-387 266,-387 266,-406.25"/>
<text xml:space="preserve" text-anchor="middle" x="237" y="-391.8" font-family="Consolas" font-size="11.00">quint32</text>
</a>
</g>
</g>
<!-- Node2&#45;&gt;Node1 -->
<g id="edge1_Node000001_Node000002" class="edge">
<title>Node2&#45;&gt;Node1</title>
<g id="a_edge1_Node000001_Node000002"><a xlink:title=" ">
<path fill="none" stroke="#9a32cd" stroke-dasharray="5,2" d="M271.66,-393.45C304.68,-389.47 355.94,-380.94 397.25,-363.62 458.89,-337.79 521.87,-287.01 546.48,-266.04"/>
<polygon fill="#9a32cd" stroke="#9a32cd" points="266.93,-394 271.63,-391.19 268.2,-393.85 271.89,-393.42 271.89,-393.42 271.89,-393.42 268.2,-393.85 272.15,-395.66 266.93,-394"/>
</a>
</g>
<text xml:space="preserve" text-anchor="start" x="341.75" y="-388.89" font-family="Consolas" font-size="10.00" fill="grey">thread_</text>
</g>
<!-- Node3 -->
<g id="Node000003" class="node">
<title>Node3</title>
<g id="a_Node000003"><a xlink:title=" ">
<polygon fill="white" stroke="none" points="260,-366.25 214,-366.25 214,-347 260,-347 260,-366.25"/>
<text xml:space="preserve" text-anchor="middle" x="237" y="-351.8" font-family="Consolas" font-size="11.00">DWORD</text>
</a>
</g>
</g>
<!-- Node3&#45;&gt;Node1 -->
<g id="edge2_Node000001_Node000003" class="edge">
<title>Node3&#45;&gt;Node1</title>
<g id="a_edge2_Node000001_Node000003"><a xlink:title=" ">
<path fill="none" stroke="#9a32cd" stroke-dasharray="5,2" d="M266.12,-352.75C298.28,-347.91 352.29,-338.54 397.25,-324.62 450.02,-308.3 509.1,-280.57 538.51,-266.08"/>
<polygon fill="#9a32cd" stroke="#9a32cd" points="261.19,-353.48 265.81,-350.52 262.46,-353.29 266.14,-352.75 266.14,-352.75 266.14,-352.75 262.46,-353.29 266.47,-354.97 261.19,-353.48"/>
</a>
</g>
<text xml:space="preserve" text-anchor="start" x="336.5" y="-346.69" font-family="Consolas" font-size="10.00" fill="grey">threadId_</text>
</g>
<!-- Node4 -->
<g id="Node000004" class="node">
<title>Node4</title>
<g id="a_Node000004"><a xlink:title=" ">
<polygon fill="white" stroke="none" points="254,-326.25 220,-326.25 220,-307 254,-307 254,-326.25"/>
<text xml:space="preserve" text-anchor="middle" x="237" y="-311.8" font-family="Consolas" font-size="11.00">int</text>
</a>
</g>
</g>
<!-- Node4&#45;&gt;Node1 -->
<g id="edge3_Node000001_Node000004" class="edge">
<title>Node4&#45;&gt;Node1</title>
<g id="a_edge3_Node000001_Node000004"><a xlink:title=" ">
<path fill="none" stroke="#9a32cd" stroke-dasharray="5,2" d="M260.03,-313.59C290.82,-309.25 348.46,-300.78 397.25,-291.62 438.05,-283.97 484.36,-273.66 516.61,-266.22"/>
<polygon fill="#9a32cd" stroke="#9a32cd" points="255.08,-314.28 259.72,-311.36 256.35,-314.11 260.03,-313.59 260.03,-313.59 260.03,-313.59 256.35,-314.11 260.35,-315.82 255.08,-314.28"/>
</a>
</g>
<text xml:space="preserve" text-anchor="start" x="336.5" y="-308.2" font-family="Consolas" font-size="10.00" fill="grey">fileLine_</text>
</g>
<!-- Node5 -->
<g id="Node000005" class="node">
<title>Node5</title>
<g id="a_Node000005"><a xlink:title=" ">
<polygon fill="white" stroke="none" points="272,-286.25 202,-286.25 202,-267 272,-267 272,-286.25"/>
<text xml:space="preserve" text-anchor="middle" x="237" y="-271.8" font-family="Consolas" font-size="11.00">QtMsgType</text>
</a>
</g>
</g>
<!-- Node5&#45;&gt;Node1 -->
<g id="edge4_Node000001_Node000005" class="edge">
<title>Node5&#45;&gt;Node1</title>
<g id="a_edge4_Node000001_Node000005"><a xlink:title=" ">
<path fill="none" stroke="#9a32cd" stroke-dasharray="5,2" d="M277.71,-274.14C312.47,-271.96 365.12,-268.66 415.4,-265.51"/>
<polygon fill="#9a32cd" stroke="#9a32cd" points="273.08,-274.43 277.93,-271.87 274.36,-274.35 278.07,-274.11 278.07,-274.11 278.07,-274.11 274.36,-274.35 278.21,-276.36 273.08,-274.43"/>
</a>
</g>
<text xml:space="preserve" text-anchor="start" x="344.38" y="-275.26" font-family="Consolas" font-size="10.00" fill="grey">level_</text>
</g>
<!-- Node6 -->
<g id="Node000006" class="node">
<title>Node6</title>
<g id="a_Node000006"><a xlink:title=" ">
<polygon fill="white" stroke="none" points="275,-246.25 199,-246.25 199,-227 275,-227 275,-246.25"/>
<text xml:space="preserve" text-anchor="middle" x="237" y="-231.8" font-family="Consolas" font-size="11.00">time_point</text>
</a>
</g>
</g>
<!-- Node6&#45;&gt;Node1 -->
<g id="edge5_Node000001_Node000006" class="edge">
<title>Node6&#45;&gt;Node1</title>
<g id="a_edge5_Node000001_Node000006"><a xlink:title=" ">
<path fill="none" stroke="#9a32cd" stroke-dasharray="5,2" d="M280.8,-239.31C315.57,-241.48 366.68,-244.69 415.53,-247.75"/>
<polygon fill="#9a32cd" stroke="#9a32cd" points="276.15,-239.01 281.28,-237.08 277.43,-239.1 281.14,-239.33 281.14,-239.33 281.14,-239.33 277.43,-239.1 281,-241.57 276.15,-239.01"/>
</a>
</g>
<text xml:space="preserve" text-anchor="start" x="336.5" y="-250.03" font-family="Consolas" font-size="10.00" fill="grey">dateTime_</text>
</g>
<!-- Node7 -->
<g id="Node000007" class="node">
<title>Node7</title>
<g id="a_Node000007"><a xlink:title=" ">
<polygon fill="white" stroke="none" points="263,-177.25 211,-177.25 211,-158 263,-158 263,-177.25"/>
<text xml:space="preserve" text-anchor="middle" x="237" y="-162.8" font-family="Consolas" font-size="11.00">qint64</text>
</a>
</g>
</g>
<!-- Node7&#45;&gt;Node1 -->
<g id="edge6_Node000001_Node000007" class="edge">
<title>Node7&#45;&gt;Node1</title>
<g id="a_edge6_Node000001_Node000007"><a xlink:title=" ">
<path fill="none" stroke="#9a32cd" stroke-dasharray="5,2" d="M268.73,-170.23C301.13,-173.47 353.44,-180.1 397.25,-192.12 449.81,-206.56 508.51,-233.07 538.05,-247.19"/>
<polygon fill="#9a32cd" stroke="#9a32cd" points="264.14,-169.79 269.33,-168.03 265.41,-169.91 269.11,-170.27 269.11,-170.27 269.11,-170.27 265.41,-169.91 268.89,-172.51 264.14,-169.79"/>
</a>
</g>
<text xml:space="preserve" text-anchor="start" x="328.62" y="-225.12" font-family="Consolas" font-size="10.00" fill="grey">threadDelta_</text>
<text xml:space="preserve" text-anchor="start" x="328.62" y="-210.62" font-family="Consolas" font-size="10.00" fill="grey">threadTime_</text>
<text xml:space="preserve" text-anchor="start" x="328.62" y="-196.12" font-family="Consolas" font-size="10.00" fill="grey">upTime_</text>
</g>
<!-- Node8 -->
<g id="Node000008" class="node">
<title>Node8</title>
<g id="a_Node000008"><a xlink:title=" ">
<polygon fill="white" stroke="none" points="266,-137.25 208,-137.25 208,-118 266,-118 266,-137.25"/>
<text xml:space="preserve" text-anchor="middle" x="237" y="-122.8" font-family="Consolas" font-size="11.00">QString</text>
</a>
</g>
</g>
<!-- Node8&#45;&gt;Node1 -->
<g id="edge7_Node000001_Node000008" class="edge">
<title>Node8&#45;&gt;Node1</title>
<g id="a_edge7_Node000001_Node000008"><a xlink:title=" ">
<path fill="none" stroke="#9a32cd" stroke-dasharray="5,2" d="M271.84,-130.22C304.77,-133.58 355.79,-141.05 397.25,-157.12 457.64,-180.53 520.33,-227.25 545.63,-247.22"/>
<polygon fill="#9a32cd" stroke="#9a32cd" points="267.11,-129.75 272.31,-128 268.39,-129.88 272.09,-130.24 272.09,-130.24 272.09,-130.24 268.39,-129.88 271.87,-132.48 267.11,-129.75"/>
</a>
</g>
<text xml:space="preserve" text-anchor="start" x="339.12" y="-161.12" font-family="Consolas" font-size="10.00" fill="grey">message_</text>
</g>
<!-- Node9 -->
<g id="Node000009" class="node">
<title>Node9</title>
<g id="a_Node000009"><a xlink:href="../../dc/d58/structanonymous__namespace_02_log_8cpp_03_1_1_log_core_1_1_fixed_strings.html" target="_top" xlink:title=" ">
<polygon fill="white" stroke="none" points="305,-99.5 169,-99.5 169,-57.75 305,-57.75 305,-99.5"/>
<text xml:space="preserve" text-anchor="start" x="177" y="-85.05" font-family="Consolas" font-size="11.00">anonymous_namespace</text>
<text xml:space="preserve" text-anchor="start" x="177" y="-73.8" font-family="Consolas" font-size="11.00">{Log.cpp}::LogCore::</text>
<text xml:space="preserve" text-anchor="middle" x="237" y="-62.55" font-family="Consolas" font-size="11.00">FixedStrings</text>
</a>
</g>
</g>
<!-- Node9&#45;&gt;Node1 -->
<g id="edge8_Node000001_Node000009" class="edge">
<title>Node9&#45;&gt;Node1</title>
<g id="a_edge8_Node000001_Node000009"><a xlink:title=" ">
<path fill="none" stroke="#9a32cd" stroke-dasharray="5,2" d="M310.77,-88.61C338.86,-94.38 370.59,-103.34 397.25,-117.12 465.02,-152.16 527.8,-221.74 549.36,-247.1"/>
<polygon fill="#9a32cd" stroke="#9a32cd" points="306.03,-87.66 311.37,-86.44 307.28,-87.92 310.93,-88.64 310.93,-88.64 310.93,-88.64 307.28,-87.92 310.49,-90.85 306.03,-87.66"/>
</a>
</g>
<text xml:space="preserve" text-anchor="start" x="326" y="-121.12" font-family="Consolas" font-size="10.00" fill="grey">fixedStrings_</text>
</g>
<!-- Node10 -->
<g id="Node000010" class="node">
<title>Node10</title>
<g id="a_Node000010"><a xlink:title=" ">
<polygon fill="white" stroke="none" points="64,-142.25 0,-142.25 0,-123 64,-123 64,-142.25"/>
<text xml:space="preserve" text-anchor="middle" x="32" y="-127.8" font-family="Consolas" font-size="11.00">uint32_t</text>
</a>
</g>
</g>
<!-- Node10&#45;&gt;Node9 -->
<g id="edge9_Node000009_Node000010" class="edge">
<title>Node10&#45;&gt;Node9</title>
<g id="a_edge9_Node000009_Node000010"><a xlink:title=" ">
<path fill="none" stroke="#9a32cd" stroke-dasharray="5,2" d="M70,-127.44C93.45,-123.73 124.28,-118.08 151,-110.62 162.24,-107.49 174.08,-103.49 185.24,-99.39"/>
<polygon fill="#9a32cd" stroke="#9a32cd" points="65.1,-128.2 69.7,-125.21 66.37,-128 70.04,-127.43 70.04,-127.43 70.04,-127.43 66.37,-128 70.39,-129.65 65.1,-128.2"/>
</a>
</g>
<text xml:space="preserve" text-anchor="start" x="85" y="-129.09" font-family="Consolas" font-size="10.00" fill="grey">funcNameLen_</text>
</g>
<!-- Node11 -->
<g id="Node000011" class="node">
<title>Node11</title>
<g id="a_Node000011"><a xlink:title=" ">
<polygon fill="white" stroke="none" points="64,-88.25 0,-88.25 0,-69 64,-69 64,-88.25"/>
<text xml:space="preserve" text-anchor="middle" x="32" y="-73.8" font-family="Consolas" font-size="11.00">uint16_t</text>
</a>
</g>
</g>
<!-- Node11&#45;&gt;Node9 -->
<g id="edge10_Node000009_Node000011" class="edge">
<title>Node11&#45;&gt;Node9</title>
<g id="a_edge10_Node000009_Node000011"><a xlink:title=" ">
<path fill="none" stroke="#9a32cd" stroke-dasharray="5,2" d="M69.91,-78.62C97.53,-78.62 136.09,-78.62 169.1,-78.62"/>
<polygon fill="#9a32cd" stroke="#9a32cd" points="65.05,-78.63 70.05,-76.38 66.33,-78.63 70.05,-78.63 70.05,-78.63 70.05,-78.63 66.33,-78.63 70.05,-80.88 65.05,-78.63"/>
</a>
</g>
<text xml:space="preserve" text-anchor="start" x="85" y="-97.12" font-family="Consolas" font-size="10.00" fill="grey">categoryLen_</text>
<text xml:space="preserve" text-anchor="start" x="85" y="-82.62" font-family="Consolas" font-size="10.00" fill="grey">fileNameLen_</text>
</g>
<!-- Node12 -->
<g id="Node000012" class="node">
<title>Node12</title>
<g id="a_Node000012"><a xlink:title=" ">
<polygon fill="white" stroke="none" points="52,-19.25 12,-19.25 12,0 52,0 52,-19.25"/>
<text xml:space="preserve" text-anchor="middle" x="32" y="-4.8" font-family="Consolas" font-size="11.00">char</text>
</a>
</g>
</g>
<!-- Node12&#45;&gt;Node9 -->
<g id="edge11_Node000009_Node000012" class="edge">
<title>Node12&#45;&gt;Node9</title>
<g id="a_edge11_Node000009_Node000012"><a xlink:title=" ">
<path fill="none" stroke="#9a32cd" stroke-dasharray="5,2" d="M58.12,-11.13C82.47,-13.2 120.15,-18.02 151,-29.12 170.6,-36.18 190.83,-47.75 206.63,-57.94"/>
<polygon fill="#9a32cd" stroke="#9a32cd" points="53.14,-10.73 58.3,-8.89 54.41,-10.84 58.12,-11.13 58.12,-11.13 58.12,-11.13 54.41,-10.84 57.94,-13.37 53.14,-10.73"/>
</a>
</g>
<text xml:space="preserve" text-anchor="start" x="92.88" y="-62.12" font-family="Consolas" font-size="10.00" fill="grey">category_</text>
<text xml:space="preserve" text-anchor="start" x="92.88" y="-47.62" font-family="Consolas" font-size="10.00" fill="grey">fileName_</text>
<text xml:space="preserve" text-anchor="start" x="92.88" y="-33.12" font-family="Consolas" font-size="10.00" fill="grey">funcName_</text>
</g>
</g>
</svg>
