<?xml version="1.0" encoding="UTF-8" standalone="no"?>
<!DOCTYPE svg PUBLIC "-//W3C//DTD SVG 1.1//EN"
 "http://www.w3.org/Graphics/SVG/1.1/DTD/svg11.dtd">
<!-- Generated by graphviz version 14.0.0 (20250921.2048)
 -->
<!-- Title: Link.hpp Pages: 1 -->
<!--zoomable 138 -->

<svg id="main" version="1.1" xmlns="http://www.w3.org/2000/svg" xmlns:xlink="http://www.w3.org/1999/xlink" xml:space="preserve" onload="init(evt)">

<style type="text/css"><![CDATA[
.node, .edge {opacity: 0.7;}
.node.selected, .edge.selected {opacity: 1;}
.edge:hover path { stroke: red; }
.edge:hover polygon { stroke: red; fill: red; }
]]></style>

<defs>
  <circle id="rim" cx="0" cy="0" r="7"/>
  <circle id="rim2" cx="0" cy="0" r="3.5"/>
  <g id="zoomPlus">
    <use xlink:href="#rim" fill="#404040"><set attributeName="fill" to="#808080" begin="zoomplus.mouseover" end="zoomplus.mouseout"/></use>
    <path d="M-4,0h8M0,-4v8" fill="none" stroke="white" stroke-width="1.5" pointer-events="none"/>
  </g>
  <g id="zoomMin">
    <use xlink:href="#rim" fill="#404040"><set attributeName="fill" to="#808080" begin="zoomminus.mouseover" end="zoomminus.mouseout"/></use>
    <path d="M-4,0h8" fill="none" stroke="white" stroke-width="1.5" pointer-events="none"/>
  </g>
  <g id="arrowUp" transform="translate(30 24)">
    <use xlink:href="#rim"/>
    <path pointer-events="none" fill="none" stroke="white" stroke-width="1.5" d="M0,-3.0v7 M-2.5,-0.5L0,-3.0L2.5,-0.5"/>
  </g>
  <g id="arrowRight" transform="rotate(90) translate(36 -43)">
    <use xlink:href="#rim"/>
    <path pointer-events="none" fill="none" stroke="white" stroke-width="1.5" d="M0,-3.0v7 M-2.5,-0.5L0,-3.0L2.5,-0.5"/>
  </g>
  <g id="arrowDown" transform="rotate(180) translate(-30 -48)">
    <use xlink:href="#rim"/>
    <path pointer-events="none" fill="none" stroke="white" stroke-width="1.5" d="M0,-3.0v7 M-2.5,-0.5L0,-3.0L2.5,-0.5"/>
  </g>
  <g id="arrowLeft" transform="rotate(270) translate(-36 17)">
    <use xlink:href="#rim"/>
    <path pointer-events="none" fill="none" stroke="white" stroke-width="1.5" d="M0,-3.0v7 M-2.5,-0.5L0,-3.0L2.5,-0.5"/>
  </g>
  <g id="resetDef">
    <use xlink:href="#rim2" fill="#404040"><set attributeName="fill" to="#808080" begin="reset.mouseover" end="reset.mouseout"/></use>
  </g>
</defs>
<script type="application/ecmascript">
var viewWidth = 568;
var viewHeight = 138;
var sectionId = 'dynsection-0';
</script>
<script type="application/ecmascript" xlink:href="../../svg.min.js"/>
<svg id="graph" class="graph">
<g id="viewport">
<title>Link.hpp</title>
<!-- Node1 -->
<g id="Node000001" class="node">
<title>Node1</title>
<g id="a_Node000001"><a xlink:title="Header&#45;only Link family: Link, LinkHost, LinkWeakHost, LinkFromThis.">
<polygon fill="#999999" stroke="none" points="261.73,-129.75 197.73,-129.75 197.73,-110.5 261.73,-110.5 261.73,-129.75"/>
<text xml:space="preserve" text-anchor="start" x="205.73" y="-116.3" font-family="Consolas" font-weight="bold" font-size="11.00">Link.hpp</text>
</a>
</g>
</g>
<!-- Node2 -->
<g id="Node000002" class="node">
<title>Node2</title>
<g id="a_Node000002"><a xlink:title=" ">
<polygon fill="#e0e0e0" stroke="none" points="195.73,-19.25 143.73,-19.25 143.73,0 195.73,0 195.73,-19.25"/>
<text xml:space="preserve" text-anchor="middle" x="169.73" y="-4.8" font-family="Consolas" font-size="11.00">memory</text>
</a>
</g>
</g>
<!-- Node1&#45;&gt;Node2 -->
<g id="edge1_Node000001_Node000002" class="edge">
<title>Node1&#45;&gt;Node2</title>
<g id="a_edge1_Node000001_Node000002"><a xlink:title=" ">
<path fill="none" stroke="#63b8ff" d="M197.79,-117.52C142.22,-113.98 31.39,-103.39 7.73,-74.5 -29.14,-29.48 81.02,-16.05 137.96,-12.16"/>
<polygon fill="#63b8ff" stroke="#63b8ff" points="142.74,-11.85 137.9,-14.41 141.46,-11.93 137.75,-12.17 137.75,-12.17 137.75,-12.17 141.46,-11.93 137.61,-9.92 142.74,-11.85"/>
</a>
</g>
</g>
<!-- Node3 -->
<g id="Node000003" class="node">
<title>Node3</title>
<g id="a_Node000003"><a xlink:title=" ">
<polygon fill="#e0e0e0" stroke="none" points="68.73,-74.5 16.73,-74.5 16.73,-55.25 68.73,-55.25 68.73,-74.5"/>
<text xml:space="preserve" text-anchor="middle" x="42.73" y="-60.05" font-family="Consolas" font-size="11.00">atomic</text>
</a>
</g>
</g>
<!-- Node1&#45;&gt;Node3 -->
<g id="edge2_Node000001_Node000003" class="edge">
<title>Node1&#45;&gt;Node3</title>
<g id="a_edge2_Node000001_Node000003"><a xlink:title=" ">
<path fill="none" stroke="#63b8ff" d="M199.69,-110.57C165.33,-100.79 109.34,-84.84 74.34,-74.88"/>
<polygon fill="#63b8ff" stroke="#63b8ff" points="69.66,-73.54 75.08,-72.75 70.89,-73.89 74.47,-74.91 74.47,-74.91 74.47,-74.91 70.89,-73.89 73.85,-77.08 69.66,-73.54"/>
</a>
</g>
</g>
<!-- Node4 -->
<g id="Node000004" class="node">
<title>Node4</title>
<g id="a_Node000004"><a xlink:title=" ">
<polygon fill="#e0e0e0" stroke="none" points="144.73,-74.5 86.73,-74.5 86.73,-55.25 144.73,-55.25 144.73,-74.5"/>
<text xml:space="preserve" text-anchor="middle" x="115.73" y="-60.05" font-family="Consolas" font-size="11.00">utility</text>
</a>
</g>
</g>
<!-- Node1&#45;&gt;Node4 -->
<g id="edge3_Node000001_Node000004" class="edge">
<title>Node1&#45;&gt;Node4</title>
<g id="a_edge3_Node000001_Node000004"><a xlink:title=" ">
<path fill="none" stroke="#63b8ff" d="M211.42,-110.57C191.89,-101.45 160.89,-86.97 139.49,-76.97"/>
<polygon fill="#63b8ff" stroke="#63b8ff" points="135.11,-74.92 140.59,-75 136.27,-75.47 139.64,-77.04 139.64,-77.04 139.64,-77.04 136.27,-75.47 138.68,-79.08 135.11,-74.92"/>
</a>
</g>
</g>
<!-- Node5 -->
<g id="Node000005" class="node">
<title>Node5</title>
<g id="a_Node000005"><a xlink:title=" ">
<polygon fill="#e0e0e0" stroke="none" points="220.73,-74.5 162.73,-74.5 162.73,-55.25 220.73,-55.25 220.73,-74.5"/>
<text xml:space="preserve" text-anchor="middle" x="191.73" y="-60.05" font-family="Consolas" font-size="11.00">cassert</text>
</a>
</g>
</g>
<!-- Node1&#45;&gt;Node5 -->
<g id="edge4_Node000001_Node000005" class="edge">
<title>Node1&#45;&gt;Node5</title>
<g id="a_edge4_Node000001_Node000005"><a xlink:title=" ">
<path fill="none" stroke="#63b8ff" d="M223.79,-110.8C217.75,-102.34 208.29,-89.08 201.21,-79.15"/>
<polygon fill="#63b8ff" stroke="#63b8ff" points="198.46,-75.3 203.2,-78.07 199.2,-76.35 201.36,-79.37 201.36,-79.37 201.36,-79.37 199.2,-76.35 199.53,-80.68 198.46,-75.3"/>
</a>
</g>
</g>
<!-- Node6 -->
<g id="Node000006" class="node">
<title>Node6</title>
<g id="a_Node000006"><a xlink:title=" ">
<polygon fill="#e0e0e0" stroke="none" points="296.73,-74.5 238.73,-74.5 238.73,-55.25 296.73,-55.25 296.73,-74.5"/>
<text xml:space="preserve" text-anchor="middle" x="267.73" y="-60.05" font-family="Consolas" font-size="11.00">cstddef</text>
</a>
</g>
</g>
<!-- Node1&#45;&gt;Node6 -->
<g id="edge5_Node000001_Node000006" class="edge">
<title>Node1&#45;&gt;Node6</title>
<g id="a_edge5_Node000001_Node000006"><a xlink:title=" ">
<path fill="none" stroke="#63b8ff" d="M235.67,-110.8C241.71,-102.34 251.17,-89.08 258.25,-79.15"/>
<polygon fill="#63b8ff" stroke="#63b8ff" points="261,-75.3 259.93,-80.68 260.26,-76.35 258.1,-79.37 258.1,-79.37 258.1,-79.37 260.26,-76.35 256.27,-78.07 261,-75.3"/>
</a>
</g>
</g>
<!-- Node7 -->
<g id="Node000007" class="node">
<title>Node7</title>
<g id="a_Node000007"><a xlink:title=" ">
<polygon fill="#e0e0e0" stroke="none" points="384.73,-74.5 314.73,-74.5 314.73,-55.25 384.73,-55.25 384.73,-74.5"/>
<text xml:space="preserve" text-anchor="middle" x="349.73" y="-60.05" font-family="Consolas" font-size="11.00">stdexcept</text>
</a>
</g>
</g>
<!-- Node1&#45;&gt;Node7 -->
<g id="edge6_Node000001_Node000007" class="edge">
<title>Node1&#45;&gt;Node7</title>
<g id="a_edge6_Node000001_Node000007"><a xlink:title=" ">
<path fill="none" stroke="#63b8ff" d="M249.01,-110.57C269.65,-101.41 302.48,-86.84 325.01,-76.85"/>
<polygon fill="#63b8ff" stroke="#63b8ff" points="329.39,-74.9 325.73,-78.99 328.21,-75.42 324.81,-76.93 324.81,-76.93 324.81,-76.93 328.21,-75.42 323.9,-74.87 329.39,-74.9"/>
</a>
</g>
</g>
<!-- Node8 -->
<g id="Node000008" class="node">
<title>Node8</title>
<g id="a_Node000008"><a xlink:title=" ">
<polygon fill="#e0e0e0" stroke="none" points="559.73,-19.25 477.73,-19.25 477.73,0 559.73,0 559.73,-19.25"/>
<text xml:space="preserve" text-anchor="middle" x="518.73" y="-4.8" font-family="Consolas" font-size="11.00">type_traits</text>
</a>
</g>
</g>
<!-- Node1&#45;&gt;Node8 -->
<g id="edge7_Node000001_Node000008" class="edge">
<title>Node1&#45;&gt;Node8</title>
<g id="a_edge7_Node000001_Node000008"><a xlink:title=" ">
<path fill="none" stroke="#63b8ff" d="M261.52,-118C325.09,-115.09 464.81,-105.3 499.73,-74.5 513.73,-62.16 517.63,-40.01 518.6,-25.31"/>
<polygon fill="#63b8ff" stroke="#63b8ff" points="518.81,-20.37 520.85,-25.46 518.76,-21.65 518.6,-25.36 518.6,-25.36 518.6,-25.36 518.76,-21.65 516.35,-25.26 518.81,-20.37"/>
</a>
</g>
</g>
<!-- Node9 -->
<g id="Node000009" class="node">
<title>Node9</title>
<g id="a_Node000009"><a xlink:href="../../d9/db9/_concepts_8hpp.html" target="_top" xlink:title="Header file for custom concepts.">
<polygon fill="white" stroke="none" points="490.73,-74.5 402.73,-74.5 402.73,-55.25 490.73,-55.25 490.73,-74.5"/>
<text xml:space="preserve" text-anchor="middle" x="446.73" y="-60.05" font-family="Consolas" font-size="11.00">Concepts.hpp</text>
</a>
</g>
</g>
<!-- Node1&#45;&gt;Node9 -->
<g id="edge8_Node000001_Node000009" class="edge">
<title>Node1&#45;&gt;Node9</title>
<g id="a_edge8_Node000001_Node000009"><a xlink:title=" ">
<path fill="none" stroke="#63b8ff" d="M261.28,-111.38C299.49,-102.01 363.92,-86.2 405.88,-75.9"/>
<polygon fill="#63b8ff" stroke="#63b8ff" points="410.72,-74.71 406.4,-78.09 409.48,-75.02 405.87,-75.9 405.87,-75.9 405.87,-75.9 409.48,-75.02 405.33,-73.72 410.72,-74.71"/>
</a>
</g>
</g>
<!-- Node9&#45;&gt;Node2 -->
<g id="edge11_Node000009_Node000002" class="edge">
<title>Node9&#45;&gt;Node2</title>
<g id="a_edge11_Node000009_Node000002"><a xlink:title=" ">
<path fill="none" stroke="#63b8ff" d="M402.84,-55.44C346.81,-44.67 251.21,-26.29 201.64,-16.76"/>
<polygon fill="#63b8ff" stroke="#63b8ff" points="196.74,-15.82 202.07,-14.55 198,-16.06 201.65,-16.76 201.65,-16.76 201.65,-16.76 198,-16.06 201.22,-18.97 196.74,-15.82"/>
</a>
</g>
</g>
<!-- Node9&#45;&gt;Node8 -->
<g id="edge9_Node000009_Node000008" class="edge">
<title>Node9&#45;&gt;Node8</title>
<g id="a_edge9_Node000009_Node000008"><a xlink:title=" ">
<path fill="none" stroke="#63b8ff" d="M458.3,-55.32C470.34,-46.42 489.27,-32.41 502.74,-22.45"/>
<polygon fill="#63b8ff" stroke="#63b8ff" points="506.45,-19.71 503.77,-24.49 505.42,-20.47 502.43,-22.68 502.43,-22.68 502.43,-22.68 505.42,-20.47 501.09,-20.87 506.45,-19.71"/>
</a>
</g>
</g>
<!-- Node10 -->
<g id="Node000010" class="node">
<title>Node10</title>
<g id="a_Node000010"><a xlink:title=" ">
<polygon fill="#e0e0e0" stroke="none" points="459.73,-19.25 395.73,-19.25 395.73,0 459.73,0 459.73,-19.25"/>
<text xml:space="preserve" text-anchor="middle" x="427.73" y="-4.8" font-family="Consolas" font-size="11.00">concepts</text>
</a>
</g>
</g>
<!-- Node9&#45;&gt;Node10 -->
<g id="edge10_Node000009_Node000010" class="edge">
<title>Node9&#45;&gt;Node10</title>
<g id="a_edge10_Node000009_Node000010"><a xlink:title=" ">
<path fill="none" stroke="#63b8ff" d="M443.76,-55.55C440.82,-47.32 436.27,-34.55 432.76,-24.73"/>
<polygon fill="#63b8ff" stroke="#63b8ff" points="431.15,-20.21 434.95,-24.16 431.58,-21.42 432.83,-24.92 432.83,-24.92 432.83,-24.92 431.58,-21.42 430.71,-25.68 431.15,-20.21"/>
</a>
</g>
</g>
</g>
</svg>

<g id="navigator" transform="translate(0 0)" fill="#404254">
  <rect fill="#f2f5e9" fill-opacity="0.5" stroke="#606060" stroke-width=".5" x="0" y="0" width="60" height="60"/>
  <use id="zoomplus" xlink:href="#zoomPlus" x="17" y="9" onmousedown="handleZoom(evt,'in')"/>
  <use id="zoomminus" xlink:href="#zoomMin" x="42" y="9" onmousedown="handleZoom(evt,'out')"/>
  <use id="reset" xlink:href="#resetDef" x="30" y="36" onmousedown="handleReset()"/>
   <use id="arrowup" xlink:href="#arrowUp" x="0" y="0" onmousedown="handlePan(0,-1)"/>
  <use id="arrowright" xlink:href="#arrowRight" x="0" y="0" onmousedown="handlePan(1,0)"/>
  <use id="arrowdown" xlink:href="#arrowDown" x="0" y="0" onmousedown="handlePan(0,1)"/>
  <use id="arrowleft" xlink:href="#arrowLeft" x="0" y="0" onmousedown="handlePan(-1,0)"/>
</g>
<svg viewBox="0 0 15 15" width="100%" height="30px" preserveAspectRatio="xMaxYMin meet">
 <g id="arrow_out" transform="scale(0.3 0.3)">
  <a xlink:href="_link_8hpp__incl_org.svg" target="_base">
   <rect id="button" ry="5" rx="5" y="6" x="6" height="38" width="38"
        fill="#f2f5e9" fill-opacity="0.5" stroke="#606060" stroke-width="1.0"/>
   <path id="arrow"
     d="M 11.500037,31.436501 C 11.940474,20.09759 22.043105,11.32322 32.158766,21.979434 L 37.068811,17.246167 C 37.068811,17.246167 37.088388,32 37.088388,32 L 22.160133,31.978069 C 22.160133,31.978069 26.997745,27.140456 26.997745,27.140456 C 18.528582,18.264221 13.291696,25.230495 11.500037,31.436501 z"
     style="fill:#404040;"/>
  </a>
 </g>
</svg>

<style type='text/css'>
<![CDATA[
[data-mouse-over-selected='false'] { opacity: 0.7; }
[data-mouse-over-selected='true']  { opacity: 1.0; }
]]>
</style>
<script type="application/ecmascript"><![CDATA[
document.addEventListener('DOMContentLoaded', (event) => {
  highlightEdges();
  highlightAdjacentNodes();
});
]]></script>
</svg>
