<?xml version="1.0" encoding="UTF-8" standalone="no"?>
<!DOCTYPE svg PUBLIC "-//W3C//DTD SVG 1.1//EN"
 "http://www.w3.org/Graphics/SVG/1.1/DTD/svg11.dtd">
<!-- Generated by graphviz version 14.0.0 (20250921.2048)
 -->
<!-- Title: Link.hpp Pages: 1 -->
<svg width="414pt" height="136pt"
 viewBox="0.00 0.00 414.00 136.00" xmlns="http://www.w3.org/2000/svg" xmlns:xlink="http://www.w3.org/1999/xlink">

<svg id="main" version="1.1" xmlns="http://www.w3.org/2000/svg" xmlns:xlink="http://www.w3.org/1999/xlink" xml:space="preserve">

<style type="text/css"><![CDATA[
.node, .edge {opacity: 0.7;}
.node.selected, .edge.selected {opacity: 1;}
.edge:hover path { stroke: red; }
.edge:hover polygon { stroke: red; fill: red; }
]]></style>
<script type="application/ecmascript" xlink:href="../../svg.min.js"/>
<svg id="graph" class="graph">
<g id="graph0" class="graph" transform="scale(1 1) rotate(0) translate(4 131.71)">
<title>Link.hpp</title>
<!-- Node1 -->
<g id="Node000001" class="node">
<title>Node1</title>
<g id="a_Node000001"><a xlink:title="Header&#45;only Link family: Link, LinkHost, LinkWeakHost, LinkFromThis.">
<polygon fill="#999999" stroke="#666666" stroke-width="1.2" points="166.18,-127.71 119.29,-127.71 119.29,-109.14 166.18,-109.14 166.18,-127.71"/>
<text xml:space="preserve" text-anchor="middle" x="142.74" y="-116.05" font-family="Segoe UI" font-size="10.00">Link.hpp</text>
</a>
</g>
</g>
<!-- Node2 -->
<g id="Node000002" class="node">
<title>Node2</title>
<g id="a_Node000002"><a xlink:title=" ">
<polygon fill="#e0e0e0" stroke="#999999" stroke-width="1.2" points="155.06,-18.57 110.42,-18.57 110.42,0 155.06,0 155.06,-18.57"/>
<text xml:space="preserve" text-anchor="middle" x="132.74" y="-6.91" font-family="Segoe UI" font-size="10.00" fill="#dddddd">memory</text>
</a>
</g>
</g>
<!-- Node1&#45;&gt;Node2 -->
<g id="edge1_Node000001_Node000002" class="edge">
<title>Node1&#45;&gt;Node2</title>
<g id="a_edge1_Node000001_Node000002"><a xlink:title=" ">
<path fill="none" stroke="#63b8ff" stroke-width="1.2" d="M118.82,-117.59C86.98,-116.35 31.69,-108.81 5.74,-73.14 -20.8,-36.68 55.76,-20.21 101.39,-13.79"/>
<polygon fill="#63b8ff" stroke="#63b8ff" stroke-width="1.2" points="101.65,-16.23 108.27,-12.88 101,-11.37 101.65,-16.23"/>
</a>
</g>
</g>
<!-- Node3 -->
<g id="Node000003" class="node">
<title>Node3</title>
<g id="a_Node000003"><a xlink:title=" ">
<polygon fill="#e0e0e0" stroke="#999999" stroke-width="1.2" points="53.06,-73.14 14.42,-73.14 14.42,-54.57 53.06,-54.57 53.06,-73.14"/>
<text xml:space="preserve" text-anchor="middle" x="33.74" y="-61.48" font-family="Segoe UI" font-size="10.00" fill="#dddddd">atomic</text>
</a>
</g>
</g>
<!-- Node1&#45;&gt;Node3 -->
<g id="edge2_Node000001_Node000003" class="edge">
<title>Node1&#45;&gt;Node3</title>
<g id="a_edge2_Node000001_Node000003"><a xlink:title=" ">
<path fill="none" stroke="#63b8ff" stroke-width="1.2" d="M124.74,-108.74C107.09,-100.23 80,-87.17 59.96,-77.5"/>
<polygon fill="#63b8ff" stroke="#63b8ff" stroke-width="1.2" points="61.13,-75.35 53.76,-74.51 59,-79.76 61.13,-75.35"/>
</a>
</g>
</g>
<!-- Node4 -->
<g id="Node000004" class="node">
<title>Node4</title>
<g id="a_Node000004"><a xlink:title=" ">
<polygon fill="#e0e0e0" stroke="#999999" stroke-width="1.2" points="104.43,-73.14 71.04,-73.14 71.04,-54.57 104.43,-54.57 104.43,-73.14"/>
<text xml:space="preserve" text-anchor="middle" x="87.74" y="-61.48" font-family="Segoe UI" font-size="10.00" fill="#dddddd">utility</text>
</a>
</g>
</g>
<!-- Node1&#45;&gt;Node4 -->
<g id="edge3_Node000001_Node000004" class="edge">
<title>Node1&#45;&gt;Node4</title>
<g id="a_edge3_Node000001_Node000004"><a xlink:title=" ">
<path fill="none" stroke="#63b8ff" stroke-width="1.2" d="M133.65,-108.74C125.42,-100.88 113.12,-89.12 103.32,-79.75"/>
<polygon fill="#63b8ff" stroke="#63b8ff" stroke-width="1.2" points="105.08,-78.05 98.33,-74.98 101.7,-81.59 105.08,-78.05"/>
</a>
</g>
</g>
<!-- Node5 -->
<g id="Node000005" class="node">
<title>Node5</title>
<g id="a_Node000005"><a xlink:title=" ">
<polygon fill="#e0e0e0" stroke="#999999" stroke-width="1.2" points="162.81,-73.14 122.67,-73.14 122.67,-54.57 162.81,-54.57 162.81,-73.14"/>
<text xml:space="preserve" text-anchor="middle" x="142.74" y="-61.48" font-family="Segoe UI" font-size="10.00" fill="#dddddd">cassert</text>
</a>
</g>
</g>
<!-- Node1&#45;&gt;Node5 -->
<g id="edge4_Node000001_Node000005" class="edge">
<title>Node1&#45;&gt;Node5</title>
<g id="a_edge4_Node000001_Node000005"><a xlink:title=" ">
<path fill="none" stroke="#63b8ff" stroke-width="1.2" d="M142.74,-108.74C142.74,-101.63 142.74,-91.34 142.74,-82.51"/>
<polygon fill="#63b8ff" stroke="#63b8ff" stroke-width="1.2" points="145.19,-82.54 142.74,-75.54 140.29,-82.54 145.19,-82.54"/>
</a>
</g>
</g>
<!-- Node6 -->
<g id="Node000006" class="node">
<title>Node6</title>
<g id="a_Node000006"><a xlink:title=" ">
<polygon fill="#e0e0e0" stroke="#999999" stroke-width="1.2" points="222.56,-73.14 180.92,-73.14 180.92,-54.57 222.56,-54.57 222.56,-73.14"/>
<text xml:space="preserve" text-anchor="middle" x="201.74" y="-61.48" font-family="Segoe UI" font-size="10.00" fill="#dddddd">cstddef</text>
</a>
</g>
</g>
<!-- Node1&#45;&gt;Node6 -->
<g id="edge5_Node000001_Node000006" class="edge">
<title>Node1&#45;&gt;Node6</title>
<g id="a_edge5_Node000001_Node000006"><a xlink:title=" ">
<path fill="none" stroke="#63b8ff" stroke-width="1.2" d="M152.48,-108.74C161.39,-100.8 174.76,-88.89 185.32,-79.48"/>
<polygon fill="#63b8ff" stroke="#63b8ff" stroke-width="1.2" points="186.83,-81.42 190.42,-74.93 183.57,-77.76 186.83,-81.42"/>
</a>
</g>
</g>
<!-- Node7 -->
<g id="Node000007" class="node">
<title>Node7</title>
<g id="a_Node000007"><a xlink:title=" ">
<polygon fill="#e0e0e0" stroke="#999999" stroke-width="1.2" points="292.81,-73.14 240.67,-73.14 240.67,-54.57 292.81,-54.57 292.81,-73.14"/>
<text xml:space="preserve" text-anchor="middle" x="266.74" y="-61.48" font-family="Segoe UI" font-size="10.00" fill="#dddddd">stdexcept</text>
</a>
</g>
</g>
<!-- Node1&#45;&gt;Node7 -->
<g id="edge6_Node000001_Node000007" class="edge">
<title>Node1&#45;&gt;Node7</title>
<g id="a_edge6_Node000001_Node000007"><a xlink:title=" ">
<path fill="none" stroke="#63b8ff" stroke-width="1.2" d="M163.49,-108.63C183.88,-99.98 215.15,-86.72 237.94,-77.06"/>
<polygon fill="#63b8ff" stroke="#63b8ff" stroke-width="1.2" points="238.75,-79.38 244.24,-74.39 236.84,-74.87 238.75,-79.38"/>
</a>
</g>
</g>
<!-- Node8 -->
<g id="Node000008" class="node">
<title>Node8</title>
<g id="a_Node000008"><a xlink:href="../../d9/db9/_concepts_8hpp.html" target="_top" xlink:title="Header file for custom concepts.">
<polygon fill="white" stroke="#666666" stroke-width="1.2" points="382.18,-73.14 311.29,-73.14 311.29,-54.57 382.18,-54.57 382.18,-73.14"/>
<text xml:space="preserve" text-anchor="middle" x="346.74" y="-61.48" font-family="Segoe UI" font-size="10.00" fill="#dddddd">Concepts.hpp</text>
</a>
</g>
</g>
<!-- Node1&#45;&gt;Node8 -->
<g id="edge7_Node000001_Node000008" class="edge">
<title>Node1&#45;&gt;Node8</title>
<g id="a_edge7_Node000001_Node000008"><a xlink:title=" ">
<path fill="none" stroke="#63b8ff" stroke-width="1.2" d="M166.54,-111.29C200.26,-102.6 262.5,-86.56 304.26,-75.8"/>
<polygon fill="#63b8ff" stroke="#63b8ff" stroke-width="1.2" points="304.65,-78.23 310.82,-74.11 303.43,-73.48 304.65,-78.23"/>
</a>
</g>
</g>
<!-- Node8&#45;&gt;Node2 -->
<g id="edge10_Node000008_Node000002" class="edge">
<title>Node8&#45;&gt;Node2</title>
<g id="a_edge10_Node000008_Node000002"><a xlink:title=" ">
<path fill="none" stroke="#63b8ff" stroke-width="1.2" d="M310.92,-54.06C269.77,-43.95 202.91,-27.52 163.85,-17.93"/>
<polygon fill="#63b8ff" stroke="#63b8ff" stroke-width="1.2" points="164.63,-15.6 157.25,-16.31 163.47,-20.36 164.63,-15.6"/>
</a>
</g>
</g>
<!-- Node9 -->
<g id="Node000009" class="node">
<title>Node9</title>
<g id="a_Node000009"><a xlink:title=" ">
<polygon fill="#e0e0e0" stroke="#999999" stroke-width="1.2" points="338.68,-18.57 282.79,-18.57 282.79,0 338.68,0 338.68,-18.57"/>
<text xml:space="preserve" text-anchor="middle" x="310.74" y="-6.91" font-family="Segoe UI" font-size="10.00" fill="#dddddd">type_traits</text>
</a>
</g>
</g>
<!-- Node8&#45;&gt;Node9 -->
<g id="edge8_Node000008_Node000009" class="edge">
<title>Node8&#45;&gt;Node9</title>
<g id="a_edge8_Node000008_Node000009"><a xlink:title=" ">
<path fill="none" stroke="#63b8ff" stroke-width="1.2" d="M340.79,-54.17C335.61,-46.61 327.97,-35.45 321.68,-26.27"/>
<polygon fill="#63b8ff" stroke="#63b8ff" stroke-width="1.2" points="323.81,-25.04 317.84,-20.65 319.77,-27.81 323.81,-25.04"/>
</a>
</g>
</g>
<!-- Node10 -->
<g id="Node000010" class="node">
<title>Node10</title>
<g id="a_Node000010"><a xlink:title=" ">
<polygon fill="#e0e0e0" stroke="#999999" stroke-width="1.2" points="406.31,-18.57 357.17,-18.57 357.17,0 406.31,0 406.31,-18.57"/>
<text xml:space="preserve" text-anchor="middle" x="381.74" y="-6.91" font-family="Segoe UI" font-size="10.00" fill="#dddddd">concepts</text>
</a>
</g>
</g>
<!-- Node8&#45;&gt;Node10 -->
<g id="edge9_Node000008_Node000010" class="edge">
<title>Node8&#45;&gt;Node10</title>
<g id="a_edge9_Node000008_Node000010"><a xlink:title=" ">
<path fill="none" stroke="#63b8ff" stroke-width="1.2" d="M352.51,-54.17C357.55,-46.61 364.98,-35.45 371.09,-26.27"/>
<polygon fill="#63b8ff" stroke="#63b8ff" stroke-width="1.2" points="372.98,-27.85 374.82,-20.67 368.9,-25.14 372.98,-27.85"/>
</a>
</g>
</g>
</g>
</svg>
</svg>

<style type='text/css'>
<![CDATA[
[data-mouse-over-selected='false'] { opacity: 0.7; }
[data-mouse-over-selected='true']  { opacity: 1.0; }
]]>
</style>
<script type="application/ecmascript"><![CDATA[
document.addEventListener('DOMContentLoaded', (event) => {
  highlightEdges();
  highlightAdjacentNodes();
});
]]></script>
</svg>
