<?xml version="1.0" encoding="UTF-8" standalone="no"?>
<!DOCTYPE svg PUBLIC "-//W3C//DTD SVG 1.1//EN"
 "http://www.w3.org/Graphics/SVG/1.1/DTD/svg11.dtd">
<!-- Generated by graphviz version 14.0.0 (20250921.2048)
 -->
<!-- Title: Link.hpp Pages: 1 -->
<!--zoomable 138 -->

<svg id="main" version="1.1" xmlns="http://www.w3.org/2000/svg" xmlns:xlink="http://www.w3.org/1999/xlink" xml:space="preserve" onload="init(evt)">

<style type="text/css"><![CDATA[
.node, .edge {opacity: 0.7;}
.node.selected, .edge.selected {opacity: 1;}
.edge:hover path { stroke: red; }
.edge:hover polygon { stroke: red; fill: red; }
]]></style>

<defs>
  <circle id="rim" cx="0" cy="0" r="7"/>
  <circle id="rim2" cx="0" cy="0" r="3.5"/>
  <g id="zoomPlus">
    <use xlink:href="#rim" fill="#404040"><set attributeName="fill" to="#808080" begin="zoomplus.mouseover" end="zoomplus.mouseout"/></use>
    <path d="M-4,0h8M0,-4v8" fill="none" stroke="white" stroke-width="1.5" pointer-events="none"/>
  </g>
  <g id="zoomMin">
    <use xlink:href="#rim" fill="#404040"><set attributeName="fill" to="#808080" begin="zoomminus.mouseover" end="zoomminus.mouseout"/></use>
    <path d="M-4,0h8" fill="none" stroke="white" stroke-width="1.5" pointer-events="none"/>
  </g>
  <g id="arrowUp" transform="translate(30 24)">
    <use xlink:href="#rim"/>
    <path pointer-events="none" fill="none" stroke="white" stroke-width="1.5" d="M0,-3.0v7 M-2.5,-0.5L0,-3.0L2.5,-0.5"/>
  </g>
  <g id="arrowRight" transform="rotate(90) translate(36 -43)">
    <use xlink:href="#rim"/>
    <path pointer-events="none" fill="none" stroke="white" stroke-width="1.5" d="M0,-3.0v7 M-2.5,-0.5L0,-3.0L2.5,-0.5"/>
  </g>
  <g id="arrowDown" transform="rotate(180) translate(-30 -48)">
    <use xlink:href="#rim"/>
    <path pointer-events="none" fill="none" stroke="white" stroke-width="1.5" d="M0,-3.0v7 M-2.5,-0.5L0,-3.0L2.5,-0.5"/>
  </g>
  <g id="arrowLeft" transform="rotate(270) translate(-36 17)">
    <use xlink:href="#rim"/>
    <path pointer-events="none" fill="none" stroke="white" stroke-width="1.5" d="M0,-3.0v7 M-2.5,-0.5L0,-3.0L2.5,-0.5"/>
  </g>
  <g id="resetDef">
    <use xlink:href="#rim2" fill="#404040"><set attributeName="fill" to="#808080" begin="reset.mouseover" end="reset.mouseout"/></use>
  </g>
</defs>
<script type="application/ecmascript">
var viewWidth = 531;
var viewHeight = 138;
var sectionId = 'dynsection-0';
</script>
<script type="application/ecmascript" xlink:href="../../svg.min.js"/>
<svg id="graph" class="graph">
<g id="viewport">
<title>Link.hpp</title>
<!-- Node1 -->
<g id="Node000001" class="node">
<title>Node1</title>
<g id="a_Node000001"><a xlink:title="Header&#45;only Link family: Link, LinkHost, LinkWeakHost, LinkFromThis.">
<polygon fill="#999999" stroke="none" points="222.83,-129.75 158.83,-129.75 158.83,-110.5 222.83,-110.5 222.83,-129.75"/>
<text xml:space="preserve" text-anchor="start" x="166.83" y="-116.3" font-family="Consolas" font-weight="bold" font-size="11.00">Link.hpp</text>
</a>
</g>
</g>
<!-- Node2 -->
<g id="Node000002" class="node">
<title>Node2</title>
<g id="a_Node000002"><a xlink:title=" ">
<polygon fill="#e0e0e0" stroke="none" points="176.83,-19.25 124.83,-19.25 124.83,0 176.83,0 176.83,-19.25"/>
<text xml:space="preserve" text-anchor="middle" x="150.83" y="-4.8" font-family="Consolas" font-size="11.00">memory</text>
</a>
</g>
</g>
<!-- Node1&#45;&gt;Node2 -->
<g id="edge1_Node000001_Node000002" class="edge">
<title>Node1&#45;&gt;Node2</title>
<g id="a_edge1_Node000001_Node000002"><a xlink:title=" ">
<path fill="none" stroke="#63b8ff" d="M159.01,-116.08C111.45,-110.79 25.42,-98.14 6.83,-74.5 -24.94,-34.11 67.47,-18.6 118.9,-13.21"/>
<polygon fill="#63b8ff" stroke="#63b8ff" points="123.75,-12.72 119,-15.46 122.47,-12.85 118.77,-13.22 118.77,-13.22 118.77,-13.22 122.47,-12.85 118.55,-10.98 123.75,-12.72"/>
</a>
</g>
</g>
<!-- Node3 -->
<g id="Node000003" class="node">
<title>Node3</title>
<g id="a_Node000003"><a xlink:title=" ">
<polygon fill="#e0e0e0" stroke="none" points="67.83,-74.5 15.83,-74.5 15.83,-55.25 67.83,-55.25 67.83,-74.5"/>
<text xml:space="preserve" text-anchor="middle" x="41.83" y="-60.05" font-family="Consolas" font-size="11.00">atomic</text>
</a>
</g>
</g>
<!-- Node1&#45;&gt;Node3 -->
<g id="edge2_Node000001_Node000003" class="edge">
<title>Node1&#45;&gt;Node3</title>
<g id="a_edge2_Node000001_Node000003"><a xlink:title=" ">
<path fill="none" stroke="#63b8ff" d="M166.89,-110.57C140.93,-101.29 99.46,-86.47 71.47,-76.47"/>
<polygon fill="#63b8ff" stroke="#63b8ff" points="66.85,-74.82 72.32,-74.38 68.06,-75.25 71.56,-76.5 71.56,-76.5 71.56,-76.5 68.06,-75.25 70.8,-78.62 66.85,-74.82"/>
</a>
</g>
</g>
<!-- Node4 -->
<g id="Node000004" class="node">
<title>Node4</title>
<g id="a_Node000004"><a xlink:title=" ">
<polygon fill="#e0e0e0" stroke="none" points="143.83,-74.5 85.83,-74.5 85.83,-55.25 143.83,-55.25 143.83,-74.5"/>
<text xml:space="preserve" text-anchor="middle" x="114.83" y="-60.05" font-family="Consolas" font-size="11.00">utility</text>
</a>
</g>
</g>
<!-- Node1&#45;&gt;Node4 -->
<g id="edge3_Node000001_Node000004" class="edge">
<title>Node1&#45;&gt;Node4</title>
<g id="a_edge3_Node000001_Node000004"><a xlink:title=" ">
<path fill="none" stroke="#63b8ff" d="M178.61,-110.57C165.91,-101.67 145.92,-87.66 131.71,-77.7"/>
<polygon fill="#63b8ff" stroke="#63b8ff" points="127.75,-74.93 133.14,-75.96 128.8,-75.67 131.85,-77.8 131.85,-77.8 131.85,-77.8 128.8,-75.67 130.56,-79.64 127.75,-74.93"/>
</a>
</g>
</g>
<!-- Node5 -->
<g id="Node000005" class="node">
<title>Node5</title>
<g id="a_Node000005"><a xlink:title=" ">
<polygon fill="#e0e0e0" stroke="none" points="219.83,-74.5 161.83,-74.5 161.83,-55.25 219.83,-55.25 219.83,-74.5"/>
<text xml:space="preserve" text-anchor="middle" x="190.83" y="-60.05" font-family="Consolas" font-size="11.00">cassert</text>
</a>
</g>
</g>
<!-- Node1&#45;&gt;Node5 -->
<g id="edge4_Node000001_Node000005" class="edge">
<title>Node1&#45;&gt;Node5</title>
<g id="a_edge4_Node000001_Node000005"><a xlink:title=" ">
<path fill="none" stroke="#63b8ff" d="M190.83,-110.8C190.83,-102.65 190.83,-90.04 190.83,-80.26"/>
<polygon fill="#63b8ff" stroke="#63b8ff" points="190.83,-75.53 193.08,-80.53 190.83,-76.81 190.83,-80.53 190.83,-80.53 190.83,-80.53 190.83,-76.81 188.58,-80.53 190.83,-75.53"/>
</a>
</g>
</g>
<!-- Node6 -->
<g id="Node000006" class="node">
<title>Node6</title>
<g id="a_Node000006"><a xlink:title=" ">
<polygon fill="#e0e0e0" stroke="none" points="295.83,-74.5 237.83,-74.5 237.83,-55.25 295.83,-55.25 295.83,-74.5"/>
<text xml:space="preserve" text-anchor="middle" x="266.83" y="-60.05" font-family="Consolas" font-size="11.00">cstddef</text>
</a>
</g>
</g>
<!-- Node1&#45;&gt;Node6 -->
<g id="edge5_Node000001_Node000006" class="edge">
<title>Node1&#45;&gt;Node6</title>
<g id="a_edge5_Node000001_Node000006"><a xlink:title=" ">
<path fill="none" stroke="#63b8ff" d="M203.04,-110.57C215.74,-101.67 235.73,-87.66 249.94,-77.7"/>
<polygon fill="#63b8ff" stroke="#63b8ff" points="253.9,-74.93 251.09,-79.64 252.85,-75.67 249.8,-77.8 249.8,-77.8 249.8,-77.8 252.85,-75.67 248.51,-75.96 253.9,-74.93"/>
</a>
</g>
</g>
<!-- Node7 -->
<g id="Node000007" class="node">
<title>Node7</title>
<g id="a_Node000007"><a xlink:title=" ">
<polygon fill="#e0e0e0" stroke="none" points="383.83,-74.5 313.83,-74.5 313.83,-55.25 383.83,-55.25 383.83,-74.5"/>
<text xml:space="preserve" text-anchor="middle" x="348.83" y="-60.05" font-family="Consolas" font-size="11.00">stdexcept</text>
</a>
</g>
</g>
<!-- Node1&#45;&gt;Node7 -->
<g id="edge6_Node000001_Node000007" class="edge">
<title>Node1&#45;&gt;Node7</title>
<g id="a_edge6_Node000001_Node000007"><a xlink:title=" ">
<path fill="none" stroke="#63b8ff" d="M216.21,-110.57C243.77,-101.28 287.81,-86.44 317.5,-76.43"/>
<polygon fill="#63b8ff" stroke="#63b8ff" points="322.09,-74.89 318.07,-78.62 320.87,-75.3 317.35,-76.48 317.35,-76.48 317.35,-76.48 320.87,-75.3 316.63,-74.35 322.09,-74.89"/>
</a>
</g>
</g>
<!-- Node8 -->
<g id="Node000008" class="node">
<title>Node8</title>
<g id="a_Node000008"><a xlink:href="../../d9/db9/_concepts_8hpp.html" target="_top" xlink:title="Header file for custom concepts.">
<polygon fill="white" stroke="none" points="489.83,-74.5 401.83,-74.5 401.83,-55.25 489.83,-55.25 489.83,-74.5"/>
<text xml:space="preserve" text-anchor="middle" x="445.83" y="-60.05" font-family="Consolas" font-size="11.00">Concepts.hpp</text>
</a>
</g>
</g>
<!-- Node1&#45;&gt;Node8 -->
<g id="edge7_Node000001_Node000008" class="edge">
<title>Node1&#45;&gt;Node8</title>
<g id="a_edge7_Node000001_Node000008"><a xlink:title=" ">
<path fill="none" stroke="#63b8ff" d="M222.61,-112.49C266.96,-103.23 347.73,-86.36 398.98,-75.66"/>
<polygon fill="#63b8ff" stroke="#63b8ff" points="403.58,-74.7 399.15,-77.92 402.33,-74.96 398.69,-75.72 398.69,-75.72 398.69,-75.72 402.33,-74.96 398.23,-73.52 403.58,-74.7"/>
</a>
</g>
</g>
<!-- Node8&#45;&gt;Node2 -->
<g id="edge10_Node000008_Node000002" class="edge">
<title>Node8&#45;&gt;Node2</title>
<g id="a_edge10_Node000008_Node000002"><a xlink:title=" ">
<path fill="none" stroke="#63b8ff" d="M401.98,-55.96C341.86,-45.11 235.29,-25.87 182.4,-16.33"/>
<polygon fill="#63b8ff" stroke="#63b8ff" points="177.73,-15.48 183.05,-14.16 179,-15.71 182.66,-16.37 182.66,-16.37 182.66,-16.37 179,-15.71 182.26,-18.58 177.73,-15.48"/>
</a>
</g>
</g>
<!-- Node9 -->
<g id="Node000009" class="node">
<title>Node9</title>
<g id="a_Node000009"><a xlink:title=" ">
<polygon fill="#e0e0e0" stroke="none" points="440.83,-19.25 358.83,-19.25 358.83,0 440.83,0 440.83,-19.25"/>
<text xml:space="preserve" text-anchor="middle" x="399.83" y="-4.8" font-family="Consolas" font-size="11.00">type_traits</text>
</a>
</g>
</g>
<!-- Node8&#45;&gt;Node9 -->
<g id="edge8_Node000008_Node000009" class="edge">
<title>Node8&#45;&gt;Node9</title>
<g id="a_edge8_Node000008_Node000009"><a xlink:title=" ">
<path fill="none" stroke="#63b8ff" d="M438.64,-55.55C431.25,-47.01 419.66,-33.58 411.06,-23.63"/>
<polygon fill="#63b8ff" stroke="#63b8ff" points="407.91,-19.98 412.88,-22.3 408.75,-20.95 411.18,-23.77 411.18,-23.77 411.18,-23.77 408.75,-20.95 409.48,-25.24 407.91,-19.98"/>
</a>
</g>
</g>
<!-- Node10 -->
<g id="Node000010" class="node">
<title>Node10</title>
<g id="a_Node000010"><a xlink:title=" ">
<polygon fill="#e0e0e0" stroke="none" points="522.83,-19.25 458.83,-19.25 458.83,0 522.83,0 522.83,-19.25"/>
<text xml:space="preserve" text-anchor="middle" x="490.83" y="-4.8" font-family="Consolas" font-size="11.00">concepts</text>
</a>
</g>
</g>
<!-- Node8&#45;&gt;Node10 -->
<g id="edge9_Node000008_Node000010" class="edge">
<title>Node8&#45;&gt;Node10</title>
<g id="a_edge9_Node000008_Node000010"><a xlink:title=" ">
<path fill="none" stroke="#63b8ff" d="M452.86,-55.55C460.08,-47.01 471.42,-33.58 479.83,-23.63"/>
<polygon fill="#63b8ff" stroke="#63b8ff" points="482.91,-19.99 481.4,-25.26 482.08,-20.97 479.68,-23.81 479.68,-23.81 479.68,-23.81 482.08,-20.97 477.96,-22.36 482.91,-19.99"/>
</a>
</g>
</g>
</g>
</svg>

<g id="navigator" transform="translate(0 0)" fill="#404254">
  <rect fill="#f2f5e9" fill-opacity="0.5" stroke="#606060" stroke-width=".5" x="0" y="0" width="60" height="60"/>
  <use id="zoomplus" xlink:href="#zoomPlus" x="17" y="9" onmousedown="handleZoom(evt,'in')"/>
  <use id="zoomminus" xlink:href="#zoomMin" x="42" y="9" onmousedown="handleZoom(evt,'out')"/>
  <use id="reset" xlink:href="#resetDef" x="30" y="36" onmousedown="handleReset()"/>
   <use id="arrowup" xlink:href="#arrowUp" x="0" y="0" onmousedown="handlePan(0,-1)"/>
  <use id="arrowright" xlink:href="#arrowRight" x="0" y="0" onmousedown="handlePan(1,0)"/>
  <use id="arrowdown" xlink:href="#arrowDown" x="0" y="0" onmousedown="handlePan(0,1)"/>
  <use id="arrowleft" xlink:href="#arrowLeft" x="0" y="0" onmousedown="handlePan(-1,0)"/>
</g>
<svg viewBox="0 0 15 15" width="100%" height="30px" preserveAspectRatio="xMaxYMin meet">
 <g id="arrow_out" transform="scale(0.3 0.3)">
  <a xlink:href="_link_8hpp__incl_org.svg" target="_base">
   <rect id="button" ry="5" rx="5" y="6" x="6" height="38" width="38"
        fill="#f2f5e9" fill-opacity="0.5" stroke="#606060" stroke-width="1.0"/>
   <path id="arrow"
     d="M 11.500037,31.436501 C 11.940474,20.09759 22.043105,11.32322 32.158766,21.979434 L 37.068811,17.246167 C 37.068811,17.246167 37.088388,32 37.088388,32 L 22.160133,31.978069 C 22.160133,31.978069 26.997745,27.140456 26.997745,27.140456 C 18.528582,18.264221 13.291696,25.230495 11.500037,31.436501 z"
     style="fill:#404040;"/>
  </a>
 </g>
</svg>

<style type='text/css'>
<![CDATA[
[data-mouse-over-selected='false'] { opacity: 0.7; }
[data-mouse-over-selected='true']  { opacity: 1.0; }
]]>
</style>
<script type="application/ecmascript"><![CDATA[
document.addEventListener('DOMContentLoaded', (event) => {
  highlightEdges();
  highlightAdjacentNodes();
});
]]></script>
</svg>
