<?xml version="1.0" encoding="UTF-8" standalone="no"?>
<!DOCTYPE svg PUBLIC "-//W3C//DTD SVG 1.1//EN"
 "http://www.w3.org/Graphics/SVG/1.1/DTD/svg11.dtd">
<!-- Generated by graphviz version 14.0.0 (20250921.2048)
 -->
<!-- Title: npi::RefPtrWeakHost&lt; T &gt; Pages: 1 -->
<svg width="250pt" height="136pt"
 viewBox="0.00 0.00 250.00 136.00" xmlns="http://www.w3.org/2000/svg" xmlns:xlink="http://www.w3.org/1999/xlink">
<g id="graph0" class="graph" transform="scale(1 1) rotate(0) translate(4 132)">
<title>npi::RefPtrWeakHost&lt; T &gt;</title>
<!-- Node1 -->
<g id="Node000001" class="node">
<title>Node1</title>
<g id="a_Node000001"><a xlink:title="A non&#45;owning weak host that references a RefPtrHost managed object and its observers including local ...">
<polygon fill="#999999" stroke="none" points="192,-19.25 32,-19.25 32,0 192,0 192,-19.25"/>
<text xml:space="preserve" text-anchor="start" x="40" y="-5.8" font-family="Consolas" font-weight="bold" font-size="11.00">npi::RefPtrWeakHost&lt; T &gt;</text>
</a>
</g>
</g>
<!-- Node2 -->
<g id="Node000002" class="node">
<title>Node2</title>
<g id="a_Node000002"><a xlink:title=" ">
<polygon fill="white" stroke="none" points="94,-116.75 0,-116.75 0,-97.5 94,-97.5 94,-116.75"/>
<text xml:space="preserve" text-anchor="middle" x="47" y="-102.3" font-family="Consolas" font-size="11.00">weak_ptr&lt; T &gt;</text>
</a>
</g>
</g>
<!-- Node2&#45;&gt;Node1 -->
<g id="edge1_Node000001_Node000002" class="edge">
<title>Node2&#45;&gt;Node1</title>
<g id="a_edge1_Node000001_Node000002"><a xlink:title=" ">
<path fill="none" stroke="#9a32cd" stroke-dasharray="5,2" d="M56.11,-92.74C69.67,-72.82 94.79,-35.91 106.15,-19.22"/>
<polygon fill="#9a32cd" stroke="#9a32cd" points="53.45,-96.64 54.41,-91.24 54.17,-95.58 56.27,-92.51 56.27,-92.51 56.27,-92.51 54.17,-95.58 58.13,-93.78 53.45,-96.64"/>
</a>
</g>
<text xml:space="preserve" text-anchor="start" x="95.79" y="-48.5" font-family="Consolas" font-size="10.00" fill="grey">weakObj_</text>
</g>
<!-- Node3 -->
<g id="Node000003" class="node">
<title>Node3</title>
<g id="a_Node000003"><a xlink:title=" ">
<polygon fill="white" stroke="none" points="242,-128 112,-128 112,-86.25 242,-86.25 242,-128"/>
<text xml:space="preserve" text-anchor="start" x="120" y="-113.55" font-family="Consolas" font-size="11.00">weak_ptr&lt; typename</text>
<text xml:space="preserve" text-anchor="start" x="120" y="-102.3" font-family="Consolas" font-size="11.00"> npi::RefPtrHost&lt; T</text>
<text xml:space="preserve" text-anchor="middle" x="177" y="-91.05" font-family="Consolas" font-size="11.00"> &gt;::Obs &gt;</text>
</a>
</g>
</g>
<!-- Node3&#45;&gt;Node1 -->
<g id="edge2_Node000001_Node000003" class="edge">
<title>Node3&#45;&gt;Node1</title>
<g id="a_edge2_Node000001_Node000003"><a xlink:title=" ">
<path fill="none" stroke="#9a32cd" stroke-dasharray="5,2" d="M168.43,-80.72C163.03,-66.99 155.16,-50.25 145,-37.25 139.47,-30.17 131.72,-23.8 125.11,-19.06"/>
<polygon fill="#9a32cd" stroke="#9a32cd" points="170.15,-85.26 166.27,-81.38 169.7,-84.06 168.38,-80.58 168.38,-80.58 168.38,-80.58 169.7,-84.06 170.48,-79.78 170.15,-85.26"/>
</a>
</g>
<text xml:space="preserve" text-anchor="start" x="165.82" y="-55.75" font-family="Consolas" font-size="10.00" fill="grey">weakLoc_</text>
<text xml:space="preserve" text-anchor="start" x="165.82" y="-41.25" font-family="Consolas" font-size="10.00" fill="grey">weakUni_</text>
</g>
</g>
</svg>
