<?xml version="1.0" encoding="UTF-8" standalone="no"?>
<!DOCTYPE svg PUBLIC "-//W3C//DTD SVG 1.1//EN"
 "http://www.w3.org/Graphics/SVG/1.1/DTD/svg11.dtd">
<!-- Generated by graphviz version 14.0.0 (20250921.2048)
 -->
<!-- Title: npi::LinkHost::assign_ Pages: 1 -->
<svg width="560pt" height="176pt"
 viewBox="0.00 0.00 560.00 176.00" xmlns="http://www.w3.org/2000/svg" xmlns:xlink="http://www.w3.org/1999/xlink">
<g id="graph0" class="graph" transform="scale(1 1) rotate(0) translate(4 172.02)">
<title>npi::LinkHost::assign_</title>
<!-- Node1 -->
<g id="Node000001" class="node">
<title>Node1</title>
<g id="a_Node000001"><a xlink:title="Internal helper to assign from another polymorphically related LinkHost object.">
<polygon fill="#999999" stroke="none" points="148,-111.25 0,-111.25 0,-92 148,-92 148,-111.25"/>
<text xml:space="preserve" text-anchor="start" x="8" y="-97.8" font-family="Consolas" font-weight="bold" font-size="11.00">npi::LinkHost::assign_</text>
</a>
</g>
</g>
<!-- Node2 -->
<g id="Node000002" class="node">
<title>Node2</title>
<g id="a_Node000002"><a xlink:href="../../dc/d75/classnpi_1_1_link_host.html#aaf61bab6d0dd4c11669a554a173e2994" target="_top" xlink:title="Friend declarations of LinkHost class with type as U. This makes any LinkHost class object a friend o...">
<polygon fill="white" stroke="none" points="552,-148.25 398,-148.25 398,-129 552,-129 552,-148.25"/>
<text xml:space="preserve" text-anchor="middle" x="475" y="-133.8" font-family="Consolas" font-size="11.00">npi::LinkHost::LinkHost</text>
</a>
</g>
</g>
<!-- Node1&#45;&gt;Node2 -->
<g id="edge1_Node000001_Node000002" class="edge">
<title>Node1&#45;&gt;Node2</title>
<g id="a_edge1_Node000001_Node000002"><a xlink:title=" ">
<path fill="none" stroke="#63b8ff" d="M88.27,-111.12C108.01,-124.59 146.78,-148.62 184,-157.62 269.58,-178.32 373.24,-161.97 430.56,-149.47"/>
<polygon fill="#63b8ff" stroke="#63b8ff" points="435.11,-148.46 430.72,-151.74 433.86,-148.74 430.23,-149.54 430.23,-149.54 430.23,-149.54 433.86,-148.74 429.75,-147.34 435.11,-148.46"/>
</a>
</g>
</g>
<!-- Node3 -->
<g id="Node000003" class="node">
<title>Node3</title>
<g id="a_Node000003"><a xlink:href="../../dc/d75/classnpi_1_1_link_host.html#a6cd9c1bd41b58506f19e67a257f84043" target="_top" xlink:title="Retrieve the raw pointer to the hosted object.">
<polygon fill="white" stroke="none" points="338,-148.25 208,-148.25 208,-129 338,-129 338,-148.25"/>
<text xml:space="preserve" text-anchor="middle" x="273" y="-133.8" font-family="Consolas" font-size="11.00">npi::LinkHost::get_</text>
</a>
</g>
</g>
<!-- Node1&#45;&gt;Node3 -->
<g id="edge3_Node000001_Node000003" class="edge">
<title>Node1&#45;&gt;Node3</title>
<g id="a_edge3_Node000001_Node000003"><a xlink:title=" ">
<path fill="none" stroke="#63b8ff" d="M126.25,-111.25C153.49,-116.37 187.06,-122.67 215.11,-127.94"/>
<polygon fill="#63b8ff" stroke="#63b8ff" points="219.81,-128.82 214.48,-130.11 218.55,-128.59 214.9,-127.9 214.9,-127.9 214.9,-127.9 218.55,-128.59 215.32,-125.69 219.81,-128.82"/>
</a>
</g>
</g>
<!-- Node4 -->
<g id="Node000004" class="node">
<title>Node4</title>
<g id="a_Node000004"><a xlink:href="../../dc/d75/classnpi_1_1_link_host.html#af25e157f0b5ab97c2b97cc0b4612f02a" target="_top" xlink:title="Check whether two LinkHost instances refer to the same object and observers (universal and local)....">
<polygon fill="white" stroke="none" points="347,-111.25 199,-111.25 199,-92 347,-92 347,-111.25"/>
<text xml:space="preserve" text-anchor="middle" x="273" y="-96.8" font-family="Consolas" font-size="11.00">npi::LinkHost::isSame_</text>
</a>
</g>
</g>
<!-- Node1&#45;&gt;Node4 -->
<g id="edge4_Node000001_Node000004" class="edge">
<title>Node1&#45;&gt;Node4</title>
<g id="a_edge4_Node000001_Node000004"><a xlink:title=" ">
<path fill="none" stroke="#63b8ff" d="M147.8,-101.62C162.6,-101.62 178.24,-101.62 193.24,-101.62"/>
<polygon fill="#63b8ff" stroke="#63b8ff" points="197.96,-101.63 192.96,-103.88 196.67,-101.63 192.96,-101.63 192.96,-101.63 192.96,-101.63 196.67,-101.63 192.96,-99.38 197.96,-101.63"/>
</a>
</g>
</g>
<!-- Node5 -->
<g id="Node000005" class="node">
<title>Node5</title>
<g id="a_Node000005"><a xlink:href="../../dc/d75/classnpi_1_1_link_host.html#a261da7011f41392296e60109db01459e" target="_top" xlink:title="Friend declarations of LinkFromThis class.">
<polygon fill="white" stroke="none" points="362,-56.25 184,-56.25 184,-37 362,-37 362,-56.25"/>
<text xml:space="preserve" text-anchor="middle" x="273" y="-41.8" font-family="Consolas" font-size="11.00">npi::LinkHost::LinkFromThis</text>
</a>
</g>
</g>
<!-- Node1&#45;&gt;Node5 -->
<g id="edge6_Node000001_Node000005" class="edge">
<title>Node1&#45;&gt;Node5</title>
<g id="a_edge6_Node000001_Node000005"><a xlink:title=" ">
<path fill="none" stroke="#63b8ff" d="M109.31,-92.04C143.53,-82.49 196.05,-67.83 232.11,-57.76"/>
<polygon fill="#63b8ff" stroke="#63b8ff" points="236.57,-56.52 232.36,-60.03 235.34,-56.86 231.76,-57.86 231.76,-57.86 231.76,-57.86 235.34,-56.86 231.15,-55.69 236.57,-56.52"/>
</a>
</g>
</g>
<!-- Node6 -->
<g id="Node000006" class="node">
<title>Node6</title>
<g id="a_Node000006"><a xlink:href="../../dc/d75/classnpi_1_1_link_host.html#a8621c5f37a5de093341d6dc2f683b31a" target="_top" xlink:title="Reset the host, releasing the object and invalidating all links.">
<polygon fill="white" stroke="none" points="344,-19.25 202,-19.25 202,0 344,0 344,-19.25"/>
<text xml:space="preserve" text-anchor="middle" x="273" y="-4.8" font-family="Consolas" font-size="11.00">npi::LinkHost::reset_</text>
</a>
</g>
</g>
<!-- Node1&#45;&gt;Node6 -->
<g id="edge8_Node000001_Node000006" class="edge">
<title>Node1&#45;&gt;Node6</title>
<g id="a_edge8_Node000001_Node000006"><a xlink:title=" ">
<path fill="none" stroke="#63b8ff" d="M85.9,-92.02C104.59,-76.07 144.59,-44.25 184,-27.62 190.29,-24.97 196.99,-22.7 203.8,-20.76"/>
<polygon fill="#63b8ff" stroke="#63b8ff" points="208.35,-19.52 204.11,-23.01 207.11,-19.86 203.52,-20.83 203.52,-20.83 203.52,-20.83 207.11,-19.86 202.93,-18.66 208.35,-19.52"/>
</a>
</g>
</g>
<!-- Node2&#45;&gt;Node2 -->
<g id="edge2_Node000002_Node000002" class="edge">
<title>Node2&#45;&gt;Node2</title>
<g id="a_edge2_Node000002_Node000002"><a xlink:title=" ">
<path fill="none" stroke="#63b8ff" d="M444.37,-147.97C428.49,-156.74 438.7,-166.25 475,-166.25 506.76,-166.25 518.55,-158.97 510.36,-151.27"/>
<polygon fill="#63b8ff" stroke="#63b8ff" points="506.62,-148.66 512.01,-149.68 507.68,-149.4 510.72,-151.52 510.72,-151.52 510.72,-151.52 507.68,-149.4 509.44,-153.37 506.62,-148.66"/>
</a>
</g>
</g>
<!-- Node4&#45;&gt;Node2 -->
<g id="edge5_Node000004_Node000002" class="edge">
<title>Node4&#45;&gt;Node2</title>
<g id="a_edge5_Node000004_Node000002"><a xlink:title=" ">
<path fill="none" stroke="#63b8ff" d="M326.03,-111.25C353.69,-116.37 387.77,-122.67 416.25,-127.94"/>
<polygon fill="#63b8ff" stroke="#63b8ff" points="421.04,-128.83 415.71,-130.13 419.78,-128.59 416.12,-127.92 416.12,-127.92 416.12,-127.92 419.78,-128.59 416.53,-125.7 421.04,-128.83"/>
</a>
</g>
</g>
<!-- Node5&#45;&gt;Node5 -->
<g id="edge7_Node000005_Node000005" class="edge">
<title>Node5&#45;&gt;Node5</title>
<g id="a_edge7_Node000005_Node000005"><a xlink:title=" ">
<path fill="none" stroke="#63b8ff" d="M242.83,-55.97C227.19,-64.74 237.24,-74.25 273,-74.25 304.29,-74.25 315.9,-66.97 307.83,-59.27"/>
<polygon fill="#63b8ff" stroke="#63b8ff" points="304.16,-56.67 309.55,-57.73 305.21,-57.41 308.24,-59.56 308.24,-59.56 308.24,-59.56 305.21,-57.41 306.94,-61.4 304.16,-56.67"/>
</a>
</g>
</g>
</g>
</svg>
