<?xml version="1.0" encoding="UTF-8" standalone="no"?>
<!DOCTYPE svg PUBLIC "-//W3C//DTD SVG 1.1//EN"
 "http://www.w3.org/Graphics/SVG/1.1/DTD/svg11.dtd">
<!-- Generated by graphviz version 14.0.0 (20250921.2048)
 -->
<!-- Title: npi::LinkHost::operator= Pages: 1 -->
<svg width="358pt" height="45pt"
 viewBox="0.00 0.00 358.00 45.00" xmlns="http://www.w3.org/2000/svg" xmlns:xlink="http://www.w3.org/1999/xlink">
<g id="graph0" class="graph" transform="scale(1 1) rotate(0) translate(4 41.25)">
<title>npi::LinkHost::operator=</title>
<!-- Node1 -->
<g id="Node000001" class="node">
<title>Node1</title>
<g id="a_Node000001"><a xlink:title="Default copy assignment operator.">
<polygon fill="#999999" stroke="none" points="160,-19.25 0,-19.25 0,0 160,0 160,-19.25"/>
<text xml:space="preserve" text-anchor="start" x="8" y="-5.8" font-family="Consolas" font-weight="bold" font-size="11.00">npi::LinkHost::operator=</text>
</a>
</g>
</g>
<!-- Node2 -->
<g id="Node000002" class="node">
<title>Node2</title>
<g id="a_Node000002"><a xlink:href="../../dc/d75/classnpi_1_1_link_host.html#aaf61bab6d0dd4c11669a554a173e2994" target="_top" xlink:title="Friend declarations of LinkHost class with type as U. This makes any LinkHost class object a friend o...">
<polygon fill="white" stroke="none" points="350,-19.25 196,-19.25 196,0 350,0 350,-19.25"/>
<text xml:space="preserve" text-anchor="middle" x="273" y="-4.8" font-family="Consolas" font-size="11.00">npi::LinkHost::LinkHost</text>
</a>
</g>
</g>
<!-- Node1&#45;&gt;Node2 -->
<g id="edge1_Node000001_Node000002" class="edge">
<title>Node1&#45;&gt;Node2</title>
<g id="a_edge1_Node000001_Node000002"><a xlink:title=" ">
<path fill="none" stroke="#63b8ff" d="M159.79,-9.62C169.75,-9.62 179.95,-9.62 189.96,-9.62"/>
<polygon fill="#63b8ff" stroke="#63b8ff" points="194.94,-9.63 189.94,-11.88 193.66,-9.63 189.94,-9.63 189.94,-9.63 189.94,-9.63 193.66,-9.63 189.94,-7.38 194.94,-9.63"/>
</a>
</g>
</g>
<!-- Node2&#45;&gt;Node2 -->
<g id="edge2_Node000002_Node000002" class="edge">
<title>Node2&#45;&gt;Node2</title>
<g id="a_edge2_Node000002_Node000002"><a xlink:title=" ">
<path fill="none" stroke="#63b8ff" d="M243.74,-18.97C228.57,-27.74 238.32,-37.25 273,-37.25 302.8,-37.25 314.2,-30.22 307.18,-22.68"/>
<polygon fill="#63b8ff" stroke="#63b8ff" points="303.23,-19.7 308.58,-20.92 304.26,-20.47 307.22,-22.71 307.22,-22.71 307.22,-22.71 304.26,-20.47 305.87,-24.51 303.23,-19.7"/>
</a>
</g>
</g>
</g>
</svg>
