<?xml version="1.0" encoding="UTF-8" standalone="no"?>
<!DOCTYPE svg PUBLIC "-//W3C//DTD SVG 1.1//EN"
 "http://www.w3.org/Graphics/SVG/1.1/DTD/svg11.dtd">
<!-- Generated by graphviz version 14.0.0 (20250921.2048)
 -->
<!-- Title: npi::LinkHost::duplicateWithNewLocal_ Pages: 1 -->
<svg width="436pt" height="45pt"
 viewBox="0.00 0.00 436.00 45.00" xmlns="http://www.w3.org/2000/svg" xmlns:xlink="http://www.w3.org/1999/xlink">
<g id="graph0" class="graph" transform="scale(1 1) rotate(0) translate(4 41.25)">
<title>npi::LinkHost::duplicateWithNewLocal_</title>
<!-- Node1 -->
<g id="Node000001" class="node">
<title>Node1</title>
<g id="a_Node000001"><a xlink:title="Duplicate host with a new local observer.">
<polygon fill="#999999" stroke="none" points="238,-19.25 0,-19.25 0,0 238,0 238,-19.25"/>
<text xml:space="preserve" text-anchor="start" x="8" y="-5.8" font-family="Consolas" font-weight="bold" font-size="11.00">npi::LinkHost::duplicateWithNewLocal_</text>
</a>
</g>
</g>
<!-- Node2 -->
<g id="Node000002" class="node">
<title>Node2</title>
<g id="a_Node000002"><a xlink:href="../../dc/d75/classnpi_1_1_link_host.html#aaf61bab6d0dd4c11669a554a173e2994" target="_top" xlink:title="Friend declarations of LinkHost class with type as U. This makes any LinkHost class object a friend o...">
<polygon fill="white" stroke="none" points="428,-19.25 274,-19.25 274,0 428,0 428,-19.25"/>
<text xml:space="preserve" text-anchor="middle" x="351" y="-4.8" font-family="Consolas" font-size="11.00">npi::LinkHost::LinkHost</text>
</a>
</g>
</g>
<!-- Node1&#45;&gt;Node2 -->
<g id="edge1_Node000001_Node000002" class="edge">
<title>Node1&#45;&gt;Node2</title>
<g id="a_edge1_Node000001_Node000002"><a xlink:title=" ">
<path fill="none" stroke="#63b8ff" d="M237.7,-9.62C247.95,-9.62 258.17,-9.62 268.04,-9.62"/>
<polygon fill="#63b8ff" stroke="#63b8ff" points="272.91,-9.63 267.91,-11.88 271.63,-9.63 267.91,-9.63 267.91,-9.63 267.91,-9.63 271.63,-9.63 267.91,-7.38 272.91,-9.63"/>
</a>
</g>
</g>
<!-- Node2&#45;&gt;Node2 -->
<g id="edge2_Node000002_Node000002" class="edge">
<title>Node2&#45;&gt;Node2</title>
<g id="a_edge2_Node000002_Node000002"><a xlink:title=" ">
<path fill="none" stroke="#63b8ff" d="M315.53,-19.11C297.72,-27.84 309.54,-37.25 351,-37.25 387.6,-37.25 401.11,-29.92 391.51,-22.19"/>
<polygon fill="#63b8ff" stroke="#63b8ff" points="387.51,-19.74 392.95,-20.43 388.6,-20.41 391.77,-22.35 391.77,-22.35 391.77,-22.35 388.6,-20.41 390.6,-24.27 387.51,-19.74"/>
</a>
</g>
</g>
</g>
</svg>
