<?xml version="1.0" encoding="UTF-8" standalone="no"?>
<!DOCTYPE svg PUBLIC "-//W3C//DTD SVG 1.1//EN"
 "http://www.w3.org/Graphics/SVG/1.1/DTD/svg11.dtd">
<!-- Generated by graphviz version 14.0.0 (20250921.2048)
 -->
<!-- Title: npi::LinkHost::LinkHost Pages: 1 -->
<!--zoomable 212 -->

<svg id="main" version="1.1" xmlns="http://www.w3.org/2000/svg" xmlns:xlink="http://www.w3.org/1999/xlink" xml:space="preserve" onload="init(evt)">

<style type="text/css"><![CDATA[
.node, .edge {opacity: 0.7;}
.node.selected, .edge.selected {opacity: 1;}
.edge:hover path { stroke: red; }
.edge:hover polygon { stroke: red; fill: red; }
]]></style>

<defs>
  <circle id="rim" cx="0" cy="0" r="7"/>
  <circle id="rim2" cx="0" cy="0" r="3.5"/>
  <g id="zoomPlus">
    <use xlink:href="#rim" fill="#404040"><set attributeName="fill" to="#808080" begin="zoomplus.mouseover" end="zoomplus.mouseout"/></use>
    <path d="M-4,0h8M0,-4v8" fill="none" stroke="white" stroke-width="1.5" pointer-events="none"/>
  </g>
  <g id="zoomMin">
    <use xlink:href="#rim" fill="#404040"><set attributeName="fill" to="#808080" begin="zoomminus.mouseover" end="zoomminus.mouseout"/></use>
    <path d="M-4,0h8" fill="none" stroke="white" stroke-width="1.5" pointer-events="none"/>
  </g>
  <g id="arrowUp" transform="translate(30 24)">
    <use xlink:href="#rim"/>
    <path pointer-events="none" fill="none" stroke="white" stroke-width="1.5" d="M0,-3.0v7 M-2.5,-0.5L0,-3.0L2.5,-0.5"/>
  </g>
  <g id="arrowRight" transform="rotate(90) translate(36 -43)">
    <use xlink:href="#rim"/>
    <path pointer-events="none" fill="none" stroke="white" stroke-width="1.5" d="M0,-3.0v7 M-2.5,-0.5L0,-3.0L2.5,-0.5"/>
  </g>
  <g id="arrowDown" transform="rotate(180) translate(-30 -48)">
    <use xlink:href="#rim"/>
    <path pointer-events="none" fill="none" stroke="white" stroke-width="1.5" d="M0,-3.0v7 M-2.5,-0.5L0,-3.0L2.5,-0.5"/>
  </g>
  <g id="arrowLeft" transform="rotate(270) translate(-36 17)">
    <use xlink:href="#rim"/>
    <path pointer-events="none" fill="none" stroke="white" stroke-width="1.5" d="M0,-3.0v7 M-2.5,-0.5L0,-3.0L2.5,-0.5"/>
  </g>
  <g id="resetDef">
    <use xlink:href="#rim2" fill="#404040"><set attributeName="fill" to="#808080" begin="reset.mouseover" end="reset.mouseout"/></use>
  </g>
</defs>
<script type="application/ecmascript">
var viewWidth = 750;
var viewHeight = 212;
var sectionId = 'dynsection-5';
</script>
<script type="application/ecmascript" xlink:href="../../svg.min.js"/>
<svg id="graph" class="graph">
<g id="viewport">
<title>npi::LinkHost::LinkHost</title>
<!-- Node1 -->
<g id="Node000001" class="node">
<title>Node1</title>
<g id="a_Node000001"><a xlink:title="Polymorphic converting copy constructor.">
<polygon fill="#999999" stroke="none" points="154,-168.25 0,-168.25 0,-149 154,-149 154,-168.25"/>
<text xml:space="preserve" text-anchor="start" x="8" y="-154.8" font-family="Consolas" font-weight="bold" font-size="11.00">npi::LinkHost::LinkHost</text>
</a>
</g>
</g>
<!-- Node2 -->
<g id="Node000002" class="node">
<title>Node2</title>
<g id="a_Node000002"><a xlink:href="../../dc/d75/classnpi_1_1_link_host.html#aaf61bab6d0dd4c11669a554a173e2994" target="_top" xlink:title="Friend declarations of LinkHost class with type as U. This makes any LinkHost class object a friend o...">
<polygon fill="white" stroke="none" points="742,-186.25 588,-186.25 588,-167 742,-167 742,-186.25"/>
<text xml:space="preserve" text-anchor="middle" x="665" y="-171.8" font-family="Consolas" font-size="11.00">npi::LinkHost::LinkHost</text>
</a>
</g>
</g>
<!-- Node1&#45;&gt;Node2 -->
<g id="edge1_Node000001_Node000002" class="edge">
<title>Node1&#45;&gt;Node2</title>
<g id="a_edge1_Node000001_Node000002"><a xlink:title=" ">
<path fill="none" stroke="#63b8ff" d="M153.96,-165.83C213.7,-171.12 299.07,-177.84 374,-180.62 453.06,-183.56 472.9,-182.04 552,-180.62 561.76,-180.45 571.99,-180.19 582.14,-179.89"/>
<polygon fill="#63b8ff" stroke="#63b8ff" points="586.88,-179.74 581.95,-182.14 585.6,-179.78 581.88,-179.89 581.88,-179.89 581.88,-179.89 585.6,-179.78 581.81,-177.65 586.88,-179.74"/>
</a>
</g>
</g>
<!-- Node3 -->
<g id="Node000003" class="node">
<title>Node3</title>
<g id="a_Node000003"><a xlink:href="../../dc/d75/classnpi_1_1_link_host.html#a59021c0af01b28c7a549c8ce16ef0368" target="_top" xlink:title="Internal helper to assign from another polymorphically related LinkHost object.">
<polygon fill="white" stroke="none" points="338,-130.25 190,-130.25 190,-111 338,-111 338,-130.25"/>
<text xml:space="preserve" text-anchor="middle" x="264" y="-115.8" font-family="Consolas" font-size="11.00">npi::LinkHost::assign_</text>
</a>
</g>
</g>
<!-- Node1&#45;&gt;Node3 -->
<g id="edge3_Node000001_Node000003" class="edge">
<title>Node1&#45;&gt;Node3</title>
<g id="a_edge3_Node000001_Node000003"><a xlink:title=" ">
<path fill="none" stroke="#63b8ff" d="M124.68,-149.04C150.76,-143.68 183.33,-136.99 210.31,-131.45"/>
<polygon fill="#63b8ff" stroke="#63b8ff" points="215.14,-130.46 210.69,-133.67 213.88,-130.71 210.24,-131.46 210.24,-131.46 210.24,-131.46 213.88,-130.71 209.79,-129.26 215.14,-130.46"/>
</a>
</g>
</g>
<!-- Node2&#45;&gt;Node2 -->
<g id="edge2_Node000002_Node000002" class="edge">
<title>Node2&#45;&gt;Node2</title>
<g id="a_edge2_Node000002_Node000002"><a xlink:title=" ">
<path fill="none" stroke="#63b8ff" d="M634.37,-185.97C618.49,-194.74 628.7,-204.25 665,-204.25 696.76,-204.25 708.55,-196.97 700.36,-189.27"/>
<polygon fill="#63b8ff" stroke="#63b8ff" points="696.62,-186.66 702.01,-187.68 697.68,-187.4 700.72,-189.52 700.72,-189.52 700.72,-189.52 697.68,-187.4 699.44,-191.37 696.62,-186.66"/>
</a>
</g>
</g>
<!-- Node3&#45;&gt;Node2 -->
<g id="edge4_Node000003_Node000002" class="edge">
<title>Node3&#45;&gt;Node2</title>
<g id="a_edge4_Node000003_Node000002"><a xlink:title=" ">
<path fill="none" stroke="#63b8ff" d="M287.49,-130.2C309.2,-138.97 343.23,-151.5 374,-157.62 443.37,-171.42 523.73,-175.81 582.24,-176.95"/>
<polygon fill="#63b8ff" stroke="#63b8ff" points="586.97,-177.03 581.93,-179.19 585.69,-177.01 581.97,-176.94 581.97,-176.94 581.97,-176.94 585.69,-177.01 582.01,-174.69 586.97,-177.03"/>
</a>
</g>
</g>
<!-- Node4 -->
<g id="Node000004" class="node">
<title>Node4</title>
<g id="a_Node000004"><a xlink:href="../../dc/d75/classnpi_1_1_link_host.html#a6cd9c1bd41b58506f19e67a257f84043" target="_top" xlink:title="Retrieve the raw pointer to the hosted object.">
<polygon fill="white" stroke="none" points="528,-148.25 398,-148.25 398,-129 528,-129 528,-148.25"/>
<text xml:space="preserve" text-anchor="middle" x="463" y="-133.8" font-family="Consolas" font-size="11.00">npi::LinkHost::get_</text>
</a>
</g>
</g>
<!-- Node3&#45;&gt;Node4 -->
<g id="edge5_Node000003_Node000004" class="edge">
<title>Node3&#45;&gt;Node4</title>
<g id="a_edge5_Node000003_Node000004"><a xlink:title=" ">
<path fill="none" stroke="#63b8ff" d="M337.8,-127.28C355.62,-128.9 374.65,-130.64 392.32,-132.26"/>
<polygon fill="#63b8ff" stroke="#63b8ff" points="397.05,-132.69 391.86,-134.48 395.77,-132.57 392.07,-132.24 392.07,-132.24 392.07,-132.24 395.77,-132.57 392.27,-129.99 397.05,-132.69"/>
</a>
</g>
</g>
<!-- Node5 -->
<g id="Node000005" class="node">
<title>Node5</title>
<g id="a_Node000005"><a xlink:href="../../dc/d75/classnpi_1_1_link_host.html#af25e157f0b5ab97c2b97cc0b4612f02a" target="_top" xlink:title="Check whether two LinkHost instances refer to the same object and observers (universal and local)....">
<polygon fill="white" stroke="none" points="537,-111.25 389,-111.25 389,-92 537,-92 537,-111.25"/>
<text xml:space="preserve" text-anchor="middle" x="463" y="-96.8" font-family="Consolas" font-size="11.00">npi::LinkHost::isSame_</text>
</a>
</g>
</g>
<!-- Node3&#45;&gt;Node5 -->
<g id="edge6_Node000003_Node000005" class="edge">
<title>Node3&#45;&gt;Node5</title>
<g id="a_edge6_Node000003_Node000005"><a xlink:title=" ">
<path fill="none" stroke="#63b8ff" d="M337.8,-113.6C352.6,-112.18 368.24,-110.67 383.24,-109.22"/>
<polygon fill="#63b8ff" stroke="#63b8ff" points="387.96,-108.77 383.2,-111.49 386.69,-108.89 382.98,-109.25 382.98,-109.25 382.98,-109.25 386.69,-108.89 382.77,-107.01 387.96,-108.77"/>
</a>
</g>
</g>
<!-- Node6 -->
<g id="Node000006" class="node">
<title>Node6</title>
<g id="a_Node000006"><a xlink:href="../../dc/d75/classnpi_1_1_link_host.html#a261da7011f41392296e60109db01459e" target="_top" xlink:title="Friend declarations of LinkFromThis class.">
<polygon fill="white" stroke="none" points="552,-56.25 374,-56.25 374,-37 552,-37 552,-56.25"/>
<text xml:space="preserve" text-anchor="middle" x="463" y="-41.8" font-family="Consolas" font-size="11.00">npi::LinkHost::LinkFromThis</text>
</a>
</g>
</g>
<!-- Node3&#45;&gt;Node6 -->
<g id="edge8_Node000003_Node000006" class="edge">
<title>Node3&#45;&gt;Node6</title>
<g id="a_edge8_Node000003_Node000006"><a xlink:title=" ">
<path fill="none" stroke="#63b8ff" d="M290.35,-111.1C326.31,-97.6 392.05,-72.9 430.9,-58.31"/>
<polygon fill="#63b8ff" stroke="#63b8ff" points="435.29,-56.66 431.4,-60.52 434.09,-57.11 430.61,-58.42 430.61,-58.42 430.61,-58.42 434.09,-57.11 429.82,-56.31 435.29,-56.66"/>
</a>
</g>
</g>
<!-- Node7 -->
<g id="Node000007" class="node">
<title>Node7</title>
<g id="a_Node000007"><a xlink:href="../../dc/d75/classnpi_1_1_link_host.html#a8621c5f37a5de093341d6dc2f683b31a" target="_top" xlink:title="Reset the host, releasing the object and invalidating all links.">
<polygon fill="white" stroke="none" points="534,-19.25 392,-19.25 392,0 534,0 534,-19.25"/>
<text xml:space="preserve" text-anchor="middle" x="463" y="-4.8" font-family="Consolas" font-size="11.00">npi::LinkHost::reset_</text>
</a>
</g>
</g>
<!-- Node3&#45;&gt;Node7 -->
<g id="edge10_Node000003_Node000007" class="edge">
<title>Node3&#45;&gt;Node7</title>
<g id="a_edge10_Node000003_Node000007"><a xlink:title=" ">
<path fill="none" stroke="#63b8ff" d="M272.94,-111.22C289.57,-92.16 330.18,-49.01 374,-27.62 379.26,-25.06 384.86,-22.86 390.6,-20.97"/>
<polygon fill="#63b8ff" stroke="#63b8ff" points="395.21,-19.55 391.09,-23.18 393.98,-19.93 390.43,-21.03 390.43,-21.03 390.43,-21.03 393.98,-19.93 389.77,-18.88 395.21,-19.55"/>
</a>
</g>
</g>
<!-- Node5&#45;&gt;Node2 -->
<g id="edge7_Node000005_Node000002" class="edge">
<title>Node5&#45;&gt;Node2</title>
<g id="a_edge7_Node000005_Node000002"><a xlink:title=" ">
<path fill="none" stroke="#63b8ff" d="M521.88,-111.15C532.05,-113.47 542.43,-116.28 552,-119.62 585.42,-131.31 621.46,-151.08 643.38,-163.99"/>
<polygon fill="#63b8ff" stroke="#63b8ff" points="647.6,-166.49 642.15,-165.87 646.49,-165.84 643.3,-163.94 643.3,-163.94 643.3,-163.94 646.49,-165.84 644.45,-162 647.6,-166.49"/>
</a>
</g>
</g>
<!-- Node6&#45;&gt;Node6 -->
<g id="edge9_Node000006_Node000006" class="edge">
<title>Node6&#45;&gt;Node6</title>
<g id="a_edge9_Node000006_Node000006"><a xlink:title=" ">
<path fill="none" stroke="#63b8ff" d="M432.83,-55.97C417.19,-64.74 427.24,-74.25 463,-74.25 494.29,-74.25 505.9,-66.97 497.83,-59.27"/>
<polygon fill="#63b8ff" stroke="#63b8ff" points="494.16,-56.67 499.55,-57.73 495.21,-57.41 498.24,-59.56 498.24,-59.56 498.24,-59.56 495.21,-57.41 496.94,-61.4 494.16,-56.67"/>
</a>
</g>
</g>
</g>
</svg>

<g id="navigator" transform="translate(0 0)" fill="#404254">
  <rect fill="#f2f5e9" fill-opacity="0.5" stroke="#606060" stroke-width=".5" x="0" y="0" width="60" height="60"/>
  <use id="zoomplus" xlink:href="#zoomPlus" x="17" y="9" onmousedown="handleZoom(evt,'in')"/>
  <use id="zoomminus" xlink:href="#zoomMin" x="42" y="9" onmousedown="handleZoom(evt,'out')"/>
  <use id="reset" xlink:href="#resetDef" x="30" y="36" onmousedown="handleReset()"/>
   <use id="arrowup" xlink:href="#arrowUp" x="0" y="0" onmousedown="handlePan(0,-1)"/>
  <use id="arrowright" xlink:href="#arrowRight" x="0" y="0" onmousedown="handlePan(1,0)"/>
  <use id="arrowdown" xlink:href="#arrowDown" x="0" y="0" onmousedown="handlePan(0,1)"/>
  <use id="arrowleft" xlink:href="#arrowLeft" x="0" y="0" onmousedown="handlePan(-1,0)"/>
</g>
<svg viewBox="0 0 15 15" width="100%" height="30px" preserveAspectRatio="xMaxYMin meet">
 <g id="arrow_out" transform="scale(0.3 0.3)">
  <a xlink:href="classnpi_1_1_link_host_a490ac825e921d673a3a32c94e7058d1d_cgraph_org.svg" target="_base">
   <rect id="button" ry="5" rx="5" y="6" x="6" height="38" width="38"
        fill="#f2f5e9" fill-opacity="0.5" stroke="#606060" stroke-width="1.0"/>
   <path id="arrow"
     d="M 11.500037,31.436501 C 11.940474,20.09759 22.043105,11.32322 32.158766,21.979434 L 37.068811,17.246167 C 37.068811,17.246167 37.088388,32 37.088388,32 L 22.160133,31.978069 C 22.160133,31.978069 26.997745,27.140456 26.997745,27.140456 C 18.528582,18.264221 13.291696,25.230495 11.500037,31.436501 z"
     style="fill:#404040;"/>
  </a>
 </g>
</svg>

<style type='text/css'>
<![CDATA[
[data-mouse-over-selected='false'] { opacity: 0.7; }
[data-mouse-over-selected='true']  { opacity: 1.0; }
]]>
</style>
<script type="application/ecmascript"><![CDATA[
document.addEventListener('DOMContentLoaded', (event) => {
  highlightEdges();
  highlightAdjacentNodes();
});
]]></script>
</svg>
