<?xml version="1.0" encoding="UTF-8" standalone="no"?>
<!DOCTYPE svg PUBLIC "-//W3C//DTD SVG 1.1//EN"
 "http://www.w3.org/Graphics/SVG/1.1/DTD/svg11.dtd">
<!-- Generated by graphviz version 14.0.0 (20250921.2048)
 -->
<!-- Title: npi::LinkHost::assign_ Pages: 1 -->
<svg width="352pt" height="64pt"
 viewBox="0.00 0.00 352.00 64.00" xmlns="http://www.w3.org/2000/svg" xmlns:xlink="http://www.w3.org/1999/xlink">

<svg id="main" version="1.1" xmlns="http://www.w3.org/2000/svg" xmlns:xlink="http://www.w3.org/1999/xlink" xml:space="preserve">

<style type="text/css"><![CDATA[
.node, .edge {opacity: 0.7;}
.node.selected, .edge.selected {opacity: 1;}
.edge:hover path { stroke: red; }
.edge:hover polygon { stroke: red; fill: red; }
]]></style>
<script type="application/ecmascript" xlink:href="../../svg.min.js"/>
<svg id="graph" class="graph">
<g id="graph0" class="graph" transform="scale(1 1) rotate(0) translate(4 60.25)">
<title>npi::LinkHost::assign_</title>
<!-- Node1 -->
<g id="Node000001" class="node">
<title>Node1</title>
<g id="a_Node000001"><a xlink:title="Internal helper to assign from another polymorphically related LinkHost object.">
<polygon fill="#999999" stroke="none" points="344,-37.25 196,-37.25 196,-18 344,-18 344,-37.25"/>
<text xml:space="preserve" text-anchor="start" x="204" y="-23.8" font-family="Consolas" font-weight="bold" font-size="11.00">npi::LinkHost::assign_</text>
</a>
</g>
</g>
<!-- Node2 -->
<g id="Node000002" class="node">
<title>Node2</title>
<g id="a_Node000002"><a xlink:href="../../dc/d75/classnpi_1_1_link_host.html#a490ac825e921d673a3a32c94e7058d1d" target="_top" xlink:title="Polymorphic converting copy constructor.">
<polygon fill="white" stroke="none" points="157,-56.25 3,-56.25 3,-37 157,-37 157,-56.25"/>
<text xml:space="preserve" text-anchor="middle" x="80" y="-41.8" font-family="Consolas" font-size="11.00">npi::LinkHost::LinkHost</text>
</a>
</g>
</g>
<!-- Node1&#45;&gt;Node2 -->
<g id="edge1_Node000001_Node000002" class="edge">
<title>Node1&#45;&gt;Node2</title>
<g id="a_edge1_Node000001_Node000002"><a xlink:title=" ">
<path fill="none" stroke="#63b8ff" d="M189.96,-35.61C178.95,-36.73 167.66,-37.87 156.71,-38.97"/>
<polygon fill="#63b8ff" stroke="#63b8ff" points="194.83,-35.12 190.08,-37.86 193.56,-35.25 189.86,-35.62 189.86,-35.62 189.86,-35.62 193.56,-35.25 189.63,-33.38 194.83,-35.12"/>
</a>
</g>
</g>
<!-- Node3 -->
<g id="Node000003" class="node">
<title>Node3</title>
<g id="a_Node000003"><a xlink:href="../../dc/d75/classnpi_1_1_link_host.html#aa7c182e77bd354c70fb694ac3b1a6d76" target="_top" xlink:title="Polymorphic assignment operator.">
<polygon fill="white" stroke="none" points="160,-19.25 0,-19.25 0,0 160,0 160,-19.25"/>
<text xml:space="preserve" text-anchor="middle" x="80" y="-4.8" font-family="Consolas" font-size="11.00">npi::LinkHost::operator=</text>
</a>
</g>
</g>
<!-- Node1&#45;&gt;Node3 -->
<g id="edge2_Node000001_Node000003" class="edge">
<title>Node1&#45;&gt;Node3</title>
<g id="a_edge2_Node000001_Node000003"><a xlink:title=" ">
<path fill="none" stroke="#63b8ff" d="M189.89,-20.05C179.94,-19.1 169.77,-18.12 159.83,-17.17"/>
<polygon fill="#63b8ff" stroke="#63b8ff" points="194.83,-20.52 189.64,-22.29 193.56,-20.4 189.86,-20.05 189.86,-20.05 189.86,-20.05 193.56,-20.4 190.07,-17.81 194.83,-20.52"/>
</a>
</g>
</g>
</g>
</svg>
</svg>

<style type='text/css'>
<![CDATA[
[data-mouse-over-selected='false'] { opacity: 0.7; }
[data-mouse-over-selected='true']  { opacity: 1.0; }
]]>
</style>
<script type="application/ecmascript"><![CDATA[
document.addEventListener('DOMContentLoaded', (event) => {
  highlightEdges();
  highlightAdjacentNodes();
});
]]></script>
</svg>
