<?xml version="1.0" encoding="UTF-8" standalone="no"?>
<!DOCTYPE svg PUBLIC "-//W3C//DTD SVG 1.1//EN"
 "http://www.w3.org/Graphics/SVG/1.1/DTD/svg11.dtd">
<!-- Generated by graphviz version 14.0.0 (20250921.2048)
 -->
<!-- Title: npi::LinkHost::operator== Pages: 1 -->
<svg width="364pt" height="82pt"
 viewBox="0.00 0.00 364.00 82.00" xmlns="http://www.w3.org/2000/svg" xmlns:xlink="http://www.w3.org/1999/xlink">

<svg id="main" version="1.1" xmlns="http://www.w3.org/2000/svg" xmlns:xlink="http://www.w3.org/1999/xlink" xml:space="preserve">

<style type="text/css"><![CDATA[
.node, .edge {opacity: 0.7;}
.node.selected, .edge.selected {opacity: 1;}
.edge:hover path { stroke: red; }
.edge:hover polygon { stroke: red; fill: red; }
]]></style>
<script type="application/ecmascript" xlink:href="../../svg.min.js"/>
<svg id="graph" class="graph">
<g id="graph0" class="graph" transform="scale(1 1) rotate(0) translate(4 78.25)">
<title>npi::LinkHost::operator==</title>
<!-- Node1 -->
<g id="Node000001" class="node">
<title>Node1</title>
<g id="a_Node000001"><a xlink:title="Compare this LinkHost object to another LinkHost object for equality.">
<polygon fill="#999999" stroke="none" points="166,-37.25 0,-37.25 0,-18 166,-18 166,-37.25"/>
<text xml:space="preserve" text-anchor="start" x="8" y="-23.8" font-family="Consolas" font-weight="bold" font-size="11.00">npi::LinkHost::operator==</text>
</a>
</g>
</g>
<!-- Node2 -->
<g id="Node000002" class="node">
<title>Node2</title>
<g id="a_Node000002"><a xlink:href="../../dc/d75/classnpi_1_1_link_host.html#aaf61bab6d0dd4c11669a554a173e2994" target="_top" xlink:title="Friend declarations of LinkHost class with type as U. This makes any LinkHost class object a friend o...">
<polygon fill="white" stroke="none" points="356,-56.25 202,-56.25 202,-37 356,-37 356,-56.25"/>
<text xml:space="preserve" text-anchor="middle" x="279" y="-41.8" font-family="Consolas" font-size="11.00">npi::LinkHost::LinkHost</text>
</a>
</g>
</g>
<!-- Node1&#45;&gt;Node2 -->
<g id="edge1_Node000001_Node000002" class="edge">
<title>Node1&#45;&gt;Node2</title>
<g id="a_edge1_Node000001_Node000002"><a xlink:title=" ">
<path fill="none" stroke="#63b8ff" d="M165.99,-35.66C175.93,-36.63 186.08,-37.62 196.01,-38.6"/>
<polygon fill="#63b8ff" stroke="#63b8ff" points="200.95,-39.08 195.76,-40.83 199.68,-38.95 195.97,-38.59 195.97,-38.59 195.97,-38.59 199.68,-38.95 196.19,-36.35 200.95,-39.08"/>
</a>
</g>
</g>
<!-- Node3 -->
<g id="Node000003" class="node">
<title>Node3</title>
<g id="a_Node000003"><a xlink:href="../../dc/d75/classnpi_1_1_link_host.html#a6cd9c1bd41b58506f19e67a257f84043" target="_top" xlink:title="Retrieve the raw pointer to the hosted object.">
<polygon fill="white" stroke="none" points="344,-19.25 214,-19.25 214,0 344,0 344,-19.25"/>
<text xml:space="preserve" text-anchor="middle" x="279" y="-4.8" font-family="Consolas" font-size="11.00">npi::LinkHost::get_</text>
</a>
</g>
</g>
<!-- Node1&#45;&gt;Node3 -->
<g id="edge3_Node000001_Node000003" class="edge">
<title>Node1&#45;&gt;Node3</title>
<g id="a_edge3_Node000001_Node000003"><a xlink:title=" ">
<path fill="none" stroke="#63b8ff" d="M165.99,-20.02C180.11,-18.71 194.66,-17.36 208.41,-16.08"/>
<polygon fill="#63b8ff" stroke="#63b8ff" points="213.04,-15.65 208.26,-18.36 211.76,-15.77 208.06,-16.11 208.06,-16.11 208.06,-16.11 211.76,-15.77 207.85,-13.87 213.04,-15.65"/>
</a>
</g>
</g>
<!-- Node2&#45;&gt;Node2 -->
<g id="edge2_Node000002_Node000002" class="edge">
<title>Node2&#45;&gt;Node2</title>
<g id="a_edge2_Node000002_Node000002"><a xlink:title=" ">
<path fill="none" stroke="#63b8ff" d="M249.28,-55.97C233.88,-64.74 243.78,-74.25 279,-74.25 309.82,-74.25 321.25,-66.97 313.31,-59.27"/>
<polygon fill="#63b8ff" stroke="#63b8ff" points="309.7,-56.68 315.08,-57.77 310.75,-57.43 313.76,-59.6 313.76,-59.6 313.76,-59.6 310.75,-57.43 312.45,-61.42 309.7,-56.68"/>
</a>
</g>
</g>
</g>
</svg>
</svg>

<style type='text/css'>
<![CDATA[
[data-mouse-over-selected='false'] { opacity: 0.7; }
[data-mouse-over-selected='true']  { opacity: 1.0; }
]]>
</style>
<script type="application/ecmascript"><![CDATA[
document.addEventListener('DOMContentLoaded', (event) => {
  highlightEdges();
  highlightAdjacentNodes();
});
]]></script>
</svg>
