<?xml version="1.0" encoding="UTF-8" standalone="no"?>
<!DOCTYPE svg PUBLIC "-//W3C//DTD SVG 1.1//EN"
 "http://www.w3.org/Graphics/SVG/1.1/DTD/svg11.dtd">
<!-- Generated by graphviz version 14.0.0 (20250921.2048)
 -->
<!-- Title: npi::LinkHost::operator== Pages: 1 -->
<svg width="340pt" height="82pt"
 viewBox="0.00 0.00 340.00 82.00" xmlns="http://www.w3.org/2000/svg" xmlns:xlink="http://www.w3.org/1999/xlink">
<g id="graph0" class="graph" transform="scale(1 1) rotate(0) translate(4 78.25)">
<title>npi::LinkHost::operator==</title>
<!-- Node1 -->
<g id="Node000001" class="node">
<title>Node1</title>
<g id="a_Node000001"><a xlink:title="Compare this LinkHost object to a Link object for equality.">
<polygon fill="#999999" stroke="none" points="166,-46.25 0,-46.25 0,-27 166,-27 166,-46.25"/>
<text xml:space="preserve" text-anchor="start" x="8" y="-32.8" font-family="Consolas" font-weight="bold" font-size="11.00">npi::LinkHost::operator==</text>
</a>
</g>
</g>
<!-- Node2 -->
<g id="Node000002" class="node">
<title>Node2</title>
<g id="a_Node000002"><a xlink:href="../../dc/d75/classnpi_1_1_link_host.html#a6cd9c1bd41b58506f19e67a257f84043" target="_top" xlink:title="Retrieve the raw pointer to the hosted object.">
<polygon fill="white" stroke="none" points="332,-74.25 202,-74.25 202,-55 332,-55 332,-74.25"/>
<text xml:space="preserve" text-anchor="middle" x="267" y="-59.8" font-family="Consolas" font-size="11.00">npi::LinkHost::get_</text>
</a>
</g>
</g>
<!-- Node1&#45;&gt;Node2 -->
<g id="edge1_Node000001_Node000002" class="edge">
<title>Node1&#45;&gt;Node2</title>
<g id="a_edge1_Node000001_Node000002"><a xlink:title=" ">
<path fill="none" stroke="#63b8ff" d="M146.38,-46.22C162.88,-48.76 180.77,-51.51 197.57,-54.1"/>
<polygon fill="#63b8ff" stroke="#63b8ff" points="202.5,-54.86 197.21,-56.32 201.23,-54.66 197.56,-54.1 197.56,-54.1 197.56,-54.1 201.23,-54.66 197.9,-51.87 202.5,-54.86"/>
</a>
</g>
</g>
<!-- Node3 -->
<g id="Node000003" class="node">
<title>Node3</title>
<g id="a_Node000003"><a xlink:href="../../dc/d75/classnpi_1_1_link_host.html#a25697cc431ea53124dec223f597abf0e" target="_top" xlink:title="Friend declarations of Link class.">
<polygon fill="white" stroke="none" points="332,-19.25 202,-19.25 202,0 332,0 332,-19.25"/>
<text xml:space="preserve" text-anchor="middle" x="267" y="-4.8" font-family="Consolas" font-size="11.00">npi::LinkHost::Link</text>
</a>
</g>
</g>
<!-- Node1&#45;&gt;Node3 -->
<g id="edge2_Node000001_Node000003" class="edge">
<title>Node1&#45;&gt;Node3</title>
<g id="a_edge2_Node000001_Node000003"><a xlink:title=" ">
<path fill="none" stroke="#63b8ff" d="M148.68,-27.03C164.01,-24.75 180.44,-22.32 196,-20.01"/>
<polygon fill="#63b8ff" stroke="#63b8ff" points="200.94,-19.28 196.32,-22.24 199.67,-19.47 195.99,-20.01 195.99,-20.01 195.99,-20.01 199.67,-19.47 195.66,-17.79 200.94,-19.28"/>
</a>
</g>
</g>
<!-- Node3&#45;&gt;Node3 -->
<g id="edge3_Node000003_Node000003" class="edge">
<title>Node3&#45;&gt;Node3</title>
<g id="a_edge3_Node000003_Node000003"><a xlink:title=" ">
<path fill="none" stroke="#63b8ff" d="M239.1,-18.97C224.64,-27.74 233.94,-37.25 267,-37.25 295.41,-37.25 306.28,-30.22 299.59,-22.68"/>
<polygon fill="#63b8ff" stroke="#63b8ff" points="295.85,-19.72 301.17,-21.06 296.86,-20.52 299.77,-22.83 299.77,-22.83 299.77,-22.83 296.86,-20.52 298.37,-24.59 295.85,-19.72"/>
</a>
</g>
</g>
</g>
</svg>
