<?xml version="1.0" encoding="UTF-8" standalone="no"?>
<!DOCTYPE svg PUBLIC "-//W3C//DTD SVG 1.1//EN"
 "http://www.w3.org/Graphics/SVG/1.1/DTD/svg11.dtd">
<!-- Generated by graphviz version 14.0.0 (20250921.2048)
 -->
<!-- Title: npi::LinkHost::operator= Pages: 1 -->
<svg width="756pt" height="212pt"
 viewBox="0.00 0.00 756.00 212.00" xmlns="http://www.w3.org/2000/svg" xmlns:xlink="http://www.w3.org/1999/xlink">
<g id="graph0" class="graph" transform="scale(1 1) rotate(0) translate(4 208.25)">
<title>npi::LinkHost::operator=</title>
<!-- Node1 -->
<g id="Node000001" class="node">
<title>Node1</title>
<g id="a_Node000001"><a xlink:title="Polymorphic assignment operator.">
<polygon fill="#999999" stroke="none" points="160,-168.25 0,-168.25 0,-149 160,-149 160,-168.25"/>
<text xml:space="preserve" text-anchor="start" x="8" y="-154.8" font-family="Consolas" font-weight="bold" font-size="11.00">npi::LinkHost::operator=</text>
</a>
</g>
</g>
<!-- Node2 -->
<g id="Node000002" class="node">
<title>Node2</title>
<g id="a_Node000002"><a xlink:href="../../dc/d75/classnpi_1_1_link_host.html#aaf61bab6d0dd4c11669a554a173e2994" target="_top" xlink:title="Friend declarations of LinkHost class with type as U. This makes any LinkHost class object a friend o...">
<polygon fill="white" stroke="none" points="748,-186.25 594,-186.25 594,-167 748,-167 748,-186.25"/>
<text xml:space="preserve" text-anchor="middle" x="671" y="-171.8" font-family="Consolas" font-size="11.00">npi::LinkHost::LinkHost</text>
</a>
</g>
</g>
<!-- Node1&#45;&gt;Node2 -->
<g id="edge1_Node000001_Node000002" class="edge">
<title>Node1&#45;&gt;Node2</title>
<g id="a_edge1_Node000001_Node000002"><a xlink:title=" ">
<path fill="none" stroke="#63b8ff" d="M159.92,-166.02C220.15,-171.28 305.23,-177.88 380,-180.62 459.06,-183.53 478.9,-182.04 558,-180.62 567.76,-180.45 577.99,-180.19 588.14,-179.89"/>
<polygon fill="#63b8ff" stroke="#63b8ff" points="592.88,-179.74 587.95,-182.14 591.6,-179.78 587.88,-179.89 587.88,-179.89 587.88,-179.89 591.6,-179.78 587.81,-177.65 592.88,-179.74"/>
</a>
</g>
</g>
<!-- Node3 -->
<g id="Node000003" class="node">
<title>Node3</title>
<g id="a_Node000003"><a xlink:href="../../dc/d75/classnpi_1_1_link_host.html#a59021c0af01b28c7a549c8ce16ef0368" target="_top" xlink:title="Internal helper to assign from another polymorphically related LinkHost object.">
<polygon fill="white" stroke="none" points="344,-130.25 196,-130.25 196,-111 344,-111 344,-130.25"/>
<text xml:space="preserve" text-anchor="middle" x="270" y="-115.8" font-family="Consolas" font-size="11.00">npi::LinkHost::assign_</text>
</a>
</g>
</g>
<!-- Node1&#45;&gt;Node3 -->
<g id="edge3_Node000001_Node000003" class="edge">
<title>Node1&#45;&gt;Node3</title>
<g id="a_edge3_Node000001_Node000003"><a xlink:title=" ">
<path fill="none" stroke="#63b8ff" d="M128.44,-149.04C155.05,-143.66 188.31,-136.93 215.8,-131.38"/>
<polygon fill="#63b8ff" stroke="#63b8ff" points="220.38,-130.45 215.93,-133.65 219.12,-130.71 215.48,-131.44 215.48,-131.44 215.48,-131.44 219.12,-130.71 215.03,-129.24 220.38,-130.45"/>
</a>
</g>
</g>
<!-- Node2&#45;&gt;Node2 -->
<g id="edge2_Node000002_Node000002" class="edge">
<title>Node2&#45;&gt;Node2</title>
<g id="a_edge2_Node000002_Node000002"><a xlink:title=" ">
<path fill="none" stroke="#63b8ff" d="M640.37,-185.97C624.49,-194.74 634.7,-204.25 671,-204.25 702.76,-204.25 714.55,-196.97 706.36,-189.27"/>
<polygon fill="#63b8ff" stroke="#63b8ff" points="702.62,-186.66 708.01,-187.68 703.68,-187.4 706.72,-189.52 706.72,-189.52 706.72,-189.52 703.68,-187.4 705.44,-191.37 702.62,-186.66"/>
</a>
</g>
</g>
<!-- Node3&#45;&gt;Node2 -->
<g id="edge4_Node000003_Node000002" class="edge">
<title>Node3&#45;&gt;Node2</title>
<g id="a_edge4_Node000003_Node000002"><a xlink:title=" ">
<path fill="none" stroke="#63b8ff" d="M293.49,-130.2C315.2,-138.97 349.23,-151.5 380,-157.62 449.37,-171.42 529.73,-175.81 588.24,-176.95"/>
<polygon fill="#63b8ff" stroke="#63b8ff" points="592.97,-177.03 587.93,-179.19 591.69,-177.01 587.97,-176.94 587.97,-176.94 587.97,-176.94 591.69,-177.01 588.01,-174.69 592.97,-177.03"/>
</a>
</g>
</g>
<!-- Node4 -->
<g id="Node000004" class="node">
<title>Node4</title>
<g id="a_Node000004"><a xlink:href="../../dc/d75/classnpi_1_1_link_host.html#a6cd9c1bd41b58506f19e67a257f84043" target="_top" xlink:title="Retrieve the raw pointer to the hosted object.">
<polygon fill="white" stroke="none" points="534,-148.25 404,-148.25 404,-129 534,-129 534,-148.25"/>
<text xml:space="preserve" text-anchor="middle" x="469" y="-133.8" font-family="Consolas" font-size="11.00">npi::LinkHost::get_</text>
</a>
</g>
</g>
<!-- Node3&#45;&gt;Node4 -->
<g id="edge5_Node000003_Node000004" class="edge">
<title>Node3&#45;&gt;Node4</title>
<g id="a_edge5_Node000003_Node000004"><a xlink:title=" ">
<path fill="none" stroke="#63b8ff" d="M343.8,-127.28C361.62,-128.9 380.65,-130.64 398.32,-132.26"/>
<polygon fill="#63b8ff" stroke="#63b8ff" points="403.05,-132.69 397.86,-134.48 401.77,-132.57 398.07,-132.24 398.07,-132.24 398.07,-132.24 401.77,-132.57 398.27,-129.99 403.05,-132.69"/>
</a>
</g>
</g>
<!-- Node5 -->
<g id="Node000005" class="node">
<title>Node5</title>
<g id="a_Node000005"><a xlink:href="../../dc/d75/classnpi_1_1_link_host.html#af25e157f0b5ab97c2b97cc0b4612f02a" target="_top" xlink:title="Check whether two LinkHost instances refer to the same object and observers (universal and local)....">
<polygon fill="white" stroke="none" points="543,-111.25 395,-111.25 395,-92 543,-92 543,-111.25"/>
<text xml:space="preserve" text-anchor="middle" x="469" y="-96.8" font-family="Consolas" font-size="11.00">npi::LinkHost::isSame_</text>
</a>
</g>
</g>
<!-- Node3&#45;&gt;Node5 -->
<g id="edge6_Node000003_Node000005" class="edge">
<title>Node3&#45;&gt;Node5</title>
<g id="a_edge6_Node000003_Node000005"><a xlink:title=" ">
<path fill="none" stroke="#63b8ff" d="M343.8,-113.6C358.6,-112.18 374.24,-110.67 389.24,-109.22"/>
<polygon fill="#63b8ff" stroke="#63b8ff" points="393.96,-108.77 389.2,-111.49 392.69,-108.89 388.98,-109.25 388.98,-109.25 388.98,-109.25 392.69,-108.89 388.77,-107.01 393.96,-108.77"/>
</a>
</g>
</g>
<!-- Node6 -->
<g id="Node000006" class="node">
<title>Node6</title>
<g id="a_Node000006"><a xlink:href="../../dc/d75/classnpi_1_1_link_host.html#a261da7011f41392296e60109db01459e" target="_top" xlink:title="Friend declarations of LinkFromThis class.">
<polygon fill="white" stroke="none" points="558,-56.25 380,-56.25 380,-37 558,-37 558,-56.25"/>
<text xml:space="preserve" text-anchor="middle" x="469" y="-41.8" font-family="Consolas" font-size="11.00">npi::LinkHost::LinkFromThis</text>
</a>
</g>
</g>
<!-- Node3&#45;&gt;Node6 -->
<g id="edge8_Node000003_Node000006" class="edge">
<title>Node3&#45;&gt;Node6</title>
<g id="a_edge8_Node000003_Node000006"><a xlink:title=" ">
<path fill="none" stroke="#63b8ff" d="M296.35,-111.1C332.31,-97.6 398.05,-72.9 436.9,-58.31"/>
<polygon fill="#63b8ff" stroke="#63b8ff" points="441.29,-56.66 437.4,-60.52 440.09,-57.11 436.61,-58.42 436.61,-58.42 436.61,-58.42 440.09,-57.11 435.82,-56.31 441.29,-56.66"/>
</a>
</g>
</g>
<!-- Node7 -->
<g id="Node000007" class="node">
<title>Node7</title>
<g id="a_Node000007"><a xlink:href="../../dc/d75/classnpi_1_1_link_host.html#a8621c5f37a5de093341d6dc2f683b31a" target="_top" xlink:title="Reset the host, releasing the object and invalidating all links.">
<polygon fill="white" stroke="none" points="540,-19.25 398,-19.25 398,0 540,0 540,-19.25"/>
<text xml:space="preserve" text-anchor="middle" x="469" y="-4.8" font-family="Consolas" font-size="11.00">npi::LinkHost::reset_</text>
</a>
</g>
</g>
<!-- Node3&#45;&gt;Node7 -->
<g id="edge10_Node000003_Node000007" class="edge">
<title>Node3&#45;&gt;Node7</title>
<g id="a_edge10_Node000003_Node000007"><a xlink:title=" ">
<path fill="none" stroke="#63b8ff" d="M278.94,-111.22C295.57,-92.16 336.18,-49.01 380,-27.62 385.26,-25.06 390.86,-22.86 396.6,-20.97"/>
<polygon fill="#63b8ff" stroke="#63b8ff" points="401.21,-19.55 397.09,-23.18 399.98,-19.93 396.43,-21.03 396.43,-21.03 396.43,-21.03 399.98,-19.93 395.77,-18.88 401.21,-19.55"/>
</a>
</g>
</g>
<!-- Node5&#45;&gt;Node2 -->
<g id="edge7_Node000005_Node000002" class="edge">
<title>Node5&#45;&gt;Node2</title>
<g id="a_edge7_Node000005_Node000002"><a xlink:title=" ">
<path fill="none" stroke="#63b8ff" d="M527.88,-111.15C538.05,-113.47 548.43,-116.28 558,-119.62 591.42,-131.31 627.46,-151.08 649.38,-163.99"/>
<polygon fill="#63b8ff" stroke="#63b8ff" points="653.6,-166.49 648.15,-165.87 652.49,-165.84 649.3,-163.94 649.3,-163.94 649.3,-163.94 652.49,-165.84 650.45,-162 653.6,-166.49"/>
</a>
</g>
</g>
<!-- Node6&#45;&gt;Node6 -->
<g id="edge9_Node000006_Node000006" class="edge">
<title>Node6&#45;&gt;Node6</title>
<g id="a_edge9_Node000006_Node000006"><a xlink:title=" ">
<path fill="none" stroke="#63b8ff" d="M438.83,-55.97C423.19,-64.74 433.24,-74.25 469,-74.25 500.29,-74.25 511.9,-66.97 503.83,-59.27"/>
<polygon fill="#63b8ff" stroke="#63b8ff" points="500.16,-56.67 505.55,-57.73 501.21,-57.41 504.24,-59.56 504.24,-59.56 504.24,-59.56 501.21,-57.41 502.94,-61.4 500.16,-56.67"/>
</a>
</g>
</g>
</g>
</svg>
