<?xml version="1.0" encoding="UTF-8" standalone="no"?>
<!DOCTYPE svg PUBLIC "-//W3C//DTD SVG 1.1//EN"
 "http://www.w3.org/Graphics/SVG/1.1/DTD/svg11.dtd">
<!-- Generated by graphviz version 14.0.0 (20250921.2048)
 -->
<!-- Title: npi::LinkHost::operator!= Pages: 1 -->
<svg width="340pt" height="45pt"
 viewBox="0.00 0.00 340.00 45.00" xmlns="http://www.w3.org/2000/svg" xmlns:xlink="http://www.w3.org/1999/xlink">
<g id="graph0" class="graph" transform="scale(1 1) rotate(0) translate(4 41.25)">
<title>npi::LinkHost::operator!=</title>
<!-- Node1 -->
<g id="Node000001" class="node">
<title>Node1</title>
<g id="a_Node000001"><a xlink:title="Compare this LinkHost object to a Link object for inequality.">
<polygon fill="#999999" stroke="none" points="166,-19.25 0,-19.25 0,0 166,0 166,-19.25"/>
<text xml:space="preserve" text-anchor="start" x="8" y="-5.8" font-family="Consolas" font-weight="bold" font-size="11.00">npi::LinkHost::operator!=</text>
</a>
</g>
</g>
<!-- Node2 -->
<g id="Node000002" class="node">
<title>Node2</title>
<g id="a_Node000002"><a xlink:href="../../dc/d75/classnpi_1_1_link_host.html#a25697cc431ea53124dec223f597abf0e" target="_top" xlink:title="Friend declarations of Link class.">
<polygon fill="white" stroke="none" points="332,-19.25 202,-19.25 202,0 332,0 332,-19.25"/>
<text xml:space="preserve" text-anchor="middle" x="267" y="-4.8" font-family="Consolas" font-size="11.00">npi::LinkHost::Link</text>
</a>
</g>
</g>
<!-- Node1&#45;&gt;Node2 -->
<g id="edge1_Node000001_Node000002" class="edge">
<title>Node1&#45;&gt;Node2</title>
<g id="a_edge1_Node000001_Node000002"><a xlink:title=" ">
<path fill="none" stroke="#63b8ff" d="M165.95,-9.62C176.03,-9.62 186.26,-9.62 196.13,-9.62"/>
<polygon fill="#63b8ff" stroke="#63b8ff" points="201.02,-9.63 196.02,-11.88 199.73,-9.63 196.02,-9.63 196.02,-9.63 196.02,-9.63 199.73,-9.63 196.02,-7.38 201.02,-9.63"/>
</a>
</g>
</g>
<!-- Node2&#45;&gt;Node2 -->
<g id="edge2_Node000002_Node000002" class="edge">
<title>Node2&#45;&gt;Node2</title>
<g id="a_edge2_Node000002_Node000002"><a xlink:title=" ">
<path fill="none" stroke="#63b8ff" d="M239.1,-18.97C224.64,-27.74 233.94,-37.25 267,-37.25 295.41,-37.25 306.28,-30.22 299.59,-22.68"/>
<polygon fill="#63b8ff" stroke="#63b8ff" points="295.85,-19.72 301.17,-21.06 296.86,-20.52 299.77,-22.83 299.77,-22.83 299.77,-22.83 296.86,-20.52 298.37,-24.59 295.85,-19.72"/>
</a>
</g>
</g>
</g>
</svg>
