<?xml version="1.0" encoding="UTF-8" standalone="no"?>
<!DOCTYPE svg PUBLIC "-//W3C//DTD SVG 1.1//EN"
 "http://www.w3.org/Graphics/SVG/1.1/DTD/svg11.dtd">
<!-- Generated by graphviz version 14.0.0 (20250921.2048)
 -->
<!-- Title: npi::LinkHost::get_ Pages: 1 -->
<svg width="560pt" height="360pt"
 viewBox="0.00 0.00 560.00 360.00" xmlns="http://www.w3.org/2000/svg" xmlns:xlink="http://www.w3.org/1999/xlink">
<g id="graph0" class="graph" transform="scale(1 1) rotate(0) translate(4 356.25)">
<title>npi::LinkHost::get_</title>
<!-- Node1 -->
<g id="Node000001" class="node">
<title>Node1</title>
<g id="a_Node000001"><a xlink:title="Retrieve the raw pointer to the hosted object.">
<polygon fill="#999999" stroke="none" points="552,-167.25 422,-167.25 422,-148 552,-148 552,-167.25"/>
<text xml:space="preserve" text-anchor="start" x="430" y="-153.8" font-family="Consolas" font-weight="bold" font-size="11.00">npi::LinkHost::get_</text>
</a>
</g>
</g>
<!-- Node2 -->
<g id="Node000002" class="node">
<title>Node2</title>
<g id="a_Node000002"><a xlink:href="../../dc/d75/classnpi_1_1_link_host.html#a59021c0af01b28c7a549c8ce16ef0368" target="_top" xlink:title="Internal helper to assign from another polymorphically related LinkHost object.">
<polygon fill="white" stroke="none" points="377,-315.25 229,-315.25 229,-296 377,-296 377,-315.25"/>
<text xml:space="preserve" text-anchor="middle" x="303" y="-300.8" font-family="Consolas" font-size="11.00">npi::LinkHost::assign_</text>
</a>
</g>
</g>
<!-- Node1&#45;&gt;Node2 -->
<g id="edge1_Node000001_Node000002" class="edge">
<title>Node1&#45;&gt;Node2</title>
<g id="a_edge1_Node000001_Node000002"><a xlink:title=" ">
<path fill="none" stroke="#63b8ff" d="M479.1,-172.31C465.44,-199.66 432.23,-258.28 386,-287.62 380.59,-291.06 374.61,-293.85 368.43,-296.11"/>
<polygon fill="#63b8ff" stroke="#63b8ff" points="481.18,-168.06 481,-173.54 480.61,-169.21 478.98,-172.55 478.98,-172.55 478.98,-172.55 480.61,-169.21 476.96,-171.56 481.18,-168.06"/>
</a>
</g>
</g>
<!-- Node5 -->
<g id="Node000005" class="node">
<title>Node5</title>
<g id="a_Node000005"><a xlink:href="../../dc/d75/classnpi_1_1_link_host.html#a61f11562475a5e48d58ddc0e85a956b7" target="_top" xlink:title="Check whether the host owns an object.">
<polygon fill="white" stroke="none" points="380,-278.25 226,-278.25 226,-259 380,-259 380,-278.25"/>
<text xml:space="preserve" text-anchor="middle" x="303" y="-263.8" font-family="Consolas" font-size="11.00">npi::LinkHost::isValid_</text>
</a>
</g>
</g>
<!-- Node1&#45;&gt;Node5 -->
<g id="edge4_Node000001_Node000005" class="edge">
<title>Node1&#45;&gt;Node5</title>
<g id="a_edge4_Node000001_Node000005"><a xlink:title=" ">
<path fill="none" stroke="#63b8ff" d="M475.19,-171.61C458.43,-192.27 424.11,-230.66 386,-250.62 379.42,-254.07 372.2,-256.86 364.87,-259.12"/>
<polygon fill="#63b8ff" stroke="#63b8ff" points="478.12,-167.95 476.75,-173.26 477.32,-168.95 475,-171.86 475,-171.86 475,-171.86 477.32,-168.95 473.24,-170.45 478.12,-167.95"/>
</a>
</g>
</g>
<!-- Node7 -->
<g id="Node000007" class="node">
<title>Node7</title>
<g id="a_Node000007"><a xlink:href="../../dc/d75/classnpi_1_1_link_host.html#a6fc6cc45006e9e852b019166c75ce24b" target="_top" xlink:title="Inequality comparison with a null pointer.">
<polygon fill="white" stroke="none" points="386,-241.25 220,-241.25 220,-222 386,-222 386,-241.25"/>
<text xml:space="preserve" text-anchor="middle" x="303" y="-226.8" font-family="Consolas" font-size="11.00">npi::LinkHost::operator!=</text>
</a>
</g>
</g>
<!-- Node1&#45;&gt;Node7 -->
<g id="edge6_Node000001_Node000007" class="edge">
<title>Node1&#45;&gt;Node7</title>
<g id="a_edge6_Node000001_Node000007"><a xlink:title=" ">
<path fill="none" stroke="#63b8ff" d="M466.9,-170.58C447.37,-183.27 415.75,-202.31 386,-213.62 377.28,-216.94 367.8,-219.72 358.47,-222.03"/>
<polygon fill="#63b8ff" stroke="#63b8ff" points="471.06,-167.85 468.11,-172.47 469.99,-168.55 466.88,-170.59 466.88,-170.59 466.88,-170.59 469.99,-168.55 465.64,-168.71 471.06,-167.85"/>
</a>
</g>
</g>
<!-- Node8 -->
<g id="Node000008" class="node">
<title>Node8</title>
<g id="a_Node000008"><a xlink:href="../../dc/d75/classnpi_1_1_link_host.html#aa556b0640e3ba8d6a555fb8b2a615e8b" target="_top" xlink:title="Dereference operator to obtain a reference to the hosted object.">
<polygon fill="white" stroke="none" points="383,-204.25 223,-204.25 223,-185 383,-185 383,-204.25"/>
<text xml:space="preserve" text-anchor="middle" x="303" y="-189.8" font-family="Consolas" font-size="11.00">npi::LinkHost::operator*</text>
</a>
</g>
</g>
<!-- Node1&#45;&gt;Node8 -->
<g id="edge7_Node000001_Node000008" class="edge">
<title>Node1&#45;&gt;Node8</title>
<g id="a_edge7_Node000001_Node000008"><a xlink:title=" ">
<path fill="none" stroke="#63b8ff" d="M432.87,-168.43C406.99,-173.69 376.14,-179.96 351.11,-185.05"/>
<polygon fill="#63b8ff" stroke="#63b8ff" points="437.46,-167.49 433.01,-170.69 436.21,-167.75 432.56,-168.49 432.56,-168.49 432.56,-168.49 436.21,-167.75 432.11,-166.28 437.46,-167.49"/>
</a>
</g>
</g>
<!-- Node9 -->
<g id="Node000009" class="node">
<title>Node9</title>
<g id="a_Node000009"><a xlink:href="../../dc/d75/classnpi_1_1_link_host.html#a1b291b8559bbd1e5a2d53076334aa932" target="_top" xlink:title="Pointer&#45;like access operator.">
<polygon fill="white" stroke="none" points="386,-167.25 220,-167.25 220,-148 386,-148 386,-167.25"/>
<text xml:space="preserve" text-anchor="middle" x="303" y="-152.8" font-family="Consolas" font-size="11.00">npi::LinkHost::operator&#45;&gt;</text>
</a>
</g>
</g>
<!-- Node1&#45;&gt;Node9 -->
<g id="edge8_Node000001_Node000009" class="edge">
<title>Node1&#45;&gt;Node9</title>
<g id="a_edge8_Node000001_Node000009"><a xlink:title=" ">
<path fill="none" stroke="#63b8ff" d="M416.02,-157.62C406.18,-157.62 396,-157.62 385.97,-157.62"/>
<polygon fill="#63b8ff" stroke="#63b8ff" points="420.87,-157.63 415.87,-159.88 419.59,-157.63 415.87,-157.63 415.87,-157.63 415.87,-157.63 419.59,-157.63 415.87,-155.38 420.87,-157.63"/>
</a>
</g>
</g>
<!-- Node10 -->
<g id="Node000010" class="node">
<title>Node10</title>
<g id="a_Node000010"><a xlink:href="../../dc/d75/classnpi_1_1_link_host.html#a81ef04ad98a7dfdfcd17fd52fd3f43a1" target="_top" xlink:title="Compare this LinkHost object to a Link object for equality.">
<polygon fill="white" stroke="none" points="386,-130.25 220,-130.25 220,-111 386,-111 386,-130.25"/>
<text xml:space="preserve" text-anchor="middle" x="303" y="-115.8" font-family="Consolas" font-size="11.00">npi::LinkHost::operator==</text>
</a>
</g>
</g>
<!-- Node1&#45;&gt;Node10 -->
<g id="edge9_Node000001_Node000010" class="edge">
<title>Node1&#45;&gt;Node10</title>
<g id="a_edge9_Node000001_Node000010"><a xlink:title=" ">
<path fill="none" stroke="#63b8ff" d="M432.87,-146.82C406.99,-141.56 376.14,-135.29 351.11,-130.2"/>
<polygon fill="#63b8ff" stroke="#63b8ff" points="437.46,-147.76 432.11,-148.97 436.21,-147.5 432.56,-146.76 432.56,-146.76 432.56,-146.76 436.21,-147.5 433.01,-144.56 437.46,-147.76"/>
</a>
</g>
</g>
<!-- Node11 -->
<g id="Node000011" class="node">
<title>Node11</title>
<g id="a_Node000011"><a xlink:href="../../dc/d75/classnpi_1_1_link_host.html#aa86540af33b8e041066e4249d6f16005" target="_top" xlink:title="Compare this LinkHost object to another LinkHost object for equality.">
<polygon fill="white" stroke="none" points="386,-93.25 220,-93.25 220,-74 386,-74 386,-93.25"/>
<text xml:space="preserve" text-anchor="middle" x="303" y="-78.8" font-family="Consolas" font-size="11.00">npi::LinkHost::operator==</text>
</a>
</g>
</g>
<!-- Node1&#45;&gt;Node11 -->
<g id="edge10_Node000001_Node000011" class="edge">
<title>Node1&#45;&gt;Node11</title>
<g id="a_edge10_Node000001_Node000011"><a xlink:title=" ">
<path fill="none" stroke="#63b8ff" d="M466.9,-144.67C447.37,-131.98 415.75,-112.94 386,-101.62 377.28,-98.31 367.8,-95.53 358.47,-93.22"/>
<polygon fill="#63b8ff" stroke="#63b8ff" points="471.06,-147.4 465.64,-146.54 469.99,-146.7 466.88,-144.66 466.88,-144.66 466.88,-144.66 469.99,-146.7 468.11,-142.78 471.06,-147.4"/>
</a>
</g>
</g>
<!-- Node12 -->
<g id="Node000012" class="node">
<title>Node12</title>
<g id="a_Node000012"><a xlink:href="../../dc/d75/classnpi_1_1_link_host.html#af2ecaae32080f9da0eee819f217823c0" target="_top" xlink:title="Compare to raw pointer for equality.">
<polygon fill="white" stroke="none" points="386,-56.25 220,-56.25 220,-37 386,-37 386,-56.25"/>
<text xml:space="preserve" text-anchor="middle" x="303" y="-41.8" font-family="Consolas" font-size="11.00">npi::LinkHost::operator==</text>
</a>
</g>
</g>
<!-- Node1&#45;&gt;Node12 -->
<g id="edge11_Node000001_Node000012" class="edge">
<title>Node1&#45;&gt;Node12</title>
<g id="a_edge11_Node000001_Node000012"><a xlink:title=" ">
<path fill="none" stroke="#63b8ff" d="M475.19,-143.64C458.43,-122.98 424.11,-84.59 386,-64.62 379.42,-61.18 372.2,-58.39 364.87,-56.13"/>
<polygon fill="#63b8ff" stroke="#63b8ff" points="478.12,-147.3 473.24,-144.8 477.32,-146.3 475,-143.39 475,-143.39 475,-143.39 477.32,-146.3 476.75,-141.99 478.12,-147.3"/>
</a>
</g>
</g>
<!-- Node13 -->
<g id="Node000013" class="node">
<title>Node13</title>
<g id="a_Node000013"><a xlink:href="../../dc/d75/classnpi_1_1_link_host.html#a833c71cd7b0e106af7d070461b98e479" target="_top" xlink:title="Compare the stored pointer to a null pointer.">
<polygon fill="white" stroke="none" points="386,-19.25 220,-19.25 220,0 386,0 386,-19.25"/>
<text xml:space="preserve" text-anchor="middle" x="303" y="-4.8" font-family="Consolas" font-size="11.00">npi::LinkHost::operator==</text>
</a>
</g>
</g>
<!-- Node1&#45;&gt;Node13 -->
<g id="edge12_Node000001_Node000013" class="edge">
<title>Node1&#45;&gt;Node13</title>
<g id="a_edge12_Node000001_Node000013"><a xlink:title=" ">
<path fill="none" stroke="#63b8ff" d="M479.1,-142.94C465.44,-115.59 432.23,-56.97 386,-27.62 380.59,-24.19 374.61,-21.4 368.43,-19.14"/>
<polygon fill="#63b8ff" stroke="#63b8ff" points="481.18,-147.19 476.96,-143.69 480.61,-146.04 478.98,-142.7 478.98,-142.7 478.98,-142.7 480.61,-146.04 481,-141.71 481.18,-147.19"/>
</a>
</g>
</g>
<!-- Node3 -->
<g id="Node000003" class="node">
<title>Node3</title>
<g id="a_Node000003"><a xlink:href="../../dc/d75/classnpi_1_1_link_host.html#a490ac825e921d673a3a32c94e7058d1d" target="_top" xlink:title="Polymorphic converting copy constructor.">
<polygon fill="white" stroke="none" points="169,-352.25 15,-352.25 15,-333 169,-333 169,-352.25"/>
<text xml:space="preserve" text-anchor="middle" x="92" y="-337.8" font-family="Consolas" font-size="11.00">npi::LinkHost::LinkHost</text>
</a>
</g>
</g>
<!-- Node2&#45;&gt;Node3 -->
<g id="edge2_Node000002_Node000003" class="edge">
<title>Node2&#45;&gt;Node3</title>
<g id="a_edge2_Node000002_Node000003"><a xlink:title=" ">
<path fill="none" stroke="#63b8ff" d="M241.74,-316.29C211.87,-321.58 176.08,-327.92 147.09,-333.05"/>
<polygon fill="#63b8ff" stroke="#63b8ff" points="246.43,-315.46 241.9,-318.55 245.17,-315.69 241.51,-316.33 241.51,-316.33 241.51,-316.33 245.17,-315.69 241.12,-314.12 246.43,-315.46"/>
</a>
</g>
</g>
<!-- Node4 -->
<g id="Node000004" class="node">
<title>Node4</title>
<g id="a_Node000004"><a xlink:href="../../dc/d75/classnpi_1_1_link_host.html#aa7c182e77bd354c70fb694ac3b1a6d76" target="_top" xlink:title="Polymorphic assignment operator.">
<polygon fill="white" stroke="none" points="172,-315.25 12,-315.25 12,-296 172,-296 172,-315.25"/>
<text xml:space="preserve" text-anchor="middle" x="92" y="-300.8" font-family="Consolas" font-size="11.00">npi::LinkHost::operator=</text>
</a>
</g>
</g>
<!-- Node2&#45;&gt;Node4 -->
<g id="edge3_Node000002_Node000004" class="edge">
<title>Node2&#45;&gt;Node4</title>
<g id="a_edge3_Node000002_Node000004"><a xlink:title=" ">
<path fill="none" stroke="#63b8ff" d="M223.08,-305.62C206.35,-305.62 188.69,-305.62 171.96,-305.62"/>
<polygon fill="#63b8ff" stroke="#63b8ff" points="227.98,-305.63 222.98,-307.88 226.7,-305.63 222.98,-305.63 222.98,-305.63 222.98,-305.63 226.7,-305.63 222.98,-303.38 227.98,-305.63"/>
</a>
</g>
</g>
<!-- Node6 -->
<g id="Node000006" class="node">
<title>Node6</title>
<g id="a_Node000006"><a xlink:href="../../dc/d75/classnpi_1_1_link_host.html#a3808e1b2809ec5532d9cb4e8d50741dd" target="_top" xlink:title="Explicit boolean conversion operator (e.g. if(linkHost){...}).">
<polygon fill="white" stroke="none" points="184,-278.25 0,-278.25 0,-259 184,-259 184,-278.25"/>
<text xml:space="preserve" text-anchor="middle" x="92" y="-263.8" font-family="Consolas" font-size="11.00">npi::LinkHost::operator bool</text>
</a>
</g>
</g>
<!-- Node5&#45;&gt;Node6 -->
<g id="edge5_Node000005_Node000006" class="edge">
<title>Node5&#45;&gt;Node6</title>
<g id="a_edge5_Node000005_Node000006"><a xlink:title=" ">
<path fill="none" stroke="#63b8ff" d="M220.07,-268.62C208.17,-268.62 195.85,-268.62 183.79,-268.62"/>
<polygon fill="#63b8ff" stroke="#63b8ff" points="225.03,-268.63 220.03,-270.88 223.75,-268.63 220.03,-268.63 220.03,-268.63 220.03,-268.63 223.75,-268.63 220.03,-266.38 225.03,-268.63"/>
</a>
</g>
</g>
</g>
</svg>
