<?xml version="1.0" encoding="UTF-8" standalone="no"?>
<!DOCTYPE svg PUBLIC "-//W3C//DTD SVG 1.1//EN"
 "http://www.w3.org/Graphics/SVG/1.1/DTD/svg11.dtd">
<!-- Generated by graphviz version 14.0.0 (20250921.2048)
 -->
<!-- Title: npi::LinkHost::operator bool Pages: 1 -->
<svg width="548pt" height="27pt"
 viewBox="0.00 0.00 548.00 27.00" xmlns="http://www.w3.org/2000/svg" xmlns:xlink="http://www.w3.org/1999/xlink">
<g id="graph0" class="graph" transform="scale(1 1) rotate(0) translate(4 23.25)">
<title>npi::LinkHost::operator bool</title>
<!-- Node1 -->
<g id="Node000001" class="node">
<title>Node1</title>
<g id="a_Node000001"><a xlink:title="Explicit boolean conversion operator (e.g. if(linkHost){...}).">
<polygon fill="#999999" stroke="none" points="184,-19.25 0,-19.25 0,0 184,0 184,-19.25"/>
<text xml:space="preserve" text-anchor="start" x="8" y="-5.8" font-family="Consolas" font-weight="bold" font-size="11.00">npi::LinkHost::operator bool</text>
</a>
</g>
</g>
<!-- Node2 -->
<g id="Node000002" class="node">
<title>Node2</title>
<g id="a_Node000002"><a xlink:href="../../dc/d75/classnpi_1_1_link_host.html#a61f11562475a5e48d58ddc0e85a956b7" target="_top" xlink:title="Check whether the host owns an object.">
<polygon fill="white" stroke="none" points="374,-19.25 220,-19.25 220,0 374,0 374,-19.25"/>
<text xml:space="preserve" text-anchor="middle" x="297" y="-4.8" font-family="Consolas" font-size="11.00">npi::LinkHost::isValid_</text>
</a>
</g>
</g>
<!-- Node1&#45;&gt;Node2 -->
<g id="edge1_Node000001_Node000002" class="edge">
<title>Node1&#45;&gt;Node2</title>
<g id="a_edge1_Node000001_Node000002"><a xlink:title=" ">
<path fill="none" stroke="#63b8ff" d="M183.81,-9.62C193.87,-9.62 204.06,-9.62 214,-9.62"/>
<polygon fill="#63b8ff" stroke="#63b8ff" points="218.93,-9.63 213.93,-11.88 217.65,-9.63 213.93,-9.63 213.93,-9.63 213.93,-9.63 217.65,-9.63 213.93,-7.38 218.93,-9.63"/>
</a>
</g>
</g>
<!-- Node3 -->
<g id="Node000003" class="node">
<title>Node3</title>
<g id="a_Node000003"><a xlink:href="../../dc/d75/classnpi_1_1_link_host.html#a6cd9c1bd41b58506f19e67a257f84043" target="_top" xlink:title="Retrieve the raw pointer to the hosted object.">
<polygon fill="white" stroke="none" points="540,-19.25 410,-19.25 410,0 540,0 540,-19.25"/>
<text xml:space="preserve" text-anchor="middle" x="475" y="-4.8" font-family="Consolas" font-size="11.00">npi::LinkHost::get_</text>
</a>
</g>
</g>
<!-- Node2&#45;&gt;Node3 -->
<g id="edge2_Node000002_Node000003" class="edge">
<title>Node2&#45;&gt;Node3</title>
<g id="a_edge2_Node000002_Node000003"><a xlink:title=" ">
<path fill="none" stroke="#63b8ff" d="M373.92,-9.62C383.93,-9.62 394.16,-9.62 404.07,-9.62"/>
<polygon fill="#63b8ff" stroke="#63b8ff" points="408.98,-9.63 403.98,-11.88 407.69,-9.63 403.98,-9.63 403.98,-9.63 403.98,-9.63 407.69,-9.63 403.98,-7.38 408.98,-9.63"/>
</a>
</g>
</g>
</g>
</svg>
