<?xml version="1.0" encoding="UTF-8" standalone="no"?>
<!DOCTYPE svg PUBLIC "-//W3C//DTD SVG 1.1//EN"
 "http://www.w3.org/Graphics/SVG/1.1/DTD/svg11.dtd">
<!-- Generated by graphviz version 14.0.0 (20250921.2048)
 -->
<!-- Title: npi::LinkHost::weakHost_ Pages: 1 -->
<svg width="382pt" height="45pt"
 viewBox="0.00 0.00 382.00 45.00" xmlns="http://www.w3.org/2000/svg" xmlns:xlink="http://www.w3.org/1999/xlink">

<svg id="main" version="1.1" xmlns="http://www.w3.org/2000/svg" xmlns:xlink="http://www.w3.org/1999/xlink" xml:space="preserve">

<style type="text/css"><![CDATA[
.node, .edge {opacity: 0.7;}
.node.selected, .edge.selected {opacity: 1;}
.edge:hover path { stroke: red; }
.edge:hover polygon { stroke: red; fill: red; }
]]></style>
<script type="application/ecmascript" xlink:href="../../svg.min.js"/>
<svg id="graph" class="graph">
<g id="graph0" class="graph" transform="scale(1 1) rotate(0) translate(4 41.25)">
<title>npi::LinkHost::weakHost_</title>
<!-- Node1 -->
<g id="Node000001" class="node">
<title>Node1</title>
<g id="a_Node000001"><a xlink:title="Create a LinkWeakHost object i.e. weak reference to LinkHost. Similar to what std::weak_ptr does for ...">
<polygon fill="#999999" stroke="none" points="160,-19.25 0,-19.25 0,0 160,0 160,-19.25"/>
<text xml:space="preserve" text-anchor="start" x="8" y="-5.8" font-family="Consolas" font-weight="bold" font-size="11.00">npi::LinkHost::weakHost_</text>
</a>
</g>
</g>
<!-- Node2 -->
<g id="Node000002" class="node">
<title>Node2</title>
<g id="a_Node000002"><a xlink:href="../../dc/d75/classnpi_1_1_link_host.html#a20cedfa1d9d9b2d5a868a5f48ed004e6" target="_top" xlink:title="Friend declarations of LinkWeakHost class.">
<polygon fill="white" stroke="none" points="374,-19.25 196,-19.25 196,0 374,0 374,-19.25"/>
<text xml:space="preserve" text-anchor="middle" x="285" y="-4.8" font-family="Consolas" font-size="11.00">npi::LinkHost::LinkWeakHost</text>
</a>
</g>
</g>
<!-- Node1&#45;&gt;Node2 -->
<g id="edge1_Node000001_Node000002" class="edge">
<title>Node1&#45;&gt;Node2</title>
<g id="a_edge1_Node000001_Node000002"><a xlink:title=" ">
<path fill="none" stroke="#63b8ff" d="M159.78,-9.62C169.74,-9.62 180.02,-9.62 190.19,-9.62"/>
<polygon fill="#63b8ff" stroke="#63b8ff" points="194.95,-9.63 189.95,-11.88 193.67,-9.63 189.95,-9.63 189.95,-9.63 189.95,-9.63 193.67,-9.63 189.95,-7.38 194.95,-9.63"/>
</a>
</g>
</g>
<!-- Node2&#45;&gt;Node2 -->
<g id="edge2_Node000002_Node000002" class="edge">
<title>Node2&#45;&gt;Node2</title>
<g id="a_edge2_Node000002_Node000002"><a xlink:title=" ">
<path fill="none" stroke="#63b8ff" d="M253.92,-18.97C237.8,-27.74 248.16,-37.25 285,-37.25 317.23,-37.25 329.19,-29.97 320.88,-22.27"/>
<polygon fill="#63b8ff" stroke="#63b8ff" points="317.08,-19.66 322.48,-20.64 318.14,-20.38 321.2,-22.49 321.2,-22.49 321.2,-22.49 318.14,-20.38 319.93,-24.34 317.08,-19.66"/>
</a>
</g>
</g>
</g>
</svg>
</svg>

<style type='text/css'>
<![CDATA[
[data-mouse-over-selected='false'] { opacity: 0.7; }
[data-mouse-over-selected='true']  { opacity: 1.0; }
]]>
</style>
<script type="application/ecmascript"><![CDATA[
document.addEventListener('DOMContentLoaded', (event) => {
  highlightEdges();
  highlightAdjacentNodes();
});
]]></script>
</svg>
