<?xml version="1.0" encoding="UTF-8" standalone="no"?>
<!DOCTYPE svg PUBLIC "-//W3C//DTD SVG 1.1//EN"
 "http://www.w3.org/Graphics/SVG/1.1/DTD/svg11.dtd">
<!-- Generated by graphviz version 14.0.0 (20250921.2048)
 -->
<!-- Title: npi::LinkHost::operator= Pages: 1 -->
<!--zoomable 212 -->

<svg id="main" version="1.1" xmlns="http://www.w3.org/2000/svg" xmlns:xlink="http://www.w3.org/1999/xlink" xml:space="preserve" onload="init(evt)">

<style type="text/css"><![CDATA[
.node, .edge {opacity: 0.7;}
.node.selected, .edge.selected {opacity: 1;}
.edge:hover path { stroke: red; }
.edge:hover polygon { stroke: red; fill: red; }
]]></style>

<defs>
  <circle id="rim" cx="0" cy="0" r="7"/>
  <circle id="rim2" cx="0" cy="0" r="3.5"/>
  <g id="zoomPlus">
    <use xlink:href="#rim" fill="#404040"><set attributeName="fill" to="#808080" begin="zoomplus.mouseover" end="zoomplus.mouseout"/></use>
    <path d="M-4,0h8M0,-4v8" fill="none" stroke="white" stroke-width="1.5" pointer-events="none"/>
  </g>
  <g id="zoomMin">
    <use xlink:href="#rim" fill="#404040"><set attributeName="fill" to="#808080" begin="zoomminus.mouseover" end="zoomminus.mouseout"/></use>
    <path d="M-4,0h8" fill="none" stroke="white" stroke-width="1.5" pointer-events="none"/>
  </g>
  <g id="arrowUp" transform="translate(30 24)">
    <use xlink:href="#rim"/>
    <path pointer-events="none" fill="none" stroke="white" stroke-width="1.5" d="M0,-3.0v7 M-2.5,-0.5L0,-3.0L2.5,-0.5"/>
  </g>
  <g id="arrowRight" transform="rotate(90) translate(36 -43)">
    <use xlink:href="#rim"/>
    <path pointer-events="none" fill="none" stroke="white" stroke-width="1.5" d="M0,-3.0v7 M-2.5,-0.5L0,-3.0L2.5,-0.5"/>
  </g>
  <g id="arrowDown" transform="rotate(180) translate(-30 -48)">
    <use xlink:href="#rim"/>
    <path pointer-events="none" fill="none" stroke="white" stroke-width="1.5" d="M0,-3.0v7 M-2.5,-0.5L0,-3.0L2.5,-0.5"/>
  </g>
  <g id="arrowLeft" transform="rotate(270) translate(-36 17)">
    <use xlink:href="#rim"/>
    <path pointer-events="none" fill="none" stroke="white" stroke-width="1.5" d="M0,-3.0v7 M-2.5,-0.5L0,-3.0L2.5,-0.5"/>
  </g>
  <g id="resetDef">
    <use xlink:href="#rim2" fill="#404040"><set attributeName="fill" to="#808080" begin="reset.mouseover" end="reset.mouseout"/></use>
  </g>
</defs>
<script type="application/ecmascript">
var viewWidth = 756;
var viewHeight = 212;
var sectionId = 'dynsection-22';
</script>
<script type="application/ecmascript" xlink:href="../../svg.min.js"/>
<svg id="graph" class="graph">
<g id="viewport">
<title>npi::LinkHost::operator=</title>
<!-- Node1 -->
<g id="Node000001" class="node">
<title>Node1</title>
<g id="a_Node000001"><a xlink:title="Polymorphic assignment operator.">
<polygon fill="#999999" stroke="none" points="160,-168.25 0,-168.25 0,-149 160,-149 160,-168.25"/>
<text xml:space="preserve" text-anchor="start" x="8" y="-154.8" font-family="Consolas" font-weight="bold" font-size="11.00">npi::LinkHost::operator=</text>
</a>
</g>
</g>
<!-- Node2 -->
<g id="Node000002" class="node">
<title>Node2</title>
<g id="a_Node000002"><a xlink:href="../../dc/d75/classnpi_1_1_link_host.html#aaf61bab6d0dd4c11669a554a173e2994" target="_top" xlink:title="Friend declarations of LinkHost class with type as U. This makes any LinkHost class object a friend o...">
<polygon fill="white" stroke="none" points="748,-186.25 594,-186.25 594,-167 748,-167 748,-186.25"/>
<text xml:space="preserve" text-anchor="middle" x="671" y="-171.8" font-family="Consolas" font-size="11.00">npi::LinkHost::LinkHost</text>
</a>
</g>
</g>
<!-- Node1&#45;&gt;Node2 -->
<g id="edge1_Node000001_Node000002" class="edge">
<title>Node1&#45;&gt;Node2</title>
<g id="a_edge1_Node000001_Node000002"><a xlink:title=" ">
<path fill="none" stroke="#63b8ff" d="M159.92,-166.02C220.15,-171.28 305.23,-177.88 380,-180.62 459.06,-183.53 478.9,-182.04 558,-180.62 567.76,-180.45 577.99,-180.19 588.14,-179.89"/>
<polygon fill="#63b8ff" stroke="#63b8ff" points="592.88,-179.74 587.95,-182.14 591.6,-179.78 587.88,-179.89 587.88,-179.89 587.88,-179.89 591.6,-179.78 587.81,-177.65 592.88,-179.74"/>
</a>
</g>
</g>
<!-- Node3 -->
<g id="Node000003" class="node">
<title>Node3</title>
<g id="a_Node000003"><a xlink:href="../../dc/d75/classnpi_1_1_link_host.html#a59021c0af01b28c7a549c8ce16ef0368" target="_top" xlink:title="Internal helper to assign from another polymorphically related LinkHost object.">
<polygon fill="white" stroke="none" points="344,-130.25 196,-130.25 196,-111 344,-111 344,-130.25"/>
<text xml:space="preserve" text-anchor="middle" x="270" y="-115.8" font-family="Consolas" font-size="11.00">npi::LinkHost::assign_</text>
</a>
</g>
</g>
<!-- Node1&#45;&gt;Node3 -->
<g id="edge3_Node000001_Node000003" class="edge">
<title>Node1&#45;&gt;Node3</title>
<g id="a_edge3_Node000001_Node000003"><a xlink:title=" ">
<path fill="none" stroke="#63b8ff" d="M128.44,-149.04C155.05,-143.66 188.31,-136.93 215.8,-131.38"/>
<polygon fill="#63b8ff" stroke="#63b8ff" points="220.38,-130.45 215.93,-133.65 219.12,-130.71 215.48,-131.44 215.48,-131.44 215.48,-131.44 219.12,-130.71 215.03,-129.24 220.38,-130.45"/>
</a>
</g>
</g>
<!-- Node2&#45;&gt;Node2 -->
<g id="edge2_Node000002_Node000002" class="edge">
<title>Node2&#45;&gt;Node2</title>
<g id="a_edge2_Node000002_Node000002"><a xlink:title=" ">
<path fill="none" stroke="#63b8ff" d="M640.37,-185.97C624.49,-194.74 634.7,-204.25 671,-204.25 702.76,-204.25 714.55,-196.97 706.36,-189.27"/>
<polygon fill="#63b8ff" stroke="#63b8ff" points="702.62,-186.66 708.01,-187.68 703.68,-187.4 706.72,-189.52 706.72,-189.52 706.72,-189.52 703.68,-187.4 705.44,-191.37 702.62,-186.66"/>
</a>
</g>
</g>
<!-- Node3&#45;&gt;Node2 -->
<g id="edge4_Node000003_Node000002" class="edge">
<title>Node3&#45;&gt;Node2</title>
<g id="a_edge4_Node000003_Node000002"><a xlink:title=" ">
<path fill="none" stroke="#63b8ff" d="M293.49,-130.2C315.2,-138.97 349.23,-151.5 380,-157.62 449.37,-171.42 529.73,-175.81 588.24,-176.95"/>
<polygon fill="#63b8ff" stroke="#63b8ff" points="592.97,-177.03 587.93,-179.19 591.69,-177.01 587.97,-176.94 587.97,-176.94 587.97,-176.94 591.69,-177.01 588.01,-174.69 592.97,-177.03"/>
</a>
</g>
</g>
<!-- Node4 -->
<g id="Node000004" class="node">
<title>Node4</title>
<g id="a_Node000004"><a xlink:href="../../dc/d75/classnpi_1_1_link_host.html#a6cd9c1bd41b58506f19e67a257f84043" target="_top" xlink:title="Retrieve the raw pointer to the hosted object.">
<polygon fill="white" stroke="none" points="534,-148.25 404,-148.25 404,-129 534,-129 534,-148.25"/>
<text xml:space="preserve" text-anchor="middle" x="469" y="-133.8" font-family="Consolas" font-size="11.00">npi::LinkHost::get_</text>
</a>
</g>
</g>
<!-- Node3&#45;&gt;Node4 -->
<g id="edge5_Node000003_Node000004" class="edge">
<title>Node3&#45;&gt;Node4</title>
<g id="a_edge5_Node000003_Node000004"><a xlink:title=" ">
<path fill="none" stroke="#63b8ff" d="M343.8,-127.28C361.62,-128.9 380.65,-130.64 398.32,-132.26"/>
<polygon fill="#63b8ff" stroke="#63b8ff" points="403.05,-132.69 397.86,-134.48 401.77,-132.57 398.07,-132.24 398.07,-132.24 398.07,-132.24 401.77,-132.57 398.27,-129.99 403.05,-132.69"/>
</a>
</g>
</g>
<!-- Node5 -->
<g id="Node000005" class="node">
<title>Node5</title>
<g id="a_Node000005"><a xlink:href="../../dc/d75/classnpi_1_1_link_host.html#af25e157f0b5ab97c2b97cc0b4612f02a" target="_top" xlink:title="Check whether two LinkHost instances refer to the same object and observers (universal and local)....">
<polygon fill="white" stroke="none" points="543,-111.25 395,-111.25 395,-92 543,-92 543,-111.25"/>
<text xml:space="preserve" text-anchor="middle" x="469" y="-96.8" font-family="Consolas" font-size="11.00">npi::LinkHost::isSame_</text>
</a>
</g>
</g>
<!-- Node3&#45;&gt;Node5 -->
<g id="edge6_Node000003_Node000005" class="edge">
<title>Node3&#45;&gt;Node5</title>
<g id="a_edge6_Node000003_Node000005"><a xlink:title=" ">
<path fill="none" stroke="#63b8ff" d="M343.8,-113.6C358.6,-112.18 374.24,-110.67 389.24,-109.22"/>
<polygon fill="#63b8ff" stroke="#63b8ff" points="393.96,-108.77 389.2,-111.49 392.69,-108.89 388.98,-109.25 388.98,-109.25 388.98,-109.25 392.69,-108.89 388.77,-107.01 393.96,-108.77"/>
</a>
</g>
</g>
<!-- Node6 -->
<g id="Node000006" class="node">
<title>Node6</title>
<g id="a_Node000006"><a xlink:href="../../dc/d75/classnpi_1_1_link_host.html#a261da7011f41392296e60109db01459e" target="_top" xlink:title="Friend declarations of LinkFromThis class.">
<polygon fill="white" stroke="none" points="558,-56.25 380,-56.25 380,-37 558,-37 558,-56.25"/>
<text xml:space="preserve" text-anchor="middle" x="469" y="-41.8" font-family="Consolas" font-size="11.00">npi::LinkHost::LinkFromThis</text>
</a>
</g>
</g>
<!-- Node3&#45;&gt;Node6 -->
<g id="edge8_Node000003_Node000006" class="edge">
<title>Node3&#45;&gt;Node6</title>
<g id="a_edge8_Node000003_Node000006"><a xlink:title=" ">
<path fill="none" stroke="#63b8ff" d="M296.35,-111.1C332.31,-97.6 398.05,-72.9 436.9,-58.31"/>
<polygon fill="#63b8ff" stroke="#63b8ff" points="441.29,-56.66 437.4,-60.52 440.09,-57.11 436.61,-58.42 436.61,-58.42 436.61,-58.42 440.09,-57.11 435.82,-56.31 441.29,-56.66"/>
</a>
</g>
</g>
<!-- Node7 -->
<g id="Node000007" class="node">
<title>Node7</title>
<g id="a_Node000007"><a xlink:href="../../dc/d75/classnpi_1_1_link_host.html#a8621c5f37a5de093341d6dc2f683b31a" target="_top" xlink:title="Reset the host, releasing the object and invalidating all links.">
<polygon fill="white" stroke="none" points="540,-19.25 398,-19.25 398,0 540,0 540,-19.25"/>
<text xml:space="preserve" text-anchor="middle" x="469" y="-4.8" font-family="Consolas" font-size="11.00">npi::LinkHost::reset_</text>
</a>
</g>
</g>
<!-- Node3&#45;&gt;Node7 -->
<g id="edge10_Node000003_Node000007" class="edge">
<title>Node3&#45;&gt;Node7</title>
<g id="a_edge10_Node000003_Node000007"><a xlink:title=" ">
<path fill="none" stroke="#63b8ff" d="M278.94,-111.22C295.57,-92.16 336.18,-49.01 380,-27.62 385.26,-25.06 390.86,-22.86 396.6,-20.97"/>
<polygon fill="#63b8ff" stroke="#63b8ff" points="401.21,-19.55 397.09,-23.18 399.98,-19.93 396.43,-21.03 396.43,-21.03 396.43,-21.03 399.98,-19.93 395.77,-18.88 401.21,-19.55"/>
</a>
</g>
</g>
<!-- Node5&#45;&gt;Node2 -->
<g id="edge7_Node000005_Node000002" class="edge">
<title>Node5&#45;&gt;Node2</title>
<g id="a_edge7_Node000005_Node000002"><a xlink:title=" ">
<path fill="none" stroke="#63b8ff" d="M527.88,-111.15C538.05,-113.47 548.43,-116.28 558,-119.62 591.42,-131.31 627.46,-151.08 649.38,-163.99"/>
<polygon fill="#63b8ff" stroke="#63b8ff" points="653.6,-166.49 648.15,-165.87 652.49,-165.84 649.3,-163.94 649.3,-163.94 649.3,-163.94 652.49,-165.84 650.45,-162 653.6,-166.49"/>
</a>
</g>
</g>
<!-- Node6&#45;&gt;Node6 -->
<g id="edge9_Node000006_Node000006" class="edge">
<title>Node6&#45;&gt;Node6</title>
<g id="a_edge9_Node000006_Node000006"><a xlink:title=" ">
<path fill="none" stroke="#63b8ff" d="M438.83,-55.97C423.19,-64.74 433.24,-74.25 469,-74.25 500.29,-74.25 511.9,-66.97 503.83,-59.27"/>
<polygon fill="#63b8ff" stroke="#63b8ff" points="500.16,-56.67 505.55,-57.73 501.21,-57.41 504.24,-59.56 504.24,-59.56 504.24,-59.56 501.21,-57.41 502.94,-61.4 500.16,-56.67"/>
</a>
</g>
</g>
</g>
</svg>

<g id="navigator" transform="translate(0 0)" fill="#404254">
  <rect fill="#f2f5e9" fill-opacity="0.5" stroke="#606060" stroke-width=".5" x="0" y="0" width="60" height="60"/>
  <use id="zoomplus" xlink:href="#zoomPlus" x="17" y="9" onmousedown="handleZoom(evt,'in')"/>
  <use id="zoomminus" xlink:href="#zoomMin" x="42" y="9" onmousedown="handleZoom(evt,'out')"/>
  <use id="reset" xlink:href="#resetDef" x="30" y="36" onmousedown="handleReset()"/>
   <use id="arrowup" xlink:href="#arrowUp" x="0" y="0" onmousedown="handlePan(0,-1)"/>
  <use id="arrowright" xlink:href="#arrowRight" x="0" y="0" onmousedown="handlePan(1,0)"/>
  <use id="arrowdown" xlink:href="#arrowDown" x="0" y="0" onmousedown="handlePan(0,1)"/>
  <use id="arrowleft" xlink:href="#arrowLeft" x="0" y="0" onmousedown="handlePan(-1,0)"/>
</g>
<svg viewBox="0 0 15 15" width="100%" height="30px" preserveAspectRatio="xMaxYMin meet">
 <g id="arrow_out" transform="scale(0.3 0.3)">
  <a xlink:href="classnpi_1_1_link_host_aa7c182e77bd354c70fb694ac3b1a6d76_cgraph_org.svg" target="_base">
   <rect id="button" ry="5" rx="5" y="6" x="6" height="38" width="38"
        fill="#f2f5e9" fill-opacity="0.5" stroke="#606060" stroke-width="1.0"/>
   <path id="arrow"
     d="M 11.500037,31.436501 C 11.940474,20.09759 22.043105,11.32322 32.158766,21.979434 L 37.068811,17.246167 C 37.068811,17.246167 37.088388,32 37.088388,32 L 22.160133,31.978069 C 22.160133,31.978069 26.997745,27.140456 26.997745,27.140456 C 18.528582,18.264221 13.291696,25.230495 11.500037,31.436501 z"
     style="fill:#404040;"/>
  </a>
 </g>
</svg>

<style type='text/css'>
<![CDATA[
[data-mouse-over-selected='false'] { opacity: 0.7; }
[data-mouse-over-selected='true']  { opacity: 1.0; }
]]>
</style>
<script type="application/ecmascript"><![CDATA[
document.addEventListener('DOMContentLoaded', (event) => {
  highlightEdges();
  highlightAdjacentNodes();
});
]]></script>
</svg>
