<?xml version="1.0" encoding="UTF-8" standalone="no"?>
<!DOCTYPE svg PUBLIC "-//W3C//DTD SVG 1.1//EN"
 "http://www.w3.org/Graphics/SVG/1.1/DTD/svg11.dtd">
<!-- Generated by graphviz version 14.0.0 (20250921.2048)
 -->
<!-- Title: npi::LinkHost::LinkHost Pages: 1 -->
<svg width="352pt" height="45pt"
 viewBox="0.00 0.00 352.00 45.00" xmlns="http://www.w3.org/2000/svg" xmlns:xlink="http://www.w3.org/1999/xlink">
<g id="graph0" class="graph" transform="scale(1 1) rotate(0) translate(4 41.25)">
<title>npi::LinkHost::LinkHost</title>
<!-- Node1 -->
<g id="Node000001" class="node">
<title>Node1</title>
<g id="a_Node000001"><a xlink:title="Default copy constructor.">
<polygon fill="#999999" stroke="none" points="154,-19.25 0,-19.25 0,0 154,0 154,-19.25"/>
<text xml:space="preserve" text-anchor="start" x="8" y="-5.8" font-family="Consolas" font-weight="bold" font-size="11.00">npi::LinkHost::LinkHost</text>
</a>
</g>
</g>
<!-- Node2 -->
<g id="Node000002" class="node">
<title>Node2</title>
<g id="a_Node000002"><a xlink:href="../../dc/d75/classnpi_1_1_link_host.html#aaf61bab6d0dd4c11669a554a173e2994" target="_top" xlink:title="Friend declarations of LinkHost class with type as U. This makes any LinkHost class object a friend o...">
<polygon fill="white" stroke="none" points="344,-19.25 190,-19.25 190,0 344,0 344,-19.25"/>
<text xml:space="preserve" text-anchor="middle" x="267" y="-4.8" font-family="Consolas" font-size="11.00">npi::LinkHost::LinkHost</text>
</a>
</g>
</g>
<!-- Node1&#45;&gt;Node2 -->
<g id="edge1_Node000001_Node000002" class="edge">
<title>Node1&#45;&gt;Node2</title>
<g id="a_edge1_Node000001_Node000002"><a xlink:title=" ">
<path fill="none" stroke="#63b8ff" d="M153.92,-9.62C163.8,-9.62 173.95,-9.62 183.92,-9.62"/>
<polygon fill="#63b8ff" stroke="#63b8ff" points="188.88,-9.63 183.88,-11.88 187.6,-9.63 183.88,-9.63 183.88,-9.63 183.88,-9.63 187.6,-9.63 183.88,-7.38 188.88,-9.63"/>
</a>
</g>
</g>
<!-- Node2&#45;&gt;Node2 -->
<g id="edge2_Node000002_Node000002" class="edge">
<title>Node2&#45;&gt;Node2</title>
<g id="a_edge2_Node000002_Node000002"><a xlink:title=" ">
<path fill="none" stroke="#63b8ff" d="M238.19,-18.97C223.26,-27.74 232.86,-37.25 267,-37.25 296.34,-37.25 307.56,-30.22 300.65,-22.68"/>
<polygon fill="#63b8ff" stroke="#63b8ff" points="296.77,-19.71 302.11,-20.96 297.79,-20.49 300.74,-22.75 300.74,-22.75 300.74,-22.75 297.79,-20.49 299.37,-24.53 296.77,-19.71"/>
</a>
</g>
</g>
</g>
</svg>
