<?xml version="1.0" encoding="UTF-8" standalone="no"?>
<!DOCTYPE svg PUBLIC "-//W3C//DTD SVG 1.1//EN"
 "http://www.w3.org/Graphics/SVG/1.1/DTD/svg11.dtd">
<!-- Generated by graphviz version 14.0.0 (20250921.2048)
 -->
<!-- Title: npi::LinkHost::isSame_ Pages: 1 -->
<svg width="346pt" height="45pt"
 viewBox="0.00 0.00 346.00 45.00" xmlns="http://www.w3.org/2000/svg" xmlns:xlink="http://www.w3.org/1999/xlink">
<g id="graph0" class="graph" transform="scale(1 1) rotate(0) translate(4 41.25)">
<title>npi::LinkHost::isSame_</title>
<!-- Node1 -->
<g id="Node000001" class="node">
<title>Node1</title>
<g id="a_Node000001"><a xlink:title="Check whether two LinkHost instances refer to the same object and observers (universal and local)....">
<polygon fill="#999999" stroke="none" points="148,-19.25 0,-19.25 0,0 148,0 148,-19.25"/>
<text xml:space="preserve" text-anchor="start" x="8" y="-5.8" font-family="Consolas" font-weight="bold" font-size="11.00">npi::LinkHost::isSame_</text>
</a>
</g>
</g>
<!-- Node2 -->
<g id="Node000002" class="node">
<title>Node2</title>
<g id="a_Node000002"><a xlink:href="../../dc/d75/classnpi_1_1_link_host.html#aaf61bab6d0dd4c11669a554a173e2994" target="_top" xlink:title="Friend declarations of LinkHost class with type as U. This makes any LinkHost class object a friend o...">
<polygon fill="white" stroke="none" points="338,-19.25 184,-19.25 184,0 338,0 338,-19.25"/>
<text xml:space="preserve" text-anchor="middle" x="261" y="-4.8" font-family="Consolas" font-size="11.00">npi::LinkHost::LinkHost</text>
</a>
</g>
</g>
<!-- Node1&#45;&gt;Node2 -->
<g id="edge1_Node000001_Node000002" class="edge">
<title>Node1&#45;&gt;Node2</title>
<g id="a_edge1_Node000001_Node000002"><a xlink:title=" ">
<path fill="none" stroke="#63b8ff" d="M147.85,-9.62C157.73,-9.62 167.93,-9.62 177.95,-9.62"/>
<polygon fill="#63b8ff" stroke="#63b8ff" points="182.95,-9.63 177.95,-11.88 181.67,-9.63 177.95,-9.63 177.95,-9.63 177.95,-9.63 181.67,-9.63 177.95,-7.38 182.95,-9.63"/>
</a>
</g>
</g>
<!-- Node2&#45;&gt;Node2 -->
<g id="edge2_Node000002_Node000002" class="edge">
<title>Node2&#45;&gt;Node2</title>
<g id="a_edge2_Node000002_Node000002"><a xlink:title=" ">
<path fill="none" stroke="#63b8ff" d="M232.65,-18.97C217.95,-27.74 227.4,-37.25 261,-37.25 289.88,-37.25 300.92,-30.22 294.12,-22.68"/>
<polygon fill="#63b8ff" stroke="#63b8ff" points="290.31,-19.71 295.64,-21.01 291.32,-20.5 294.26,-22.79 294.26,-22.79 294.26,-22.79 291.32,-20.5 292.87,-24.56 290.31,-19.71"/>
</a>
</g>
</g>
</g>
</svg>
