<?xml version="1.0" encoding="UTF-8" standalone="no"?>
<!DOCTYPE svg PUBLIC "-//W3C//DTD SVG 1.1//EN"
 "http://www.w3.org/Graphics/SVG/1.1/DTD/svg11.dtd">
<!-- Generated by graphviz version 14.0.0 (20250921.2048)
 -->
<!-- Title: npi::LinkHost::swap_ Pages: 1 -->
<svg width="500pt" height="73pt"
 viewBox="0.00 0.00 500.00 73.00" xmlns="http://www.w3.org/2000/svg" xmlns:xlink="http://www.w3.org/1999/xlink">

<svg id="main" version="1.1" xmlns="http://www.w3.org/2000/svg" xmlns:xlink="http://www.w3.org/1999/xlink" xml:space="preserve">

<style type="text/css"><![CDATA[
.node, .edge {opacity: 0.7;}
.node.selected, .edge.selected {opacity: 1;}
.edge:hover path { stroke: red; }
.edge:hover polygon { stroke: red; fill: red; }
]]></style>
<script type="application/ecmascript" xlink:href="../../svg.min.js"/>
<svg id="graph" class="graph">
<g id="graph0" class="graph" transform="scale(1 1) rotate(0) translate(4 69.25)">
<title>npi::LinkHost::swap_</title>
<!-- Node1 -->
<g id="Node000001" class="node">
<title>Node1</title>
<g id="a_Node000001"><a xlink:title="Member swap.">
<polygon fill="#999999" stroke="none" points="136,-47.25 0,-47.25 0,-28 136,-28 136,-47.25"/>
<text xml:space="preserve" text-anchor="start" x="8" y="-33.8" font-family="Consolas" font-weight="bold" font-size="11.00">npi::LinkHost::swap_</text>
</a>
</g>
</g>
<!-- Node2 -->
<g id="Node000002" class="node">
<title>Node2</title>
<g id="a_Node000002"><a xlink:href="../../dc/d75/classnpi_1_1_link_host.html#aaf61bab6d0dd4c11669a554a173e2994" target="_top" xlink:title="Friend declarations of LinkHost class with type as U. This makes any LinkHost class object a friend o...">
<polygon fill="white" stroke="none" points="492,-47.25 338,-47.25 338,-28 492,-28 492,-47.25"/>
<text xml:space="preserve" text-anchor="middle" x="415" y="-32.8" font-family="Consolas" font-size="11.00">npi::LinkHost::LinkHost</text>
</a>
</g>
</g>
<!-- Node1&#45;&gt;Node2 -->
<g id="edge1_Node000001_Node000002" class="edge">
<title>Node1&#45;&gt;Node2</title>
<g id="a_edge1_Node000001_Node000002"><a xlink:title=" ">
<path fill="none" stroke="#63b8ff" d="M135.99,-44.33C147.97,-45.29 160.34,-46.12 172,-46.62 229.72,-49.14 244.27,-48.94 302,-46.62 311.78,-46.23 322.02,-45.65 332.18,-44.96"/>
<polygon fill="#63b8ff" stroke="#63b8ff" points="336.92,-44.63 332.09,-47.22 335.65,-44.72 331.94,-44.98 331.94,-44.98 331.94,-44.98 335.65,-44.72 331.78,-42.74 336.92,-44.63"/>
</a>
</g>
</g>
<!-- Node3 -->
<g id="Node000003" class="node">
<title>Node3</title>
<g id="a_Node000003"><a xlink:href="../../dc/d75/classnpi_1_1_link_host.html#ad0d05fff7907f2214e197ae246c6c1e0" target="_top" xlink:title="Swap two hosts.">
<polygon fill="white" stroke="none" points="302,-19.25 172,-19.25 172,0 302,0 302,-19.25"/>
<text xml:space="preserve" text-anchor="middle" x="237" y="-4.8" font-family="Consolas" font-size="11.00">npi::LinkHost::swap</text>
</a>
</g>
</g>
<!-- Node1&#45;&gt;Node3 -->
<g id="edge3_Node000001_Node000003" class="edge">
<title>Node1&#45;&gt;Node3</title>
<g id="a_edge3_Node000001_Node000003"><a xlink:title=" ">
<path fill="none" stroke="#63b8ff" d="M126,-28.07C141.02,-25.55 157.31,-22.82 172.64,-20.25"/>
<polygon fill="#63b8ff" stroke="#63b8ff" points="177.48,-19.44 172.92,-22.48 176.22,-19.65 172.55,-20.26 172.55,-20.26 172.55,-20.26 176.22,-19.65 172.18,-18.04 177.48,-19.44"/>
</a>
</g>
</g>
<!-- Node2&#45;&gt;Node2 -->
<g id="edge2_Node000002_Node000002" class="edge">
<title>Node2&#45;&gt;Node2</title>
<g id="a_edge2_Node000002_Node000002"><a xlink:title=" ">
<path fill="none" stroke="#63b8ff" d="M388.01,-46.97C374.02,-55.74 383.02,-65.25 415,-65.25 442.49,-65.25 453,-58.22 446.53,-50.68"/>
<polygon fill="#63b8ff" stroke="#63b8ff" points="442.93,-47.74 448.22,-49.16 443.92,-48.55 446.8,-50.9 446.8,-50.9 446.8,-50.9 443.92,-48.55 445.37,-52.65 442.93,-47.74"/>
</a>
</g>
</g>
<!-- Node3&#45;&gt;Node2 -->
<g id="edge4_Node000003_Node000002" class="edge">
<title>Node3&#45;&gt;Node2</title>
<g id="a_edge4_Node000003_Node000002"><a xlink:title=" ">
<path fill="none" stroke="#63b8ff" d="M298.08,-19.18C314.04,-21.72 331.37,-24.48 347.65,-27.07"/>
<polygon fill="#63b8ff" stroke="#63b8ff" points="352.39,-27.82 347.1,-29.26 351.13,-27.62 347.46,-27.04 347.46,-27.04 347.46,-27.04 351.13,-27.62 347.81,-24.82 352.39,-27.82"/>
</a>
</g>
</g>
<!-- Node3&#45;&gt;Node3 -->
<g id="edge5_Node000003_Node000003" class="edge">
<title>Node3&#45;&gt;Node3</title>
<g id="a_edge5_Node000003_Node000003"><a xlink:title=" ">
<path fill="none" stroke="#63b8ff" d="M211.38,-18.97C198.09,-27.74 206.63,-37.25 237,-37.25 262.62,-37.25 272.71,-30.48 267.25,-23.09"/>
<polygon fill="#63b8ff" stroke="#63b8ff" points="263.53,-19.78 268.76,-21.42 264.49,-20.63 267.26,-23.1 267.26,-23.1 267.26,-23.1 264.49,-20.63 265.77,-24.78 263.53,-19.78"/>
</a>
</g>
</g>
</g>
</svg>
</svg>

<style type='text/css'>
<![CDATA[
[data-mouse-over-selected='false'] { opacity: 0.7; }
[data-mouse-over-selected='true']  { opacity: 1.0; }
]]>
</style>
<script type="application/ecmascript"><![CDATA[
document.addEventListener('DOMContentLoaded', (event) => {
  highlightEdges();
  highlightAdjacentNodes();
});
]]></script>
</svg>
