<?xml version="1.0" encoding="UTF-8" standalone="no"?>
<!DOCTYPE svg PUBLIC "-//W3C//DTD SVG 1.1//EN"
 "http://www.w3.org/Graphics/SVG/1.1/DTD/svg11.dtd">
<!-- Generated by graphviz version 14.0.0 (20250921.2048)
 -->
<!-- Title: anonymous_namespace{Log::cpp}::msgHandler Pages: 1 -->
<svg width="1382pt" height="813pt"
 viewBox="0.00 0.00 1382.00 813.00" xmlns="http://www.w3.org/2000/svg" xmlns:xlink="http://www.w3.org/1999/xlink">
<g id="graph0" class="graph" transform="scale(1 1) rotate(0) translate(4 808.5)">
<title>anonymous_namespace{Log::cpp}::msgHandler</title>
<!-- Node1 -->
<g id="Node000001" class="node">
<title>Node1</title>
<g id="a_Node000001"><a xlink:title=" ">
<polygon fill="#999999" stroke="none" points="262,-477.88 0,-477.88 0,-458.62 262,-458.62 262,-477.88"/>
<text xml:space="preserve" text-anchor="start" x="8" y="-464.43" font-family="Consolas" font-weight="bold" font-size="11.00">anonymous_namespace{Log::cpp}::msgHandler</text>
</a>
</g>
</g>
<!-- Node2 -->
<g id="Node000002" class="node">
<title>Node2</title>
<g id="a_Node000002"><a xlink:href="../../d0/d61/classanonymous__namespace_02_log_8cpp_03_1_1_log_core.html#af85854d22c95e86c8802d7d864fcd350" target="_top" xlink:title=" ">
<polygon fill="white" stroke="none" points="428,-522.12 298,-522.12 298,-480.38 428,-480.38 428,-522.12"/>
<text xml:space="preserve" text-anchor="start" x="306" y="-507.68" font-family="Consolas" font-size="11.00">anonymous_namespace</text>
<text xml:space="preserve" text-anchor="start" x="306" y="-496.43" font-family="Consolas" font-size="11.00">{Log::cpp}::LogCore</text>
<text xml:space="preserve" text-anchor="middle" x="363" y="-485.18" font-family="Consolas" font-size="11.00">::Inst_</text>
</a>
</g>
</g>
<!-- Node1&#45;&gt;Node2 -->
<g id="edge1_Node000001_Node000002" class="edge">
<title>Node1&#45;&gt;Node2</title>
<g id="a_edge1_Node000001_Node000002"><a xlink:title=" ">
<path fill="none" stroke="#63b8ff" d="M198.83,-477.84C228.18,-482.05 262.63,-486.99 292.3,-491.25"/>
<polygon fill="#63b8ff" stroke="#63b8ff" points="296.96,-491.92 291.69,-493.43 295.69,-491.74 292.01,-491.21 292.01,-491.21 292.01,-491.21 295.69,-491.74 292.33,-488.98 296.96,-491.92"/>
</a>
</g>
</g>
<!-- Node4 -->
<g id="Node000004" class="node">
<title>Node4</title>
<g id="a_Node000004"><a xlink:href="../../d0/d61/classanonymous__namespace_02_log_8cpp_03_1_1_log_core.html#ac83f155438d4a0447ac048d50c7b1a47" target="_top" xlink:title=" ">
<polygon fill="white" stroke="none" points="428,-459.12 298,-459.12 298,-417.38 428,-417.38 428,-459.12"/>
<text xml:space="preserve" text-anchor="start" x="306" y="-444.68" font-family="Consolas" font-size="11.00">anonymous_namespace</text>
<text xml:space="preserve" text-anchor="start" x="306" y="-433.43" font-family="Consolas" font-size="11.00">{Log::cpp}::LogCore</text>
<text xml:space="preserve" text-anchor="middle" x="363" y="-422.18" font-family="Consolas" font-size="11.00">::msgHandler_</text>
</a>
</g>
</g>
<!-- Node1&#45;&gt;Node4 -->
<g id="edge4_Node000001_Node000004" class="edge">
<title>Node1&#45;&gt;Node4</title>
<g id="a_edge4_Node000001_Node000004"><a xlink:title=" ">
<path fill="none" stroke="#63b8ff" d="M205.72,-458.63C233.45,-455.02 264.87,-450.92 292.23,-447.35"/>
<polygon fill="#63b8ff" stroke="#63b8ff" points="297.16,-446.71 292.49,-449.59 295.89,-446.87 292.2,-447.35 292.2,-447.35 292.2,-447.35 295.89,-446.87 291.91,-445.12 297.16,-446.71"/>
</a>
</g>
</g>
<!-- Node3 -->
<g id="Node000003" class="node">
<title>Node3</title>
<g id="a_Node000003"><a xlink:href="../../d0/d61/classanonymous__namespace_02_log_8cpp_03_1_1_log_core.html#a730f0868e0c404fa25a887a023b70138" target="_top" xlink:title=" ">
<polygon fill="white" stroke="none" points="621,-525.12 491,-525.12 491,-483.38 621,-483.38 621,-525.12"/>
<text xml:space="preserve" text-anchor="start" x="499" y="-510.68" font-family="Consolas" font-size="11.00">anonymous_namespace</text>
<text xml:space="preserve" text-anchor="start" x="499" y="-499.43" font-family="Consolas" font-size="11.00">{Log::cpp}::LogCore</text>
<text xml:space="preserve" text-anchor="middle" x="556" y="-488.18" font-family="Consolas" font-size="11.00">::LogCore</text>
</a>
</g>
</g>
<!-- Node2&#45;&gt;Node3 -->
<g id="edge2_Node000002_Node000003" class="edge">
<title>Node2&#45;&gt;Node3</title>
<g id="a_edge2_Node000002_Node000003"><a xlink:title=" ">
<path fill="none" stroke="#63b8ff" d="M427.87,-502.25C446.34,-502.54 466.6,-502.86 485.41,-503.16"/>
<polygon fill="#63b8ff" stroke="#63b8ff" points="489.98,-503.23 484.94,-505.4 488.69,-503.21 484.98,-503.15 484.98,-503.15 484.98,-503.15 488.69,-503.21 485.01,-500.9 489.98,-503.23"/>
</a>
</g>
</g>
<!-- Node3&#45;&gt;Node3 -->
<g id="edge3_Node000003_Node000003" class="edge">
<title>Node3&#45;&gt;Node3</title>
<g id="a_edge3_Node000003_Node000003"><a xlink:title=" ">
<path fill="none" stroke="#63b8ff" d="M520.53,-525.05C516.66,-534.7 528.48,-543.12 556,-543.12 577.5,-543.12 589.42,-537.98 591.76,-531.13"/>
<polygon fill="#63b8ff" stroke="#63b8ff" points="591.53,-526.26 594.01,-531.15 591.59,-527.54 591.76,-531.26 591.76,-531.26 591.76,-531.26 591.59,-527.54 589.52,-531.37 591.53,-526.26"/>
</a>
</g>
</g>
<!-- Node5 -->
<g id="Node000005" class="node">
<title>Node5</title>
<g id="a_Node000005"><a xlink:href="../../dd/df2/namespaceanonymous__namespace_02_log_8cpp_03_1_1safe.html#a460f691136cced36ea40b2595c18d0a8" target="_top" xlink:title=" ">
<polygon fill="white" stroke="none" points="648,-447.5 464,-447.5 464,-417 648,-417 648,-447.5"/>
<text xml:space="preserve" text-anchor="start" x="472" y="-433.05" font-family="Consolas" font-size="11.00">anonymous_namespace</text>
<text xml:space="preserve" text-anchor="middle" x="556" y="-421.8" font-family="Consolas" font-size="11.00">{Log::cpp}::safe::msgHandler</text>
</a>
</g>
</g>
<!-- Node4&#45;&gt;Node5 -->
<g id="edge5_Node000004_Node000005" class="edge">
<title>Node4&#45;&gt;Node5</title>
<g id="a_edge5_Node000004_Node000005"><a xlink:title=" ">
<path fill="none" stroke="#63b8ff" d="M427.87,-436.24C437.66,-435.94 447.95,-435.61 458.26,-435.29"/>
<polygon fill="#63b8ff" stroke="#63b8ff" points="463.11,-435.14 458.18,-437.54 461.83,-435.18 458.11,-435.29 458.11,-435.29 458.11,-435.29 461.83,-435.18 458.04,-433.04 463.11,-435.14"/>
</a>
</g>
</g>
<!-- Node5&#45;&gt;Node5 -->
<g id="edge44_Node000005_Node000005" class="edge">
<title>Node5&#45;&gt;Node5</title>
<g id="a_edge44_Node000005_Node000005"><a xlink:title=" ">
<path fill="none" stroke="#63b8ff" d="M522.37,-447.3C514.26,-456.62 525.47,-465.5 556,-465.5 580.33,-465.5 592.39,-459.86 592.18,-452.85"/>
<polygon fill="#63b8ff" stroke="#63b8ff" points="590.14,-448.4 594.27,-452.01 590.68,-449.57 592.23,-452.95 592.23,-452.95 592.23,-452.95 590.68,-449.57 590.18,-453.89 590.14,-448.4"/>
</a>
</g>
</g>
<!-- Node6 -->
<g id="Node000006" class="node">
<title>Node6</title>
<g id="a_Node000006"><a xlink:href="../../dd/df2/namespaceanonymous__namespace_02_log_8cpp_03_1_1safe.html#ac8e06193aa953194d78cd55baf2151d8" target="_top" xlink:title=" ">
<polygon fill="white" stroke="none" points="889,-786.5 687,-786.5 687,-756 889,-756 889,-786.5"/>
<text xml:space="preserve" text-anchor="start" x="695" y="-772.05" font-family="Consolas" font-size="11.00">anonymous_namespace</text>
<text xml:space="preserve" text-anchor="middle" x="788" y="-760.8" font-family="Consolas" font-size="11.00">{Log::cpp}::safe::append2Digits</text>
</a>
</g>
</g>
<!-- Node5&#45;&gt;Node6 -->
<g id="edge6_Node000005_Node000006" class="edge">
<title>Node5&#45;&gt;Node6</title>
<g id="a_edge6_Node000005_Node000006"><a xlink:title=" ">
<path fill="none" stroke="#63b8ff" d="M612.82,-447.5C626.25,-453.71 639.23,-462.34 648,-474.25 720.33,-572.42 602.49,-655.55 684,-746.25 686.04,-748.53 688.26,-750.61 690.61,-752.52"/>
<polygon fill="#63b8ff" stroke="#63b8ff" points="694.64,-755.48 689.28,-754.33 693.61,-754.72 690.61,-752.52 690.61,-752.52 690.61,-752.52 693.61,-754.72 691.94,-750.71 694.64,-755.48"/>
</a>
</g>
</g>
<!-- Node7 -->
<g id="Node000007" class="node">
<title>Node7</title>
<g id="a_Node000007"><a xlink:href="../../dd/df2/namespaceanonymous__namespace_02_log_8cpp_03_1_1safe.html#a1138ca08d0d8b5a0482ee827987b024f" target="_top" xlink:title=" ">
<polygon fill="white" stroke="none" points="889,-719.5 687,-719.5 687,-689 889,-689 889,-719.5"/>
<text xml:space="preserve" text-anchor="start" x="695" y="-705.05" font-family="Consolas" font-size="11.00">anonymous_namespace</text>
<text xml:space="preserve" text-anchor="middle" x="788" y="-693.8" font-family="Consolas" font-size="11.00">{Log::cpp}::safe::append3Digits</text>
</a>
</g>
</g>
<!-- Node5&#45;&gt;Node7 -->
<g id="edge8_Node000005_Node000007" class="edge">
<title>Node5&#45;&gt;Node7</title>
<g id="a_edge8_Node000005_Node000007"><a xlink:title=" ">
<path fill="none" stroke="#63b8ff" d="M611.54,-447.31C625.3,-453.56 638.77,-462.26 648,-474.25 704.43,-547.55 620.72,-611.77 684,-679.25 686.2,-681.6 688.59,-683.74 691.11,-685.7"/>
<polygon fill="#63b8ff" stroke="#63b8ff" points="694.82,-688.32 689.44,-687.27 693.77,-687.58 690.74,-685.43 690.74,-685.43 690.74,-685.43 693.77,-687.58 692.04,-683.6 694.82,-688.32"/>
</a>
</g>
</g>
<!-- Node8 -->
<g id="Node000008" class="node">
<title>Node8</title>
<g id="a_Node000008"><a xlink:href="../../dd/df2/namespaceanonymous__namespace_02_log_8cpp_03_1_1safe.html#a99008cbbcf5923943b42b8788667114a" target="_top" xlink:title=" ">
<polygon fill="white" stroke="none" points="889,-652.5 687,-652.5 687,-622 889,-622 889,-652.5"/>
<text xml:space="preserve" text-anchor="start" x="695" y="-638.05" font-family="Consolas" font-size="11.00">anonymous_namespace</text>
<text xml:space="preserve" text-anchor="middle" x="788" y="-626.8" font-family="Consolas" font-size="11.00">{Log::cpp}::safe::append4Digits</text>
</a>
</g>
</g>
<!-- Node5&#45;&gt;Node8 -->
<g id="edge10_Node000005_Node000008" class="edge">
<title>Node5&#45;&gt;Node8</title>
<g id="a_edge10_Node000005_Node000008"><a xlink:title=" ">
<path fill="none" stroke="#63b8ff" d="M609.96,-447.39C624.03,-453.68 638.06,-462.37 648,-474.25 688.68,-522.86 638.8,-567.81 684,-612.25 686.46,-614.67 689.11,-616.87 691.92,-618.86"/>
<polygon fill="#63b8ff" stroke="#63b8ff" points="696.09,-621.58 690.68,-620.74 695.02,-620.88 691.9,-618.86 691.9,-618.86 691.9,-618.86 695.02,-620.88 693.13,-616.97 696.09,-621.58"/>
</a>
</g>
</g>
<!-- Node9 -->
<g id="Node000009" class="node">
<title>Node9</title>
<g id="a_Node000009"><a xlink:href="../../dd/df2/namespaceanonymous__namespace_02_log_8cpp_03_1_1safe.html#a65353ac3c8d675a9a827bed9e11acc17" target="_top" xlink:title=" ">
<polygon fill="white" stroke="none" points="1127,-332.5 949,-332.5 949,-302 1127,-302 1127,-332.5"/>
<text xml:space="preserve" text-anchor="start" x="957" y="-318.05" font-family="Consolas" font-size="11.00">anonymous_namespace</text>
<text xml:space="preserve" text-anchor="middle" x="1038" y="-306.8" font-family="Consolas" font-size="11.00">{Log::cpp}::safe::appendChr</text>
</a>
</g>
</g>
<!-- Node5&#45;&gt;Node9 -->
<g id="edge12_Node000005_Node000009" class="edge">
<title>Node5&#45;&gt;Node9</title>
<g id="a_edge12_Node000005_Node000009"><a xlink:title=" ">
<path fill="none" stroke="#63b8ff" d="M597.02,-447.38C613.46,-454.43 632.29,-463.63 648,-474.25 666.23,-486.58 663.55,-500.12 684,-508.25 769.9,-542.4 809.19,-549.35 892,-508.25 965.01,-472.01 1011.16,-379.48 1028.83,-337.96"/>
<polygon fill="#63b8ff" stroke="#63b8ff" points="1030.66,-333.58 1030.81,-339.06 1030.17,-334.76 1028.73,-338.19 1028.73,-338.19 1028.73,-338.19 1030.17,-334.76 1026.66,-337.32 1030.66,-333.58"/>
</a>
</g>
</g>
<!-- Node11 -->
<g id="Node000011" class="node">
<title>Node11</title>
<g id="a_Node000011"><a xlink:href="../../dd/df2/namespaceanonymous__namespace_02_log_8cpp_03_1_1safe.html#a0b4f620e950ef2e9f44027327f4bd27f" target="_top" xlink:title=" ">
<polygon fill="white" stroke="none" points="877,-585.5 699,-585.5 699,-555 877,-555 877,-585.5"/>
<text xml:space="preserve" text-anchor="start" x="707" y="-571.05" font-family="Consolas" font-size="11.00">anonymous_namespace</text>
<text xml:space="preserve" text-anchor="middle" x="788" y="-559.8" font-family="Consolas" font-size="11.00">{Log::cpp}::safe::appendDec</text>
</a>
</g>
</g>
<!-- Node5&#45;&gt;Node11 -->
<g id="edge16_Node000005_Node000011" class="edge">
<title>Node5&#45;&gt;Node11</title>
<g id="a_edge16_Node000005_Node000011"><a xlink:title=" ">
<path fill="none" stroke="#63b8ff" d="M604.48,-447.34C619.67,-453.85 635.71,-462.68 648,-474.25 672.62,-497.42 657.63,-520.1 684,-541.25 689.49,-545.65 695.61,-549.39 702.06,-552.56"/>
<polygon fill="#63b8ff" stroke="#63b8ff" points="706.44,-554.58 700.95,-554.53 705.27,-554.04 701.9,-552.48 701.9,-552.48 701.9,-552.48 705.27,-554.04 702.84,-550.44 706.44,-554.58"/>
</a>
</g>
</g>
<!-- Node13 -->
<g id="Node000013" class="node">
<title>Node13</title>
<g id="a_Node000013"><a xlink:href="../../dd/df2/namespaceanonymous__namespace_02_log_8cpp_03_1_1safe.html#aa526b57e73a9ee9e95150b61a18d6489" target="_top" xlink:title=" ">
<polygon fill="white" stroke="none" points="892,-481.5 684,-481.5 684,-451 892,-451 892,-481.5"/>
<text xml:space="preserve" text-anchor="start" x="692" y="-467.05" font-family="Consolas" font-size="11.00">anonymous_namespace</text>
<text xml:space="preserve" text-anchor="middle" x="788" y="-455.8" font-family="Consolas" font-size="11.00">{Log::cpp}::safe::appendFileName</text>
</a>
</g>
</g>
<!-- Node5&#45;&gt;Node13 -->
<g id="edge20_Node000005_Node000013" class="edge">
<title>Node5&#45;&gt;Node13</title>
<g id="a_edge20_Node000005_Node000013"><a xlink:title=" ">
<path fill="none" stroke="#63b8ff" d="M647.9,-445.69C657.87,-447.16 668.1,-448.67 678.26,-450.18"/>
<polygon fill="#63b8ff" stroke="#63b8ff" points="683.02,-450.88 677.75,-452.37 681.76,-450.69 678.08,-450.15 678.08,-450.15 678.08,-450.15 681.76,-450.69 678.41,-447.92 683.02,-450.88"/>
</a>
</g>
</g>
<!-- Node14 -->
<g id="Node000014" class="node">
<title>Node14</title>
<g id="a_Node000014"><a xlink:href="../../dd/df2/namespaceanonymous__namespace_02_log_8cpp_03_1_1safe.html#a0007f4a1265f5b0c790d25e74cd93713" target="_top" xlink:title=" ">
<polygon fill="white" stroke="none" points="892,-146.5 684,-146.5 684,-116 892,-116 892,-146.5"/>
<text xml:space="preserve" text-anchor="start" x="692" y="-132.05" font-family="Consolas" font-size="11.00">anonymous_namespace</text>
<text xml:space="preserve" text-anchor="middle" x="788" y="-120.8" font-family="Consolas" font-size="11.00">{Log::cpp}::safe::appendFuncName</text>
</a>
</g>
</g>
<!-- Node5&#45;&gt;Node14 -->
<g id="edge23_Node000005_Node000014" class="edge">
<title>Node5&#45;&gt;Node14</title>
<g id="a_edge23_Node000005_Node000014"><a xlink:title=" ">
<path fill="none" stroke="#63b8ff" d="M560.43,-417.21C571.09,-373.67 607.61,-246.05 684,-174.25 695.63,-163.32 710.44,-154.97 725.19,-148.67"/>
<polygon fill="#63b8ff" stroke="#63b8ff" points="729.48,-146.91 725.71,-150.89 728.29,-147.39 724.86,-148.81 724.86,-148.81 724.86,-148.81 728.29,-147.39 724,-146.73 729.48,-146.91"/>
</a>
</g>
</g>
<!-- Node16 -->
<g id="Node000016" class="node">
<title>Node16</title>
<g id="a_Node000016"><a xlink:href="../../dd/df2/namespaceanonymous__namespace_02_log_8cpp_03_1_1safe.html#a75a945c8f2e5d069f7c6f13667c2ee57" target="_top" xlink:title=" ">
<polygon fill="white" stroke="none" points="877,-347.5 699,-347.5 699,-317 877,-317 877,-347.5"/>
<text xml:space="preserve" text-anchor="start" x="707" y="-333.05" font-family="Consolas" font-size="11.00">anonymous_namespace</text>
<text xml:space="preserve" text-anchor="middle" x="788" y="-321.8" font-family="Consolas" font-size="11.00">{Log::cpp}::safe::appendHex</text>
</a>
</g>
</g>
<!-- Node5&#45;&gt;Node16 -->
<g id="edge29_Node000005_Node000016" class="edge">
<title>Node5&#45;&gt;Node16</title>
<g id="a_edge29_Node000005_Node000016"><a xlink:title=" ">
<path fill="none" stroke="#63b8ff" d="M590.32,-417.01C615.87,-405.39 652.06,-389.08 684,-375.25 703.82,-366.67 725.91,-357.41 744.53,-349.68"/>
<polygon fill="#63b8ff" stroke="#63b8ff" points="749.07,-347.81 745.31,-351.8 747.88,-348.3 744.45,-349.72 744.45,-349.72 744.45,-349.72 747.88,-348.3 743.59,-347.64 749.07,-347.81"/>
</a>
</g>
</g>
<!-- Node17 -->
<g id="Node000017" class="node">
<title>Node17</title>
<g id="a_Node000017"><a xlink:href="../../dd/df2/namespaceanonymous__namespace_02_log_8cpp_03_1_1safe.html#a7927803dc42a56944e7bf39eae31f330" target="_top" xlink:title=" ">
<polygon fill="white" stroke="none" points="877,-280.5 699,-280.5 699,-250 877,-250 877,-280.5"/>
<text xml:space="preserve" text-anchor="start" x="707" y="-266.05" font-family="Consolas" font-size="11.00">anonymous_namespace</text>
<text xml:space="preserve" text-anchor="middle" x="788" y="-254.8" font-family="Consolas" font-size="11.00">{Log::cpp}::safe::appendLvl</text>
</a>
</g>
</g>
<!-- Node5&#45;&gt;Node17 -->
<g id="edge31_Node000005_Node000017" class="edge">
<title>Node5&#45;&gt;Node17</title>
<g id="a_edge31_Node000005_Node000017"><a xlink:title=" ">
<path fill="none" stroke="#63b8ff" d="M569.23,-417.01C590.33,-391.55 635.94,-340.04 684,-308.25 699.46,-298.02 717.76,-289.43 734.6,-282.68"/>
<polygon fill="#63b8ff" stroke="#63b8ff" points="739.12,-280.91 735.29,-284.83 737.93,-281.38 734.47,-282.74 734.47,-282.74 734.47,-282.74 737.93,-281.38 733.65,-280.64 739.12,-280.91"/>
</a>
</g>
</g>
<!-- Node18 -->
<g id="Node000018" class="node">
<title>Node18</title>
<g id="a_Node000018"><a xlink:href="../../dd/df2/namespaceanonymous__namespace_02_log_8cpp_03_1_1safe.html#a70f8ae638e66e98804ee3dbd8772433a" target="_top" xlink:title=" ">
<polygon fill="white" stroke="none" points="877,-414.5 699,-414.5 699,-384 877,-384 877,-414.5"/>
<text xml:space="preserve" text-anchor="start" x="707" y="-400.05" font-family="Consolas" font-size="11.00">anonymous_namespace</text>
<text xml:space="preserve" text-anchor="middle" x="788" y="-388.8" font-family="Consolas" font-size="11.00">{Log::cpp}::safe::appendMsg</text>
</a>
</g>
</g>
<!-- Node5&#45;&gt;Node18 -->
<g id="edge33_Node000005_Node000018" class="edge">
<title>Node5&#45;&gt;Node18</title>
<g id="a_edge33_Node000005_Node000018"><a xlink:title=" ">
<path fill="none" stroke="#63b8ff" d="M647.9,-419.21C662.76,-417.08 678.17,-414.86 693.1,-412.72"/>
<polygon fill="#63b8ff" stroke="#63b8ff" points="697.8,-412.05 693.18,-414.98 696.54,-412.23 692.86,-412.76 692.86,-412.76 692.86,-412.76 696.54,-412.23 692.54,-410.53 697.8,-412.05"/>
</a>
</g>
</g>
<!-- Node19 -->
<g id="Node000019" class="node">
<title>Node19</title>
<g id="a_Node000019"><a xlink:href="../../dd/df2/namespaceanonymous__namespace_02_log_8cpp_03_1_1safe.html#aa8d11c260254c761c7437280b4284d17" target="_top" xlink:title=" ">
<polygon fill="white" stroke="none" points="877,-213.5 699,-213.5 699,-183 877,-183 877,-213.5"/>
<text xml:space="preserve" text-anchor="start" x="707" y="-199.05" font-family="Consolas" font-size="11.00">anonymous_namespace</text>
<text xml:space="preserve" text-anchor="middle" x="788" y="-187.8" font-family="Consolas" font-size="11.00">{Log::cpp}::safe::appendTxt</text>
</a>
</g>
</g>
<!-- Node5&#45;&gt;Node19 -->
<g id="edge36_Node000005_Node000019" class="edge">
<title>Node5&#45;&gt;Node19</title>
<g id="a_edge36_Node000005_Node000019"><a xlink:title=" ">
<path fill="none" stroke="#63b8ff" d="M563.29,-417.17C578.75,-381.76 621.95,-292.44 684,-241.25 696.98,-230.54 713.01,-222.15 728.52,-215.74"/>
<polygon fill="#63b8ff" stroke="#63b8ff" points="733.07,-213.92 729.26,-217.86 731.88,-214.39 728.43,-215.77 728.43,-215.77 728.43,-215.77 731.88,-214.39 727.59,-213.68 733.07,-213.92"/>
</a>
</g>
</g>
<!-- Node20 -->
<g id="Node000020" class="node">
<title>Node20</title>
<g id="a_Node000020"><a xlink:href="../../dd/df2/namespaceanonymous__namespace_02_log_8cpp_03_1_1safe.html#a97522aab6ec53ce2693cf4a5432927bf" target="_top" xlink:title=" ">
<polygon fill="white" stroke="none" points="883,-79.5 693,-79.5 693,-49 883,-49 883,-79.5"/>
<text xml:space="preserve" text-anchor="start" x="701" y="-65.05" font-family="Consolas" font-size="11.00">anonymous_namespace</text>
<text xml:space="preserve" text-anchor="middle" x="788" y="-53.8" font-family="Consolas" font-size="11.00">{Log::cpp}::safe::impLogWrite</text>
</a>
</g>
</g>
<!-- Node5&#45;&gt;Node20 -->
<g id="edge39_Node000005_Node000020" class="edge">
<title>Node5&#45;&gt;Node20</title>
<g id="a_edge39_Node000005_Node000020"><a xlink:title=" ">
<path fill="none" stroke="#63b8ff" d="M558.72,-417.08C565.26,-366.32 592.97,-200.4 684,-107.25 694.7,-96.3 708.61,-88.01 722.72,-81.79"/>
<polygon fill="#63b8ff" stroke="#63b8ff" points="727.23,-79.89 723.49,-83.91 726.04,-80.39 722.62,-81.83 722.62,-81.83 722.62,-81.83 726.04,-80.39 721.74,-79.76 727.23,-79.89"/>
</a>
</g>
</g>
<!-- Node6&#45;&gt;Node6 -->
<g id="edge7_Node000006_Node000006" class="edge">
<title>Node6&#45;&gt;Node6</title>
<g id="a_edge7_Node000006_Node000006"><a xlink:title=" ">
<path fill="none" stroke="#63b8ff" d="M747.57,-786.3C737.82,-795.62 751.3,-804.5 788,-804.5 817.82,-804.5 832.31,-798.64 831.47,-791.44"/>
<polygon fill="#63b8ff" stroke="#63b8ff" points="829.05,-787.35 833.53,-790.51 829.7,-788.45 831.59,-791.65 831.59,-791.65 831.59,-791.65 829.7,-788.45 829.65,-792.8 829.05,-787.35"/>
</a>
</g>
</g>
<!-- Node7&#45;&gt;Node7 -->
<g id="edge9_Node000007_Node000007" class="edge">
<title>Node7&#45;&gt;Node7</title>
<g id="a_edge9_Node000007_Node000007"><a xlink:title=" ">
<path fill="none" stroke="#63b8ff" d="M747.57,-719.3C737.82,-728.62 751.3,-737.5 788,-737.5 817.82,-737.5 832.31,-731.64 831.47,-724.44"/>
<polygon fill="#63b8ff" stroke="#63b8ff" points="829.05,-720.35 833.53,-723.51 829.7,-721.45 831.59,-724.65 831.59,-724.65 831.59,-724.65 829.7,-721.45 829.65,-725.8 829.05,-720.35"/>
</a>
</g>
</g>
<!-- Node8&#45;&gt;Node8 -->
<g id="edge11_Node000008_Node000008" class="edge">
<title>Node8&#45;&gt;Node8</title>
<g id="a_edge11_Node000008_Node000008"><a xlink:title=" ">
<path fill="none" stroke="#63b8ff" d="M747.57,-652.3C737.82,-661.62 751.3,-670.5 788,-670.5 817.82,-670.5 832.31,-664.64 831.47,-657.44"/>
<polygon fill="#63b8ff" stroke="#63b8ff" points="829.05,-653.35 833.53,-656.51 829.7,-654.45 831.59,-657.65 831.59,-657.65 831.59,-657.65 829.7,-654.45 829.65,-658.8 829.05,-653.35"/>
</a>
</g>
</g>
<!-- Node9&#45;&gt;Node9 -->
<g id="edge13_Node000009_Node000009" class="edge">
<title>Node9&#45;&gt;Node9</title>
<g id="a_edge13_Node000009_Node000009"><a xlink:title=" ">
<path fill="none" stroke="#63b8ff" d="M996,-332.3C985.87,-341.62 999.87,-350.5 1038,-350.5 1068.98,-350.5 1084.03,-344.64 1083.15,-337.44"/>
<polygon fill="#63b8ff" stroke="#63b8ff" points="1080.64,-333.33 1085.17,-336.42 1081.31,-334.43 1083.25,-337.6 1083.25,-337.6 1083.25,-337.6 1081.31,-334.43 1081.33,-338.77 1080.64,-333.33"/>
</a>
</g>
</g>
<!-- Node10 -->
<g id="Node000010" class="node">
<title>Node10</title>
<g id="a_Node000010"><a xlink:href="../../dd/df2/namespaceanonymous__namespace_02_log_8cpp_03_1_1safe.html#a1e4219749cab61533a6faf773fe7cddb" target="_top" xlink:title=" ">
<polygon fill="white" stroke="none" points="1374,-290.5 1184,-290.5 1184,-260 1374,-260 1374,-290.5"/>
<text xml:space="preserve" text-anchor="start" x="1192" y="-276.05" font-family="Consolas" font-size="11.00">anonymous_namespace</text>
<text xml:space="preserve" text-anchor="middle" x="1279" y="-264.8" font-family="Consolas" font-size="11.00">{Log::cpp}::safe::isSpaceChar</text>
</a>
</g>
</g>
<!-- Node9&#45;&gt;Node10 -->
<g id="edge14_Node000009_Node000010" class="edge">
<title>Node9&#45;&gt;Node10</title>
<g id="a_edge14_Node000009_Node000010"><a xlink:title=" ">
<path fill="none" stroke="#63b8ff" d="M1125.62,-302.03C1144.99,-298.62 1165.61,-295 1185.22,-291.55"/>
<polygon fill="#63b8ff" stroke="#63b8ff" points="1190.07,-290.7 1185.54,-293.78 1188.81,-290.92 1185.15,-291.57 1185.15,-291.57 1185.15,-291.57 1188.81,-290.92 1184.76,-289.35 1190.07,-290.7"/>
</a>
</g>
</g>
<!-- Node10&#45;&gt;Node10 -->
<g id="edge15_Node000010_Node000010" class="edge">
<title>Node10&#45;&gt;Node10</title>
<g id="a_edge15_Node000010_Node000010"><a xlink:title=" ">
<path fill="none" stroke="#63b8ff" d="M1237,-290.3C1226.87,-299.62 1240.87,-308.5 1279,-308.5 1309.98,-308.5 1325.03,-302.64 1324.15,-295.44"/>
<polygon fill="#63b8ff" stroke="#63b8ff" points="1321.64,-291.33 1326.17,-294.42 1322.31,-292.43 1324.25,-295.6 1324.25,-295.6 1324.25,-295.6 1322.31,-292.43 1322.33,-296.77 1321.64,-291.33"/>
</a>
</g>
</g>
<!-- Node11&#45;&gt;Node11 -->
<g id="edge17_Node000011_Node000011" class="edge">
<title>Node11&#45;&gt;Node11</title>
<g id="a_edge17_Node000011_Node000011"><a xlink:title=" ">
<path fill="none" stroke="#63b8ff" d="M747.57,-585.3C737.82,-594.62 751.3,-603.5 788,-603.5 817.82,-603.5 832.31,-597.64 831.47,-590.44"/>
<polygon fill="#63b8ff" stroke="#63b8ff" points="829.05,-586.35 833.53,-589.51 829.7,-587.45 831.59,-590.65 831.59,-590.65 831.59,-590.65 829.7,-587.45 829.65,-591.8 829.05,-586.35"/>
</a>
</g>
</g>
<!-- Node12 -->
<g id="Node000012" class="node">
<title>Node12</title>
<g id="a_Node000012"><a xlink:href="../../dd/df2/namespaceanonymous__namespace_02_log_8cpp_03_1_1safe.html#ab261e5125e925c910ea977d0ac217ab6" target="_top" xlink:title=" ">
<polygon fill="white" stroke="none" points="1127,-585.5 949,-585.5 949,-555 1127,-555 1127,-585.5"/>
<text xml:space="preserve" text-anchor="start" x="957" y="-571.05" font-family="Consolas" font-size="11.00">anonymous_namespace</text>
<text xml:space="preserve" text-anchor="middle" x="1038" y="-559.8" font-family="Consolas" font-size="11.00">{Log::cpp}::safe::decDigits</text>
</a>
</g>
</g>
<!-- Node11&#45;&gt;Node12 -->
<g id="edge18_Node000011_Node000012" class="edge">
<title>Node11&#45;&gt;Node12</title>
<g id="a_edge18_Node000011_Node000012"><a xlink:title=" ">
<path fill="none" stroke="#63b8ff" d="M876.78,-570.25C898.31,-570.25 921.43,-570.25 943.22,-570.25"/>
<polygon fill="#63b8ff" stroke="#63b8ff" points="948.12,-570.25 943.12,-572.5 946.83,-570.25 943.12,-570.25 943.12,-570.25 943.12,-570.25 946.83,-570.25 943.11,-568 948.12,-570.25"/>
</a>
</g>
</g>
<!-- Node12&#45;&gt;Node12 -->
<g id="edge19_Node000012_Node000012" class="edge">
<title>Node12&#45;&gt;Node12</title>
<g id="a_edge19_Node000012_Node000012"><a xlink:title=" ">
<path fill="none" stroke="#63b8ff" d="M996,-585.3C985.87,-594.62 999.87,-603.5 1038,-603.5 1068.98,-603.5 1084.03,-597.64 1083.15,-590.44"/>
<polygon fill="#63b8ff" stroke="#63b8ff" points="1080.64,-586.33 1085.17,-589.42 1081.31,-587.43 1083.25,-590.6 1083.25,-590.6 1083.25,-590.6 1081.31,-587.43 1081.33,-591.77 1080.64,-586.33"/>
</a>
</g>
</g>
<!-- Node13&#45;&gt;Node9 -->
<g id="edge21_Node000013_Node000009" class="edge">
<title>Node13&#45;&gt;Node9</title>
<g id="a_edge21_Node000013_Node000009"><a xlink:title=" ">
<path fill="none" stroke="#63b8ff" d="M868.28,-451.07C876.49,-448.31 884.55,-445.06 892,-441.25 944.69,-414.3 994.46,-364.57 1019.72,-336.98"/>
<polygon fill="#63b8ff" stroke="#63b8ff" points="1023.04,-333.33 1021.34,-338.54 1022.18,-334.28 1019.68,-337.03 1019.68,-337.03 1019.68,-337.03 1022.18,-334.28 1018.01,-335.52 1023.04,-333.33"/>
</a>
</g>
</g>
<!-- Node13&#45;&gt;Node13 -->
<g id="edge22_Node000013_Node000013" class="edge">
<title>Node13&#45;&gt;Node13</title>
<g id="a_edge22_Node000013_Node000013"><a xlink:title=" ">
<path fill="none" stroke="#63b8ff" d="M747.57,-481.3C737.82,-490.62 751.3,-499.5 788,-499.5 817.82,-499.5 832.31,-493.64 831.47,-486.44"/>
<polygon fill="#63b8ff" stroke="#63b8ff" points="829.05,-482.35 833.53,-485.51 829.7,-483.45 831.59,-486.65 831.59,-486.65 831.59,-486.65 829.7,-483.45 829.65,-487.8 829.05,-482.35"/>
</a>
</g>
</g>
<!-- Node14&#45;&gt;Node9 -->
<g id="edge24_Node000014_Node000009" class="edge">
<title>Node14&#45;&gt;Node9</title>
<g id="a_edge24_Node000014_Node000009"><a xlink:title=" ">
<path fill="none" stroke="#63b8ff" d="M845.39,-146.45C861.86,-152.96 878.93,-161.98 892,-174.25 918.37,-199.02 903.9,-220.27 928,-247.25 947.7,-269.3 975.91,-287.16 998.69,-299.32"/>
<polygon fill="#63b8ff" stroke="#63b8ff" points="1002.98,-301.57 997.51,-301.24 1001.85,-300.98 998.55,-299.25 998.55,-299.25 998.55,-299.25 1001.85,-300.98 999.6,-297.26 1002.98,-301.57"/>
</a>
</g>
</g>
<!-- Node14&#45;&gt;Node10 -->
<g id="edge28_Node000014_Node000010" class="edge">
<title>Node14&#45;&gt;Node10</title>
<g id="a_edge28_Node000014_Node000010"><a xlink:title=" ">
<path fill="none" stroke="#63b8ff" d="M838.82,-146.43C865.29,-154.47 898.39,-164.46 928,-173.25 1030.39,-203.64 1149.88,-238.29 1219.43,-258.37"/>
<polygon fill="#63b8ff" stroke="#63b8ff" points="1224.01,-259.69 1218.58,-260.47 1222.78,-259.34 1219.21,-258.31 1219.21,-258.31 1219.21,-258.31 1222.78,-259.34 1219.83,-256.15 1224.01,-259.69"/>
</a>
</g>
</g>
<!-- Node14&#45;&gt;Node14 -->
<g id="edge25_Node000014_Node000014" class="edge">
<title>Node14&#45;&gt;Node14</title>
<g id="a_edge25_Node000014_Node000014"><a xlink:title=" ">
<path fill="none" stroke="#63b8ff" d="M747.57,-146.3C737.82,-155.62 751.3,-164.5 788,-164.5 817.82,-164.5 832.31,-158.64 831.47,-151.44"/>
<polygon fill="#63b8ff" stroke="#63b8ff" points="829.05,-147.35 833.53,-150.51 829.7,-148.45 831.59,-151.65 831.59,-151.65 831.59,-151.65 829.7,-148.45 829.65,-152.8 829.05,-147.35"/>
</a>
</g>
</g>
<!-- Node15 -->
<g id="Node000015" class="node">
<title>Node15</title>
<g id="a_Node000015"><a xlink:href="../../dd/df2/namespaceanonymous__namespace_02_log_8cpp_03_1_1safe.html#a0fe54293fedacd10e31e2ee3542c331e" target="_top" xlink:title=" ">
<polygon fill="white" stroke="none" points="1148,-146.5 928,-146.5 928,-116 1148,-116 1148,-146.5"/>
<text xml:space="preserve" text-anchor="start" x="936" y="-132.05" font-family="Consolas" font-size="11.00">anonymous_namespace</text>
<text xml:space="preserve" text-anchor="middle" x="1038" y="-120.8" font-family="Consolas" font-size="11.00">{Log::cpp}::safe::isIdentifierChar</text>
</a>
</g>
</g>
<!-- Node14&#45;&gt;Node15 -->
<g id="edge26_Node000014_Node000015" class="edge">
<title>Node14&#45;&gt;Node15</title>
<g id="a_edge26_Node000014_Node000015"><a xlink:title=" ">
<path fill="none" stroke="#63b8ff" d="M891.66,-131.25C901.8,-131.25 912.13,-131.25 922.38,-131.25"/>
<polygon fill="#63b8ff" stroke="#63b8ff" points="927.18,-131.25 922.18,-133.5 925.9,-131.25 922.18,-131.25 922.18,-131.25 922.18,-131.25 925.9,-131.25 922.18,-129 927.18,-131.25"/>
</a>
</g>
</g>
<!-- Node15&#45;&gt;Node15 -->
<g id="edge27_Node000015_Node000015" class="edge">
<title>Node15&#45;&gt;Node15</title>
<g id="a_edge27_Node000015_Node000015"><a xlink:title=" ">
<path fill="none" stroke="#63b8ff" d="M996,-146.3C985.87,-155.62 999.87,-164.5 1038,-164.5 1068.98,-164.5 1084.03,-158.64 1083.15,-151.44"/>
<polygon fill="#63b8ff" stroke="#63b8ff" points="1080.64,-147.33 1085.17,-150.42 1081.31,-148.43 1083.25,-151.6 1083.25,-151.6 1083.25,-151.6 1081.31,-148.43 1081.33,-152.77 1080.64,-147.33"/>
</a>
</g>
</g>
<!-- Node16&#45;&gt;Node16 -->
<g id="edge30_Node000016_Node000016" class="edge">
<title>Node16&#45;&gt;Node16</title>
<g id="a_edge30_Node000016_Node000016"><a xlink:title=" ">
<path fill="none" stroke="#63b8ff" d="M747.57,-347.3C737.82,-356.62 751.3,-365.5 788,-365.5 817.82,-365.5 832.31,-359.64 831.47,-352.44"/>
<polygon fill="#63b8ff" stroke="#63b8ff" points="829.05,-348.35 833.53,-351.51 829.7,-349.45 831.59,-352.65 831.59,-352.65 831.59,-352.65 829.7,-349.45 829.65,-353.8 829.05,-348.35"/>
</a>
</g>
</g>
<!-- Node17&#45;&gt;Node17 -->
<g id="edge32_Node000017_Node000017" class="edge">
<title>Node17&#45;&gt;Node17</title>
<g id="a_edge32_Node000017_Node000017"><a xlink:title=" ">
<path fill="none" stroke="#63b8ff" d="M747.57,-280.3C737.82,-289.62 751.3,-298.5 788,-298.5 817.82,-298.5 832.31,-292.64 831.47,-285.44"/>
<polygon fill="#63b8ff" stroke="#63b8ff" points="829.05,-281.35 833.53,-284.51 829.7,-282.45 831.59,-285.65 831.59,-285.65 831.59,-285.65 829.7,-282.45 829.65,-286.8 829.05,-281.35"/>
</a>
</g>
</g>
<!-- Node18&#45;&gt;Node9 -->
<g id="edge34_Node000018_Node000009" class="edge">
<title>Node18&#45;&gt;Node9</title>
<g id="a_edge34_Node000018_Node000009"><a xlink:title=" ">
<path fill="none" stroke="#63b8ff" d="M857.51,-384.01C869.1,-381.04 880.95,-377.75 892,-374.25 928.02,-362.86 967.91,-346.93 996.71,-334.8"/>
<polygon fill="#63b8ff" stroke="#63b8ff" points="1001.2,-332.9 997.47,-336.92 1000.02,-333.4 996.59,-334.85 996.59,-334.85 996.59,-334.85 1000.02,-333.4 995.72,-332.78 1001.2,-332.9"/>
</a>
</g>
</g>
<!-- Node18&#45;&gt;Node18 -->
<g id="edge35_Node000018_Node000018" class="edge">
<title>Node18&#45;&gt;Node18</title>
<g id="a_edge35_Node000018_Node000018"><a xlink:title=" ">
<path fill="none" stroke="#63b8ff" d="M747.57,-414.3C737.82,-423.62 751.3,-432.5 788,-432.5 817.82,-432.5 832.31,-426.64 831.47,-419.44"/>
<polygon fill="#63b8ff" stroke="#63b8ff" points="829.05,-415.35 833.53,-418.51 829.7,-416.45 831.59,-419.65 831.59,-419.65 831.59,-419.65 829.7,-416.45 829.65,-420.8 829.05,-415.35"/>
</a>
</g>
</g>
<!-- Node19&#45;&gt;Node9 -->
<g id="edge37_Node000019_Node000009" class="edge">
<title>Node19&#45;&gt;Node9</title>
<g id="a_edge37_Node000019_Node000009"><a xlink:title=" ">
<path fill="none" stroke="#63b8ff" d="M827.5,-213.39C847.01,-221.3 870.95,-231.36 892,-241.25 931.35,-259.74 975.45,-283.27 1004.57,-299.21"/>
<polygon fill="#63b8ff" stroke="#63b8ff" points="1008.76,-301.51 1003.3,-301.08 1007.64,-300.9 1004.38,-299.11 1004.38,-299.11 1004.38,-299.11 1007.64,-300.9 1005.46,-297.13 1008.76,-301.51"/>
</a>
</g>
</g>
<!-- Node19&#45;&gt;Node19 -->
<g id="edge38_Node000019_Node000019" class="edge">
<title>Node19&#45;&gt;Node19</title>
<g id="a_edge38_Node000019_Node000019"><a xlink:title=" ">
<path fill="none" stroke="#63b8ff" d="M747.57,-213.3C737.82,-222.62 751.3,-231.5 788,-231.5 817.82,-231.5 832.31,-225.64 831.47,-218.44"/>
<polygon fill="#63b8ff" stroke="#63b8ff" points="829.05,-214.35 833.53,-217.51 829.7,-215.45 831.59,-218.65 831.59,-218.65 831.59,-218.65 829.7,-215.45 829.65,-219.8 829.05,-214.35"/>
</a>
</g>
</g>
<!-- Node20&#45;&gt;Node20 -->
<g id="edge40_Node000020_Node000020" class="edge">
<title>Node20&#45;&gt;Node20</title>
<g id="a_edge40_Node000020_Node000020"><a xlink:title=" ">
<path fill="none" stroke="#63b8ff" d="M747.57,-79.3C737.82,-88.62 751.3,-97.5 788,-97.5 817.82,-97.5 832.31,-91.64 831.47,-84.44"/>
<polygon fill="#63b8ff" stroke="#63b8ff" points="829.05,-80.35 833.53,-83.51 829.7,-81.45 831.59,-84.65 831.59,-84.65 831.59,-84.65 829.7,-81.45 829.65,-85.8 829.05,-80.35"/>
</a>
</g>
</g>
<!-- Node21 -->
<g id="Node000021" class="node">
<title>Node21</title>
<g id="a_Node000021"><a xlink:href="../../dc/dba/namespacenpi_1_1app.html#a30b5245afa890e98f19f43c58f29e633" target="_top" xlink:title="Windows native fatal error message box.">
<polygon fill="white" stroke="none" points="1130,-85.88 946,-85.88 946,-66.62 1130,-66.62 1130,-85.88"/>
<text xml:space="preserve" text-anchor="middle" x="1038" y="-71.42" font-family="Consolas" font-size="11.00">npi::app::nativeFatalMessage</text>
</a>
</g>
</g>
<!-- Node20&#45;&gt;Node21 -->
<g id="edge41_Node000020_Node000021" class="edge">
<title>Node20&#45;&gt;Node21</title>
<g id="a_edge41_Node000020_Node000021"><a xlink:title=" ">
<path fill="none" stroke="#63b8ff" d="M882.76,-68.79C901.65,-69.7 921.55,-70.66 940.53,-71.58"/>
<polygon fill="#63b8ff" stroke="#63b8ff" points="945.17,-71.81 940.07,-73.81 943.89,-71.74 940.18,-71.57 940.18,-71.57 940.18,-71.57 943.89,-71.74 940.29,-69.32 945.17,-71.81"/>
</a>
</g>
</g>
<!-- Node22 -->
<g id="Node000022" class="node">
<title>Node22</title>
<g id="a_Node000022"><a xlink:href="../../dd/df2/namespaceanonymous__namespace_02_log_8cpp_03_1_1safe.html#abc25ab769b48a34eb27ff7c789822b7e" target="_top" xlink:title=" ">
<polygon fill="white" stroke="none" points="1142,-30.5 934,-30.5 934,0 1142,0 1142,-30.5"/>
<text xml:space="preserve" text-anchor="start" x="942" y="-16.05" font-family="Consolas" font-size="11.00">anonymous_namespace</text>
<text xml:space="preserve" text-anchor="middle" x="1038" y="-4.8" font-family="Consolas" font-size="11.00">{Log::cpp}::safe::win32ErrorText</text>
</a>
</g>
</g>
<!-- Node20&#45;&gt;Node22 -->
<g id="edge42_Node000020_Node000022" class="edge">
<title>Node20&#45;&gt;Node22</title>
<g id="a_edge42_Node000020_Node000022"><a xlink:title=" ">
<path fill="none" stroke="#63b8ff" d="M866.11,-49.01C893.99,-43.51 925.57,-37.27 953.94,-31.66"/>
<polygon fill="#63b8ff" stroke="#63b8ff" points="958.74,-30.71 954.27,-33.89 957.49,-30.96 953.84,-31.68 953.84,-31.68 953.84,-31.68 957.49,-30.96 953.4,-29.47 958.74,-30.71"/>
</a>
</g>
</g>
<!-- Node22&#45;&gt;Node22 -->
<g id="edge43_Node000022_Node000022" class="edge">
<title>Node22&#45;&gt;Node22</title>
<g id="a_edge43_Node000022_Node000022"><a xlink:title=" ">
<path fill="none" stroke="#63b8ff" d="M996,-30.3C985.87,-39.62 999.87,-48.5 1038,-48.5 1068.98,-48.5 1084.03,-42.64 1083.15,-35.44"/>
<polygon fill="#63b8ff" stroke="#63b8ff" points="1080.64,-31.33 1085.17,-34.42 1081.31,-32.43 1083.25,-35.6 1083.25,-35.6 1083.25,-35.6 1081.31,-32.43 1081.33,-36.77 1080.64,-31.33"/>
</a>
</g>
</g>
</g>
</svg>
