<?xml version="1.0" encoding="UTF-8" standalone="no"?>
<!DOCTYPE svg PUBLIC "-//W3C//DTD SVG 1.1//EN"
 "http://www.w3.org/Graphics/SVG/1.1/DTD/svg11.dtd">
<!-- Generated by graphviz version 14.0.0 (20250921.2048)
 -->
<!-- Title: anonymous_namespace{Log::cpp}::aConfigLockName Pages: 1 -->
<svg width="716pt" height="144pt"
 viewBox="0.00 0.00 716.00 144.00" xmlns="http://www.w3.org/2000/svg" xmlns:xlink="http://www.w3.org/1999/xlink">
<g id="graph0" class="graph" transform="scale(1 1) rotate(0) translate(4 139.88)">
<title>anonymous_namespace{Log::cpp}::aConfigLockName</title>
<!-- Node1 -->
<g id="Node000001" class="node">
<title>Node1</title>
<g id="a_Node000001"><a xlink:title=" ">
<polygon fill="#999999" stroke="none" points="708,-74.25 416,-74.25 416,-55 708,-55 708,-74.25"/>
<text xml:space="preserve" text-anchor="start" x="424" y="-60.8" font-family="Consolas" font-weight="bold" font-size="11.00">anonymous_namespace{Log::cpp}::aConfigLockName</text>
</a>
</g>
</g>
<!-- Node2 -->
<g id="Node000002" class="node">
<title>Node2</title>
<g id="a_Node000002"><a xlink:href="../../d5/ddd/namespacenpi_1_1log.html#ad3a49953f000d2b255f2e32166048605" target="_top" xlink:title=" ">
<polygon fill="white" stroke="none" points="356,-130.25 226,-130.25 226,-111 356,-111 356,-130.25"/>
<text xml:space="preserve" text-anchor="middle" x="291" y="-115.8" font-family="Consolas" font-size="11.00">npi::log::getConfig</text>
</a>
</g>
</g>
<!-- Node1&#45;&gt;Node2 -->
<g id="edge1_Node000001_Node000002" class="edge">
<title>Node1&#45;&gt;Node2</title>
<g id="a_edge1_Node000001_Node000002"><a xlink:title=" ">
<path fill="none" stroke="#63b8ff" d="M509.94,-75.42C473.69,-83.06 423.87,-93.53 380,-102.62 366.72,-105.38 352.3,-108.34 339.05,-111.05"/>
<polygon fill="#63b8ff" stroke="#63b8ff" points="514.45,-74.47 510.02,-77.7 513.19,-74.73 509.55,-75.5 509.55,-75.5 509.55,-75.5 513.19,-74.73 509.09,-73.3 514.45,-74.47"/>
</a>
</g>
</g>
<!-- Node4 -->
<g id="Node000004" class="node">
<title>Node4</title>
<g id="a_Node000004"><a xlink:href="../../d5/ddd/namespacenpi_1_1log.html#ae0762e568cebcd885346fb347ffb9579" target="_top" xlink:title=" ">
<polygon fill="white" stroke="none" points="380,-93.25 202,-93.25 202,-74 380,-74 380,-93.25"/>
<text xml:space="preserve" text-anchor="middle" x="291" y="-78.8" font-family="Consolas" font-size="11.00">npi::log::restoreDefaultDir</text>
</a>
</g>
</g>
<!-- Node1&#45;&gt;Node4 -->
<g id="edge3_Node000001_Node000004" class="edge">
<title>Node1&#45;&gt;Node4</title>
<g id="a_edge3_Node000001_Node000004"><a xlink:title=" ">
<path fill="none" stroke="#63b8ff" d="M418.8,-74.67C405.48,-75.61 392.27,-76.54 379.68,-77.43"/>
<polygon fill="#63b8ff" stroke="#63b8ff" points="423.71,-74.32 418.88,-76.92 422.43,-74.41 418.72,-74.67 418.72,-74.67 418.72,-74.67 422.43,-74.41 418.56,-72.43 423.71,-74.32"/>
</a>
</g>
</g>
<!-- Node5 -->
<g id="Node000005" class="node">
<title>Node5</title>
<g id="a_Node000005"><a xlink:href="../../d5/ddd/namespacenpi_1_1log.html#a8f3b90122377e77601b8b4e55362ec34" target="_top" xlink:title=" ">
<polygon fill="white" stroke="none" points="347,-56.25 235,-56.25 235,-37 347,-37 347,-56.25"/>
<text xml:space="preserve" text-anchor="middle" x="291" y="-41.8" font-family="Consolas" font-size="11.00">npi::log::setDir</text>
</a>
</g>
</g>
<!-- Node1&#45;&gt;Node5 -->
<g id="edge4_Node000001_Node000005" class="edge">
<title>Node1&#45;&gt;Node5</title>
<g id="a_edge4_Node000001_Node000005"><a xlink:title=" ">
<path fill="none" stroke="#63b8ff" d="M411.26,-54.61C388.25,-53.07 365.84,-51.57 346.77,-50.29"/>
<polygon fill="#63b8ff" stroke="#63b8ff" points="416.23,-54.94 411.09,-56.85 414.95,-54.85 411.24,-54.6 411.24,-54.6 411.24,-54.6 414.95,-54.85 411.39,-52.36 416.23,-54.94"/>
</a>
</g>
</g>
<!-- Node6 -->
<g id="Node000006" class="node">
<title>Node6</title>
<g id="a_Node000006"><a xlink:href="../../d5/ddd/namespacenpi_1_1log.html#a9844dab9537c8747fbab8490418d2dda" target="_top" xlink:title=" ">
<polygon fill="white" stroke="none" points="377,-19.25 205,-19.25 205,0 377,0 377,-19.25"/>
<text xml:space="preserve" text-anchor="middle" x="291" y="-4.8" font-family="Consolas" font-size="11.00">npi::log::setMaxFolderSize</text>
</a>
</g>
</g>
<!-- Node1&#45;&gt;Node6 -->
<g id="edge5_Node000001_Node000006" class="edge">
<title>Node1&#45;&gt;Node6</title>
<g id="a_edge5_Node000001_Node000006"><a xlink:title=" ">
<path fill="none" stroke="#63b8ff" d="M508.25,-53.84C458.95,-43.76 386.04,-28.85 338.77,-19.19"/>
<polygon fill="#63b8ff" stroke="#63b8ff" points="512.95,-54.8 507.6,-56 511.69,-54.54 508.05,-53.8 508.05,-53.8 508.05,-53.8 511.69,-54.54 508.5,-51.59 512.95,-54.8"/>
</a>
</g>
</g>
<!-- Node3 -->
<g id="Node000003" class="node">
<title>Node3</title>
<g id="a_Node000003"><a xlink:href="../../dc/d8e/namespaceanonymous__namespace_02_log_8cpp_03.html#a474bf1d9b97572fbc7245fa612f19a5d" target="_top" xlink:title=" ">
<polygon fill="white" stroke="none" points="166,-135.88 0,-135.88 0,-105.38 166,-105.38 166,-135.88"/>
<text xml:space="preserve" text-anchor="start" x="8" y="-121.42" font-family="Consolas" font-size="11.00">anonymous_namespace</text>
<text xml:space="preserve" text-anchor="middle" x="83" y="-110.17" font-family="Consolas" font-size="11.00">{Log::cpp}::aScheduleInit</text>
</a>
</g>
</g>
<!-- Node2&#45;&gt;Node3 -->
<g id="edge2_Node000002_Node000003" class="edge">
<title>Node2&#45;&gt;Node3</title>
<g id="a_edge2_Node000002_Node000003"><a xlink:title=" ">
<path fill="none" stroke="#63b8ff" d="M220.34,-120.62C202.78,-120.62 183.78,-120.62 165.69,-120.62"/>
<polygon fill="#63b8ff" stroke="#63b8ff" points="225.01,-120.63 220.01,-122.88 223.73,-120.63 220.01,-120.63 220.01,-120.63 220.01,-120.63 223.73,-120.63 220.01,-118.38 225.01,-120.63"/>
</a>
</g>
</g>
</g>
</svg>
