<?xml version="1.0" encoding="UTF-8" standalone="no"?>
<!DOCTYPE svg PUBLIC "-//W3C//DTD SVG 1.1//EN"
 "http://www.w3.org/Graphics/SVG/1.1/DTD/svg11.dtd">
<!-- Generated by graphviz version 14.0.0 (20250921.2048)
 -->
<!-- Title: anonymous_namespace{Log::cpp}::aCleanedDirPath Pages: 1 -->
<svg width="888pt" height="127pt"
 viewBox="0.00 0.00 888.00 127.00" xmlns="http://www.w3.org/2000/svg" xmlns:xlink="http://www.w3.org/1999/xlink">
<g id="graph0" class="graph" transform="scale(1 1) rotate(0) translate(4 122.88)">
<title>anonymous_namespace{Log::cpp}::aCleanedDirPath</title>
<!-- Node1 -->
<g id="Node000001" class="node">
<title>Node1</title>
<g id="a_Node000001"><a xlink:title=" ">
<polygon fill="#999999" stroke="none" points="880,-75.25 588,-75.25 588,-56 880,-56 880,-75.25"/>
<text xml:space="preserve" text-anchor="start" x="596" y="-61.8" font-family="Consolas" font-weight="bold" font-size="11.00">anonymous_namespace{Log::cpp}::aCleanedDirPath</text>
</a>
</g>
</g>
<!-- Node2 -->
<g id="Node000002" class="node">
<title>Node2</title>
<g id="a_Node000002"><a xlink:href="../../d5/ddd/namespacenpi_1_1log.html#adc43e95b1d6b8f65bb04565dfda8a776" target="_top" xlink:title=" ">
<polygon fill="white" stroke="none" points="552,-94.25 416,-94.25 416,-75 552,-75 552,-94.25"/>
<text xml:space="preserve" text-anchor="middle" x="484" y="-79.8" font-family="Consolas" font-size="11.00">npi::log::defaultDir</text>
</a>
</g>
</g>
<!-- Node1&#45;&gt;Node2 -->
<g id="edge1_Node000001_Node000002" class="edge">
<title>Node1&#45;&gt;Node2</title>
<g id="a_edge1_Node000001_Node000002"><a xlink:title=" ">
<path fill="none" stroke="#63b8ff" d="M601.69,-75.68C584.45,-77.01 567.39,-78.31 551.87,-79.5"/>
<polygon fill="#63b8ff" stroke="#63b8ff" points="606.33,-75.33 601.52,-77.95 605.05,-75.43 601.35,-75.71 601.35,-75.71 601.35,-75.71 605.05,-75.43 601.17,-73.47 606.33,-75.33"/>
</a>
</g>
</g>
<!-- Node3 -->
<g id="Node000003" class="node">
<title>Node3</title>
<g id="a_Node000003"><a xlink:href="../../d5/ddd/namespacenpi_1_1log.html#ad3a49953f000d2b255f2e32166048605" target="_top" xlink:title=" ">
<polygon fill="white" stroke="none" points="356,-113.25 226,-113.25 226,-94 356,-94 356,-113.25"/>
<text xml:space="preserve" text-anchor="middle" x="291" y="-98.8" font-family="Consolas" font-size="11.00">npi::log::getConfig</text>
</a>
</g>
</g>
<!-- Node1&#45;&gt;Node3 -->
<g id="edge6_Node000001_Node000003" class="edge">
<title>Node1&#45;&gt;Node3</title>
<g id="a_edge6_Node000001_Node000003"><a xlink:title=" ">
<path fill="none" stroke="#63b8ff" d="M692.28,-76.7C655.85,-86 600.81,-98.56 552,-103.62 485.33,-110.55 408.52,-109.44 355.77,-107.29"/>
<polygon fill="#63b8ff" stroke="#63b8ff" points="696.79,-75.54 692.5,-78.96 695.54,-75.86 691.94,-76.78 691.94,-76.78 691.94,-76.78 695.54,-75.86 691.38,-74.61 696.79,-75.54"/>
</a>
</g>
</g>
<!-- Node5 -->
<g id="Node000005" class="node">
<title>Node5</title>
<g id="a_Node000005"><a xlink:href="../../d5/ddd/namespacenpi_1_1log.html#ae0762e568cebcd885346fb347ffb9579" target="_top" xlink:title=" ">
<polygon fill="white" stroke="none" points="380,-56.25 202,-56.25 202,-37 380,-37 380,-56.25"/>
<text xml:space="preserve" text-anchor="middle" x="291" y="-41.8" font-family="Consolas" font-size="11.00">npi::log::restoreDefaultDir</text>
</a>
</g>
</g>
<!-- Node1&#45;&gt;Node5 -->
<g id="edge7_Node000001_Node000005" class="edge">
<title>Node1&#45;&gt;Node5</title>
<g id="a_edge7_Node000001_Node000005"><a xlink:title=" ">
<path fill="none" stroke="#63b8ff" d="M582.22,-59.13C514.82,-56.22 437.72,-52.9 379.94,-50.41"/>
<polygon fill="#63b8ff" stroke="#63b8ff" points="587.08,-59.34 581.99,-61.37 585.8,-59.28 582.08,-59.12 582.08,-59.12 582.08,-59.12 585.8,-59.28 582.18,-56.87 587.08,-59.34"/>
</a>
</g>
</g>
<!-- Node6 -->
<g id="Node000006" class="node">
<title>Node6</title>
<g id="a_Node000006"><a xlink:href="../../d5/ddd/namespacenpi_1_1log.html#a8f3b90122377e77601b8b4e55362ec34" target="_top" xlink:title=" ">
<polygon fill="white" stroke="none" points="347,-19.25 235,-19.25 235,0 347,0 347,-19.25"/>
<text xml:space="preserve" text-anchor="middle" x="291" y="-4.8" font-family="Consolas" font-size="11.00">npi::log::setDir</text>
</a>
</g>
</g>
<!-- Node1&#45;&gt;Node6 -->
<g id="edge8_Node000001_Node000006" class="edge">
<title>Node1&#45;&gt;Node6</title>
<g id="a_edge8_Node000001_Node000006"><a xlink:title=" ">
<path fill="none" stroke="#63b8ff" d="M651.4,-55.26C562.64,-43.99 423.21,-26.29 346.72,-16.57"/>
<polygon fill="#63b8ff" stroke="#63b8ff" points="656.23,-55.88 650.99,-57.48 654.96,-55.72 651.27,-55.25 651.27,-55.25 651.27,-55.25 654.96,-55.72 651.55,-53.01 656.23,-55.88"/>
</a>
</g>
</g>
<!-- Node2&#45;&gt;Node3 -->
<g id="edge2_Node000002_Node000003" class="edge">
<title>Node2&#45;&gt;Node3</title>
<g id="a_edge2_Node000002_Node000003"><a xlink:title=" ">
<path fill="none" stroke="#63b8ff" d="M410.18,-91.87C392.3,-93.65 373.3,-95.54 355.87,-97.27"/>
<polygon fill="#63b8ff" stroke="#63b8ff" points="414.99,-91.39 410.23,-94.12 413.71,-91.52 410.01,-91.89 410.01,-91.89 410.01,-91.89 413.71,-91.52 409.79,-89.65 414.99,-91.39"/>
</a>
</g>
</g>
<!-- Node2&#45;&gt;Node5 -->
<g id="edge4_Node000002_Node000005" class="edge">
<title>Node2&#45;&gt;Node5</title>
<g id="a_edge4_Node000002_Node000005"><a xlink:title=" ">
<path fill="none" stroke="#63b8ff" d="M428.94,-73.87C401.01,-68.31 367.21,-61.59 340.18,-56.21"/>
<polygon fill="#63b8ff" stroke="#63b8ff" points="433.61,-74.8 428.26,-76.03 432.35,-74.55 428.7,-73.82 428.7,-73.82 428.7,-73.82 432.35,-74.55 429.14,-71.62 433.61,-74.8"/>
</a>
</g>
</g>
<!-- Node2&#45;&gt;Node6 -->
<g id="edge5_Node000002_Node000006" class="edge">
<title>Node2&#45;&gt;Node6</title>
<g id="a_edge5_Node000002_Node000006"><a xlink:title=" ">
<path fill="none" stroke="#63b8ff" d="M463.94,-71.75C443.88,-58.76 410.98,-39.06 380,-27.62 369.47,-23.74 357.9,-20.61 346.71,-18.13"/>
<polygon fill="#63b8ff" stroke="#63b8ff" points="467.98,-74.39 462.56,-73.53 466.9,-73.69 463.79,-71.65 463.79,-71.65 463.79,-71.65 466.9,-73.69 465.02,-69.77 467.98,-74.39"/>
</a>
</g>
</g>
<!-- Node4 -->
<g id="Node000004" class="node">
<title>Node4</title>
<g id="a_Node000004"><a xlink:href="../../dc/d8e/namespaceanonymous__namespace_02_log_8cpp_03.html#a474bf1d9b97572fbc7245fa612f19a5d" target="_top" xlink:title=" ">
<polygon fill="white" stroke="none" points="166,-118.88 0,-118.88 0,-88.38 166,-88.38 166,-118.88"/>
<text xml:space="preserve" text-anchor="start" x="8" y="-104.42" font-family="Consolas" font-size="11.00">anonymous_namespace</text>
<text xml:space="preserve" text-anchor="middle" x="83" y="-93.17" font-family="Consolas" font-size="11.00">{Log::cpp}::aScheduleInit</text>
</a>
</g>
</g>
<!-- Node3&#45;&gt;Node4 -->
<g id="edge3_Node000003_Node000004" class="edge">
<title>Node3&#45;&gt;Node4</title>
<g id="a_edge3_Node000003_Node000004"><a xlink:title=" ">
<path fill="none" stroke="#63b8ff" d="M220.34,-103.62C202.78,-103.62 183.78,-103.62 165.69,-103.62"/>
<polygon fill="#63b8ff" stroke="#63b8ff" points="225.01,-103.63 220.01,-105.88 223.73,-103.63 220.01,-103.63 220.01,-103.63 220.01,-103.63 223.73,-103.63 220.01,-101.38 225.01,-103.63"/>
</a>
</g>
</g>
</g>
</svg>
