<?xml version="1.0" encoding="UTF-8" standalone="no"?>
<!DOCTYPE svg PUBLIC "-//W3C//DTD SVG 1.1//EN"
 "http://www.w3.org/Graphics/SVG/1.1/DTD/svg11.dtd">
<!-- Generated by graphviz version 14.0.0 (20250921.2048)
 -->
<!-- Title: anonymous_namespace{Log::cpp}::shuttingDown Pages: 1 -->
<svg width="614pt" height="110pt"
 viewBox="0.00 0.00 614.00 110.00" xmlns="http://www.w3.org/2000/svg" xmlns:xlink="http://www.w3.org/1999/xlink">
<g id="graph0" class="graph" transform="scale(1 1) rotate(0) translate(4 105.75)">
<title>anonymous_namespace{Log::cpp}::shuttingDown</title>
<!-- Node1 -->
<g id="Node000001" class="node">
<title>Node1</title>
<g id="a_Node000001"><a xlink:title=" ">
<polygon fill="#999999" stroke="none" points="274,-60.5 0,-60.5 0,-41.25 274,-41.25 274,-60.5"/>
<text xml:space="preserve" text-anchor="start" x="8" y="-47.05" font-family="Consolas" font-weight="bold" font-size="11.00">anonymous_namespace{Log::cpp}::shuttingDown</text>
</a>
</g>
</g>
<!-- Node2 -->
<g id="Node000002" class="node">
<title>Node2</title>
<g id="a_Node000002"><a xlink:href="../../d0/d61/classanonymous__namespace_02_log_8cpp_03_1_1_log_core.html#a26a241a862fcd7dfd89667433d7e4bd1" target="_top" xlink:title=" ">
<polygon fill="white" stroke="none" points="440,-101.75 310,-101.75 310,-60 440,-60 440,-101.75"/>
<text xml:space="preserve" text-anchor="start" x="318" y="-87.3" font-family="Consolas" font-size="11.00">anonymous_namespace</text>
<text xml:space="preserve" text-anchor="start" x="318" y="-76.05" font-family="Consolas" font-size="11.00">{Log::cpp}::LogCore</text>
<text xml:space="preserve" text-anchor="middle" x="375" y="-64.8" font-family="Consolas" font-size="11.00">::initiateShutdown_</text>
</a>
</g>
</g>
<!-- Node1&#45;&gt;Node2 -->
<g id="edge1_Node000001_Node000002" class="edge">
<title>Node1&#45;&gt;Node2</title>
<g id="a_edge1_Node000001_Node000002"><a xlink:title=" ">
<path fill="none" stroke="#63b8ff" d="M213.65,-60.49C242.72,-64.19 275.75,-68.39 304.25,-72.01"/>
<polygon fill="#63b8ff" stroke="#63b8ff" points="309.05,-72.62 303.81,-74.22 307.78,-72.46 304.09,-71.99 304.09,-71.99 304.09,-71.99 307.78,-72.46 304.37,-69.76 309.05,-72.62"/>
</a>
</g>
</g>
<!-- Node3 -->
<g id="Node000003" class="node">
<title>Node3</title>
<g id="a_Node000003"><a xlink:href="../../d0/d61/classanonymous__namespace_02_log_8cpp_03_1_1_log_core.html#af85854d22c95e86c8802d7d864fcd350" target="_top" xlink:title=" ">
<polygon fill="white" stroke="none" points="440,-41.75 310,-41.75 310,0 440,0 440,-41.75"/>
<text xml:space="preserve" text-anchor="start" x="318" y="-27.3" font-family="Consolas" font-size="11.00">anonymous_namespace</text>
<text xml:space="preserve" text-anchor="start" x="318" y="-16.05" font-family="Consolas" font-size="11.00">{Log::cpp}::LogCore</text>
<text xml:space="preserve" text-anchor="middle" x="375" y="-4.8" font-family="Consolas" font-size="11.00">::Inst_</text>
</a>
</g>
</g>
<!-- Node1&#45;&gt;Node3 -->
<g id="edge2_Node000001_Node000003" class="edge">
<title>Node1&#45;&gt;Node3</title>
<g id="a_edge2_Node000001_Node000003"><a xlink:title=" ">
<path fill="none" stroke="#63b8ff" d="M213.65,-41.26C242.72,-37.56 275.75,-33.36 304.25,-29.74"/>
<polygon fill="#63b8ff" stroke="#63b8ff" points="309.05,-29.13 304.37,-31.99 307.78,-29.29 304.09,-29.76 304.09,-29.76 304.09,-29.76 307.78,-29.29 303.81,-27.53 309.05,-29.13"/>
</a>
</g>
</g>
<!-- Node4 -->
<g id="Node000004" class="node">
<title>Node4</title>
<g id="a_Node000004"><a xlink:href="../../d0/d61/classanonymous__namespace_02_log_8cpp_03_1_1_log_core.html#a730f0868e0c404fa25a887a023b70138" target="_top" xlink:title=" ">
<polygon fill="white" stroke="none" points="606,-41.75 476,-41.75 476,0 606,0 606,-41.75"/>
<text xml:space="preserve" text-anchor="start" x="484" y="-27.3" font-family="Consolas" font-size="11.00">anonymous_namespace</text>
<text xml:space="preserve" text-anchor="start" x="484" y="-16.05" font-family="Consolas" font-size="11.00">{Log::cpp}::LogCore</text>
<text xml:space="preserve" text-anchor="middle" x="541" y="-4.8" font-family="Consolas" font-size="11.00">::LogCore</text>
</a>
</g>
</g>
<!-- Node3&#45;&gt;Node4 -->
<g id="edge3_Node000003_Node000004" class="edge">
<title>Node3&#45;&gt;Node4</title>
<g id="a_edge3_Node000003_Node000004"><a xlink:title=" ">
<path fill="none" stroke="#63b8ff" d="M439.88,-20.88C449.71,-20.88 459.9,-20.88 469.86,-20.88"/>
<polygon fill="#63b8ff" stroke="#63b8ff" points="474.81,-20.88 469.81,-23.13 473.53,-20.88 469.81,-20.88 469.81,-20.88 469.81,-20.88 473.53,-20.88 469.81,-18.63 474.81,-20.88"/>
</a>
</g>
</g>
<!-- Node4&#45;&gt;Node4 -->
<g id="edge4_Node000004_Node000004" class="edge">
<title>Node4&#45;&gt;Node4</title>
<g id="a_edge4_Node000004_Node000004"><a xlink:title=" ">
<path fill="none" stroke="#63b8ff" d="M510.49,-41.67C507.16,-51.32 517.33,-59.75 541,-59.75 559.49,-59.75 569.74,-54.61 571.76,-47.75"/>
<polygon fill="#63b8ff" stroke="#63b8ff" points="571.56,-42.89 574.01,-47.79 571.61,-44.17 571.76,-47.89 571.76,-47.89 571.76,-47.89 571.61,-44.17 569.51,-47.98 571.56,-42.89"/>
</a>
</g>
</g>
</g>
</svg>
