<?xml version="1.0" encoding="UTF-8" standalone="no"?>
<!DOCTYPE svg PUBLIC "-//W3C//DTD SVG 1.1//EN"
 "http://www.w3.org/Graphics/SVG/1.1/DTD/svg11.dtd">
<!-- Generated by graphviz version 14.0.0 (20250921.2048)
 -->
<!-- Title: anonymous_namespace{Log::cpp}::loggingCategoryFilter Pages: 1 -->
<svg width="668pt" height="110pt"
 viewBox="0.00 0.00 668.00 110.00" xmlns="http://www.w3.org/2000/svg" xmlns:xlink="http://www.w3.org/1999/xlink">
<g id="graph0" class="graph" transform="scale(1 1) rotate(0) translate(4 105.75)">
<title>anonymous_namespace{Log::cpp}::loggingCategoryFilter</title>
<!-- Node1 -->
<g id="Node000001" class="node">
<title>Node1</title>
<g id="a_Node000001"><a xlink:title=" ">
<polygon fill="#999999" stroke="none" points="328,-60.5 0,-60.5 0,-41.25 328,-41.25 328,-60.5"/>
<text xml:space="preserve" text-anchor="start" x="8" y="-47.05" font-family="Consolas" font-weight="bold" font-size="11.00">anonymous_namespace{Log::cpp}::loggingCategoryFilter</text>
</a>
</g>
</g>
<!-- Node2 -->
<g id="Node000002" class="node">
<title>Node2</title>
<g id="a_Node000002"><a xlink:href="../../d0/d61/classanonymous__namespace_02_log_8cpp_03_1_1_log_core.html#aafe9aec9f51646b9da69be36e4d0ea34" target="_top" xlink:title=" ">
<polygon fill="white" stroke="none" points="494,-101.75 364,-101.75 364,-60 494,-60 494,-101.75"/>
<text xml:space="preserve" text-anchor="start" x="372" y="-87.3" font-family="Consolas" font-size="11.00">anonymous_namespace</text>
<text xml:space="preserve" text-anchor="start" x="372" y="-76.05" font-family="Consolas" font-size="11.00">{Log::cpp}::LogCore</text>
<text xml:space="preserve" text-anchor="middle" x="429" y="-64.8" font-family="Consolas" font-size="11.00">::addLogCategory_</text>
</a>
</g>
</g>
<!-- Node1&#45;&gt;Node2 -->
<g id="edge1_Node000001_Node000002" class="edge">
<title>Node1&#45;&gt;Node2</title>
<g id="a_edge1_Node000001_Node000002"><a xlink:title=" ">
<path fill="none" stroke="#63b8ff" d="M249.3,-60.49C284.38,-64.49 324.62,-69.08 358.03,-72.89"/>
<polygon fill="#63b8ff" stroke="#63b8ff" points="362.97,-73.46 357.75,-75.13 361.7,-73.31 358,-72.89 358,-72.89 358,-72.89 361.7,-73.31 358.26,-70.66 362.97,-73.46"/>
</a>
</g>
</g>
<!-- Node3 -->
<g id="Node000003" class="node">
<title>Node3</title>
<g id="a_Node000003"><a xlink:href="../../d0/d61/classanonymous__namespace_02_log_8cpp_03_1_1_log_core.html#af85854d22c95e86c8802d7d864fcd350" target="_top" xlink:title=" ">
<polygon fill="white" stroke="none" points="494,-41.75 364,-41.75 364,0 494,0 494,-41.75"/>
<text xml:space="preserve" text-anchor="start" x="372" y="-27.3" font-family="Consolas" font-size="11.00">anonymous_namespace</text>
<text xml:space="preserve" text-anchor="start" x="372" y="-16.05" font-family="Consolas" font-size="11.00">{Log::cpp}::LogCore</text>
<text xml:space="preserve" text-anchor="middle" x="429" y="-4.8" font-family="Consolas" font-size="11.00">::Inst_</text>
</a>
</g>
</g>
<!-- Node1&#45;&gt;Node3 -->
<g id="edge2_Node000001_Node000003" class="edge">
<title>Node1&#45;&gt;Node3</title>
<g id="a_edge2_Node000001_Node000003"><a xlink:title=" ">
<path fill="none" stroke="#63b8ff" d="M249.3,-41.26C284.38,-37.26 324.62,-32.67 358.03,-28.86"/>
<polygon fill="#63b8ff" stroke="#63b8ff" points="362.97,-28.29 358.26,-31.09 361.7,-28.44 358,-28.86 358,-28.86 358,-28.86 361.7,-28.44 357.75,-26.62 362.97,-28.29"/>
</a>
</g>
</g>
<!-- Node4 -->
<g id="Node000004" class="node">
<title>Node4</title>
<g id="a_Node000004"><a xlink:href="../../d0/d61/classanonymous__namespace_02_log_8cpp_03_1_1_log_core.html#a730f0868e0c404fa25a887a023b70138" target="_top" xlink:title=" ">
<polygon fill="white" stroke="none" points="660,-41.75 530,-41.75 530,0 660,0 660,-41.75"/>
<text xml:space="preserve" text-anchor="start" x="538" y="-27.3" font-family="Consolas" font-size="11.00">anonymous_namespace</text>
<text xml:space="preserve" text-anchor="start" x="538" y="-16.05" font-family="Consolas" font-size="11.00">{Log::cpp}::LogCore</text>
<text xml:space="preserve" text-anchor="middle" x="595" y="-4.8" font-family="Consolas" font-size="11.00">::LogCore</text>
</a>
</g>
</g>
<!-- Node3&#45;&gt;Node4 -->
<g id="edge3_Node000003_Node000004" class="edge">
<title>Node3&#45;&gt;Node4</title>
<g id="a_edge3_Node000003_Node000004"><a xlink:title=" ">
<path fill="none" stroke="#63b8ff" d="M493.88,-20.88C503.71,-20.88 513.9,-20.88 523.86,-20.88"/>
<polygon fill="#63b8ff" stroke="#63b8ff" points="528.81,-20.88 523.81,-23.13 527.53,-20.88 523.81,-20.88 523.81,-20.88 523.81,-20.88 527.53,-20.88 523.81,-18.63 528.81,-20.88"/>
</a>
</g>
</g>
<!-- Node4&#45;&gt;Node4 -->
<g id="edge4_Node000004_Node000004" class="edge">
<title>Node4&#45;&gt;Node4</title>
<g id="a_edge4_Node000004_Node000004"><a xlink:title=" ">
<path fill="none" stroke="#63b8ff" d="M564.49,-41.67C561.16,-51.32 571.33,-59.75 595,-59.75 613.49,-59.75 623.74,-54.61 625.76,-47.75"/>
<polygon fill="#63b8ff" stroke="#63b8ff" points="625.56,-42.89 628.01,-47.79 625.61,-44.17 625.76,-47.89 625.76,-47.89 625.76,-47.89 625.61,-44.17 623.51,-47.98 625.56,-42.89"/>
</a>
</g>
</g>
</g>
</svg>
