<?xml version="1.0" encoding="UTF-8" standalone="no"?>
<!DOCTYPE svg PUBLIC "-//W3C//DTD SVG 1.1//EN"
 "http://www.w3.org/Graphics/SVG/1.1/DTD/svg11.dtd">
<!-- Generated by graphviz version 14.0.0 (20250921.2048)
 -->
<!-- Title: anonymous_namespace{Log::cpp}::aScheduleInit Pages: 1 -->
<svg width="1662pt" height="223pt"
 viewBox="0.00 0.00 1662.00 223.00" xmlns="http://www.w3.org/2000/svg" xmlns:xlink="http://www.w3.org/1999/xlink">
<g id="graph0" class="graph" transform="scale(1 1) rotate(0) translate(4 218.5)">
<title>anonymous_namespace{Log::cpp}::aScheduleInit</title>
<!-- Node1 -->
<g id="Node000001" class="node">
<title>Node1</title>
<g id="a_Node000001"><a xlink:title=" ">
<polygon fill="#999999" stroke="none" points="280,-143.25 0,-143.25 0,-124 280,-124 280,-143.25"/>
<text xml:space="preserve" text-anchor="start" x="8" y="-129.8" font-family="Consolas" font-weight="bold" font-size="11.00">anonymous_namespace{Log::cpp}::aScheduleInit</text>
</a>
</g>
</g>
<!-- Node2 -->
<g id="Node000002" class="node">
<title>Node2</title>
<g id="a_Node000002"><a xlink:href="../../df/d72/classanonymous__namespace_02_log_8cpp_03_1_1_a_logger.html#ade79be97b82ac1cc816b85254426ac83" target="_top" xlink:title=" ">
<polygon fill="white" stroke="none" points="476,-214.5 346,-214.5 346,-172.75 476,-172.75 476,-214.5"/>
<text xml:space="preserve" text-anchor="start" x="354" y="-200.05" font-family="Consolas" font-size="11.00">anonymous_namespace</text>
<text xml:space="preserve" text-anchor="start" x="354" y="-188.8" font-family="Consolas" font-size="11.00">{Log::cpp}::ALogger</text>
<text xml:space="preserve" text-anchor="middle" x="411" y="-177.55" font-family="Consolas" font-size="11.00">::ALogger</text>
</a>
</g>
</g>
<!-- Node1&#45;&gt;Node2 -->
<g id="edge1_Node000001_Node000002" class="edge">
<title>Node1&#45;&gt;Node2</title>
<g id="a_edge1_Node000001_Node000002"><a xlink:title=" ">
<path fill="none" stroke="#63b8ff" d="M183.92,-143.2C225.97,-152.58 290.76,-167.03 340.22,-178.06"/>
<polygon fill="#63b8ff" stroke="#63b8ff" points="344.98,-179.12 339.61,-180.23 343.73,-178.84 340.1,-178.03 340.1,-178.03 340.1,-178.03 343.73,-178.84 340.59,-175.84 344.98,-179.12"/>
</a>
</g>
</g>
<!-- Node4 -->
<g id="Node000004" class="node">
<title>Node4</title>
<g id="a_Node000004"><a xlink:href="../../dc/d8e/namespaceanonymous__namespace_02_log_8cpp_03.html#ac2c783183f66d916c2404fd49c2fca94" target="_top" xlink:title=" ">
<polygon fill="white" stroke="none" points="506,-154.5 316,-154.5 316,-112.75 506,-112.75 506,-154.5"/>
<text xml:space="preserve" text-anchor="start" x="324" y="-140.05" font-family="Consolas" font-size="11.00">anonymous_namespace</text>
<text xml:space="preserve" text-anchor="start" x="324" y="-128.8" font-family="Consolas" font-size="11.00">{Log::cpp}::aStartupMigration</text>
<text xml:space="preserve" text-anchor="middle" x="411" y="-117.55" font-family="Consolas" font-size="11.00">AndCleanup</text>
</a>
</g>
</g>
<!-- Node1&#45;&gt;Node4 -->
<g id="edge3_Node000001_Node000004" class="edge">
<title>Node1&#45;&gt;Node4</title>
<g id="a_edge3_Node000001_Node000004"><a xlink:title=" ">
<path fill="none" stroke="#63b8ff" d="M279.83,-133.62C290.05,-133.62 300.23,-133.62 310.14,-133.62"/>
<polygon fill="#63b8ff" stroke="#63b8ff" points="315.05,-133.63 310.05,-135.88 313.77,-133.63 310.05,-133.63 310.05,-133.63 310.05,-133.63 313.77,-133.63 310.05,-131.38 315.05,-133.63"/>
</a>
</g>
</g>
<!-- Node5 -->
<g id="Node000005" class="node">
<title>Node5</title>
<g id="a_Node000005"><a xlink:href="../../d5/ddd/namespacenpi_1_1log.html#ad3a49953f000d2b255f2e32166048605" target="_top" xlink:title=" ">
<polygon fill="white" stroke="none" points="476,-94.25 346,-94.25 346,-75 476,-75 476,-94.25"/>
<text xml:space="preserve" text-anchor="middle" x="411" y="-79.8" font-family="Consolas" font-size="11.00">npi::log::getConfig</text>
</a>
</g>
</g>
<!-- Node1&#45;&gt;Node5 -->
<g id="edge4_Node000001_Node000005" class="edge">
<title>Node1&#45;&gt;Node5</title>
<g id="a_edge4_Node000001_Node000005"><a xlink:title=" ">
<path fill="none" stroke="#63b8ff" d="M193.82,-124C239.16,-115.74 304.43,-103.85 351.38,-95.3"/>
<polygon fill="#63b8ff" stroke="#63b8ff" points="356.1,-94.44 351.58,-97.55 354.84,-94.67 351.18,-95.34 351.18,-95.34 351.18,-95.34 354.84,-94.67 350.78,-93.13 356.1,-94.44"/>
</a>
</g>
</g>
<!-- Node3 -->
<g id="Node000003" class="node">
<title>Node3</title>
<g id="a_Node000003"><a xlink:href="../../df/d72/classanonymous__namespace_02_log_8cpp_03_1_1_a_logger.html#a2ef9b983f4e1e3b47521bf8f17b09b9f" target="_top" xlink:title=" ">
<polygon fill="white" stroke="none" points="696,-214.5 566,-214.5 566,-172.75 696,-172.75 696,-214.5"/>
<text xml:space="preserve" text-anchor="start" x="574" y="-200.05" font-family="Consolas" font-size="11.00">anonymous_namespace</text>
<text xml:space="preserve" text-anchor="start" x="574" y="-188.8" font-family="Consolas" font-size="11.00">{Log::cpp}::ALogger</text>
<text xml:space="preserve" text-anchor="middle" x="631" y="-177.55" font-family="Consolas" font-size="11.00">::fileNamePrefix_</text>
</a>
</g>
</g>
<!-- Node2&#45;&gt;Node3 -->
<g id="edge2_Node000002_Node000003" class="edge">
<title>Node2&#45;&gt;Node3</title>
<g id="a_edge2_Node000002_Node000003"><a xlink:title=" ">
<path fill="none" stroke="#63b8ff" d="M475.93,-193.62C502.33,-193.62 533.01,-193.62 560.01,-193.62"/>
<polygon fill="#63b8ff" stroke="#63b8ff" points="564.85,-193.63 559.85,-195.88 563.57,-193.63 559.85,-193.63 559.85,-193.63 559.85,-193.63 563.57,-193.63 559.85,-191.38 564.85,-193.63"/>
</a>
</g>
</g>
<!-- Node6 -->
<g id="Node000006" class="node">
<title>Node6</title>
<g id="a_Node000006"><a xlink:href="../../dc/d8e/namespaceanonymous__namespace_02_log_8cpp_03.html#aeff2e7bab0c6e2ea92dca005b93c47c4" target="_top" xlink:title=" ">
<polygon fill="white" stroke="none" points="946,-98.88 768,-98.88 768,-68.38 946,-68.38 946,-98.88"/>
<text xml:space="preserve" text-anchor="start" x="776" y="-84.42" font-family="Consolas" font-size="11.00">anonymous_namespace</text>
<text xml:space="preserve" text-anchor="middle" x="857" y="-73.17" font-family="Consolas" font-size="11.00">{Log::cpp}::aCleanedDirPath</text>
</a>
</g>
</g>
<!-- Node5&#45;&gt;Node6 -->
<g id="edge5_Node000005_Node000006" class="edge">
<title>Node5&#45;&gt;Node6</title>
<g id="a_edge5_Node000005_Node000006"><a xlink:title=" ">
<path fill="none" stroke="#63b8ff" d="M475.61,-84.48C550.55,-84.31 675.71,-84.03 761.88,-83.84"/>
<polygon fill="#63b8ff" stroke="#63b8ff" points="766.8,-83.83 761.8,-86.09 765.51,-83.83 761.8,-83.84 761.8,-83.84 761.8,-83.84 765.51,-83.83 761.79,-81.59 766.8,-83.83"/>
</a>
</g>
</g>
<!-- Node7 -->
<g id="Node000007" class="node">
<title>Node7</title>
<g id="a_Node000007"><a xlink:href="../../dc/d8e/namespaceanonymous__namespace_02_log_8cpp_03.html#a4fd28b9a729792528c3707da82453049" target="_top" xlink:title=" ">
<polygon fill="white" stroke="none" points="720,-67.88 542,-67.88 542,-37.38 720,-37.38 720,-67.88"/>
<text xml:space="preserve" text-anchor="start" x="550" y="-53.42" font-family="Consolas" font-size="11.00">anonymous_namespace</text>
<text xml:space="preserve" text-anchor="middle" x="631" y="-42.17" font-family="Consolas" font-size="11.00">{Log::cpp}::aConfigLockName</text>
</a>
</g>
</g>
<!-- Node5&#45;&gt;Node7 -->
<g id="edge6_Node000005_Node000007" class="edge">
<title>Node5&#45;&gt;Node7</title>
<g id="a_edge6_Node000005_Node000007"><a xlink:title=" ">
<path fill="none" stroke="#63b8ff" d="M475.93,-75.24C494.8,-72.47 515.86,-69.38 536.19,-66.4"/>
<polygon fill="#63b8ff" stroke="#63b8ff" points="540.98,-65.69 536.36,-68.64 539.71,-65.88 536.04,-66.42 536.04,-66.42 536.04,-66.42 539.71,-65.88 535.71,-64.19 540.98,-65.69"/>
</a>
</g>
</g>
<!-- Node8 -->
<g id="Node000008" class="node">
<title>Node8</title>
<g id="a_Node000008"><a xlink:href="../../dc/dba/namespacenpi_1_1app.html#a40a2a28831f2f410c995f0657baf6544" target="_top" xlink:title="Absolute application&#45;level ProgramData path.">
<polygon fill="white" stroke="none" points="946,-143.25 768,-143.25 768,-124 946,-124 946,-143.25"/>
<text xml:space="preserve" text-anchor="middle" x="857" y="-128.8" font-family="Consolas" font-size="11.00">npi::app::appProgramDataDir</text>
</a>
</g>
</g>
<!-- Node5&#45;&gt;Node8 -->
<g id="edge7_Node000005_Node000008" class="edge">
<title>Node5&#45;&gt;Node8</title>
<g id="a_edge7_Node000005_Node000008"><a xlink:title=" ">
<path fill="none" stroke="#63b8ff" d="M475.61,-91.65C550.78,-99.94 676.5,-113.81 762.69,-123.33"/>
<polygon fill="#63b8ff" stroke="#63b8ff" points="767.61,-123.87 762.39,-125.56 766.34,-123.73 762.64,-123.32 762.64,-123.32 762.64,-123.32 766.34,-123.73 762.89,-121.09 767.61,-123.87"/>
</a>
</g>
</g>
<!-- Node13 -->
<g id="Node000013" class="node">
<title>Node13</title>
<g id="a_Node000013"><a xlink:href="../../d5/ddd/namespacenpi_1_1log.html#adc43e95b1d6b8f65bb04565dfda8a776" target="_top" xlink:title=" ">
<polygon fill="white" stroke="none" points="699,-19.25 563,-19.25 563,0 699,0 699,-19.25"/>
<text xml:space="preserve" text-anchor="middle" x="631" y="-4.8" font-family="Consolas" font-size="11.00">npi::log::defaultDir</text>
</a>
</g>
</g>
<!-- Node5&#45;&gt;Node13 -->
<g id="edge14_Node000005_Node000013" class="edge">
<title>Node5&#45;&gt;Node13</title>
<g id="a_edge14_Node000005_Node000013"><a xlink:title=" ">
<path fill="none" stroke="#63b8ff" d="M430.93,-75.08C455.85,-62.84 501.27,-41.66 542,-28.62 551.46,-25.6 561.64,-22.9 571.61,-20.56"/>
<polygon fill="#63b8ff" stroke="#63b8ff" points="576.25,-19.5 571.88,-22.81 575.01,-19.78 571.38,-20.62 571.38,-20.62 571.38,-20.62 575.01,-19.78 570.88,-18.42 576.25,-19.5"/>
</a>
</g>
</g>
<!-- Node9 -->
<g id="Node000009" class="node">
<title>Node9</title>
<g id="a_Node000009"><a xlink:href="../../df/d40/namespaceanonymous__namespace_02_meta_paths_8cpp_03.html#a1554aad28987c554d0ff1c379ce0567e" target="_top" xlink:title="Create subdirectory under base path.">
<polygon fill="white" stroke="none" points="1434,-79.88 1232,-79.88 1232,-49.38 1434,-49.38 1434,-79.88"/>
<text xml:space="preserve" text-anchor="start" x="1240" y="-65.42" font-family="Consolas" font-size="11.00">anonymous_namespace</text>
<text xml:space="preserve" text-anchor="middle" x="1333" y="-54.17" font-family="Consolas" font-size="11.00">{MetaPaths::cpp}::aCreateSubDir</text>
</a>
</g>
</g>
<!-- Node8&#45;&gt;Node9 -->
<g id="edge8_Node000008_Node000009" class="edge">
<title>Node8&#45;&gt;Node9</title>
<g id="a_edge8_Node000008_Node000009"><a xlink:title=" ">
<path fill="none" stroke="#63b8ff" d="M923.91,-124.03C1002.19,-112.64 1133.8,-93.48 1226.35,-80"/>
<polygon fill="#63b8ff" stroke="#63b8ff" points="1231.18,-79.3 1226.56,-82.25 1229.92,-79.49 1226.24,-80.02 1226.24,-80.02 1226.24,-80.02 1229.92,-79.49 1225.91,-77.79 1231.18,-79.3"/>
</a>
</g>
</g>
<!-- Node11 -->
<g id="Node000011" class="node">
<title>Node11</title>
<g id="a_Node000011"><a xlink:href="../../dc/dba/namespacenpi_1_1app.html#a30836be8b9337a64733a6e05594b23c8" target="_top" xlink:title="Absolute organization&#45;level ProgramData path.">
<polygon fill="white" stroke="none" points="1184,-150.25 1006,-150.25 1006,-131 1184,-131 1184,-150.25"/>
<text xml:space="preserve" text-anchor="middle" x="1095" y="-135.8" font-family="Consolas" font-size="11.00">npi::app::orgProgramDataDir</text>
</a>
</g>
</g>
<!-- Node8&#45;&gt;Node11 -->
<g id="edge10_Node000008_Node000011" class="edge">
<title>Node8&#45;&gt;Node11</title>
<g id="a_edge10_Node000008_Node000011"><a xlink:title=" ">
<path fill="none" stroke="#63b8ff" d="M945.88,-136.23C963.54,-136.76 982.16,-137.31 1000.02,-137.84"/>
<polygon fill="#63b8ff" stroke="#63b8ff" points="1004.83,-137.98 999.77,-140.08 1003.55,-137.94 999.83,-137.83 999.83,-137.83 999.83,-137.83 1003.55,-137.94 999.9,-135.58 1004.83,-137.98"/>
</a>
</g>
</g>
<!-- Node10 -->
<g id="Node000010" class="node">
<title>Node10</title>
<g id="a_Node000010"><a xlink:href="../../dc/dba/namespacenpi_1_1app.html#a30b5245afa890e98f19f43c58f29e633" target="_top" xlink:title="Windows native fatal error message box.">
<polygon fill="white" stroke="none" points="1654,-74.25 1470,-74.25 1470,-55 1654,-55 1654,-74.25"/>
<text xml:space="preserve" text-anchor="middle" x="1562" y="-59.8" font-family="Consolas" font-size="11.00">npi::app::nativeFatalMessage</text>
</a>
</g>
</g>
<!-- Node9&#45;&gt;Node10 -->
<g id="edge9_Node000009_Node000010" class="edge">
<title>Node9&#45;&gt;Node10</title>
<g id="a_edge9_Node000009_Node000010"><a xlink:title=" ">
<path fill="none" stroke="#63b8ff" d="M1433.9,-64.62C1443.84,-64.62 1453.94,-64.62 1463.86,-64.62"/>
<polygon fill="#63b8ff" stroke="#63b8ff" points="1468.79,-64.63 1463.79,-66.88 1467.51,-64.63 1463.79,-64.63 1463.79,-64.63 1463.79,-64.63 1467.51,-64.63 1463.79,-62.38 1468.79,-64.63"/>
</a>
</g>
</g>
<!-- Node11&#45;&gt;Node9 -->
<g id="edge13_Node000011_Node000009" class="edge">
<title>Node11&#45;&gt;Node9</title>
<g id="a_edge13_Node000011_Node000009"><a xlink:title=" ">
<path fill="none" stroke="#63b8ff" d="M1153.69,-131C1167.91,-127.5 1182.83,-122.82 1196,-116.62 1214.1,-108.11 1213.94,-98.22 1232,-89.62 1238.19,-86.68 1244.76,-84.06 1251.46,-81.73"/>
<polygon fill="#63b8ff" stroke="#63b8ff" points="1255.96,-80.22 1251.93,-83.94 1254.75,-80.63 1251.22,-81.81 1251.22,-81.81 1251.22,-81.81 1254.75,-80.63 1250.51,-79.67 1255.96,-80.22"/>
</a>
</g>
</g>
<!-- Node12 -->
<g id="Node000012" class="node">
<title>Node12</title>
<g id="a_Node000012"><a xlink:href="../../df/d40/namespaceanonymous__namespace_02_meta_paths_8cpp_03.html#a1ba3938f670cc7526df2081bf6f6c0ce" target="_top" xlink:title="Resolve base path using Known Folder ID or environment variable fallback.">
<polygon fill="white" stroke="none" points="1422,-128.88 1244,-128.88 1244,-98.38 1422,-98.38 1422,-128.88"/>
<text xml:space="preserve" text-anchor="start" x="1252" y="-114.42" font-family="Consolas" font-size="11.00">anonymous_namespace</text>
<text xml:space="preserve" text-anchor="middle" x="1333" y="-103.17" font-family="Consolas" font-size="11.00">{MetaPaths::cpp}::aBasePath</text>
</a>
</g>
</g>
<!-- Node11&#45;&gt;Node12 -->
<g id="edge11_Node000011_Node000012" class="edge">
<title>Node11&#45;&gt;Node12</title>
<g id="a_edge11_Node000011_Node000012"><a xlink:title=" ">
<path fill="none" stroke="#63b8ff" d="M1179.87,-131.03C1198.72,-128.87 1218.84,-126.57 1238.07,-124.37"/>
<polygon fill="#63b8ff" stroke="#63b8ff" points="1242.8,-123.83 1238.09,-126.63 1241.53,-123.98 1237.83,-124.4 1237.83,-124.4 1237.83,-124.4 1241.53,-123.98 1237.58,-122.16 1242.8,-123.83"/>
</a>
</g>
</g>
<!-- Node12&#45;&gt;Node10 -->
<g id="edge12_Node000012_Node000010" class="edge">
<title>Node12&#45;&gt;Node10</title>
<g id="a_edge12_Node000012_Node000010"><a xlink:title=" ">
<path fill="none" stroke="#63b8ff" d="M1404.58,-98.39C1439.01,-90.96 1479.62,-82.19 1510.83,-75.45"/>
<polygon fill="#63b8ff" stroke="#63b8ff" points="1515.35,-74.48 1510.94,-77.73 1514.1,-74.75 1510.46,-75.53 1510.46,-75.53 1510.46,-75.53 1514.1,-74.75 1509.99,-73.33 1515.35,-74.48"/>
</a>
</g>
</g>
<!-- Node13&#45;&gt;Node6 -->
<g id="edge15_Node000013_Node000006" class="edge">
<title>Node13&#45;&gt;Node6</title>
<g id="a_edge15_Node000013_Node000006"><a xlink:title=" ">
<path fill="none" stroke="#63b8ff" d="M685.58,-19.15C697.07,-21.76 709.05,-24.91 720,-28.62 736.76,-34.31 739.72,-38.7 756,-45.62 772.89,-52.81 791.64,-60.11 808.3,-66.37"/>
<polygon fill="#63b8ff" stroke="#63b8ff" points="812.73,-68.02 807.25,-68.38 811.53,-67.57 808.04,-66.27 808.04,-66.27 808.04,-66.27 811.53,-67.57 808.83,-64.16 812.73,-68.02"/>
</a>
</g>
</g>
<!-- Node13&#45;&gt;Node10 -->
<g id="edge21_Node000013_Node000010" class="edge">
<title>Node13&#45;&gt;Node10</title>
<g id="a_edge21_Node000013_Node000010"><a xlink:title=" ">
<path fill="none" stroke="#63b8ff" d="M698.93,-8.35C717.41,-8.05 737.48,-7.77 756,-7.62 1057.68,-5.19 1134.78,-2.12 1434,-40.62 1459.65,-43.93 1487.94,-49.12 1511.29,-53.83"/>
<polygon fill="#63b8ff" stroke="#63b8ff" points="1515.93,-54.77 1510.58,-55.98 1514.67,-54.52 1511.03,-53.78 1511.03,-53.78 1511.03,-53.78 1514.67,-54.52 1511.48,-51.57 1515.93,-54.77"/>
</a>
</g>
</g>
<!-- Node14 -->
<g id="Node000014" class="node">
<title>Node14</title>
<g id="a_Node000014"><a xlink:href="../../dc/dba/namespacenpi_1_1app.html#aff4c7482e4417f59ede04e359548a542" target="_top" xlink:title="Absolute application&#45;level Public/Documents path.">
<polygon fill="white" stroke="none" points="958,-36.25 756,-36.25 756,-17 958,-17 958,-36.25"/>
<text xml:space="preserve" text-anchor="middle" x="857" y="-21.8" font-family="Consolas" font-size="11.00">npi::app::appPublicDocumentsDir</text>
</a>
</g>
</g>
<!-- Node13&#45;&gt;Node14 -->
<g id="edge16_Node000013_Node000014" class="edge">
<title>Node13&#45;&gt;Node14</title>
<g id="a_edge16_Node000013_Node000014"><a xlink:title=" ">
<path fill="none" stroke="#63b8ff" d="M698.9,-14.7C715.12,-15.93 732.85,-17.28 750.37,-18.61"/>
<polygon fill="#63b8ff" stroke="#63b8ff" points="755.09,-18.97 749.93,-20.83 753.81,-18.87 750.1,-18.59 750.1,-18.59 750.1,-18.59 753.81,-18.87 750.27,-16.34 755.09,-18.97"/>
</a>
</g>
</g>
<!-- Node14&#45;&gt;Node9 -->
<g id="edge17_Node000014_Node000009" class="edge">
<title>Node14&#45;&gt;Node9</title>
<g id="a_edge17_Node000014_Node000009"><a xlink:title=" ">
<path fill="none" stroke="#63b8ff" d="M958,-30.08C1025.36,-32.93 1116.16,-37.82 1196,-45.62 1205.82,-46.59 1216.02,-47.73 1226.21,-48.98"/>
<polygon fill="#63b8ff" stroke="#63b8ff" points="1231.01,-49.57 1225.77,-51.19 1229.73,-49.42 1226.04,-48.96 1226.04,-48.96 1226.04,-48.96 1229.73,-49.42 1226.32,-46.72 1231.01,-49.57"/>
</a>
</g>
</g>
<!-- Node15 -->
<g id="Node000015" class="node">
<title>Node15</title>
<g id="a_Node000015"><a xlink:href="../../dc/dba/namespacenpi_1_1app.html#ac0dca24602a75822c6f7fcf63f8781d9" target="_top" xlink:title="Absolute organization&#45;level Public/Documents path.">
<polygon fill="white" stroke="none" points="1196,-74.25 994,-74.25 994,-55 1196,-55 1196,-74.25"/>
<text xml:space="preserve" text-anchor="middle" x="1095" y="-59.8" font-family="Consolas" font-size="11.00">npi::app::orgPublicDocumentsDir</text>
</a>
</g>
</g>
<!-- Node14&#45;&gt;Node15 -->
<g id="edge18_Node000014_Node000015" class="edge">
<title>Node14&#45;&gt;Node15</title>
<g id="a_edge18_Node000014_Node000015"><a xlink:title=" ">
<path fill="none" stroke="#63b8ff" d="M917.55,-36.21C951.37,-41.66 993.76,-48.48 1028.51,-54.08"/>
<polygon fill="#63b8ff" stroke="#63b8ff" points="1033.26,-54.85 1027.97,-56.27 1032,-54.64 1028.33,-54.05 1028.33,-54.05 1028.33,-54.05 1032,-54.64 1028.68,-51.83 1033.26,-54.85"/>
</a>
</g>
</g>
<!-- Node15&#45;&gt;Node9 -->
<g id="edge20_Node000015_Node000009" class="edge">
<title>Node15&#45;&gt;Node9</title>
<g id="a_edge20_Node000015_Node000009"><a xlink:title=" ">
<path fill="none" stroke="#63b8ff" d="M1195.74,-64.62C1205.84,-64.62 1216.12,-64.62 1226.27,-64.62"/>
<polygon fill="#63b8ff" stroke="#63b8ff" points="1231.02,-64.63 1226.02,-66.88 1229.74,-64.63 1226.02,-64.63 1226.02,-64.63 1226.02,-64.63 1229.74,-64.63 1226.02,-62.38 1231.02,-64.63"/>
</a>
</g>
</g>
<!-- Node15&#45;&gt;Node12 -->
<g id="edge19_Node000015_Node000012" class="edge">
<title>Node15&#45;&gt;Node12</title>
<g id="a_edge19_Node000015_Node000012"><a xlink:title=" ">
<path fill="none" stroke="#63b8ff" d="M1142.34,-74.25C1173.82,-80.78 1216.24,-89.59 1252.98,-97.22"/>
<polygon fill="#63b8ff" stroke="#63b8ff" points="1257.63,-98.18 1252.27,-99.37 1256.37,-97.92 1252.73,-97.17 1252.73,-97.17 1252.73,-97.17 1256.37,-97.92 1253.19,-94.96 1257.63,-98.18"/>
</a>
</g>
</g>
</g>
</svg>
