<?xml version="1.0" encoding="UTF-8" standalone="no"?>
<!DOCTYPE svg PUBLIC "-//W3C//DTD SVG 1.1//EN"
 "http://www.w3.org/Graphics/SVG/1.1/DTD/svg11.dtd">
<!-- Generated by graphviz version 14.0.0 (20250921.2048)
 -->
<!-- Title: npi::LinkHost&lt; T &gt; Pages: 1 -->
<svg width="298pt" height="125pt"
 viewBox="0.00 0.00 298.00 125.00" xmlns="http://www.w3.org/2000/svg" xmlns:xlink="http://www.w3.org/1999/xlink">
<g id="graph0" class="graph" transform="scale(1 1) rotate(0) translate(4 120.75)">
<title>npi::LinkHost&lt; T &gt;</title>
<!-- Node1 -->
<g id="Node000001" class="node">
<title>Node1</title>
<g id="a_Node000001"><a xlink:title="A thread&#45;safe, owning host that manages an object of type T and notifies linked pointers upon destruc...">
<polygon fill="#999999" stroke="none" points="192,-19.25 68,-19.25 68,0 192,0 192,-19.25"/>
<text xml:space="preserve" text-anchor="start" x="76" y="-5.8" font-family="Consolas" font-weight="bold" font-size="11.00">npi::LinkHost&lt; T &gt;</text>
</a>
</g>
</g>
<!-- Node2 -->
<g id="Node000002" class="node">
<title>Node2</title>
<g id="a_Node000002"><a xlink:title=" ">
<polygon fill="white" stroke="none" points="106,-111.12 0,-111.12 0,-91.88 106,-91.88 106,-111.12"/>
<text xml:space="preserve" text-anchor="middle" x="53" y="-96.67" font-family="Consolas" font-size="11.00">shared_ptr&lt; T &gt;</text>
</a>
</g>
</g>
<!-- Node2&#45;&gt;Node1 -->
<g id="edge1_Node000001_Node000002" class="edge">
<title>Node2&#45;&gt;Node1</title>
<g id="a_edge1_Node000001_Node000002"><a xlink:title=" ">
<path fill="none" stroke="#9a32cd" stroke-dasharray="5,2" d="M64.16,-87.48C80.18,-68.78 109.25,-34.84 122.75,-19.09"/>
<polygon fill="#9a32cd" stroke="#9a32cd" points="61.18,-90.96 62.72,-85.7 62.01,-89.98 64.43,-87.16 64.43,-87.16 64.43,-87.16 62.01,-89.98 66.14,-88.62 61.18,-90.96"/>
</a>
</g>
<text xml:space="preserve" text-anchor="start" x="108.09" y="-48.5" font-family="Consolas" font-size="10.00" fill="grey">obj_</text>
</g>
<!-- Node3 -->
<g id="Node000003" class="node">
<title>Node3</title>
<g id="a_Node000003"><a xlink:title=" ">
<polygon fill="white" stroke="none" points="290,-116.75 124,-116.75 124,-86.25 290,-86.25 290,-116.75"/>
<text xml:space="preserve" text-anchor="start" x="132" y="-102.3" font-family="Consolas" font-size="11.00">shared_ptr&lt; npi::LinkHost</text>
<text xml:space="preserve" text-anchor="middle" x="207" y="-91.05" font-family="Consolas" font-size="11.00">::Obs &gt;</text>
</a>
</g>
</g>
<!-- Node3&#45;&gt;Node1 -->
<g id="edge2_Node000001_Node000003" class="edge">
<title>Node3&#45;&gt;Node1</title>
<g id="a_edge2_Node000001_Node000003"><a xlink:title=" ">
<path fill="none" stroke="#9a32cd" stroke-dasharray="5,2" d="M190.95,-81.77C174.38,-62.42 149.27,-33.12 137.11,-18.92"/>
<polygon fill="#9a32cd" stroke="#9a32cd" points="194.18,-85.53 189.21,-83.2 193.34,-84.56 190.92,-81.73 190.92,-81.73 190.92,-81.73 193.34,-84.56 192.63,-80.27 194.18,-85.53"/>
</a>
</g>
<text xml:space="preserve" text-anchor="start" x="180.66" y="-55.75" font-family="Consolas" font-size="10.00" fill="grey">loc_</text>
<text xml:space="preserve" text-anchor="start" x="180.66" y="-41.25" font-family="Consolas" font-size="10.00" fill="grey">uni_</text>
</g>
</g>
</svg>
