<?xml version="1.0" encoding="UTF-8" standalone="no"?>
<!DOCTYPE svg PUBLIC "-//W3C//DTD SVG 1.1//EN"
 "http://www.w3.org/Graphics/SVG/1.1/DTD/svg11.dtd">
<!-- Generated by graphviz version 14.0.0 (20250921.2048)
 -->
<!-- Title: npi::log::Config Pages: 1 -->
<svg width="248pt" height="99pt"
 viewBox="0.00 0.00 248.00 99.00" xmlns="http://www.w3.org/2000/svg" xmlns:xlink="http://www.w3.org/1999/xlink">

<svg id="main" version="1.1" xmlns="http://www.w3.org/2000/svg" xmlns:xlink="http://www.w3.org/1999/xlink" xml:space="preserve">

<style type="text/css"><![CDATA[
.node, .edge {opacity: 0.7;}
.node.selected, .edge.selected {opacity: 1;}
.edge:hover path { stroke: red; }
.edge:hover polygon { stroke: red; fill: red; }
]]></style>
<script type="application/ecmascript" xlink:href="../../svg.min.js"/>
<svg id="graph" class="graph">
<g id="graph0" class="graph" transform="scale(1 1) rotate(0) translate(4 95)">
<title>npi::log::Config</title>
<!-- Node1 -->
<g id="Node000001" class="node">
<title>Node1</title>
<g id="a_Node000001"><a xlink:title="Log configuration struct.">
<polygon fill="#999999" stroke="none" points="161,-19.25 49,-19.25 49,0 161,0 161,-19.25"/>
<text xml:space="preserve" text-anchor="start" x="57" y="-5.8" font-family="Consolas" font-weight="bold" font-size="11.00">npi::log::Config</text>
</a>
</g>
</g>
<!-- Node2 -->
<g id="Node000002" class="node">
<title>Node2</title>
<g id="a_Node000002"><a xlink:title=" ">
<polygon fill="white" stroke="none" points="58,-91 0,-91 0,-71.75 58,-71.75 58,-91"/>
<text xml:space="preserve" text-anchor="middle" x="29" y="-76.55" font-family="Consolas" font-size="11.00">QString</text>
</a>
</g>
</g>
<!-- Node2&#45;&gt;Node1 -->
<g id="edge1_Node000001_Node000002" class="edge">
<title>Node2&#45;&gt;Node1</title>
<g id="a_edge1_Node000001_Node000002"><a xlink:title=" ">
<path fill="none" stroke="#9a32cd" stroke-dasharray="5,2" d="M41.58,-67.96C50.51,-59.24 62.84,-47.37 74,-37.25 80.83,-31.05 88.72,-24.28 94.83,-19.12"/>
<polygon fill="#9a32cd" stroke="#9a32cd" points="38.37,-71.11 40.36,-66.01 39.28,-70.22 41.94,-67.61 41.94,-67.61 41.94,-67.61 39.28,-70.22 43.51,-69.22 38.37,-71.11"/>
</a>
</g>
<text xml:space="preserve" text-anchor="start" x="77" y="-41.25" font-family="Consolas" font-size="10.00" fill="grey">dir_</text>
</g>
<!-- Node3 -->
<g id="Node000003" class="node">
<title>Node3</title>
<g id="a_Node000003"><a xlink:title=" ">
<polygon fill="white" stroke="none" points="134,-91 76,-91 76,-71.75 134,-71.75 134,-91"/>
<text xml:space="preserve" text-anchor="middle" x="105" y="-76.55" font-family="Consolas" font-size="11.00">quint64</text>
</a>
</g>
</g>
<!-- Node3&#45;&gt;Node1 -->
<g id="edge2_Node000001_Node000003" class="edge">
<title>Node3&#45;&gt;Node1</title>
<g id="a_edge2_Node000001_Node000003"><a xlink:title=" ">
<path fill="none" stroke="#9a32cd" stroke-dasharray="5,2" d="M105,-65.89C105,-51.81 105,-30.89 105,-19.25"/>
<polygon fill="#9a32cd" stroke="#9a32cd" points="105,-70.6 102.75,-65.6 105,-69.32 105,-65.6 105,-65.6 105,-65.6 105,-69.32 107.25,-65.6 105,-70.6"/>
</a>
</g>
<text xml:space="preserve" text-anchor="start" x="108" y="-41.25" font-family="Consolas" font-size="10.00" fill="grey">maxFolderMb_</text>
</g>
<!-- Node4 -->
<g id="Node000004" class="node">
<title>Node4</title>
<g id="a_Node000004"><a xlink:title=" ">
<polygon fill="white" stroke="none" points="238,-91 156,-91 156,-71.75 238,-71.75 238,-91"/>
<text xml:space="preserve" text-anchor="middle" x="197" y="-76.55" font-family="Consolas" font-size="11.00">QStringList</text>
</a>
</g>
</g>
<!-- Node4&#45;&gt;Node1 -->
<g id="edge3_Node000001_Node000004" class="edge">
<title>Node4&#45;&gt;Node1</title>
<g id="a_edge3_Node000001_Node000004"><a xlink:title=" ">
<path fill="none" stroke="#9a32cd" stroke-dasharray="5,2" d="M192.78,-66.23C189.34,-56.89 183.62,-44.99 175,-37.25 165.81,-29 153.8,-23.21 142.33,-19.18"/>
<polygon fill="#9a32cd" stroke="#9a32cd" points="194.32,-70.78 190.58,-66.77 193.91,-69.57 192.71,-66.05 192.71,-66.05 192.71,-66.05 193.91,-69.57 194.84,-65.32 194.32,-70.78"/>
</a>
</g>
<text xml:space="preserve" text-anchor="start" x="189.81" y="-41.25" font-family="Consolas" font-size="10.00" fill="grey">prevDirs_</text>
</g>
</g>
</svg>
</svg>

<style type='text/css'>
<![CDATA[
[data-mouse-over-selected='false'] { opacity: 0.7; }
[data-mouse-over-selected='true']  { opacity: 1.0; }
]]>
</style>
<script type="application/ecmascript"><![CDATA[
document.addEventListener('DOMContentLoaded', (event) => {
  highlightEdges();
  highlightAdjacentNodes();
});
]]></script>
</svg>
