<?xml version="1.0" encoding="UTF-8" standalone="no"?>
<!DOCTYPE svg PUBLIC "-//W3C//DTD SVG 1.1//EN"
 "http://www.w3.org/Graphics/SVG/1.1/DTD/svg11.dtd">
<!-- Generated by graphviz version 14.0.0 (20250921.2048)
 -->
<!-- Title: npi::Link::Link Pages: 1 -->
<svg width="256pt" height="45pt"
 viewBox="0.00 0.00 256.00 45.00" xmlns="http://www.w3.org/2000/svg" xmlns:xlink="http://www.w3.org/1999/xlink">
<g id="graph0" class="graph" transform="scale(1 1) rotate(0) translate(4 41.25)">
<title>npi::Link::Link</title>
<!-- Node1 -->
<g id="Node000001" class="node">
<title>Node1</title>
<g id="a_Node000001"><a xlink:title="Default copy constructor.">
<polygon fill="#999999" stroke="none" points="106,-19.25 0,-19.25 0,0 106,0 106,-19.25"/>
<text xml:space="preserve" text-anchor="start" x="8" y="-5.8" font-family="Consolas" font-weight="bold" font-size="11.00">npi::Link::Link</text>
</a>
</g>
</g>
<!-- Node2 -->
<g id="Node000002" class="node">
<title>Node2</title>
<g id="a_Node000002"><a xlink:href="../../df/d94/classnpi_1_1_link.html#a25697cc431ea53124dec223f597abf0e" target="_top" xlink:title="Friend declarations of Link class with type as U. This makes any Link class object a friend of any ot...">
<polygon fill="white" stroke="none" points="248,-19.25 142,-19.25 142,0 248,0 248,-19.25"/>
<text xml:space="preserve" text-anchor="middle" x="195" y="-4.8" font-family="Consolas" font-size="11.00">npi::Link::Link</text>
</a>
</g>
</g>
<!-- Node1&#45;&gt;Node2 -->
<g id="edge1_Node000001_Node000002" class="edge">
<title>Node1&#45;&gt;Node2</title>
<g id="a_edge1_Node000001_Node000002"><a xlink:title=" ">
<path fill="none" stroke="#63b8ff" d="M105.73,-9.62C115.54,-9.62 125.86,-9.62 135.84,-9.62"/>
<polygon fill="#63b8ff" stroke="#63b8ff" points="140.79,-9.63 135.79,-11.88 139.51,-9.63 135.79,-9.63 135.79,-9.63 135.79,-9.63 139.51,-9.63 135.79,-7.38 140.79,-9.63"/>
</a>
</g>
</g>
<!-- Node2&#45;&gt;Node2 -->
<g id="edge2_Node000002_Node000002" class="edge">
<title>Node2&#45;&gt;Node2</title>
<g id="a_edge2_Node000002_Node000002"><a xlink:title=" ">
<path fill="none" stroke="#63b8ff" d="M173.47,-18.97C162.31,-27.74 169.48,-37.25 195,-37.25 216.13,-37.25 224.68,-30.73 220.66,-23.5"/>
<polygon fill="#63b8ff" stroke="#63b8ff" points="217.35,-19.87 222.38,-22.05 218.21,-20.81 220.72,-23.56 220.72,-23.56 220.72,-23.56 218.21,-20.81 219.05,-25.08 217.35,-19.87"/>
</a>
</g>
</g>
</g>
</svg>
