<?xml version="1.0" encoding="UTF-8" standalone="no"?>
<!DOCTYPE svg PUBLIC "-//W3C//DTD SVG 1.1//EN"
 "http://www.w3.org/Graphics/SVG/1.1/DTD/svg11.dtd">
<!-- Generated by graphviz version 14.0.0 (20250921.2048)
 -->
<!-- Title: npi::Link::operator!= Pages: 1 -->
<svg width="316pt" height="45pt"
 viewBox="0.00 0.00 316.00 45.00" xmlns="http://www.w3.org/2000/svg" xmlns:xlink="http://www.w3.org/1999/xlink">
<g id="graph0" class="graph" transform="scale(1 1) rotate(0) translate(4 41.25)">
<title>npi::Link::operator!=</title>
<!-- Node1 -->
<g id="Node000001" class="node">
<title>Node1</title>
<g id="a_Node000001"><a xlink:title="Compare this Link to a LinkHost for inequality.">
<polygon fill="#999999" stroke="none" points="142,-19.25 0,-19.25 0,0 142,0 142,-19.25"/>
<text xml:space="preserve" text-anchor="start" x="8" y="-5.8" font-family="Consolas" font-weight="bold" font-size="11.00">npi::Link::operator!=</text>
</a>
</g>
</g>
<!-- Node2 -->
<g id="Node000002" class="node">
<title>Node2</title>
<g id="a_Node000002"><a xlink:href="../../df/d94/classnpi_1_1_link.html#aaf61bab6d0dd4c11669a554a173e2994" target="_top" xlink:title="Friend declarations of LinkHost class.">
<polygon fill="white" stroke="none" points="308,-19.25 178,-19.25 178,0 308,0 308,-19.25"/>
<text xml:space="preserve" text-anchor="middle" x="243" y="-4.8" font-family="Consolas" font-size="11.00">npi::Link::LinkHost</text>
</a>
</g>
</g>
<!-- Node1&#45;&gt;Node2 -->
<g id="edge1_Node000001_Node000002" class="edge">
<title>Node1&#45;&gt;Node2</title>
<g id="a_edge1_Node000001_Node000002"><a xlink:title=" ">
<path fill="none" stroke="#63b8ff" d="M141.64,-9.62C151.66,-9.62 161.98,-9.62 172.01,-9.62"/>
<polygon fill="#63b8ff" stroke="#63b8ff" points="176.99,-9.63 171.99,-11.88 175.71,-9.63 171.99,-9.63 171.99,-9.63 171.99,-9.63 175.71,-9.63 171.99,-7.38 176.99,-9.63"/>
</a>
</g>
</g>
<!-- Node2&#45;&gt;Node2 -->
<g id="edge2_Node000002_Node000002" class="edge">
<title>Node2&#45;&gt;Node2</title>
<g id="a_edge2_Node000002_Node000002"><a xlink:title=" ">
<path fill="none" stroke="#63b8ff" d="M216.92,-18.97C203.4,-27.74 212.09,-37.25 243,-37.25 269.56,-37.25 279.71,-30.22 273.46,-22.68"/>
<polygon fill="#63b8ff" stroke="#63b8ff" points="270.01,-19.75 275.28,-21.27 270.98,-20.58 273.82,-22.98 273.82,-22.98 273.82,-22.98 270.98,-20.58 272.37,-24.7 270.01,-19.75"/>
</a>
</g>
</g>
</g>
</svg>
