<?xml version="1.0" encoding="UTF-8" standalone="no"?>
<!DOCTYPE svg PUBLIC "-//W3C//DTD SVG 1.1//EN"
 "http://www.w3.org/Graphics/SVG/1.1/DTD/svg11.dtd">
<!-- Generated by graphviz version 14.0.0 (20250921.2048)
 -->
<!-- Title: npi::Link::operator= Pages: 1 -->
<svg width="446pt" height="82pt"
 viewBox="0.00 0.00 446.00 82.00" xmlns="http://www.w3.org/2000/svg" xmlns:xlink="http://www.w3.org/1999/xlink">

<svg id="main" version="1.1" xmlns="http://www.w3.org/2000/svg" xmlns:xlink="http://www.w3.org/1999/xlink" xml:space="preserve">

<style type="text/css"><![CDATA[
.node, .edge {opacity: 0.7;}
.node.selected, .edge.selected {opacity: 1;}
.edge:hover path { stroke: red; }
.edge:hover polygon { stroke: red; fill: red; }
]]></style>
<script type="application/ecmascript" xlink:href="../../svg.min.js"/>
<svg id="graph" class="graph">
<g id="graph0" class="graph" transform="scale(1 1) rotate(0) translate(4 78.25)">
<title>npi::Link::operator=</title>
<!-- Node1 -->
<g id="Node000001" class="node">
<title>Node1</title>
<g id="a_Node000001"><a xlink:title="Polymorphic assignment operator.">
<polygon fill="#999999" stroke="none" points="136,-38.25 0,-38.25 0,-19 136,-19 136,-38.25"/>
<text xml:space="preserve" text-anchor="start" x="8" y="-24.8" font-family="Consolas" font-weight="bold" font-size="11.00">npi::Link::operator=</text>
</a>
</g>
</g>
<!-- Node2 -->
<g id="Node000002" class="node">
<title>Node2</title>
<g id="a_Node000002"><a xlink:href="../../df/d94/classnpi_1_1_link.html#a25697cc431ea53124dec223f597abf0e" target="_top" xlink:title="Friend declarations of Link class with type as U. This makes any Link class object a friend of any ot...">
<polygon fill="white" stroke="none" points="438,-56.25 332,-56.25 332,-37 438,-37 438,-56.25"/>
<text xml:space="preserve" text-anchor="middle" x="385" y="-41.8" font-family="Consolas" font-size="11.00">npi::Link::Link</text>
</a>
</g>
</g>
<!-- Node1&#45;&gt;Node2 -->
<g id="edge1_Node000001_Node000002" class="edge">
<title>Node1&#45;&gt;Node2</title>
<g id="a_edge1_Node000001_Node000002"><a xlink:title=" ">
<path fill="none" stroke="#63b8ff" d="M135.8,-32.44C192.32,-35.67 272.47,-40.25 326.25,-43.33"/>
<polygon fill="#63b8ff" stroke="#63b8ff" points="331.13,-43.6 326.01,-45.56 329.85,-43.53 326.14,-43.32 326.14,-43.32 326.14,-43.32 329.85,-43.53 326.27,-41.07 331.13,-43.6"/>
</a>
</g>
</g>
<!-- Node3 -->
<g id="Node000003" class="node">
<title>Node3</title>
<g id="a_Node000003"><a xlink:href="../../df/d94/classnpi_1_1_link.html#a49ef453c2ae07faa7affc879993e4427" target="_top" xlink:title="Internal helper to assign from another polymorphically related Link object.">
<polygon fill="white" stroke="none" points="296,-19.25 172,-19.25 172,0 296,0 296,-19.25"/>
<text xml:space="preserve" text-anchor="middle" x="234" y="-4.8" font-family="Consolas" font-size="11.00">npi::Link::assign_</text>
</a>
</g>
</g>
<!-- Node1&#45;&gt;Node3 -->
<g id="edge3_Node000001_Node000003" class="edge">
<title>Node1&#45;&gt;Node3</title>
<g id="a_edge3_Node000001_Node000003"><a xlink:title=" ">
<path fill="none" stroke="#63b8ff" d="M135.71,-20.9C145.79,-19.73 156.19,-18.52 166.27,-17.36"/>
<polygon fill="#63b8ff" stroke="#63b8ff" points="170.96,-16.81 166.25,-19.62 169.68,-16.96 165.99,-17.39 165.99,-17.39 165.99,-17.39 169.68,-16.96 165.73,-15.15 170.96,-16.81"/>
</a>
</g>
</g>
<!-- Node2&#45;&gt;Node2 -->
<g id="edge2_Node000002_Node000002" class="edge">
<title>Node2&#45;&gt;Node2</title>
<g id="a_edge2_Node000002_Node000002"><a xlink:title=" ">
<path fill="none" stroke="#63b8ff" d="M362.11,-55.97C350.24,-64.74 357.87,-74.25 385,-74.25 407.89,-74.25 416.9,-67.48 412.03,-60.09"/>
<polygon fill="#63b8ff" stroke="#63b8ff" points="408.76,-56.83 413.88,-58.76 409.66,-57.73 412.3,-60.36 412.3,-60.36 412.3,-60.36 409.66,-57.73 410.71,-61.95 408.76,-56.83"/>
</a>
</g>
</g>
<!-- Node3&#45;&gt;Node2 -->
<g id="edge4_Node000003_Node000002" class="edge">
<title>Node3&#45;&gt;Node2</title>
<g id="a_edge4_Node000003_Node000002"><a xlink:title=" ">
<path fill="none" stroke="#63b8ff" d="M273.76,-19.25C293.94,-24.26 318.7,-30.41 339.64,-35.61"/>
<polygon fill="#63b8ff" stroke="#63b8ff" points="344.25,-36.75 338.86,-37.73 343.01,-36.45 339.4,-35.55 339.4,-35.55 339.4,-35.55 343.01,-36.45 339.94,-33.37 344.25,-36.75"/>
</a>
</g>
</g>
<!-- Node4 -->
<g id="Node000004" class="node">
<title>Node4</title>
<g id="a_Node000004"><a xlink:href="../../df/d94/classnpi_1_1_link.html#ae203b61846ab71e431c98c3aaaf3a3a5" target="_top" xlink:title="Retrieve a raw pointer to the managed object, if any.">
<polygon fill="white" stroke="none" points="438,-19.25 332,-19.25 332,0 438,0 438,-19.25"/>
<text xml:space="preserve" text-anchor="middle" x="385" y="-4.8" font-family="Consolas" font-size="11.00">npi::Link::get_</text>
</a>
</g>
</g>
<!-- Node3&#45;&gt;Node4 -->
<g id="edge5_Node000003_Node000004" class="edge">
<title>Node3&#45;&gt;Node4</title>
<g id="a_edge5_Node000003_Node000004"><a xlink:title=" ">
<path fill="none" stroke="#63b8ff" d="M295.6,-9.62C305.61,-9.62 315.97,-9.62 325.91,-9.62"/>
<polygon fill="#63b8ff" stroke="#63b8ff" points="330.83,-9.63 325.83,-11.88 329.54,-9.63 325.83,-9.63 325.83,-9.63 325.83,-9.63 329.54,-9.63 325.83,-7.38 330.83,-9.63"/>
</a>
</g>
</g>
</g>
</svg>
</svg>

<style type='text/css'>
<![CDATA[
[data-mouse-over-selected='false'] { opacity: 0.7; }
[data-mouse-over-selected='true']  { opacity: 1.0; }
]]>
</style>
<script type="application/ecmascript"><![CDATA[
document.addEventListener('DOMContentLoaded', (event) => {
  highlightEdges();
  highlightAdjacentNodes();
});
]]></script>
</svg>
