<?xml version="1.0" encoding="UTF-8" standalone="no"?>
<!DOCTYPE svg PUBLIC "-//W3C//DTD SVG 1.1//EN"
 "http://www.w3.org/Graphics/SVG/1.1/DTD/svg11.dtd">
<!-- Generated by graphviz version 14.0.0 (20250921.2048)
 -->
<!-- Title: npi::Link::assign_ Pages: 1 -->
<svg width="304pt" height="64pt"
 viewBox="0.00 0.00 304.00 64.00" xmlns="http://www.w3.org/2000/svg" xmlns:xlink="http://www.w3.org/1999/xlink">

<svg id="main" version="1.1" xmlns="http://www.w3.org/2000/svg" xmlns:xlink="http://www.w3.org/1999/xlink" xml:space="preserve">

<style type="text/css"><![CDATA[
.node, .edge {opacity: 0.7;}
.node.selected, .edge.selected {opacity: 1;}
.edge:hover path { stroke: red; }
.edge:hover polygon { stroke: red; fill: red; }
]]></style>
<script type="application/ecmascript" xlink:href="../../svg.min.js"/>
<svg id="graph" class="graph">
<g id="graph0" class="graph" transform="scale(1 1) rotate(0) translate(4 60.25)">
<title>npi::Link::assign_</title>
<!-- Node1 -->
<g id="Node000001" class="node">
<title>Node1</title>
<g id="a_Node000001"><a xlink:title="Internal helper to assign from another polymorphically related Link object.">
<polygon fill="#999999" stroke="none" points="296,-37.25 172,-37.25 172,-18 296,-18 296,-37.25"/>
<text xml:space="preserve" text-anchor="start" x="180" y="-23.8" font-family="Consolas" font-weight="bold" font-size="11.00">npi::Link::assign_</text>
</a>
</g>
</g>
<!-- Node2 -->
<g id="Node000002" class="node">
<title>Node2</title>
<g id="a_Node000002"><a xlink:href="../../df/d94/classnpi_1_1_link.html#a9f3660a3ec705d39f4118c467d3608ef" target="_top" xlink:title="Polymorphic non&#45;explicit converting copy constructor.">
<polygon fill="white" stroke="none" points="121,-56.25 15,-56.25 15,-37 121,-37 121,-56.25"/>
<text xml:space="preserve" text-anchor="middle" x="68" y="-41.8" font-family="Consolas" font-size="11.00">npi::Link::Link</text>
</a>
</g>
</g>
<!-- Node1&#45;&gt;Node2 -->
<g id="edge1_Node000001_Node000002" class="edge">
<title>Node1&#45;&gt;Node2</title>
<g id="a_edge1_Node000001_Node000002"><a xlink:title=" ">
<path fill="none" stroke="#63b8ff" d="M166.42,-35.34C151.28,-37.09 135.42,-38.93 121,-40.6"/>
<polygon fill="#63b8ff" stroke="#63b8ff" points="171.19,-34.79 166.48,-37.6 169.92,-34.93 166.22,-35.36 166.22,-35.36 166.22,-35.36 169.92,-34.93 165.96,-33.13 171.19,-34.79"/>
</a>
</g>
</g>
<!-- Node3 -->
<g id="Node000003" class="node">
<title>Node3</title>
<g id="a_Node000003"><a xlink:href="../../df/d94/classnpi_1_1_link.html#acca70340de027d479c207417fcad32dd" target="_top" xlink:title="Polymorphic assignment operator.">
<polygon fill="white" stroke="none" points="136,-19.25 0,-19.25 0,0 136,0 136,-19.25"/>
<text xml:space="preserve" text-anchor="middle" x="68" y="-4.8" font-family="Consolas" font-size="11.00">npi::Link::operator=</text>
</a>
</g>
</g>
<!-- Node1&#45;&gt;Node3 -->
<g id="edge2_Node000001_Node000003" class="edge">
<title>Node1&#45;&gt;Node3</title>
<g id="a_edge2_Node000001_Node000003"><a xlink:title=" ">
<path fill="none" stroke="#63b8ff" d="M166.23,-20.3C156.25,-19.2 145.96,-18.07 135.98,-16.98"/>
<polygon fill="#63b8ff" stroke="#63b8ff" points="171.19,-20.84 165.97,-22.53 169.91,-20.7 166.22,-20.3 166.22,-20.3 166.22,-20.3 169.91,-20.7 166.46,-18.06 171.19,-20.84"/>
</a>
</g>
</g>
</g>
</svg>
</svg>

<style type='text/css'>
<![CDATA[
[data-mouse-over-selected='false'] { opacity: 0.7; }
[data-mouse-over-selected='true']  { opacity: 1.0; }
]]>
</style>
<script type="application/ecmascript"><![CDATA[
document.addEventListener('DOMContentLoaded', (event) => {
  highlightEdges();
  highlightAdjacentNodes();
});
]]></script>
</svg>
