<?xml version="1.0" encoding="UTF-8" standalone="no"?>
<!DOCTYPE svg PUBLIC "-//W3C//DTD SVG 1.1//EN"
 "http://www.w3.org/Graphics/SVG/1.1/DTD/svg11.dtd">
<!-- Generated by graphviz version 14.0.0 (20250921.2048)
 -->
<!-- Title: npi::Link::assign_ Pages: 1 -->
<svg width="274pt" height="82pt"
 viewBox="0.00 0.00 274.00 82.00" xmlns="http://www.w3.org/2000/svg" xmlns:xlink="http://www.w3.org/1999/xlink">
<g id="graph0" class="graph" transform="scale(1 1) rotate(0) translate(4 78.25)">
<title>npi::Link::assign_</title>
<!-- Node1 -->
<g id="Node000001" class="node">
<title>Node1</title>
<g id="a_Node000001"><a xlink:title="Internal helper to assign from another polymorphically related Link object.">
<polygon fill="#999999" stroke="none" points="124,-37.25 0,-37.25 0,-18 124,-18 124,-37.25"/>
<text xml:space="preserve" text-anchor="start" x="8" y="-23.8" font-family="Consolas" font-weight="bold" font-size="11.00">npi::Link::assign_</text>
</a>
</g>
</g>
<!-- Node2 -->
<g id="Node000002" class="node">
<title>Node2</title>
<g id="a_Node000002"><a xlink:href="../../df/d94/classnpi_1_1_link.html#a25697cc431ea53124dec223f597abf0e" target="_top" xlink:title="Friend declarations of Link class with type as U. This makes any Link class object a friend of any ot...">
<polygon fill="white" stroke="none" points="266,-56.25 160,-56.25 160,-37 266,-37 266,-56.25"/>
<text xml:space="preserve" text-anchor="middle" x="213" y="-41.8" font-family="Consolas" font-size="11.00">npi::Link::Link</text>
</a>
</g>
</g>
<!-- Node1&#45;&gt;Node2 -->
<g id="edge1_Node000001_Node000002" class="edge">
<title>Node1&#45;&gt;Node2</title>
<g id="a_edge1_Node000001_Node000002"><a xlink:title=" ">
<path fill="none" stroke="#63b8ff" d="M123.6,-35.35C133.61,-36.63 143.97,-37.95 153.91,-39.22"/>
<polygon fill="#63b8ff" stroke="#63b8ff" points="158.84,-39.85 153.59,-41.44 157.56,-39.68 153.88,-39.21 153.88,-39.21 153.88,-39.21 157.56,-39.68 154.16,-36.98 158.84,-39.85"/>
</a>
</g>
</g>
<!-- Node3 -->
<g id="Node000003" class="node">
<title>Node3</title>
<g id="a_Node000003"><a xlink:href="../../df/d94/classnpi_1_1_link.html#ae203b61846ab71e431c98c3aaaf3a3a5" target="_top" xlink:title="Retrieve a raw pointer to the managed object, if any.">
<polygon fill="white" stroke="none" points="266,-19.25 160,-19.25 160,0 266,0 266,-19.25"/>
<text xml:space="preserve" text-anchor="middle" x="213" y="-4.8" font-family="Consolas" font-size="11.00">npi::Link::get_</text>
</a>
</g>
</g>
<!-- Node1&#45;&gt;Node3 -->
<g id="edge3_Node000001_Node000003" class="edge">
<title>Node1&#45;&gt;Node3</title>
<g id="a_edge3_Node000001_Node000003"><a xlink:title=" ">
<path fill="none" stroke="#63b8ff" d="M123.6,-20.3C133.61,-19.09 143.97,-17.84 153.91,-16.64"/>
<polygon fill="#63b8ff" stroke="#63b8ff" points="158.83,-16.05 154.14,-18.88 157.56,-16.2 153.87,-16.65 153.87,-16.65 153.87,-16.65 157.56,-16.2 153.6,-14.41 158.83,-16.05"/>
</a>
</g>
</g>
<!-- Node2&#45;&gt;Node2 -->
<g id="edge2_Node000002_Node000002" class="edge">
<title>Node2&#45;&gt;Node2</title>
<g id="a_edge2_Node000002_Node000002"><a xlink:title=" ">
<path fill="none" stroke="#63b8ff" d="M190.11,-55.97C178.24,-64.74 185.87,-74.25 213,-74.25 235.89,-74.25 244.9,-67.48 240.03,-60.09"/>
<polygon fill="#63b8ff" stroke="#63b8ff" points="236.76,-56.83 241.88,-58.76 237.66,-57.73 240.3,-60.36 240.3,-60.36 240.3,-60.36 237.66,-57.73 238.71,-61.95 236.76,-56.83"/>
</a>
</g>
</g>
</g>
</svg>
