<?xml version="1.0" encoding="UTF-8" standalone="no"?>
<!DOCTYPE svg PUBLIC "-//W3C//DTD SVG 1.1//EN"
 "http://www.w3.org/Graphics/SVG/1.1/DTD/svg11.dtd">
<!-- Generated by graphviz version 14.0.0 (20250921.2048)
 -->
<!-- Title: npi::Link::operator!= Pages: 1 -->
<svg width="292pt" height="45pt"
 viewBox="0.00 0.00 292.00 45.00" xmlns="http://www.w3.org/2000/svg" xmlns:xlink="http://www.w3.org/1999/xlink">
<g id="graph0" class="graph" transform="scale(1 1) rotate(0) translate(4 41.25)">
<title>npi::Link::operator!=</title>
<!-- Node1 -->
<g id="Node000001" class="node">
<title>Node1</title>
<g id="a_Node000001"><a xlink:title="Compare two Link objects for inequality.">
<polygon fill="#999999" stroke="none" points="142,-19.25 0,-19.25 0,0 142,0 142,-19.25"/>
<text xml:space="preserve" text-anchor="start" x="8" y="-5.8" font-family="Consolas" font-weight="bold" font-size="11.00">npi::Link::operator!=</text>
</a>
</g>
</g>
<!-- Node2 -->
<g id="Node000002" class="node">
<title>Node2</title>
<g id="a_Node000002"><a xlink:href="../../df/d94/classnpi_1_1_link.html#a25697cc431ea53124dec223f597abf0e" target="_top" xlink:title="Friend declarations of Link class with type as U. This makes any Link class object a friend of any ot...">
<polygon fill="white" stroke="none" points="284,-19.25 178,-19.25 178,0 284,0 284,-19.25"/>
<text xml:space="preserve" text-anchor="middle" x="231" y="-4.8" font-family="Consolas" font-size="11.00">npi::Link::Link</text>
</a>
</g>
</g>
<!-- Node1&#45;&gt;Node2 -->
<g id="edge1_Node000001_Node000002" class="edge">
<title>Node1&#45;&gt;Node2</title>
<g id="a_edge1_Node000001_Node000002"><a xlink:title=" ">
<path fill="none" stroke="#63b8ff" d="M141.76,-9.62C151.89,-9.62 162.23,-9.62 172.09,-9.62"/>
<polygon fill="#63b8ff" stroke="#63b8ff" points="176.95,-9.63 171.95,-11.88 175.67,-9.63 171.95,-9.63 171.95,-9.63 171.95,-9.63 175.67,-9.63 171.95,-7.38 176.95,-9.63"/>
</a>
</g>
</g>
<!-- Node2&#45;&gt;Node2 -->
<g id="edge2_Node000002_Node000002" class="edge">
<title>Node2&#45;&gt;Node2</title>
<g id="a_edge2_Node000002_Node000002"><a xlink:title=" ">
<path fill="none" stroke="#63b8ff" d="M206.74,-18.97C194.16,-27.74 202.25,-37.25 231,-37.25 255.26,-37.25 264.8,-30.48 259.64,-23.09"/>
<polygon fill="#63b8ff" stroke="#63b8ff" points="256.14,-19.8 261.33,-21.59 257.08,-20.68 259.79,-23.23 259.79,-23.23 259.79,-23.23 257.08,-20.68 258.24,-24.87 256.14,-19.8"/>
</a>
</g>
</g>
</g>
</svg>
