<?xml version="1.0" encoding="UTF-8" standalone="no"?>
<!DOCTYPE svg PUBLIC "-//W3C//DTD SVG 1.1//EN"
 "http://www.w3.org/Graphics/SVG/1.1/DTD/svg11.dtd">
<!-- Generated by graphviz version 14.0.0 (20250921.2048)
 -->
<!-- Title: npi::Link::get_ Pages: 1 -->
<svg width="488pt" height="360pt"
 viewBox="0.00 0.00 488.00 360.00" xmlns="http://www.w3.org/2000/svg" xmlns:xlink="http://www.w3.org/1999/xlink">
<g id="graph0" class="graph" transform="scale(1 1) rotate(0) translate(4 356.25)">
<title>npi::Link::get_</title>
<!-- Node1 -->
<g id="Node000001" class="node">
<title>Node1</title>
<g id="a_Node000001"><a xlink:title="Retrieve a raw pointer to the managed object, if any.">
<polygon fill="#999999" stroke="none" points="480,-167.25 374,-167.25 374,-148 480,-148 480,-167.25"/>
<text xml:space="preserve" text-anchor="start" x="382" y="-153.8" font-family="Consolas" font-weight="bold" font-size="11.00">npi::Link::get_</text>
</a>
</g>
</g>
<!-- Node2 -->
<g id="Node000002" class="node">
<title>Node2</title>
<g id="a_Node000002"><a xlink:href="../../df/d94/classnpi_1_1_link.html#a49ef453c2ae07faa7affc879993e4427" target="_top" xlink:title="Internal helper to assign from another polymorphically related Link object.">
<polygon fill="white" stroke="none" points="329,-315.25 205,-315.25 205,-296 329,-296 329,-315.25"/>
<text xml:space="preserve" text-anchor="middle" x="267" y="-300.8" font-family="Consolas" font-size="11.00">npi::Link::assign_</text>
</a>
</g>
</g>
<!-- Node1&#45;&gt;Node2 -->
<g id="edge1_Node000001_Node000002" class="edge">
<title>Node1&#45;&gt;Node2</title>
<g id="a_edge1_Node000001_Node000002"><a xlink:title=" ">
<path fill="none" stroke="#63b8ff" d="M420.02,-172.89C408.47,-200.29 380.46,-257.71 338,-287.62 333.18,-291.02 327.77,-293.78 322.15,-296.01"/>
<polygon fill="#63b8ff" stroke="#63b8ff" points="421.89,-168.34 422.07,-173.82 421.4,-169.53 419.99,-172.97 419.99,-172.97 419.99,-172.97 421.4,-169.53 417.91,-172.11 421.89,-168.34"/>
</a>
</g>
</g>
<!-- Node5 -->
<g id="Node000005" class="node">
<title>Node5</title>
<g id="a_Node000005"><a xlink:href="../../df/d94/classnpi_1_1_link.html#a0afa8ac8869c66d944896c24822e1cbc" target="_top" xlink:title="Check whether the link currently holds a valid object.">
<polygon fill="white" stroke="none" points="332,-278.25 202,-278.25 202,-259 332,-259 332,-278.25"/>
<text xml:space="preserve" text-anchor="middle" x="267" y="-263.8" font-family="Consolas" font-size="11.00">npi::Link::isValid_</text>
</a>
</g>
</g>
<!-- Node1&#45;&gt;Node5 -->
<g id="edge4_Node000001_Node000005" class="edge">
<title>Node1&#45;&gt;Node5</title>
<g id="a_edge4_Node000001_Node000005"><a xlink:title=" ">
<path fill="none" stroke="#63b8ff" d="M416.4,-172.06C401.9,-192.69 372.43,-230.34 338,-250.62 332.16,-254.06 325.67,-256.85 319.06,-259.11"/>
<polygon fill="#63b8ff" stroke="#63b8ff" points="419.06,-168.2 418.07,-173.6 418.33,-169.26 416.22,-172.32 416.22,-172.32 416.22,-172.32 418.33,-169.26 414.37,-171.04 419.06,-168.2"/>
</a>
</g>
</g>
<!-- Node7 -->
<g id="Node000007" class="node">
<title>Node7</title>
<g id="a_Node000007"><a xlink:href="../../df/d94/classnpi_1_1_link.html#aee11aebd0ee056ca16228499caffe0c4" target="_top" xlink:title="Inequality comparison with a null pointer.">
<polygon fill="white" stroke="none" points="338,-241.25 196,-241.25 196,-222 338,-222 338,-241.25"/>
<text xml:space="preserve" text-anchor="middle" x="267" y="-226.8" font-family="Consolas" font-size="11.00">npi::Link::operator!=</text>
</a>
</g>
</g>
<!-- Node1&#45;&gt;Node7 -->
<g id="edge6_Node000001_Node000007" class="edge">
<title>Node1&#45;&gt;Node7</title>
<g id="a_edge6_Node000001_Node000007"><a xlink:title=" ">
<path fill="none" stroke="#63b8ff" d="M408.92,-170.81C391.82,-183.44 364.35,-202.2 338,-213.62 330.4,-216.92 322.07,-219.71 313.89,-222.04"/>
<polygon fill="#63b8ff" stroke="#63b8ff" points="412.9,-167.84 410.24,-172.63 411.87,-168.61 408.9,-170.83 408.9,-170.83 408.9,-170.83 411.87,-168.61 407.55,-169.03 412.9,-167.84"/>
</a>
</g>
</g>
<!-- Node8 -->
<g id="Node000008" class="node">
<title>Node8</title>
<g id="a_Node000008"><a xlink:href="../../df/d94/classnpi_1_1_link.html#a49e97ca1b758fa82bbec1bf023f90b41" target="_top" xlink:title="Dereference operator to obtain a reference to the managed object.">
<polygon fill="white" stroke="none" points="335,-204.25 199,-204.25 199,-185 335,-185 335,-204.25"/>
<text xml:space="preserve" text-anchor="middle" x="267" y="-189.8" font-family="Consolas" font-size="11.00">npi::Link::operator*</text>
</a>
</g>
</g>
<!-- Node1&#45;&gt;Node8 -->
<g id="edge7_Node000001_Node000008" class="edge">
<title>Node1&#45;&gt;Node8</title>
<g id="a_edge7_Node000001_Node000008"><a xlink:title=" ">
<path fill="none" stroke="#63b8ff" d="M379.03,-168.62C356.74,-173.84 330.35,-180.02 308.89,-185.05"/>
<polygon fill="#63b8ff" stroke="#63b8ff" points="383.71,-167.53 379.36,-170.86 382.47,-167.82 378.85,-168.67 378.85,-168.67 378.85,-168.67 382.47,-167.82 378.33,-166.48 383.71,-167.53"/>
</a>
</g>
</g>
<!-- Node9 -->
<g id="Node000009" class="node">
<title>Node9</title>
<g id="a_Node000009"><a xlink:href="../../df/d94/classnpi_1_1_link.html#afd3c88fe22396a22e7cd1816c4dd9635" target="_top" xlink:title="Pointer&#45;like access operator.">
<polygon fill="white" stroke="none" points="338,-167.25 196,-167.25 196,-148 338,-148 338,-167.25"/>
<text xml:space="preserve" text-anchor="middle" x="267" y="-152.8" font-family="Consolas" font-size="11.00">npi::Link::operator&#45;&gt;</text>
</a>
</g>
</g>
<!-- Node1&#45;&gt;Node9 -->
<g id="edge8_Node000001_Node000009" class="edge">
<title>Node1&#45;&gt;Node9</title>
<g id="a_edge8_Node000001_Node000009"><a xlink:title=" ">
<path fill="none" stroke="#63b8ff" d="M368.21,-157.62C358.36,-157.62 348.05,-157.62 337.94,-157.62"/>
<polygon fill="#63b8ff" stroke="#63b8ff" points="373.05,-157.63 368.05,-159.88 371.76,-157.63 368.05,-157.63 368.05,-157.63 368.05,-157.63 371.76,-157.63 368.05,-155.38 373.05,-157.63"/>
</a>
</g>
</g>
<!-- Node10 -->
<g id="Node000010" class="node">
<title>Node10</title>
<g id="a_Node000010"><a xlink:href="../../df/d94/classnpi_1_1_link.html#abd093b8de4a754945b7a74ea437cf45e" target="_top" xlink:title="Compare two Link objects for equality.">
<polygon fill="white" stroke="none" points="338,-130.25 196,-130.25 196,-111 338,-111 338,-130.25"/>
<text xml:space="preserve" text-anchor="middle" x="267" y="-115.8" font-family="Consolas" font-size="11.00">npi::Link::operator==</text>
</a>
</g>
</g>
<!-- Node1&#45;&gt;Node10 -->
<g id="edge9_Node000001_Node000010" class="edge">
<title>Node1&#45;&gt;Node10</title>
<g id="a_edge9_Node000001_Node000010"><a xlink:title=" ">
<path fill="none" stroke="#63b8ff" d="M379.03,-146.63C356.74,-141.41 330.35,-135.23 308.89,-130.2"/>
<polygon fill="#63b8ff" stroke="#63b8ff" points="383.71,-147.72 378.33,-148.77 382.47,-147.43 378.85,-146.58 378.85,-146.58 378.85,-146.58 382.47,-147.43 379.36,-144.39 383.71,-147.72"/>
</a>
</g>
</g>
<!-- Node11 -->
<g id="Node000011" class="node">
<title>Node11</title>
<g id="a_Node000011"><a xlink:href="../../df/d94/classnpi_1_1_link.html#a6ca86b92040321c72196dc0929af933e" target="_top" xlink:title="Compare this Link to a LinkHost for equality.">
<polygon fill="white" stroke="none" points="338,-93.25 196,-93.25 196,-74 338,-74 338,-93.25"/>
<text xml:space="preserve" text-anchor="middle" x="267" y="-78.8" font-family="Consolas" font-size="11.00">npi::Link::operator==</text>
</a>
</g>
</g>
<!-- Node1&#45;&gt;Node11 -->
<g id="edge10_Node000001_Node000011" class="edge">
<title>Node1&#45;&gt;Node11</title>
<g id="a_edge10_Node000001_Node000011"><a xlink:title=" ">
<path fill="none" stroke="#63b8ff" d="M408.92,-144.44C391.82,-131.81 364.35,-113.05 338,-101.62 330.4,-98.33 322.07,-95.54 313.89,-93.21"/>
<polygon fill="#63b8ff" stroke="#63b8ff" points="412.9,-147.41 407.55,-146.22 411.87,-146.64 408.9,-144.42 408.9,-144.42 408.9,-144.42 411.87,-146.64 410.24,-142.62 412.9,-147.41"/>
</a>
</g>
</g>
<!-- Node12 -->
<g id="Node000012" class="node">
<title>Node12</title>
<g id="a_Node000012"><a xlink:href="../../df/d94/classnpi_1_1_link.html#a84c0017edc714b5163ee7392efef8503" target="_top" xlink:title="Compare the stored pointer to a raw pointer.">
<polygon fill="white" stroke="none" points="338,-56.25 196,-56.25 196,-37 338,-37 338,-56.25"/>
<text xml:space="preserve" text-anchor="middle" x="267" y="-41.8" font-family="Consolas" font-size="11.00">npi::Link::operator==</text>
</a>
</g>
</g>
<!-- Node1&#45;&gt;Node12 -->
<g id="edge11_Node000001_Node000012" class="edge">
<title>Node1&#45;&gt;Node12</title>
<g id="a_edge11_Node000001_Node000012"><a xlink:title=" ">
<path fill="none" stroke="#63b8ff" d="M416.4,-143.19C401.9,-122.56 372.43,-84.91 338,-64.62 332.16,-61.19 325.67,-58.4 319.06,-56.14"/>
<polygon fill="#63b8ff" stroke="#63b8ff" points="419.06,-147.05 414.37,-144.21 418.33,-145.99 416.22,-142.93 416.22,-142.93 416.22,-142.93 418.33,-145.99 418.07,-141.65 419.06,-147.05"/>
</a>
</g>
</g>
<!-- Node13 -->
<g id="Node000013" class="node">
<title>Node13</title>
<g id="a_Node000013"><a xlink:href="../../df/d94/classnpi_1_1_link.html#aab2be36466d65f729d6e4fb99dc2e5b4" target="_top" xlink:title="Compare the stored pointer to a null pointer.">
<polygon fill="white" stroke="none" points="338,-19.25 196,-19.25 196,0 338,0 338,-19.25"/>
<text xml:space="preserve" text-anchor="middle" x="267" y="-4.8" font-family="Consolas" font-size="11.00">npi::Link::operator==</text>
</a>
</g>
</g>
<!-- Node1&#45;&gt;Node13 -->
<g id="edge12_Node000001_Node000013" class="edge">
<title>Node1&#45;&gt;Node13</title>
<g id="a_edge12_Node000001_Node000013"><a xlink:title=" ">
<path fill="none" stroke="#63b8ff" d="M420.02,-142.36C408.47,-114.96 380.46,-57.54 338,-27.62 333.18,-24.23 327.77,-21.47 322.15,-19.24"/>
<polygon fill="#63b8ff" stroke="#63b8ff" points="421.89,-146.91 417.91,-143.14 421.4,-145.72 419.99,-142.28 419.99,-142.28 419.99,-142.28 421.4,-145.72 422.07,-141.43 421.89,-146.91"/>
</a>
</g>
</g>
<!-- Node3 -->
<g id="Node000003" class="node">
<title>Node3</title>
<g id="a_Node000003"><a xlink:href="../../df/d94/classnpi_1_1_link.html#a9f3660a3ec705d39f4118c467d3608ef" target="_top" xlink:title="Polymorphic non&#45;explicit converting copy constructor.">
<polygon fill="white" stroke="none" points="133,-352.25 27,-352.25 27,-333 133,-333 133,-352.25"/>
<text xml:space="preserve" text-anchor="middle" x="80" y="-337.8" font-family="Consolas" font-size="11.00">npi::Link::Link</text>
</a>
</g>
</g>
<!-- Node2&#45;&gt;Node3 -->
<g id="edge2_Node000002_Node000003" class="edge">
<title>Node2&#45;&gt;Node3</title>
<g id="a_edge2_Node000002_Node000003"><a xlink:title=" ">
<path fill="none" stroke="#63b8ff" d="M212,-316.43C185.69,-321.69 154.33,-327.96 128.88,-333.05"/>
<polygon fill="#63b8ff" stroke="#63b8ff" points="216.68,-315.49 212.22,-318.68 215.42,-315.74 211.78,-316.47 211.78,-316.47 211.78,-316.47 215.42,-315.74 211.34,-314.26 216.68,-315.49"/>
</a>
</g>
</g>
<!-- Node4 -->
<g id="Node000004" class="node">
<title>Node4</title>
<g id="a_Node000004"><a xlink:href="../../df/d94/classnpi_1_1_link.html#acca70340de027d479c207417fcad32dd" target="_top" xlink:title="Polymorphic assignment operator.">
<polygon fill="white" stroke="none" points="148,-315.25 12,-315.25 12,-296 148,-296 148,-315.25"/>
<text xml:space="preserve" text-anchor="middle" x="80" y="-300.8" font-family="Consolas" font-size="11.00">npi::Link::operator=</text>
</a>
</g>
</g>
<!-- Node2&#45;&gt;Node4 -->
<g id="edge3_Node000002_Node000004" class="edge">
<title>Node2&#45;&gt;Node4</title>
<g id="a_edge3_Node000002_Node000004"><a xlink:title=" ">
<path fill="none" stroke="#63b8ff" d="M199.09,-305.62C182.44,-305.62 164.59,-305.62 147.94,-305.62"/>
<polygon fill="#63b8ff" stroke="#63b8ff" points="203.95,-305.63 198.95,-307.88 202.67,-305.63 198.95,-305.63 198.95,-305.63 198.95,-305.63 202.67,-305.63 198.95,-303.38 203.95,-305.63"/>
</a>
</g>
</g>
<!-- Node6 -->
<g id="Node000006" class="node">
<title>Node6</title>
<g id="a_Node000006"><a xlink:href="../../df/d94/classnpi_1_1_link.html#ad1586f240337b35f18f9db888416d7df" target="_top" xlink:title="Explicit boolean conversion operator (e.g. if(link){...}).">
<polygon fill="white" stroke="none" points="160,-278.25 0,-278.25 0,-259 160,-259 160,-278.25"/>
<text xml:space="preserve" text-anchor="middle" x="80" y="-263.8" font-family="Consolas" font-size="11.00">npi::Link::operator bool</text>
</a>
</g>
</g>
<!-- Node5&#45;&gt;Node6 -->
<g id="edge5_Node000005_Node000006" class="edge">
<title>Node5&#45;&gt;Node6</title>
<g id="a_edge5_Node000005_Node000006"><a xlink:title=" ">
<path fill="none" stroke="#63b8ff" d="M195.97,-268.62C184.21,-268.62 171.92,-268.62 159.95,-268.62"/>
<polygon fill="#63b8ff" stroke="#63b8ff" points="200.86,-268.63 195.86,-270.88 199.57,-268.63 195.86,-268.63 195.86,-268.63 195.86,-268.63 199.57,-268.63 195.86,-266.38 200.86,-268.63"/>
</a>
</g>
</g>
</g>
</svg>
