<?xml version="1.0" encoding="UTF-8" standalone="no"?>
<!DOCTYPE svg PUBLIC "-//W3C//DTD SVG 1.1//EN"
 "http://www.w3.org/Graphics/SVG/1.1/DTD/svg11.dtd">
<!-- Generated by graphviz version 14.0.0 (20250921.2048)
 -->
<!-- Title: npi::Link::~Link Pages: 1 -->
<svg width="262pt" height="45pt"
 viewBox="0.00 0.00 262.00 45.00" xmlns="http://www.w3.org/2000/svg" xmlns:xlink="http://www.w3.org/1999/xlink">
<g id="graph0" class="graph" transform="scale(1 1) rotate(0) translate(4 41.25)">
<title>npi::Link::~Link</title>
<!-- Node1 -->
<g id="Node000001" class="node">
<title>Node1</title>
<g id="a_Node000001"><a xlink:title="Default destructor.">
<polygon fill="#999999" stroke="none" points="112,-19.25 0,-19.25 0,0 112,0 112,-19.25"/>
<text xml:space="preserve" text-anchor="start" x="8" y="-5.8" font-family="Consolas" font-weight="bold" font-size="11.00">npi::Link::~Link</text>
</a>
</g>
</g>
<!-- Node2 -->
<g id="Node000002" class="node">
<title>Node2</title>
<g id="a_Node000002"><a xlink:href="../../df/d94/classnpi_1_1_link.html#a25697cc431ea53124dec223f597abf0e" target="_top" xlink:title="Friend declarations of Link class with type as U. This makes any Link class object a friend of any ot...">
<polygon fill="white" stroke="none" points="254,-19.25 148,-19.25 148,0 254,0 254,-19.25"/>
<text xml:space="preserve" text-anchor="middle" x="201" y="-4.8" font-family="Consolas" font-size="11.00">npi::Link::Link</text>
</a>
</g>
</g>
<!-- Node1&#45;&gt;Node2 -->
<g id="edge1_Node000001_Node000002" class="edge">
<title>Node1&#45;&gt;Node2</title>
<g id="a_edge1_Node000001_Node000002"><a xlink:title=" ">
<path fill="none" stroke="#63b8ff" d="M111.88,-9.62C121.79,-9.62 132.16,-9.62 142.15,-9.62"/>
<polygon fill="#63b8ff" stroke="#63b8ff" points="147.1,-9.63 142.1,-11.88 145.82,-9.63 142.1,-9.63 142.1,-9.63 142.1,-9.63 145.82,-9.63 142.1,-7.38 147.1,-9.63"/>
</a>
</g>
</g>
<!-- Node2&#45;&gt;Node2 -->
<g id="edge2_Node000002_Node000002" class="edge">
<title>Node2&#45;&gt;Node2</title>
<g id="a_edge2_Node000002_Node000002"><a xlink:title=" ">
<path fill="none" stroke="#63b8ff" d="M179.02,-18.97C167.62,-27.74 174.95,-37.25 201,-37.25 222.58,-37.25 231.31,-30.73 227.2,-23.5"/>
<polygon fill="#63b8ff" stroke="#63b8ff" points="223.81,-19.86 228.87,-21.99 224.69,-20.8 227.22,-23.52 227.22,-23.52 227.22,-23.52 224.69,-20.8 225.57,-25.05 223.81,-19.86"/>
</a>
</g>
</g>
</g>
</svg>
