<?xml version="1.0" encoding="UTF-8" standalone="no"?>
<!DOCTYPE svg PUBLIC "-//W3C//DTD SVG 1.1//EN"
 "http://www.w3.org/Graphics/SVG/1.1/DTD/svg11.dtd">
<!-- Generated by graphviz version 14.0.0 (20250921.2048)
 -->
<!-- Title: npi::Link::operator== Pages: 1 -->
<svg width="292pt" height="82pt"
 viewBox="0.00 0.00 292.00 82.00" xmlns="http://www.w3.org/2000/svg" xmlns:xlink="http://www.w3.org/1999/xlink">

<svg id="main" version="1.1" xmlns="http://www.w3.org/2000/svg" xmlns:xlink="http://www.w3.org/1999/xlink" xml:space="preserve">

<style type="text/css"><![CDATA[
.node, .edge {opacity: 0.7;}
.node.selected, .edge.selected {opacity: 1;}
.edge:hover path { stroke: red; }
.edge:hover polygon { stroke: red; fill: red; }
]]></style>
<script type="application/ecmascript" xlink:href="../../svg.min.js"/>
<svg id="graph" class="graph">
<g id="graph0" class="graph" transform="scale(1 1) rotate(0) translate(4 78.25)">
<title>npi::Link::operator==</title>
<!-- Node1 -->
<g id="Node000001" class="node">
<title>Node1</title>
<g id="a_Node000001"><a xlink:title="Compare two Link objects for equality.">
<polygon fill="#999999" stroke="none" points="142,-37.25 0,-37.25 0,-18 142,-18 142,-37.25"/>
<text xml:space="preserve" text-anchor="start" x="8" y="-23.8" font-family="Consolas" font-weight="bold" font-size="11.00">npi::Link::operator==</text>
</a>
</g>
</g>
<!-- Node2 -->
<g id="Node000002" class="node">
<title>Node2</title>
<g id="a_Node000002"><a xlink:href="../../df/d94/classnpi_1_1_link.html#a25697cc431ea53124dec223f597abf0e" target="_top" xlink:title="Friend declarations of Link class with type as U. This makes any Link class object a friend of any ot...">
<polygon fill="white" stroke="none" points="284,-56.25 178,-56.25 178,-37 284,-37 284,-56.25"/>
<text xml:space="preserve" text-anchor="middle" x="231" y="-41.8" font-family="Consolas" font-size="11.00">npi::Link::Link</text>
</a>
</g>
</g>
<!-- Node1&#45;&gt;Node2 -->
<g id="edge1_Node000001_Node000002" class="edge">
<title>Node1&#45;&gt;Node2</title>
<g id="a_edge1_Node000001_Node000002"><a xlink:title=" ">
<path fill="none" stroke="#63b8ff" d="M141.76,-36.01C151.89,-37.23 162.23,-38.48 172.09,-39.66"/>
<polygon fill="#63b8ff" stroke="#63b8ff" points="176.96,-40.25 171.73,-41.88 175.69,-40.09 172,-39.65 172,-39.65 172,-39.65 175.69,-40.09 172.26,-37.42 176.96,-40.25"/>
</a>
</g>
</g>
<!-- Node3 -->
<g id="Node000003" class="node">
<title>Node3</title>
<g id="a_Node000003"><a xlink:href="../../df/d94/classnpi_1_1_link.html#ae203b61846ab71e431c98c3aaaf3a3a5" target="_top" xlink:title="Retrieve a raw pointer to the managed object, if any.">
<polygon fill="white" stroke="none" points="284,-19.25 178,-19.25 178,0 284,0 284,-19.25"/>
<text xml:space="preserve" text-anchor="middle" x="231" y="-4.8" font-family="Consolas" font-size="11.00">npi::Link::get_</text>
</a>
</g>
</g>
<!-- Node1&#45;&gt;Node3 -->
<g id="edge3_Node000001_Node000003" class="edge">
<title>Node1&#45;&gt;Node3</title>
<g id="a_edge3_Node000001_Node000003"><a xlink:title=" ">
<path fill="none" stroke="#63b8ff" d="M141.76,-19.68C151.89,-18.52 162.23,-17.35 172.09,-16.22"/>
<polygon fill="#63b8ff" stroke="#63b8ff" points="176.96,-15.67 172.25,-18.47 175.69,-15.81 171.99,-16.23 171.99,-16.23 171.99,-16.23 175.69,-15.81 171.74,-14 176.96,-15.67"/>
</a>
</g>
</g>
<!-- Node2&#45;&gt;Node2 -->
<g id="edge2_Node000002_Node000002" class="edge">
<title>Node2&#45;&gt;Node2</title>
<g id="a_edge2_Node000002_Node000002"><a xlink:title=" ">
<path fill="none" stroke="#63b8ff" d="M206.74,-55.97C194.16,-64.74 202.25,-74.25 231,-74.25 255.26,-74.25 264.8,-67.48 259.64,-60.09"/>
<polygon fill="#63b8ff" stroke="#63b8ff" points="256.14,-56.8 261.33,-58.59 257.08,-57.68 259.79,-60.23 259.79,-60.23 259.79,-60.23 257.08,-57.68 258.24,-61.87 256.14,-56.8"/>
</a>
</g>
</g>
</g>
</svg>
</svg>

<style type='text/css'>
<![CDATA[
[data-mouse-over-selected='false'] { opacity: 0.7; }
[data-mouse-over-selected='true']  { opacity: 1.0; }
]]>
</style>
<script type="application/ecmascript"><![CDATA[
document.addEventListener('DOMContentLoaded', (event) => {
  highlightEdges();
  highlightAdjacentNodes();
});
]]></script>
</svg>
