<?xml version="1.0" encoding="UTF-8" standalone="no"?>
<!DOCTYPE svg PUBLIC "-//W3C//DTD SVG 1.1//EN"
 "http://www.w3.org/Graphics/SVG/1.1/DTD/svg11.dtd">
<!-- Generated by graphviz version 14.0.0 (20250921.2048)
 -->
<!-- Title: npi::Link::swap_ Pages: 1 -->
<svg width="404pt" height="73pt"
 viewBox="0.00 0.00 404.00 73.00" xmlns="http://www.w3.org/2000/svg" xmlns:xlink="http://www.w3.org/1999/xlink">
<g id="graph0" class="graph" transform="scale(1 1) rotate(0) translate(4 69.25)">
<title>npi::Link::swap_</title>
<!-- Node1 -->
<g id="Node000001" class="node">
<title>Node1</title>
<g id="a_Node000001"><a xlink:title="Member swap function.">
<polygon fill="#999999" stroke="none" points="112,-47.25 0,-47.25 0,-28 112,-28 112,-47.25"/>
<text xml:space="preserve" text-anchor="start" x="8" y="-33.8" font-family="Consolas" font-weight="bold" font-size="11.00">npi::Link::swap_</text>
</a>
</g>
</g>
<!-- Node2 -->
<g id="Node000002" class="node">
<title>Node2</title>
<g id="a_Node000002"><a xlink:href="../../df/d94/classnpi_1_1_link.html#a25697cc431ea53124dec223f597abf0e" target="_top" xlink:title="Friend declarations of Link class with type as U. This makes any Link class object a friend of any ot...">
<polygon fill="white" stroke="none" points="396,-47.25 290,-47.25 290,-28 396,-28 396,-47.25"/>
<text xml:space="preserve" text-anchor="middle" x="343" y="-32.8" font-family="Consolas" font-size="11.00">npi::Link::Link</text>
</a>
</g>
</g>
<!-- Node1&#45;&gt;Node2 -->
<g id="edge1_Node000001_Node000002" class="edge">
<title>Node1&#45;&gt;Node2</title>
<g id="a_edge1_Node000001_Node000002"><a xlink:title=" ">
<path fill="none" stroke="#63b8ff" d="M111.79,-43.93C123.71,-45.05 136.27,-46.05 148,-46.62 195.05,-48.95 206.95,-49.02 254,-46.62 263.87,-46.12 274.34,-45.3 284.49,-44.36"/>
<polygon fill="#63b8ff" stroke="#63b8ff" points="289.2,-43.91 284.44,-46.62 287.93,-44.03 284.23,-44.38 284.23,-44.38 284.23,-44.38 287.93,-44.03 284.01,-42.14 289.2,-43.91"/>
</a>
</g>
</g>
<!-- Node3 -->
<g id="Node000003" class="node">
<title>Node3</title>
<g id="a_Node000003"><a xlink:href="../../df/d94/classnpi_1_1_link.html#a27a78dec1be7c921c3aac00718bc1422" target="_top" xlink:title="Swap the contents of two Link objects.">
<polygon fill="white" stroke="none" points="254,-19.25 148,-19.25 148,0 254,0 254,-19.25"/>
<text xml:space="preserve" text-anchor="middle" x="201" y="-4.8" font-family="Consolas" font-size="11.00">npi::Link::swap</text>
</a>
</g>
</g>
<!-- Node1&#45;&gt;Node3 -->
<g id="edge3_Node000001_Node000003" class="edge">
<title>Node1&#45;&gt;Node3</title>
<g id="a_edge3_Node000001_Node000003"><a xlink:title=" ">
<path fill="none" stroke="#63b8ff" d="M105.81,-28.07C118.44,-25.59 132.13,-22.92 145.05,-20.39"/>
<polygon fill="#63b8ff" stroke="#63b8ff" points="149.73,-19.47 145.25,-22.64 148.47,-19.72 144.82,-20.43 144.82,-20.43 144.82,-20.43 148.47,-19.72 144.39,-18.22 149.73,-19.47"/>
</a>
</g>
</g>
<!-- Node2&#45;&gt;Node2 -->
<g id="edge2_Node000002_Node000002" class="edge">
<title>Node2&#45;&gt;Node2</title>
<g id="a_edge2_Node000002_Node000002"><a xlink:title=" ">
<path fill="none" stroke="#63b8ff" d="M321.47,-46.97C310.31,-55.74 317.48,-65.25 343,-65.25 364.13,-65.25 372.68,-58.73 368.66,-51.5"/>
<polygon fill="#63b8ff" stroke="#63b8ff" points="365.35,-47.87 370.38,-50.05 366.21,-48.81 368.72,-51.56 368.72,-51.56 368.72,-51.56 366.21,-48.81 367.05,-53.08 365.35,-47.87"/>
</a>
</g>
</g>
<!-- Node3&#45;&gt;Node2 -->
<g id="edge4_Node000003_Node000002" class="edge">
<title>Node3&#45;&gt;Node2</title>
<g id="a_edge4_Node000003_Node000002"><a xlink:title=" ">
<path fill="none" stroke="#63b8ff" d="M249.79,-19.18C262.04,-21.63 275.31,-24.29 287.86,-26.8"/>
<polygon fill="#63b8ff" stroke="#63b8ff" points="292.76,-27.78 287.41,-29 291.5,-27.52 287.85,-26.8 287.85,-26.8 287.85,-26.8 291.5,-27.52 288.3,-24.59 292.76,-27.78"/>
</a>
</g>
</g>
<!-- Node3&#45;&gt;Node3 -->
<g id="edge5_Node000003_Node000003" class="edge">
<title>Node3&#45;&gt;Node3</title>
<g id="a_edge5_Node000003_Node000003"><a xlink:title=" ">
<path fill="none" stroke="#63b8ff" d="M179.47,-18.97C168.31,-27.74 175.48,-37.25 201,-37.25 222.13,-37.25 230.68,-30.73 226.66,-23.5"/>
<polygon fill="#63b8ff" stroke="#63b8ff" points="223.35,-19.87 228.38,-22.05 224.21,-20.81 226.72,-23.56 226.72,-23.56 226.72,-23.56 224.21,-20.81 225.05,-25.08 223.35,-19.87"/>
</a>
</g>
</g>
</g>
</svg>
