<?xml version="1.0" encoding="UTF-8" standalone="no"?>
<!DOCTYPE svg PUBLIC "-//W3C//DTD SVG 1.1//EN"
 "http://www.w3.org/Graphics/SVG/1.1/DTD/svg11.dtd">
<!-- Generated by graphviz version 14.0.0 (20250921.2048)
 -->
<!-- Title: npi::Link::operator bool Pages: 1 -->
<svg width="476pt" height="27pt"
 viewBox="0.00 0.00 476.00 27.00" xmlns="http://www.w3.org/2000/svg" xmlns:xlink="http://www.w3.org/1999/xlink">
<g id="graph0" class="graph" transform="scale(1 1) rotate(0) translate(4 23.25)">
<title>npi::Link::operator bool</title>
<!-- Node1 -->
<g id="Node000001" class="node">
<title>Node1</title>
<g id="a_Node000001"><a xlink:title="Explicit boolean conversion operator (e.g. if(link){...}).">
<polygon fill="#999999" stroke="none" points="160,-19.25 0,-19.25 0,0 160,0 160,-19.25"/>
<text xml:space="preserve" text-anchor="start" x="8" y="-5.8" font-family="Consolas" font-weight="bold" font-size="11.00">npi::Link::operator bool</text>
</a>
</g>
</g>
<!-- Node2 -->
<g id="Node000002" class="node">
<title>Node2</title>
<g id="a_Node000002"><a xlink:href="../../df/d94/classnpi_1_1_link.html#a0afa8ac8869c66d944896c24822e1cbc" target="_top" xlink:title="Check whether the link currently holds a valid object.">
<polygon fill="white" stroke="none" points="326,-19.25 196,-19.25 196,0 326,0 326,-19.25"/>
<text xml:space="preserve" text-anchor="middle" x="261" y="-4.8" font-family="Consolas" font-size="11.00">npi::Link::isValid_</text>
</a>
</g>
</g>
<!-- Node1&#45;&gt;Node2 -->
<g id="edge1_Node000001_Node000002" class="edge">
<title>Node1&#45;&gt;Node2</title>
<g id="a_edge1_Node000001_Node000002"><a xlink:title=" ">
<path fill="none" stroke="#63b8ff" d="M159.77,-9.62C169.87,-9.62 180.15,-9.62 190.1,-9.62"/>
<polygon fill="#63b8ff" stroke="#63b8ff" points="195.02,-9.63 190.02,-11.88 193.74,-9.63 190.02,-9.63 190.02,-9.63 190.02,-9.63 193.74,-9.63 190.02,-7.38 195.02,-9.63"/>
</a>
</g>
</g>
<!-- Node3 -->
<g id="Node000003" class="node">
<title>Node3</title>
<g id="a_Node000003"><a xlink:href="../../df/d94/classnpi_1_1_link.html#ae203b61846ab71e431c98c3aaaf3a3a5" target="_top" xlink:title="Retrieve a raw pointer to the managed object, if any.">
<polygon fill="white" stroke="none" points="468,-19.25 362,-19.25 362,0 468,0 468,-19.25"/>
<text xml:space="preserve" text-anchor="middle" x="415" y="-4.8" font-family="Consolas" font-size="11.00">npi::Link::get_</text>
</a>
</g>
</g>
<!-- Node2&#45;&gt;Node3 -->
<g id="edge2_Node000002_Node000003" class="edge">
<title>Node2&#45;&gt;Node3</title>
<g id="a_edge2_Node000002_Node000003"><a xlink:title=" ">
<path fill="none" stroke="#63b8ff" d="M325.58,-9.62C335.69,-9.62 346.09,-9.62 356.06,-9.62"/>
<polygon fill="#63b8ff" stroke="#63b8ff" points="360.98,-9.63 355.98,-11.88 359.7,-9.63 355.98,-9.63 355.98,-9.63 355.98,-9.63 359.7,-9.63 355.98,-7.38 360.98,-9.63"/>
</a>
</g>
</g>
</g>
</svg>
