<?xml version="1.0" encoding="UTF-8" standalone="no"?>
<!DOCTYPE svg PUBLIC "-//W3C//DTD SVG 1.1//EN"
 "http://www.w3.org/Graphics/SVG/1.1/DTD/svg11.dtd">
<!-- Generated by graphviz version 14.0.0 (20250921.2048)
 -->
<!-- Title: npi::Link::Link Pages: 1 -->
<svg width="416pt" height="82pt"
 viewBox="0.00 0.00 416.00 82.00" xmlns="http://www.w3.org/2000/svg" xmlns:xlink="http://www.w3.org/1999/xlink">
<g id="graph0" class="graph" transform="scale(1 1) rotate(0) translate(4 78.25)">
<title>npi::Link::Link</title>
<!-- Node1 -->
<g id="Node000001" class="node">
<title>Node1</title>
<g id="a_Node000001"><a xlink:title="Polymorphic non&#45;explicit converting copy constructor.">
<polygon fill="#999999" stroke="none" points="106,-38.25 0,-38.25 0,-19 106,-19 106,-38.25"/>
<text xml:space="preserve" text-anchor="start" x="8" y="-24.8" font-family="Consolas" font-weight="bold" font-size="11.00">npi::Link::Link</text>
</a>
</g>
</g>
<!-- Node2 -->
<g id="Node000002" class="node">
<title>Node2</title>
<g id="a_Node000002"><a xlink:href="../../df/d94/classnpi_1_1_link.html#a25697cc431ea53124dec223f597abf0e" target="_top" xlink:title="Friend declarations of Link class with type as U. This makes any Link class object a friend of any ot...">
<polygon fill="white" stroke="none" points="408,-56.25 302,-56.25 302,-37 408,-37 408,-56.25"/>
<text xml:space="preserve" text-anchor="middle" x="355" y="-41.8" font-family="Consolas" font-size="11.00">npi::Link::Link</text>
</a>
</g>
</g>
<!-- Node1&#45;&gt;Node2 -->
<g id="edge1_Node000001_Node000002" class="edge">
<title>Node1&#45;&gt;Node2</title>
<g id="a_edge1_Node000001_Node000002"><a xlink:title=" ">
<path fill="none" stroke="#63b8ff" d="M105.91,-31.74C158.99,-34.92 241.23,-39.86 296.31,-43.16"/>
<polygon fill="#63b8ff" stroke="#63b8ff" points="301,-43.45 295.88,-45.39 299.72,-43.37 296.01,-43.15 296.01,-43.15 296.01,-43.15 299.72,-43.37 296.15,-40.9 301,-43.45"/>
</a>
</g>
</g>
<!-- Node3 -->
<g id="Node000003" class="node">
<title>Node3</title>
<g id="a_Node000003"><a xlink:href="../../df/d94/classnpi_1_1_link.html#a49ef453c2ae07faa7affc879993e4427" target="_top" xlink:title="Internal helper to assign from another polymorphically related Link object.">
<polygon fill="white" stroke="none" points="266,-19.25 142,-19.25 142,0 266,0 266,-19.25"/>
<text xml:space="preserve" text-anchor="middle" x="204" y="-4.8" font-family="Consolas" font-size="11.00">npi::Link::assign_</text>
</a>
</g>
</g>
<!-- Node1&#45;&gt;Node3 -->
<g id="edge3_Node000001_Node000003" class="edge">
<title>Node1&#45;&gt;Node3</title>
<g id="a_edge3_Node000001_Node000003"><a xlink:title=" ">
<path fill="none" stroke="#63b8ff" d="M105.69,-22.03C115.53,-20.78 125.96,-19.45 136.18,-18.15"/>
<polygon fill="#63b8ff" stroke="#63b8ff" points="140.97,-17.53 136.29,-20.4 139.7,-17.7 136.01,-18.17 136.01,-18.17 136.01,-18.17 139.7,-17.7 135.72,-15.94 140.97,-17.53"/>
</a>
</g>
</g>
<!-- Node2&#45;&gt;Node2 -->
<g id="edge2_Node000002_Node000002" class="edge">
<title>Node2&#45;&gt;Node2</title>
<g id="a_edge2_Node000002_Node000002"><a xlink:title=" ">
<path fill="none" stroke="#63b8ff" d="M332.11,-55.97C320.24,-64.74 327.87,-74.25 355,-74.25 377.89,-74.25 386.9,-67.48 382.03,-60.09"/>
<polygon fill="#63b8ff" stroke="#63b8ff" points="378.76,-56.83 383.88,-58.76 379.66,-57.73 382.3,-60.36 382.3,-60.36 382.3,-60.36 379.66,-57.73 380.71,-61.95 378.76,-56.83"/>
</a>
</g>
</g>
<!-- Node3&#45;&gt;Node2 -->
<g id="edge4_Node000003_Node000002" class="edge">
<title>Node3&#45;&gt;Node2</title>
<g id="a_edge4_Node000003_Node000002"><a xlink:title=" ">
<path fill="none" stroke="#63b8ff" d="M243.76,-19.25C263.94,-24.26 288.7,-30.41 309.64,-35.61"/>
<polygon fill="#63b8ff" stroke="#63b8ff" points="314.25,-36.75 308.86,-37.73 313.01,-36.45 309.4,-35.55 309.4,-35.55 309.4,-35.55 313.01,-36.45 309.94,-33.37 314.25,-36.75"/>
</a>
</g>
</g>
<!-- Node4 -->
<g id="Node000004" class="node">
<title>Node4</title>
<g id="a_Node000004"><a xlink:href="../../df/d94/classnpi_1_1_link.html#ae203b61846ab71e431c98c3aaaf3a3a5" target="_top" xlink:title="Retrieve a raw pointer to the managed object, if any.">
<polygon fill="white" stroke="none" points="408,-19.25 302,-19.25 302,0 408,0 408,-19.25"/>
<text xml:space="preserve" text-anchor="middle" x="355" y="-4.8" font-family="Consolas" font-size="11.00">npi::Link::get_</text>
</a>
</g>
</g>
<!-- Node3&#45;&gt;Node4 -->
<g id="edge5_Node000003_Node000004" class="edge">
<title>Node3&#45;&gt;Node4</title>
<g id="a_edge5_Node000003_Node000004"><a xlink:title=" ">
<path fill="none" stroke="#63b8ff" d="M265.6,-9.62C275.61,-9.62 285.97,-9.62 295.91,-9.62"/>
<polygon fill="#63b8ff" stroke="#63b8ff" points="300.83,-9.63 295.83,-11.88 299.54,-9.63 295.83,-9.63 295.83,-9.63 295.83,-9.63 299.54,-9.63 295.83,-7.38 300.83,-9.63"/>
</a>
</g>
</g>
</g>
</svg>
