<?xml version="1.0" encoding="UTF-8" standalone="no"?>
<!DOCTYPE svg PUBLIC "-//W3C//DTD SVG 1.1//EN"
 "http://www.w3.org/Graphics/SVG/1.1/DTD/svg11.dtd">
<!-- Generated by graphviz version 14.0.0 (20250921.2048)
 -->
<!-- Title: npi::Link::operator== Pages: 1 -->
<svg width="316pt" height="82pt"
 viewBox="0.00 0.00 316.00 82.00" xmlns="http://www.w3.org/2000/svg" xmlns:xlink="http://www.w3.org/1999/xlink">

<svg id="main" version="1.1" xmlns="http://www.w3.org/2000/svg" xmlns:xlink="http://www.w3.org/1999/xlink" xml:space="preserve">

<style type="text/css"><![CDATA[
.node, .edge {opacity: 0.7;}
.node.selected, .edge.selected {opacity: 1;}
.edge:hover path { stroke: red; }
.edge:hover polygon { stroke: red; fill: red; }
]]></style>
<script type="application/ecmascript" xlink:href="../../svg.min.js"/>
<svg id="graph" class="graph">
<g id="graph0" class="graph" transform="scale(1 1) rotate(0) translate(4 78.25)">
<title>npi::Link::operator==</title>
<!-- Node1 -->
<g id="Node000001" class="node">
<title>Node1</title>
<g id="a_Node000001"><a xlink:title="Compare this Link to a LinkHost for equality.">
<polygon fill="#999999" stroke="none" points="142,-46.25 0,-46.25 0,-27 142,-27 142,-46.25"/>
<text xml:space="preserve" text-anchor="start" x="8" y="-32.8" font-family="Consolas" font-weight="bold" font-size="11.00">npi::Link::operator==</text>
</a>
</g>
</g>
<!-- Node2 -->
<g id="Node000002" class="node">
<title>Node2</title>
<g id="a_Node000002"><a xlink:href="../../df/d94/classnpi_1_1_link.html#ae203b61846ab71e431c98c3aaaf3a3a5" target="_top" xlink:title="Retrieve a raw pointer to the managed object, if any.">
<polygon fill="white" stroke="none" points="296,-74.25 190,-74.25 190,-55 296,-55 296,-74.25"/>
<text xml:space="preserve" text-anchor="middle" x="243" y="-59.8" font-family="Consolas" font-size="11.00">npi::Link::get_</text>
</a>
</g>
</g>
<!-- Node1&#45;&gt;Node2 -->
<g id="edge1_Node000001_Node000002" class="edge">
<title>Node1&#45;&gt;Node2</title>
<g id="a_edge1_Node000001_Node000002"><a xlink:title=" ">
<path fill="none" stroke="#63b8ff" d="M130.03,-46.18C147.57,-49.07 166.82,-52.24 184.34,-55.13"/>
<polygon fill="#63b8ff" stroke="#63b8ff" points="189.01,-55.9 183.71,-57.3 187.75,-55.69 184.08,-55.08 184.08,-55.08 184.08,-55.08 187.75,-55.69 184.44,-52.86 189.01,-55.9"/>
</a>
</g>
</g>
<!-- Node3 -->
<g id="Node000003" class="node">
<title>Node3</title>
<g id="a_Node000003"><a xlink:href="../../df/d94/classnpi_1_1_link.html#aaf61bab6d0dd4c11669a554a173e2994" target="_top" xlink:title="Friend declarations of LinkHost class.">
<polygon fill="white" stroke="none" points="308,-19.25 178,-19.25 178,0 308,0 308,-19.25"/>
<text xml:space="preserve" text-anchor="middle" x="243" y="-4.8" font-family="Consolas" font-size="11.00">npi::Link::LinkHost</text>
</a>
</g>
</g>
<!-- Node1&#45;&gt;Node3 -->
<g id="edge2_Node000001_Node000003" class="edge">
<title>Node1&#45;&gt;Node3</title>
<g id="a_edge2_Node000001_Node000003"><a xlink:title=" ">
<path fill="none" stroke="#63b8ff" d="M132.41,-27.03C146.36,-24.81 161.27,-22.45 175.46,-20.19"/>
<polygon fill="#63b8ff" stroke="#63b8ff" points="180.29,-19.43 175.71,-22.43 179.02,-19.63 175.35,-20.21 175.35,-20.21 175.35,-20.21 179.02,-19.63 175,-17.99 180.29,-19.43"/>
</a>
</g>
</g>
<!-- Node3&#45;&gt;Node3 -->
<g id="edge3_Node000003_Node000003" class="edge">
<title>Node3&#45;&gt;Node3</title>
<g id="a_edge3_Node000003_Node000003"><a xlink:title=" ">
<path fill="none" stroke="#63b8ff" d="M216.92,-18.97C203.4,-27.74 212.09,-37.25 243,-37.25 269.56,-37.25 279.71,-30.22 273.46,-22.68"/>
<polygon fill="#63b8ff" stroke="#63b8ff" points="270.01,-19.75 275.28,-21.27 270.98,-20.58 273.82,-22.98 273.82,-22.98 273.82,-22.98 270.98,-20.58 272.37,-24.7 270.01,-19.75"/>
</a>
</g>
</g>
</g>
</svg>
</svg>

<style type='text/css'>
<![CDATA[
[data-mouse-over-selected='false'] { opacity: 0.7; }
[data-mouse-over-selected='true']  { opacity: 1.0; }
]]>
</style>
<script type="application/ecmascript"><![CDATA[
document.addEventListener('DOMContentLoaded', (event) => {
  highlightEdges();
  highlightAdjacentNodes();
});
]]></script>
</svg>
