<?xml version="1.0" encoding="UTF-8" standalone="no"?>
<!DOCTYPE svg PUBLIC "-//W3C//DTD SVG 1.1//EN"
 "http://www.w3.org/Graphics/SVG/1.1/DTD/svg11.dtd">
<!-- Generated by graphviz version 14.0.0 (20250921.2048)
 -->
<!-- Title: npi::GlobalLocker::GlobalLocker Pages: 1 -->
<svg width="376pt" height="186pt"
 viewBox="0.00 0.00 376.00 186.00" xmlns="http://www.w3.org/2000/svg" xmlns:xlink="http://www.w3.org/1999/xlink">
<g id="graph0" class="graph" transform="scale(1 1) rotate(0) translate(4 181.5)">
<title>npi::GlobalLocker::GlobalLocker</title>
<!-- Node1 -->
<g id="Node000001" class="node">
<title>Node1</title>
<g id="a_Node000001"><a xlink:title="Create or open a session&#45;local named mutex and acquire it.">
<polygon fill="#999999" stroke="none" points="368,-97.88 166,-97.88 166,-78.62 368,-78.62 368,-97.88"/>
<text xml:space="preserve" text-anchor="start" x="174" y="-84.42" font-family="Consolas" font-weight="bold" font-size="11.00">npi::GlobalLocker::GlobalLocker</text>
</a>
</g>
</g>
<!-- Node2 -->
<g id="Node000002" class="node">
<title>Node2</title>
<g id="a_Node000002"><a xlink:href="../../da/d1f/classnpi_1_1_global_locker.html#a0ab90fe7a35a98c43c95d536baaf91b2" target="_top" xlink:title="Deleted Copy Constructor.">
<polygon fill="white" stroke="none" points="130,-177.5 0,-177.5 0,-147 130,-147 130,-177.5"/>
<text xml:space="preserve" text-anchor="start" x="8" y="-163.05" font-family="Consolas" font-size="11.00">npi::GlobalLocker::</text>
<text xml:space="preserve" text-anchor="middle" x="65" y="-151.8" font-family="Consolas" font-size="11.00">GlobalLocker</text>
</a>
</g>
</g>
<!-- Node1&#45;&gt;Node2 -->
<g id="edge1_Node000001_Node000002" class="edge">
<title>Node1&#45;&gt;Node2</title>
<g id="a_edge1_Node000001_Node000002"><a xlink:title=" ">
<path fill="none" stroke="#63b8ff" d="M234.5,-99.91C200.04,-112.66 144.68,-133.14 106.9,-147.12"/>
<polygon fill="#63b8ff" stroke="#63b8ff" points="239.12,-98.2 235.21,-102.04 237.92,-98.64 234.43,-99.93 234.43,-99.93 234.43,-99.93 237.92,-98.64 233.65,-97.82 239.12,-98.2"/>
</a>
</g>
</g>
<!-- Node3 -->
<g id="Node000003" class="node">
<title>Node3</title>
<g id="a_Node000003"><a xlink:href="../../da/d1f/classnpi_1_1_global_locker.html#a2e640043c22b167049a4bed9d0127144" target="_top" xlink:title="Deleted Move Constructor.">
<polygon fill="white" stroke="none" points="130,-128.5 0,-128.5 0,-98 130,-98 130,-128.5"/>
<text xml:space="preserve" text-anchor="start" x="8" y="-114.05" font-family="Consolas" font-size="11.00">npi::GlobalLocker::</text>
<text xml:space="preserve" text-anchor="middle" x="65" y="-102.8" font-family="Consolas" font-size="11.00">GlobalLocker</text>
</a>
</g>
</g>
<!-- Node1&#45;&gt;Node3 -->
<g id="edge2_Node000001_Node000003" class="edge">
<title>Node1&#45;&gt;Node3</title>
<g id="a_edge2_Node000001_Node000003"><a xlink:title=" ">
<path fill="none" stroke="#63b8ff" d="M183.24,-98.6C165.42,-100.82 146.85,-103.14 129.88,-105.26"/>
<polygon fill="#63b8ff" stroke="#63b8ff" points="188.04,-98 183.36,-100.85 186.77,-98.15 183.08,-98.62 183.08,-98.62 183.08,-98.62 186.77,-98.15 182.8,-96.38 188.04,-98"/>
</a>
</g>
</g>
<!-- Node4 -->
<g id="Node000004" class="node">
<title>Node4</title>
<g id="a_Node000004"><a xlink:href="../../da/d1f/classnpi_1_1_global_locker.html#ae848280cb08897d1495bc16b3986b718" target="_top" xlink:title="Deleted Copy Assignment.">
<polygon fill="white" stroke="none" points="130,-79.5 0,-79.5 0,-49 130,-49 130,-79.5"/>
<text xml:space="preserve" text-anchor="start" x="8" y="-65.05" font-family="Consolas" font-size="11.00">npi::GlobalLocker::</text>
<text xml:space="preserve" text-anchor="middle" x="65" y="-53.8" font-family="Consolas" font-size="11.00">operator=</text>
</a>
</g>
</g>
<!-- Node1&#45;&gt;Node4 -->
<g id="edge3_Node000001_Node000004" class="edge">
<title>Node1&#45;&gt;Node4</title>
<g id="a_edge3_Node000001_Node000004"><a xlink:title=" ">
<path fill="none" stroke="#63b8ff" d="M179.68,-77.89C162.97,-75.89 145.74,-73.82 129.91,-71.92"/>
<polygon fill="#63b8ff" stroke="#63b8ff" points="184.59,-78.48 179.36,-80.12 183.32,-78.33 179.63,-77.89 179.63,-77.89 179.63,-77.89 183.32,-78.33 179.9,-75.65 184.59,-78.48"/>
</a>
</g>
</g>
<!-- Node5 -->
<g id="Node000005" class="node">
<title>Node5</title>
<g id="a_Node000005"><a xlink:href="../../da/d1f/classnpi_1_1_global_locker.html#ac0002ff2d39625bca15c1fe4cc6e771a" target="_top" xlink:title="Deleted Move Assignment.">
<polygon fill="white" stroke="none" points="130,-30.5 0,-30.5 0,0 130,0 130,-30.5"/>
<text xml:space="preserve" text-anchor="start" x="8" y="-16.05" font-family="Consolas" font-size="11.00">npi::GlobalLocker::</text>
<text xml:space="preserve" text-anchor="middle" x="65" y="-4.8" font-family="Consolas" font-size="11.00">operator=</text>
</a>
</g>
</g>
<!-- Node1&#45;&gt;Node5 -->
<g id="edge4_Node000001_Node000005" class="edge">
<title>Node1&#45;&gt;Node5</title>
<g id="a_edge4_Node000001_Node000005"><a xlink:title=" ">
<path fill="none" stroke="#63b8ff" d="M234.11,-76.61C199.8,-64.09 145.09,-44.12 107.46,-30.38"/>
<polygon fill="#63b8ff" stroke="#63b8ff" points="238.71,-78.29 233.24,-78.69 237.51,-77.85 234.01,-76.57 234.01,-76.57 234.01,-76.57 237.51,-77.85 234.78,-74.46 238.71,-78.29"/>
</a>
</g>
</g>
</g>
</svg>
