<?xml version="1.0" encoding="UTF-8" standalone="no"?>
<!DOCTYPE svg PUBLIC "-//W3C//DTD SVG 1.1//EN"
 "http://www.w3.org/Graphics/SVG/1.1/DTD/svg11.dtd">
<!-- Generated by graphviz version 14.0.0 (20250921.2048)
 -->
<!-- Title: npi::win::MutexLocker Pages: 1 -->
<svg width="150pt" height="99pt"
 viewBox="0.00 0.00 150.00 99.00" xmlns="http://www.w3.org/2000/svg" xmlns:xlink="http://www.w3.org/1999/xlink">

<svg id="main" version="1.1" xmlns="http://www.w3.org/2000/svg" xmlns:xlink="http://www.w3.org/1999/xlink" xml:space="preserve">

<style type="text/css"><![CDATA[
.node, .edge {opacity: 0.7;}
.node.selected, .edge.selected {opacity: 1;}
.edge:hover path { stroke: red; }
.edge:hover polygon { stroke: red; fill: red; }
]]></style>
<script type="application/ecmascript" xlink:href="../../svg.min.js"/>
<svg id="graph" class="graph">
<g id="graph0" class="graph" transform="scale(1 1) rotate(0) translate(4 95)">
<title>npi::win::MutexLocker</title>
<!-- Node1 -->
<g id="Node000001" class="node">
<title>Node1</title>
<g id="a_Node000001"><a xlink:title="RAII wrapper around a Windows named mutex.">
<polygon fill="#999999" stroke="none" points="142,-19.25 0,-19.25 0,0 142,0 142,-19.25"/>
<text xml:space="preserve" text-anchor="start" x="8" y="-5.8" font-family="Consolas" font-weight="bold" font-size="11.00">npi::win::MutexLocker</text>
</a>
</g>
</g>
<!-- Node2 -->
<g id="Node000002" class="node">
<title>Node2</title>
<g id="a_Node000002"><a xlink:title=" ">
<polygon fill="white" stroke="none" points="64,-91 12,-91 12,-71.75 64,-71.75 64,-91"/>
<text xml:space="preserve" text-anchor="middle" x="38" y="-76.55" font-family="Consolas" font-size="11.00">HANDLE</text>
</a>
</g>
</g>
<!-- Node2&#45;&gt;Node1 -->
<g id="edge1_Node000001_Node000002" class="edge">
<title>Node2&#45;&gt;Node1</title>
<g id="a_edge1_Node000001_Node000002"><a xlink:title=" ">
<path fill="none" stroke="#9a32cd" stroke-dasharray="5,2" d="M35.54,-65.82C34.75,-57.11 34.98,-46.06 39.25,-37.25 42.89,-29.74 49.75,-23.57 56.16,-19.07"/>
<polygon fill="#9a32cd" stroke="#9a32cd" points="36.14,-70.74 33.3,-66.06 35.99,-69.47 35.53,-65.78 35.53,-65.78 35.53,-65.78 35.99,-69.47 37.77,-65.51 36.14,-70.74"/>
</a>
</g>
<text xml:space="preserve" text-anchor="start" x="42.25" y="-41.25" font-family="Consolas" font-size="10.00" fill="grey">handle_</text>
</g>
<!-- Node3 -->
<g id="Node000003" class="node">
<title>Node3</title>
<g id="a_Node000003"><a xlink:title=" ">
<polygon fill="white" stroke="none" points="124,-91 84,-91 84,-71.75 124,-71.75 124,-91"/>
<text xml:space="preserve" text-anchor="middle" x="104" y="-76.55" font-family="Consolas" font-size="11.00">bool</text>
</a>
</g>
</g>
<!-- Node3&#45;&gt;Node1 -->
<g id="edge2_Node000001_Node000003" class="edge">
<title>Node3&#45;&gt;Node1</title>
<g id="a_edge2_Node000001_Node000003"><a xlink:title=" ">
<path fill="none" stroke="#9a32cd" stroke-dasharray="5,2" d="M97.33,-66.27C90.66,-52.19 80.64,-31 75.08,-19.25"/>
<polygon fill="#9a32cd" stroke="#9a32cd" points="99.43,-70.72 95.26,-67.16 98.88,-69.56 97.29,-66.2 97.29,-66.2 97.29,-66.2 98.88,-69.56 99.33,-65.24 99.43,-70.72"/>
</a>
</g>
<text xml:space="preserve" text-anchor="start" x="93.46" y="-41.25" font-family="Consolas" font-size="10.00" fill="grey">locked_</text>
</g>
</g>
</svg>
</svg>

<style type='text/css'>
<![CDATA[
[data-mouse-over-selected='false'] { opacity: 0.7; }
[data-mouse-over-selected='true']  { opacity: 1.0; }
]]>
</style>
<script type="application/ecmascript"><![CDATA[
document.addEventListener('DOMContentLoaded', (event) => {
  highlightEdges();
  highlightAdjacentNodes();
});
]]></script>
</svg>
