<?xml version="1.0" encoding="UTF-8" standalone="no"?>
<!DOCTYPE svg PUBLIC "-//W3C//DTD SVG 1.1//EN"
 "http://www.w3.org/Graphics/SVG/1.1/DTD/svg11.dtd">
<!-- Generated by graphviz version 14.0.0 (20250921.2048)
 -->
<!-- Title: npi::LinkHost&lt; T &gt;::Obs Pages: 1 -->
<svg width="121pt" height="158pt"
 viewBox="0.00 0.00 121.00 158.00" xmlns="http://www.w3.org/2000/svg" xmlns:xlink="http://www.w3.org/1999/xlink">
<g id="graph0" class="graph" transform="scale(1 1) rotate(0) translate(4 154)">
<title>npi::LinkHost&lt; T &gt;::Obs</title>
<!-- Node1 -->
<g id="Node000001" class="node">
<title>Node1</title>
<g id="a_Node000001"><a xlink:title="Inner observer type holding a type&#45;erased pointer to the object. Used to broadcast the lifetime of th...">
<polygon fill="#999999" stroke="none" stroke-width="1.2" points="113,-150 0,-150 0,0 113,0 113,-150"/>
<text xml:space="preserve" text-anchor="start" x="4" y="-136.5" font-family="Segoe UI" font-size="10.00">npi::LinkHost&lt; T &gt;::Obs</text>
<text xml:space="preserve" text-anchor="start" x="14.44" y="-118.25" font-family="Segoe UI" font-size="10.00">+</text>
<text xml:space="preserve" text-anchor="start" x="35.62" y="-118.25" font-family="Segoe UI" font-size="10.00">ptr_</text>
<text xml:space="preserve" text-anchor="start" x="14.44" y="-100" font-family="Segoe UI" font-size="10.00">+</text>
<text xml:space="preserve" text-anchor="start" x="35.62" y="-100" font-family="Segoe UI" font-size="10.00">Obs()</text>
<text xml:space="preserve" text-anchor="start" x="14.44" y="-81.75" font-family="Segoe UI" font-size="10.00">+</text>
<text xml:space="preserve" text-anchor="start" x="35.62" y="-81.75" font-family="Segoe UI" font-size="10.00">Obs()</text>
<text xml:space="preserve" text-anchor="start" x="14.44" y="-63.5" font-family="Segoe UI" font-size="10.00">+</text>
<text xml:space="preserve" text-anchor="start" x="35.62" y="-63.5" font-family="Segoe UI" font-size="10.00">Obs()</text>
<text xml:space="preserve" text-anchor="start" x="14.44" y="-45.25" font-family="Segoe UI" font-size="10.00">+</text>
<text xml:space="preserve" text-anchor="start" x="35.62" y="-45.25" font-family="Segoe UI" font-size="10.00">operator=()</text>
<text xml:space="preserve" text-anchor="start" x="14.44" y="-27" font-family="Segoe UI" font-size="10.00">+</text>
<text xml:space="preserve" text-anchor="start" x="35.62" y="-27" font-family="Segoe UI" font-size="10.00">operator=()</text>
<text xml:space="preserve" text-anchor="start" x="14.44" y="-8.75" font-family="Segoe UI" font-size="10.00">+</text>
<text xml:space="preserve" text-anchor="start" x="35.62" y="-8.75" font-family="Segoe UI" font-size="10.00">~Obs()</text>
<polygon fill="#666666" stroke="#666666" points="0,-129.75 0,-129.75 113,-129.75 113,-129.75 0,-129.75"/>
<polygon fill="#666666" stroke="#666666" points="0,-111.5 0,-111.5 33.62,-111.5 33.62,-111.5 0,-111.5"/>
<polygon fill="#666666" stroke="#666666" points="33.62,-111.5 33.62,-111.5 113,-111.5 113,-111.5 33.62,-111.5"/>
<polygon fill="none" stroke="#666666" points="0,0 0,-150 113,-150 113,0 0,0"/>
</a>
</g>
</g>
</g>
</svg>
