<?xml version="1.0" encoding="UTF-8" standalone="no"?>
<!DOCTYPE svg PUBLIC "-//W3C//DTD SVG 1.1//EN"
 "http://www.w3.org/Graphics/SVG/1.1/DTD/svg11.dtd">
<!-- Generated by graphviz version 14.1.5 (20260411.2331)
 -->
<!-- Title: anonymous_namespace{Log::cpp}::control::comparePaths Pages: 1 -->
<svg width="716pt" height="106pt"
 viewBox="0.00 0.00 716.00 106.00" xmlns="http://www.w3.org/2000/svg" xmlns:xlink="http://www.w3.org/1999/xlink">
<g id="graph0" class="graph" transform="scale(1 1) rotate(0) translate(4 101.5)">
<title>anonymous_namespace{Log::cpp}::control::comparePaths</title>
<!-- Node1 -->
<g id="Node000001" class="node">
<title>Node1</title>
<g id="a_Node000001"><a xlink:title="Compares two Windows paths using normalized case&#45;insensitive semantics.">
<polygon fill="#999999" stroke="none" points="708,-43.25 380,-43.25 380,-24 708,-24 708,-43.25"/>
<text xml:space="preserve" text-anchor="start" x="388" y="-29.8" font-family="Consolas" font-weight="bold" font-size="11.00">anonymous_namespace{Log::cpp}::control::comparePaths</text>
</a>
</g>
</g>
<!-- Node1&#45;&gt;Node1 -->
<g id="edge1_Node000001_Node000001" class="edge">
<title>Node1&#45;&gt;Node1</title>
<g id="a_edge1_Node000001_Node000001"><a xlink:title=" ">
<path fill="none" stroke="#63b8ff" d="M591.22,-45.78C603.73,-53.65 587.99,-61.25 544,-61.25 495.03,-61.25 481.07,-51.84 502.11,-43.11"/>
<polygon fill="#63b8ff" stroke="#63b8ff" points="586.98,-43.65 592.46,-43.88 588.12,-44.23 591.45,-45.89 591.45,-45.89 591.45,-45.89 588.12,-44.23 590.44,-47.91 586.98,-43.65"/>
</a>
</g>
</g>
<!-- Node2 -->
<g id="Node000002" class="node">
<title>Node2</title>
<g id="a_Node000002"><a xlink:href="../../d3/d55/namespaceanonymous__namespace_02_log_8cpp_03_1_1control.html#a49f23e2414522446fe0dffc4154b6794" target="_top" xlink:title="Loads and validates the complete persisted logging configuration.">
<polygon fill="white" stroke="none" points="335,-79.5 205,-79.5 205,-37.75 335,-37.75 335,-79.5"/>
<text xml:space="preserve" text-anchor="start" x="213" y="-65.05" font-family="Consolas" font-size="11.00">anonymous_namespace</text>
<text xml:space="preserve" text-anchor="start" x="213" y="-53.8" font-family="Consolas" font-size="11.00">{Log::cpp}::control</text>
<text xml:space="preserve" text-anchor="middle" x="270" y="-42.55" font-family="Consolas" font-size="11.00">::loadAllSettings</text>
</a>
</g>
</g>
<!-- Node1&#45;&gt;Node2 -->
<g id="edge2_Node000001_Node000002" class="edge">
<title>Node1&#45;&gt;Node2</title>
<g id="a_edge2_Node000001_Node000002"><a xlink:title=" ">
<path fill="none" stroke="#63b8ff" d="M432.45,-43.79C399.3,-46.83 364.05,-50.07 334.98,-52.74"/>
<polygon fill="#63b8ff" stroke="#63b8ff" points="437.4,-43.33 432.63,-46.03 436.13,-43.45 432.42,-43.79 432.42,-43.79 432.42,-43.79 436.13,-43.45 432.22,-41.55 437.4,-43.33"/>
</a>
</g>
</g>
<!-- Node4 -->
<g id="Node000004" class="node">
<title>Node4</title>
<g id="a_Node000004"><a xlink:href="../../d5/ddd/namespacenpi_1_1log.html#ac894ac9b7f01f578c3b8696c765fb3aa" target="_top" xlink:title="Changes the directory used for log files.">
<polygon fill="white" stroke="none" points="344,-19.25 196,-19.25 196,0 344,0 344,-19.25"/>
<text xml:space="preserve" text-anchor="middle" x="270" y="-4.8" font-family="Consolas" font-size="11.00">npi::log::setDirectory</text>
</a>
</g>
</g>
<!-- Node1&#45;&gt;Node4 -->
<g id="edge5_Node000001_Node000004" class="edge">
<title>Node1&#45;&gt;Node4</title>
<g id="a_edge5_Node000001_Node000004"><a xlink:title=" ">
<path fill="none" stroke="#63b8ff" d="M427.88,-23.47C399.38,-20.95 369.64,-18.33 343.81,-16.05"/>
<polygon fill="#63b8ff" stroke="#63b8ff" points="432.72,-23.89 427.54,-25.7 431.44,-23.78 427.74,-23.45 427.74,-23.45 427.74,-23.45 431.44,-23.78 427.94,-21.21 432.72,-23.89"/>
</a>
</g>
</g>
<!-- Node2&#45;&gt;Node2 -->
<g id="edge3_Node000002_Node000002" class="edge">
<title>Node2&#45;&gt;Node2</title>
<g id="a_edge3_Node000002_Node000002"><a xlink:title=" ">
<path fill="none" stroke="#63b8ff" d="M305.2,-85.5C302.9,-92.36 291.16,-97.5 270,-97.5 242.91,-97.5 231.27,-89.07 235.08,-79.42"/>
<polygon fill="#63b8ff" stroke="#63b8ff" points="304.98,-80.64 307.46,-85.53 305.04,-81.92 305.21,-85.63 305.21,-85.63 305.21,-85.63 305.04,-81.92 302.96,-85.74 304.98,-80.64"/>
</a>
</g>
</g>
<!-- Node3 -->
<g id="Node000003" class="node">
<title>Node3</title>
<g id="a_Node000003"><a xlink:href="../../dc/d8e/namespaceanonymous__namespace_02_log_8cpp_03.html#a9dbdeefab4ed0fe490efd90425689d7a" target="_top" xlink:title="Initializes the logging system during process startup.">
<polygon fill="white" stroke="none" points="145,-73.88 15,-73.88 15,-43.38 145,-43.38 145,-73.88"/>
<text xml:space="preserve" text-anchor="start" x="23" y="-59.42" font-family="Consolas" font-size="11.00">anonymous_namespace</text>
<text xml:space="preserve" text-anchor="middle" x="80" y="-48.17" font-family="Consolas" font-size="11.00">{Log::cpp}::startup</text>
</a>
</g>
</g>
<!-- Node2&#45;&gt;Node3 -->
<g id="edge4_Node000002_Node000003" class="edge">
<title>Node2&#45;&gt;Node3</title>
<g id="a_edge4_Node000002_Node000003"><a xlink:title=" ">
<path fill="none" stroke="#63b8ff" d="M199.1,-58.62C181.28,-58.62 162.22,-58.62 144.73,-58.62"/>
<polygon fill="#63b8ff" stroke="#63b8ff" points="203.87,-58.63 198.87,-60.88 202.59,-58.63 198.87,-58.63 198.87,-58.63 198.87,-58.63 202.59,-58.63 198.87,-56.38 203.87,-58.63"/>
</a>
</g>
</g>
<!-- Node5 -->
<g id="Node000005" class="node">
<title>Node5</title>
<g id="a_Node000005"><a xlink:href="../../d5/ddd/namespacenpi_1_1log.html#ab26e1ac5aef4345c9676101f3cd9877f" target="_top" xlink:title="Restores the default log directory.">
<polygon fill="white" stroke="none" points="160,-19.25 0,-19.25 0,0 160,0 160,-19.25"/>
<text xml:space="preserve" text-anchor="middle" x="80" y="-4.8" font-family="Consolas" font-size="11.00">npi::log::resetDirectory</text>
</a>
</g>
</g>
<!-- Node4&#45;&gt;Node5 -->
<g id="edge6_Node000004_Node000005" class="edge">
<title>Node4&#45;&gt;Node5</title>
<g id="a_edge6_Node000004_Node000005"><a xlink:title=" ">
<path fill="none" stroke="#63b8ff" d="M189.89,-9.62C179.94,-9.62 169.77,-9.62 159.83,-9.62"/>
<polygon fill="#63b8ff" stroke="#63b8ff" points="194.83,-9.63 189.83,-11.88 193.55,-9.63 189.83,-9.63 189.83,-9.63 189.83,-9.63 193.55,-9.63 189.83,-7.38 194.83,-9.63"/>
</a>
</g>
</g>
</g>
</svg>
