<?xml version="1.0" encoding="UTF-8" standalone="no"?>
<!DOCTYPE svg PUBLIC "-//W3C//DTD SVG 1.1//EN"
 "http://www.w3.org/Graphics/SVG/1.1/DTD/svg11.dtd">
<!-- Generated by graphviz version 14.0.0 (20250921.2048)
 -->
<!-- Title: anonymous_namespace{Log.cpp}::LogCore::UnitInfo Pages: 1 -->
<svg width="306pt" height="99pt"
 viewBox="0.00 0.00 306.00 99.00" xmlns="http://www.w3.org/2000/svg" xmlns:xlink="http://www.w3.org/1999/xlink">
<g id="graph0" class="graph" transform="scale(1 1) rotate(0) translate(4 95)">
<title>anonymous_namespace{Log.cpp}::LogCore::UnitInfo</title>
<!-- Node1 -->
<g id="Node000001" class="node">
<title>Node1</title>
<g id="a_Node000001"><a xlink:title=" ">
<polygon fill="#999999" stroke="none" points="298,-19.25 0,-19.25 0,0 298,0 298,-19.25"/>
<text xml:space="preserve" text-anchor="start" x="8" y="-5.8" font-family="Consolas" font-weight="bold" font-size="11.00">anonymous_namespace{Log.cpp}::LogCore::UnitInfo</text>
</a>
</g>
</g>
<!-- Node2 -->
<g id="Node000002" class="node">
<title>Node2</title>
<g id="a_Node000002"><a xlink:title=" ">
<polygon fill="white" stroke="none" points="143,-91 91,-91 91,-71.75 143,-71.75 143,-91"/>
<text xml:space="preserve" text-anchor="middle" x="117" y="-76.55" font-family="Consolas" font-size="11.00">qint64</text>
</a>
</g>
</g>
<!-- Node2&#45;&gt;Node1 -->
<g id="edge1_Node000001_Node000002" class="edge">
<title>Node2&#45;&gt;Node1</title>
<g id="a_edge1_Node000001_Node000002"><a xlink:title=" ">
<path fill="none" stroke="#9a32cd" stroke-dasharray="5,2" d="M116.09,-65.85C116.11,-57.15 117.2,-46.1 121.5,-37.25 124.99,-30.08 131.25,-23.78 136.92,-19.11"/>
<polygon fill="#9a32cd" stroke="#9a32cd" points="116.2,-70.75 113.83,-65.81 116.17,-69.47 116.08,-65.75 116.08,-65.75 116.08,-65.75 116.17,-69.47 118.33,-65.7 116.2,-70.75"/>
</a>
</g>
<text xml:space="preserve" text-anchor="start" x="124.5" y="-41.25" font-family="Consolas" font-size="10.00" fill="grey">scale_</text>
</g>
<!-- Node3 -->
<g id="Node000003" class="node">
<title>Node3</title>
<g id="a_Node000003"><a xlink:title=" ">
<polygon fill="white" stroke="none" points="201,-91 161,-91 161,-71.75 201,-71.75 201,-91"/>
<text xml:space="preserve" text-anchor="middle" x="181" y="-76.55" font-family="Consolas" font-size="11.00">char</text>
</a>
</g>
</g>
<!-- Node3&#45;&gt;Node1 -->
<g id="edge2_Node000001_Node000003" class="edge">
<title>Node3&#45;&gt;Node1</title>
<g id="a_edge2_Node000001_Node000003"><a xlink:title=" ">
<path fill="none" stroke="#9a32cd" stroke-dasharray="5,2" d="M174.53,-66.27C168.07,-52.19 158.35,-31 152.96,-19.25"/>
<polygon fill="#9a32cd" stroke="#9a32cd" points="176.57,-70.71 172.44,-67.11 176.03,-69.55 174.48,-66.17 174.48,-66.17 174.48,-66.17 176.03,-69.55 176.53,-65.23 176.57,-70.71"/>
</a>
</g>
<text xml:space="preserve" text-anchor="start" x="170.87" y="-41.25" font-family="Consolas" font-size="10.00" fill="grey">suffix_</text>
</g>
</g>
</svg>
