<?xml version="1.0" encoding="UTF-8" standalone="no"?>
<!DOCTYPE svg PUBLIC "-//W3C//DTD SVG 1.1//EN"
 "http://www.w3.org/Graphics/SVG/1.1/DTD/svg11.dtd">
<!-- Generated by graphviz version 14.0.0 (20250921.2048)
 -->
<!-- Title: Log.h Pages: 1 -->
<svg width="378pt" height="83pt"
 viewBox="0.00 0.00 378.00 83.00" xmlns="http://www.w3.org/2000/svg" xmlns:xlink="http://www.w3.org/1999/xlink">

<svg id="main" version="1.1" xmlns="http://www.w3.org/2000/svg" xmlns:xlink="http://www.w3.org/1999/xlink" xml:space="preserve">

<style type="text/css"><![CDATA[
.node, .edge {opacity: 0.7;}
.node.selected, .edge.selected {opacity: 1;}
.edge:hover path { stroke: red; }
.edge:hover polygon { stroke: red; fill: red; }
]]></style>
<script type="application/ecmascript" xlink:href="../../svg.min.js"/>
<svg id="graph" class="graph">
<g id="graph0" class="graph" transform="scale(1 1) rotate(0) translate(4 78.5)">
<title>Log.h</title>
<!-- Node1 -->
<g id="Node000001" class="node">
<title>Node1</title>
<g id="a_Node000001"><a xlink:title=" ">
<polygon fill="#999999" stroke="none" points="176,-74.5 130,-74.5 130,-55.25 176,-55.25 176,-74.5"/>
<text xml:space="preserve" text-anchor="start" x="138" y="-61.05" font-family="Consolas" font-weight="bold" font-size="11.00">Log.h</text>
</a>
</g>
</g>
<!-- Node2 -->
<g id="Node000002" class="node">
<title>Node2</title>
<g id="a_Node000002"><a xlink:title=" ">
<polygon fill="#e0e0e0" stroke="none" points="58,-19.25 0,-19.25 0,0 58,0 58,-19.25"/>
<text xml:space="preserve" text-anchor="middle" x="29" y="-4.8" font-family="Consolas" font-size="11.00">QString</text>
</a>
</g>
</g>
<!-- Node1&#45;&gt;Node2 -->
<g id="edge1_Node000001_Node000002" class="edge">
<title>Node1&#45;&gt;Node2</title>
<g id="a_edge1_Node000001_Node000002"><a xlink:title=" ">
<path fill="none" stroke="#63b8ff" d="M133.08,-55.32C111.75,-46.16 77.83,-31.59 54.55,-21.6"/>
<polygon fill="#63b8ff" stroke="#63b8ff" points="49.99,-19.64 55.48,-19.55 51.17,-20.15 54.59,-21.61 54.59,-21.61 54.59,-21.61 51.17,-20.15 53.7,-23.68 49.99,-19.64"/>
</a>
</g>
</g>
<!-- Node3 -->
<g id="Node000003" class="node">
<title>Node3</title>
<g id="a_Node000003"><a xlink:title=" ">
<polygon fill="#e0e0e0" stroke="none" points="140,-19.25 76,-19.25 76,0 140,0 140,-19.25"/>
<text xml:space="preserve" text-anchor="middle" x="108" y="-4.8" font-family="Consolas" font-size="11.00">QtGlobal</text>
</a>
</g>
</g>
<!-- Node1&#45;&gt;Node3 -->
<g id="edge2_Node000001_Node000003" class="edge">
<title>Node1&#45;&gt;Node3</title>
<g id="a_edge2_Node000001_Node000003"><a xlink:title=" ">
<path fill="none" stroke="#63b8ff" d="M145.97,-55.55C138.75,-47.01 127.4,-33.58 118.99,-23.63"/>
<polygon fill="#63b8ff" stroke="#63b8ff" points="115.92,-19.99 120.86,-22.36 116.74,-20.97 119.14,-23.81 119.14,-23.81 119.14,-23.81 116.74,-20.97 117.43,-25.26 115.92,-19.99"/>
</a>
</g>
</g>
<!-- Node4 -->
<g id="Node000004" class="node">
<title>Node4</title>
<g id="a_Node000004"><a xlink:title=" ">
<polygon fill="#e0e0e0" stroke="none" points="240,-19.25 158,-19.25 158,0 240,0 240,-19.25"/>
<text xml:space="preserve" text-anchor="middle" x="199" y="-4.8" font-family="Consolas" font-size="11.00">QStringList</text>
</a>
</g>
</g>
<!-- Node1&#45;&gt;Node4 -->
<g id="edge3_Node000001_Node000004" class="edge">
<title>Node1&#45;&gt;Node4</title>
<g id="a_edge3_Node000001_Node000004"><a xlink:title=" ">
<path fill="none" stroke="#63b8ff" d="M160.19,-55.55C167.57,-47.01 179.17,-33.58 187.76,-23.63"/>
<polygon fill="#63b8ff" stroke="#63b8ff" points="190.91,-19.98 189.35,-25.24 190.08,-20.95 187.65,-23.77 187.65,-23.77 187.65,-23.77 190.08,-20.95 185.94,-22.3 190.91,-19.98"/>
</a>
</g>
</g>
<!-- Node5 -->
<g id="Node000005" class="node">
<title>Node5</title>
<g id="a_Node000005"><a xlink:title=" ">
<polygon fill="#e0e0e0" stroke="none" points="370,-19.25 258,-19.25 258,0 370,0 370,-19.25"/>
<text xml:space="preserve" text-anchor="middle" x="314" y="-4.8" font-family="Consolas" font-size="11.00">QLoggingCategory</text>
</a>
</g>
</g>
<!-- Node1&#45;&gt;Node5 -->
<g id="edge4_Node000001_Node000005" class="edge">
<title>Node1&#45;&gt;Node5</title>
<g id="a_edge4_Node000001_Node000005"><a xlink:title=" ">
<path fill="none" stroke="#63b8ff" d="M175.73,-56.36C203.63,-47.13 251.12,-31.42 282.53,-21.03"/>
<polygon fill="#63b8ff" stroke="#63b8ff" points="287.04,-19.54 283,-23.25 285.82,-19.94 282.29,-21.11 282.29,-21.11 282.29,-21.11 285.82,-19.94 281.58,-18.98 287.04,-19.54"/>
</a>
</g>
</g>
</g>
</svg>
</svg>

<style type='text/css'>
<![CDATA[
[data-mouse-over-selected='false'] { opacity: 0.7; }
[data-mouse-over-selected='true']  { opacity: 1.0; }
]]>
</style>
<script type="application/ecmascript"><![CDATA[
document.addEventListener('DOMContentLoaded', (event) => {
  highlightEdges();
  highlightAdjacentNodes();
});
]]></script>
</svg>
