<?xml version="1.0" encoding="UTF-8" standalone="no"?>
<!DOCTYPE svg PUBLIC "-//W3C//DTD SVG 1.1//EN"
 "http://www.w3.org/Graphics/SVG/1.1/DTD/svg11.dtd">
<!-- Generated by graphviz version 14.0.0 (20250921.2048)
 -->
<!-- Title: MainWindow Pages: 1 -->
<svg width="347pt" height="99pt"
 viewBox="0.00 0.00 347.00 99.00" xmlns="http://www.w3.org/2000/svg" xmlns:xlink="http://www.w3.org/1999/xlink">

<svg id="main" version="1.1" xmlns="http://www.w3.org/2000/svg" xmlns:xlink="http://www.w3.org/1999/xlink" xml:space="preserve">

<style type="text/css"><![CDATA[
.node, .edge {opacity: 0.7;}
.node.selected, .edge.selected {opacity: 1;}
.edge:hover path { stroke: red; }
.edge:hover polygon { stroke: red; fill: red; }
]]></style>
<script type="application/ecmascript" xlink:href="../../svg.min.js"/>
<svg id="graph" class="graph">
<g id="graph0" class="graph" transform="scale(1 1) rotate(0) translate(4 95)">
<title>MainWindow</title>
<!-- Node1 -->
<g id="Node000001" class="node">
<title>Node1</title>
<g id="a_Node000001"><a xlink:title=" ">
<polygon fill="#999999" stroke="none" points="214,-19.25 138,-19.25 138,0 214,0 214,-19.25"/>
<text xml:space="preserve" text-anchor="start" x="146" y="-5.8" font-family="Consolas" font-weight="bold" font-size="11.00">MainWindow</text>
</a>
</g>
</g>
<!-- Node2 -->
<g id="Node000002" class="node">
<title>Node2</title>
<g id="a_Node000002"><a xlink:title=" ">
<polygon fill="white" stroke="none" points="58,-91 0,-91 0,-71.75 58,-71.75 58,-91"/>
<text xml:space="preserve" text-anchor="middle" x="29" y="-76.55" font-family="Consolas" font-size="11.00">QWidget</text>
</a>
</g>
</g>
<!-- Node2&#45;&gt;Node1 -->
<g id="edge1_Node000001_Node000002" class="edge">
<title>Node2&#45;&gt;Node1</title>
<g id="a_edge1_Node000001_Node000002"><a xlink:title=" ">
<path fill="none" stroke="#63b8ff" d="M52.61,-69.17C81.92,-55.26 131.29,-31.84 157.83,-19.25"/>
<polygon fill="#63b8ff" stroke="#63b8ff" points="48.13,-71.3 51.68,-67.12 49.28,-70.75 52.64,-69.16 52.64,-69.16 52.64,-69.16 49.28,-70.75 53.61,-71.19 48.13,-71.3"/>
</a>
</g>
</g>
<!-- Node3 -->
<g id="Node000003" class="node">
<title>Node3</title>
<g id="a_Node000003"><a xlink:title=" ">
<polygon fill="white" stroke="none" points="170,-91 76,-91 76,-71.75 170,-71.75 170,-91"/>
<text xml:space="preserve" text-anchor="middle" x="123" y="-76.55" font-family="Consolas" font-size="11.00">ui_MainWindow</text>
</a>
</g>
</g>
<!-- Node3&#45;&gt;Node1 -->
<g id="edge2_Node000001_Node000003" class="edge">
<title>Node3&#45;&gt;Node1</title>
<g id="a_edge2_Node000001_Node000003"><a xlink:title=" ">
<path fill="none" stroke="#9a32cd" stroke-dasharray="5,2" d="M133.15,-67.02C143.84,-52.95 160.36,-31.21 169.45,-19.25"/>
<polygon fill="#9a32cd" stroke="#9a32cd" points="130.24,-70.85 131.47,-65.51 131.01,-69.83 133.26,-66.87 133.26,-66.87 133.26,-66.87 131.01,-69.83 135.05,-68.23 130.24,-70.85"/>
</a>
</g>
<text xml:space="preserve" text-anchor="start" x="157.25" y="-41.25" font-family="Consolas" font-size="10.00" fill="grey">ui</text>
</g>
<!-- Node4 -->
<g id="Node000004" class="node">
<title>Node4</title>
<g id="a_Node000004"><a xlink:title=" ">
<polygon fill="white" stroke="none" points="270,-91 188,-91 188,-71.75 270,-71.75 270,-91"/>
<text xml:space="preserve" text-anchor="middle" x="229" y="-76.55" font-family="Consolas" font-size="11.00">QStringList</text>
</a>
</g>
</g>
<!-- Node4&#45;&gt;Node1 -->
<g id="edge3_Node000001_Node000004" class="edge">
<title>Node4&#45;&gt;Node1</title>
<g id="a_edge3_Node000001_Node000004"><a xlink:title=" ">
<path fill="none" stroke="#9a32cd" stroke-dasharray="5,2" d="M218.85,-67.02C208.16,-52.95 191.64,-31.21 182.55,-19.25"/>
<polygon fill="#9a32cd" stroke="#9a32cd" points="221.76,-70.85 216.95,-68.23 220.99,-69.83 218.74,-66.87 218.74,-66.87 218.74,-66.87 220.99,-69.83 220.53,-65.51 221.76,-70.85"/>
</a>
</g>
<text xml:space="preserve" text-anchor="start" x="210.25" y="-41.25" font-family="Consolas" font-size="10.00" fill="grey">logCats_</text>
</g>
<!-- Node5 -->
<g id="Node000005" class="node">
<title>Node5</title>
<g id="a_Node000005"><a xlink:title=" ">
<polygon fill="white" stroke="none" points="328,-91 288,-91 288,-71.75 328,-71.75 328,-91"/>
<text xml:space="preserve" text-anchor="middle" x="308" y="-76.55" font-family="Consolas" font-size="11.00">bool</text>
</a>
</g>
</g>
<!-- Node5&#45;&gt;Node1 -->
<g id="edge4_Node000001_Node000005" class="edge">
<title>Node5&#45;&gt;Node1</title>
<g id="a_edge4_Node000001_Node000005"><a xlink:title=" ">
<path fill="none" stroke="#9a32cd" stroke-dasharray="5,2" d="M296.29,-67.53C286.99,-58.01 273.23,-45.32 259,-37.25 245.05,-29.33 228.42,-23.41 213.72,-19.18"/>
<polygon fill="#9a32cd" stroke="#9a32cd" points="299.64,-71.04 294.56,-68.98 298.75,-70.11 296.19,-67.42 296.19,-67.42 296.19,-67.42 298.75,-70.11 297.82,-65.87 299.64,-71.04"/>
</a>
</g>
<text xml:space="preserve" text-anchor="start" x="283.71" y="-41.25" font-family="Consolas" font-size="10.00" fill="grey">slotState_</text>
</g>
</g>
</svg>
</svg>

<style type='text/css'>
<![CDATA[
[data-mouse-over-selected='false'] { opacity: 0.7; }
[data-mouse-over-selected='true']  { opacity: 1.0; }
]]>
</style>
<script type="application/ecmascript"><![CDATA[
document.addEventListener('DOMContentLoaded', (event) => {
  highlightEdges();
  highlightAdjacentNodes();
});
]]></script>
</svg>
