<?xml version="1.0" encoding="UTF-8" standalone="no"?>
<!DOCTYPE svg PUBLIC "-//W3C//DTD SVG 1.1//EN"
 "http://www.w3.org/Graphics/SVG/1.1/DTD/svg11.dtd">
<!-- Generated by graphviz version 14.0.0 (20250921.2048)
 -->
<!-- Title: WinMsgBox.hpp Pages: 1 -->
<svg width="300pt" height="83pt"
 viewBox="0.00 0.00 300.00 83.00" xmlns="http://www.w3.org/2000/svg" xmlns:xlink="http://www.w3.org/1999/xlink">
<g id="graph0" class="graph" transform="scale(1 1) rotate(0) translate(4 78.5)">
<title>WinMsgBox.hpp</title>
<!-- Node1 -->
<g id="Node000001" class="node">
<title>Node1</title>
<g id="a_Node000001"><a xlink:title="Windows message box helpers using the Unicode API.">
<polygon fill="#999999" stroke="none" points="202,-74.5 108,-74.5 108,-55.25 202,-55.25 202,-74.5"/>
<text xml:space="preserve" text-anchor="start" x="116" y="-61.05" font-family="Consolas" font-weight="bold" font-size="11.00">WinMsgBox.hpp</text>
</a>
</g>
</g>
<!-- Node2 -->
<g id="Node000002" class="node">
<title>Node2</title>
<g id="a_Node000002"><a xlink:title=" ">
<polygon fill="#e0e0e0" stroke="none" points="70,-19.25 0,-19.25 0,0 70,0 70,-19.25"/>
<text xml:space="preserve" text-anchor="middle" x="35" y="-4.8" font-family="Consolas" font-size="11.00">windows.h</text>
</a>
</g>
</g>
<!-- Node1&#45;&gt;Node2 -->
<g id="edge1_Node000001_Node000002" class="edge">
<title>Node1&#45;&gt;Node2</title>
<g id="a_edge1_Node000001_Node000002"><a xlink:title=" ">
<path fill="none" stroke="#63b8ff" d="M135.72,-55.32C115.08,-46.16 82.26,-31.59 59.72,-21.6"/>
<polygon fill="#63b8ff" stroke="#63b8ff" points="55.35,-19.65 60.83,-19.62 56.52,-20.17 59.92,-21.68 59.92,-21.68 59.92,-21.68 56.52,-20.17 59,-23.74 55.35,-19.65"/>
</a>
</g>
</g>
<!-- Node3 -->
<g id="Node000003" class="node">
<title>Node3</title>
<g id="a_Node000003"><a xlink:title=" ">
<polygon fill="#e0e0e0" stroke="none" points="146,-19.25 88,-19.25 88,0 146,0 146,-19.25"/>
<text xml:space="preserve" text-anchor="middle" x="117" y="-4.8" font-family="Consolas" font-size="11.00">QString</text>
</a>
</g>
</g>
<!-- Node1&#45;&gt;Node3 -->
<g id="edge2_Node000001_Node000003" class="edge">
<title>Node1&#45;&gt;Node3</title>
<g id="a_edge2_Node000001_Node000003"><a xlink:title=" ">
<path fill="none" stroke="#63b8ff" d="M149.06,-55.55C143.02,-47.09 133.56,-33.83 126.48,-23.9"/>
<polygon fill="#63b8ff" stroke="#63b8ff" points="123.73,-20.05 128.46,-22.82 124.47,-21.1 126.63,-24.12 126.63,-24.12 126.63,-24.12 124.47,-21.1 124.8,-25.43 123.73,-20.05"/>
</a>
</g>
</g>
<!-- Node4 -->
<g id="Node000004" class="node">
<title>Node4</title>
<g id="a_Node000004"><a xlink:title=" ">
<polygon fill="#e0e0e0" stroke="none" points="222,-19.25 164,-19.25 164,0 222,0 222,-19.25"/>
<text xml:space="preserve" text-anchor="middle" x="193" y="-4.8" font-family="Consolas" font-size="11.00">QWidget</text>
</a>
</g>
</g>
<!-- Node1&#45;&gt;Node4 -->
<g id="edge3_Node000001_Node000004" class="edge">
<title>Node1&#45;&gt;Node4</title>
<g id="a_edge3_Node000001_Node000004"><a xlink:title=" ">
<path fill="none" stroke="#63b8ff" d="M160.94,-55.55C166.98,-47.09 176.44,-33.83 183.52,-23.9"/>
<polygon fill="#63b8ff" stroke="#63b8ff" points="186.27,-20.05 185.2,-25.43 185.53,-21.1 183.37,-24.12 183.37,-24.12 183.37,-24.12 185.53,-21.1 181.54,-22.82 186.27,-20.05"/>
</a>
</g>
</g>
<!-- Node5 -->
<g id="Node000005" class="node">
<title>Node5</title>
<g id="a_Node000005"><a xlink:title=" ">
<polygon fill="#e0e0e0" stroke="none" points="292,-19.25 240,-19.25 240,0 292,0 292,-19.25"/>
<text xml:space="preserve" text-anchor="middle" x="266" y="-4.8" font-family="Consolas" font-size="11.00">string</text>
</a>
</g>
</g>
<!-- Node1&#45;&gt;Node5 -->
<g id="edge4_Node000001_Node000005" class="edge">
<title>Node1&#45;&gt;Node5</title>
<g id="a_edge4_Node000001_Node000005"><a xlink:title=" ">
<path fill="none" stroke="#63b8ff" d="M172.83,-55.32C191.85,-46.2 222.03,-31.72 242.86,-21.72"/>
<polygon fill="#63b8ff" stroke="#63b8ff" points="247.11,-19.69 243.58,-23.88 245.96,-20.24 242.6,-21.85 242.6,-21.85 242.6,-21.85 245.96,-20.24 241.63,-19.82 247.11,-19.69"/>
</a>
</g>
</g>
</g>
</svg>
