<?xml version="1.0" encoding="UTF-8" standalone="no"?>
<!DOCTYPE svg PUBLIC "-//W3C//DTD SVG 1.1//EN"
 "http://www.w3.org/Graphics/SVG/1.1/DTD/svg11.dtd">
<!-- Generated by graphviz version 14.0.0 (20250921.2048)
 -->
<!-- Title: WinMsgBox.hpp Pages: 1 -->
<svg width="460pt" height="83pt"
 viewBox="0.00 0.00 460.00 83.00" xmlns="http://www.w3.org/2000/svg" xmlns:xlink="http://www.w3.org/1999/xlink">

<svg id="main" version="1.1" xmlns="http://www.w3.org/2000/svg" xmlns:xlink="http://www.w3.org/1999/xlink" xml:space="preserve">

<style type="text/css"><![CDATA[
.node, .edge {opacity: 0.7;}
.node.selected, .edge.selected {opacity: 1;}
.edge:hover path { stroke: red; }
.edge:hover polygon { stroke: red; fill: red; }
]]></style>
<script type="application/ecmascript" xlink:href="../../svg.min.js"/>
<svg id="graph" class="graph">
<g id="graph0" class="graph" transform="scale(1 1) rotate(0) translate(4 78.5)">
<title>WinMsgBox.hpp</title>
<!-- Node1 -->
<g id="Node000001" class="node">
<title>Node1</title>
<g id="a_Node000001"><a xlink:title="Native Windows message box helpers for emergency or low&#45;level use.">
<polygon fill="#999999" stroke="none" points="324,-74.5 230,-74.5 230,-55.25 324,-55.25 324,-74.5"/>
<text xml:space="preserve" text-anchor="start" x="238" y="-61.05" font-family="Consolas" font-weight="bold" font-size="11.00">WinMsgBox.hpp</text>
</a>
</g>
</g>
<!-- Node2 -->
<g id="Node000002" class="node">
<title>Node2</title>
<g id="a_Node000002"><a xlink:title=" ">
<polygon fill="#e0e0e0" stroke="none" points="142,-19.25 0,-19.25 0,0 142,0 142,-19.25"/>
<text xml:space="preserve" text-anchor="middle" x="71" y="-4.8" font-family="Consolas" font-size="11.00">npi/PlatformCheck.hpp</text>
</a>
</g>
</g>
<!-- Node1&#45;&gt;Node2 -->
<g id="edge1_Node000001_Node000002" class="edge">
<title>Node1&#45;&gt;Node2</title>
<g id="a_edge1_Node000001_Node000002"><a xlink:title=" ">
<path fill="none" stroke="#63b8ff" d="M243.9,-55.32C207.37,-45.88 148.63,-30.69 109.92,-20.69"/>
<polygon fill="#63b8ff" stroke="#63b8ff" points="105.54,-19.55 110.94,-18.63 106.78,-19.87 110.38,-20.8 110.38,-20.8 110.38,-20.8 106.78,-19.87 109.81,-22.98 105.54,-19.55"/>
</a>
</g>
</g>
<!-- Node3 -->
<g id="Node000003" class="node">
<title>Node3</title>
<g id="a_Node000003"><a xlink:title=" ">
<polygon fill="#e0e0e0" stroke="none" points="230,-19.25 160,-19.25 160,0 230,0 230,-19.25"/>
<text xml:space="preserve" text-anchor="middle" x="195" y="-4.8" font-family="Consolas" font-size="11.00">windows.h</text>
</a>
</g>
</g>
<!-- Node1&#45;&gt;Node3 -->
<g id="edge2_Node000001_Node000003" class="edge">
<title>Node1&#45;&gt;Node3</title>
<g id="a_edge2_Node000001_Node000003"><a xlink:title=" ">
<path fill="none" stroke="#63b8ff" d="M263.83,-55.32C250.08,-46.39 228.43,-32.33 213.08,-22.37"/>
<polygon fill="#63b8ff" stroke="#63b8ff" points="209.16,-19.82 214.58,-20.66 210.24,-20.52 213.36,-22.55 213.36,-22.55 213.36,-22.55 210.24,-20.52 212.13,-24.43 209.16,-19.82"/>
</a>
</g>
</g>
<!-- Node4 -->
<g id="Node000004" class="node">
<title>Node4</title>
<g id="a_Node000004"><a xlink:title=" ">
<polygon fill="#e0e0e0" stroke="none" points="306,-19.25 248,-19.25 248,0 306,0 306,-19.25"/>
<text xml:space="preserve" text-anchor="middle" x="277" y="-4.8" font-family="Consolas" font-size="11.00">QString</text>
</a>
</g>
</g>
<!-- Node1&#45;&gt;Node4 -->
<g id="edge3_Node000001_Node000004" class="edge">
<title>Node1&#45;&gt;Node4</title>
<g id="a_edge3_Node000001_Node000004"><a xlink:title=" ">
<path fill="none" stroke="#63b8ff" d="M277,-55.55C277,-47.4 277,-34.79 277,-25.01"/>
<polygon fill="#63b8ff" stroke="#63b8ff" points="277,-20.28 279.25,-25.28 277,-21.56 277,-25.28 277,-25.28 277,-25.28 277,-21.56 274.75,-25.28 277,-20.28"/>
</a>
</g>
</g>
<!-- Node5 -->
<g id="Node000005" class="node">
<title>Node5</title>
<g id="a_Node000005"><a xlink:title=" ">
<polygon fill="#e0e0e0" stroke="none" points="376,-19.25 324,-19.25 324,0 376,0 376,-19.25"/>
<text xml:space="preserve" text-anchor="middle" x="350" y="-4.8" font-family="Consolas" font-size="11.00">string</text>
</a>
</g>
</g>
<!-- Node1&#45;&gt;Node5 -->
<g id="edge4_Node000001_Node000005" class="edge">
<title>Node1&#45;&gt;Node5</title>
<g id="a_edge4_Node000001_Node000005"><a xlink:title=" ">
<path fill="none" stroke="#63b8ff" d="M288.73,-55.32C300.93,-46.42 320.13,-32.41 333.79,-22.45"/>
<polygon fill="#63b8ff" stroke="#63b8ff" points="337.56,-19.7 334.84,-24.47 336.52,-20.46 333.52,-22.65 333.52,-22.65 333.52,-22.65 336.52,-20.46 332.19,-20.83 337.56,-19.7"/>
</a>
</g>
</g>
<!-- Node6 -->
<g id="Node000006" class="node">
<title>Node6</title>
<g id="a_Node000006"><a xlink:title=" ">
<polygon fill="#e0e0e0" stroke="none" points="452,-19.25 394,-19.25 394,0 452,0 452,-19.25"/>
<text xml:space="preserve" text-anchor="middle" x="423" y="-4.8" font-family="Consolas" font-size="11.00">cstdlib</text>
</a>
</g>
</g>
<!-- Node1&#45;&gt;Node6 -->
<g id="edge5_Node000001_Node000006" class="edge">
<title>Node1&#45;&gt;Node6</title>
<g id="a_edge5_Node000001_Node000006"><a xlink:title=" ">
<path fill="none" stroke="#63b8ff" d="M300.46,-55.32C325.89,-46.04 366.52,-31.22 393.96,-21.22"/>
<polygon fill="#63b8ff" stroke="#63b8ff" points="398.46,-19.58 394.53,-23.4 397.25,-20.02 393.76,-21.29 393.76,-21.29 393.76,-21.29 397.25,-20.02 392.99,-19.18 398.46,-19.58"/>
</a>
</g>
</g>
</g>
</svg>
</svg>

<style type='text/css'>
<![CDATA[
[data-mouse-over-selected='false'] { opacity: 0.7; }
[data-mouse-over-selected='true']  { opacity: 1.0; }
]]>
</style>
<script type="application/ecmascript"><![CDATA[
document.addEventListener('DOMContentLoaded', (event) => {
  highlightEdges();
  highlightAdjacentNodes();
});
]]></script>
</svg>
