<?xml version="1.0" encoding="UTF-8" standalone="no"?>
<!DOCTYPE svg PUBLIC "-//W3C//DTD SVG 1.1//EN"
 "http://www.w3.org/Graphics/SVG/1.1/DTD/svg11.dtd">
<!-- Generated by graphviz version 14.0.0 (20250921.2048)
 -->
<!-- Title: npi::TextSpec::GetAppGroup_ Pages: 1 -->
<svg width="424pt" height="101pt"
 viewBox="0.00 0.00 424.00 101.00" xmlns="http://www.w3.org/2000/svg" xmlns:xlink="http://www.w3.org/1999/xlink">
<g id="graph0" class="graph" transform="scale(1 1) rotate(0) translate(4 97.25)">
<title>npi::TextSpec::GetAppGroup_</title>
<!-- Node1 -->
<g id="Node000001" class="node">
<title>Node1</title>
<g id="a_Node000001"><a xlink:title="Get or create the cached Group for the application font family.">
<polygon fill="#999999" stroke="none" points="416,-56.25 238,-56.25 238,-37 416,-37 416,-56.25"/>
<text xml:space="preserve" text-anchor="start" x="246" y="-42.8" font-family="Consolas" font-weight="bold" font-size="11.00">npi::TextSpec::GetAppGroup_</text>
</a>
</g>
</g>
<!-- Node2 -->
<g id="Node000002" class="node">
<title>Node2</title>
<g id="a_Node000002"><a xlink:href="../../d2/db7/classnpi_1_1_text_spec.html#ad4b0ed692dc864e5a0175cf85eb84910" target="_top" xlink:title="Get a configured QFont for the application font family.">
<polygon fill="white" stroke="none" points="178,-93.25 24,-93.25 24,-74 178,-74 178,-93.25"/>
<text xml:space="preserve" text-anchor="middle" x="101" y="-78.8" font-family="Consolas" font-size="11.00">npi::TextSpec::appFont_</text>
</a>
</g>
</g>
<!-- Node1&#45;&gt;Node2 -->
<g id="edge1_Node000001_Node000002" class="edge">
<title>Node1&#45;&gt;Node2</title>
<g id="a_edge1_Node000001_Node000002"><a xlink:title=" ">
<path fill="none" stroke="#63b8ff" d="M261.82,-57.23C229.72,-62.53 191.17,-68.9 159.98,-74.05"/>
<polygon fill="#63b8ff" stroke="#63b8ff" points="266.53,-56.45 261.96,-59.48 265.26,-56.66 261.6,-57.26 261.6,-57.26 261.6,-57.26 265.26,-56.66 261.23,-55.04 266.53,-56.45"/>
</a>
</g>
</g>
<!-- Node3 -->
<g id="Node000003" class="node">
<title>Node3</title>
<g id="a_Node000003"><a xlink:href="../../d2/db7/classnpi_1_1_text_spec.html#a418b9bcb6a1292054de007257baffb12" target="_top" xlink:title="Get QFontMetrics for the application font family.">
<polygon fill="white" stroke="none" points="199,-56.25 3,-56.25 3,-37 199,-37 199,-56.25"/>
<text xml:space="preserve" text-anchor="middle" x="101" y="-41.8" font-family="Consolas" font-size="11.00">npi::TextSpec::appFontMetrics_</text>
</a>
</g>
</g>
<!-- Node1&#45;&gt;Node3 -->
<g id="edge2_Node000001_Node000003" class="edge">
<title>Node1&#45;&gt;Node3</title>
<g id="a_edge2_Node000001_Node000003"><a xlink:title=" ">
<path fill="none" stroke="#63b8ff" d="M232.05,-46.62C221.09,-46.62 209.89,-46.62 198.89,-46.62"/>
<polygon fill="#63b8ff" stroke="#63b8ff" points="236.89,-46.63 231.89,-48.88 235.61,-46.63 231.89,-46.63 231.89,-46.63 231.89,-46.63 235.61,-46.63 231.89,-44.38 236.89,-46.63"/>
</a>
</g>
</g>
<!-- Node4 -->
<g id="Node000004" class="node">
<title>Node4</title>
<g id="a_Node000004"><a xlink:href="../../d2/db7/classnpi_1_1_text_spec.html#ac41e847d23c1b85e83027a6f84c47eba" target="_top" xlink:title="Get QFontMetricsF for the application font family.">
<polygon fill="white" stroke="none" points="202,-19.25 0,-19.25 0,0 202,0 202,-19.25"/>
<text xml:space="preserve" text-anchor="middle" x="101" y="-4.8" font-family="Consolas" font-size="11.00">npi::TextSpec::appFontMetricsF_</text>
</a>
</g>
</g>
<!-- Node1&#45;&gt;Node4 -->
<g id="edge3_Node000001_Node000004" class="edge">
<title>Node1&#45;&gt;Node4</title>
<g id="a_edge3_Node000001_Node000004"><a xlink:title=" ">
<path fill="none" stroke="#63b8ff" d="M261.82,-36.02C229.72,-30.72 191.17,-24.35 159.98,-19.2"/>
<polygon fill="#63b8ff" stroke="#63b8ff" points="266.53,-36.8 261.23,-38.21 265.26,-36.59 261.6,-35.99 261.6,-35.99 261.6,-35.99 265.26,-36.59 261.96,-33.77 266.53,-36.8"/>
</a>
</g>
</g>
</g>
</svg>
