<?xml version="1.0" encoding="UTF-8" standalone="no"?>
<!DOCTYPE svg PUBLIC "-//W3C//DTD SVG 1.1//EN"
 "http://www.w3.org/Graphics/SVG/1.1/DTD/svg11.dtd">
<!-- Generated by graphviz version 14.0.0 (20250921.2048)
 -->
<!-- Title: npi::TextSpec::fixFontMetricsF_ Pages: 1 -->
<svg width="596pt" height="27pt"
 viewBox="0.00 0.00 596.00 27.00" xmlns="http://www.w3.org/2000/svg" xmlns:xlink="http://www.w3.org/1999/xlink">
<g id="graph0" class="graph" transform="scale(1 1) rotate(0) translate(4 23.25)">
<title>npi::TextSpec::fixFontMetricsF_</title>
<!-- Node1 -->
<g id="Node000001" class="node">
<title>Node1</title>
<g id="a_Node000001"><a xlink:title="Get QFontMetricsF for the fixed&#45;width font family.">
<polygon fill="#999999" stroke="none" points="202,-19.25 0,-19.25 0,0 202,0 202,-19.25"/>
<text xml:space="preserve" text-anchor="start" x="8" y="-5.8" font-family="Consolas" font-weight="bold" font-size="11.00">npi::TextSpec::fixFontMetricsF_</text>
</a>
</g>
</g>
<!-- Node2 -->
<g id="Node000002" class="node">
<title>Node2</title>
<g id="a_Node000002"><a xlink:href="../../d2/db7/classnpi_1_1_text_spec.html#abd759bddccb46ed2bb33efc1bd5ed111" target="_top" xlink:title="Get or create the cached Group for the fixed&#45;width font family.">
<polygon fill="white" stroke="none" points="416,-19.25 238,-19.25 238,0 416,0 416,-19.25"/>
<text xml:space="preserve" text-anchor="middle" x="327" y="-4.8" font-family="Consolas" font-size="11.00">npi::TextSpec::GetFixGroup_</text>
</a>
</g>
</g>
<!-- Node1&#45;&gt;Node2 -->
<g id="edge1_Node000001_Node000002" class="edge">
<title>Node1&#45;&gt;Node2</title>
<g id="a_edge1_Node000001_Node000002"><a xlink:title=" ">
<path fill="none" stroke="#63b8ff" d="M201.88,-9.62C211.93,-9.62 222.11,-9.62 232.09,-9.62"/>
<polygon fill="#63b8ff" stroke="#63b8ff" points="237.06,-9.63 232.06,-11.88 235.78,-9.63 232.06,-9.63 232.06,-9.63 232.06,-9.63 235.78,-9.63 232.06,-7.38 237.06,-9.63"/>
</a>
</g>
</g>
<!-- Node3 -->
<g id="Node000003" class="node">
<title>Node3</title>
<g id="a_Node000003"><a xlink:href="../../d2/db7/classnpi_1_1_text_spec.html#aa7e779d97b1601c98ded2803283dc460" target="_top" xlink:title="Compute a hash key from style and size.">
<polygon fill="white" stroke="none" points="588,-19.25 452,-19.25 452,0 588,0 588,-19.25"/>
<text xml:space="preserve" text-anchor="middle" x="520" y="-4.8" font-family="Consolas" font-size="11.00">npi::TextSpec::Hash_</text>
</a>
</g>
</g>
<!-- Node2&#45;&gt;Node3 -->
<g id="edge2_Node000002_Node000003" class="edge">
<title>Node2&#45;&gt;Node3</title>
<g id="a_edge2_Node000002_Node000003"><a xlink:title=" ">
<path fill="none" stroke="#63b8ff" d="M415.95,-9.62C426.01,-9.62 436.17,-9.62 446,-9.62"/>
<polygon fill="#63b8ff" stroke="#63b8ff" points="450.86,-9.63 445.86,-11.88 449.57,-9.63 445.86,-9.63 445.86,-9.63 445.86,-9.63 449.57,-9.63 445.86,-7.38 450.86,-9.63"/>
</a>
</g>
</g>
</g>
</svg>
