<?xml version="1.0" encoding="UTF-8" standalone="no"?>
<!DOCTYPE svg PUBLIC "-//W3C//DTD SVG 1.1//EN"
 "http://www.w3.org/Graphics/SVG/1.1/DTD/svg11.dtd">
<!-- Generated by graphviz version 14.0.0 (20250921.2048)
 -->
<!-- Title: npi::TextSpec::Hash_ Pages: 1 -->
<svg width="596pt" height="212pt"
 viewBox="0.00 0.00 596.00 212.00" xmlns="http://www.w3.org/2000/svg" xmlns:xlink="http://www.w3.org/1999/xlink">
<g id="graph0" class="graph" transform="scale(1 1) rotate(0) translate(4 208.25)">
<title>npi::TextSpec::Hash_</title>
<!-- Node1 -->
<g id="Node000001" class="node">
<title>Node1</title>
<g id="a_Node000001"><a xlink:title="Compute a hash key from style and size.">
<polygon fill="#999999" stroke="none" points="588,-93.25 452,-93.25 452,-74 588,-74 588,-93.25"/>
<text xml:space="preserve" text-anchor="start" x="460" y="-79.8" font-family="Consolas" font-weight="bold" font-size="11.00">npi::TextSpec::Hash_</text>
</a>
</g>
</g>
<!-- Node2 -->
<g id="Node000002" class="node">
<title>Node2</title>
<g id="a_Node000002"><a xlink:href="../../d2/db7/classnpi_1_1_text_spec.html#ae67029ed4683445f39fac57678b40407" target="_top" xlink:title="Get or create the cached Group for the application font family.">
<polygon fill="white" stroke="none" points="416,-148.25 238,-148.25 238,-129 416,-129 416,-148.25"/>
<text xml:space="preserve" text-anchor="middle" x="327" y="-133.8" font-family="Consolas" font-size="11.00">npi::TextSpec::GetAppGroup_</text>
</a>
</g>
</g>
<!-- Node1&#45;&gt;Node2 -->
<g id="edge1_Node000001_Node000002" class="edge">
<title>Node1&#45;&gt;Node2</title>
<g id="a_edge1_Node000001_Node000002"><a xlink:title=" ">
<path fill="none" stroke="#63b8ff" d="M479.83,-94.91C444.86,-104.97 394.23,-119.55 361.21,-129.06"/>
<polygon fill="#63b8ff" stroke="#63b8ff" points="484.56,-93.54 480.38,-97.09 483.33,-93.9 479.75,-94.93 479.75,-94.93 479.75,-94.93 483.33,-93.9 479.13,-92.76 484.56,-93.54"/>
</a>
</g>
</g>
<!-- Node6 -->
<g id="Node000006" class="node">
<title>Node6</title>
<g id="a_Node000006"><a xlink:href="../../d2/db7/classnpi_1_1_text_spec.html#abd759bddccb46ed2bb33efc1bd5ed111" target="_top" xlink:title="Get or create the cached Group for the fixed&#45;width font family.">
<polygon fill="white" stroke="none" points="416,-75.25 238,-75.25 238,-56 416,-56 416,-75.25"/>
<text xml:space="preserve" text-anchor="middle" x="327" y="-60.8" font-family="Consolas" font-size="11.00">npi::TextSpec::GetFixGroup_</text>
</a>
</g>
</g>
<!-- Node1&#45;&gt;Node6 -->
<g id="edge5_Node000001_Node000006" class="edge">
<title>Node1&#45;&gt;Node6</title>
<g id="a_edge5_Node000001_Node000006"><a xlink:title=" ">
<path fill="none" stroke="#63b8ff" d="M446.1,-76.75C436.23,-75.82 426.01,-74.86 415.91,-73.91"/>
<polygon fill="#63b8ff" stroke="#63b8ff" points="450.98,-77.22 445.8,-78.99 449.71,-77.09 446.01,-76.75 446.01,-76.75 446.01,-76.75 449.71,-77.09 446.22,-74.51 450.98,-77.22"/>
</a>
</g>
</g>
<!-- Node3 -->
<g id="Node000003" class="node">
<title>Node3</title>
<g id="a_Node000003"><a xlink:href="../../d2/db7/classnpi_1_1_text_spec.html#ad4b0ed692dc864e5a0175cf85eb84910" target="_top" xlink:title="Get a configured QFont for the application font family.">
<polygon fill="white" stroke="none" points="178,-204.25 24,-204.25 24,-185 178,-185 178,-204.25"/>
<text xml:space="preserve" text-anchor="middle" x="101" y="-189.8" font-family="Consolas" font-size="11.00">npi::TextSpec::appFont_</text>
</a>
</g>
</g>
<!-- Node2&#45;&gt;Node3 -->
<g id="edge2_Node000002_Node000003" class="edge">
<title>Node2&#45;&gt;Node3</title>
<g id="a_edge2_Node000002_Node000003"><a xlink:title=" ">
<path fill="none" stroke="#63b8ff" d="M292.43,-150.1C267.65,-158.28 233,-169.11 202,-176.62 189.14,-179.74 175.23,-182.58 162,-185.03"/>
<polygon fill="#63b8ff" stroke="#63b8ff" points="297.04,-148.57 293,-152.28 295.82,-148.98 292.29,-150.15 292.29,-150.15 292.29,-150.15 295.82,-148.98 291.58,-148.01 297.04,-148.57"/>
</a>
</g>
</g>
<!-- Node4 -->
<g id="Node000004" class="node">
<title>Node4</title>
<g id="a_Node000004"><a xlink:href="../../d2/db7/classnpi_1_1_text_spec.html#a418b9bcb6a1292054de007257baffb12" target="_top" xlink:title="Get QFontMetrics for the application font family.">
<polygon fill="white" stroke="none" points="199,-167.25 3,-167.25 3,-148 199,-148 199,-167.25"/>
<text xml:space="preserve" text-anchor="middle" x="101" y="-152.8" font-family="Consolas" font-size="11.00">npi::TextSpec::appFontMetrics_</text>
</a>
</g>
</g>
<!-- Node2&#45;&gt;Node4 -->
<g id="edge3_Node000002_Node000004" class="edge">
<title>Node2&#45;&gt;Node4</title>
<g id="a_edge3_Node000002_Node000004"><a xlink:title=" ">
<path fill="none" stroke="#63b8ff" d="M232.05,-146.59C221.09,-147.52 209.89,-148.47 198.89,-149.41"/>
<polygon fill="#63b8ff" stroke="#63b8ff" points="236.9,-146.18 232.11,-148.85 235.62,-146.29 231.92,-146.61 231.92,-146.61 231.92,-146.61 235.62,-146.29 231.73,-144.36 236.9,-146.18"/>
</a>
</g>
</g>
<!-- Node5 -->
<g id="Node000005" class="node">
<title>Node5</title>
<g id="a_Node000005"><a xlink:href="../../d2/db7/classnpi_1_1_text_spec.html#ac41e847d23c1b85e83027a6f84c47eba" target="_top" xlink:title="Get QFontMetricsF for the application font family.">
<polygon fill="white" stroke="none" points="202,-130.25 0,-130.25 0,-111 202,-111 202,-130.25"/>
<text xml:space="preserve" text-anchor="middle" x="101" y="-115.8" font-family="Consolas" font-size="11.00">npi::TextSpec::appFontMetricsF_</text>
</a>
</g>
</g>
<!-- Node2&#45;&gt;Node5 -->
<g id="edge4_Node000002_Node000005" class="edge">
<title>Node2&#45;&gt;Node5</title>
<g id="a_edge4_Node000002_Node000005"><a xlink:title=" ">
<path fill="none" stroke="#63b8ff" d="M231.95,-131.07C222.01,-130.27 211.88,-129.45 201.87,-128.65"/>
<polygon fill="#63b8ff" stroke="#63b8ff" points="236.9,-131.46 231.73,-133.31 235.62,-131.36 231.91,-131.06 231.91,-131.06 231.91,-131.06 235.62,-131.36 232.09,-128.82 236.9,-131.46"/>
</a>
</g>
</g>
<!-- Node7 -->
<g id="Node000007" class="node">
<title>Node7</title>
<g id="a_Node000007"><a xlink:href="../../d2/db7/classnpi_1_1_text_spec.html#a5f2173fd454aa62858566b5b39ea09af" target="_top" xlink:title="Get a configured QFont for the fixed&#45;width font family.">
<polygon fill="white" stroke="none" points="178,-93.25 24,-93.25 24,-74 178,-74 178,-93.25"/>
<text xml:space="preserve" text-anchor="middle" x="101" y="-78.8" font-family="Consolas" font-size="11.00">npi::TextSpec::fixFont_</text>
</a>
</g>
</g>
<!-- Node6&#45;&gt;Node7 -->
<g id="edge6_Node000006_Node000007" class="edge">
<title>Node6&#45;&gt;Node7</title>
<g id="a_edge6_Node000006_Node000007"><a xlink:title=" ">
<path fill="none" stroke="#63b8ff" d="M231.99,-73.18C213.87,-74.64 195.11,-76.14 177.66,-77.55"/>
<polygon fill="#63b8ff" stroke="#63b8ff" points="236.9,-72.79 232.09,-75.43 235.62,-72.89 231.91,-73.19 231.91,-73.19 231.91,-73.19 235.62,-72.89 231.73,-70.94 236.9,-72.79"/>
</a>
</g>
</g>
<!-- Node8 -->
<g id="Node000008" class="node">
<title>Node8</title>
<g id="a_Node000008"><a xlink:href="../../d2/db7/classnpi_1_1_text_spec.html#af19060338032529d0dff1ed9f2d8a486" target="_top" xlink:title="Get QFontMetrics for the fixed&#45;width font family.">
<polygon fill="white" stroke="none" points="199,-56.25 3,-56.25 3,-37 199,-37 199,-56.25"/>
<text xml:space="preserve" text-anchor="middle" x="101" y="-41.8" font-family="Consolas" font-size="11.00">npi::TextSpec::fixFontMetrics_</text>
</a>
</g>
</g>
<!-- Node6&#45;&gt;Node8 -->
<g id="edge7_Node000006_Node000008" class="edge">
<title>Node6&#45;&gt;Node8</title>
<g id="a_edge7_Node000006_Node000008"><a xlink:title=" ">
<path fill="none" stroke="#63b8ff" d="M232.05,-57.66C221.09,-56.73 209.89,-55.78 198.89,-54.84"/>
<polygon fill="#63b8ff" stroke="#63b8ff" points="236.9,-58.07 231.73,-59.89 235.62,-57.96 231.92,-57.64 231.92,-57.64 231.92,-57.64 235.62,-57.96 232.11,-55.4 236.9,-58.07"/>
</a>
</g>
</g>
<!-- Node9 -->
<g id="Node000009" class="node">
<title>Node9</title>
<g id="a_Node000009"><a xlink:href="../../d2/db7/classnpi_1_1_text_spec.html#a61ab261dda4601dbd8fe3e967f293e84" target="_top" xlink:title="Get QFontMetricsF for the fixed&#45;width font family.">
<polygon fill="white" stroke="none" points="202,-19.25 0,-19.25 0,0 202,0 202,-19.25"/>
<text xml:space="preserve" text-anchor="middle" x="101" y="-4.8" font-family="Consolas" font-size="11.00">npi::TextSpec::fixFontMetricsF_</text>
</a>
</g>
</g>
<!-- Node6&#45;&gt;Node9 -->
<g id="edge8_Node000006_Node000009" class="edge">
<title>Node6&#45;&gt;Node9</title>
<g id="a_edge8_Node000006_Node000009"><a xlink:title=" ">
<path fill="none" stroke="#63b8ff" d="M292.43,-54.15C267.65,-45.97 233,-35.14 202,-27.62 189.14,-24.51 175.23,-21.67 162,-19.22"/>
<polygon fill="#63b8ff" stroke="#63b8ff" points="297.04,-55.68 291.58,-56.24 295.82,-55.27 292.29,-54.1 292.29,-54.1 292.29,-54.1 295.82,-55.27 293,-51.97 297.04,-55.68"/>
</a>
</g>
</g>
</g>
</svg>
