<?xml version="1.0" encoding="UTF-8" standalone="no"?>
<!DOCTYPE svg PUBLIC "-//W3C//DTD SVG 1.1//EN"
 "http://www.w3.org/Graphics/SVG/1.1/DTD/svg11.dtd">
<!-- Generated by graphviz version 14.0.0 (20250921.2048)
 -->
<!-- Title: npi::TextSpec::TextSpec Pages: 1 -->
<svg width="370pt" height="125pt"
 viewBox="0.00 0.00 370.00 125.00" xmlns="http://www.w3.org/2000/svg" xmlns:xlink="http://www.w3.org/1999/xlink">

<svg id="main" version="1.1" xmlns="http://www.w3.org/2000/svg" xmlns:xlink="http://www.w3.org/1999/xlink" xml:space="preserve">

<style type="text/css"><![CDATA[
.node, .edge {opacity: 0.7;}
.node.selected, .edge.selected {opacity: 1;}
.edge:hover path { stroke: red; }
.edge:hover polygon { stroke: red; fill: red; }
]]></style>
<script type="application/ecmascript" xlink:href="../../svg.min.js"/>
<svg id="graph" class="graph">
<g id="graph0" class="graph" transform="scale(1 1) rotate(0) translate(4 120.88)">
<title>npi::TextSpec::TextSpec</title>
<!-- Node1 -->
<g id="Node000001" class="node">
<title>Node1</title>
<g id="a_Node000001"><a xlink:title="Default constructor.">
<polygon fill="#999999" stroke="none" points="362,-62.25 208,-62.25 208,-43 362,-43 362,-62.25"/>
<text xml:space="preserve" text-anchor="start" x="216" y="-48.8" font-family="Consolas" font-weight="bold" font-size="11.00">npi::TextSpec::TextSpec</text>
</a>
</g>
</g>
<!-- Node2 -->
<g id="Node000002" class="node">
<title>Node2</title>
<g id="a_Node000002"><a xlink:href="../../d2/db7/classnpi_1_1_text_spec.html#aaff1726d6ccd6f887a15bf0c5826906c" target="_top" xlink:title="Set absolute point size (overrides default+relative when &gt; 0).">
<polygon fill="white" stroke="none" points="172,-116.88 0,-116.88 0,-86.38 172,-86.38 172,-116.88"/>
<text xml:space="preserve" text-anchor="start" x="8" y="-102.42" font-family="Consolas" font-size="11.00">npi::TextSpec::setAbsolute</text>
<text xml:space="preserve" text-anchor="middle" x="86" y="-91.17" font-family="Consolas" font-size="11.00">Size_</text>
</a>
</g>
</g>
<!-- Node1&#45;&gt;Node2 -->
<g id="edge1_Node000001_Node000002" class="edge">
<title>Node1&#45;&gt;Node2</title>
<g id="a_edge1_Node000001_Node000002"><a xlink:title=" ">
<path fill="none" stroke="#63b8ff" d="M239.57,-63.68C212.6,-70.39 177.78,-79.04 148.23,-86.4"/>
<polygon fill="#63b8ff" stroke="#63b8ff" points="244.37,-62.48 240.06,-65.87 243.12,-62.79 239.51,-63.69 239.51,-63.69 239.51,-63.69 243.12,-62.79 238.97,-61.51 244.37,-62.48"/>
</a>
</g>
</g>
<!-- Node3 -->
<g id="Node000003" class="node">
<title>Node3</title>
<g id="a_Node000003"><a xlink:href="../../d2/db7/classnpi_1_1_text_spec.html#a2475f96c1c94077e473ef6af6310bf1b" target="_top" xlink:title="Set relative point size delta (applied to the default size).">
<polygon fill="white" stroke="none" points="172,-67.88 0,-67.88 0,-37.38 172,-37.38 172,-67.88"/>
<text xml:space="preserve" text-anchor="start" x="8" y="-53.42" font-family="Consolas" font-size="11.00">npi::TextSpec::setRelative</text>
<text xml:space="preserve" text-anchor="middle" x="86" y="-42.17" font-family="Consolas" font-size="11.00">Size_</text>
</a>
</g>
</g>
<!-- Node1&#45;&gt;Node3 -->
<g id="edge2_Node000001_Node000003" class="edge">
<title>Node1&#45;&gt;Node3</title>
<g id="a_edge2_Node000001_Node000003"><a xlink:title=" ">
<path fill="none" stroke="#63b8ff" d="M201.93,-52.62C191.94,-52.62 181.72,-52.62 171.7,-52.62"/>
<polygon fill="#63b8ff" stroke="#63b8ff" points="206.9,-52.63 201.9,-54.88 205.62,-52.63 201.9,-52.63 201.9,-52.63 201.9,-52.63 205.62,-52.63 201.9,-50.38 206.9,-52.63"/>
</a>
</g>
</g>
<!-- Node4 -->
<g id="Node000004" class="node">
<title>Node4</title>
<g id="a_Node000004"><a xlink:href="../../d2/db7/classnpi_1_1_text_spec.html#abc3d153e9b904f006fbe9bca404adf88" target="_top" xlink:title="Set style.">
<polygon fill="white" stroke="none" points="166,-19.25 6,-19.25 6,0 166,0 166,-19.25"/>
<text xml:space="preserve" text-anchor="middle" x="86" y="-4.8" font-family="Consolas" font-size="11.00">npi::TextSpec::setStyle_</text>
</a>
</g>
</g>
<!-- Node1&#45;&gt;Node4 -->
<g id="edge3_Node000001_Node000004" class="edge">
<title>Node1&#45;&gt;Node4</title>
<g id="a_edge3_Node000001_Node000004"><a xlink:title=" ">
<path fill="none" stroke="#63b8ff" d="M234.44,-41.81C202.6,-34.86 161.61,-25.91 130.94,-19.22"/>
<polygon fill="#63b8ff" stroke="#63b8ff" points="239.09,-42.82 233.72,-43.95 237.84,-42.55 234.2,-41.76 234.2,-41.76 234.2,-41.76 237.84,-42.55 234.68,-39.56 239.09,-42.82"/>
</a>
</g>
</g>
</g>
</svg>
</svg>

<style type='text/css'>
<![CDATA[
[data-mouse-over-selected='false'] { opacity: 0.7; }
[data-mouse-over-selected='true']  { opacity: 1.0; }
]]>
</style>
<script type="application/ecmascript"><![CDATA[
document.addEventListener('DOMContentLoaded', (event) => {
  highlightEdges();
  highlightAdjacentNodes();
});
]]></script>
</svg>
