<?xml version="1.0" encoding="UTF-8" standalone="no"?>
<!DOCTYPE svg PUBLIC "-//W3C//DTD SVG 1.1//EN"
 "http://www.w3.org/Graphics/SVG/1.1/DTD/svg11.dtd">
<!-- Generated by graphviz version 14.0.0 (20250921.2048)
 -->
<!-- Title: npi::Font::Style::Style Pages: 1 -->
<svg width="382pt" height="64pt"
 viewBox="0.00 0.00 382.00 64.00" xmlns="http://www.w3.org/2000/svg" xmlns:xlink="http://www.w3.org/1999/xlink">

<svg id="main" version="1.1" xmlns="http://www.w3.org/2000/svg" xmlns:xlink="http://www.w3.org/1999/xlink" xml:space="preserve">

<style type="text/css"><![CDATA[
.node, .edge {opacity: 0.7;}
.node.selected, .edge.selected {opacity: 1;}
.edge:hover path { stroke: red; }
.edge:hover polygon { stroke: red; fill: red; }
]]></style>
<script type="application/ecmascript" xlink:href="../../svg.min.js"/>
<svg id="graph" class="graph">
<g id="graph0" class="graph" transform="scale(1 1) rotate(0) translate(4 60.25)">
<title>npi::Font::Style::Style</title>
<!-- Node1 -->
<g id="Node000001" class="node">
<title>Node1</title>
<g id="a_Node000001"><a xlink:title="Default constructor.">
<polygon fill="#999999" stroke="none" points="374,-37.25 220,-37.25 220,-18 374,-18 374,-37.25"/>
<text xml:space="preserve" text-anchor="start" x="228" y="-23.8" font-family="Consolas" font-weight="bold" font-size="11.00">npi::Font::Style::Style</text>
</a>
</g>
</g>
<!-- Node2 -->
<g id="Node000002" class="node">
<title>Node2</title>
<g id="a_Node000002"><a xlink:href="../../df/dc2/structnpi_1_1_font_1_1_style.html#aa9adc7a4606859e089899fce89470345" target="_top" xlink:title="Inequality operator.">
<polygon fill="white" stroke="none" points="184,-56.25 0,-56.25 0,-37 184,-37 184,-56.25"/>
<text xml:space="preserve" text-anchor="middle" x="92" y="-41.8" font-family="Consolas" font-size="11.00">npi::Font::Style::operator!=</text>
</a>
</g>
</g>
<!-- Node1&#45;&gt;Node2 -->
<g id="edge1_Node000001_Node000002" class="edge">
<title>Node1&#45;&gt;Node2</title>
<g id="a_edge1_Node000001_Node000002"><a xlink:title=" ">
<path fill="none" stroke="#63b8ff" d="M213.98,-35.3C204.07,-36.23 193.89,-37.18 183.86,-38.12"/>
<polygon fill="#63b8ff" stroke="#63b8ff" points="218.91,-34.84 214.14,-37.55 217.63,-34.96 213.93,-35.31 213.93,-35.31 213.93,-35.31 217.63,-34.96 213.72,-33.07 218.91,-34.84"/>
</a>
</g>
</g>
<!-- Node3 -->
<g id="Node000003" class="node">
<title>Node3</title>
<g id="a_Node000003"><a xlink:href="../../df/dc2/structnpi_1_1_font_1_1_style.html#aa50a7ccfaa1b8af78317c403b795c982" target="_top" xlink:title="Equality operator.">
<polygon fill="white" stroke="none" points="184,-19.25 0,-19.25 0,0 184,0 184,-19.25"/>
<text xml:space="preserve" text-anchor="middle" x="92" y="-4.8" font-family="Consolas" font-size="11.00">npi::Font::Style::operator==</text>
</a>
</g>
</g>
<!-- Node1&#45;&gt;Node3 -->
<g id="edge2_Node000001_Node000003" class="edge">
<title>Node1&#45;&gt;Node3</title>
<g id="a_edge2_Node000001_Node000003"><a xlink:title=" ">
<path fill="none" stroke="#63b8ff" d="M213.98,-20.35C204.07,-19.47 193.89,-18.57 183.86,-17.68"/>
<polygon fill="#63b8ff" stroke="#63b8ff" points="218.91,-20.79 213.73,-22.59 217.63,-20.68 213.93,-20.35 213.93,-20.35 213.93,-20.35 217.63,-20.68 214.13,-18.11 218.91,-20.79"/>
</a>
</g>
</g>
</g>
</svg>
</svg>

<style type='text/css'>
<![CDATA[
[data-mouse-over-selected='false'] { opacity: 0.7; }
[data-mouse-over-selected='true']  { opacity: 1.0; }
]]>
</style>
<script type="application/ecmascript"><![CDATA[
document.addEventListener('DOMContentLoaded', (event) => {
  highlightEdges();
  highlightAdjacentNodes();
});
]]></script>
</svg>
