<?xml version="1.0" encoding="UTF-8" standalone="no"?>
<!DOCTYPE svg PUBLIC "-//W3C//DTD SVG 1.1//EN"
 "http://www.w3.org/Graphics/SVG/1.1/DTD/svg11.dtd">
<!-- Generated by graphviz version 14.0.0 (20250921.2048)
 -->
<!-- Title: Thread Pages: 1 -->
<svg width="282pt" height="99pt"
 viewBox="0.00 0.00 282.00 99.00" xmlns="http://www.w3.org/2000/svg" xmlns:xlink="http://www.w3.org/1999/xlink">

<svg id="main" version="1.1" xmlns="http://www.w3.org/2000/svg" xmlns:xlink="http://www.w3.org/1999/xlink" xml:space="preserve">

<style type="text/css"><![CDATA[
.node, .edge {opacity: 0.7;}
.node.selected, .edge.selected {opacity: 1;}
.edge:hover path { stroke: red; }
.edge:hover polygon { stroke: red; fill: red; }
]]></style>
<script type="application/ecmascript" xlink:href="../../svg.min.js"/>
<svg id="graph" class="graph">
<g id="graph0" class="graph" transform="scale(1 1) rotate(0) translate(4 95)">
<title>Thread</title>
<!-- Node1 -->
<g id="Node000001" class="node">
<title>Node1</title>
<g id="a_Node000001"><a xlink:title=" ">
<polygon fill="#999999" stroke="none" points="176,-19.25 124,-19.25 124,0 176,0 176,-19.25"/>
<text xml:space="preserve" text-anchor="start" x="132" y="-5.8" font-family="Consolas" font-weight="bold" font-size="11.00">Thread</text>
</a>
</g>
</g>
<!-- Node2 -->
<g id="Node000002" class="node">
<title>Node2</title>
<g id="a_Node000002"><a xlink:title=" ">
<polygon fill="white" stroke="none" points="58,-91 0,-91 0,-71.75 58,-71.75 58,-91"/>
<text xml:space="preserve" text-anchor="middle" x="29" y="-76.55" font-family="Consolas" font-size="11.00">QObject</text>
</a>
</g>
</g>
<!-- Node2&#45;&gt;Node1 -->
<g id="edge1_Node000001_Node000002" class="edge">
<title>Node2&#45;&gt;Node1</title>
<g id="a_edge1_Node000001_Node000002"><a xlink:title=" ">
<path fill="none" stroke="#63b8ff" d="M49.04,-68.82C73.24,-54.87 113.38,-31.73 135.04,-19.25"/>
<polygon fill="#63b8ff" stroke="#63b8ff" points="44.89,-71.21 48.1,-66.77 46,-70.57 49.22,-68.72 49.22,-68.72 49.22,-68.72 46,-70.57 50.35,-70.67 44.89,-71.21"/>
</a>
</g>
</g>
<!-- Node3 -->
<g id="Node000003" class="node">
<title>Node3</title>
<g id="a_Node000003"><a xlink:title=" ">
<polygon fill="white" stroke="none" points="152,-91 76,-91 76,-71.75 152,-71.75 152,-91"/>
<text xml:space="preserve" text-anchor="middle" x="114" y="-76.55" font-family="Consolas" font-size="11.00">atomic_int</text>
</a>
</g>
</g>
<!-- Node3&#45;&gt;Node1 -->
<g id="edge2_Node000001_Node000003" class="edge">
<title>Node3&#45;&gt;Node1</title>
<g id="a_edge2_Node000001_Node000003"><a xlink:title=" ">
<path fill="none" stroke="#9a32cd" stroke-dasharray="5,2" d="M112.19,-65.74C111.78,-57 112.46,-45.95 117,-37.25 120.88,-29.81 127.85,-23.72 134.39,-19.24"/>
<polygon fill="#9a32cd" stroke="#9a32cd" points="112.58,-70.68 109.95,-65.88 112.48,-69.41 112.19,-65.7 112.19,-65.7 112.19,-65.7 112.48,-69.41 114.43,-65.52 112.58,-70.68"/>
</a>
</g>
<text xml:space="preserve" text-anchor="start" x="120" y="-41.25" font-family="Consolas" font-size="10.00" fill="grey">counter_</text>
</g>
<!-- Node4 -->
<g id="Node000004" class="node">
<title>Node4</title>
<g id="a_Node000004"><a xlink:title=" ">
<polygon fill="white" stroke="none" points="204,-91 170,-91 170,-71.75 204,-71.75 204,-91"/>
<text xml:space="preserve" text-anchor="middle" x="187" y="-76.55" font-family="Consolas" font-size="11.00">int</text>
</a>
</g>
</g>
<!-- Node4&#45;&gt;Node1 -->
<g id="edge3_Node000001_Node000004" class="edge">
<title>Node4&#45;&gt;Node1</title>
<g id="a_edge3_Node000001_Node000004"><a xlink:title=" ">
<path fill="none" stroke="#9a32cd" stroke-dasharray="5,2" d="M180.17,-66.63C175.9,-58.12 170.23,-47 165,-37.25 161.69,-31.08 157.8,-24.19 154.82,-18.97"/>
<polygon fill="#9a32cd" stroke="#9a32cd" points="182.34,-70.97 178.09,-67.5 181.76,-69.82 180.1,-66.49 180.1,-66.49 180.1,-66.49 181.76,-69.82 182.11,-65.49 182.34,-70.97"/>
</a>
</g>
<text xml:space="preserve" text-anchor="start" x="176.03" y="-41.25" font-family="Consolas" font-size="10.00" fill="grey">id</text>
</g>
<!-- Node5 -->
<g id="Node000005" class="node">
<title>Node5</title>
<g id="a_Node000005"><a xlink:title=" ">
<polygon fill="white" stroke="none" points="274,-91 222,-91 222,-71.75 274,-71.75 274,-91"/>
<text xml:space="preserve" text-anchor="middle" x="248" y="-76.55" font-family="Consolas" font-size="11.00">QTimer</text>
</a>
</g>
</g>
<!-- Node5&#45;&gt;Node1 -->
<g id="edge4_Node000001_Node000005" class="edge">
<title>Node5&#45;&gt;Node1</title>
<g id="a_edge4_Node000001_Node000005"><a xlink:title=" ">
<path fill="none" stroke="#9a32cd" stroke-dasharray="5,2" d="M233.77,-68.18C223.11,-59.24 208,-47.01 194,-37.25 184.63,-30.71 173.63,-24.06 164.97,-19.03"/>
<polygon fill="#9a32cd" stroke="#9a32cd" points="237.41,-71.24 232.14,-69.74 236.43,-70.42 233.59,-68.02 233.59,-68.02 233.59,-68.02 236.43,-70.42 235.04,-66.3 237.41,-71.24"/>
</a>
</g>
<text xml:space="preserve" text-anchor="start" x="218.3" y="-41.25" font-family="Consolas" font-size="10.00" fill="grey">timer_</text>
</g>
</g>
</svg>
</svg>

<style type='text/css'>
<![CDATA[
[data-mouse-over-selected='false'] { opacity: 0.7; }
[data-mouse-over-selected='true']  { opacity: 1.0; }
]]>
</style>
<script type="application/ecmascript"><![CDATA[
document.addEventListener('DOMContentLoaded', (event) => {
  highlightEdges();
  highlightAdjacentNodes();
});
]]></script>
</svg>
