<?xml version="1.0" encoding="UTF-8" standalone="no"?>
<!DOCTYPE svg PUBLIC "-//W3C//DTD SVG 1.1//EN"
 "http://www.w3.org/Graphics/SVG/1.1/DTD/svg11.dtd">
<!-- Generated by graphviz version 14.0.0 (20250921.2048)
 -->
<!-- Title: MetaPaths.cpp Pages: 1 -->
<!--zoomable 83 -->

<svg id="main" version="1.1" xmlns="http://www.w3.org/2000/svg" xmlns:xlink="http://www.w3.org/1999/xlink" xml:space="preserve" onload="init(evt)">

<style type="text/css"><![CDATA[
.node, .edge {opacity: 0.7;}
.node.selected, .edge.selected {opacity: 1;}
.edge:hover path { stroke: red; }
.edge:hover polygon { stroke: red; fill: red; }
]]></style>

<defs>
  <circle id="rim" cx="0" cy="0" r="7"/>
  <circle id="rim2" cx="0" cy="0" r="3.5"/>
  <g id="zoomPlus">
    <use xlink:href="#rim" fill="#404040"><set attributeName="fill" to="#808080" begin="zoomplus.mouseover" end="zoomplus.mouseout"/></use>
    <path d="M-4,0h8M0,-4v8" fill="none" stroke="white" stroke-width="1.5" pointer-events="none"/>
  </g>
  <g id="zoomMin">
    <use xlink:href="#rim" fill="#404040"><set attributeName="fill" to="#808080" begin="zoomminus.mouseover" end="zoomminus.mouseout"/></use>
    <path d="M-4,0h8" fill="none" stroke="white" stroke-width="1.5" pointer-events="none"/>
  </g>
  <g id="arrowUp" transform="translate(30 24)">
    <use xlink:href="#rim"/>
    <path pointer-events="none" fill="none" stroke="white" stroke-width="1.5" d="M0,-3.0v7 M-2.5,-0.5L0,-3.0L2.5,-0.5"/>
  </g>
  <g id="arrowRight" transform="rotate(90) translate(36 -43)">
    <use xlink:href="#rim"/>
    <path pointer-events="none" fill="none" stroke="white" stroke-width="1.5" d="M0,-3.0v7 M-2.5,-0.5L0,-3.0L2.5,-0.5"/>
  </g>
  <g id="arrowDown" transform="rotate(180) translate(-30 -48)">
    <use xlink:href="#rim"/>
    <path pointer-events="none" fill="none" stroke="white" stroke-width="1.5" d="M0,-3.0v7 M-2.5,-0.5L0,-3.0L2.5,-0.5"/>
  </g>
  <g id="arrowLeft" transform="rotate(270) translate(-36 17)">
    <use xlink:href="#rim"/>
    <path pointer-events="none" fill="none" stroke="white" stroke-width="1.5" d="M0,-3.0v7 M-2.5,-0.5L0,-3.0L2.5,-0.5"/>
  </g>
  <g id="resetDef">
    <use xlink:href="#rim2" fill="#404040"><set attributeName="fill" to="#808080" begin="reset.mouseover" end="reset.mouseout"/></use>
  </g>
</defs>
<script type="application/ecmascript">
var viewWidth = 1582;
var viewHeight = 83;
var sectionId = 'dynsection-0';
</script>
<script type="application/ecmascript" xlink:href="../../svg.min.js"/>
<svg id="graph" class="graph">
<g id="viewport">
<title>MetaPaths.cpp</title>
<!-- Node1 -->
<g id="Node000001" class="node">
<title>Node1</title>
<g id="a_Node000001"><a xlink:title=" ">
<polygon fill="#999999" stroke="none" points="639,-74.5 545,-74.5 545,-55.25 639,-55.25 639,-74.5"/>
<text xml:space="preserve" text-anchor="start" x="553" y="-61.05" font-family="Consolas" font-weight="bold" font-size="11.00">MetaPaths.cpp</text>
</a>
</g>
</g>
<!-- Node2 -->
<g id="Node000002" class="node">
<title>Node2</title>
<g id="a_Node000002"><a xlink:title=" ">
<polygon fill="#e0e0e0" stroke="none" points="70,-19.25 0,-19.25 0,0 70,0 70,-19.25"/>
<text xml:space="preserve" text-anchor="middle" x="35" y="-4.8" font-family="Consolas" font-size="11.00">windows.h</text>
</a>
</g>
</g>
<!-- Node1&#45;&gt;Node2 -->
<g id="edge1_Node000001_Node000002" class="edge">
<title>Node1&#45;&gt;Node2</title>
<g id="a_edge1_Node000001_Node000002"><a xlink:title=" ">
<path fill="none" stroke="#63b8ff" d="M545.13,-61.48C454.67,-56.48 249.85,-43.36 79,-19.25 77.84,-19.09 76.67,-18.91 75.49,-18.73"/>
<polygon fill="#63b8ff" stroke="#63b8ff" points="70.73,-17.95 76.03,-16.54 72,-18.16 75.66,-18.76 75.66,-18.76 75.66,-18.76 72,-18.16 75.3,-20.98 70.73,-17.95"/>
</a>
</g>
</g>
<!-- Node3 -->
<g id="Node000003" class="node">
<title>Node3</title>
<g id="a_Node000003"><a xlink:title=" ">
<polygon fill="#e0e0e0" stroke="none" points="176,-19.25 88,-19.25 88,0 176,0 176,-19.25"/>
<text xml:space="preserve" text-anchor="middle" x="132" y="-4.8" font-family="Consolas" font-size="11.00">combaseapi.h</text>
</a>
</g>
</g>
<!-- Node1&#45;&gt;Node3 -->
<g id="edge2_Node000001_Node000003" class="edge">
<title>Node1&#45;&gt;Node3</title>
<g id="a_edge2_Node000001_Node000003"><a xlink:title=" ">
<path fill="none" stroke="#63b8ff" d="M545.21,-59.54C469.41,-52.35 315.13,-36.96 185,-19.25 183.98,-19.11 182.96,-18.97 181.92,-18.82"/>
<polygon fill="#63b8ff" stroke="#63b8ff" points="177.14,-18.13 182.41,-16.62 178.41,-18.31 182.09,-18.85 182.09,-18.85 182.09,-18.85 178.41,-18.31 181.76,-21.07 177.14,-18.13"/>
</a>
</g>
</g>
<!-- Node4 -->
<g id="Node000004" class="node">
<title>Node4</title>
<g id="a_Node000004"><a xlink:title=" ">
<polygon fill="#e0e0e0" stroke="none" points="258,-19.25 194,-19.25 194,0 258,0 258,-19.25"/>
<text xml:space="preserve" text-anchor="middle" x="226" y="-4.8" font-family="Consolas" font-size="11.00">shlobj.h</text>
</a>
</g>
</g>
<!-- Node1&#45;&gt;Node4 -->
<g id="edge3_Node000001_Node000004" class="edge">
<title>Node1&#45;&gt;Node4</title>
<g id="a_edge3_Node000001_Node000004"><a xlink:title=" ">
<path fill="none" stroke="#63b8ff" d="M545.02,-58.48C481.68,-50.98 365.48,-36.35 267,-19.25 265.87,-19.05 264.73,-18.85 263.57,-18.64"/>
<polygon fill="#63b8ff" stroke="#63b8ff" points="258.94,-17.76 264.27,-16.48 260.2,-18 263.85,-18.69 263.85,-18.69 263.85,-18.69 260.2,-18 263.43,-20.9 258.94,-17.76"/>
</a>
</g>
</g>
<!-- Node5 -->
<g id="Node000005" class="node">
<title>Node5</title>
<g id="a_Node000005"><a xlink:title=" ">
<polygon fill="#e0e0e0" stroke="none" points="376,-19.25 276,-19.25 276,0 376,0 376,-19.25"/>
<text xml:space="preserve" text-anchor="middle" x="326" y="-4.8" font-family="Consolas" font-size="11.00">knownfolders.h</text>
</a>
</g>
</g>
<!-- Node1&#45;&gt;Node5 -->
<g id="edge4_Node000001_Node000005" class="edge">
<title>Node1&#45;&gt;Node5</title>
<g id="a_edge4_Node000001_Node000005"><a xlink:title=" ">
<path fill="none" stroke="#63b8ff" d="M548.97,-55.26C501.35,-45.73 424.77,-30.4 374.92,-20.42"/>
<polygon fill="#63b8ff" stroke="#63b8ff" points="370.17,-19.47 375.51,-18.24 371.42,-19.72 375.07,-20.45 375.07,-20.45 375.07,-20.45 371.42,-19.72 374.63,-22.65 370.17,-19.47"/>
</a>
</g>
</g>
<!-- Node6 -->
<g id="Node000006" class="node">
<title>Node6</title>
<g id="a_Node000006"><a xlink:title=" ">
<polygon fill="#e0e0e0" stroke="none" points="434,-19.25 394,-19.25 394,0 434,0 434,-19.25"/>
<text xml:space="preserve" text-anchor="middle" x="414" y="-4.8" font-family="Consolas" font-size="11.00">QDir</text>
</a>
</g>
</g>
<!-- Node1&#45;&gt;Node6 -->
<g id="edge5_Node000001_Node000006" class="edge">
<title>Node1&#45;&gt;Node6</title>
<g id="a_edge5_Node000001_Node000006"><a xlink:title=" ">
<path fill="none" stroke="#63b8ff" d="M563.4,-55.32C529.26,-45.11 472.67,-28.18 439.82,-18.35"/>
<polygon fill="#63b8ff" stroke="#63b8ff" points="435.13,-16.95 440.57,-16.22 436.36,-17.31 439.92,-18.38 439.92,-18.38 439.92,-18.38 436.36,-17.31 439.28,-20.54 435.13,-16.95"/>
</a>
</g>
</g>
<!-- Node7 -->
<g id="Node000007" class="node">
<title>Node7</title>
<g id="a_Node000007"><a xlink:title=" ">
<polygon fill="#e0e0e0" stroke="none" points="504,-19.25 452,-19.25 452,0 504,0 504,-19.25"/>
<text xml:space="preserve" text-anchor="middle" x="478" y="-4.8" font-family="Consolas" font-size="11.00">QTimer</text>
</a>
</g>
</g>
<!-- Node1&#45;&gt;Node7 -->
<g id="edge6_Node000001_Node000007" class="edge">
<title>Node1&#45;&gt;Node7</title>
<g id="a_edge6_Node000001_Node000007"><a xlink:title=" ">
<path fill="none" stroke="#63b8ff" d="M573.68,-55.32C554.16,-46.2 523.16,-31.72 501.76,-21.72"/>
<polygon fill="#63b8ff" stroke="#63b8ff" points="497.37,-19.67 502.86,-19.75 498.54,-20.22 501.9,-21.79 501.9,-21.79 501.9,-21.79 498.54,-20.22 500.95,-23.83 497.37,-19.67"/>
</a>
</g>
</g>
<!-- Node8 -->
<g id="Node000008" class="node">
<title>Node8</title>
<g id="a_Node000008"><a xlink:title=" ">
<polygon fill="#e0e0e0" stroke="none" points="580,-19.25 522,-19.25 522,0 580,0 580,-19.25"/>
<text xml:space="preserve" text-anchor="middle" x="551" y="-4.8" font-family="Consolas" font-size="11.00">QString</text>
</a>
</g>
</g>
<!-- Node1&#45;&gt;Node8 -->
<g id="edge7_Node000001_Node000008" class="edge">
<title>Node1&#45;&gt;Node8</title>
<g id="a_edge7_Node000001_Node000008"><a xlink:title=" ">
<path fill="none" stroke="#63b8ff" d="M585.59,-55.55C579.07,-47.09 568.86,-33.83 561.22,-23.9"/>
<polygon fill="#63b8ff" stroke="#63b8ff" points="558.24,-20.03 563.07,-22.62 559.02,-21.04 561.29,-23.99 561.29,-23.99 561.29,-23.99 559.02,-21.04 559.51,-25.36 558.24,-20.03"/>
</a>
</g>
</g>
<!-- Node9 -->
<g id="Node000009" class="node">
<title>Node9</title>
<g id="a_Node000009"><a xlink:title=" ">
<polygon fill="#e0e0e0" stroke="none" points="668,-19.25 598,-19.25 598,0 668,0 668,-19.25"/>
<text xml:space="preserve" text-anchor="middle" x="633" y="-4.8" font-family="Consolas" font-size="11.00">QFileInfo</text>
</a>
</g>
</g>
<!-- Node1&#45;&gt;Node9 -->
<g id="edge8_Node000001_Node000009" class="edge">
<title>Node1&#45;&gt;Node9</title>
<g id="a_edge8_Node000001_Node000009"><a xlink:title=" ">
<path fill="none" stroke="#63b8ff" d="M598.41,-55.55C604.93,-47.09 615.14,-33.83 622.78,-23.9"/>
<polygon fill="#63b8ff" stroke="#63b8ff" points="625.76,-20.03 624.49,-25.36 624.98,-21.04 622.71,-23.99 622.71,-23.99 622.71,-23.99 624.98,-21.04 620.93,-22.62 625.76,-20.03"/>
</a>
</g>
</g>
<!-- Node10 -->
<g id="Node000010" class="node">
<title>Node10</title>
<g id="a_Node000010"><a xlink:title=" ">
<polygon fill="#e0e0e0" stroke="none" points="798,-19.25 686,-19.25 686,0 798,0 798,-19.25"/>
<text xml:space="preserve" text-anchor="middle" x="742" y="-4.8" font-family="Consolas" font-size="11.00">QCoreApplication</text>
</a>
</g>
</g>
<!-- Node1&#45;&gt;Node10 -->
<g id="edge9_Node000001_Node000010" class="edge">
<title>Node1&#45;&gt;Node10</title>
<g id="a_edge9_Node000001_Node000010"><a xlink:title=" ">
<path fill="none" stroke="#63b8ff" d="M616.1,-55.32C642.23,-46.04 683.98,-31.22 712.16,-21.22"/>
<polygon fill="#63b8ff" stroke="#63b8ff" points="716.81,-19.57 712.85,-23.36 715.6,-20 712.1,-21.24 712.1,-21.24 712.1,-21.24 715.6,-20 711.35,-19.12 716.81,-19.57"/>
</a>
</g>
</g>
<!-- Node11 -->
<g id="Node000011" class="node">
<title>Node11</title>
<g id="a_Node000011"><a xlink:title=" ">
<polygon fill="#e0e0e0" stroke="none" points="964,-19.25 816,-19.25 816,0 964,0 964,-19.25"/>
<text xml:space="preserve" text-anchor="middle" x="890" y="-4.8" font-family="Consolas" font-size="11.00">QtEnvironmentVariables</text>
</a>
</g>
</g>
<!-- Node1&#45;&gt;Node11 -->
<g id="edge10_Node000001_Node000011" class="edge">
<title>Node1&#45;&gt;Node11</title>
<g id="a_edge10_Node000001_Node000011"><a xlink:title=" ">
<path fill="none" stroke="#63b8ff" d="M638.89,-55.5C692.34,-45.94 779.58,-30.36 835.88,-20.3"/>
<polygon fill="#63b8ff" stroke="#63b8ff" points="840.7,-19.43 836.18,-22.53 839.44,-19.66 835.78,-20.31 835.78,-20.31 835.78,-20.31 839.44,-19.66 835.39,-18.1 840.7,-19.43"/>
</a>
</g>
</g>
<!-- Node12 -->
<g id="Node000012" class="node">
<title>Node12</title>
<g id="a_Node000012"><a xlink:title=" ">
<polygon fill="#e0e0e0" stroke="none" points="1112,-19.25 982,-19.25 982,0 1112,0 1112,-19.25"/>
<text xml:space="preserve" text-anchor="middle" x="1047" y="-4.8" font-family="Consolas" font-size="11.00">npi/OrgMetaData.hpp</text>
</a>
</g>
</g>
<!-- Node1&#45;&gt;Node12 -->
<g id="edge11_Node000001_Node000012" class="edge">
<title>Node1&#45;&gt;Node12</title>
<g id="a_edge11_Node000001_Node000012"><a xlink:title=" ">
<path fill="none" stroke="#63b8ff" d="M638.98,-58.38C718.96,-49.02 882.03,-29.93 975.99,-18.94"/>
<polygon fill="#63b8ff" stroke="#63b8ff" points="980.87,-18.36 976.17,-21.18 979.6,-18.51 975.91,-18.95 975.91,-18.95 975.91,-18.95 979.6,-18.51 975.64,-16.71 980.87,-18.36"/>
</a>
</g>
</g>
<!-- Node13 -->
<g id="Node000013" class="node">
<title>Node13</title>
<g id="a_Node000013"><a xlink:title=" ">
<polygon fill="#e0e0e0" stroke="none" points="1260,-19.25 1130,-19.25 1130,0 1260,0 1260,-19.25"/>
<text xml:space="preserve" text-anchor="middle" x="1195" y="-4.8" font-family="Consolas" font-size="11.00">npi/AppMetaData.hpp</text>
</a>
</g>
</g>
<!-- Node1&#45;&gt;Node13 -->
<g id="edge12_Node000001_Node000013" class="edge">
<title>Node1&#45;&gt;Node13</title>
<g id="a_edge12_Node000001_Node000013"><a xlink:title=" ">
<path fill="none" stroke="#63b8ff" d="M638.75,-60.43C731.03,-53.53 943.09,-37.12 1121,-19.25 1122.02,-19.15 1123.04,-19.04 1124.07,-18.94"/>
<polygon fill="#63b8ff" stroke="#63b8ff" points="1128.83,-18.44 1124.09,-21.2 1127.55,-18.57 1123.86,-18.96 1123.86,-18.96 1123.86,-18.96 1127.55,-18.57 1123.62,-16.72 1128.83,-18.44"/>
</a>
</g>
</g>
<!-- Node14 -->
<g id="Node000014" class="node">
<title>Node14</title>
<g id="a_Node000014"><a xlink:title=" ">
<polygon fill="#e0e0e0" stroke="none" points="1450,-19.25 1278,-19.25 1278,0 1450,0 1450,-19.25"/>
<text xml:space="preserve" text-anchor="middle" x="1364" y="-4.8" font-family="Consolas" font-size="11.00">npi/NativeFatalMessage.hpp</text>
</a>
</g>
</g>
<!-- Node1&#45;&gt;Node14 -->
<g id="edge13_Node000001_Node000014" class="edge">
<title>Node1&#45;&gt;Node14</title>
<g id="a_edge13_Node000001_Node000014"><a xlink:title=" ">
<path fill="none" stroke="#63b8ff" d="M638.81,-61.19C748.82,-54.79 1032.38,-37.79 1269,-19.25 1270.02,-19.17 1271.05,-19.09 1272.08,-19.01"/>
<polygon fill="#63b8ff" stroke="#63b8ff" points="1276.83,-18.62 1272.03,-21.27 1275.56,-18.73 1271.85,-19.03 1271.85,-19.03 1271.85,-19.03 1275.56,-18.73 1271.67,-16.78 1276.83,-18.62"/>
</a>
</g>
</g>
<!-- Node15 -->
<g id="Node000015" class="node">
<title>Node15</title>
<g id="a_Node000015"><a xlink:title=" ">
<polygon fill="#e0e0e0" stroke="none" points="1574,-19.25 1468,-19.25 1468,0 1574,0 1574,-19.25"/>
<text xml:space="preserve" text-anchor="middle" x="1521" y="-4.8" font-family="Consolas" font-size="11.00">npi/MetaPaths.h</text>
</a>
</g>
</g>
<!-- Node1&#45;&gt;Node15 -->
<g id="edge14_Node000001_Node000015" class="edge">
<title>Node1&#45;&gt;Node15</title>
<g id="a_edge14_Node000001_Node000015"><a xlink:title=" ">
<path fill="none" stroke="#63b8ff" d="M638.63,-62.9C768.7,-59.87 1146.54,-48.97 1459,-19.25 1460.04,-19.15 1461.09,-19.05 1462.15,-18.94"/>
<polygon fill="#63b8ff" stroke="#63b8ff" points="1467.06,-18.41 1462.33,-21.18 1465.79,-18.55 1462.09,-18.95 1462.09,-18.95 1462.09,-18.95 1465.79,-18.55 1461.85,-16.71 1467.06,-18.41"/>
</a>
</g>
</g>
</g>
</svg>

<g id="navigator" transform="translate(0 0)" fill="#404254">
  <rect fill="#f2f5e9" fill-opacity="0.5" stroke="#606060" stroke-width=".5" x="0" y="0" width="60" height="60"/>
  <use id="zoomplus" xlink:href="#zoomPlus" x="17" y="9" onmousedown="handleZoom(evt,'in')"/>
  <use id="zoomminus" xlink:href="#zoomMin" x="42" y="9" onmousedown="handleZoom(evt,'out')"/>
  <use id="reset" xlink:href="#resetDef" x="30" y="36" onmousedown="handleReset()"/>
   <use id="arrowup" xlink:href="#arrowUp" x="0" y="0" onmousedown="handlePan(0,-1)"/>
  <use id="arrowright" xlink:href="#arrowRight" x="0" y="0" onmousedown="handlePan(1,0)"/>
  <use id="arrowdown" xlink:href="#arrowDown" x="0" y="0" onmousedown="handlePan(0,1)"/>
  <use id="arrowleft" xlink:href="#arrowLeft" x="0" y="0" onmousedown="handlePan(-1,0)"/>
</g>
<svg viewBox="0 0 15 15" width="100%" height="30px" preserveAspectRatio="xMaxYMin meet">
 <g id="arrow_out" transform="scale(0.3 0.3)">
  <a xlink:href="_meta_paths_8cpp__incl_org.svg" target="_base">
   <rect id="button" ry="5" rx="5" y="6" x="6" height="38" width="38"
        fill="#f2f5e9" fill-opacity="0.5" stroke="#606060" stroke-width="1.0"/>
   <path id="arrow"
     d="M 11.500037,31.436501 C 11.940474,20.09759 22.043105,11.32322 32.158766,21.979434 L 37.068811,17.246167 C 37.068811,17.246167 37.088388,32 37.088388,32 L 22.160133,31.978069 C 22.160133,31.978069 26.997745,27.140456 26.997745,27.140456 C 18.528582,18.264221 13.291696,25.230495 11.500037,31.436501 z"
     style="fill:#404040;"/>
  </a>
 </g>
</svg>

<style type='text/css'>
<![CDATA[
[data-mouse-over-selected='false'] { opacity: 0.7; }
[data-mouse-over-selected='true']  { opacity: 1.0; }
]]>
</style>
<script type="application/ecmascript"><![CDATA[
document.addEventListener('DOMContentLoaded', (event) => {
  highlightEdges();
  highlightAdjacentNodes();
});
]]></script>
</svg>
