<?xml version="1.0" encoding="UTF-8" standalone="no"?>
<!DOCTYPE svg PUBLIC "-//W3C//DTD SVG 1.1//EN"
 "http://www.w3.org/Graphics/SVG/1.1/DTD/svg11.dtd">
<!-- Generated by graphviz version 14.0.0 (20250921.2048)
 -->
<!-- Title: MetaPaths.cpp Pages: 1 -->
<svg width="1388pt" height="83pt"
 viewBox="0.00 0.00 1388.00 83.00" xmlns="http://www.w3.org/2000/svg" xmlns:xlink="http://www.w3.org/1999/xlink">
<g id="graph0" class="graph" transform="scale(1 1) rotate(0) translate(4 78.5)">
<title>MetaPaths.cpp</title>
<!-- Node1 -->
<g id="Node000001" class="node">
<title>Node1</title>
<g id="a_Node000001"><a xlink:title=" ">
<polygon fill="#999999" stroke="none" points="573,-74.5 479,-74.5 479,-55.25 573,-55.25 573,-74.5"/>
<text xml:space="preserve" text-anchor="start" x="487" y="-61.05" font-family="Consolas" font-weight="bold" font-size="11.00">MetaPaths.cpp</text>
</a>
</g>
</g>
<!-- Node2 -->
<g id="Node000002" class="node">
<title>Node2</title>
<g id="a_Node000002"><a xlink:title=" ">
<polygon fill="#e0e0e0" stroke="none" points="70,-19.25 0,-19.25 0,0 70,0 70,-19.25"/>
<text xml:space="preserve" text-anchor="middle" x="35" y="-4.8" font-family="Consolas" font-size="11.00">windows.h</text>
</a>
</g>
</g>
<!-- Node1&#45;&gt;Node2 -->
<g id="edge1_Node000001_Node000002" class="edge">
<title>Node1&#45;&gt;Node2</title>
<g id="a_edge1_Node000001_Node000002"><a xlink:title=" ">
<path fill="none" stroke="#63b8ff" d="M479.17,-60.66C397.59,-54.73 224.24,-40.69 79,-19.25 77.84,-19.08 76.67,-18.9 75.49,-18.71"/>
<polygon fill="#63b8ff" stroke="#63b8ff" points="70.74,-17.91 76.04,-16.52 72,-18.13 75.67,-18.74 75.67,-18.74 75.67,-18.74 72,-18.13 75.3,-20.96 70.74,-17.91"/>
</a>
</g>
</g>
<!-- Node3 -->
<g id="Node000003" class="node">
<title>Node3</title>
<g id="a_Node000003"><a xlink:title=" ">
<polygon fill="#e0e0e0" stroke="none" points="176,-19.25 88,-19.25 88,0 176,0 176,-19.25"/>
<text xml:space="preserve" text-anchor="middle" x="132" y="-4.8" font-family="Consolas" font-size="11.00">combaseapi.h</text>
</a>
</g>
</g>
<!-- Node1&#45;&gt;Node3 -->
<g id="edge2_Node000001_Node000003" class="edge">
<title>Node1&#45;&gt;Node3</title>
<g id="a_edge2_Node000001_Node000003"><a xlink:title=" ">
<path fill="none" stroke="#63b8ff" d="M479.05,-58.2C413.24,-50.14 289.86,-34.64 185,-19.25 183.99,-19.1 182.96,-18.95 181.93,-18.79"/>
<polygon fill="#63b8ff" stroke="#63b8ff" points="177.15,-18.07 182.43,-16.6 178.41,-18.26 182.09,-18.82 182.09,-18.82 182.09,-18.82 178.41,-18.26 181.75,-21.04 177.15,-18.07"/>
</a>
</g>
</g>
<!-- Node4 -->
<g id="Node000004" class="node">
<title>Node4</title>
<g id="a_Node000004"><a xlink:title=" ">
<polygon fill="#e0e0e0" stroke="none" points="258,-19.25 194,-19.25 194,0 258,0 258,-19.25"/>
<text xml:space="preserve" text-anchor="middle" x="226" y="-4.8" font-family="Consolas" font-size="11.00">shlobj.h</text>
</a>
</g>
</g>
<!-- Node1&#45;&gt;Node4 -->
<g id="edge3_Node000001_Node000004" class="edge">
<title>Node1&#45;&gt;Node4</title>
<g id="a_edge3_Node000001_Node000004"><a xlink:title=" ">
<path fill="none" stroke="#63b8ff" d="M479.12,-56.33C427.16,-47.84 340.95,-33.39 267,-19.25 265.87,-19.03 264.73,-18.81 263.58,-18.59"/>
<polygon fill="#63b8ff" stroke="#63b8ff" points="258.96,-17.66 264.3,-16.44 260.21,-17.92 263.86,-18.64 263.86,-18.64 263.86,-18.64 260.21,-17.92 263.42,-20.85 258.96,-17.66"/>
</a>
</g>
</g>
<!-- Node5 -->
<g id="Node000005" class="node">
<title>Node5</title>
<g id="a_Node000005"><a xlink:title=" ">
<polygon fill="#e0e0e0" stroke="none" points="376,-19.25 276,-19.25 276,0 376,0 376,-19.25"/>
<text xml:space="preserve" text-anchor="middle" x="326" y="-4.8" font-family="Consolas" font-size="11.00">knownfolders.h</text>
</a>
</g>
</g>
<!-- Node1&#45;&gt;Node5 -->
<g id="edge4_Node000001_Node000005" class="edge">
<title>Node1&#45;&gt;Node5</title>
<g id="a_edge4_Node000001_Node000005"><a xlink:title=" ">
<path fill="none" stroke="#63b8ff" d="M493.87,-55.32C458.54,-45.91 401.83,-30.82 364.25,-20.81"/>
<polygon fill="#63b8ff" stroke="#63b8ff" points="359.56,-19.56 364.97,-18.67 360.8,-19.89 364.39,-20.85 364.39,-20.85 364.39,-20.85 360.8,-19.89 363.82,-23.02 359.56,-19.56"/>
</a>
</g>
</g>
<!-- Node6 -->
<g id="Node000006" class="node">
<title>Node6</title>
<g id="a_Node000006"><a xlink:title=" ">
<polygon fill="#e0e0e0" stroke="none" points="452,-19.25 394,-19.25 394,0 452,0 452,-19.25"/>
<text xml:space="preserve" text-anchor="middle" x="423" y="-4.8" font-family="Consolas" font-size="11.00">QString</text>
</a>
</g>
</g>
<!-- Node1&#45;&gt;Node6 -->
<g id="edge5_Node000001_Node000006" class="edge">
<title>Node1&#45;&gt;Node6</title>
<g id="a_edge5_Node000001_Node000006"><a xlink:title=" ">
<path fill="none" stroke="#63b8ff" d="M509.45,-55.32C491.88,-46.24 464.04,-31.84 444.72,-21.85"/>
<polygon fill="#63b8ff" stroke="#63b8ff" points="440.59,-19.72 446.06,-20.02 441.73,-20.31 445.03,-22.02 445.03,-22.02 445.03,-22.02 441.73,-20.31 444,-24.01 440.59,-19.72"/>
</a>
</g>
</g>
<!-- Node7 -->
<g id="Node000007" class="node">
<title>Node7</title>
<g id="a_Node000007"><a xlink:title=" ">
<polygon fill="#e0e0e0" stroke="none" points="510,-19.25 470,-19.25 470,0 510,0 510,-19.25"/>
<text xml:space="preserve" text-anchor="middle" x="490" y="-4.8" font-family="Consolas" font-size="11.00">QDir</text>
</a>
</g>
</g>
<!-- Node1&#45;&gt;Node7 -->
<g id="edge6_Node000001_Node000007" class="edge">
<title>Node1&#45;&gt;Node7</title>
<g id="a_edge6_Node000001_Node000007"><a xlink:title=" ">
<path fill="none" stroke="#63b8ff" d="M520.38,-55.55C514.7,-47.16 505.85,-34.07 499.16,-24.18"/>
<polygon fill="#63b8ff" stroke="#63b8ff" points="496.39,-20.07 501.05,-22.95 497.1,-21.13 499.19,-24.21 499.19,-24.21 499.19,-24.21 497.1,-21.13 497.32,-25.47 496.39,-20.07"/>
</a>
</g>
</g>
<!-- Node8 -->
<g id="Node000008" class="node">
<title>Node8</title>
<g id="a_Node000008"><a xlink:title=" ">
<polygon fill="#e0e0e0" stroke="none" points="598,-19.25 528,-19.25 528,0 598,0 598,-19.25"/>
<text xml:space="preserve" text-anchor="middle" x="563" y="-4.8" font-family="Consolas" font-size="11.00">QFileInfo</text>
</a>
</g>
</g>
<!-- Node1&#45;&gt;Node8 -->
<g id="edge7_Node000001_Node000008" class="edge">
<title>Node1&#45;&gt;Node8</title>
<g id="a_edge7_Node000001_Node000008"><a xlink:title=" ">
<path fill="none" stroke="#63b8ff" d="M531.78,-55.55C537.67,-47.09 546.88,-33.83 553.77,-23.9"/>
<polygon fill="#63b8ff" stroke="#63b8ff" points="556.44,-20.06 555.44,-25.45 555.71,-21.12 553.59,-24.17 553.59,-24.17 553.59,-24.17 555.71,-21.12 551.74,-22.89 556.44,-20.06"/>
</a>
</g>
</g>
<!-- Node9 -->
<g id="Node000009" class="node">
<title>Node9</title>
<g id="a_Node000009"><a xlink:title=" ">
<polygon fill="#e0e0e0" stroke="none" points="764,-19.25 616,-19.25 616,0 764,0 764,-19.25"/>
<text xml:space="preserve" text-anchor="middle" x="690" y="-4.8" font-family="Consolas" font-size="11.00">QtEnvironmentVariables</text>
</a>
</g>
</g>
<!-- Node1&#45;&gt;Node9 -->
<g id="edge8_Node000001_Node000009" class="edge">
<title>Node1&#45;&gt;Node9</title>
<g id="a_edge8_Node000001_Node000009"><a xlink:title=" ">
<path fill="none" stroke="#63b8ff" d="M552.35,-55.32C581.08,-45.99 627.05,-31.06 657.87,-21.06"/>
<polygon fill="#63b8ff" stroke="#63b8ff" points="662.29,-19.62 658.22,-23.31 661.07,-20.02 657.53,-21.17 657.53,-21.17 657.53,-21.17 661.07,-20.02 656.83,-19.03 662.29,-19.62"/>
</a>
</g>
</g>
<!-- Node10 -->
<g id="Node000010" class="node">
<title>Node10</title>
<g id="a_Node000010"><a xlink:title=" ">
<polygon fill="#e0e0e0" stroke="none" points="912,-19.25 782,-19.25 782,0 912,0 912,-19.25"/>
<text xml:space="preserve" text-anchor="middle" x="847" y="-4.8" font-family="Consolas" font-size="11.00">npi/OrgMetaData.hpp</text>
</a>
</g>
</g>
<!-- Node1&#45;&gt;Node10 -->
<g id="edge9_Node000001_Node000010" class="edge">
<title>Node1&#45;&gt;Node10</title>
<g id="a_edge9_Node000001_Node000010"><a xlink:title=" ">
<path fill="none" stroke="#63b8ff" d="M572.68,-56.13C630.03,-46.62 727.35,-30.47 789.33,-20.19"/>
<polygon fill="#63b8ff" stroke="#63b8ff" points="794.01,-19.42 789.45,-22.45 792.75,-19.63 789.08,-20.23 789.08,-20.23 789.08,-20.23 792.75,-19.63 788.71,-18.01 794.01,-19.42"/>
</a>
</g>
</g>
<!-- Node11 -->
<g id="Node000011" class="node">
<title>Node11</title>
<g id="a_Node000011"><a xlink:title=" ">
<polygon fill="#e0e0e0" stroke="none" points="1060,-19.25 930,-19.25 930,0 1060,0 1060,-19.25"/>
<text xml:space="preserve" text-anchor="middle" x="995" y="-4.8" font-family="Consolas" font-size="11.00">npi/AppMetaData.hpp</text>
</a>
</g>
</g>
<!-- Node1&#45;&gt;Node11 -->
<g id="edge10_Node000001_Node000011" class="edge">
<title>Node1&#45;&gt;Node11</title>
<g id="a_edge10_Node000001_Node000011"><a xlink:title=" ">
<path fill="none" stroke="#63b8ff" d="M572.83,-58.64C646.79,-50.36 795.19,-33.69 921,-19.25 922.02,-19.13 923.04,-19.02 924.07,-18.9"/>
<polygon fill="#63b8ff" stroke="#63b8ff" points="928.82,-18.35 924.11,-21.16 927.55,-18.5 923.85,-18.92 923.85,-18.92 923.85,-18.92 927.55,-18.5 923.59,-16.69 928.82,-18.35"/>
</a>
</g>
</g>
<!-- Node12 -->
<g id="Node000012" class="node">
<title>Node12</title>
<g id="a_Node000012"><a xlink:title=" ">
<polygon fill="#e0e0e0" stroke="none" points="1256,-19.25 1078,-19.25 1078,0 1256,0 1256,-19.25"/>
<text xml:space="preserve" text-anchor="middle" x="1167" y="-4.8" font-family="Consolas" font-size="11.00">npi/StartupFatalMessage.hpp</text>
</a>
</g>
</g>
<!-- Node1&#45;&gt;Node12 -->
<g id="edge11_Node000001_Node000012" class="edge">
<title>Node1&#45;&gt;Node12</title>
<g id="a_edge11_Node000001_Node000012"><a xlink:title=" ">
<path fill="none" stroke="#63b8ff" d="M572.86,-60.12C666.92,-52.55 885.45,-34.87 1069,-19.25 1070.02,-19.16 1071.05,-19.08 1072.09,-18.99"/>
<polygon fill="#63b8ff" stroke="#63b8ff" points="1076.85,-18.58 1072.06,-21.25 1075.58,-18.69 1071.87,-19.01 1071.87,-19.01 1071.87,-19.01 1075.58,-18.69 1071.68,-16.76 1076.85,-18.58"/>
</a>
</g>
</g>
<!-- Node13 -->
<g id="Node000013" class="node">
<title>Node13</title>
<g id="a_Node000013"><a xlink:title=" ">
<polygon fill="#e0e0e0" stroke="none" points="1380,-19.25 1274,-19.25 1274,0 1380,0 1380,-19.25"/>
<text xml:space="preserve" text-anchor="middle" x="1327" y="-4.8" font-family="Consolas" font-size="11.00">npi/MetaPaths.h</text>
</a>
</g>
</g>
<!-- Node1&#45;&gt;Node13 -->
<g id="edge12_Node000001_Node000013" class="edge">
<title>Node1&#45;&gt;Node13</title>
<g id="a_edge12_Node000001_Node000013"><a xlink:title=" ">
<path fill="none" stroke="#63b8ff" d="M572.79,-62.32C689.73,-58.14 1004.08,-45.24 1265,-19.25 1266.04,-19.15 1267.09,-19.04 1268.15,-18.93"/>
<polygon fill="#63b8ff" stroke="#63b8ff" points="1273.06,-18.38 1268.34,-21.17 1271.78,-18.52 1268.09,-18.93 1268.09,-18.93 1268.09,-18.93 1271.78,-18.52 1267.84,-16.7 1273.06,-18.38"/>
</a>
</g>
</g>
</g>
</svg>
