<?xml version="1.0" encoding="UTF-8" standalone="no"?>
<!DOCTYPE svg PUBLIC "-//W3C//DTD SVG 1.1//EN"
 "http://www.w3.org/Graphics/SVG/1.1/DTD/svg11.dtd">
<!-- Generated by graphviz version 14.0.0 (20250921.2048)
 -->
<!-- Title: anonymous_namespace{Log.cpp}::LogCore::StartupSettings Pages: 1 -->
<svg width="348pt" height="128pt"
 viewBox="0.00 0.00 348.00 128.00" xmlns="http://www.w3.org/2000/svg" xmlns:xlink="http://www.w3.org/1999/xlink">
<g id="graph0" class="graph" transform="scale(1 1) rotate(0) translate(4 124)">
<title>anonymous_namespace{Log.cpp}::LogCore::StartupSettings</title>
<!-- Node1 -->
<g id="Node000001" class="node">
<title>Node1</title>
<g id="a_Node000001"><a xlink:title=" ">
<polygon fill="#999999" stroke="none" points="340,-19.25 0,-19.25 0,0 340,0 340,-19.25"/>
<text xml:space="preserve" text-anchor="start" x="8" y="-5.8" font-family="Consolas" font-weight="bold" font-size="11.00">anonymous_namespace{Log.cpp}::LogCore::StartupSettings</text>
</a>
</g>
</g>
<!-- Node2 -->
<g id="Node000002" class="node">
<title>Node2</title>
<g id="a_Node000002"><a xlink:title=" ">
<polygon fill="white" stroke="none" points="126,-120 68,-120 68,-100.75 126,-100.75 126,-120"/>
<text xml:space="preserve" text-anchor="middle" x="97" y="-105.55" font-family="Consolas" font-size="11.00">QString</text>
</a>
</g>
</g>
<!-- Node2&#45;&gt;Node1 -->
<g id="edge1_Node000001_Node000002" class="edge">
<title>Node2&#45;&gt;Node1</title>
<g id="a_edge1_Node000001_Node000002"><a xlink:title=" ">
<path fill="none" stroke="#9a32cd" stroke-dasharray="5,2" d="M103.46,-95.26C110.8,-80.04 123.78,-55.54 139,-37.25 144.63,-30.49 152.08,-24.03 158.26,-19.17"/>
<polygon fill="#9a32cd" stroke="#9a32cd" points="101.36,-99.69 101.46,-94.21 101.91,-98.53 103.5,-95.17 103.5,-95.17 103.5,-95.17 101.91,-98.53 105.53,-96.13 101.36,-99.69"/>
</a>
</g>
<text xml:space="preserve" text-anchor="start" x="142" y="-55.75" font-family="Consolas" font-size="10.00" fill="grey">dir_</text>
</g>
<!-- Node3 -->
<g id="Node000003" class="node">
<title>Node3</title>
<g id="a_Node000003"><a xlink:title=" ">
<polygon fill="white" stroke="none" points="196,-120 144,-120 144,-100.75 196,-100.75 196,-120"/>
<text xml:space="preserve" text-anchor="middle" x="170" y="-105.55" font-family="Consolas" font-size="11.00">qint64</text>
</a>
</g>
</g>
<!-- Node3&#45;&gt;Node1 -->
<g id="edge2_Node000001_Node000003" class="edge">
<title>Node3&#45;&gt;Node1</title>
<g id="a_edge2_Node000001_Node000003"><a xlink:title=" ">
<path fill="none" stroke="#9a32cd" stroke-dasharray="5,2" d="M170,-94.79C170,-73.83 170,-35.84 170,-19.02"/>
<polygon fill="#9a32cd" stroke="#9a32cd" points="170,-99.74 167.75,-94.74 170,-98.46 170,-94.74 170,-94.74 170,-94.74 170,-98.46 172.25,-94.74 170,-99.74"/>
</a>
</g>
<text xml:space="preserve" text-anchor="start" x="173" y="-55.75" font-family="Consolas" font-size="10.00" fill="grey">maxFolderMb_</text>
</g>
<!-- Node4 -->
<g id="Node000004" class="node">
<title>Node4</title>
<g id="a_Node000004"><a xlink:title=" ">
<polygon fill="white" stroke="none" points="303,-120 221,-120 221,-100.75 303,-100.75 303,-120"/>
<text xml:space="preserve" text-anchor="middle" x="262" y="-105.55" font-family="Consolas" font-size="11.00">QStringList</text>
</a>
</g>
</g>
<!-- Node4&#45;&gt;Node1 -->
<g id="edge3_Node000001_Node000004" class="edge">
<title>Node4&#45;&gt;Node1</title>
<g id="a_edge3_Node000001_Node000004"><a xlink:title=" ">
<path fill="none" stroke="#9a32cd" stroke-dasharray="5,2" d="M261.31,-95.29C259.78,-79.28 255,-53.29 240,-37.25 232.19,-28.89 221.47,-23.13 210.78,-19.18"/>
<polygon fill="#9a32cd" stroke="#9a32cd" points="261.66,-99.87 259.03,-95.06 261.56,-98.6 261.27,-94.89 261.27,-94.89 261.27,-94.89 261.56,-98.6 263.52,-94.71 261.66,-99.87"/>
</a>
</g>
<text xml:space="preserve" text-anchor="start" x="262.58" y="-70.25" font-family="Consolas" font-size="10.00" fill="grey">filterRules_</text>
<text xml:space="preserve" text-anchor="start" x="262.58" y="-55.75" font-family="Consolas" font-size="10.00" fill="grey">logFields_</text>
<text xml:space="preserve" text-anchor="start" x="262.58" y="-41.25" font-family="Consolas" font-size="10.00" fill="grey">msgFields_</text>
</g>
</g>
</svg>
