<?xml version="1.0" encoding="UTF-8" standalone="no"?>
<!DOCTYPE svg PUBLIC "-//W3C//DTD SVG 1.1//EN"
 "http://www.w3.org/Graphics/SVG/1.1/DTD/svg11.dtd">
<!-- Generated by graphviz version 14.1.5 (20260411.2331)
 -->
<!-- Title: anonymous_namespace{Gui::cpp}::icon::dynamicIcon Pages: 1 -->
<svg width="562pt" height="134pt"
 viewBox="0.00 0.00 562.00 134.00" xmlns="http://www.w3.org/2000/svg" xmlns:xlink="http://www.w3.org/1999/xlink">
<g id="graph0" class="graph" transform="scale(1 1) rotate(0) translate(4 130.12)">
<title>anonymous_namespace{Gui::cpp}::icon::dynamicIcon</title>
<!-- Node1 -->
<g id="Node000001" class="node">
<title>Node1</title>
<g id="a_Node000001"><a xlink:title="Constructs an icon with theme&#45;dependent Off and On states.">
<polygon fill="#999999" stroke="none" points="304,-60.88 0,-60.88 0,-41.62 304,-41.62 304,-60.88"/>
<text xml:space="preserve" text-anchor="start" x="8" y="-47.42" font-family="Consolas" font-weight="bold" font-size="11.00">anonymous_namespace{Gui::cpp}::icon::dynamicIcon</text>
</a>
</g>
</g>
<!-- Node1&#45;&gt;Node1 -->
<g id="edge3_Node000001_Node000001" class="edge">
<title>Node1&#45;&gt;Node1</title>
<g id="a_edge3_Node000001_Node000001"><a xlink:title=" ">
<path fill="none" stroke="#63b8ff" d="M106.9,-60.73C84.25,-69.46 99.28,-78.88 152,-78.88 199.78,-78.88 216.6,-71.15 202.48,-63.2"/>
<polygon fill="#63b8ff" stroke="#63b8ff" points="198.21,-61.24 203.69,-61.28 199.37,-61.78 202.75,-63.32 202.75,-63.32 202.75,-63.32 199.37,-61.78 201.82,-65.37 198.21,-61.24"/>
</a>
</g>
</g>
<!-- Node2 -->
<g id="Node000002" class="node">
<title>Node2</title>
<g id="a_Node000002"><a xlink:href="../../df/d10/namespaceanonymous__namespace_02_gui_8cpp_03_1_1icon.html#ab045516bfe911dbcb58313d007668b28" target="_top" xlink:title="Copies all available Normal&#45;mode pixmaps for one icon state.">
<polygon fill="white" stroke="none" points="533,-108.12 361,-108.12 361,-66.38 533,-66.38 533,-108.12"/>
<text xml:space="preserve" text-anchor="start" x="369" y="-93.67" font-family="Consolas" font-size="11.00">anonymous_namespace</text>
<text xml:space="preserve" text-anchor="start" x="369" y="-82.42" font-family="Consolas" font-size="11.00">{Gui::cpp}::icon::copyIcon</text>
<text xml:space="preserve" text-anchor="middle" x="447" y="-71.17" font-family="Consolas" font-size="11.00">State</text>
</a>
</g>
</g>
<!-- Node1&#45;&gt;Node2 -->
<g id="edge1_Node000001_Node000002" class="edge">
<title>Node1&#45;&gt;Node2</title>
<g id="a_edge1_Node000001_Node000002"><a xlink:title=" ">
<path fill="none" stroke="#63b8ff" d="M231.13,-60.85C269.35,-65.55 315.56,-71.22 355.32,-76.11"/>
<polygon fill="#63b8ff" stroke="#63b8ff" points="359.93,-76.67 354.69,-78.3 358.66,-76.52 354.97,-76.07 354.97,-76.07 354.97,-76.07 358.66,-76.52 355.24,-73.83 359.93,-76.67"/>
</a>
</g>
</g>
<!-- Node3 -->
<g id="Node000003" class="node">
<title>Node3</title>
<g id="a_Node000003"><a xlink:href="../../df/d10/namespaceanonymous__namespace_02_gui_8cpp_03_1_1icon.html#a6ccf463e65a358a2e6f54e73769bae0c" target="_top" xlink:title="Finds the resource path for a theme&#45;dependent icon.">
<polygon fill="white" stroke="none" points="554,-30.5 340,-30.5 340,0 554,0 554,-30.5"/>
<text xml:space="preserve" text-anchor="start" x="348" y="-16.05" font-family="Consolas" font-size="11.00">anonymous_namespace</text>
<text xml:space="preserve" text-anchor="middle" x="447" y="-4.8" font-family="Consolas" font-size="11.00">{Gui::cpp}::icon::dynamicIconPath</text>
</a>
</g>
</g>
<!-- Node1&#45;&gt;Node3 -->
<g id="edge4_Node000001_Node000003" class="edge">
<title>Node1&#45;&gt;Node3</title>
<g id="a_edge4_Node000001_Node000003"><a xlink:title=" ">
<path fill="none" stroke="#63b8ff" d="M231.13,-41.65C262.7,-37.77 299.73,-33.22 334.08,-29"/>
<polygon fill="#63b8ff" stroke="#63b8ff" points="338.8,-28.42 334.11,-31.26 337.53,-28.58 333.84,-29.03 333.84,-29.03 333.84,-29.03 337.53,-28.58 333.56,-26.8 338.8,-28.42"/>
</a>
</g>
</g>
<!-- Node2&#45;&gt;Node2 -->
<g id="edge2_Node000002_Node000002" class="edge">
<title>Node2&#45;&gt;Node2</title>
<g id="a_edge2_Node000002_Node000002"><a xlink:title=" ">
<path fill="none" stroke="#63b8ff" d="M392.78,-108.05C386.87,-117.7 404.94,-126.12 447,-126.12 479.86,-126.12 498.08,-120.98 501.66,-114.13"/>
<polygon fill="#63b8ff" stroke="#63b8ff" points="501.31,-109.26 503.91,-114.09 501.4,-110.54 501.67,-114.25 501.67,-114.25 501.67,-114.25 501.4,-110.54 499.42,-114.41 501.31,-109.26"/>
</a>
</g>
</g>
<!-- Node3&#45;&gt;Node3 -->
<g id="edge5_Node000003_Node000003" class="edge">
<title>Node3&#45;&gt;Node3</title>
<g id="a_edge5_Node000003_Node000003"><a xlink:title=" ">
<path fill="none" stroke="#63b8ff" d="M395.59,-30.3C383.19,-39.62 400.33,-48.5 447,-48.5 485.65,-48.5 504.04,-42.41 502.18,-35.02"/>
<polygon fill="#63b8ff" stroke="#63b8ff" points="499.17,-31.25 504.05,-33.75 499.97,-32.25 502.29,-35.16 502.29,-35.16 502.29,-35.16 499.97,-32.25 500.53,-36.56 499.17,-31.25"/>
</a>
</g>
</g>
</g>
</svg>
