<?xml version="1.0" encoding="UTF-8" standalone="no"?>
<!DOCTYPE svg PUBLIC "-//W3C//DTD SVG 1.1//EN"
 "http://www.w3.org/Graphics/SVG/1.1/DTD/svg11.dtd">
<!-- Generated by graphviz version 14.0.0 (20250921.2048)
 -->
<!-- Title: npi::RefPtrHost::Obs::Obs Pages: 1 -->
<svg width="376pt" height="162pt"
 viewBox="0.00 0.00 376.00 162.00" xmlns="http://www.w3.org/2000/svg" xmlns:xlink="http://www.w3.org/1999/xlink">

<svg id="main" version="1.1" xmlns="http://www.w3.org/2000/svg" xmlns:xlink="http://www.w3.org/1999/xlink" xml:space="preserve">

<style type="text/css"><![CDATA[
.node, .edge {opacity: 0.7;}
.node.selected, .edge.selected {opacity: 1;}
.edge:hover path { stroke: red; }
.edge:hover polygon { stroke: red; fill: red; }
]]></style>
<script type="application/ecmascript" xlink:href="../../svg.min.js"/>
<svg id="graph" class="graph">
<g id="graph0" class="graph" transform="scale(1 1) rotate(0) translate(4 157.88)">
<title>npi::RefPtrHost::Obs::Obs</title>
<!-- Node1 -->
<g id="Node000001" class="node">
<title>Node1</title>
<g id="a_Node000001"><a xlink:title="Initialize observer with raw pointer.">
<polygon fill="#999999" stroke="none" points="368,-94.88 202,-94.88 202,-75.62 368,-75.62 368,-94.88"/>
<text xml:space="preserve" text-anchor="start" x="210" y="-81.42" font-family="Consolas" font-weight="bold" font-size="11.00">npi::RefPtrHost::Obs::Obs</text>
</a>
</g>
</g>
<!-- Node2 -->
<g id="Node000002" class="node">
<title>Node2</title>
<g id="a_Node000002"><a xlink:href="../../da/d29/structnpi_1_1_ref_ptr_host_1_1_obs.html#ae9801536498b8a7492b04328a9be71b8" target="_top" xlink:title="Default copy constructor.">
<polygon fill="white" stroke="none" points="166,-153.88 0,-153.88 0,-134.62 166,-134.62 166,-153.88"/>
<text xml:space="preserve" text-anchor="middle" x="83" y="-139.43" font-family="Consolas" font-size="11.00">npi::RefPtrHost::Obs::Obs</text>
</a>
</g>
</g>
<!-- Node1&#45;&gt;Node2 -->
<g id="edge1_Node000001_Node000002" class="edge">
<title>Node1&#45;&gt;Node2</title>
<g id="a_edge1_Node000001_Node000002"><a xlink:title=" ">
<path fill="none" stroke="#63b8ff" d="M253.62,-96.92C229.98,-105.73 196.21,-117.72 166,-126.25 155.2,-129.3 143.48,-132.14 132.37,-134.63"/>
<polygon fill="#63b8ff" stroke="#63b8ff" points="258.27,-95.18 254.38,-99.04 257.07,-95.63 253.59,-96.93 253.59,-96.93 253.59,-96.93 257.07,-95.63 252.8,-94.83 258.27,-95.18"/>
</a>
</g>
</g>
<!-- Node3 -->
<g id="Node000003" class="node">
<title>Node3</title>
<g id="a_Node000003"><a xlink:href="../../da/d29/structnpi_1_1_ref_ptr_host_1_1_obs.html#a174538e18736034fae159635365aa057" target="_top" xlink:title="Default move constructor.">
<polygon fill="white" stroke="none" points="166,-116.88 0,-116.88 0,-97.62 166,-97.62 166,-116.88"/>
<text xml:space="preserve" text-anchor="middle" x="83" y="-102.42" font-family="Consolas" font-size="11.00">npi::RefPtrHost::Obs::Obs</text>
</a>
</g>
</g>
<!-- Node1&#45;&gt;Node3 -->
<g id="edge2_Node000001_Node000003" class="edge">
<title>Node1&#45;&gt;Node3</title>
<g id="a_edge2_Node000001_Node000003"><a xlink:title=" ">
<path fill="none" stroke="#63b8ff" d="M196.16,-94.91C186.06,-96.02 175.8,-97.15 165.8,-98.25"/>
<polygon fill="#63b8ff" stroke="#63b8ff" points="200.86,-94.39 196.14,-97.18 199.59,-94.54 195.89,-94.94 195.89,-94.94 195.89,-94.94 199.59,-94.54 195.65,-92.71 200.86,-94.39"/>
</a>
</g>
</g>
<!-- Node4 -->
<g id="Node000004" class="node">
<title>Node4</title>
<g id="a_Node000004"><a xlink:href="../../da/d29/structnpi_1_1_ref_ptr_host_1_1_obs.html#a2ebe2dc8dcac0a790c9370d3d78ccdce" target="_top" xlink:title="Default copy assignment operator.">
<polygon fill="white" stroke="none" points="151,-79.5 15,-79.5 15,-49 151,-49 151,-79.5"/>
<text xml:space="preserve" text-anchor="start" x="23" y="-65.05" font-family="Consolas" font-size="11.00">npi::RefPtrHost::Obs</text>
<text xml:space="preserve" text-anchor="middle" x="83" y="-53.8" font-family="Consolas" font-size="11.00">::operator=</text>
</a>
</g>
</g>
<!-- Node1&#45;&gt;Node4 -->
<g id="edge3_Node000001_Node000004" class="edge">
<title>Node1&#45;&gt;Node4</title>
<g id="a_edge3_Node000001_Node000004"><a xlink:title=" ">
<path fill="none" stroke="#63b8ff" d="M196.06,-76.02C180.88,-74.42 165.34,-72.79 150.84,-71.27"/>
<polygon fill="#63b8ff" stroke="#63b8ff" points="200.86,-76.52 195.66,-78.24 199.59,-76.39 195.89,-76 195.89,-76 195.89,-76 199.59,-76.39 196.13,-73.76 200.86,-76.52"/>
</a>
</g>
</g>
<!-- Node5 -->
<g id="Node000005" class="node">
<title>Node5</title>
<g id="a_Node000005"><a xlink:href="../../da/d29/structnpi_1_1_ref_ptr_host_1_1_obs.html#ab5ff9089a3797aebbc175acb36a2c728" target="_top" xlink:title="Default move assignment operator.">
<polygon fill="white" stroke="none" points="151,-30.5 15,-30.5 15,0 151,0 151,-30.5"/>
<text xml:space="preserve" text-anchor="start" x="23" y="-16.05" font-family="Consolas" font-size="11.00">npi::RefPtrHost::Obs</text>
<text xml:space="preserve" text-anchor="middle" x="83" y="-4.8" font-family="Consolas" font-size="11.00">::operator=</text>
</a>
</g>
</g>
<!-- Node1&#45;&gt;Node5 -->
<g id="edge4_Node000001_Node000005" class="edge">
<title>Node1&#45;&gt;Node5</title>
<g id="a_edge4_Node000001_Node000005"><a xlink:title=" ">
<path fill="none" stroke="#63b8ff" d="M254.72,-73.44C230.96,-64.02 196.53,-50.71 166,-40.25 156.29,-36.92 145.85,-33.57 135.79,-30.45"/>
<polygon fill="#63b8ff" stroke="#63b8ff" points="259.09,-75.18 253.61,-75.42 257.9,-74.71 254.44,-73.33 254.44,-73.33 254.44,-73.33 257.9,-74.71 255.27,-71.24 259.09,-75.18"/>
</a>
</g>
</g>
</g>
</svg>
</svg>

<style type='text/css'>
<![CDATA[
[data-mouse-over-selected='false'] { opacity: 0.7; }
[data-mouse-over-selected='true']  { opacity: 1.0; }
]]>
</style>
<script type="application/ecmascript"><![CDATA[
document.addEventListener('DOMContentLoaded', (event) => {
  highlightEdges();
  highlightAdjacentNodes();
});
]]></script>
</svg>
