<?xml version="1.0" encoding="UTF-8" standalone="no"?>
<!DOCTYPE svg PUBLIC "-//W3C//DTD SVG 1.1//EN"
 "http://www.w3.org/Graphics/SVG/1.1/DTD/svg11.dtd">
<!-- Generated by graphviz version 14.0.0 (20250921.2048)
 -->
<!-- Title: Font.hpp Pages: 1 -->
<svg width="1052pt" height="83pt"
 viewBox="0.00 0.00 1052.00 83.00" xmlns="http://www.w3.org/2000/svg" xmlns:xlink="http://www.w3.org/1999/xlink">
<g id="graph0" class="graph" transform="scale(1 1) rotate(0) translate(4 78.5)">
<title>Font.hpp</title>
<!-- Node1 -->
<g id="Node000001" class="node">
<title>Node1</title>
<g id="a_Node000001"><a xlink:title="Thread&#45;safe font utility for application and fixed&#45;width fonts.">
<polygon fill="#999999" stroke="none" points="486,-74.5 422,-74.5 422,-55.25 486,-55.25 486,-74.5"/>
<text xml:space="preserve" text-anchor="start" x="430" y="-61.05" font-family="Consolas" font-weight="bold" font-size="11.00">Font.hpp</text>
</a>
</g>
</g>
<!-- Node2 -->
<g id="Node000002" class="node">
<title>Node2</title>
<g id="a_Node000002"><a xlink:title=" ">
<polygon fill="#e0e0e0" stroke="none" points="46,-19.25 0,-19.25 0,0 46,0 46,-19.25"/>
<text xml:space="preserve" text-anchor="middle" x="23" y="-4.8" font-family="Consolas" font-size="11.00">QHash</text>
</a>
</g>
</g>
<!-- Node1&#45;&gt;Node2 -->
<g id="edge1_Node000001_Node000002" class="edge">
<title>Node1&#45;&gt;Node2</title>
<g id="a_edge1_Node000001_Node000002"><a xlink:title=" ">
<path fill="none" stroke="#63b8ff" d="M422.2,-61.97C354.3,-57.53 190.25,-44.89 55,-19.25 53.99,-19.06 52.96,-18.85 51.93,-18.63"/>
<polygon fill="#63b8ff" stroke="#63b8ff" points="47.16,-17.54 52.54,-16.46 48.41,-17.82 52.04,-18.66 52.04,-18.66 52.04,-18.66 48.41,-17.82 51.53,-20.85 47.16,-17.54"/>
</a>
</g>
</g>
<!-- Node3 -->
<g id="Node000003" class="node">
<title>Node3</title>
<g id="a_Node000003"><a xlink:title=" ">
<polygon fill="#e0e0e0" stroke="none" points="110,-19.25 64,-19.25 64,0 110,0 110,-19.25"/>
<text xml:space="preserve" text-anchor="middle" x="87" y="-4.8" font-family="Consolas" font-size="11.00">QFont</text>
</a>
</g>
</g>
<!-- Node1&#45;&gt;Node3 -->
<g id="edge2_Node000001_Node000003" class="edge">
<title>Node1&#45;&gt;Node3</title>
<g id="a_edge2_Node000001_Node000003"><a xlink:title=" ">
<path fill="none" stroke="#63b8ff" d="M422.37,-61.05C362.67,-55.42 229.46,-41.39 119,-19.25 117.99,-19.05 116.97,-18.83 115.94,-18.6"/>
<polygon fill="#63b8ff" stroke="#63b8ff" points="111.17,-17.49 116.56,-16.44 112.42,-17.78 116.04,-18.63 116.04,-18.63 116.04,-18.63 112.42,-17.78 115.53,-20.82 111.17,-17.49"/>
</a>
</g>
</g>
<!-- Node4 -->
<g id="Node000004" class="node">
<title>Node4</title>
<g id="a_Node000004"><a xlink:title=" ">
<polygon fill="#e0e0e0" stroke="none" points="180,-19.25 128,-19.25 128,0 180,0 180,-19.25"/>
<text xml:space="preserve" text-anchor="middle" x="154" y="-4.8" font-family="Consolas" font-size="11.00">QColor</text>
</a>
</g>
</g>
<!-- Node1&#45;&gt;Node4 -->
<g id="edge3_Node000001_Node000004" class="edge">
<title>Node1&#45;&gt;Node4</title>
<g id="a_edge3_Node000001_Node000004"><a xlink:title=" ">
<path fill="none" stroke="#63b8ff" d="M422.04,-59.28C372.1,-51.93 272.6,-36.57 189,-19.25 187.99,-19.04 186.96,-18.82 185.93,-18.6"/>
<polygon fill="#63b8ff" stroke="#63b8ff" points="181.13,-17.52 186.51,-16.42 182.38,-17.8 186.01,-18.62 186.01,-18.62 186.01,-18.62 182.38,-17.8 185.52,-20.81 181.13,-17.52"/>
</a>
</g>
</g>
<!-- Node5 -->
<g id="Node000005" class="node">
<title>Node5</title>
<g id="a_Node000005"><a xlink:title=" ">
<polygon fill="#e0e0e0" stroke="none" points="256,-19.25 198,-19.25 198,0 256,0 256,-19.25"/>
<text xml:space="preserve" text-anchor="middle" x="227" y="-4.8" font-family="Consolas" font-size="11.00">QWidget</text>
</a>
</g>
</g>
<!-- Node1&#45;&gt;Node5 -->
<g id="edge4_Node000001_Node000005" class="edge">
<title>Node1&#45;&gt;Node5</title>
<g id="a_edge4_Node000001_Node000005"><a xlink:title=" ">
<path fill="none" stroke="#63b8ff" d="M422.44,-56.47C380.2,-46.56 305.55,-29.05 261.75,-18.78"/>
<polygon fill="#63b8ff" stroke="#63b8ff" points="256.97,-17.66 262.35,-16.61 258.22,-17.95 261.84,-18.8 261.84,-18.8 261.84,-18.8 258.22,-17.95 261.33,-20.99 256.97,-17.66"/>
</a>
</g>
</g>
<!-- Node6 -->
<g id="Node000006" class="node">
<title>Node6</title>
<g id="a_Node000006"><a xlink:title=" ">
<polygon fill="#e0e0e0" stroke="none" points="338,-19.25 274,-19.25 274,0 338,0 338,-19.25"/>
<text xml:space="preserve" text-anchor="middle" x="306" y="-4.8" font-family="Consolas" font-size="11.00">QPointer</text>
</a>
</g>
</g>
<!-- Node1&#45;&gt;Node6 -->
<g id="edge5_Node000001_Node000006" class="edge">
<title>Node1&#45;&gt;Node6</title>
<g id="a_edge5_Node000001_Node000006"><a xlink:title=" ">
<path fill="none" stroke="#63b8ff" d="M430.22,-55.32C404.44,-46.04 363.25,-31.22 335.44,-21.22"/>
<polygon fill="#63b8ff" stroke="#63b8ff" points="330.87,-19.57 336.33,-19.15 332.07,-20.01 335.57,-21.26 335.57,-21.26 335.57,-21.26 332.07,-20.01 334.81,-23.38 330.87,-19.57"/>
</a>
</g>
</g>
<!-- Node7 -->
<g id="Node000007" class="node">
<title>Node7</title>
<g id="a_Node000007"><a xlink:title=" ">
<polygon fill="#e0e0e0" stroke="none" points="444,-19.25 356,-19.25 356,0 444,0 444,-19.25"/>
<text xml:space="preserve" text-anchor="middle" x="400" y="-4.8" font-family="Consolas" font-size="11.00">QFontMetrics</text>
</a>
</g>
</g>
<!-- Node1&#45;&gt;Node7 -->
<g id="edge6_Node000001_Node000007" class="edge">
<title>Node1&#45;&gt;Node7</title>
<g id="a_edge6_Node000001_Node000007"><a xlink:title=" ">
<path fill="none" stroke="#63b8ff" d="M445.56,-55.55C436.82,-46.93 423.03,-33.34 412.92,-23.36"/>
<polygon fill="#63b8ff" stroke="#63b8ff" points="409.42,-19.92 414.56,-21.83 410.34,-20.82 412.98,-23.43 412.98,-23.43 412.98,-23.43 410.34,-20.82 411.4,-25.03 409.42,-19.92"/>
</a>
</g>
</g>
<!-- Node8 -->
<g id="Node000008" class="node">
<title>Node8</title>
<g id="a_Node000008"><a xlink:title=" ">
<polygon fill="#e0e0e0" stroke="none" points="556,-19.25 462,-19.25 462,0 556,0 556,-19.25"/>
<text xml:space="preserve" text-anchor="middle" x="509" y="-4.8" font-family="Consolas" font-size="11.00">QFontMetricsF</text>
</a>
</g>
</g>
<!-- Node1&#45;&gt;Node8 -->
<g id="edge7_Node000001_Node000008" class="edge">
<title>Node1&#45;&gt;Node8</title>
<g id="a_edge7_Node000001_Node000008"><a xlink:title=" ">
<path fill="none" stroke="#63b8ff" d="M462.59,-55.55C471.5,-46.93 485.54,-33.34 495.84,-23.36"/>
<polygon fill="#63b8ff" stroke="#63b8ff" points="499.41,-19.91 497.38,-25 498.49,-20.8 495.82,-23.39 495.82,-23.39 495.82,-23.39 498.49,-20.8 494.25,-21.77 499.41,-19.91"/>
</a>
</g>
</g>
<!-- Node9 -->
<g id="Node000009" class="node">
<title>Node9</title>
<g id="a_Node000009"><a xlink:title=" ">
<polygon fill="#e0e0e0" stroke="none" points="626,-19.25 574,-19.25 574,0 626,0 626,-19.25"/>
<text xml:space="preserve" text-anchor="middle" x="600" y="-4.8" font-family="Consolas" font-size="11.00">QMutex</text>
</a>
</g>
</g>
<!-- Node1&#45;&gt;Node9 -->
<g id="edge8_Node000001_Node000009" class="edge">
<title>Node1&#45;&gt;Node9</title>
<g id="a_edge8_Node000001_Node000009"><a xlink:title=" ">
<path fill="none" stroke="#63b8ff" d="M477.46,-55.32C502.89,-46.04 543.52,-31.22 570.96,-21.22"/>
<polygon fill="#63b8ff" stroke="#63b8ff" points="575.46,-19.58 571.53,-23.4 574.25,-20.02 570.76,-21.29 570.76,-21.29 570.76,-21.29 574.25,-20.02 569.99,-19.18 575.46,-19.58"/>
</a>
</g>
</g>
<!-- Node10 -->
<g id="Node000010" class="node">
<title>Node10</title>
<g id="a_Node000010"><a xlink:title=" ">
<polygon fill="#e0e0e0" stroke="none" points="732,-19.25 644,-19.25 644,0 732,0 732,-19.25"/>
<text xml:space="preserve" text-anchor="middle" x="688" y="-4.8" font-family="Consolas" font-size="11.00">QMutexLocker</text>
</a>
</g>
</g>
<!-- Node1&#45;&gt;Node10 -->
<g id="edge9_Node000001_Node000010" class="edge">
<title>Node1&#45;&gt;Node10</title>
<g id="a_edge9_Node000001_Node000010"><a xlink:title=" ">
<path fill="none" stroke="#63b8ff" d="M485.56,-56.69C526.51,-47.37 598.16,-31.07 644.32,-20.57"/>
<polygon fill="#63b8ff" stroke="#63b8ff" points="649.19,-19.46 644.81,-22.76 647.94,-19.74 644.31,-20.57 644.31,-20.57 644.31,-20.57 647.94,-19.74 643.81,-18.37 649.19,-19.46"/>
</a>
</g>
</g>
<!-- Node11 -->
<g id="Node000011" class="node">
<title>Node11</title>
<g id="a_Node000011"><a xlink:title=" ">
<polygon fill="#e0e0e0" stroke="none" points="838,-19.25 750,-19.25 750,0 838,0 838,-19.25"/>
<text xml:space="preserve" text-anchor="middle" x="794" y="-4.8" font-family="Consolas" font-size="11.00">QApplication</text>
</a>
</g>
</g>
<!-- Node1&#45;&gt;Node11 -->
<g id="edge10_Node000001_Node000011" class="edge">
<title>Node1&#45;&gt;Node11</title>
<g id="a_edge10_Node000001_Node000011"><a xlink:title=" ">
<path fill="none" stroke="#63b8ff" d="M485.86,-59C538.84,-50.87 648.37,-33.99 741,-19.25 742.01,-19.09 743.04,-18.93 744.07,-18.76"/>
<polygon fill="#63b8ff" stroke="#63b8ff" points="748.84,-18 744.26,-21.01 747.58,-18.2 743.9,-18.79 743.9,-18.79 743.9,-18.79 747.58,-18.2 743.55,-16.57 748.84,-18"/>
</a>
</g>
</g>
<!-- Node12 -->
<g id="Node000012" class="node">
<title>Node12</title>
<g id="a_Node000012"><a xlink:title=" ">
<polygon fill="#e0e0e0" stroke="none" points="914,-19.25 856,-19.25 856,0 914,0 914,-19.25"/>
<text xml:space="preserve" text-anchor="middle" x="885" y="-4.8" font-family="Consolas" font-size="11.00">cstdint</text>
</a>
</g>
</g>
<!-- Node1&#45;&gt;Node12 -->
<g id="edge11_Node000001_Node000012" class="edge">
<title>Node1&#45;&gt;Node12</title>
<g id="a_edge11_Node000001_Node000012"><a xlink:title=" ">
<path fill="none" stroke="#63b8ff" d="M485.75,-61.46C552.8,-56.11 713.63,-41.89 847,-19.25 848.01,-19.08 849.03,-18.9 850.06,-18.71"/>
<polygon fill="#63b8ff" stroke="#63b8ff" points="854.82,-17.78 850.35,-20.95 853.57,-18.03 849.92,-18.74 849.92,-18.74 849.92,-18.74 853.57,-18.03 849.49,-16.53 854.82,-17.78"/>
</a>
</g>
</g>
<!-- Node13 -->
<g id="Node000013" class="node">
<title>Node13</title>
<g id="a_Node000013"><a xlink:title=" ">
<polygon fill="#e0e0e0" stroke="none" points="1044,-19.25 932,-19.25 932,0 1044,0 1044,-19.25"/>
<text xml:space="preserve" text-anchor="middle" x="988" y="-4.8" font-family="Consolas" font-size="11.00">npi/GuiProps.hpp</text>
</a>
</g>
</g>
<!-- Node1&#45;&gt;Node13 -->
<g id="edge12_Node000001_Node000013" class="edge">
<title>Node1&#45;&gt;Node13</title>
<g id="a_edge12_Node000001_Node000013"><a xlink:title=" ">
<path fill="none" stroke="#63b8ff" d="M485.89,-61.25C561.74,-54.92 758.84,-37.94 923,-19.25 924.05,-19.13 925.11,-19.01 926.18,-18.88"/>
<polygon fill="#63b8ff" stroke="#63b8ff" points="931.14,-18.29 926.44,-21.12 929.87,-18.44 926.17,-18.88 926.17,-18.88 926.17,-18.88 929.87,-18.44 925.91,-16.65 931.14,-18.29"/>
</a>
</g>
</g>
</g>
</svg>
