<?xml version="1.0" encoding="UTF-8" standalone="no"?>
<!DOCTYPE svg PUBLIC "-//W3C//DTD SVG 1.1//EN"
 "http://www.w3.org/Graphics/SVG/1.1/DTD/svg11.dtd">
<!-- Generated by graphviz version 14.0.0 (20250921.2048)
 -->
<!-- Title: Font.hpp Pages: 1 -->
<!--zoomable 83 -->

<svg id="main" version="1.1" xmlns="http://www.w3.org/2000/svg" xmlns:xlink="http://www.w3.org/1999/xlink" xml:space="preserve" onload="init(evt)">

<style type="text/css"><![CDATA[
.node, .edge {opacity: 0.7;}
.node.selected, .edge.selected {opacity: 1;}
.edge:hover path { stroke: red; }
.edge:hover polygon { stroke: red; fill: red; }
]]></style>

<defs>
  <circle id="rim" cx="0" cy="0" r="7"/>
  <circle id="rim2" cx="0" cy="0" r="3.5"/>
  <g id="zoomPlus">
    <use xlink:href="#rim" fill="#404040"><set attributeName="fill" to="#808080" begin="zoomplus.mouseover" end="zoomplus.mouseout"/></use>
    <path d="M-4,0h8M0,-4v8" fill="none" stroke="white" stroke-width="1.5" pointer-events="none"/>
  </g>
  <g id="zoomMin">
    <use xlink:href="#rim" fill="#404040"><set attributeName="fill" to="#808080" begin="zoomminus.mouseover" end="zoomminus.mouseout"/></use>
    <path d="M-4,0h8" fill="none" stroke="white" stroke-width="1.5" pointer-events="none"/>
  </g>
  <g id="arrowUp" transform="translate(30 24)">
    <use xlink:href="#rim"/>
    <path pointer-events="none" fill="none" stroke="white" stroke-width="1.5" d="M0,-3.0v7 M-2.5,-0.5L0,-3.0L2.5,-0.5"/>
  </g>
  <g id="arrowRight" transform="rotate(90) translate(36 -43)">
    <use xlink:href="#rim"/>
    <path pointer-events="none" fill="none" stroke="white" stroke-width="1.5" d="M0,-3.0v7 M-2.5,-0.5L0,-3.0L2.5,-0.5"/>
  </g>
  <g id="arrowDown" transform="rotate(180) translate(-30 -48)">
    <use xlink:href="#rim"/>
    <path pointer-events="none" fill="none" stroke="white" stroke-width="1.5" d="M0,-3.0v7 M-2.5,-0.5L0,-3.0L2.5,-0.5"/>
  </g>
  <g id="arrowLeft" transform="rotate(270) translate(-36 17)">
    <use xlink:href="#rim"/>
    <path pointer-events="none" fill="none" stroke="white" stroke-width="1.5" d="M0,-3.0v7 M-2.5,-0.5L0,-3.0L2.5,-0.5"/>
  </g>
  <g id="resetDef">
    <use xlink:href="#rim2" fill="#404040"><set attributeName="fill" to="#808080" begin="reset.mouseover" end="reset.mouseout"/></use>
  </g>
</defs>
<script type="application/ecmascript">
var viewWidth = 1052;
var viewHeight = 83;
var sectionId = 'dynsection-0';
</script>
<script type="application/ecmascript" xlink:href="../../svg.min.js"/>
<svg id="graph" class="graph">
<g id="viewport">
<title>Font.hpp</title>
<!-- Node1 -->
<g id="Node000001" class="node">
<title>Node1</title>
<g id="a_Node000001"><a xlink:title="Thread&#45;safe font utility for application and fixed&#45;width fonts.">
<polygon fill="#999999" stroke="none" points="486,-74.5 422,-74.5 422,-55.25 486,-55.25 486,-74.5"/>
<text xml:space="preserve" text-anchor="start" x="430" y="-61.05" font-family="Consolas" font-weight="bold" font-size="11.00">Font.hpp</text>
</a>
</g>
</g>
<!-- Node2 -->
<g id="Node000002" class="node">
<title>Node2</title>
<g id="a_Node000002"><a xlink:title=" ">
<polygon fill="#e0e0e0" stroke="none" points="46,-19.25 0,-19.25 0,0 46,0 46,-19.25"/>
<text xml:space="preserve" text-anchor="middle" x="23" y="-4.8" font-family="Consolas" font-size="11.00">QHash</text>
</a>
</g>
</g>
<!-- Node1&#45;&gt;Node2 -->
<g id="edge1_Node000001_Node000002" class="edge">
<title>Node1&#45;&gt;Node2</title>
<g id="a_edge1_Node000001_Node000002"><a xlink:title=" ">
<path fill="none" stroke="#63b8ff" d="M422.2,-61.97C354.3,-57.53 190.25,-44.89 55,-19.25 53.99,-19.06 52.96,-18.85 51.93,-18.63"/>
<polygon fill="#63b8ff" stroke="#63b8ff" points="47.16,-17.54 52.54,-16.46 48.41,-17.82 52.04,-18.66 52.04,-18.66 52.04,-18.66 48.41,-17.82 51.53,-20.85 47.16,-17.54"/>
</a>
</g>
</g>
<!-- Node3 -->
<g id="Node000003" class="node">
<title>Node3</title>
<g id="a_Node000003"><a xlink:title=" ">
<polygon fill="#e0e0e0" stroke="none" points="110,-19.25 64,-19.25 64,0 110,0 110,-19.25"/>
<text xml:space="preserve" text-anchor="middle" x="87" y="-4.8" font-family="Consolas" font-size="11.00">QFont</text>
</a>
</g>
</g>
<!-- Node1&#45;&gt;Node3 -->
<g id="edge2_Node000001_Node000003" class="edge">
<title>Node1&#45;&gt;Node3</title>
<g id="a_edge2_Node000001_Node000003"><a xlink:title=" ">
<path fill="none" stroke="#63b8ff" d="M422.37,-61.05C362.67,-55.42 229.46,-41.39 119,-19.25 117.99,-19.05 116.97,-18.83 115.94,-18.6"/>
<polygon fill="#63b8ff" stroke="#63b8ff" points="111.17,-17.49 116.56,-16.44 112.42,-17.78 116.04,-18.63 116.04,-18.63 116.04,-18.63 112.42,-17.78 115.53,-20.82 111.17,-17.49"/>
</a>
</g>
</g>
<!-- Node4 -->
<g id="Node000004" class="node">
<title>Node4</title>
<g id="a_Node000004"><a xlink:title=" ">
<polygon fill="#e0e0e0" stroke="none" points="180,-19.25 128,-19.25 128,0 180,0 180,-19.25"/>
<text xml:space="preserve" text-anchor="middle" x="154" y="-4.8" font-family="Consolas" font-size="11.00">QColor</text>
</a>
</g>
</g>
<!-- Node1&#45;&gt;Node4 -->
<g id="edge3_Node000001_Node000004" class="edge">
<title>Node1&#45;&gt;Node4</title>
<g id="a_edge3_Node000001_Node000004"><a xlink:title=" ">
<path fill="none" stroke="#63b8ff" d="M422.04,-59.28C372.1,-51.93 272.6,-36.57 189,-19.25 187.99,-19.04 186.96,-18.82 185.93,-18.6"/>
<polygon fill="#63b8ff" stroke="#63b8ff" points="181.13,-17.52 186.51,-16.42 182.38,-17.8 186.01,-18.62 186.01,-18.62 186.01,-18.62 182.38,-17.8 185.52,-20.81 181.13,-17.52"/>
</a>
</g>
</g>
<!-- Node5 -->
<g id="Node000005" class="node">
<title>Node5</title>
<g id="a_Node000005"><a xlink:title=" ">
<polygon fill="#e0e0e0" stroke="none" points="256,-19.25 198,-19.25 198,0 256,0 256,-19.25"/>
<text xml:space="preserve" text-anchor="middle" x="227" y="-4.8" font-family="Consolas" font-size="11.00">QWidget</text>
</a>
</g>
</g>
<!-- Node1&#45;&gt;Node5 -->
<g id="edge4_Node000001_Node000005" class="edge">
<title>Node1&#45;&gt;Node5</title>
<g id="a_edge4_Node000001_Node000005"><a xlink:title=" ">
<path fill="none" stroke="#63b8ff" d="M422.44,-56.47C380.2,-46.56 305.55,-29.05 261.75,-18.78"/>
<polygon fill="#63b8ff" stroke="#63b8ff" points="256.97,-17.66 262.35,-16.61 258.22,-17.95 261.84,-18.8 261.84,-18.8 261.84,-18.8 258.22,-17.95 261.33,-20.99 256.97,-17.66"/>
</a>
</g>
</g>
<!-- Node6 -->
<g id="Node000006" class="node">
<title>Node6</title>
<g id="a_Node000006"><a xlink:title=" ">
<polygon fill="#e0e0e0" stroke="none" points="338,-19.25 274,-19.25 274,0 338,0 338,-19.25"/>
<text xml:space="preserve" text-anchor="middle" x="306" y="-4.8" font-family="Consolas" font-size="11.00">QPointer</text>
</a>
</g>
</g>
<!-- Node1&#45;&gt;Node6 -->
<g id="edge5_Node000001_Node000006" class="edge">
<title>Node1&#45;&gt;Node6</title>
<g id="a_edge5_Node000001_Node000006"><a xlink:title=" ">
<path fill="none" stroke="#63b8ff" d="M430.22,-55.32C404.44,-46.04 363.25,-31.22 335.44,-21.22"/>
<polygon fill="#63b8ff" stroke="#63b8ff" points="330.87,-19.57 336.33,-19.15 332.07,-20.01 335.57,-21.26 335.57,-21.26 335.57,-21.26 332.07,-20.01 334.81,-23.38 330.87,-19.57"/>
</a>
</g>
</g>
<!-- Node7 -->
<g id="Node000007" class="node">
<title>Node7</title>
<g id="a_Node000007"><a xlink:title=" ">
<polygon fill="#e0e0e0" stroke="none" points="444,-19.25 356,-19.25 356,0 444,0 444,-19.25"/>
<text xml:space="preserve" text-anchor="middle" x="400" y="-4.8" font-family="Consolas" font-size="11.00">QFontMetrics</text>
</a>
</g>
</g>
<!-- Node1&#45;&gt;Node7 -->
<g id="edge6_Node000001_Node000007" class="edge">
<title>Node1&#45;&gt;Node7</title>
<g id="a_edge6_Node000001_Node000007"><a xlink:title=" ">
<path fill="none" stroke="#63b8ff" d="M445.56,-55.55C436.82,-46.93 423.03,-33.34 412.92,-23.36"/>
<polygon fill="#63b8ff" stroke="#63b8ff" points="409.42,-19.92 414.56,-21.83 410.34,-20.82 412.98,-23.43 412.98,-23.43 412.98,-23.43 410.34,-20.82 411.4,-25.03 409.42,-19.92"/>
</a>
</g>
</g>
<!-- Node8 -->
<g id="Node000008" class="node">
<title>Node8</title>
<g id="a_Node000008"><a xlink:title=" ">
<polygon fill="#e0e0e0" stroke="none" points="556,-19.25 462,-19.25 462,0 556,0 556,-19.25"/>
<text xml:space="preserve" text-anchor="middle" x="509" y="-4.8" font-family="Consolas" font-size="11.00">QFontMetricsF</text>
</a>
</g>
</g>
<!-- Node1&#45;&gt;Node8 -->
<g id="edge7_Node000001_Node000008" class="edge">
<title>Node1&#45;&gt;Node8</title>
<g id="a_edge7_Node000001_Node000008"><a xlink:title=" ">
<path fill="none" stroke="#63b8ff" d="M462.59,-55.55C471.5,-46.93 485.54,-33.34 495.84,-23.36"/>
<polygon fill="#63b8ff" stroke="#63b8ff" points="499.41,-19.91 497.38,-25 498.49,-20.8 495.82,-23.39 495.82,-23.39 495.82,-23.39 498.49,-20.8 494.25,-21.77 499.41,-19.91"/>
</a>
</g>
</g>
<!-- Node9 -->
<g id="Node000009" class="node">
<title>Node9</title>
<g id="a_Node000009"><a xlink:title=" ">
<polygon fill="#e0e0e0" stroke="none" points="626,-19.25 574,-19.25 574,0 626,0 626,-19.25"/>
<text xml:space="preserve" text-anchor="middle" x="600" y="-4.8" font-family="Consolas" font-size="11.00">QMutex</text>
</a>
</g>
</g>
<!-- Node1&#45;&gt;Node9 -->
<g id="edge8_Node000001_Node000009" class="edge">
<title>Node1&#45;&gt;Node9</title>
<g id="a_edge8_Node000001_Node000009"><a xlink:title=" ">
<path fill="none" stroke="#63b8ff" d="M477.46,-55.32C502.89,-46.04 543.52,-31.22 570.96,-21.22"/>
<polygon fill="#63b8ff" stroke="#63b8ff" points="575.46,-19.58 571.53,-23.4 574.25,-20.02 570.76,-21.29 570.76,-21.29 570.76,-21.29 574.25,-20.02 569.99,-19.18 575.46,-19.58"/>
</a>
</g>
</g>
<!-- Node10 -->
<g id="Node000010" class="node">
<title>Node10</title>
<g id="a_Node000010"><a xlink:title=" ">
<polygon fill="#e0e0e0" stroke="none" points="732,-19.25 644,-19.25 644,0 732,0 732,-19.25"/>
<text xml:space="preserve" text-anchor="middle" x="688" y="-4.8" font-family="Consolas" font-size="11.00">QMutexLocker</text>
</a>
</g>
</g>
<!-- Node1&#45;&gt;Node10 -->
<g id="edge9_Node000001_Node000010" class="edge">
<title>Node1&#45;&gt;Node10</title>
<g id="a_edge9_Node000001_Node000010"><a xlink:title=" ">
<path fill="none" stroke="#63b8ff" d="M485.56,-56.69C526.51,-47.37 598.16,-31.07 644.32,-20.57"/>
<polygon fill="#63b8ff" stroke="#63b8ff" points="649.19,-19.46 644.81,-22.76 647.94,-19.74 644.31,-20.57 644.31,-20.57 644.31,-20.57 647.94,-19.74 643.81,-18.37 649.19,-19.46"/>
</a>
</g>
</g>
<!-- Node11 -->
<g id="Node000011" class="node">
<title>Node11</title>
<g id="a_Node000011"><a xlink:title=" ">
<polygon fill="#e0e0e0" stroke="none" points="838,-19.25 750,-19.25 750,0 838,0 838,-19.25"/>
<text xml:space="preserve" text-anchor="middle" x="794" y="-4.8" font-family="Consolas" font-size="11.00">QApplication</text>
</a>
</g>
</g>
<!-- Node1&#45;&gt;Node11 -->
<g id="edge10_Node000001_Node000011" class="edge">
<title>Node1&#45;&gt;Node11</title>
<g id="a_edge10_Node000001_Node000011"><a xlink:title=" ">
<path fill="none" stroke="#63b8ff" d="M485.86,-59C538.84,-50.87 648.37,-33.99 741,-19.25 742.01,-19.09 743.04,-18.93 744.07,-18.76"/>
<polygon fill="#63b8ff" stroke="#63b8ff" points="748.84,-18 744.26,-21.01 747.58,-18.2 743.9,-18.79 743.9,-18.79 743.9,-18.79 747.58,-18.2 743.55,-16.57 748.84,-18"/>
</a>
</g>
</g>
<!-- Node12 -->
<g id="Node000012" class="node">
<title>Node12</title>
<g id="a_Node000012"><a xlink:title=" ">
<polygon fill="#e0e0e0" stroke="none" points="914,-19.25 856,-19.25 856,0 914,0 914,-19.25"/>
<text xml:space="preserve" text-anchor="middle" x="885" y="-4.8" font-family="Consolas" font-size="11.00">cstdint</text>
</a>
</g>
</g>
<!-- Node1&#45;&gt;Node12 -->
<g id="edge11_Node000001_Node000012" class="edge">
<title>Node1&#45;&gt;Node12</title>
<g id="a_edge11_Node000001_Node000012"><a xlink:title=" ">
<path fill="none" stroke="#63b8ff" d="M485.75,-61.46C552.8,-56.11 713.63,-41.89 847,-19.25 848.01,-19.08 849.03,-18.9 850.06,-18.71"/>
<polygon fill="#63b8ff" stroke="#63b8ff" points="854.82,-17.78 850.35,-20.95 853.57,-18.03 849.92,-18.74 849.92,-18.74 849.92,-18.74 853.57,-18.03 849.49,-16.53 854.82,-17.78"/>
</a>
</g>
</g>
<!-- Node13 -->
<g id="Node000013" class="node">
<title>Node13</title>
<g id="a_Node000013"><a xlink:title=" ">
<polygon fill="#e0e0e0" stroke="none" points="1044,-19.25 932,-19.25 932,0 1044,0 1044,-19.25"/>
<text xml:space="preserve" text-anchor="middle" x="988" y="-4.8" font-family="Consolas" font-size="11.00">npi/GuiProps.hpp</text>
</a>
</g>
</g>
<!-- Node1&#45;&gt;Node13 -->
<g id="edge12_Node000001_Node000013" class="edge">
<title>Node1&#45;&gt;Node13</title>
<g id="a_edge12_Node000001_Node000013"><a xlink:title=" ">
<path fill="none" stroke="#63b8ff" d="M485.89,-61.25C561.74,-54.92 758.84,-37.94 923,-19.25 924.05,-19.13 925.11,-19.01 926.18,-18.88"/>
<polygon fill="#63b8ff" stroke="#63b8ff" points="931.14,-18.29 926.44,-21.12 929.87,-18.44 926.17,-18.88 926.17,-18.88 926.17,-18.88 929.87,-18.44 925.91,-16.65 931.14,-18.29"/>
</a>
</g>
</g>
</g>
</svg>

<g id="navigator" transform="translate(0 0)" fill="#404254">
  <rect fill="#f2f5e9" fill-opacity="0.5" stroke="#606060" stroke-width=".5" x="0" y="0" width="60" height="60"/>
  <use id="zoomplus" xlink:href="#zoomPlus" x="17" y="9" onmousedown="handleZoom(evt,'in')"/>
  <use id="zoomminus" xlink:href="#zoomMin" x="42" y="9" onmousedown="handleZoom(evt,'out')"/>
  <use id="reset" xlink:href="#resetDef" x="30" y="36" onmousedown="handleReset()"/>
   <use id="arrowup" xlink:href="#arrowUp" x="0" y="0" onmousedown="handlePan(0,-1)"/>
  <use id="arrowright" xlink:href="#arrowRight" x="0" y="0" onmousedown="handlePan(1,0)"/>
  <use id="arrowdown" xlink:href="#arrowDown" x="0" y="0" onmousedown="handlePan(0,1)"/>
  <use id="arrowleft" xlink:href="#arrowLeft" x="0" y="0" onmousedown="handlePan(-1,0)"/>
</g>
<svg viewBox="0 0 15 15" width="100%" height="30px" preserveAspectRatio="xMaxYMin meet">
 <g id="arrow_out" transform="scale(0.3 0.3)">
  <a xlink:href="_font_8hpp__incl_org.svg" target="_base">
   <rect id="button" ry="5" rx="5" y="6" x="6" height="38" width="38"
        fill="#f2f5e9" fill-opacity="0.5" stroke="#606060" stroke-width="1.0"/>
   <path id="arrow"
     d="M 11.500037,31.436501 C 11.940474,20.09759 22.043105,11.32322 32.158766,21.979434 L 37.068811,17.246167 C 37.068811,17.246167 37.088388,32 37.088388,32 L 22.160133,31.978069 C 22.160133,31.978069 26.997745,27.140456 26.997745,27.140456 C 18.528582,18.264221 13.291696,25.230495 11.500037,31.436501 z"
     style="fill:#404040;"/>
  </a>
 </g>
</svg>

<style type='text/css'>
<![CDATA[
[data-mouse-over-selected='false'] { opacity: 0.7; }
[data-mouse-over-selected='true']  { opacity: 1.0; }
]]>
</style>
<script type="application/ecmascript"><![CDATA[
document.addEventListener('DOMContentLoaded', (event) => {
  highlightEdges();
  highlightAdjacentNodes();
});
]]></script>
</svg>
