<?xml version="1.0" encoding="UTF-8" standalone="no"?>
<!DOCTYPE svg PUBLIC "-//W3C//DTD SVG 1.1//EN"
 "http://www.w3.org/Graphics/SVG/1.1/DTD/svg11.dtd">
<!-- Generated by graphviz version 14.0.0 (20250921.2048)
 -->
<!-- Title: npi::RefPtr::operator bool Pages: 1 -->
<svg width="512pt" height="27pt"
 viewBox="0.00 0.00 512.00 27.00" xmlns="http://www.w3.org/2000/svg" xmlns:xlink="http://www.w3.org/1999/xlink">
<g id="graph0" class="graph" transform="scale(1 1) rotate(0) translate(4 23.25)">
<title>npi::RefPtr::operator bool</title>
<!-- Node1 -->
<g id="Node000001" class="node">
<title>Node1</title>
<g id="a_Node000001"><a xlink:title="Explicit boolean conversion operator (e.g. if(refPtr){...}).">
<polygon fill="#999999" stroke="none" points="172,-19.25 0,-19.25 0,0 172,0 172,-19.25"/>
<text xml:space="preserve" text-anchor="start" x="8" y="-5.8" font-family="Consolas" font-weight="bold" font-size="11.00">npi::RefPtr::operator bool</text>
</a>
</g>
</g>
<!-- Node2 -->
<g id="Node000002" class="node">
<title>Node2</title>
<g id="a_Node000002"><a xlink:href="../../d2/d0d/classnpi_1_1_ref_ptr.html#a665c4ac45f2a60a261d1fe6f335eb7be" target="_top" xlink:title="Check whether the RefPtr currently holds a valid object.">
<polygon fill="white" stroke="none" points="350,-19.25 208,-19.25 208,0 350,0 350,-19.25"/>
<text xml:space="preserve" text-anchor="middle" x="279" y="-4.8" font-family="Consolas" font-size="11.00">npi::RefPtr::isValid_</text>
</a>
</g>
</g>
<!-- Node1&#45;&gt;Node2 -->
<g id="edge1_Node000001_Node000002" class="edge">
<title>Node1&#45;&gt;Node2</title>
<g id="a_edge1_Node000001_Node000002"><a xlink:title=" ">
<path fill="none" stroke="#63b8ff" d="M171.89,-9.62C181.95,-9.62 192.18,-9.62 202.11,-9.62"/>
<polygon fill="#63b8ff" stroke="#63b8ff" points="207.03,-9.63 202.03,-11.88 205.75,-9.63 202.03,-9.63 202.03,-9.63 202.03,-9.63 205.75,-9.63 202.03,-7.38 207.03,-9.63"/>
</a>
</g>
</g>
<!-- Node3 -->
<g id="Node000003" class="node">
<title>Node3</title>
<g id="a_Node000003"><a xlink:href="../../d2/d0d/classnpi_1_1_ref_ptr.html#a648720bbca1c6b1ebe9e6bd14176e692" target="_top" xlink:title="Retrieve a raw pointer to the managed object, if any.">
<polygon fill="white" stroke="none" points="504,-19.25 386,-19.25 386,0 504,0 504,-19.25"/>
<text xml:space="preserve" text-anchor="middle" x="445" y="-4.8" font-family="Consolas" font-size="11.00">npi::RefPtr::get_</text>
</a>
</g>
</g>
<!-- Node2&#45;&gt;Node3 -->
<g id="edge2_Node000002_Node000003" class="edge">
<title>Node2&#45;&gt;Node3</title>
<g id="a_edge2_Node000002_Node000003"><a xlink:title=" ">
<path fill="none" stroke="#63b8ff" d="M349.55,-9.62C359.67,-9.62 370.05,-9.62 380.06,-9.62"/>
<polygon fill="#63b8ff" stroke="#63b8ff" points="385.01,-9.63 380.01,-11.88 383.73,-9.63 380.01,-9.63 380.01,-9.63 380.01,-9.63 383.73,-9.63 380.01,-7.38 385.01,-9.63"/>
</a>
</g>
</g>
</g>
</svg>
