<?xml version="1.0" encoding="UTF-8" standalone="no"?>
<!DOCTYPE svg PUBLIC "-//W3C//DTD SVG 1.1//EN"
 "http://www.w3.org/Graphics/SVG/1.1/DTD/svg11.dtd">
<!-- Generated by graphviz version 14.0.0 (20250921.2048)
 -->
<!-- Title: npi::RefPtr::operator== Pages: 1 -->
<svg width="352pt" height="82pt"
 viewBox="0.00 0.00 352.00 82.00" xmlns="http://www.w3.org/2000/svg" xmlns:xlink="http://www.w3.org/1999/xlink">

<svg id="main" version="1.1" xmlns="http://www.w3.org/2000/svg" xmlns:xlink="http://www.w3.org/1999/xlink" xml:space="preserve">

<style type="text/css"><![CDATA[
.node, .edge {opacity: 0.7;}
.node.selected, .edge.selected {opacity: 1;}
.edge:hover path { stroke: red; }
.edge:hover polygon { stroke: red; fill: red; }
]]></style>
<script type="application/ecmascript" xlink:href="../../svg.min.js"/>
<svg id="graph" class="graph">
<g id="graph0" class="graph" transform="scale(1 1) rotate(0) translate(4 78.25)">
<title>npi::RefPtr::operator==</title>
<!-- Node1 -->
<g id="Node000001" class="node">
<title>Node1</title>
<g id="a_Node000001"><a xlink:title="Compare this RefPtr to a RefPtrHost for equality.">
<polygon fill="#999999" stroke="none" points="154,-46.25 0,-46.25 0,-27 154,-27 154,-46.25"/>
<text xml:space="preserve" text-anchor="start" x="8" y="-32.8" font-family="Consolas" font-weight="bold" font-size="11.00">npi::RefPtr::operator==</text>
</a>
</g>
</g>
<!-- Node2 -->
<g id="Node000002" class="node">
<title>Node2</title>
<g id="a_Node000002"><a xlink:href="../../d2/d0d/classnpi_1_1_ref_ptr.html#a648720bbca1c6b1ebe9e6bd14176e692" target="_top" xlink:title="Retrieve a raw pointer to the managed object, if any.">
<polygon fill="white" stroke="none" points="326,-74.25 208,-74.25 208,-55 326,-55 326,-74.25"/>
<text xml:space="preserve" text-anchor="middle" x="267" y="-59.8" font-family="Consolas" font-size="11.00">npi::RefPtr::get_</text>
</a>
</g>
</g>
<!-- Node1&#45;&gt;Node2 -->
<g id="edge1_Node000001_Node000002" class="edge">
<title>Node1&#45;&gt;Node2</title>
<g id="a_edge1_Node000001_Node000002"><a xlink:title=" ">
<path fill="none" stroke="#63b8ff" d="M142.44,-46.22C161.8,-49.11 183.02,-52.27 202.33,-55.14"/>
<polygon fill="#63b8ff" stroke="#63b8ff" points="207.06,-55.85 201.78,-57.34 205.79,-55.66 202.11,-55.11 202.11,-55.11 202.11,-55.11 205.79,-55.66 202.44,-52.88 207.06,-55.85"/>
</a>
</g>
</g>
<!-- Node3 -->
<g id="Node000003" class="node">
<title>Node3</title>
<g id="a_Node000003"><a xlink:href="../../d2/d0d/classnpi_1_1_ref_ptr.html#a9a90d6c7f87e0b3d7dc0ecc2a5bc4980" target="_top" xlink:title="Friend declarations of RefPtrHost class.">
<polygon fill="white" stroke="none" points="344,-19.25 190,-19.25 190,0 344,0 344,-19.25"/>
<text xml:space="preserve" text-anchor="middle" x="267" y="-4.8" font-family="Consolas" font-size="11.00">npi::RefPtr::RefPtrHost</text>
</a>
</g>
</g>
<!-- Node1&#45;&gt;Node3 -->
<g id="edge2_Node000001_Node000003" class="edge">
<title>Node1&#45;&gt;Node3</title>
<g id="a_edge2_Node000001_Node000003"><a xlink:title=" ">
<path fill="none" stroke="#63b8ff" d="M144.81,-27.03C160.51,-24.78 177.31,-22.36 193.26,-20.07"/>
<polygon fill="#63b8ff" stroke="#63b8ff" points="197.88,-19.41 193.25,-22.35 196.61,-19.59 192.93,-20.12 192.93,-20.12 192.93,-20.12 196.61,-19.59 192.61,-17.89 197.88,-19.41"/>
</a>
</g>
</g>
<!-- Node3&#45;&gt;Node3 -->
<g id="edge3_Node000003_Node000003" class="edge">
<title>Node3&#45;&gt;Node3</title>
<g id="a_edge3_Node000003_Node000003"><a xlink:title=" ">
<path fill="none" stroke="#63b8ff" d="M238.19,-18.97C223.26,-27.74 232.86,-37.25 267,-37.25 296.34,-37.25 307.56,-30.22 300.65,-22.68"/>
<polygon fill="#63b8ff" stroke="#63b8ff" points="296.77,-19.71 302.11,-20.96 297.79,-20.49 300.74,-22.75 300.74,-22.75 300.74,-22.75 297.79,-20.49 299.37,-24.53 296.77,-19.71"/>
</a>
</g>
</g>
</g>
</svg>
</svg>

<style type='text/css'>
<![CDATA[
[data-mouse-over-selected='false'] { opacity: 0.7; }
[data-mouse-over-selected='true']  { opacity: 1.0; }
]]>
</style>
<script type="application/ecmascript"><![CDATA[
document.addEventListener('DOMContentLoaded', (event) => {
  highlightEdges();
  highlightAdjacentNodes();
});
]]></script>
</svg>
