<?xml version="1.0" encoding="UTF-8" standalone="no"?>
<!DOCTYPE svg PUBLIC "-//W3C//DTD SVG 1.1//EN"
 "http://www.w3.org/Graphics/SVG/1.1/DTD/svg11.dtd">
<!-- Generated by graphviz version 14.0.0 (20250921.2048)
 -->
<!-- Title: npi::RefPtr::RefPtr Pages: 1 -->
<svg width="476pt" height="82pt"
 viewBox="0.00 0.00 476.00 82.00" xmlns="http://www.w3.org/2000/svg" xmlns:xlink="http://www.w3.org/1999/xlink">
<g id="graph0" class="graph" transform="scale(1 1) rotate(0) translate(4 78.25)">
<title>npi::RefPtr::RefPtr</title>
<!-- Node1 -->
<g id="Node000001" class="node">
<title>Node1</title>
<g id="a_Node000001"><a xlink:title="Polymorphic non&#45;explicit converting copy constructor.">
<polygon fill="#999999" stroke="none" points="130,-38.25 0,-38.25 0,-19 130,-19 130,-38.25"/>
<text xml:space="preserve" text-anchor="start" x="8" y="-24.8" font-family="Consolas" font-weight="bold" font-size="11.00">npi::RefPtr::RefPtr</text>
</a>
</g>
</g>
<!-- Node2 -->
<g id="Node000002" class="node">
<title>Node2</title>
<g id="a_Node000002"><a xlink:href="../../d2/d0d/classnpi_1_1_ref_ptr.html#a161a8052754985bb8024c19c06fd9206" target="_top" xlink:title="Friend declarations of RefPtr class with type as U. This makes any RefPtr class object a friend of an...">
<polygon fill="white" stroke="none" points="468,-56.25 338,-56.25 338,-37 468,-37 468,-56.25"/>
<text xml:space="preserve" text-anchor="middle" x="403" y="-41.8" font-family="Consolas" font-size="11.00">npi::RefPtr::RefPtr</text>
</a>
</g>
</g>
<!-- Node1&#45;&gt;Node2 -->
<g id="edge1_Node000001_Node000002" class="edge">
<title>Node1&#45;&gt;Node2</title>
<g id="a_edge1_Node000001_Node000002"><a xlink:title=" ">
<path fill="none" stroke="#63b8ff" d="M129.99,-32.05C187.79,-35.15 272.68,-39.7 332.21,-42.89"/>
<polygon fill="#63b8ff" stroke="#63b8ff" points="337.03,-43.14 331.92,-45.12 335.75,-43.08 332.04,-42.88 332.04,-42.88 332.04,-42.88 335.75,-43.08 332.16,-40.63 337.03,-43.14"/>
</a>
</g>
</g>
<!-- Node3 -->
<g id="Node000003" class="node">
<title>Node3</title>
<g id="a_Node000003"><a xlink:href="../../d2/d0d/classnpi_1_1_ref_ptr.html#a57c7b67bb988f7040bb2efa535421153" target="_top" xlink:title="Internal helper to assign from another polymorphically related RefPtr object.">
<polygon fill="white" stroke="none" points="302,-19.25 166,-19.25 166,0 302,0 302,-19.25"/>
<text xml:space="preserve" text-anchor="middle" x="234" y="-4.8" font-family="Consolas" font-size="11.00">npi::RefPtr::assign_</text>
</a>
</g>
</g>
<!-- Node1&#45;&gt;Node3 -->
<g id="edge3_Node000001_Node000003" class="edge">
<title>Node1&#45;&gt;Node3</title>
<g id="a_edge3_Node000001_Node000003"><a xlink:title=" ">
<path fill="none" stroke="#63b8ff" d="M129.61,-21.39C139.63,-20.25 150.05,-19.06 160.26,-17.9"/>
<polygon fill="#63b8ff" stroke="#63b8ff" points="165.02,-17.36 160.31,-20.16 163.75,-17.5 160.06,-17.92 160.06,-17.92 160.06,-17.92 163.75,-17.5 159.8,-15.69 165.02,-17.36"/>
</a>
</g>
</g>
<!-- Node2&#45;&gt;Node2 -->
<g id="edge2_Node000002_Node000002" class="edge">
<title>Node2&#45;&gt;Node2</title>
<g id="a_edge2_Node000002_Node000002"><a xlink:title=" ">
<path fill="none" stroke="#63b8ff" d="M377.38,-55.97C364.09,-64.74 372.63,-74.25 403,-74.25 428.62,-74.25 438.71,-67.48 433.25,-60.09"/>
<polygon fill="#63b8ff" stroke="#63b8ff" points="429.53,-56.78 434.76,-58.42 430.49,-57.63 433.26,-60.1 433.26,-60.1 433.26,-60.1 430.49,-57.63 431.77,-61.78 429.53,-56.78"/>
</a>
</g>
</g>
<!-- Node3&#45;&gt;Node2 -->
<g id="edge4_Node000003_Node000002" class="edge">
<title>Node3&#45;&gt;Node2</title>
<g id="a_edge4_Node000003_Node000002"><a xlink:title=" ">
<path fill="none" stroke="#63b8ff" d="M278.44,-19.25C301.25,-24.3 329.28,-30.51 352.88,-35.74"/>
<polygon fill="#63b8ff" stroke="#63b8ff" points="357.59,-36.78 352.22,-37.9 356.34,-36.51 352.7,-35.7 352.7,-35.7 352.7,-35.7 356.34,-36.51 353.19,-33.51 357.59,-36.78"/>
</a>
</g>
</g>
<!-- Node4 -->
<g id="Node000004" class="node">
<title>Node4</title>
<g id="a_Node000004"><a xlink:href="../../d2/d0d/classnpi_1_1_ref_ptr.html#a648720bbca1c6b1ebe9e6bd14176e692" target="_top" xlink:title="Retrieve a raw pointer to the managed object, if any.">
<polygon fill="white" stroke="none" points="462,-19.25 344,-19.25 344,0 462,0 462,-19.25"/>
<text xml:space="preserve" text-anchor="middle" x="403" y="-4.8" font-family="Consolas" font-size="11.00">npi::RefPtr::get_</text>
</a>
</g>
</g>
<!-- Node3&#45;&gt;Node4 -->
<g id="edge5_Node000003_Node000004" class="edge">
<title>Node3&#45;&gt;Node4</title>
<g id="a_edge5_Node000003_Node000004"><a xlink:title=" ">
<path fill="none" stroke="#63b8ff" d="M301.96,-9.62C313.86,-9.62 326.23,-9.62 338.04,-9.62"/>
<polygon fill="#63b8ff" stroke="#63b8ff" points="342.95,-9.63 337.95,-11.88 341.67,-9.63 337.95,-9.63 337.95,-9.63 337.95,-9.63 341.67,-9.63 337.95,-7.38 342.95,-9.63"/>
</a>
</g>
</g>
</g>
</svg>
