<?xml version="1.0" encoding="UTF-8" standalone="no"?>
<!DOCTYPE svg PUBLIC "-//W3C//DTD SVG 1.1//EN"
 "http://www.w3.org/Graphics/SVG/1.1/DTD/svg11.dtd">
<!-- Generated by graphviz version 14.0.0 (20250921.2048)
 -->
<!-- Title: npi::RefPtr::swap_ Pages: 1 -->
<svg width="452pt" height="73pt"
 viewBox="0.00 0.00 452.00 73.00" xmlns="http://www.w3.org/2000/svg" xmlns:xlink="http://www.w3.org/1999/xlink">
<g id="graph0" class="graph" transform="scale(1 1) rotate(0) translate(4 69.25)">
<title>npi::RefPtr::swap_</title>
<!-- Node1 -->
<g id="Node000001" class="node">
<title>Node1</title>
<g id="a_Node000001"><a xlink:title="Member swap function.">
<polygon fill="#999999" stroke="none" points="124,-47.25 0,-47.25 0,-28 124,-28 124,-47.25"/>
<text xml:space="preserve" text-anchor="start" x="8" y="-33.8" font-family="Consolas" font-weight="bold" font-size="11.00">npi::RefPtr::swap_</text>
</a>
</g>
</g>
<!-- Node2 -->
<g id="Node000002" class="node">
<title>Node2</title>
<g id="a_Node000002"><a xlink:href="../../d2/d0d/classnpi_1_1_ref_ptr.html#a161a8052754985bb8024c19c06fd9206" target="_top" xlink:title="Friend declarations of RefPtr class with type as U. This makes any RefPtr class object a friend of an...">
<polygon fill="white" stroke="none" points="444,-47.25 314,-47.25 314,-28 444,-28 444,-47.25"/>
<text xml:space="preserve" text-anchor="middle" x="379" y="-32.8" font-family="Consolas" font-size="11.00">npi::RefPtr::RefPtr</text>
</a>
</g>
</g>
<!-- Node1&#45;&gt;Node2 -->
<g id="edge1_Node000001_Node000002" class="edge">
<title>Node1&#45;&gt;Node2</title>
<g id="a_edge1_Node000001_Node000002"><a xlink:title=" ">
<path fill="none" stroke="#63b8ff" d="M124,-44.15C135.92,-45.18 148.34,-46.09 160,-46.62 212.39,-49.05 225.61,-48.98 278,-46.62 287.75,-46.19 298.03,-45.51 308.12,-44.72"/>
<polygon fill="#63b8ff" stroke="#63b8ff" points="312.83,-44.34 308.02,-46.98 311.55,-44.44 307.84,-44.74 307.84,-44.74 307.84,-44.74 311.55,-44.44 307.66,-42.5 312.83,-44.34"/>
</a>
</g>
</g>
<!-- Node3 -->
<g id="Node000003" class="node">
<title>Node3</title>
<g id="a_Node000003"><a xlink:href="../../d2/d0d/classnpi_1_1_ref_ptr.html#a7c41e7b8deba52875b45571109c576de" target="_top" xlink:title="Swap the contents of two RefPtr objects.">
<polygon fill="white" stroke="none" points="278,-19.25 160,-19.25 160,0 278,0 278,-19.25"/>
<text xml:space="preserve" text-anchor="middle" x="219" y="-4.8" font-family="Consolas" font-size="11.00">npi::RefPtr::swap</text>
</a>
</g>
</g>
<!-- Node1&#45;&gt;Node3 -->
<g id="edge3_Node000001_Node000003" class="edge">
<title>Node1&#45;&gt;Node3</title>
<g id="a_edge3_Node000001_Node000003"><a xlink:title=" ">
<path fill="none" stroke="#63b8ff" d="M115.91,-28.07C129.72,-25.57 144.7,-22.87 158.81,-20.32"/>
<polygon fill="#63b8ff" stroke="#63b8ff" points="163.6,-19.45 159.08,-22.55 162.34,-19.68 158.68,-20.34 158.68,-20.34 158.68,-20.34 162.34,-19.68 158.28,-18.13 163.6,-19.45"/>
</a>
</g>
</g>
<!-- Node2&#45;&gt;Node2 -->
<g id="edge2_Node000002_Node000002" class="edge">
<title>Node2&#45;&gt;Node2</title>
<g id="a_edge2_Node000002_Node000002"><a xlink:title=" ">
<path fill="none" stroke="#63b8ff" d="M354.74,-46.97C342.16,-55.74 350.25,-65.25 379,-65.25 403.26,-65.25 412.8,-58.48 407.64,-51.09"/>
<polygon fill="#63b8ff" stroke="#63b8ff" points="404.14,-47.8 409.33,-49.59 405.08,-48.68 407.79,-51.23 407.79,-51.23 407.79,-51.23 405.08,-48.68 406.24,-52.87 404.14,-47.8"/>
</a>
</g>
</g>
<!-- Node3&#45;&gt;Node2 -->
<g id="edge4_Node000003_Node000002" class="edge">
<title>Node3&#45;&gt;Node2</title>
<g id="a_edge4_Node000003_Node000002"><a xlink:title=" ">
<path fill="none" stroke="#63b8ff" d="M273.93,-19.18C288.01,-21.68 303.28,-24.38 317.67,-26.93"/>
<polygon fill="#63b8ff" stroke="#63b8ff" points="322.57,-27.8 317.26,-29.15 321.31,-27.58 317.65,-26.93 317.65,-26.93 317.65,-26.93 321.31,-27.58 318.04,-24.71 322.57,-27.8"/>
</a>
</g>
</g>
<!-- Node3&#45;&gt;Node3 -->
<g id="edge5_Node000003_Node000003" class="edge">
<title>Node3&#45;&gt;Node3</title>
<g id="a_edge5_Node000003_Node000003"><a xlink:title=" ">
<path fill="none" stroke="#63b8ff" d="M195.2,-18.97C182.85,-27.74 190.79,-37.25 219,-37.25 242.8,-37.25 252.17,-30.48 247.1,-23.09"/>
<polygon fill="#63b8ff" stroke="#63b8ff" points="243.68,-19.81 248.85,-21.65 244.61,-20.7 247.29,-23.27 247.29,-23.27 247.29,-23.27 244.61,-20.7 245.73,-24.89 243.68,-19.81"/>
</a>
</g>
</g>
</g>
</svg>
