<?xml version="1.0" encoding="UTF-8" standalone="no"?>
<!DOCTYPE svg PUBLIC "-//W3C//DTD SVG 1.1//EN"
 "http://www.w3.org/Graphics/SVG/1.1/DTD/svg11.dtd">
<!-- Generated by graphviz version 14.0.0 (20250921.2048)
 -->
<!-- Title: npi::RefPtr::operator= Pages: 1 -->
<svg width="322pt" height="45pt"
 viewBox="0.00 0.00 322.00 45.00" xmlns="http://www.w3.org/2000/svg" xmlns:xlink="http://www.w3.org/1999/xlink">
<g id="graph0" class="graph" transform="scale(1 1) rotate(0) translate(4 41.25)">
<title>npi::RefPtr::operator=</title>
<!-- Node1 -->
<g id="Node000001" class="node">
<title>Node1</title>
<g id="a_Node000001"><a xlink:title="Default Move assignment.">
<polygon fill="#999999" stroke="none" points="148,-19.25 0,-19.25 0,0 148,0 148,-19.25"/>
<text xml:space="preserve" text-anchor="start" x="8" y="-5.8" font-family="Consolas" font-weight="bold" font-size="11.00">npi::RefPtr::operator=</text>
</a>
</g>
</g>
<!-- Node2 -->
<g id="Node000002" class="node">
<title>Node2</title>
<g id="a_Node000002"><a xlink:href="../../d2/d0d/classnpi_1_1_ref_ptr.html#a161a8052754985bb8024c19c06fd9206" target="_top" xlink:title="Friend declarations of RefPtr class with type as U. This makes any RefPtr class object a friend of an...">
<polygon fill="white" stroke="none" points="314,-19.25 184,-19.25 184,0 314,0 314,-19.25"/>
<text xml:space="preserve" text-anchor="middle" x="249" y="-4.8" font-family="Consolas" font-size="11.00">npi::RefPtr::RefPtr</text>
</a>
</g>
</g>
<!-- Node1&#45;&gt;Node2 -->
<g id="edge1_Node000001_Node000002" class="edge">
<title>Node1&#45;&gt;Node2</title>
<g id="a_edge1_Node000001_Node000002"><a xlink:title=" ">
<path fill="none" stroke="#63b8ff" d="M147.87,-9.62C157.81,-9.62 168,-9.62 177.89,-9.62"/>
<polygon fill="#63b8ff" stroke="#63b8ff" points="182.78,-9.63 177.78,-11.88 181.5,-9.63 177.78,-9.63 177.78,-9.63 177.78,-9.63 181.5,-9.63 177.78,-7.38 182.78,-9.63"/>
</a>
</g>
</g>
<!-- Node2&#45;&gt;Node2 -->
<g id="edge2_Node000002_Node000002" class="edge">
<title>Node2&#45;&gt;Node2</title>
<g id="a_edge2_Node000002_Node000002"><a xlink:title=" ">
<path fill="none" stroke="#63b8ff" d="M222.47,-18.97C208.71,-27.74 217.55,-37.25 249,-37.25 276.02,-37.25 286.35,-30.22 280,-22.68"/>
<polygon fill="#63b8ff" stroke="#63b8ff" points="276.47,-19.74 281.75,-21.21 277.45,-20.56 280.31,-22.94 280.31,-22.94 280.31,-22.94 277.45,-20.56 278.87,-24.67 276.47,-19.74"/>
</a>
</g>
</g>
</g>
</svg>
