<?xml version="1.0" encoding="UTF-8" standalone="no"?>
<!DOCTYPE svg PUBLIC "-//W3C//DTD SVG 1.1//EN"
 "http://www.w3.org/Graphics/SVG/1.1/DTD/svg11.dtd">
<!-- Generated by graphviz version 14.0.0 (20250921.2048)
 -->
<!-- Title: npi::RefPtr::assign_ Pages: 1 -->
<svg width="328pt" height="64pt"
 viewBox="0.00 0.00 328.00 64.00" xmlns="http://www.w3.org/2000/svg" xmlns:xlink="http://www.w3.org/1999/xlink">

<svg id="main" version="1.1" xmlns="http://www.w3.org/2000/svg" xmlns:xlink="http://www.w3.org/1999/xlink" xml:space="preserve">

<style type="text/css"><![CDATA[
.node, .edge {opacity: 0.7;}
.node.selected, .edge.selected {opacity: 1;}
.edge:hover path { stroke: red; }
.edge:hover polygon { stroke: red; fill: red; }
]]></style>
<script type="application/ecmascript" xlink:href="../../svg.min.js"/>
<svg id="graph" class="graph">
<g id="graph0" class="graph" transform="scale(1 1) rotate(0) translate(4 60.25)">
<title>npi::RefPtr::assign_</title>
<!-- Node1 -->
<g id="Node000001" class="node">
<title>Node1</title>
<g id="a_Node000001"><a xlink:title="Internal helper to assign from another polymorphically related RefPtr object.">
<polygon fill="#999999" stroke="none" points="320,-37.25 184,-37.25 184,-18 320,-18 320,-37.25"/>
<text xml:space="preserve" text-anchor="start" x="192" y="-23.8" font-family="Consolas" font-weight="bold" font-size="11.00">npi::RefPtr::assign_</text>
</a>
</g>
</g>
<!-- Node2 -->
<g id="Node000002" class="node">
<title>Node2</title>
<g id="a_Node000002"><a xlink:href="../../d2/d0d/classnpi_1_1_ref_ptr.html#a9334ee21405f9c5cb68cb370e2ef7e55" target="_top" xlink:title="Polymorphic non&#45;explicit converting copy constructor.">
<polygon fill="white" stroke="none" points="139,-56.25 9,-56.25 9,-37 139,-37 139,-56.25"/>
<text xml:space="preserve" text-anchor="middle" x="74" y="-41.8" font-family="Consolas" font-size="11.00">npi::RefPtr::RefPtr</text>
</a>
</g>
</g>
<!-- Node1&#45;&gt;Node2 -->
<g id="edge1_Node000001_Node000002" class="edge">
<title>Node1&#45;&gt;Node2</title>
<g id="a_edge1_Node000001_Node000002"><a xlink:title=" ">
<path fill="none" stroke="#63b8ff" d="M178.24,-35.48C165.17,-36.89 151.63,-38.35 138.84,-39.73"/>
<polygon fill="#63b8ff" stroke="#63b8ff" points="183,-34.97 178.27,-37.74 181.73,-35.1 178.03,-35.5 178.03,-35.5 178.03,-35.5 181.73,-35.1 177.79,-33.27 183,-34.97"/>
</a>
</g>
</g>
<!-- Node3 -->
<g id="Node000003" class="node">
<title>Node3</title>
<g id="a_Node000003"><a xlink:href="../../d2/d0d/classnpi_1_1_ref_ptr.html#ac2560d9e777dbdb7befe0558c1a20e23" target="_top" xlink:title="Polymorphic assignment operator.">
<polygon fill="white" stroke="none" points="148,-19.25 0,-19.25 0,0 148,0 148,-19.25"/>
<text xml:space="preserve" text-anchor="middle" x="74" y="-4.8" font-family="Consolas" font-size="11.00">npi::RefPtr::operator=</text>
</a>
</g>
</g>
<!-- Node1&#45;&gt;Node3 -->
<g id="edge2_Node000001_Node000003" class="edge">
<title>Node1&#45;&gt;Node3</title>
<g id="a_edge2_Node000001_Node000003"><a xlink:title=" ">
<path fill="none" stroke="#63b8ff" d="M178.05,-20.16C168.09,-19.15 157.87,-18.1 147.91,-17.08"/>
<polygon fill="#63b8ff" stroke="#63b8ff" points="183,-20.67 177.8,-22.4 181.72,-20.54 178.02,-20.16 178.02,-20.16 178.02,-20.16 181.72,-20.54 178.25,-17.92 183,-20.67"/>
</a>
</g>
</g>
</g>
</svg>
</svg>

<style type='text/css'>
<![CDATA[
[data-mouse-over-selected='false'] { opacity: 0.7; }
[data-mouse-over-selected='true']  { opacity: 1.0; }
]]>
</style>
<script type="application/ecmascript"><![CDATA[
document.addEventListener('DOMContentLoaded', (event) => {
  highlightEdges();
  highlightAdjacentNodes();
});
]]></script>
</svg>
