<?xml version="1.0" encoding="UTF-8" standalone="no"?>
<!DOCTYPE svg PUBLIC "-//W3C//DTD SVG 1.1//EN"
 "http://www.w3.org/Graphics/SVG/1.1/DTD/svg11.dtd">
<!-- Generated by graphviz version 14.0.0 (20250921.2048)
 -->
<!-- Title: npi::RefPtr::operator= Pages: 1 -->
<svg width="494pt" height="82pt"
 viewBox="0.00 0.00 494.00 82.00" xmlns="http://www.w3.org/2000/svg" xmlns:xlink="http://www.w3.org/1999/xlink">
<g id="graph0" class="graph" transform="scale(1 1) rotate(0) translate(4 78.25)">
<title>npi::RefPtr::operator=</title>
<!-- Node1 -->
<g id="Node000001" class="node">
<title>Node1</title>
<g id="a_Node000001"><a xlink:title="Polymorphic assignment operator.">
<polygon fill="#999999" stroke="none" points="148,-38.25 0,-38.25 0,-19 148,-19 148,-38.25"/>
<text xml:space="preserve" text-anchor="start" x="8" y="-24.8" font-family="Consolas" font-weight="bold" font-size="11.00">npi::RefPtr::operator=</text>
</a>
</g>
</g>
<!-- Node2 -->
<g id="Node000002" class="node">
<title>Node2</title>
<g id="a_Node000002"><a xlink:href="../../d2/d0d/classnpi_1_1_ref_ptr.html#a161a8052754985bb8024c19c06fd9206" target="_top" xlink:title="Friend declarations of RefPtr class with type as U. This makes any RefPtr class object a friend of an...">
<polygon fill="white" stroke="none" points="486,-56.25 356,-56.25 356,-37 486,-37 486,-56.25"/>
<text xml:space="preserve" text-anchor="middle" x="421" y="-41.8" font-family="Consolas" font-size="11.00">npi::RefPtr::RefPtr</text>
</a>
</g>
</g>
<!-- Node1&#45;&gt;Node2 -->
<g id="edge1_Node000001_Node000002" class="edge">
<title>Node1&#45;&gt;Node2</title>
<g id="a_edge1_Node000001_Node000002"><a xlink:title=" ">
<path fill="none" stroke="#63b8ff" d="M147.74,-32.42C207.38,-35.53 291.24,-39.91 350.09,-42.98"/>
<polygon fill="#63b8ff" stroke="#63b8ff" points="354.84,-43.23 349.73,-45.21 353.56,-43.16 349.85,-42.96 349.85,-42.96 349.85,-42.96 353.56,-43.16 349.97,-40.72 354.84,-43.23"/>
</a>
</g>
</g>
<!-- Node3 -->
<g id="Node000003" class="node">
<title>Node3</title>
<g id="a_Node000003"><a xlink:href="../../d2/d0d/classnpi_1_1_ref_ptr.html#a57c7b67bb988f7040bb2efa535421153" target="_top" xlink:title="Internal helper to assign from another polymorphically related RefPtr object.">
<polygon fill="white" stroke="none" points="320,-19.25 184,-19.25 184,0 320,0 320,-19.25"/>
<text xml:space="preserve" text-anchor="middle" x="252" y="-4.8" font-family="Consolas" font-size="11.00">npi::RefPtr::assign_</text>
</a>
</g>
</g>
<!-- Node1&#45;&gt;Node3 -->
<g id="edge3_Node000001_Node000003" class="edge">
<title>Node1&#45;&gt;Node3</title>
<g id="a_edge3_Node000001_Node000003"><a xlink:title=" ">
<path fill="none" stroke="#63b8ff" d="M147.86,-20.76C157.8,-19.69 168.01,-18.58 177.96,-17.51"/>
<polygon fill="#63b8ff" stroke="#63b8ff" points="182.91,-16.98 178.18,-19.75 181.63,-17.11 177.94,-17.51 177.94,-17.51 177.94,-17.51 181.63,-17.11 177.7,-15.28 182.91,-16.98"/>
</a>
</g>
</g>
<!-- Node2&#45;&gt;Node2 -->
<g id="edge2_Node000002_Node000002" class="edge">
<title>Node2&#45;&gt;Node2</title>
<g id="a_edge2_Node000002_Node000002"><a xlink:title=" ">
<path fill="none" stroke="#63b8ff" d="M395.38,-55.97C382.09,-64.74 390.63,-74.25 421,-74.25 446.62,-74.25 456.71,-67.48 451.25,-60.09"/>
<polygon fill="#63b8ff" stroke="#63b8ff" points="447.53,-56.78 452.76,-58.42 448.49,-57.63 451.26,-60.1 451.26,-60.1 451.26,-60.1 448.49,-57.63 449.77,-61.78 447.53,-56.78"/>
</a>
</g>
</g>
<!-- Node3&#45;&gt;Node2 -->
<g id="edge4_Node000003_Node000002" class="edge">
<title>Node3&#45;&gt;Node2</title>
<g id="a_edge4_Node000003_Node000002"><a xlink:title=" ">
<path fill="none" stroke="#63b8ff" d="M296.44,-19.25C319.25,-24.3 347.28,-30.51 370.88,-35.74"/>
<polygon fill="#63b8ff" stroke="#63b8ff" points="375.59,-36.78 370.22,-37.9 374.34,-36.51 370.7,-35.7 370.7,-35.7 370.7,-35.7 374.34,-36.51 371.19,-33.51 375.59,-36.78"/>
</a>
</g>
</g>
<!-- Node4 -->
<g id="Node000004" class="node">
<title>Node4</title>
<g id="a_Node000004"><a xlink:href="../../d2/d0d/classnpi_1_1_ref_ptr.html#a648720bbca1c6b1ebe9e6bd14176e692" target="_top" xlink:title="Retrieve a raw pointer to the managed object, if any.">
<polygon fill="white" stroke="none" points="480,-19.25 362,-19.25 362,0 480,0 480,-19.25"/>
<text xml:space="preserve" text-anchor="middle" x="421" y="-4.8" font-family="Consolas" font-size="11.00">npi::RefPtr::get_</text>
</a>
</g>
</g>
<!-- Node3&#45;&gt;Node4 -->
<g id="edge5_Node000003_Node000004" class="edge">
<title>Node3&#45;&gt;Node4</title>
<g id="a_edge5_Node000003_Node000004"><a xlink:title=" ">
<path fill="none" stroke="#63b8ff" d="M319.96,-9.62C331.86,-9.62 344.23,-9.62 356.04,-9.62"/>
<polygon fill="#63b8ff" stroke="#63b8ff" points="360.95,-9.63 355.95,-11.88 359.67,-9.63 355.95,-9.63 355.95,-9.63 355.95,-9.63 359.67,-9.63 355.95,-7.38 360.95,-9.63"/>
</a>
</g>
</g>
</g>
</svg>
