<?xml version="1.0" encoding="UTF-8" standalone="no"?>
<!DOCTYPE svg PUBLIC "-//W3C//DTD SVG 1.1//EN"
 "http://www.w3.org/Graphics/SVG/1.1/DTD/svg11.dtd">
<!-- Generated by graphviz version 14.0.0 (20250921.2048)
 -->
<!-- Title: npi::RefPtr::operator== Pages: 1 -->
<svg width="328pt" height="82pt"
 viewBox="0.00 0.00 328.00 82.00" xmlns="http://www.w3.org/2000/svg" xmlns:xlink="http://www.w3.org/1999/xlink">
<g id="graph0" class="graph" transform="scale(1 1) rotate(0) translate(4 78.25)">
<title>npi::RefPtr::operator==</title>
<!-- Node1 -->
<g id="Node000001" class="node">
<title>Node1</title>
<g id="a_Node000001"><a xlink:title="Compare two RefPtr objects for equality.">
<polygon fill="#999999" stroke="none" points="154,-37.25 0,-37.25 0,-18 154,-18 154,-37.25"/>
<text xml:space="preserve" text-anchor="start" x="8" y="-23.8" font-family="Consolas" font-weight="bold" font-size="11.00">npi::RefPtr::operator==</text>
</a>
</g>
</g>
<!-- Node2 -->
<g id="Node000002" class="node">
<title>Node2</title>
<g id="a_Node000002"><a xlink:href="../../d2/d0d/classnpi_1_1_ref_ptr.html#a161a8052754985bb8024c19c06fd9206" target="_top" xlink:title="Friend declarations of RefPtr class with type as U. This makes any RefPtr class object a friend of an...">
<polygon fill="white" stroke="none" points="320,-56.25 190,-56.25 190,-37 320,-37 320,-56.25"/>
<text xml:space="preserve" text-anchor="middle" x="255" y="-41.8" font-family="Consolas" font-size="11.00">npi::RefPtr::RefPtr</text>
</a>
</g>
</g>
<!-- Node1&#45;&gt;Node2 -->
<g id="edge1_Node000001_Node000002" class="edge">
<title>Node1&#45;&gt;Node2</title>
<g id="a_edge1_Node000001_Node000002"><a xlink:title=" ">
<path fill="none" stroke="#63b8ff" d="M153.92,-35.82C163.93,-36.9 174.16,-38.01 184.07,-39.08"/>
<polygon fill="#63b8ff" stroke="#63b8ff" points="188.98,-39.61 183.77,-41.31 187.71,-39.47 184.01,-39.07 184.01,-39.07 184.01,-39.07 187.71,-39.47 184.25,-36.83 188.98,-39.61"/>
</a>
</g>
</g>
<!-- Node3 -->
<g id="Node000003" class="node">
<title>Node3</title>
<g id="a_Node000003"><a xlink:href="../../d2/d0d/classnpi_1_1_ref_ptr.html#a648720bbca1c6b1ebe9e6bd14176e692" target="_top" xlink:title="Retrieve a raw pointer to the managed object, if any.">
<polygon fill="white" stroke="none" points="314,-19.25 196,-19.25 196,0 314,0 314,-19.25"/>
<text xml:space="preserve" text-anchor="middle" x="255" y="-4.8" font-family="Consolas" font-size="11.00">npi::RefPtr::get_</text>
</a>
</g>
</g>
<!-- Node1&#45;&gt;Node3 -->
<g id="edge3_Node000001_Node000003" class="edge">
<title>Node1&#45;&gt;Node3</title>
<g id="a_edge3_Node000001_Node000003"><a xlink:title=" ">
<path fill="none" stroke="#63b8ff" d="M153.92,-19.86C165.96,-18.63 178.31,-17.37 190.04,-16.17"/>
<polygon fill="#63b8ff" stroke="#63b8ff" points="194.9,-15.67 190.16,-18.42 193.63,-15.8 189.93,-16.18 189.93,-16.18 189.93,-16.18 193.63,-15.8 189.7,-13.94 194.9,-15.67"/>
</a>
</g>
</g>
<!-- Node2&#45;&gt;Node2 -->
<g id="edge2_Node000002_Node000002" class="edge">
<title>Node2&#45;&gt;Node2</title>
<g id="a_edge2_Node000002_Node000002"><a xlink:title=" ">
<path fill="none" stroke="#63b8ff" d="M228.01,-55.97C214.02,-64.74 223.02,-74.25 255,-74.25 282.49,-74.25 293,-67.22 286.53,-59.68"/>
<polygon fill="#63b8ff" stroke="#63b8ff" points="282.93,-56.74 288.22,-58.16 283.92,-57.55 286.8,-59.9 286.8,-59.9 286.8,-59.9 283.92,-57.55 285.37,-61.65 282.93,-56.74"/>
</a>
</g>
</g>
</g>
</svg>
