<?xml version="1.0" encoding="UTF-8" standalone="no"?>
<!DOCTYPE svg PUBLIC "-//W3C//DTD SVG 1.1//EN"
 "http://www.w3.org/Graphics/SVG/1.1/DTD/svg11.dtd">
<!-- Generated by graphviz version 14.0.0 (20250921.2048)
 -->
<!-- Title: npi::RefPtr::assign_ Pages: 1 -->
<svg width="310pt" height="82pt"
 viewBox="0.00 0.00 310.00 82.00" xmlns="http://www.w3.org/2000/svg" xmlns:xlink="http://www.w3.org/1999/xlink">
<g id="graph0" class="graph" transform="scale(1 1) rotate(0) translate(4 78.25)">
<title>npi::RefPtr::assign_</title>
<!-- Node1 -->
<g id="Node000001" class="node">
<title>Node1</title>
<g id="a_Node000001"><a xlink:title="Internal helper to assign from another polymorphically related RefPtr object.">
<polygon fill="#999999" stroke="none" points="136,-37.25 0,-37.25 0,-18 136,-18 136,-37.25"/>
<text xml:space="preserve" text-anchor="start" x="8" y="-23.8" font-family="Consolas" font-weight="bold" font-size="11.00">npi::RefPtr::assign_</text>
</a>
</g>
</g>
<!-- Node2 -->
<g id="Node000002" class="node">
<title>Node2</title>
<g id="a_Node000002"><a xlink:href="../../d2/d0d/classnpi_1_1_ref_ptr.html#a161a8052754985bb8024c19c06fd9206" target="_top" xlink:title="Friend declarations of RefPtr class with type as U. This makes any RefPtr class object a friend of an...">
<polygon fill="white" stroke="none" points="302,-56.25 172,-56.25 172,-37 302,-37 302,-56.25"/>
<text xml:space="preserve" text-anchor="middle" x="237" y="-41.8" font-family="Consolas" font-size="11.00">npi::RefPtr::RefPtr</text>
</a>
</g>
</g>
<!-- Node1&#45;&gt;Node2 -->
<g id="edge1_Node000001_Node000002" class="edge">
<title>Node1&#45;&gt;Node2</title>
<g id="a_edge1_Node000001_Node000002"><a xlink:title=" ">
<path fill="none" stroke="#63b8ff" d="M135.96,-35.24C145.81,-36.36 155.97,-37.52 165.88,-38.65"/>
<polygon fill="#63b8ff" stroke="#63b8ff" points="170.8,-39.21 165.57,-40.88 169.52,-39.06 165.83,-38.64 165.83,-38.64 165.83,-38.64 169.52,-39.06 166.08,-36.41 170.8,-39.21"/>
</a>
</g>
</g>
<!-- Node3 -->
<g id="Node000003" class="node">
<title>Node3</title>
<g id="a_Node000003"><a xlink:href="../../d2/d0d/classnpi_1_1_ref_ptr.html#a648720bbca1c6b1ebe9e6bd14176e692" target="_top" xlink:title="Retrieve a raw pointer to the managed object, if any.">
<polygon fill="white" stroke="none" points="296,-19.25 178,-19.25 178,0 296,0 296,-19.25"/>
<text xml:space="preserve" text-anchor="middle" x="237" y="-4.8" font-family="Consolas" font-size="11.00">npi::RefPtr::get_</text>
</a>
</g>
</g>
<!-- Node1&#45;&gt;Node3 -->
<g id="edge3_Node000001_Node000003" class="edge">
<title>Node1&#45;&gt;Node3</title>
<g id="a_edge3_Node000001_Node000003"><a xlink:title=" ">
<path fill="none" stroke="#63b8ff" d="M135.96,-20.41C147.86,-19.12 160.23,-17.79 172.04,-16.52"/>
<polygon fill="#63b8ff" stroke="#63b8ff" points="176.95,-15.99 172.22,-18.76 175.68,-16.13 171.98,-16.53 171.98,-16.53 171.98,-16.53 175.68,-16.13 171.74,-14.29 176.95,-15.99"/>
</a>
</g>
</g>
<!-- Node2&#45;&gt;Node2 -->
<g id="edge2_Node000002_Node000002" class="edge">
<title>Node2&#45;&gt;Node2</title>
<g id="a_edge2_Node000002_Node000002"><a xlink:title=" ">
<path fill="none" stroke="#63b8ff" d="M211.38,-55.97C198.09,-64.74 206.63,-74.25 237,-74.25 262.62,-74.25 272.71,-67.48 267.25,-60.09"/>
<polygon fill="#63b8ff" stroke="#63b8ff" points="263.53,-56.78 268.76,-58.42 264.49,-57.63 267.26,-60.1 267.26,-60.1 267.26,-60.1 264.49,-57.63 265.77,-61.78 263.53,-56.78"/>
</a>
</g>
</g>
</g>
</svg>
