<?xml version="1.0" encoding="UTF-8" standalone="no"?>
<!DOCTYPE svg PUBLIC "-//W3C//DTD SVG 1.1//EN"
 "http://www.w3.org/Graphics/SVG/1.1/DTD/svg11.dtd">
<!-- Generated by graphviz version 14.0.0 (20250921.2048)
 -->
<!-- Title: npi::RefPtr::get_ Pages: 1 -->
<!--zoomable 360 -->

<svg id="main" version="1.1" xmlns="http://www.w3.org/2000/svg" xmlns:xlink="http://www.w3.org/1999/xlink" xml:space="preserve" onload="init(evt)">

<style type="text/css"><![CDATA[
.node, .edge {opacity: 0.7;}
.node.selected, .edge.selected {opacity: 1;}
.edge:hover path { stroke: red; }
.edge:hover polygon { stroke: red; fill: red; }
]]></style>

<defs>
  <circle id="rim" cx="0" cy="0" r="7"/>
  <circle id="rim2" cx="0" cy="0" r="3.5"/>
  <g id="zoomPlus">
    <use xlink:href="#rim" fill="#404040"><set attributeName="fill" to="#808080" begin="zoomplus.mouseover" end="zoomplus.mouseout"/></use>
    <path d="M-4,0h8M0,-4v8" fill="none" stroke="white" stroke-width="1.5" pointer-events="none"/>
  </g>
  <g id="zoomMin">
    <use xlink:href="#rim" fill="#404040"><set attributeName="fill" to="#808080" begin="zoomminus.mouseover" end="zoomminus.mouseout"/></use>
    <path d="M-4,0h8" fill="none" stroke="white" stroke-width="1.5" pointer-events="none"/>
  </g>
  <g id="arrowUp" transform="translate(30 24)">
    <use xlink:href="#rim"/>
    <path pointer-events="none" fill="none" stroke="white" stroke-width="1.5" d="M0,-3.0v7 M-2.5,-0.5L0,-3.0L2.5,-0.5"/>
  </g>
  <g id="arrowRight" transform="rotate(90) translate(36 -43)">
    <use xlink:href="#rim"/>
    <path pointer-events="none" fill="none" stroke="white" stroke-width="1.5" d="M0,-3.0v7 M-2.5,-0.5L0,-3.0L2.5,-0.5"/>
  </g>
  <g id="arrowDown" transform="rotate(180) translate(-30 -48)">
    <use xlink:href="#rim"/>
    <path pointer-events="none" fill="none" stroke="white" stroke-width="1.5" d="M0,-3.0v7 M-2.5,-0.5L0,-3.0L2.5,-0.5"/>
  </g>
  <g id="arrowLeft" transform="rotate(270) translate(-36 17)">
    <use xlink:href="#rim"/>
    <path pointer-events="none" fill="none" stroke="white" stroke-width="1.5" d="M0,-3.0v7 M-2.5,-0.5L0,-3.0L2.5,-0.5"/>
  </g>
  <g id="resetDef">
    <use xlink:href="#rim2" fill="#404040"><set attributeName="fill" to="#808080" begin="reset.mouseover" end="reset.mouseout"/></use>
  </g>
</defs>
<script type="application/ecmascript">
var viewWidth = 524;
var viewHeight = 360;
var sectionId = 'dynsection-7';
</script>
<script type="application/ecmascript" xlink:href="../../svg.min.js"/>
<svg id="graph" class="graph">
<g id="viewport">
<title>npi::RefPtr::get_</title>
<!-- Node1 -->
<g id="Node000001" class="node">
<title>Node1</title>
<g id="a_Node000001"><a xlink:title="Retrieve a raw pointer to the managed object, if any.">
<polygon fill="#999999" stroke="none" points="516,-167.25 398,-167.25 398,-148 516,-148 516,-167.25"/>
<text xml:space="preserve" text-anchor="start" x="406" y="-153.8" font-family="Consolas" font-weight="bold" font-size="11.00">npi::RefPtr::get_</text>
</a>
</g>
</g>
<!-- Node2 -->
<g id="Node000002" class="node">
<title>Node2</title>
<g id="a_Node000002"><a xlink:href="../../d2/d0d/classnpi_1_1_ref_ptr.html#a57c7b67bb988f7040bb2efa535421153" target="_top" xlink:title="Internal helper to assign from another polymorphically related RefPtr object.">
<polygon fill="white" stroke="none" points="353,-315.25 217,-315.25 217,-296 353,-296 353,-315.25"/>
<text xml:space="preserve" text-anchor="middle" x="285" y="-300.8" font-family="Consolas" font-size="11.00">npi::RefPtr::assign_</text>
</a>
</g>
</g>
<!-- Node1&#45;&gt;Node2 -->
<g id="edge1_Node000001_Node000002" class="edge">
<title>Node1&#45;&gt;Node2</title>
<g id="a_edge1_Node000001_Node000002"><a xlink:title=" ">
<path fill="none" stroke="#63b8ff" d="M449.56,-172.58C436.96,-199.95 406.36,-258.01 362,-287.62 356.93,-291.01 351.29,-293.77 345.44,-296"/>
<polygon fill="#63b8ff" stroke="#63b8ff" points="451.6,-168.03 451.6,-173.51 451.08,-169.2 449.55,-172.59 449.55,-172.59 449.55,-172.59 451.08,-169.2 447.5,-171.67 451.6,-168.03"/>
</a>
</g>
</g>
<!-- Node5 -->
<g id="Node000005" class="node">
<title>Node5</title>
<g id="a_Node000005"><a xlink:href="../../d2/d0d/classnpi_1_1_ref_ptr.html#a665c4ac45f2a60a261d1fe6f335eb7be" target="_top" xlink:title="Check whether the RefPtr currently holds a valid object.">
<polygon fill="white" stroke="none" points="356,-278.25 214,-278.25 214,-259 356,-259 356,-278.25"/>
<text xml:space="preserve" text-anchor="middle" x="285" y="-263.8" font-family="Consolas" font-size="11.00">npi::RefPtr::isValid_</text>
</a>
</g>
</g>
<!-- Node1&#45;&gt;Node5 -->
<g id="edge4_Node000001_Node000005" class="edge">
<title>Node1&#45;&gt;Node5</title>
<g id="a_edge4_Node000001_Node000005"><a xlink:title=" ">
<path fill="none" stroke="#63b8ff" d="M445.8,-171.81C430.17,-192.46 398.28,-230.51 362,-250.62 355.83,-254.04 349.04,-256.82 342.12,-259.07"/>
<polygon fill="#63b8ff" stroke="#63b8ff" points="448.69,-167.94 447.5,-173.29 447.92,-168.97 445.7,-171.95 445.7,-171.95 445.7,-171.95 447.92,-168.97 443.89,-170.6 448.69,-167.94"/>
</a>
</g>
</g>
<!-- Node7 -->
<g id="Node000007" class="node">
<title>Node7</title>
<g id="a_Node000007"><a xlink:href="../../d2/d0d/classnpi_1_1_ref_ptr.html#aa59f37035326210b0a5402c96732eaaa" target="_top" xlink:title="Inequality comparison with a null pointer.">
<polygon fill="white" stroke="none" points="362,-241.25 208,-241.25 208,-222 362,-222 362,-241.25"/>
<text xml:space="preserve" text-anchor="middle" x="285" y="-226.8" font-family="Consolas" font-size="11.00">npi::RefPtr::operator!=</text>
</a>
</g>
</g>
<!-- Node1&#45;&gt;Node7 -->
<g id="edge6_Node000001_Node000007" class="edge">
<title>Node1&#45;&gt;Node7</title>
<g id="a_edge6_Node000001_Node000007"><a xlink:title=" ">
<path fill="none" stroke="#63b8ff" d="M438.13,-170.54C419.83,-183.2 390.16,-202.22 362,-213.62 353.83,-216.93 344.91,-219.72 336.15,-222.04"/>
<polygon fill="#63b8ff" stroke="#63b8ff" points="441.98,-167.85 439.17,-172.56 440.93,-168.58 437.88,-170.71 437.88,-170.71 437.88,-170.71 440.93,-168.58 436.59,-168.87 441.98,-167.85"/>
</a>
</g>
</g>
<!-- Node8 -->
<g id="Node000008" class="node">
<title>Node8</title>
<g id="a_Node000008"><a xlink:href="../../d2/d0d/classnpi_1_1_ref_ptr.html#a2a3a1da530aa81c00a26af3ce0ba8c20" target="_top" xlink:title="Dereference operator to obtain a reference to the managed object.">
<polygon fill="white" stroke="none" points="359,-204.25 211,-204.25 211,-185 359,-185 359,-204.25"/>
<text xml:space="preserve" text-anchor="middle" x="285" y="-189.8" font-family="Consolas" font-size="11.00">npi::RefPtr::operator*</text>
</a>
</g>
</g>
<!-- Node1&#45;&gt;Node8 -->
<g id="edge7_Node000001_Node000008" class="edge">
<title>Node1&#45;&gt;Node8</title>
<g id="a_edge7_Node000001_Node000008"><a xlink:title=" ">
<path fill="none" stroke="#63b8ff" d="M405.77,-168.56C381.72,-173.79 353.18,-180 330,-185.05"/>
<polygon fill="#63b8ff" stroke="#63b8ff" points="410.59,-167.51 406.18,-170.77 409.34,-167.78 405.7,-168.57 405.7,-168.57 405.7,-168.57 409.34,-167.78 405.22,-166.37 410.59,-167.51"/>
</a>
</g>
</g>
<!-- Node9 -->
<g id="Node000009" class="node">
<title>Node9</title>
<g id="a_Node000009"><a xlink:href="../../d2/d0d/classnpi_1_1_ref_ptr.html#a0c9de2e26cc46ce44dc7b8c04b059d66" target="_top" xlink:title="Pointer&#45;like access operator.">
<polygon fill="white" stroke="none" points="362,-167.25 208,-167.25 208,-148 362,-148 362,-167.25"/>
<text xml:space="preserve" text-anchor="middle" x="285" y="-152.8" font-family="Consolas" font-size="11.00">npi::RefPtr::operator&#45;&gt;</text>
</a>
</g>
</g>
<!-- Node1&#45;&gt;Node9 -->
<g id="edge8_Node000001_Node000009" class="edge">
<title>Node1&#45;&gt;Node9</title>
<g id="a_edge8_Node000001_Node000009"><a xlink:title=" ">
<path fill="none" stroke="#63b8ff" d="M392.32,-157.62C382.39,-157.62 372.05,-157.62 361.88,-157.62"/>
<polygon fill="#63b8ff" stroke="#63b8ff" points="397.23,-157.63 392.23,-159.88 395.95,-157.63 392.23,-157.63 392.23,-157.63 392.23,-157.63 395.95,-157.63 392.23,-155.38 397.23,-157.63"/>
</a>
</g>
</g>
<!-- Node10 -->
<g id="Node000010" class="node">
<title>Node10</title>
<g id="a_Node000010"><a xlink:href="../../d2/d0d/classnpi_1_1_ref_ptr.html#a17c5e9c82c455801148a97cc5a50ee67" target="_top" xlink:title="Compare two RefPtr objects for equality.">
<polygon fill="white" stroke="none" points="362,-130.25 208,-130.25 208,-111 362,-111 362,-130.25"/>
<text xml:space="preserve" text-anchor="middle" x="285" y="-115.8" font-family="Consolas" font-size="11.00">npi::RefPtr::operator==</text>
</a>
</g>
</g>
<!-- Node1&#45;&gt;Node10 -->
<g id="edge9_Node000001_Node000010" class="edge">
<title>Node1&#45;&gt;Node10</title>
<g id="a_edge9_Node000001_Node000010"><a xlink:title=" ">
<path fill="none" stroke="#63b8ff" d="M405.77,-146.69C381.72,-141.46 353.18,-135.25 330,-130.2"/>
<polygon fill="#63b8ff" stroke="#63b8ff" points="410.59,-147.74 405.22,-148.88 409.34,-147.47 405.7,-146.68 405.7,-146.68 405.7,-146.68 409.34,-147.47 406.18,-144.48 410.59,-147.74"/>
</a>
</g>
</g>
<!-- Node11 -->
<g id="Node000011" class="node">
<title>Node11</title>
<g id="a_Node000011"><a xlink:href="../../d2/d0d/classnpi_1_1_ref_ptr.html#aa7a8843c7ab0fcb8eec58386cd8e9727" target="_top" xlink:title="Compare this RefPtr to a RefPtrHost for equality.">
<polygon fill="white" stroke="none" points="362,-93.25 208,-93.25 208,-74 362,-74 362,-93.25"/>
<text xml:space="preserve" text-anchor="middle" x="285" y="-78.8" font-family="Consolas" font-size="11.00">npi::RefPtr::operator==</text>
</a>
</g>
</g>
<!-- Node1&#45;&gt;Node11 -->
<g id="edge10_Node000001_Node000011" class="edge">
<title>Node1&#45;&gt;Node11</title>
<g id="a_edge10_Node000001_Node000011"><a xlink:title=" ">
<path fill="none" stroke="#63b8ff" d="M438.13,-144.71C419.83,-132.05 390.16,-113.03 362,-101.62 353.83,-98.32 344.91,-95.53 336.15,-93.21"/>
<polygon fill="#63b8ff" stroke="#63b8ff" points="441.98,-147.4 436.59,-146.38 440.93,-146.67 437.88,-144.54 437.88,-144.54 437.88,-144.54 440.93,-146.67 439.17,-142.69 441.98,-147.4"/>
</a>
</g>
</g>
<!-- Node12 -->
<g id="Node000012" class="node">
<title>Node12</title>
<g id="a_Node000012"><a xlink:href="../../d2/d0d/classnpi_1_1_ref_ptr.html#a06ff7304f073d1ae6cc1a57ab4b5c53f" target="_top" xlink:title="Compare the stored pointer to a raw pointer.">
<polygon fill="white" stroke="none" points="362,-56.25 208,-56.25 208,-37 362,-37 362,-56.25"/>
<text xml:space="preserve" text-anchor="middle" x="285" y="-41.8" font-family="Consolas" font-size="11.00">npi::RefPtr::operator==</text>
</a>
</g>
</g>
<!-- Node1&#45;&gt;Node12 -->
<g id="edge11_Node000001_Node000012" class="edge">
<title>Node1&#45;&gt;Node12</title>
<g id="a_edge11_Node000001_Node000012"><a xlink:title=" ">
<path fill="none" stroke="#63b8ff" d="M445.8,-143.44C430.17,-122.79 398.28,-84.74 362,-64.62 355.83,-61.21 349.04,-58.43 342.12,-56.18"/>
<polygon fill="#63b8ff" stroke="#63b8ff" points="448.69,-147.31 443.89,-144.65 447.92,-146.28 445.7,-143.3 445.7,-143.3 445.7,-143.3 447.92,-146.28 447.5,-141.96 448.69,-147.31"/>
</a>
</g>
</g>
<!-- Node13 -->
<g id="Node000013" class="node">
<title>Node13</title>
<g id="a_Node000013"><a xlink:href="../../d2/d0d/classnpi_1_1_ref_ptr.html#ad06e0232aa5830bf81b59ed19c7985c3" target="_top" xlink:title="Compare the stored pointer to a null pointer.">
<polygon fill="white" stroke="none" points="362,-19.25 208,-19.25 208,0 362,0 362,-19.25"/>
<text xml:space="preserve" text-anchor="middle" x="285" y="-4.8" font-family="Consolas" font-size="11.00">npi::RefPtr::operator==</text>
</a>
</g>
</g>
<!-- Node1&#45;&gt;Node13 -->
<g id="edge12_Node000001_Node000013" class="edge">
<title>Node1&#45;&gt;Node13</title>
<g id="a_edge12_Node000001_Node000013"><a xlink:title=" ">
<path fill="none" stroke="#63b8ff" d="M449.56,-142.67C436.96,-115.3 406.36,-57.24 362,-27.62 356.93,-24.24 351.29,-21.48 345.44,-19.25"/>
<polygon fill="#63b8ff" stroke="#63b8ff" points="451.6,-147.22 447.5,-143.58 451.08,-146.05 449.55,-142.66 449.55,-142.66 449.55,-142.66 451.08,-146.05 451.6,-141.74 451.6,-147.22"/>
</a>
</g>
</g>
<!-- Node3 -->
<g id="Node000003" class="node">
<title>Node3</title>
<g id="a_Node000003"><a xlink:href="../../d2/d0d/classnpi_1_1_ref_ptr.html#a9334ee21405f9c5cb68cb370e2ef7e55" target="_top" xlink:title="Polymorphic non&#45;explicit converting copy constructor.">
<polygon fill="white" stroke="none" points="151,-352.25 21,-352.25 21,-333 151,-333 151,-352.25"/>
<text xml:space="preserve" text-anchor="middle" x="86" y="-337.8" font-family="Consolas" font-size="11.00">npi::RefPtr::RefPtr</text>
</a>
</g>
</g>
<!-- Node2&#45;&gt;Node3 -->
<g id="edge2_Node000002_Node000003" class="edge">
<title>Node2&#45;&gt;Node3</title>
<g id="a_edge2_Node000002_Node000003"><a xlink:title=" ">
<path fill="none" stroke="#63b8ff" d="M226.85,-316.36C198.76,-321.63 165.2,-327.94 137.99,-333.05"/>
<polygon fill="#63b8ff" stroke="#63b8ff" points="231.56,-315.47 227.06,-318.61 230.3,-315.71 226.64,-316.4 226.64,-316.4 226.64,-316.4 230.3,-315.71 226.23,-314.19 231.56,-315.47"/>
</a>
</g>
</g>
<!-- Node4 -->
<g id="Node000004" class="node">
<title>Node4</title>
<g id="a_Node000004"><a xlink:href="../../d2/d0d/classnpi_1_1_ref_ptr.html#ac2560d9e777dbdb7befe0558c1a20e23" target="_top" xlink:title="Polymorphic assignment operator.">
<polygon fill="white" stroke="none" points="160,-315.25 12,-315.25 12,-296 160,-296 160,-315.25"/>
<text xml:space="preserve" text-anchor="middle" x="86" y="-300.8" font-family="Consolas" font-size="11.00">npi::RefPtr::operator=</text>
</a>
</g>
</g>
<!-- Node2&#45;&gt;Node4 -->
<g id="edge3_Node000002_Node000004" class="edge">
<title>Node2&#45;&gt;Node4</title>
<g id="a_edge3_Node000002_Node000004"><a xlink:title=" ">
<path fill="none" stroke="#63b8ff" d="M210.94,-305.62C194.26,-305.62 176.53,-305.62 159.86,-305.62"/>
<polygon fill="#63b8ff" stroke="#63b8ff" points="215.81,-305.63 210.81,-307.88 214.53,-305.63 210.81,-305.63 210.81,-305.63 210.81,-305.63 214.53,-305.63 210.81,-303.38 215.81,-305.63"/>
</a>
</g>
</g>
<!-- Node6 -->
<g id="Node000006" class="node">
<title>Node6</title>
<g id="a_Node000006"><a xlink:href="../../d2/d0d/classnpi_1_1_ref_ptr.html#a489d79768dbe60feae407eb70334f245" target="_top" xlink:title="Explicit boolean conversion operator (e.g. if(refPtr){...}).">
<polygon fill="white" stroke="none" points="172,-278.25 0,-278.25 0,-259 172,-259 172,-278.25"/>
<text xml:space="preserve" text-anchor="middle" x="86" y="-263.8" font-family="Consolas" font-size="11.00">npi::RefPtr::operator bool</text>
</a>
</g>
</g>
<!-- Node5&#45;&gt;Node6 -->
<g id="edge5_Node000005_Node000006" class="edge">
<title>Node5&#45;&gt;Node6</title>
<g id="a_edge5_Node000005_Node000006"><a xlink:title=" ">
<path fill="none" stroke="#63b8ff" d="M208.11,-268.62C196.23,-268.62 183.9,-268.62 171.84,-268.62"/>
<polygon fill="#63b8ff" stroke="#63b8ff" points="213.05,-268.63 208.05,-270.88 211.77,-268.63 208.05,-268.63 208.05,-268.63 208.05,-268.63 211.77,-268.63 208.05,-266.38 213.05,-268.63"/>
</a>
</g>
</g>
</g>
</svg>

<g id="navigator" transform="translate(0 0)" fill="#404254">
  <rect fill="#f2f5e9" fill-opacity="0.5" stroke="#606060" stroke-width=".5" x="0" y="0" width="60" height="60"/>
  <use id="zoomplus" xlink:href="#zoomPlus" x="17" y="9" onmousedown="handleZoom(evt,'in')"/>
  <use id="zoomminus" xlink:href="#zoomMin" x="42" y="9" onmousedown="handleZoom(evt,'out')"/>
  <use id="reset" xlink:href="#resetDef" x="30" y="36" onmousedown="handleReset()"/>
   <use id="arrowup" xlink:href="#arrowUp" x="0" y="0" onmousedown="handlePan(0,-1)"/>
  <use id="arrowright" xlink:href="#arrowRight" x="0" y="0" onmousedown="handlePan(1,0)"/>
  <use id="arrowdown" xlink:href="#arrowDown" x="0" y="0" onmousedown="handlePan(0,1)"/>
  <use id="arrowleft" xlink:href="#arrowLeft" x="0" y="0" onmousedown="handlePan(-1,0)"/>
</g>
<svg viewBox="0 0 15 15" width="100%" height="30px" preserveAspectRatio="xMaxYMin meet">
 <g id="arrow_out" transform="scale(0.3 0.3)">
  <a xlink:href="classnpi_1_1_ref_ptr_a648720bbca1c6b1ebe9e6bd14176e692_icgraph_org.svg" target="_base">
   <rect id="button" ry="5" rx="5" y="6" x="6" height="38" width="38"
        fill="#f2f5e9" fill-opacity="0.5" stroke="#606060" stroke-width="1.0"/>
   <path id="arrow"
     d="M 11.500037,31.436501 C 11.940474,20.09759 22.043105,11.32322 32.158766,21.979434 L 37.068811,17.246167 C 37.068811,17.246167 37.088388,32 37.088388,32 L 22.160133,31.978069 C 22.160133,31.978069 26.997745,27.140456 26.997745,27.140456 C 18.528582,18.264221 13.291696,25.230495 11.500037,31.436501 z"
     style="fill:#404040;"/>
  </a>
 </g>
</svg>

<style type='text/css'>
<![CDATA[
[data-mouse-over-selected='false'] { opacity: 0.7; }
[data-mouse-over-selected='true']  { opacity: 1.0; }
]]>
</style>
<script type="application/ecmascript"><![CDATA[
document.addEventListener('DOMContentLoaded', (event) => {
  highlightEdges();
  highlightAdjacentNodes();
});
]]></script>
</svg>
