<?xml version="1.0" encoding="UTF-8" standalone="no"?>
<!DOCTYPE svg PUBLIC "-//W3C//DTD SVG 1.1//EN"
 "http://www.w3.org/Graphics/SVG/1.1/DTD/svg11.dtd">
<!-- Generated by graphviz version 14.0.0 (20250921.2048)
 -->
<!-- Title: npi::RefPtr::~RefPtr Pages: 1 -->
<svg width="310pt" height="45pt"
 viewBox="0.00 0.00 310.00 45.00" xmlns="http://www.w3.org/2000/svg" xmlns:xlink="http://www.w3.org/1999/xlink">
<g id="graph0" class="graph" transform="scale(1 1) rotate(0) translate(4 41.25)">
<title>npi::RefPtr::~RefPtr</title>
<!-- Node1 -->
<g id="Node000001" class="node">
<title>Node1</title>
<g id="a_Node000001"><a xlink:title="Default destructor.">
<polygon fill="#999999" stroke="none" points="136,-19.25 0,-19.25 0,0 136,0 136,-19.25"/>
<text xml:space="preserve" text-anchor="start" x="8" y="-5.8" font-family="Consolas" font-weight="bold" font-size="11.00">npi::RefPtr::~RefPtr</text>
</a>
</g>
</g>
<!-- Node2 -->
<g id="Node000002" class="node">
<title>Node2</title>
<g id="a_Node000002"><a xlink:href="../../d2/d0d/classnpi_1_1_ref_ptr.html#a161a8052754985bb8024c19c06fd9206" target="_top" xlink:title="Friend declarations of RefPtr class with type as U. This makes any RefPtr class object a friend of an...">
<polygon fill="white" stroke="none" points="302,-19.25 172,-19.25 172,0 302,0 302,-19.25"/>
<text xml:space="preserve" text-anchor="middle" x="237" y="-4.8" font-family="Consolas" font-size="11.00">npi::RefPtr::RefPtr</text>
</a>
</g>
</g>
<!-- Node1&#45;&gt;Node2 -->
<g id="edge1_Node000001_Node000002" class="edge">
<title>Node1&#45;&gt;Node2</title>
<g id="a_edge1_Node000001_Node000002"><a xlink:title=" ">
<path fill="none" stroke="#63b8ff" d="M135.96,-9.62C145.81,-9.62 155.97,-9.62 165.88,-9.62"/>
<polygon fill="#63b8ff" stroke="#63b8ff" points="170.79,-9.63 165.79,-11.88 169.51,-9.63 165.79,-9.63 165.79,-9.63 165.79,-9.63 169.51,-9.63 165.79,-7.38 170.79,-9.63"/>
</a>
</g>
</g>
<!-- Node2&#45;&gt;Node2 -->
<g id="edge2_Node000002_Node000002" class="edge">
<title>Node2&#45;&gt;Node2</title>
<g id="a_edge2_Node000002_Node000002"><a xlink:title=" ">
<path fill="none" stroke="#63b8ff" d="M211.38,-18.97C198.09,-27.74 206.63,-37.25 237,-37.25 262.62,-37.25 272.71,-30.48 267.25,-23.09"/>
<polygon fill="#63b8ff" stroke="#63b8ff" points="263.53,-19.78 268.76,-21.42 264.49,-20.63 267.26,-23.1 267.26,-23.1 267.26,-23.1 264.49,-20.63 265.77,-24.78 263.53,-19.78"/>
</a>
</g>
</g>
</g>
</svg>
