<?xml version="1.0" encoding="UTF-8" standalone="no"?>
<!DOCTYPE svg PUBLIC "-//W3C//DTD SVG 1.1//EN"
 "http://www.w3.org/Graphics/SVG/1.1/DTD/svg11.dtd">
<!-- Generated by graphviz version 14.0.0 (20250921.2048)
 -->
<!-- Title: npi::Show::OpacityGuard Pages: 1 -->
<svg width="207pt" height="99pt"
 viewBox="0.00 0.00 207.00 99.00" xmlns="http://www.w3.org/2000/svg" xmlns:xlink="http://www.w3.org/1999/xlink">

<svg id="main" version="1.1" xmlns="http://www.w3.org/2000/svg" xmlns:xlink="http://www.w3.org/1999/xlink" xml:space="preserve">

<style type="text/css"><![CDATA[
.node, .edge {opacity: 0.7;}
.node.selected, .edge.selected {opacity: 1;}
.edge:hover path { stroke: red; }
.edge:hover polygon { stroke: red; fill: red; }
]]></style>
<script type="application/ecmascript" xlink:href="../../svg.min.js"/>
<svg id="graph" class="graph">
<g id="graph0" class="graph" transform="scale(1 1) rotate(0) translate(4 95)">
<title>npi::Show::OpacityGuard</title>
<!-- Node1 -->
<g id="Node000001" class="node">
<title>Node1</title>
<g id="a_Node000001"><a xlink:title="Helper for Show class. A RAII guard that restores a widget&#39;s window opacity on scope exit.">
<polygon fill="#999999" stroke="none" points="193,-19.25 39,-19.25 39,0 193,0 193,-19.25"/>
<text xml:space="preserve" text-anchor="start" x="47" y="-5.8" font-family="Consolas" font-weight="bold" font-size="11.00">npi::Show::OpacityGuard</text>
</a>
</g>
</g>
<!-- Node2 -->
<g id="Node000002" class="node">
<title>Node2</title>
<g id="a_Node000002"><a xlink:title=" ">
<polygon fill="white" stroke="none" points="130,-91 0,-91 0,-71.75 130,-71.75 130,-91"/>
<text xml:space="preserve" text-anchor="middle" x="65" y="-76.55" font-family="Consolas" font-size="11.00">QPointer&lt; QWidget &gt;</text>
</a>
</g>
</g>
<!-- Node2&#45;&gt;Node1 -->
<g id="edge1_Node000001_Node000002" class="edge">
<title>Node2&#45;&gt;Node1</title>
<g id="a_edge1_Node000001_Node000002"><a xlink:title=" ">
<path fill="none" stroke="#9a32cd" stroke-dasharray="5,2" d="M68.74,-65.82C71.49,-56.97 75.88,-45.77 82.25,-37.25 87.61,-30.08 95.36,-23.78 102.08,-19.11"/>
<polygon fill="#9a32cd" stroke="#9a32cd" points="67.35,-70.6 66.58,-65.18 67.71,-69.37 68.74,-65.8 68.74,-65.8 68.74,-65.8 67.71,-69.37 70.91,-66.43 67.35,-70.6"/>
</a>
</g>
<text xml:space="preserve" text-anchor="start" x="85.25" y="-41.25" font-family="Consolas" font-size="10.00" fill="grey">guardedWid_</text>
</g>
<!-- Node3 -->
<g id="Node000003" class="node">
<title>Node3</title>
<g id="a_Node000003"><a xlink:title=" ">
<polygon fill="white" stroke="none" points="188,-91 148,-91 148,-71.75 188,-71.75 188,-91"/>
<text xml:space="preserve" text-anchor="middle" x="168" y="-76.55" font-family="Consolas" font-size="11.00">bool</text>
</a>
</g>
</g>
<!-- Node3&#45;&gt;Node1 -->
<g id="edge2_Node000001_Node000003" class="edge">
<title>Node3&#45;&gt;Node1</title>
<g id="a_edge2_Node000001_Node000003"><a xlink:title=" ">
<path fill="none" stroke="#9a32cd" stroke-dasharray="5,2" d="M162.4,-66.25C158.53,-57.43 152.85,-46.11 146,-37.25 140.72,-30.42 133.51,-23.96 127.49,-19.11"/>
<polygon fill="#9a32cd" stroke="#9a32cd" points="164.31,-70.77 160.29,-67.04 163.81,-69.59 162.37,-66.17 162.37,-66.17 162.37,-66.17 163.81,-69.59 164.44,-65.29 164.31,-70.77"/>
</a>
</g>
<text xml:space="preserve" text-anchor="start" x="158.94" y="-41.25" font-family="Consolas" font-size="10.00" fill="grey">active_</text>
</g>
</g>
</svg>
</svg>

<style type='text/css'>
<![CDATA[
[data-mouse-over-selected='false'] { opacity: 0.7; }
[data-mouse-over-selected='true']  { opacity: 1.0; }
]]>
</style>
<script type="application/ecmascript"><![CDATA[
document.addEventListener('DOMContentLoaded', (event) => {
  highlightEdges();
  highlightAdjacentNodes();
});
]]></script>
</svg>
