<?xml version="1.0" encoding="UTF-8" standalone="no"?>
<!DOCTYPE svg PUBLIC "-//W3C//DTD SVG 1.1//EN"
 "http://www.w3.org/Graphics/SVG/1.1/DTD/svg11.dtd">
<!-- Generated by graphviz version 14.0.0 (20250921.2048)
 -->
<!-- Title: npi::AppMetaData::AppMetaData Pages: 1 -->
<svg width="424pt" height="138pt"
 viewBox="0.00 0.00 424.00 138.00" xmlns="http://www.w3.org/2000/svg" xmlns:xlink="http://www.w3.org/1999/xlink">

<svg id="main" version="1.1" xmlns="http://www.w3.org/2000/svg" xmlns:xlink="http://www.w3.org/1999/xlink" xml:space="preserve">

<style type="text/css"><![CDATA[
.node, .edge {opacity: 0.7;}
.node.selected, .edge.selected {opacity: 1;}
.edge:hover path { stroke: red; }
.edge:hover polygon { stroke: red; fill: red; }
]]></style>
<script type="application/ecmascript" xlink:href="../../svg.min.js"/>
<svg id="graph" class="graph">
<g id="graph0" class="graph" transform="scale(1 1) rotate(0) translate(4 134.25)">
<title>npi::AppMetaData::AppMetaData</title>
<!-- Node1 -->
<g id="Node000001" class="node">
<title>Node1</title>
<g id="a_Node000001"><a xlink:title="Default constructor deleted.">
<polygon fill="#999999" stroke="none" points="416,-74.25 226,-74.25 226,-55 416,-55 416,-74.25"/>
<text xml:space="preserve" text-anchor="start" x="234" y="-60.8" font-family="Consolas" font-weight="bold" font-size="11.00">npi::AppMetaData::AppMetaData</text>
</a>
</g>
</g>
<!-- Node2 -->
<g id="Node000002" class="node">
<title>Node2</title>
<g id="a_Node000002"><a xlink:href="../../d8/d5a/structnpi_1_1_app_meta_data.html#a3dce8e5cccf39fd18f163a2d5c4ecd2f" target="_top" xlink:title="Move constructor deleted.">
<polygon fill="white" stroke="none" points="190,-130.25 0,-130.25 0,-111 190,-111 190,-130.25"/>
<text xml:space="preserve" text-anchor="middle" x="95" y="-115.8" font-family="Consolas" font-size="11.00">npi::AppMetaData::AppMetaData</text>
</a>
</g>
</g>
<!-- Node1&#45;&gt;Node2 -->
<g id="edge1_Node000001_Node000002" class="edge">
<title>Node1&#45;&gt;Node2</title>
<g id="a_edge1_Node000001_Node000002"><a xlink:title=" ">
<path fill="none" stroke="#63b8ff" d="M284.55,-75.98C258.55,-84.06 222.3,-94.83 190,-102.62 177.4,-105.67 163.75,-108.52 150.87,-111.03"/>
<polygon fill="#63b8ff" stroke="#63b8ff" points="289.11,-74.56 285,-78.19 287.88,-74.94 284.33,-76.05 284.33,-76.05 284.33,-76.05 287.88,-74.94 283.66,-73.9 289.11,-74.56"/>
</a>
</g>
</g>
<!-- Node3 -->
<g id="Node000003" class="node">
<title>Node3</title>
<g id="a_Node000003"><a xlink:href="../../d8/d5a/structnpi_1_1_app_meta_data.html#a2e846930e1139147bd4b3761af7e8fc2" target="_top" xlink:title="Copy constructor deleted.">
<polygon fill="white" stroke="none" points="190,-93.25 0,-93.25 0,-74 190,-74 190,-93.25"/>
<text xml:space="preserve" text-anchor="middle" x="95" y="-78.8" font-family="Consolas" font-size="11.00">npi::AppMetaData::AppMetaData</text>
</a>
</g>
</g>
<!-- Node1&#45;&gt;Node3 -->
<g id="edge2_Node000001_Node000003" class="edge">
<title>Node1&#45;&gt;Node3</title>
<g id="a_edge2_Node000001_Node000003"><a xlink:title=" ">
<path fill="none" stroke="#63b8ff" d="M220.32,-73.08C210.13,-73.94 199.8,-74.82 189.68,-75.68"/>
<polygon fill="#63b8ff" stroke="#63b8ff" points="225.09,-72.68 220.3,-75.34 223.81,-72.78 220.11,-73.1 220.11,-73.1 220.11,-73.1 223.81,-72.78 219.92,-70.86 225.09,-72.68"/>
</a>
</g>
</g>
<!-- Node4 -->
<g id="Node000004" class="node">
<title>Node4</title>
<g id="a_Node000004"><a xlink:href="../../d8/d5a/structnpi_1_1_app_meta_data.html#a569b6b524d59c81ed694f172b8675938" target="_top" xlink:title="Move assignment deleted.">
<polygon fill="white" stroke="none" points="184,-56.25 6,-56.25 6,-37 184,-37 184,-56.25"/>
<text xml:space="preserve" text-anchor="middle" x="95" y="-41.8" font-family="Consolas" font-size="11.00">npi::AppMetaData::operator=</text>
</a>
</g>
</g>
<!-- Node1&#45;&gt;Node4 -->
<g id="edge3_Node000001_Node000004" class="edge">
<title>Node1&#45;&gt;Node4</title>
<g id="a_edge3_Node000001_Node000004"><a xlink:title=" ">
<path fill="none" stroke="#63b8ff" d="M220.36,-56.62C208.23,-55.64 195.9,-54.65 183.95,-53.69"/>
<polygon fill="#63b8ff" stroke="#63b8ff" points="225.09,-57 219.92,-58.84 223.81,-56.9 220.1,-56.6 220.1,-56.6 220.1,-56.6 223.81,-56.9 220.28,-54.35 225.09,-57"/>
</a>
</g>
</g>
<!-- Node5 -->
<g id="Node000005" class="node">
<title>Node5</title>
<g id="a_Node000005"><a xlink:href="../../d8/d5a/structnpi_1_1_app_meta_data.html#ad69406492833685ad39645f6d3e738ba" target="_top" xlink:title="Copy assignment deleted.">
<polygon fill="white" stroke="none" points="184,-19.25 6,-19.25 6,0 184,0 184,-19.25"/>
<text xml:space="preserve" text-anchor="middle" x="95" y="-4.8" font-family="Consolas" font-size="11.00">npi::AppMetaData::operator=</text>
</a>
</g>
</g>
<!-- Node1&#45;&gt;Node5 -->
<g id="edge4_Node000001_Node000005" class="edge">
<title>Node1&#45;&gt;Node5</title>
<g id="a_edge4_Node000001_Node000005"><a xlink:title=" ">
<path fill="none" stroke="#63b8ff" d="M283.5,-53.3C257.57,-45.49 221.84,-35.19 190,-27.62 177.23,-24.59 163.39,-21.72 150.35,-19.19"/>
<polygon fill="#63b8ff" stroke="#63b8ff" points="288.04,-54.68 282.6,-55.38 286.81,-54.31 283.25,-53.23 283.25,-53.23 283.25,-53.23 286.81,-54.31 283.91,-51.08 288.04,-54.68"/>
</a>
</g>
</g>
</g>
</svg>
</svg>

<style type='text/css'>
<![CDATA[
[data-mouse-over-selected='false'] { opacity: 0.7; }
[data-mouse-over-selected='true']  { opacity: 1.0; }
]]>
</style>
<script type="application/ecmascript"><![CDATA[
document.addEventListener('DOMContentLoaded', (event) => {
  highlightEdges();
  highlightAdjacentNodes();
});
]]></script>
</svg>
